<?xml version="1.0" encoding="UTF-8" standalone="no"?>
<!DOCTYPE svg PUBLIC "-//W3C//DTD SVG 1.1//EN"
 "http://www.w3.org/Graphics/SVG/1.1/DTD/svg11.dtd">
<!-- Generated by graphviz version 2.40.1 (20161225.0304)
 -->
<!-- Title: src/libbsn/include/libbsn/resource/Battery.hpp Pages: 1 -->
<svg width="281pt" height="95pt"
 viewBox="0.00 0.00 280.50 95.00" xmlns="http://www.w3.org/2000/svg" xmlns:xlink="http://www.w3.org/1999/xlink">
<g id="graph0" class="graph" transform="scale(1 1) rotate(0) translate(4 91)">
<title>src/libbsn/include/libbsn/resource/Battery.hpp</title>
<polygon fill="#ffffff" stroke="transparent" points="-4,4 -4,-91 276.5,-91 276.5,4 -4,4"/>
<!-- Node0 -->
<g id="node1" class="node">
<title>Node0</title>
<polygon fill="#bfbfbf" stroke="#000000" points="53,-56.5 53,-86.5 205,-86.5 205,-56.5 53,-56.5"/>
<text text-anchor="start" x="61" y="-74.5" font-family="Helvetica,sans-Serif" font-size="10.00" fill="#000000">src/libbsn/include</text>
<text text-anchor="middle" x="129" y="-63.5" font-family="Helvetica,sans-Serif" font-size="10.00" fill="#000000">/libbsn/resource/Battery.hpp</text>
</g>
<!-- Node1 -->
<g id="node2" class="node">
<title>Node1</title>
<polygon fill="#ffffff" stroke="#bfbfbf" points="0,-.5 0,-19.5 56,-19.5 56,-.5 0,-.5"/>
<text text-anchor="middle" x="28" y="-7.5" font-family="Helvetica,sans-Serif" font-size="10.00" fill="#000000">sstream</text>
</g>
<!-- Node0&#45;&gt;Node1 -->
<g id="edge1" class="edge">
<title>Node0&#45;&gt;Node1</title>
<path fill="none" stroke="#191970" d="M104.2926,-56.4554C88.4753,-46.8241 68.0433,-34.3828 52.3051,-24.7996"/>
<polygon fill="#191970" stroke="#191970" points="54.0129,-21.7418 43.6514,-19.5303 50.3723,-27.7206 54.0129,-21.7418"/>
</g>
<!-- Node2 -->
<g id="node3" class="node">
<title>Node2</title>
<polygon fill="#ffffff" stroke="#bfbfbf" points="74,-.5 74,-19.5 118,-19.5 118,-.5 74,-.5"/>
<text text-anchor="middle" x="96" y="-7.5" font-family="Helvetica,sans-Serif" font-size="10.00" fill="#000000">string</text>
</g>
<!-- Node0&#45;&gt;Node2 -->
<g id="edge2" class="edge">
<title>Node0&#45;&gt;Node2</title>
<path fill="none" stroke="#191970" d="M120.8427,-56.2977C116.4051,-48.0277 110.875,-37.7215 106.1596,-28.9339"/>
<polygon fill="#191970" stroke="#191970" points="109.096,-27.0037 101.2837,-19.8469 102.9279,-30.3134 109.096,-27.0037"/>
</g>
<!-- Node3 -->
<g id="node4" class="node">
<title>Node3</title>
<polygon fill="#ffffff" stroke="#bfbfbf" points="136.5,-.5 136.5,-19.5 189.5,-19.5 189.5,-.5 136.5,-.5"/>
<text text-anchor="middle" x="163" y="-7.5" font-family="Helvetica,sans-Serif" font-size="10.00" fill="#000000">stdint.h</text>
</g>
<!-- Node0&#45;&gt;Node3 -->
<g id="edge3" class="edge">
<title>Node0&#45;&gt;Node3</title>
<path fill="none" stroke="#191970" d="M137.4045,-56.2977C142.0257,-47.9388 147.7969,-37.4997 152.6889,-28.6509"/>
<polygon fill="#191970" stroke="#191970" points="155.7809,-30.292 157.5562,-19.8469 149.6548,-26.9051 155.7809,-30.292"/>
</g>
<!-- Node4 -->
<g id="node5" class="node">
<title>Node4</title>
<polygon fill="#ffffff" stroke="#bfbfbf" points="207.5,-.5 207.5,-19.5 272.5,-19.5 272.5,-.5 207.5,-.5"/>
<text text-anchor="middle" x="240" y="-7.5" font-family="Helvetica,sans-Serif" font-size="10.00" fill="#000000">stdexcept</text>
</g>
<!-- Node0&#45;&gt;Node4 -->
<g id="edge4" class="edge">
<title>Node0&#45;&gt;Node4</title>
<path fill="none" stroke="#191970" d="M156.1537,-56.4554C173.6995,-46.734 196.4122,-34.15 213.7721,-24.5317"/>
<polygon fill="#191970" stroke="#191970" points="215.748,-27.4383 222.7989,-19.5303 212.3555,-21.3153 215.748,-27.4383"/>
</g>
</g>
</svg>
