<?xml version="1.0" encoding="UTF-8" standalone="no"?>
<!DOCTYPE svg PUBLIC "-//W3C//DTD SVG 1.1//EN"
 "http://www.w3.org/Graphics/SVG/1.1/DTD/svg11.dtd">
<!-- Generated by graphviz version 2.40.1 (20161225.0304)
 -->
<!-- Title: src/libbsn/src/resource/Battery.cpp Pages: 1 -->
<svg width="281pt" height="151pt"
 viewBox="0.00 0.00 280.50 151.00" xmlns="http://www.w3.org/2000/svg" xmlns:xlink="http://www.w3.org/1999/xlink">
<g id="graph0" class="graph" transform="scale(1 1) rotate(0) translate(4 147)">
<title>src/libbsn/src/resource/Battery.cpp</title>
<polygon fill="#ffffff" stroke="transparent" points="-4,4 -4,-147 276.5,-147 276.5,4 -4,4"/>
<!-- Node0 -->
<g id="node1" class="node">
<title>Node0</title>
<polygon fill="#bfbfbf" stroke="#000000" points="66.5,-112.5 66.5,-142.5 191.5,-142.5 191.5,-112.5 66.5,-112.5"/>
<text text-anchor="start" x="74.5" y="-130.5" font-family="Helvetica,sans-Serif" font-size="10.00" fill="#000000">src/libbsn/src/resource</text>
<text text-anchor="middle" x="129" y="-119.5" font-family="Helvetica,sans-Serif" font-size="10.00" fill="#000000">/Battery.cpp</text>
</g>
<!-- Node1 -->
<g id="node2" class="node">
<title>Node1</title>
<g id="a_node2"><a xlink:href="Battery_8hpp.html" target="_top" xlink:title="libbsn/resource/Battery.hpp">
<polygon fill="#ffffff" stroke="#000000" points="54.5,-56.5 54.5,-75.5 203.5,-75.5 203.5,-56.5 54.5,-56.5"/>
<text text-anchor="middle" x="129" y="-63.5" font-family="Helvetica,sans-Serif" font-size="10.00" fill="#000000">libbsn/resource/Battery.hpp</text>
</a>
</g>
</g>
<!-- Node0&#45;&gt;Node1 -->
<g id="edge1" class="edge">
<title>Node0&#45;&gt;Node1</title>
<path fill="none" stroke="#191970" d="M129,-112.2977C129,-104.3834 129,-94.6043 129,-86.0759"/>
<polygon fill="#191970" stroke="#191970" points="132.5001,-85.8469 129,-75.8469 125.5001,-85.847 132.5001,-85.8469"/>
</g>
<!-- Node2 -->
<g id="node3" class="node">
<title>Node2</title>
<polygon fill="#ffffff" stroke="#bfbfbf" points="0,-.5 0,-19.5 56,-19.5 56,-.5 0,-.5"/>
<text text-anchor="middle" x="28" y="-7.5" font-family="Helvetica,sans-Serif" font-size="10.00" fill="#000000">sstream</text>
</g>
<!-- Node1&#45;&gt;Node2 -->
<g id="edge2" class="edge">
<title>Node1&#45;&gt;Node2</title>
<path fill="none" stroke="#191970" d="M111.4071,-56.2455C95.621,-47.4928 72.2361,-34.527 54.2413,-24.5496"/>
<polygon fill="#191970" stroke="#191970" points="55.8341,-21.4308 45.3913,-19.6427 52.4397,-27.5528 55.8341,-21.4308"/>
</g>
<!-- Node3 -->
<g id="node4" class="node">
<title>Node3</title>
<polygon fill="#ffffff" stroke="#bfbfbf" points="74,-.5 74,-19.5 118,-19.5 118,-.5 74,-.5"/>
<text text-anchor="middle" x="96" y="-7.5" font-family="Helvetica,sans-Serif" font-size="10.00" fill="#000000">string</text>
</g>
<!-- Node1&#45;&gt;Node3 -->
<g id="edge3" class="edge">
<title>Node1&#45;&gt;Node3</title>
<path fill="none" stroke="#191970" d="M123.2518,-56.2455C118.7565,-48.617 112.3752,-37.7881 106.9175,-28.5267"/>
<polygon fill="#191970" stroke="#191970" points="109.7747,-26.4811 101.6823,-19.6427 103.7439,-30.035 109.7747,-26.4811"/>
</g>
<!-- Node4 -->
<g id="node5" class="node">
<title>Node4</title>
<polygon fill="#ffffff" stroke="#bfbfbf" points="136.5,-.5 136.5,-19.5 189.5,-19.5 189.5,-.5 136.5,-.5"/>
<text text-anchor="middle" x="163" y="-7.5" font-family="Helvetica,sans-Serif" font-size="10.00" fill="#000000">stdint.h</text>
</g>
<!-- Node1&#45;&gt;Node4 -->
<g id="edge4" class="edge">
<title>Node1&#45;&gt;Node4</title>
<path fill="none" stroke="#191970" d="M134.9223,-56.2455C139.6027,-48.5367 146.2673,-37.5598 151.9289,-28.2348"/>
<polygon fill="#191970" stroke="#191970" points="154.9475,-30.007 157.1455,-19.6427 148.9639,-26.3741 154.9475,-30.007"/>
</g>
<!-- Node5 -->
<g id="node6" class="node">
<title>Node5</title>
<polygon fill="#ffffff" stroke="#bfbfbf" points="207.5,-.5 207.5,-19.5 272.5,-19.5 272.5,-.5 207.5,-.5"/>
<text text-anchor="middle" x="240" y="-7.5" font-family="Helvetica,sans-Serif" font-size="10.00" fill="#000000">stdexcept</text>
</g>
<!-- Node1&#45;&gt;Node5 -->
<g id="edge5" class="edge">
<title>Node1&#45;&gt;Node5</title>
<path fill="none" stroke="#191970" d="M148.0816,-56.3733C165.7402,-47.4644 192.2053,-34.1127 212.2098,-24.0203"/>
<polygon fill="#191970" stroke="#191970" points="213.8158,-27.1303 221.1674,-19.5011 210.6628,-20.8806 213.8158,-27.1303"/>
</g>
</g>
</svg>
