<?xml version="1.0" encoding="UTF-8" standalone="no"?>
<!DOCTYPE svg PUBLIC "-//W3C//DTD SVG 1.1//EN"
 "http://www.w3.org/Graphics/SVG/1.1/DTD/svg11.dtd">
<!-- Generated by graphviz version 2.40.1 (20161225.0304)
 -->
<!-- Title: src/libbsn/include/libbsn/resource/Battery.hpp Pages: 1 -->
<svg width="2482pt" height="273pt"
 viewBox="0.00 0.00 2481.50 273.00" xmlns="http://www.w3.org/2000/svg" xmlns:xlink="http://www.w3.org/1999/xlink">
<g id="graph0" class="graph" transform="scale(1 1) rotate(0) translate(4 269)">
<title>src/libbsn/include/libbsn/resource/Battery.hpp</title>
<polygon fill="#ffffff" stroke="transparent" points="-4,4 -4,-269 2477.5,-269 2477.5,4 -4,4"/>
<!-- Node5 -->
<g id="node1" class="node">
<title>Node5</title>
<polygon fill="#bfbfbf" stroke="#000000" points="1063,-234.5 1063,-264.5 1215,-264.5 1215,-234.5 1063,-234.5"/>
<text text-anchor="start" x="1071" y="-252.5" font-family="Helvetica,sans-Serif" font-size="10.00" fill="#000000">src/libbsn/include</text>
<text text-anchor="middle" x="1139" y="-241.5" font-family="Helvetica,sans-Serif" font-size="10.00" fill="#000000">/libbsn/resource/Battery.hpp</text>
</g>
<!-- Node6 -->
<g id="node2" class="node">
<title>Node6</title>
<g id="a_node2"><a xlink:href="Battery_8cpp.html" target="_top" xlink:title="src/libbsn/src/resource\l/Battery.cpp">
<polygon fill="#ffffff" stroke="#000000" points="562.5,-162 562.5,-192 687.5,-192 687.5,-162 562.5,-162"/>
<text text-anchor="start" x="570.5" y="-180" font-family="Helvetica,sans-Serif" font-size="10.00" fill="#000000">src/libbsn/src/resource</text>
<text text-anchor="middle" x="625" y="-169" font-family="Helvetica,sans-Serif" font-size="10.00" fill="#000000">/Battery.cpp</text>
</a>
</g>
</g>
<!-- Node5&#45;&gt;Node6 -->
<g id="edge1" class="edge">
<title>Node5&#45;&gt;Node6</title>
<path fill="none" stroke="#191970" d="M1052.8088,-243.7589C963.2322,-236.7909 819.3017,-222.7782 697,-198 688.9602,-196.3711 680.517,-194.2722 672.3559,-192.0332"/>
<polygon fill="#191970" stroke="#191970" points="1052.6808,-247.2593 1062.919,-244.5334 1053.2156,-240.2797 1052.6808,-247.2593"/>
</g>
<!-- Node7 -->
<g id="node3" class="node">
<title>Node7</title>
<g id="a_node3"><a xlink:href="ResourcesTest_8cpp.html" target="_top" xlink:title="src/libbsn/test/unit\l/resource/ResourcesTest.cpp">
<polygon fill="#ffffff" stroke="#000000" points="706,-162 706,-192 860,-192 860,-162 706,-162"/>
<text text-anchor="start" x="714" y="-180" font-family="Helvetica,sans-Serif" font-size="10.00" fill="#000000">src/libbsn/test/unit</text>
<text text-anchor="middle" x="783" y="-169" font-family="Helvetica,sans-Serif" font-size="10.00" fill="#000000">/resource/ResourcesTest.cpp</text>
</a>
</g>
</g>
<!-- Node5&#45;&gt;Node7 -->
<g id="edge2" class="edge">
<title>Node5&#45;&gt;Node7</title>
<path fill="none" stroke="#191970" d="M1052.789,-234.2144C999.6621,-224.5077 930.2221,-211.3045 869,-198 860.5895,-196.1723 851.7434,-194.1393 843.0547,-192.0783"/>
<polygon fill="#191970" stroke="#191970" points="1052.3858,-237.6984 1062.851,-236.0466 1053.6399,-230.8117 1052.3858,-237.6984"/>
</g>
<!-- Node8 -->
<g id="node4" class="node">
<title>Node8</title>
<g id="a_node4"><a xlink:href="CentralHub_8hpp.html" target="_top" xlink:title="src/sa&#45;bsn/target_system\l/components/component/include\l/component/CentralHub.hpp">
<polygon fill="#ffffff" stroke="#000000" points="878,-156.5 878,-197.5 1054,-197.5 1054,-156.5 878,-156.5"/>
<text text-anchor="start" x="886" y="-185.5" font-family="Helvetica,sans-Serif" font-size="10.00" fill="#000000">src/sa&#45;bsn/target_system</text>
<text text-anchor="start" x="886" y="-174.5" font-family="Helvetica,sans-Serif" font-size="10.00" fill="#000000">/components/component/include</text>
<text text-anchor="middle" x="966" y="-163.5" font-family="Helvetica,sans-Serif" font-size="10.00" fill="#000000">/component/CentralHub.hpp</text>
</a>
</g>
</g>
<!-- Node5&#45;&gt;Node8 -->
<g id="edge3" class="edge">
<title>Node5&#45;&gt;Node8</title>
<path fill="none" stroke="#191970" d="M1093.828,-230.5695C1069.5943,-220.4138 1039.7033,-207.8872 1014.9208,-197.5015"/>
<polygon fill="#191970" stroke="#191970" points="1092.5786,-233.8408 1103.1543,-234.478 1095.2842,-227.3848 1092.5786,-233.8408"/>
</g>
<!-- Node13 -->
<g id="node9" class="node">
<title>Node13</title>
<g id="a_node9"><a xlink:href="G3T1__1_8hpp.html" target="_top" xlink:title="src/sa&#45;bsn/target_system\l/components/component/include\l/component/g3t1_1/G3T1_1.hpp">
<polygon fill="#ffffff" stroke="#000000" points="601,-78.5 601,-119.5 777,-119.5 777,-78.5 601,-78.5"/>
<text text-anchor="start" x="609" y="-107.5" font-family="Helvetica,sans-Serif" font-size="10.00" fill="#000000">src/sa&#45;bsn/target_system</text>
<text text-anchor="start" x="609" y="-96.5" font-family="Helvetica,sans-Serif" font-size="10.00" fill="#000000">/components/component/include</text>
<text text-anchor="middle" x="689" y="-85.5" font-family="Helvetica,sans-Serif" font-size="10.00" fill="#000000">/component/g3t1_1/G3T1_1.hpp</text>
</a>
</g>
</g>
<!-- Node5&#45;&gt;Node13 -->
<g id="edge8" class="edge">
<title>Node5&#45;&gt;Node13</title>
<path fill="none" stroke="#191970" d="M1119.615,-226.58C1112.1717,-217.7021 1103.634,-207.4243 1096,-198 1081.0575,-179.5534 1083.506,-167.9607 1063,-156 1038.746,-141.8531 880.0216,-121.1732 777.2927,-109.0001"/>
<polygon fill="#191970" stroke="#191970" points="1116.9709,-228.8738 1126.0856,-234.2749 1122.3284,-224.3687 1116.9709,-228.8738"/>
</g>
<!-- Node16 -->
<g id="node12" class="node">
<title>Node16</title>
<g id="a_node12"><a xlink:href="G3T1__2_8hpp.html" target="_top" xlink:title="src/sa&#45;bsn/target_system\l/components/component/include\l/component/g3t1_2/G3T1_2.hpp">
<polygon fill="#ffffff" stroke="#000000" points="876,-78.5 876,-119.5 1052,-119.5 1052,-78.5 876,-78.5"/>
<text text-anchor="start" x="884" y="-107.5" font-family="Helvetica,sans-Serif" font-size="10.00" fill="#000000">src/sa&#45;bsn/target_system</text>
<text text-anchor="start" x="884" y="-96.5" font-family="Helvetica,sans-Serif" font-size="10.00" fill="#000000">/components/component/include</text>
<text text-anchor="middle" x="964" y="-85.5" font-family="Helvetica,sans-Serif" font-size="10.00" fill="#000000">/component/g3t1_2/G3T1_2.hpp</text>
</a>
</g>
</g>
<!-- Node5&#45;&gt;Node16 -->
<g id="edge11" class="edge">
<title>Node5&#45;&gt;Node16</title>
<path fill="none" stroke="#191970" d="M1132.9187,-224.5491C1126.7251,-203.8262 1115.2433,-174.7978 1096,-156 1079.6615,-140.0397 1058.1394,-128.2068 1037.2265,-119.5897"/>
<polygon fill="#191970" stroke="#191970" points="1129.5656,-225.5552 1135.617,-234.2518 1136.3097,-223.6797 1129.5656,-225.5552"/>
</g>
<!-- Node19 -->
<g id="node15" class="node">
<title>Node19</title>
<g id="a_node15"><a xlink:href="G3T1__3_8hpp.html" target="_top" xlink:title="src/sa&#45;bsn/target_system\l/components/component/include\l/component/g3t1_3/G3T1_3.hpp">
<polygon fill="#ffffff" stroke="#000000" points="1070,-78.5 1070,-119.5 1246,-119.5 1246,-78.5 1070,-78.5"/>
<text text-anchor="start" x="1078" y="-107.5" font-family="Helvetica,sans-Serif" font-size="10.00" fill="#000000">src/sa&#45;bsn/target_system</text>
<text text-anchor="start" x="1078" y="-96.5" font-family="Helvetica,sans-Serif" font-size="10.00" fill="#000000">/components/component/include</text>
<text text-anchor="middle" x="1158" y="-85.5" font-family="Helvetica,sans-Serif" font-size="10.00" fill="#000000">/component/g3t1_3/G3T1_3.hpp</text>
</a>
</g>
</g>
<!-- Node5&#45;&gt;Node19 -->
<g id="edge14" class="edge">
<title>Node5&#45;&gt;Node19</title>
<path fill="none" stroke="#191970" d="M1142.2274,-223.9356C1145.9448,-194.4899 1151.979,-146.6924 1155.4057,-119.5494"/>
<polygon fill="#191970" stroke="#191970" points="1138.7065,-223.8814 1140.9264,-234.241 1145.6514,-224.7582 1138.7065,-223.8814"/>
</g>
<!-- Node22 -->
<g id="node18" class="node">
<title>Node22</title>
<g id="a_node18"><a xlink:href="G3T1__4_8hpp.html" target="_top" xlink:title="src/sa&#45;bsn/target_system\l/components/component/include\l/component/g3t1_4/G3T1_4.hpp">
<polygon fill="#ffffff" stroke="#000000" points="1438,-78.5 1438,-119.5 1614,-119.5 1614,-78.5 1438,-78.5"/>
<text text-anchor="start" x="1446" y="-107.5" font-family="Helvetica,sans-Serif" font-size="10.00" fill="#000000">src/sa&#45;bsn/target_system</text>
<text text-anchor="start" x="1446" y="-96.5" font-family="Helvetica,sans-Serif" font-size="10.00" fill="#000000">/components/component/include</text>
<text text-anchor="middle" x="1526" y="-85.5" font-family="Helvetica,sans-Serif" font-size="10.00" fill="#000000">/component/g3t1_4/G3T1_4.hpp</text>
</a>
</g>
</g>
<!-- Node5&#45;&gt;Node22 -->
<g id="edge17" class="edge">
<title>Node5&#45;&gt;Node22</title>
<path fill="none" stroke="#191970" d="M1225.3504,-243.6105C1279.0898,-237.3658 1348.4866,-224.501 1405,-198 1446.0394,-178.7553 1485.027,-142.4892 1507.1754,-119.599"/>
<polygon fill="#191970" stroke="#191970" points="1224.7174,-240.1591 1215.1628,-244.7373 1225.487,-247.1167 1224.7174,-240.1591"/>
</g>
<!-- Node25 -->
<g id="node21" class="node">
<title>Node25</title>
<g id="a_node21"><a xlink:href="G3T1__5_8hpp.html" target="_top" xlink:title="src/sa&#45;bsn/target_system\l/components/component/include\l/component/g3t1_5/G3T1_5.hpp">
<polygon fill="#ffffff" stroke="#000000" points="1707,-78.5 1707,-119.5 1883,-119.5 1883,-78.5 1707,-78.5"/>
<text text-anchor="start" x="1715" y="-107.5" font-family="Helvetica,sans-Serif" font-size="10.00" fill="#000000">src/sa&#45;bsn/target_system</text>
<text text-anchor="start" x="1715" y="-96.5" font-family="Helvetica,sans-Serif" font-size="10.00" fill="#000000">/components/component/include</text>
<text text-anchor="middle" x="1795" y="-85.5" font-family="Helvetica,sans-Serif" font-size="10.00" fill="#000000">/component/g3t1_5/G3T1_5.hpp</text>
</a>
</g>
</g>
<!-- Node5&#45;&gt;Node25 -->
<g id="edge20" class="edge">
<title>Node5&#45;&gt;Node25</title>
<path fill="none" stroke="#191970" d="M1225.4456,-237.9171C1288.1393,-228.8544 1374.7733,-214.9625 1450,-198 1549.5386,-175.5555 1662.8946,-141.3183 1731.6652,-119.558"/>
<polygon fill="#191970" stroke="#191970" points="1224.6059,-234.5016 1215.2038,-239.3854 1225.5994,-241.4307 1224.6059,-234.5016"/>
</g>
<!-- Node28 -->
<g id="node24" class="node">
<title>Node28</title>
<g id="a_node24"><a xlink:href="G3T1__6_8hpp.html" target="_top" xlink:title="src/sa&#45;bsn/target_system\l/components/component/include\l/component/g3t1_6/G3T1_6.hpp">
<polygon fill="#ffffff" stroke="#000000" points="2019,-78.5 2019,-119.5 2195,-119.5 2195,-78.5 2019,-78.5"/>
<text text-anchor="start" x="2027" y="-107.5" font-family="Helvetica,sans-Serif" font-size="10.00" fill="#000000">src/sa&#45;bsn/target_system</text>
<text text-anchor="start" x="2027" y="-96.5" font-family="Helvetica,sans-Serif" font-size="10.00" fill="#000000">/components/component/include</text>
<text text-anchor="middle" x="2107" y="-85.5" font-family="Helvetica,sans-Serif" font-size="10.00" fill="#000000">/component/g3t1_6/G3T1_6.hpp</text>
</a>
</g>
</g>
<!-- Node5&#45;&gt;Node28 -->
<g id="edge23" class="edge">
<title>Node5&#45;&gt;Node28</title>
<path fill="none" stroke="#191970" d="M1225.3018,-239.6013C1306.8148,-229.978 1432.4205,-214.4421 1541,-198 1710.6458,-172.3106 1907.8315,-136.4512 2018.9696,-115.6843"/>
<polygon fill="#191970" stroke="#191970" points="1224.612,-236.1582 1215.0897,-240.8032 1225.4303,-243.1102 1224.612,-236.1582"/>
</g>
<!-- Node31 -->
<g id="node27" class="node">
<title>Node31</title>
<g id="a_node27"><a xlink:href="Sensor_8hpp.html" target="_top" xlink:title="src/sa&#45;bsn/target_system\l/components/component/include\l/component/Sensor.hpp">
<polygon fill="#ffffff" stroke="#000000" points="1220,-156.5 1220,-197.5 1396,-197.5 1396,-156.5 1220,-156.5"/>
<text text-anchor="start" x="1228" y="-185.5" font-family="Helvetica,sans-Serif" font-size="10.00" fill="#000000">src/sa&#45;bsn/target_system</text>
<text text-anchor="start" x="1228" y="-174.5" font-family="Helvetica,sans-Serif" font-size="10.00" fill="#000000">/components/component/include</text>
<text text-anchor="middle" x="1308" y="-163.5" font-family="Helvetica,sans-Serif" font-size="10.00" fill="#000000">/component/Sensor.hpp</text>
</a>
</g>
</g>
<!-- Node5&#45;&gt;Node31 -->
<g id="edge26" class="edge">
<title>Node5&#45;&gt;Node31</title>
<path fill="none" stroke="#191970" d="M1183.4422,-230.4346C1207.0593,-220.303 1236.1079,-207.8413 1260.2103,-197.5015"/>
<polygon fill="#191970" stroke="#191970" points="1181.8271,-227.3189 1174.0169,-234.478 1184.5868,-233.7519 1181.8271,-227.3189"/>
</g>
<!-- Node9 -->
<g id="node5" class="node">
<title>Node9</title>
<g id="a_node5"><a xlink:href="G4T1_8hpp.html" target="_top" xlink:title="src/sa&#45;bsn/target_system\l/components/component/include\l/component/g4t1/G4T1.hpp">
<polygon fill="#ffffff" stroke="#000000" points="290,-78.5 290,-119.5 466,-119.5 466,-78.5 290,-78.5"/>
<text text-anchor="start" x="298" y="-107.5" font-family="Helvetica,sans-Serif" font-size="10.00" fill="#000000">src/sa&#45;bsn/target_system</text>
<text text-anchor="start" x="298" y="-96.5" font-family="Helvetica,sans-Serif" font-size="10.00" fill="#000000">/components/component/include</text>
<text text-anchor="middle" x="378" y="-85.5" font-family="Helvetica,sans-Serif" font-size="10.00" fill="#000000">/component/g4t1/G4T1.hpp</text>
</a>
</g>
</g>
<!-- Node8&#45;&gt;Node9 -->
<g id="edge4" class="edge">
<title>Node8&#45;&gt;Node9</title>
<path fill="none" stroke="#191970" d="M867.6497,-155.8817C778.0128,-141.799 581.4381,-120.3759 466.237,-108.1959"/>
<polygon fill="#191970" stroke="#191970" points="867.3521,-159.3789 877.7824,-157.5189 868.4687,-152.4686 867.3521,-159.3789"/>
</g>
<!-- Node12 -->
<g id="node8" class="node">
<title>Node12</title>
<g id="a_node8"><a xlink:href="CentralHub_8cpp.html" target="_top" xlink:title="src/sa&#45;bsn/target_system\l/components/component/src\l/CentralHub.cpp">
<polygon fill="#ffffff" stroke="#000000" points="116.5,-78.5 116.5,-119.5 271.5,-119.5 271.5,-78.5 116.5,-78.5"/>
<text text-anchor="start" x="124.5" y="-107.5" font-family="Helvetica,sans-Serif" font-size="10.00" fill="#000000">src/sa&#45;bsn/target_system</text>
<text text-anchor="start" x="124.5" y="-96.5" font-family="Helvetica,sans-Serif" font-size="10.00" fill="#000000">/components/component/src</text>
<text text-anchor="middle" x="194" y="-85.5" font-family="Helvetica,sans-Serif" font-size="10.00" fill="#000000">/CentralHub.cpp</text>
</a>
</g>
</g>
<!-- Node8&#45;&gt;Node12 -->
<g id="edge7" class="edge">
<title>Node8&#45;&gt;Node12</title>
<path fill="none" stroke="#191970" d="M867.6951,-155.9356C607.8363,-121.166 536.6346,-158.3736 281,-120 277.9268,-119.5387 274.8029,-119.0213 271.6547,-118.4594"/>
<polygon fill="#191970" stroke="#191970" points="867.433,-159.4321 877.8137,-157.3129 868.3771,-152.4961 867.433,-159.4321"/>
</g>
<!-- Node10 -->
<g id="node6" class="node">
<title>Node10</title>
<g id="a_node6"><a xlink:href="g4t1_8cpp.html" target="_top" xlink:title="src/sa&#45;bsn/target_system\l/components/component/apps\l/g4t1.cpp">
<polygon fill="#ffffff" stroke="#000000" points="0,-.5 0,-41.5 164,-41.5 164,-.5 0,-.5"/>
<text text-anchor="start" x="8" y="-29.5" font-family="Helvetica,sans-Serif" font-size="10.00" fill="#000000">src/sa&#45;bsn/target_system</text>
<text text-anchor="start" x="8" y="-18.5" font-family="Helvetica,sans-Serif" font-size="10.00" fill="#000000">/components/component/apps</text>
<text text-anchor="middle" x="82" y="-7.5" font-family="Helvetica,sans-Serif" font-size="10.00" fill="#000000">/g4t1.cpp</text>
</a>
</g>
</g>
<!-- Node9&#45;&gt;Node10 -->
<g id="edge5" class="edge">
<title>Node9&#45;&gt;Node10</title>
<path fill="none" stroke="#191970" d="M290.0506,-75.8241C248.6986,-64.9273 199.8149,-52.0458 159.8253,-41.508"/>
<polygon fill="#191970" stroke="#191970" points="289.2805,-79.2406 299.8423,-78.4044 291.0643,-72.4717 289.2805,-79.2406"/>
</g>
<!-- Node11 -->
<g id="node7" class="node">
<title>Node11</title>
<g id="a_node7"><a xlink:href="G4T1_8cpp.html" target="_top" xlink:title="src/sa&#45;bsn/target_system\l/components/component/src\l/g4t1/G4T1.cpp">
<polygon fill="#ffffff" stroke="#000000" points="182.5,-.5 182.5,-41.5 337.5,-41.5 337.5,-.5 182.5,-.5"/>
<text text-anchor="start" x="190.5" y="-29.5" font-family="Helvetica,sans-Serif" font-size="10.00" fill="#000000">src/sa&#45;bsn/target_system</text>
<text text-anchor="start" x="190.5" y="-18.5" font-family="Helvetica,sans-Serif" font-size="10.00" fill="#000000">/components/component/src</text>
<text text-anchor="middle" x="260" y="-7.5" font-family="Helvetica,sans-Serif" font-size="10.00" fill="#000000">/g4t1/G4T1.cpp</text>
</a>
</g>
</g>
<!-- Node9&#45;&gt;Node11 -->
<g id="edge6" class="edge">
<title>Node9&#45;&gt;Node11</title>
<path fill="none" stroke="#191970" d="M337.9274,-72.5113C322.6137,-62.3887 305.3971,-51.0083 291.0489,-41.5239"/>
<polygon fill="#191970" stroke="#191970" points="336.4157,-75.7076 346.688,-78.3022 340.2758,-69.8681 336.4157,-75.7076"/>
</g>
<!-- Node14 -->
<g id="node10" class="node">
<title>Node14</title>
<g id="a_node10"><a xlink:href="g3t1__1_8cpp.html" target="_top" xlink:title="src/sa&#45;bsn/target_system\l/components/component/apps\l/g3t1_1.cpp">
<polygon fill="#ffffff" stroke="#000000" points="356,-.5 356,-41.5 520,-41.5 520,-.5 356,-.5"/>
<text text-anchor="start" x="364" y="-29.5" font-family="Helvetica,sans-Serif" font-size="10.00" fill="#000000">src/sa&#45;bsn/target_system</text>
<text text-anchor="start" x="364" y="-18.5" font-family="Helvetica,sans-Serif" font-size="10.00" fill="#000000">/components/component/apps</text>
<text text-anchor="middle" x="438" y="-7.5" font-family="Helvetica,sans-Serif" font-size="10.00" fill="#000000">/g3t1_1.cpp</text>
</a>
</g>
</g>
<!-- Node13&#45;&gt;Node14 -->
<g id="edge9" class="edge">
<title>Node13&#45;&gt;Node14</title>
<path fill="none" stroke="#191970" d="M613.1061,-75.4154C578.3983,-64.6297 537.6577,-51.9693 504.2115,-41.5757"/>
<polygon fill="#191970" stroke="#191970" points="612.1362,-78.7791 622.7244,-78.4044 614.2135,-72.0944 612.1362,-78.7791"/>
</g>
<!-- Node15 -->
<g id="node11" class="node">
<title>Node15</title>
<g id="a_node11"><a xlink:href="G3T1__1_8cpp.html" target="_top" xlink:title="src/sa&#45;bsn/target_system\l/components/component/src\l/g3t1_1/G3T1_1.cpp">
<polygon fill="#ffffff" stroke="#000000" points="538.5,-.5 538.5,-41.5 693.5,-41.5 693.5,-.5 538.5,-.5"/>
<text text-anchor="start" x="546.5" y="-29.5" font-family="Helvetica,sans-Serif" font-size="10.00" fill="#000000">src/sa&#45;bsn/target_system</text>
<text text-anchor="start" x="546.5" y="-18.5" font-family="Helvetica,sans-Serif" font-size="10.00" fill="#000000">/components/component/src</text>
<text text-anchor="middle" x="616" y="-7.5" font-family="Helvetica,sans-Serif" font-size="10.00" fill="#000000">/g3t1_1/G3T1_1.cpp</text>
</a>
</g>
</g>
<!-- Node13&#45;&gt;Node15 -->
<g id="edge10" class="edge">
<title>Node13&#45;&gt;Node15</title>
<path fill="none" stroke="#191970" d="M662.4775,-70.6609C653.5092,-61.0783 643.6704,-50.5657 635.3635,-41.6898"/>
<polygon fill="#191970" stroke="#191970" points="660.0487,-73.1878 669.4373,-78.0974 665.1596,-68.4046 660.0487,-73.1878"/>
</g>
<!-- Node17 -->
<g id="node13" class="node">
<title>Node17</title>
<g id="a_node13"><a xlink:href="g3t1__2_8cpp.html" target="_top" xlink:title="src/sa&#45;bsn/target_system\l/components/component/apps\l/g3t1_2.cpp">
<polygon fill="#ffffff" stroke="#000000" points="712,-.5 712,-41.5 876,-41.5 876,-.5 712,-.5"/>
<text text-anchor="start" x="720" y="-29.5" font-family="Helvetica,sans-Serif" font-size="10.00" fill="#000000">src/sa&#45;bsn/target_system</text>
<text text-anchor="start" x="720" y="-18.5" font-family="Helvetica,sans-Serif" font-size="10.00" fill="#000000">/components/component/apps</text>
<text text-anchor="middle" x="794" y="-7.5" font-family="Helvetica,sans-Serif" font-size="10.00" fill="#000000">/g3t1_2.cpp</text>
</a>
</g>
</g>
<!-- Node16&#45;&gt;Node17 -->
<g id="edge12" class="edge">
<title>Node16&#45;&gt;Node17</title>
<path fill="none" stroke="#191970" d="M909.6477,-74.0619C886.7669,-63.5637 860.4652,-51.4958 838.7315,-41.5239"/>
<polygon fill="#191970" stroke="#191970" points="908.3409,-77.3131 918.8894,-78.3022 911.2601,-70.9508 908.3409,-77.3131"/>
</g>
<!-- Node18 -->
<g id="node14" class="node">
<title>Node18</title>
<g id="a_node14"><a xlink:href="G3T1__2_8cpp.html" target="_top" xlink:title="src/sa&#45;bsn/target_system\l/components/component/src\l/g3t1_2/G3T1_2.cpp">
<polygon fill="#ffffff" stroke="#000000" points="894.5,-.5 894.5,-41.5 1049.5,-41.5 1049.5,-.5 894.5,-.5"/>
<text text-anchor="start" x="902.5" y="-29.5" font-family="Helvetica,sans-Serif" font-size="10.00" fill="#000000">src/sa&#45;bsn/target_system</text>
<text text-anchor="start" x="902.5" y="-18.5" font-family="Helvetica,sans-Serif" font-size="10.00" fill="#000000">/components/component/src</text>
<text text-anchor="middle" x="972" y="-7.5" font-family="Helvetica,sans-Serif" font-size="10.00" fill="#000000">/g3t1_2/G3T1_2.cpp</text>
</a>
</g>
</g>
<!-- Node16&#45;&gt;Node18 -->
<g id="edge13" class="edge">
<title>Node16&#45;&gt;Node18</title>
<path fill="none" stroke="#191970" d="M967.1714,-68.0789C968.0802,-59.2178 969.0487,-49.7747 969.878,-41.6898"/>
<polygon fill="#191970" stroke="#191970" points="963.6825,-67.7925 966.1439,-78.0974 970.646,-68.5067 963.6825,-67.7925"/>
</g>
<!-- Node20 -->
<g id="node16" class="node">
<title>Node20</title>
<g id="a_node16"><a xlink:href="g3t1__3_8cpp.html" target="_top" xlink:title="src/sa&#45;bsn/target_system\l/components/component/apps\l/g3t1_3.cpp">
<polygon fill="#ffffff" stroke="#000000" points="1068,-.5 1068,-41.5 1232,-41.5 1232,-.5 1068,-.5"/>
<text text-anchor="start" x="1076" y="-29.5" font-family="Helvetica,sans-Serif" font-size="10.00" fill="#000000">src/sa&#45;bsn/target_system</text>
<text text-anchor="start" x="1076" y="-18.5" font-family="Helvetica,sans-Serif" font-size="10.00" fill="#000000">/components/component/apps</text>
<text text-anchor="middle" x="1150" y="-7.5" font-family="Helvetica,sans-Serif" font-size="10.00" fill="#000000">/g3t1_3.cpp</text>
</a>
</g>
</g>
<!-- Node19&#45;&gt;Node20 -->
<g id="edge15" class="edge">
<title>Node19&#45;&gt;Node20</title>
<path fill="none" stroke="#191970" d="M1154.8286,-68.0789C1153.9198,-59.2178 1152.9513,-49.7747 1152.122,-41.6898"/>
<polygon fill="#191970" stroke="#191970" points="1151.354,-68.5067 1155.8561,-78.0974 1158.3175,-67.7925 1151.354,-68.5067"/>
</g>
<!-- Node21 -->
<g id="node17" class="node">
<title>Node21</title>
<g id="a_node17"><a xlink:href="G3T1__3_8cpp.html" target="_top" xlink:title="src/sa&#45;bsn/target_system\l/components/component/src\l/g3t1_3/G3T1_3.cpp">
<polygon fill="#ffffff" stroke="#000000" points="1250.5,-.5 1250.5,-41.5 1405.5,-41.5 1405.5,-.5 1250.5,-.5"/>
<text text-anchor="start" x="1258.5" y="-29.5" font-family="Helvetica,sans-Serif" font-size="10.00" fill="#000000">src/sa&#45;bsn/target_system</text>
<text text-anchor="start" x="1258.5" y="-18.5" font-family="Helvetica,sans-Serif" font-size="10.00" fill="#000000">/components/component/src</text>
<text text-anchor="middle" x="1328" y="-7.5" font-family="Helvetica,sans-Serif" font-size="10.00" fill="#000000">/g3t1_3/G3T1_3.cpp</text>
</a>
</g>
</g>
<!-- Node19&#45;&gt;Node21 -->
<g id="edge16" class="edge">
<title>Node19&#45;&gt;Node21</title>
<path fill="none" stroke="#191970" d="M1212.3523,-74.0619C1235.2331,-63.5637 1261.5348,-51.4958 1283.2685,-41.5239"/>
<polygon fill="#191970" stroke="#191970" points="1210.7399,-70.9508 1203.1106,-78.3022 1213.6591,-77.3131 1210.7399,-70.9508"/>
</g>
<!-- Node23 -->
<g id="node19" class="node">
<title>Node23</title>
<g id="a_node19"><a xlink:href="g3t1__4_8cpp.html" target="_top" xlink:title="src/sa&#45;bsn/target_system\l/components/component/apps\l/g3t1_4.cpp">
<polygon fill="#ffffff" stroke="#000000" points="1424,-.5 1424,-41.5 1588,-41.5 1588,-.5 1424,-.5"/>
<text text-anchor="start" x="1432" y="-29.5" font-family="Helvetica,sans-Serif" font-size="10.00" fill="#000000">src/sa&#45;bsn/target_system</text>
<text text-anchor="start" x="1432" y="-18.5" font-family="Helvetica,sans-Serif" font-size="10.00" fill="#000000">/components/component/apps</text>
<text text-anchor="middle" x="1506" y="-7.5" font-family="Helvetica,sans-Serif" font-size="10.00" fill="#000000">/g3t1_4.cpp</text>
</a>
</g>
</g>
<!-- Node22&#45;&gt;Node23 -->
<g id="edge18" class="edge">
<title>Node22&#45;&gt;Node23</title>
<path fill="none" stroke="#191970" d="M1518.1455,-68.3676C1515.8521,-59.4232 1513.4007,-49.8626 1511.3051,-41.6898"/>
<polygon fill="#191970" stroke="#191970" points="1514.7662,-69.2801 1520.6404,-78.0974 1521.5469,-67.5414 1514.7662,-69.2801"/>
</g>
<!-- Node24 -->
<g id="node20" class="node">
<title>Node24</title>
<g id="a_node20"><a xlink:href="G3T1__4_8cpp.html" target="_top" xlink:title="src/sa&#45;bsn/target_system\l/components/component/src\l/g3t1_4/G3T1_4.cpp">
<polygon fill="#ffffff" stroke="#000000" points="1606.5,-.5 1606.5,-41.5 1761.5,-41.5 1761.5,-.5 1606.5,-.5"/>
<text text-anchor="start" x="1614.5" y="-29.5" font-family="Helvetica,sans-Serif" font-size="10.00" fill="#000000">src/sa&#45;bsn/target_system</text>
<text text-anchor="start" x="1614.5" y="-18.5" font-family="Helvetica,sans-Serif" font-size="10.00" fill="#000000">/components/component/src</text>
<text text-anchor="middle" x="1684" y="-7.5" font-family="Helvetica,sans-Serif" font-size="10.00" fill="#000000">/g3t1_4/G3T1_4.cpp</text>
</a>
</g>
</g>
<!-- Node22&#45;&gt;Node24 -->
<g id="edge19" class="edge">
<title>Node22&#45;&gt;Node24</title>
<path fill="none" stroke="#191970" d="M1577.0835,-73.7816C1598.2156,-63.3493 1622.406,-51.4072 1642.426,-41.5239"/>
<polygon fill="#191970" stroke="#191970" points="1575.3438,-70.7371 1567.9263,-78.3022 1578.4425,-77.0139 1575.3438,-70.7371"/>
</g>
<!-- Node26 -->
<g id="node22" class="node">
<title>Node26</title>
<g id="a_node22"><a xlink:href="g3t1__5_8cpp.html" target="_top" xlink:title="src/sa&#45;bsn/target_system\l/components/component/apps\l/g3t1_5.cpp">
<polygon fill="#ffffff" stroke="#000000" points="1780,-.5 1780,-41.5 1944,-41.5 1944,-.5 1780,-.5"/>
<text text-anchor="start" x="1788" y="-29.5" font-family="Helvetica,sans-Serif" font-size="10.00" fill="#000000">src/sa&#45;bsn/target_system</text>
<text text-anchor="start" x="1788" y="-18.5" font-family="Helvetica,sans-Serif" font-size="10.00" fill="#000000">/components/component/apps</text>
<text text-anchor="middle" x="1862" y="-7.5" font-family="Helvetica,sans-Serif" font-size="10.00" fill="#000000">/g3t1_5.cpp</text>
</a>
</g>
</g>
<!-- Node25&#45;&gt;Node26 -->
<g id="edge21" class="edge">
<title>Node25&#45;&gt;Node26</title>
<path fill="none" stroke="#191970" d="M1819.5873,-70.376C1827.7524,-60.8703 1836.6793,-50.4778 1844.228,-41.6898"/>
<polygon fill="#191970" stroke="#191970" points="1816.8157,-68.2311 1812.9548,-78.0974 1822.1257,-72.7923 1816.8157,-68.2311"/>
</g>
<!-- Node27 -->
<g id="node23" class="node">
<title>Node27</title>
<g id="a_node23"><a xlink:href="G3T1__5_8cpp.html" target="_top" xlink:title="src/sa&#45;bsn/target_system\l/components/component/src\l/g3t1_5/G3T1_5.cpp">
<polygon fill="#ffffff" stroke="#000000" points="1962.5,-.5 1962.5,-41.5 2117.5,-41.5 2117.5,-.5 1962.5,-.5"/>
<text text-anchor="start" x="1970.5" y="-29.5" font-family="Helvetica,sans-Serif" font-size="10.00" fill="#000000">src/sa&#45;bsn/target_system</text>
<text text-anchor="start" x="1970.5" y="-18.5" font-family="Helvetica,sans-Serif" font-size="10.00" fill="#000000">/components/component/src</text>
<text text-anchor="middle" x="2040" y="-7.5" font-family="Helvetica,sans-Serif" font-size="10.00" fill="#000000">/g3t1_5/G3T1_5.cpp</text>
</a>
</g>
</g>
<!-- Node25&#45;&gt;Node27 -->
<g id="edge22" class="edge">
<title>Node25&#45;&gt;Node27</title>
<path fill="none" stroke="#191970" d="M1869.5144,-75.277C1903.2976,-64.5216 1942.864,-51.9249 1975.3713,-41.5757"/>
<polygon fill="#191970" stroke="#191970" points="1868.1583,-72.0356 1859.6913,-78.4044 1870.2819,-78.7057 1868.1583,-72.0356"/>
</g>
<!-- Node29 -->
<g id="node25" class="node">
<title>Node29</title>
<g id="a_node25"><a xlink:href="g3t1__6_8cpp.html" target="_top" xlink:title="src/sa&#45;bsn/target_system\l/components/component/apps\l/g3t1_6.cpp">
<polygon fill="#ffffff" stroke="#000000" points="2136,-.5 2136,-41.5 2300,-41.5 2300,-.5 2136,-.5"/>
<text text-anchor="start" x="2144" y="-29.5" font-family="Helvetica,sans-Serif" font-size="10.00" fill="#000000">src/sa&#45;bsn/target_system</text>
<text text-anchor="start" x="2144" y="-18.5" font-family="Helvetica,sans-Serif" font-size="10.00" fill="#000000">/components/component/apps</text>
<text text-anchor="middle" x="2218" y="-7.5" font-family="Helvetica,sans-Serif" font-size="10.00" fill="#000000">/g3t1_6.cpp</text>
</a>
</g>
</g>
<!-- Node28&#45;&gt;Node29 -->
<g id="edge24" class="edge">
<title>Node28&#45;&gt;Node29</title>
<path fill="none" stroke="#191970" d="M2144.6954,-72.5113C2159.1007,-62.3887 2175.2959,-51.0083 2188.793,-41.5239"/>
<polygon fill="#191970" stroke="#191970" points="2142.6242,-69.689 2136.4545,-78.3022 2146.6488,-75.4164 2142.6242,-69.689"/>
</g>
<!-- Node30 -->
<g id="node26" class="node">
<title>Node30</title>
<g id="a_node26"><a xlink:href="G3T1__6_8cpp.html" target="_top" xlink:title="src/sa&#45;bsn/target_system\l/components/component/src\l/g3t1_6/G3T1_6.cpp">
<polygon fill="#ffffff" stroke="#000000" points="2318.5,-.5 2318.5,-41.5 2473.5,-41.5 2473.5,-.5 2318.5,-.5"/>
<text text-anchor="start" x="2326.5" y="-29.5" font-family="Helvetica,sans-Serif" font-size="10.00" fill="#000000">src/sa&#45;bsn/target_system</text>
<text text-anchor="start" x="2326.5" y="-18.5" font-family="Helvetica,sans-Serif" font-size="10.00" fill="#000000">/components/component/src</text>
<text text-anchor="middle" x="2396" y="-7.5" font-family="Helvetica,sans-Serif" font-size="10.00" fill="#000000">/g3t1_6/G3T1_6.cpp</text>
</a>
</g>
</g>
<!-- Node28&#45;&gt;Node30 -->
<g id="edge25" class="edge">
<title>Node28&#45;&gt;Node30</title>
<path fill="none" stroke="#191970" d="M2193.1252,-75.7551C2233.4449,-64.873 2281.0536,-52.0236 2320.0152,-41.508"/>
<polygon fill="#191970" stroke="#191970" points="2192.0519,-72.4195 2183.3094,-78.4044 2193.876,-79.1777 2192.0519,-72.4195"/>
</g>
<!-- Node31&#45;&gt;Node13 -->
<g id="edge27" class="edge">
<title>Node31&#45;&gt;Node13</title>
<path fill="none" stroke="#191970" d="M1209.7618,-164.621C1090.6413,-149.6107 891.6493,-124.5358 777.2271,-110.1175"/>
<polygon fill="#191970" stroke="#191970" points="1209.6106,-168.1296 1219.9698,-165.9073 1210.4858,-161.1845 1209.6106,-168.1296"/>
</g>
<!-- Node31&#45;&gt;Node16 -->
<g id="edge28" class="edge">
<title>Node31&#45;&gt;Node16</title>
<path fill="none" stroke="#191970" d="M1210.0607,-154.7928C1160.3614,-143.5238 1100.465,-129.9426 1052.2112,-119.0014"/>
<polygon fill="#191970" stroke="#191970" points="1209.3317,-158.2163 1219.8582,-157.0144 1210.8797,-151.3896 1209.3317,-158.2163"/>
</g>
<!-- Node31&#45;&gt;Node19 -->
<g id="edge29" class="edge">
<title>Node31&#45;&gt;Node19</title>
<path fill="none" stroke="#191970" d="M1259.233,-151.6411C1239.235,-141.2422 1216.3901,-129.3628 1197.469,-119.5239"/>
<polygon fill="#191970" stroke="#191970" points="1257.7096,-154.7939 1268.1966,-156.3022 1260.9391,-148.5834 1257.7096,-154.7939"/>
</g>
<!-- Node31&#45;&gt;Node22 -->
<g id="edge30" class="edge">
<title>Node31&#45;&gt;Node22</title>
<path fill="none" stroke="#191970" d="M1375.0778,-152.9997C1404.9667,-142.3055 1439.8171,-129.8361 1468.4936,-119.5757"/>
<polygon fill="#191970" stroke="#191970" points="1373.7984,-149.7401 1365.5621,-156.4044 1376.1567,-156.3309 1373.7984,-149.7401"/>
</g>
<!-- Node31&#45;&gt;Node25 -->
<g id="edge31" class="edge">
<title>Node31&#45;&gt;Node25</title>
<path fill="none" stroke="#191970" d="M1406.1745,-161.276C1494.0912,-147.1948 1621.8651,-126.73 1706.6426,-113.1517"/>
<polygon fill="#191970" stroke="#191970" points="1405.5126,-157.8373 1396.192,-162.8748 1406.6197,-164.7492 1405.5126,-157.8373"/>
</g>
<!-- Node31&#45;&gt;Node28 -->
<g id="edge32" class="edge">
<title>Node31&#45;&gt;Node28</title>
<path fill="none" stroke="#191970" d="M1406.3353,-167.4044C1522.404,-156.0778 1721.2445,-136.6723 1892,-120 1933.7124,-115.9273 1979.9767,-111.4086 2018.8706,-107.6094"/>
<polygon fill="#191970" stroke="#191970" points="1405.668,-163.9528 1396.0553,-168.4075 1406.348,-170.9197 1405.668,-163.9528"/>
</g>
<!-- Node32 -->
<g id="node28" class="node">
<title>Node32</title>
<g id="a_node28"><a xlink:href="Sensor_8cpp.html" target="_top" xlink:title="src/sa&#45;bsn/target_system\l/components/component/src\l/Sensor.cpp">
<polygon fill="#ffffff" stroke="#000000" points="1264.5,-78.5 1264.5,-119.5 1419.5,-119.5 1419.5,-78.5 1264.5,-78.5"/>
<text text-anchor="start" x="1272.5" y="-107.5" font-family="Helvetica,sans-Serif" font-size="10.00" fill="#000000">src/sa&#45;bsn/target_system</text>
<text text-anchor="start" x="1272.5" y="-96.5" font-family="Helvetica,sans-Serif" font-size="10.00" fill="#000000">/components/component/src</text>
<text text-anchor="middle" x="1342" y="-85.5" font-family="Helvetica,sans-Serif" font-size="10.00" fill="#000000">/Sensor.cpp</text>
</a>
</g>
</g>
<!-- Node31&#45;&gt;Node32 -->
<g id="edge33" class="edge">
<title>Node31&#45;&gt;Node32</title>
<path fill="none" stroke="#191970" d="M1321.2269,-146.6559C1325.1617,-137.629 1329.3805,-127.9505 1332.9814,-119.6898"/>
<polygon fill="#191970" stroke="#191970" points="1317.8988,-145.5319 1317.1114,-156.0974 1324.3157,-148.329 1317.8988,-145.5319"/>
</g>
</g>
</svg>
