<?xml version="1.0" encoding="UTF-8" standalone="no"?>
<!DOCTYPE svg PUBLIC "-//W3C//DTD SVG 1.1//EN"
 "http://www.w3.org/Graphics/SVG/1.1/DTD/svg11.dtd">
<!-- Generated by graphviz version 2.40.1 (20161225.0304)
 -->
<!-- Title: bsn::resource::Battery::generate Pages: 1 -->
<svg width="613pt" height="66pt"
 viewBox="0.00 0.00 613.00 66.00" xmlns="http://www.w3.org/2000/svg" xmlns:xlink="http://www.w3.org/1999/xlink">
<g id="graph0" class="graph" transform="scale(1 1) rotate(0) translate(4 62)">
<title>bsn::resource::Battery::generate</title>
<polygon fill="#ffffff" stroke="transparent" points="-4,4 -4,-62 609,-62 609,4 -4,4"/>
<!-- Node31 -->
<g id="node1" class="node">
<title>Node31</title>
<polygon fill="#bfbfbf" stroke="#000000" points="0,-14 0,-44 124,-44 124,-14 0,-14"/>
<text text-anchor="start" x="8" y="-32" font-family="Helvetica,sans-Serif" font-size="10.00" fill="#000000">bsn::resource::Battery</text>
<text text-anchor="middle" x="62" y="-21" font-family="Helvetica,sans-Serif" font-size="10.00" fill="#000000">::generate</text>
</g>
<!-- Node32 -->
<g id="node2" class="node">
<title>Node32</title>
<g id="a_node2"><a xlink:href="classCentralHub.html#a72336916ee15e722ee0b9f2c7c3747b6" target="_top" xlink:title="CentralHub::reconfigure">
<polygon fill="#ffffff" stroke="#000000" points="160,-38.5 160,-57.5 292,-57.5 292,-38.5 160,-38.5"/>
<text text-anchor="middle" x="226" y="-45.5" font-family="Helvetica,sans-Serif" font-size="10.00" fill="#000000">CentralHub::reconfigure</text>
</a>
</g>
</g>
<!-- Node31&#45;&gt;Node32 -->
<g id="edge1" class="edge">
<title>Node31&#45;&gt;Node32</title>
<path fill="none" stroke="#191970" d="M133.9885,-37.3401C142.5739,-38.3348 151.3079,-39.3466 159.8064,-40.3312"/>
<polygon fill="#191970" stroke="#191970" points="134.3378,-33.8573 124.0014,-36.1831 133.5321,-40.8108 134.3378,-33.8573"/>
</g>
<!-- Node35 -->
<g id="node5" class="node">
<title>Node35</title>
<g id="a_node5"><a xlink:href="classSensor.html#aa2c5c0b7c6f69e6e25cf56bab5fc822b" target="_top" xlink:title="Sensor::recharge">
<polygon fill="#ffffff" stroke="#000000" points="177,-.5 177,-19.5 275,-19.5 275,-.5 177,-.5"/>
<text text-anchor="middle" x="226" y="-7.5" font-family="Helvetica,sans-Serif" font-size="10.00" fill="#000000">Sensor::recharge</text>
</a>
</g>
</g>
<!-- Node31&#45;&gt;Node35 -->
<g id="edge4" class="edge">
<title>Node31&#45;&gt;Node35</title>
<path fill="none" stroke="#191970" d="M133.9625,-20.6629C148.4821,-18.9807 163.428,-17.2492 176.9421,-15.6835"/>
<polygon fill="#191970" stroke="#191970" points="133.5321,-17.1892 124.0014,-21.8169 134.3378,-24.1427 133.5321,-17.1892"/>
</g>
<!-- Node33 -->
<g id="node3" class="node">
<title>Node33</title>
<g id="a_node3"><a xlink:href="classCentralHub.html#a388e947318a28cf7cac762ac8b1cf3d4" target="_top" xlink:title="CentralHub::run">
<polygon fill="#ffffff" stroke="#000000" points="328,-38.5 328,-57.5 421,-57.5 421,-38.5 328,-38.5"/>
<text text-anchor="middle" x="374.5" y="-45.5" font-family="Helvetica,sans-Serif" font-size="10.00" fill="#000000">CentralHub::run</text>
</a>
</g>
</g>
<!-- Node32&#45;&gt;Node33 -->
<g id="edge2" class="edge">
<title>Node32&#45;&gt;Node33</title>
<path fill="none" stroke="#191970" d="M302.5028,-48C311.0896,-48 319.6361,-48 327.6825,-48"/>
<polygon fill="#191970" stroke="#191970" points="302.4319,-44.5001 292.4319,-48 302.4318,-51.5001 302.4319,-44.5001"/>
</g>
<!-- Node34 -->
<g id="node4" class="node">
<title>Node34</title>
<g id="a_node4"><a xlink:href="g4t1_8cpp.html#af19ddca125f05a2090dd132045573ee4" target="_top" xlink:title="main">
<polygon fill="#ffffff" stroke="#000000" points="472,-38.5 472,-57.5 513,-57.5 513,-38.5 472,-38.5"/>
<text text-anchor="middle" x="492.5" y="-45.5" font-family="Helvetica,sans-Serif" font-size="10.00" fill="#000000">main</text>
</a>
</g>
</g>
<!-- Node33&#45;&gt;Node34 -->
<g id="edge3" class="edge">
<title>Node33&#45;&gt;Node34</title>
<path fill="none" stroke="#191970" d="M431.5291,-48C445.9063,-48 460.4398,-48 471.7095,-48"/>
<polygon fill="#191970" stroke="#191970" points="431.1368,-44.5001 421.1367,-48 431.1367,-51.5001 431.1368,-44.5001"/>
</g>
<!-- Node36 -->
<g id="node6" class="node">
<title>Node36</title>
<g id="a_node6"><a xlink:href="classSensor.html#a043dabb8b92f70fc247d585b8d66e133" target="_top" xlink:title="Sensor::body">
<polygon fill="#ffffff" stroke="#000000" points="334.5,-.5 334.5,-19.5 414.5,-19.5 414.5,-.5 334.5,-.5"/>
<text text-anchor="middle" x="374.5" y="-7.5" font-family="Helvetica,sans-Serif" font-size="10.00" fill="#000000">Sensor::body</text>
</a>
</g>
</g>
<!-- Node35&#45;&gt;Node36 -->
<g id="edge5" class="edge">
<title>Node35&#45;&gt;Node36</title>
<path fill="none" stroke="#191970" d="M285.1646,-10C301.6977,-10 319.2726,-10 334.4208,-10"/>
<polygon fill="#191970" stroke="#191970" points="285.036,-6.5001 275.036,-10 285.036,-13.5001 285.036,-6.5001"/>
</g>
<!-- Node37 -->
<g id="node7" class="node">
<title>Node37</title>
<g id="a_node7"><a xlink:href="classSensor.html#a1a664cdb090cb4295bbdedcffb1c8499" target="_top" xlink:title="Sensor::run">
<polygon fill="#ffffff" stroke="#000000" points="457,-.5 457,-19.5 528,-19.5 528,-.5 457,-.5"/>
<text text-anchor="middle" x="492.5" y="-7.5" font-family="Helvetica,sans-Serif" font-size="10.00" fill="#000000">Sensor::run</text>
</a>
</g>
</g>
<!-- Node36&#45;&gt;Node37 -->
<g id="edge6" class="edge">
<title>Node36&#45;&gt;Node37</title>
<path fill="none" stroke="#191970" d="M424.8885,-10C435.6063,-10 446.7116,-10 456.7483,-10"/>
<polygon fill="#191970" stroke="#191970" points="424.7789,-6.5001 414.7789,-10 424.7788,-13.5001 424.7789,-6.5001"/>
</g>
<!-- Node38 -->
<g id="node8" class="node">
<title>Node38</title>
<g id="a_node8"><a xlink:href="g3t1__1_8cpp.html#a3c04138a5bfe5d72780bb7e82a18e627" target="_top" xlink:title="main">
<polygon fill="#ffffff" stroke="#000000" points="564,-.5 564,-19.5 605,-19.5 605,-.5 564,-.5"/>
<text text-anchor="middle" x="584.5" y="-7.5" font-family="Helvetica,sans-Serif" font-size="10.00" fill="#000000">main</text>
</a>
</g>
</g>
<!-- Node37&#45;&gt;Node38 -->
<g id="edge7" class="edge">
<title>Node37&#45;&gt;Node38</title>
<path fill="none" stroke="#191970" d="M538.1796,-10C547.206,-10 556.2489,-10 563.9178,-10"/>
<polygon fill="#191970" stroke="#191970" points="538.0696,-6.5001 528.0696,-10 538.0696,-13.5001 538.0696,-6.5001"/>
</g>
</g>
</svg>
