<?xml version="1.0" encoding="UTF-8" standalone="no"?>
<!DOCTYPE svg PUBLIC "-//W3C//DTD SVG 1.1//EN"
 "http://www.w3.org/Graphics/SVG/1.1/DTD/svg11.dtd">
<!-- Generated by graphviz version 2.40.1 (20161225.0304)
 -->
<!-- Title: Engine::setUp_formula Pages: 1 -->
<svg width="398pt" height="88pt"
 viewBox="0.00 0.00 398.00 88.00" xmlns="http://www.w3.org/2000/svg" xmlns:xlink="http://www.w3.org/1999/xlink">
<g id="graph0" class="graph" transform="scale(1 1) rotate(0) translate(4 84)">
<title>Engine::setUp_formula</title>
<polygon fill="#ffffff" stroke="transparent" points="-4,4 -4,-84 394,-84 394,4 -4,4"/>
<!-- Node100 -->
<g id="node1" class="node">
<title>Node100</title>
<polygon fill="#bfbfbf" stroke="#000000" points="0,-19.5 0,-38.5 128,-38.5 128,-19.5 0,-19.5"/>
<text text-anchor="middle" x="64" y="-26.5" font-family="Helvetica,sans-Serif" font-size="10.00" fill="#000000">Engine::setUp_formula</text>
</g>
<!-- Node101 -->
<g id="node2" class="node">
<title>Node101</title>
<g id="a_node2"><a xlink:href="classEngine.html#ae0233e4936be42094d3dfd401633cccd" target="_top" xlink:title="Engine::setUp">
<polygon fill="#ffffff" stroke="#000000" points="164,-38.5 164,-57.5 248,-57.5 248,-38.5 164,-38.5"/>
<text text-anchor="middle" x="206" y="-45.5" font-family="Helvetica,sans-Serif" font-size="10.00" fill="#000000">Engine::setUp</text>
</a>
</g>
</g>
<!-- Node100&#45;&gt;Node101 -->
<g id="edge1" class="edge">
<title>Node100&#45;&gt;Node101</title>
<path fill="none" stroke="#191970" d="M138.5365,-38.9732C147.2107,-40.1338 155.8143,-41.285 163.8278,-42.3572"/>
<polygon fill="#191970" stroke="#191970" points="138.7283,-35.4677 128.3524,-37.6105 137.7999,-42.4059 138.7283,-35.4677"/>
</g>
<!-- Node104 -->
<g id="node5" class="node">
<title>Node104</title>
<g id="a_node5"><a xlink:href="classEngine.html#ae164dcb3bf318cb307ab7266974c2064" target="_top" xlink:title="Engine::body">
<polygon fill="#ffffff" stroke="#000000" points="166,-.5 166,-19.5 246,-19.5 246,-.5 166,-.5"/>
<text text-anchor="middle" x="206" y="-7.5" font-family="Helvetica,sans-Serif" font-size="10.00" fill="#000000">Engine::body</text>
</a>
</g>
</g>
<!-- Node100&#45;&gt;Node104 -->
<g id="edge4" class="edge">
<title>Node100&#45;&gt;Node104</title>
<path fill="none" stroke="#191970" d="M138.5572,-19.024C147.9602,-17.7659 157.2799,-16.5189 165.8542,-15.3716"/>
<polygon fill="#191970" stroke="#191970" points="137.7999,-15.5941 128.3524,-20.3895 138.7283,-22.5323 137.7999,-15.5941"/>
</g>
<!-- Node102 -->
<g id="node3" class="node">
<title>Node102</title>
<g id="a_node3"><a xlink:href="classCostEngine.html#abf2d8b5da61c0c372c6d632d9a55e832" target="_top" xlink:title="CostEngine::setUp">
<polygon fill="#ffffff" stroke="#000000" points="284,-60.5 284,-79.5 390,-79.5 390,-60.5 284,-60.5"/>
<text text-anchor="middle" x="337" y="-67.5" font-family="Helvetica,sans-Serif" font-size="10.00" fill="#000000">CostEngine::setUp</text>
</a>
</g>
</g>
<!-- Node101&#45;&gt;Node102 -->
<g id="edge2" class="edge">
<title>Node101&#45;&gt;Node102</title>
<path fill="none" stroke="#191970" d="M258.2601,-56.7765C266.6884,-58.192 275.4221,-59.6587 283.8707,-61.0775"/>
<polygon fill="#191970" stroke="#191970" points="258.6119,-53.2866 248.1703,-55.082 257.4525,-60.19 258.6119,-53.2866"/>
</g>
<!-- Node103 -->
<g id="node4" class="node">
<title>Node103</title>
<g id="a_node4"><a xlink:href="classReliabilityEngine.html#ad5323671d1e8645df2e0f7d9772bf806" target="_top" xlink:title="ReliabilityEngine::\lsetUp">
<polygon fill="#ffffff" stroke="#000000" points="285,-11 285,-41 389,-41 389,-11 285,-11"/>
<text text-anchor="start" x="293" y="-29" font-family="Helvetica,sans-Serif" font-size="10.00" fill="#000000">ReliabilityEngine::</text>
<text text-anchor="middle" x="337" y="-18" font-family="Helvetica,sans-Serif" font-size="10.00" fill="#000000">setUp</text>
</a>
</g>
</g>
<!-- Node101&#45;&gt;Node103 -->
<g id="edge3" class="edge">
<title>Node101&#45;&gt;Node103</title>
<path fill="none" stroke="#191970" d="M258.2454,-39.226C266.9903,-37.7574 276.0642,-36.2335 284.8077,-34.7651"/>
<polygon fill="#191970" stroke="#191970" points="257.4525,-35.81 248.1703,-40.918 258.6119,-42.7134 257.4525,-35.81"/>
</g>
</g>
</svg>
