<?xml version="1.0" encoding="UTF-8" standalone="no"?>
<!DOCTYPE svg PUBLIC "-//W3C//DTD SVG 1.1//EN"
 "http://www.w3.org/Graphics/SVG/1.1/DTD/svg11.dtd">
<!-- Generated by graphviz version 2.40.1 (20161225.0304)
 -->
<!-- Title: arch::target_system::Component::setUp Pages: 1 -->
<svg width="758pt" height="218pt"
 viewBox="0.00 0.00 758.00 218.47" xmlns="http://www.w3.org/2000/svg" xmlns:xlink="http://www.w3.org/1999/xlink">
<g id="graph0" class="graph" transform="scale(1 1) rotate(0) translate(4 214.4748)">
<title>arch::target_system::Component::setUp</title>
<polygon fill="#ffffff" stroke="transparent" points="-4,4 -4,-214.4748 754,-214.4748 754,4 -4,4"/>
<!-- Node69 -->
<g id="node1" class="node">
<title>Node69</title>
<polygon fill="#bfbfbf" stroke="#000000" points="0,-91.9748 0,-121.9748 114,-121.9748 114,-91.9748 0,-91.9748"/>
<text text-anchor="start" x="8" y="-109.9748" font-family="Helvetica,sans-Serif" font-size="10.00" fill="#000000">arch::target_system</text>
<text text-anchor="middle" x="57" y="-98.9748" font-family="Helvetica,sans-Serif" font-size="10.00" fill="#000000">::Component::setUp</text>
</g>
<!-- Node70 -->
<g id="node2" class="node">
<title>Node70</title>
<g id="a_node2"><a xlink:href="classarch_1_1ROSComponentDescriptor.html#a6ae1f0c4c644bce7bc7e99e408dc7ca0" target="_top" xlink:title="arch::ROSComponentDescriptor\l::setFreq">
<polygon fill="#ffffff" stroke="#000000" points="150,-179.9748 150,-209.9748 320,-209.9748 320,-179.9748 150,-179.9748"/>
<text text-anchor="start" x="158" y="-197.9748" font-family="Helvetica,sans-Serif" font-size="10.00" fill="#000000">arch::ROSComponentDescriptor</text>
<text text-anchor="middle" x="235" y="-186.9748" font-family="Helvetica,sans-Serif" font-size="10.00" fill="#000000">::setFreq</text>
</a>
</g>
</g>
<!-- Node69&#45;&gt;Node70 -->
<g id="edge1" class="edge">
<title>Node69&#45;&gt;Node70</title>
<path fill="none" stroke="#191970" d="M78.4007,-122.2066C96.7714,-134.8136 124.2798,-152.5992 150,-164.9748 158.5822,-169.1042 167.8877,-172.9657 177.0877,-176.4533"/>
<polygon fill="#191970" stroke="#191970" points="176.0085,-179.7855 186.6021,-179.948 178.422,-173.2147 176.0085,-179.7855"/>
</g>
<!-- Node71 -->
<g id="node3" class="node">
<title>Node71</title>
<g id="a_node3"><a xlink:href="classarch_1_1target__system_1_1Component.html#adc6ecb4090656eeac2289ec147a20f81" target="_top" xlink:title="arch::target_system\l::Component::sendStatus">
<polygon fill="#ffffff" stroke="#000000" points="380.5,-140.9748 380.5,-170.9748 519.5,-170.9748 519.5,-140.9748 380.5,-140.9748"/>
<text text-anchor="start" x="388.5" y="-158.9748" font-family="Helvetica,sans-Serif" font-size="10.00" fill="#000000">arch::target_system</text>
<text text-anchor="middle" x="450" y="-147.9748" font-family="Helvetica,sans-Serif" font-size="10.00" fill="#000000">::Component::sendStatus</text>
</a>
</g>
</g>
<!-- Node69&#45;&gt;Node71 -->
<g id="edge2" class="edge">
<title>Node69&#45;&gt;Node71</title>
<path fill="none" stroke="#191970" d="M106.3386,-122.035C120.3352,-125.8153 135.6671,-129.4964 150,-131.9748 223.9785,-144.7666 309.4222,-150.7597 370.1549,-153.5561"/>
<polygon fill="#191970" stroke="#191970" points="370.2955,-157.0657 380.4401,-154.0101 370.6042,-150.0725 370.2955,-157.0657"/>
</g>
<!-- Node73 -->
<g id="node5" class="node">
<title>Node73</title>
<g id="a_node5"><a xlink:href="classarch_1_1target__system_1_1Component.html#a766a2494155aaa42b3c8162cefb11b77" target="_top" xlink:title="arch::target_system\l::Component::activate">
<polygon fill="#ffffff" stroke="#000000" points="172.5,-91.9748 172.5,-121.9748 297.5,-121.9748 297.5,-91.9748 172.5,-91.9748"/>
<text text-anchor="start" x="180.5" y="-109.9748" font-family="Helvetica,sans-Serif" font-size="10.00" fill="#000000">arch::target_system</text>
<text text-anchor="middle" x="235" y="-98.9748" font-family="Helvetica,sans-Serif" font-size="10.00" fill="#000000">::Component::activate</text>
</a>
</g>
</g>
<!-- Node69&#45;&gt;Node73 -->
<g id="edge4" class="edge">
<title>Node69&#45;&gt;Node73</title>
<path fill="none" stroke="#191970" d="M114.3001,-106.9748C129.4733,-106.9748 146.0605,-106.9748 161.9469,-106.9748"/>
<polygon fill="#191970" stroke="#191970" points="162.2635,-110.4749 172.2634,-106.9748 162.2634,-103.4749 162.2635,-110.4749"/>
</g>
<!-- Node76 -->
<g id="node8" class="node">
<title>Node76</title>
<g id="a_node8"><a xlink:href="classarch_1_1target__system_1_1Component.html#a859fdc651315139921d2b2c5fa75be76" target="_top" xlink:title="arch::target_system\l::Component::sigIntHandler">
<polygon fill="#ffffff" stroke="#000000" points="160,-42.9748 160,-72.9748 310,-72.9748 310,-42.9748 160,-42.9748"/>
<text text-anchor="start" x="168" y="-60.9748" font-family="Helvetica,sans-Serif" font-size="10.00" fill="#000000">arch::target_system</text>
<text text-anchor="middle" x="235" y="-49.9748" font-family="Helvetica,sans-Serif" font-size="10.00" fill="#000000">::Component::sigIntHandler</text>
</a>
</g>
</g>
<!-- Node69&#45;&gt;Node76 -->
<g id="edge8" class="edge">
<title>Node69&#45;&gt;Node76</title>
<path fill="none" stroke="#191970" d="M111.8583,-91.8733C130.3865,-86.7729 151.2416,-81.0319 170.4495,-75.7443"/>
<polygon fill="#191970" stroke="#191970" points="171.6104,-79.055 180.3228,-73.0264 169.7525,-72.306 171.6104,-79.055"/>
</g>
<!-- Node78 -->
<g id="node10" class="node">
<title>Node78</title>
<g id="a_node10"><a xlink:href="classarch_1_1ROSComponent.html#aa5fa36ba1bff54a60c9a0e5498e504f7" target="_top" xlink:title="arch::ROSComponent\l::getRosNodeName">
<polygon fill="#ffffff" stroke="#000000" points="605,-20.9748 605,-50.9748 725,-50.9748 725,-20.9748 605,-20.9748"/>
<text text-anchor="start" x="613" y="-38.9748" font-family="Helvetica,sans-Serif" font-size="10.00" fill="#000000">arch::ROSComponent</text>
<text text-anchor="middle" x="665" y="-27.9748" font-family="Helvetica,sans-Serif" font-size="10.00" fill="#000000">::getRosNodeName</text>
</a>
</g>
</g>
<!-- Node69&#45;&gt;Node78 -->
<g id="edge11" class="edge">
<title>Node69&#45;&gt;Node78</title>
<path fill="none" stroke="#191970" d="M69.9332,-91.7661C86.3854,-73.7188 116.6905,-44.61 150,-32.9748 301.3812,19.9036 493.409,-2.7782 594.8399,-21.104"/>
<polygon fill="#191970" stroke="#191970" points="594.4952,-24.5994 604.9645,-22.9735 595.7663,-17.7158 594.4952,-24.5994"/>
</g>
<!-- Node72 -->
<g id="node4" class="node">
<title>Node72</title>
<g id="a_node4"><a xlink:href="classarch_1_1ROSComponentDescriptor.html#a462b00745d0de3f98d88f3eb1ba11e45" target="_top" xlink:title="arch::ROSComponentDescriptor\l::getName">
<polygon fill="#ffffff" stroke="#000000" points="580,-140.9748 580,-170.9748 750,-170.9748 750,-140.9748 580,-140.9748"/>
<text text-anchor="start" x="588" y="-158.9748" font-family="Helvetica,sans-Serif" font-size="10.00" fill="#000000">arch::ROSComponentDescriptor</text>
<text text-anchor="middle" x="665" y="-147.9748" font-family="Helvetica,sans-Serif" font-size="10.00" fill="#000000">::getName</text>
</a>
</g>
</g>
<!-- Node71&#45;&gt;Node72 -->
<g id="edge3" class="edge">
<title>Node71&#45;&gt;Node72</title>
<path fill="none" stroke="#191970" d="M519.5074,-155.9748C535.4585,-155.9748 552.6904,-155.9748 569.524,-155.9748"/>
<polygon fill="#191970" stroke="#191970" points="569.9389,-159.4749 579.9389,-155.9748 569.9388,-152.4749 569.9389,-159.4749"/>
</g>
<!-- Node74 -->
<g id="node6" class="node">
<title>Node74</title>
<g id="a_node6"><a xlink:href="classarch_1_1target__system_1_1Component.html#a9d793970d5fbdef5c31e5ab901b98030" target="_top" xlink:title="arch::target_system\l::Component::sendEvent">
<polygon fill="#ffffff" stroke="#000000" points="382,-91.9748 382,-121.9748 518,-121.9748 518,-91.9748 382,-91.9748"/>
<text text-anchor="start" x="390" y="-109.9748" font-family="Helvetica,sans-Serif" font-size="10.00" fill="#000000">arch::target_system</text>
<text text-anchor="middle" x="450" y="-98.9748" font-family="Helvetica,sans-Serif" font-size="10.00" fill="#000000">::Component::sendEvent</text>
</a>
</g>
</g>
<!-- Node73&#45;&gt;Node74 -->
<g id="edge5" class="edge">
<title>Node73&#45;&gt;Node74</title>
<path fill="none" stroke="#191970" d="M297.7649,-106.9748C320.8652,-106.9748 347.32,-106.9748 371.6261,-106.9748"/>
<polygon fill="#191970" stroke="#191970" points="371.8954,-110.4749 381.8954,-106.9748 371.8953,-103.4749 371.8954,-110.4749"/>
</g>
<!-- Node74&#45;&gt;Node72 -->
<g id="edge6" class="edge">
<title>Node74&#45;&gt;Node72</title>
<path fill="none" stroke="#191970" d="M515.9682,-122.0094C539.1851,-127.3007 565.4562,-133.288 589.4043,-138.746"/>
<polygon fill="#191970" stroke="#191970" points="588.6288,-142.1589 599.1565,-140.9686 590.1843,-135.3339 588.6288,-142.1589"/>
</g>
<!-- Node75 -->
<g id="node7" class="node">
<title>Node75</title>
<g id="a_node7"><a xlink:href="classarch_1_1ROSComponentDescriptor.html#a4b73f46f37241865a08e75ab202e28eb" target="_top" xlink:title="arch::ROSComponentDescriptor\l::getFreq">
<polygon fill="#ffffff" stroke="#000000" points="580,-91.9748 580,-121.9748 750,-121.9748 750,-91.9748 580,-91.9748"/>
<text text-anchor="start" x="588" y="-109.9748" font-family="Helvetica,sans-Serif" font-size="10.00" fill="#000000">arch::ROSComponentDescriptor</text>
<text text-anchor="middle" x="665" y="-98.9748" font-family="Helvetica,sans-Serif" font-size="10.00" fill="#000000">::getFreq</text>
</a>
</g>
</g>
<!-- Node74&#45;&gt;Node75 -->
<g id="edge7" class="edge">
<title>Node74&#45;&gt;Node75</title>
<path fill="none" stroke="#191970" d="M518.0273,-106.9748C534.379,-106.9748 552.1455,-106.9748 569.4905,-106.9748"/>
<polygon fill="#191970" stroke="#191970" points="569.6403,-110.4749 579.6403,-106.9748 569.6402,-103.4749 569.6403,-110.4749"/>
</g>
<!-- Node77 -->
<g id="node9" class="node">
<title>Node77</title>
<g id="a_node9"><a xlink:href="classarch_1_1target__system_1_1Component.html#ab67fdba3849fb31886a7e4d2b032f38c" target="_top" xlink:title="arch::target_system\l::Component::shutdownComponent">
<polygon fill="#ffffff" stroke="#000000" points="356,-42.9748 356,-72.9748 544,-72.9748 544,-42.9748 356,-42.9748"/>
<text text-anchor="start" x="364" y="-60.9748" font-family="Helvetica,sans-Serif" font-size="10.00" fill="#000000">arch::target_system</text>
<text text-anchor="middle" x="450" y="-49.9748" font-family="Helvetica,sans-Serif" font-size="10.00" fill="#000000">::Component::shutdownComponent</text>
</a>
</g>
</g>
<!-- Node76&#45;&gt;Node77 -->
<g id="edge9" class="edge">
<title>Node76&#45;&gt;Node77</title>
<path fill="none" stroke="#191970" d="M310.1966,-57.9748C321.7383,-57.9748 333.8277,-57.9748 345.8608,-57.9748"/>
<polygon fill="#191970" stroke="#191970" points="345.9423,-61.4749 355.9422,-57.9748 345.9422,-54.4749 345.9423,-61.4749"/>
</g>
<!-- Node77&#45;&gt;Node78 -->
<g id="edge10" class="edge">
<title>Node77&#45;&gt;Node78</title>
<path fill="none" stroke="#191970" d="M544.3021,-48.3253C561.147,-46.6016 578.4307,-44.833 594.4652,-43.1923"/>
<polygon fill="#191970" stroke="#191970" points="595.2128,-46.6342 604.8045,-42.1343 594.5001,-39.6705 595.2128,-46.6342"/>
</g>
</g>
</svg>
