<?xml version="1.0" encoding="UTF-8" standalone="no"?>
<!DOCTYPE svg PUBLIC "-//W3C//DTD SVG 1.1//EN"
 "http://www.w3.org/Graphics/SVG/1.1/DTD/svg11.dtd">
<!-- Generated by graphviz version 2.40.1 (20161225.0304)
 -->
<!-- Title: CentralHub::body Pages: 1 -->
<svg width="490pt" height="203pt"
 viewBox="0.00 0.00 490.00 203.00" xmlns="http://www.w3.org/2000/svg" xmlns:xlink="http://www.w3.org/1999/xlink">
<g id="graph0" class="graph" transform="scale(1 1) rotate(0) translate(4 199)">
<title>CentralHub::body</title>
<polygon fill="#ffffff" stroke="transparent" points="-4,4 -4,-199 486,-199 486,4 -4,4"/>
<!-- Node9 -->
<g id="node1" class="node">
<title>Node9</title>
<polygon fill="#bfbfbf" stroke="#000000" points="0,-88 0,-107 101,-107 101,-88 0,-88"/>
<text text-anchor="middle" x="50.5" y="-95" font-family="Helvetica,sans-Serif" font-size="10.00" fill="#000000">CentralHub::body</text>
</g>
<!-- Node10 -->
<g id="node2" class="node">
<title>Node10</title>
<g id="a_node2"><a xlink:href="classbsn_1_1resource_1_1Battery.html#a674c7c02100126e91f040bc93f143c7e" target="_top" xlink:title="bsn::resource::Battery\l::getCurrentLevel">
<polygon fill="#ffffff" stroke="#000000" points="144.5,-164.5 144.5,-194.5 268.5,-194.5 268.5,-164.5 144.5,-164.5"/>
<text text-anchor="start" x="152.5" y="-182.5" font-family="Helvetica,sans-Serif" font-size="10.00" fill="#000000">bsn::resource::Battery</text>
<text text-anchor="middle" x="206.5" y="-171.5" font-family="Helvetica,sans-Serif" font-size="10.00" fill="#000000">::getCurrentLevel</text>
</a>
</g>
</g>
<!-- Node9&#45;&gt;Node10 -->
<g id="edge1" class="edge">
<title>Node9&#45;&gt;Node10</title>
<path fill="none" stroke="#191970" d="M63.1076,-107.1991C79.4549,-119.4407 109.1758,-140.5765 137,-154.5 141.2895,-156.6465 145.8093,-158.6995 150.4005,-160.6404"/>
<polygon fill="#191970" stroke="#191970" points="149.2907,-163.9667 159.874,-164.4612 151.909,-157.4748 149.2907,-163.9667"/>
</g>
<!-- Node11 -->
<g id="node3" class="node">
<title>Node11</title>
<g id="a_node3"><a xlink:href="classCentralHub.html#ad6c1ba1c51d58a420e076fbd27cd2b5c" target="_top" xlink:title="CentralHub::apply_noise">
<polygon fill="#ffffff" stroke="#000000" points="138.5,-126 138.5,-145 274.5,-145 274.5,-126 138.5,-126"/>
<text text-anchor="middle" x="206.5" y="-133" font-family="Helvetica,sans-Serif" font-size="10.00" fill="#000000">CentralHub::apply_noise</text>
</a>
</g>
</g>
<!-- Node9&#45;&gt;Node11 -->
<g id="edge2" class="edge">
<title>Node9&#45;&gt;Node11</title>
<path fill="none" stroke="#191970" d="M89.8654,-107.089C110.4513,-112.1035 135.8405,-118.2881 157.669,-123.6053"/>
<polygon fill="#191970" stroke="#191970" points="156.8734,-127.0137 167.4177,-125.9799 158.5302,-120.2126 156.8734,-127.0137"/>
</g>
<!-- Node12 -->
<g id="node4" class="node">
<title>Node12</title>
<g id="a_node4"><a xlink:href="classCentralHub.html#a3527f7455ec82af84e32b182221ede80" target="_top" xlink:title="CentralHub::process">
<polygon fill="#ffffff" stroke="#000000" points="149,-88 149,-107 264,-107 264,-88 149,-88"/>
<text text-anchor="middle" x="206.5" y="-95" font-family="Helvetica,sans-Serif" font-size="10.00" fill="#000000">CentralHub::process</text>
</a>
</g>
</g>
<!-- Node9&#45;&gt;Node12 -->
<g id="edge3" class="edge">
<title>Node9&#45;&gt;Node12</title>
<path fill="none" stroke="#191970" d="M101.1487,-97.5C113.153,-97.5 126.1469,-97.5 138.7751,-97.5"/>
<polygon fill="#191970" stroke="#191970" points="138.7984,-101.0001 148.7983,-97.5 138.7983,-94.0001 138.7984,-101.0001"/>
</g>
<!-- Node13 -->
<g id="node5" class="node">
<title>Node13</title>
<g id="a_node5"><a xlink:href="classCentralHub.html#a31e4df7094f5d176052056464d5886fa" target="_top" xlink:title="CentralHub::transfer">
<polygon fill="#ffffff" stroke="#000000" points="148.5,-50 148.5,-69 264.5,-69 264.5,-50 148.5,-50"/>
<text text-anchor="middle" x="206.5" y="-57" font-family="Helvetica,sans-Serif" font-size="10.00" fill="#000000">CentralHub::transfer</text>
</a>
</g>
</g>
<!-- Node9&#45;&gt;Node13 -->
<g id="edge4" class="edge">
<title>Node9&#45;&gt;Node13</title>
<path fill="none" stroke="#191970" d="M89.8654,-87.911C110.4513,-82.8965 135.8405,-76.7119 157.669,-71.3947"/>
<polygon fill="#191970" stroke="#191970" points="158.5302,-74.7874 167.4177,-69.0201 156.8734,-67.9863 158.5302,-74.7874"/>
</g>
<!-- Node14 -->
<g id="node6" class="node">
<title>Node14</title>
<g id="a_node6"><a xlink:href="classarch_1_1target__system_1_1Component.html#adc6ecb4090656eeac2289ec147a20f81" target="_top" xlink:title="arch::target_system\l::Component::sendStatus">
<polygon fill="#ffffff" stroke="#000000" points="137,-.5 137,-30.5 276,-30.5 276,-.5 137,-.5"/>
<text text-anchor="start" x="145" y="-18.5" font-family="Helvetica,sans-Serif" font-size="10.00" fill="#000000">arch::target_system</text>
<text text-anchor="middle" x="206.5" y="-7.5" font-family="Helvetica,sans-Serif" font-size="10.00" fill="#000000">::Component::sendStatus</text>
</a>
</g>
</g>
<!-- Node9&#45;&gt;Node14 -->
<g id="edge5" class="edge">
<title>Node9&#45;&gt;Node14</title>
<path fill="none" stroke="#191970" d="M63.1076,-87.8009C79.4549,-75.5593 109.1758,-54.4235 137,-40.5 141.2895,-38.3535 145.8093,-36.3005 150.4005,-34.3596"/>
<polygon fill="#191970" stroke="#191970" points="151.909,-37.5252 159.874,-30.5388 149.2907,-31.0333 151.909,-37.5252"/>
</g>
<!-- Node15 -->
<g id="node7" class="node">
<title>Node15</title>
<g id="a_node7"><a xlink:href="classarch_1_1ROSComponentDescriptor.html#a462b00745d0de3f98d88f3eb1ba11e45" target="_top" xlink:title="arch::ROSComponentDescriptor\l::getName">
<polygon fill="#ffffff" stroke="#000000" points="312,-.5 312,-30.5 482,-30.5 482,-.5 312,-.5"/>
<text text-anchor="start" x="320" y="-18.5" font-family="Helvetica,sans-Serif" font-size="10.00" fill="#000000">arch::ROSComponentDescriptor</text>
<text text-anchor="middle" x="397" y="-7.5" font-family="Helvetica,sans-Serif" font-size="10.00" fill="#000000">::getName</text>
</a>
</g>
</g>
<!-- Node14&#45;&gt;Node15 -->
<g id="edge6" class="edge">
<title>Node14&#45;&gt;Node15</title>
<path fill="none" stroke="#191970" d="M276.0835,-15.5C284.4104,-15.5 293.0201,-15.5 301.6312,-15.5"/>
<polygon fill="#191970" stroke="#191970" points="301.7235,-19.0001 311.7235,-15.5 301.7234,-12.0001 301.7235,-19.0001"/>
</g>
</g>
</svg>
