<?xml version="1.0" encoding="UTF-8" standalone="no"?>
<!DOCTYPE svg PUBLIC "-//W3C//DTD SVG 1.1//EN"
 "http://www.w3.org/Graphics/SVG/1.1/DTD/svg11.dtd">
<!-- Generated by graphviz version 2.40.1 (20161225.0304)
 -->
<!-- Title: arch::ROSComponentDescriptor::getName Pages: 1 -->
<svg width="957pt" height="274pt"
 viewBox="0.00 0.00 957.00 273.50" xmlns="http://www.w3.org/2000/svg" xmlns:xlink="http://www.w3.org/1999/xlink">
<g id="graph0" class="graph" transform="scale(1 1) rotate(0) translate(4 269.5)">
<title>arch::ROSComponentDescriptor::getName</title>
<polygon fill="#ffffff" stroke="transparent" points="-4,4 -4,-269.5 953,-269.5 953,4 -4,4"/>
<!-- Node28 -->
<g id="node1" class="node">
<title>Node28</title>
<polygon fill="#bfbfbf" stroke="#000000" points="0,-139 0,-169 170,-169 170,-139 0,-139"/>
<text text-anchor="start" x="8" y="-157" font-family="Helvetica,sans-Serif" font-size="10.00" fill="#000000">arch::ROSComponentDescriptor</text>
<text text-anchor="middle" x="85" y="-146" font-family="Helvetica,sans-Serif" font-size="10.00" fill="#000000">::getName</text>
</g>
<!-- Node29 -->
<g id="node2" class="node">
<title>Node29</title>
<g id="a_node2"><a xlink:href="classarch_1_1ROSComponentDescriptor.html#a9149fc01ac3ad2c104d7b1765a66a46c" target="_top" xlink:title="arch::ROSComponentDescriptor\l::~ROSComponentDescriptor">
<polygon fill="#ffffff" stroke="#000000" points="207.5,-226 207.5,-256 377.5,-256 377.5,-226 207.5,-226"/>
<text text-anchor="start" x="215.5" y="-244" font-family="Helvetica,sans-Serif" font-size="10.00" fill="#000000">arch::ROSComponentDescriptor</text>
<text text-anchor="middle" x="292.5" y="-233" font-family="Helvetica,sans-Serif" font-size="10.00" fill="#000000">::~ROSComponentDescriptor</text>
</a>
</g>
</g>
<!-- Node28&#45;&gt;Node29 -->
<g id="edge1" class="edge">
<title>Node28&#45;&gt;Node29</title>
<path fill="none" stroke="#191970" d="M119.1881,-174.2616C142.9399,-187.7182 175.6538,-205.0429 206,-217 214.2648,-220.2565 223.1375,-223.2527 231.9377,-225.943"/>
<polygon fill="#191970" stroke="#191970" points="120.6464,-171.0634 110.2297,-169.1288 117.1664,-177.1371 120.6464,-171.0634"/>
</g>
<!-- Node30 -->
<g id="node3" class="node">
<title>Node30</title>
<g id="a_node3"><a xlink:href="classarch_1_1target__system_1_1Component.html#a9d793970d5fbdef5c31e5ab901b98030" target="_top" xlink:title="arch::target_system\l::Component::sendEvent">
<polygon fill="#ffffff" stroke="#000000" points="224.5,-177 224.5,-207 360.5,-207 360.5,-177 224.5,-177"/>
<text text-anchor="start" x="232.5" y="-195" font-family="Helvetica,sans-Serif" font-size="10.00" fill="#000000">arch::target_system</text>
<text text-anchor="middle" x="292.5" y="-184" font-family="Helvetica,sans-Serif" font-size="10.00" fill="#000000">::Component::sendEvent</text>
</a>
</g>
</g>
<!-- Node28&#45;&gt;Node30 -->
<g id="edge2" class="edge">
<title>Node28&#45;&gt;Node30</title>
<path fill="none" stroke="#191970" d="M176.8992,-170.8297C192.8838,-173.757 209.2485,-176.7539 224.449,-179.5376"/>
<polygon fill="#191970" stroke="#191970" points="177.4764,-167.3773 167.0095,-169.0186 176.2154,-174.2628 177.4764,-167.3773"/>
</g>
<!-- Node38 -->
<g id="node11" class="node">
<title>Node38</title>
<g id="a_node11"><a xlink:href="classarch_1_1target__system_1_1Component.html#adc6ecb4090656eeac2289ec147a20f81" target="_top" xlink:title="arch::target_system\l::Component::sendStatus">
<polygon fill="#ffffff" stroke="#000000" points="415,-109 415,-139 554,-139 554,-109 415,-109"/>
<text text-anchor="start" x="423" y="-127" font-family="Helvetica,sans-Serif" font-size="10.00" fill="#000000">arch::target_system</text>
<text text-anchor="middle" x="484.5" y="-116" font-family="Helvetica,sans-Serif" font-size="10.00" fill="#000000">::Component::sendStatus</text>
</a>
</g>
</g>
<!-- Node28&#45;&gt;Node38 -->
<g id="edge11" class="edge">
<title>Node28&#45;&gt;Node38</title>
<path fill="none" stroke="#191970" d="M180.2134,-146.8501C252.3201,-141.4353 349.7313,-134.1203 414.7143,-129.2405"/>
<polygon fill="#191970" stroke="#191970" points="179.9226,-143.3619 170.2128,-147.601 180.4468,-150.3423 179.9226,-143.3619"/>
</g>
<!-- Node43 -->
<g id="node16" class="node">
<title>Node43</title>
<g id="a_node16"><a xlink:href="classarch_1_1target__system_1_1Component.html#a614676f17763a04020a2095ac541145c" target="_top" xlink:title="arch::target_system\l::Component::sendEnergyStatus">
<polygon fill="#ffffff" stroke="#000000" points="206,-73 206,-103 379,-103 379,-73 206,-73"/>
<text text-anchor="start" x="214" y="-91" font-family="Helvetica,sans-Serif" font-size="10.00" fill="#000000">arch::target_system</text>
<text text-anchor="middle" x="292.5" y="-80" font-family="Helvetica,sans-Serif" font-size="10.00" fill="#000000">::Component::sendEnergyStatus</text>
</a>
</g>
</g>
<!-- Node28&#45;&gt;Node43 -->
<g id="edge21" class="edge">
<title>Node28&#45;&gt;Node43</title>
<path fill="none" stroke="#191970" d="M142.1139,-135.8337C174.4425,-125.5508 214.3998,-112.8415 245,-103.1084"/>
<polygon fill="#191970" stroke="#191970" points="140.8133,-132.5745 132.3446,-138.941 142.9351,-139.2452 140.8133,-132.5745"/>
</g>
<!-- Node31 -->
<g id="node4" class="node">
<title>Node31</title>
<g id="a_node4"><a xlink:href="classarch_1_1target__system_1_1Component.html#a766a2494155aaa42b3c8162cefb11b77" target="_top" xlink:title="arch::target_system\l::Component::activate">
<polygon fill="#ffffff" stroke="#000000" points="422,-186 422,-216 547,-216 547,-186 422,-186"/>
<text text-anchor="start" x="430" y="-204" font-family="Helvetica,sans-Serif" font-size="10.00" fill="#000000">arch::target_system</text>
<text text-anchor="middle" x="484.5" y="-193" font-family="Helvetica,sans-Serif" font-size="10.00" fill="#000000">::Component::activate</text>
</a>
</g>
</g>
<!-- Node30&#45;&gt;Node31 -->
<g id="edge3" class="edge">
<title>Node30&#45;&gt;Node31</title>
<path fill="none" stroke="#191970" d="M371.1497,-195.6867C388.0661,-196.4797 405.7259,-197.3075 421.933,-198.0672"/>
<polygon fill="#191970" stroke="#191970" points="370.8856,-192.1706 360.7326,-195.1984 370.5577,-199.1629 370.8856,-192.1706"/>
</g>
<!-- Node37 -->
<g id="node10" class="node">
<title>Node37</title>
<g id="a_node10"><a xlink:href="classarch_1_1target__system_1_1Component.html#a7e504b0c12531376d3cca170a23b18e3" target="_top" xlink:title="arch::target_system\l::Component::deactivate">
<polygon fill="#ffffff" stroke="#000000" points="416,-235 416,-265 553,-265 553,-235 416,-235"/>
<text text-anchor="start" x="424" y="-253" font-family="Helvetica,sans-Serif" font-size="10.00" fill="#000000">arch::target_system</text>
<text text-anchor="middle" x="484.5" y="-242" font-family="Helvetica,sans-Serif" font-size="10.00" fill="#000000">::Component::deactivate</text>
</a>
</g>
</g>
<!-- Node30&#45;&gt;Node37 -->
<g id="edge9" class="edge">
<title>Node30&#45;&gt;Node37</title>
<path fill="none" stroke="#191970" d="M354.9618,-209.877C363.0573,-212.2455 371.2312,-214.6626 379,-217 398.1124,-222.7503 419.1076,-229.2748 437.3016,-234.9954"/>
<polygon fill="#191970" stroke="#191970" points="355.7384,-206.4578 345.1585,-207.0207 353.7802,-213.1783 355.7384,-206.4578"/>
</g>
<!-- Node32 -->
<g id="node5" class="node">
<title>Node32</title>
<g id="a_node5"><a xlink:href="classarch_1_1target__system_1_1Component.html#a6a7bf2a65bcc78fc61167205509091a5" target="_top" xlink:title="arch::target_system\l::Component::setUp">
<polygon fill="#ffffff" stroke="#000000" points="599,-191 599,-221 713,-221 713,-191 599,-191"/>
<text text-anchor="start" x="607" y="-209" font-family="Helvetica,sans-Serif" font-size="10.00" fill="#000000">arch::target_system</text>
<text text-anchor="middle" x="656" y="-198" font-family="Helvetica,sans-Serif" font-size="10.00" fill="#000000">::Component::setUp</text>
</a>
</g>
</g>
<!-- Node31&#45;&gt;Node32 -->
<g id="edge4" class="edge">
<title>Node31&#45;&gt;Node32</title>
<path fill="none" stroke="#191970" d="M557.7721,-203.1362C571.4959,-203.5363 585.6553,-203.9491 598.8036,-204.3325"/>
<polygon fill="#191970" stroke="#191970" points="557.4842,-199.6264 547.3864,-202.8334 557.2802,-206.6235 557.4842,-199.6264"/>
</g>
<!-- Node34 -->
<g id="node7" class="node">
<title>Node34</title>
<g id="a_node7"><a xlink:href="classCentralHub.html#a72336916ee15e722ee0b9f2c7c3747b6" target="_top" xlink:title="CentralHub::reconfigure">
<polygon fill="#ffffff" stroke="#000000" points="590,-240.5 590,-259.5 722,-259.5 722,-240.5 590,-240.5"/>
<text text-anchor="middle" x="656" y="-247.5" font-family="Helvetica,sans-Serif" font-size="10.00" fill="#000000">CentralHub::reconfigure</text>
</a>
</g>
</g>
<!-- Node31&#45;&gt;Node34 -->
<g id="edge6" class="edge">
<title>Node31&#45;&gt;Node34</title>
<path fill="none" stroke="#191970" d="M547.0096,-218.8599C572.638,-226.1823 601.2623,-234.3607 622.7432,-240.4981"/>
<polygon fill="#191970" stroke="#191970" points="547.9318,-215.4834 537.355,-216.1014 546.0087,-222.2141 547.9318,-215.4834"/>
</g>
<!-- Node33 -->
<g id="node6" class="node">
<title>Node33</title>
<g id="a_node6"><a xlink:href="classarch_1_1target__system_1_1Component.html#ac590323763a5ea9e7edf1a5e67f8a94f" target="_top" xlink:title="arch::target_system\l::Component::run">
<polygon fill="#ffffff" stroke="#000000" points="758,-82 758,-112 872,-112 872,-82 758,-82"/>
<text text-anchor="start" x="766" y="-100" font-family="Helvetica,sans-Serif" font-size="10.00" fill="#000000">arch::target_system</text>
<text text-anchor="middle" x="815" y="-89" font-family="Helvetica,sans-Serif" font-size="10.00" fill="#000000">::Component::run</text>
</a>
</g>
</g>
<!-- Node32&#45;&gt;Node33 -->
<g id="edge5" class="edge">
<title>Node32&#45;&gt;Node33</title>
<path fill="none" stroke="#191970" d="M712.8878,-186.4195C716.0456,-184.7309 719.1073,-182.9253 722,-181 741.3669,-168.1097 740.9098,-158.7848 758,-143 769.7703,-132.1287 783.7624,-120.8155 794.9378,-112.1288"/>
<polygon fill="#191970" stroke="#191970" points="711.2368,-183.3308 703.7945,-190.8716 714.3149,-189.6178 711.2368,-183.3308"/>
</g>
<!-- Node35 -->
<g id="node8" class="node">
<title>Node35</title>
<g id="a_node8"><a xlink:href="classCentralHub.html#a388e947318a28cf7cac762ac8b1cf3d4" target="_top" xlink:title="CentralHub::run">
<polygon fill="#ffffff" stroke="#000000" points="768.5,-152.5 768.5,-171.5 861.5,-171.5 861.5,-152.5 768.5,-152.5"/>
<text text-anchor="middle" x="815" y="-159.5" font-family="Helvetica,sans-Serif" font-size="10.00" fill="#000000">CentralHub::run</text>
</a>
</g>
</g>
<!-- Node34&#45;&gt;Node35 -->
<g id="edge7" class="edge">
<title>Node34&#45;&gt;Node35</title>
<path fill="none" stroke="#191970" d="M707.402,-237.1827C712.4295,-235.3438 717.3758,-233.2871 722,-231 754.978,-214.6894 788.3309,-186.4388 804.6709,-171.6533"/>
<polygon fill="#191970" stroke="#191970" points="706.0554,-233.943 697.6972,-240.4538 708.2913,-240.5763 706.0554,-233.943"/>
</g>
<!-- Node36 -->
<g id="node9" class="node">
<title>Node36</title>
<g id="a_node9"><a xlink:href="g4t1_8cpp.html#af19ddca125f05a2090dd132045573ee4" target="_top" xlink:title="main">
<polygon fill="#ffffff" stroke="#000000" points="908,-152.5 908,-171.5 949,-171.5 949,-152.5 908,-152.5"/>
<text text-anchor="middle" x="928.5" y="-159.5" font-family="Helvetica,sans-Serif" font-size="10.00" fill="#000000">main</text>
</a>
</g>
</g>
<!-- Node35&#45;&gt;Node36 -->
<g id="edge8" class="edge">
<title>Node35&#45;&gt;Node36</title>
<path fill="none" stroke="#191970" d="M872.0396,-162C884.8393,-162 897.6194,-162 907.7752,-162"/>
<polygon fill="#191970" stroke="#191970" points="871.8201,-158.5001 861.8201,-162 871.82,-165.5001 871.8201,-158.5001"/>
</g>
<!-- Node37&#45;&gt;Node34 -->
<g id="edge10" class="edge">
<title>Node37&#45;&gt;Node34</title>
<path fill="none" stroke="#191970" d="M563.4983,-250C572.2696,-250 581.1356,-250 589.7262,-250"/>
<polygon fill="#191970" stroke="#191970" points="563.2675,-246.5001 553.2674,-250 563.2674,-253.5001 563.2675,-246.5001"/>
</g>
<!-- Node38&#45;&gt;Node32 -->
<g id="edge12" class="edge">
<title>Node38&#45;&gt;Node32</title>
<path fill="none" stroke="#191970" d="M518.9096,-144.0994C539.2475,-155.5959 565.6991,-169.8927 590,-181 597.5779,-184.4636 605.7867,-187.8511 613.7567,-190.9586"/>
<polygon fill="#191970" stroke="#191970" points="520.4461,-140.9466 510.025,-139.0358 516.98,-147.0283 520.4461,-140.9466"/>
</g>
<!-- Node38&#45;&gt;Node33 -->
<g id="edge13" class="edge">
<title>Node38&#45;&gt;Node33</title>
<path fill="none" stroke="#191970" d="M564.3365,-112.7692C572.988,-111.7421 581.6712,-110.7921 590,-110 646.8697,-104.5913 712.0551,-101.1235 757.5739,-99.1421"/>
<polygon fill="#191970" stroke="#191970" points="563.7196,-109.3184 554.218,-114.0055 564.5687,-116.2667 563.7196,-109.3184"/>
</g>
<!-- Node38&#45;&gt;Node35 -->
<g id="edge14" class="edge">
<title>Node38&#45;&gt;Node35</title>
<path fill="none" stroke="#191970" d="M564.3671,-127.9593C610.573,-130.8558 669.7406,-135.5993 722,-143 739.1324,-145.4262 757.8561,-149.0585 773.9835,-152.4993"/>
<polygon fill="#191970" stroke="#191970" points="564.3091,-124.4493 554.1144,-127.3334 563.8825,-131.4363 564.3091,-124.4493"/>
</g>
<!-- Node39 -->
<g id="node12" class="node">
<title>Node39</title>
<g id="a_node12"><a xlink:href="classCentralHub.html#a48b13d52b79864e84eae5012108d3211" target="_top" xlink:title="CentralHub::body">
<polygon fill="#ffffff" stroke="#000000" points="605.5,-152.5 605.5,-171.5 706.5,-171.5 706.5,-152.5 605.5,-152.5"/>
<text text-anchor="middle" x="656" y="-159.5" font-family="Helvetica,sans-Serif" font-size="10.00" fill="#000000">CentralHub::body</text>
</a>
</g>
</g>
<!-- Node38&#45;&gt;Node39 -->
<g id="edge15" class="edge">
<title>Node38&#45;&gt;Node39</title>
<path fill="none" stroke="#191970" d="M562.4672,-141.2755C579.8892,-145.1358 597.7433,-149.0918 613.1208,-152.4991"/>
<polygon fill="#191970" stroke="#191970" points="562.8017,-137.7648 552.2813,-139.0186 561.2874,-144.5991 562.8017,-137.7648"/>
</g>
<!-- Node40 -->
<g id="node13" class="node">
<title>Node40</title>
<g id="a_node13"><a xlink:href="classSensor.html#a1a664cdb090cb4295bbdedcffb1c8499" target="_top" xlink:title="Sensor::run">
<polygon fill="#ffffff" stroke="#000000" points="779.5,-27.5 779.5,-46.5 850.5,-46.5 850.5,-27.5 779.5,-27.5"/>
<text text-anchor="middle" x="815" y="-34.5" font-family="Helvetica,sans-Serif" font-size="10.00" fill="#000000">Sensor::run</text>
</a>
</g>
</g>
<!-- Node38&#45;&gt;Node40 -->
<g id="edge17" class="edge">
<title>Node38&#45;&gt;Node40</title>
<path fill="none" stroke="#191970" d="M551.5837,-106.3411C620.4556,-88.2114 725.0127,-60.688 779.3671,-46.3799"/>
<polygon fill="#191970" stroke="#191970" points="550.471,-103.0147 541.6914,-108.9451 552.253,-109.784 550.471,-103.0147"/>
</g>
<!-- Node42 -->
<g id="node15" class="node">
<title>Node42</title>
<g id="a_node15"><a xlink:href="classSensor.html#a043dabb8b92f70fc247d585b8d66e133" target="_top" xlink:title="Sensor::body">
<polygon fill="#ffffff" stroke="#000000" points="616,-.5 616,-19.5 696,-19.5 696,-.5 616,-.5"/>
<text text-anchor="middle" x="656" y="-7.5" font-family="Helvetica,sans-Serif" font-size="10.00" fill="#000000">Sensor::body</text>
</a>
</g>
</g>
<!-- Node38&#45;&gt;Node42 -->
<g id="edge19" class="edge">
<title>Node38&#45;&gt;Node42</title>
<path fill="none" stroke="#191970" d="M508.1198,-102.1144C533.574,-78.8496 572.7503,-44.0496 590,-34 600.1135,-28.1079 611.9231,-23.2599 622.7346,-19.5014"/>
<polygon fill="#191970" stroke="#191970" points="505.701,-99.5837 500.7002,-108.924 510.4342,-104.7409 505.701,-99.5837"/>
</g>
<!-- Node39&#45;&gt;Node35 -->
<g id="edge16" class="edge">
<title>Node39&#45;&gt;Node35</title>
<path fill="none" stroke="#191970" d="M717.1269,-162C734.0924,-162 752.2389,-162 768.241,-162"/>
<polygon fill="#191970" stroke="#191970" points="716.7458,-158.5001 706.7458,-162 716.7457,-165.5001 716.7458,-158.5001"/>
</g>
<!-- Node41 -->
<g id="node14" class="node">
<title>Node41</title>
<g id="a_node14"><a xlink:href="g3t1__1_8cpp.html#a3c04138a5bfe5d72780bb7e82a18e627" target="_top" xlink:title="main">
<polygon fill="#ffffff" stroke="#000000" points="908,-27.5 908,-46.5 949,-46.5 949,-27.5 908,-27.5"/>
<text text-anchor="middle" x="928.5" y="-34.5" font-family="Helvetica,sans-Serif" font-size="10.00" fill="#000000">main</text>
</a>
</g>
</g>
<!-- Node40&#45;&gt;Node41 -->
<g id="edge18" class="edge">
<title>Node40&#45;&gt;Node41</title>
<path fill="none" stroke="#191970" d="M861.0568,-37C877.3245,-37 894.8085,-37 907.8977,-37"/>
<polygon fill="#191970" stroke="#191970" points="860.6007,-33.5001 850.6007,-37 860.6007,-40.5001 860.6007,-33.5001"/>
</g>
<!-- Node42&#45;&gt;Node40 -->
<g id="edge20" class="edge">
<title>Node42&#45;&gt;Node40</title>
<path fill="none" stroke="#191970" d="M706.0605,-18.5008C729.9086,-22.5505 757.8722,-27.2991 779.4967,-30.9711"/>
<polygon fill="#191970" stroke="#191970" points="706.5673,-15.0369 696.1224,-16.8132 705.3953,-21.9381 706.5673,-15.0369"/>
</g>
<!-- Node43&#45;&gt;Node42 -->
<g id="edge22" class="edge">
<title>Node43&#45;&gt;Node42</title>
<path fill="none" stroke="#191970" d="M372.5168,-70.8299C447.8442,-54.6662 557.5642,-31.1224 615.9504,-18.5939"/>
<polygon fill="#191970" stroke="#191970" points="371.6295,-67.4406 362.5865,-72.9608 373.0982,-74.2848 371.6295,-67.4406"/>
</g>
</g>
</svg>
