<?xml version="1.0" encoding="UTF-8" standalone="no"?>
<!DOCTYPE svg PUBLIC "-//W3C//DTD SVG 1.1//EN"
 "http://www.w3.org/Graphics/SVG/1.1/DTD/svg11.dtd">
<!-- Generated by graphviz version 2.40.1 (20161225.0304)
 -->
<!-- Title: arch::ROSComponentDescriptor::setFreq Pages: 1 -->
<svg width="573pt" height="518pt"
 viewBox="0.00 0.00 573.00 517.50" xmlns="http://www.w3.org/2000/svg" xmlns:xlink="http://www.w3.org/1999/xlink">
<g id="graph0" class="graph" transform="scale(1 1) rotate(0) translate(4 513.5)">
<title>arch::ROSComponentDescriptor::setFreq</title>
<polygon fill="#ffffff" stroke="transparent" points="-4,4 -4,-513.5 569,-513.5 569,4 -4,4"/>
<!-- Node45 -->
<g id="node1" class="node">
<title>Node45</title>
<polygon fill="#bfbfbf" stroke="#000000" points="0,-223 0,-253 170,-253 170,-223 0,-223"/>
<text text-anchor="start" x="8" y="-241" font-family="Helvetica,sans-Serif" font-size="10.00" fill="#000000">arch::ROSComponentDescriptor</text>
<text text-anchor="middle" x="85" y="-230" font-family="Helvetica,sans-Serif" font-size="10.00" fill="#000000">::setFreq</text>
</g>
<!-- Node46 -->
<g id="node2" class="node">
<title>Node46</title>
<g id="a_node2"><a xlink:href="classarch_1_1target__system_1_1Component.html#a6a7bf2a65bcc78fc61167205509091a5" target="_top" xlink:title="arch::target_system\l::Component::setUp">
<polygon fill="#ffffff" stroke="#000000" points="215,-479 215,-509 329,-509 329,-479 215,-479"/>
<text text-anchor="start" x="223" y="-497" font-family="Helvetica,sans-Serif" font-size="10.00" fill="#000000">arch::target_system</text>
<text text-anchor="middle" x="272" y="-486" font-family="Helvetica,sans-Serif" font-size="10.00" fill="#000000">::Component::setUp</text>
</a>
</g>
</g>
<!-- Node45&#45;&gt;Node46 -->
<g id="edge1" class="edge">
<title>Node45&#45;&gt;Node46</title>
<path fill="none" stroke="#191970" d="M91.4142,-262.805C104.801,-309.7979 140.0833,-412.2549 206,-470 209.9435,-473.4547 214.4244,-476.4259 219.1508,-478.9786"/>
<polygon fill="#191970" stroke="#191970" points="94.781,-261.8479 88.7488,-253.1379 88.0328,-263.7085 94.781,-261.8479"/>
</g>
<!-- Node48 -->
<g id="node4" class="node">
<title>Node48</title>
<g id="a_node4"><a xlink:href="classarch_1_1target__system_1_1Effector.html#a1af5c14648d7da1d22600914a0dd714e" target="_top" xlink:title="arch::target_system\l::Effector::setUp">
<polygon fill="#ffffff" stroke="#000000" points="215,-430 215,-460 329,-460 329,-430 215,-430"/>
<text text-anchor="start" x="223" y="-448" font-family="Helvetica,sans-Serif" font-size="10.00" fill="#000000">arch::target_system</text>
<text text-anchor="middle" x="272" y="-437" font-family="Helvetica,sans-Serif" font-size="10.00" fill="#000000">::Effector::setUp</text>
</a>
</g>
</g>
<!-- Node45&#45;&gt;Node48 -->
<g id="edge3" class="edge">
<title>Node45&#45;&gt;Node48</title>
<path fill="none" stroke="#191970" d="M95.127,-262.662C112.3219,-301.6334 150.8147,-377.4873 206,-421 210.3084,-424.3971 215.1415,-427.3415 220.1816,-429.8873"/>
<polygon fill="#191970" stroke="#191970" points="98.1999,-260.9483 91.0309,-253.1473 91.7704,-263.7163 98.1999,-260.9483"/>
</g>
<!-- Node49 -->
<g id="node5" class="node">
<title>Node49</title>
<g id="a_node5"><a xlink:href="classarch_1_1target__system_1_1Probe.html#a224b34084b08465e77bf6b1f5668bd29" target="_top" xlink:title="arch::target_system\l::Probe::setUp">
<polygon fill="#ffffff" stroke="#000000" points="215,-381 215,-411 329,-411 329,-381 215,-381"/>
<text text-anchor="start" x="223" y="-399" font-family="Helvetica,sans-Serif" font-size="10.00" fill="#000000">arch::target_system</text>
<text text-anchor="middle" x="272" y="-388" font-family="Helvetica,sans-Serif" font-size="10.00" fill="#000000">::Probe::setUp</text>
</a>
</g>
</g>
<!-- Node45&#45;&gt;Node49 -->
<g id="edge4" class="edge">
<title>Node45&#45;&gt;Node49</title>
<path fill="none" stroke="#191970" d="M101.1254,-261.7114C122.1592,-291.0352 161.5575,-340.768 206,-371 211.572,-374.7904 217.7963,-378.106 224.1353,-380.976"/>
<polygon fill="#191970" stroke="#191970" points="103.825,-259.4663 95.202,-253.3103 98.104,-263.5 103.825,-259.4663"/>
</g>
<!-- Node50 -->
<g id="node6" class="node">
<title>Node50</title>
<g id="a_node6"><a xlink:href="classPatientModule.html#a274d7a866de69b39ac08cbf8720b445c" target="_top" xlink:title="PatientModule::setUp">
<polygon fill="#ffffff" stroke="#000000" points="212,-342.5 212,-361.5 332,-361.5 332,-342.5 212,-342.5"/>
<text text-anchor="middle" x="272" y="-349.5" font-family="Helvetica,sans-Serif" font-size="10.00" fill="#000000">PatientModule::setUp</text>
</a>
</g>
</g>
<!-- Node45&#45;&gt;Node50 -->
<g id="edge5" class="edge">
<title>Node45&#45;&gt;Node50</title>
<path fill="none" stroke="#191970" d="M107.5704,-260.1584C130.5681,-281.603 168.1421,-313.6287 206,-333 213.3242,-336.7477 221.4949,-339.8554 229.5237,-342.3959"/>
<polygon fill="#191970" stroke="#191970" points="109.7346,-257.3875 100.0671,-253.0525 104.9212,-262.47 109.7346,-257.3875"/>
</g>
<!-- Node51 -->
<g id="node7" class="node">
<title>Node51</title>
<g id="a_node7"><a xlink:href="classDataAccess.html#a79a37674517514869067d9afbf0417c1" target="_top" xlink:title="DataAccess::setUp">
<polygon fill="#ffffff" stroke="#000000" points="218,-304.5 218,-323.5 326,-323.5 326,-304.5 218,-304.5"/>
<text text-anchor="middle" x="272" y="-311.5" font-family="Helvetica,sans-Serif" font-size="10.00" fill="#000000">DataAccess::setUp</text>
</a>
</g>
</g>
<!-- Node45&#45;&gt;Node51 -->
<g id="edge6" class="edge">
<title>Node45&#45;&gt;Node51</title>
<path fill="none" stroke="#191970" d="M122.7227,-257.6828C146.2605,-269.481 177.4161,-284.2321 206,-295 215.2613,-298.4888 225.455,-301.7126 235.003,-304.4765"/>
<polygon fill="#191970" stroke="#191970" points="124.2788,-254.5477 113.7757,-253.1568 121.119,-260.794 124.2788,-254.5477"/>
</g>
<!-- Node52 -->
<g id="node8" class="node">
<title>Node52</title>
<g id="a_node8"><a xlink:href="classLogger.html#aab1efed2f9f6ac7929b2d8774ee9b70c" target="_top" xlink:title="Logger::setUp">
<polygon fill="#ffffff" stroke="#000000" points="230,-266.5 230,-285.5 314,-285.5 314,-266.5 230,-266.5"/>
<text text-anchor="middle" x="272" y="-273.5" font-family="Helvetica,sans-Serif" font-size="10.00" fill="#000000">Logger::setUp</text>
</a>
</g>
</g>
<!-- Node45&#45;&gt;Node52 -->
<g id="edge7" class="edge">
<title>Node45&#45;&gt;Node52</title>
<path fill="none" stroke="#191970" d="M168.8738,-255.0439C189.9922,-259.3353 211.7727,-263.7613 229.8441,-267.4336"/>
<polygon fill="#191970" stroke="#191970" points="169.4041,-251.5802 158.9074,-253.0186 168.0101,-258.44 169.4041,-251.5802"/>
</g>
<!-- Node53 -->
<g id="node9" class="node">
<title>Node53</title>
<g id="a_node9"><a xlink:href="classInjector.html#ac7658d4d7db234ed9237fd186392c2b8" target="_top" xlink:title="Injector::setUp">
<polygon fill="#ffffff" stroke="#000000" points="228,-228.5 228,-247.5 316,-247.5 316,-228.5 228,-228.5"/>
<text text-anchor="middle" x="272" y="-235.5" font-family="Helvetica,sans-Serif" font-size="10.00" fill="#000000">Injector::setUp</text>
</a>
</g>
</g>
<!-- Node45&#45;&gt;Node53 -->
<g id="edge8" class="edge">
<title>Node45&#45;&gt;Node53</title>
<path fill="none" stroke="#191970" d="M180.344,-238C196.9412,-238 213.4608,-238 227.8099,-238"/>
<polygon fill="#191970" stroke="#191970" points="180.0187,-234.5001 170.0187,-238 180.0186,-241.5001 180.0187,-234.5001"/>
</g>
<!-- Node54 -->
<g id="node10" class="node">
<title>Node54</title>
<g id="a_node10"><a xlink:href="classEngine.html#ae0233e4936be42094d3dfd401633cccd" target="_top" xlink:title="Engine::setUp">
<polygon fill="#ffffff" stroke="#000000" points="230,-190.5 230,-209.5 314,-209.5 314,-190.5 230,-190.5"/>
<text text-anchor="middle" x="272" y="-197.5" font-family="Helvetica,sans-Serif" font-size="10.00" fill="#000000">Engine::setUp</text>
</a>
</g>
</g>
<!-- Node45&#45;&gt;Node54 -->
<g id="edge9" class="edge">
<title>Node45&#45;&gt;Node54</title>
<path fill="none" stroke="#191970" d="M168.8738,-220.9561C189.9922,-216.6647 211.7727,-212.2387 229.8441,-208.5664"/>
<polygon fill="#191970" stroke="#191970" points="168.0101,-217.56 158.9074,-222.9814 169.4041,-224.4198 168.0101,-217.56"/>
</g>
<!-- Node57 -->
<g id="node13" class="node">
<title>Node57</title>
<g id="a_node13"><a xlink:href="classController.html#ac5b5525e1a9fc6914657dd8d943a0928" target="_top" xlink:title="Controller::setUp">
<polygon fill="#ffffff" stroke="#000000" points="222.5,-152.5 222.5,-171.5 321.5,-171.5 321.5,-152.5 222.5,-152.5"/>
<text text-anchor="middle" x="272" y="-159.5" font-family="Helvetica,sans-Serif" font-size="10.00" fill="#000000">Controller::setUp</text>
</a>
</g>
</g>
<!-- Node45&#45;&gt;Node57 -->
<g id="edge12" class="edge">
<title>Node45&#45;&gt;Node57</title>
<path fill="none" stroke="#191970" d="M122.7227,-218.3172C146.2605,-206.519 177.4161,-191.7679 206,-181 215.2613,-177.5112 225.455,-174.2874 235.003,-171.5235"/>
<polygon fill="#191970" stroke="#191970" points="121.119,-215.206 113.7757,-222.8432 124.2788,-221.4523 121.119,-215.206"/>
</g>
<!-- Node58 -->
<g id="node14" class="node">
<title>Node58</title>
<g id="a_node14"><a xlink:href="classCentralHub.html#a72336916ee15e722ee0b9f2c7c3747b6" target="_top" xlink:title="CentralHub::reconfigure">
<polygon fill="#ffffff" stroke="#000000" points="206,-114.5 206,-133.5 338,-133.5 338,-114.5 206,-114.5"/>
<text text-anchor="middle" x="272" y="-121.5" font-family="Helvetica,sans-Serif" font-size="10.00" fill="#000000">CentralHub::reconfigure</text>
</a>
</g>
</g>
<!-- Node45&#45;&gt;Node58 -->
<g id="edge13" class="edge">
<title>Node45&#45;&gt;Node58</title>
<path fill="none" stroke="#191970" d="M107.5704,-215.8416C130.5681,-194.397 168.1421,-162.3713 206,-143 213.3242,-139.2523 221.4949,-136.1446 229.5237,-133.6041"/>
<polygon fill="#191970" stroke="#191970" points="104.9212,-213.53 100.0671,-222.9475 109.7346,-218.6125 104.9212,-213.53"/>
</g>
<!-- Node61 -->
<g id="node17" class="node">
<title>Node61</title>
<g id="a_node17"><a xlink:href="classG4T1.html#ad02634c3bf56a245b99bb30f520628c5" target="_top" xlink:title="G4T1::setUp">
<polygon fill="#ffffff" stroke="#000000" points="233.5,-76.5 233.5,-95.5 310.5,-95.5 310.5,-76.5 233.5,-76.5"/>
<text text-anchor="middle" x="272" y="-83.5" font-family="Helvetica,sans-Serif" font-size="10.00" fill="#000000">G4T1::setUp</text>
</a>
</g>
</g>
<!-- Node45&#45;&gt;Node61 -->
<g id="edge16" class="edge">
<title>Node45&#45;&gt;Node61</title>
<path fill="none" stroke="#191970" d="M100.4157,-214.1672C120.9641,-184.2893 160.1185,-133.5392 206,-105 214.3023,-99.8358 224.0576,-96.0305 233.4832,-93.2434"/>
<polygon fill="#191970" stroke="#191970" points="97.3364,-212.4735 94.649,-222.7219 103.1408,-216.3862 97.3364,-212.4735"/>
</g>
<!-- Node62 -->
<g id="node18" class="node">
<title>Node62</title>
<g id="a_node18"><a xlink:href="classSensor.html#a476760a7dd4be51136bf165e183526cf" target="_top" xlink:title="Sensor::reconfigure">
<polygon fill="#ffffff" stroke="#000000" points="217,-38.5 217,-57.5 327,-57.5 327,-38.5 217,-38.5"/>
<text text-anchor="middle" x="272" y="-45.5" font-family="Helvetica,sans-Serif" font-size="10.00" fill="#000000">Sensor::reconfigure</text>
</a>
</g>
</g>
<!-- Node45&#45;&gt;Node62 -->
<g id="edge17" class="edge">
<title>Node45&#45;&gt;Node62</title>
<path fill="none" stroke="#191970" d="M95.6312,-213.7002C113.1683,-176.4667 151.7025,-105.5706 206,-67 211.4436,-63.1331 217.6638,-60.0488 224.0604,-57.5897"/>
<polygon fill="#191970" stroke="#191970" points="92.4319,-212.2805 91.4366,-222.8285 98.7924,-215.2034 92.4319,-212.2805"/>
</g>
<!-- Node65 -->
<g id="node21" class="node">
<title>Node65</title>
<g id="a_node21"><a xlink:href="classParamAdapter.html#a7c0398f646d90dfe7f017a7e972e0eab" target="_top" xlink:title="ParamAdapter::setUp">
<polygon fill="#ffffff" stroke="#000000" points="212,-.5 212,-19.5 332,-19.5 332,-.5 212,-.5"/>
<text text-anchor="middle" x="272" y="-7.5" font-family="Helvetica,sans-Serif" font-size="10.00" fill="#000000">ParamAdapter::setUp</text>
</a>
</g>
</g>
<!-- Node45&#45;&gt;Node65 -->
<g id="edge20" class="edge">
<title>Node45&#45;&gt;Node65</title>
<path fill="none" stroke="#191970" d="M92.512,-213.1176C107.0604,-169.2055 143.2934,-77.9842 206,-29 210.9802,-25.1097 216.7271,-22.0158 222.7099,-19.5554"/>
<polygon fill="#191970" stroke="#191970" points="89.1535,-212.1291 89.4287,-222.7204 95.8183,-214.2691 89.1535,-212.1291"/>
</g>
<!-- Node47 -->
<g id="node3" class="node">
<title>Node47</title>
<g id="a_node3"><a xlink:href="classarch_1_1target__system_1_1Component.html#ac590323763a5ea9e7edf1a5e67f8a94f" target="_top" xlink:title="arch::target_system\l::Component::run">
<polygon fill="#ffffff" stroke="#000000" points="374,-479 374,-509 488,-509 488,-479 374,-479"/>
<text text-anchor="start" x="382" y="-497" font-family="Helvetica,sans-Serif" font-size="10.00" fill="#000000">arch::target_system</text>
<text text-anchor="middle" x="431" y="-486" font-family="Helvetica,sans-Serif" font-size="10.00" fill="#000000">::Component::run</text>
</a>
</g>
</g>
<!-- Node46&#45;&gt;Node47 -->
<g id="edge2" class="edge">
<title>Node46&#45;&gt;Node47</title>
<path fill="none" stroke="#191970" d="M339.7453,-494C351.1383,-494 362.8606,-494 373.9483,-494"/>
<polygon fill="#191970" stroke="#191970" points="339.4027,-490.5001 329.4026,-494 339.4026,-497.5001 339.4027,-490.5001"/>
</g>
<!-- Node55 -->
<g id="node11" class="node">
<title>Node55</title>
<g id="a_node11"><a xlink:href="classCostEngine.html#abf2d8b5da61c0c372c6d632d9a55e832" target="_top" xlink:title="CostEngine::setUp">
<polygon fill="#ffffff" stroke="#000000" points="378,-218.5 378,-237.5 484,-237.5 484,-218.5 378,-218.5"/>
<text text-anchor="middle" x="431" y="-225.5" font-family="Helvetica,sans-Serif" font-size="10.00" fill="#000000">CostEngine::setUp</text>
</a>
</g>
</g>
<!-- Node54&#45;&gt;Node55 -->
<g id="edge10" class="edge">
<title>Node54&#45;&gt;Node55</title>
<path fill="none" stroke="#191970" d="M324.0753,-209.1705C341.295,-212.2029 360.4709,-215.5798 377.7755,-218.6271"/>
<polygon fill="#191970" stroke="#191970" points="324.6471,-205.7174 314.1916,-207.43 323.4331,-212.6113 324.6471,-205.7174"/>
</g>
<!-- Node56 -->
<g id="node12" class="node">
<title>Node56</title>
<g id="a_node12"><a xlink:href="classReliabilityEngine.html#ad5323671d1e8645df2e0f7d9772bf806" target="_top" xlink:title="ReliabilityEngine::\lsetUp">
<polygon fill="#ffffff" stroke="#000000" points="379,-169 379,-199 483,-199 483,-169 379,-169"/>
<text text-anchor="start" x="387" y="-187" font-family="Helvetica,sans-Serif" font-size="10.00" fill="#000000">ReliabilityEngine::</text>
<text text-anchor="middle" x="431" y="-176" font-family="Helvetica,sans-Serif" font-size="10.00" fill="#000000">setUp</text>
</a>
</g>
</g>
<!-- Node54&#45;&gt;Node56 -->
<g id="edge11" class="edge">
<title>Node54&#45;&gt;Node56</title>
<path fill="none" stroke="#191970" d="M324.2667,-194.7405C341.8259,-192.9735 361.4013,-191.0036 378.9443,-189.2383"/>
<polygon fill="#191970" stroke="#191970" points="323.7909,-191.2706 314.1916,-195.7543 324.4919,-198.2354 323.7909,-191.2706"/>
</g>
<!-- Node59 -->
<g id="node15" class="node">
<title>Node59</title>
<g id="a_node15"><a xlink:href="classCentralHub.html#a388e947318a28cf7cac762ac8b1cf3d4" target="_top" xlink:title="CentralHub::run">
<polygon fill="#ffffff" stroke="#000000" points="384.5,-114.5 384.5,-133.5 477.5,-133.5 477.5,-114.5 384.5,-114.5"/>
<text text-anchor="middle" x="431" y="-121.5" font-family="Helvetica,sans-Serif" font-size="10.00" fill="#000000">CentralHub::run</text>
</a>
</g>
</g>
<!-- Node58&#45;&gt;Node59 -->
<g id="edge14" class="edge">
<title>Node58&#45;&gt;Node59</title>
<path fill="none" stroke="#191970" d="M348.3151,-124C360.5958,-124 372.978,-124 384.2871,-124"/>
<polygon fill="#191970" stroke="#191970" points="348.049,-120.5001 338.049,-124 348.049,-127.5001 348.049,-120.5001"/>
</g>
<!-- Node60 -->
<g id="node16" class="node">
<title>Node60</title>
<g id="a_node16"><a xlink:href="g4t1_8cpp.html#af19ddca125f05a2090dd132045573ee4" target="_top" xlink:title="main">
<polygon fill="#ffffff" stroke="#000000" points="524,-114.5 524,-133.5 565,-133.5 565,-114.5 524,-114.5"/>
<text text-anchor="middle" x="544.5" y="-121.5" font-family="Helvetica,sans-Serif" font-size="10.00" fill="#000000">main</text>
</a>
</g>
</g>
<!-- Node59&#45;&gt;Node60 -->
<g id="edge15" class="edge">
<title>Node59&#45;&gt;Node60</title>
<path fill="none" stroke="#191970" d="M488.0396,-124C500.8393,-124 513.6194,-124 523.7752,-124"/>
<polygon fill="#191970" stroke="#191970" points="487.8201,-120.5001 477.8201,-124 487.82,-127.5001 487.8201,-120.5001"/>
</g>
<!-- Node63 -->
<g id="node19" class="node">
<title>Node63</title>
<g id="a_node19"><a xlink:href="classSensor.html#a1a664cdb090cb4295bbdedcffb1c8499" target="_top" xlink:title="Sensor::run">
<polygon fill="#ffffff" stroke="#000000" points="395.5,-38.5 395.5,-57.5 466.5,-57.5 466.5,-38.5 395.5,-38.5"/>
<text text-anchor="middle" x="431" y="-45.5" font-family="Helvetica,sans-Serif" font-size="10.00" fill="#000000">Sensor::run</text>
</a>
</g>
</g>
<!-- Node62&#45;&gt;Node63 -->
<g id="edge18" class="edge">
<title>Node62&#45;&gt;Node63</title>
<path fill="none" stroke="#191970" d="M337.3943,-48C357.2198,-48 378.2544,-48 395.3513,-48"/>
<polygon fill="#191970" stroke="#191970" points="337.1643,-44.5001 327.1643,-48 337.1642,-51.5001 337.1643,-44.5001"/>
</g>
<!-- Node64 -->
<g id="node20" class="node">
<title>Node64</title>
<g id="a_node20"><a xlink:href="g3t1__1_8cpp.html#a3c04138a5bfe5d72780bb7e82a18e627" target="_top" xlink:title="main">
<polygon fill="#ffffff" stroke="#000000" points="524,-38.5 524,-57.5 565,-57.5 565,-38.5 524,-38.5"/>
<text text-anchor="middle" x="544.5" y="-45.5" font-family="Helvetica,sans-Serif" font-size="10.00" fill="#000000">main</text>
</a>
</g>
</g>
<!-- Node63&#45;&gt;Node64 -->
<g id="edge19" class="edge">
<title>Node63&#45;&gt;Node64</title>
<path fill="none" stroke="#191970" d="M477.0568,-48C493.3245,-48 510.8085,-48 523.8977,-48"/>
<polygon fill="#191970" stroke="#191970" points="476.6007,-44.5001 466.6007,-48 476.6007,-51.5001 476.6007,-44.5001"/>
</g>
</g>
</svg>
