<?xml version="1.0" encoding="UTF-8" standalone="no"?>
<!DOCTYPE svg PUBLIC "-//W3C//DTD SVG 1.1//EN"
 "http://www.w3.org/Graphics/SVG/1.1/DTD/svg11.dtd">
<!-- Generated by graphviz version 2.40.1 (20161225.0304)
 -->
<!-- Title: arch::target_system::Component::shutdownComponent Pages: 1 -->
<svg width="682pt" height="39pt"
 viewBox="0.00 0.00 682.00 39.00" xmlns="http://www.w3.org/2000/svg" xmlns:xlink="http://www.w3.org/1999/xlink">
<g id="graph0" class="graph" transform="scale(1 1) rotate(0) translate(4 35)">
<title>arch::target_system::Component::shutdownComponent</title>
<polygon fill="#ffffff" stroke="transparent" points="-4,4 -4,-35 678,-35 678,4 -4,4"/>
<!-- Node83 -->
<g id="node1" class="node">
<title>Node83</title>
<polygon fill="#bfbfbf" stroke="#000000" points="0,-.5 0,-30.5 188,-30.5 188,-.5 0,-.5"/>
<text text-anchor="start" x="8" y="-18.5" font-family="Helvetica,sans-Serif" font-size="10.00" fill="#000000">arch::target_system</text>
<text text-anchor="middle" x="94" y="-7.5" font-family="Helvetica,sans-Serif" font-size="10.00" fill="#000000">::Component::shutdownComponent</text>
</g>
<!-- Node84 -->
<g id="node2" class="node">
<title>Node84</title>
<g id="a_node2"><a xlink:href="classarch_1_1target__system_1_1Component.html#a859fdc651315139921d2b2c5fa75be76" target="_top" xlink:title="arch::target_system\l::Component::sigIntHandler">
<polygon fill="#ffffff" stroke="#000000" points="224,-.5 224,-30.5 374,-30.5 374,-.5 224,-.5"/>
<text text-anchor="start" x="232" y="-18.5" font-family="Helvetica,sans-Serif" font-size="10.00" fill="#000000">arch::target_system</text>
<text text-anchor="middle" x="299" y="-7.5" font-family="Helvetica,sans-Serif" font-size="10.00" fill="#000000">::Component::sigIntHandler</text>
</a>
</g>
</g>
<!-- Node83&#45;&gt;Node84 -->
<g id="edge1" class="edge">
<title>Node83&#45;&gt;Node84</title>
<path fill="none" stroke="#191970" d="M198.2464,-15.5C206.8956,-15.5 215.5282,-15.5 223.8977,-15.5"/>
<polygon fill="#191970" stroke="#191970" points="198.1002,-12.0001 188.1002,-15.5 198.1001,-19.0001 198.1002,-12.0001"/>
</g>
<!-- Node85 -->
<g id="node3" class="node">
<title>Node85</title>
<g id="a_node3"><a xlink:href="classarch_1_1target__system_1_1Component.html#a6a7bf2a65bcc78fc61167205509091a5" target="_top" xlink:title="arch::target_system\l::Component::setUp">
<polygon fill="#ffffff" stroke="#000000" points="410,-.5 410,-30.5 524,-30.5 524,-.5 410,-.5"/>
<text text-anchor="start" x="418" y="-18.5" font-family="Helvetica,sans-Serif" font-size="10.00" fill="#000000">arch::target_system</text>
<text text-anchor="middle" x="467" y="-7.5" font-family="Helvetica,sans-Serif" font-size="10.00" fill="#000000">::Component::setUp</text>
</a>
</g>
</g>
<!-- Node84&#45;&gt;Node85 -->
<g id="edge2" class="edge">
<title>Node84&#45;&gt;Node85</title>
<path fill="none" stroke="#191970" d="M384.2896,-15.5C392.9342,-15.5 401.5605,-15.5 409.8023,-15.5"/>
<polygon fill="#191970" stroke="#191970" points="384.1553,-12.0001 374.1552,-15.5 384.1552,-19.0001 384.1553,-12.0001"/>
</g>
<!-- Node86 -->
<g id="node4" class="node">
<title>Node86</title>
<g id="a_node4"><a xlink:href="classarch_1_1target__system_1_1Component.html#ac590323763a5ea9e7edf1a5e67f8a94f" target="_top" xlink:title="arch::target_system\l::Component::run">
<polygon fill="#ffffff" stroke="#000000" points="560,-.5 560,-30.5 674,-30.5 674,-.5 560,-.5"/>
<text text-anchor="start" x="568" y="-18.5" font-family="Helvetica,sans-Serif" font-size="10.00" fill="#000000">arch::target_system</text>
<text text-anchor="middle" x="617" y="-7.5" font-family="Helvetica,sans-Serif" font-size="10.00" fill="#000000">::Component::run</text>
</a>
</g>
</g>
<!-- Node85&#45;&gt;Node86 -->
<g id="edge3" class="edge">
<title>Node85&#45;&gt;Node86</title>
<path fill="none" stroke="#191970" d="M534.3106,-15.5C542.7284,-15.5 551.2768,-15.5 559.5255,-15.5"/>
<polygon fill="#191970" stroke="#191970" points="534.1365,-12.0001 524.1365,-15.5 534.1364,-19.0001 534.1365,-12.0001"/>
</g>
</g>
</svg>
