<?xml version="1.0" encoding="UTF-8" standalone="no"?>
<!DOCTYPE svg PUBLIC "-//W3C//DTD SVG 1.1//EN"
 "http://www.w3.org/Graphics/SVG/1.1/DTD/svg11.dtd">
<!-- Generated by graphviz version 2.40.1 (20161225.0304)
 -->
<!-- Title: G4T1::process Pages: 1 -->
<svg width="271pt" height="78pt"
 viewBox="0.00 0.00 271.00 77.50" xmlns="http://www.w3.org/2000/svg" xmlns:xlink="http://www.w3.org/1999/xlink">
<g id="graph0" class="graph" transform="scale(1 1) rotate(0) translate(4 73.5)">
<title>G4T1::process</title>
<polygon fill="#ffffff" stroke="transparent" points="-4,4 -4,-73.5 267,-73.5 267,4 -4,4"/>
<!-- Node7 -->
<g id="node1" class="node">
<title>Node7</title>
<polygon fill="#bfbfbf" stroke="#000000" points="0,-22.5 0,-41.5 86,-41.5 86,-22.5 0,-22.5"/>
<text text-anchor="middle" x="43" y="-29.5" font-family="Helvetica,sans-Serif" font-size="10.00" fill="#000000">G4T1::process</text>
</g>
<!-- Node8 -->
<g id="node2" class="node">
<title>Node8</title>
<g id="a_node2"><a xlink:href="classbsn_1_1resource_1_1Battery.html#aedd16b53e50acce84e3f77dfd6d38e74" target="_top" xlink:title="bsn::resource::Battery\l::consume">
<polygon fill="#ffffff" stroke="#000000" points="130.5,-39 130.5,-69 254.5,-69 254.5,-39 130.5,-39"/>
<text text-anchor="start" x="138.5" y="-57" font-family="Helvetica,sans-Serif" font-size="10.00" fill="#000000">bsn::resource::Battery</text>
<text text-anchor="middle" x="192.5" y="-46" font-family="Helvetica,sans-Serif" font-size="10.00" fill="#000000">::consume</text>
</a>
</g>
</g>
<!-- Node7&#45;&gt;Node8 -->
<g id="edge1" class="edge">
<title>Node7&#45;&gt;Node8</title>
<path fill="none" stroke="#191970" d="M86.2416,-38.3633C96.9133,-39.9337 108.6339,-41.6585 120.2727,-43.3712"/>
<polygon fill="#191970" stroke="#191970" points="120.0483,-46.8758 130.4514,-44.8691 121.0675,-39.9504 120.0483,-46.8758"/>
</g>
<!-- Node9 -->
<g id="node3" class="node">
<title>Node9</title>
<g id="a_node3"><a xlink:href="namespacebsn_1_1processor.html#aa656f0fa70585ebf07c09768dc62101e" target="_top" xlink:title="bsn::processor::data_fuse">
<polygon fill="#ffffff" stroke="#000000" points="122,-.5 122,-19.5 263,-19.5 263,-.5 122,-.5"/>
<text text-anchor="middle" x="192.5" y="-7.5" font-family="Helvetica,sans-Serif" font-size="10.00" fill="#000000">bsn::processor::data_fuse</text>
</a>
</g>
</g>
<!-- Node7&#45;&gt;Node9 -->
<g id="edge2" class="edge">
<title>Node7&#45;&gt;Node9</title>
<path fill="none" stroke="#191970" d="M86.2416,-25.6367C96.2113,-24.1696 107.0964,-22.5678 117.9751,-20.9669"/>
<polygon fill="#191970" stroke="#191970" points="118.5536,-24.4195 127.9375,-19.5008 117.5344,-17.4941 118.5536,-24.4195"/>
</g>
</g>
</svg>
