<?xml version="1.0" encoding="UTF-8" standalone="no"?>
<!DOCTYPE svg PUBLIC "-//W3C//DTD SVG 1.1//EN"
 "http://www.w3.org/Graphics/SVG/1.1/DTD/svg11.dtd">
<!-- Generated by graphviz version 2.40.1 (20161225.0304)
 -->
<!-- Title: bsn::goalmodel::Task Pages: 1 -->
<svg width="293pt" height="602pt"
 viewBox="0.00 0.00 293.00 602.00" xmlns="http://www.w3.org/2000/svg" xmlns:xlink="http://www.w3.org/1999/xlink">
<g id="graph0" class="graph" transform="scale(1 1) rotate(0) translate(4 598)">
<title>bsn::goalmodel::Task</title>
<polygon fill="#ffffff" stroke="transparent" points="-4,4 -4,-598 289,-598 289,4 -4,4"/>
<!-- Node3 -->
<g id="node1" class="node">
<title>Node3</title>
<polygon fill="#bfbfbf" stroke="#000000" points="97.5,-.5 97.5,-101.5 216.5,-101.5 216.5,-.5 97.5,-.5"/>
<text text-anchor="middle" x="157" y="-89.5" font-family="Helvetica,sans-Serif" font-size="10.00" fill="#000000">bsn::goalmodel::Task</text>
<polyline fill="none" stroke="#000000" points="97.5,-82.5 216.5,-82.5 "/>
<text text-anchor="middle" x="157" y="-70.5" font-family="Helvetica,sans-Serif" font-size="10.00" fill="#000000"> </text>
<polyline fill="none" stroke="#000000" points="97.5,-63.5 216.5,-63.5 "/>
<text text-anchor="start" x="105.5" y="-51.5" font-family="Helvetica,sans-Serif" font-size="10.00" fill="#000000">+ Task()</text>
<text text-anchor="start" x="105.5" y="-40.5" font-family="Helvetica,sans-Serif" font-size="10.00" fill="#000000">+ Task()</text>
<text text-anchor="start" x="105.5" y="-29.5" font-family="Helvetica,sans-Serif" font-size="10.00" fill="#000000">+ ~Task()</text>
<text text-anchor="start" x="105.5" y="-18.5" font-family="Helvetica,sans-Serif" font-size="10.00" fill="#000000">+ addChild()</text>
<text text-anchor="start" x="105.5" y="-7.5" font-family="Helvetica,sans-Serif" font-size="10.00" fill="#000000">+ addChild()</text>
</g>
<!-- Node4 -->
<g id="node2" class="node">
<title>Node4</title>
<g id="a_node2"><a xlink:href="classbsn_1_1goalmodel_1_1Node.html" target="_top" xlink:title="{bsn::goalmodel::Node\n||+ Node()\l+ Node()\l+ ~Node()\l+ Node()\l+ operator=()\l+ operator==()\l+ setID()\l+ getID()\l+ setDescription()\l+ getDescription()\l+ hasChildren()\l+ getChildren()\l+ addChild()\l+ removeChild()\l+ getChild()\l}">
<polygon fill="#ffffff" stroke="#000000" points="95.5,-139.5 95.5,-350.5 218.5,-350.5 218.5,-139.5 95.5,-139.5"/>
<text text-anchor="middle" x="157" y="-338.5" font-family="Helvetica,sans-Serif" font-size="10.00" fill="#000000">bsn::goalmodel::Node</text>
<polyline fill="none" stroke="#000000" points="95.5,-331.5 218.5,-331.5 "/>
<text text-anchor="middle" x="157" y="-319.5" font-family="Helvetica,sans-Serif" font-size="10.00" fill="#000000"> </text>
<polyline fill="none" stroke="#000000" points="95.5,-312.5 218.5,-312.5 "/>
<text text-anchor="start" x="103.5" y="-300.5" font-family="Helvetica,sans-Serif" font-size="10.00" fill="#000000">+ Node()</text>
<text text-anchor="start" x="103.5" y="-289.5" font-family="Helvetica,sans-Serif" font-size="10.00" fill="#000000">+ Node()</text>
<text text-anchor="start" x="103.5" y="-278.5" font-family="Helvetica,sans-Serif" font-size="10.00" fill="#000000">+ ~Node()</text>
<text text-anchor="start" x="103.5" y="-267.5" font-family="Helvetica,sans-Serif" font-size="10.00" fill="#000000">+ Node()</text>
<text text-anchor="start" x="103.5" y="-256.5" font-family="Helvetica,sans-Serif" font-size="10.00" fill="#000000">+ operator=()</text>
<text text-anchor="start" x="103.5" y="-245.5" font-family="Helvetica,sans-Serif" font-size="10.00" fill="#000000">+ operator==()</text>
<text text-anchor="start" x="103.5" y="-234.5" font-family="Helvetica,sans-Serif" font-size="10.00" fill="#000000">+ setID()</text>
<text text-anchor="start" x="103.5" y="-223.5" font-family="Helvetica,sans-Serif" font-size="10.00" fill="#000000">+ getID()</text>
<text text-anchor="start" x="103.5" y="-212.5" font-family="Helvetica,sans-Serif" font-size="10.00" fill="#000000">+ setDescription()</text>
<text text-anchor="start" x="103.5" y="-201.5" font-family="Helvetica,sans-Serif" font-size="10.00" fill="#000000">+ getDescription()</text>
<text text-anchor="start" x="103.5" y="-190.5" font-family="Helvetica,sans-Serif" font-size="10.00" fill="#000000">+ hasChildren()</text>
<text text-anchor="start" x="103.5" y="-179.5" font-family="Helvetica,sans-Serif" font-size="10.00" fill="#000000">+ getChildren()</text>
<text text-anchor="start" x="103.5" y="-168.5" font-family="Helvetica,sans-Serif" font-size="10.00" fill="#000000">+ addChild()</text>
<text text-anchor="start" x="103.5" y="-157.5" font-family="Helvetica,sans-Serif" font-size="10.00" fill="#000000">+ removeChild()</text>
<text text-anchor="start" x="103.5" y="-146.5" font-family="Helvetica,sans-Serif" font-size="10.00" fill="#000000">+ getChild()</text>
</a>
</g>
</g>
<!-- Node4&#45;&gt;Node3 -->
<g id="edge1" class="edge">
<title>Node4&#45;&gt;Node3</title>
<path fill="none" stroke="#191970" d="M157,-129.3702C157,-119.7372 157,-110.3588 157,-101.6347"/>
<polygon fill="none" stroke="#191970" points="153.5001,-129.4843 157,-139.4844 160.5001,-129.4844 153.5001,-129.4843"/>
</g>
<!-- Node5 -->
<g id="node3" class="node">
<title>Node5</title>
<polygon fill="#ffffff" stroke="#bfbfbf" points="0,-409.5 0,-477.5 176,-477.5 176,-409.5 0,-409.5"/>
<text text-anchor="start" x="8" y="-465.5" font-family="Helvetica,sans-Serif" font-size="10.00" fill="#000000">std::vector&lt; std::shared</text>
<text text-anchor="middle" x="88" y="-454.5" font-family="Helvetica,sans-Serif" font-size="10.00" fill="#000000">_ptr&lt; bsn::goalmodel::Node &gt; &gt;</text>
<polyline fill="none" stroke="#bfbfbf" points="0,-447.5 176,-447.5 "/>
<text text-anchor="middle" x="88" y="-435.5" font-family="Helvetica,sans-Serif" font-size="10.00" fill="#000000"> </text>
<polyline fill="none" stroke="#bfbfbf" points="0,-428.5 176,-428.5 "/>
<text text-anchor="middle" x="88" y="-416.5" font-family="Helvetica,sans-Serif" font-size="10.00" fill="#000000"> </text>
</g>
<!-- Node5&#45;&gt;Node4 -->
<g id="edge2" class="edge">
<title>Node5&#45;&gt;Node4</title>
<path fill="none" stroke="#404040" d="M99.8615,-409.3766C104.5711,-395.8281 110.2884,-379.3806 116.2638,-362.1904"/>
<polygon fill="none" stroke="#404040" points="116.2797,-362.1444 114.4715,-355.1637 120.2198,-350.8097 122.028,-357.7904 116.2797,-362.1444"/>
<text text-anchor="middle" x="138.5" y="-377.5" font-family="Helvetica,sans-Serif" font-size="10.00" fill="#000000"> #children</text>
</g>
<!-- Node6 -->
<g id="node4" class="node">
<title>Node6</title>
<polygon fill="#ffffff" stroke="#bfbfbf" points="7.5,-525.5 7.5,-593.5 162.5,-593.5 162.5,-525.5 7.5,-525.5"/>
<text text-anchor="start" x="15.5" y="-581.5" font-family="Helvetica,sans-Serif" font-size="10.00" fill="#000000">shared_ptr&lt; bsn::goalmodel</text>
<text text-anchor="middle" x="85" y="-570.5" font-family="Helvetica,sans-Serif" font-size="10.00" fill="#000000">::Node &gt;</text>
<polyline fill="none" stroke="#bfbfbf" points="7.5,-563.5 162.5,-563.5 "/>
<text text-anchor="middle" x="85" y="-551.5" font-family="Helvetica,sans-Serif" font-size="10.00" fill="#000000"> </text>
<polyline fill="none" stroke="#bfbfbf" points="7.5,-544.5 162.5,-544.5 "/>
<text text-anchor="middle" x="85" y="-532.5" font-family="Helvetica,sans-Serif" font-size="10.00" fill="#000000"> </text>
</g>
<!-- Node6&#45;&gt;Node5 -->
<g id="edge3" class="edge">
<title>Node6&#45;&gt;Node5</title>
<path fill="none" stroke="#404040" d="M85.8839,-525.3236C86.1712,-514.213 86.4951,-501.6908 86.8014,-489.8451"/>
<polygon fill="none" stroke="#404040" points="86.8017,-489.829 82.9582,-483.7275 87.1121,-477.833 90.9556,-483.9344 86.8017,-489.829"/>
<text text-anchor="middle" x="116" y="-499" font-family="Helvetica,sans-Serif" font-size="10.00" fill="#000000"> +elements</text>
</g>
<!-- Node7 -->
<g id="node5" class="node">
<title>Node7</title>
<g id="a_node5"><a xlink:title="STL class. ">
<polygon fill="#ffffff" stroke="#bfbfbf" points="198.5,-415 198.5,-472 263.5,-472 263.5,-415 198.5,-415"/>
<text text-anchor="middle" x="231" y="-460" font-family="Helvetica,sans-Serif" font-size="10.00" fill="#000000">std::string</text>
<polyline fill="none" stroke="#bfbfbf" points="198.5,-453 263.5,-453 "/>
<text text-anchor="middle" x="231" y="-441" font-family="Helvetica,sans-Serif" font-size="10.00" fill="#000000"> </text>
<polyline fill="none" stroke="#bfbfbf" points="198.5,-434 263.5,-434 "/>
<text text-anchor="middle" x="231" y="-422" font-family="Helvetica,sans-Serif" font-size="10.00" fill="#000000"> </text>
</a>
</g>
</g>
<!-- Node7&#45;&gt;Node4 -->
<g id="edge4" class="edge">
<title>Node7&#45;&gt;Node4</title>
<path fill="none" stroke="#404040" d="M220.2398,-414.6364C214.8783,-400.2547 208.0025,-381.8107 200.7693,-362.4082"/>
<polygon fill="none" stroke="#404040" points="200.6698,-362.1411 194.8258,-357.9163 196.478,-350.897 202.3219,-355.1217 200.6698,-362.1411"/>
<text text-anchor="middle" x="243.5" y="-383" font-family="Helvetica,sans-Serif" font-size="10.00" fill="#000000"> #id</text>
<text text-anchor="middle" x="243.5" y="-372" font-family="Helvetica,sans-Serif" font-size="10.00" fill="#000000">#description</text>
</g>
<!-- Node8 -->
<g id="node6" class="node">
<title>Node8</title>
<g id="a_node6"><a xlink:title="STL class. ">
<polygon fill="#ffffff" stroke="#bfbfbf" points="181,-525.5 181,-593.5 285,-593.5 285,-525.5 181,-525.5"/>
<text text-anchor="start" x="189" y="-581.5" font-family="Helvetica,sans-Serif" font-size="10.00" fill="#000000">std::basic_string&lt;</text>
<text text-anchor="middle" x="233" y="-570.5" font-family="Helvetica,sans-Serif" font-size="10.00" fill="#000000"> char &gt;</text>
<polyline fill="none" stroke="#bfbfbf" points="181,-563.5 285,-563.5 "/>
<text text-anchor="middle" x="233" y="-551.5" font-family="Helvetica,sans-Serif" font-size="10.00" fill="#000000"> </text>
<polyline fill="none" stroke="#bfbfbf" points="181,-544.5 285,-544.5 "/>
<text text-anchor="middle" x="233" y="-532.5" font-family="Helvetica,sans-Serif" font-size="10.00" fill="#000000"> </text>
</a>
</g>
</g>
<!-- Node8&#45;&gt;Node7 -->
<g id="edge5" class="edge">
<title>Node8&#45;&gt;Node7</title>
<path fill="none" stroke="#191970" d="M232.2351,-515.1387C231.9878,-500.7904 231.72,-485.2617 231.4973,-472.3418"/>
<polygon fill="none" stroke="#191970" points="228.7388,-515.3854 232.4108,-525.3236 235.7377,-515.2647 228.7388,-515.3854"/>
</g>
</g>
</svg>
