<?xml version="1.0" encoding="UTF-8" standalone="no"?>
<!DOCTYPE svg PUBLIC "-//W3C//DTD SVG 1.1//EN"
 "http://www.w3.org/Graphics/SVG/1.1/DTD/svg11.dtd">
<!-- Generated by graphviz version 2.40.1 (20161225.0304)
 -->
<!-- Title: Sensor::body Pages: 1 -->
<svg width="503pt" height="449pt"
 viewBox="0.00 0.00 503.00 448.50" xmlns="http://www.w3.org/2000/svg" xmlns:xlink="http://www.w3.org/1999/xlink">
<g id="graph0" class="graph" transform="scale(1 1) rotate(0) translate(4 444.5)">
<title>Sensor::body</title>
<polygon fill="#ffffff" stroke="transparent" points="-4,4 -4,-444.5 499,-444.5 499,4 -4,4"/>
<!-- Node9 -->
<g id="node1" class="node">
<title>Node9</title>
<polygon fill="#bfbfbf" stroke="#000000" points="0,-207 0,-226 80,-226 80,-207 0,-207"/>
<text text-anchor="middle" x="40" y="-214" font-family="Helvetica,sans-Serif" font-size="10.00" fill="#000000">Sensor::body</text>
</g>
<!-- Node10 -->
<g id="node2" class="node">
<title>Node10</title>
<g id="a_node2"><a xlink:href="classSensor.html#aeb95c3006f7155be956658f0b951b9db" target="_top" xlink:title="Sensor::isActive">
<polygon fill="#ffffff" stroke="#000000" points="155,-421 155,-440 250,-440 250,-421 155,-421"/>
<text text-anchor="middle" x="202.5" y="-428" font-family="Helvetica,sans-Serif" font-size="10.00" fill="#000000">Sensor::isActive</text>
</a>
</g>
</g>
<!-- Node9&#45;&gt;Node10 -->
<g id="edge1" class="edge">
<title>Node9&#45;&gt;Node10</title>
<path fill="none" stroke="#191970" d="M40.6947,-226.4422C43.5049,-258.6497 56.916,-360.9524 116,-411.5 124.1454,-418.4686 134.2697,-423.0507 144.691,-426.0294"/>
<polygon fill="#191970" stroke="#191970" points="144.1796,-429.5055 154.7186,-428.4195 145.8027,-422.6962 144.1796,-429.5055"/>
</g>
<!-- Node11 -->
<g id="node3" class="node">
<title>Node11</title>
<g id="a_node3"><a xlink:href="classbsn_1_1resource_1_1Battery.html#a674c7c02100126e91f040bc93f143c7e" target="_top" xlink:title="bsn::resource::Battery\l::getCurrentLevel">
<polygon fill="#ffffff" stroke="#000000" points="348,-49.5 348,-79.5 472,-79.5 472,-49.5 348,-49.5"/>
<text text-anchor="start" x="356" y="-67.5" font-family="Helvetica,sans-Serif" font-size="10.00" fill="#000000">bsn::resource::Battery</text>
<text text-anchor="middle" x="410" y="-56.5" font-family="Helvetica,sans-Serif" font-size="10.00" fill="#000000">::getCurrentLevel</text>
</a>
</g>
</g>
<!-- Node9&#45;&gt;Node11 -->
<g id="edge2" class="edge">
<title>Node9&#45;&gt;Node11</title>
<path fill="none" stroke="#191970" d="M42.1548,-206.9516C48.4331,-181.6187 69.3028,-112.6529 116,-83.5 182.2725,-42.1263 274.1271,-43.361 337.442,-51.0876"/>
<polygon fill="#191970" stroke="#191970" points="337.3726,-54.6081 347.7416,-52.4321 338.2788,-47.667 337.3726,-54.6081"/>
</g>
<!-- Node12 -->
<g id="node4" class="node">
<title>Node12</title>
<g id="a_node4"><a xlink:href="classSensor.html#ab687b1dd4e4ecb1d806bf947cedc9b76" target="_top" xlink:title="Sensor::turnOn">
<polygon fill="#ffffff" stroke="#000000" points="158,-333 158,-352 247,-352 247,-333 158,-333"/>
<text text-anchor="middle" x="202.5" y="-340" font-family="Helvetica,sans-Serif" font-size="10.00" fill="#000000">Sensor::turnOn</text>
</a>
</g>
</g>
<!-- Node9&#45;&gt;Node12 -->
<g id="edge3" class="edge">
<title>Node9&#45;&gt;Node12</title>
<path fill="none" stroke="#191970" d="M43.864,-226.0094C52.9882,-247.1878 77.9998,-298.3468 116,-323.5 125.5197,-329.8013 136.7938,-334.0457 148.0038,-336.8962"/>
<polygon fill="#191970" stroke="#191970" points="147.2732,-340.3191 157.7929,-339.0591 148.7835,-333.484 147.2732,-340.3191"/>
</g>
<!-- Node13 -->
<g id="node5" class="node">
<title>Node13</title>
<g id="a_node5"><a xlink:href="classSensor.html#a7e0dadfc3dcde4c6c7b20d0c0ae09082" target="_top" xlink:title="Sensor::turnOff">
<polygon fill="#ffffff" stroke="#000000" points="158,-295 158,-314 247,-314 247,-295 158,-295"/>
<text text-anchor="middle" x="202.5" y="-302" font-family="Helvetica,sans-Serif" font-size="10.00" fill="#000000">Sensor::turnOff</text>
</a>
</g>
</g>
<!-- Node9&#45;&gt;Node13 -->
<g id="edge4" class="edge">
<title>Node9&#45;&gt;Node13</title>
<path fill="none" stroke="#191970" d="M47.7913,-226.0511C60.4723,-240.9326 87.0827,-269.4982 116,-284.5 125.8467,-289.6083 136.9934,-293.4251 147.931,-296.2728"/>
<polygon fill="#191970" stroke="#191970" points="147.3364,-299.7287 157.8736,-298.6249 148.9479,-292.9167 147.3364,-299.7287"/>
</g>
<!-- Node14 -->
<g id="node6" class="node">
<title>Node14</title>
<g id="a_node6"><a xlink:href="classarch_1_1target__system_1_1Component.html#adc6ecb4090656eeac2289ec147a20f81" target="_top" xlink:title="arch::target_system\l::Component::sendStatus">
<polygon fill="#ffffff" stroke="#000000" points="133,-245.5 133,-275.5 272,-275.5 272,-245.5 133,-245.5"/>
<text text-anchor="start" x="141" y="-263.5" font-family="Helvetica,sans-Serif" font-size="10.00" fill="#000000">arch::target_system</text>
<text text-anchor="middle" x="202.5" y="-252.5" font-family="Helvetica,sans-Serif" font-size="10.00" fill="#000000">::Component::sendStatus</text>
</a>
</g>
</g>
<!-- Node9&#45;&gt;Node14 -->
<g id="edge5" class="edge">
<title>Node9&#45;&gt;Node14</title>
<path fill="none" stroke="#191970" d="M75.2601,-226.0473C93.3106,-230.9349 115.8766,-237.0451 136.9724,-242.7571"/>
<polygon fill="#191970" stroke="#191970" points="136.2937,-246.1993 146.8609,-245.4346 138.1232,-239.4426 136.2937,-246.1993"/>
</g>
<!-- Node16 -->
<g id="node8" class="node">
<title>Node16</title>
<g id="a_node8"><a xlink:href="classSensor.html#ab89214185c2da031e0f78b0f4dc031e8" target="_top" xlink:title="Sensor::collect">
<polygon fill="#ffffff" stroke="#000000" points="158.5,-207 158.5,-226 246.5,-226 246.5,-207 158.5,-207"/>
<text text-anchor="middle" x="202.5" y="-214" font-family="Helvetica,sans-Serif" font-size="10.00" fill="#000000">Sensor::collect</text>
</a>
</g>
</g>
<!-- Node9&#45;&gt;Node16 -->
<g id="edge7" class="edge">
<title>Node9&#45;&gt;Node16</title>
<path fill="none" stroke="#191970" d="M80.1685,-216.5C100.6149,-216.5 125.7715,-216.5 147.9442,-216.5"/>
<polygon fill="#191970" stroke="#191970" points="148.2237,-220.0001 158.2236,-216.5 148.2236,-213.0001 148.2237,-220.0001"/>
</g>
<!-- Node17 -->
<g id="node9" class="node">
<title>Node17</title>
<g id="a_node9"><a xlink:href="classSensor.html#a865bbaf085db8217e4d0c02e12e8a2a1" target="_top" xlink:title="Sensor::apply_noise">
<polygon fill="#ffffff" stroke="#000000" points="145.5,-169 145.5,-188 259.5,-188 259.5,-169 145.5,-169"/>
<text text-anchor="middle" x="202.5" y="-176" font-family="Helvetica,sans-Serif" font-size="10.00" fill="#000000">Sensor::apply_noise</text>
</a>
</g>
</g>
<!-- Node9&#45;&gt;Node17 -->
<g id="edge8" class="edge">
<title>Node9&#45;&gt;Node17</title>
<path fill="none" stroke="#191970" d="M77.4445,-206.9116C89.7126,-203.831 103.4215,-200.4531 116,-197.5 126.3223,-195.0766 137.3603,-192.58 147.9793,-190.2257"/>
<polygon fill="#191970" stroke="#191970" points="148.9823,-193.5887 157.995,-188.019 147.4761,-186.7527 148.9823,-193.5887"/>
</g>
<!-- Node18 -->
<g id="node10" class="node">
<title>Node18</title>
<g id="a_node10"><a xlink:href="classSensor.html#a209530c83c3299a6587e1c87277dcd1e" target="_top" xlink:title="Sensor::process">
<polygon fill="#ffffff" stroke="#000000" points="156,-131 156,-150 249,-150 249,-131 156,-131"/>
<text text-anchor="middle" x="202.5" y="-138" font-family="Helvetica,sans-Serif" font-size="10.00" fill="#000000">Sensor::process</text>
</a>
</g>
</g>
<!-- Node9&#45;&gt;Node18 -->
<g id="edge9" class="edge">
<title>Node9&#45;&gt;Node18</title>
<path fill="none" stroke="#191970" d="M49.8964,-206.8239C63.5863,-194.0021 89.6131,-171.5971 116,-159.5 125.4265,-155.1784 135.8901,-151.8151 146.1899,-149.2052"/>
<polygon fill="#191970" stroke="#191970" points="147.0297,-152.6033 155.9756,-146.927 145.4424,-145.7856 147.0297,-152.6033"/>
</g>
<!-- Node19 -->
<g id="node11" class="node">
<title>Node19</title>
<g id="a_node11"><a xlink:href="classSensor.html#afa34e334fc608034f8aeb8cb3d34abc9" target="_top" xlink:title="Sensor::transfer">
<polygon fill="#ffffff" stroke="#000000" points="155.5,-93 155.5,-112 249.5,-112 249.5,-93 155.5,-93"/>
<text text-anchor="middle" x="202.5" y="-100" font-family="Helvetica,sans-Serif" font-size="10.00" fill="#000000">Sensor::transfer</text>
</a>
</g>
</g>
<!-- Node9&#45;&gt;Node19 -->
<g id="edge10" class="edge">
<title>Node9&#45;&gt;Node19</title>
<path fill="none" stroke="#191970" d="M44.7734,-206.8921C54.9693,-187.4315 80.8407,-143.3544 116,-121.5 124.9062,-115.9641 135.2065,-112.0293 145.5259,-109.2355"/>
<polygon fill="#191970" stroke="#191970" points="146.4621,-112.6105 155.3808,-106.8914 144.8423,-105.8005 146.4621,-112.6105"/>
</g>
<!-- Node20 -->
<g id="node12" class="node">
<title>Node20</title>
<g id="a_node12"><a xlink:href="classarch_1_1target__system_1_1Component.html#a614676f17763a04020a2095ac541145c" target="_top" xlink:title="arch::target_system\l::Component::sendEnergyStatus">
<polygon fill="#ffffff" stroke="#000000" points="116,-371.5 116,-401.5 289,-401.5 289,-371.5 116,-371.5"/>
<text text-anchor="start" x="124" y="-389.5" font-family="Helvetica,sans-Serif" font-size="10.00" fill="#000000">arch::target_system</text>
<text text-anchor="middle" x="202.5" y="-378.5" font-family="Helvetica,sans-Serif" font-size="10.00" fill="#000000">::Component::sendEnergyStatus</text>
</a>
</g>
</g>
<!-- Node9&#45;&gt;Node20 -->
<g id="edge11" class="edge">
<title>Node9&#45;&gt;Node20</title>
<path fill="none" stroke="#191970" d="M42.2783,-226.3137C48.8634,-252.4518 70.4267,-324.292 116,-361.5 118.0661,-363.1868 120.241,-364.7599 122.501,-366.2268"/>
<polygon fill="#191970" stroke="#191970" points="121.1643,-369.492 131.5905,-371.3749 124.6141,-363.4011 121.1643,-369.492"/>
</g>
<!-- Node21 -->
<g id="node13" class="node">
<title>Node21</title>
<g id="a_node13"><a xlink:href="classSensor.html#aa2c5c0b7c6f69e6e25cf56bab5fc822b" target="_top" xlink:title="Sensor::recharge">
<polygon fill="#ffffff" stroke="#000000" points="153.5,-17 153.5,-36 251.5,-36 251.5,-17 153.5,-17"/>
<text text-anchor="middle" x="202.5" y="-24" font-family="Helvetica,sans-Serif" font-size="10.00" fill="#000000">Sensor::recharge</text>
</a>
</g>
</g>
<!-- Node9&#45;&gt;Node21 -->
<g id="edge13" class="edge">
<title>Node9&#45;&gt;Node21</title>
<path fill="none" stroke="#191970" d="M41.502,-206.938C46.4793,-178.5253 65.1096,-93.8933 116,-50.5 123.9084,-43.7567 133.5664,-38.898 143.5257,-35.3996"/>
<polygon fill="#191970" stroke="#191970" points="144.5925,-38.7334 153.1195,-32.4452 142.5323,-32.0434 144.5925,-38.7334"/>
</g>
<!-- Node15 -->
<g id="node7" class="node">
<title>Node15</title>
<g id="a_node7"><a xlink:href="classarch_1_1ROSComponentDescriptor.html#a462b00745d0de3f98d88f3eb1ba11e45" target="_top" xlink:title="arch::ROSComponentDescriptor\l::getName">
<polygon fill="#ffffff" stroke="#000000" points="325,-308.5 325,-338.5 495,-338.5 495,-308.5 325,-308.5"/>
<text text-anchor="start" x="333" y="-326.5" font-family="Helvetica,sans-Serif" font-size="10.00" fill="#000000">arch::ROSComponentDescriptor</text>
<text text-anchor="middle" x="410" y="-315.5" font-family="Helvetica,sans-Serif" font-size="10.00" fill="#000000">::getName</text>
</a>
</g>
</g>
<!-- Node14&#45;&gt;Node15 -->
<g id="edge6" class="edge">
<title>Node14&#45;&gt;Node15</title>
<path fill="none" stroke="#191970" d="M255.1614,-275.5111C266.3461,-278.7578 278.0744,-282.206 289,-285.5 310.0154,-291.8359 333.0117,-298.9995 353.2595,-305.3855"/>
<polygon fill="#191970" stroke="#191970" points="352.368,-308.7743 362.9579,-308.4509 354.4777,-302.0997 352.368,-308.7743"/>
</g>
<!-- Node20&#45;&gt;Node15 -->
<g id="edge12" class="edge">
<title>Node20&#45;&gt;Node15</title>
<path fill="none" stroke="#191970" d="M255.1614,-371.4889C266.3461,-368.2422 278.0744,-364.794 289,-361.5 310.0154,-355.1641 333.0117,-348.0005 353.2595,-341.6145"/>
<polygon fill="#191970" stroke="#191970" points="354.4777,-344.9003 362.9579,-338.5491 352.368,-338.2257 354.4777,-344.9003"/>
</g>
<!-- Node21&#45;&gt;Node11 -->
<g id="edge14" class="edge">
<title>Node21&#45;&gt;Node11</title>
<path fill="none" stroke="#191970" d="M251.6746,-35.5055C277.4038,-40.2173 309.393,-46.0756 337.8687,-51.2904"/>
<polygon fill="#191970" stroke="#191970" points="337.3114,-54.7465 347.7783,-53.1052 338.5724,-47.861 337.3114,-54.7465"/>
</g>
<!-- Node22 -->
<g id="node14" class="node">
<title>Node22</title>
<g id="a_node14"><a xlink:href="classbsn_1_1resource_1_1Battery.html#aa7265cd180da80242067253f7f42272c" target="_top" xlink:title="bsn::resource::Battery\l::generate">
<polygon fill="#ffffff" stroke="#000000" points="348,-.5 348,-30.5 472,-30.5 472,-.5 348,-.5"/>
<text text-anchor="start" x="356" y="-18.5" font-family="Helvetica,sans-Serif" font-size="10.00" fill="#000000">bsn::resource::Battery</text>
<text text-anchor="middle" x="410" y="-7.5" font-family="Helvetica,sans-Serif" font-size="10.00" fill="#000000">::generate</text>
</a>
</g>
</g>
<!-- Node21&#45;&gt;Node22 -->
<g id="edge15" class="edge">
<title>Node21&#45;&gt;Node22</title>
<path fill="none" stroke="#191970" d="M251.6746,-23.8932C277.2914,-22.5352 309.1137,-20.8482 337.4954,-19.3436"/>
<polygon fill="#191970" stroke="#191970" points="337.9776,-22.8231 347.7783,-18.7985 337.607,-15.8329 337.9776,-22.8231"/>
</g>
</g>
</svg>
