<?xml version="1.0" encoding="UTF-8" standalone="no"?>
<!DOCTYPE svg PUBLIC "-//W3C//DTD SVG 1.1//EN"
 "http://www.w3.org/Graphics/SVG/1.1/DTD/svg11.dtd">
<!-- Generated by graphviz version 2.40.1 (20161225.0304)
 -->
<!-- Title: bsn::goalmodel::LeafTask::getFrequency Pages: 1 -->
<svg width="324pt" height="78pt"
 viewBox="0.00 0.00 324.00 77.50" xmlns="http://www.w3.org/2000/svg" xmlns:xlink="http://www.w3.org/1999/xlink">
<g id="graph0" class="graph" transform="scale(1 1) rotate(0) translate(4 73.5)">
<title>bsn::goalmodel::LeafTask::getFrequency</title>
<polygon fill="#ffffff" stroke="transparent" points="-4,4 -4,-73.5 320,-73.5 320,4 -4,4"/>
<!-- Node22 -->
<g id="node1" class="node">
<title>Node22</title>
<polygon fill="#bfbfbf" stroke="#000000" points="0,-17 0,-47 140,-47 140,-17 0,-17"/>
<text text-anchor="start" x="8" y="-35" font-family="Helvetica,sans-Serif" font-size="10.00" fill="#000000">bsn::goalmodel::LeafTask</text>
<text text-anchor="middle" x="70" y="-24" font-family="Helvetica,sans-Serif" font-size="10.00" fill="#000000">::getFrequency</text>
</g>
<!-- Node23 -->
<g id="node2" class="node">
<title>Node23</title>
<g id="a_node2"><a xlink:href="classbsn_1_1goalmodel_1_1LeafTask.html#a5a0f2631ba7d3681b78f4f7c2fe405f1" target="_top" xlink:title="bsn::goalmodel::LeafTask\l::operator=">
<polygon fill="#ffffff" stroke="#000000" points="176,-39 176,-69 316,-69 316,-39 176,-39"/>
<text text-anchor="start" x="184" y="-57" font-family="Helvetica,sans-Serif" font-size="10.00" fill="#000000">bsn::goalmodel::LeafTask</text>
<text text-anchor="middle" x="246" y="-46" font-family="Helvetica,sans-Serif" font-size="10.00" fill="#000000">::operator=</text>
</a>
</g>
</g>
<!-- Node22&#45;&gt;Node23 -->
<g id="edge1" class="edge">
<title>Node22&#45;&gt;Node23</title>
<path fill="none" stroke="#191970" d="M150.1006,-42.0126C158.7058,-43.0882 167.4124,-44.1766 175.888,-45.236"/>
<polygon fill="#191970" stroke="#191970" points="150.4225,-38.5257 140.0656,-40.7582 149.5542,-45.4716 150.4225,-38.5257"/>
</g>
<!-- Node24 -->
<g id="node3" class="node">
<title>Node24</title>
<g id="a_node3"><a xlink:href="LeafTaskTest_8cpp.html#a4067e804a819f208e573f8038e93eecd" target="_top" xlink:title="TEST_F">
<polygon fill="#ffffff" stroke="#000000" points="220.5,-.5 220.5,-19.5 271.5,-19.5 271.5,-.5 220.5,-.5"/>
<text text-anchor="middle" x="246" y="-7.5" font-family="Helvetica,sans-Serif" font-size="10.00" fill="#000000">TEST_F</text>
</a>
</g>
</g>
<!-- Node22&#45;&gt;Node24 -->
<g id="edge2" class="edge">
<title>Node22&#45;&gt;Node24</title>
<path fill="none" stroke="#191970" d="M150.128,-21.984C175.5638,-18.8045 201.8838,-15.5145 220.4963,-13.188"/>
<polygon fill="#191970" stroke="#191970" points="149.5542,-18.5284 140.0656,-23.2418 150.4225,-25.4743 149.5542,-18.5284"/>
</g>
</g>
</svg>
