<?xml version="1.0" encoding="UTF-8" standalone="no"?>
<!DOCTYPE svg PUBLIC "-//W3C//DTD SVG 1.1//EN"
 "http://www.w3.org/Graphics/SVG/1.1/DTD/svg11.dtd">
<!-- Generated by graphviz version 2.40.1 (20161225.0304)
 -->
<!-- Title: bsn::goalmodel::LeafTask::operator= Pages: 1 -->
<svg width="324pt" height="284pt"
 viewBox="0.00 0.00 324.00 284.00" xmlns="http://www.w3.org/2000/svg" xmlns:xlink="http://www.w3.org/1999/xlink">
<g id="graph0" class="graph" transform="scale(1 1) rotate(0) translate(4 280)">
<title>bsn::goalmodel::LeafTask::operator=</title>
<polygon fill="#ffffff" stroke="transparent" points="-4,4 -4,-280 320,-280 320,4 -4,4"/>
<!-- Node29 -->
<g id="node1" class="node">
<title>Node29</title>
<polygon fill="#bfbfbf" stroke="#000000" points="0,-122.5 0,-152.5 140,-152.5 140,-122.5 0,-122.5"/>
<text text-anchor="start" x="8" y="-140.5" font-family="Helvetica,sans-Serif" font-size="10.00" fill="#000000">bsn::goalmodel::LeafTask</text>
<text text-anchor="middle" x="70" y="-129.5" font-family="Helvetica,sans-Serif" font-size="10.00" fill="#000000">::operator=</text>
</g>
<!-- Node30 -->
<g id="node2" class="node">
<title>Node30</title>
<g id="a_node2"><a xlink:href="classbsn_1_1goalmodel_1_1Node.html#ae0ad7ddec09e54734821a25e84677553" target="_top" xlink:title="bsn::goalmodel::Node\l::getID">
<polygon fill="#ffffff" stroke="#000000" points="184.5,-245.5 184.5,-275.5 307.5,-275.5 307.5,-245.5 184.5,-245.5"/>
<text text-anchor="start" x="192.5" y="-263.5" font-family="Helvetica,sans-Serif" font-size="10.00" fill="#000000">bsn::goalmodel::Node</text>
<text text-anchor="middle" x="246" y="-252.5" font-family="Helvetica,sans-Serif" font-size="10.00" fill="#000000">::getID</text>
</a>
</g>
</g>
<!-- Node29&#45;&gt;Node30 -->
<g id="edge1" class="edge">
<title>Node29&#45;&gt;Node30</title>
<path fill="none" stroke="#191970" d="M82.5127,-152.6837C100.9303,-174.1395 137.3581,-213.2958 176,-236.5 178.8086,-238.1865 181.7522,-239.7752 184.776,-241.2688"/>
<polygon fill="#191970" stroke="#191970" points="183.4807,-244.5244 194.0336,-245.4669 186.3718,-238.1493 183.4807,-244.5244"/>
</g>
<!-- Node31 -->
<g id="node3" class="node">
<title>Node31</title>
<g id="a_node3"><a xlink:href="classbsn_1_1goalmodel_1_1Node.html#a6e9b650e57a8951f241d88267a4521e7" target="_top" xlink:title="bsn::goalmodel::Node\l::getDescription">
<polygon fill="#ffffff" stroke="#000000" points="184.5,-196.5 184.5,-226.5 307.5,-226.5 307.5,-196.5 184.5,-196.5"/>
<text text-anchor="start" x="192.5" y="-214.5" font-family="Helvetica,sans-Serif" font-size="10.00" fill="#000000">bsn::goalmodel::Node</text>
<text text-anchor="middle" x="246" y="-203.5" font-family="Helvetica,sans-Serif" font-size="10.00" fill="#000000">::getDescription</text>
</a>
</g>
</g>
<!-- Node29&#45;&gt;Node31 -->
<g id="edge2" class="edge">
<title>Node29&#45;&gt;Node31</title>
<path fill="none" stroke="#191970" d="M99.7627,-152.6207C120.7949,-163.0376 149.7931,-176.8644 176,-187.5 180.6427,-189.3841 185.4954,-191.2512 190.3864,-193.0627"/>
<polygon fill="#191970" stroke="#191970" points="189.1999,-196.3554 199.7941,-196.4676 191.5822,-189.7732 189.1999,-196.3554"/>
</g>
<!-- Node32 -->
<g id="node4" class="node">
<title>Node32</title>
<g id="a_node4"><a xlink:href="classbsn_1_1goalmodel_1_1LeafTask.html#a05a6edfe1d551224522d1864fbac4155" target="_top" xlink:title="bsn::goalmodel::LeafTask\l::getContext">
<polygon fill="#ffffff" stroke="#000000" points="176,-147.5 176,-177.5 316,-177.5 316,-147.5 176,-147.5"/>
<text text-anchor="start" x="184" y="-165.5" font-family="Helvetica,sans-Serif" font-size="10.00" fill="#000000">bsn::goalmodel::LeafTask</text>
<text text-anchor="middle" x="246" y="-154.5" font-family="Helvetica,sans-Serif" font-size="10.00" fill="#000000">::getContext</text>
</a>
</g>
</g>
<!-- Node29&#45;&gt;Node32 -->
<g id="edge3" class="edge">
<title>Node29&#45;&gt;Node32</title>
<path fill="none" stroke="#191970" d="M140.0656,-147.4525C148.5403,-148.6563 157.2467,-149.893 165.8522,-151.1154"/>
<polygon fill="#191970" stroke="#191970" points="165.4951,-154.5997 175.888,-152.5409 166.4796,-147.6693 165.4951,-154.5997"/>
</g>
<!-- Node33 -->
<g id="node5" class="node">
<title>Node33</title>
<g id="a_node5"><a xlink:href="classbsn_1_1goalmodel_1_1LeafTask.html#a165ec6f4b6bb2edc66201376fec30e12" target="_top" xlink:title="bsn::goalmodel::LeafTask\l::getCost">
<polygon fill="#ffffff" stroke="#000000" points="176,-98.5 176,-128.5 316,-128.5 316,-98.5 176,-98.5"/>
<text text-anchor="start" x="184" y="-116.5" font-family="Helvetica,sans-Serif" font-size="10.00" fill="#000000">bsn::goalmodel::LeafTask</text>
<text text-anchor="middle" x="246" y="-105.5" font-family="Helvetica,sans-Serif" font-size="10.00" fill="#000000">::getCost</text>
</a>
</g>
</g>
<!-- Node29&#45;&gt;Node33 -->
<g id="edge4" class="edge">
<title>Node29&#45;&gt;Node33</title>
<path fill="none" stroke="#191970" d="M140.0656,-127.9456C148.5403,-126.79 157.2467,-125.6027 165.8522,-124.4292"/>
<polygon fill="#191970" stroke="#191970" points="166.4526,-127.8799 175.888,-123.0607 165.5068,-120.944 166.4526,-127.8799"/>
</g>
<!-- Node34 -->
<g id="node6" class="node">
<title>Node34</title>
<g id="a_node6"><a xlink:href="classbsn_1_1goalmodel_1_1LeafTask.html#ae57e36bae78eae6a0deff6f6087cab39" target="_top" xlink:title="bsn::goalmodel::LeafTask\l::getReliability">
<polygon fill="#ffffff" stroke="#000000" points="176,-49.5 176,-79.5 316,-79.5 316,-49.5 176,-49.5"/>
<text text-anchor="start" x="184" y="-67.5" font-family="Helvetica,sans-Serif" font-size="10.00" fill="#000000">bsn::goalmodel::LeafTask</text>
<text text-anchor="middle" x="246" y="-56.5" font-family="Helvetica,sans-Serif" font-size="10.00" fill="#000000">::getReliability</text>
</a>
</g>
</g>
<!-- Node29&#45;&gt;Node34 -->
<g id="edge5" class="edge">
<title>Node29&#45;&gt;Node34</title>
<path fill="none" stroke="#191970" d="M101.7104,-122.3163C122.6202,-112.5094 150.7151,-99.7199 176,-89.5 181.3652,-87.3314 186.9987,-85.1555 192.6418,-83.0413"/>
<polygon fill="#191970" stroke="#191970" points="193.9302,-86.2967 202.1023,-79.5537 191.5089,-79.7287 193.9302,-86.2967"/>
</g>
<!-- Node35 -->
<g id="node7" class="node">
<title>Node35</title>
<g id="a_node7"><a xlink:href="classbsn_1_1goalmodel_1_1LeafTask.html#a7449c8d90f8210827cd3ebade39ab3da" target="_top" xlink:title="bsn::goalmodel::LeafTask\l::getFrequency">
<polygon fill="#ffffff" stroke="#000000" points="176,-.5 176,-30.5 316,-30.5 316,-.5 176,-.5"/>
<text text-anchor="start" x="184" y="-18.5" font-family="Helvetica,sans-Serif" font-size="10.00" fill="#000000">bsn::goalmodel::LeafTask</text>
<text text-anchor="middle" x="246" y="-7.5" font-family="Helvetica,sans-Serif" font-size="10.00" fill="#000000">::getFrequency</text>
</a>
</g>
</g>
<!-- Node29&#45;&gt;Node35 -->
<g id="edge6" class="edge">
<title>Node29&#45;&gt;Node35</title>
<path fill="none" stroke="#191970" d="M82.9314,-122.3523C101.5744,-101.3546 137.9629,-63.4071 176,-40.5 179.3855,-38.4611 182.9628,-36.5523 186.6375,-34.7716"/>
<polygon fill="#191970" stroke="#191970" points="188.2273,-37.8945 195.9187,-30.608 185.3622,-31.5077 188.2273,-37.8945"/>
</g>
</g>
</svg>
