<?xml version="1.0" encoding="UTF-8" standalone="no"?>
<!DOCTYPE svg PUBLIC "-//W3C//DTD SVG 1.1//EN"
 "http://www.w3.org/Graphics/SVG/1.1/DTD/svg11.dtd">
<!-- Generated by graphviz version 2.40.1 (20161225.0304)
 -->
<!-- Title: bsn::goalmodel::Node::operator== Pages: 1 -->
<svg width="290pt" height="88pt"
 viewBox="0.00 0.00 290.00 88.00" xmlns="http://www.w3.org/2000/svg" xmlns:xlink="http://www.w3.org/1999/xlink">
<g id="graph0" class="graph" transform="scale(1 1) rotate(0) translate(4 84)">
<title>bsn::goalmodel::Node::operator==</title>
<polygon fill="#ffffff" stroke="transparent" points="-4,4 -4,-84 286,-84 286,4 -4,4"/>
<!-- Node40 -->
<g id="node1" class="node">
<title>Node40</title>
<polygon fill="#bfbfbf" stroke="#000000" points="0,-24.5 0,-54.5 123,-54.5 123,-24.5 0,-24.5"/>
<text text-anchor="start" x="8" y="-42.5" font-family="Helvetica,sans-Serif" font-size="10.00" fill="#000000">bsn::goalmodel::Node</text>
<text text-anchor="middle" x="61.5" y="-31.5" font-family="Helvetica,sans-Serif" font-size="10.00" fill="#000000">::operator==</text>
</g>
<!-- Node41 -->
<g id="node2" class="node">
<title>Node41</title>
<g id="a_node2"><a xlink:href="classbsn_1_1goalmodel_1_1Node.html#ae0ad7ddec09e54734821a25e84677553" target="_top" xlink:title="bsn::goalmodel::Node\l::getID">
<polygon fill="#ffffff" stroke="#000000" points="159,-49.5 159,-79.5 282,-79.5 282,-49.5 159,-49.5"/>
<text text-anchor="start" x="167" y="-67.5" font-family="Helvetica,sans-Serif" font-size="10.00" fill="#000000">bsn::goalmodel::Node</text>
<text text-anchor="middle" x="220.5" y="-56.5" font-family="Helvetica,sans-Serif" font-size="10.00" fill="#000000">::getID</text>
</a>
</g>
</g>
<!-- Node40&#45;&gt;Node41 -->
<g id="edge1" class="edge">
<title>Node40&#45;&gt;Node41</title>
<path fill="none" stroke="#191970" d="M123.4288,-49.2372C131.7643,-50.5478 140.371,-51.9011 148.8571,-53.2354"/>
<polygon fill="#191970" stroke="#191970" points="148.3179,-56.6935 158.7402,-54.7893 149.4052,-49.7785 148.3179,-56.6935"/>
</g>
<!-- Node42 -->
<g id="node3" class="node">
<title>Node42</title>
<g id="a_node3"><a xlink:href="classbsn_1_1goalmodel_1_1Node.html#a6e9b650e57a8951f241d88267a4521e7" target="_top" xlink:title="bsn::goalmodel::Node\l::getDescription">
<polygon fill="#ffffff" stroke="#000000" points="159,-.5 159,-30.5 282,-30.5 282,-.5 159,-.5"/>
<text text-anchor="start" x="167" y="-18.5" font-family="Helvetica,sans-Serif" font-size="10.00" fill="#000000">bsn::goalmodel::Node</text>
<text text-anchor="middle" x="220.5" y="-7.5" font-family="Helvetica,sans-Serif" font-size="10.00" fill="#000000">::getDescription</text>
</a>
</g>
</g>
<!-- Node40&#45;&gt;Node42 -->
<g id="edge2" class="edge">
<title>Node40&#45;&gt;Node42</title>
<path fill="none" stroke="#191970" d="M123.4288,-30.1523C131.6737,-28.9077 140.1839,-27.6232 148.5803,-26.3558"/>
<polygon fill="#191970" stroke="#191970" points="149.3746,-29.7756 158.7402,-24.8222 148.3298,-22.854 149.3746,-29.7756"/>
</g>
</g>
</svg>
