<?xml version="1.0" encoding="UTF-8" standalone="no"?>
<!DOCTYPE svg PUBLIC "-//W3C//DTD SVG 1.1//EN"
 "http://www.w3.org/Graphics/SVG/1.1/DTD/svg11.dtd">
<!-- Generated by graphviz version 2.40.1 (20161225.0304)
 -->
<!-- Title: arch::target_system::Probe Pages: 1 -->
<svg width="250pt" height="485pt"
 viewBox="0.00 0.00 249.50 485.00" xmlns="http://www.w3.org/2000/svg" xmlns:xlink="http://www.w3.org/1999/xlink">
<g id="graph0" class="graph" transform="scale(1 1) rotate(0) translate(4 481)">
<title>arch::target_system::Probe</title>
<polygon fill="#ffffff" stroke="transparent" points="-4,4 -4,-481 245.5,-481 245.5,4 -4,4"/>
<!-- Node2 -->
<g id="node1" class="node">
<title>Node2</title>
<polygon fill="#bfbfbf" stroke="#000000" points="107,-.5 107,-145.5 239,-145.5 239,-.5 107,-.5"/>
<text text-anchor="start" x="115" y="-133.5" font-family="Helvetica,sans-Serif" font-size="10.00" fill="#000000">arch::target_system</text>
<text text-anchor="middle" x="173" y="-122.5" font-family="Helvetica,sans-Serif" font-size="10.00" fill="#000000">::Probe</text>
<polyline fill="none" stroke="#000000" points="107,-115.5 239,-115.5 "/>
<text text-anchor="middle" x="173" y="-103.5" font-family="Helvetica,sans-Serif" font-size="10.00" fill="#000000"> </text>
<polyline fill="none" stroke="#000000" points="107,-96.5 239,-96.5 "/>
<text text-anchor="start" x="115" y="-84.5" font-family="Helvetica,sans-Serif" font-size="10.00" fill="#000000">+ Probe()</text>
<text text-anchor="start" x="115" y="-73.5" font-family="Helvetica,sans-Serif" font-size="10.00" fill="#000000">+ ~Probe()</text>
<text text-anchor="start" x="115" y="-62.5" font-family="Helvetica,sans-Serif" font-size="10.00" fill="#000000">+ setUp()</text>
<text text-anchor="start" x="115" y="-51.5" font-family="Helvetica,sans-Serif" font-size="10.00" fill="#000000">+ tearDown()</text>
<text text-anchor="start" x="115" y="-40.5" font-family="Helvetica,sans-Serif" font-size="10.00" fill="#000000">+ body()</text>
<text text-anchor="start" x="115" y="-29.5" font-family="Helvetica,sans-Serif" font-size="10.00" fill="#000000">+ collectEvent()</text>
<text text-anchor="start" x="115" y="-18.5" font-family="Helvetica,sans-Serif" font-size="10.00" fill="#000000">+ collectStatus()</text>
<text text-anchor="start" x="115" y="-7.5" font-family="Helvetica,sans-Serif" font-size="10.00" fill="#000000">+ collectEnergyStatus()</text>
</g>
<!-- Node3 -->
<g id="node2" class="node">
<title>Node3</title>
<g id="a_node2"><a xlink:href="classarch_1_1ROSComponent.html" target="_top" xlink:title="{arch::ROSComponent\n||+ ROSComponent()\l+ ~ROSComponent()\l+ setUp()\l+ tearDown()\l+ run()\l+ body()\l# getRosNodeName()\l}">
<polygon fill="#ffffff" stroke="#000000" points="23.5,-193.5 23.5,-316.5 146.5,-316.5 146.5,-193.5 23.5,-193.5"/>
<text text-anchor="middle" x="85" y="-304.5" font-family="Helvetica,sans-Serif" font-size="10.00" fill="#000000">arch::ROSComponent</text>
<polyline fill="none" stroke="#000000" points="23.5,-297.5 146.5,-297.5 "/>
<text text-anchor="middle" x="85" y="-285.5" font-family="Helvetica,sans-Serif" font-size="10.00" fill="#000000"> </text>
<polyline fill="none" stroke="#000000" points="23.5,-278.5 146.5,-278.5 "/>
<text text-anchor="start" x="31.5" y="-266.5" font-family="Helvetica,sans-Serif" font-size="10.00" fill="#000000">+ ROSComponent()</text>
<text text-anchor="start" x="31.5" y="-255.5" font-family="Helvetica,sans-Serif" font-size="10.00" fill="#000000">+ ~ROSComponent()</text>
<text text-anchor="start" x="31.5" y="-244.5" font-family="Helvetica,sans-Serif" font-size="10.00" fill="#000000">+ setUp()</text>
<text text-anchor="start" x="31.5" y="-233.5" font-family="Helvetica,sans-Serif" font-size="10.00" fill="#000000">+ tearDown()</text>
<text text-anchor="start" x="31.5" y="-222.5" font-family="Helvetica,sans-Serif" font-size="10.00" fill="#000000">+ run()</text>
<text text-anchor="start" x="31.5" y="-211.5" font-family="Helvetica,sans-Serif" font-size="10.00" fill="#000000">+ body()</text>
<text text-anchor="start" x="31.5" y="-200.5" font-family="Helvetica,sans-Serif" font-size="10.00" fill="#000000"># getRosNodeName()</text>
</a>
</g>
</g>
<!-- Node3&#45;&gt;Node2 -->
<g id="edge1" class="edge">
<title>Node3&#45;&gt;Node2</title>
<path fill="none" stroke="#191970" d="M119.208,-184.2517C125.3465,-171.556 131.753,-158.3064 137.9158,-145.5605"/>
<polygon fill="none" stroke="#191970" points="115.9949,-182.8567 114.7928,-193.3831 122.2969,-185.9038 115.9949,-182.8567"/>
</g>
<!-- Node4 -->
<g id="node3" class="node">
<title>Node4</title>
<g id="a_node3"><a xlink:href="classarch_1_1ROSComponentDescriptor.html" target="_top" xlink:title="{arch::ROSComponentDescriptor\n||+ ROSComponentDescriptor()\l+ ~ROSComponentDescriptor()\l+ setName()\l+ getName()\l+ setFreq()\l+ getFreq()\l}">
<polygon fill="#ffffff" stroke="#000000" points="0,-364.5 0,-476.5 170,-476.5 170,-364.5 0,-364.5"/>
<text text-anchor="middle" x="85" y="-464.5" font-family="Helvetica,sans-Serif" font-size="10.00" fill="#000000">arch::ROSComponentDescriptor</text>
<polyline fill="none" stroke="#000000" points="0,-457.5 170,-457.5 "/>
<text text-anchor="middle" x="85" y="-445.5" font-family="Helvetica,sans-Serif" font-size="10.00" fill="#000000"> </text>
<polyline fill="none" stroke="#000000" points="0,-438.5 170,-438.5 "/>
<text text-anchor="start" x="8" y="-426.5" font-family="Helvetica,sans-Serif" font-size="10.00" fill="#000000">+ ROSComponentDescriptor()</text>
<text text-anchor="start" x="8" y="-415.5" font-family="Helvetica,sans-Serif" font-size="10.00" fill="#000000">+ ~ROSComponentDescriptor()</text>
<text text-anchor="start" x="8" y="-404.5" font-family="Helvetica,sans-Serif" font-size="10.00" fill="#000000">+ setName()</text>
<text text-anchor="start" x="8" y="-393.5" font-family="Helvetica,sans-Serif" font-size="10.00" fill="#000000">+ getName()</text>
<text text-anchor="start" x="8" y="-382.5" font-family="Helvetica,sans-Serif" font-size="10.00" fill="#000000">+ setFreq()</text>
<text text-anchor="start" x="8" y="-371.5" font-family="Helvetica,sans-Serif" font-size="10.00" fill="#000000">+ getFreq()</text>
</a>
</g>
</g>
<!-- Node4&#45;&gt;Node3 -->
<g id="edge2" class="edge">
<title>Node4&#45;&gt;Node3</title>
<path fill="none" stroke="#404040" d="M85,-364.4692C85,-353.0551 85,-340.8811 85,-328.9537"/>
<polygon fill="none" stroke="#404040" points="85.0001,-328.6555 81,-322.6555 85,-316.6555 89,-322.6555 85.0001,-328.6555"/>
<text text-anchor="middle" x="151.5" y="-338" font-family="Helvetica,sans-Serif" font-size="10.00" fill="#000000"> #rosComponentDescriptor</text>
</g>
<!-- Node5 -->
<g id="node4" class="node">
<title>Node5</title>
<polygon fill="#ffffff" stroke="#bfbfbf" points="164.5,-226.5 164.5,-283.5 241.5,-283.5 241.5,-226.5 164.5,-226.5"/>
<text text-anchor="middle" x="203" y="-271.5" font-family="Helvetica,sans-Serif" font-size="10.00" fill="#000000">NodeHandle</text>
<polyline fill="none" stroke="#bfbfbf" points="164.5,-264.5 241.5,-264.5 "/>
<text text-anchor="middle" x="203" y="-252.5" font-family="Helvetica,sans-Serif" font-size="10.00" fill="#000000"> </text>
<polyline fill="none" stroke="#bfbfbf" points="164.5,-245.5 241.5,-245.5 "/>
<text text-anchor="middle" x="203" y="-233.5" font-family="Helvetica,sans-Serif" font-size="10.00" fill="#000000"> </text>
</g>
<!-- Node5&#45;&gt;Node2 -->
<g id="edge3" class="edge">
<title>Node5&#45;&gt;Node2</title>
<path fill="none" stroke="#404040" d="M198.2464,-226.1616C195.1795,-207.5559 191.018,-182.3093 186.9587,-157.6828"/>
<polygon fill="none" stroke="#404040" points="186.9312,-157.5152 182.0085,-152.2457 184.9794,-145.675 189.902,-150.9445 186.9312,-157.5152"/>
<text text-anchor="middle" x="211.5" y="-167" font-family="Helvetica,sans-Serif" font-size="10.00" fill="#000000"> #handle</text>
</g>
</g>
</svg>
