<?xml version="1.0" encoding="UTF-8" standalone="no"?>
<!DOCTYPE svg PUBLIC "-//W3C//DTD SVG 1.1//EN"
 "http://www.w3.org/Graphics/SVG/1.1/DTD/svg11.dtd">
<!-- Generated by graphviz version 2.40.1 (20161225.0304)
 -->
<!-- Title: G4T1 Pages: 1 -->
<svg width="844pt" height="927pt"
 viewBox="0.00 0.00 844.00 927.00" xmlns="http://www.w3.org/2000/svg" xmlns:xlink="http://www.w3.org/1999/xlink">
<g id="graph0" class="graph" transform="scale(1 1) rotate(0) translate(4 923)">
<title>G4T1</title>
<polygon fill="#ffffff" stroke="transparent" points="-4,4 -4,-923 840,-923 840,4 -4,4"/>
<!-- Node4 -->
<g id="node1" class="node">
<title>Node4</title>
<polygon fill="#bfbfbf" stroke="#000000" points="455.5,-.5 455.5,-123.5 538.5,-123.5 538.5,-.5 455.5,-.5"/>
<text text-anchor="middle" x="497" y="-111.5" font-family="Helvetica,sans-Serif" font-size="10.00" fill="#000000">G4T1</text>
<polyline fill="none" stroke="#000000" points="455.5,-104.5 538.5,-104.5 "/>
<text text-anchor="middle" x="497" y="-92.5" font-family="Helvetica,sans-Serif" font-size="10.00" fill="#000000"> </text>
<polyline fill="none" stroke="#000000" points="455.5,-85.5 538.5,-85.5 "/>
<text text-anchor="start" x="463.5" y="-73.5" font-family="Helvetica,sans-Serif" font-size="10.00" fill="#000000">+ G4T1()</text>
<text text-anchor="start" x="463.5" y="-62.5" font-family="Helvetica,sans-Serif" font-size="10.00" fill="#000000">+ ~G4T1()</text>
<text text-anchor="start" x="463.5" y="-51.5" font-family="Helvetica,sans-Serif" font-size="10.00" fill="#000000">+ setUp()</text>
<text text-anchor="start" x="463.5" y="-40.5" font-family="Helvetica,sans-Serif" font-size="10.00" fill="#000000">+ tearDown()</text>
<text text-anchor="start" x="463.5" y="-29.5" font-family="Helvetica,sans-Serif" font-size="10.00" fill="#000000">+ collect()</text>
<text text-anchor="start" x="463.5" y="-18.5" font-family="Helvetica,sans-Serif" font-size="10.00" fill="#000000">+ process()</text>
<text text-anchor="start" x="463.5" y="-7.5" font-family="Helvetica,sans-Serif" font-size="10.00" fill="#000000">+ transfer()</text>
</g>
<!-- Node5 -->
<g id="node2" class="node">
<title>Node5</title>
<g id="a_node2"><a xlink:href="classCentralHub.html" target="_top" xlink:title="{CentralHub\n||+ CentralHub()\l+ ~CentralHub()\l+ setUp()\l+ tearDown()\l+ run()\l+ body()\l+ apply_noise()\l+ reconfigure()\l+ collect()\l+ process()\l+ transfer()\l}">
<polygon fill="#ffffff" stroke="#000000" points="448,-161.5 448,-328.5 546,-328.5 546,-161.5 448,-161.5"/>
<text text-anchor="middle" x="497" y="-316.5" font-family="Helvetica,sans-Serif" font-size="10.00" fill="#000000">CentralHub</text>
<polyline fill="none" stroke="#000000" points="448,-309.5 546,-309.5 "/>
<text text-anchor="middle" x="497" y="-297.5" font-family="Helvetica,sans-Serif" font-size="10.00" fill="#000000"> </text>
<polyline fill="none" stroke="#000000" points="448,-290.5 546,-290.5 "/>
<text text-anchor="start" x="456" y="-278.5" font-family="Helvetica,sans-Serif" font-size="10.00" fill="#000000">+ CentralHub()</text>
<text text-anchor="start" x="456" y="-267.5" font-family="Helvetica,sans-Serif" font-size="10.00" fill="#000000">+ ~CentralHub()</text>
<text text-anchor="start" x="456" y="-256.5" font-family="Helvetica,sans-Serif" font-size="10.00" fill="#000000">+ setUp()</text>
<text text-anchor="start" x="456" y="-245.5" font-family="Helvetica,sans-Serif" font-size="10.00" fill="#000000">+ tearDown()</text>
<text text-anchor="start" x="456" y="-234.5" font-family="Helvetica,sans-Serif" font-size="10.00" fill="#000000">+ run()</text>
<text text-anchor="start" x="456" y="-223.5" font-family="Helvetica,sans-Serif" font-size="10.00" fill="#000000">+ body()</text>
<text text-anchor="start" x="456" y="-212.5" font-family="Helvetica,sans-Serif" font-size="10.00" fill="#000000">+ apply_noise()</text>
<text text-anchor="start" x="456" y="-201.5" font-family="Helvetica,sans-Serif" font-size="10.00" fill="#000000">+ reconfigure()</text>
<text text-anchor="start" x="456" y="-190.5" font-family="Helvetica,sans-Serif" font-size="10.00" fill="#000000">+ collect()</text>
<text text-anchor="start" x="456" y="-179.5" font-family="Helvetica,sans-Serif" font-size="10.00" fill="#000000">+ process()</text>
<text text-anchor="start" x="456" y="-168.5" font-family="Helvetica,sans-Serif" font-size="10.00" fill="#000000">+ transfer()</text>
</a>
</g>
</g>
<!-- Node5&#45;&gt;Node4 -->
<g id="edge1" class="edge">
<title>Node5&#45;&gt;Node4</title>
<path fill="none" stroke="#191970" d="M497,-151.117C497,-141.7593 497,-132.4349 497,-123.5355"/>
<polygon fill="none" stroke="#191970" points="493.5001,-151.2656 497,-161.2656 500.5001,-151.2656 493.5001,-151.2656"/>
</g>
<!-- Node6 -->
<g id="node3" class="node">
<title>Node6</title>
<g id="a_node3"><a xlink:href="classarch_1_1target__system_1_1Component.html" target="_top" xlink:title="{arch::target_system\l::Component\n||+ Component()\l+ ~Component()\l+ setUp()\l+ tearDown()\l+ run()\l+ body()\l+ sendEvent()\l+ sendStatus()\l+ sendEnergyStatus()\l+ reconfigure()\l# activate()\l# deactivate()\l# shutdownComponent()\l# sigIntHandler()\l}">
<polygon fill="#ffffff" stroke="#000000" points="110.5,-376.5 110.5,-587.5 249.5,-587.5 249.5,-376.5 110.5,-376.5"/>
<text text-anchor="start" x="118.5" y="-575.5" font-family="Helvetica,sans-Serif" font-size="10.00" fill="#000000">arch::target_system</text>
<text text-anchor="middle" x="180" y="-564.5" font-family="Helvetica,sans-Serif" font-size="10.00" fill="#000000">::Component</text>
<polyline fill="none" stroke="#000000" points="110.5,-557.5 249.5,-557.5 "/>
<text text-anchor="middle" x="180" y="-545.5" font-family="Helvetica,sans-Serif" font-size="10.00" fill="#000000"> </text>
<polyline fill="none" stroke="#000000" points="110.5,-538.5 249.5,-538.5 "/>
<text text-anchor="start" x="118.5" y="-526.5" font-family="Helvetica,sans-Serif" font-size="10.00" fill="#000000">+ Component()</text>
<text text-anchor="start" x="118.5" y="-515.5" font-family="Helvetica,sans-Serif" font-size="10.00" fill="#000000">+ ~Component()</text>
<text text-anchor="start" x="118.5" y="-504.5" font-family="Helvetica,sans-Serif" font-size="10.00" fill="#000000">+ setUp()</text>
<text text-anchor="start" x="118.5" y="-493.5" font-family="Helvetica,sans-Serif" font-size="10.00" fill="#000000">+ tearDown()</text>
<text text-anchor="start" x="118.5" y="-482.5" font-family="Helvetica,sans-Serif" font-size="10.00" fill="#000000">+ run()</text>
<text text-anchor="start" x="118.5" y="-471.5" font-family="Helvetica,sans-Serif" font-size="10.00" fill="#000000">+ body()</text>
<text text-anchor="start" x="118.5" y="-460.5" font-family="Helvetica,sans-Serif" font-size="10.00" fill="#000000">+ sendEvent()</text>
<text text-anchor="start" x="118.5" y="-449.5" font-family="Helvetica,sans-Serif" font-size="10.00" fill="#000000">+ sendStatus()</text>
<text text-anchor="start" x="118.5" y="-438.5" font-family="Helvetica,sans-Serif" font-size="10.00" fill="#000000">+ sendEnergyStatus()</text>
<text text-anchor="start" x="118.5" y="-427.5" font-family="Helvetica,sans-Serif" font-size="10.00" fill="#000000">+ reconfigure()</text>
<text text-anchor="start" x="118.5" y="-416.5" font-family="Helvetica,sans-Serif" font-size="10.00" fill="#000000"># activate()</text>
<text text-anchor="start" x="118.5" y="-405.5" font-family="Helvetica,sans-Serif" font-size="10.00" fill="#000000"># deactivate()</text>
<text text-anchor="start" x="118.5" y="-394.5" font-family="Helvetica,sans-Serif" font-size="10.00" fill="#000000"># shutdownComponent()</text>
<text text-anchor="start" x="118.5" y="-383.5" font-family="Helvetica,sans-Serif" font-size="10.00" fill="#000000"># sigIntHandler()</text>
</a>
</g>
</g>
<!-- Node6&#45;&gt;Node5 -->
<g id="edge2" class="edge">
<title>Node6&#45;&gt;Node5</title>
<path fill="none" stroke="#191970" d="M249.9576,-368.5712C256.9032,-360.8094 264.2662,-353.5024 272,-347 324.5244,-302.8387 399.2839,-274.0353 447.9673,-258.6429"/>
<polygon fill="none" stroke="#191970" points="247.0272,-366.6104 243.1529,-376.4715 252.331,-371.1787 247.0272,-366.6104"/>
</g>
<!-- Node7 -->
<g id="node4" class="node">
<title>Node7</title>
<g id="a_node4"><a xlink:href="classarch_1_1ROSComponent.html" target="_top" xlink:title="{arch::ROSComponent\n||+ ROSComponent()\l+ ~ROSComponent()\l+ setUp()\l+ tearDown()\l+ run()\l+ body()\l# getRosNodeName()\l}">
<polygon fill="#ffffff" stroke="#000000" points="23.5,-635.5 23.5,-758.5 146.5,-758.5 146.5,-635.5 23.5,-635.5"/>
<text text-anchor="middle" x="85" y="-746.5" font-family="Helvetica,sans-Serif" font-size="10.00" fill="#000000">arch::ROSComponent</text>
<polyline fill="none" stroke="#000000" points="23.5,-739.5 146.5,-739.5 "/>
<text text-anchor="middle" x="85" y="-727.5" font-family="Helvetica,sans-Serif" font-size="10.00" fill="#000000"> </text>
<polyline fill="none" stroke="#000000" points="23.5,-720.5 146.5,-720.5 "/>
<text text-anchor="start" x="31.5" y="-708.5" font-family="Helvetica,sans-Serif" font-size="10.00" fill="#000000">+ ROSComponent()</text>
<text text-anchor="start" x="31.5" y="-697.5" font-family="Helvetica,sans-Serif" font-size="10.00" fill="#000000">+ ~ROSComponent()</text>
<text text-anchor="start" x="31.5" y="-686.5" font-family="Helvetica,sans-Serif" font-size="10.00" fill="#000000">+ setUp()</text>
<text text-anchor="start" x="31.5" y="-675.5" font-family="Helvetica,sans-Serif" font-size="10.00" fill="#000000">+ tearDown()</text>
<text text-anchor="start" x="31.5" y="-664.5" font-family="Helvetica,sans-Serif" font-size="10.00" fill="#000000">+ run()</text>
<text text-anchor="start" x="31.5" y="-653.5" font-family="Helvetica,sans-Serif" font-size="10.00" fill="#000000">+ body()</text>
<text text-anchor="start" x="31.5" y="-642.5" font-family="Helvetica,sans-Serif" font-size="10.00" fill="#000000"># getRosNodeName()</text>
</a>
</g>
</g>
<!-- Node7&#45;&gt;Node6 -->
<g id="edge3" class="edge">
<title>Node7&#45;&gt;Node6</title>
<path fill="none" stroke="#191970" d="M116.3061,-626.1494C121.7342,-613.8647 127.4828,-600.8546 133.2175,-587.8761"/>
<polygon fill="none" stroke="#191970" points="113.0635,-624.8282 112.2232,-635.3896 119.4663,-627.6573 113.0635,-624.8282"/>
</g>
<!-- Node8 -->
<g id="node5" class="node">
<title>Node8</title>
<g id="a_node5"><a xlink:href="classarch_1_1ROSComponentDescriptor.html" target="_top" xlink:title="{arch::ROSComponentDescriptor\n||+ ROSComponentDescriptor()\l+ ~ROSComponentDescriptor()\l+ setName()\l+ getName()\l+ setFreq()\l+ getFreq()\l}">
<polygon fill="#ffffff" stroke="#000000" points="0,-806.5 0,-918.5 170,-918.5 170,-806.5 0,-806.5"/>
<text text-anchor="middle" x="85" y="-906.5" font-family="Helvetica,sans-Serif" font-size="10.00" fill="#000000">arch::ROSComponentDescriptor</text>
<polyline fill="none" stroke="#000000" points="0,-899.5 170,-899.5 "/>
<text text-anchor="middle" x="85" y="-887.5" font-family="Helvetica,sans-Serif" font-size="10.00" fill="#000000"> </text>
<polyline fill="none" stroke="#000000" points="0,-880.5 170,-880.5 "/>
<text text-anchor="start" x="8" y="-868.5" font-family="Helvetica,sans-Serif" font-size="10.00" fill="#000000">+ ROSComponentDescriptor()</text>
<text text-anchor="start" x="8" y="-857.5" font-family="Helvetica,sans-Serif" font-size="10.00" fill="#000000">+ ~ROSComponentDescriptor()</text>
<text text-anchor="start" x="8" y="-846.5" font-family="Helvetica,sans-Serif" font-size="10.00" fill="#000000">+ setName()</text>
<text text-anchor="start" x="8" y="-835.5" font-family="Helvetica,sans-Serif" font-size="10.00" fill="#000000">+ getName()</text>
<text text-anchor="start" x="8" y="-824.5" font-family="Helvetica,sans-Serif" font-size="10.00" fill="#000000">+ setFreq()</text>
<text text-anchor="start" x="8" y="-813.5" font-family="Helvetica,sans-Serif" font-size="10.00" fill="#000000">+ getFreq()</text>
</a>
</g>
</g>
<!-- Node8&#45;&gt;Node7 -->
<g id="edge4" class="edge">
<title>Node8&#45;&gt;Node7</title>
<path fill="none" stroke="#404040" d="M85,-806.4692C85,-795.0551 85,-782.8811 85,-770.9537"/>
<polygon fill="none" stroke="#404040" points="85.0001,-770.6555 81,-764.6555 85,-758.6555 89,-764.6555 85.0001,-770.6555"/>
<text text-anchor="middle" x="151.5" y="-780" font-family="Helvetica,sans-Serif" font-size="10.00" fill="#000000"> #rosComponentDescriptor</text>
</g>
<!-- Node9 -->
<g id="node6" class="node">
<title>Node9</title>
<polygon fill="#ffffff" stroke="#bfbfbf" points="164.5,-668.5 164.5,-725.5 241.5,-725.5 241.5,-668.5 164.5,-668.5"/>
<text text-anchor="middle" x="203" y="-713.5" font-family="Helvetica,sans-Serif" font-size="10.00" fill="#000000">NodeHandle</text>
<polyline fill="none" stroke="#bfbfbf" points="164.5,-706.5 241.5,-706.5 "/>
<text text-anchor="middle" x="203" y="-694.5" font-family="Helvetica,sans-Serif" font-size="10.00" fill="#000000"> </text>
<polyline fill="none" stroke="#bfbfbf" points="164.5,-687.5 241.5,-687.5 "/>
<text text-anchor="middle" x="203" y="-675.5" font-family="Helvetica,sans-Serif" font-size="10.00" fill="#000000"> </text>
</g>
<!-- Node9&#45;&gt;Node6 -->
<g id="edge5" class="edge">
<title>Node9&#45;&gt;Node6</title>
<path fill="none" stroke="#404040" d="M199.9458,-668.4497C198.0048,-650.3054 195.3483,-625.4736 192.6072,-599.8502"/>
<polygon fill="none" stroke="#404040" points="192.5775,-599.5719 187.962,-594.0314 191.301,-587.64 195.9166,-593.1804 192.5775,-599.5719"/>
<text text-anchor="middle" x="217.5" y="-609" font-family="Helvetica,sans-Serif" font-size="10.00" fill="#000000"> #handle</text>
</g>
<!-- Node10 -->
<g id="node7" class="node">
<title>Node10</title>
<polygon fill="#ffffff" stroke="#bfbfbf" points="394,-453.5 394,-510.5 504,-510.5 504,-453.5 394,-453.5"/>
<text text-anchor="middle" x="449" y="-498.5" font-family="Helvetica,sans-Serif" font-size="10.00" fill="#000000">std::array&lt; int, 6 &gt;</text>
<polyline fill="none" stroke="#bfbfbf" points="394,-491.5 504,-491.5 "/>
<text text-anchor="middle" x="449" y="-479.5" font-family="Helvetica,sans-Serif" font-size="10.00" fill="#000000"> </text>
<polyline fill="none" stroke="#bfbfbf" points="394,-472.5 504,-472.5 "/>
<text text-anchor="middle" x="449" y="-460.5" font-family="Helvetica,sans-Serif" font-size="10.00" fill="#000000"> </text>
</g>
<!-- Node10&#45;&gt;Node5 -->
<g id="edge6" class="edge">
<title>Node10&#45;&gt;Node5</title>
<path fill="none" stroke="#404040" d="M445.7587,-453.4233C443.4334,-425.8244 441.9586,-383.0286 450,-347 450.5097,-344.7164 451.0748,-342.4229 451.6892,-340.1252"/>
<polygon fill="none" stroke="#404040" points="451.6897,-340.1233 449.5845,-333.2263 455.1413,-328.6304 457.2465,-335.5274 451.6897,-340.1233"/>
<text text-anchor="middle" x="482.5" y="-350" font-family="Helvetica,sans-Serif" font-size="10.00" fill="#000000"> #buffer_size</text>
</g>
<!-- Node11 -->
<g id="node8" class="node">
<title>Node11</title>
<polygon fill="#ffffff" stroke="#bfbfbf" points="320.5,-668.5 320.5,-725.5 349.5,-725.5 349.5,-668.5 320.5,-668.5"/>
<text text-anchor="middle" x="335" y="-713.5" font-family="Helvetica,sans-Serif" font-size="10.00" fill="#000000">int</text>
<polyline fill="none" stroke="#bfbfbf" points="320.5,-706.5 349.5,-706.5 "/>
<text text-anchor="middle" x="335" y="-694.5" font-family="Helvetica,sans-Serif" font-size="10.00" fill="#000000"> </text>
<polyline fill="none" stroke="#bfbfbf" points="320.5,-687.5 349.5,-687.5 "/>
<text text-anchor="middle" x="335" y="-675.5" font-family="Helvetica,sans-Serif" font-size="10.00" fill="#000000"> </text>
</g>
<!-- Node11&#45;&gt;Node5 -->
<g id="edge8" class="edge">
<title>Node11&#45;&gt;Node5</title>
<path fill="none" stroke="#404040" d="M320.7777,-668.305C293.813,-609.501 242.4469,-472.7184 295,-376 324.837,-321.0882 388.7244,-285.6334 436.7113,-265.6388"/>
<polygon fill="none" stroke="#404040" points="436.7884,-265.6078 440.8604,-259.6563 447.9201,-261.126 443.8482,-267.0775 436.7884,-265.6078"/>
<text text-anchor="middle" x="340" y="-485" font-family="Helvetica,sans-Serif" font-size="10.00" fill="#000000"> #max_size</text>
<text text-anchor="middle" x="340" y="-474" font-family="Helvetica,sans-Serif" font-size="10.00" fill="#000000">#total_buffer_size</text>
</g>
<!-- Node11&#45;&gt;Node10 -->
<g id="edge7" class="edge">
<title>Node11&#45;&gt;Node10</title>
<path fill="none" stroke="#404040" d="M349.6701,-669.3327C369.5984,-631.7487 405.3411,-564.3391 428.0785,-521.4573"/>
<polygon fill="none" stroke="#404040" points="428.2204,-521.1895 427.4972,-514.0148 433.8419,-510.5877 434.5651,-517.7624 428.2204,-521.1895"/>
<text text-anchor="middle" x="411" y="-609" font-family="Helvetica,sans-Serif" font-size="10.00" fill="#000000"> +elements</text>
</g>
<!-- Node12 -->
<g id="node9" class="node">
<title>Node12</title>
<polygon fill="#ffffff" stroke="#bfbfbf" points="522,-453.5 522,-510.5 560,-510.5 560,-453.5 522,-453.5"/>
<text text-anchor="middle" x="541" y="-498.5" font-family="Helvetica,sans-Serif" font-size="10.00" fill="#000000">bool</text>
<polyline fill="none" stroke="#bfbfbf" points="522,-491.5 560,-491.5 "/>
<text text-anchor="middle" x="541" y="-479.5" font-family="Helvetica,sans-Serif" font-size="10.00" fill="#000000"> </text>
<polyline fill="none" stroke="#bfbfbf" points="522,-472.5 560,-472.5 "/>
<text text-anchor="middle" x="541" y="-460.5" font-family="Helvetica,sans-Serif" font-size="10.00" fill="#000000"> </text>
</g>
<!-- Node12&#45;&gt;Node5 -->
<g id="edge9" class="edge">
<title>Node12&#45;&gt;Node5</title>
<path fill="none" stroke="#404040" d="M536.7838,-453.4822C532.635,-426.1082 525.9308,-383.6324 519,-347 518.5946,-344.8571 518.1786,-342.6901 517.754,-340.5061"/>
<polygon fill="none" stroke="#404040" points="517.7478,-340.4743 512.6563,-335.3678 515.4117,-328.7039 520.5032,-333.8104 517.7478,-340.4743"/>
<text text-anchor="middle" x="543" y="-350" font-family="Helvetica,sans-Serif" font-size="10.00" fill="#000000"> #active</text>
</g>
<!-- Node13 -->
<g id="node10" class="node">
<title>Node13</title>
<g id="a_node10"><a xlink:href="classbsn_1_1resource_1_1Battery.html" target="_top" xlink:title="{bsn::resource::Battery\n||+ Battery()\l+ Battery()\l+ ~Battery()\l+ Battery()\l+ operator=()\l+ consume()\l+ generate()\l+ setId()\l+ getId()\l+ setCapacity()\land 6 more...\l}">
<polygon fill="#ffffff" stroke="#000000" points="578,-398.5 578,-565.5 702,-565.5 702,-398.5 578,-398.5"/>
<text text-anchor="middle" x="640" y="-553.5" font-family="Helvetica,sans-Serif" font-size="10.00" fill="#000000">bsn::resource::Battery</text>
<polyline fill="none" stroke="#000000" points="578,-546.5 702,-546.5 "/>
<text text-anchor="middle" x="640" y="-534.5" font-family="Helvetica,sans-Serif" font-size="10.00" fill="#000000"> </text>
<polyline fill="none" stroke="#000000" points="578,-527.5 702,-527.5 "/>
<text text-anchor="start" x="586" y="-515.5" font-family="Helvetica,sans-Serif" font-size="10.00" fill="#000000">+ Battery()</text>
<text text-anchor="start" x="586" y="-504.5" font-family="Helvetica,sans-Serif" font-size="10.00" fill="#000000">+ Battery()</text>
<text text-anchor="start" x="586" y="-493.5" font-family="Helvetica,sans-Serif" font-size="10.00" fill="#000000">+ ~Battery()</text>
<text text-anchor="start" x="586" y="-482.5" font-family="Helvetica,sans-Serif" font-size="10.00" fill="#000000">+ Battery()</text>
<text text-anchor="start" x="586" y="-471.5" font-family="Helvetica,sans-Serif" font-size="10.00" fill="#000000">+ operator=()</text>
<text text-anchor="start" x="586" y="-460.5" font-family="Helvetica,sans-Serif" font-size="10.00" fill="#000000">+ consume()</text>
<text text-anchor="start" x="586" y="-449.5" font-family="Helvetica,sans-Serif" font-size="10.00" fill="#000000">+ generate()</text>
<text text-anchor="start" x="586" y="-438.5" font-family="Helvetica,sans-Serif" font-size="10.00" fill="#000000">+ setId()</text>
<text text-anchor="start" x="586" y="-427.5" font-family="Helvetica,sans-Serif" font-size="10.00" fill="#000000">+ getId()</text>
<text text-anchor="start" x="586" y="-416.5" font-family="Helvetica,sans-Serif" font-size="10.00" fill="#000000">+ setCapacity()</text>
<text text-anchor="start" x="586" y="-405.5" font-family="Helvetica,sans-Serif" font-size="10.00" fill="#000000">and 6 more...</text>
</a>
</g>
</g>
<!-- Node13&#45;&gt;Node5 -->
<g id="edge10" class="edge">
<title>Node13&#45;&gt;Node5</title>
<path fill="none" stroke="#404040" d="M597.3501,-398.3133C588.0422,-381.1305 577.9805,-363.3143 568,-347 563.2103,-339.1706 558.0519,-331.1269 552.7797,-323.1561"/>
<polygon fill="none" stroke="#404040" points="552.7365,-323.0915 546.0745,-320.3316 546.0598,-313.1205 552.7219,-315.8804 552.7365,-323.0915"/>
<text text-anchor="middle" x="598.5" y="-350" font-family="Helvetica,sans-Serif" font-size="10.00" fill="#000000"> #battery</text>
</g>
<!-- Node14 -->
<g id="node11" class="node">
<title>Node14</title>
<polygon fill="#ffffff" stroke="#bfbfbf" points="720,-448 720,-516 836,-516 836,-448 720,-448"/>
<text text-anchor="start" x="728" y="-504" font-family="Helvetica,sans-Serif" font-size="10.00" fill="#000000">std::vector&lt; std::list</text>
<text text-anchor="middle" x="778" y="-493" font-family="Helvetica,sans-Serif" font-size="10.00" fill="#000000">&lt; double &gt; &gt;</text>
<polyline fill="none" stroke="#bfbfbf" points="720,-486 836,-486 "/>
<text text-anchor="middle" x="778" y="-474" font-family="Helvetica,sans-Serif" font-size="10.00" fill="#000000"> </text>
<polyline fill="none" stroke="#bfbfbf" points="720,-467 836,-467 "/>
<text text-anchor="middle" x="778" y="-455" font-family="Helvetica,sans-Serif" font-size="10.00" fill="#000000"> </text>
</g>
<!-- Node14&#45;&gt;Node5 -->
<g id="edge11" class="edge">
<title>Node14&#45;&gt;Node5</title>
<path fill="none" stroke="#404040" d="M761.536,-447.6635C749.6773,-425.4022 732.086,-396.7852 711,-376 666.0041,-331.6459 603.3011,-295.5003 557.399,-272.4993"/>
<polygon fill="none" stroke="#404040" points="557.1701,-272.3865 550.0199,-273.3214 546.4068,-267.0807 553.5571,-266.1458 557.1701,-272.3865"/>
<text text-anchor="middle" x="724.5" y="-350" font-family="Helvetica,sans-Serif" font-size="10.00" fill="#000000"> #data_buffer</text>
</g>
<!-- Node15 -->
<g id="node12" class="node">
<title>Node15</title>
<polygon fill="#ffffff" stroke="#bfbfbf" points="724,-668.5 724,-725.5 832,-725.5 832,-668.5 724,-668.5"/>
<text text-anchor="middle" x="778" y="-713.5" font-family="Helvetica,sans-Serif" font-size="10.00" fill="#000000">std::list&lt; double &gt;</text>
<polyline fill="none" stroke="#bfbfbf" points="724,-706.5 832,-706.5 "/>
<text text-anchor="middle" x="778" y="-694.5" font-family="Helvetica,sans-Serif" font-size="10.00" fill="#000000"> </text>
<polyline fill="none" stroke="#bfbfbf" points="724,-687.5 832,-687.5 "/>
<text text-anchor="middle" x="778" y="-675.5" font-family="Helvetica,sans-Serif" font-size="10.00" fill="#000000"> </text>
</g>
<!-- Node15&#45;&gt;Node14 -->
<g id="edge12" class="edge">
<title>Node15&#45;&gt;Node14</title>
<path fill="none" stroke="#404040" d="M778,-668.4497C778,-632.6859 778,-570.9399 778,-528.3623"/>
<polygon fill="none" stroke="#404040" points="778.0001,-528.3572 774,-522.3572 778,-516.3572 782,-522.3572 778.0001,-528.3572"/>
<text text-anchor="middle" x="807" y="-609" font-family="Helvetica,sans-Serif" font-size="10.00" fill="#000000"> +elements</text>
</g>
<!-- Node16 -->
<g id="node13" class="node">
<title>Node16</title>
<polygon fill="#ffffff" stroke="#bfbfbf" points="753,-834 753,-891 803,-891 803,-834 753,-834"/>
<text text-anchor="middle" x="778" y="-879" font-family="Helvetica,sans-Serif" font-size="10.00" fill="#000000">double</text>
<polyline fill="none" stroke="#bfbfbf" points="753,-872 803,-872 "/>
<text text-anchor="middle" x="778" y="-860" font-family="Helvetica,sans-Serif" font-size="10.00" fill="#000000"> </text>
<polyline fill="none" stroke="#bfbfbf" points="753,-853 803,-853 "/>
<text text-anchor="middle" x="778" y="-841" font-family="Helvetica,sans-Serif" font-size="10.00" fill="#000000"> </text>
</g>
<!-- Node16&#45;&gt;Node15 -->
<g id="edge13" class="edge">
<title>Node16&#45;&gt;Node15</title>
<path fill="none" stroke="#404040" d="M778,-833.6721C778,-807.1738 778,-767.6093 778,-737.8578"/>
<polygon fill="none" stroke="#404040" points="778.0001,-737.7747 774,-731.7747 778,-725.7747 782,-731.7747 778.0001,-737.7747"/>
<text text-anchor="middle" x="807" y="-780" font-family="Helvetica,sans-Serif" font-size="10.00" fill="#000000"> +elements</text>
</g>
</g>
</svg>
