<?xml version="1.0" encoding="UTF-8" standalone="no"?>
<!DOCTYPE svg PUBLIC "-//W3C//DTD SVG 1.1//EN"
 "http://www.w3.org/Graphics/SVG/1.1/DTD/svg11.dtd">
<!-- Generated by graphviz version 2.40.1 (20161225.0304)
 -->
<!-- Title: bsn::goalmodel::GoalTree::getActor Pages: 1 -->
<svg width="324pt" height="78pt"
 viewBox="0.00 0.00 324.00 77.50" xmlns="http://www.w3.org/2000/svg" xmlns:xlink="http://www.w3.org/1999/xlink">
<g id="graph0" class="graph" transform="scale(1 1) rotate(0) translate(4 73.5)">
<title>bsn::goalmodel::GoalTree::getActor</title>
<polygon fill="#ffffff" stroke="transparent" points="-4,4 -4,-73.5 320,-73.5 320,4 -4,4"/>
<!-- Node12 -->
<g id="node1" class="node">
<title>Node12</title>
<polygon fill="#bfbfbf" stroke="#000000" points="0,-17 0,-47 140,-47 140,-17 0,-17"/>
<text text-anchor="start" x="8" y="-35" font-family="Helvetica,sans-Serif" font-size="10.00" fill="#000000">bsn::goalmodel::GoalTree</text>
<text text-anchor="middle" x="70" y="-24" font-family="Helvetica,sans-Serif" font-size="10.00" fill="#000000">::getActor</text>
</g>
<!-- Node13 -->
<g id="node2" class="node">
<title>Node13</title>
<g id="a_node2"><a xlink:href="classbsn_1_1goalmodel_1_1GoalTree.html#a7a9dbc9ae2a9601ae3f309b62df29b29" target="_top" xlink:title="bsn::goalmodel::GoalTree\l::operator=">
<polygon fill="#ffffff" stroke="#000000" points="176,-39 176,-69 316,-69 316,-39 176,-39"/>
<text text-anchor="start" x="184" y="-57" font-family="Helvetica,sans-Serif" font-size="10.00" fill="#000000">bsn::goalmodel::GoalTree</text>
<text text-anchor="middle" x="246" y="-46" font-family="Helvetica,sans-Serif" font-size="10.00" fill="#000000">::operator=</text>
</a>
</g>
</g>
<!-- Node12&#45;&gt;Node13 -->
<g id="edge1" class="edge">
<title>Node12&#45;&gt;Node13</title>
<path fill="none" stroke="#191970" d="M150.1006,-42.0126C158.7058,-43.0882 167.4124,-44.1766 175.888,-45.236"/>
<polygon fill="#191970" stroke="#191970" points="150.4225,-38.5257 140.0656,-40.7582 149.5542,-45.4716 150.4225,-38.5257"/>
</g>
<!-- Node14 -->
<g id="node3" class="node">
<title>Node14</title>
<g id="a_node3"><a xlink:href="GoalTreeTest_8cpp.html#a6c370bfcdbb5e1e9829cdbce8c0bac5b" target="_top" xlink:title="TEST_F">
<polygon fill="#ffffff" stroke="#000000" points="220.5,-.5 220.5,-19.5 271.5,-19.5 271.5,-.5 220.5,-.5"/>
<text text-anchor="middle" x="246" y="-7.5" font-family="Helvetica,sans-Serif" font-size="10.00" fill="#000000">TEST_F</text>
</a>
</g>
</g>
<!-- Node12&#45;&gt;Node14 -->
<g id="edge2" class="edge">
<title>Node12&#45;&gt;Node14</title>
<path fill="none" stroke="#191970" d="M150.128,-21.984C175.5638,-18.8045 201.8838,-15.5145 220.4963,-13.188"/>
<polygon fill="#191970" stroke="#191970" points="149.5542,-18.5284 140.0656,-23.2418 150.4225,-25.4743 149.5542,-18.5284"/>
</g>
</g>
</svg>
