<?xml version="1.0" encoding="UTF-8" standalone="no"?>
<!DOCTYPE svg PUBLIC "-//W3C//DTD SVG 1.1//EN"
 "http://www.w3.org/Graphics/SVG/1.1/DTD/svg11.dtd">
<!-- Generated by graphviz version 2.40.1 (20161225.0304)
 -->
<!-- Title: DataAccess::body Pages: 1 -->
<svg width="318pt" height="78pt"
 viewBox="0.00 0.00 318.00 77.50" xmlns="http://www.w3.org/2000/svg" xmlns:xlink="http://www.w3.org/1999/xlink">
<g id="graph0" class="graph" transform="scale(1 1) rotate(0) translate(4 73.5)">
<title>DataAccess::body</title>
<polygon fill="#ffffff" stroke="transparent" points="-4,4 -4,-73.5 314,-73.5 314,4 -4,4"/>
<!-- Node4 -->
<g id="node1" class="node">
<title>Node4</title>
<polygon fill="#bfbfbf" stroke="#000000" points="0,-22.5 0,-41.5 104,-41.5 104,-22.5 0,-22.5"/>
<text text-anchor="middle" x="52" y="-29.5" font-family="Helvetica,sans-Serif" font-size="10.00" fill="#000000">DataAccess::body</text>
</g>
<!-- Node5 -->
<g id="node2" class="node">
<title>Node5</title>
<g id="a_node2"><a xlink:href="classarch_1_1ROSComponentDescriptor.html#a4b73f46f37241865a08e75ab202e28eb" target="_top" xlink:title="arch::ROSComponentDescriptor\l::getFreq">
<polygon fill="#ffffff" stroke="#000000" points="140,-39 140,-69 310,-69 310,-39 140,-39"/>
<text text-anchor="start" x="148" y="-57" font-family="Helvetica,sans-Serif" font-size="10.00" fill="#000000">arch::ROSComponentDescriptor</text>
<text text-anchor="middle" x="225" y="-46" font-family="Helvetica,sans-Serif" font-size="10.00" fill="#000000">::getFreq</text>
</a>
</g>
</g>
<!-- Node4&#45;&gt;Node5 -->
<g id="edge1" class="edge">
<title>Node4&#45;&gt;Node5</title>
<path fill="none" stroke="#191970" d="M104.3752,-38.6604C112.5402,-39.6988 121.1883,-40.7985 129.9546,-41.9133"/>
<polygon fill="#191970" stroke="#191970" points="129.5212,-45.3863 139.8829,-43.1759 130.4043,-38.4422 129.5212,-45.3863"/>
</g>
<!-- Node6 -->
<g id="node3" class="node">
<title>Node6</title>
<g id="a_node3"><a xlink:href="DataAccess_8cpp.html#a91c81650aefc601969c8f6437b73709e" target="_top" xlink:title="fetch_formula">
<polygon fill="#ffffff" stroke="#000000" points="182.5,-.5 182.5,-19.5 267.5,-19.5 267.5,-.5 182.5,-.5"/>
<text text-anchor="middle" x="225" y="-7.5" font-family="Helvetica,sans-Serif" font-size="10.00" fill="#000000">fetch_formula</text>
</a>
</g>
</g>
<!-- Node4&#45;&gt;Node6 -->
<g id="edge2" class="edge">
<title>Node4&#45;&gt;Node6</title>
<path fill="none" stroke="#191970" d="M104.3752,-25.3396C125.9244,-22.5992 150.8386,-19.4309 172.41,-16.6877"/>
<polygon fill="#191970" stroke="#191970" points="172.9022,-20.1534 182.3808,-15.4198 172.0191,-13.2094 172.9022,-20.1534"/>
</g>
</g>
</svg>
