<?xml version="1.0" encoding="UTF-8" standalone="no"?>
<!DOCTYPE svg PUBLIC "-//W3C//DTD SVG 1.1//EN"
 "http://www.w3.org/Graphics/SVG/1.1/DTD/svg11.dtd">
<!-- Generated by graphviz version 2.40.1 (20161225.0304)
 -->
<!-- Title: CentralHub::setUp Pages: 1 -->
<svg width="320pt" height="28pt"
 viewBox="0.00 0.00 320.00 28.00" xmlns="http://www.w3.org/2000/svg" xmlns:xlink="http://www.w3.org/1999/xlink">
<g id="graph0" class="graph" transform="scale(1 1) rotate(0) translate(4 24)">
<title>CentralHub::setUp</title>
<polygon fill="#ffffff" stroke="transparent" points="-4,4 -4,-24 316,-24 316,4 -4,4"/>
<!-- Node62 -->
<g id="node1" class="node">
<title>Node62</title>
<polygon fill="#bfbfbf" stroke="#000000" points="0,-.5 0,-19.5 106,-19.5 106,-.5 0,-.5"/>
<text text-anchor="middle" x="53" y="-7.5" font-family="Helvetica,sans-Serif" font-size="10.00" fill="#000000">CentralHub::setUp</text>
</g>
<!-- Node63 -->
<g id="node2" class="node">
<title>Node63</title>
<g id="a_node2"><a xlink:href="classCentralHub.html#a388e947318a28cf7cac762ac8b1cf3d4" target="_top" xlink:title="CentralHub::run">
<polygon fill="#ffffff" stroke="#000000" points="142,-.5 142,-19.5 235,-19.5 235,-.5 142,-.5"/>
<text text-anchor="middle" x="188.5" y="-7.5" font-family="Helvetica,sans-Serif" font-size="10.00" fill="#000000">CentralHub::run</text>
</a>
</g>
</g>
<!-- Node62&#45;&gt;Node63 -->
<g id="edge1" class="edge">
<title>Node62&#45;&gt;Node63</title>
<path fill="none" stroke="#191970" d="M116.4401,-10C124.9307,-10 133.5121,-10 141.6477,-10"/>
<polygon fill="#191970" stroke="#191970" points="116.1643,-6.5001 106.1643,-10 116.1643,-13.5001 116.1643,-6.5001"/>
</g>
<!-- Node64 -->
<g id="node3" class="node">
<title>Node64</title>
<g id="a_node3"><a xlink:href="g4t1_8cpp.html#af19ddca125f05a2090dd132045573ee4" target="_top" xlink:title="main">
<polygon fill="#ffffff" stroke="#000000" points="271,-.5 271,-19.5 312,-19.5 312,-.5 271,-.5"/>
<text text-anchor="middle" x="291.5" y="-7.5" font-family="Helvetica,sans-Serif" font-size="10.00" fill="#000000">main</text>
</a>
</g>
</g>
<!-- Node63&#45;&gt;Node64 -->
<g id="edge2" class="edge">
<title>Node63&#45;&gt;Node64</title>
<path fill="none" stroke="#191970" d="M245.2133,-10C254.4322,-10 263.4259,-10 270.9965,-10"/>
<polygon fill="#191970" stroke="#191970" points="245.1782,-6.5001 235.1782,-10 245.1781,-13.5001 245.1782,-6.5001"/>
</g>
</g>
</svg>
