<?xml version="1.0" encoding="UTF-8" standalone="no"?>
<!DOCTYPE svg PUBLIC "-//W3C//DTD SVG 1.1//EN"
 "http://www.w3.org/Graphics/SVG/1.1/DTD/svg11.dtd">
<!-- Generated by graphviz version 2.40.1 (20161225.0304)
 -->
<!-- Title: Controller Pages: 1 -->
<svg width="1057pt" height="828pt"
 viewBox="0.00 0.00 1057.00 828.00" xmlns="http://www.w3.org/2000/svg" xmlns:xlink="http://www.w3.org/1999/xlink">
<g id="graph0" class="graph" transform="scale(1 1) rotate(0) translate(4 824)">
<title>Controller</title>
<polygon fill="#ffffff" stroke="transparent" points="-4,4 -4,-824 1053,-824 1053,4 -4,4"/>
<!-- Node3 -->
<g id="node1" class="node">
<title>Node3</title>
<polygon fill="#bfbfbf" stroke="#000000" points="540,-.5 540,-112.5 674,-112.5 674,-.5 540,-.5"/>
<text text-anchor="middle" x="607" y="-100.5" font-family="Helvetica,sans-Serif" font-size="10.00" fill="#000000">Controller</text>
<polyline fill="none" stroke="#000000" points="540,-93.5 674,-93.5 "/>
<text text-anchor="middle" x="607" y="-81.5" font-family="Helvetica,sans-Serif" font-size="10.00" fill="#000000"> </text>
<polyline fill="none" stroke="#000000" points="540,-74.5 674,-74.5 "/>
<text text-anchor="start" x="548" y="-62.5" font-family="Helvetica,sans-Serif" font-size="10.00" fill="#000000">+ Controller()</text>
<text text-anchor="start" x="548" y="-51.5" font-family="Helvetica,sans-Serif" font-size="10.00" fill="#000000">+ ~Controller()</text>
<text text-anchor="start" x="548" y="-40.5" font-family="Helvetica,sans-Serif" font-size="10.00" fill="#000000">+ setUp()</text>
<text text-anchor="start" x="548" y="-29.5" font-family="Helvetica,sans-Serif" font-size="10.00" fill="#000000">+ apply_reli_strategy()</text>
<text text-anchor="start" x="548" y="-18.5" font-family="Helvetica,sans-Serif" font-size="10.00" fill="#000000">+ apply_cost_strategy()</text>
<text text-anchor="start" x="548" y="-7.5" font-family="Helvetica,sans-Serif" font-size="10.00" fill="#000000">+ receiveEvent()</text>
</g>
<!-- Node4 -->
<g id="node2" class="node">
<title>Node4</title>
<g id="a_node2"><a xlink:href="classEnactor.html" target="_top" xlink:title="{Enactor\n||+ Enactor()\l+ ~Enactor()\l+ setUp()\l+ tearDown()\l+ body()\l+ receiveStatus()\l+ receiveStrategy()\l+ receiveAdaptationParameter()\l+ receiveEvent()\l+ apply_reli_strategy()\l+ apply_cost_strategy()\l+ print()\l}">
<polygon fill="#ffffff" stroke="#000000" points="519.5,-150.5 519.5,-328.5 694.5,-328.5 694.5,-150.5 519.5,-150.5"/>
<text text-anchor="middle" x="607" y="-316.5" font-family="Helvetica,sans-Serif" font-size="10.00" fill="#000000">Enactor</text>
<polyline fill="none" stroke="#000000" points="519.5,-309.5 694.5,-309.5 "/>
<text text-anchor="middle" x="607" y="-297.5" font-family="Helvetica,sans-Serif" font-size="10.00" fill="#000000"> </text>
<polyline fill="none" stroke="#000000" points="519.5,-290.5 694.5,-290.5 "/>
<text text-anchor="start" x="527.5" y="-278.5" font-family="Helvetica,sans-Serif" font-size="10.00" fill="#000000">+ Enactor()</text>
<text text-anchor="start" x="527.5" y="-267.5" font-family="Helvetica,sans-Serif" font-size="10.00" fill="#000000">+ ~Enactor()</text>
<text text-anchor="start" x="527.5" y="-256.5" font-family="Helvetica,sans-Serif" font-size="10.00" fill="#000000">+ setUp()</text>
<text text-anchor="start" x="527.5" y="-245.5" font-family="Helvetica,sans-Serif" font-size="10.00" fill="#000000">+ tearDown()</text>
<text text-anchor="start" x="527.5" y="-234.5" font-family="Helvetica,sans-Serif" font-size="10.00" fill="#000000">+ body()</text>
<text text-anchor="start" x="527.5" y="-223.5" font-family="Helvetica,sans-Serif" font-size="10.00" fill="#000000">+ receiveStatus()</text>
<text text-anchor="start" x="527.5" y="-212.5" font-family="Helvetica,sans-Serif" font-size="10.00" fill="#000000">+ receiveStrategy()</text>
<text text-anchor="start" x="527.5" y="-201.5" font-family="Helvetica,sans-Serif" font-size="10.00" fill="#000000">+ receiveAdaptationParameter()</text>
<text text-anchor="start" x="527.5" y="-190.5" font-family="Helvetica,sans-Serif" font-size="10.00" fill="#000000">+ receiveEvent()</text>
<text text-anchor="start" x="527.5" y="-179.5" font-family="Helvetica,sans-Serif" font-size="10.00" fill="#000000">+ apply_reli_strategy()</text>
<text text-anchor="start" x="527.5" y="-168.5" font-family="Helvetica,sans-Serif" font-size="10.00" fill="#000000">+ apply_cost_strategy()</text>
<text text-anchor="start" x="527.5" y="-157.5" font-family="Helvetica,sans-Serif" font-size="10.00" fill="#000000">+ print()</text>
</a>
</g>
</g>
<!-- Node4&#45;&gt;Node3 -->
<g id="edge1" class="edge">
<title>Node4&#45;&gt;Node3</title>
<path fill="none" stroke="#191970" d="M607,-140.1324C607,-130.6817 607,-121.3438 607,-112.526"/>
<polygon fill="none" stroke="#191970" points="603.5001,-140.4123 607,-150.4123 610.5001,-140.4124 603.5001,-140.4123"/>
</g>
<!-- Node5 -->
<g id="node3" class="node">
<title>Node5</title>
<g id="a_node3"><a xlink:href="classarch_1_1ROSComponent.html" target="_top" xlink:title="{arch::ROSComponent\n||+ ROSComponent()\l+ ~ROSComponent()\l+ setUp()\l+ tearDown()\l+ run()\l+ body()\l# getRosNodeName()\l}">
<polygon fill="#ffffff" stroke="#000000" points="48.5,-420.5 48.5,-543.5 171.5,-543.5 171.5,-420.5 48.5,-420.5"/>
<text text-anchor="middle" x="110" y="-531.5" font-family="Helvetica,sans-Serif" font-size="10.00" fill="#000000">arch::ROSComponent</text>
<polyline fill="none" stroke="#000000" points="48.5,-524.5 171.5,-524.5 "/>
<text text-anchor="middle" x="110" y="-512.5" font-family="Helvetica,sans-Serif" font-size="10.00" fill="#000000"> </text>
<polyline fill="none" stroke="#000000" points="48.5,-505.5 171.5,-505.5 "/>
<text text-anchor="start" x="56.5" y="-493.5" font-family="Helvetica,sans-Serif" font-size="10.00" fill="#000000">+ ROSComponent()</text>
<text text-anchor="start" x="56.5" y="-482.5" font-family="Helvetica,sans-Serif" font-size="10.00" fill="#000000">+ ~ROSComponent()</text>
<text text-anchor="start" x="56.5" y="-471.5" font-family="Helvetica,sans-Serif" font-size="10.00" fill="#000000">+ setUp()</text>
<text text-anchor="start" x="56.5" y="-460.5" font-family="Helvetica,sans-Serif" font-size="10.00" fill="#000000">+ tearDown()</text>
<text text-anchor="start" x="56.5" y="-449.5" font-family="Helvetica,sans-Serif" font-size="10.00" fill="#000000">+ run()</text>
<text text-anchor="start" x="56.5" y="-438.5" font-family="Helvetica,sans-Serif" font-size="10.00" fill="#000000">+ body()</text>
<text text-anchor="start" x="56.5" y="-427.5" font-family="Helvetica,sans-Serif" font-size="10.00" fill="#000000"># getRosNodeName()</text>
</a>
</g>
</g>
<!-- Node5&#45;&gt;Node4 -->
<g id="edge2" class="edge">
<title>Node5&#45;&gt;Node4</title>
<path fill="none" stroke="#191970" d="M153.4738,-411.8796C171.1987,-388.2721 193.5456,-363.7104 219,-347 310.8851,-286.6791 436.2852,-259.9023 519.3572,-248.2199"/>
<polygon fill="none" stroke="#191970" points="150.4832,-410.0395 147.3995,-420.1756 156.1311,-414.1748 150.4832,-410.0395"/>
</g>
<!-- Node6 -->
<g id="node4" class="node">
<title>Node6</title>
<g id="a_node4"><a xlink:href="classarch_1_1ROSComponentDescriptor.html" target="_top" xlink:title="{arch::ROSComponentDescriptor\n||+ ROSComponentDescriptor()\l+ ~ROSComponentDescriptor()\l+ setName()\l+ getName()\l+ setFreq()\l+ getFreq()\l}">
<polygon fill="#ffffff" stroke="#000000" points="0,-591.5 0,-703.5 170,-703.5 170,-591.5 0,-591.5"/>
<text text-anchor="middle" x="85" y="-691.5" font-family="Helvetica,sans-Serif" font-size="10.00" fill="#000000">arch::ROSComponentDescriptor</text>
<polyline fill="none" stroke="#000000" points="0,-684.5 170,-684.5 "/>
<text text-anchor="middle" x="85" y="-672.5" font-family="Helvetica,sans-Serif" font-size="10.00" fill="#000000"> </text>
<polyline fill="none" stroke="#000000" points="0,-665.5 170,-665.5 "/>
<text text-anchor="start" x="8" y="-653.5" font-family="Helvetica,sans-Serif" font-size="10.00" fill="#000000">+ ROSComponentDescriptor()</text>
<text text-anchor="start" x="8" y="-642.5" font-family="Helvetica,sans-Serif" font-size="10.00" fill="#000000">+ ~ROSComponentDescriptor()</text>
<text text-anchor="start" x="8" y="-631.5" font-family="Helvetica,sans-Serif" font-size="10.00" fill="#000000">+ setName()</text>
<text text-anchor="start" x="8" y="-620.5" font-family="Helvetica,sans-Serif" font-size="10.00" fill="#000000">+ getName()</text>
<text text-anchor="start" x="8" y="-609.5" font-family="Helvetica,sans-Serif" font-size="10.00" fill="#000000">+ setFreq()</text>
<text text-anchor="start" x="8" y="-598.5" font-family="Helvetica,sans-Serif" font-size="10.00" fill="#000000">+ getFreq()</text>
</a>
</g>
</g>
<!-- Node6&#45;&gt;Node5 -->
<g id="edge3" class="edge">
<title>Node6&#45;&gt;Node5</title>
<path fill="none" stroke="#404040" d="M83.4229,-591.2079C83.7857,-581.4313 84.5654,-571.3917 86,-562 86.3305,-559.8364 86.7054,-557.6499 87.1184,-555.4506"/>
<polygon fill="none" stroke="#404040" points="87.138,-555.359 84.4848,-548.6537 89.6538,-543.6257 92.307,-550.331 87.138,-555.359"/>
<text text-anchor="middle" x="152.5" y="-565" font-family="Helvetica,sans-Serif" font-size="10.00" fill="#000000"> #rosComponentDescriptor</text>
</g>
<!-- Node7 -->
<g id="node5" class="node">
<title>Node7</title>
<polygon fill="#ffffff" stroke="#bfbfbf" points="238,-619 238,-676 288,-676 288,-619 238,-619"/>
<text text-anchor="middle" x="263" y="-664" font-family="Helvetica,sans-Serif" font-size="10.00" fill="#000000">double</text>
<polyline fill="none" stroke="#bfbfbf" points="238,-657 288,-657 "/>
<text text-anchor="middle" x="263" y="-645" font-family="Helvetica,sans-Serif" font-size="10.00" fill="#000000"> </text>
<polyline fill="none" stroke="#bfbfbf" points="238,-638 288,-638 "/>
<text text-anchor="middle" x="263" y="-626" font-family="Helvetica,sans-Serif" font-size="10.00" fill="#000000"> </text>
</g>
<!-- Node7&#45;&gt;Node4 -->
<g id="edge4" class="edge">
<title>Node7&#45;&gt;Node4</title>
<path fill="none" stroke="#404040" d="M249.9651,-618.7218C231.3403,-572.8924 203.3899,-482.1667 242,-420 299.5884,-327.276 420.4867,-280.7413 507.3768,-258.4096"/>
<polygon fill="none" stroke="#404040" points="507.4893,-258.3816 512.3447,-253.0501 519.1336,-255.4814 514.2782,-260.8129 507.4893,-258.3816"/>
<text text-anchor="middle" x="287.5" y="-479.5" font-family="Helvetica,sans-Serif" font-size="10.00" fill="#000000"> #stability_margin</text>
</g>
<!-- Node16 -->
<g id="node14" class="node">
<title>Node16</title>
<polygon fill="#ffffff" stroke="#bfbfbf" points="342,-448 342,-516 464,-516 464,-448 342,-448"/>
<text text-anchor="start" x="350" y="-504" font-family="Helvetica,sans-Serif" font-size="10.00" fill="#000000">std::map&lt; std::string,</text>
<text text-anchor="middle" x="403" y="-493" font-family="Helvetica,sans-Serif" font-size="10.00" fill="#000000"> double &gt;</text>
<polyline fill="none" stroke="#bfbfbf" points="342,-486 464,-486 "/>
<text text-anchor="middle" x="403" y="-474" font-family="Helvetica,sans-Serif" font-size="10.00" fill="#000000"> </text>
<polyline fill="none" stroke="#bfbfbf" points="342,-467 464,-467 "/>
<text text-anchor="middle" x="403" y="-455" font-family="Helvetica,sans-Serif" font-size="10.00" fill="#000000"> </text>
</g>
<!-- Node7&#45;&gt;Node16 -->
<g id="edge17" class="edge">
<title>Node7&#45;&gt;Node16</title>
<path fill="none" stroke="#404040" d="M287.3861,-618.6721C309.159,-592.9335 341.3601,-554.8672 366.2528,-525.4404"/>
<polygon fill="none" stroke="#404040" points="366.3055,-525.3781 367.1267,-518.2139 374.0556,-516.2164 373.2345,-523.3806 366.3055,-525.3781"/>
<text text-anchor="middle" x="362" y="-565" font-family="Helvetica,sans-Serif" font-size="10.00" fill="#000000"> +elements</text>
</g>
<!-- Node8 -->
<g id="node6" class="node">
<title>Node8</title>
<polygon fill="#ffffff" stroke="#bfbfbf" points="927,-448 927,-516 1049,-516 1049,-448 927,-448"/>
<text text-anchor="start" x="935" y="-504" font-family="Helvetica,sans-Serif" font-size="10.00" fill="#000000">std::map&lt; std::string,</text>
<text text-anchor="middle" x="988" y="-493" font-family="Helvetica,sans-Serif" font-size="10.00" fill="#000000"> int &gt;</text>
<polyline fill="none" stroke="#bfbfbf" points="927,-486 1049,-486 "/>
<text text-anchor="middle" x="988" y="-474" font-family="Helvetica,sans-Serif" font-size="10.00" fill="#000000"> </text>
<polyline fill="none" stroke="#bfbfbf" points="927,-467 1049,-467 "/>
<text text-anchor="middle" x="988" y="-455" font-family="Helvetica,sans-Serif" font-size="10.00" fill="#000000"> </text>
</g>
<!-- Node8&#45;&gt;Node4 -->
<g id="edge5" class="edge">
<title>Node8&#45;&gt;Node4</title>
<path fill="none" stroke="#404040" d="M948.1649,-447.7106C936.9842,-438.4625 924.6858,-428.6329 913,-420 847.1297,-371.338 767.2708,-324.5978 705.654,-290.8765"/>
<polygon fill="none" stroke="#404040" points="705.299,-290.6833 698.1168,-291.3276 694.7596,-284.9456 701.9418,-284.3013 705.299,-290.6833"/>
<text text-anchor="middle" x="926.5" y="-377.5" font-family="Helvetica,sans-Serif" font-size="10.00" fill="#000000"> #replicate_task</text>
<text text-anchor="middle" x="926.5" y="-366.5" font-family="Helvetica,sans-Serif" font-size="10.00" fill="#000000">#exception_buffer</text>
</g>
<!-- Node9 -->
<g id="node7" class="node">
<title>Node9</title>
<polygon fill="#ffffff" stroke="#bfbfbf" points="629.5,-757 629.5,-814 658.5,-814 658.5,-757 629.5,-757"/>
<text text-anchor="middle" x="644" y="-802" font-family="Helvetica,sans-Serif" font-size="10.00" fill="#000000">int</text>
<polyline fill="none" stroke="#bfbfbf" points="629.5,-795 658.5,-795 "/>
<text text-anchor="middle" x="644" y="-783" font-family="Helvetica,sans-Serif" font-size="10.00" fill="#000000"> </text>
<polyline fill="none" stroke="#bfbfbf" points="629.5,-776 658.5,-776 "/>
<text text-anchor="middle" x="644" y="-764" font-family="Helvetica,sans-Serif" font-size="10.00" fill="#000000"> </text>
</g>
<!-- Node9&#45;&gt;Node8 -->
<g id="edge6" class="edge">
<title>Node9&#45;&gt;Node8</title>
<path fill="none" stroke="#404040" d="M658.5294,-776.2596C670.1122,-769.0402 686.846,-758.9346 702,-751 746.5776,-727.6592 764.4252,-733.7596 805,-704 871.9788,-654.8744 929.1612,-575.893 961.0109,-526.5746"/>
<polygon fill="none" stroke="#404040" points="961.1592,-526.3418 961.0092,-519.1323 967.6066,-516.221 967.7565,-523.4305 961.1592,-526.3418"/>
<text text-anchor="middle" x="942" y="-645" font-family="Helvetica,sans-Serif" font-size="10.00" fill="#000000"> +elements</text>
</g>
<!-- Node15 -->
<g id="node13" class="node">
<title>Node15</title>
<polygon fill="#ffffff" stroke="#bfbfbf" points="516.5,-619 516.5,-676 619.5,-676 619.5,-619 516.5,-619"/>
<text text-anchor="middle" x="568" y="-664" font-family="Helvetica,sans-Serif" font-size="10.00" fill="#000000">std::deque&lt; int &gt;</text>
<polyline fill="none" stroke="#bfbfbf" points="516.5,-657 619.5,-657 "/>
<text text-anchor="middle" x="568" y="-645" font-family="Helvetica,sans-Serif" font-size="10.00" fill="#000000"> </text>
<polyline fill="none" stroke="#bfbfbf" points="516.5,-638 619.5,-638 "/>
<text text-anchor="middle" x="568" y="-626" font-family="Helvetica,sans-Serif" font-size="10.00" fill="#000000"> </text>
</g>
<!-- Node9&#45;&gt;Node15 -->
<g id="edge13" class="edge">
<title>Node9&#45;&gt;Node15</title>
<path fill="none" stroke="#404040" d="M629.3464,-758.8922C618.1518,-738.565 602.5435,-710.2238 589.8726,-687.2161"/>
<polygon fill="none" stroke="#404040" points="589.7094,-686.9197 583.3112,-683.5936 583.9205,-676.4083 590.3188,-679.7344 589.7094,-686.9197"/>
<text text-anchor="middle" x="644" y="-725" font-family="Helvetica,sans-Serif" font-size="10.00" fill="#000000"> +elements</text>
</g>
<!-- Node10 -->
<g id="node8" class="node">
<title>Node10</title>
<g id="a_node8"><a xlink:title="STL class. ">
<polygon fill="#ffffff" stroke="#bfbfbf" points="730.5,-619 730.5,-676 795.5,-676 795.5,-619 730.5,-619"/>
<text text-anchor="middle" x="763" y="-664" font-family="Helvetica,sans-Serif" font-size="10.00" fill="#000000">std::string</text>
<polyline fill="none" stroke="#bfbfbf" points="730.5,-657 795.5,-657 "/>
<text text-anchor="middle" x="763" y="-645" font-family="Helvetica,sans-Serif" font-size="10.00" fill="#000000"> </text>
<polyline fill="none" stroke="#bfbfbf" points="730.5,-638 795.5,-638 "/>
<text text-anchor="middle" x="763" y="-626" font-family="Helvetica,sans-Serif" font-size="10.00" fill="#000000"> </text>
</a>
</g>
</g>
<!-- Node10&#45;&gt;Node4 -->
<g id="edge15" class="edge">
<title>Node10&#45;&gt;Node4</title>
<path fill="none" stroke="#404040" d="M770.1865,-618.9498C782.7122,-562.4903 802.5856,-434.474 751,-347 739.3265,-327.2052 722.4488,-309.9017 704.3282,-295.2946"/>
<polygon fill="none" stroke="#404040" points="704.2564,-295.2391 697.0628,-294.7364 694.76,-287.9028 701.9536,-288.4055 704.2564,-295.2391"/>
<text text-anchor="middle" x="844.5" y="-479.5" font-family="Helvetica,sans-Serif" font-size="10.00" fill="#000000"> #adaptation_parameter</text>
</g>
<!-- Node10&#45;&gt;Node8 -->
<g id="edge7" class="edge">
<title>Node10&#45;&gt;Node8</title>
<path fill="none" stroke="#404040" d="M795.7608,-626.0861C826.5411,-605.6894 873.6295,-573.7676 913,-544 921.4202,-537.6336 930.198,-530.6814 938.6574,-523.8086"/>
<polygon fill="none" stroke="#404040" points="938.7573,-523.7267 940.8609,-516.8293 948.0369,-516.1182 945.9333,-523.0157 938.7573,-523.7267"/>
<text text-anchor="middle" x="901.5" y="-565" font-family="Helvetica,sans-Serif" font-size="10.00" fill="#000000"> +keys</text>
</g>
<!-- Node14 -->
<g id="node12" class="node">
<title>Node14</title>
<polygon fill="#ffffff" stroke="#bfbfbf" points="482,-448 482,-516 604,-516 604,-448 482,-448"/>
<text text-anchor="start" x="490" y="-504" font-family="Helvetica,sans-Serif" font-size="10.00" fill="#000000">std::map&lt; std::string,</text>
<text text-anchor="middle" x="543" y="-493" font-family="Helvetica,sans-Serif" font-size="10.00" fill="#000000"> std::deque&lt; int &gt; &gt;</text>
<polyline fill="none" stroke="#bfbfbf" points="482,-486 604,-486 "/>
<text text-anchor="middle" x="543" y="-474" font-family="Helvetica,sans-Serif" font-size="10.00" fill="#000000"> </text>
<polyline fill="none" stroke="#bfbfbf" points="482,-467 604,-467 "/>
<text text-anchor="middle" x="543" y="-455" font-family="Helvetica,sans-Serif" font-size="10.00" fill="#000000"> </text>
</g>
<!-- Node10&#45;&gt;Node14 -->
<g id="edge14" class="edge">
<title>Node10&#45;&gt;Node14</title>
<path fill="none" stroke="#404040" d="M730.3015,-626.5849C699.3608,-606.4137 651.9821,-574.5316 613,-544 605.1858,-537.8797 597.1113,-531.1464 589.3466,-524.4419"/>
<polygon fill="none" stroke="#404040" points="589.0977,-524.2241 581.9483,-523.2829 580.0673,-516.3214 587.2167,-517.2627 589.0977,-524.2241"/>
<text text-anchor="middle" x="665.5" y="-565" font-family="Helvetica,sans-Serif" font-size="10.00" fill="#000000"> +keys</text>
</g>
<!-- Node10&#45;&gt;Node16 -->
<g id="edge18" class="edge">
<title>Node10&#45;&gt;Node16</title>
<path fill="none" stroke="#404040" d="M730.487,-631.1725C703.8348,-618.4344 664.8049,-601.2375 629,-591 580.104,-577.0195 563.3091,-591.658 516,-573 494.5562,-564.5429 491.2229,-558.1168 473,-544 464.9749,-537.7831 456.6937,-530.9041 448.7604,-524.0575"/>
<polygon fill="none" stroke="#404040" points="448.6726,-523.9806 441.5233,-523.0383 439.6434,-516.0765 446.7927,-517.0188 448.6726,-523.9806"/>
<text text-anchor="middle" x="533.5" y="-565" font-family="Helvetica,sans-Serif" font-size="10.00" fill="#000000"> +keys</text>
</g>
<!-- Node11 -->
<g id="node9" class="node">
<title>Node11</title>
<g id="a_node9"><a xlink:title="STL class. ">
<polygon fill="#ffffff" stroke="#bfbfbf" points="711,-751.5 711,-819.5 815,-819.5 815,-751.5 711,-751.5"/>
<text text-anchor="start" x="719" y="-807.5" font-family="Helvetica,sans-Serif" font-size="10.00" fill="#000000">std::basic_string&lt;</text>
<text text-anchor="middle" x="763" y="-796.5" font-family="Helvetica,sans-Serif" font-size="10.00" fill="#000000"> char &gt;</text>
<polyline fill="none" stroke="#bfbfbf" points="711,-789.5 815,-789.5 "/>
<text text-anchor="middle" x="763" y="-777.5" font-family="Helvetica,sans-Serif" font-size="10.00" fill="#000000"> </text>
<polyline fill="none" stroke="#bfbfbf" points="711,-770.5 815,-770.5 "/>
<text text-anchor="middle" x="763" y="-758.5" font-family="Helvetica,sans-Serif" font-size="10.00" fill="#000000"> </text>
</a>
</g>
</g>
<!-- Node11&#45;&gt;Node10 -->
<g id="edge8" class="edge">
<title>Node11&#45;&gt;Node10</title>
<path fill="none" stroke="#191970" d="M763,-741.244C763,-719.8974 763,-694.9088 763,-676.1015"/>
<polygon fill="none" stroke="#191970" points="759.5001,-741.3876 763,-751.3876 766.5001,-741.3877 759.5001,-741.3876"/>
</g>
<!-- Node12 -->
<g id="node10" class="node">
<title>Node12</title>
<polygon fill="#ffffff" stroke="#bfbfbf" points="622,-453.5 622,-510.5 684,-510.5 684,-453.5 622,-453.5"/>
<text text-anchor="middle" x="653" y="-498.5" font-family="Helvetica,sans-Serif" font-size="10.00" fill="#000000">Publisher</text>
<polyline fill="none" stroke="#bfbfbf" points="622,-491.5 684,-491.5 "/>
<text text-anchor="middle" x="653" y="-479.5" font-family="Helvetica,sans-Serif" font-size="10.00" fill="#000000"> </text>
<polyline fill="none" stroke="#bfbfbf" points="622,-472.5 684,-472.5 "/>
<text text-anchor="middle" x="653" y="-460.5" font-family="Helvetica,sans-Serif" font-size="10.00" fill="#000000"> </text>
</g>
<!-- Node12&#45;&gt;Node4 -->
<g id="edge9" class="edge">
<title>Node12&#45;&gt;Node4</title>
<path fill="none" stroke="#404040" d="M647.5426,-453.2298C642.2574,-425.3678 633.9296,-381.4656 626.1929,-340.6799"/>
<polygon fill="none" stroke="#404040" points="626.159,-340.501 621.1109,-335.3516 623.9225,-328.7112 628.9707,-333.8606 626.159,-340.501"/>
<text text-anchor="middle" x="657" y="-377.5" font-family="Helvetica,sans-Serif" font-size="10.00" fill="#000000"> #adapt</text>
<text text-anchor="middle" x="657" y="-366.5" font-family="Helvetica,sans-Serif" font-size="10.00" fill="#000000">#except</text>
</g>
<!-- Node13 -->
<g id="node11" class="node">
<title>Node13</title>
<polygon fill="#ffffff" stroke="#bfbfbf" points="702,-453.5 702,-510.5 752,-510.5 752,-453.5 702,-453.5"/>
<text text-anchor="middle" x="727" y="-498.5" font-family="Helvetica,sans-Serif" font-size="10.00" fill="#000000">int64_t</text>
<polyline fill="none" stroke="#bfbfbf" points="702,-491.5 752,-491.5 "/>
<text text-anchor="middle" x="727" y="-479.5" font-family="Helvetica,sans-Serif" font-size="10.00" fill="#000000"> </text>
<polyline fill="none" stroke="#bfbfbf" points="702,-472.5 752,-472.5 "/>
<text text-anchor="middle" x="727" y="-460.5" font-family="Helvetica,sans-Serif" font-size="10.00" fill="#000000"> </text>
</g>
<!-- Node13&#45;&gt;Node4 -->
<g id="edge10" class="edge">
<title>Node13&#45;&gt;Node4</title>
<path fill="none" stroke="#404040" d="M720.0379,-453.3966C712.6375,-425.4044 699.5753,-381.9921 682,-347 680.7073,-344.4263 679.3591,-341.8443 677.9641,-339.2612"/>
<polygon fill="none" stroke="#404040" points="677.8779,-339.1081 671.4477,-335.8442 671.9873,-328.6533 678.4175,-331.9172 677.8779,-339.1081"/>
<text text-anchor="middle" x="725.5" y="-372" font-family="Helvetica,sans-Serif" font-size="10.00" fill="#000000"> #cycles</text>
</g>
<!-- Node14&#45;&gt;Node4 -->
<g id="edge11" class="edge">
<title>Node14&#45;&gt;Node4</title>
<path fill="none" stroke="#404040" d="M543.0433,-447.8458C543.8465,-420.1933 546.7535,-380.4767 556,-347 556.629,-344.7226 557.3036,-342.4342 558.0185,-340.1402"/>
<polygon fill="none" stroke="#404040" points="558.06,-340.0173 556.1926,-333.0522 561.9038,-328.6495 563.7712,-335.6147 558.06,-340.0173"/>
<text text-anchor="middle" x="590" y="-372" font-family="Helvetica,sans-Serif" font-size="10.00" fill="#000000"> #invocations</text>
</g>
<!-- Node15&#45;&gt;Node14 -->
<g id="edge12" class="edge">
<title>Node15&#45;&gt;Node14</title>
<path fill="none" stroke="#404040" d="M563.6453,-618.6721C559.8751,-593.7134 554.3539,-557.1629 549.9696,-528.1388"/>
<polygon fill="none" stroke="#404040" points="549.9611,-528.0818 545.1097,-522.7466 548.1686,-516.2164 553.02,-521.5516 549.9611,-528.0818"/>
<text text-anchor="middle" x="585" y="-565" font-family="Helvetica,sans-Serif" font-size="10.00" fill="#000000"> +elements</text>
</g>
<!-- Node16&#45;&gt;Node4 -->
<g id="edge16" class="edge">
<title>Node16&#45;&gt;Node4</title>
<path fill="none" stroke="#404040" d="M425.9457,-447.993C445.2475,-420.0755 474.0902,-379.9219 502,-347 505.0446,-343.4087 508.1817,-339.7895 511.3832,-336.1641"/>
<polygon fill="none" stroke="#404040" points="511.4499,-336.0897 512.4747,-328.9518 519.4578,-327.1524 518.4329,-334.2904 511.4499,-336.0897"/>
<text text-anchor="middle" x="522" y="-394" font-family="Helvetica,sans-Serif" font-size="10.00" fill="#000000"> #r_curr</text>
<text text-anchor="middle" x="522" y="-383" font-family="Helvetica,sans-Serif" font-size="10.00" fill="#000000">#freq</text>
<text text-anchor="middle" x="522" y="-372" font-family="Helvetica,sans-Serif" font-size="10.00" fill="#000000">#r_ref</text>
<text text-anchor="middle" x="522" y="-361" font-family="Helvetica,sans-Serif" font-size="10.00" fill="#000000">#c_curr</text>
<text text-anchor="middle" x="522" y="-350" font-family="Helvetica,sans-Serif" font-size="10.00" fill="#000000">#c_ref</text>
</g>
</g>
</svg>
