<?xml version="1.0" encoding="UTF-8" standalone="no"?>
<!DOCTYPE svg PUBLIC "-//W3C//DTD SVG 1.1//EN"
 "http://www.w3.org/Graphics/SVG/1.1/DTD/svg11.dtd">
<!-- Generated by graphviz version 2.40.1 (20161225.0304)
 -->
<!-- Title: CentralHub::apply_noise Pages: 1 -->
<svg width="487pt" height="28pt"
 viewBox="0.00 0.00 487.00 28.00" xmlns="http://www.w3.org/2000/svg" xmlns:xlink="http://www.w3.org/1999/xlink">
<g id="graph0" class="graph" transform="scale(1 1) rotate(0) translate(4 24)">
<title>CentralHub::apply_noise</title>
<polygon fill="#ffffff" stroke="transparent" points="-4,4 -4,-24 483,-24 483,4 -4,4"/>
<!-- Node5 -->
<g id="node1" class="node">
<title>Node5</title>
<polygon fill="#bfbfbf" stroke="#000000" points="0,-.5 0,-19.5 136,-19.5 136,-.5 0,-.5"/>
<text text-anchor="middle" x="68" y="-7.5" font-family="Helvetica,sans-Serif" font-size="10.00" fill="#000000">CentralHub::apply_noise</text>
</g>
<!-- Node6 -->
<g id="node2" class="node">
<title>Node6</title>
<g id="a_node2"><a xlink:href="classCentralHub.html#a48b13d52b79864e84eae5012108d3211" target="_top" xlink:title="CentralHub::body">
<polygon fill="#ffffff" stroke="#000000" points="172,-.5 172,-19.5 273,-19.5 273,-.5 172,-.5"/>
<text text-anchor="middle" x="222.5" y="-7.5" font-family="Helvetica,sans-Serif" font-size="10.00" fill="#000000">CentralHub::body</text>
</a>
</g>
</g>
<!-- Node5&#45;&gt;Node6 -->
<g id="edge1" class="edge">
<title>Node5&#45;&gt;Node6</title>
<path fill="none" stroke="#191970" d="M146.3537,-10C155.0047,-10 163.6373,-10 171.8173,-10"/>
<polygon fill="#191970" stroke="#191970" points="146.2157,-6.5001 136.2157,-10 146.2156,-13.5001 146.2157,-6.5001"/>
</g>
<!-- Node7 -->
<g id="node3" class="node">
<title>Node7</title>
<g id="a_node3"><a xlink:href="classCentralHub.html#a388e947318a28cf7cac762ac8b1cf3d4" target="_top" xlink:title="CentralHub::run">
<polygon fill="#ffffff" stroke="#000000" points="309,-.5 309,-19.5 402,-19.5 402,-.5 309,-.5"/>
<text text-anchor="middle" x="355.5" y="-7.5" font-family="Helvetica,sans-Serif" font-size="10.00" fill="#000000">CentralHub::run</text>
</a>
</g>
</g>
<!-- Node6&#45;&gt;Node7 -->
<g id="edge2" class="edge">
<title>Node6&#45;&gt;Node7</title>
<path fill="none" stroke="#191970" d="M283.2022,-10C291.8372,-10 300.6036,-10 308.913,-10"/>
<polygon fill="#191970" stroke="#191970" points="283.161,-6.5001 273.161,-10 283.161,-13.5001 283.161,-6.5001"/>
</g>
<!-- Node8 -->
<g id="node4" class="node">
<title>Node8</title>
<g id="a_node4"><a xlink:href="g4t1_8cpp.html#af19ddca125f05a2090dd132045573ee4" target="_top" xlink:title="main">
<polygon fill="#ffffff" stroke="#000000" points="438,-.5 438,-19.5 479,-19.5 479,-.5 438,-.5"/>
<text text-anchor="middle" x="458.5" y="-7.5" font-family="Helvetica,sans-Serif" font-size="10.00" fill="#000000">main</text>
</a>
</g>
</g>
<!-- Node7&#45;&gt;Node8 -->
<g id="edge3" class="edge">
<title>Node7&#45;&gt;Node8</title>
<path fill="none" stroke="#191970" d="M412.2133,-10C421.4322,-10 430.4259,-10 437.9965,-10"/>
<polygon fill="#191970" stroke="#191970" points="412.1782,-6.5001 402.1782,-10 412.1781,-13.5001 412.1782,-6.5001"/>
</g>
</g>
</svg>
