<?xml version="1.0" encoding="UTF-8" standalone="no"?>
<!DOCTYPE svg PUBLIC "-//W3C//DTD SVG 1.1//EN"
 "http://www.w3.org/Graphics/SVG/1.1/DTD/svg11.dtd">
<!-- Generated by graphviz version 2.40.1 (20161225.0304)
 -->
<!-- Title: bsn::range::Range::to_print Pages: 1 -->
<svg width="275pt" height="50pt"
 viewBox="0.00 0.00 275.00 50.00" xmlns="http://www.w3.org/2000/svg" xmlns:xlink="http://www.w3.org/1999/xlink">
<g id="graph0" class="graph" transform="scale(1 1) rotate(0) translate(4 46)">
<title>bsn::range::Range::to_print</title>
<polygon fill="#ffffff" stroke="transparent" points="-4,4 -4,-46 271,-46 271,4 -4,4"/>
<!-- Node93 -->
<g id="node1" class="node">
<title>Node93</title>
<polygon fill="#bfbfbf" stroke="#000000" points="0,-6 0,-36 110,-36 110,-6 0,-6"/>
<text text-anchor="start" x="8" y="-24" font-family="Helvetica,sans-Serif" font-size="10.00" fill="#000000">bsn::range::Range::</text>
<text text-anchor="middle" x="55" y="-13" font-family="Helvetica,sans-Serif" font-size="10.00" fill="#000000">to_print</text>
</g>
<!-- Node94 -->
<g id="node2" class="node">
<title>Node94</title>
<g id="a_node2"><a xlink:href="classbsn_1_1configuration_1_1SensorConfiguration.html#af51e385f3664a67a9459d3efc32175d0" target="_top" xlink:title="bsn::configuration\l::SensorConfiguration\l::toString">
<polygon fill="#ffffff" stroke="#000000" points="146,-.5 146,-41.5 267,-41.5 267,-.5 146,-.5"/>
<text text-anchor="start" x="154" y="-29.5" font-family="Helvetica,sans-Serif" font-size="10.00" fill="#000000">bsn::configuration</text>
<text text-anchor="start" x="154" y="-18.5" font-family="Helvetica,sans-Serif" font-size="10.00" fill="#000000">::SensorConfiguration</text>
<text text-anchor="middle" x="206.5" y="-7.5" font-family="Helvetica,sans-Serif" font-size="10.00" fill="#000000">::toString</text>
</a>
</g>
</g>
<!-- Node93&#45;&gt;Node94 -->
<g id="edge1" class="edge">
<title>Node93&#45;&gt;Node94</title>
<path fill="none" stroke="#191970" d="M120.3207,-21C128.7763,-21 137.4086,-21 145.7853,-21"/>
<polygon fill="#191970" stroke="#191970" points="120.1236,-17.5001 110.1235,-21 120.1235,-24.5001 120.1236,-17.5001"/>
</g>
</g>
</svg>
