<?xml version="1.0" encoding="UTF-8" standalone="no"?>
<!DOCTYPE svg PUBLIC "-//W3C//DTD SVG 1.1//EN"
 "http://www.w3.org/Graphics/SVG/1.1/DTD/svg11.dtd">
<!-- Generated by graphviz version 2.40.1 (20161225.0304)
 -->
<!-- Title: object Pages: 1 -->
<svg width="686pt" height="171pt"
 viewBox="0.00 0.00 685.50 171.00" xmlns="http://www.w3.org/2000/svg" xmlns:xlink="http://www.w3.org/1999/xlink">
<g id="graph0" class="graph" transform="scale(1 1) rotate(0) translate(4 167)">
<title>object</title>
<polygon fill="#ffffff" stroke="transparent" points="-4,4 -4,-167 681.5,-167 681.5,4 -4,4"/>
<!-- Node0 -->
<g id="node1" class="node">
<title>Node0</title>
<polygon fill="#bfbfbf" stroke="#000000" points="331.5,-105.5 331.5,-162.5 378.5,-162.5 378.5,-105.5 331.5,-105.5"/>
<text text-anchor="middle" x="355" y="-150.5" font-family="Helvetica,sans-Serif" font-size="10.00" fill="#000000">object</text>
<polyline fill="none" stroke="#000000" points="331.5,-143.5 378.5,-143.5 "/>
<text text-anchor="middle" x="355" y="-131.5" font-family="Helvetica,sans-Serif" font-size="10.00" fill="#000000"> </text>
<polyline fill="none" stroke="#000000" points="331.5,-124.5 378.5,-124.5 "/>
<text text-anchor="middle" x="355" y="-112.5" font-family="Helvetica,sans-Serif" font-size="10.00" fill="#000000"> </text>
</g>
<!-- Node1 -->
<g id="node2" class="node">
<title>Node1</title>
<g id="a_node2"><a xlink:href="classarchlib_1_1srv_1_1__DataAccessRequest_1_1DataAccessRequest.html" target="_top" xlink:title="{archlib.srv._DataAccessRequest.\lDataAccessRequest\n||}">
<polygon fill="#ffffff" stroke="#000000" points="0,-.5 0,-68.5 174,-68.5 174,-.5 0,-.5"/>
<text text-anchor="start" x="8" y="-56.5" font-family="Helvetica,sans-Serif" font-size="10.00" fill="#000000">archlib.srv._DataAccessRequest.</text>
<text text-anchor="middle" x="87" y="-45.5" font-family="Helvetica,sans-Serif" font-size="10.00" fill="#000000">DataAccessRequest</text>
<polyline fill="none" stroke="#000000" points="0,-38.5 174,-38.5 "/>
<text text-anchor="middle" x="87" y="-26.5" font-family="Helvetica,sans-Serif" font-size="10.00" fill="#000000"> </text>
<polyline fill="none" stroke="#000000" points="0,-19.5 174,-19.5 "/>
<text text-anchor="middle" x="87" y="-7.5" font-family="Helvetica,sans-Serif" font-size="10.00" fill="#000000"> </text>
</a>
</g>
</g>
<!-- Node0&#45;&gt;Node1 -->
<g id="edge1" class="edge">
<title>Node0&#45;&gt;Node1</title>
<path fill="none" stroke="#191970" d="M321.5165,-121.5686C284.7989,-107.9365 224.405,-85.5142 174.1016,-66.8381"/>
<polygon fill="none" stroke="#191970" points="320.6238,-124.9706 331.2168,-125.17 323.0603,-118.4083 320.6238,-124.9706"/>
</g>
<!-- Node2 -->
<g id="node3" class="node">
<title>Node2</title>
<g id="a_node3"><a xlink:href="classarchlib_1_1srv_1_1__EffectorRegister_1_1EffectorRegister.html" target="_top" xlink:title="{archlib.srv._EffectorRegister.\lEffectorRegister\n||}">
<polygon fill="#ffffff" stroke="#000000" points="192.5,-.5 192.5,-68.5 347.5,-68.5 347.5,-.5 192.5,-.5"/>
<text text-anchor="start" x="200.5" y="-56.5" font-family="Helvetica,sans-Serif" font-size="10.00" fill="#000000">archlib.srv._EffectorRegister.</text>
<text text-anchor="middle" x="270" y="-45.5" font-family="Helvetica,sans-Serif" font-size="10.00" fill="#000000">EffectorRegister</text>
<polyline fill="none" stroke="#000000" points="192.5,-38.5 347.5,-38.5 "/>
<text text-anchor="middle" x="270" y="-26.5" font-family="Helvetica,sans-Serif" font-size="10.00" fill="#000000"> </text>
<polyline fill="none" stroke="#000000" points="192.5,-19.5 347.5,-19.5 "/>
<text text-anchor="middle" x="270" y="-7.5" font-family="Helvetica,sans-Serif" font-size="10.00" fill="#000000"> </text>
</a>
</g>
</g>
<!-- Node0&#45;&gt;Node2 -->
<g id="edge2" class="edge">
<title>Node0&#45;&gt;Node2</title>
<path fill="none" stroke="#191970" d="M324.595,-98.4083C316.3648,-88.7741 307.4745,-78.3673 299.3061,-68.8054"/>
<polygon fill="none" stroke="#191970" points="322.1662,-100.9537 331.3228,-106.2837 327.4886,-96.407 322.1662,-100.9537"/>
</g>
<!-- Node3 -->
<g id="node4" class="node">
<title>Node3</title>
<g id="a_node4"><a xlink:href="classarchlib_1_1srv_1_1__EngineRequest_1_1EngineRequest.html" target="_top" xlink:title="{archlib.srv._EngineRequest.\lEngineRequest\n||}">
<polygon fill="#ffffff" stroke="#000000" points="366,-.5 366,-68.5 516,-68.5 516,-.5 366,-.5"/>
<text text-anchor="start" x="374" y="-56.5" font-family="Helvetica,sans-Serif" font-size="10.00" fill="#000000">archlib.srv._EngineRequest.</text>
<text text-anchor="middle" x="441" y="-45.5" font-family="Helvetica,sans-Serif" font-size="10.00" fill="#000000">EngineRequest</text>
<polyline fill="none" stroke="#000000" points="366,-38.5 516,-38.5 "/>
<text text-anchor="middle" x="441" y="-26.5" font-family="Helvetica,sans-Serif" font-size="10.00" fill="#000000"> </text>
<polyline fill="none" stroke="#000000" points="366,-19.5 516,-19.5 "/>
<text text-anchor="middle" x="441" y="-7.5" font-family="Helvetica,sans-Serif" font-size="10.00" fill="#000000"> </text>
</a>
</g>
</g>
<!-- Node0&#45;&gt;Node3 -->
<g id="edge3" class="edge">
<title>Node0&#45;&gt;Node3</title>
<path fill="none" stroke="#191970" d="M385.3579,-98.8766C393.8544,-89.0464 403.0736,-78.38 411.5184,-68.6096"/>
<polygon fill="none" stroke="#191970" points="382.6187,-96.6934 378.7275,-106.5478 387.9147,-101.2708 382.6187,-96.6934"/>
</g>
<!-- Node4 -->
<g id="node5" class="node">
<title>Node4</title>
<g id="a_node5"><a xlink:href="classservices_1_1srv_1_1__PatientData_1_1PatientData.html" target="_top" xlink:title="{services.srv._PatientData.\lPatientData\n||}">
<polygon fill="#ffffff" stroke="#000000" points="534.5,-.5 534.5,-68.5 677.5,-68.5 677.5,-.5 534.5,-.5"/>
<text text-anchor="start" x="542.5" y="-56.5" font-family="Helvetica,sans-Serif" font-size="10.00" fill="#000000">services.srv._PatientData.</text>
<text text-anchor="middle" x="606" y="-45.5" font-family="Helvetica,sans-Serif" font-size="10.00" fill="#000000">PatientData</text>
<polyline fill="none" stroke="#000000" points="534.5,-38.5 677.5,-38.5 "/>
<text text-anchor="middle" x="606" y="-26.5" font-family="Helvetica,sans-Serif" font-size="10.00" fill="#000000"> </text>
<polyline fill="none" stroke="#000000" points="534.5,-19.5 677.5,-19.5 "/>
<text text-anchor="middle" x="606" y="-7.5" font-family="Helvetica,sans-Serif" font-size="10.00" fill="#000000"> </text>
</a>
</g>
</g>
<!-- Node0&#45;&gt;Node4 -->
<g id="edge4" class="edge">
<title>Node0&#45;&gt;Node4</title>
<path fill="none" stroke="#191970" d="M388.3077,-121.6854C422.6862,-108.8766 477.8026,-88.0666 525,-69 527.9762,-67.7977 531.0091,-66.5605 534.0695,-65.3022"/>
<polygon fill="none" stroke="#191970" points="386.9139,-118.4695 378.7608,-125.2353 389.3536,-125.0306 386.9139,-118.4695"/>
</g>
</g>
</svg>
