<?xml version="1.0" encoding="UTF-8" standalone="no"?>
<!DOCTYPE svg PUBLIC "-//W3C//DTD SVG 1.1//EN"
 "http://www.w3.org/Graphics/SVG/1.1/DTD/svg11.dtd">
<!-- Generated by graphviz version 2.40.1 (20161225.0304)
 -->
<!-- Title: Injector Pages: 1 -->
<svg width="157pt" height="281pt"
 viewBox="0.00 0.00 157.00 281.00" xmlns="http://www.w3.org/2000/svg" xmlns:xlink="http://www.w3.org/1999/xlink">
<g id="graph0" class="graph" transform="scale(1 1) rotate(0) translate(4 277)">
<title>Injector</title>
<polygon fill="#ffffff" stroke="transparent" points="-4,4 -4,-277 153,-277 153,4 -4,4"/>
<!-- Node0 -->
<g id="node1" class="node">
<title>Node0</title>
<polygon fill="#bfbfbf" stroke="#000000" points="33,-.5 33,-112.5 116,-112.5 116,-.5 33,-.5"/>
<text text-anchor="middle" x="74.5" y="-100.5" font-family="Helvetica,sans-Serif" font-size="10.00" fill="#000000">Injector</text>
<polyline fill="none" stroke="#000000" points="33,-93.5 116,-93.5 "/>
<text text-anchor="middle" x="74.5" y="-81.5" font-family="Helvetica,sans-Serif" font-size="10.00" fill="#000000"> </text>
<polyline fill="none" stroke="#000000" points="33,-74.5 116,-74.5 "/>
<text text-anchor="start" x="41" y="-62.5" font-family="Helvetica,sans-Serif" font-size="10.00" fill="#000000">+ Injector()</text>
<text text-anchor="start" x="41" y="-51.5" font-family="Helvetica,sans-Serif" font-size="10.00" fill="#000000">+ ~Injector()</text>
<text text-anchor="start" x="41" y="-40.5" font-family="Helvetica,sans-Serif" font-size="10.00" fill="#000000">+ setUp()</text>
<text text-anchor="start" x="41" y="-29.5" font-family="Helvetica,sans-Serif" font-size="10.00" fill="#000000">+ tearDown()</text>
<text text-anchor="start" x="41" y="-18.5" font-family="Helvetica,sans-Serif" font-size="10.00" fill="#000000">+ body()</text>
<text text-anchor="start" x="41" y="-7.5" font-family="Helvetica,sans-Serif" font-size="10.00" fill="#000000">+ inject()</text>
</g>
<!-- Node1 -->
<g id="node2" class="node">
<title>Node1</title>
<g id="a_node2"><a xlink:href="classarch_1_1ROSComponent.html" target="_top" xlink:title="{arch::ROSComponent\n|# rosComponentDescriptor\l|+ ROSComponent()\l+ ~ROSComponent()\l+ setUp()\l+ tearDown()\l+ run()\l+ body()\l# getRosNodeName()\l}">
<polygon fill="#ffffff" stroke="#000000" points="0,-149.5 0,-272.5 149,-272.5 149,-149.5 0,-149.5"/>
<text text-anchor="middle" x="74.5" y="-260.5" font-family="Helvetica,sans-Serif" font-size="10.00" fill="#000000">arch::ROSComponent</text>
<polyline fill="none" stroke="#000000" points="0,-253.5 149,-253.5 "/>
<text text-anchor="start" x="8" y="-241.5" font-family="Helvetica,sans-Serif" font-size="10.00" fill="#000000"># rosComponentDescriptor</text>
<polyline fill="none" stroke="#000000" points="0,-234.5 149,-234.5 "/>
<text text-anchor="start" x="8" y="-222.5" font-family="Helvetica,sans-Serif" font-size="10.00" fill="#000000">+ ROSComponent()</text>
<text text-anchor="start" x="8" y="-211.5" font-family="Helvetica,sans-Serif" font-size="10.00" fill="#000000">+ ~ROSComponent()</text>
<text text-anchor="start" x="8" y="-200.5" font-family="Helvetica,sans-Serif" font-size="10.00" fill="#000000">+ setUp()</text>
<text text-anchor="start" x="8" y="-189.5" font-family="Helvetica,sans-Serif" font-size="10.00" fill="#000000">+ tearDown()</text>
<text text-anchor="start" x="8" y="-178.5" font-family="Helvetica,sans-Serif" font-size="10.00" fill="#000000">+ run()</text>
<text text-anchor="start" x="8" y="-167.5" font-family="Helvetica,sans-Serif" font-size="10.00" fill="#000000">+ body()</text>
<text text-anchor="start" x="8" y="-156.5" font-family="Helvetica,sans-Serif" font-size="10.00" fill="#000000"># getRosNodeName()</text>
</a>
</g>
</g>
<!-- Node1&#45;&gt;Node0 -->
<g id="edge1" class="edge">
<title>Node1&#45;&gt;Node0</title>
<path fill="none" stroke="#191970" d="M74.5,-139.458C74.5,-130.5079 74.5,-121.455 74.5,-112.7834"/>
<polygon fill="none" stroke="#191970" points="71.0001,-139.4935 74.5,-149.4936 78.0001,-139.4936 71.0001,-139.4935"/>
</g>
</g>
</svg>
