<?xml version="1.0" encoding="UTF-8" standalone="no"?>
<!DOCTYPE svg PUBLIC "-//W3C//DTD SVG 1.1//EN"
 "http://www.w3.org/Graphics/SVG/1.1/DTD/svg11.dtd">
<!-- Generated by graphviz version 2.40.1 (20161225.0304)
 -->
<!-- Title: CentralHub::reconfigure Pages: 1 -->
<svg width="724pt" height="313pt"
 viewBox="0.00 0.00 724.00 312.50" xmlns="http://www.w3.org/2000/svg" xmlns:xlink="http://www.w3.org/1999/xlink">
<g id="graph0" class="graph" transform="scale(1 1) rotate(0) translate(4 308.5)">
<title>CentralHub::reconfigure</title>
<polygon fill="#ffffff" stroke="transparent" points="-4,4 -4,-308.5 720,-308.5 720,4 -4,4"/>
<!-- Node28 -->
<g id="node1" class="node">
<title>Node28</title>
<polygon fill="#bfbfbf" stroke="#000000" points="0,-143 0,-162 132,-162 132,-143 0,-143"/>
<text text-anchor="middle" x="66" y="-150" font-family="Helvetica,sans-Serif" font-size="10.00" fill="#000000">CentralHub::reconfigure</text>
</g>
<!-- Node29 -->
<g id="node2" class="node">
<title>Node29</title>
<g id="a_node2"><a xlink:href="namespacebsn_1_1utils.html#a4ab7be3d27380abe032f4ceec86b09b2" target="_top" xlink:title="bsn::utils::split">
<polygon fill="#ffffff" stroke="#000000" points="209,-285 209,-304 297,-304 297,-285 209,-285"/>
<text text-anchor="middle" x="253" y="-292" font-family="Helvetica,sans-Serif" font-size="10.00" fill="#000000">bsn::utils::split</text>
</a>
</g>
</g>
<!-- Node28&#45;&gt;Node29 -->
<g id="edge1" class="edge">
<title>Node28&#45;&gt;Node29</title>
<path fill="none" stroke="#191970" d="M70.9409,-162.0066C83.6191,-185.3928 119.7295,-245.959 168,-275.5 177.3809,-281.241 188.2928,-285.2535 199.1083,-288.0563"/>
<polygon fill="#191970" stroke="#191970" points="198.4393,-291.4935 208.9672,-290.305 199.996,-284.6688 198.4393,-291.4935"/>
</g>
<!-- Node30 -->
<g id="node3" class="node">
<title>Node30</title>
<g id="a_node3"><a xlink:href="classarch_1_1ROSComponentDescriptor.html#a6ae1f0c4c644bce7bc7e99e408dc7ca0" target="_top" xlink:title="arch::ROSComponentDescriptor\l::setFreq">
<polygon fill="#ffffff" stroke="#000000" points="168,-235.5 168,-265.5 338,-265.5 338,-235.5 168,-235.5"/>
<text text-anchor="start" x="176" y="-253.5" font-family="Helvetica,sans-Serif" font-size="10.00" fill="#000000">arch::ROSComponentDescriptor</text>
<text text-anchor="middle" x="253" y="-242.5" font-family="Helvetica,sans-Serif" font-size="10.00" fill="#000000">::setFreq</text>
</a>
</g>
</g>
<!-- Node28&#45;&gt;Node30 -->
<g id="edge2" class="edge">
<title>Node28&#45;&gt;Node30</title>
<path fill="none" stroke="#191970" d="M76.4951,-162.091C94.1302,-177.7281 131.3834,-208.7485 168,-226.5 171.9885,-228.4336 176.16,-230.2365 180.4223,-231.9136"/>
<polygon fill="#191970" stroke="#191970" points="179.2691,-235.2186 189.8626,-235.386 181.6856,-228.649 179.2691,-235.2186"/>
</g>
<!-- Node31 -->
<g id="node4" class="node">
<title>Node31</title>
<g id="a_node4"><a xlink:href="classarch_1_1target__system_1_1Component.html#a766a2494155aaa42b3c8162cefb11b77" target="_top" xlink:title="arch::target_system\l::Component::activate">
<polygon fill="#ffffff" stroke="#000000" points="190.5,-186.5 190.5,-216.5 315.5,-216.5 315.5,-186.5 190.5,-186.5"/>
<text text-anchor="start" x="198.5" y="-204.5" font-family="Helvetica,sans-Serif" font-size="10.00" fill="#000000">arch::target_system</text>
<text text-anchor="middle" x="253" y="-193.5" font-family="Helvetica,sans-Serif" font-size="10.00" fill="#000000">::Component::activate</text>
</a>
</g>
</g>
<!-- Node28&#45;&gt;Node31 -->
<g id="edge3" class="edge">
<title>Node28&#45;&gt;Node31</title>
<path fill="none" stroke="#191970" d="M102.4994,-162.064C126.1742,-168.2676 157.7334,-176.5371 185.8364,-183.901"/>
<polygon fill="#191970" stroke="#191970" points="185.0534,-187.3139 195.614,-186.463 186.8278,-180.5425 185.0534,-187.3139"/>
</g>
<!-- Node34 -->
<g id="node7" class="node">
<title>Node34</title>
<g id="a_node7"><a xlink:href="classarch_1_1ROSComponentDescriptor.html#a4b73f46f37241865a08e75ab202e28eb" target="_top" xlink:title="arch::ROSComponentDescriptor\l::getFreq">
<polygon fill="#ffffff" stroke="#000000" points="546,-93.5 546,-123.5 716,-123.5 716,-93.5 546,-93.5"/>
<text text-anchor="start" x="554" y="-111.5" font-family="Helvetica,sans-Serif" font-size="10.00" fill="#000000">arch::ROSComponentDescriptor</text>
<text text-anchor="middle" x="631" y="-100.5" font-family="Helvetica,sans-Serif" font-size="10.00" fill="#000000">::getFreq</text>
</a>
</g>
</g>
<!-- Node28&#45;&gt;Node34 -->
<g id="edge11" class="edge">
<title>Node28&#45;&gt;Node34</title>
<path fill="none" stroke="#191970" d="M99.6997,-142.8874C119.4329,-137.6832 144.9329,-131.6832 168,-128.5 294.3076,-111.07 441.6644,-107.5556 535.6064,-107.4075"/>
<polygon fill="#191970" stroke="#191970" points="535.6602,-110.9076 545.659,-107.4042 535.6579,-103.9076 535.6602,-110.9076"/>
</g>
<!-- Node35 -->
<g id="node8" class="node">
<title>Node35</title>
<g id="a_node8"><a xlink:href="classarch_1_1target__system_1_1Component.html#a7e504b0c12531376d3cca170a23b18e3" target="_top" xlink:title="arch::target_system\l::Component::deactivate">
<polygon fill="#ffffff" stroke="#000000" points="184.5,-137.5 184.5,-167.5 321.5,-167.5 321.5,-137.5 184.5,-137.5"/>
<text text-anchor="start" x="192.5" y="-155.5" font-family="Helvetica,sans-Serif" font-size="10.00" fill="#000000">arch::target_system</text>
<text text-anchor="middle" x="253" y="-144.5" font-family="Helvetica,sans-Serif" font-size="10.00" fill="#000000">::Component::deactivate</text>
</a>
</g>
</g>
<!-- Node28&#45;&gt;Node35 -->
<g id="edge7" class="edge">
<title>Node28&#45;&gt;Node35</title>
<path fill="none" stroke="#191970" d="M132.1924,-152.5C145.8042,-152.5 160.2625,-152.5 174.2673,-152.5"/>
<polygon fill="#191970" stroke="#191970" points="174.3663,-156.0001 184.3663,-152.5 174.3662,-149.0001 174.3663,-156.0001"/>
</g>
<!-- Node36 -->
<g id="node9" class="node">
<title>Node36</title>
<g id="a_node9"><a xlink:href="classbsn_1_1resource_1_1Battery.html#a674c7c02100126e91f040bc93f143c7e" target="_top" xlink:title="bsn::resource::Battery\l::getCurrentLevel">
<polygon fill="#ffffff" stroke="#000000" points="191,-49.5 191,-79.5 315,-79.5 315,-49.5 191,-49.5"/>
<text text-anchor="start" x="199" y="-67.5" font-family="Helvetica,sans-Serif" font-size="10.00" fill="#000000">bsn::resource::Battery</text>
<text text-anchor="middle" x="253" y="-56.5" font-family="Helvetica,sans-Serif" font-size="10.00" fill="#000000">::getCurrentLevel</text>
</a>
</g>
</g>
<!-- Node28&#45;&gt;Node36 -->
<g id="edge9" class="edge">
<title>Node28&#45;&gt;Node36</title>
<path fill="none" stroke="#191970" d="M80.766,-142.9897C100.221,-130.7226 135.7541,-109.217 168,-94.5 176.969,-90.4066 186.6713,-86.511 196.2029,-82.9639"/>
<polygon fill="#191970" stroke="#191970" points="197.4374,-86.2393 205.644,-79.5384 195.0499,-79.659 197.4374,-86.2393"/>
</g>
<!-- Node37 -->
<g id="node10" class="node">
<title>Node37</title>
<g id="a_node10"><a xlink:href="classbsn_1_1resource_1_1Battery.html#aa7265cd180da80242067253f7f42272c" target="_top" xlink:title="bsn::resource::Battery\l::generate">
<polygon fill="#ffffff" stroke="#000000" points="191,-.5 191,-30.5 315,-30.5 315,-.5 191,-.5"/>
<text text-anchor="start" x="199" y="-18.5" font-family="Helvetica,sans-Serif" font-size="10.00" fill="#000000">bsn::resource::Battery</text>
<text text-anchor="middle" x="253" y="-7.5" font-family="Helvetica,sans-Serif" font-size="10.00" fill="#000000">::generate</text>
</a>
</g>
</g>
<!-- Node28&#45;&gt;Node37 -->
<g id="edge10" class="edge">
<title>Node28&#45;&gt;Node37</title>
<path fill="none" stroke="#191970" d="M71.8529,-142.9751C85.731,-121.2054 122.8765,-67.5301 168,-39.5 172.2862,-36.8375 176.8749,-34.4629 181.6175,-32.3462"/>
<polygon fill="#191970" stroke="#191970" points="182.9374,-35.5879 190.8886,-28.5857 180.3063,-29.1012 182.9374,-35.5879"/>
</g>
<!-- Node32 -->
<g id="node5" class="node">
<title>Node32</title>
<g id="a_node5"><a xlink:href="classarch_1_1target__system_1_1Component.html#a9d793970d5fbdef5c31e5ab901b98030" target="_top" xlink:title="arch::target_system\l::Component::sendEvent">
<polygon fill="#ffffff" stroke="#000000" points="374,-139.5 374,-169.5 510,-169.5 510,-139.5 374,-139.5"/>
<text text-anchor="start" x="382" y="-157.5" font-family="Helvetica,sans-Serif" font-size="10.00" fill="#000000">arch::target_system</text>
<text text-anchor="middle" x="442" y="-146.5" font-family="Helvetica,sans-Serif" font-size="10.00" fill="#000000">::Component::sendEvent</text>
</a>
</g>
</g>
<!-- Node31&#45;&gt;Node32 -->
<g id="edge4" class="edge">
<title>Node31&#45;&gt;Node32</title>
<path fill="none" stroke="#191970" d="M313.3204,-186.4997C331.9035,-181.8785 352.5246,-176.7505 371.7168,-171.9778"/>
<polygon fill="#191970" stroke="#191970" points="372.7446,-175.3289 381.6044,-169.519 371.0553,-168.5358 372.7446,-175.3289"/>
</g>
<!-- Node33 -->
<g id="node6" class="node">
<title>Node33</title>
<g id="a_node6"><a xlink:href="classarch_1_1ROSComponentDescriptor.html#a462b00745d0de3f98d88f3eb1ba11e45" target="_top" xlink:title="arch::ROSComponentDescriptor\l::getName">
<polygon fill="#ffffff" stroke="#000000" points="546,-142.5 546,-172.5 716,-172.5 716,-142.5 546,-142.5"/>
<text text-anchor="start" x="554" y="-160.5" font-family="Helvetica,sans-Serif" font-size="10.00" fill="#000000">arch::ROSComponentDescriptor</text>
<text text-anchor="middle" x="631" y="-149.5" font-family="Helvetica,sans-Serif" font-size="10.00" fill="#000000">::getName</text>
</a>
</g>
</g>
<!-- Node32&#45;&gt;Node33 -->
<g id="edge5" class="edge">
<title>Node32&#45;&gt;Node33</title>
<path fill="none" stroke="#191970" d="M510.2333,-155.5831C518.5171,-155.7146 527.0933,-155.8507 535.6786,-155.987"/>
<polygon fill="#191970" stroke="#191970" points="535.6899,-159.4875 545.7442,-156.1467 535.801,-152.4884 535.6899,-159.4875"/>
</g>
<!-- Node32&#45;&gt;Node34 -->
<g id="edge6" class="edge">
<title>Node32&#45;&gt;Node34</title>
<path fill="none" stroke="#191970" d="M503.8857,-139.4379C521.6806,-135.1068 541.2342,-130.3478 559.5562,-125.8884"/>
<polygon fill="#191970" stroke="#191970" points="560.4096,-129.283 569.2982,-123.5174 558.7542,-122.4815 560.4096,-129.283"/>
</g>
<!-- Node35&#45;&gt;Node32 -->
<g id="edge8" class="edge">
<title>Node35&#45;&gt;Node32</title>
<path fill="none" stroke="#191970" d="M321.5006,-153.2249C335.1869,-153.3697 349.6623,-153.5229 363.651,-153.6709"/>
<polygon fill="#191970" stroke="#191970" points="363.6962,-157.1715 373.7327,-153.7776 363.7704,-150.1719 363.6962,-157.1715"/>
</g>
</g>
</svg>
