<?xml version="1.0" encoding="UTF-8" standalone="no"?>
<!DOCTYPE svg PUBLIC "-//W3C//DTD SVG 1.1//EN"
 "http://www.w3.org/Graphics/SVG/1.1/DTD/svg11.dtd">
<!-- Generated by graphviz version 2.40.1 (20161225.0304)
 -->
<!-- Title: CostEngine::plan Pages: 1 -->
<svg width="416pt" height="127pt"
 viewBox="0.00 0.00 416.00 126.50" xmlns="http://www.w3.org/2000/svg" xmlns:xlink="http://www.w3.org/1999/xlink">
<g id="graph0" class="graph" transform="scale(1 1) rotate(0) translate(4 122.5)">
<title>CostEngine::plan</title>
<polygon fill="#ffffff" stroke="transparent" points="-4,4 -4,-122.5 412,-122.5 412,4 -4,4"/>
<!-- Node34 -->
<g id="node1" class="node">
<title>Node34</title>
<polygon fill="#bfbfbf" stroke="#000000" points="0,-22.5 0,-41.5 98,-41.5 98,-22.5 0,-22.5"/>
<text text-anchor="middle" x="49" y="-29.5" font-family="Helvetica,sans-Serif" font-size="10.00" fill="#000000">CostEngine::plan</text>
</g>
<!-- Node35 -->
<g id="node2" class="node">
<title>Node35</title>
<g id="a_node2"><a xlink:href="classEngine.html#a6b7b458cd4067230dfe02585ce00ab5b" target="_top" xlink:title="Engine::calculate_qos">
<polygon fill="#ffffff" stroke="#000000" points="134,-44.5 134,-63.5 256,-63.5 256,-44.5 134,-44.5"/>
<text text-anchor="middle" x="195" y="-51.5" font-family="Helvetica,sans-Serif" font-size="10.00" fill="#000000">Engine::calculate_qos</text>
</a>
</g>
</g>
<!-- Node34&#45;&gt;Node35 -->
<g id="edge1" class="edge">
<title>Node34&#45;&gt;Node35</title>
<path fill="none" stroke="#191970" d="M98.022,-39.3869C106.3883,-40.6476 115.2273,-41.9795 124.027,-43.3054"/>
<polygon fill="#191970" stroke="#191970" points="123.5082,-46.7667 133.9181,-44.7959 124.5512,-39.8448 123.5082,-46.7667"/>
</g>
<!-- Node38 -->
<g id="node5" class="node">
<title>Node38</title>
<g id="a_node5"><a xlink:href="classCostEngine.html#af1d8ce6fb8bfdb627e60879e98e929df" target="_top" xlink:title="CostEngine::execute">
<polygon fill="#ffffff" stroke="#000000" points="137,-3.5 137,-22.5 253,-22.5 253,-3.5 137,-3.5"/>
<text text-anchor="middle" x="195" y="-10.5" font-family="Helvetica,sans-Serif" font-size="10.00" fill="#000000">CostEngine::execute</text>
</a>
</g>
</g>
<!-- Node34&#45;&gt;Node38 -->
<g id="edge4" class="edge">
<title>Node34&#45;&gt;Node38</title>
<path fill="none" stroke="#191970" d="M98.022,-25.6204C107.2446,-24.4202 117.0415,-23.1453 126.727,-21.8848"/>
<polygon fill="#191970" stroke="#191970" points="127.2865,-25.3416 136.7512,-20.5803 126.3831,-18.4002 127.2865,-25.3416"/>
</g>
<!-- Node36 -->
<g id="node3" class="node">
<title>Node36</title>
<g id="a_node3"><a xlink:href="classbsn_1_1model_1_1Formula.html#a49ea44acf0d7c9355d8134de7f3d7a3b" target="_top" xlink:title="bsn::model::Formula\l::setTermValueMap">
<polygon fill="#ffffff" stroke="#000000" points="292,-88 292,-118 408,-118 408,-88 292,-88"/>
<text text-anchor="start" x="300" y="-106" font-family="Helvetica,sans-Serif" font-size="10.00" fill="#000000">bsn::model::Formula</text>
<text text-anchor="middle" x="350" y="-95" font-family="Helvetica,sans-Serif" font-size="10.00" fill="#000000">::setTermValueMap</text>
</a>
</g>
</g>
<!-- Node35&#45;&gt;Node36 -->
<g id="edge2" class="edge">
<title>Node35&#45;&gt;Node36</title>
<path fill="none" stroke="#191970" d="M225.2535,-63.564C244.4486,-69.6321 269.8965,-77.677 292.7998,-84.9174"/>
<polygon fill="#191970" stroke="#191970" points="291.8442,-88.2859 302.4341,-87.963 293.9542,-81.6115 291.8442,-88.2859"/>
</g>
<!-- Node37 -->
<g id="node4" class="node">
<title>Node37</title>
<g id="a_node4"><a xlink:href="classbsn_1_1model_1_1Formula.html#afa267bb9172a038543604912d0b23ce8" target="_top" xlink:title="bsn::model::Formula\l::evaluate">
<polygon fill="#ffffff" stroke="#000000" points="292,-39 292,-69 408,-69 408,-39 292,-39"/>
<text text-anchor="start" x="300" y="-57" font-family="Helvetica,sans-Serif" font-size="10.00" fill="#000000">bsn::model::Formula</text>
<text text-anchor="middle" x="350" y="-46" font-family="Helvetica,sans-Serif" font-size="10.00" fill="#000000">::evaluate</text>
</a>
</g>
</g>
<!-- Node35&#45;&gt;Node37 -->
<g id="edge3" class="edge">
<title>Node35&#45;&gt;Node37</title>
<path fill="none" stroke="#191970" d="M256.2601,-54C264.6222,-54 273.2484,-54 281.7253,-54"/>
<polygon fill="#191970" stroke="#191970" points="281.9634,-57.5001 291.9634,-54 281.9633,-50.5001 281.9634,-57.5001"/>
</g>
<!-- Node39 -->
<g id="node6" class="node">
<title>Node39</title>
<g id="a_node6"><a xlink:href="namespacebsn_1_1utils.html#a4ab7be3d27380abe032f4ceec86b09b2" target="_top" xlink:title="bsn::utils::split">
<polygon fill="#ffffff" stroke="#000000" points="306,-.5 306,-19.5 394,-19.5 394,-.5 306,-.5"/>
<text text-anchor="middle" x="350" y="-7.5" font-family="Helvetica,sans-Serif" font-size="10.00" fill="#000000">bsn::utils::split</text>
</a>
</g>
</g>
<!-- Node38&#45;&gt;Node39 -->
<g id="edge5" class="edge">
<title>Node38&#45;&gt;Node39</title>
<path fill="none" stroke="#191970" d="M253.1573,-11.8744C266.9848,-11.6067 281.69,-11.3221 295.3542,-11.0577"/>
<polygon fill="#191970" stroke="#191970" points="295.6383,-14.5529 305.5686,-10.86 295.5027,-7.5542 295.6383,-14.5529"/>
</g>
</g>
</svg>
