<?xml version="1.0" encoding="UTF-8" standalone="no"?>
<!DOCTYPE svg PUBLIC "-//W3C//DTD SVG 1.1//EN"
 "http://www.w3.org/Graphics/SVG/1.1/DTD/svg11.dtd">
<!-- Generated by graphviz version 2.40.1 (20161225.0304)
 -->
<!-- Title: archlib.srv._EngineRequest.EngineRequestRequest Pages: 1 -->
<svg width="158pt" height="215pt"
 viewBox="0.00 0.00 158.00 215.00" xmlns="http://www.w3.org/2000/svg" xmlns:xlink="http://www.w3.org/1999/xlink">
<g id="graph0" class="graph" transform="scale(1 1) rotate(0) translate(4 211)">
<title>archlib.srv._EngineRequest.EngineRequestRequest</title>
<polygon fill="#ffffff" stroke="transparent" points="-4,4 -4,-211 154,-211 154,4 -4,4"/>
<!-- Node0 -->
<g id="node1" class="node">
<title>Node0</title>
<polygon fill="#bfbfbf" stroke="#000000" points="0,-.5 0,-112.5 150,-112.5 150,-.5 0,-.5"/>
<text text-anchor="start" x="8" y="-100.5" font-family="Helvetica,sans-Serif" font-size="10.00" fill="#000000">archlib.srv._EngineRequest.</text>
<text text-anchor="middle" x="75" y="-89.5" font-family="Helvetica,sans-Serif" font-size="10.00" fill="#000000">EngineRequestRequest</text>
<polyline fill="none" stroke="#000000" points="0,-82.5 150,-82.5 "/>
<text text-anchor="middle" x="75" y="-70.5" font-family="Helvetica,sans-Serif" font-size="10.00" fill="#000000"> </text>
<polyline fill="none" stroke="#000000" points="0,-63.5 150,-63.5 "/>
<text text-anchor="start" x="8" y="-51.5" font-family="Helvetica,sans-Serif" font-size="10.00" fill="#000000">+ __init__()</text>
<text text-anchor="start" x="8" y="-40.5" font-family="Helvetica,sans-Serif" font-size="10.00" fill="#000000">+ serialize()</text>
<text text-anchor="start" x="8" y="-29.5" font-family="Helvetica,sans-Serif" font-size="10.00" fill="#000000">+ deserialize()</text>
<text text-anchor="start" x="8" y="-18.5" font-family="Helvetica,sans-Serif" font-size="10.00" fill="#000000">+ serialize_numpy()</text>
<text text-anchor="start" x="8" y="-7.5" font-family="Helvetica,sans-Serif" font-size="10.00" fill="#000000">+ deserialize_numpy()</text>
</g>
<!-- Node1 -->
<g id="node2" class="node">
<title>Node1</title>
<polygon fill="#ffffff" stroke="#bfbfbf" points="45.5,-149.5 45.5,-206.5 104.5,-206.5 104.5,-149.5 45.5,-149.5"/>
<text text-anchor="middle" x="75" y="-194.5" font-family="Helvetica,sans-Serif" font-size="10.00" fill="#000000">Message</text>
<polyline fill="none" stroke="#bfbfbf" points="45.5,-187.5 104.5,-187.5 "/>
<text text-anchor="middle" x="75" y="-175.5" font-family="Helvetica,sans-Serif" font-size="10.00" fill="#000000"> </text>
<polyline fill="none" stroke="#bfbfbf" points="45.5,-168.5 104.5,-168.5 "/>
<text text-anchor="middle" x="75" y="-156.5" font-family="Helvetica,sans-Serif" font-size="10.00" fill="#000000"> </text>
</g>
<!-- Node1&#45;&gt;Node0 -->
<g id="edge1" class="edge">
<title>Node1&#45;&gt;Node0</title>
<path fill="none" stroke="#191970" d="M75,-139.0021C75,-130.6329 75,-121.6292 75,-112.7541"/>
<polygon fill="none" stroke="#191970" points="71.5001,-139.2062 75,-149.2062 78.5001,-139.2062 71.5001,-139.2062"/>
</g>
</g>
</svg>
