<?xml version="1.0" encoding="UTF-8" standalone="no"?>
<!DOCTYPE svg PUBLIC "-//W3C//DTD SVG 1.1//EN"
 "http://www.w3.org/Graphics/SVG/1.1/DTD/svg11.dtd">
<!-- Generated by graphviz version 2.40.1 (20161225.0304)
 -->
<!-- Title: bsn::model::Formula::setTermValueMap Pages: 1 -->
<svg width="750pt" height="174pt"
 viewBox="0.00 0.00 750.00 174.00" xmlns="http://www.w3.org/2000/svg" xmlns:xlink="http://www.w3.org/1999/xlink">
<g id="graph0" class="graph" transform="scale(1 1) rotate(0) translate(4 170)">
<title>bsn::model::Formula::setTermValueMap</title>
<polygon fill="#ffffff" stroke="transparent" points="-4,4 -4,-170 746,-170 746,4 -4,4"/>
<!-- Node47 -->
<g id="node1" class="node">
<title>Node47</title>
<polygon fill="#bfbfbf" stroke="#000000" points="0,-90 0,-120 116,-120 116,-90 0,-90"/>
<text text-anchor="start" x="8" y="-108" font-family="Helvetica,sans-Serif" font-size="10.00" fill="#000000">bsn::model::Formula</text>
<text text-anchor="middle" x="58" y="-97" font-family="Helvetica,sans-Serif" font-size="10.00" fill="#000000">::setTermValueMap</text>
</g>
<!-- Node48 -->
<g id="node2" class="node">
<title>Node48</title>
<g id="a_node2"><a xlink:href="FormulaTest_8cpp.html#ad221d66557ab1384162a4c79c60b78c0" target="_top" xlink:title="TEST_F">
<polygon fill="#ffffff" stroke="#000000" points="187.5,-114.5 187.5,-133.5 238.5,-133.5 238.5,-114.5 187.5,-114.5"/>
<text text-anchor="middle" x="213" y="-121.5" font-family="Helvetica,sans-Serif" font-size="10.00" fill="#000000">TEST_F</text>
</a>
</g>
</g>
<!-- Node47&#45;&gt;Node48 -->
<g id="edge1" class="edge">
<title>Node47&#45;&gt;Node48</title>
<path fill="none" stroke="#191970" d="M126.3618,-113.3798C148.0513,-116.0385 170.709,-118.8159 187.4117,-120.8634"/>
<polygon fill="#191970" stroke="#191970" points="126.5089,-109.8717 116.1573,-112.129 125.6571,-116.8197 126.5089,-109.8717"/>
</g>
<!-- Node49 -->
<g id="node3" class="node">
<title>Node49</title>
<g id="a_node3"><a xlink:href="classEngine.html#a6b7b458cd4067230dfe02585ce00ab5b" target="_top" xlink:title="Engine::calculate_qos">
<polygon fill="#ffffff" stroke="#000000" points="152,-76.5 152,-95.5 274,-95.5 274,-76.5 152,-76.5"/>
<text text-anchor="middle" x="213" y="-83.5" font-family="Helvetica,sans-Serif" font-size="10.00" fill="#000000">Engine::calculate_qos</text>
</a>
</g>
</g>
<!-- Node47&#45;&gt;Node49 -->
<g id="edge2" class="edge">
<title>Node47&#45;&gt;Node49</title>
<path fill="none" stroke="#191970" d="M126.1375,-96.6477C134.7219,-95.5954 143.4618,-94.524 151.9276,-93.4863"/>
<polygon fill="#191970" stroke="#191970" points="125.6571,-93.1803 116.1573,-97.871 126.5089,-100.1283 125.6571,-93.1803"/>
</g>
<!-- Node50 -->
<g id="node4" class="node">
<title>Node50</title>
<g id="a_node4"><a xlink:href="classCostEngine.html#ac10858408b67774d09aa0cae6b2baa59" target="_top" xlink:title="CostEngine::analyze">
<polygon fill="#ffffff" stroke="#000000" points="474,-146.5 474,-165.5 590,-165.5 590,-146.5 474,-146.5"/>
<text text-anchor="middle" x="532" y="-153.5" font-family="Helvetica,sans-Serif" font-size="10.00" fill="#000000">CostEngine::analyze</text>
</a>
</g>
</g>
<!-- Node49&#45;&gt;Node50 -->
<g id="edge3" class="edge">
<title>Node49&#45;&gt;Node50</title>
<path fill="none" stroke="#191970" d="M263.3532,-99.3642C267.0602,-101.0427 270.6535,-102.915 274,-105 293.7456,-117.3022 288.9066,-133.1865 310,-143 361.632,-167.0213 427.4644,-167.6775 473.993,-163.9187"/>
<polygon fill="#191970" stroke="#191970" points="264.5633,-96.0783 253.9802,-95.5805 261.9429,-102.5694 264.5633,-96.0783"/>
</g>
<!-- Node52 -->
<g id="node6" class="node">
<title>Node52</title>
<g id="a_node6"><a xlink:href="classCostEngine.html#aca556d9a4dd63201a41c04498b4f2e3d" target="_top" xlink:title="CostEngine::plan">
<polygon fill="#ffffff" stroke="#000000" points="325,-114.5 325,-133.5 423,-133.5 423,-114.5 325,-114.5"/>
<text text-anchor="middle" x="374" y="-121.5" font-family="Helvetica,sans-Serif" font-size="10.00" fill="#000000">CostEngine::plan</text>
</a>
</g>
</g>
<!-- Node49&#45;&gt;Node52 -->
<g id="edge5" class="edge">
<title>Node49&#45;&gt;Node52</title>
<path fill="none" stroke="#191970" d="M263.4018,-97.8961C286.032,-103.2374 312.3695,-109.4537 333.665,-114.4799"/>
<polygon fill="#191970" stroke="#191970" points="264.1637,-94.4798 253.6271,-95.589 262.5557,-101.2926 264.1637,-94.4798"/>
</g>
<!-- Node53 -->
<g id="node7" class="node">
<title>Node53</title>
<g id="a_node7"><a xlink:href="classEngine.html#a88afff420d0d1652ad974fd26df6de63" target="_top" xlink:title="Engine::setUp_formula">
<polygon fill="#ffffff" stroke="#000000" points="310,-76.5 310,-95.5 438,-95.5 438,-76.5 310,-76.5"/>
<text text-anchor="middle" x="374" y="-83.5" font-family="Helvetica,sans-Serif" font-size="10.00" fill="#000000">Engine::setUp_formula</text>
</a>
</g>
</g>
<!-- Node49&#45;&gt;Node53 -->
<g id="edge7" class="edge">
<title>Node49&#45;&gt;Node53</title>
<path fill="none" stroke="#191970" d="M284.5386,-86C292.9857,-86 301.566,-86 309.9014,-86"/>
<polygon fill="#191970" stroke="#191970" points="284.3265,-82.5001 274.3265,-86 284.3264,-89.5001 284.3265,-82.5001"/>
</g>
<!-- Node58 -->
<g id="node12" class="node">
<title>Node58</title>
<g id="a_node12"><a xlink:href="classReliabilityEngine.html#a2fb81703ab556e8418389e4483ceaaed" target="_top" xlink:title="ReliabilityEngine::\lanalyze">
<polygon fill="#ffffff" stroke="#000000" points="480,-5 480,-35 584,-35 584,-5 480,-5"/>
<text text-anchor="start" x="488" y="-23" font-family="Helvetica,sans-Serif" font-size="10.00" fill="#000000">ReliabilityEngine::</text>
<text text-anchor="middle" x="532" y="-12" font-family="Helvetica,sans-Serif" font-size="10.00" fill="#000000">analyze</text>
</a>
</g>
</g>
<!-- Node49&#45;&gt;Node58 -->
<g id="edge12" class="edge">
<title>Node49&#45;&gt;Node58</title>
<path fill="none" stroke="#191970" d="M269.0214,-74.4094C328.5407,-62.095 421.8845,-42.7825 479.8748,-30.7845"/>
<polygon fill="#191970" stroke="#191970" points="268.1281,-71.02 259.0447,-76.4735 269.5464,-77.8748 268.1281,-71.02"/>
</g>
<!-- Node60 -->
<g id="node14" class="node">
<title>Node60</title>
<g id="a_node14"><a xlink:href="classReliabilityEngine.html#ac7179c4014de0c259d7794f544a2d1c7" target="_top" xlink:title="ReliabilityEngine::plan">
<polygon fill="#ffffff" stroke="#000000" points="311.5,-.5 311.5,-19.5 436.5,-19.5 436.5,-.5 311.5,-.5"/>
<text text-anchor="middle" x="374" y="-7.5" font-family="Helvetica,sans-Serif" font-size="10.00" fill="#000000">ReliabilityEngine::plan</text>
</a>
</g>
</g>
<!-- Node49&#45;&gt;Node60 -->
<g id="edge14" class="edge">
<title>Node49&#45;&gt;Node60</title>
<path fill="none" stroke="#191970" d="M237.9117,-71.456C257.2357,-60.4677 284.8726,-45.3853 310,-34 321.5655,-28.7596 334.6436,-23.7071 345.9495,-19.6009"/>
<polygon fill="#191970" stroke="#191970" points="236.0734,-68.4755 229.1406,-76.4872 239.5564,-74.5475 236.0734,-68.4755"/>
</g>
<!-- Node51 -->
<g id="node5" class="node">
<title>Node51</title>
<g id="a_node5"><a xlink:href="classCostEngine.html#a0f1a60c2da68544287595ac66d070fe2" target="_top" xlink:title="CostEngine::monitor">
<polygon fill="#ffffff" stroke="#000000" points="626,-146.5 626,-165.5 742,-165.5 742,-146.5 626,-146.5"/>
<text text-anchor="middle" x="684" y="-153.5" font-family="Helvetica,sans-Serif" font-size="10.00" fill="#000000">CostEngine::monitor</text>
</a>
</g>
</g>
<!-- Node50&#45;&gt;Node51 -->
<g id="edge4" class="edge">
<title>Node50&#45;&gt;Node51</title>
<path fill="none" stroke="#191970" d="M600.5423,-156C608.9862,-156 617.5541,-156 625.8236,-156"/>
<polygon fill="#191970" stroke="#191970" points="600.3325,-152.5001 590.3325,-156 600.3324,-159.5001 600.3325,-152.5001"/>
</g>
<!-- Node52&#45;&gt;Node50 -->
<g id="edge6" class="edge">
<title>Node52&#45;&gt;Node50</title>
<path fill="none" stroke="#191970" d="M431.1585,-135.5764C448.8104,-139.1515 468.0411,-143.0463 484.9308,-146.467"/>
<polygon fill="#191970" stroke="#191970" points="431.4732,-132.0692 420.9774,-133.5144 430.0837,-138.9299 431.4732,-132.0692"/>
</g>
<!-- Node54 -->
<g id="node8" class="node">
<title>Node54</title>
<g id="a_node8"><a xlink:href="classEngine.html#ae0233e4936be42094d3dfd401633cccd" target="_top" xlink:title="Engine::setUp">
<polygon fill="#ffffff" stroke="#000000" points="490,-100.5 490,-119.5 574,-119.5 574,-100.5 490,-100.5"/>
<text text-anchor="middle" x="532" y="-107.5" font-family="Helvetica,sans-Serif" font-size="10.00" fill="#000000">Engine::setUp</text>
</a>
</g>
</g>
<!-- Node53&#45;&gt;Node54 -->
<g id="edge8" class="edge">
<title>Node53&#45;&gt;Node54</title>
<path fill="none" stroke="#191970" d="M446.9658,-97.0834C461.6058,-99.3072 476.5238,-101.5732 489.693,-103.5736"/>
<polygon fill="#191970" stroke="#191970" points="447.312,-93.5959 436.8998,-95.5544 446.2607,-100.5165 447.312,-93.5959"/>
</g>
<!-- Node57 -->
<g id="node11" class="node">
<title>Node57</title>
<g id="a_node11"><a xlink:href="classEngine.html#ae164dcb3bf318cb307ab7266974c2064" target="_top" xlink:title="Engine::body">
<polygon fill="#ffffff" stroke="#000000" points="492,-62.5 492,-81.5 572,-81.5 572,-62.5 492,-62.5"/>
<text text-anchor="middle" x="532" y="-69.5" font-family="Helvetica,sans-Serif" font-size="10.00" fill="#000000">Engine::body</text>
</a>
</g>
</g>
<!-- Node53&#45;&gt;Node57 -->
<g id="edge11" class="edge">
<title>Node53&#45;&gt;Node57</title>
<path fill="none" stroke="#191970" d="M448.5396,-79.3952C463.4683,-78.0724 478.6101,-76.7308 491.8234,-75.5599"/>
<polygon fill="#191970" stroke="#191970" points="447.9167,-75.9366 438.2646,-80.3057 448.5346,-82.9093 447.9167,-75.9366"/>
</g>
<!-- Node55 -->
<g id="node9" class="node">
<title>Node55</title>
<g id="a_node9"><a xlink:href="classCostEngine.html#abf2d8b5da61c0c372c6d632d9a55e832" target="_top" xlink:title="CostEngine::setUp">
<polygon fill="#ffffff" stroke="#000000" points="631,-108.5 631,-127.5 737,-127.5 737,-108.5 631,-108.5"/>
<text text-anchor="middle" x="684" y="-115.5" font-family="Helvetica,sans-Serif" font-size="10.00" fill="#000000">CostEngine::setUp</text>
</a>
</g>
</g>
<!-- Node54&#45;&gt;Node55 -->
<g id="edge9" class="edge">
<title>Node54&#45;&gt;Node55</title>
<path fill="none" stroke="#191970" d="M584.4547,-112.7608C599.4234,-113.5486 615.7442,-114.4076 630.7594,-115.1979"/>
<polygon fill="#191970" stroke="#191970" points="584.5106,-109.259 574.3405,-112.2284 584.1427,-116.2493 584.5106,-109.259"/>
</g>
<!-- Node56 -->
<g id="node10" class="node">
<title>Node56</title>
<g id="a_node10"><a xlink:href="classReliabilityEngine.html#ad5323671d1e8645df2e0f7d9772bf806" target="_top" xlink:title="ReliabilityEngine::\lsetUp">
<polygon fill="#ffffff" stroke="#000000" points="632,-59 632,-89 736,-89 736,-59 632,-59"/>
<text text-anchor="start" x="640" y="-77" font-family="Helvetica,sans-Serif" font-size="10.00" fill="#000000">ReliabilityEngine::</text>
<text text-anchor="middle" x="684" y="-66" font-family="Helvetica,sans-Serif" font-size="10.00" fill="#000000">setUp</text>
</a>
</g>
</g>
<!-- Node54&#45;&gt;Node56 -->
<g id="edge10" class="edge">
<title>Node54&#45;&gt;Node56</title>
<path fill="none" stroke="#191970" d="M582.5067,-98.0379C598.4077,-94.2719 615.9927,-90.107 631.9959,-86.3168"/>
<polygon fill="#191970" stroke="#191970" points="581.2583,-94.7367 572.3341,-100.4472 582.8716,-101.5482 581.2583,-94.7367"/>
</g>
<!-- Node59 -->
<g id="node13" class="node">
<title>Node59</title>
<g id="a_node13"><a xlink:href="classReliabilityEngine.html#afe74f85b5bb905500dec2f93586e0045" target="_top" xlink:title="ReliabilityEngine::\lmonitor">
<polygon fill="#ffffff" stroke="#000000" points="632,-5 632,-35 736,-35 736,-5 632,-5"/>
<text text-anchor="start" x="640" y="-23" font-family="Helvetica,sans-Serif" font-size="10.00" fill="#000000">ReliabilityEngine::</text>
<text text-anchor="middle" x="684" y="-12" font-family="Helvetica,sans-Serif" font-size="10.00" fill="#000000">monitor</text>
</a>
</g>
</g>
<!-- Node58&#45;&gt;Node59 -->
<g id="edge13" class="edge">
<title>Node58&#45;&gt;Node59</title>
<path fill="none" stroke="#191970" d="M594.5735,-20C606.9659,-20 619.8501,-20 631.8514,-20"/>
<polygon fill="#191970" stroke="#191970" points="594.3098,-16.5001 584.3098,-20 594.3097,-23.5001 594.3098,-16.5001"/>
</g>
<!-- Node60&#45;&gt;Node58 -->
<g id="edge15" class="edge">
<title>Node60&#45;&gt;Node58</title>
<path fill="none" stroke="#191970" d="M447.0396,-14.6228C458.157,-15.3264 469.4327,-16.04 479.9793,-16.7076"/>
<polygon fill="#191970" stroke="#191970" points="447.1009,-11.1197 436.8998,-13.981 446.6587,-18.1057 447.1009,-11.1197"/>
</g>
</g>
</svg>
