<?xml version="1.0" encoding="UTF-8" standalone="no"?>
<!DOCTYPE svg PUBLIC "-//W3C//DTD SVG 1.1//EN"
 "http://www.w3.org/Graphics/SVG/1.1/DTD/svg11.dtd">
<!-- Generated by graphviz version 2.40.1 (20161225.0304)
 -->
<!-- Title: Engine::tearDown Pages: 1 -->
<svg width="272pt" height="78pt"
 viewBox="0.00 0.00 272.00 77.50" xmlns="http://www.w3.org/2000/svg" xmlns:xlink="http://www.w3.org/1999/xlink">
<g id="graph0" class="graph" transform="scale(1 1) rotate(0) translate(4 73.5)">
<title>Engine::tearDown</title>
<polygon fill="#ffffff" stroke="transparent" points="-4,4 -4,-73.5 268,-73.5 268,4 -4,4"/>
<!-- Node106 -->
<g id="node1" class="node">
<title>Node106</title>
<polygon fill="#bfbfbf" stroke="#000000" points="0,-28 0,-47 103,-47 103,-28 0,-28"/>
<text text-anchor="middle" x="51.5" y="-35" font-family="Helvetica,sans-Serif" font-size="10.00" fill="#000000">Engine::tearDown</text>
</g>
<!-- Node107 -->
<g id="node2" class="node">
<title>Node107</title>
<g id="a_node2"><a xlink:href="classCostEngine.html#a8c22fd6bae0654d9ad7af830991a30c8" target="_top" xlink:title="CostEngine::tearDown">
<polygon fill="#ffffff" stroke="#000000" points="139,-50 139,-69 264,-69 264,-50 139,-50"/>
<text text-anchor="middle" x="201.5" y="-57" font-family="Helvetica,sans-Serif" font-size="10.00" fill="#000000">CostEngine::tearDown</text>
</a>
</g>
</g>
<!-- Node106&#45;&gt;Node107 -->
<g id="edge1" class="edge">
<title>Node106&#45;&gt;Node107</title>
<path fill="none" stroke="#191970" d="M113.2912,-46.5627C121.7472,-47.8029 130.4346,-49.0771 138.9049,-50.3194"/>
<polygon fill="#191970" stroke="#191970" points="113.5236,-43.0594 103.1215,-45.0712 112.5077,-49.9853 113.5236,-43.0594"/>
</g>
<!-- Node108 -->
<g id="node3" class="node">
<title>Node108</title>
<g id="a_node3"><a xlink:href="classReliabilityEngine.html#ad5641aa98162231ec9ac3bc9b91eef14" target="_top" xlink:title="ReliabilityEngine::\ltearDown">
<polygon fill="#ffffff" stroke="#000000" points="149.5,-.5 149.5,-30.5 253.5,-30.5 253.5,-.5 149.5,-.5"/>
<text text-anchor="start" x="157.5" y="-18.5" font-family="Helvetica,sans-Serif" font-size="10.00" fill="#000000">ReliabilityEngine::</text>
<text text-anchor="middle" x="201.5" y="-7.5" font-family="Helvetica,sans-Serif" font-size="10.00" fill="#000000">tearDown</text>
</a>
</g>
</g>
<!-- Node106&#45;&gt;Node108 -->
<g id="edge2" class="edge">
<title>Node106&#45;&gt;Node108</title>
<path fill="none" stroke="#191970" d="M113.078,-28.4686C125.0979,-26.7056 137.5932,-24.873 149.2742,-23.1598"/>
<polygon fill="#191970" stroke="#191970" points="112.5077,-25.0147 103.1215,-29.9288 113.5236,-31.9406 112.5077,-25.0147"/>
</g>
</g>
</svg>
