<?xml version="1.0" encoding="UTF-8" standalone="no"?>
<!DOCTYPE svg PUBLIC "-//W3C//DTD SVG 1.1//EN"
 "http://www.w3.org/Graphics/SVG/1.1/DTD/svg11.dtd">
<!-- Generated by graphviz version 2.40.1 (20161225.0304)
 -->
<!-- Title: Enactor::apply_cost_strategy Pages: 1 -->
<svg width="401pt" height="39pt"
 viewBox="0.00 0.00 401.00 39.00" xmlns="http://www.w3.org/2000/svg" xmlns:xlink="http://www.w3.org/1999/xlink">
<g id="graph0" class="graph" transform="scale(1 1) rotate(0) translate(4 35)">
<title>Enactor::apply_cost_strategy</title>
<polygon fill="#ffffff" stroke="transparent" points="-4,4 -4,-35 397,-35 397,4 -4,4"/>
<!-- Node5 -->
<g id="node1" class="node">
<title>Node5</title>
<polygon fill="#bfbfbf" stroke="#000000" points="0,-.5 0,-30.5 112,-30.5 112,-.5 0,-.5"/>
<text text-anchor="start" x="8" y="-18.5" font-family="Helvetica,sans-Serif" font-size="10.00" fill="#000000">Enactor::apply_cost</text>
<text text-anchor="middle" x="56" y="-7.5" font-family="Helvetica,sans-Serif" font-size="10.00" fill="#000000">_strategy</text>
</g>
<!-- Node6 -->
<g id="node2" class="node">
<title>Node6</title>
<g id="a_node2"><a xlink:href="classEnactor.html#a9e10c68a47e83737f8b45b9c504cdc97" target="_top" xlink:title="Enactor::receiveStatus">
<polygon fill="#ffffff" stroke="#000000" points="148,-6 148,-25 274,-25 274,-6 148,-6"/>
<text text-anchor="middle" x="211" y="-13" font-family="Helvetica,sans-Serif" font-size="10.00" fill="#000000">Enactor::receiveStatus</text>
</a>
</g>
</g>
<!-- Node5&#45;&gt;Node6 -->
<g id="edge1" class="edge">
<title>Node5&#45;&gt;Node6</title>
<path fill="none" stroke="#191970" d="M122.5218,-15.5C130.9159,-15.5 139.4853,-15.5 147.8255,-15.5"/>
<polygon fill="#191970" stroke="#191970" points="122.3971,-12.0001 112.397,-15.5 122.397,-19.0001 122.3971,-12.0001"/>
</g>
<!-- Node7 -->
<g id="node3" class="node">
<title>Node7</title>
<g id="a_node3"><a xlink:href="classEnactor.html#abd25ade60e175a09b8a71f2d0c87c7d1" target="_top" xlink:title="Enactor::body">
<polygon fill="#ffffff" stroke="#000000" points="310,-6 310,-25 393,-25 393,-6 310,-6"/>
<text text-anchor="middle" x="351.5" y="-13" font-family="Helvetica,sans-Serif" font-size="10.00" fill="#000000">Enactor::body</text>
</a>
</g>
</g>
<!-- Node6&#45;&gt;Node7 -->
<g id="edge2" class="edge">
<title>Node6&#45;&gt;Node7</title>
<path fill="none" stroke="#191970" d="M284.4983,-15.5C293.2188,-15.5 301.8724,-15.5 309.9201,-15.5"/>
<polygon fill="#191970" stroke="#191970" points="284.2628,-12.0001 274.2627,-15.5 284.2627,-19.0001 284.2628,-12.0001"/>
</g>
</g>
</svg>
