<?xml version="1.0" encoding="UTF-8" standalone="no"?>
<!DOCTYPE svg PUBLIC "-//W3C//DTD SVG 1.1//EN"
 "http://www.w3.org/Graphics/SVG/1.1/DTD/svg11.dtd">
<!-- Generated by graphviz version 2.40.1 (20161225.0304)
 -->
<!-- Title: arch::target_system::Component::sendEnergyStatus Pages: 1 -->
<svg width="387pt" height="39pt"
 viewBox="0.00 0.00 387.00 39.00" xmlns="http://www.w3.org/2000/svg" xmlns:xlink="http://www.w3.org/1999/xlink">
<g id="graph0" class="graph" transform="scale(1 1) rotate(0) translate(4 35)">
<title>arch::target_system::Component::sendEnergyStatus</title>
<polygon fill="#ffffff" stroke="transparent" points="-4,4 -4,-35 383,-35 383,4 -4,4"/>
<!-- Node41 -->
<g id="node1" class="node">
<title>Node41</title>
<polygon fill="#bfbfbf" stroke="#000000" points="0,-.5 0,-30.5 173,-30.5 173,-.5 0,-.5"/>
<text text-anchor="start" x="8" y="-18.5" font-family="Helvetica,sans-Serif" font-size="10.00" fill="#000000">arch::target_system</text>
<text text-anchor="middle" x="86.5" y="-7.5" font-family="Helvetica,sans-Serif" font-size="10.00" fill="#000000">::Component::sendEnergyStatus</text>
</g>
<!-- Node42 -->
<g id="node2" class="node">
<title>Node42</title>
<g id="a_node2"><a xlink:href="classarch_1_1ROSComponentDescriptor.html#a462b00745d0de3f98d88f3eb1ba11e45" target="_top" xlink:title="arch::ROSComponentDescriptor\l::getName">
<polygon fill="#ffffff" stroke="#000000" points="209,-.5 209,-30.5 379,-30.5 379,-.5 209,-.5"/>
<text text-anchor="start" x="217" y="-18.5" font-family="Helvetica,sans-Serif" font-size="10.00" fill="#000000">arch::ROSComponentDescriptor</text>
<text text-anchor="middle" x="294" y="-7.5" font-family="Helvetica,sans-Serif" font-size="10.00" fill="#000000">::getName</text>
</a>
</g>
</g>
<!-- Node41&#45;&gt;Node42 -->
<g id="edge1" class="edge">
<title>Node41&#45;&gt;Node42</title>
<path fill="none" stroke="#191970" d="M173.2964,-15.5C181.6655,-15.5 190.1858,-15.5 198.6316,-15.5"/>
<polygon fill="#191970" stroke="#191970" points="198.8815,-19.0001 208.8814,-15.5 198.8814,-12.0001 198.8815,-19.0001"/>
</g>
</g>
</svg>
