<?xml version="1.0" encoding="UTF-8" standalone="no"?>
<!DOCTYPE svg PUBLIC "-//W3C//DTD SVG 1.1//EN"
 "http://www.w3.org/Graphics/SVG/1.1/DTD/svg11.dtd">
<!-- Generated by graphviz version 2.40.1 (20161225.0304)
 -->
<!-- Title: arch::ROSComponent::ROSComponent Pages: 1 -->
<svg width="334pt" height="88pt"
 viewBox="0.00 0.00 334.00 88.00" xmlns="http://www.w3.org/2000/svg" xmlns:xlink="http://www.w3.org/1999/xlink">
<g id="graph0" class="graph" transform="scale(1 1) rotate(0) translate(4 84)">
<title>arch::ROSComponent::ROSComponent</title>
<polygon fill="#ffffff" stroke="transparent" points="-4,4 -4,-84 330,-84 330,4 -4,4"/>
<!-- Node0 -->
<g id="node1" class="node">
<title>Node0</title>
<polygon fill="#bfbfbf" stroke="#000000" points="0,-24.5 0,-54.5 120,-54.5 120,-24.5 0,-24.5"/>
<text text-anchor="start" x="8" y="-42.5" font-family="Helvetica,sans-Serif" font-size="10.00" fill="#000000">arch::ROSComponent</text>
<text text-anchor="middle" x="60" y="-31.5" font-family="Helvetica,sans-Serif" font-size="10.00" fill="#000000">::ROSComponent</text>
</g>
<!-- Node1 -->
<g id="node2" class="node">
<title>Node1</title>
<g id="a_node2"><a xlink:href="classarch_1_1ROSComponent.html#aa5fa36ba1bff54a60c9a0e5498e504f7" target="_top" xlink:title="arch::ROSComponent\l::getRosNodeName">
<polygon fill="#ffffff" stroke="#000000" points="181,-49.5 181,-79.5 301,-79.5 301,-49.5 181,-49.5"/>
<text text-anchor="start" x="189" y="-67.5" font-family="Helvetica,sans-Serif" font-size="10.00" fill="#000000">arch::ROSComponent</text>
<text text-anchor="middle" x="241" y="-56.5" font-family="Helvetica,sans-Serif" font-size="10.00" fill="#000000">::getRosNodeName</text>
</a>
</g>
</g>
<!-- Node0&#45;&gt;Node1 -->
<g id="edge1" class="edge">
<title>Node0&#45;&gt;Node1</title>
<path fill="none" stroke="#191970" d="M120.019,-47.7899C136.2105,-50.0263 153.8758,-52.4663 170.58,-54.7735"/>
<polygon fill="#191970" stroke="#191970" points="170.4499,-58.2887 180.8347,-56.1899 171.4077,-51.3545 170.4499,-58.2887"/>
</g>
<!-- Node2 -->
<g id="node3" class="node">
<title>Node2</title>
<g id="a_node3"><a xlink:href="classarch_1_1ROSComponentDescriptor.html#a27e0d45f1bb2184d9d47d88f73871e9f" target="_top" xlink:title="arch::ROSComponentDescriptor\l::setName">
<polygon fill="#ffffff" stroke="#000000" points="156,-.5 156,-30.5 326,-30.5 326,-.5 156,-.5"/>
<text text-anchor="start" x="164" y="-18.5" font-family="Helvetica,sans-Serif" font-size="10.00" fill="#000000">arch::ROSComponentDescriptor</text>
<text text-anchor="middle" x="241" y="-7.5" font-family="Helvetica,sans-Serif" font-size="10.00" fill="#000000">::setName</text>
</a>
</g>
</g>
<!-- Node0&#45;&gt;Node2 -->
<g id="edge2" class="edge">
<title>Node0&#45;&gt;Node2</title>
<path fill="none" stroke="#191970" d="M120.019,-31.5417C128.3929,-30.4313 137.161,-29.2687 145.9865,-28.0985"/>
<polygon fill="#191970" stroke="#191970" points="146.5041,-31.5606 155.9572,-26.7764 145.5839,-24.6213 146.5041,-31.5606"/>
</g>
</g>
</svg>
