<?xml version="1.0" encoding="UTF-8" standalone="no"?>
<!DOCTYPE svg PUBLIC "-//W3C//DTD SVG 1.1//EN"
 "http://www.w3.org/Graphics/SVG/1.1/DTD/svg11.dtd">
<!-- Generated by graphviz version 2.40.1 (20161225.0304)
 -->
<!-- Title: Enactor::apply_reli_strategy Pages: 1 -->
<svg width="396pt" height="39pt"
 viewBox="0.00 0.00 396.00 39.00" xmlns="http://www.w3.org/2000/svg" xmlns:xlink="http://www.w3.org/1999/xlink">
<g id="graph0" class="graph" transform="scale(1 1) rotate(0) translate(4 35)">
<title>Enactor::apply_reli_strategy</title>
<polygon fill="#ffffff" stroke="transparent" points="-4,4 -4,-35 392,-35 392,4 -4,4"/>
<!-- Node9 -->
<g id="node1" class="node">
<title>Node9</title>
<polygon fill="#bfbfbf" stroke="#000000" points="0,-.5 0,-30.5 107,-30.5 107,-.5 0,-.5"/>
<text text-anchor="start" x="8" y="-18.5" font-family="Helvetica,sans-Serif" font-size="10.00" fill="#000000">Enactor::apply_reli</text>
<text text-anchor="middle" x="53.5" y="-7.5" font-family="Helvetica,sans-Serif" font-size="10.00" fill="#000000">_strategy</text>
</g>
<!-- Node10 -->
<g id="node2" class="node">
<title>Node10</title>
<g id="a_node2"><a xlink:href="classEnactor.html#a9e10c68a47e83737f8b45b9c504cdc97" target="_top" xlink:title="Enactor::receiveStatus">
<polygon fill="#ffffff" stroke="#000000" points="143,-6 143,-25 269,-25 269,-6 143,-6"/>
<text text-anchor="middle" x="206" y="-13" font-family="Helvetica,sans-Serif" font-size="10.00" fill="#000000">Enactor::receiveStatus</text>
</a>
</g>
</g>
<!-- Node9&#45;&gt;Node10 -->
<g id="edge1" class="edge">
<title>Node9&#45;&gt;Node10</title>
<path fill="none" stroke="#191970" d="M117.3897,-15.5C125.7965,-15.5 134.4093,-15.5 142.8044,-15.5"/>
<polygon fill="#191970" stroke="#191970" points="117.2658,-12.0001 107.2658,-15.5 117.2658,-19.0001 117.2658,-12.0001"/>
</g>
<!-- Node11 -->
<g id="node3" class="node">
<title>Node11</title>
<g id="a_node3"><a xlink:href="classEnactor.html#abd25ade60e175a09b8a71f2d0c87c7d1" target="_top" xlink:title="Enactor::body">
<polygon fill="#ffffff" stroke="#000000" points="305,-6 305,-25 388,-25 388,-6 305,-6"/>
<text text-anchor="middle" x="346.5" y="-13" font-family="Helvetica,sans-Serif" font-size="10.00" fill="#000000">Enactor::body</text>
</a>
</g>
</g>
<!-- Node10&#45;&gt;Node11 -->
<g id="edge2" class="edge">
<title>Node10&#45;&gt;Node11</title>
<path fill="none" stroke="#191970" d="M279.4983,-15.5C288.2188,-15.5 296.8724,-15.5 304.9201,-15.5"/>
<polygon fill="#191970" stroke="#191970" points="279.2628,-12.0001 269.2627,-15.5 279.2627,-19.0001 279.2628,-12.0001"/>
</g>
</g>
</svg>
