<?xml version="1.0" encoding="UTF-8" standalone="no"?>
<!DOCTYPE svg PUBLIC "-//W3C//DTD SVG 1.1//EN"
 "http://www.w3.org/Graphics/SVG/1.1/DTD/svg11.dtd">
<!-- Generated by graphviz version 2.40.1 (20161225.0304)
 -->
<!-- Title: ReliabilityEngine::plan Pages: 1 -->
<svg width="413pt" height="39pt"
 viewBox="0.00 0.00 413.00 39.00" xmlns="http://www.w3.org/2000/svg" xmlns:xlink="http://www.w3.org/1999/xlink">
<g id="graph0" class="graph" transform="scale(1 1) rotate(0) translate(4 35)">
<title>ReliabilityEngine::plan</title>
<polygon fill="#ffffff" stroke="transparent" points="-4,4 -4,-35 409,-35 409,4 -4,4"/>
<!-- Node40 -->
<g id="node1" class="node">
<title>Node40</title>
<polygon fill="#bfbfbf" stroke="#000000" points="0,-6 0,-25 125,-25 125,-6 0,-6"/>
<text text-anchor="middle" x="62.5" y="-13" font-family="Helvetica,sans-Serif" font-size="10.00" fill="#000000">ReliabilityEngine::plan</text>
</g>
<!-- Node41 -->
<g id="node2" class="node">
<title>Node41</title>
<g id="a_node2"><a xlink:href="classReliabilityEngine.html#a2fb81703ab556e8418389e4483ceaaed" target="_top" xlink:title="ReliabilityEngine::\lanalyze">
<polygon fill="#ffffff" stroke="#000000" points="161,-.5 161,-30.5 265,-30.5 265,-.5 161,-.5"/>
<text text-anchor="start" x="169" y="-18.5" font-family="Helvetica,sans-Serif" font-size="10.00" fill="#000000">ReliabilityEngine::</text>
<text text-anchor="middle" x="213" y="-7.5" font-family="Helvetica,sans-Serif" font-size="10.00" fill="#000000">analyze</text>
</a>
</g>
</g>
<!-- Node40&#45;&gt;Node41 -->
<g id="edge1" class="edge">
<title>Node40&#45;&gt;Node41</title>
<path fill="none" stroke="#191970" d="M135.18,-15.5C143.8781,-15.5 152.6221,-15.5 160.9463,-15.5"/>
<polygon fill="#191970" stroke="#191970" points="135.0181,-12.0001 125.0181,-15.5 135.018,-19.0001 135.0181,-12.0001"/>
</g>
<!-- Node42 -->
<g id="node3" class="node">
<title>Node42</title>
<g id="a_node3"><a xlink:href="classReliabilityEngine.html#afe74f85b5bb905500dec2f93586e0045" target="_top" xlink:title="ReliabilityEngine::\lmonitor">
<polygon fill="#ffffff" stroke="#000000" points="301,-.5 301,-30.5 405,-30.5 405,-.5 301,-.5"/>
<text text-anchor="start" x="309" y="-18.5" font-family="Helvetica,sans-Serif" font-size="10.00" fill="#000000">ReliabilityEngine::</text>
<text text-anchor="middle" x="353" y="-7.5" font-family="Helvetica,sans-Serif" font-size="10.00" fill="#000000">monitor</text>
</a>
</g>
</g>
<!-- Node41&#45;&gt;Node42 -->
<g id="edge2" class="edge">
<title>Node41&#45;&gt;Node42</title>
<path fill="none" stroke="#191970" d="M275.3869,-15.5C283.8847,-15.5 292.5339,-15.5 300.8256,-15.5"/>
<polygon fill="#191970" stroke="#191970" points="275.1309,-12.0001 265.1308,-15.5 275.1308,-19.0001 275.1309,-12.0001"/>
</g>
</g>
</svg>
