<?xml version="1.0" encoding="UTF-8" standalone="no"?>
<!DOCTYPE svg PUBLIC "-//W3C//DTD SVG 1.1//EN"
 "http://www.w3.org/Graphics/SVG/1.1/DTD/svg11.dtd">
<!-- Generated by graphviz version 2.40.1 (20161225.0304)
 -->
<!-- Title: Sensor::process Pages: 1 -->
<svg width="401pt" height="28pt"
 viewBox="0.00 0.00 401.00 28.00" xmlns="http://www.w3.org/2000/svg" xmlns:xlink="http://www.w3.org/1999/xlink">
<g id="graph0" class="graph" transform="scale(1 1) rotate(0) translate(4 24)">
<title>Sensor::process</title>
<polygon fill="#ffffff" stroke="transparent" points="-4,4 -4,-24 397,-24 397,4 -4,4"/>
<!-- Node42 -->
<g id="node1" class="node">
<title>Node42</title>
<polygon fill="#bfbfbf" stroke="#000000" points="0,-.5 0,-19.5 93,-19.5 93,-.5 0,-.5"/>
<text text-anchor="middle" x="46.5" y="-7.5" font-family="Helvetica,sans-Serif" font-size="10.00" fill="#000000">Sensor::process</text>
</g>
<!-- Node43 -->
<g id="node2" class="node">
<title>Node43</title>
<g id="a_node2"><a xlink:href="classSensor.html#a043dabb8b92f70fc247d585b8d66e133" target="_top" xlink:title="Sensor::body">
<polygon fill="#ffffff" stroke="#000000" points="129,-.5 129,-19.5 209,-19.5 209,-.5 129,-.5"/>
<text text-anchor="middle" x="169" y="-7.5" font-family="Helvetica,sans-Serif" font-size="10.00" fill="#000000">Sensor::body</text>
</a>
</g>
</g>
<!-- Node42&#45;&gt;Node43 -->
<g id="edge1" class="edge">
<title>Node42&#45;&gt;Node43</title>
<path fill="none" stroke="#191970" d="M103.2272,-10C111.8848,-10 120.6635,-10 128.8664,-10"/>
<polygon fill="#191970" stroke="#191970" points="103.1615,-6.5001 93.1615,-10 103.1614,-13.5001 103.1615,-6.5001"/>
</g>
<!-- Node44 -->
<g id="node3" class="node">
<title>Node44</title>
<g id="a_node3"><a xlink:href="classSensor.html#a1a664cdb090cb4295bbdedcffb1c8499" target="_top" xlink:title="Sensor::run">
<polygon fill="#ffffff" stroke="#000000" points="245,-.5 245,-19.5 316,-19.5 316,-.5 245,-.5"/>
<text text-anchor="middle" x="280.5" y="-7.5" font-family="Helvetica,sans-Serif" font-size="10.00" fill="#000000">Sensor::run</text>
</a>
</g>
</g>
<!-- Node43&#45;&gt;Node44 -->
<g id="edge2" class="edge">
<title>Node43&#45;&gt;Node44</title>
<path fill="none" stroke="#191970" d="M219.5053,-10C228.0207,-10 236.7008,-10 244.7414,-10"/>
<polygon fill="#191970" stroke="#191970" points="219.2541,-6.5001 209.2541,-10 219.254,-13.5001 219.2541,-6.5001"/>
</g>
<!-- Node45 -->
<g id="node4" class="node">
<title>Node45</title>
<g id="a_node4"><a xlink:href="g3t1__1_8cpp.html#a3c04138a5bfe5d72780bb7e82a18e627" target="_top" xlink:title="main">
<polygon fill="#ffffff" stroke="#000000" points="352,-.5 352,-19.5 393,-19.5 393,-.5 352,-.5"/>
<text text-anchor="middle" x="372.5" y="-7.5" font-family="Helvetica,sans-Serif" font-size="10.00" fill="#000000">main</text>
</a>
</g>
</g>
<!-- Node44&#45;&gt;Node45 -->
<g id="edge3" class="edge">
<title>Node44&#45;&gt;Node45</title>
<path fill="none" stroke="#191970" d="M326.1796,-10C335.206,-10 344.2489,-10 351.9178,-10"/>
<polygon fill="#191970" stroke="#191970" points="326.0696,-6.5001 316.0696,-10 326.0696,-13.5001 326.0696,-6.5001"/>
</g>
</g>
</svg>
