<?xml version="1.0" encoding="UTF-8" standalone="no"?>
<!DOCTYPE svg PUBLIC "-//W3C//DTD SVG 1.1//EN"
 "http://www.w3.org/Graphics/SVG/1.1/DTD/svg11.dtd">
<!-- Generated by graphviz version 2.40.1 (20161225.0304)
 -->
<!-- Title: CostEngine::analyze Pages: 1 -->
<svg width="568pt" height="127pt"
 viewBox="0.00 0.00 568.00 126.50" xmlns="http://www.w3.org/2000/svg" xmlns:xlink="http://www.w3.org/1999/xlink">
<g id="graph0" class="graph" transform="scale(1 1) rotate(0) translate(4 122.5)">
<title>CostEngine::analyze</title>
<polygon fill="#ffffff" stroke="transparent" points="-4,4 -4,-122.5 564,-122.5 564,4 -4,4"/>
<!-- Node4 -->
<g id="node1" class="node">
<title>Node4</title>
<polygon fill="#bfbfbf" stroke="#000000" points="0,-25.5 0,-44.5 116,-44.5 116,-25.5 0,-25.5"/>
<text text-anchor="middle" x="58" y="-32.5" font-family="Helvetica,sans-Serif" font-size="10.00" fill="#000000">CostEngine::analyze</text>
</g>
<!-- Node5 -->
<g id="node2" class="node">
<title>Node5</title>
<g id="a_node2"><a xlink:href="classEngine.html#a6b7b458cd4067230dfe02585ce00ab5b" target="_top" xlink:title="Engine::calculate_qos">
<polygon fill="#ffffff" stroke="#000000" points="286,-44.5 286,-63.5 408,-63.5 408,-44.5 286,-44.5"/>
<text text-anchor="middle" x="347" y="-51.5" font-family="Helvetica,sans-Serif" font-size="10.00" fill="#000000">Engine::calculate_qos</text>
</a>
</g>
</g>
<!-- Node4&#45;&gt;Node5 -->
<g id="edge1" class="edge">
<title>Node4&#45;&gt;Node5</title>
<path fill="none" stroke="#191970" d="M116.1358,-38.8221C162.1471,-41.847 226.6111,-46.0852 275.7301,-49.3144"/>
<polygon fill="#191970" stroke="#191970" points="275.7584,-52.8238 285.9665,-49.9874 276.2177,-45.8388 275.7584,-52.8238"/>
</g>
<!-- Node8 -->
<g id="node5" class="node">
<title>Node8</title>
<g id="a_node5"><a xlink:href="classCostEngine.html#aca556d9a4dd63201a41c04498b4f2e3d" target="_top" xlink:title="CostEngine::plan">
<polygon fill="#ffffff" stroke="#000000" points="152,-6.5 152,-25.5 250,-25.5 250,-6.5 152,-6.5"/>
<text text-anchor="middle" x="201" y="-13.5" font-family="Helvetica,sans-Serif" font-size="10.00" fill="#000000">CostEngine::plan</text>
</a>
</g>
</g>
<!-- Node4&#45;&gt;Node8 -->
<g id="edge4" class="edge">
<title>Node4&#45;&gt;Node8</title>
<path fill="none" stroke="#191970" d="M116.1636,-27.272C124.5195,-26.1617 133.1274,-25.018 141.5086,-23.9045"/>
<polygon fill="#191970" stroke="#191970" points="142.1354,-27.352 151.5873,-22.5653 141.2134,-20.413 142.1354,-27.352"/>
</g>
<!-- Node6 -->
<g id="node3" class="node">
<title>Node6</title>
<g id="a_node3"><a xlink:href="classbsn_1_1model_1_1Formula.html#a49ea44acf0d7c9355d8134de7f3d7a3b" target="_top" xlink:title="bsn::model::Formula\l::setTermValueMap">
<polygon fill="#ffffff" stroke="#000000" points="444,-88 444,-118 560,-118 560,-88 444,-88"/>
<text text-anchor="start" x="452" y="-106" font-family="Helvetica,sans-Serif" font-size="10.00" fill="#000000">bsn::model::Formula</text>
<text text-anchor="middle" x="502" y="-95" font-family="Helvetica,sans-Serif" font-size="10.00" fill="#000000">::setTermValueMap</text>
</a>
</g>
</g>
<!-- Node5&#45;&gt;Node6 -->
<g id="edge2" class="edge">
<title>Node5&#45;&gt;Node6</title>
<path fill="none" stroke="#191970" d="M377.2535,-63.564C396.4486,-69.6321 421.8965,-77.677 444.7998,-84.9174"/>
<polygon fill="#191970" stroke="#191970" points="443.8442,-88.2859 454.4341,-87.963 445.9542,-81.6115 443.8442,-88.2859"/>
</g>
<!-- Node7 -->
<g id="node4" class="node">
<title>Node7</title>
<g id="a_node4"><a xlink:href="classbsn_1_1model_1_1Formula.html#afa267bb9172a038543604912d0b23ce8" target="_top" xlink:title="bsn::model::Formula\l::evaluate">
<polygon fill="#ffffff" stroke="#000000" points="444,-39 444,-69 560,-69 560,-39 444,-39"/>
<text text-anchor="start" x="452" y="-57" font-family="Helvetica,sans-Serif" font-size="10.00" fill="#000000">bsn::model::Formula</text>
<text text-anchor="middle" x="502" y="-46" font-family="Helvetica,sans-Serif" font-size="10.00" fill="#000000">::evaluate</text>
</a>
</g>
</g>
<!-- Node5&#45;&gt;Node7 -->
<g id="edge3" class="edge">
<title>Node5&#45;&gt;Node7</title>
<path fill="none" stroke="#191970" d="M408.2601,-54C416.6222,-54 425.2484,-54 433.7253,-54"/>
<polygon fill="#191970" stroke="#191970" points="433.9634,-57.5001 443.9634,-54 433.9633,-50.5001 433.9634,-57.5001"/>
</g>
<!-- Node8&#45;&gt;Node5 -->
<g id="edge5" class="edge">
<title>Node8&#45;&gt;Node5</title>
<path fill="none" stroke="#191970" d="M237.842,-25.589C256.8479,-30.5358 280.2286,-36.6211 300.4692,-41.8892"/>
<polygon fill="#191970" stroke="#191970" points="299.8638,-45.3482 310.423,-44.4799 301.627,-38.5739 299.8638,-45.3482"/>
</g>
<!-- Node9 -->
<g id="node6" class="node">
<title>Node9</title>
<g id="a_node6"><a xlink:href="classCostEngine.html#af1d8ce6fb8bfdb627e60879e98e929df" target="_top" xlink:title="CostEngine::execute">
<polygon fill="#ffffff" stroke="#000000" points="289,-3.5 289,-22.5 405,-22.5 405,-3.5 289,-3.5"/>
<text text-anchor="middle" x="347" y="-10.5" font-family="Helvetica,sans-Serif" font-size="10.00" fill="#000000">CostEngine::execute</text>
</a>
</g>
</g>
<!-- Node8&#45;&gt;Node9 -->
<g id="edge6" class="edge">
<title>Node8&#45;&gt;Node9</title>
<path fill="none" stroke="#191970" d="M250.022,-14.9927C259.2446,-14.8032 269.0415,-14.6019 278.727,-14.4029"/>
<polygon fill="#191970" stroke="#191970" points="278.8252,-17.9017 288.7512,-14.1969 278.6813,-10.9032 278.8252,-17.9017"/>
</g>
<!-- Node10 -->
<g id="node7" class="node">
<title>Node10</title>
<g id="a_node7"><a xlink:href="namespacebsn_1_1utils.html#a4ab7be3d27380abe032f4ceec86b09b2" target="_top" xlink:title="bsn::utils::split">
<polygon fill="#ffffff" stroke="#000000" points="458,-.5 458,-19.5 546,-19.5 546,-.5 458,-.5"/>
<text text-anchor="middle" x="502" y="-7.5" font-family="Helvetica,sans-Serif" font-size="10.00" fill="#000000">bsn::utils::split</text>
</a>
</g>
</g>
<!-- Node9&#45;&gt;Node10 -->
<g id="edge7" class="edge">
<title>Node9&#45;&gt;Node10</title>
<path fill="none" stroke="#191970" d="M405.1573,-11.8744C418.9848,-11.6067 433.69,-11.3221 447.3542,-11.0577"/>
<polygon fill="#191970" stroke="#191970" points="447.6383,-14.5529 457.5686,-10.86 447.5027,-7.5542 447.6383,-14.5529"/>
</g>
</g>
</svg>
