<?xml version="1.0" encoding="UTF-8" standalone="no"?>
<!DOCTYPE svg PUBLIC "-//W3C//DTD SVG 1.1//EN"
 "http://www.w3.org/Graphics/SVG/1.1/DTD/svg11.dtd">
<!-- Generated by graphviz version 2.40.1 (20161225.0304)
 -->
<!-- Title: Engine::setUp Pages: 1 -->
<svg width="234pt" height="78pt"
 viewBox="0.00 0.00 234.00 77.50" xmlns="http://www.w3.org/2000/svg" xmlns:xlink="http://www.w3.org/1999/xlink">
<g id="graph0" class="graph" transform="scale(1 1) rotate(0) translate(4 73.5)">
<title>Engine::setUp</title>
<polygon fill="#ffffff" stroke="transparent" points="-4,4 -4,-73.5 230,-73.5 230,4 -4,4"/>
<!-- Node90 -->
<g id="node1" class="node">
<title>Node90</title>
<polygon fill="#bfbfbf" stroke="#000000" points="0,-28 0,-47 84,-47 84,-28 0,-28"/>
<text text-anchor="middle" x="42" y="-35" font-family="Helvetica,sans-Serif" font-size="10.00" fill="#000000">Engine::setUp</text>
</g>
<!-- Node91 -->
<g id="node2" class="node">
<title>Node91</title>
<g id="a_node2"><a xlink:href="classCostEngine.html#abf2d8b5da61c0c372c6d632d9a55e832" target="_top" xlink:title="CostEngine::setUp">
<polygon fill="#ffffff" stroke="#000000" points="120,-50 120,-69 226,-69 226,-50 120,-50"/>
<text text-anchor="middle" x="173" y="-57" font-family="Helvetica,sans-Serif" font-size="10.00" fill="#000000">CostEngine::setUp</text>
</a>
</g>
</g>
<!-- Node90&#45;&gt;Node91 -->
<g id="edge1" class="edge">
<title>Node90&#45;&gt;Node91</title>
<path fill="none" stroke="#191970" d="M94.2601,-46.2765C102.6884,-47.692 111.4221,-49.1587 119.8707,-50.5775"/>
<polygon fill="#191970" stroke="#191970" points="94.6119,-42.7866 84.1703,-44.582 93.4525,-49.69 94.6119,-42.7866"/>
</g>
<!-- Node92 -->
<g id="node3" class="node">
<title>Node92</title>
<g id="a_node3"><a xlink:href="classReliabilityEngine.html#ad5323671d1e8645df2e0f7d9772bf806" target="_top" xlink:title="ReliabilityEngine::\lsetUp">
<polygon fill="#ffffff" stroke="#000000" points="121,-.5 121,-30.5 225,-30.5 225,-.5 121,-.5"/>
<text text-anchor="start" x="129" y="-18.5" font-family="Helvetica,sans-Serif" font-size="10.00" fill="#000000">ReliabilityEngine::</text>
<text text-anchor="middle" x="173" y="-7.5" font-family="Helvetica,sans-Serif" font-size="10.00" fill="#000000">setUp</text>
</a>
</g>
</g>
<!-- Node90&#45;&gt;Node92 -->
<g id="edge2" class="edge">
<title>Node90&#45;&gt;Node92</title>
<path fill="none" stroke="#191970" d="M94.2454,-28.726C102.9903,-27.2574 112.0642,-25.7335 120.8077,-24.2651"/>
<polygon fill="#191970" stroke="#191970" points="93.4525,-25.31 84.1703,-30.418 94.6119,-32.2134 93.4525,-25.31"/>
</g>
</g>
</svg>
