<?xml version="1.0" encoding="UTF-8" standalone="no"?>
<!DOCTYPE svg PUBLIC "-//W3C//DTD SVG 1.1//EN"
 "http://www.w3.org/Graphics/SVG/1.1/DTD/svg11.dtd">
<!-- Generated by graphviz version 2.40.1 (20161225.0304)
 -->
<!-- Title: G3T1_6::collect Pages: 1 -->
<svg width="577pt" height="192pt"
 viewBox="0.00 0.00 577.00 192.00" xmlns="http://www.w3.org/2000/svg" xmlns:xlink="http://www.w3.org/1999/xlink">
<g id="graph0" class="graph" transform="scale(1 1) rotate(0) translate(4 188)">
<title>G3T1_6::collect</title>
<polygon fill="#ffffff" stroke="transparent" points="-4,4 -4,-188 573,-188 573,4 -4,4"/>
<!-- Node4 -->
<g id="node1" class="node">
<title>Node4</title>
<polygon fill="#bfbfbf" stroke="#000000" points="0,-131 0,-150 92,-150 92,-131 0,-131"/>
<text text-anchor="middle" x="46" y="-138" font-family="Helvetica,sans-Serif" font-size="10.00" fill="#000000">G3T1_6::collect</text>
</g>
<!-- Node5 -->
<g id="node2" class="node">
<title>Node5</title>
<g id="a_node2"><a xlink:href="classbsn_1_1resource_1_1Battery.html#aedd16b53e50acce84e3f77dfd6d38e74" target="_top" xlink:title="bsn::resource::Battery\l::consume">
<polygon fill="#ffffff" stroke="#000000" points="128,-153.5 128,-183.5 252,-183.5 252,-153.5 128,-153.5"/>
<text text-anchor="start" x="136" y="-171.5" font-family="Helvetica,sans-Serif" font-size="10.00" fill="#000000">bsn::resource::Battery</text>
<text text-anchor="middle" x="190" y="-160.5" font-family="Helvetica,sans-Serif" font-size="10.00" fill="#000000">::consume</text>
</a>
</g>
</g>
<!-- Node4&#45;&gt;Node5 -->
<g id="edge1" class="edge">
<title>Node4&#45;&gt;Node5</title>
<path fill="none" stroke="#191970" d="M92.3551,-149.5135C100.5988,-151.1164 109.3584,-152.8197 118.1157,-154.5225"/>
<polygon fill="#191970" stroke="#191970" points="117.4902,-157.9664 127.9744,-156.4395 118.8264,-151.095 117.4902,-157.9664"/>
</g>
<!-- Node6 -->
<g id="node3" class="node">
<title>Node6</title>
<g id="a_node3"><a xlink:href="classbsn_1_1configuration_1_1SensorConfiguration.html#a74040e24635beeffd7067a23c5bb91ab" target="_top" xlink:title="bsn::configuration\l::SensorConfiguration\l::evaluateNumber">
<polygon fill="#ffffff" stroke="#000000" points="129.5,-93 129.5,-134 250.5,-134 250.5,-93 129.5,-93"/>
<text text-anchor="start" x="137.5" y="-122" font-family="Helvetica,sans-Serif" font-size="10.00" fill="#000000">bsn::configuration</text>
<text text-anchor="start" x="137.5" y="-111" font-family="Helvetica,sans-Serif" font-size="10.00" fill="#000000">::SensorConfiguration</text>
<text text-anchor="middle" x="190" y="-100" font-family="Helvetica,sans-Serif" font-size="10.00" fill="#000000">::evaluateNumber</text>
</a>
</g>
</g>
<!-- Node4&#45;&gt;Node6 -->
<g id="edge2" class="edge">
<title>Node4&#45;&gt;Node6</title>
<path fill="none" stroke="#191970" d="M92.3551,-131.8084C100.9894,-130.1895 110.1895,-128.4645 119.3603,-126.7449"/>
<polygon fill="#191970" stroke="#191970" points="120.0881,-130.1696 129.2718,-124.8865 118.798,-123.2895 120.0881,-130.1696"/>
</g>
<!-- Node7 -->
<g id="node4" class="node">
<title>Node7</title>
<g id="a_node4"><a xlink:href="classbsn_1_1range_1_1Range.html#a803a947a39a06176384e00e2ad758ec9" target="_top" xlink:title="bsn::range::Range::\lin_range">
<polygon fill="#ffffff" stroke="#000000" points="300.5,-153.5 300.5,-183.5 410.5,-183.5 410.5,-153.5 300.5,-153.5"/>
<text text-anchor="start" x="308.5" y="-171.5" font-family="Helvetica,sans-Serif" font-size="10.00" fill="#000000">bsn::range::Range::</text>
<text text-anchor="middle" x="355.5" y="-160.5" font-family="Helvetica,sans-Serif" font-size="10.00" fill="#000000">in_range</text>
</a>
</g>
</g>
<!-- Node6&#45;&gt;Node7 -->
<g id="edge3" class="edge">
<title>Node6&#45;&gt;Node7</title>
<path fill="none" stroke="#191970" d="M250.6863,-133.6677C266.9589,-139.0755 284.4595,-144.8914 300.4106,-150.1924"/>
<polygon fill="#191970" stroke="#191970" points="299.5239,-153.5858 310.1174,-153.4182 301.7315,-146.943 299.5239,-153.5858"/>
</g>
<!-- Node8 -->
<g id="node5" class="node">
<title>Node8</title>
<g id="a_node5"><a xlink:href="classbsn_1_1configuration_1_1SensorConfiguration.html#aab092b8b249eda7ee53a38ec45ba9421" target="_top" xlink:title="bsn::configuration\l::SensorConfiguration\l::getDisplacement">
<polygon fill="#ffffff" stroke="#000000" points="295,-93 295,-134 416,-134 416,-93 295,-93"/>
<text text-anchor="start" x="303" y="-122" font-family="Helvetica,sans-Serif" font-size="10.00" fill="#000000">bsn::configuration</text>
<text text-anchor="start" x="303" y="-111" font-family="Helvetica,sans-Serif" font-size="10.00" fill="#000000">::SensorConfiguration</text>
<text text-anchor="middle" x="355.5" y="-100" font-family="Helvetica,sans-Serif" font-size="10.00" fill="#000000">::getDisplacement</text>
</a>
</g>
</g>
<!-- Node6&#45;&gt;Node8 -->
<g id="edge4" class="edge">
<title>Node6&#45;&gt;Node8</title>
<path fill="none" stroke="#191970" d="M250.6863,-113.5C261.7048,-113.5 273.2863,-113.5 284.5686,-113.5"/>
<polygon fill="#191970" stroke="#191970" points="284.821,-117.0001 294.821,-113.5 284.821,-110.0001 284.821,-117.0001"/>
</g>
<!-- Node11 -->
<g id="node8" class="node">
<title>Node11</title>
<g id="a_node8"><a xlink:href="classbsn_1_1configuration_1_1SensorConfiguration.html#aeb452f9154ebbc75bd54564fa0f94430" target="_top" xlink:title="bsn::configuration\l::SensorConfiguration\l::convertRealPercentage">
<polygon fill="#ffffff" stroke="#000000" points="288,-33 288,-74 423,-74 423,-33 288,-33"/>
<text text-anchor="start" x="296" y="-62" font-family="Helvetica,sans-Serif" font-size="10.00" fill="#000000">bsn::configuration</text>
<text text-anchor="start" x="296" y="-51" font-family="Helvetica,sans-Serif" font-size="10.00" fill="#000000">::SensorConfiguration</text>
<text text-anchor="middle" x="355.5" y="-40" font-family="Helvetica,sans-Serif" font-size="10.00" fill="#000000">::convertRealPercentage</text>
</a>
</g>
</g>
<!-- Node6&#45;&gt;Node11 -->
<g id="edge7" class="edge">
<title>Node6&#45;&gt;Node11</title>
<path fill="none" stroke="#191970" d="M246.9557,-92.8514C260.5545,-87.9213 275.1859,-82.6169 289.166,-77.5486"/>
<polygon fill="#191970" stroke="#191970" points="290.5115,-80.7838 298.7198,-74.085 288.1256,-74.2029 290.5115,-80.7838"/>
</g>
<!-- Node9 -->
<g id="node6" class="node">
<title>Node9</title>
<g id="a_node6"><a xlink:href="classbsn_1_1range_1_1Range.html#a0785d0aa7d5463bcdd3842089069a2e7" target="_top" xlink:title="bsn::range::Range::\lgetLowerBound">
<polygon fill="#ffffff" stroke="#000000" points="459,-49.5 459,-79.5 569,-79.5 569,-49.5 459,-49.5"/>
<text text-anchor="start" x="467" y="-67.5" font-family="Helvetica,sans-Serif" font-size="10.00" fill="#000000">bsn::range::Range::</text>
<text text-anchor="middle" x="514" y="-56.5" font-family="Helvetica,sans-Serif" font-size="10.00" fill="#000000">getLowerBound</text>
</a>
</g>
</g>
<!-- Node8&#45;&gt;Node9 -->
<g id="edge5" class="edge">
<title>Node8&#45;&gt;Node9</title>
<path fill="none" stroke="#191970" d="M416.3269,-94.6955C429.2665,-90.6952 442.8998,-86.4805 455.7407,-82.5108"/>
<polygon fill="#191970" stroke="#191970" points="456.861,-85.8279 465.3811,-79.5304 454.7935,-79.1402 456.861,-85.8279"/>
</g>
<!-- Node10 -->
<g id="node7" class="node">
<title>Node10</title>
<g id="a_node7"><a xlink:href="classbsn_1_1range_1_1Range.html#a540c2181ec15a65b189a7fb89659f388" target="_top" xlink:title="bsn::range::Range::\lgetUpperBound">
<polygon fill="#ffffff" stroke="#000000" points="459,-98.5 459,-128.5 569,-128.5 569,-98.5 459,-98.5"/>
<text text-anchor="start" x="467" y="-116.5" font-family="Helvetica,sans-Serif" font-size="10.00" fill="#000000">bsn::range::Range::</text>
<text text-anchor="middle" x="514" y="-105.5" font-family="Helvetica,sans-Serif" font-size="10.00" fill="#000000">getUpperBound</text>
</a>
</g>
</g>
<!-- Node8&#45;&gt;Node10 -->
<g id="edge6" class="edge">
<title>Node8&#45;&gt;Node10</title>
<path fill="none" stroke="#191970" d="M416.3269,-113.5C426.9121,-113.5 437.9615,-113.5 448.6616,-113.5"/>
<polygon fill="#191970" stroke="#191970" points="448.7869,-117.0001 458.7869,-113.5 448.7869,-110.0001 448.7869,-117.0001"/>
</g>
<!-- Node11&#45;&gt;Node9 -->
<g id="edge8" class="edge">
<title>Node11&#45;&gt;Node9</title>
<path fill="none" stroke="#191970" d="M423.178,-58.1969C431.6722,-58.7864 440.3477,-59.3885 448.8028,-59.9753"/>
<polygon fill="#191970" stroke="#191970" points="448.7613,-63.4807 458.9797,-60.6816 449.246,-56.4975 448.7613,-63.4807"/>
</g>
<!-- Node11&#45;&gt;Node10 -->
<g id="edge9" class="edge">
<title>Node11&#45;&gt;Node10</title>
<path fill="none" stroke="#191970" d="M410.0467,-74.1486C427.8779,-80.8986 447.5629,-88.3503 464.9628,-94.937"/>
<polygon fill="#191970" stroke="#191970" points="463.7765,-98.2303 474.368,-98.4973 466.2548,-91.6836 463.7765,-98.2303"/>
</g>
<!-- Node12 -->
<g id="node9" class="node">
<title>Node12</title>
<g id="a_node9"><a xlink:href="classbsn_1_1range_1_1Range.html#ab8b7c15c1b6dc5c0e2c57b968271ac3b" target="_top" xlink:title="bsn::range::Range::\lconvert">
<polygon fill="#ffffff" stroke="#000000" points="459,-.5 459,-30.5 569,-30.5 569,-.5 459,-.5"/>
<text text-anchor="start" x="467" y="-18.5" font-family="Helvetica,sans-Serif" font-size="10.00" fill="#000000">bsn::range::Range::</text>
<text text-anchor="middle" x="514" y="-7.5" font-family="Helvetica,sans-Serif" font-size="10.00" fill="#000000">convert</text>
</a>
</g>
</g>
<!-- Node11&#45;&gt;Node12 -->
<g id="edge10" class="edge">
<title>Node11&#45;&gt;Node12</title>
<path fill="none" stroke="#191970" d="M423.178,-37.2744C431.7656,-35.2155 440.5384,-33.1122 449.0814,-31.0641"/>
<polygon fill="#191970" stroke="#191970" points="450.0713,-34.426 458.9797,-28.691 448.4392,-27.6189 450.0713,-34.426"/>
</g>
</g>
</svg>
