<?xml version="1.0" encoding="UTF-8" standalone="no"?>
<!DOCTYPE svg PUBLIC "-//W3C//DTD SVG 1.1//EN"
 "http://www.w3.org/Graphics/SVG/1.1/DTD/svg11.dtd">
<!-- Generated by graphviz version 2.40.1 (20161225.0304)
 -->
<!-- Title: arch::target_system::Probe::setUp Pages: 1 -->
<svg width="328pt" height="39pt"
 viewBox="0.00 0.00 328.00 39.00" xmlns="http://www.w3.org/2000/svg" xmlns:xlink="http://www.w3.org/1999/xlink">
<g id="graph0" class="graph" transform="scale(1 1) rotate(0) translate(4 35)">
<title>arch::target_system::Probe::setUp</title>
<polygon fill="#ffffff" stroke="transparent" points="-4,4 -4,-35 324,-35 324,4 -4,4"/>
<!-- Node18 -->
<g id="node1" class="node">
<title>Node18</title>
<polygon fill="#bfbfbf" stroke="#000000" points="0,-.5 0,-30.5 114,-30.5 114,-.5 0,-.5"/>
<text text-anchor="start" x="8" y="-18.5" font-family="Helvetica,sans-Serif" font-size="10.00" fill="#000000">arch::target_system</text>
<text text-anchor="middle" x="57" y="-7.5" font-family="Helvetica,sans-Serif" font-size="10.00" fill="#000000">::Probe::setUp</text>
</g>
<!-- Node19 -->
<g id="node2" class="node">
<title>Node19</title>
<g id="a_node2"><a xlink:href="classarch_1_1ROSComponentDescriptor.html#a6ae1f0c4c644bce7bc7e99e408dc7ca0" target="_top" xlink:title="arch::ROSComponentDescriptor\l::setFreq">
<polygon fill="#ffffff" stroke="#000000" points="150,-.5 150,-30.5 320,-30.5 320,-.5 150,-.5"/>
<text text-anchor="start" x="158" y="-18.5" font-family="Helvetica,sans-Serif" font-size="10.00" fill="#000000">arch::ROSComponentDescriptor</text>
<text text-anchor="middle" x="235" y="-7.5" font-family="Helvetica,sans-Serif" font-size="10.00" fill="#000000">::setFreq</text>
</a>
</g>
</g>
<!-- Node18&#45;&gt;Node19 -->
<g id="edge1" class="edge">
<title>Node18&#45;&gt;Node19</title>
<path fill="none" stroke="#191970" d="M114.3001,-15.5C122.4814,-15.5 131.0738,-15.5 139.7458,-15.5"/>
<polygon fill="#191970" stroke="#191970" points="139.9426,-19.0001 149.9426,-15.5 139.9425,-12.0001 139.9426,-19.0001"/>
</g>
</g>
</svg>
