<?xml version="1.0" encoding="UTF-8" standalone="no"?>
<!DOCTYPE svg PUBLIC "-//W3C//DTD SVG 1.1//EN"
 "http://www.w3.org/Graphics/SVG/1.1/DTD/svg11.dtd">
<!-- Generated by graphviz version 2.40.1 (20161225.0304)
 -->
<!-- Title: arch::target_system::Component::sendStatus Pages: 1 -->
<svg width="524pt" height="230pt"
 viewBox="0.00 0.00 524.00 229.50" xmlns="http://www.w3.org/2000/svg" xmlns:xlink="http://www.w3.org/1999/xlink">
<g id="graph0" class="graph" transform="scale(1 1) rotate(0) translate(4 225.5)">
<title>arch::target_system::Component::sendStatus</title>
<polygon fill="#ffffff" stroke="transparent" points="-4,4 -4,-225.5 520,-225.5 520,4 -4,4"/>
<!-- Node60 -->
<g id="node1" class="node">
<title>Node60</title>
<polygon fill="#bfbfbf" stroke="#000000" points="0,-90 0,-120 139,-120 139,-90 0,-90"/>
<text text-anchor="start" x="8" y="-108" font-family="Helvetica,sans-Serif" font-size="10.00" fill="#000000">arch::target_system</text>
<text text-anchor="middle" x="69.5" y="-97" font-family="Helvetica,sans-Serif" font-size="10.00" fill="#000000">::Component::sendStatus</text>
</g>
<!-- Node61 -->
<g id="node2" class="node">
<title>Node61</title>
<g id="a_node2"><a xlink:href="classarch_1_1target__system_1_1Component.html#a6a7bf2a65bcc78fc61167205509091a5" target="_top" xlink:title="arch::target_system\l::Component::setUp">
<polygon fill="#ffffff" stroke="#000000" points="175,-191 175,-221 289,-221 289,-191 175,-191"/>
<text text-anchor="start" x="183" y="-209" font-family="Helvetica,sans-Serif" font-size="10.00" fill="#000000">arch::target_system</text>
<text text-anchor="middle" x="232" y="-198" font-family="Helvetica,sans-Serif" font-size="10.00" fill="#000000">::Component::setUp</text>
</a>
</g>
</g>
<!-- Node60&#45;&gt;Node61 -->
<g id="edge1" class="edge">
<title>Node60&#45;&gt;Node61</title>
<path fill="none" stroke="#191970" d="M98.9014,-126.035C119.7633,-140.6492 148.6303,-160.2498 175,-176 183.5446,-181.1035 193.0373,-186.2845 201.7861,-190.8721"/>
<polygon fill="#191970" stroke="#191970" points="100.6721,-123.0011 90.4814,-120.1028 96.6405,-128.7235 100.6721,-123.0011"/>
</g>
<!-- Node62 -->
<g id="node3" class="node">
<title>Node62</title>
<g id="a_node3"><a xlink:href="classarch_1_1target__system_1_1Component.html#ac590323763a5ea9e7edf1a5e67f8a94f" target="_top" xlink:title="arch::target_system\l::Component::run">
<polygon fill="#ffffff" stroke="#000000" points="325,-169 325,-199 439,-199 439,-169 325,-169"/>
<text text-anchor="start" x="333" y="-187" font-family="Helvetica,sans-Serif" font-size="10.00" fill="#000000">arch::target_system</text>
<text text-anchor="middle" x="382" y="-176" font-family="Helvetica,sans-Serif" font-size="10.00" fill="#000000">::Component::run</text>
</a>
</g>
</g>
<!-- Node60&#45;&gt;Node62 -->
<g id="edge3" class="edge">
<title>Node60&#45;&gt;Node62</title>
<path fill="none" stroke="#191970" d="M138.8392,-122.529C194.7475,-136.6626 272.4265,-156.2998 324.8162,-169.5439"/>
<polygon fill="#191970" stroke="#191970" points="139.5673,-119.103 129.0144,-120.0452 137.8516,-125.8895 139.5673,-119.103"/>
</g>
<!-- Node63 -->
<g id="node4" class="node">
<title>Node63</title>
<g id="a_node4"><a xlink:href="classCentralHub.html#a388e947318a28cf7cac762ac8b1cf3d4" target="_top" xlink:title="CentralHub::run">
<polygon fill="#ffffff" stroke="#000000" points="335.5,-85.5 335.5,-104.5 428.5,-104.5 428.5,-85.5 335.5,-85.5"/>
<text text-anchor="middle" x="382" y="-92.5" font-family="Helvetica,sans-Serif" font-size="10.00" fill="#000000">CentralHub::run</text>
</a>
</g>
</g>
<!-- Node60&#45;&gt;Node63 -->
<g id="edge4" class="edge">
<title>Node60&#45;&gt;Node63</title>
<path fill="none" stroke="#191970" d="M149.3328,-107.0527C190.9887,-107.6044 242.7719,-107.4782 289,-105 304.0805,-104.1915 320.4776,-102.6508 335.2445,-101.0164"/>
<polygon fill="#191970" stroke="#191970" points="149.295,-103.5519 139.2442,-106.9034 149.1913,-110.5511 149.295,-103.5519"/>
</g>
<!-- Node65 -->
<g id="node6" class="node">
<title>Node65</title>
<g id="a_node6"><a xlink:href="classCentralHub.html#a48b13d52b79864e84eae5012108d3211" target="_top" xlink:title="CentralHub::body">
<polygon fill="#ffffff" stroke="#000000" points="181.5,-76.5 181.5,-95.5 282.5,-95.5 282.5,-76.5 181.5,-76.5"/>
<text text-anchor="middle" x="232" y="-83.5" font-family="Helvetica,sans-Serif" font-size="10.00" fill="#000000">CentralHub::body</text>
</a>
</g>
</g>
<!-- Node60&#45;&gt;Node65 -->
<g id="edge6" class="edge">
<title>Node60&#45;&gt;Node65</title>
<path fill="none" stroke="#191970" d="M149.3316,-95.6658C160.227,-94.3919 171.1564,-93.114 181.3358,-91.9238"/>
<polygon fill="#191970" stroke="#191970" points="148.8835,-92.1943 139.3577,-96.832 149.6965,-99.1469 148.8835,-92.1943"/>
</g>
<!-- Node66 -->
<g id="node7" class="node">
<title>Node66</title>
<g id="a_node7"><a xlink:href="classSensor.html#a1a664cdb090cb4295bbdedcffb1c8499" target="_top" xlink:title="Sensor::run">
<polygon fill="#ffffff" stroke="#000000" points="346.5,-28.5 346.5,-47.5 417.5,-47.5 417.5,-28.5 346.5,-28.5"/>
<text text-anchor="middle" x="382" y="-35.5" font-family="Helvetica,sans-Serif" font-size="10.00" fill="#000000">Sensor::run</text>
</a>
</g>
</g>
<!-- Node60&#45;&gt;Node66 -->
<g id="edge8" class="edge">
<title>Node60&#45;&gt;Node66</title>
<path fill="none" stroke="#191970" d="M115.1053,-86.2443C133.4543,-79.315 154.9758,-71.9524 175,-67 234.1815,-52.3631 304.8347,-44.4479 346.4157,-40.7357"/>
<polygon fill="#191970" stroke="#191970" points="113.6229,-83.0645 105.5466,-89.9218 116.1365,-89.5976 113.6229,-83.0645"/>
</g>
<!-- Node68 -->
<g id="node9" class="node">
<title>Node68</title>
<g id="a_node9"><a xlink:href="classSensor.html#a043dabb8b92f70fc247d585b8d66e133" target="_top" xlink:title="Sensor::body">
<polygon fill="#ffffff" stroke="#000000" points="192,-.5 192,-19.5 272,-19.5 272,-.5 192,-.5"/>
<text text-anchor="middle" x="232" y="-7.5" font-family="Helvetica,sans-Serif" font-size="10.00" fill="#000000">Sensor::body</text>
</a>
</g>
</g>
<!-- Node60&#45;&gt;Node68 -->
<g id="edge10" class="edge">
<title>Node60&#45;&gt;Node68</title>
<path fill="none" stroke="#191970" d="M97.7173,-83.8092C118.4426,-68.7995 147.6381,-48.7864 175,-34 184.9185,-28.64 196.2897,-23.6394 206.2534,-19.6051"/>
<polygon fill="#191970" stroke="#191970" points="95.388,-81.1766 89.3836,-89.9058 99.521,-86.8262 95.388,-81.1766"/>
</g>
<!-- Node61&#45;&gt;Node62 -->
<g id="edge2" class="edge">
<title>Node61&#45;&gt;Node62</title>
<path fill="none" stroke="#191970" d="M299.0332,-196.1685C307.5405,-194.9207 316.1861,-193.6527 324.5255,-192.4296"/>
<polygon fill="#191970" stroke="#191970" points="298.5227,-192.7058 289.1365,-197.62 299.5386,-199.6317 298.5227,-192.7058"/>
</g>
<!-- Node64 -->
<g id="node5" class="node">
<title>Node64</title>
<g id="a_node5"><a xlink:href="g4t1_8cpp.html#af19ddca125f05a2090dd132045573ee4" target="_top" xlink:title="main">
<polygon fill="#ffffff" stroke="#000000" points="475,-85.5 475,-104.5 516,-104.5 516,-85.5 475,-85.5"/>
<text text-anchor="middle" x="495.5" y="-92.5" font-family="Helvetica,sans-Serif" font-size="10.00" fill="#000000">main</text>
</a>
</g>
</g>
<!-- Node63&#45;&gt;Node64 -->
<g id="edge5" class="edge">
<title>Node63&#45;&gt;Node64</title>
<path fill="none" stroke="#191970" d="M439.0396,-95C451.8393,-95 464.6194,-95 474.7752,-95"/>
<polygon fill="#191970" stroke="#191970" points="438.8201,-91.5001 428.8201,-95 438.82,-98.5001 438.8201,-91.5001"/>
</g>
<!-- Node65&#45;&gt;Node63 -->
<g id="edge7" class="edge">
<title>Node65&#45;&gt;Node63</title>
<path fill="none" stroke="#191970" d="M292.9258,-89.6556C307.0645,-90.5039 321.8954,-91.3937 335.31,-92.1986"/>
<polygon fill="#191970" stroke="#191970" points="292.9749,-86.1523 282.7832,-89.047 292.5556,-93.1397 292.9749,-86.1523"/>
</g>
<!-- Node67 -->
<g id="node8" class="node">
<title>Node67</title>
<g id="a_node8"><a xlink:href="g3t1__1_8cpp.html#a3c04138a5bfe5d72780bb7e82a18e627" target="_top" xlink:title="main">
<polygon fill="#ffffff" stroke="#000000" points="475,-28.5 475,-47.5 516,-47.5 516,-28.5 475,-28.5"/>
<text text-anchor="middle" x="495.5" y="-35.5" font-family="Helvetica,sans-Serif" font-size="10.00" fill="#000000">main</text>
</a>
</g>
</g>
<!-- Node66&#45;&gt;Node67 -->
<g id="edge9" class="edge">
<title>Node66&#45;&gt;Node67</title>
<path fill="none" stroke="#191970" d="M428.0568,-38C444.3245,-38 461.8085,-38 474.8977,-38"/>
<polygon fill="#191970" stroke="#191970" points="427.6007,-34.5001 417.6007,-38 427.6007,-41.5001 427.6007,-34.5001"/>
</g>
<!-- Node68&#45;&gt;Node66 -->
<g id="edge11" class="edge">
<title>Node68&#45;&gt;Node66</title>
<path fill="none" stroke="#191970" d="M282.2373,-19.3776C303.2352,-23.2972 327.1501,-27.7614 346.3005,-31.3361"/>
<polygon fill="#191970" stroke="#191970" points="282.6697,-15.898 272.1972,-17.5035 281.3852,-22.7791 282.6697,-15.898"/>
</g>
</g>
</svg>
