<?xml version="1.0" encoding="UTF-8" standalone="no"?>
<!DOCTYPE svg PUBLIC "-//W3C//DTD SVG 1.1//EN"
 "http://www.w3.org/Graphics/SVG/1.1/DTD/svg11.dtd">
<!-- Generated by graphviz version 2.40.1 (20161225.0304)
 -->
<!-- Title: arch::target_system::Component::sendEvent Pages: 1 -->
<svg width="712pt" height="88pt"
 viewBox="0.00 0.00 712.00 88.00" xmlns="http://www.w3.org/2000/svg" xmlns:xlink="http://www.w3.org/1999/xlink">
<g id="graph0" class="graph" transform="scale(1 1) rotate(0) translate(4 84)">
<title>arch::target_system::Component::sendEvent</title>
<polygon fill="#ffffff" stroke="transparent" points="-4,4 -4,-84 708,-84 708,4 -4,4"/>
<!-- Node50 -->
<g id="node1" class="node">
<title>Node50</title>
<polygon fill="#bfbfbf" stroke="#000000" points="0,-24.5 0,-54.5 136,-54.5 136,-24.5 0,-24.5"/>
<text text-anchor="start" x="8" y="-42.5" font-family="Helvetica,sans-Serif" font-size="10.00" fill="#000000">arch::target_system</text>
<text text-anchor="middle" x="68" y="-31.5" font-family="Helvetica,sans-Serif" font-size="10.00" fill="#000000">::Component::sendEvent</text>
</g>
<!-- Node51 -->
<g id="node2" class="node">
<title>Node51</title>
<g id="a_node2"><a xlink:href="classarch_1_1target__system_1_1Component.html#a766a2494155aaa42b3c8162cefb11b77" target="_top" xlink:title="arch::target_system\l::Component::activate">
<polygon fill="#ffffff" stroke="#000000" points="178,-49.5 178,-79.5 303,-79.5 303,-49.5 178,-49.5"/>
<text text-anchor="start" x="186" y="-67.5" font-family="Helvetica,sans-Serif" font-size="10.00" fill="#000000">arch::target_system</text>
<text text-anchor="middle" x="240.5" y="-56.5" font-family="Helvetica,sans-Serif" font-size="10.00" fill="#000000">::Component::activate</text>
</a>
</g>
</g>
<!-- Node50&#45;&gt;Node51 -->
<g id="edge1" class="edge">
<title>Node50&#45;&gt;Node51</title>
<path fill="none" stroke="#191970" d="M146.2581,-50.8418C156.847,-52.3764 167.598,-53.9345 177.8653,-55.4225"/>
<polygon fill="#191970" stroke="#191970" points="146.5752,-47.3512 136.1766,-49.3807 145.5711,-54.2788 146.5752,-47.3512"/>
</g>
<!-- Node57 -->
<g id="node8" class="node">
<title>Node57</title>
<g id="a_node8"><a xlink:href="classarch_1_1target__system_1_1Component.html#a7e504b0c12531376d3cca170a23b18e3" target="_top" xlink:title="arch::target_system\l::Component::deactivate">
<polygon fill="#ffffff" stroke="#000000" points="172,-.5 172,-30.5 309,-30.5 309,-.5 172,-.5"/>
<text text-anchor="start" x="180" y="-18.5" font-family="Helvetica,sans-Serif" font-size="10.00" fill="#000000">arch::target_system</text>
<text text-anchor="middle" x="240.5" y="-7.5" font-family="Helvetica,sans-Serif" font-size="10.00" fill="#000000">::Component::deactivate</text>
</a>
</g>
</g>
<!-- Node50&#45;&gt;Node57 -->
<g id="edge7" class="edge">
<title>Node50&#45;&gt;Node57</title>
<path fill="none" stroke="#191970" d="M146.1998,-28.62C154.7979,-27.4238 163.5036,-26.2125 171.9711,-25.0345"/>
<polygon fill="#191970" stroke="#191970" points="145.5988,-25.1698 136.1766,-30.0146 146.5635,-32.1031 145.5988,-25.1698"/>
</g>
<!-- Node52 -->
<g id="node3" class="node">
<title>Node52</title>
<g id="a_node3"><a xlink:href="classarch_1_1target__system_1_1Component.html#a6a7bf2a65bcc78fc61167205509091a5" target="_top" xlink:title="arch::target_system\l::Component::setUp">
<polygon fill="#ffffff" stroke="#000000" points="354,-49.5 354,-79.5 468,-79.5 468,-49.5 354,-49.5"/>
<text text-anchor="start" x="362" y="-67.5" font-family="Helvetica,sans-Serif" font-size="10.00" fill="#000000">arch::target_system</text>
<text text-anchor="middle" x="411" y="-56.5" font-family="Helvetica,sans-Serif" font-size="10.00" fill="#000000">::Component::setUp</text>
</a>
</g>
</g>
<!-- Node51&#45;&gt;Node52 -->
<g id="edge2" class="edge">
<title>Node51&#45;&gt;Node52</title>
<path fill="none" stroke="#191970" d="M313.2856,-64.5C326.8505,-64.5 340.8458,-64.5 353.8573,-64.5"/>
<polygon fill="#191970" stroke="#191970" points="313.0198,-61.0001 303.0198,-64.5 313.0197,-68.0001 313.0198,-61.0001"/>
</g>
<!-- Node54 -->
<g id="node5" class="node">
<title>Node54</title>
<g id="a_node5"><a xlink:href="classCentralHub.html#a72336916ee15e722ee0b9f2c7c3747b6" target="_top" xlink:title="CentralHub::reconfigure">
<polygon fill="#ffffff" stroke="#000000" points="345,-9 345,-28 477,-28 477,-9 345,-9"/>
<text text-anchor="middle" x="411" y="-16" font-family="Helvetica,sans-Serif" font-size="10.00" fill="#000000">CentralHub::reconfigure</text>
</a>
</g>
</g>
<!-- Node51&#45;&gt;Node54 -->
<g id="edge4" class="edge">
<title>Node51&#45;&gt;Node54</title>
<path fill="none" stroke="#191970" d="M305.983,-46.833C329.689,-40.4373 355.5533,-33.4592 375.682,-28.0286"/>
<polygon fill="#191970" stroke="#191970" points="305.0712,-43.4538 296.3281,-49.4379 306.8946,-50.2122 305.0712,-43.4538"/>
</g>
<!-- Node53 -->
<g id="node4" class="node">
<title>Node53</title>
<g id="a_node4"><a xlink:href="classarch_1_1target__system_1_1Component.html#ac590323763a5ea9e7edf1a5e67f8a94f" target="_top" xlink:title="arch::target_system\l::Component::run">
<polygon fill="#ffffff" stroke="#000000" points="513,-49.5 513,-79.5 627,-79.5 627,-49.5 513,-49.5"/>
<text text-anchor="start" x="521" y="-67.5" font-family="Helvetica,sans-Serif" font-size="10.00" fill="#000000">arch::target_system</text>
<text text-anchor="middle" x="570" y="-56.5" font-family="Helvetica,sans-Serif" font-size="10.00" fill="#000000">::Component::run</text>
</a>
</g>
</g>
<!-- Node52&#45;&gt;Node53 -->
<g id="edge3" class="edge">
<title>Node52&#45;&gt;Node53</title>
<path fill="none" stroke="#191970" d="M478.7453,-64.5C490.1383,-64.5 501.8606,-64.5 512.9483,-64.5"/>
<polygon fill="#191970" stroke="#191970" points="478.4027,-61.0001 468.4026,-64.5 478.4026,-68.0001 478.4027,-61.0001"/>
</g>
<!-- Node55 -->
<g id="node6" class="node">
<title>Node55</title>
<g id="a_node6"><a xlink:href="classCentralHub.html#a388e947318a28cf7cac762ac8b1cf3d4" target="_top" xlink:title="CentralHub::run">
<polygon fill="#ffffff" stroke="#000000" points="523.5,-9 523.5,-28 616.5,-28 616.5,-9 523.5,-9"/>
<text text-anchor="middle" x="570" y="-16" font-family="Helvetica,sans-Serif" font-size="10.00" fill="#000000">CentralHub::run</text>
</a>
</g>
</g>
<!-- Node54&#45;&gt;Node55 -->
<g id="edge5" class="edge">
<title>Node54&#45;&gt;Node55</title>
<path fill="none" stroke="#191970" d="M487.3151,-18.5C499.5958,-18.5 511.978,-18.5 523.2871,-18.5"/>
<polygon fill="#191970" stroke="#191970" points="487.049,-15.0001 477.049,-18.5 487.049,-22.0001 487.049,-15.0001"/>
</g>
<!-- Node56 -->
<g id="node7" class="node">
<title>Node56</title>
<g id="a_node7"><a xlink:href="g4t1_8cpp.html#af19ddca125f05a2090dd132045573ee4" target="_top" xlink:title="main">
<polygon fill="#ffffff" stroke="#000000" points="663,-9 663,-28 704,-28 704,-9 663,-9"/>
<text text-anchor="middle" x="683.5" y="-16" font-family="Helvetica,sans-Serif" font-size="10.00" fill="#000000">main</text>
</a>
</g>
</g>
<!-- Node55&#45;&gt;Node56 -->
<g id="edge6" class="edge">
<title>Node55&#45;&gt;Node56</title>
<path fill="none" stroke="#191970" d="M627.0396,-18.5C639.8393,-18.5 652.6194,-18.5 662.7752,-18.5"/>
<polygon fill="#191970" stroke="#191970" points="626.8201,-15.0001 616.8201,-18.5 626.82,-22.0001 626.8201,-15.0001"/>
</g>
<!-- Node57&#45;&gt;Node54 -->
<g id="edge8" class="edge">
<title>Node57&#45;&gt;Node54</title>
<path fill="none" stroke="#191970" d="M319.6215,-16.8922C328.0877,-17.0411 336.6349,-17.1915 344.9268,-17.3374"/>
<polygon fill="#191970" stroke="#191970" points="319.4175,-13.3881 309.3574,-16.7116 319.2943,-20.387 319.4175,-13.3881"/>
</g>
</g>
</svg>
