<?xml version="1.0" encoding="UTF-8" standalone="no"?>
<!DOCTYPE svg PUBLIC "-//W3C//DTD SVG 1.1//EN"
 "http://www.w3.org/Graphics/SVG/1.1/DTD/svg11.dtd">
<!-- Generated by graphviz version 2.40.1 (20161225.0304)
 -->
<!-- Title: bsn::range::Range::setUpperBound Pages: 1 -->
<svg width="261pt" height="78pt"
 viewBox="0.00 0.00 261.00 77.50" xmlns="http://www.w3.org/2000/svg" xmlns:xlink="http://www.w3.org/1999/xlink">
<g id="graph0" class="graph" transform="scale(1 1) rotate(0) translate(4 73.5)">
<title>bsn::range::Range::setUpperBound</title>
<polygon fill="#ffffff" stroke="transparent" points="-4,4 -4,-73.5 257,-73.5 257,4 -4,4"/>
<!-- Node89 -->
<g id="node1" class="node">
<title>Node89</title>
<polygon fill="#bfbfbf" stroke="#000000" points="0,-17 0,-47 110,-47 110,-17 0,-17"/>
<text text-anchor="start" x="8" y="-35" font-family="Helvetica,sans-Serif" font-size="10.00" fill="#000000">bsn::range::Range::</text>
<text text-anchor="middle" x="55" y="-24" font-family="Helvetica,sans-Serif" font-size="10.00" fill="#000000">setUpperBound</text>
</g>
<!-- Node90 -->
<g id="node2" class="node">
<title>Node90</title>
<g id="a_node2"><a xlink:href="classConfigurationTest.html#a7b9f2c612f8aebd8e37cbc6429d34aea" target="_top" xlink:title="ConfigurationTest::\lSetUp">
<polygon fill="#ffffff" stroke="#000000" points="146,-39 146,-69 253,-69 253,-39 146,-39"/>
<text text-anchor="start" x="154" y="-57" font-family="Helvetica,sans-Serif" font-size="10.00" fill="#000000">ConfigurationTest::</text>
<text text-anchor="middle" x="199.5" y="-46" font-family="Helvetica,sans-Serif" font-size="10.00" fill="#000000">SetUp</text>
</a>
</g>
</g>
<!-- Node89&#45;&gt;Node90 -->
<g id="edge1" class="edge">
<title>Node89&#45;&gt;Node90</title>
<path fill="none" stroke="#191970" d="M119.9877,-41.8943C128.5389,-43.1962 137.2271,-44.519 145.5667,-45.7887"/>
<polygon fill="#191970" stroke="#191970" points="120.4544,-38.4251 110.0415,-40.38 119.4007,-45.3454 120.4544,-38.4251"/>
</g>
<!-- Node91 -->
<g id="node3" class="node">
<title>Node91</title>
<g id="a_node3"><a xlink:href="classRangeTest.html#af82f3adf4d559507c3c8b70a21b40a98" target="_top" xlink:title="RangeTest::SetUp">
<polygon fill="#ffffff" stroke="#000000" points="148.5,-.5 148.5,-19.5 250.5,-19.5 250.5,-.5 148.5,-.5"/>
<text text-anchor="middle" x="199.5" y="-7.5" font-family="Helvetica,sans-Serif" font-size="10.00" fill="#000000">RangeTest::SetUp</text>
</a>
</g>
</g>
<!-- Node89&#45;&gt;Node91 -->
<g id="edge2" class="edge">
<title>Node89&#45;&gt;Node91</title>
<path fill="none" stroke="#191970" d="M120.2093,-22.0719C129.667,-20.632 139.2872,-19.1673 148.4133,-17.7779"/>
<polygon fill="#191970" stroke="#191970" points="119.4007,-18.6546 110.0415,-23.62 120.4544,-25.5749 119.4007,-18.6546"/>
</g>
</g>
</svg>
