<?xml version="1.0" encoding="UTF-8" standalone="no"?>
<!DOCTYPE svg PUBLIC "-//W3C//DTD SVG 1.1//EN"
 "http://www.w3.org/Graphics/SVG/1.1/DTD/svg11.dtd">
<!-- Generated by graphviz version 2.40.1 (20161225.0304)
 -->
<!-- Title: DataGeneratorTest Pages: 1 -->
<svg width="462pt" height="601pt"
 viewBox="0.00 0.00 462.00 601.00" xmlns="http://www.w3.org/2000/svg" xmlns:xlink="http://www.w3.org/1999/xlink">
<g id="graph0" class="graph" transform="scale(1 1) rotate(0) translate(4 597)">
<title>DataGeneratorTest</title>
<polygon fill="#ffffff" stroke="transparent" points="-4,4 -4,-597 458,-597 458,4 -4,4"/>
<!-- Node2 -->
<g id="node1" class="node">
<title>Node2</title>
<polygon fill="#bfbfbf" stroke="#000000" points="53.5,-.5 53.5,-68.5 180.5,-68.5 180.5,-.5 53.5,-.5"/>
<text text-anchor="middle" x="117" y="-56.5" font-family="Helvetica,sans-Serif" font-size="10.00" fill="#000000">DataGeneratorTest</text>
<polyline fill="none" stroke="#000000" points="53.5,-49.5 180.5,-49.5 "/>
<text text-anchor="middle" x="117" y="-37.5" font-family="Helvetica,sans-Serif" font-size="10.00" fill="#000000"> </text>
<polyline fill="none" stroke="#000000" points="53.5,-30.5 180.5,-30.5 "/>
<text text-anchor="start" x="61.5" y="-18.5" font-family="Helvetica,sans-Serif" font-size="10.00" fill="#000000"># DataGeneratorTest()</text>
<text text-anchor="start" x="61.5" y="-7.5" font-family="Helvetica,sans-Serif" font-size="10.00" fill="#000000"># SetUp()</text>
</g>
<!-- Node3 -->
<g id="node2" class="node">
<title>Node3</title>
<polygon fill="#ffffff" stroke="#bfbfbf" points="0,-149.5 0,-206.5 36,-206.5 36,-149.5 0,-149.5"/>
<text text-anchor="middle" x="18" y="-194.5" font-family="Helvetica,sans-Serif" font-size="10.00" fill="#000000">Test</text>
<polyline fill="none" stroke="#bfbfbf" points="0,-187.5 36,-187.5 "/>
<text text-anchor="middle" x="18" y="-175.5" font-family="Helvetica,sans-Serif" font-size="10.00" fill="#000000"> </text>
<polyline fill="none" stroke="#bfbfbf" points="0,-168.5 36,-168.5 "/>
<text text-anchor="middle" x="18" y="-156.5" font-family="Helvetica,sans-Serif" font-size="10.00" fill="#000000"> </text>
</g>
<!-- Node3&#45;&gt;Node2 -->
<g id="edge1" class="edge">
<title>Node3&#45;&gt;Node2</title>
<path fill="none" stroke="#191970" d="M30.6407,-139.6098C37.2797,-122.587 46.4589,-102.8661 58,-87 62.678,-80.569 68.2648,-74.3571 74.1084,-68.5953"/>
<polygon fill="none" stroke="#191970" points="27.2522,-138.6789 27.0267,-149.2713 33.8085,-141.1314 27.2522,-138.6789"/>
</g>
<!-- Node4 -->
<g id="node3" class="node">
<title>Node4</title>
<g id="a_node3"><a xlink:href="classbsn_1_1generator_1_1Markov.html" target="_top" xlink:title="{bsn::generator::Markov\n||+ Markov()\l+ Markov()\l+ Markov()\l+ operator=()\l+ next_state()\l+ calculate_state()\l+ toString()\l}">
<polygon fill="#ffffff" stroke="#000000" points="154.5,-116.5 154.5,-239.5 283.5,-239.5 283.5,-116.5 154.5,-116.5"/>
<text text-anchor="middle" x="219" y="-227.5" font-family="Helvetica,sans-Serif" font-size="10.00" fill="#000000">bsn::generator::Markov</text>
<polyline fill="none" stroke="#000000" points="154.5,-220.5 283.5,-220.5 "/>
<text text-anchor="middle" x="219" y="-208.5" font-family="Helvetica,sans-Serif" font-size="10.00" fill="#000000"> </text>
<polyline fill="none" stroke="#000000" points="154.5,-201.5 283.5,-201.5 "/>
<text text-anchor="start" x="162.5" y="-189.5" font-family="Helvetica,sans-Serif" font-size="10.00" fill="#000000">+ Markov()</text>
<text text-anchor="start" x="162.5" y="-178.5" font-family="Helvetica,sans-Serif" font-size="10.00" fill="#000000">+ Markov()</text>
<text text-anchor="start" x="162.5" y="-167.5" font-family="Helvetica,sans-Serif" font-size="10.00" fill="#000000">+ Markov()</text>
<text text-anchor="start" x="162.5" y="-156.5" font-family="Helvetica,sans-Serif" font-size="10.00" fill="#000000">+ operator=()</text>
<text text-anchor="start" x="162.5" y="-145.5" font-family="Helvetica,sans-Serif" font-size="10.00" fill="#000000">+ next_state()</text>
<text text-anchor="start" x="162.5" y="-134.5" font-family="Helvetica,sans-Serif" font-size="10.00" fill="#000000">+ calculate_state()</text>
<text text-anchor="start" x="162.5" y="-123.5" font-family="Helvetica,sans-Serif" font-size="10.00" fill="#000000">+ toString()</text>
</a>
</g>
</g>
<!-- Node4&#45;&gt;Node2 -->
<g id="edge2" class="edge">
<title>Node4&#45;&gt;Node2</title>
<path fill="none" stroke="#404040" d="M175.1509,-116.3103C166.2138,-103.7371 156.9779,-90.7435 148.5703,-78.9151"/>
<polygon fill="none" stroke="#404040" points="148.3758,-78.6413 141.6393,-76.0683 141.4234,-68.8604 148.1599,-71.4334 148.3758,-78.6413"/>
<text text-anchor="middle" x="176" y="-90" font-family="Helvetica,sans-Serif" font-size="10.00" fill="#000000"> #mk</text>
</g>
<!-- Node5 -->
<g id="node4" class="node">
<title>Node5</title>
<polygon fill="#ffffff" stroke="#bfbfbf" points="9.5,-293 9.5,-350 134.5,-350 134.5,-293 9.5,-293"/>
<text text-anchor="middle" x="72" y="-338" font-family="Helvetica,sans-Serif" font-size="10.00" fill="#000000">std::array&lt; float, 25 &gt;</text>
<polyline fill="none" stroke="#bfbfbf" points="9.5,-331 134.5,-331 "/>
<text text-anchor="middle" x="72" y="-319" font-family="Helvetica,sans-Serif" font-size="10.00" fill="#000000"> </text>
<polyline fill="none" stroke="#bfbfbf" points="9.5,-312 134.5,-312 "/>
<text text-anchor="middle" x="72" y="-300" font-family="Helvetica,sans-Serif" font-size="10.00" fill="#000000"> </text>
</g>
<!-- Node5&#45;&gt;Node2 -->
<g id="edge8" class="edge">
<title>Node5&#45;&gt;Node2</title>
<path fill="none" stroke="#404040" d="M69.9459,-292.7922C67.8162,-252.6455 66.5579,-177.7204 81,-116 83.8282,-103.9132 88.4209,-91.3955 93.3939,-79.9047"/>
<polygon fill="none" stroke="#404040" points="93.4722,-79.7326 92.3165,-72.6147 98.4424,-68.8103 99.598,-75.9282 93.4722,-79.7326"/>
<text text-anchor="middle" x="113" y="-175.5" font-family="Helvetica,sans-Serif" font-size="10.00" fill="#000000"> #transitions</text>
</g>
<!-- Node5&#45;&gt;Node4 -->
<g id="edge3" class="edge">
<title>Node5&#45;&gt;Node4</title>
<path fill="none" stroke="#404040" d="M101.3943,-292.8055C114.6142,-279.9005 130.8548,-264.0465 146.999,-248.2867"/>
<polygon fill="none" stroke="#404040" points="147.3513,-247.9428 148.8506,-240.8893 155.9382,-239.5603 154.4389,-246.6139 147.3513,-247.9428"/>
<text text-anchor="middle" x="169" y="-261" font-family="Helvetica,sans-Serif" font-size="10.00" fill="#000000"> +transitions</text>
</g>
<!-- Node6 -->
<g id="node5" class="node">
<title>Node6</title>
<polygon fill="#ffffff" stroke="#bfbfbf" points="53,-469.5 53,-526.5 91,-526.5 91,-469.5 53,-469.5"/>
<text text-anchor="middle" x="72" y="-514.5" font-family="Helvetica,sans-Serif" font-size="10.00" fill="#000000">float</text>
<polyline fill="none" stroke="#bfbfbf" points="53,-507.5 91,-507.5 "/>
<text text-anchor="middle" x="72" y="-495.5" font-family="Helvetica,sans-Serif" font-size="10.00" fill="#000000"> </text>
<polyline fill="none" stroke="#bfbfbf" points="53,-488.5 91,-488.5 "/>
<text text-anchor="middle" x="72" y="-476.5" font-family="Helvetica,sans-Serif" font-size="10.00" fill="#000000"> </text>
</g>
<!-- Node6&#45;&gt;Node5 -->
<g id="edge4" class="edge">
<title>Node6&#45;&gt;Node5</title>
<path fill="none" stroke="#404040" d="M72,-469.2494C72,-440.2744 72,-395.2816 72,-362.556"/>
<polygon fill="none" stroke="#404040" points="72.0001,-362.2383 68,-356.2383 72,-350.2383 76,-356.2383 72.0001,-362.2383"/>
<text text-anchor="middle" x="101" y="-377" font-family="Helvetica,sans-Serif" font-size="10.00" fill="#000000"> +elements</text>
</g>
<!-- Node7 -->
<g id="node6" class="node">
<title>Node7</title>
<polygon fill="#ffffff" stroke="#bfbfbf" points="152.5,-287.5 152.5,-355.5 277.5,-355.5 277.5,-287.5 152.5,-287.5"/>
<text text-anchor="start" x="160.5" y="-343.5" font-family="Helvetica,sans-Serif" font-size="10.00" fill="#000000">std::array&lt; bsn::range</text>
<text text-anchor="middle" x="215" y="-332.5" font-family="Helvetica,sans-Serif" font-size="10.00" fill="#000000">::Range, 5 &gt;</text>
<polyline fill="none" stroke="#bfbfbf" points="152.5,-325.5 277.5,-325.5 "/>
<text text-anchor="middle" x="215" y="-313.5" font-family="Helvetica,sans-Serif" font-size="10.00" fill="#000000"> </text>
<polyline fill="none" stroke="#bfbfbf" points="152.5,-306.5 277.5,-306.5 "/>
<text text-anchor="middle" x="215" y="-294.5" font-family="Helvetica,sans-Serif" font-size="10.00" fill="#000000"> </text>
</g>
<!-- Node7&#45;&gt;Node4 -->
<g id="edge5" class="edge">
<title>Node7&#45;&gt;Node4</title>
<path fill="none" stroke="#404040" d="M215.9479,-287.4925C216.2508,-276.6267 216.5987,-264.1465 216.9487,-251.5911"/>
<polygon fill="none" stroke="#404040" points="216.949,-251.576 213.1178,-245.4668 217.2835,-239.5807 221.1147,-245.6898 216.949,-251.576"/>
<text text-anchor="middle" x="238" y="-261" font-family="Helvetica,sans-Serif" font-size="10.00" fill="#000000"> +states</text>
</g>
<!-- Node8 -->
<g id="node7" class="node">
<title>Node8</title>
<g id="a_node7"><a xlink:href="classbsn_1_1range_1_1Range.html" target="_top" xlink:title="{bsn::range::Range\n||+ Range()\l+ Range()\l+ ~Range()\l+ Range()\l+ operator=()\l+ in_range()\l+ convert()\l+ to_print()\l+ setLowerBound()\l+ getLowerBound()\l+ setUpperBound()\l+ getUpperBound()\l+ toString()\l}">
<polygon fill="#ffffff" stroke="#000000" points="159.5,-403.5 159.5,-592.5 270.5,-592.5 270.5,-403.5 159.5,-403.5"/>
<text text-anchor="middle" x="215" y="-580.5" font-family="Helvetica,sans-Serif" font-size="10.00" fill="#000000">bsn::range::Range</text>
<polyline fill="none" stroke="#000000" points="159.5,-573.5 270.5,-573.5 "/>
<text text-anchor="middle" x="215" y="-561.5" font-family="Helvetica,sans-Serif" font-size="10.00" fill="#000000"> </text>
<polyline fill="none" stroke="#000000" points="159.5,-554.5 270.5,-554.5 "/>
<text text-anchor="start" x="167.5" y="-542.5" font-family="Helvetica,sans-Serif" font-size="10.00" fill="#000000">+ Range()</text>
<text text-anchor="start" x="167.5" y="-531.5" font-family="Helvetica,sans-Serif" font-size="10.00" fill="#000000">+ Range()</text>
<text text-anchor="start" x="167.5" y="-520.5" font-family="Helvetica,sans-Serif" font-size="10.00" fill="#000000">+ ~Range()</text>
<text text-anchor="start" x="167.5" y="-509.5" font-family="Helvetica,sans-Serif" font-size="10.00" fill="#000000">+ Range()</text>
<text text-anchor="start" x="167.5" y="-498.5" font-family="Helvetica,sans-Serif" font-size="10.00" fill="#000000">+ operator=()</text>
<text text-anchor="start" x="167.5" y="-487.5" font-family="Helvetica,sans-Serif" font-size="10.00" fill="#000000">+ in_range()</text>
<text text-anchor="start" x="167.5" y="-476.5" font-family="Helvetica,sans-Serif" font-size="10.00" fill="#000000">+ convert()</text>
<text text-anchor="start" x="167.5" y="-465.5" font-family="Helvetica,sans-Serif" font-size="10.00" fill="#000000">+ to_print()</text>
<text text-anchor="start" x="167.5" y="-454.5" font-family="Helvetica,sans-Serif" font-size="10.00" fill="#000000">+ setLowerBound()</text>
<text text-anchor="start" x="167.5" y="-443.5" font-family="Helvetica,sans-Serif" font-size="10.00" fill="#000000">+ getLowerBound()</text>
<text text-anchor="start" x="167.5" y="-432.5" font-family="Helvetica,sans-Serif" font-size="10.00" fill="#000000">+ setUpperBound()</text>
<text text-anchor="start" x="167.5" y="-421.5" font-family="Helvetica,sans-Serif" font-size="10.00" fill="#000000">+ getUpperBound()</text>
<text text-anchor="start" x="167.5" y="-410.5" font-family="Helvetica,sans-Serif" font-size="10.00" fill="#000000">+ toString()</text>
</a>
</g>
</g>
<!-- Node8&#45;&gt;Node7 -->
<g id="edge6" class="edge">
<title>Node8&#45;&gt;Node7</title>
<path fill="none" stroke="#404040" d="M215,-403.2915C215,-391.0657 215,-379.0061 215,-368.0579"/>
<polygon fill="none" stroke="#404040" points="215.0001,-367.773 211,-361.773 215,-355.773 219,-361.773 215.0001,-367.773"/>
<text text-anchor="middle" x="244" y="-377" font-family="Helvetica,sans-Serif" font-size="10.00" fill="#000000"> +elements</text>
</g>
<!-- Node9 -->
<g id="node8" class="node">
<title>Node9</title>
<polygon fill="#ffffff" stroke="#bfbfbf" points="296,-293 296,-350 346,-350 346,-293 296,-293"/>
<text text-anchor="middle" x="321" y="-338" font-family="Helvetica,sans-Serif" font-size="10.00" fill="#000000">int32_t</text>
<polyline fill="none" stroke="#bfbfbf" points="296,-331 346,-331 "/>
<text text-anchor="middle" x="321" y="-319" font-family="Helvetica,sans-Serif" font-size="10.00" fill="#000000"> </text>
<polyline fill="none" stroke="#bfbfbf" points="296,-312 346,-312 "/>
<text text-anchor="middle" x="321" y="-300" font-family="Helvetica,sans-Serif" font-size="10.00" fill="#000000"> </text>
</g>
<!-- Node9&#45;&gt;Node4 -->
<g id="edge7" class="edge">
<title>Node9&#45;&gt;Node4</title>
<path fill="none" stroke="#404040" d="M300.6039,-292.8055C291.6858,-280.2589 280.7864,-264.925 269.8935,-249.6002"/>
<polygon fill="none" stroke="#404040" points="269.7095,-249.3412 262.973,-246.7682 262.7572,-239.5603 269.4936,-242.1333 269.7095,-249.3412"/>
<text text-anchor="middle" x="319" y="-261" font-family="Helvetica,sans-Serif" font-size="10.00" fill="#000000"> +currentState</text>
</g>
<!-- Node10 -->
<g id="node9" class="node">
<title>Node10</title>
<polygon fill="#ffffff" stroke="#bfbfbf" points="320,-149.5 320,-206.5 448,-206.5 448,-149.5 320,-149.5"/>
<text text-anchor="middle" x="384" y="-194.5" font-family="Helvetica,sans-Serif" font-size="10.00" fill="#000000">std::array&lt; Range, 5 &gt;</text>
<polyline fill="none" stroke="#bfbfbf" points="320,-187.5 448,-187.5 "/>
<text text-anchor="middle" x="384" y="-175.5" font-family="Helvetica,sans-Serif" font-size="10.00" fill="#000000"> </text>
<polyline fill="none" stroke="#bfbfbf" points="320,-168.5 448,-168.5 "/>
<text text-anchor="middle" x="384" y="-156.5" font-family="Helvetica,sans-Serif" font-size="10.00" fill="#000000"> </text>
</g>
<!-- Node10&#45;&gt;Node2 -->
<g id="edge9" class="edge">
<title>Node10&#45;&gt;Node2</title>
<path fill="none" stroke="#404040" d="M344.564,-149.4331C328.602,-138.4018 309.774,-126.0455 292,-116 260.037,-97.9351 223.3842,-80.407 191.9081,-66.2643"/>
<polygon fill="none" stroke="#404040" points="191.5263,-66.0943 184.4179,-67.3073 180.5642,-61.2122 187.6726,-59.9992 191.5263,-66.0943"/>
<text text-anchor="middle" x="276" y="-90" font-family="Helvetica,sans-Serif" font-size="10.00" fill="#000000"> #states</text>
</g>
<!-- Node11 -->
<g id="node10" class="node">
<title>Node11</title>
<polygon fill="#ffffff" stroke="#bfbfbf" points="378.5,-293 378.5,-350 425.5,-350 425.5,-293 378.5,-293"/>
<text text-anchor="middle" x="402" y="-338" font-family="Helvetica,sans-Serif" font-size="10.00" fill="#000000">Range</text>
<polyline fill="none" stroke="#bfbfbf" points="378.5,-331 425.5,-331 "/>
<text text-anchor="middle" x="402" y="-319" font-family="Helvetica,sans-Serif" font-size="10.00" fill="#000000"> </text>
<polyline fill="none" stroke="#bfbfbf" points="378.5,-312 425.5,-312 "/>
<text text-anchor="middle" x="402" y="-300" font-family="Helvetica,sans-Serif" font-size="10.00" fill="#000000"> </text>
</g>
<!-- Node11&#45;&gt;Node10 -->
<g id="edge10" class="edge">
<title>Node11&#45;&gt;Node10</title>
<path fill="none" stroke="#404040" d="M398.4007,-292.8055C395.7396,-271.5904 392.0788,-242.4058 389.1142,-218.7714"/>
<polygon fill="none" stroke="#404040" points="389.0867,-218.5514 384.371,-213.096 387.5931,-206.6447 392.3088,-212.1002 389.0867,-218.5514"/>
<text text-anchor="middle" x="425" y="-261" font-family="Helvetica,sans-Serif" font-size="10.00" fill="#000000"> +elements</text>
</g>
</g>
</svg>
