<?xml version="1.0" encoding="UTF-8" standalone="no"?>
<!DOCTYPE svg PUBLIC "-//W3C//DTD SVG 1.1//EN"
 "http://www.w3.org/Graphics/SVG/1.1/DTD/svg11.dtd">
<!-- Generated by graphviz version 2.40.1 (20161225.0304)
 -->
<!-- Title: bsn::goalmodel::Context::getDescription Pages: 1 -->
<svg width="316pt" height="78pt"
 viewBox="0.00 0.00 316.00 77.50" xmlns="http://www.w3.org/2000/svg" xmlns:xlink="http://www.w3.org/1999/xlink">
<g id="graph0" class="graph" transform="scale(1 1) rotate(0) translate(4 73.5)">
<title>bsn::goalmodel::Context::getDescription</title>
<polygon fill="#ffffff" stroke="transparent" points="-4,4 -4,-73.5 312,-73.5 312,4 -4,4"/>
<!-- Node9 -->
<g id="node1" class="node">
<title>Node9</title>
<polygon fill="#bfbfbf" stroke="#000000" points="0,-17 0,-47 136,-47 136,-17 0,-17"/>
<text text-anchor="start" x="8" y="-35" font-family="Helvetica,sans-Serif" font-size="10.00" fill="#000000">bsn::goalmodel::Context</text>
<text text-anchor="middle" x="68" y="-24" font-family="Helvetica,sans-Serif" font-size="10.00" fill="#000000">::getDescription</text>
</g>
<!-- Node10 -->
<g id="node2" class="node">
<title>Node10</title>
<g id="a_node2"><a xlink:href="classbsn_1_1goalmodel_1_1Context.html#aaeac2023a360724dce59ed1c340a6558" target="_top" xlink:title="bsn::goalmodel::Context\l::operator=">
<polygon fill="#ffffff" stroke="#000000" points="172,-39 172,-69 308,-69 308,-39 172,-39"/>
<text text-anchor="start" x="180" y="-57" font-family="Helvetica,sans-Serif" font-size="10.00" fill="#000000">bsn::goalmodel::Context</text>
<text text-anchor="middle" x="240" y="-46" font-family="Helvetica,sans-Serif" font-size="10.00" fill="#000000">::operator=</text>
</a>
</g>
</g>
<!-- Node9&#45;&gt;Node10 -->
<g id="edge1" class="edge">
<title>Node9&#45;&gt;Node10</title>
<path fill="none" stroke="#191970" d="M146.6369,-42.0582C155.0254,-43.1312 163.5081,-44.2161 171.7624,-45.2719"/>
<polygon fill="#191970" stroke="#191970" points="146.8364,-38.5553 136.4732,-40.7582 145.9483,-45.4987 146.8364,-38.5553"/>
</g>
<!-- Node11 -->
<g id="node3" class="node">
<title>Node11</title>
<g id="a_node3"><a xlink:href="ContextTest_8cpp.html#a68033460f1befb81d1f3f46d0d43430d" target="_top" xlink:title="TEST_F">
<polygon fill="#ffffff" stroke="#000000" points="214.5,-.5 214.5,-19.5 265.5,-19.5 265.5,-.5 214.5,-.5"/>
<text text-anchor="middle" x="240" y="-7.5" font-family="Helvetica,sans-Serif" font-size="10.00" fill="#000000">TEST_F</text>
</a>
</g>
</g>
<!-- Node9&#45;&gt;Node11 -->
<g id="edge2" class="edge">
<title>Node9&#45;&gt;Node11</title>
<path fill="none" stroke="#191970" d="M146.4987,-21.9595C170.9163,-18.8363 196.1465,-15.6092 214.2353,-13.2955"/>
<polygon fill="#191970" stroke="#191970" points="145.9483,-18.5013 136.4732,-23.2418 146.8364,-25.4447 145.9483,-18.5013"/>
</g>
</g>
</svg>
