<?xml version="1.0" encoding="UTF-8" standalone="no"?>
<!DOCTYPE svg PUBLIC "-//W3C//DTD SVG 1.1//EN"
 "http://www.w3.org/Graphics/SVG/1.1/DTD/svg11.dtd">
<!-- Generated by graphviz version 2.40.1 (20161225.0304)
 -->
<!-- Title: bsn::configuration::SensorConfiguration::operator= Pages: 1 -->
<svg width="286pt" height="410pt"
 viewBox="0.00 0.00 286.00 410.00" xmlns="http://www.w3.org/2000/svg" xmlns:xlink="http://www.w3.org/1999/xlink">
<g id="graph0" class="graph" transform="scale(1 1) rotate(0) translate(4 406)">
<title>bsn::configuration::SensorConfiguration::operator=</title>
<polygon fill="#ffffff" stroke="transparent" points="-4,4 -4,-406 282,-406 282,4 -4,4"/>
<!-- Node107 -->
<g id="node1" class="node">
<title>Node107</title>
<polygon fill="#bfbfbf" stroke="#000000" points="0,-180.5 0,-221.5 121,-221.5 121,-180.5 0,-180.5"/>
<text text-anchor="start" x="8" y="-209.5" font-family="Helvetica,sans-Serif" font-size="10.00" fill="#000000">bsn::configuration</text>
<text text-anchor="start" x="8" y="-198.5" font-family="Helvetica,sans-Serif" font-size="10.00" fill="#000000">::SensorConfiguration</text>
<text text-anchor="middle" x="60.5" y="-187.5" font-family="Helvetica,sans-Serif" font-size="10.00" fill="#000000">::operator=</text>
</g>
<!-- Node108 -->
<g id="node2" class="node">
<title>Node108</title>
<g id="a_node2"><a xlink:href="classbsn_1_1configuration_1_1SensorConfiguration.html#a5cbb1f6ecadc4bbda6ac273cb4d4e5f5" target="_top" xlink:title="bsn::configuration\l::SensorConfiguration\l::getId">
<polygon fill="#ffffff" stroke="#000000" points="157,-360.5 157,-401.5 278,-401.5 278,-360.5 157,-360.5"/>
<text text-anchor="start" x="165" y="-389.5" font-family="Helvetica,sans-Serif" font-size="10.00" fill="#000000">bsn::configuration</text>
<text text-anchor="start" x="165" y="-378.5" font-family="Helvetica,sans-Serif" font-size="10.00" fill="#000000">::SensorConfiguration</text>
<text text-anchor="middle" x="217.5" y="-367.5" font-family="Helvetica,sans-Serif" font-size="10.00" fill="#000000">::getId</text>
</a>
</g>
</g>
<!-- Node107&#45;&gt;Node108 -->
<g id="edge1" class="edge">
<title>Node107&#45;&gt;Node108</title>
<path fill="none" stroke="#191970" d="M69.3799,-221.6775C83.7707,-253.1347 114.8788,-313.3255 157,-351 158.3217,-352.1822 159.6984,-353.3294 161.119,-354.4416"/>
<polygon fill="#191970" stroke="#191970" points="159.4607,-357.5535 169.6578,-360.4294 163.4798,-351.8222 159.4607,-357.5535"/>
</g>
<!-- Node109 -->
<g id="node3" class="node">
<title>Node109</title>
<g id="a_node3"><a xlink:href="classbsn_1_1configuration_1_1SensorConfiguration.html#a8670643b8a6f0e51ef28858c42ef1330" target="_top" xlink:title="bsn::configuration\l::SensorConfiguration\l::getLowRisk">
<polygon fill="#ffffff" stroke="#000000" points="157,-300.5 157,-341.5 278,-341.5 278,-300.5 157,-300.5"/>
<text text-anchor="start" x="165" y="-329.5" font-family="Helvetica,sans-Serif" font-size="10.00" fill="#000000">bsn::configuration</text>
<text text-anchor="start" x="165" y="-318.5" font-family="Helvetica,sans-Serif" font-size="10.00" fill="#000000">::SensorConfiguration</text>
<text text-anchor="middle" x="217.5" y="-307.5" font-family="Helvetica,sans-Serif" font-size="10.00" fill="#000000">::getLowRisk</text>
</a>
</g>
</g>
<!-- Node107&#45;&gt;Node109 -->
<g id="edge2" class="edge">
<title>Node107&#45;&gt;Node109</title>
<path fill="none" stroke="#191970" d="M79.3647,-221.7848C97.8315,-241.3175 127.4262,-270.5301 157,-291 159.1087,-292.4596 161.2988,-293.8888 163.541,-295.2821"/>
<polygon fill="#191970" stroke="#191970" points="161.9883,-298.4289 172.3853,-300.467 165.5285,-292.3901 161.9883,-298.4289"/>
</g>
<!-- Node110 -->
<g id="node4" class="node">
<title>Node110</title>
<g id="a_node4"><a xlink:href="classbsn_1_1configuration_1_1SensorConfiguration.html#ace2305e7f554676344e3d6dc15c59c08" target="_top" xlink:title="bsn::configuration\l::SensorConfiguration\l::getMediumRisk">
<polygon fill="#ffffff" stroke="#000000" points="157,-240.5 157,-281.5 278,-281.5 278,-240.5 157,-240.5"/>
<text text-anchor="start" x="165" y="-269.5" font-family="Helvetica,sans-Serif" font-size="10.00" fill="#000000">bsn::configuration</text>
<text text-anchor="start" x="165" y="-258.5" font-family="Helvetica,sans-Serif" font-size="10.00" fill="#000000">::SensorConfiguration</text>
<text text-anchor="middle" x="217.5" y="-247.5" font-family="Helvetica,sans-Serif" font-size="10.00" fill="#000000">::getMediumRisk</text>
</a>
</g>
</g>
<!-- Node107&#45;&gt;Node110 -->
<g id="edge3" class="edge">
<title>Node107&#45;&gt;Node110</title>
<path fill="none" stroke="#191970" d="M114.5305,-221.6486C127.3068,-226.5313 141.0439,-231.7811 154.1901,-236.8051"/>
<polygon fill="#191970" stroke="#191970" points="153.0454,-240.1145 163.636,-240.415 155.5443,-233.5757 153.0454,-240.1145"/>
</g>
<!-- Node111 -->
<g id="node5" class="node">
<title>Node111</title>
<g id="a_node5"><a xlink:href="classbsn_1_1configuration_1_1SensorConfiguration.html#acdfcb71e90acbca6036e0d93a9f7ef8e" target="_top" xlink:title="bsn::configuration\l::SensorConfiguration\l::getHighRisk">
<polygon fill="#ffffff" stroke="#000000" points="157,-180.5 157,-221.5 278,-221.5 278,-180.5 157,-180.5"/>
<text text-anchor="start" x="165" y="-209.5" font-family="Helvetica,sans-Serif" font-size="10.00" fill="#000000">bsn::configuration</text>
<text text-anchor="start" x="165" y="-198.5" font-family="Helvetica,sans-Serif" font-size="10.00" fill="#000000">::SensorConfiguration</text>
<text text-anchor="middle" x="217.5" y="-187.5" font-family="Helvetica,sans-Serif" font-size="10.00" fill="#000000">::getHighRisk</text>
</a>
</g>
</g>
<!-- Node107&#45;&gt;Node111 -->
<g id="edge4" class="edge">
<title>Node107&#45;&gt;Node111</title>
<path fill="none" stroke="#191970" d="M121.2003,-201C129.635,-201 138.3591,-201 146.9547,-201"/>
<polygon fill="#191970" stroke="#191970" points="146.9612,-204.5001 156.9611,-201 146.9611,-197.5001 146.9612,-204.5001"/>
</g>
<!-- Node112 -->
<g id="node6" class="node">
<title>Node112</title>
<g id="a_node6"><a xlink:href="classbsn_1_1configuration_1_1SensorConfiguration.html#acc1264bd8739fdc4d9ddaf0f00552a12" target="_top" xlink:title="bsn::configuration\l::SensorConfiguration\l::getLowPercentage">
<polygon fill="#ffffff" stroke="#000000" points="157,-120.5 157,-161.5 278,-161.5 278,-120.5 157,-120.5"/>
<text text-anchor="start" x="165" y="-149.5" font-family="Helvetica,sans-Serif" font-size="10.00" fill="#000000">bsn::configuration</text>
<text text-anchor="start" x="165" y="-138.5" font-family="Helvetica,sans-Serif" font-size="10.00" fill="#000000">::SensorConfiguration</text>
<text text-anchor="middle" x="217.5" y="-127.5" font-family="Helvetica,sans-Serif" font-size="10.00" fill="#000000">::getLowPercentage</text>
</a>
</g>
</g>
<!-- Node107&#45;&gt;Node112 -->
<g id="edge5" class="edge">
<title>Node107&#45;&gt;Node112</title>
<path fill="none" stroke="#191970" d="M114.5305,-180.3514C127.3068,-175.4687 141.0439,-170.2189 154.1901,-165.1949"/>
<polygon fill="#191970" stroke="#191970" points="155.5443,-168.4243 163.636,-161.585 153.0454,-161.8855 155.5443,-168.4243"/>
</g>
<!-- Node113 -->
<g id="node7" class="node">
<title>Node113</title>
<g id="a_node7"><a xlink:href="classbsn_1_1configuration_1_1SensorConfiguration.html#a84047430dc4ca3d5efc65f454feebf1c" target="_top" xlink:title="bsn::configuration\l::SensorConfiguration\l::getMidPercentage">
<polygon fill="#ffffff" stroke="#000000" points="157,-60.5 157,-101.5 278,-101.5 278,-60.5 157,-60.5"/>
<text text-anchor="start" x="165" y="-89.5" font-family="Helvetica,sans-Serif" font-size="10.00" fill="#000000">bsn::configuration</text>
<text text-anchor="start" x="165" y="-78.5" font-family="Helvetica,sans-Serif" font-size="10.00" fill="#000000">::SensorConfiguration</text>
<text text-anchor="middle" x="217.5" y="-67.5" font-family="Helvetica,sans-Serif" font-size="10.00" fill="#000000">::getMidPercentage</text>
</a>
</g>
</g>
<!-- Node107&#45;&gt;Node113 -->
<g id="edge6" class="edge">
<title>Node107&#45;&gt;Node113</title>
<path fill="none" stroke="#191970" d="M79.3647,-180.2152C97.8315,-160.6825 127.4262,-131.4699 157,-111 159.1087,-109.5404 161.2988,-108.1112 163.541,-106.7179"/>
<polygon fill="#191970" stroke="#191970" points="165.5285,-109.6099 172.3853,-101.533 161.9883,-103.5711 165.5285,-109.6099"/>
</g>
<!-- Node114 -->
<g id="node8" class="node">
<title>Node114</title>
<g id="a_node8"><a xlink:href="classbsn_1_1configuration_1_1SensorConfiguration.html#a44ff7709db274eaa05ea8d41c6028e16" target="_top" xlink:title="bsn::configuration\l::SensorConfiguration\l::getHighPercentage">
<polygon fill="#ffffff" stroke="#000000" points="157,-.5 157,-41.5 278,-41.5 278,-.5 157,-.5"/>
<text text-anchor="start" x="165" y="-29.5" font-family="Helvetica,sans-Serif" font-size="10.00" fill="#000000">bsn::configuration</text>
<text text-anchor="start" x="165" y="-18.5" font-family="Helvetica,sans-Serif" font-size="10.00" fill="#000000">::SensorConfiguration</text>
<text text-anchor="middle" x="217.5" y="-7.5" font-family="Helvetica,sans-Serif" font-size="10.00" fill="#000000">::getHighPercentage</text>
</a>
</g>
</g>
<!-- Node107&#45;&gt;Node114 -->
<g id="edge7" class="edge">
<title>Node107&#45;&gt;Node114</title>
<path fill="none" stroke="#191970" d="M69.3799,-180.3225C83.7707,-148.8653 114.8788,-88.6745 157,-51 158.3217,-49.8178 159.6984,-48.6706 161.119,-47.5584"/>
<polygon fill="#191970" stroke="#191970" points="163.4798,-50.1778 169.6578,-41.5706 159.4607,-44.4465 163.4798,-50.1778"/>
</g>
</g>
</svg>
