<?xml version="1.0" encoding="UTF-8" standalone="no"?>
<!DOCTYPE svg PUBLIC "-//W3C//DTD SVG 1.1//EN"
 "http://www.w3.org/Graphics/SVG/1.1/DTD/svg11.dtd">
<!-- Generated by graphviz version 2.40.1 (20161225.0304)
 -->
<!-- Title: ParamAdapter Pages: 1 -->
<svg width="269pt" height="613pt"
 viewBox="0.00 0.00 268.50 613.00" xmlns="http://www.w3.org/2000/svg" xmlns:xlink="http://www.w3.org/1999/xlink">
<g id="graph0" class="graph" transform="scale(1 1) rotate(0) translate(4 609)">
<title>ParamAdapter</title>
<polygon fill="#ffffff" stroke="transparent" points="-4,4 -4,-609 264.5,-609 264.5,4 -4,4"/>
<!-- Node3 -->
<g id="node1" class="node">
<title>Node3</title>
<polygon fill="#bfbfbf" stroke="#000000" points="85.5,-.5 85.5,-123.5 260.5,-123.5 260.5,-.5 85.5,-.5"/>
<text text-anchor="middle" x="173" y="-111.5" font-family="Helvetica,sans-Serif" font-size="10.00" fill="#000000">ParamAdapter</text>
<polyline fill="none" stroke="#000000" points="85.5,-104.5 260.5,-104.5 "/>
<text text-anchor="middle" x="173" y="-92.5" font-family="Helvetica,sans-Serif" font-size="10.00" fill="#000000"> </text>
<polyline fill="none" stroke="#000000" points="85.5,-85.5 260.5,-85.5 "/>
<text text-anchor="start" x="93.5" y="-73.5" font-family="Helvetica,sans-Serif" font-size="10.00" fill="#000000">+ ParamAdapter()</text>
<text text-anchor="start" x="93.5" y="-62.5" font-family="Helvetica,sans-Serif" font-size="10.00" fill="#000000">+ ~ParamAdapter()</text>
<text text-anchor="start" x="93.5" y="-51.5" font-family="Helvetica,sans-Serif" font-size="10.00" fill="#000000">+ setUp()</text>
<text text-anchor="start" x="93.5" y="-40.5" font-family="Helvetica,sans-Serif" font-size="10.00" fill="#000000">+ tearDown()</text>
<text text-anchor="start" x="93.5" y="-29.5" font-family="Helvetica,sans-Serif" font-size="10.00" fill="#000000">+ body()</text>
<text text-anchor="start" x="93.5" y="-18.5" font-family="Helvetica,sans-Serif" font-size="10.00" fill="#000000">+ receiveAdaptationCommand()</text>
<text text-anchor="start" x="93.5" y="-7.5" font-family="Helvetica,sans-Serif" font-size="10.00" fill="#000000">+ moduleConnect()</text>
</g>
<!-- Node4 -->
<g id="node2" class="node">
<title>Node4</title>
<g id="a_node2"><a xlink:href="classarch_1_1target__system_1_1Effector.html" target="_top" xlink:title="{arch::target_system\l::Effector\n||+ Effector()\l+ ~Effector()\l+ setUp()\l+ tearDown()\l+ receiveAdaptationCommand()\l}">
<polygon fill="#ffffff" stroke="#000000" points="85.5,-161.5 85.5,-273.5 260.5,-273.5 260.5,-161.5 85.5,-161.5"/>
<text text-anchor="start" x="93.5" y="-261.5" font-family="Helvetica,sans-Serif" font-size="10.00" fill="#000000">arch::target_system</text>
<text text-anchor="middle" x="173" y="-250.5" font-family="Helvetica,sans-Serif" font-size="10.00" fill="#000000">::Effector</text>
<polyline fill="none" stroke="#000000" points="85.5,-243.5 260.5,-243.5 "/>
<text text-anchor="middle" x="173" y="-231.5" font-family="Helvetica,sans-Serif" font-size="10.00" fill="#000000"> </text>
<polyline fill="none" stroke="#000000" points="85.5,-224.5 260.5,-224.5 "/>
<text text-anchor="start" x="93.5" y="-212.5" font-family="Helvetica,sans-Serif" font-size="10.00" fill="#000000">+ Effector()</text>
<text text-anchor="start" x="93.5" y="-201.5" font-family="Helvetica,sans-Serif" font-size="10.00" fill="#000000">+ ~Effector()</text>
<text text-anchor="start" x="93.5" y="-190.5" font-family="Helvetica,sans-Serif" font-size="10.00" fill="#000000">+ setUp()</text>
<text text-anchor="start" x="93.5" y="-179.5" font-family="Helvetica,sans-Serif" font-size="10.00" fill="#000000">+ tearDown()</text>
<text text-anchor="start" x="93.5" y="-168.5" font-family="Helvetica,sans-Serif" font-size="10.00" fill="#000000">+ receiveAdaptationCommand()</text>
</a>
</g>
</g>
<!-- Node4&#45;&gt;Node3 -->
<g id="edge1" class="edge">
<title>Node4&#45;&gt;Node3</title>
<path fill="none" stroke="#191970" d="M173,-151.1518C173,-142.0037 173,-132.6404 173,-123.5833"/>
<polygon fill="none" stroke="#191970" points="169.5001,-151.3609 173,-161.3609 176.5001,-151.361 169.5001,-151.3609"/>
</g>
<!-- Node5 -->
<g id="node3" class="node">
<title>Node5</title>
<g id="a_node3"><a xlink:href="classarch_1_1ROSComponent.html" target="_top" xlink:title="{arch::ROSComponent\n||+ ROSComponent()\l+ ~ROSComponent()\l+ setUp()\l+ tearDown()\l+ run()\l+ body()\l# getRosNodeName()\l}">
<polygon fill="#ffffff" stroke="#000000" points="23.5,-321.5 23.5,-444.5 146.5,-444.5 146.5,-321.5 23.5,-321.5"/>
<text text-anchor="middle" x="85" y="-432.5" font-family="Helvetica,sans-Serif" font-size="10.00" fill="#000000">arch::ROSComponent</text>
<polyline fill="none" stroke="#000000" points="23.5,-425.5 146.5,-425.5 "/>
<text text-anchor="middle" x="85" y="-413.5" font-family="Helvetica,sans-Serif" font-size="10.00" fill="#000000"> </text>
<polyline fill="none" stroke="#000000" points="23.5,-406.5 146.5,-406.5 "/>
<text text-anchor="start" x="31.5" y="-394.5" font-family="Helvetica,sans-Serif" font-size="10.00" fill="#000000">+ ROSComponent()</text>
<text text-anchor="start" x="31.5" y="-383.5" font-family="Helvetica,sans-Serif" font-size="10.00" fill="#000000">+ ~ROSComponent()</text>
<text text-anchor="start" x="31.5" y="-372.5" font-family="Helvetica,sans-Serif" font-size="10.00" fill="#000000">+ setUp()</text>
<text text-anchor="start" x="31.5" y="-361.5" font-family="Helvetica,sans-Serif" font-size="10.00" fill="#000000">+ tearDown()</text>
<text text-anchor="start" x="31.5" y="-350.5" font-family="Helvetica,sans-Serif" font-size="10.00" fill="#000000">+ run()</text>
<text text-anchor="start" x="31.5" y="-339.5" font-family="Helvetica,sans-Serif" font-size="10.00" fill="#000000">+ body()</text>
<text text-anchor="start" x="31.5" y="-328.5" font-family="Helvetica,sans-Serif" font-size="10.00" fill="#000000"># getRosNodeName()</text>
</a>
</g>
</g>
<!-- Node5&#45;&gt;Node4 -->
<g id="edge2" class="edge">
<title>Node5&#45;&gt;Node4</title>
<path fill="none" stroke="#191970" d="M122.4926,-312.4883C129.3797,-299.5358 136.4843,-286.1744 143.1113,-273.7111"/>
<polygon fill="none" stroke="#191970" points="119.3725,-310.9013 117.768,-321.3739 125.5531,-314.1877 119.3725,-310.9013"/>
</g>
<!-- Node6 -->
<g id="node4" class="node">
<title>Node6</title>
<g id="a_node4"><a xlink:href="classarch_1_1ROSComponentDescriptor.html" target="_top" xlink:title="{arch::ROSComponentDescriptor\n||+ ROSComponentDescriptor()\l+ ~ROSComponentDescriptor()\l+ setName()\l+ getName()\l+ setFreq()\l+ getFreq()\l}">
<polygon fill="#ffffff" stroke="#000000" points="0,-492.5 0,-604.5 170,-604.5 170,-492.5 0,-492.5"/>
<text text-anchor="middle" x="85" y="-592.5" font-family="Helvetica,sans-Serif" font-size="10.00" fill="#000000">arch::ROSComponentDescriptor</text>
<polyline fill="none" stroke="#000000" points="0,-585.5 170,-585.5 "/>
<text text-anchor="middle" x="85" y="-573.5" font-family="Helvetica,sans-Serif" font-size="10.00" fill="#000000"> </text>
<polyline fill="none" stroke="#000000" points="0,-566.5 170,-566.5 "/>
<text text-anchor="start" x="8" y="-554.5" font-family="Helvetica,sans-Serif" font-size="10.00" fill="#000000">+ ROSComponentDescriptor()</text>
<text text-anchor="start" x="8" y="-543.5" font-family="Helvetica,sans-Serif" font-size="10.00" fill="#000000">+ ~ROSComponentDescriptor()</text>
<text text-anchor="start" x="8" y="-532.5" font-family="Helvetica,sans-Serif" font-size="10.00" fill="#000000">+ setName()</text>
<text text-anchor="start" x="8" y="-521.5" font-family="Helvetica,sans-Serif" font-size="10.00" fill="#000000">+ getName()</text>
<text text-anchor="start" x="8" y="-510.5" font-family="Helvetica,sans-Serif" font-size="10.00" fill="#000000">+ setFreq()</text>
<text text-anchor="start" x="8" y="-499.5" font-family="Helvetica,sans-Serif" font-size="10.00" fill="#000000">+ getFreq()</text>
</a>
</g>
</g>
<!-- Node6&#45;&gt;Node5 -->
<g id="edge3" class="edge">
<title>Node6&#45;&gt;Node5</title>
<path fill="none" stroke="#404040" d="M85,-492.4692C85,-481.0551 85,-468.8811 85,-456.9537"/>
<polygon fill="none" stroke="#404040" points="85.0001,-456.6555 81,-450.6555 85,-444.6555 89,-450.6555 85.0001,-456.6555"/>
<text text-anchor="middle" x="151.5" y="-466" font-family="Helvetica,sans-Serif" font-size="10.00" fill="#000000"> #rosComponentDescriptor</text>
</g>
<!-- Node7 -->
<g id="node5" class="node">
<title>Node7</title>
<polygon fill="#ffffff" stroke="#bfbfbf" points="164.5,-354.5 164.5,-411.5 241.5,-411.5 241.5,-354.5 164.5,-354.5"/>
<text text-anchor="middle" x="203" y="-399.5" font-family="Helvetica,sans-Serif" font-size="10.00" fill="#000000">NodeHandle</text>
<polyline fill="none" stroke="#bfbfbf" points="164.5,-392.5 241.5,-392.5 "/>
<text text-anchor="middle" x="203" y="-380.5" font-family="Helvetica,sans-Serif" font-size="10.00" fill="#000000"> </text>
<polyline fill="none" stroke="#bfbfbf" points="164.5,-373.5 241.5,-373.5 "/>
<text text-anchor="middle" x="203" y="-361.5" font-family="Helvetica,sans-Serif" font-size="10.00" fill="#000000"> </text>
</g>
<!-- Node7&#45;&gt;Node4 -->
<g id="edge4" class="edge">
<title>Node7&#45;&gt;Node4</title>
<path fill="none" stroke="#404040" d="M197.7744,-354.1721C194.3421,-335.2371 189.7004,-309.6304 185.3625,-285.6999"/>
<polygon fill="none" stroke="#404040" points="185.3376,-285.562 180.3315,-280.3717 183.1972,-273.7545 188.2033,-278.9448 185.3376,-285.562"/>
<text text-anchor="middle" x="210.5" y="-295" font-family="Helvetica,sans-Serif" font-size="10.00" fill="#000000"> #handle</text>
</g>
</g>
</svg>
