<?xml version="1.0" encoding="UTF-8" standalone="no"?>
<!DOCTYPE svg PUBLIC "-//W3C//DTD SVG 1.1//EN"
 "http://www.w3.org/Graphics/SVG/1.1/DTD/svg11.dtd">
<!-- Generated by graphviz version 2.40.1 (20161225.0304)
 -->
<!-- Title: CostEngine Pages: 1 -->
<svg width="809pt" height="895pt"
 viewBox="0.00 0.00 809.00 895.00" xmlns="http://www.w3.org/2000/svg" xmlns:xlink="http://www.w3.org/1999/xlink">
<g id="graph0" class="graph" transform="scale(1 1) rotate(0) translate(4 891)">
<title>CostEngine</title>
<polygon fill="#ffffff" stroke="transparent" points="-4,4 -4,-891 805,-891 805,4 -4,4"/>
<!-- Node3 -->
<g id="node1" class="node">
<title>Node3</title>
<polygon fill="#bfbfbf" stroke="#000000" points="384.5,-.5 384.5,-167.5 507.5,-167.5 507.5,-.5 384.5,-.5"/>
<text text-anchor="middle" x="446" y="-155.5" font-family="Helvetica,sans-Serif" font-size="10.00" fill="#000000">CostEngine</text>
<polyline fill="none" stroke="#000000" points="384.5,-148.5 507.5,-148.5 "/>
<text text-anchor="middle" x="446" y="-136.5" font-family="Helvetica,sans-Serif" font-size="10.00" fill="#000000"> </text>
<polyline fill="none" stroke="#000000" points="384.5,-129.5 507.5,-129.5 "/>
<text text-anchor="start" x="392.5" y="-117.5" font-family="Helvetica,sans-Serif" font-size="10.00" fill="#000000">+ CostEngine()</text>
<text text-anchor="start" x="392.5" y="-106.5" font-family="Helvetica,sans-Serif" font-size="10.00" fill="#000000">+ ~CostEngine()</text>
<text text-anchor="start" x="392.5" y="-95.5" font-family="Helvetica,sans-Serif" font-size="10.00" fill="#000000">+ setUp()</text>
<text text-anchor="start" x="392.5" y="-84.5" font-family="Helvetica,sans-Serif" font-size="10.00" fill="#000000">+ tearDown()</text>
<text text-anchor="start" x="392.5" y="-73.5" font-family="Helvetica,sans-Serif" font-size="10.00" fill="#000000">+ get_prefix()</text>
<text text-anchor="start" x="392.5" y="-62.5" font-family="Helvetica,sans-Serif" font-size="10.00" fill="#000000">+ initialize_priority()</text>
<text text-anchor="start" x="392.5" y="-51.5" font-family="Helvetica,sans-Serif" font-size="10.00" fill="#000000">+ initialize_strategy()</text>
<text text-anchor="start" x="392.5" y="-40.5" font-family="Helvetica,sans-Serif" font-size="10.00" fill="#000000">+ monitor()</text>
<text text-anchor="start" x="392.5" y="-29.5" font-family="Helvetica,sans-Serif" font-size="10.00" fill="#000000">+ analyze()</text>
<text text-anchor="start" x="392.5" y="-18.5" font-family="Helvetica,sans-Serif" font-size="10.00" fill="#000000">+ plan()</text>
<text text-anchor="start" x="392.5" y="-7.5" font-family="Helvetica,sans-Serif" font-size="10.00" fill="#000000">+ execute()</text>
</g>
<!-- Node4 -->
<g id="node2" class="node">
<title>Node4</title>
<g id="a_node2"><a xlink:href="classEngine.html" target="_top" xlink:title="{Engine\n||+ Engine()\l+ ~Engine()\l+ setUp()\l+ tearDown()\l+ body()\l+ receiveException()\l+ sendAdaptationParameter()\l+ get_prefix()\l+ initialize_priority()\l+ initialize_strategy()\land 8 more...\l}">
<polygon fill="#ffffff" stroke="#000000" points="365,-205.5 365,-372.5 527,-372.5 527,-205.5 365,-205.5"/>
<text text-anchor="middle" x="446" y="-360.5" font-family="Helvetica,sans-Serif" font-size="10.00" fill="#000000">Engine</text>
<polyline fill="none" stroke="#000000" points="365,-353.5 527,-353.5 "/>
<text text-anchor="middle" x="446" y="-341.5" font-family="Helvetica,sans-Serif" font-size="10.00" fill="#000000"> </text>
<polyline fill="none" stroke="#000000" points="365,-334.5 527,-334.5 "/>
<text text-anchor="start" x="373" y="-322.5" font-family="Helvetica,sans-Serif" font-size="10.00" fill="#000000">+ Engine()</text>
<text text-anchor="start" x="373" y="-311.5" font-family="Helvetica,sans-Serif" font-size="10.00" fill="#000000">+ ~Engine()</text>
<text text-anchor="start" x="373" y="-300.5" font-family="Helvetica,sans-Serif" font-size="10.00" fill="#000000">+ setUp()</text>
<text text-anchor="start" x="373" y="-289.5" font-family="Helvetica,sans-Serif" font-size="10.00" fill="#000000">+ tearDown()</text>
<text text-anchor="start" x="373" y="-278.5" font-family="Helvetica,sans-Serif" font-size="10.00" fill="#000000">+ body()</text>
<text text-anchor="start" x="373" y="-267.5" font-family="Helvetica,sans-Serif" font-size="10.00" fill="#000000">+ receiveException()</text>
<text text-anchor="start" x="373" y="-256.5" font-family="Helvetica,sans-Serif" font-size="10.00" fill="#000000">+ sendAdaptationParameter()</text>
<text text-anchor="start" x="373" y="-245.5" font-family="Helvetica,sans-Serif" font-size="10.00" fill="#000000">+ get_prefix()</text>
<text text-anchor="start" x="373" y="-234.5" font-family="Helvetica,sans-Serif" font-size="10.00" fill="#000000">+ initialize_priority()</text>
<text text-anchor="start" x="373" y="-223.5" font-family="Helvetica,sans-Serif" font-size="10.00" fill="#000000">+ initialize_strategy()</text>
<text text-anchor="start" x="373" y="-212.5" font-family="Helvetica,sans-Serif" font-size="10.00" fill="#000000">and 8 more...</text>
</a>
</g>
</g>
<!-- Node4&#45;&gt;Node3 -->
<g id="edge1" class="edge">
<title>Node4&#45;&gt;Node3</title>
<path fill="none" stroke="#191970" d="M446,-195.0814C446,-185.9623 446,-176.7519 446,-167.7417"/>
<polygon fill="none" stroke="#191970" points="442.5001,-195.3229 446,-205.323 449.5001,-195.323 442.5001,-195.3229"/>
</g>
<!-- Node5 -->
<g id="node3" class="node">
<title>Node5</title>
<g id="a_node3"><a xlink:href="classarch_1_1ROSComponent.html" target="_top" xlink:title="{arch::ROSComponent\n||+ ROSComponent()\l+ ~ROSComponent()\l+ setUp()\l+ tearDown()\l+ run()\l+ body()\l# getRosNodeName()\l}">
<polygon fill="#ffffff" stroke="#000000" points="30.5,-464.5 30.5,-587.5 153.5,-587.5 153.5,-464.5 30.5,-464.5"/>
<text text-anchor="middle" x="92" y="-575.5" font-family="Helvetica,sans-Serif" font-size="10.00" fill="#000000">arch::ROSComponent</text>
<polyline fill="none" stroke="#000000" points="30.5,-568.5 153.5,-568.5 "/>
<text text-anchor="middle" x="92" y="-556.5" font-family="Helvetica,sans-Serif" font-size="10.00" fill="#000000"> </text>
<polyline fill="none" stroke="#000000" points="30.5,-549.5 153.5,-549.5 "/>
<text text-anchor="start" x="38.5" y="-537.5" font-family="Helvetica,sans-Serif" font-size="10.00" fill="#000000">+ ROSComponent()</text>
<text text-anchor="start" x="38.5" y="-526.5" font-family="Helvetica,sans-Serif" font-size="10.00" fill="#000000">+ ~ROSComponent()</text>
<text text-anchor="start" x="38.5" y="-515.5" font-family="Helvetica,sans-Serif" font-size="10.00" fill="#000000">+ setUp()</text>
<text text-anchor="start" x="38.5" y="-504.5" font-family="Helvetica,sans-Serif" font-size="10.00" fill="#000000">+ tearDown()</text>
<text text-anchor="start" x="38.5" y="-493.5" font-family="Helvetica,sans-Serif" font-size="10.00" fill="#000000">+ run()</text>
<text text-anchor="start" x="38.5" y="-482.5" font-family="Helvetica,sans-Serif" font-size="10.00" fill="#000000">+ body()</text>
<text text-anchor="start" x="38.5" y="-471.5" font-family="Helvetica,sans-Serif" font-size="10.00" fill="#000000"># getRosNodeName()</text>
</a>
</g>
</g>
<!-- Node5&#45;&gt;Node4 -->
<g id="edge2" class="edge">
<title>Node5&#45;&gt;Node4</title>
<path fill="none" stroke="#191970" d="M143.2993,-456.5176C151.6596,-447.3547 160.6606,-438.541 170,-431 229.1153,-383.2678 306.8388,-345.0385 364.7391,-320.3241"/>
<polygon fill="none" stroke="#191970" points="140.4394,-454.468 136.4338,-464.2764 145.6818,-459.1067 140.4394,-454.468"/>
</g>
<!-- Node6 -->
<g id="node4" class="node">
<title>Node6</title>
<g id="a_node4"><a xlink:href="classarch_1_1ROSComponentDescriptor.html" target="_top" xlink:title="{arch::ROSComponentDescriptor\n||+ ROSComponentDescriptor()\l+ ~ROSComponentDescriptor()\l+ setName()\l+ getName()\l+ setFreq()\l+ getFreq()\l}">
<polygon fill="#ffffff" stroke="#000000" points="0,-668.5 0,-780.5 170,-780.5 170,-668.5 0,-668.5"/>
<text text-anchor="middle" x="85" y="-768.5" font-family="Helvetica,sans-Serif" font-size="10.00" fill="#000000">arch::ROSComponentDescriptor</text>
<polyline fill="none" stroke="#000000" points="0,-761.5 170,-761.5 "/>
<text text-anchor="middle" x="85" y="-749.5" font-family="Helvetica,sans-Serif" font-size="10.00" fill="#000000"> </text>
<polyline fill="none" stroke="#000000" points="0,-742.5 170,-742.5 "/>
<text text-anchor="start" x="8" y="-730.5" font-family="Helvetica,sans-Serif" font-size="10.00" fill="#000000">+ ROSComponentDescriptor()</text>
<text text-anchor="start" x="8" y="-719.5" font-family="Helvetica,sans-Serif" font-size="10.00" fill="#000000">+ ~ROSComponentDescriptor()</text>
<text text-anchor="start" x="8" y="-708.5" font-family="Helvetica,sans-Serif" font-size="10.00" fill="#000000">+ setName()</text>
<text text-anchor="start" x="8" y="-697.5" font-family="Helvetica,sans-Serif" font-size="10.00" fill="#000000">+ getName()</text>
<text text-anchor="start" x="8" y="-686.5" font-family="Helvetica,sans-Serif" font-size="10.00" fill="#000000">+ setFreq()</text>
<text text-anchor="start" x="8" y="-675.5" font-family="Helvetica,sans-Serif" font-size="10.00" fill="#000000">+ getFreq()</text>
</a>
</g>
</g>
<!-- Node6&#45;&gt;Node5 -->
<g id="edge3" class="edge">
<title>Node6&#45;&gt;Node5</title>
<path fill="none" stroke="#404040" d="M86.9779,-668.4138C87.7318,-647.0341 88.6028,-622.3358 89.4055,-599.5725"/>
<polygon fill="none" stroke="#404040" points="89.4076,-599.5097 85.6216,-593.3724 89.8306,-587.5172 93.6166,-593.6544 89.4076,-599.5097"/>
<text text-anchor="middle" x="154.5" y="-642" font-family="Helvetica,sans-Serif" font-size="10.00" fill="#000000"> #rosComponentDescriptor</text>
</g>
<!-- Node7 -->
<g id="node5" class="node">
<title>Node7</title>
<polygon fill="#ffffff" stroke="#bfbfbf" points="179,-492 179,-560 301,-560 301,-492 179,-492"/>
<text text-anchor="start" x="187" y="-548" font-family="Helvetica,sans-Serif" font-size="10.00" fill="#000000">std::map&lt; std::string,</text>
<text text-anchor="middle" x="240" y="-537" font-family="Helvetica,sans-Serif" font-size="10.00" fill="#000000"> int &gt;</text>
<polyline fill="none" stroke="#bfbfbf" points="179,-530 301,-530 "/>
<text text-anchor="middle" x="240" y="-518" font-family="Helvetica,sans-Serif" font-size="10.00" fill="#000000"> </text>
<polyline fill="none" stroke="#bfbfbf" points="179,-511 301,-511 "/>
<text text-anchor="middle" x="240" y="-499" font-family="Helvetica,sans-Serif" font-size="10.00" fill="#000000"> </text>
</g>
<!-- Node7&#45;&gt;Node4 -->
<g id="edge4" class="edge">
<title>Node7&#45;&gt;Node4</title>
<path fill="none" stroke="#404040" d="M240.1547,-491.8395C241.9043,-462.515 248.4375,-420.4427 270,-391 291.0923,-362.1993 322.9677,-340.24 353.8223,-324.2097"/>
<polygon fill="none" stroke="#404040" points="353.9403,-324.1508 357.5187,-317.8902 364.674,-318.7854 361.0956,-325.046 353.9403,-324.1508"/>
<text text-anchor="middle" x="335.5" y="-405" font-family="Helvetica,sans-Serif" font-size="10.00" fill="#000000"> +deactivatedComponents</text>
<text text-anchor="middle" x="335.5" y="-394" font-family="Helvetica,sans-Serif" font-size="10.00" fill="#000000">+priority</text>
</g>
<!-- Node8 -->
<g id="node6" class="node">
<title>Node8</title>
<polygon fill="#ffffff" stroke="#bfbfbf" points="226.5,-696 226.5,-753 255.5,-753 255.5,-696 226.5,-696"/>
<text text-anchor="middle" x="241" y="-741" font-family="Helvetica,sans-Serif" font-size="10.00" fill="#000000">int</text>
<polyline fill="none" stroke="#bfbfbf" points="226.5,-734 255.5,-734 "/>
<text text-anchor="middle" x="241" y="-722" font-family="Helvetica,sans-Serif" font-size="10.00" fill="#000000"> </text>
<polyline fill="none" stroke="#bfbfbf" points="226.5,-715 255.5,-715 "/>
<text text-anchor="middle" x="241" y="-703" font-family="Helvetica,sans-Serif" font-size="10.00" fill="#000000"> </text>
</g>
<!-- Node8&#45;&gt;Node7 -->
<g id="edge5" class="edge">
<title>Node8&#45;&gt;Node7</title>
<path fill="none" stroke="#404040" d="M240.8546,-695.6364C240.692,-663.3701 240.4265,-610.6553 240.2345,-572.5449"/>
<polygon fill="none" stroke="#404040" points="240.233,-572.2309 236.2028,-566.2511 240.1724,-560.231 244.2027,-566.2108 240.233,-572.2309"/>
<text text-anchor="middle" x="270" y="-642" font-family="Helvetica,sans-Serif" font-size="10.00" fill="#000000"> +elements</text>
</g>
<!-- Node9 -->
<g id="node7" class="node">
<title>Node9</title>
<g id="a_node7"><a xlink:title="STL class. ">
<polygon fill="#ffffff" stroke="#bfbfbf" points="318.5,-696 318.5,-753 383.5,-753 383.5,-696 318.5,-696"/>
<text text-anchor="middle" x="351" y="-741" font-family="Helvetica,sans-Serif" font-size="10.00" fill="#000000">std::string</text>
<polyline fill="none" stroke="#bfbfbf" points="318.5,-734 383.5,-734 "/>
<text text-anchor="middle" x="351" y="-722" font-family="Helvetica,sans-Serif" font-size="10.00" fill="#000000"> </text>
<polyline fill="none" stroke="#bfbfbf" points="318.5,-715 383.5,-715 "/>
<text text-anchor="middle" x="351" y="-703" font-family="Helvetica,sans-Serif" font-size="10.00" fill="#000000"> </text>
</a>
</g>
</g>
<!-- Node9&#45;&gt;Node7 -->
<g id="edge6" class="edge">
<title>Node9&#45;&gt;Node7</title>
<path fill="none" stroke="#404040" d="M334.8596,-695.6364C316.5812,-662.9492 286.5678,-609.2767 265.1979,-571.0612"/>
<polygon fill="none" stroke="#404040" points="264.9987,-570.7047 258.579,-567.4202 259.1418,-560.231 265.5614,-563.5156 264.9987,-570.7047"/>
<text text-anchor="middle" x="326.5" y="-642" font-family="Helvetica,sans-Serif" font-size="10.00" fill="#000000"> +keys</text>
</g>
<!-- Node13 -->
<g id="node11" class="node">
<title>Node13</title>
<polygon fill="#ffffff" stroke="#bfbfbf" points="319,-492 319,-560 441,-560 441,-492 319,-492"/>
<text text-anchor="start" x="327" y="-548" font-family="Helvetica,sans-Serif" font-size="10.00" fill="#000000">std::map&lt; std::string,</text>
<text text-anchor="middle" x="380" y="-537" font-family="Helvetica,sans-Serif" font-size="10.00" fill="#000000"> double &gt;</text>
<polyline fill="none" stroke="#bfbfbf" points="319,-530 441,-530 "/>
<text text-anchor="middle" x="380" y="-518" font-family="Helvetica,sans-Serif" font-size="10.00" fill="#000000"> </text>
<polyline fill="none" stroke="#bfbfbf" points="319,-511 441,-511 "/>
<text text-anchor="middle" x="380" y="-499" font-family="Helvetica,sans-Serif" font-size="10.00" fill="#000000"> </text>
</g>
<!-- Node9&#45;&gt;Node13 -->
<g id="edge12" class="edge">
<title>Node9&#45;&gt;Node13</title>
<path fill="none" stroke="#404040" d="M355.2168,-695.6364C359.9308,-663.3701 367.6322,-610.6553 373.2,-572.5449"/>
<polygon fill="none" stroke="#404040" points="373.2642,-572.105 370.1736,-565.5897 374.999,-560.231 378.0896,-566.7463 373.2642,-572.105"/>
<text text-anchor="middle" x="380.5" y="-642" font-family="Helvetica,sans-Serif" font-size="10.00" fill="#000000"> +keys</text>
</g>
<!-- Node10 -->
<g id="node8" class="node">
<title>Node10</title>
<g id="a_node8"><a xlink:title="STL class. ">
<polygon fill="#ffffff" stroke="#bfbfbf" points="299,-818.5 299,-886.5 403,-886.5 403,-818.5 299,-818.5"/>
<text text-anchor="start" x="307" y="-874.5" font-family="Helvetica,sans-Serif" font-size="10.00" fill="#000000">std::basic_string&lt;</text>
<text text-anchor="middle" x="351" y="-863.5" font-family="Helvetica,sans-Serif" font-size="10.00" fill="#000000"> char &gt;</text>
<polyline fill="none" stroke="#bfbfbf" points="299,-856.5 403,-856.5 "/>
<text text-anchor="middle" x="351" y="-844.5" font-family="Helvetica,sans-Serif" font-size="10.00" fill="#000000"> </text>
<polyline fill="none" stroke="#bfbfbf" points="299,-837.5 403,-837.5 "/>
<text text-anchor="middle" x="351" y="-825.5" font-family="Helvetica,sans-Serif" font-size="10.00" fill="#000000"> </text>
</a>
</g>
</g>
<!-- Node10&#45;&gt;Node9 -->
<g id="edge7" class="edge">
<title>Node10&#45;&gt;Node9</title>
<path fill="none" stroke="#191970" d="M351,-808.102C351,-789.9277 351,-769.4191 351,-753.2631"/>
<polygon fill="none" stroke="#191970" points="347.5001,-808.1983 351,-818.1983 354.5001,-808.1984 347.5001,-808.1983"/>
</g>
<!-- Node11 -->
<g id="node9" class="node">
<title>Node11</title>
<polygon fill="#ffffff" stroke="#bfbfbf" points="529,-696 529,-753 579,-753 579,-696 529,-696"/>
<text text-anchor="middle" x="554" y="-741" font-family="Helvetica,sans-Serif" font-size="10.00" fill="#000000">double</text>
<polyline fill="none" stroke="#bfbfbf" points="529,-734 579,-734 "/>
<text text-anchor="middle" x="554" y="-722" font-family="Helvetica,sans-Serif" font-size="10.00" fill="#000000"> </text>
<polyline fill="none" stroke="#bfbfbf" points="529,-715 579,-715 "/>
<text text-anchor="middle" x="554" y="-703" font-family="Helvetica,sans-Serif" font-size="10.00" fill="#000000"> </text>
</g>
<!-- Node11&#45;&gt;Node4 -->
<g id="edge8" class="edge">
<title>Node11&#45;&gt;Node4</title>
<path fill="none" stroke="#404040" d="M569.3725,-695.6679C599.3349,-635.194 658.0001,-492.3208 603,-391 588.485,-364.2605 563.5949,-343.4384 537.8573,-327.7814"/>
<polygon fill="none" stroke="#404040" points="537.5779,-327.6195 530.381,-328.0715 527.1957,-321.602 534.3927,-321.15 537.5779,-327.6195"/>
<text text-anchor="middle" x="667" y="-534.5" font-family="Helvetica,sans-Serif" font-size="10.00" fill="#000000"> +actuation_freq</text>
<text text-anchor="middle" x="667" y="-523.5" font-family="Helvetica,sans-Serif" font-size="10.00" fill="#000000">+monitor_freq</text>
<text text-anchor="middle" x="667" y="-512.5" font-family="Helvetica,sans-Serif" font-size="10.00" fill="#000000">+info_quant</text>
</g>
<!-- Node11&#45;&gt;Node13 -->
<g id="edge11" class="edge">
<title>Node11&#45;&gt;Node13</title>
<path fill="none" stroke="#404040" d="M528.9702,-701.6546C507.2041,-681.3162 475.28,-650.3273 450,-621 436.2645,-605.0655 422.2853,-586.6289 410.4679,-570.2614"/>
<polygon fill="none" stroke="#404040" points="410.3843,-570.1443 403.6423,-567.5859 403.4108,-560.3785 410.1528,-562.9369 410.3843,-570.1443"/>
<text text-anchor="middle" x="504" y="-642" font-family="Helvetica,sans-Serif" font-size="10.00" fill="#000000"> +elements</text>
</g>
<!-- Node12 -->
<g id="node10" class="node">
<title>Node12</title>
<g id="a_node10"><a xlink:href="classbsn_1_1model_1_1Formula.html" target="_top" xlink:title="{bsn::model::Formula\n||+ Formula()\l+ Formula()\l+ Formula()\l+ ~Formula()\l+ Formula()\l+ operator=()\l+ getExpression()\l+ setExpression()\l+ getTermValueMap()\l+ setTermValueMap()\l+ setTermValueMap()\l+ evaluate()\l+ getTerms()\l}">
<polygon fill="#ffffff" stroke="#000000" points="459,-431.5 459,-620.5 581,-620.5 581,-431.5 459,-431.5"/>
<text text-anchor="middle" x="520" y="-608.5" font-family="Helvetica,sans-Serif" font-size="10.00" fill="#000000">bsn::model::Formula</text>
<polyline fill="none" stroke="#000000" points="459,-601.5 581,-601.5 "/>
<text text-anchor="middle" x="520" y="-589.5" font-family="Helvetica,sans-Serif" font-size="10.00" fill="#000000"> </text>
<polyline fill="none" stroke="#000000" points="459,-582.5 581,-582.5 "/>
<text text-anchor="start" x="467" y="-570.5" font-family="Helvetica,sans-Serif" font-size="10.00" fill="#000000">+ Formula()</text>
<text text-anchor="start" x="467" y="-559.5" font-family="Helvetica,sans-Serif" font-size="10.00" fill="#000000">+ Formula()</text>
<text text-anchor="start" x="467" y="-548.5" font-family="Helvetica,sans-Serif" font-size="10.00" fill="#000000">+ Formula()</text>
<text text-anchor="start" x="467" y="-537.5" font-family="Helvetica,sans-Serif" font-size="10.00" fill="#000000">+ ~Formula()</text>
<text text-anchor="start" x="467" y="-526.5" font-family="Helvetica,sans-Serif" font-size="10.00" fill="#000000">+ Formula()</text>
<text text-anchor="start" x="467" y="-515.5" font-family="Helvetica,sans-Serif" font-size="10.00" fill="#000000">+ operator=()</text>
<text text-anchor="start" x="467" y="-504.5" font-family="Helvetica,sans-Serif" font-size="10.00" fill="#000000">+ getExpression()</text>
<text text-anchor="start" x="467" y="-493.5" font-family="Helvetica,sans-Serif" font-size="10.00" fill="#000000">+ setExpression()</text>
<text text-anchor="start" x="467" y="-482.5" font-family="Helvetica,sans-Serif" font-size="10.00" fill="#000000">+ getTermValueMap()</text>
<text text-anchor="start" x="467" y="-471.5" font-family="Helvetica,sans-Serif" font-size="10.00" fill="#000000">+ setTermValueMap()</text>
<text text-anchor="start" x="467" y="-460.5" font-family="Helvetica,sans-Serif" font-size="10.00" fill="#000000">+ setTermValueMap()</text>
<text text-anchor="start" x="467" y="-449.5" font-family="Helvetica,sans-Serif" font-size="10.00" fill="#000000">+ evaluate()</text>
<text text-anchor="start" x="467" y="-438.5" font-family="Helvetica,sans-Serif" font-size="10.00" fill="#000000">+ getTerms()</text>
</a>
</g>
</g>
<!-- Node12&#45;&gt;Node4 -->
<g id="edge9" class="edge">
<title>Node12&#45;&gt;Node4</title>
<path fill="none" stroke="#404040" d="M490.4342,-431.3096C485.6222,-415.898 480.6352,-399.9261 475.8171,-384.4954"/>
<polygon fill="none" stroke="#404040" points="475.748,-384.2738 470.1415,-379.7387 472.1714,-372.8192 477.7779,-377.3543 475.748,-384.2738"/>
<text text-anchor="middle" x="542" y="-399.5" font-family="Helvetica,sans-Serif" font-size="10.00" fill="#000000"> +target_system_model</text>
</g>
<!-- Node13&#45;&gt;Node4 -->
<g id="edge10" class="edge">
<title>Node13&#45;&gt;Node4</title>
<path fill="none" stroke="#404040" d="M386.3988,-491.8718C391.8318,-464.4058 400.281,-424.929 410,-391 410.6496,-388.7321 411.3222,-386.4412 412.0139,-384.1349"/>
<polygon fill="none" stroke="#404040" points="412.0635,-383.9745 410.0178,-377.0596 415.614,-372.5117 417.6597,-379.4266 412.0635,-383.9745"/>
<text text-anchor="middle" x="436" y="-399.5" font-family="Helvetica,sans-Serif" font-size="10.00" fill="#000000"> +strategy</text>
</g>
<!-- Node14 -->
<g id="node12" class="node">
<title>Node14</title>
<polygon fill="#ffffff" stroke="#bfbfbf" points="717,-497.5 717,-554.5 801,-554.5 801,-497.5 717,-497.5"/>
<text text-anchor="middle" x="759" y="-542.5" font-family="Helvetica,sans-Serif" font-size="10.00" fill="#000000">ServiceServer</text>
<polyline fill="none" stroke="#bfbfbf" points="717,-535.5 801,-535.5 "/>
<text text-anchor="middle" x="759" y="-523.5" font-family="Helvetica,sans-Serif" font-size="10.00" fill="#000000"> </text>
<polyline fill="none" stroke="#bfbfbf" points="717,-516.5 801,-516.5 "/>
<text text-anchor="middle" x="759" y="-504.5" font-family="Helvetica,sans-Serif" font-size="10.00" fill="#000000"> </text>
</g>
<!-- Node14&#45;&gt;Node4 -->
<g id="edge13" class="edge">
<title>Node14&#45;&gt;Node4</title>
<path fill="none" stroke="#404040" d="M746.9535,-497.1188C737.3554,-476.7484 722.3305,-449.8429 703,-431 655.8861,-385.0745 590.9517,-349.3626 538.1423,-325.2393"/>
<polygon fill="none" stroke="#404040" points="538.0157,-325.1825 530.9038,-326.3745 527.0682,-320.2681 534.1801,-319.0761 538.0157,-325.1825"/>
<text text-anchor="middle" x="722.5" y="-399.5" font-family="Helvetica,sans-Serif" font-size="10.00" fill="#000000"> +enactor_server</text>
</g>
</g>
</svg>
