<?xml version="1.0" encoding="UTF-8" standalone="no"?>
<!DOCTYPE svg PUBLIC "-//W3C//DTD SVG 1.1//EN"
 "http://www.w3.org/Graphics/SVG/1.1/DTD/svg11.dtd">
<!-- Generated by graphviz version 2.40.1 (20161225.0304)
 -->
<!-- Title: ReliabilityEngine::analyze Pages: 1 -->
<svg width="583pt" height="132pt"
 viewBox="0.00 0.00 583.00 132.00" xmlns="http://www.w3.org/2000/svg" xmlns:xlink="http://www.w3.org/1999/xlink">
<g id="graph0" class="graph" transform="scale(1 1) rotate(0) translate(4 128)">
<title>ReliabilityEngine::analyze</title>
<polygon fill="#ffffff" stroke="transparent" points="-4,4 -4,-128 579,-128 579,4 -4,4"/>
<!-- Node4 -->
<g id="node1" class="node">
<title>Node4</title>
<polygon fill="#bfbfbf" stroke="#000000" points="0,-25.5 0,-55.5 104,-55.5 104,-25.5 0,-25.5"/>
<text text-anchor="start" x="8" y="-43.5" font-family="Helvetica,sans-Serif" font-size="10.00" fill="#000000">ReliabilityEngine::</text>
<text text-anchor="middle" x="52" y="-32.5" font-family="Helvetica,sans-Serif" font-size="10.00" fill="#000000">analyze</text>
</g>
<!-- Node5 -->
<g id="node2" class="node">
<title>Node5</title>
<g id="a_node2"><a xlink:href="classEngine.html#a6b7b458cd4067230dfe02585ce00ab5b" target="_top" xlink:title="Engine::calculate_qos">
<polygon fill="#ffffff" stroke="#000000" points="301,-50 301,-69 423,-69 423,-50 301,-50"/>
<text text-anchor="middle" x="362" y="-57" font-family="Helvetica,sans-Serif" font-size="10.00" fill="#000000">Engine::calculate_qos</text>
</a>
</g>
</g>
<!-- Node4&#45;&gt;Node5 -->
<g id="edge1" class="edge">
<title>Node4&#45;&gt;Node5</title>
<path fill="none" stroke="#191970" d="M104.2367,-43.7016C155.4312,-46.8393 233.8467,-51.6454 290.7458,-55.1328"/>
<polygon fill="#191970" stroke="#191970" points="290.556,-58.6277 300.7514,-55.7461 290.9843,-51.6408 290.556,-58.6277"/>
</g>
<!-- Node8 -->
<g id="node5" class="node">
<title>Node8</title>
<g id="a_node5"><a xlink:href="classReliabilityEngine.html#ac7179c4014de0c259d7794f544a2d1c7" target="_top" xlink:title="ReliabilityEngine::plan">
<polygon fill="#ffffff" stroke="#000000" points="140,-12 140,-31 265,-31 265,-12 140,-12"/>
<text text-anchor="middle" x="202.5" y="-19" font-family="Helvetica,sans-Serif" font-size="10.00" fill="#000000">ReliabilityEngine::plan</text>
</a>
</g>
</g>
<!-- Node4&#45;&gt;Node8 -->
<g id="edge4" class="edge">
<title>Node4&#45;&gt;Node8</title>
<path fill="none" stroke="#191970" d="M104.2152,-33.908C112.453,-32.8681 121.0984,-31.7766 129.7011,-30.6906"/>
<polygon fill="#191970" stroke="#191970" points="130.2704,-34.1466 139.7532,-29.4215 129.3935,-27.2017 130.2704,-34.1466"/>
</g>
<!-- Node6 -->
<g id="node3" class="node">
<title>Node6</title>
<g id="a_node3"><a xlink:href="classbsn_1_1model_1_1Formula.html#a49ea44acf0d7c9355d8134de7f3d7a3b" target="_top" xlink:title="bsn::model::Formula\l::setTermValueMap">
<polygon fill="#ffffff" stroke="#000000" points="459,-93.5 459,-123.5 575,-123.5 575,-93.5 459,-93.5"/>
<text text-anchor="start" x="467" y="-111.5" font-family="Helvetica,sans-Serif" font-size="10.00" fill="#000000">bsn::model::Formula</text>
<text text-anchor="middle" x="517" y="-100.5" font-family="Helvetica,sans-Serif" font-size="10.00" fill="#000000">::setTermValueMap</text>
</a>
</g>
</g>
<!-- Node5&#45;&gt;Node6 -->
<g id="edge2" class="edge">
<title>Node5&#45;&gt;Node6</title>
<path fill="none" stroke="#191970" d="M392.2535,-69.064C411.4486,-75.1321 436.8965,-83.177 459.7998,-90.4174"/>
<polygon fill="#191970" stroke="#191970" points="458.8442,-93.7859 469.4341,-93.463 460.9542,-87.1115 458.8442,-93.7859"/>
</g>
<!-- Node7 -->
<g id="node4" class="node">
<title>Node7</title>
<g id="a_node4"><a xlink:href="classbsn_1_1model_1_1Formula.html#afa267bb9172a038543604912d0b23ce8" target="_top" xlink:title="bsn::model::Formula\l::evaluate">
<polygon fill="#ffffff" stroke="#000000" points="459,-44.5 459,-74.5 575,-74.5 575,-44.5 459,-44.5"/>
<text text-anchor="start" x="467" y="-62.5" font-family="Helvetica,sans-Serif" font-size="10.00" fill="#000000">bsn::model::Formula</text>
<text text-anchor="middle" x="517" y="-51.5" font-family="Helvetica,sans-Serif" font-size="10.00" fill="#000000">::evaluate</text>
</a>
</g>
</g>
<!-- Node5&#45;&gt;Node7 -->
<g id="edge3" class="edge">
<title>Node5&#45;&gt;Node7</title>
<path fill="none" stroke="#191970" d="M423.2601,-59.5C431.6222,-59.5 440.2484,-59.5 448.7253,-59.5"/>
<polygon fill="#191970" stroke="#191970" points="448.9634,-63.0001 458.9634,-59.5 448.9633,-56.0001 448.9634,-63.0001"/>
</g>
<!-- Node8&#45;&gt;Node5 -->
<g id="edge5" class="edge">
<title>Node8&#45;&gt;Node5</title>
<path fill="none" stroke="#191970" d="M242.7486,-31.089C263.7963,-36.1035 289.7552,-42.2881 312.0734,-47.6053"/>
<polygon fill="#191970" stroke="#191970" points="311.5019,-51.067 322.0408,-49.9799 313.1243,-44.2576 311.5019,-51.067"/>
</g>
<!-- Node9 -->
<g id="node6" class="node">
<title>Node9</title>
<g id="a_node6"><a xlink:href="classReliabilityEngine.html#a7837ed9e42d0b47872fe862cf0a4b63f" target="_top" xlink:title="ReliabilityEngine::\lexecute">
<polygon fill="#ffffff" stroke="#000000" points="310,-.5 310,-30.5 414,-30.5 414,-.5 310,-.5"/>
<text text-anchor="start" x="318" y="-18.5" font-family="Helvetica,sans-Serif" font-size="10.00" fill="#000000">ReliabilityEngine::</text>
<text text-anchor="middle" x="362" y="-7.5" font-family="Helvetica,sans-Serif" font-size="10.00" fill="#000000">execute</text>
</a>
</g>
</g>
<!-- Node8&#45;&gt;Node9 -->
<g id="edge6" class="edge">
<title>Node8&#45;&gt;Node9</title>
<path fill="none" stroke="#191970" d="M265.0808,-19.1459C276.4402,-18.7185 288.2875,-18.2729 299.6405,-17.8458"/>
<polygon fill="#191970" stroke="#191970" points="300.0383,-21.3334 309.8996,-17.4599 299.7751,-14.3384 300.0383,-21.3334"/>
</g>
<!-- Node10 -->
<g id="node7" class="node">
<title>Node10</title>
<g id="a_node7"><a xlink:href="namespacebsn_1_1utils.html#a4ab7be3d27380abe032f4ceec86b09b2" target="_top" xlink:title="bsn::utils::split">
<polygon fill="#ffffff" stroke="#000000" points="473,-6 473,-25 561,-25 561,-6 473,-6"/>
<text text-anchor="middle" x="517" y="-13" font-family="Helvetica,sans-Serif" font-size="10.00" fill="#000000">bsn::utils::split</text>
</a>
</g>
</g>
<!-- Node9&#45;&gt;Node10 -->
<g id="edge7" class="edge">
<title>Node9&#45;&gt;Node10</title>
<path fill="none" stroke="#191970" d="M414.0439,-15.5C429.6993,-15.5 446.9137,-15.5 462.7107,-15.5"/>
<polygon fill="#191970" stroke="#191970" points="462.8563,-19.0001 472.8562,-15.5 462.8562,-12.0001 462.8563,-19.0001"/>
</g>
</g>
</svg>
