<?xml version="1.0" encoding="UTF-8" standalone="no"?>
<!DOCTYPE svg PUBLIC "-//W3C//DTD SVG 1.1//EN"
 "http://www.w3.org/Graphics/SVG/1.1/DTD/svg11.dtd">
<!-- Generated by graphviz version 2.40.1 (20161225.0304)
 -->
<!-- Title: bsn::resource::Battery::consume Pages: 1 -->
<svg width="266pt" height="750pt"
 viewBox="0.00 0.00 266.00 750.00" xmlns="http://www.w3.org/2000/svg" xmlns:xlink="http://www.w3.org/1999/xlink">
<g id="graph0" class="graph" transform="scale(1 1) rotate(0) translate(4 746)">
<title>bsn::resource::Battery::consume</title>
<polygon fill="#ffffff" stroke="transparent" points="-4,4 -4,-746 262,-746 262,4 -4,4"/>
<!-- Node9 -->
<g id="node1" class="node">
<title>Node9</title>
<polygon fill="#bfbfbf" stroke="#000000" points="0,-356 0,-386 124,-386 124,-356 0,-356"/>
<text text-anchor="start" x="8" y="-374" font-family="Helvetica,sans-Serif" font-size="10.00" fill="#000000">bsn::resource::Battery</text>
<text text-anchor="middle" x="62" y="-363" font-family="Helvetica,sans-Serif" font-size="10.00" fill="#000000">::consume</text>
</g>
<!-- Node10 -->
<g id="node2" class="node">
<title>Node10</title>
<g id="a_node2"><a xlink:href="classG3T1__1.html#a4696c0b3b423e6d0efe2a6f3f6e84cfa" target="_top" xlink:title="G3T1_1::collect">
<polygon fill="#ffffff" stroke="#000000" points="163,-722.5 163,-741.5 255,-741.5 255,-722.5 163,-722.5"/>
<text text-anchor="middle" x="209" y="-729.5" font-family="Helvetica,sans-Serif" font-size="10.00" fill="#000000">G3T1_1::collect</text>
</a>
</g>
</g>
<!-- Node9&#45;&gt;Node10 -->
<g id="edge1" class="edge">
<title>Node9&#45;&gt;Node10</title>
<path fill="none" stroke="#191970" d="M66.2423,-396.2226C78.5916,-466.9753 116.4166,-665.2664 160,-713 163.5682,-716.908 168.0348,-720.0205 172.8095,-722.4973"/>
<polygon fill="#191970" stroke="#191970" points="69.6291,-395.2654 64.4821,-386.0048 62.7307,-396.4539 69.6291,-395.2654"/>
</g>
<!-- Node11 -->
<g id="node3" class="node">
<title>Node11</title>
<g id="a_node3"><a xlink:href="classG3T1__1.html#aff514b4de85780777a8326e353148fe1" target="_top" xlink:title="G3T1_1::process">
<polygon fill="#ffffff" stroke="#000000" points="160.5,-684.5 160.5,-703.5 257.5,-703.5 257.5,-684.5 160.5,-684.5"/>
<text text-anchor="middle" x="209" y="-691.5" font-family="Helvetica,sans-Serif" font-size="10.00" fill="#000000">G3T1_1::process</text>
</a>
</g>
</g>
<!-- Node9&#45;&gt;Node11 -->
<g id="edge2" class="edge">
<title>Node9&#45;&gt;Node11</title>
<path fill="none" stroke="#191970" d="M63.0816,-396.5621C66.8599,-453.9433 83.8282,-594.2724 160,-675 163.6318,-678.849 168.1331,-681.9292 172.9236,-684.3914"/>
<polygon fill="#191970" stroke="#191970" points="66.5561,-396.0167 62.4881,-386.234 59.5676,-396.4183 66.5561,-396.0167"/>
</g>
<!-- Node12 -->
<g id="node4" class="node">
<title>Node12</title>
<g id="a_node4"><a xlink:href="classG3T1__1.html#a58277c46b8319bd35e3ffabd52805874" target="_top" xlink:title="G3T1_1::transfer">
<polygon fill="#ffffff" stroke="#000000" points="160,-646.5 160,-665.5 258,-665.5 258,-646.5 160,-646.5"/>
<text text-anchor="middle" x="209" y="-653.5" font-family="Helvetica,sans-Serif" font-size="10.00" fill="#000000">G3T1_1::transfer</text>
</a>
</g>
</g>
<!-- Node9&#45;&gt;Node12 -->
<g id="edge3" class="edge">
<title>Node9&#45;&gt;Node12</title>
<path fill="none" stroke="#191970" d="M64.431,-396.236C70.7388,-448.198 92.1909,-568.034 160,-637 163.7102,-640.7735 168.2544,-643.8124 173.0643,-646.2559"/>
<polygon fill="#191970" stroke="#191970" points="67.9003,-395.7665 63.3036,-386.2208 60.9443,-396.5496 67.9003,-395.7665"/>
</g>
<!-- Node13 -->
<g id="node5" class="node">
<title>Node13</title>
<g id="a_node5"><a xlink:href="classG3T1__2.html#af0d9cc4619906329eeb799c5a35e142a" target="_top" xlink:title="G3T1_2::collect">
<polygon fill="#ffffff" stroke="#000000" points="163,-608.5 163,-627.5 255,-627.5 255,-608.5 163,-608.5"/>
<text text-anchor="middle" x="209" y="-615.5" font-family="Helvetica,sans-Serif" font-size="10.00" fill="#000000">G3T1_2::collect</text>
</a>
</g>
</g>
<!-- Node9&#45;&gt;Node13 -->
<g id="edge4" class="edge">
<title>Node9&#45;&gt;Node13</title>
<path fill="none" stroke="#191970" d="M66.2,-396.1195C75.2017,-442.4113 100.574,-541.6782 160,-599 164.0058,-602.864 168.8847,-605.9653 173.9932,-608.4481"/>
<polygon fill="#191970" stroke="#191970" points="69.5995,-395.2544 64.3416,-386.0563 62.7159,-396.5257 69.5995,-395.2544"/>
</g>
<!-- Node14 -->
<g id="node6" class="node">
<title>Node14</title>
<g id="a_node6"><a xlink:href="classG3T1__2.html#a971571b3baee620f4fc36b31579db6ca" target="_top" xlink:title="G3T1_2::process">
<polygon fill="#ffffff" stroke="#000000" points="160.5,-570.5 160.5,-589.5 257.5,-589.5 257.5,-570.5 160.5,-570.5"/>
<text text-anchor="middle" x="209" y="-577.5" font-family="Helvetica,sans-Serif" font-size="10.00" fill="#000000">G3T1_2::process</text>
</a>
</g>
</g>
<!-- Node9&#45;&gt;Node14 -->
<g id="edge5" class="edge">
<title>Node9&#45;&gt;Node14</title>
<path fill="none" stroke="#191970" d="M68.5675,-395.8654C80.3652,-435.947 108.8183,-514.9886 160,-561 164.2748,-564.8429 169.4131,-567.9451 174.731,-570.4383"/>
<polygon fill="#191970" stroke="#191970" points="71.8951,-394.7704 65.7994,-386.1048 65.1607,-396.6804 71.8951,-394.7704"/>
</g>
<!-- Node15 -->
<g id="node7" class="node">
<title>Node15</title>
<g id="a_node7"><a xlink:href="classG3T1__2.html#ac437972ecabb9e234c8717101d51eac8" target="_top" xlink:title="G3T1_2::transfer">
<polygon fill="#ffffff" stroke="#000000" points="160,-532.5 160,-551.5 258,-551.5 258,-532.5 160,-532.5"/>
<text text-anchor="middle" x="209" y="-539.5" font-family="Helvetica,sans-Serif" font-size="10.00" fill="#000000">G3T1_2::transfer</text>
</a>
</g>
</g>
<!-- Node9&#45;&gt;Node15 -->
<g id="edge6" class="edge">
<title>Node9&#45;&gt;Node15</title>
<path fill="none" stroke="#191970" d="M72.0022,-395.6167C86.6644,-428.851 116.9958,-487.9374 160,-523 164.6672,-526.8053 170.1848,-529.9114 175.804,-532.4258"/>
<polygon fill="#191970" stroke="#191970" points="75.1165,-393.9985 67.9582,-386.1877 68.6833,-396.7577 75.1165,-393.9985"/>
</g>
<!-- Node16 -->
<g id="node8" class="node">
<title>Node16</title>
<g id="a_node8"><a xlink:href="classG3T1__3.html#a3519014bd56d810164d86d9756169c44" target="_top" xlink:title="G3T1_3::collect">
<polygon fill="#ffffff" stroke="#000000" points="163,-494.5 163,-513.5 255,-513.5 255,-494.5 163,-494.5"/>
<text text-anchor="middle" x="209" y="-501.5" font-family="Helvetica,sans-Serif" font-size="10.00" fill="#000000">G3T1_3::collect</text>
</a>
</g>
</g>
<!-- Node9&#45;&gt;Node16 -->
<g id="edge7" class="edge">
<title>Node9&#45;&gt;Node16</title>
<path fill="none" stroke="#191970" d="M77.0889,-394.6592C94.3749,-420.0841 124.8842,-460.178 160,-485 165.29,-488.7393 171.4147,-491.8659 177.5043,-494.4321"/>
<polygon fill="#191970" stroke="#191970" points="79.7882,-392.3977 71.3346,-386.0112 73.9604,-396.2755 79.7882,-392.3977"/>
</g>
<!-- Node17 -->
<g id="node9" class="node">
<title>Node17</title>
<g id="a_node9"><a xlink:href="classG3T1__3.html#a82334e4d79cb9a4b4a757a96c60fe4ce" target="_top" xlink:title="G3T1_3::process">
<polygon fill="#ffffff" stroke="#000000" points="160.5,-456.5 160.5,-475.5 257.5,-475.5 257.5,-456.5 160.5,-456.5"/>
<text text-anchor="middle" x="209" y="-463.5" font-family="Helvetica,sans-Serif" font-size="10.00" fill="#000000">G3T1_3::process</text>
</a>
</g>
</g>
<!-- Node9&#45;&gt;Node17 -->
<g id="edge8" class="edge">
<title>Node9&#45;&gt;Node17</title>
<path fill="none" stroke="#191970" d="M85.8712,-392.72C104.8995,-409.212 132.7796,-431.6032 160,-447 166.2739,-450.5487 173.3419,-453.7166 180.1165,-456.4007"/>
<polygon fill="#191970" stroke="#191970" points="88.107,-390.0253 78.2859,-386.0507 83.4848,-395.2823 88.107,-390.0253"/>
</g>
<!-- Node18 -->
<g id="node10" class="node">
<title>Node18</title>
<g id="a_node10"><a xlink:href="classG3T1__3.html#a4bd1c419743c7c128fd1c3cf4fa5e434" target="_top" xlink:title="G3T1_3::transfer">
<polygon fill="#ffffff" stroke="#000000" points="160,-418.5 160,-437.5 258,-437.5 258,-418.5 160,-418.5"/>
<text text-anchor="middle" x="209" y="-425.5" font-family="Helvetica,sans-Serif" font-size="10.00" fill="#000000">G3T1_3::transfer</text>
</a>
</g>
</g>
<!-- Node9&#45;&gt;Node18 -->
<g id="edge9" class="edge">
<title>Node9&#45;&gt;Node18</title>
<path fill="none" stroke="#191970" d="M110.5624,-389.8303C135.1954,-399.3819 164.068,-410.5774 184.1479,-418.3635"/>
<polygon fill="#191970" stroke="#191970" points="111.5964,-386.4774 101.0074,-386.1253 109.0656,-393.0039 111.5964,-386.4774"/>
</g>
<!-- Node19 -->
<g id="node11" class="node">
<title>Node19</title>
<g id="a_node11"><a xlink:href="classG3T1__4.html#aac00c133f2199079b671b3094496fb33" target="_top" xlink:title="G3T1_4::collect">
<polygon fill="#ffffff" stroke="#000000" points="163,-380.5 163,-399.5 255,-399.5 255,-380.5 163,-380.5"/>
<text text-anchor="middle" x="209" y="-387.5" font-family="Helvetica,sans-Serif" font-size="10.00" fill="#000000">G3T1_4::collect</text>
</a>
</g>
</g>
<!-- Node9&#45;&gt;Node19 -->
<g id="edge10" class="edge">
<title>Node9&#45;&gt;Node19</title>
<path fill="none" stroke="#191970" d="M134.332,-380.349C143.9548,-381.5928 153.6044,-382.84 162.6207,-384.0054"/>
<polygon fill="#191970" stroke="#191970" points="134.7074,-376.8685 124.3412,-379.0577 133.8101,-383.8108 134.7074,-376.8685"/>
</g>
<!-- Node20 -->
<g id="node12" class="node">
<title>Node20</title>
<g id="a_node12"><a xlink:href="classG3T1__4.html#ab743af6fc3e6ad0f64ef2520b811bb63" target="_top" xlink:title="G3T1_4::process">
<polygon fill="#ffffff" stroke="#000000" points="160.5,-342.5 160.5,-361.5 257.5,-361.5 257.5,-342.5 160.5,-342.5"/>
<text text-anchor="middle" x="209" y="-349.5" font-family="Helvetica,sans-Serif" font-size="10.00" fill="#000000">G3T1_4::process</text>
</a>
</g>
</g>
<!-- Node9&#45;&gt;Node20 -->
<g id="edge11" class="edge">
<title>Node9&#45;&gt;Node20</title>
<path fill="none" stroke="#191970" d="M134.2912,-361.6562C143.137,-360.5129 152.0062,-359.3665 160.386,-358.2834"/>
<polygon fill="#191970" stroke="#191970" points="133.8101,-358.1892 124.3412,-362.9423 134.7074,-365.1315 133.8101,-358.1892"/>
</g>
<!-- Node21 -->
<g id="node13" class="node">
<title>Node21</title>
<g id="a_node13"><a xlink:href="classG3T1__4.html#a20ad5272beba24e4879fb29985b85f69" target="_top" xlink:title="G3T1_4::transfer">
<polygon fill="#ffffff" stroke="#000000" points="160,-304.5 160,-323.5 258,-323.5 258,-304.5 160,-304.5"/>
<text text-anchor="middle" x="209" y="-311.5" font-family="Helvetica,sans-Serif" font-size="10.00" fill="#000000">G3T1_4::transfer</text>
</a>
</g>
</g>
<!-- Node9&#45;&gt;Node21 -->
<g id="edge12" class="edge">
<title>Node9&#45;&gt;Node21</title>
<path fill="none" stroke="#191970" d="M110.5624,-352.1697C135.1954,-342.6181 164.068,-331.4226 184.1479,-323.6365"/>
<polygon fill="#191970" stroke="#191970" points="109.0656,-348.9961 101.0074,-355.8747 111.5964,-355.5226 109.0656,-348.9961"/>
</g>
<!-- Node22 -->
<g id="node14" class="node">
<title>Node22</title>
<g id="a_node14"><a xlink:href="classG3T1__5.html#a1aa8fb64b30b7263df5c2189fb5995dc" target="_top" xlink:title="G3T1_5::collect">
<polygon fill="#ffffff" stroke="#000000" points="163,-266.5 163,-285.5 255,-285.5 255,-266.5 163,-266.5"/>
<text text-anchor="middle" x="209" y="-273.5" font-family="Helvetica,sans-Serif" font-size="10.00" fill="#000000">G3T1_5::collect</text>
</a>
</g>
</g>
<!-- Node9&#45;&gt;Node22 -->
<g id="edge13" class="edge">
<title>Node9&#45;&gt;Node22</title>
<path fill="none" stroke="#191970" d="M85.8712,-349.28C104.8995,-332.788 132.7796,-310.3968 160,-295 166.2739,-291.4513 173.3419,-288.2834 180.1165,-285.5993"/>
<polygon fill="#191970" stroke="#191970" points="83.4848,-346.7177 78.2859,-355.9493 88.107,-351.9747 83.4848,-346.7177"/>
</g>
<!-- Node23 -->
<g id="node15" class="node">
<title>Node23</title>
<g id="a_node15"><a xlink:href="classG3T1__5.html#acef5ff056ed22c930ae583f87cf1f03a" target="_top" xlink:title="G3T1_5::process">
<polygon fill="#ffffff" stroke="#000000" points="160.5,-228.5 160.5,-247.5 257.5,-247.5 257.5,-228.5 160.5,-228.5"/>
<text text-anchor="middle" x="209" y="-235.5" font-family="Helvetica,sans-Serif" font-size="10.00" fill="#000000">G3T1_5::process</text>
</a>
</g>
</g>
<!-- Node9&#45;&gt;Node23 -->
<g id="edge14" class="edge">
<title>Node9&#45;&gt;Node23</title>
<path fill="none" stroke="#191970" d="M77.0889,-347.3408C94.3749,-321.9159 124.8842,-281.822 160,-257 165.29,-253.2607 171.4147,-250.1341 177.5043,-247.5679"/>
<polygon fill="#191970" stroke="#191970" points="73.9604,-345.7245 71.3346,-355.9888 79.7882,-349.6023 73.9604,-345.7245"/>
</g>
<!-- Node24 -->
<g id="node16" class="node">
<title>Node24</title>
<g id="a_node16"><a xlink:href="classG3T1__5.html#ae9918da7342a4fb88c6f633db43b9fe8" target="_top" xlink:title="G3T1_5::transfer">
<polygon fill="#ffffff" stroke="#000000" points="160,-190.5 160,-209.5 258,-209.5 258,-190.5 160,-190.5"/>
<text text-anchor="middle" x="209" y="-197.5" font-family="Helvetica,sans-Serif" font-size="10.00" fill="#000000">G3T1_5::transfer</text>
</a>
</g>
</g>
<!-- Node9&#45;&gt;Node24 -->
<g id="edge15" class="edge">
<title>Node9&#45;&gt;Node24</title>
<path fill="none" stroke="#191970" d="M72.0022,-346.3833C86.6644,-313.149 116.9958,-254.0626 160,-219 164.6672,-215.1947 170.1848,-212.0886 175.804,-209.5742"/>
<polygon fill="#191970" stroke="#191970" points="68.6833,-345.2423 67.9582,-355.8123 75.1165,-348.0015 68.6833,-345.2423"/>
</g>
<!-- Node25 -->
<g id="node17" class="node">
<title>Node25</title>
<g id="a_node17"><a xlink:href="classG3T1__6.html#a0deb9a2b913d7753ef6708ccbd87df34" target="_top" xlink:title="G3T1_6::collect">
<polygon fill="#ffffff" stroke="#000000" points="163,-152.5 163,-171.5 255,-171.5 255,-152.5 163,-152.5"/>
<text text-anchor="middle" x="209" y="-159.5" font-family="Helvetica,sans-Serif" font-size="10.00" fill="#000000">G3T1_6::collect</text>
</a>
</g>
</g>
<!-- Node9&#45;&gt;Node25 -->
<g id="edge16" class="edge">
<title>Node9&#45;&gt;Node25</title>
<path fill="none" stroke="#191970" d="M68.5675,-346.1346C80.3652,-306.053 108.8183,-227.0114 160,-181 164.2748,-177.1571 169.4131,-174.0549 174.731,-171.5617"/>
<polygon fill="#191970" stroke="#191970" points="65.1607,-345.3196 65.7994,-355.8952 71.8951,-347.2296 65.1607,-345.3196"/>
</g>
<!-- Node26 -->
<g id="node18" class="node">
<title>Node26</title>
<g id="a_node18"><a xlink:href="classG3T1__6.html#ab103fd747d38c26358039e4108c2a07d" target="_top" xlink:title="G3T1_6::process">
<polygon fill="#ffffff" stroke="#000000" points="160.5,-114.5 160.5,-133.5 257.5,-133.5 257.5,-114.5 160.5,-114.5"/>
<text text-anchor="middle" x="209" y="-121.5" font-family="Helvetica,sans-Serif" font-size="10.00" fill="#000000">G3T1_6::process</text>
</a>
</g>
</g>
<!-- Node9&#45;&gt;Node26 -->
<g id="edge17" class="edge">
<title>Node9&#45;&gt;Node26</title>
<path fill="none" stroke="#191970" d="M66.2,-345.8805C75.2017,-299.5887 100.574,-200.3218 160,-143 164.0058,-139.136 168.8847,-136.0347 173.9932,-133.5519"/>
<polygon fill="#191970" stroke="#191970" points="62.7159,-345.4743 64.3416,-355.9437 69.5995,-346.7456 62.7159,-345.4743"/>
</g>
<!-- Node27 -->
<g id="node19" class="node">
<title>Node27</title>
<g id="a_node19"><a xlink:href="classG3T1__6.html#aaa3c643ee36464eca9e095d150926e22" target="_top" xlink:title="G3T1_6::transfer">
<polygon fill="#ffffff" stroke="#000000" points="160,-76.5 160,-95.5 258,-95.5 258,-76.5 160,-76.5"/>
<text text-anchor="middle" x="209" y="-83.5" font-family="Helvetica,sans-Serif" font-size="10.00" fill="#000000">G3T1_6::transfer</text>
</a>
</g>
</g>
<!-- Node9&#45;&gt;Node27 -->
<g id="edge18" class="edge">
<title>Node9&#45;&gt;Node27</title>
<path fill="none" stroke="#191970" d="M64.431,-345.764C70.7388,-293.802 92.1909,-173.966 160,-105 163.7102,-101.2265 168.2544,-98.1876 173.0643,-95.7441"/>
<polygon fill="#191970" stroke="#191970" points="60.9443,-345.4504 63.3036,-355.7792 67.9003,-346.2335 60.9443,-345.4504"/>
</g>
<!-- Node28 -->
<g id="node20" class="node">
<title>Node28</title>
<g id="a_node20"><a xlink:href="classG4T1.html#a1114e1a7142774484a14d34b69c8535d" target="_top" xlink:title="G4T1::collect">
<polygon fill="#ffffff" stroke="#000000" points="169,-38.5 169,-57.5 249,-57.5 249,-38.5 169,-38.5"/>
<text text-anchor="middle" x="209" y="-45.5" font-family="Helvetica,sans-Serif" font-size="10.00" fill="#000000">G4T1::collect</text>
</a>
</g>
</g>
<!-- Node9&#45;&gt;Node28 -->
<g id="edge19" class="edge">
<title>Node9&#45;&gt;Node28</title>
<path fill="none" stroke="#191970" d="M63.0816,-345.4379C66.8599,-288.0567 83.8282,-147.7276 160,-67 163.6318,-63.151 168.1331,-60.0708 172.9236,-57.6086"/>
<polygon fill="#191970" stroke="#191970" points="59.5676,-345.5817 62.4881,-355.766 66.5561,-345.9833 59.5676,-345.5817"/>
</g>
<!-- Node29 -->
<g id="node21" class="node">
<title>Node29</title>
<g id="a_node21"><a xlink:href="classG4T1.html#a7d7a425b2d7fbbc0aa531cbb6ee5ddd9" target="_top" xlink:title="G4T1::process">
<polygon fill="#ffffff" stroke="#000000" points="166,-.5 166,-19.5 252,-19.5 252,-.5 166,-.5"/>
<text text-anchor="middle" x="209" y="-7.5" font-family="Helvetica,sans-Serif" font-size="10.00" fill="#000000">G4T1::process</text>
</a>
</g>
</g>
<!-- Node9&#45;&gt;Node29 -->
<g id="edge20" class="edge">
<title>Node9&#45;&gt;Node29</title>
<path fill="none" stroke="#191970" d="M66.2423,-345.7774C78.5916,-275.0247 116.4166,-76.7336 160,-29 163.5682,-25.092 168.0348,-21.9795 172.8095,-19.5027"/>
<polygon fill="#191970" stroke="#191970" points="62.7307,-345.5461 64.4821,-355.9952 69.6291,-346.7346 62.7307,-345.5461"/>
</g>
</g>
</svg>
