<?xml version="1.0" encoding="UTF-8" standalone="no"?>
<!DOCTYPE svg PUBLIC "-//W3C//DTD SVG 1.1//EN"
 "http://www.w3.org/Graphics/SVG/1.1/DTD/svg11.dtd">
<!-- Generated by graphviz version 2.40.1 (20161225.0304)
 -->
<!-- Title: ReliabilityEngine::monitor Pages: 1 -->
<svg width="723pt" height="149pt"
 viewBox="0.00 0.00 723.00 148.50" xmlns="http://www.w3.org/2000/svg" xmlns:xlink="http://www.w3.org/1999/xlink">
<g id="graph0" class="graph" transform="scale(1 1) rotate(0) translate(4 144.5)">
<title>ReliabilityEngine::monitor</title>
<polygon fill="#ffffff" stroke="transparent" points="-4,4 -4,-144.5 719,-144.5 719,4 -4,4"/>
<!-- Node25 -->
<g id="node1" class="node">
<title>Node25</title>
<polygon fill="#bfbfbf" stroke="#000000" points="0,-101.5 0,-131.5 104,-131.5 104,-101.5 0,-101.5"/>
<text text-anchor="start" x="8" y="-119.5" font-family="Helvetica,sans-Serif" font-size="10.00" fill="#000000">ReliabilityEngine::</text>
<text text-anchor="middle" x="52" y="-108.5" font-family="Helvetica,sans-Serif" font-size="10.00" fill="#000000">monitor</text>
</g>
<!-- Node26 -->
<g id="node2" class="node">
<title>Node26</title>
<g id="a_node2"><a xlink:href="namespacebsn_1_1utils.html#a4ab7be3d27380abe032f4ceec86b09b2" target="_top" xlink:title="bsn::utils::split">
<polygon fill="#ffffff" stroke="#000000" points="613,-121 613,-140 701,-140 701,-121 613,-121"/>
<text text-anchor="middle" x="657" y="-128" font-family="Helvetica,sans-Serif" font-size="10.00" fill="#000000">bsn::utils::split</text>
</a>
</g>
</g>
<!-- Node25&#45;&gt;Node26 -->
<g id="edge1" class="edge">
<title>Node25&#45;&gt;Node26</title>
<path fill="none" stroke="#191970" d="M104.1056,-117.7057C217.7609,-120.3358 487.0035,-126.5662 602.6637,-129.2426"/>
<polygon fill="#191970" stroke="#191970" points="602.6295,-132.7427 612.7078,-129.4751 602.7915,-125.7446 602.6295,-132.7427"/>
</g>
<!-- Node27 -->
<g id="node3" class="node">
<title>Node27</title>
<g id="a_node3"><a xlink:href="classReliabilityEngine.html#a2fb81703ab556e8418389e4483ceaaed" target="_top" xlink:title="ReliabilityEngine::\lanalyze">
<polygon fill="#ffffff" stroke="#000000" points="140,-79.5 140,-109.5 244,-109.5 244,-79.5 140,-79.5"/>
<text text-anchor="start" x="148" y="-97.5" font-family="Helvetica,sans-Serif" font-size="10.00" fill="#000000">ReliabilityEngine::</text>
<text text-anchor="middle" x="192" y="-86.5" font-family="Helvetica,sans-Serif" font-size="10.00" fill="#000000">analyze</text>
</a>
</g>
</g>
<!-- Node25&#45;&gt;Node27 -->
<g id="edge2" class="edge">
<title>Node25&#45;&gt;Node27</title>
<path fill="none" stroke="#191970" d="M104.1308,-108.308C112.5124,-106.9909 121.2603,-105.6162 129.8486,-104.2667"/>
<polygon fill="#191970" stroke="#191970" points="130.4902,-107.7089 139.8256,-102.6988 129.4035,-100.7937 130.4902,-107.7089"/>
</g>
<!-- Node28 -->
<g id="node4" class="node">
<title>Node28</title>
<g id="a_node4"><a xlink:href="classEngine.html#a6b7b458cd4067230dfe02585ce00ab5b" target="_top" xlink:title="Engine::calculate_qos">
<polygon fill="#ffffff" stroke="#000000" points="441,-44 441,-63 563,-63 563,-44 441,-44"/>
<text text-anchor="middle" x="502" y="-51" font-family="Helvetica,sans-Serif" font-size="10.00" fill="#000000">Engine::calculate_qos</text>
</a>
</g>
</g>
<!-- Node27&#45;&gt;Node28 -->
<g id="edge3" class="edge">
<title>Node27&#45;&gt;Node28</title>
<path fill="none" stroke="#191970" d="M244.3992,-82.1631C256.0713,-79.7015 268.4195,-77.3179 280,-75.5 330.1223,-67.6317 387.0787,-62.0554 430.7505,-58.4856"/>
<polygon fill="#191970" stroke="#191970" points="431.2988,-61.953 440.9873,-57.6656 430.7398,-54.9753 431.2988,-61.953"/>
</g>
<!-- Node31 -->
<g id="node7" class="node">
<title>Node31</title>
<g id="a_node7"><a xlink:href="classReliabilityEngine.html#ac7179c4014de0c259d7794f544a2d1c7" target="_top" xlink:title="ReliabilityEngine::plan">
<polygon fill="#ffffff" stroke="#000000" points="280,-85 280,-104 405,-104 405,-85 280,-85"/>
<text text-anchor="middle" x="342.5" y="-92" font-family="Helvetica,sans-Serif" font-size="10.00" fill="#000000">ReliabilityEngine::plan</text>
</a>
</g>
</g>
<!-- Node27&#45;&gt;Node31 -->
<g id="edge6" class="edge">
<title>Node27&#45;&gt;Node31</title>
<path fill="none" stroke="#191970" d="M244.2152,-94.5C252.453,-94.5 261.0984,-94.5 269.7011,-94.5"/>
<polygon fill="#191970" stroke="#191970" points="269.7532,-98.0001 279.7532,-94.5 269.7532,-91.0001 269.7532,-98.0001"/>
</g>
<!-- Node29 -->
<g id="node5" class="node">
<title>Node29</title>
<g id="a_node5"><a xlink:href="classbsn_1_1model_1_1Formula.html#a49ea44acf0d7c9355d8134de7f3d7a3b" target="_top" xlink:title="bsn::model::Formula\l::setTermValueMap">
<polygon fill="#ffffff" stroke="#000000" points="599,-49.5 599,-79.5 715,-79.5 715,-49.5 599,-49.5"/>
<text text-anchor="start" x="607" y="-67.5" font-family="Helvetica,sans-Serif" font-size="10.00" fill="#000000">bsn::model::Formula</text>
<text text-anchor="middle" x="657" y="-56.5" font-family="Helvetica,sans-Serif" font-size="10.00" fill="#000000">::setTermValueMap</text>
</a>
</g>
</g>
<!-- Node28&#45;&gt;Node29 -->
<g id="edge4" class="edge">
<title>Node28&#45;&gt;Node29</title>
<path fill="none" stroke="#191970" d="M563.2601,-57.8475C571.6222,-58.4409 580.2484,-59.0531 588.7253,-59.6547"/>
<polygon fill="#191970" stroke="#191970" points="588.7407,-63.1645 598.9634,-60.3813 589.2363,-56.1821 588.7407,-63.1645"/>
</g>
<!-- Node30 -->
<g id="node6" class="node">
<title>Node30</title>
<g id="a_node6"><a xlink:href="classbsn_1_1model_1_1Formula.html#afa267bb9172a038543604912d0b23ce8" target="_top" xlink:title="bsn::model::Formula\l::evaluate">
<polygon fill="#ffffff" stroke="#000000" points="599,-.5 599,-30.5 715,-30.5 715,-.5 599,-.5"/>
<text text-anchor="start" x="607" y="-18.5" font-family="Helvetica,sans-Serif" font-size="10.00" fill="#000000">bsn::model::Formula</text>
<text text-anchor="middle" x="657" y="-7.5" font-family="Helvetica,sans-Serif" font-size="10.00" fill="#000000">::evaluate</text>
</a>
</g>
</g>
<!-- Node28&#45;&gt;Node30 -->
<g id="edge5" class="edge">
<title>Node28&#45;&gt;Node30</title>
<path fill="none" stroke="#191970" d="M541.113,-43.911C555.5954,-40.3605 572.4703,-36.2234 588.788,-32.2229"/>
<polygon fill="#191970" stroke="#191970" points="589.9707,-35.5367 598.8496,-29.7562 588.3038,-28.7381 589.9707,-35.5367"/>
</g>
<!-- Node31&#45;&gt;Node28 -->
<g id="edge7" class="edge">
<title>Node31&#45;&gt;Node28</title>
<path fill="none" stroke="#191970" d="M379.4934,-84.9907C401.9595,-79.2157 430.8529,-71.7886 454.9368,-65.5977"/>
<polygon fill="#191970" stroke="#191970" points="456.1175,-68.9081 464.9313,-63.0286 454.3747,-62.1285 456.1175,-68.9081"/>
</g>
<!-- Node32 -->
<g id="node8" class="node">
<title>Node32</title>
<g id="a_node8"><a xlink:href="classReliabilityEngine.html#a7837ed9e42d0b47872fe862cf0a4b63f" target="_top" xlink:title="ReliabilityEngine::\lexecute">
<polygon fill="#ffffff" stroke="#000000" points="450,-82.5 450,-112.5 554,-112.5 554,-82.5 450,-82.5"/>
<text text-anchor="start" x="458" y="-100.5" font-family="Helvetica,sans-Serif" font-size="10.00" fill="#000000">ReliabilityEngine::</text>
<text text-anchor="middle" x="502" y="-89.5" font-family="Helvetica,sans-Serif" font-size="10.00" fill="#000000">execute</text>
</a>
</g>
</g>
<!-- Node31&#45;&gt;Node32 -->
<g id="edge8" class="edge">
<title>Node31&#45;&gt;Node32</title>
<path fill="none" stroke="#191970" d="M405.0808,-95.6771C416.4402,-95.8907 428.2875,-96.1136 439.6405,-96.3271"/>
<polygon fill="#191970" stroke="#191970" points="439.8355,-99.8313 449.8996,-96.5201 439.9673,-92.8325 439.8355,-99.8313"/>
</g>
<!-- Node32&#45;&gt;Node26 -->
<g id="edge9" class="edge">
<title>Node32&#45;&gt;Node26</title>
<path fill="none" stroke="#191970" d="M554.0439,-108.5803C569.6993,-111.9134 586.9137,-115.5784 602.7107,-118.9416"/>
<polygon fill="#191970" stroke="#191970" points="602.3466,-122.4425 612.8562,-121.1016 603.8043,-115.5959 602.3466,-122.4425"/>
</g>
</g>
</svg>
