<?xml version="1.0" encoding="UTF-8" standalone="no"?>
<!DOCTYPE svg PUBLIC "-//W3C//DTD SVG 1.1//EN"
 "http://www.w3.org/Graphics/SVG/1.1/DTD/svg11.dtd">
<!-- Generated by graphviz version 2.40.1 (20161225.0304)
 -->
<!-- Title: G3T1_2::process Pages: 1 -->
<svg width="290pt" height="186pt"
 viewBox="0.00 0.00 290.00 186.00" xmlns="http://www.w3.org/2000/svg" xmlns:xlink="http://www.w3.org/1999/xlink">
<g id="graph0" class="graph" transform="scale(1 1) rotate(0) translate(4 182)">
<title>G3T1_2::process</title>
<polygon fill="#ffffff" stroke="transparent" points="-4,4 -4,-182 286,-182 286,4 -4,4"/>
<!-- Node14 -->
<g id="node1" class="node">
<title>Node14</title>
<polygon fill="#bfbfbf" stroke="#000000" points="0,-79 0,-98 97,-98 97,-79 0,-79"/>
<text text-anchor="middle" x="48.5" y="-86" font-family="Helvetica,sans-Serif" font-size="10.00" fill="#000000">G3T1_2::process</text>
</g>
<!-- Node15 -->
<g id="node2" class="node">
<title>Node15</title>
<g id="a_node2"><a xlink:href="classbsn_1_1filters_1_1MovingAverage.html#a1064ba6989920ec1929a5992b1717993" target="_top" xlink:title="bsn::filters::MovingAverage\l::insert">
<polygon fill="#ffffff" stroke="#000000" points="133,-147.5 133,-177.5 282,-177.5 282,-147.5 133,-147.5"/>
<text text-anchor="start" x="141" y="-165.5" font-family="Helvetica,sans-Serif" font-size="10.00" fill="#000000">bsn::filters::MovingAverage</text>
<text text-anchor="middle" x="207.5" y="-154.5" font-family="Helvetica,sans-Serif" font-size="10.00" fill="#000000">::insert</text>
</a>
</g>
</g>
<!-- Node14&#45;&gt;Node15 -->
<g id="edge1" class="edge">
<title>Node14&#45;&gt;Node15</title>
<path fill="none" stroke="#191970" d="M62.6257,-98.1909C78.9919,-109.0977 107.042,-126.815 133,-138.5 137.1549,-140.3703 141.4995,-142.1624 145.9128,-143.8647"/>
<polygon fill="#191970" stroke="#191970" points="145.0437,-147.2743 155.6371,-147.4434 147.4613,-140.705 145.0437,-147.2743"/>
</g>
<!-- Node16 -->
<g id="node3" class="node">
<title>Node16</title>
<g id="a_node3"><a xlink:href="classbsn_1_1filters_1_1MovingAverage.html#a1b817aab4d87963ac5f2c868a81bfa9d" target="_top" xlink:title="bsn::filters::MovingAverage\l::getValue">
<polygon fill="#ffffff" stroke="#000000" points="133,-98.5 133,-128.5 282,-128.5 282,-98.5 133,-98.5"/>
<text text-anchor="start" x="141" y="-116.5" font-family="Helvetica,sans-Serif" font-size="10.00" fill="#000000">bsn::filters::MovingAverage</text>
<text text-anchor="middle" x="207.5" y="-105.5" font-family="Helvetica,sans-Serif" font-size="10.00" fill="#000000">::getValue</text>
</a>
</g>
</g>
<!-- Node14&#45;&gt;Node16 -->
<g id="edge2" class="edge">
<title>Node14&#45;&gt;Node16</title>
<path fill="none" stroke="#191970" d="M97.0692,-96.1367C105.2971,-97.4304 114.0487,-98.8064 122.8849,-100.1957"/>
<polygon fill="#191970" stroke="#191970" points="122.4515,-103.6705 132.8738,-101.7663 123.5389,-96.7555 122.4515,-103.6705"/>
</g>
<!-- Node17 -->
<g id="node4" class="node">
<title>Node17</title>
<g id="a_node4"><a xlink:href="classbsn_1_1resource_1_1Battery.html#aedd16b53e50acce84e3f77dfd6d38e74" target="_top" xlink:title="bsn::resource::Battery\l::consume">
<polygon fill="#ffffff" stroke="#000000" points="145.5,-49.5 145.5,-79.5 269.5,-79.5 269.5,-49.5 145.5,-49.5"/>
<text text-anchor="start" x="153.5" y="-67.5" font-family="Helvetica,sans-Serif" font-size="10.00" fill="#000000">bsn::resource::Battery</text>
<text text-anchor="middle" x="207.5" y="-56.5" font-family="Helvetica,sans-Serif" font-size="10.00" fill="#000000">::consume</text>
</a>
</g>
</g>
<!-- Node14&#45;&gt;Node17 -->
<g id="edge3" class="edge">
<title>Node14&#45;&gt;Node17</title>
<path fill="none" stroke="#191970" d="M97.0692,-81.1688C109.1036,-79.3523 122.2582,-77.3667 135.1594,-75.4193"/>
<polygon fill="#191970" stroke="#191970" points="136.0596,-78.8232 145.4252,-73.8698 135.0148,-71.9016 136.0596,-78.8232"/>
</g>
<!-- Node18 -->
<g id="node5" class="node">
<title>Node18</title>
<g id="a_node5"><a xlink:href="classbsn_1_1filters_1_1MovingAverage.html#a5a462e665a7faa4df75d803a38d04d22" target="_top" xlink:title="bsn::filters::MovingAverage\l::getRange">
<polygon fill="#ffffff" stroke="#000000" points="133,-.5 133,-30.5 282,-30.5 282,-.5 133,-.5"/>
<text text-anchor="start" x="141" y="-18.5" font-family="Helvetica,sans-Serif" font-size="10.00" fill="#000000">bsn::filters::MovingAverage</text>
<text text-anchor="middle" x="207.5" y="-7.5" font-family="Helvetica,sans-Serif" font-size="10.00" fill="#000000">::getRange</text>
</a>
</g>
</g>
<!-- Node14&#45;&gt;Node18 -->
<g id="edge4" class="edge">
<title>Node14&#45;&gt;Node18</title>
<path fill="none" stroke="#191970" d="M63.306,-78.9212C79.8271,-68.5136 107.583,-51.8559 133,-40.5 137.9825,-38.2739 143.2267,-36.1331 148.5294,-34.1053"/>
<polygon fill="#191970" stroke="#191970" points="149.9189,-37.3235 158.0933,-30.5833 147.4998,-30.7547 149.9189,-37.3235"/>
</g>
</g>
</svg>
