<?xml version="1.0" encoding="UTF-8" standalone="no"?>
<!DOCTYPE svg PUBLIC "-//W3C//DTD SVG 1.1//EN"
 "http://www.w3.org/Graphics/SVG/1.1/DTD/svg11.dtd">
<!-- Generated by graphviz version 2.40.1 (20161225.0304)
 -->
<!-- Title: DataAccess::setUp Pages: 1 -->
<svg width="446pt" height="215pt"
 viewBox="0.00 0.00 446.00 215.00" xmlns="http://www.w3.org/2000/svg" xmlns:xlink="http://www.w3.org/1999/xlink">
<g id="graph0" class="graph" transform="scale(1 1) rotate(0) translate(4 211)">
<title>DataAccess::setUp</title>
<polygon fill="#ffffff" stroke="transparent" points="-4,4 -4,-211 442,-211 442,4 -4,4"/>
<!-- Node18 -->
<g id="node1" class="node">
<title>Node18</title>
<polygon fill="#bfbfbf" stroke="#000000" points="0,-94 0,-113 108,-113 108,-94 0,-94"/>
<text text-anchor="middle" x="54" y="-101" font-family="Helvetica,sans-Serif" font-size="10.00" fill="#000000">DataAccess::setUp</text>
</g>
<!-- Node19 -->
<g id="node2" class="node">
<title>Node19</title>
<g id="a_node2"><a xlink:href="classarch_1_1ROSComponentDescriptor.html#a6ae1f0c4c644bce7bc7e99e408dc7ca0" target="_top" xlink:title="arch::ROSComponentDescriptor\l::setFreq">
<polygon fill="#ffffff" stroke="#000000" points="144,-176.5 144,-206.5 314,-206.5 314,-176.5 144,-176.5"/>
<text text-anchor="start" x="152" y="-194.5" font-family="Helvetica,sans-Serif" font-size="10.00" fill="#000000">arch::ROSComponentDescriptor</text>
<text text-anchor="middle" x="229" y="-183.5" font-family="Helvetica,sans-Serif" font-size="10.00" fill="#000000">::setFreq</text>
</a>
</g>
</g>
<!-- Node18&#45;&gt;Node19 -->
<g id="edge1" class="edge">
<title>Node18&#45;&gt;Node19</title>
<path fill="none" stroke="#191970" d="M65.1787,-113.1532C81.4911,-126.7956 113.2347,-151.6997 144,-166.5 148.8515,-168.8339 153.9652,-170.9969 159.1788,-172.9922"/>
<polygon fill="#191970" stroke="#191970" points="158.0417,-176.3027 168.636,-176.4031 160.4167,-169.7179 158.0417,-176.3027"/>
</g>
<!-- Node20 -->
<g id="node3" class="node">
<title>Node20</title>
<g id="a_node3"><a xlink:href="DataAccess_8cpp.html#a91c81650aefc601969c8f6437b73709e" target="_top" xlink:title="fetch_formula">
<polygon fill="#ffffff" stroke="#000000" points="186.5,-138 186.5,-157 271.5,-157 271.5,-138 186.5,-138"/>
<text text-anchor="middle" x="229" y="-145" font-family="Helvetica,sans-Serif" font-size="10.00" fill="#000000">fetch_formula</text>
</a>
</g>
</g>
<!-- Node18&#45;&gt;Node20 -->
<g id="edge2" class="edge">
<title>Node18&#45;&gt;Node20</title>
<path fill="none" stroke="#191970" d="M86.8081,-113.0468C103.8186,-117.8865 124.9659,-123.7323 144,-128.5 154.3375,-131.0893 165.4253,-133.693 176.0668,-136.1068"/>
<polygon fill="#191970" stroke="#191970" points="175.57,-139.5823 186.0937,-138.3563 177.1024,-132.7521 175.57,-139.5823"/>
</g>
<!-- Node21 -->
<g id="node4" class="node">
<title>Node21</title>
<g id="a_node4"><a xlink:href="classDataAccess.html#abe7d46e840f7b047a9dfedb76e07518d" target="_top" xlink:title="DataAccess::receivePersist\lMessage">
<polygon fill="#ffffff" stroke="#000000" points="154.5,-88.5 154.5,-118.5 303.5,-118.5 303.5,-88.5 154.5,-88.5"/>
<text text-anchor="start" x="162.5" y="-106.5" font-family="Helvetica,sans-Serif" font-size="10.00" fill="#000000">DataAccess::receivePersist</text>
<text text-anchor="middle" x="229" y="-95.5" font-family="Helvetica,sans-Serif" font-size="10.00" fill="#000000">Message</text>
</a>
</g>
</g>
<!-- Node18&#45;&gt;Node21 -->
<g id="edge3" class="edge">
<title>Node18&#45;&gt;Node21</title>
<path fill="none" stroke="#191970" d="M108.4118,-103.5C119.7779,-103.5 132.0176,-103.5 144.1878,-103.5"/>
<polygon fill="#191970" stroke="#191970" points="144.3739,-107.0001 154.3738,-103.5 144.3738,-100.0001 144.3739,-107.0001"/>
</g>
<!-- Node22 -->
<g id="node5" class="node">
<title>Node22</title>
<g id="a_node5"><a xlink:href="classDataAccess.html#a8bf4ba9143c8a274736aedbdacde9991" target="_top" xlink:title="DataAccess::processQuery">
<polygon fill="#ffffff" stroke="#000000" points="156,-50 156,-69 302,-69 302,-50 156,-50"/>
<text text-anchor="middle" x="229" y="-57" font-family="Helvetica,sans-Serif" font-size="10.00" fill="#000000">DataAccess::processQuery</text>
</a>
</g>
</g>
<!-- Node18&#45;&gt;Node22 -->
<g id="edge4" class="edge">
<title>Node18&#45;&gt;Node22</title>
<path fill="none" stroke="#191970" d="M88.9853,-93.9136C105.6209,-89.4211 125.8057,-84.0654 144,-79.5 154.8075,-76.7882 166.4159,-73.9849 177.4743,-71.3662"/>
<polygon fill="#191970" stroke="#191970" points="178.5047,-74.7194 187.4366,-69.0211 176.9007,-67.9056 178.5047,-74.7194"/>
</g>
<!-- Node24 -->
<g id="node7" class="node">
<title>Node24</title>
<g id="a_node7"><a xlink:href="classDataAccess.html#a8a0b01f7a39714b33d5465ef31c3c147" target="_top" xlink:title="DataAccess::processTarget\lSystemData">
<polygon fill="#ffffff" stroke="#000000" points="155.5,-.5 155.5,-30.5 302.5,-30.5 302.5,-.5 155.5,-.5"/>
<text text-anchor="start" x="163.5" y="-18.5" font-family="Helvetica,sans-Serif" font-size="10.00" fill="#000000">DataAccess::processTarget</text>
<text text-anchor="middle" x="229" y="-7.5" font-family="Helvetica,sans-Serif" font-size="10.00" fill="#000000">SystemData</text>
</a>
</g>
</g>
<!-- Node18&#45;&gt;Node24 -->
<g id="edge6" class="edge">
<title>Node18&#45;&gt;Node24</title>
<path fill="none" stroke="#191970" d="M65.1787,-93.8468C81.4911,-80.2044 113.2347,-55.3003 144,-40.5 148.8515,-38.1661 153.9652,-36.0031 159.1788,-34.0078"/>
<polygon fill="#191970" stroke="#191970" points="160.4167,-37.2821 168.636,-30.5969 158.0417,-30.6973 160.4167,-37.2821"/>
</g>
<!-- Node23 -->
<g id="node6" class="node">
<title>Node23</title>
<g id="a_node6"><a xlink:href="namespacebsn_1_1utils.html#a4ab7be3d27380abe032f4ceec86b09b2" target="_top" xlink:title="bsn::utils::split">
<polygon fill="#ffffff" stroke="#000000" points="350,-50 350,-69 438,-69 438,-50 350,-50"/>
<text text-anchor="middle" x="394" y="-57" font-family="Helvetica,sans-Serif" font-size="10.00" fill="#000000">bsn::utils::split</text>
</a>
</g>
</g>
<!-- Node22&#45;&gt;Node23 -->
<g id="edge5" class="edge">
<title>Node22&#45;&gt;Node23</title>
<path fill="none" stroke="#191970" d="M302.3323,-59.5C314.8473,-59.5 327.6472,-59.5 339.5609,-59.5"/>
<polygon fill="#191970" stroke="#191970" points="339.7729,-63.0001 349.7729,-59.5 339.7728,-56.0001 339.7729,-63.0001"/>
</g>
</g>
</svg>
