<?xml version="1.0" encoding="UTF-8" standalone="no"?>
<!DOCTYPE svg PUBLIC "-//W3C//DTD SVG 1.1//EN"
 "http://www.w3.org/Graphics/SVG/1.1/DTD/svg11.dtd">
<!-- Generated by graphviz version 2.40.1 (20161225.0304)
 -->
<!-- Title: bsn::goalmodel::Property::operator= Pages: 1 -->
<svg width="322pt" height="88pt"
 viewBox="0.00 0.00 322.00 88.00" xmlns="http://www.w3.org/2000/svg" xmlns:xlink="http://www.w3.org/1999/xlink">
<g id="graph0" class="graph" transform="scale(1 1) rotate(0) translate(4 84)">
<title>bsn::goalmodel::Property::operator=</title>
<polygon fill="#ffffff" stroke="transparent" points="-4,4 -4,-84 318,-84 318,4 -4,4"/>
<!-- Node16 -->
<g id="node1" class="node">
<title>Node16</title>
<polygon fill="#bfbfbf" stroke="#000000" points="0,-24.5 0,-54.5 139,-54.5 139,-24.5 0,-24.5"/>
<text text-anchor="start" x="8" y="-42.5" font-family="Helvetica,sans-Serif" font-size="10.00" fill="#000000">bsn::goalmodel::Property</text>
<text text-anchor="middle" x="69.5" y="-31.5" font-family="Helvetica,sans-Serif" font-size="10.00" fill="#000000">::operator=</text>
</g>
<!-- Node17 -->
<g id="node2" class="node">
<title>Node17</title>
<g id="a_node2"><a xlink:href="classbsn_1_1goalmodel_1_1Property.html#a6093b47a372aee1ee4e61a6c33ad8a5f" target="_top" xlink:title="bsn::goalmodel::Property\l::getID">
<polygon fill="#ffffff" stroke="#000000" points="175,-49.5 175,-79.5 314,-79.5 314,-49.5 175,-49.5"/>
<text text-anchor="start" x="183" y="-67.5" font-family="Helvetica,sans-Serif" font-size="10.00" fill="#000000">bsn::goalmodel::Property</text>
<text text-anchor="middle" x="244.5" y="-56.5" font-family="Helvetica,sans-Serif" font-size="10.00" fill="#000000">::getID</text>
</a>
</g>
</g>
<!-- Node16&#45;&gt;Node17 -->
<g id="edge1" class="edge">
<title>Node16&#45;&gt;Node17</title>
<path fill="none" stroke="#191970" d="M139.1675,-49.4525C147.594,-50.6563 156.251,-51.893 164.8076,-53.1154"/>
<polygon fill="#191970" stroke="#191970" points="164.3918,-56.5914 174.7863,-54.5409 165.3819,-49.6618 164.3918,-56.5914"/>
</g>
<!-- Node18 -->
<g id="node3" class="node">
<title>Node18</title>
<g id="a_node3"><a xlink:href="classbsn_1_1goalmodel_1_1Property.html#a333f562fecf724207a06034e1baa9ca7" target="_top" xlink:title="bsn::goalmodel::Property\l::getValue">
<polygon fill="#ffffff" stroke="#000000" points="175,-.5 175,-30.5 314,-30.5 314,-.5 175,-.5"/>
<text text-anchor="start" x="183" y="-18.5" font-family="Helvetica,sans-Serif" font-size="10.00" fill="#000000">bsn::goalmodel::Property</text>
<text text-anchor="middle" x="244.5" y="-7.5" font-family="Helvetica,sans-Serif" font-size="10.00" fill="#000000">::getValue</text>
</a>
</g>
</g>
<!-- Node16&#45;&gt;Node18 -->
<g id="edge2" class="edge">
<title>Node16&#45;&gt;Node18</title>
<path fill="none" stroke="#191970" d="M139.1675,-29.9456C147.594,-28.79 156.251,-27.6027 164.8076,-26.4292"/>
<polygon fill="#191970" stroke="#191970" points="165.3547,-29.8871 174.7863,-25.0607 164.4035,-22.952 165.3547,-29.8871"/>
</g>
</g>
</svg>
