<?xml version="1.0" encoding="UTF-8" standalone="no"?>
<!DOCTYPE svg PUBLIC "-//W3C//DTD SVG 1.1//EN"
 "http://www.w3.org/Graphics/SVG/1.1/DTD/svg11.dtd">
<!-- Generated by graphviz version 2.40.1 (20161225.0304)
 -->
<!-- Title: ConfigurationTest::SetUp Pages: 1 -->
<svg width="272pt" height="509pt"
 viewBox="0.00 0.00 272.00 508.50" xmlns="http://www.w3.org/2000/svg" xmlns:xlink="http://www.w3.org/1999/xlink">
<g id="graph0" class="graph" transform="scale(1 1) rotate(0) translate(4 504.5)">
<title>ConfigurationTest::SetUp</title>
<polygon fill="#ffffff" stroke="transparent" points="-4,4 -4,-504.5 268,-504.5 268,4 -4,4"/>
<!-- Node2 -->
<g id="node1" class="node">
<title>Node2</title>
<polygon fill="#bfbfbf" stroke="#000000" points="0,-246 0,-276 107,-276 107,-246 0,-246"/>
<text text-anchor="start" x="8" y="-264" font-family="Helvetica,sans-Serif" font-size="10.00" fill="#000000">ConfigurationTest::</text>
<text text-anchor="middle" x="53.5" y="-253" font-family="Helvetica,sans-Serif" font-size="10.00" fill="#000000">SetUp</text>
</g>
<!-- Node3 -->
<g id="node2" class="node">
<title>Node3</title>
<g id="a_node2"><a xlink:href="classbsn_1_1range_1_1Range.html#a8eda775bde2030785c9d495039f4b0f0" target="_top" xlink:title="bsn::range::Range::\lsetLowerBound">
<polygon fill="#ffffff" stroke="#000000" points="148.5,-470 148.5,-500 258.5,-500 258.5,-470 148.5,-470"/>
<text text-anchor="start" x="156.5" y="-488" font-family="Helvetica,sans-Serif" font-size="10.00" fill="#000000">bsn::range::Range::</text>
<text text-anchor="middle" x="203.5" y="-477" font-family="Helvetica,sans-Serif" font-size="10.00" fill="#000000">setLowerBound</text>
</a>
</g>
</g>
<!-- Node2&#45;&gt;Node3 -->
<g id="edge1" class="edge">
<title>Node2&#45;&gt;Node3</title>
<path fill="none" stroke="#191970" d="M56.1947,-276.0283C63.5147,-312.6577 87.094,-407.4542 143,-461 144.1221,-462.0747 145.2981,-463.1032 146.5192,-464.0873"/>
<polygon fill="#191970" stroke="#191970" points="144.9,-467.2193 155.1346,-469.9586 148.8421,-461.4348 144.9,-467.2193"/>
</g>
<!-- Node4 -->
<g id="node3" class="node">
<title>Node4</title>
<g id="a_node3"><a xlink:href="classbsn_1_1range_1_1Range.html#a1a39ab11d284a377b8015cac09bfd763" target="_top" xlink:title="bsn::range::Range::\lsetUpperBound">
<polygon fill="#ffffff" stroke="#000000" points="148.5,-421 148.5,-451 258.5,-451 258.5,-421 148.5,-421"/>
<text text-anchor="start" x="156.5" y="-439" font-family="Helvetica,sans-Serif" font-size="10.00" fill="#000000">bsn::range::Range::</text>
<text text-anchor="middle" x="203.5" y="-428" font-family="Helvetica,sans-Serif" font-size="10.00" fill="#000000">setUpperBound</text>
</a>
</g>
</g>
<!-- Node2&#45;&gt;Node4 -->
<g id="edge2" class="edge">
<title>Node2&#45;&gt;Node4</title>
<path fill="none" stroke="#191970" d="M58.8713,-276.3668C70.0353,-306.2328 98.4752,-372.5479 143,-411 144.9192,-412.6574 146.9634,-414.2158 149.0963,-415.6799"/>
<polygon fill="#191970" stroke="#191970" points="147.3165,-418.6938 157.6856,-420.8692 150.9363,-412.7023 147.3165,-418.6938"/>
</g>
<!-- Node5 -->
<g id="node4" class="node">
<title>Node5</title>
<g id="a_node4"><a xlink:href="classbsn_1_1configuration_1_1SensorConfiguration.html#ae89e7fd872467dba154397389e432a5a" target="_top" xlink:title="bsn::configuration\l::SensorConfiguration\l::setId">
<polygon fill="#ffffff" stroke="#000000" points="143,-360.5 143,-401.5 264,-401.5 264,-360.5 143,-360.5"/>
<text text-anchor="start" x="151" y="-389.5" font-family="Helvetica,sans-Serif" font-size="10.00" fill="#000000">bsn::configuration</text>
<text text-anchor="start" x="151" y="-378.5" font-family="Helvetica,sans-Serif" font-size="10.00" fill="#000000">::SensorConfiguration</text>
<text text-anchor="middle" x="203.5" y="-367.5" font-family="Helvetica,sans-Serif" font-size="10.00" fill="#000000">::setId</text>
</a>
</g>
</g>
<!-- Node2&#45;&gt;Node5 -->
<g id="edge3" class="edge">
<title>Node2&#45;&gt;Node5</title>
<path fill="none" stroke="#191970" d="M65.8691,-276.2204C82.0697,-295.4502 112.068,-328.7179 143,-351 145.0393,-352.469 147.1613,-353.9024 149.3378,-355.2958"/>
<polygon fill="#191970" stroke="#191970" points="147.5688,-358.316 157.9439,-360.4627 151.172,-352.3145 147.5688,-358.316"/>
</g>
<!-- Node6 -->
<g id="node5" class="node">
<title>Node6</title>
<g id="a_node5"><a xlink:href="classbsn_1_1configuration_1_1SensorConfiguration.html#a62b42b1f5f7fecb9f4c198f1f8c2880c" target="_top" xlink:title="bsn::configuration\l::SensorConfiguration\l::setLowRisk">
<polygon fill="#ffffff" stroke="#000000" points="143,-300.5 143,-341.5 264,-341.5 264,-300.5 143,-300.5"/>
<text text-anchor="start" x="151" y="-329.5" font-family="Helvetica,sans-Serif" font-size="10.00" fill="#000000">bsn::configuration</text>
<text text-anchor="start" x="151" y="-318.5" font-family="Helvetica,sans-Serif" font-size="10.00" fill="#000000">::SensorConfiguration</text>
<text text-anchor="middle" x="203.5" y="-307.5" font-family="Helvetica,sans-Serif" font-size="10.00" fill="#000000">::setLowRisk</text>
</a>
</g>
</g>
<!-- Node2&#45;&gt;Node6 -->
<g id="edge4" class="edge">
<title>Node2&#45;&gt;Node6</title>
<path fill="none" stroke="#191970" d="M91.3513,-276.1405C106.8758,-282.3503 125.2413,-289.6965 142.5678,-296.6271"/>
<polygon fill="#191970" stroke="#191970" points="141.4775,-299.9606 152.0621,-300.4249 144.0773,-293.4612 141.4775,-299.9606"/>
</g>
<!-- Node7 -->
<g id="node6" class="node">
<title>Node7</title>
<g id="a_node6"><a xlink:href="classbsn_1_1configuration_1_1SensorConfiguration.html#a3d67705908e159fe7e22fe8da3c6459d" target="_top" xlink:title="bsn::configuration\l::SensorConfiguration\l::setMediumRisk">
<polygon fill="#ffffff" stroke="#000000" points="143,-240.5 143,-281.5 264,-281.5 264,-240.5 143,-240.5"/>
<text text-anchor="start" x="151" y="-269.5" font-family="Helvetica,sans-Serif" font-size="10.00" fill="#000000">bsn::configuration</text>
<text text-anchor="start" x="151" y="-258.5" font-family="Helvetica,sans-Serif" font-size="10.00" fill="#000000">::SensorConfiguration</text>
<text text-anchor="middle" x="203.5" y="-247.5" font-family="Helvetica,sans-Serif" font-size="10.00" fill="#000000">::setMediumRisk</text>
</a>
</g>
</g>
<!-- Node2&#45;&gt;Node7 -->
<g id="edge5" class="edge">
<title>Node2&#45;&gt;Node7</title>
<path fill="none" stroke="#191970" d="M107.2298,-261C115.5075,-261 124.162,-261 132.7423,-261"/>
<polygon fill="#191970" stroke="#191970" points="132.7537,-264.5001 142.7536,-261 132.7536,-257.5001 132.7537,-264.5001"/>
</g>
<!-- Node8 -->
<g id="node7" class="node">
<title>Node8</title>
<g id="a_node7"><a xlink:href="classbsn_1_1configuration_1_1SensorConfiguration.html#a90b348d540e0ecadc78eee3535506b9c" target="_top" xlink:title="bsn::configuration\l::SensorConfiguration\l::setHighRisk">
<polygon fill="#ffffff" stroke="#000000" points="143,-180.5 143,-221.5 264,-221.5 264,-180.5 143,-180.5"/>
<text text-anchor="start" x="151" y="-209.5" font-family="Helvetica,sans-Serif" font-size="10.00" fill="#000000">bsn::configuration</text>
<text text-anchor="start" x="151" y="-198.5" font-family="Helvetica,sans-Serif" font-size="10.00" fill="#000000">::SensorConfiguration</text>
<text text-anchor="middle" x="203.5" y="-187.5" font-family="Helvetica,sans-Serif" font-size="10.00" fill="#000000">::setHighRisk</text>
</a>
</g>
</g>
<!-- Node2&#45;&gt;Node8 -->
<g id="edge6" class="edge">
<title>Node2&#45;&gt;Node8</title>
<path fill="none" stroke="#191970" d="M91.3513,-245.8595C106.8758,-239.6497 125.2413,-232.3035 142.5678,-225.3729"/>
<polygon fill="#191970" stroke="#191970" points="144.0773,-228.5388 152.0621,-221.5751 141.4775,-222.0394 144.0773,-228.5388"/>
</g>
<!-- Node9 -->
<g id="node8" class="node">
<title>Node9</title>
<g id="a_node8"><a xlink:href="classbsn_1_1configuration_1_1SensorConfiguration.html#a234427e4eafc20d2c17449b083735d9a" target="_top" xlink:title="bsn::configuration\l::SensorConfiguration\l::setLowPercentage">
<polygon fill="#ffffff" stroke="#000000" points="143,-120.5 143,-161.5 264,-161.5 264,-120.5 143,-120.5"/>
<text text-anchor="start" x="151" y="-149.5" font-family="Helvetica,sans-Serif" font-size="10.00" fill="#000000">bsn::configuration</text>
<text text-anchor="start" x="151" y="-138.5" font-family="Helvetica,sans-Serif" font-size="10.00" fill="#000000">::SensorConfiguration</text>
<text text-anchor="middle" x="203.5" y="-127.5" font-family="Helvetica,sans-Serif" font-size="10.00" fill="#000000">::setLowPercentage</text>
</a>
</g>
</g>
<!-- Node2&#45;&gt;Node9 -->
<g id="edge7" class="edge">
<title>Node2&#45;&gt;Node9</title>
<path fill="none" stroke="#191970" d="M65.8691,-245.7796C82.0697,-226.5498 112.068,-193.2821 143,-171 145.0393,-169.531 147.1613,-168.0976 149.3378,-166.7042"/>
<polygon fill="#191970" stroke="#191970" points="151.172,-169.6855 157.9439,-161.5373 147.5688,-163.684 151.172,-169.6855"/>
</g>
<!-- Node10 -->
<g id="node9" class="node">
<title>Node10</title>
<g id="a_node9"><a xlink:href="classbsn_1_1configuration_1_1SensorConfiguration.html#a00960001bdeb1905c03b8fb9c6cec556" target="_top" xlink:title="bsn::configuration\l::SensorConfiguration\l::setMidPercentage">
<polygon fill="#ffffff" stroke="#000000" points="143,-60.5 143,-101.5 264,-101.5 264,-60.5 143,-60.5"/>
<text text-anchor="start" x="151" y="-89.5" font-family="Helvetica,sans-Serif" font-size="10.00" fill="#000000">bsn::configuration</text>
<text text-anchor="start" x="151" y="-78.5" font-family="Helvetica,sans-Serif" font-size="10.00" fill="#000000">::SensorConfiguration</text>
<text text-anchor="middle" x="203.5" y="-67.5" font-family="Helvetica,sans-Serif" font-size="10.00" fill="#000000">::setMidPercentage</text>
</a>
</g>
</g>
<!-- Node2&#45;&gt;Node10 -->
<g id="edge8" class="edge">
<title>Node2&#45;&gt;Node10</title>
<path fill="none" stroke="#191970" d="M59.1075,-245.8974C70.6855,-216.4946 99.8177,-150.9538 143,-111 144.272,-109.8231 145.5988,-108.6821 146.9699,-107.5768"/>
<polygon fill="#191970" stroke="#191970" points="149.1573,-110.3148 155.2323,-101.6347 145.0703,-104.6318 149.1573,-110.3148"/>
</g>
<!-- Node11 -->
<g id="node10" class="node">
<title>Node11</title>
<g id="a_node10"><a xlink:href="classbsn_1_1configuration_1_1SensorConfiguration.html#ad877e9ac2d6a98476ef8ac47f7414390" target="_top" xlink:title="bsn::configuration\l::SensorConfiguration\l::setHighPercentage">
<polygon fill="#ffffff" stroke="#000000" points="143,-.5 143,-41.5 264,-41.5 264,-.5 143,-.5"/>
<text text-anchor="start" x="151" y="-29.5" font-family="Helvetica,sans-Serif" font-size="10.00" fill="#000000">bsn::configuration</text>
<text text-anchor="start" x="151" y="-18.5" font-family="Helvetica,sans-Serif" font-size="10.00" fill="#000000">::SensorConfiguration</text>
<text text-anchor="middle" x="203.5" y="-7.5" font-family="Helvetica,sans-Serif" font-size="10.00" fill="#000000">::setHighPercentage</text>
</a>
</g>
</g>
<!-- Node2&#45;&gt;Node11 -->
<g id="edge9" class="edge">
<title>Node2&#45;&gt;Node11</title>
<path fill="none" stroke="#191970" d="M56.208,-245.8029C63.6188,-208.2342 87.4976,-109.7867 143,-51 144.0312,-49.9078 145.1107,-48.8497 146.2312,-47.8252"/>
<polygon fill="#191970" stroke="#191970" points="148.4876,-50.5027 154.141,-41.5422 144.1337,-45.0214 148.4876,-50.5027"/>
</g>
</g>
</svg>
