<?xml version="1.0" encoding="UTF-8" standalone="no"?>
<!DOCTYPE svg PUBLIC "-//W3C//DTD SVG 1.1//EN"
 "http://www.w3.org/Graphics/SVG/1.1/DTD/svg11.dtd">
<!-- Generated by graphviz version 2.40.1 (20161225.0304)
 -->
<!-- Title: CostEngine::monitor Pages: 1 -->
<svg width="720pt" height="143pt"
 viewBox="0.00 0.00 720.00 142.50" xmlns="http://www.w3.org/2000/svg" xmlns:xlink="http://www.w3.org/1999/xlink">
<g id="graph0" class="graph" transform="scale(1 1) rotate(0) translate(4 138.5)">
<title>CostEngine::monitor</title>
<polygon fill="#ffffff" stroke="transparent" points="-4,4 -4,-138.5 716,-138.5 716,4 -4,4"/>
<!-- Node25 -->
<g id="node1" class="node">
<title>Node25</title>
<polygon fill="#bfbfbf" stroke="#000000" points="0,-104 0,-123 116,-123 116,-104 0,-104"/>
<text text-anchor="middle" x="58" y="-111" font-family="Helvetica,sans-Serif" font-size="10.00" fill="#000000">CostEngine::monitor</text>
</g>
<!-- Node26 -->
<g id="node2" class="node">
<title>Node26</title>
<g id="a_node2"><a xlink:href="namespacebsn_1_1utils.html#a4ab7be3d27380abe032f4ceec86b09b2" target="_top" xlink:title="bsn::utils::split">
<polygon fill="#ffffff" stroke="#000000" points="610,-115 610,-134 698,-134 698,-115 610,-115"/>
<text text-anchor="middle" x="654" y="-122" font-family="Helvetica,sans-Serif" font-size="10.00" fill="#000000">bsn::utils::split</text>
</a>
</g>
</g>
<!-- Node25&#45;&gt;Node26 -->
<g id="edge1" class="edge">
<title>Node25&#45;&gt;Node26</title>
<path fill="none" stroke="#191970" d="M116.2322,-114.5748C231.5528,-116.7032 487.5031,-121.4271 599.6155,-123.4963"/>
<polygon fill="#191970" stroke="#191970" points="599.6233,-126.9969 609.6863,-123.6821 599.7526,-119.9981 599.6233,-126.9969"/>
</g>
<!-- Node27 -->
<g id="node3" class="node">
<title>Node27</title>
<g id="a_node3"><a xlink:href="classCostEngine.html#ac10858408b67774d09aa0cae6b2baa59" target="_top" xlink:title="CostEngine::analyze">
<polygon fill="#ffffff" stroke="#000000" points="152,-85 152,-104 268,-104 268,-85 152,-85"/>
<text text-anchor="middle" x="210" y="-92" font-family="Helvetica,sans-Serif" font-size="10.00" fill="#000000">CostEngine::analyze</text>
</a>
</g>
</g>
<!-- Node25&#45;&gt;Node27 -->
<g id="edge2" class="edge">
<title>Node25&#45;&gt;Node27</title>
<path fill="none" stroke="#191970" d="M116.3325,-106.2084C124.6966,-105.1629 133.3631,-104.0796 141.8953,-103.0131"/>
<polygon fill="#191970" stroke="#191970" points="142.335,-106.4855 151.8236,-101.772 141.4667,-99.5395 142.335,-106.4855"/>
</g>
<!-- Node28 -->
<g id="node4" class="node">
<title>Node28</title>
<g id="a_node4"><a xlink:href="classEngine.html#a6b7b458cd4067230dfe02585ce00ab5b" target="_top" xlink:title="Engine::calculate_qos">
<polygon fill="#ffffff" stroke="#000000" points="438,-47 438,-66 560,-66 560,-47 438,-47"/>
<text text-anchor="middle" x="499" y="-54" font-family="Helvetica,sans-Serif" font-size="10.00" fill="#000000">Engine::calculate_qos</text>
</a>
</g>
</g>
<!-- Node27&#45;&gt;Node28 -->
<g id="edge3" class="edge">
<title>Node27&#45;&gt;Node28</title>
<path fill="none" stroke="#191970" d="M252.4196,-84.9672C268.5098,-81.6042 287.0392,-78.0336 304,-75.5 344.744,-69.4136 390.5815,-64.8335 427.5736,-61.6967"/>
<polygon fill="#191970" stroke="#191970" points="428.0853,-65.1664 437.7611,-60.8502 427.5056,-58.1904 428.0853,-65.1664"/>
</g>
<!-- Node31 -->
<g id="node7" class="node">
<title>Node31</title>
<g id="a_node7"><a xlink:href="classCostEngine.html#aca556d9a4dd63201a41c04498b4f2e3d" target="_top" xlink:title="CostEngine::plan">
<polygon fill="#ffffff" stroke="#000000" points="304,-85 304,-104 402,-104 402,-85 304,-85"/>
<text text-anchor="middle" x="353" y="-92" font-family="Helvetica,sans-Serif" font-size="10.00" fill="#000000">CostEngine::plan</text>
</a>
</g>
</g>
<!-- Node27&#45;&gt;Node31 -->
<g id="edge6" class="edge">
<title>Node27&#45;&gt;Node31</title>
<path fill="none" stroke="#191970" d="M268.1636,-94.5C276.5195,-94.5 285.1274,-94.5 293.5086,-94.5"/>
<polygon fill="#191970" stroke="#191970" points="293.5873,-98.0001 303.5873,-94.5 293.5872,-91.0001 293.5873,-98.0001"/>
</g>
<!-- Node29 -->
<g id="node5" class="node">
<title>Node29</title>
<g id="a_node5"><a xlink:href="classbsn_1_1model_1_1Formula.html#a49ea44acf0d7c9355d8134de7f3d7a3b" target="_top" xlink:title="bsn::model::Formula\l::setTermValueMap">
<polygon fill="#ffffff" stroke="#000000" points="596,-49.5 596,-79.5 712,-79.5 712,-49.5 596,-49.5"/>
<text text-anchor="start" x="604" y="-67.5" font-family="Helvetica,sans-Serif" font-size="10.00" fill="#000000">bsn::model::Formula</text>
<text text-anchor="middle" x="654" y="-56.5" font-family="Helvetica,sans-Serif" font-size="10.00" fill="#000000">::setTermValueMap</text>
</a>
</g>
</g>
<!-- Node28&#45;&gt;Node29 -->
<g id="edge4" class="edge">
<title>Node28&#45;&gt;Node29</title>
<path fill="none" stroke="#191970" d="M560.2601,-59.6618C568.6222,-60.0934 577.2484,-60.5386 585.7253,-60.9761"/>
<polygon fill="#191970" stroke="#191970" points="585.7962,-64.4844 595.9634,-61.5046 586.1571,-57.4937 585.7962,-64.4844"/>
</g>
<!-- Node30 -->
<g id="node6" class="node">
<title>Node30</title>
<g id="a_node6"><a xlink:href="classbsn_1_1model_1_1Formula.html#afa267bb9172a038543604912d0b23ce8" target="_top" xlink:title="bsn::model::Formula\l::evaluate">
<polygon fill="#ffffff" stroke="#000000" points="596,-.5 596,-30.5 712,-30.5 712,-.5 596,-.5"/>
<text text-anchor="start" x="604" y="-18.5" font-family="Helvetica,sans-Serif" font-size="10.00" fill="#000000">bsn::model::Formula</text>
<text text-anchor="middle" x="654" y="-7.5" font-family="Helvetica,sans-Serif" font-size="10.00" fill="#000000">::evaluate</text>
</a>
</g>
</g>
<!-- Node28&#45;&gt;Node30 -->
<g id="edge5" class="edge">
<title>Node28&#45;&gt;Node30</title>
<path fill="none" stroke="#191970" d="M534.9497,-46.9907C550.4939,-42.879 569.2042,-37.9298 587.1397,-33.1856"/>
<polygon fill="#191970" stroke="#191970" points="588.2266,-36.5186 596.999,-30.5777 586.4365,-29.7513 588.2266,-36.5186"/>
</g>
<!-- Node31&#45;&gt;Node28 -->
<g id="edge7" class="edge">
<title>Node31&#45;&gt;Node28</title>
<path fill="none" stroke="#191970" d="M389.842,-84.911C408.8479,-79.9642 432.2286,-73.8789 452.4692,-68.6108"/>
<polygon fill="#191970" stroke="#191970" points="453.627,-71.9261 462.423,-66.0201 451.8638,-65.1518 453.627,-71.9261"/>
</g>
<!-- Node32 -->
<g id="node8" class="node">
<title>Node32</title>
<g id="a_node8"><a xlink:href="classCostEngine.html#af1d8ce6fb8bfdb627e60879e98e929df" target="_top" xlink:title="CostEngine::execute">
<polygon fill="#ffffff" stroke="#000000" points="441,-85 441,-104 557,-104 557,-85 441,-85"/>
<text text-anchor="middle" x="499" y="-92" font-family="Helvetica,sans-Serif" font-size="10.00" fill="#000000">CostEngine::execute</text>
</a>
</g>
</g>
<!-- Node31&#45;&gt;Node32 -->
<g id="edge8" class="edge">
<title>Node31&#45;&gt;Node32</title>
<path fill="none" stroke="#191970" d="M402.022,-94.5C411.2446,-94.5 421.0415,-94.5 430.727,-94.5"/>
<polygon fill="#191970" stroke="#191970" points="430.7512,-98.0001 440.7512,-94.5 430.7511,-91.0001 430.7512,-98.0001"/>
</g>
<!-- Node32&#45;&gt;Node26 -->
<g id="edge9" class="edge">
<title>Node32&#45;&gt;Node26</title>
<path fill="none" stroke="#191970" d="M548.4691,-104.0747C564.8306,-107.2414 583.1183,-110.781 599.8143,-114.0124"/>
<polygon fill="#191970" stroke="#191970" points="599.4898,-117.5145 609.9728,-115.9786 600.8201,-110.6421 599.4898,-117.5145"/>
</g>
</g>
</svg>
