<?xml version="1.0" encoding="UTF-8" standalone="no"?>
<!DOCTYPE svg PUBLIC "-//W3C//DTD SVG 1.1//EN"
 "http://www.w3.org/Graphics/SVG/1.1/DTD/svg11.dtd">
<!-- Generated by graphviz version 2.40.1 (20161225.0304)
 -->
<!-- Title: bsn::model::Formula::getTermValueMap Pages: 1 -->
<svg width="276pt" height="78pt"
 viewBox="0.00 0.00 276.00 77.50" xmlns="http://www.w3.org/2000/svg" xmlns:xlink="http://www.w3.org/1999/xlink">
<g id="graph0" class="graph" transform="scale(1 1) rotate(0) translate(4 73.5)">
<title>bsn::model::Formula::getTermValueMap</title>
<polygon fill="#ffffff" stroke="transparent" points="-4,4 -4,-73.5 272,-73.5 272,4 -4,4"/>
<!-- Node37 -->
<g id="node1" class="node">
<title>Node37</title>
<polygon fill="#bfbfbf" stroke="#000000" points="0,-17 0,-47 116,-47 116,-17 0,-17"/>
<text text-anchor="start" x="8" y="-35" font-family="Helvetica,sans-Serif" font-size="10.00" fill="#000000">bsn::model::Formula</text>
<text text-anchor="middle" x="58" y="-24" font-family="Helvetica,sans-Serif" font-size="10.00" fill="#000000">::getTermValueMap</text>
</g>
<!-- Node38 -->
<g id="node2" class="node">
<title>Node38</title>
<g id="a_node2"><a xlink:href="classbsn_1_1model_1_1Formula.html#ae5bae41ffe503228db75f10757344199" target="_top" xlink:title="bsn::model::Formula\l::operator=">
<polygon fill="#ffffff" stroke="#000000" points="152,-39 152,-69 268,-69 268,-39 152,-39"/>
<text text-anchor="start" x="160" y="-57" font-family="Helvetica,sans-Serif" font-size="10.00" fill="#000000">bsn::model::Formula</text>
<text text-anchor="middle" x="210" y="-46" font-family="Helvetica,sans-Serif" font-size="10.00" fill="#000000">::operator=</text>
</a>
</g>
</g>
<!-- Node37&#45;&gt;Node38 -->
<g id="edge1" class="edge">
<title>Node37&#45;&gt;Node38</title>
<path fill="none" stroke="#191970" d="M126.264,-41.8803C134.7979,-43.1155 143.4632,-44.3697 151.8236,-45.5797"/>
<polygon fill="#191970" stroke="#191970" points="126.7307,-38.4115 116.3325,-40.4429 125.7279,-45.3393 126.7307,-38.4115"/>
</g>
<!-- Node39 -->
<g id="node3" class="node">
<title>Node39</title>
<g id="a_node3"><a xlink:href="FormulaTest_8cpp.html#ad221d66557ab1384162a4c79c60b78c0" target="_top" xlink:title="TEST_F">
<polygon fill="#ffffff" stroke="#000000" points="184.5,-.5 184.5,-19.5 235.5,-19.5 235.5,-.5 184.5,-.5"/>
<text text-anchor="middle" x="210" y="-7.5" font-family="Helvetica,sans-Serif" font-size="10.00" fill="#000000">TEST_F</text>
</a>
</g>
</g>
<!-- Node37&#45;&gt;Node39 -->
<g id="edge2" class="edge">
<title>Node37&#45;&gt;Node39</title>
<path fill="none" stroke="#191970" d="M126.336,-22.1093C146.8918,-19.1341 168.203,-16.0496 184.1722,-13.7382"/>
<polygon fill="#191970" stroke="#191970" points="125.7279,-18.6607 116.3325,-23.5571 126.7307,-25.5885 125.7279,-18.6607"/>
</g>
</g>
</svg>
