<?xml version="1.0" encoding="UTF-8" standalone="no"?>
<!DOCTYPE svg PUBLIC "-//W3C//DTD SVG 1.1//EN"
 "http://www.w3.org/Graphics/SVG/1.1/DTD/svg11.dtd">
<!-- Generated by graphviz version 2.40.1 (20161225.0304)
 -->
<!-- Title: Controller::setUp Pages: 1 -->
<svg width="313pt" height="88pt"
 viewBox="0.00 0.00 313.00 88.00" xmlns="http://www.w3.org/2000/svg" xmlns:xlink="http://www.w3.org/1999/xlink">
<g id="graph0" class="graph" transform="scale(1 1) rotate(0) translate(4 84)">
<title>Controller::setUp</title>
<polygon fill="#ffffff" stroke="transparent" points="-4,4 -4,-84 309,-84 309,4 -4,4"/>
<!-- Node10 -->
<g id="node1" class="node">
<title>Node10</title>
<polygon fill="#bfbfbf" stroke="#000000" points="0,-30 0,-49 99,-49 99,-30 0,-30"/>
<text text-anchor="middle" x="49.5" y="-37" font-family="Helvetica,sans-Serif" font-size="10.00" fill="#000000">Controller::setUp</text>
</g>
<!-- Node11 -->
<g id="node2" class="node">
<title>Node11</title>
<g id="a_node2"><a xlink:href="classarch_1_1ROSComponentDescriptor.html#a6ae1f0c4c644bce7bc7e99e408dc7ca0" target="_top" xlink:title="arch::ROSComponentDescriptor\l::setFreq">
<polygon fill="#ffffff" stroke="#000000" points="135,-49.5 135,-79.5 305,-79.5 305,-49.5 135,-49.5"/>
<text text-anchor="start" x="143" y="-67.5" font-family="Helvetica,sans-Serif" font-size="10.00" fill="#000000">arch::ROSComponentDescriptor</text>
<text text-anchor="middle" x="220" y="-56.5" font-family="Helvetica,sans-Serif" font-size="10.00" fill="#000000">::setFreq</text>
</a>
</g>
</g>
<!-- Node10&#45;&gt;Node11 -->
<g id="edge1" class="edge">
<title>Node10&#45;&gt;Node11</title>
<path fill="none" stroke="#191970" d="M99.274,-46.7982C107.4153,-47.992 116.082,-49.2628 124.8911,-50.5544"/>
<polygon fill="#191970" stroke="#191970" points="124.4748,-54.0307 134.8768,-52.0186 125.4904,-47.1048 124.4748,-54.0307"/>
</g>
<!-- Node12 -->
<g id="node3" class="node">
<title>Node12</title>
<g id="a_node3"><a xlink:href="classEnactor.html#a9d0b5483b278c26e060c9dd4b921edb5" target="_top" xlink:title="Enactor::receiveAdaptation\lParameter">
<polygon fill="#ffffff" stroke="#000000" points="145.5,-.5 145.5,-30.5 294.5,-30.5 294.5,-.5 145.5,-.5"/>
<text text-anchor="start" x="153.5" y="-18.5" font-family="Helvetica,sans-Serif" font-size="10.00" fill="#000000">Enactor::receiveAdaptation</text>
<text text-anchor="middle" x="220" y="-7.5" font-family="Helvetica,sans-Serif" font-size="10.00" fill="#000000">Parameter</text>
</a>
</g>
</g>
<!-- Node10&#45;&gt;Node12 -->
<g id="edge2" class="edge">
<title>Node10&#45;&gt;Node12</title>
<path fill="none" stroke="#191970" d="M99.274,-32.4937C110.6751,-30.8888 123.1065,-29.139 135.5163,-27.3921"/>
<polygon fill="#191970" stroke="#191970" points="136.0294,-30.8545 145.4439,-25.9947 135.0536,-23.9228 136.0294,-30.8545"/>
</g>
</g>
</svg>
