<?xml version="1.0" encoding="UTF-8" standalone="no"?>
<!DOCTYPE svg PUBLIC "-//W3C//DTD SVG 1.1//EN"
 "http://www.w3.org/Graphics/SVG/1.1/DTD/svg11.dtd">
<!-- Generated by graphviz version 2.40.1 (20161225.0304)
 -->
<!-- Title: ConfigurationTest Pages: 1 -->
<svg width="486pt" height="463pt"
 viewBox="0.00 0.00 485.50 463.00" xmlns="http://www.w3.org/2000/svg" xmlns:xlink="http://www.w3.org/1999/xlink">
<g id="graph0" class="graph" transform="scale(1 1) rotate(0) translate(4 459)">
<title>ConfigurationTest</title>
<polygon fill="#ffffff" stroke="transparent" points="-4,4 -4,-459 481.5,-459 481.5,4 -4,4"/>
<!-- Node2 -->
<g id="node1" class="node">
<title>Node2</title>
<polygon fill="#bfbfbf" stroke="#000000" points="117,-.5 117,-68.5 237,-68.5 237,-.5 117,-.5"/>
<text text-anchor="middle" x="177" y="-56.5" font-family="Helvetica,sans-Serif" font-size="10.00" fill="#000000">ConfigurationTest</text>
<polyline fill="none" stroke="#000000" points="117,-49.5 237,-49.5 "/>
<text text-anchor="middle" x="177" y="-37.5" font-family="Helvetica,sans-Serif" font-size="10.00" fill="#000000"> </text>
<polyline fill="none" stroke="#000000" points="117,-30.5 237,-30.5 "/>
<text text-anchor="start" x="125" y="-18.5" font-family="Helvetica,sans-Serif" font-size="10.00" fill="#000000"># ConfigurationTest()</text>
<text text-anchor="start" x="125" y="-7.5" font-family="Helvetica,sans-Serif" font-size="10.00" fill="#000000"># SetUp()</text>
</g>
<!-- Node3 -->
<g id="node2" class="node">
<title>Node3</title>
<polygon fill="#ffffff" stroke="#bfbfbf" points="0,-226.5 0,-283.5 36,-283.5 36,-226.5 0,-226.5"/>
<text text-anchor="middle" x="18" y="-271.5" font-family="Helvetica,sans-Serif" font-size="10.00" fill="#000000">Test</text>
<polyline fill="none" stroke="#bfbfbf" points="0,-264.5 36,-264.5 "/>
<text text-anchor="middle" x="18" y="-252.5" font-family="Helvetica,sans-Serif" font-size="10.00" fill="#000000"> </text>
<polyline fill="none" stroke="#bfbfbf" points="0,-245.5 36,-245.5 "/>
<text text-anchor="middle" x="18" y="-233.5" font-family="Helvetica,sans-Serif" font-size="10.00" fill="#000000"> </text>
</g>
<!-- Node3&#45;&gt;Node2 -->
<g id="edge1" class="edge">
<title>Node3&#45;&gt;Node2</title>
<path fill="none" stroke="#191970" d="M24.0834,-216.4543C28.1186,-198.3909 34.6443,-177.1291 45,-160 66.7585,-124.0099 101.537,-91.5417 129.9341,-68.6501"/>
<polygon fill="none" stroke="#191970" points="20.6267,-215.888 22.0373,-226.3885 27.4828,-217.3002 20.6267,-215.888"/>
</g>
<!-- Node4 -->
<g id="node3" class="node">
<title>Node4</title>
<g id="a_node3"><a xlink:href="classbsn_1_1configuration_1_1SensorConfiguration.html" target="_top" xlink:title="{bsn::configuration\l::SensorConfiguration\n||+ SensorConfiguration()\l+ SensorConfiguration()\l+ SensorConfiguration()\l+ operator=()\l+ evaluateNumber()\l+ getDisplacement()\l+ convertRealPercentage()\l+ isLowRisk()\l+ isMediumRisk()\l+ isHighRisk()\land 15 more...\l}">
<polygon fill="#ffffff" stroke="#000000" points="54,-166 54,-344 202,-344 202,-166 54,-166"/>
<text text-anchor="start" x="62" y="-332" font-family="Helvetica,sans-Serif" font-size="10.00" fill="#000000">bsn::configuration</text>
<text text-anchor="middle" x="128" y="-321" font-family="Helvetica,sans-Serif" font-size="10.00" fill="#000000">::SensorConfiguration</text>
<polyline fill="none" stroke="#000000" points="54,-314 202,-314 "/>
<text text-anchor="middle" x="128" y="-302" font-family="Helvetica,sans-Serif" font-size="10.00" fill="#000000"> </text>
<polyline fill="none" stroke="#000000" points="54,-295 202,-295 "/>
<text text-anchor="start" x="62" y="-283" font-family="Helvetica,sans-Serif" font-size="10.00" fill="#000000">+ SensorConfiguration()</text>
<text text-anchor="start" x="62" y="-272" font-family="Helvetica,sans-Serif" font-size="10.00" fill="#000000">+ SensorConfiguration()</text>
<text text-anchor="start" x="62" y="-261" font-family="Helvetica,sans-Serif" font-size="10.00" fill="#000000">+ SensorConfiguration()</text>
<text text-anchor="start" x="62" y="-250" font-family="Helvetica,sans-Serif" font-size="10.00" fill="#000000">+ operator=()</text>
<text text-anchor="start" x="62" y="-239" font-family="Helvetica,sans-Serif" font-size="10.00" fill="#000000">+ evaluateNumber()</text>
<text text-anchor="start" x="62" y="-228" font-family="Helvetica,sans-Serif" font-size="10.00" fill="#000000">+ getDisplacement()</text>
<text text-anchor="start" x="62" y="-217" font-family="Helvetica,sans-Serif" font-size="10.00" fill="#000000">+ convertRealPercentage()</text>
<text text-anchor="start" x="62" y="-206" font-family="Helvetica,sans-Serif" font-size="10.00" fill="#000000">+ isLowRisk()</text>
<text text-anchor="start" x="62" y="-195" font-family="Helvetica,sans-Serif" font-size="10.00" fill="#000000">+ isMediumRisk()</text>
<text text-anchor="start" x="62" y="-184" font-family="Helvetica,sans-Serif" font-size="10.00" fill="#000000">+ isHighRisk()</text>
<text text-anchor="start" x="62" y="-173" font-family="Helvetica,sans-Serif" font-size="10.00" fill="#000000">and 15 more...</text>
</a>
</g>
</g>
<!-- Node4&#45;&gt;Node2 -->
<g id="edge2" class="edge">
<title>Node4&#45;&gt;Node2</title>
<path fill="none" stroke="#404040" d="M147.7889,-165.9498C154.2875,-136.7063 161.2456,-105.3948 166.7401,-80.6696"/>
<polygon fill="none" stroke="#404040" points="166.7871,-80.4575 164.184,-73.7327 169.3904,-68.7433 171.9935,-75.4682 166.7871,-80.4575"/>
<text text-anchor="middle" x="174.5" y="-112" font-family="Helvetica,sans-Serif" font-size="10.00" fill="#000000"> #s</text>
</g>
<!-- Node5 -->
<g id="node4" class="node">
<title>Node5</title>
<polygon fill="#ffffff" stroke="#bfbfbf" points="220,-226.5 220,-283.5 348,-283.5 348,-226.5 220,-226.5"/>
<text text-anchor="middle" x="284" y="-271.5" font-family="Helvetica,sans-Serif" font-size="10.00" fill="#000000">std::array&lt; Range, 2 &gt;</text>
<polyline fill="none" stroke="#bfbfbf" points="220,-264.5 348,-264.5 "/>
<text text-anchor="middle" x="284" y="-252.5" font-family="Helvetica,sans-Serif" font-size="10.00" fill="#000000"> </text>
<polyline fill="none" stroke="#bfbfbf" points="220,-245.5 348,-245.5 "/>
<text text-anchor="middle" x="284" y="-233.5" font-family="Helvetica,sans-Serif" font-size="10.00" fill="#000000"> </text>
</g>
<!-- Node5&#45;&gt;Node2 -->
<g id="edge3" class="edge">
<title>Node5&#45;&gt;Node2</title>
<path fill="none" stroke="#404040" d="M270.0116,-226.1735C251.9289,-188.9096 220.2399,-123.6065 198.9394,-79.7116"/>
<polygon fill="none" stroke="#404040" points="198.8678,-79.5639 192.6496,-75.9122 193.6288,-68.7678 199.847,-72.4195 198.8678,-79.5639"/>
<text text-anchor="middle" x="240" y="-117.5" font-family="Helvetica,sans-Serif" font-size="10.00" fill="#000000"> #a1</text>
<text text-anchor="middle" x="240" y="-106.5" font-family="Helvetica,sans-Serif" font-size="10.00" fill="#000000">#a2</text>
</g>
<!-- Node6 -->
<g id="node5" class="node">
<title>Node6</title>
<polygon fill="#ffffff" stroke="#bfbfbf" points="260.5,-397.5 260.5,-454.5 307.5,-454.5 307.5,-397.5 260.5,-397.5"/>
<text text-anchor="middle" x="284" y="-442.5" font-family="Helvetica,sans-Serif" font-size="10.00" fill="#000000">Range</text>
<polyline fill="none" stroke="#bfbfbf" points="260.5,-435.5 307.5,-435.5 "/>
<text text-anchor="middle" x="284" y="-423.5" font-family="Helvetica,sans-Serif" font-size="10.00" fill="#000000"> </text>
<polyline fill="none" stroke="#bfbfbf" points="260.5,-416.5 307.5,-416.5 "/>
<text text-anchor="middle" x="284" y="-404.5" font-family="Helvetica,sans-Serif" font-size="10.00" fill="#000000"> </text>
</g>
<!-- Node6&#45;&gt;Node5 -->
<g id="edge4" class="edge">
<title>Node6&#45;&gt;Node5</title>
<path fill="none" stroke="#404040" d="M284,-397.3784C284,-369.6352 284,-327.2695 284,-295.9596"/>
<polygon fill="none" stroke="#404040" points="284.0001,-295.7149 280,-289.715 284,-283.7149 288,-289.7149 284.0001,-295.7149"/>
<text text-anchor="middle" x="313" y="-371" font-family="Helvetica,sans-Serif" font-size="10.00" fill="#000000"> +elements</text>
</g>
<!-- Node7 -->
<g id="node6" class="node">
<title>Node7</title>
<g id="a_node6"><a xlink:href="classbsn_1_1range_1_1Range.html" target="_top" xlink:title="{bsn::range::Range\n||+ Range()\l+ Range()\l+ ~Range()\l+ Range()\l+ operator=()\l+ in_range()\l+ convert()\l+ to_print()\l+ setLowerBound()\l+ getLowerBound()\l+ setUpperBound()\l+ getUpperBound()\l+ toString()\l}">
<polygon fill="#ffffff" stroke="#000000" points="366.5,-160.5 366.5,-349.5 477.5,-349.5 477.5,-160.5 366.5,-160.5"/>
<text text-anchor="middle" x="422" y="-337.5" font-family="Helvetica,sans-Serif" font-size="10.00" fill="#000000">bsn::range::Range</text>
<polyline fill="none" stroke="#000000" points="366.5,-330.5 477.5,-330.5 "/>
<text text-anchor="middle" x="422" y="-318.5" font-family="Helvetica,sans-Serif" font-size="10.00" fill="#000000"> </text>
<polyline fill="none" stroke="#000000" points="366.5,-311.5 477.5,-311.5 "/>
<text text-anchor="start" x="374.5" y="-299.5" font-family="Helvetica,sans-Serif" font-size="10.00" fill="#000000">+ Range()</text>
<text text-anchor="start" x="374.5" y="-288.5" font-family="Helvetica,sans-Serif" font-size="10.00" fill="#000000">+ Range()</text>
<text text-anchor="start" x="374.5" y="-277.5" font-family="Helvetica,sans-Serif" font-size="10.00" fill="#000000">+ ~Range()</text>
<text text-anchor="start" x="374.5" y="-266.5" font-family="Helvetica,sans-Serif" font-size="10.00" fill="#000000">+ Range()</text>
<text text-anchor="start" x="374.5" y="-255.5" font-family="Helvetica,sans-Serif" font-size="10.00" fill="#000000">+ operator=()</text>
<text text-anchor="start" x="374.5" y="-244.5" font-family="Helvetica,sans-Serif" font-size="10.00" fill="#000000">+ in_range()</text>
<text text-anchor="start" x="374.5" y="-233.5" font-family="Helvetica,sans-Serif" font-size="10.00" fill="#000000">+ convert()</text>
<text text-anchor="start" x="374.5" y="-222.5" font-family="Helvetica,sans-Serif" font-size="10.00" fill="#000000">+ to_print()</text>
<text text-anchor="start" x="374.5" y="-211.5" font-family="Helvetica,sans-Serif" font-size="10.00" fill="#000000">+ setLowerBound()</text>
<text text-anchor="start" x="374.5" y="-200.5" font-family="Helvetica,sans-Serif" font-size="10.00" fill="#000000">+ getLowerBound()</text>
<text text-anchor="start" x="374.5" y="-189.5" font-family="Helvetica,sans-Serif" font-size="10.00" fill="#000000">+ setUpperBound()</text>
<text text-anchor="start" x="374.5" y="-178.5" font-family="Helvetica,sans-Serif" font-size="10.00" fill="#000000">+ getUpperBound()</text>
<text text-anchor="start" x="374.5" y="-167.5" font-family="Helvetica,sans-Serif" font-size="10.00" fill="#000000">+ toString()</text>
</a>
</g>
</g>
<!-- Node7&#45;&gt;Node2 -->
<g id="edge5" class="edge">
<title>Node7&#45;&gt;Node2</title>
<path fill="none" stroke="#404040" d="M366.4519,-170.3432C363.3641,-166.7589 360.2079,-163.2918 357,-160 324.8149,-126.9737 282.8211,-97.12 247.491,-74.8229"/>
<polygon fill="none" stroke="#404040" points="247.4283,-74.7839 240.2208,-75.0108 237.2391,-68.445 244.4467,-68.218 247.4283,-74.7839"/>
<text text-anchor="middle" x="347.5" y="-134" font-family="Helvetica,sans-Serif" font-size="10.00" fill="#000000"> #l</text>
<text text-anchor="middle" x="347.5" y="-123" font-family="Helvetica,sans-Serif" font-size="10.00" fill="#000000">#m1</text>
<text text-anchor="middle" x="347.5" y="-112" font-family="Helvetica,sans-Serif" font-size="10.00" fill="#000000">#m2</text>
<text text-anchor="middle" x="347.5" y="-101" font-family="Helvetica,sans-Serif" font-size="10.00" fill="#000000">#h1</text>
<text text-anchor="middle" x="347.5" y="-90" font-family="Helvetica,sans-Serif" font-size="10.00" fill="#000000">#h2</text>
</g>
</g>
</svg>
