<?xml version="1.0" encoding="UTF-8" standalone="no"?>
<!DOCTYPE svg PUBLIC "-//W3C//DTD SVG 1.1//EN"
 "http://www.w3.org/Graphics/SVG/1.1/DTD/svg11.dtd">
<!-- Generated by graphviz version 2.40.1 (20161225.0304)
 -->
<!-- Title: ResourcesTest::SetUp Pages: 1 -->
<svg width="289pt" height="186pt"
 viewBox="0.00 0.00 289.00 186.00" xmlns="http://www.w3.org/2000/svg" xmlns:xlink="http://www.w3.org/1999/xlink">
<g id="graph0" class="graph" transform="scale(1 1) rotate(0) translate(4 182)">
<title>ResourcesTest::SetUp</title>
<polygon fill="#ffffff" stroke="transparent" points="-4,4 -4,-182 285,-182 285,4 -4,4"/>
<!-- Node2 -->
<g id="node1" class="node">
<title>Node2</title>
<polygon fill="#bfbfbf" stroke="#000000" points="0,-79 0,-98 121,-98 121,-79 0,-79"/>
<text text-anchor="middle" x="60.5" y="-86" font-family="Helvetica,sans-Serif" font-size="10.00" fill="#000000">ResourcesTest::SetUp</text>
</g>
<!-- Node3 -->
<g id="node2" class="node">
<title>Node3</title>
<g id="a_node2"><a xlink:href="classbsn_1_1resource_1_1Battery.html#a6d210f39d8490f050f4f4efe2a08a504" target="_top" xlink:title="bsn::resource::Battery\l::setId">
<polygon fill="#ffffff" stroke="#000000" points="157,-147.5 157,-177.5 281,-177.5 281,-147.5 157,-147.5"/>
<text text-anchor="start" x="165" y="-165.5" font-family="Helvetica,sans-Serif" font-size="10.00" fill="#000000">bsn::resource::Battery</text>
<text text-anchor="middle" x="219" y="-154.5" font-family="Helvetica,sans-Serif" font-size="10.00" fill="#000000">::setId</text>
</a>
</g>
</g>
<!-- Node2&#45;&gt;Node3 -->
<g id="edge1" class="edge">
<title>Node2&#45;&gt;Node3</title>
<path fill="none" stroke="#191970" d="M77.6535,-98.11C96.7351,-108.6291 128.6194,-125.7001 157,-138.5 160.7878,-140.2083 164.7363,-141.9108 168.7255,-143.5753"/>
<polygon fill="#191970" stroke="#191970" points="167.4694,-146.8428 178.0508,-147.375 170.1108,-140.3602 167.4694,-146.8428"/>
</g>
<!-- Node4 -->
<g id="node3" class="node">
<title>Node4</title>
<g id="a_node3"><a xlink:href="classbsn_1_1resource_1_1Battery.html#acbac5f9c64777f5f2eadca92df7526be" target="_top" xlink:title="bsn::resource::Battery\l::setCapacity">
<polygon fill="#ffffff" stroke="#000000" points="157,-98.5 157,-128.5 281,-128.5 281,-98.5 157,-98.5"/>
<text text-anchor="start" x="165" y="-116.5" font-family="Helvetica,sans-Serif" font-size="10.00" fill="#000000">bsn::resource::Battery</text>
<text text-anchor="middle" x="219" y="-105.5" font-family="Helvetica,sans-Serif" font-size="10.00" fill="#000000">::setCapacity</text>
</a>
</g>
</g>
<!-- Node2&#45;&gt;Node4 -->
<g id="edge2" class="edge">
<title>Node2&#45;&gt;Node4</title>
<path fill="none" stroke="#191970" d="M120.8742,-98.0227C129.3629,-99.3617 138.1584,-100.749 146.8396,-102.1182"/>
<polygon fill="#191970" stroke="#191970" points="146.5295,-105.6125 156.9527,-103.7134 147.6201,-98.698 146.5295,-105.6125"/>
</g>
<!-- Node5 -->
<g id="node4" class="node">
<title>Node5</title>
<g id="a_node4"><a xlink:href="classbsn_1_1resource_1_1Battery.html#a2953c6225bc1ed1be259cc6231ef08fa" target="_top" xlink:title="bsn::resource::Battery\l::setCurrentLevel">
<polygon fill="#ffffff" stroke="#000000" points="157,-49.5 157,-79.5 281,-79.5 281,-49.5 157,-49.5"/>
<text text-anchor="start" x="165" y="-67.5" font-family="Helvetica,sans-Serif" font-size="10.00" fill="#000000">bsn::resource::Battery</text>
<text text-anchor="middle" x="219" y="-56.5" font-family="Helvetica,sans-Serif" font-size="10.00" fill="#000000">::setCurrentLevel</text>
</a>
</g>
</g>
<!-- Node2&#45;&gt;Node5 -->
<g id="edge3" class="edge">
<title>Node2&#45;&gt;Node5</title>
<path fill="none" stroke="#191970" d="M121.3269,-79.2896C129.6723,-78.026 138.3062,-76.7186 146.83,-75.4279"/>
<polygon fill="#191970" stroke="#191970" points="147.3985,-78.8819 156.7618,-73.9241 146.3505,-71.9607 147.3985,-78.8819"/>
</g>
<!-- Node6 -->
<g id="node5" class="node">
<title>Node6</title>
<g id="a_node5"><a xlink:href="classbsn_1_1resource_1_1Battery.html#adc734db0793f80794bd934c524fefca0" target="_top" xlink:title="bsn::resource::Battery\l::setUnit">
<polygon fill="#ffffff" stroke="#000000" points="157,-.5 157,-30.5 281,-30.5 281,-.5 157,-.5"/>
<text text-anchor="start" x="165" y="-18.5" font-family="Helvetica,sans-Serif" font-size="10.00" fill="#000000">bsn::resource::Battery</text>
<text text-anchor="middle" x="219" y="-7.5" font-family="Helvetica,sans-Serif" font-size="10.00" fill="#000000">::setUnit</text>
</a>
</g>
</g>
<!-- Node2&#45;&gt;Node6 -->
<g id="edge4" class="edge">
<title>Node2&#45;&gt;Node6</title>
<path fill="none" stroke="#191970" d="M78.7944,-78.8643C98.0523,-68.8481 129.3519,-52.9275 157,-40.5 161.4626,-38.4941 166.1367,-36.4709 170.8316,-34.4906"/>
<polygon fill="#191970" stroke="#191970" points="172.5419,-37.5703 180.4369,-30.5049 169.859,-31.1048 172.5419,-37.5703"/>
</g>
</g>
</svg>
