<?xml version="1.0" encoding="UTF-8" standalone="no"?>
<!DOCTYPE svg PUBLIC "-//W3C//DTD SVG 1.1//EN"
 "http://www.w3.org/Graphics/SVG/1.1/DTD/svg11.dtd">
<!-- Generated by graphviz version 2.40.1 (20161225.0304)
 -->
<!-- Title: arch::target_system::Component::run Pages: 1 -->
<svg width="926pt" height="362pt"
 viewBox="0.00 0.00 926.00 362.00" xmlns="http://www.w3.org/2000/svg" xmlns:xlink="http://www.w3.org/1999/xlink">
<g id="graph0" class="graph" transform="scale(1 1) rotate(0) translate(4 358)">
<title>arch::target_system::Component::run</title>
<polygon fill="#ffffff" stroke="transparent" points="-4,4 -4,-358 922,-358 922,4 -4,4"/>
<!-- Node27 -->
<g id="node1" class="node">
<title>Node27</title>
<polygon fill="#bfbfbf" stroke="#000000" points="0,-93.5 0,-123.5 114,-123.5 114,-93.5 0,-93.5"/>
<text text-anchor="start" x="8" y="-111.5" font-family="Helvetica,sans-Serif" font-size="10.00" fill="#000000">arch::target_system</text>
<text text-anchor="middle" x="57" y="-100.5" font-family="Helvetica,sans-Serif" font-size="10.00" fill="#000000">::Component::run</text>
</g>
<!-- Node28 -->
<g id="node2" class="node">
<title>Node28</title>
<g id="a_node2"><a xlink:href="classarch_1_1target__system_1_1Component.html#a6a7bf2a65bcc78fc61167205509091a5" target="_top" xlink:title="arch::target_system\l::Component::setUp">
<polygon fill="#ffffff" stroke="#000000" points="159,-210.5 159,-240.5 273,-240.5 273,-210.5 159,-210.5"/>
<text text-anchor="start" x="167" y="-228.5" font-family="Helvetica,sans-Serif" font-size="10.00" fill="#000000">arch::target_system</text>
<text text-anchor="middle" x="216" y="-217.5" font-family="Helvetica,sans-Serif" font-size="10.00" fill="#000000">::Component::setUp</text>
</a>
</g>
</g>
<!-- Node27&#45;&gt;Node28 -->
<g id="edge1" class="edge">
<title>Node27&#45;&gt;Node28</title>
<path fill="none" stroke="#191970" d="M77.461,-123.5562C105.2907,-144.0346 155.2331,-180.7847 186.9399,-204.1161"/>
<polygon fill="#191970" stroke="#191970" points="185.2369,-207.2085 195.3657,-210.3163 189.3857,-201.5704 185.2369,-207.2085"/>
</g>
<!-- Node30 -->
<g id="node4" class="node">
<title>Node30</title>
<g id="a_node4"><a xlink:href="classarch_1_1target__system_1_1Component.html#adc6ecb4090656eeac2289ec147a20f81" target="_top" xlink:title="arch::target_system\l::Component::sendStatus">
<polygon fill="#ffffff" stroke="#000000" points="333.5,-137.5 333.5,-167.5 472.5,-167.5 472.5,-137.5 333.5,-137.5"/>
<text text-anchor="start" x="341.5" y="-155.5" font-family="Helvetica,sans-Serif" font-size="10.00" fill="#000000">arch::target_system</text>
<text text-anchor="middle" x="403" y="-144.5" font-family="Helvetica,sans-Serif" font-size="10.00" fill="#000000">::Component::sendStatus</text>
</a>
</g>
</g>
<!-- Node27&#45;&gt;Node30 -->
<g id="edge14" class="edge">
<title>Node27&#45;&gt;Node30</title>
<path fill="none" stroke="#191970" d="M114.0118,-117.3716C125.8952,-119.1395 138.349,-120.9327 150,-122.5 207.9281,-130.2927 273.4656,-138.034 323.3212,-143.7006"/>
<polygon fill="#191970" stroke="#191970" points="323.064,-147.1937 333.3944,-144.8415 323.8519,-140.2382 323.064,-147.1937"/>
</g>
<!-- Node34 -->
<g id="node8" class="node">
<title>Node34</title>
<g id="a_node8"><a xlink:href="classarch_1_1ROSComponentDescriptor.html#a4b73f46f37241865a08e75ab202e28eb" target="_top" xlink:title="arch::ROSComponentDescriptor\l::getFreq">
<polygon fill="#ffffff" stroke="#000000" points="748,-103.5 748,-133.5 918,-133.5 918,-103.5 748,-103.5"/>
<text text-anchor="start" x="756" y="-121.5" font-family="Helvetica,sans-Serif" font-size="10.00" fill="#000000">arch::ROSComponentDescriptor</text>
<text text-anchor="middle" x="833" y="-110.5" font-family="Helvetica,sans-Serif" font-size="10.00" fill="#000000">::getFreq</text>
</a>
</g>
</g>
<!-- Node27&#45;&gt;Node34 -->
<g id="edge13" class="edge">
<title>Node27&#45;&gt;Node34</title>
<path fill="none" stroke="#191970" d="M114.0611,-109.2353C246.2247,-110.9385 574.4734,-115.1685 737.7037,-117.272"/>
<polygon fill="#191970" stroke="#191970" points="737.6918,-120.772 747.7361,-117.4012 737.7821,-113.7726 737.6918,-120.772"/>
</g>
<!-- Node38 -->
<g id="node12" class="node">
<title>Node38</title>
<g id="a_node12"><a xlink:href="classarch_1_1target__system_1_1Component.html#ac473539ffdccdef20318a6c4bfea0b22" target="_top" xlink:title="arch::target_system\l::Component::body">
<polygon fill="#ffffff" stroke="#000000" points="159,-49.5 159,-79.5 273,-79.5 273,-49.5 159,-49.5"/>
<text text-anchor="start" x="167" y="-67.5" font-family="Helvetica,sans-Serif" font-size="10.00" fill="#000000">arch::target_system</text>
<text text-anchor="middle" x="216" y="-56.5" font-family="Helvetica,sans-Serif" font-size="10.00" fill="#000000">::Component::body</text>
</a>
</g>
</g>
<!-- Node27&#45;&gt;Node38 -->
<g id="edge15" class="edge">
<title>Node27&#45;&gt;Node38</title>
<path fill="none" stroke="#191970" d="M111.2741,-93.4808C124.377,-89.8548 138.5,-85.9466 152.0022,-82.2101"/>
<polygon fill="#191970" stroke="#191970" points="152.9965,-85.5666 161.7008,-79.5262 151.1295,-78.8201 152.9965,-85.5666"/>
</g>
<!-- Node39 -->
<g id="node13" class="node">
<title>Node39</title>
<g id="a_node13"><a xlink:href="classarch_1_1target__system_1_1Component.html#af8115ceb5653f47f04537fb0eb7dfff2" target="_top" xlink:title="arch::target_system\l::Component::tearDown">
<polygon fill="#ffffff" stroke="#000000" points="150,-.5 150,-30.5 282,-30.5 282,-.5 150,-.5"/>
<text text-anchor="start" x="158" y="-18.5" font-family="Helvetica,sans-Serif" font-size="10.00" fill="#000000">arch::target_system</text>
<text text-anchor="middle" x="216" y="-7.5" font-family="Helvetica,sans-Serif" font-size="10.00" fill="#000000">::Component::tearDown</text>
</a>
</g>
</g>
<!-- Node27&#45;&gt;Node39 -->
<g id="edge16" class="edge">
<title>Node27&#45;&gt;Node39</title>
<path fill="none" stroke="#191970" d="M74.1396,-93.3813C92.0601,-78.1721 121.4947,-54.8344 150,-39.5 153.1004,-37.8321 156.3411,-36.2352 159.6509,-34.7144"/>
<polygon fill="#191970" stroke="#191970" points="161.3088,-37.8109 169.1029,-30.6343 158.5346,-31.3841 161.3088,-37.8109"/>
</g>
<!-- Node29 -->
<g id="node3" class="node">
<title>Node29</title>
<g id="a_node3"><a xlink:href="classarch_1_1ROSComponentDescriptor.html#a6ae1f0c4c644bce7bc7e99e408dc7ca0" target="_top" xlink:title="arch::ROSComponentDescriptor\l::setFreq">
<polygon fill="#ffffff" stroke="#000000" points="318,-235.5 318,-265.5 488,-265.5 488,-235.5 318,-235.5"/>
<text text-anchor="start" x="326" y="-253.5" font-family="Helvetica,sans-Serif" font-size="10.00" fill="#000000">arch::ROSComponentDescriptor</text>
<text text-anchor="middle" x="403" y="-242.5" font-family="Helvetica,sans-Serif" font-size="10.00" fill="#000000">::setFreq</text>
</a>
</g>
</g>
<!-- Node28&#45;&gt;Node29 -->
<g id="edge2" class="edge">
<title>Node28&#45;&gt;Node29</title>
<path fill="none" stroke="#191970" d="M273.1223,-233.1367C284.1988,-234.6175 296.0823,-236.2062 307.9983,-237.7992"/>
<polygon fill="#191970" stroke="#191970" points="307.6227,-241.2801 317.9984,-239.1361 308.5504,-234.3418 307.6227,-241.2801"/>
</g>
<!-- Node28&#45;&gt;Node30 -->
<g id="edge3" class="edge">
<title>Node28&#45;&gt;Node30</title>
<path fill="none" stroke="#191970" d="M244.0027,-210.4273C264.1803,-199.9704 292.2738,-186.2279 318,-176.5 323.4211,-174.4501 329.0943,-172.4823 334.827,-170.6172"/>
<polygon fill="#191970" stroke="#191970" points="336.0061,-173.9155 344.4969,-167.5786 333.9076,-167.2374 336.0061,-173.9155"/>
</g>
<!-- Node32 -->
<g id="node6" class="node">
<title>Node32</title>
<g id="a_node6"><a xlink:href="classarch_1_1target__system_1_1Component.html#a766a2494155aaa42b3c8162cefb11b77" target="_top" xlink:title="arch::target_system\l::Component::activate">
<polygon fill="#ffffff" stroke="#000000" points="340.5,-186.5 340.5,-216.5 465.5,-216.5 465.5,-186.5 340.5,-186.5"/>
<text text-anchor="start" x="348.5" y="-204.5" font-family="Helvetica,sans-Serif" font-size="10.00" fill="#000000">arch::target_system</text>
<text text-anchor="middle" x="403" y="-193.5" font-family="Helvetica,sans-Serif" font-size="10.00" fill="#000000">::Component::activate</text>
</a>
</g>
</g>
<!-- Node28&#45;&gt;Node32 -->
<g id="edge5" class="edge">
<title>Node28&#45;&gt;Node32</title>
<path fill="none" stroke="#191970" d="M273.1223,-218.1688C291.1493,-215.8552 311.3138,-213.2672 330.2772,-210.8334"/>
<polygon fill="#191970" stroke="#191970" points="330.893,-214.2832 340.366,-209.5386 330.0018,-207.3401 330.893,-214.2832"/>
</g>
<!-- Node35 -->
<g id="node9" class="node">
<title>Node35</title>
<g id="a_node9"><a xlink:href="classarch_1_1target__system_1_1Component.html#a859fdc651315139921d2b2c5fa75be76" target="_top" xlink:title="arch::target_system\l::Component::sigIntHandler">
<polygon fill="#ffffff" stroke="#000000" points="328,-323.5 328,-353.5 478,-353.5 478,-323.5 328,-323.5"/>
<text text-anchor="start" x="336" y="-341.5" font-family="Helvetica,sans-Serif" font-size="10.00" fill="#000000">arch::target_system</text>
<text text-anchor="middle" x="403" y="-330.5" font-family="Helvetica,sans-Serif" font-size="10.00" fill="#000000">::Component::sigIntHandler</text>
</a>
</g>
</g>
<!-- Node28&#45;&gt;Node35 -->
<g id="edge9" class="edge">
<title>Node28&#45;&gt;Node35</title>
<path fill="none" stroke="#191970" d="M231.0062,-240.5581C249.8784,-258.7844 283.9505,-289.4016 318,-308.5 325.5366,-312.7273 333.7767,-316.5267 342.066,-319.8862"/>
<polygon fill="#191970" stroke="#191970" points="340.8215,-323.1574 351.4111,-323.4915 343.3412,-316.6266 340.8215,-323.1574"/>
</g>
<!-- Node37 -->
<g id="node11" class="node">
<title>Node37</title>
<g id="a_node11"><a xlink:href="classarch_1_1ROSComponent.html#aa5fa36ba1bff54a60c9a0e5498e504f7" target="_top" xlink:title="arch::ROSComponent\l::getRosNodeName">
<polygon fill="#ffffff" stroke="#000000" points="773,-301.5 773,-331.5 893,-331.5 893,-301.5 773,-301.5"/>
<text text-anchor="start" x="781" y="-319.5" font-family="Helvetica,sans-Serif" font-size="10.00" fill="#000000">arch::ROSComponent</text>
<text text-anchor="middle" x="833" y="-308.5" font-family="Helvetica,sans-Serif" font-size="10.00" fill="#000000">::getRosNodeName</text>
</a>
</g>
</g>
<!-- Node28&#45;&gt;Node37 -->
<g id="edge12" class="edge">
<title>Node28&#45;&gt;Node37</title>
<path fill="none" stroke="#191970" d="M240.9789,-240.7111C261.0325,-252.116 290.3156,-266.9986 318,-274.5 399.8186,-296.6695 641.5131,-308.9963 762.435,-313.9304"/>
<polygon fill="#191970" stroke="#191970" points="762.5607,-317.4382 772.6933,-314.3431 762.8421,-310.4439 762.5607,-317.4382"/>
</g>
<!-- Node31 -->
<g id="node5" class="node">
<title>Node31</title>
<g id="a_node5"><a xlink:href="classarch_1_1ROSComponentDescriptor.html#a462b00745d0de3f98d88f3eb1ba11e45" target="_top" xlink:title="arch::ROSComponentDescriptor\l::getName">
<polygon fill="#ffffff" stroke="#000000" points="748,-162.5 748,-192.5 918,-192.5 918,-162.5 748,-162.5"/>
<text text-anchor="start" x="756" y="-180.5" font-family="Helvetica,sans-Serif" font-size="10.00" fill="#000000">arch::ROSComponentDescriptor</text>
<text text-anchor="middle" x="833" y="-169.5" font-family="Helvetica,sans-Serif" font-size="10.00" fill="#000000">::getName</text>
</a>
</g>
</g>
<!-- Node30&#45;&gt;Node31 -->
<g id="edge4" class="edge">
<title>Node30&#45;&gt;Node31</title>
<path fill="none" stroke="#191970" d="M472.5648,-156.5445C544.4814,-160.7257 657.2679,-167.283 737.5075,-171.9481"/>
<polygon fill="#191970" stroke="#191970" points="737.4323,-175.4496 747.6187,-172.536 737.8387,-168.4614 737.4323,-175.4496"/>
</g>
<!-- Node33 -->
<g id="node7" class="node">
<title>Node33</title>
<g id="a_node7"><a xlink:href="classarch_1_1target__system_1_1Component.html#a9d793970d5fbdef5c31e5ab901b98030" target="_top" xlink:title="arch::target_system\l::Component::sendEvent">
<polygon fill="#ffffff" stroke="#000000" points="550,-181.5 550,-211.5 686,-211.5 686,-181.5 550,-181.5"/>
<text text-anchor="start" x="558" y="-199.5" font-family="Helvetica,sans-Serif" font-size="10.00" fill="#000000">arch::target_system</text>
<text text-anchor="middle" x="618" y="-188.5" font-family="Helvetica,sans-Serif" font-size="10.00" fill="#000000">::Component::sendEvent</text>
</a>
</g>
</g>
<!-- Node32&#45;&gt;Node33 -->
<g id="edge6" class="edge">
<title>Node32&#45;&gt;Node33</title>
<path fill="none" stroke="#191970" d="M465.7649,-200.0404C488.8652,-199.5031 515.32,-198.8879 539.6261,-198.3226"/>
<polygon fill="#191970" stroke="#191970" points="539.9795,-201.8155 549.8954,-198.0838 539.8167,-194.8174 539.9795,-201.8155"/>
</g>
<!-- Node33&#45;&gt;Node31 -->
<g id="edge7" class="edge">
<title>Node33&#45;&gt;Node31</title>
<path fill="none" stroke="#191970" d="M686.0273,-190.4883C702.379,-189.0433 720.1455,-187.4732 737.4905,-185.9404"/>
<polygon fill="#191970" stroke="#191970" points="737.9872,-189.4102 747.6403,-185.0434 737.371,-182.4374 737.9872,-189.4102"/>
</g>
<!-- Node33&#45;&gt;Node34 -->
<g id="edge8" class="edge">
<title>Node33&#45;&gt;Node34</title>
<path fill="none" stroke="#191970" d="M659.4542,-181.4608C694.2907,-168.8224 744.2353,-150.703 781.6086,-137.1443"/>
<polygon fill="#191970" stroke="#191970" points="783.1,-140.3265 791.3069,-133.6259 780.7127,-133.7462 783.1,-140.3265"/>
</g>
<!-- Node36 -->
<g id="node10" class="node">
<title>Node36</title>
<g id="a_node10"><a xlink:href="classarch_1_1target__system_1_1Component.html#ab67fdba3849fb31886a7e4d2b032f38c" target="_top" xlink:title="arch::target_system\l::Component::shutdownComponent">
<polygon fill="#ffffff" stroke="#000000" points="524,-323.5 524,-353.5 712,-353.5 712,-323.5 524,-323.5"/>
<text text-anchor="start" x="532" y="-341.5" font-family="Helvetica,sans-Serif" font-size="10.00" fill="#000000">arch::target_system</text>
<text text-anchor="middle" x="618" y="-330.5" font-family="Helvetica,sans-Serif" font-size="10.00" fill="#000000">::Component::shutdownComponent</text>
</a>
</g>
</g>
<!-- Node35&#45;&gt;Node36 -->
<g id="edge10" class="edge">
<title>Node35&#45;&gt;Node36</title>
<path fill="none" stroke="#191970" d="M478.1966,-338.5C489.7383,-338.5 501.8277,-338.5 513.8608,-338.5"/>
<polygon fill="#191970" stroke="#191970" points="513.9423,-342.0001 523.9422,-338.5 513.9422,-335.0001 513.9423,-342.0001"/>
</g>
<!-- Node36&#45;&gt;Node37 -->
<g id="edge11" class="edge">
<title>Node36&#45;&gt;Node37</title>
<path fill="none" stroke="#191970" d="M712.3021,-328.8505C729.147,-327.1268 746.4307,-325.3583 762.4652,-323.7175"/>
<polygon fill="#191970" stroke="#191970" points="763.2128,-327.1594 772.8045,-322.6595 762.5001,-320.1957 763.2128,-327.1594"/>
</g>
</g>
</svg>
