<?xml version="1.0" encoding="UTF-8" standalone="no"?>
<!DOCTYPE svg PUBLIC "-//W3C//DTD SVG 1.1//EN"
 "http://www.w3.org/Graphics/SVG/1.1/DTD/svg11.dtd">
<!-- Generated by graphviz version 2.40.1 (20161225.0304)
 -->
<!-- Title: arch::target_system::Component::activate Pages: 1 -->
<svg width="528pt" height="78pt"
 viewBox="0.00 0.00 528.00 77.50" xmlns="http://www.w3.org/2000/svg" xmlns:xlink="http://www.w3.org/1999/xlink">
<g id="graph0" class="graph" transform="scale(1 1) rotate(0) translate(4 73.5)">
<title>arch::target_system::Component::activate</title>
<polygon fill="#ffffff" stroke="transparent" points="-4,4 -4,-73.5 524,-73.5 524,4 -4,4"/>
<!-- Node8 -->
<g id="node1" class="node">
<title>Node8</title>
<polygon fill="#bfbfbf" stroke="#000000" points="0,-17 0,-47 125,-47 125,-17 0,-17"/>
<text text-anchor="start" x="8" y="-35" font-family="Helvetica,sans-Serif" font-size="10.00" fill="#000000">arch::target_system</text>
<text text-anchor="middle" x="62.5" y="-24" font-family="Helvetica,sans-Serif" font-size="10.00" fill="#000000">::Component::activate</text>
</g>
<!-- Node9 -->
<g id="node2" class="node">
<title>Node9</title>
<g id="a_node2"><a xlink:href="classarch_1_1target__system_1_1Component.html#a6a7bf2a65bcc78fc61167205509091a5" target="_top" xlink:title="arch::target_system\l::Component::setUp">
<polygon fill="#ffffff" stroke="#000000" points="170,-39 170,-69 284,-69 284,-39 170,-39"/>
<text text-anchor="start" x="178" y="-57" font-family="Helvetica,sans-Serif" font-size="10.00" fill="#000000">arch::target_system</text>
<text text-anchor="middle" x="227" y="-46" font-family="Helvetica,sans-Serif" font-size="10.00" fill="#000000">::Component::setUp</text>
</a>
</g>
</g>
<!-- Node8&#45;&gt;Node9 -->
<g id="edge1" class="edge">
<title>Node8&#45;&gt;Node9</title>
<path fill="none" stroke="#191970" d="M135.2702,-41.7322C146.8769,-43.2845 158.7389,-44.8709 169.9149,-46.3655"/>
<polygon fill="#191970" stroke="#191970" points="135.5354,-38.2366 125.1597,-40.38 134.6074,-45.1748 135.5354,-38.2366"/>
</g>
<!-- Node11 -->
<g id="node4" class="node">
<title>Node11</title>
<g id="a_node4"><a xlink:href="classCentralHub.html#a72336916ee15e722ee0b9f2c7c3747b6" target="_top" xlink:title="CentralHub::reconfigure">
<polygon fill="#ffffff" stroke="#000000" points="161,-.5 161,-19.5 293,-19.5 293,-.5 161,-.5"/>
<text text-anchor="middle" x="227" y="-7.5" font-family="Helvetica,sans-Serif" font-size="10.00" fill="#000000">CentralHub::reconfigure</text>
</a>
</g>
</g>
<!-- Node8&#45;&gt;Node11 -->
<g id="edge3" class="edge">
<title>Node8&#45;&gt;Node11</title>
<path fill="none" stroke="#191970" d="M135.153,-22.2835C143.7406,-21.135 152.4697,-19.9676 160.9589,-18.8322"/>
<polygon fill="#191970" stroke="#191970" points="134.6074,-18.8252 125.1597,-23.62 135.5354,-25.7634 134.6074,-18.8252"/>
</g>
<!-- Node10 -->
<g id="node3" class="node">
<title>Node10</title>
<g id="a_node3"><a xlink:href="classarch_1_1target__system_1_1Component.html#ac590323763a5ea9e7edf1a5e67f8a94f" target="_top" xlink:title="arch::target_system\l::Component::run">
<polygon fill="#ffffff" stroke="#000000" points="329,-39 329,-69 443,-69 443,-39 329,-39"/>
<text text-anchor="start" x="337" y="-57" font-family="Helvetica,sans-Serif" font-size="10.00" fill="#000000">arch::target_system</text>
<text text-anchor="middle" x="386" y="-46" font-family="Helvetica,sans-Serif" font-size="10.00" fill="#000000">::Component::run</text>
</a>
</g>
</g>
<!-- Node9&#45;&gt;Node10 -->
<g id="edge2" class="edge">
<title>Node9&#45;&gt;Node10</title>
<path fill="none" stroke="#191970" d="M294.7453,-54C306.1383,-54 317.8606,-54 328.9483,-54"/>
<polygon fill="#191970" stroke="#191970" points="294.4027,-50.5001 284.4026,-54 294.4026,-57.5001 294.4027,-50.5001"/>
</g>
<!-- Node12 -->
<g id="node5" class="node">
<title>Node12</title>
<g id="a_node5"><a xlink:href="classCentralHub.html#a388e947318a28cf7cac762ac8b1cf3d4" target="_top" xlink:title="CentralHub::run">
<polygon fill="#ffffff" stroke="#000000" points="339.5,-.5 339.5,-19.5 432.5,-19.5 432.5,-.5 339.5,-.5"/>
<text text-anchor="middle" x="386" y="-7.5" font-family="Helvetica,sans-Serif" font-size="10.00" fill="#000000">CentralHub::run</text>
</a>
</g>
</g>
<!-- Node11&#45;&gt;Node12 -->
<g id="edge4" class="edge">
<title>Node11&#45;&gt;Node12</title>
<path fill="none" stroke="#191970" d="M303.3151,-10C315.5958,-10 327.978,-10 339.2871,-10"/>
<polygon fill="#191970" stroke="#191970" points="303.049,-6.5001 293.049,-10 303.049,-13.5001 303.049,-6.5001"/>
</g>
<!-- Node13 -->
<g id="node6" class="node">
<title>Node13</title>
<g id="a_node6"><a xlink:href="g4t1_8cpp.html#af19ddca125f05a2090dd132045573ee4" target="_top" xlink:title="main">
<polygon fill="#ffffff" stroke="#000000" points="479,-.5 479,-19.5 520,-19.5 520,-.5 479,-.5"/>
<text text-anchor="middle" x="499.5" y="-7.5" font-family="Helvetica,sans-Serif" font-size="10.00" fill="#000000">main</text>
</a>
</g>
</g>
<!-- Node12&#45;&gt;Node13 -->
<g id="edge5" class="edge">
<title>Node12&#45;&gt;Node13</title>
<path fill="none" stroke="#191970" d="M443.0396,-10C455.8393,-10 468.6194,-10 478.7752,-10"/>
<polygon fill="#191970" stroke="#191970" points="442.8201,-6.5001 432.8201,-10 442.82,-13.5001 442.8201,-6.5001"/>
</g>
</g>
</svg>
