<?xml version="1.0" encoding="UTF-8" standalone="no"?>
<!DOCTYPE svg PUBLIC "-//W3C//DTD SVG 1.1//EN"
 "http://www.w3.org/Graphics/SVG/1.1/DTD/svg11.dtd">
<!-- Generated by graphviz version 2.40.1 (20161225.0304)
 -->
<!-- Title: bsn::goalmodel::Context::operator= Pages: 1 -->
<svg width="316pt" height="137pt"
 viewBox="0.00 0.00 316.00 137.00" xmlns="http://www.w3.org/2000/svg" xmlns:xlink="http://www.w3.org/1999/xlink">
<g id="graph0" class="graph" transform="scale(1 1) rotate(0) translate(4 133)">
<title>bsn::goalmodel::Context::operator=</title>
<polygon fill="#ffffff" stroke="transparent" points="-4,4 -4,-133 312,-133 312,4 -4,4"/>
<!-- Node20 -->
<g id="node1" class="node">
<title>Node20</title>
<polygon fill="#bfbfbf" stroke="#000000" points="0,-49.5 0,-79.5 136,-79.5 136,-49.5 0,-49.5"/>
<text text-anchor="start" x="8" y="-67.5" font-family="Helvetica,sans-Serif" font-size="10.00" fill="#000000">bsn::goalmodel::Context</text>
<text text-anchor="middle" x="68" y="-56.5" font-family="Helvetica,sans-Serif" font-size="10.00" fill="#000000">::operator=</text>
</g>
<!-- Node21 -->
<g id="node2" class="node">
<title>Node21</title>
<g id="a_node2"><a xlink:href="classbsn_1_1goalmodel_1_1Context.html#a1a85b9742883830048170eb0e0d6ec63" target="_top" xlink:title="bsn::goalmodel::Context\l::getID">
<polygon fill="#ffffff" stroke="#000000" points="172,-98.5 172,-128.5 308,-128.5 308,-98.5 172,-98.5"/>
<text text-anchor="start" x="180" y="-116.5" font-family="Helvetica,sans-Serif" font-size="10.00" fill="#000000">bsn::goalmodel::Context</text>
<text text-anchor="middle" x="240" y="-105.5" font-family="Helvetica,sans-Serif" font-size="10.00" fill="#000000">::getID</text>
</a>
</g>
</g>
<!-- Node20&#45;&gt;Node21 -->
<g id="edge1" class="edge">
<title>Node20&#45;&gt;Node21</title>
<path fill="none" stroke="#191970" d="M121.0091,-79.6014C138.8307,-84.6785 158.88,-90.3902 177.3698,-95.6577"/>
<polygon fill="#191970" stroke="#191970" points="176.5896,-99.0746 187.1659,-98.4484 178.5075,-92.3425 176.5896,-99.0746"/>
</g>
<!-- Node22 -->
<g id="node3" class="node">
<title>Node22</title>
<g id="a_node3"><a xlink:href="classbsn_1_1goalmodel_1_1Context.html#a9f20ad24f09de5021153ee43849bc761" target="_top" xlink:title="bsn::goalmodel::Context\l::getDescription">
<polygon fill="#ffffff" stroke="#000000" points="172,-49.5 172,-79.5 308,-79.5 308,-49.5 172,-49.5"/>
<text text-anchor="start" x="180" y="-67.5" font-family="Helvetica,sans-Serif" font-size="10.00" fill="#000000">bsn::goalmodel::Context</text>
<text text-anchor="middle" x="240" y="-56.5" font-family="Helvetica,sans-Serif" font-size="10.00" fill="#000000">::getDescription</text>
</a>
</g>
</g>
<!-- Node20&#45;&gt;Node22 -->
<g id="edge2" class="edge">
<title>Node20&#45;&gt;Node22</title>
<path fill="none" stroke="#191970" d="M136.4732,-64.5C144.7318,-64.5 153.2157,-64.5 161.6024,-64.5"/>
<polygon fill="#191970" stroke="#191970" points="161.7625,-68.0001 171.7624,-64.5 161.7624,-61.0001 161.7625,-68.0001"/>
</g>
<!-- Node23 -->
<g id="node4" class="node">
<title>Node23</title>
<g id="a_node4"><a xlink:href="classbsn_1_1goalmodel_1_1Context.html#ae83fe1b52f926d67ca2abafc9d47484a" target="_top" xlink:title="bsn::goalmodel::Context\l::getValue">
<polygon fill="#ffffff" stroke="#000000" points="172,-.5 172,-30.5 308,-30.5 308,-.5 172,-.5"/>
<text text-anchor="start" x="180" y="-18.5" font-family="Helvetica,sans-Serif" font-size="10.00" fill="#000000">bsn::goalmodel::Context</text>
<text text-anchor="middle" x="240" y="-7.5" font-family="Helvetica,sans-Serif" font-size="10.00" fill="#000000">::getValue</text>
</a>
</g>
</g>
<!-- Node20&#45;&gt;Node23 -->
<g id="edge3" class="edge">
<title>Node20&#45;&gt;Node23</title>
<path fill="none" stroke="#191970" d="M121.0091,-49.3986C138.8307,-44.3215 158.88,-38.6098 177.3698,-33.3423"/>
<polygon fill="#191970" stroke="#191970" points="178.5075,-36.6575 187.1659,-30.5516 176.5896,-29.9254 178.5075,-36.6575"/>
</g>
</g>
</svg>
