<?xml version="1.0" encoding="UTF-8" standalone="no"?>
<!DOCTYPE svg PUBLIC "-//W3C//DTD SVG 1.1//EN"
 "http://www.w3.org/Graphics/SVG/1.1/DTD/svg11.dtd">
<!-- Generated by graphviz version 2.40.1 (20161225.0304)
 -->
<!-- Title: archlib.msg._Exception.Exception Pages: 1 -->
<svg width="189pt" height="237pt"
 viewBox="0.00 0.00 189.00 237.00" xmlns="http://www.w3.org/2000/svg" xmlns:xlink="http://www.w3.org/1999/xlink">
<g id="graph0" class="graph" transform="scale(1 1) rotate(0) translate(4 233)">
<title>archlib.msg._Exception.Exception</title>
<polygon fill="#ffffff" stroke="transparent" points="-4,4 -4,-233 185,-233 185,4 -4,4"/>
<!-- Node2 -->
<g id="node1" class="node">
<title>Node2</title>
<polygon fill="#bfbfbf" stroke="#000000" points="0,-.5 0,-134.5 181,-134.5 181,-.5 0,-.5"/>
<text text-anchor="middle" x="90.5" y="-122.5" font-family="Helvetica,sans-Serif" font-size="10.00" fill="#000000">archlib.msg._Exception.Exception</text>
<polyline fill="none" stroke="#000000" points="0,-115.5 181,-115.5 "/>
<text text-anchor="start" x="8" y="-103.5" font-family="Helvetica,sans-Serif" font-size="10.00" fill="#000000">+ Header</text>
<text text-anchor="start" x="8" y="-92.5" font-family="Helvetica,sans-Serif" font-size="10.00" fill="#000000">+ source</text>
<text text-anchor="start" x="8" y="-81.5" font-family="Helvetica,sans-Serif" font-size="10.00" fill="#000000">+ target</text>
<text text-anchor="start" x="8" y="-70.5" font-family="Helvetica,sans-Serif" font-size="10.00" fill="#000000">+ content</text>
<polyline fill="none" stroke="#000000" points="0,-63.5 181,-63.5 "/>
<text text-anchor="start" x="8" y="-51.5" font-family="Helvetica,sans-Serif" font-size="10.00" fill="#000000">+ __init__()</text>
<text text-anchor="start" x="8" y="-40.5" font-family="Helvetica,sans-Serif" font-size="10.00" fill="#000000">+ serialize()</text>
<text text-anchor="start" x="8" y="-29.5" font-family="Helvetica,sans-Serif" font-size="10.00" fill="#000000">+ deserialize()</text>
<text text-anchor="start" x="8" y="-18.5" font-family="Helvetica,sans-Serif" font-size="10.00" fill="#000000">+ serialize_numpy()</text>
<text text-anchor="start" x="8" y="-7.5" font-family="Helvetica,sans-Serif" font-size="10.00" fill="#000000">+ deserialize_numpy()</text>
</g>
<!-- Node3 -->
<g id="node2" class="node">
<title>Node3</title>
<polygon fill="#ffffff" stroke="#bfbfbf" points="61,-171.5 61,-228.5 120,-228.5 120,-171.5 61,-171.5"/>
<text text-anchor="middle" x="90.5" y="-216.5" font-family="Helvetica,sans-Serif" font-size="10.00" fill="#000000">Message</text>
<polyline fill="none" stroke="#bfbfbf" points="61,-209.5 120,-209.5 "/>
<text text-anchor="middle" x="90.5" y="-197.5" font-family="Helvetica,sans-Serif" font-size="10.00" fill="#000000"> </text>
<polyline fill="none" stroke="#bfbfbf" points="61,-190.5 120,-190.5 "/>
<text text-anchor="middle" x="90.5" y="-178.5" font-family="Helvetica,sans-Serif" font-size="10.00" fill="#000000"> </text>
</g>
<!-- Node3&#45;&gt;Node2 -->
<g id="edge1" class="edge">
<title>Node3&#45;&gt;Node2</title>
<path fill="none" stroke="#191970" d="M90.5,-161.0752C90.5,-152.7041 90.5,-143.6273 90.5,-134.5309"/>
<polygon fill="none" stroke="#191970" points="87.0001,-161.2494 90.5,-171.2495 94.0001,-161.2495 87.0001,-161.2494"/>
</g>
</g>
</svg>
