<?xml version="1.0" encoding="UTF-8" standalone="no"?>
<!DOCTYPE svg PUBLIC "-//W3C//DTD SVG 1.1//EN"
 "http://www.w3.org/Graphics/SVG/1.1/DTD/svg11.dtd">
<!-- Generated by graphviz version 2.40.1 (20161225.0304)
 -->
<!-- Title: bsn::resource::Battery::getCurrentLevel Pages: 1 -->
<svg width="613pt" height="458pt"
 viewBox="0.00 0.00 613.00 457.50" xmlns="http://www.w3.org/2000/svg" xmlns:xlink="http://www.w3.org/1999/xlink">
<g id="graph0" class="graph" transform="scale(1 1) rotate(0) translate(4 453.5)">
<title>bsn::resource::Battery::getCurrentLevel</title>
<polygon fill="#ffffff" stroke="transparent" points="-4,4 -4,-453.5 609,-453.5 609,4 -4,4"/>
<!-- Node44 -->
<g id="node1" class="node">
<title>Node44</title>
<polygon fill="#bfbfbf" stroke="#000000" points="0,-204 0,-234 124,-234 124,-204 0,-204"/>
<text text-anchor="start" x="8" y="-222" font-family="Helvetica,sans-Serif" font-size="10.00" fill="#000000">bsn::resource::Battery</text>
<text text-anchor="middle" x="62" y="-211" font-family="Helvetica,sans-Serif" font-size="10.00" fill="#000000">::getCurrentLevel</text>
</g>
<!-- Node45 -->
<g id="node2" class="node">
<title>Node45</title>
<g id="a_node2"><a xlink:href="classbsn_1_1resource_1_1Battery.html#ad226c2dc5464351bbdbc6461120934ad" target="_top" xlink:title="bsn::resource::Battery\l::operator=">
<polygon fill="#ffffff" stroke="#000000" points="164,-419 164,-449 288,-449 288,-419 164,-419"/>
<text text-anchor="start" x="172" y="-437" font-family="Helvetica,sans-Serif" font-size="10.00" fill="#000000">bsn::resource::Battery</text>
<text text-anchor="middle" x="226" y="-426" font-family="Helvetica,sans-Serif" font-size="10.00" fill="#000000">::operator=</text>
</a>
</g>
</g>
<!-- Node44&#45;&gt;Node45 -->
<g id="edge1" class="edge">
<title>Node44&#45;&gt;Node45</title>
<path fill="none" stroke="#191970" d="M68.5266,-243.9111C80.2663,-284.0575 108.6388,-363.1891 160,-409 164.2977,-412.8333 169.242,-416.1017 174.4505,-418.8834"/>
<polygon fill="#191970" stroke="#191970" points="71.853,-242.8108 65.7733,-234.1339 65.115,-244.7083 71.853,-242.8108"/>
</g>
<!-- Node46 -->
<g id="node3" class="node">
<title>Node46</title>
<g id="a_node3"><a xlink:href="ResourcesTest_8cpp.html#a61d11c70cbd2ca54105bd4a9b1ec891a" target="_top" xlink:title="TEST_F">
<polygon fill="#ffffff" stroke="#000000" points="200.5,-380.5 200.5,-399.5 251.5,-399.5 251.5,-380.5 200.5,-380.5"/>
<text text-anchor="middle" x="226" y="-387.5" font-family="Helvetica,sans-Serif" font-size="10.00" fill="#000000">TEST_F</text>
</a>
</g>
</g>
<!-- Node44&#45;&gt;Node46 -->
<g id="edge2" class="edge">
<title>Node44&#45;&gt;Node46</title>
<path fill="none" stroke="#191970" d="M71.3462,-243.6617C85.4137,-277.4514 115.2402,-337.7289 160,-371 171.6748,-379.6782 187.2115,-384.4001 200.2776,-386.9656"/>
<polygon fill="#191970" stroke="#191970" points="74.4711,-242.052 67.4872,-234.0848 67.9784,-244.6683 74.4711,-242.052"/>
</g>
<!-- Node47 -->
<g id="node4" class="node">
<title>Node47</title>
<g id="a_node4"><a xlink:href="classCentralHub.html#a48b13d52b79864e84eae5012108d3211" target="_top" xlink:title="CentralHub::body">
<polygon fill="#ffffff" stroke="#000000" points="175.5,-342.5 175.5,-361.5 276.5,-361.5 276.5,-342.5 175.5,-342.5"/>
<text text-anchor="middle" x="226" y="-349.5" font-family="Helvetica,sans-Serif" font-size="10.00" fill="#000000">CentralHub::body</text>
</a>
</g>
</g>
<!-- Node44&#45;&gt;Node47 -->
<g id="edge3" class="edge">
<title>Node44&#45;&gt;Node47</title>
<path fill="none" stroke="#191970" d="M76.1841,-242.5079C93.0154,-268.4252 123.4525,-309.5477 160,-333 166.0212,-336.8637 172.8454,-339.96 179.7655,-342.4364"/>
<polygon fill="#191970" stroke="#191970" points="79.1198,-240.6017 70.8104,-234.0287 73.2072,-244.3489 79.1198,-240.6017"/>
</g>
<!-- Node50 -->
<g id="node7" class="node">
<title>Node50</title>
<g id="a_node7"><a xlink:href="classCentralHub.html#a72336916ee15e722ee0b9f2c7c3747b6" target="_top" xlink:title="CentralHub::reconfigure">
<polygon fill="#ffffff" stroke="#000000" points="160,-304.5 160,-323.5 292,-323.5 292,-304.5 160,-304.5"/>
<text text-anchor="middle" x="226" y="-311.5" font-family="Helvetica,sans-Serif" font-size="10.00" fill="#000000">CentralHub::reconfigure</text>
</a>
</g>
</g>
<!-- Node44&#45;&gt;Node50 -->
<g id="edge6" class="edge">
<title>Node44&#45;&gt;Node50</title>
<path fill="none" stroke="#191970" d="M85.1601,-241.109C103.9917,-258.0081 131.9494,-280.7525 160,-295 167.4417,-298.7798 175.7484,-301.9131 183.8907,-304.4709"/>
<polygon fill="#191970" stroke="#191970" points="87.4168,-238.4299 77.6745,-234.2662 82.6939,-243.5966 87.4168,-238.4299"/>
</g>
<!-- Node51 -->
<g id="node8" class="node">
<title>Node51</title>
<g id="a_node8"><a xlink:href="classG3T1__1.html#a58277c46b8319bd35e3ffabd52805874" target="_top" xlink:title="G3T1_1::transfer">
<polygon fill="#ffffff" stroke="#000000" points="177,-266.5 177,-285.5 275,-285.5 275,-266.5 177,-266.5"/>
<text text-anchor="middle" x="226" y="-273.5" font-family="Helvetica,sans-Serif" font-size="10.00" fill="#000000">G3T1_1::transfer</text>
</a>
</g>
</g>
<!-- Node44&#45;&gt;Node51 -->
<g id="edge8" class="edge">
<title>Node44&#45;&gt;Node51</title>
<path fill="none" stroke="#191970" d="M107.8158,-237.7432C124.1675,-244.1721 142.7982,-251.2019 160,-257 169.8302,-260.3134 180.6015,-263.5691 190.539,-266.4236"/>
<polygon fill="#191970" stroke="#191970" points="109.0655,-234.4737 98.4795,-234.0413 106.4853,-240.9809 109.0655,-234.4737"/>
</g>
<!-- Node52 -->
<g id="node9" class="node">
<title>Node52</title>
<g id="a_node9"><a xlink:href="classG3T1__2.html#ac437972ecabb9e234c8717101d51eac8" target="_top" xlink:title="G3T1_2::transfer">
<polygon fill="#ffffff" stroke="#000000" points="177,-228.5 177,-247.5 275,-247.5 275,-228.5 177,-228.5"/>
<text text-anchor="middle" x="226" y="-235.5" font-family="Helvetica,sans-Serif" font-size="10.00" fill="#000000">G3T1_2::transfer</text>
</a>
</g>
</g>
<!-- Node44&#45;&gt;Node52 -->
<g id="edge9" class="edge">
<title>Node44&#45;&gt;Node52</title>
<path fill="none" stroke="#191970" d="M133.9625,-227.3371C148.4821,-229.0193 163.428,-230.7508 176.9421,-232.3165"/>
<polygon fill="#191970" stroke="#191970" points="134.3378,-223.8573 124.0014,-226.1831 133.5321,-230.8108 134.3378,-223.8573"/>
</g>
<!-- Node53 -->
<g id="node10" class="node">
<title>Node53</title>
<g id="a_node10"><a xlink:href="classG3T1__3.html#a4bd1c419743c7c128fd1c3cf4fa5e434" target="_top" xlink:title="G3T1_3::transfer">
<polygon fill="#ffffff" stroke="#000000" points="177,-190.5 177,-209.5 275,-209.5 275,-190.5 177,-190.5"/>
<text text-anchor="middle" x="226" y="-197.5" font-family="Helvetica,sans-Serif" font-size="10.00" fill="#000000">G3T1_3::transfer</text>
</a>
</g>
</g>
<!-- Node44&#45;&gt;Node53 -->
<g id="edge10" class="edge">
<title>Node44&#45;&gt;Node53</title>
<path fill="none" stroke="#191970" d="M133.9625,-210.6629C148.4821,-208.9807 163.428,-207.2492 176.9421,-205.6835"/>
<polygon fill="#191970" stroke="#191970" points="133.5321,-207.1892 124.0014,-211.8169 134.3378,-214.1427 133.5321,-207.1892"/>
</g>
<!-- Node54 -->
<g id="node11" class="node">
<title>Node54</title>
<g id="a_node11"><a xlink:href="classG3T1__4.html#a20ad5272beba24e4879fb29985b85f69" target="_top" xlink:title="G3T1_4::transfer">
<polygon fill="#ffffff" stroke="#000000" points="177,-152.5 177,-171.5 275,-171.5 275,-152.5 177,-152.5"/>
<text text-anchor="middle" x="226" y="-159.5" font-family="Helvetica,sans-Serif" font-size="10.00" fill="#000000">G3T1_4::transfer</text>
</a>
</g>
</g>
<!-- Node44&#45;&gt;Node54 -->
<g id="edge11" class="edge">
<title>Node44&#45;&gt;Node54</title>
<path fill="none" stroke="#191970" d="M107.8158,-200.2568C124.1675,-193.8279 142.7982,-186.7981 160,-181 169.8302,-177.6866 180.6015,-174.4309 190.539,-171.5764"/>
<polygon fill="#191970" stroke="#191970" points="106.4853,-197.0191 98.4795,-203.9587 109.0655,-203.5263 106.4853,-197.0191"/>
</g>
<!-- Node55 -->
<g id="node12" class="node">
<title>Node55</title>
<g id="a_node12"><a xlink:href="classG3T1__5.html#ae9918da7342a4fb88c6f633db43b9fe8" target="_top" xlink:title="G3T1_5::transfer">
<polygon fill="#ffffff" stroke="#000000" points="177,-114.5 177,-133.5 275,-133.5 275,-114.5 177,-114.5"/>
<text text-anchor="middle" x="226" y="-121.5" font-family="Helvetica,sans-Serif" font-size="10.00" fill="#000000">G3T1_5::transfer</text>
</a>
</g>
</g>
<!-- Node44&#45;&gt;Node55 -->
<g id="edge12" class="edge">
<title>Node44&#45;&gt;Node55</title>
<path fill="none" stroke="#191970" d="M85.1601,-196.891C103.9917,-179.9919 131.9494,-157.2475 160,-143 167.4417,-139.2202 175.7484,-136.0869 183.8907,-133.5291"/>
<polygon fill="#191970" stroke="#191970" points="82.6939,-194.4034 77.6745,-203.7338 87.4168,-199.5701 82.6939,-194.4034"/>
</g>
<!-- Node56 -->
<g id="node13" class="node">
<title>Node56</title>
<g id="a_node13"><a xlink:href="classG3T1__6.html#aaa3c643ee36464eca9e095d150926e22" target="_top" xlink:title="G3T1_6::transfer">
<polygon fill="#ffffff" stroke="#000000" points="177,-76.5 177,-95.5 275,-95.5 275,-76.5 177,-76.5"/>
<text text-anchor="middle" x="226" y="-83.5" font-family="Helvetica,sans-Serif" font-size="10.00" fill="#000000">G3T1_6::transfer</text>
</a>
</g>
</g>
<!-- Node44&#45;&gt;Node56 -->
<g id="edge13" class="edge">
<title>Node44&#45;&gt;Node56</title>
<path fill="none" stroke="#191970" d="M76.1841,-195.4921C93.0154,-169.5748 123.4525,-128.4523 160,-105 166.0212,-101.1363 172.8454,-98.04 179.7655,-95.5636"/>
<polygon fill="#191970" stroke="#191970" points="73.2072,-193.6511 70.8104,-203.9713 79.1198,-197.3983 73.2072,-193.6511"/>
</g>
<!-- Node57 -->
<g id="node14" class="node">
<title>Node57</title>
<g id="a_node14"><a xlink:href="classSensor.html#a043dabb8b92f70fc247d585b8d66e133" target="_top" xlink:title="Sensor::body">
<polygon fill="#ffffff" stroke="#000000" points="334.5,-19.5 334.5,-38.5 414.5,-38.5 414.5,-19.5 334.5,-19.5"/>
<text text-anchor="middle" x="374.5" y="-26.5" font-family="Helvetica,sans-Serif" font-size="10.00" fill="#000000">Sensor::body</text>
</a>
</g>
</g>
<!-- Node44&#45;&gt;Node57 -->
<g id="edge14" class="edge">
<title>Node44&#45;&gt;Node57</title>
<path fill="none" stroke="#191970" d="M70.6672,-194.1924C84.0856,-159.7082 113.3195,-98.0348 160,-67 187.9512,-48.4171 280.2622,-37.3351 334.2466,-32.286"/>
<polygon fill="#191970" stroke="#191970" points="67.2396,-193.3652 67.0088,-203.9575 73.7947,-195.821 67.2396,-193.3652"/>
</g>
<!-- Node60 -->
<g id="node17" class="node">
<title>Node60</title>
<g id="a_node17"><a xlink:href="classSensor.html#aa2c5c0b7c6f69e6e25cf56bab5fc822b" target="_top" xlink:title="Sensor::recharge">
<polygon fill="#ffffff" stroke="#000000" points="177,-.5 177,-19.5 275,-19.5 275,-.5 177,-.5"/>
<text text-anchor="middle" x="226" y="-7.5" font-family="Helvetica,sans-Serif" font-size="10.00" fill="#000000">Sensor::recharge</text>
</a>
</g>
</g>
<!-- Node44&#45;&gt;Node60 -->
<g id="edge17" class="edge">
<title>Node44&#45;&gt;Node60</title>
<path fill="none" stroke="#191970" d="M68.8114,-194.1198C80.8187,-154.7482 109.3966,-78.0444 160,-34 167.1734,-27.7563 176.1026,-23.0894 185.0517,-19.618"/>
<polygon fill="#191970" stroke="#191970" points="65.383,-193.3727 65.9224,-203.9537 72.0992,-195.3458 65.383,-193.3727"/>
</g>
<!-- Node48 -->
<g id="node5" class="node">
<title>Node48</title>
<g id="a_node5"><a xlink:href="classCentralHub.html#a388e947318a28cf7cac762ac8b1cf3d4" target="_top" xlink:title="CentralHub::run">
<polygon fill="#ffffff" stroke="#000000" points="328,-323.5 328,-342.5 421,-342.5 421,-323.5 328,-323.5"/>
<text text-anchor="middle" x="374.5" y="-330.5" font-family="Helvetica,sans-Serif" font-size="10.00" fill="#000000">CentralHub::run</text>
</a>
</g>
</g>
<!-- Node47&#45;&gt;Node48 -->
<g id="edge4" class="edge">
<title>Node47&#45;&gt;Node48</title>
<path fill="none" stroke="#191970" d="M286.9076,-344.2071C300.4664,-342.4723 314.6391,-340.659 327.536,-339.0089"/>
<polygon fill="#191970" stroke="#191970" points="286.1649,-340.7735 276.6899,-345.5144 287.0533,-347.7169 286.1649,-340.7735"/>
</g>
<!-- Node49 -->
<g id="node6" class="node">
<title>Node49</title>
<g id="a_node6"><a xlink:href="g4t1_8cpp.html#af19ddca125f05a2090dd132045573ee4" target="_top" xlink:title="main">
<polygon fill="#ffffff" stroke="#000000" points="472,-323.5 472,-342.5 513,-342.5 513,-323.5 472,-323.5"/>
<text text-anchor="middle" x="492.5" y="-330.5" font-family="Helvetica,sans-Serif" font-size="10.00" fill="#000000">main</text>
</a>
</g>
</g>
<!-- Node48&#45;&gt;Node49 -->
<g id="edge5" class="edge">
<title>Node48&#45;&gt;Node49</title>
<path fill="none" stroke="#191970" d="M431.5291,-333C445.9063,-333 460.4398,-333 471.7095,-333"/>
<polygon fill="#191970" stroke="#191970" points="431.1368,-329.5001 421.1367,-333 431.1367,-336.5001 431.1368,-329.5001"/>
</g>
<!-- Node50&#45;&gt;Node48 -->
<g id="edge7" class="edge">
<title>Node50&#45;&gt;Node48</title>
<path fill="none" stroke="#191970" d="M302.5028,-323.7882C311.0896,-324.8869 319.6361,-325.9804 327.6825,-327.0099"/>
<polygon fill="#191970" stroke="#191970" points="302.7952,-320.2972 292.4319,-322.4997 301.9068,-327.2406 302.7952,-320.2972"/>
</g>
<!-- Node58 -->
<g id="node15" class="node">
<title>Node58</title>
<g id="a_node15"><a xlink:href="classSensor.html#a1a664cdb090cb4295bbdedcffb1c8499" target="_top" xlink:title="Sensor::run">
<polygon fill="#ffffff" stroke="#000000" points="457,-19.5 457,-38.5 528,-38.5 528,-19.5 457,-19.5"/>
<text text-anchor="middle" x="492.5" y="-26.5" font-family="Helvetica,sans-Serif" font-size="10.00" fill="#000000">Sensor::run</text>
</a>
</g>
</g>
<!-- Node57&#45;&gt;Node58 -->
<g id="edge15" class="edge">
<title>Node57&#45;&gt;Node58</title>
<path fill="none" stroke="#191970" d="M424.8885,-29C435.6063,-29 446.7116,-29 456.7483,-29"/>
<polygon fill="#191970" stroke="#191970" points="424.7789,-25.5001 414.7789,-29 424.7788,-32.5001 424.7789,-25.5001"/>
</g>
<!-- Node59 -->
<g id="node16" class="node">
<title>Node59</title>
<g id="a_node16"><a xlink:href="g3t1__1_8cpp.html#a3c04138a5bfe5d72780bb7e82a18e627" target="_top" xlink:title="main">
<polygon fill="#ffffff" stroke="#000000" points="564,-19.5 564,-38.5 605,-38.5 605,-19.5 564,-19.5"/>
<text text-anchor="middle" x="584.5" y="-26.5" font-family="Helvetica,sans-Serif" font-size="10.00" fill="#000000">main</text>
</a>
</g>
</g>
<!-- Node58&#45;&gt;Node59 -->
<g id="edge16" class="edge">
<title>Node58&#45;&gt;Node59</title>
<path fill="none" stroke="#191970" d="M538.1796,-29C547.206,-29 556.2489,-29 563.9178,-29"/>
<polygon fill="#191970" stroke="#191970" points="538.0696,-25.5001 528.0696,-29 538.0696,-32.5001 538.0696,-25.5001"/>
</g>
<!-- Node60&#45;&gt;Node57 -->
<g id="edge18" class="edge">
<title>Node60&#45;&gt;Node57</title>
<path fill="none" stroke="#191970" d="M285.1646,-17.5699C301.6977,-19.6852 319.2726,-21.9339 334.4208,-23.872"/>
<polygon fill="#191970" stroke="#191970" points="285.3994,-14.0715 275.036,-16.274 284.5109,-21.0149 285.3994,-14.0715"/>
</g>
</g>
</svg>
