<?xml version="1.0" encoding="UTF-8" standalone="no"?>
<!DOCTYPE svg PUBLIC "-//W3C//DTD SVG 1.1//EN"
 "http://www.w3.org/Graphics/SVG/1.1/DTD/svg11.dtd">
<!-- Generated by graphviz version 2.40.1 (20161225.0304)
 -->
<!-- Title: Sensor Pages: 1 -->
<svg width="769pt" height="843pt"
 viewBox="0.00 0.00 769.00 843.00" xmlns="http://www.w3.org/2000/svg" xmlns:xlink="http://www.w3.org/1999/xlink">
<g id="graph0" class="graph" transform="scale(1 1) rotate(0) translate(4 839)">
<title>Sensor</title>
<polygon fill="#ffffff" stroke="transparent" points="-4,4 -4,-839 765,-839 765,4 -4,4"/>
<!-- Node9 -->
<g id="node1" class="node">
<title>Node9</title>
<polygon fill="#bfbfbf" stroke="#000000" points="377.5,-.5 377.5,-222.5 496.5,-222.5 496.5,-.5 377.5,-.5"/>
<text text-anchor="middle" x="437" y="-210.5" font-family="Helvetica,sans-Serif" font-size="10.00" fill="#000000">Sensor</text>
<polyline fill="none" stroke="#000000" points="377.5,-203.5 496.5,-203.5 "/>
<text text-anchor="middle" x="437" y="-191.5" font-family="Helvetica,sans-Serif" font-size="10.00" fill="#000000"> </text>
<polyline fill="none" stroke="#000000" points="377.5,-184.5 496.5,-184.5 "/>
<text text-anchor="start" x="385.5" y="-172.5" font-family="Helvetica,sans-Serif" font-size="10.00" fill="#000000">+ Sensor()</text>
<text text-anchor="start" x="385.5" y="-161.5" font-family="Helvetica,sans-Serif" font-size="10.00" fill="#000000">+ ~Sensor()</text>
<text text-anchor="start" x="385.5" y="-150.5" font-family="Helvetica,sans-Serif" font-size="10.00" fill="#000000">+ setUp()</text>
<text text-anchor="start" x="385.5" y="-139.5" font-family="Helvetica,sans-Serif" font-size="10.00" fill="#000000">+ tearDown()</text>
<text text-anchor="start" x="385.5" y="-128.5" font-family="Helvetica,sans-Serif" font-size="10.00" fill="#000000">+ run()</text>
<text text-anchor="start" x="385.5" y="-117.5" font-family="Helvetica,sans-Serif" font-size="10.00" fill="#000000">+ body()</text>
<text text-anchor="start" x="385.5" y="-106.5" font-family="Helvetica,sans-Serif" font-size="10.00" fill="#000000">+ apply_noise()</text>
<text text-anchor="start" x="385.5" y="-95.5" font-family="Helvetica,sans-Serif" font-size="10.00" fill="#000000">+ reconfigure()</text>
<text text-anchor="start" x="385.5" y="-84.5" font-family="Helvetica,sans-Serif" font-size="10.00" fill="#000000">+ injectUncertainty()</text>
<text text-anchor="start" x="385.5" y="-73.5" font-family="Helvetica,sans-Serif" font-size="10.00" fill="#000000">+ collect()</text>
<text text-anchor="start" x="385.5" y="-62.5" font-family="Helvetica,sans-Serif" font-size="10.00" fill="#000000">+ process()</text>
<text text-anchor="start" x="385.5" y="-51.5" font-family="Helvetica,sans-Serif" font-size="10.00" fill="#000000">+ transfer()</text>
<text text-anchor="start" x="385.5" y="-40.5" font-family="Helvetica,sans-Serif" font-size="10.00" fill="#000000"># isActive()</text>
<text text-anchor="start" x="385.5" y="-29.5" font-family="Helvetica,sans-Serif" font-size="10.00" fill="#000000"># turnOn()</text>
<text text-anchor="start" x="385.5" y="-18.5" font-family="Helvetica,sans-Serif" font-size="10.00" fill="#000000"># turnOff()</text>
<text text-anchor="start" x="385.5" y="-7.5" font-family="Helvetica,sans-Serif" font-size="10.00" fill="#000000"># recharge()</text>
</g>
<!-- Node10 -->
<g id="node2" class="node">
<title>Node10</title>
<g id="a_node2"><a xlink:href="classarch_1_1target__system_1_1Component.html" target="_top" xlink:title="{arch::target_system\l::Component\n||+ Component()\l+ ~Component()\l+ setUp()\l+ tearDown()\l+ run()\l+ body()\l+ sendEvent()\l+ sendStatus()\l+ sendEnergyStatus()\l+ reconfigure()\l# activate()\l# deactivate()\l# shutdownComponent()\l# sigIntHandler()\l}">
<polygon fill="#ffffff" stroke="#000000" points="103.5,-292.5 103.5,-503.5 242.5,-503.5 242.5,-292.5 103.5,-292.5"/>
<text text-anchor="start" x="111.5" y="-491.5" font-family="Helvetica,sans-Serif" font-size="10.00" fill="#000000">arch::target_system</text>
<text text-anchor="middle" x="173" y="-480.5" font-family="Helvetica,sans-Serif" font-size="10.00" fill="#000000">::Component</text>
<polyline fill="none" stroke="#000000" points="103.5,-473.5 242.5,-473.5 "/>
<text text-anchor="middle" x="173" y="-461.5" font-family="Helvetica,sans-Serif" font-size="10.00" fill="#000000"> </text>
<polyline fill="none" stroke="#000000" points="103.5,-454.5 242.5,-454.5 "/>
<text text-anchor="start" x="111.5" y="-442.5" font-family="Helvetica,sans-Serif" font-size="10.00" fill="#000000">+ Component()</text>
<text text-anchor="start" x="111.5" y="-431.5" font-family="Helvetica,sans-Serif" font-size="10.00" fill="#000000">+ ~Component()</text>
<text text-anchor="start" x="111.5" y="-420.5" font-family="Helvetica,sans-Serif" font-size="10.00" fill="#000000">+ setUp()</text>
<text text-anchor="start" x="111.5" y="-409.5" font-family="Helvetica,sans-Serif" font-size="10.00" fill="#000000">+ tearDown()</text>
<text text-anchor="start" x="111.5" y="-398.5" font-family="Helvetica,sans-Serif" font-size="10.00" fill="#000000">+ run()</text>
<text text-anchor="start" x="111.5" y="-387.5" font-family="Helvetica,sans-Serif" font-size="10.00" fill="#000000">+ body()</text>
<text text-anchor="start" x="111.5" y="-376.5" font-family="Helvetica,sans-Serif" font-size="10.00" fill="#000000">+ sendEvent()</text>
<text text-anchor="start" x="111.5" y="-365.5" font-family="Helvetica,sans-Serif" font-size="10.00" fill="#000000">+ sendStatus()</text>
<text text-anchor="start" x="111.5" y="-354.5" font-family="Helvetica,sans-Serif" font-size="10.00" fill="#000000">+ sendEnergyStatus()</text>
<text text-anchor="start" x="111.5" y="-343.5" font-family="Helvetica,sans-Serif" font-size="10.00" fill="#000000">+ reconfigure()</text>
<text text-anchor="start" x="111.5" y="-332.5" font-family="Helvetica,sans-Serif" font-size="10.00" fill="#000000"># activate()</text>
<text text-anchor="start" x="111.5" y="-321.5" font-family="Helvetica,sans-Serif" font-size="10.00" fill="#000000"># deactivate()</text>
<text text-anchor="start" x="111.5" y="-310.5" font-family="Helvetica,sans-Serif" font-size="10.00" fill="#000000"># shutdownComponent()</text>
<text text-anchor="start" x="111.5" y="-299.5" font-family="Helvetica,sans-Serif" font-size="10.00" fill="#000000"># sigIntHandler()</text>
</a>
</g>
</g>
<!-- Node10&#45;&gt;Node9 -->
<g id="edge1" class="edge">
<title>Node10&#45;&gt;Node9</title>
<path fill="none" stroke="#191970" d="M248.7224,-285.7822C260.6253,-270.2666 273.233,-254.9017 286,-241 313.7987,-210.7307 348.3813,-180.6201 377.4342,-157.0612"/>
<polygon fill="none" stroke="#191970" points="245.8181,-283.8196 242.565,-293.9026 251.396,-288.049 245.8181,-283.8196"/>
</g>
<!-- Node11 -->
<g id="node3" class="node">
<title>Node11</title>
<g id="a_node3"><a xlink:href="classarch_1_1ROSComponent.html" target="_top" xlink:title="{arch::ROSComponent\n||+ ROSComponent()\l+ ~ROSComponent()\l+ setUp()\l+ tearDown()\l+ run()\l+ body()\l# getRosNodeName()\l}">
<polygon fill="#ffffff" stroke="#000000" points="23.5,-551.5 23.5,-674.5 146.5,-674.5 146.5,-551.5 23.5,-551.5"/>
<text text-anchor="middle" x="85" y="-662.5" font-family="Helvetica,sans-Serif" font-size="10.00" fill="#000000">arch::ROSComponent</text>
<polyline fill="none" stroke="#000000" points="23.5,-655.5 146.5,-655.5 "/>
<text text-anchor="middle" x="85" y="-643.5" font-family="Helvetica,sans-Serif" font-size="10.00" fill="#000000"> </text>
<polyline fill="none" stroke="#000000" points="23.5,-636.5 146.5,-636.5 "/>
<text text-anchor="start" x="31.5" y="-624.5" font-family="Helvetica,sans-Serif" font-size="10.00" fill="#000000">+ ROSComponent()</text>
<text text-anchor="start" x="31.5" y="-613.5" font-family="Helvetica,sans-Serif" font-size="10.00" fill="#000000">+ ~ROSComponent()</text>
<text text-anchor="start" x="31.5" y="-602.5" font-family="Helvetica,sans-Serif" font-size="10.00" fill="#000000">+ setUp()</text>
<text text-anchor="start" x="31.5" y="-591.5" font-family="Helvetica,sans-Serif" font-size="10.00" fill="#000000">+ tearDown()</text>
<text text-anchor="start" x="31.5" y="-580.5" font-family="Helvetica,sans-Serif" font-size="10.00" fill="#000000">+ run()</text>
<text text-anchor="start" x="31.5" y="-569.5" font-family="Helvetica,sans-Serif" font-size="10.00" fill="#000000">+ body()</text>
<text text-anchor="start" x="31.5" y="-558.5" font-family="Helvetica,sans-Serif" font-size="10.00" fill="#000000"># getRosNodeName()</text>
</a>
</g>
</g>
<!-- Node11&#45;&gt;Node10 -->
<g id="edge2" class="edge">
<title>Node11&#45;&gt;Node10</title>
<path fill="none" stroke="#191970" d="M114.1473,-541.7878C119.1319,-529.6096 124.4046,-516.7274 129.6647,-503.8761"/>
<polygon fill="none" stroke="#191970" points="110.7662,-540.809 110.2173,-551.3896 117.2445,-543.4607 110.7662,-540.809"/>
</g>
<!-- Node12 -->
<g id="node4" class="node">
<title>Node12</title>
<g id="a_node4"><a xlink:href="classarch_1_1ROSComponentDescriptor.html" target="_top" xlink:title="{arch::ROSComponentDescriptor\n||+ ROSComponentDescriptor()\l+ ~ROSComponentDescriptor()\l+ setName()\l+ getName()\l+ setFreq()\l+ getFreq()\l}">
<polygon fill="#ffffff" stroke="#000000" points="0,-722.5 0,-834.5 170,-834.5 170,-722.5 0,-722.5"/>
<text text-anchor="middle" x="85" y="-822.5" font-family="Helvetica,sans-Serif" font-size="10.00" fill="#000000">arch::ROSComponentDescriptor</text>
<polyline fill="none" stroke="#000000" points="0,-815.5 170,-815.5 "/>
<text text-anchor="middle" x="85" y="-803.5" font-family="Helvetica,sans-Serif" font-size="10.00" fill="#000000"> </text>
<polyline fill="none" stroke="#000000" points="0,-796.5 170,-796.5 "/>
<text text-anchor="start" x="8" y="-784.5" font-family="Helvetica,sans-Serif" font-size="10.00" fill="#000000">+ ROSComponentDescriptor()</text>
<text text-anchor="start" x="8" y="-773.5" font-family="Helvetica,sans-Serif" font-size="10.00" fill="#000000">+ ~ROSComponentDescriptor()</text>
<text text-anchor="start" x="8" y="-762.5" font-family="Helvetica,sans-Serif" font-size="10.00" fill="#000000">+ setName()</text>
<text text-anchor="start" x="8" y="-751.5" font-family="Helvetica,sans-Serif" font-size="10.00" fill="#000000">+ getName()</text>
<text text-anchor="start" x="8" y="-740.5" font-family="Helvetica,sans-Serif" font-size="10.00" fill="#000000">+ setFreq()</text>
<text text-anchor="start" x="8" y="-729.5" font-family="Helvetica,sans-Serif" font-size="10.00" fill="#000000">+ getFreq()</text>
</a>
</g>
</g>
<!-- Node12&#45;&gt;Node11 -->
<g id="edge3" class="edge">
<title>Node12&#45;&gt;Node11</title>
<path fill="none" stroke="#404040" d="M85,-722.4692C85,-711.0551 85,-698.8811 85,-686.9537"/>
<polygon fill="none" stroke="#404040" points="85.0001,-686.6555 81,-680.6555 85,-674.6555 89,-680.6555 85.0001,-686.6555"/>
<text text-anchor="middle" x="151.5" y="-696" font-family="Helvetica,sans-Serif" font-size="10.00" fill="#000000"> #rosComponentDescriptor</text>
</g>
<!-- Node13 -->
<g id="node5" class="node">
<title>Node13</title>
<polygon fill="#ffffff" stroke="#bfbfbf" points="164.5,-584.5 164.5,-641.5 241.5,-641.5 241.5,-584.5 164.5,-584.5"/>
<text text-anchor="middle" x="203" y="-629.5" font-family="Helvetica,sans-Serif" font-size="10.00" fill="#000000">NodeHandle</text>
<polyline fill="none" stroke="#bfbfbf" points="164.5,-622.5 241.5,-622.5 "/>
<text text-anchor="middle" x="203" y="-610.5" font-family="Helvetica,sans-Serif" font-size="10.00" fill="#000000"> </text>
<polyline fill="none" stroke="#bfbfbf" points="164.5,-603.5 241.5,-603.5 "/>
<text text-anchor="middle" x="203" y="-591.5" font-family="Helvetica,sans-Serif" font-size="10.00" fill="#000000"> </text>
</g>
<!-- Node13&#45;&gt;Node10 -->
<g id="edge4" class="edge">
<title>Node13&#45;&gt;Node10</title>
<path fill="none" stroke="#404040" d="M199.0162,-584.4497C196.4845,-566.3054 193.0196,-541.4736 189.4442,-515.8502"/>
<polygon fill="none" stroke="#404040" points="189.3989,-515.5248 184.6081,-510.1352 187.7405,-503.64 192.5313,-509.0296 189.3989,-515.5248"/>
<text text-anchor="middle" x="214.5" y="-525" font-family="Helvetica,sans-Serif" font-size="10.00" fill="#000000"> #handle</text>
</g>
<!-- Node14 -->
<g id="node6" class="node">
<title>Node14</title>
<polygon fill="#ffffff" stroke="#bfbfbf" points="261,-369.5 261,-426.5 311,-426.5 311,-369.5 261,-369.5"/>
<text text-anchor="middle" x="286" y="-414.5" font-family="Helvetica,sans-Serif" font-size="10.00" fill="#000000">double</text>
<polyline fill="none" stroke="#bfbfbf" points="261,-407.5 311,-407.5 "/>
<text text-anchor="middle" x="286" y="-395.5" font-family="Helvetica,sans-Serif" font-size="10.00" fill="#000000"> </text>
<polyline fill="none" stroke="#bfbfbf" points="261,-388.5 311,-388.5 "/>
<text text-anchor="middle" x="286" y="-376.5" font-family="Helvetica,sans-Serif" font-size="10.00" fill="#000000"> </text>
</g>
<!-- Node14&#45;&gt;Node9 -->
<g id="edge5" class="edge">
<title>Node14&#45;&gt;Node9</title>
<path fill="none" stroke="#404040" d="M282.9483,-369.4715C280.7124,-336.7303 280.9452,-282.2462 301,-241 316.3,-209.5328 342.6732,-181.69 368.1466,-159.9629"/>
<polygon fill="none" stroke="#404040" points="368.228,-159.8954 370.2963,-152.9872 377.4686,-152.2394 375.4003,-159.1476 368.228,-159.8954"/>
<text text-anchor="middle" x="337" y="-266" font-family="Helvetica,sans-Serif" font-size="10.00" fill="#000000"> #noise_factor</text>
<text text-anchor="middle" x="337" y="-255" font-family="Helvetica,sans-Serif" font-size="10.00" fill="#000000">#data</text>
<text text-anchor="middle" x="337" y="-244" font-family="Helvetica,sans-Serif" font-size="10.00" fill="#000000">#cost</text>
</g>
<!-- Node15 -->
<g id="node7" class="node">
<title>Node15</title>
<polygon fill="#ffffff" stroke="#bfbfbf" points="366.5,-369.5 366.5,-426.5 395.5,-426.5 395.5,-369.5 366.5,-369.5"/>
<text text-anchor="middle" x="381" y="-414.5" font-family="Helvetica,sans-Serif" font-size="10.00" fill="#000000">int</text>
<polyline fill="none" stroke="#bfbfbf" points="366.5,-407.5 395.5,-407.5 "/>
<text text-anchor="middle" x="381" y="-395.5" font-family="Helvetica,sans-Serif" font-size="10.00" fill="#000000"> </text>
<polyline fill="none" stroke="#bfbfbf" points="366.5,-388.5 395.5,-388.5 "/>
<text text-anchor="middle" x="381" y="-376.5" font-family="Helvetica,sans-Serif" font-size="10.00" fill="#000000"> </text>
</g>
<!-- Node15&#45;&gt;Node9 -->
<g id="edge6" class="edge">
<title>Node15&#45;&gt;Node9</title>
<path fill="none" stroke="#404040" d="M377.8354,-369.2844C375.107,-337.5323 372.8887,-285.0423 382,-241 382.4535,-238.808 382.945,-236.6069 383.4712,-234.4003"/>
<polygon fill="none" stroke="#404040" points="383.5323,-234.1685 381.1975,-227.3458 386.5974,-222.5665 388.9322,-229.3891 383.5323,-234.1685"/>
<text text-anchor="middle" x="426.5" y="-260.5" font-family="Helvetica,sans-Serif" font-size="10.00" fill="#000000"> #buffer_size</text>
<text text-anchor="middle" x="426.5" y="-249.5" font-family="Helvetica,sans-Serif" font-size="10.00" fill="#000000">#replicate_collect</text>
</g>
<!-- Node16 -->
<g id="node8" class="node">
<title>Node16</title>
<polygon fill="#ffffff" stroke="#bfbfbf" points="474,-369.5 474,-426.5 512,-426.5 512,-369.5 474,-369.5"/>
<text text-anchor="middle" x="493" y="-414.5" font-family="Helvetica,sans-Serif" font-size="10.00" fill="#000000">bool</text>
<polyline fill="none" stroke="#bfbfbf" points="474,-407.5 512,-407.5 "/>
<text text-anchor="middle" x="493" y="-395.5" font-family="Helvetica,sans-Serif" font-size="10.00" fill="#000000"> </text>
<polyline fill="none" stroke="#bfbfbf" points="474,-388.5 512,-388.5 "/>
<text text-anchor="middle" x="493" y="-376.5" font-family="Helvetica,sans-Serif" font-size="10.00" fill="#000000"> </text>
</g>
<!-- Node16&#45;&gt;Node9 -->
<g id="edge7" class="edge">
<title>Node16&#45;&gt;Node9</title>
<path fill="none" stroke="#404040" d="M490.0228,-369.4678C486.4898,-337.8764 479.9326,-285.5262 471,-241 470.5646,-238.8296 470.1145,-236.6414 469.6515,-234.4398"/>
<polygon fill="none" stroke="#404040" points="469.6183,-234.2872 464.4316,-229.2774 467.0612,-222.5628 472.2479,-227.5727 469.6183,-234.2872"/>
<text text-anchor="middle" x="523" y="-266" font-family="Helvetica,sans-Serif" font-size="10.00" fill="#000000"> #instant_recharge</text>
<text text-anchor="middle" x="523" y="-255" font-family="Helvetica,sans-Serif" font-size="10.00" fill="#000000">#shouldStart</text>
<text text-anchor="middle" x="523" y="-244" font-family="Helvetica,sans-Serif" font-size="10.00" fill="#000000">#active</text>
</g>
<!-- Node17 -->
<g id="node9" class="node">
<title>Node17</title>
<g id="a_node9"><a xlink:title="STL class. ">
<polygon fill="#ffffff" stroke="#bfbfbf" points="553.5,-369.5 553.5,-426.5 618.5,-426.5 618.5,-369.5 553.5,-369.5"/>
<text text-anchor="middle" x="586" y="-414.5" font-family="Helvetica,sans-Serif" font-size="10.00" fill="#000000">std::string</text>
<polyline fill="none" stroke="#bfbfbf" points="553.5,-407.5 618.5,-407.5 "/>
<text text-anchor="middle" x="586" y="-395.5" font-family="Helvetica,sans-Serif" font-size="10.00" fill="#000000"> </text>
<polyline fill="none" stroke="#bfbfbf" points="553.5,-388.5 618.5,-388.5 "/>
<text text-anchor="middle" x="586" y="-376.5" font-family="Helvetica,sans-Serif" font-size="10.00" fill="#000000"> </text>
</a>
</g>
</g>
<!-- Node17&#45;&gt;Node9 -->
<g id="edge8" class="edge">
<title>Node17&#45;&gt;Node9</title>
<path fill="none" stroke="#404040" d="M589.7814,-369.2084C592.7678,-336.4639 593.6475,-282.2076 574,-241 558.7577,-209.0315 531.9228,-180.9508 506.0191,-159.1831"/>
<polygon fill="none" stroke="#404040" points="505.8406,-159.0375 498.6628,-158.3454 496.5409,-151.4535 503.7188,-152.1456 505.8406,-159.0375"/>
<text text-anchor="middle" x="602" y="-255" font-family="Helvetica,sans-Serif" font-size="10.00" fill="#000000"> #type</text>
</g>
<!-- Node18 -->
<g id="node10" class="node">
<title>Node18</title>
<g id="a_node10"><a xlink:title="STL class. ">
<polygon fill="#ffffff" stroke="#bfbfbf" points="534,-579 534,-647 638,-647 638,-579 534,-579"/>
<text text-anchor="start" x="542" y="-635" font-family="Helvetica,sans-Serif" font-size="10.00" fill="#000000">std::basic_string&lt;</text>
<text text-anchor="middle" x="586" y="-624" font-family="Helvetica,sans-Serif" font-size="10.00" fill="#000000"> char &gt;</text>
<polyline fill="none" stroke="#bfbfbf" points="534,-617 638,-617 "/>
<text text-anchor="middle" x="586" y="-605" font-family="Helvetica,sans-Serif" font-size="10.00" fill="#000000"> </text>
<polyline fill="none" stroke="#bfbfbf" points="534,-598 638,-598 "/>
<text text-anchor="middle" x="586" y="-586" font-family="Helvetica,sans-Serif" font-size="10.00" fill="#000000"> </text>
</a>
</g>
</g>
<!-- Node18&#45;&gt;Node17 -->
<g id="edge9" class="edge">
<title>Node18&#45;&gt;Node17</title>
<path fill="none" stroke="#191970" d="M586,-568.8542C586,-526.305 586,-463.1679 586,-426.7475"/>
<polygon fill="none" stroke="#191970" points="582.5001,-568.9326 586,-578.9326 589.5001,-568.9326 582.5001,-568.9326"/>
</g>
<!-- Node19 -->
<g id="node11" class="node">
<title>Node19</title>
<g id="a_node11"><a xlink:href="classbsn_1_1resource_1_1Battery.html" target="_top" xlink:title="{bsn::resource::Battery\n||+ Battery()\l+ Battery()\l+ ~Battery()\l+ Battery()\l+ operator=()\l+ consume()\l+ generate()\l+ setId()\l+ getId()\l+ setCapacity()\land 6 more...\l}">
<polygon fill="#ffffff" stroke="#000000" points="637,-314.5 637,-481.5 761,-481.5 761,-314.5 637,-314.5"/>
<text text-anchor="middle" x="699" y="-469.5" font-family="Helvetica,sans-Serif" font-size="10.00" fill="#000000">bsn::resource::Battery</text>
<polyline fill="none" stroke="#000000" points="637,-462.5 761,-462.5 "/>
<text text-anchor="middle" x="699" y="-450.5" font-family="Helvetica,sans-Serif" font-size="10.00" fill="#000000"> </text>
<polyline fill="none" stroke="#000000" points="637,-443.5 761,-443.5 "/>
<text text-anchor="start" x="645" y="-431.5" font-family="Helvetica,sans-Serif" font-size="10.00" fill="#000000">+ Battery()</text>
<text text-anchor="start" x="645" y="-420.5" font-family="Helvetica,sans-Serif" font-size="10.00" fill="#000000">+ Battery()</text>
<text text-anchor="start" x="645" y="-409.5" font-family="Helvetica,sans-Serif" font-size="10.00" fill="#000000">+ ~Battery()</text>
<text text-anchor="start" x="645" y="-398.5" font-family="Helvetica,sans-Serif" font-size="10.00" fill="#000000">+ Battery()</text>
<text text-anchor="start" x="645" y="-387.5" font-family="Helvetica,sans-Serif" font-size="10.00" fill="#000000">+ operator=()</text>
<text text-anchor="start" x="645" y="-376.5" font-family="Helvetica,sans-Serif" font-size="10.00" fill="#000000">+ consume()</text>
<text text-anchor="start" x="645" y="-365.5" font-family="Helvetica,sans-Serif" font-size="10.00" fill="#000000">+ generate()</text>
<text text-anchor="start" x="645" y="-354.5" font-family="Helvetica,sans-Serif" font-size="10.00" fill="#000000">+ setId()</text>
<text text-anchor="start" x="645" y="-343.5" font-family="Helvetica,sans-Serif" font-size="10.00" fill="#000000">+ getId()</text>
<text text-anchor="start" x="645" y="-332.5" font-family="Helvetica,sans-Serif" font-size="10.00" fill="#000000">+ setCapacity()</text>
<text text-anchor="start" x="645" y="-321.5" font-family="Helvetica,sans-Serif" font-size="10.00" fill="#000000">and 6 more...</text>
</a>
</g>
</g>
<!-- Node19&#45;&gt;Node9 -->
<g id="edge10" class="edge">
<title>Node19&#45;&gt;Node9</title>
<path fill="none" stroke="#404040" d="M668.044,-314.1542C656.3176,-288.994 641.2872,-262.4178 623,-241 590.7713,-203.254 545.1443,-171.2645 507.1474,-148.5229"/>
<polygon fill="none" stroke="#404040" points="506.9971,-148.4346 499.7977,-148.8447 496.6502,-142.3567 503.8496,-141.9467 506.9971,-148.4346"/>
<text text-anchor="middle" x="668.5" y="-255" font-family="Helvetica,sans-Serif" font-size="10.00" fill="#000000"> #battery</text>
</g>
</g>
</svg>
