<?xml version="1.0" encoding="UTF-8" standalone="no"?>
<!DOCTYPE svg PUBLIC "-//W3C//DTD SVG 1.1//EN"
 "http://www.w3.org/Graphics/SVG/1.1/DTD/svg11.dtd">
<!-- Generated by graphviz version 2.40.1 (20161225.0304)
 -->
<!-- Title: arch::target_system::Component::sigIntHandler Pages: 1 -->
<svg width="538pt" height="39pt"
 viewBox="0.00 0.00 538.00 39.00" xmlns="http://www.w3.org/2000/svg" xmlns:xlink="http://www.w3.org/1999/xlink">
<g id="graph0" class="graph" transform="scale(1 1) rotate(0) translate(4 35)">
<title>arch::target_system::Component::sigIntHandler</title>
<polygon fill="#ffffff" stroke="transparent" points="-4,4 -4,-35 534,-35 534,4 -4,4"/>
<!-- Node87 -->
<g id="node1" class="node">
<title>Node87</title>
<polygon fill="#bfbfbf" stroke="#000000" points="0,-.5 0,-30.5 150,-30.5 150,-.5 0,-.5"/>
<text text-anchor="start" x="8" y="-18.5" font-family="Helvetica,sans-Serif" font-size="10.00" fill="#000000">arch::target_system</text>
<text text-anchor="middle" x="75" y="-7.5" font-family="Helvetica,sans-Serif" font-size="10.00" fill="#000000">::Component::sigIntHandler</text>
</g>
<!-- Node88 -->
<g id="node2" class="node">
<title>Node88</title>
<g id="a_node2"><a xlink:href="classarch_1_1target__system_1_1Component.html#ab67fdba3849fb31886a7e4d2b032f38c" target="_top" xlink:title="arch::target_system\l::Component::shutdownComponent">
<polygon fill="#ffffff" stroke="#000000" points="186,-.5 186,-30.5 374,-30.5 374,-.5 186,-.5"/>
<text text-anchor="start" x="194" y="-18.5" font-family="Helvetica,sans-Serif" font-size="10.00" fill="#000000">arch::target_system</text>
<text text-anchor="middle" x="280" y="-7.5" font-family="Helvetica,sans-Serif" font-size="10.00" fill="#000000">::Component::shutdownComponent</text>
</a>
</g>
</g>
<!-- Node87&#45;&gt;Node88 -->
<g id="edge1" class="edge">
<title>Node87&#45;&gt;Node88</title>
<path fill="none" stroke="#191970" d="M150.1704,-15.5C158.5479,-15.5 167.1882,-15.5 175.8442,-15.5"/>
<polygon fill="#191970" stroke="#191970" points="175.9981,-19.0001 185.9981,-15.5 175.998,-12.0001 175.9981,-19.0001"/>
</g>
<!-- Node89 -->
<g id="node3" class="node">
<title>Node89</title>
<g id="a_node3"><a xlink:href="classarch_1_1ROSComponent.html#aa5fa36ba1bff54a60c9a0e5498e504f7" target="_top" xlink:title="arch::ROSComponent\l::getRosNodeName">
<polygon fill="#ffffff" stroke="#000000" points="410,-.5 410,-30.5 530,-30.5 530,-.5 410,-.5"/>
<text text-anchor="start" x="418" y="-18.5" font-family="Helvetica,sans-Serif" font-size="10.00" fill="#000000">arch::ROSComponent</text>
<text text-anchor="middle" x="470" y="-7.5" font-family="Helvetica,sans-Serif" font-size="10.00" fill="#000000">::getRosNodeName</text>
</a>
</g>
</g>
<!-- Node88&#45;&gt;Node89 -->
<g id="edge2" class="edge">
<title>Node88&#45;&gt;Node89</title>
<path fill="none" stroke="#191970" d="M374.165,-15.5C382.7893,-15.5 391.4227,-15.5 399.781,-15.5"/>
<polygon fill="#191970" stroke="#191970" points="399.8207,-19.0001 409.8206,-15.5 399.8206,-12.0001 399.8207,-19.0001"/>
</g>
</g>
</svg>
