<?xml version="1.0" encoding="UTF-8" standalone="no"?>
<!DOCTYPE svg PUBLIC "-//W3C//DTD SVG 1.1//EN"
 "http://www.w3.org/Graphics/SVG/1.1/DTD/svg11.dtd">
<!-- Generated by graphviz version 2.40.1 (20161225.0304)
 -->
<!-- Title: Engine::sendAdaptationParameter Pages: 1 -->
<svg width="452pt" height="78pt"
 viewBox="0.00 0.00 452.00 77.50" xmlns="http://www.w3.org/2000/svg" xmlns:xlink="http://www.w3.org/1999/xlink">
<g id="graph0" class="graph" transform="scale(1 1) rotate(0) translate(4 73.5)">
<title>Engine::sendAdaptationParameter</title>
<polygon fill="#ffffff" stroke="transparent" points="-4,4 -4,-73.5 448,-73.5 448,4 -4,4"/>
<!-- Node75 -->
<g id="node1" class="node">
<title>Node75</title>
<polygon fill="#bfbfbf" stroke="#000000" points="0,-28 0,-47 182,-47 182,-28 0,-28"/>
<text text-anchor="middle" x="91" y="-35" font-family="Helvetica,sans-Serif" font-size="10.00" fill="#000000">Engine::sendAdaptationParameter</text>
</g>
<!-- Node76 -->
<g id="node2" class="node">
<title>Node76</title>
<g id="a_node2"><a xlink:href="classEngine.html#ae0233e4936be42094d3dfd401633cccd" target="_top" xlink:title="Engine::setUp">
<polygon fill="#ffffff" stroke="#000000" points="218,-28 218,-47 302,-47 302,-28 218,-28"/>
<text text-anchor="middle" x="260" y="-35" font-family="Helvetica,sans-Serif" font-size="10.00" fill="#000000">Engine::setUp</text>
</a>
</g>
</g>
<!-- Node75&#45;&gt;Node76 -->
<g id="edge1" class="edge">
<title>Node75&#45;&gt;Node76</title>
<path fill="none" stroke="#191970" d="M192.4394,-37.5C201.2324,-37.5 209.7702,-37.5 217.6506,-37.5"/>
<polygon fill="#191970" stroke="#191970" points="192.4248,-34.0001 182.4247,-37.5 192.4247,-41.0001 192.4248,-34.0001"/>
</g>
<!-- Node77 -->
<g id="node3" class="node">
<title>Node77</title>
<g id="a_node3"><a xlink:href="classCostEngine.html#abf2d8b5da61c0c372c6d632d9a55e832" target="_top" xlink:title="CostEngine::setUp">
<polygon fill="#ffffff" stroke="#000000" points="338,-50 338,-69 444,-69 444,-50 338,-50"/>
<text text-anchor="middle" x="391" y="-57" font-family="Helvetica,sans-Serif" font-size="10.00" fill="#000000">CostEngine::setUp</text>
</a>
</g>
</g>
<!-- Node76&#45;&gt;Node77 -->
<g id="edge2" class="edge">
<title>Node76&#45;&gt;Node77</title>
<path fill="none" stroke="#191970" d="M312.2601,-46.2765C320.6884,-47.692 329.4221,-49.1587 337.8707,-50.5775"/>
<polygon fill="#191970" stroke="#191970" points="312.6119,-42.7866 302.1703,-44.582 311.4525,-49.69 312.6119,-42.7866"/>
</g>
<!-- Node78 -->
<g id="node4" class="node">
<title>Node78</title>
<g id="a_node4"><a xlink:href="classReliabilityEngine.html#ad5323671d1e8645df2e0f7d9772bf806" target="_top" xlink:title="ReliabilityEngine::\lsetUp">
<polygon fill="#ffffff" stroke="#000000" points="339,-.5 339,-30.5 443,-30.5 443,-.5 339,-.5"/>
<text text-anchor="start" x="347" y="-18.5" font-family="Helvetica,sans-Serif" font-size="10.00" fill="#000000">ReliabilityEngine::</text>
<text text-anchor="middle" x="391" y="-7.5" font-family="Helvetica,sans-Serif" font-size="10.00" fill="#000000">setUp</text>
</a>
</g>
</g>
<!-- Node76&#45;&gt;Node78 -->
<g id="edge3" class="edge">
<title>Node76&#45;&gt;Node78</title>
<path fill="none" stroke="#191970" d="M312.2454,-28.726C320.9903,-27.2574 330.0642,-25.7335 338.8077,-24.2651"/>
<polygon fill="#191970" stroke="#191970" points="311.4525,-25.31 302.1703,-30.418 312.6119,-32.2134 311.4525,-25.31"/>
</g>
</g>
</svg>
