<?xml version="1.0" encoding="UTF-8" standalone="no"?>
<!DOCTYPE svg PUBLIC "-//W3C//DTD SVG 1.1//EN"
 "http://www.w3.org/Graphics/SVG/1.1/DTD/svg11.dtd">
<!-- Generated by graphviz version 2.40.1 (20161225.0304)
 -->
<!-- Title: archlib.srv._DataAccessRequest.DataAccessRequestRequest Pages: 1 -->
<svg width="182pt" height="226pt"
 viewBox="0.00 0.00 182.00 226.00" xmlns="http://www.w3.org/2000/svg" xmlns:xlink="http://www.w3.org/1999/xlink">
<g id="graph0" class="graph" transform="scale(1 1) rotate(0) translate(4 222)">
<title>archlib.srv._DataAccessRequest.DataAccessRequestRequest</title>
<polygon fill="#ffffff" stroke="transparent" points="-4,4 -4,-222 178,-222 178,4 -4,4"/>
<!-- Node2 -->
<g id="node1" class="node">
<title>Node2</title>
<polygon fill="#bfbfbf" stroke="#000000" points="0,-.5 0,-123.5 174,-123.5 174,-.5 0,-.5"/>
<text text-anchor="start" x="8" y="-111.5" font-family="Helvetica,sans-Serif" font-size="10.00" fill="#000000">archlib.srv._DataAccessRequest.</text>
<text text-anchor="middle" x="87" y="-100.5" font-family="Helvetica,sans-Serif" font-size="10.00" fill="#000000">DataAccessRequestRequest</text>
<polyline fill="none" stroke="#000000" points="0,-93.5 174,-93.5 "/>
<text text-anchor="start" x="8" y="-81.5" font-family="Helvetica,sans-Serif" font-size="10.00" fill="#000000">+ name</text>
<text text-anchor="start" x="8" y="-70.5" font-family="Helvetica,sans-Serif" font-size="10.00" fill="#000000">+ query</text>
<polyline fill="none" stroke="#000000" points="0,-63.5 174,-63.5 "/>
<text text-anchor="start" x="8" y="-51.5" font-family="Helvetica,sans-Serif" font-size="10.00" fill="#000000">+ __init__()</text>
<text text-anchor="start" x="8" y="-40.5" font-family="Helvetica,sans-Serif" font-size="10.00" fill="#000000">+ serialize()</text>
<text text-anchor="start" x="8" y="-29.5" font-family="Helvetica,sans-Serif" font-size="10.00" fill="#000000">+ deserialize()</text>
<text text-anchor="start" x="8" y="-18.5" font-family="Helvetica,sans-Serif" font-size="10.00" fill="#000000">+ serialize_numpy()</text>
<text text-anchor="start" x="8" y="-7.5" font-family="Helvetica,sans-Serif" font-size="10.00" fill="#000000">+ deserialize_numpy()</text>
</g>
<!-- Node3 -->
<g id="node2" class="node">
<title>Node3</title>
<polygon fill="#ffffff" stroke="#bfbfbf" points="39.5,-160.5 39.5,-217.5 134.5,-217.5 134.5,-160.5 39.5,-160.5"/>
<text text-anchor="middle" x="87" y="-205.5" font-family="Helvetica,sans-Serif" font-size="10.00" fill="#000000">genpy::Message</text>
<polyline fill="none" stroke="#bfbfbf" points="39.5,-198.5 134.5,-198.5 "/>
<text text-anchor="middle" x="87" y="-186.5" font-family="Helvetica,sans-Serif" font-size="10.00" fill="#000000"> </text>
<polyline fill="none" stroke="#bfbfbf" points="39.5,-179.5 134.5,-179.5 "/>
<text text-anchor="middle" x="87" y="-167.5" font-family="Helvetica,sans-Serif" font-size="10.00" fill="#000000"> </text>
</g>
<!-- Node3&#45;&gt;Node2 -->
<g id="edge1" class="edge">
<title>Node3&#45;&gt;Node2</title>
<path fill="none" stroke="#191970" d="M87,-150.2486C87,-141.8213 87,-132.7045 87,-123.6384"/>
<polygon fill="none" stroke="#191970" points="83.5001,-150.4987 87,-160.4987 90.5001,-150.4988 83.5001,-150.4987"/>
</g>
</g>
</svg>
