<?xml version="1.0" encoding="UTF-8" standalone="no"?>
<!DOCTYPE svg PUBLIC "-//W3C//DTD SVG 1.1//EN"
 "http://www.w3.org/Graphics/SVG/1.1/DTD/svg11.dtd">
<!-- Generated by graphviz version 2.40.1 (20161225.0304)
 -->
<!-- Title: RangeTest Pages: 1 -->
<svg width="174pt" height="325pt"
 viewBox="0.00 0.00 173.50 325.00" xmlns="http://www.w3.org/2000/svg" xmlns:xlink="http://www.w3.org/1999/xlink">
<g id="graph0" class="graph" transform="scale(1 1) rotate(0) translate(4 321)">
<title>RangeTest</title>
<polygon fill="#ffffff" stroke="transparent" points="-4,4 -4,-321 169.5,-321 169.5,4 -4,4"/>
<!-- Node2 -->
<g id="node1" class="node">
<title>Node2</title>
<polygon fill="#bfbfbf" stroke="#000000" points="21,-.5 21,-68.5 107,-68.5 107,-.5 21,-.5"/>
<text text-anchor="middle" x="64" y="-56.5" font-family="Helvetica,sans-Serif" font-size="10.00" fill="#000000">RangeTest</text>
<polyline fill="none" stroke="#000000" points="21,-49.5 107,-49.5 "/>
<text text-anchor="middle" x="64" y="-37.5" font-family="Helvetica,sans-Serif" font-size="10.00" fill="#000000"> </text>
<polyline fill="none" stroke="#000000" points="21,-30.5 107,-30.5 "/>
<text text-anchor="start" x="29" y="-18.5" font-family="Helvetica,sans-Serif" font-size="10.00" fill="#000000"># RangeTest()</text>
<text text-anchor="start" x="29" y="-7.5" font-family="Helvetica,sans-Serif" font-size="10.00" fill="#000000"># SetUp()</text>
</g>
<!-- Node3 -->
<g id="node2" class="node">
<title>Node3</title>
<polygon fill="#ffffff" stroke="#bfbfbf" points="0,-193.5 0,-250.5 36,-250.5 36,-193.5 0,-193.5"/>
<text text-anchor="middle" x="18" y="-238.5" font-family="Helvetica,sans-Serif" font-size="10.00" fill="#000000">Test</text>
<polyline fill="none" stroke="#bfbfbf" points="0,-231.5 36,-231.5 "/>
<text text-anchor="middle" x="18" y="-219.5" font-family="Helvetica,sans-Serif" font-size="10.00" fill="#000000"> </text>
<polyline fill="none" stroke="#bfbfbf" points="0,-212.5 36,-212.5 "/>
<text text-anchor="middle" x="18" y="-200.5" font-family="Helvetica,sans-Serif" font-size="10.00" fill="#000000"> </text>
</g>
<!-- Node3&#45;&gt;Node2 -->
<g id="edge1" class="edge">
<title>Node3&#45;&gt;Node2</title>
<path fill="none" stroke="#191970" d="M27.537,-183.1262C35.8327,-149.3122 47.7346,-100.7993 55.6579,-68.5032"/>
<polygon fill="none" stroke="#191970" points="24.0702,-182.5681 25.0867,-193.114 30.8686,-184.236 24.0702,-182.5681"/>
</g>
<!-- Node4 -->
<g id="node3" class="node">
<title>Node4</title>
<g id="a_node3"><a xlink:href="classbsn_1_1range_1_1Range.html" target="_top" xlink:title="{bsn::range::Range\n||+ Range()\l+ Range()\l+ ~Range()\l+ Range()\l+ operator=()\l+ in_range()\l+ convert()\l+ to_print()\l+ setLowerBound()\l+ getLowerBound()\l+ setUpperBound()\l+ getUpperBound()\l+ toString()\l}">
<polygon fill="#ffffff" stroke="#000000" points="54.5,-127.5 54.5,-316.5 165.5,-316.5 165.5,-127.5 54.5,-127.5"/>
<text text-anchor="middle" x="110" y="-304.5" font-family="Helvetica,sans-Serif" font-size="10.00" fill="#000000">bsn::range::Range</text>
<polyline fill="none" stroke="#000000" points="54.5,-297.5 165.5,-297.5 "/>
<text text-anchor="middle" x="110" y="-285.5" font-family="Helvetica,sans-Serif" font-size="10.00" fill="#000000"> </text>
<polyline fill="none" stroke="#000000" points="54.5,-278.5 165.5,-278.5 "/>
<text text-anchor="start" x="62.5" y="-266.5" font-family="Helvetica,sans-Serif" font-size="10.00" fill="#000000">+ Range()</text>
<text text-anchor="start" x="62.5" y="-255.5" font-family="Helvetica,sans-Serif" font-size="10.00" fill="#000000">+ Range()</text>
<text text-anchor="start" x="62.5" y="-244.5" font-family="Helvetica,sans-Serif" font-size="10.00" fill="#000000">+ ~Range()</text>
<text text-anchor="start" x="62.5" y="-233.5" font-family="Helvetica,sans-Serif" font-size="10.00" fill="#000000">+ Range()</text>
<text text-anchor="start" x="62.5" y="-222.5" font-family="Helvetica,sans-Serif" font-size="10.00" fill="#000000">+ operator=()</text>
<text text-anchor="start" x="62.5" y="-211.5" font-family="Helvetica,sans-Serif" font-size="10.00" fill="#000000">+ in_range()</text>
<text text-anchor="start" x="62.5" y="-200.5" font-family="Helvetica,sans-Serif" font-size="10.00" fill="#000000">+ convert()</text>
<text text-anchor="start" x="62.5" y="-189.5" font-family="Helvetica,sans-Serif" font-size="10.00" fill="#000000">+ to_print()</text>
<text text-anchor="start" x="62.5" y="-178.5" font-family="Helvetica,sans-Serif" font-size="10.00" fill="#000000">+ setLowerBound()</text>
<text text-anchor="start" x="62.5" y="-167.5" font-family="Helvetica,sans-Serif" font-size="10.00" fill="#000000">+ getLowerBound()</text>
<text text-anchor="start" x="62.5" y="-156.5" font-family="Helvetica,sans-Serif" font-size="10.00" fill="#000000">+ setUpperBound()</text>
<text text-anchor="start" x="62.5" y="-145.5" font-family="Helvetica,sans-Serif" font-size="10.00" fill="#000000">+ getUpperBound()</text>
<text text-anchor="start" x="62.5" y="-134.5" font-family="Helvetica,sans-Serif" font-size="10.00" fill="#000000">+ toString()</text>
</a>
</g>
</g>
<!-- Node4&#45;&gt;Node2 -->
<g id="edge2" class="edge">
<title>Node4&#45;&gt;Node2</title>
<path fill="none" stroke="#404040" d="M86.7979,-127.426C82.7913,-111.0949 78.7929,-94.797 75.289,-80.515"/>
<polygon fill="none" stroke="#404040" points="75.2087,-80.1874 69.8943,-75.3132 72.3494,-68.533 77.6639,-73.4071 75.2087,-80.1874"/>
<text text-anchor="middle" x="92" y="-101" font-family="Helvetica,sans-Serif" font-size="10.00" fill="#000000"> #r1</text>
<text text-anchor="middle" x="92" y="-90" font-family="Helvetica,sans-Serif" font-size="10.00" fill="#000000">#r2</text>
</g>
</g>
</svg>
