<?xml version="1.0" encoding="UTF-8" standalone="no"?>
<!DOCTYPE svg PUBLIC "-//W3C//DTD SVG 1.1//EN"
 "http://www.w3.org/Graphics/SVG/1.1/DTD/svg11.dtd">
<!-- Generated by graphviz version 2.40.1 (20161225.0304)
 -->
<!-- Title: arch::target_system::Effector Pages: 1 -->
<svg width="269pt" height="452pt"
 viewBox="0.00 0.00 268.50 452.00" xmlns="http://www.w3.org/2000/svg" xmlns:xlink="http://www.w3.org/1999/xlink">
<g id="graph0" class="graph" transform="scale(1 1) rotate(0) translate(4 448)">
<title>arch::target_system::Effector</title>
<polygon fill="#ffffff" stroke="transparent" points="-4,4 -4,-448 264.5,-448 264.5,4 -4,4"/>
<!-- Node3 -->
<g id="node1" class="node">
<title>Node3</title>
<polygon fill="#bfbfbf" stroke="#000000" points="85.5,-.5 85.5,-112.5 260.5,-112.5 260.5,-.5 85.5,-.5"/>
<text text-anchor="start" x="93.5" y="-100.5" font-family="Helvetica,sans-Serif" font-size="10.00" fill="#000000">arch::target_system</text>
<text text-anchor="middle" x="173" y="-89.5" font-family="Helvetica,sans-Serif" font-size="10.00" fill="#000000">::Effector</text>
<polyline fill="none" stroke="#000000" points="85.5,-82.5 260.5,-82.5 "/>
<text text-anchor="middle" x="173" y="-70.5" font-family="Helvetica,sans-Serif" font-size="10.00" fill="#000000"> </text>
<polyline fill="none" stroke="#000000" points="85.5,-63.5 260.5,-63.5 "/>
<text text-anchor="start" x="93.5" y="-51.5" font-family="Helvetica,sans-Serif" font-size="10.00" fill="#000000">+ Effector()</text>
<text text-anchor="start" x="93.5" y="-40.5" font-family="Helvetica,sans-Serif" font-size="10.00" fill="#000000">+ ~Effector()</text>
<text text-anchor="start" x="93.5" y="-29.5" font-family="Helvetica,sans-Serif" font-size="10.00" fill="#000000">+ setUp()</text>
<text text-anchor="start" x="93.5" y="-18.5" font-family="Helvetica,sans-Serif" font-size="10.00" fill="#000000">+ tearDown()</text>
<text text-anchor="start" x="93.5" y="-7.5" font-family="Helvetica,sans-Serif" font-size="10.00" fill="#000000">+ receiveAdaptationCommand()</text>
</g>
<!-- Node4 -->
<g id="node2" class="node">
<title>Node4</title>
<g id="a_node2"><a xlink:href="classarch_1_1ROSComponent.html" target="_top" xlink:title="{arch::ROSComponent\n||+ ROSComponent()\l+ ~ROSComponent()\l+ setUp()\l+ tearDown()\l+ run()\l+ body()\l# getRosNodeName()\l}">
<polygon fill="#ffffff" stroke="#000000" points="23.5,-160.5 23.5,-283.5 146.5,-283.5 146.5,-160.5 23.5,-160.5"/>
<text text-anchor="middle" x="85" y="-271.5" font-family="Helvetica,sans-Serif" font-size="10.00" fill="#000000">arch::ROSComponent</text>
<polyline fill="none" stroke="#000000" points="23.5,-264.5 146.5,-264.5 "/>
<text text-anchor="middle" x="85" y="-252.5" font-family="Helvetica,sans-Serif" font-size="10.00" fill="#000000"> </text>
<polyline fill="none" stroke="#000000" points="23.5,-245.5 146.5,-245.5 "/>
<text text-anchor="start" x="31.5" y="-233.5" font-family="Helvetica,sans-Serif" font-size="10.00" fill="#000000">+ ROSComponent()</text>
<text text-anchor="start" x="31.5" y="-222.5" font-family="Helvetica,sans-Serif" font-size="10.00" fill="#000000">+ ~ROSComponent()</text>
<text text-anchor="start" x="31.5" y="-211.5" font-family="Helvetica,sans-Serif" font-size="10.00" fill="#000000">+ setUp()</text>
<text text-anchor="start" x="31.5" y="-200.5" font-family="Helvetica,sans-Serif" font-size="10.00" fill="#000000">+ tearDown()</text>
<text text-anchor="start" x="31.5" y="-189.5" font-family="Helvetica,sans-Serif" font-size="10.00" fill="#000000">+ run()</text>
<text text-anchor="start" x="31.5" y="-178.5" font-family="Helvetica,sans-Serif" font-size="10.00" fill="#000000">+ body()</text>
<text text-anchor="start" x="31.5" y="-167.5" font-family="Helvetica,sans-Serif" font-size="10.00" fill="#000000"># getRosNodeName()</text>
</a>
</g>
</g>
<!-- Node4&#45;&gt;Node3 -->
<g id="edge1" class="edge">
<title>Node4&#45;&gt;Node3</title>
<path fill="none" stroke="#191970" d="M122.4926,-151.4883C129.3797,-138.5358 136.4843,-125.1744 143.1113,-112.7111"/>
<polygon fill="none" stroke="#191970" points="119.3725,-149.9013 117.768,-160.3739 125.5531,-153.1877 119.3725,-149.9013"/>
</g>
<!-- Node5 -->
<g id="node3" class="node">
<title>Node5</title>
<g id="a_node3"><a xlink:href="classarch_1_1ROSComponentDescriptor.html" target="_top" xlink:title="{arch::ROSComponentDescriptor\n||+ ROSComponentDescriptor()\l+ ~ROSComponentDescriptor()\l+ setName()\l+ getName()\l+ setFreq()\l+ getFreq()\l}">
<polygon fill="#ffffff" stroke="#000000" points="0,-331.5 0,-443.5 170,-443.5 170,-331.5 0,-331.5"/>
<text text-anchor="middle" x="85" y="-431.5" font-family="Helvetica,sans-Serif" font-size="10.00" fill="#000000">arch::ROSComponentDescriptor</text>
<polyline fill="none" stroke="#000000" points="0,-424.5 170,-424.5 "/>
<text text-anchor="middle" x="85" y="-412.5" font-family="Helvetica,sans-Serif" font-size="10.00" fill="#000000"> </text>
<polyline fill="none" stroke="#000000" points="0,-405.5 170,-405.5 "/>
<text text-anchor="start" x="8" y="-393.5" font-family="Helvetica,sans-Serif" font-size="10.00" fill="#000000">+ ROSComponentDescriptor()</text>
<text text-anchor="start" x="8" y="-382.5" font-family="Helvetica,sans-Serif" font-size="10.00" fill="#000000">+ ~ROSComponentDescriptor()</text>
<text text-anchor="start" x="8" y="-371.5" font-family="Helvetica,sans-Serif" font-size="10.00" fill="#000000">+ setName()</text>
<text text-anchor="start" x="8" y="-360.5" font-family="Helvetica,sans-Serif" font-size="10.00" fill="#000000">+ getName()</text>
<text text-anchor="start" x="8" y="-349.5" font-family="Helvetica,sans-Serif" font-size="10.00" fill="#000000">+ setFreq()</text>
<text text-anchor="start" x="8" y="-338.5" font-family="Helvetica,sans-Serif" font-size="10.00" fill="#000000">+ getFreq()</text>
</a>
</g>
</g>
<!-- Node5&#45;&gt;Node4 -->
<g id="edge2" class="edge">
<title>Node5&#45;&gt;Node4</title>
<path fill="none" stroke="#404040" d="M85,-331.4692C85,-320.0551 85,-307.8811 85,-295.9537"/>
<polygon fill="none" stroke="#404040" points="85.0001,-295.6555 81,-289.6555 85,-283.6555 89,-289.6555 85.0001,-295.6555"/>
<text text-anchor="middle" x="151.5" y="-305" font-family="Helvetica,sans-Serif" font-size="10.00" fill="#000000"> #rosComponentDescriptor</text>
</g>
<!-- Node6 -->
<g id="node4" class="node">
<title>Node6</title>
<polygon fill="#ffffff" stroke="#bfbfbf" points="164.5,-193.5 164.5,-250.5 241.5,-250.5 241.5,-193.5 164.5,-193.5"/>
<text text-anchor="middle" x="203" y="-238.5" font-family="Helvetica,sans-Serif" font-size="10.00" fill="#000000">NodeHandle</text>
<polyline fill="none" stroke="#bfbfbf" points="164.5,-231.5 241.5,-231.5 "/>
<text text-anchor="middle" x="203" y="-219.5" font-family="Helvetica,sans-Serif" font-size="10.00" fill="#000000"> </text>
<polyline fill="none" stroke="#bfbfbf" points="164.5,-212.5 241.5,-212.5 "/>
<text text-anchor="middle" x="203" y="-200.5" font-family="Helvetica,sans-Serif" font-size="10.00" fill="#000000"> </text>
</g>
<!-- Node6&#45;&gt;Node3 -->
<g id="edge3" class="edge">
<title>Node6&#45;&gt;Node3</title>
<path fill="none" stroke="#404040" d="M197.7744,-193.1721C194.3421,-174.2371 189.7004,-148.6304 185.3625,-124.6999"/>
<polygon fill="none" stroke="#404040" points="185.3376,-124.562 180.3315,-119.3717 183.1972,-112.7545 188.2033,-117.9448 185.3376,-124.562"/>
<text text-anchor="middle" x="210.5" y="-134" font-family="Helvetica,sans-Serif" font-size="10.00" fill="#000000"> #handle</text>
</g>
</g>
</svg>
