<?xml version="1.0" encoding="UTF-8" standalone="no"?>
<!DOCTYPE svg PUBLIC "-//W3C//DTD SVG 1.1//EN"
 "http://www.w3.org/Graphics/SVG/1.1/DTD/svg11.dtd">
<!-- Generated by graphviz version 2.40.1 (20161225.0304)
 -->
<!-- Title: messages.msg._CommandControl.CommandControl Pages: 1 -->
<svg width="195pt" height="237pt"
 viewBox="0.00 0.00 195.00 237.00" xmlns="http://www.w3.org/2000/svg" xmlns:xlink="http://www.w3.org/1999/xlink">
<g id="graph0" class="graph" transform="scale(1 1) rotate(0) translate(4 233)">
<title>messages.msg._CommandControl.CommandControl</title>
<polygon fill="#ffffff" stroke="transparent" points="-4,4 -4,-233 191,-233 191,4 -4,4"/>
<!-- Node0 -->
<g id="node1" class="node">
<title>Node0</title>
<polygon fill="#bfbfbf" stroke="#000000" points="0,-.5 0,-134.5 187,-134.5 187,-.5 0,-.5"/>
<text text-anchor="start" x="8" y="-122.5" font-family="Helvetica,sans-Serif" font-size="10.00" fill="#000000">messages.msg._CommandControl.</text>
<text text-anchor="middle" x="93.5" y="-111.5" font-family="Helvetica,sans-Serif" font-size="10.00" fill="#000000">CommandControl</text>
<polyline fill="none" stroke="#000000" points="0,-104.5 187,-104.5 "/>
<text text-anchor="start" x="8" y="-92.5" font-family="Helvetica,sans-Serif" font-size="10.00" fill="#000000">+ Header</text>
<text text-anchor="start" x="8" y="-81.5" font-family="Helvetica,sans-Serif" font-size="10.00" fill="#000000">+ active</text>
<text text-anchor="start" x="8" y="-70.5" font-family="Helvetica,sans-Serif" font-size="10.00" fill="#000000">+ frequency</text>
<polyline fill="none" stroke="#000000" points="0,-63.5 187,-63.5 "/>
<text text-anchor="start" x="8" y="-51.5" font-family="Helvetica,sans-Serif" font-size="10.00" fill="#000000">+ __init__()</text>
<text text-anchor="start" x="8" y="-40.5" font-family="Helvetica,sans-Serif" font-size="10.00" fill="#000000">+ serialize()</text>
<text text-anchor="start" x="8" y="-29.5" font-family="Helvetica,sans-Serif" font-size="10.00" fill="#000000">+ deserialize()</text>
<text text-anchor="start" x="8" y="-18.5" font-family="Helvetica,sans-Serif" font-size="10.00" fill="#000000">+ serialize_numpy()</text>
<text text-anchor="start" x="8" y="-7.5" font-family="Helvetica,sans-Serif" font-size="10.00" fill="#000000">+ deserialize_numpy()</text>
</g>
<!-- Node1 -->
<g id="node2" class="node">
<title>Node1</title>
<polygon fill="#ffffff" stroke="#bfbfbf" points="64,-171.5 64,-228.5 123,-228.5 123,-171.5 64,-171.5"/>
<text text-anchor="middle" x="93.5" y="-216.5" font-family="Helvetica,sans-Serif" font-size="10.00" fill="#000000">Message</text>
<polyline fill="none" stroke="#bfbfbf" points="64,-209.5 123,-209.5 "/>
<text text-anchor="middle" x="93.5" y="-197.5" font-family="Helvetica,sans-Serif" font-size="10.00" fill="#000000"> </text>
<polyline fill="none" stroke="#bfbfbf" points="64,-190.5 123,-190.5 "/>
<text text-anchor="middle" x="93.5" y="-178.5" font-family="Helvetica,sans-Serif" font-size="10.00" fill="#000000"> </text>
</g>
<!-- Node1&#45;&gt;Node0 -->
<g id="edge1" class="edge">
<title>Node1&#45;&gt;Node0</title>
<path fill="none" stroke="#191970" d="M93.5,-161.0752C93.5,-152.7041 93.5,-143.6273 93.5,-134.5309"/>
<polygon fill="none" stroke="#191970" points="90.0001,-161.2494 93.5,-171.2495 97.0001,-161.2495 90.0001,-161.2494"/>
</g>
</g>
</svg>
