<?xml version="1.0" encoding="UTF-8" standalone="no"?>
<!DOCTYPE svg PUBLIC "-//W3C//DTD SVG 1.1//EN"
 "http://www.w3.org/Graphics/SVG/1.1/DTD/svg11.dtd">
<!-- Generated by graphviz version 2.40.1 (20161225.0304)
 -->
<!-- Title: archlib.msg._Status.Status Pages: 1 -->
<svg width="154pt" height="237pt"
 viewBox="0.00 0.00 154.00 237.00" xmlns="http://www.w3.org/2000/svg" xmlns:xlink="http://www.w3.org/1999/xlink">
<g id="graph0" class="graph" transform="scale(1 1) rotate(0) translate(4 233)">
<title>archlib.msg._Status.Status</title>
<polygon fill="#ffffff" stroke="transparent" points="-4,4 -4,-233 150,-233 150,4 -4,4"/>
<!-- Node2 -->
<g id="node1" class="node">
<title>Node2</title>
<polygon fill="#bfbfbf" stroke="#000000" points="0,-.5 0,-134.5 146,-134.5 146,-.5 0,-.5"/>
<text text-anchor="middle" x="73" y="-122.5" font-family="Helvetica,sans-Serif" font-size="10.00" fill="#000000">archlib.msg._Status.Status</text>
<polyline fill="none" stroke="#000000" points="0,-115.5 146,-115.5 "/>
<text text-anchor="start" x="8" y="-103.5" font-family="Helvetica,sans-Serif" font-size="10.00" fill="#000000">+ Header</text>
<text text-anchor="start" x="8" y="-92.5" font-family="Helvetica,sans-Serif" font-size="10.00" fill="#000000">+ source</text>
<text text-anchor="start" x="8" y="-81.5" font-family="Helvetica,sans-Serif" font-size="10.00" fill="#000000">+ target</text>
<text text-anchor="start" x="8" y="-70.5" font-family="Helvetica,sans-Serif" font-size="10.00" fill="#000000">+ content</text>
<polyline fill="none" stroke="#000000" points="0,-63.5 146,-63.5 "/>
<text text-anchor="start" x="8" y="-51.5" font-family="Helvetica,sans-Serif" font-size="10.00" fill="#000000">+ __init__()</text>
<text text-anchor="start" x="8" y="-40.5" font-family="Helvetica,sans-Serif" font-size="10.00" fill="#000000">+ serialize()</text>
<text text-anchor="start" x="8" y="-29.5" font-family="Helvetica,sans-Serif" font-size="10.00" fill="#000000">+ deserialize()</text>
<text text-anchor="start" x="8" y="-18.5" font-family="Helvetica,sans-Serif" font-size="10.00" fill="#000000">+ serialize_numpy()</text>
<text text-anchor="start" x="8" y="-7.5" font-family="Helvetica,sans-Serif" font-size="10.00" fill="#000000">+ deserialize_numpy()</text>
</g>
<!-- Node3 -->
<g id="node2" class="node">
<title>Node3</title>
<polygon fill="#ffffff" stroke="#bfbfbf" points="43.5,-171.5 43.5,-228.5 102.5,-228.5 102.5,-171.5 43.5,-171.5"/>
<text text-anchor="middle" x="73" y="-216.5" font-family="Helvetica,sans-Serif" font-size="10.00" fill="#000000">Message</text>
<polyline fill="none" stroke="#bfbfbf" points="43.5,-209.5 102.5,-209.5 "/>
<text text-anchor="middle" x="73" y="-197.5" font-family="Helvetica,sans-Serif" font-size="10.00" fill="#000000"> </text>
<polyline fill="none" stroke="#bfbfbf" points="43.5,-190.5 102.5,-190.5 "/>
<text text-anchor="middle" x="73" y="-178.5" font-family="Helvetica,sans-Serif" font-size="10.00" fill="#000000"> </text>
</g>
<!-- Node3&#45;&gt;Node2 -->
<g id="edge1" class="edge">
<title>Node3&#45;&gt;Node2</title>
<path fill="none" stroke="#191970" d="M73,-161.0752C73,-152.7041 73,-143.6273 73,-134.5309"/>
<polygon fill="none" stroke="#191970" points="69.5001,-161.2494 73,-171.2495 76.5001,-161.2495 69.5001,-161.2494"/>
</g>
</g>
</svg>
