<?xml version="1.0" encoding="UTF-8" standalone="no"?>
<!DOCTYPE svg PUBLIC "-//W3C//DTD SVG 1.1//EN"
 "http://www.w3.org/Graphics/SVG/1.1/DTD/svg11.dtd">
<!-- Generated by graphviz version 2.40.1 (20161225.0304)
 -->
<!-- Title: bsn::configuration::SensorConfiguration::isHighRisk Pages: 1 -->
<svg width="263pt" height="218pt"
 viewBox="0.00 0.00 263.00 218.00" xmlns="http://www.w3.org/2000/svg" xmlns:xlink="http://www.w3.org/1999/xlink">
<g id="graph0" class="graph" transform="scale(1 1) rotate(0) translate(4 214)">
<title>bsn::configuration::SensorConfiguration::isHighRisk</title>
<polygon fill="#ffffff" stroke="transparent" points="-4,4 -4,-214 259,-214 259,4 -4,4"/>
<!-- Node83 -->
<g id="node1" class="node">
<title>Node83</title>
<polygon fill="#bfbfbf" stroke="#000000" points="0,-84.5 0,-125.5 121,-125.5 121,-84.5 0,-84.5"/>
<text text-anchor="start" x="8" y="-113.5" font-family="Helvetica,sans-Serif" font-size="10.00" fill="#000000">bsn::configuration</text>
<text text-anchor="start" x="8" y="-102.5" font-family="Helvetica,sans-Serif" font-size="10.00" fill="#000000">::SensorConfiguration</text>
<text text-anchor="middle" x="60.5" y="-91.5" font-family="Helvetica,sans-Serif" font-size="10.00" fill="#000000">::isHighRisk</text>
</g>
<!-- Node84 -->
<g id="node2" class="node">
<title>Node84</title>
<g id="a_node2"><a xlink:href="classG3T1__1.html#a58277c46b8319bd35e3ffabd52805874" target="_top" xlink:title="G3T1_1::transfer">
<polygon fill="#ffffff" stroke="#000000" points="157,-190.5 157,-209.5 255,-209.5 255,-190.5 157,-190.5"/>
<text text-anchor="middle" x="206" y="-197.5" font-family="Helvetica,sans-Serif" font-size="10.00" fill="#000000">G3T1_1::transfer</text>
</a>
</g>
</g>
<!-- Node83&#45;&gt;Node84 -->
<g id="edge1" class="edge">
<title>Node83&#45;&gt;Node84</title>
<path fill="none" stroke="#191970" d="M90.8221,-132.7284C109.0368,-148.3702 133.2277,-167.4359 157,-181 163.2606,-184.5722 170.3235,-187.749 177.0974,-190.4344"/>
<polygon fill="#191970" stroke="#191970" points="92.7331,-129.7509 82.8966,-125.8147 88.1315,-135.0259 92.7331,-129.7509"/>
</g>
<!-- Node85 -->
<g id="node3" class="node">
<title>Node85</title>
<g id="a_node3"><a xlink:href="classG3T1__2.html#ac437972ecabb9e234c8717101d51eac8" target="_top" xlink:title="G3T1_2::transfer">
<polygon fill="#ffffff" stroke="#000000" points="157,-152.5 157,-171.5 255,-171.5 255,-152.5 157,-152.5"/>
<text text-anchor="middle" x="206" y="-159.5" font-family="Helvetica,sans-Serif" font-size="10.00" fill="#000000">G3T1_2::transfer</text>
</a>
</g>
</g>
<!-- Node83&#45;&gt;Node85 -->
<g id="edge2" class="edge">
<title>Node83&#45;&gt;Node85</title>
<path fill="none" stroke="#191970" d="M122.1598,-129.336C133.7319,-133.8876 145.7322,-138.5969 157,-143 164.9034,-146.0884 173.5312,-149.4404 181.314,-152.4568"/>
<polygon fill="#191970" stroke="#191970" points="123.1524,-125.9654 112.5653,-125.56 120.5888,-132.4791 123.1524,-125.9654"/>
</g>
<!-- Node86 -->
<g id="node4" class="node">
<title>Node86</title>
<g id="a_node4"><a xlink:href="classG3T1__3.html#a4bd1c419743c7c128fd1c3cf4fa5e434" target="_top" xlink:title="G3T1_3::transfer">
<polygon fill="#ffffff" stroke="#000000" points="157,-114.5 157,-133.5 255,-133.5 255,-114.5 157,-114.5"/>
<text text-anchor="middle" x="206" y="-121.5" font-family="Helvetica,sans-Serif" font-size="10.00" fill="#000000">G3T1_3::transfer</text>
</a>
</g>
</g>
<!-- Node83&#45;&gt;Node86 -->
<g id="edge3" class="edge">
<title>Node83&#45;&gt;Node86</title>
<path fill="none" stroke="#191970" d="M131.4227,-114.2614C140.0309,-115.3855 148.6732,-116.514 156.8671,-117.584"/>
<polygon fill="#191970" stroke="#191970" points="131.7311,-110.772 121.362,-112.9476 130.8246,-117.7131 131.7311,-110.772"/>
</g>
<!-- Node87 -->
<g id="node5" class="node">
<title>Node87</title>
<g id="a_node5"><a xlink:href="classG3T1__4.html#a20ad5272beba24e4879fb29985b85f69" target="_top" xlink:title="G3T1_4::transfer">
<polygon fill="#ffffff" stroke="#000000" points="157,-76.5 157,-95.5 255,-95.5 255,-76.5 157,-76.5"/>
<text text-anchor="middle" x="206" y="-83.5" font-family="Helvetica,sans-Serif" font-size="10.00" fill="#000000">G3T1_4::transfer</text>
</a>
</g>
</g>
<!-- Node83&#45;&gt;Node87 -->
<g id="edge4" class="edge">
<title>Node83&#45;&gt;Node87</title>
<path fill="none" stroke="#191970" d="M131.4227,-95.7386C140.0309,-94.6145 148.6732,-93.486 156.8671,-92.416"/>
<polygon fill="#191970" stroke="#191970" points="130.8246,-92.2869 121.362,-97.0524 131.7311,-99.228 130.8246,-92.2869"/>
</g>
<!-- Node88 -->
<g id="node6" class="node">
<title>Node88</title>
<g id="a_node6"><a xlink:href="classG3T1__5.html#ae9918da7342a4fb88c6f633db43b9fe8" target="_top" xlink:title="G3T1_5::transfer">
<polygon fill="#ffffff" stroke="#000000" points="157,-38.5 157,-57.5 255,-57.5 255,-38.5 157,-38.5"/>
<text text-anchor="middle" x="206" y="-45.5" font-family="Helvetica,sans-Serif" font-size="10.00" fill="#000000">G3T1_5::transfer</text>
</a>
</g>
</g>
<!-- Node83&#45;&gt;Node88 -->
<g id="edge5" class="edge">
<title>Node83&#45;&gt;Node88</title>
<path fill="none" stroke="#191970" d="M122.1598,-80.664C133.7319,-76.1124 145.7322,-71.4031 157,-67 164.9034,-63.9116 173.5312,-60.5596 181.314,-57.5432"/>
<polygon fill="#191970" stroke="#191970" points="120.5888,-77.5209 112.5653,-84.44 123.1524,-84.0346 120.5888,-77.5209"/>
</g>
<!-- Node89 -->
<g id="node7" class="node">
<title>Node89</title>
<g id="a_node7"><a xlink:href="classG3T1__6.html#aaa3c643ee36464eca9e095d150926e22" target="_top" xlink:title="G3T1_6::transfer">
<polygon fill="#ffffff" stroke="#000000" points="157,-.5 157,-19.5 255,-19.5 255,-.5 157,-.5"/>
<text text-anchor="middle" x="206" y="-7.5" font-family="Helvetica,sans-Serif" font-size="10.00" fill="#000000">G3T1_6::transfer</text>
</a>
</g>
</g>
<!-- Node83&#45;&gt;Node89 -->
<g id="edge6" class="edge">
<title>Node83&#45;&gt;Node89</title>
<path fill="none" stroke="#191970" d="M90.8221,-77.2716C109.0368,-61.6298 133.2277,-42.5641 157,-29 163.2606,-25.4278 170.3235,-22.251 177.0974,-19.5656"/>
<polygon fill="#191970" stroke="#191970" points="88.1315,-74.9741 82.8966,-84.1853 92.7331,-80.2491 88.1315,-74.9741"/>
</g>
</g>
</svg>
