<?xml version="1.0" encoding="UTF-8" standalone="no"?>
<!DOCTYPE svg PUBLIC "-//W3C//DTD SVG 1.1//EN"
 "http://www.w3.org/Graphics/SVG/1.1/DTD/svg11.dtd">
<!-- Generated by graphviz version 2.40.1 (20161225.0304)
 -->
<!-- Title: Engine::initialize_priority Pages: 1 -->
<svg width="532pt" height="88pt"
 viewBox="0.00 0.00 532.00 88.00" xmlns="http://www.w3.org/2000/svg" xmlns:xlink="http://www.w3.org/1999/xlink">
<g id="graph0" class="graph" transform="scale(1 1) rotate(0) translate(4 84)">
<title>Engine::initialize_priority</title>
<polygon fill="#ffffff" stroke="transparent" points="-4,4 -4,-84 528,-84 528,4 -4,4"/>
<!-- Node51 -->
<g id="node1" class="node">
<title>Node51</title>
<polygon fill="#bfbfbf" stroke="#000000" points="0,-14 0,-44 98,-44 98,-14 0,-14"/>
<text text-anchor="start" x="8" y="-32" font-family="Helvetica,sans-Serif" font-size="10.00" fill="#000000">Engine::initialize</text>
<text text-anchor="middle" x="49" y="-21" font-family="Helvetica,sans-Serif" font-size="10.00" fill="#000000">_priority</text>
</g>
<!-- Node52 -->
<g id="node2" class="node">
<title>Node52</title>
<g id="a_node2"><a xlink:href="classEngine.html#a88afff420d0d1652ad974fd26df6de63" target="_top" xlink:title="Engine::setUp_formula">
<polygon fill="#ffffff" stroke="#000000" points="134,-19.5 134,-38.5 262,-38.5 262,-19.5 134,-19.5"/>
<text text-anchor="middle" x="198" y="-26.5" font-family="Helvetica,sans-Serif" font-size="10.00" fill="#000000">Engine::setUp_formula</text>
</a>
</g>
</g>
<!-- Node51&#45;&gt;Node52 -->
<g id="edge1" class="edge">
<title>Node51&#45;&gt;Node52</title>
<path fill="none" stroke="#191970" d="M108.3205,-29C116.752,-29 125.4543,-29 133.9704,-29"/>
<polygon fill="#191970" stroke="#191970" points="108.2011,-25.5001 98.2011,-29 108.2011,-32.5001 108.2011,-25.5001"/>
</g>
<!-- Node53 -->
<g id="node3" class="node">
<title>Node53</title>
<g id="a_node3"><a xlink:href="classEngine.html#ae0233e4936be42094d3dfd401633cccd" target="_top" xlink:title="Engine::setUp">
<polygon fill="#ffffff" stroke="#000000" points="298,-38.5 298,-57.5 382,-57.5 382,-38.5 298,-38.5"/>
<text text-anchor="middle" x="340" y="-45.5" font-family="Helvetica,sans-Serif" font-size="10.00" fill="#000000">Engine::setUp</text>
</a>
</g>
</g>
<!-- Node52&#45;&gt;Node53 -->
<g id="edge2" class="edge">
<title>Node52&#45;&gt;Node53</title>
<path fill="none" stroke="#191970" d="M272.5365,-38.9732C281.2107,-40.1338 289.8143,-41.285 297.8278,-42.3572"/>
<polygon fill="#191970" stroke="#191970" points="272.7283,-35.4677 262.3524,-37.6105 271.7999,-42.4059 272.7283,-35.4677"/>
</g>
<!-- Node56 -->
<g id="node6" class="node">
<title>Node56</title>
<g id="a_node6"><a xlink:href="classEngine.html#ae164dcb3bf318cb307ab7266974c2064" target="_top" xlink:title="Engine::body">
<polygon fill="#ffffff" stroke="#000000" points="300,-.5 300,-19.5 380,-19.5 380,-.5 300,-.5"/>
<text text-anchor="middle" x="340" y="-7.5" font-family="Helvetica,sans-Serif" font-size="10.00" fill="#000000">Engine::body</text>
</a>
</g>
</g>
<!-- Node52&#45;&gt;Node56 -->
<g id="edge5" class="edge">
<title>Node52&#45;&gt;Node56</title>
<path fill="none" stroke="#191970" d="M272.5572,-19.024C281.9602,-17.7659 291.2799,-16.5189 299.8542,-15.3716"/>
<polygon fill="#191970" stroke="#191970" points="271.7999,-15.5941 262.3524,-20.3895 272.7283,-22.5323 271.7999,-15.5941"/>
</g>
<!-- Node54 -->
<g id="node4" class="node">
<title>Node54</title>
<g id="a_node4"><a xlink:href="classCostEngine.html#abf2d8b5da61c0c372c6d632d9a55e832" target="_top" xlink:title="CostEngine::setUp">
<polygon fill="#ffffff" stroke="#000000" points="418,-60.5 418,-79.5 524,-79.5 524,-60.5 418,-60.5"/>
<text text-anchor="middle" x="471" y="-67.5" font-family="Helvetica,sans-Serif" font-size="10.00" fill="#000000">CostEngine::setUp</text>
</a>
</g>
</g>
<!-- Node53&#45;&gt;Node54 -->
<g id="edge3" class="edge">
<title>Node53&#45;&gt;Node54</title>
<path fill="none" stroke="#191970" d="M392.2601,-56.7765C400.6884,-58.192 409.4221,-59.6587 417.8707,-61.0775"/>
<polygon fill="#191970" stroke="#191970" points="392.6119,-53.2866 382.1703,-55.082 391.4525,-60.19 392.6119,-53.2866"/>
</g>
<!-- Node55 -->
<g id="node5" class="node">
<title>Node55</title>
<g id="a_node5"><a xlink:href="classReliabilityEngine.html#ad5323671d1e8645df2e0f7d9772bf806" target="_top" xlink:title="ReliabilityEngine::\lsetUp">
<polygon fill="#ffffff" stroke="#000000" points="419,-11 419,-41 523,-41 523,-11 419,-11"/>
<text text-anchor="start" x="427" y="-29" font-family="Helvetica,sans-Serif" font-size="10.00" fill="#000000">ReliabilityEngine::</text>
<text text-anchor="middle" x="471" y="-18" font-family="Helvetica,sans-Serif" font-size="10.00" fill="#000000">setUp</text>
</a>
</g>
</g>
<!-- Node53&#45;&gt;Node55 -->
<g id="edge4" class="edge">
<title>Node53&#45;&gt;Node55</title>
<path fill="none" stroke="#191970" d="M392.2454,-39.226C400.9903,-37.7574 410.0642,-36.2335 418.8077,-34.7651"/>
<polygon fill="#191970" stroke="#191970" points="391.4525,-35.81 382.1703,-40.918 392.6119,-42.7134 391.4525,-35.81"/>
</g>
</g>
</svg>
