<?xml version="1.0" encoding="UTF-8" standalone="no"?>
<!DOCTYPE svg PUBLIC "-//W3C//DTD SVG 1.1//EN"
 "http://www.w3.org/Graphics/SVG/1.1/DTD/svg11.dtd">
<!-- Generated by graphviz version 2.40.1 (20161225.0304)
 -->
<!-- Title: G3T1_6 Pages: 1 -->
<svg width="769pt" height="1004pt"
 viewBox="0.00 0.00 769.00 1004.00" xmlns="http://www.w3.org/2000/svg" xmlns:xlink="http://www.w3.org/1999/xlink">
<g id="graph0" class="graph" transform="scale(1 1) rotate(0) translate(4 1000)">
<title>G3T1_6</title>
<polygon fill="#ffffff" stroke="transparent" points="-4,4 -4,-1000 765,-1000 765,4 -4,4"/>
<!-- Node4 -->
<g id="node1" class="node">
<title>Node4</title>
<polygon fill="#bfbfbf" stroke="#000000" points="395.5,-.5 395.5,-123.5 478.5,-123.5 478.5,-.5 395.5,-.5"/>
<text text-anchor="middle" x="437" y="-111.5" font-family="Helvetica,sans-Serif" font-size="10.00" fill="#000000">G3T1_6</text>
<polyline fill="none" stroke="#000000" points="395.5,-104.5 478.5,-104.5 "/>
<text text-anchor="middle" x="437" y="-92.5" font-family="Helvetica,sans-Serif" font-size="10.00" fill="#000000"> </text>
<polyline fill="none" stroke="#000000" points="395.5,-85.5 478.5,-85.5 "/>
<text text-anchor="start" x="403.5" y="-73.5" font-family="Helvetica,sans-Serif" font-size="10.00" fill="#000000">+ G3T1_6()</text>
<text text-anchor="start" x="403.5" y="-62.5" font-family="Helvetica,sans-Serif" font-size="10.00" fill="#000000">+ ~G3T1_6()</text>
<text text-anchor="start" x="403.5" y="-51.5" font-family="Helvetica,sans-Serif" font-size="10.00" fill="#000000">+ setUp()</text>
<text text-anchor="start" x="403.5" y="-40.5" font-family="Helvetica,sans-Serif" font-size="10.00" fill="#000000">+ tearDown()</text>
<text text-anchor="start" x="403.5" y="-29.5" font-family="Helvetica,sans-Serif" font-size="10.00" fill="#000000">+ collect()</text>
<text text-anchor="start" x="403.5" y="-18.5" font-family="Helvetica,sans-Serif" font-size="10.00" fill="#000000">+ process()</text>
<text text-anchor="start" x="403.5" y="-7.5" font-family="Helvetica,sans-Serif" font-size="10.00" fill="#000000">+ transfer()</text>
</g>
<!-- Node5 -->
<g id="node2" class="node">
<title>Node5</title>
<g id="a_node2"><a xlink:href="classSensor.html" target="_top" xlink:title="{Sensor\n||+ Sensor()\l+ ~Sensor()\l+ setUp()\l+ tearDown()\l+ run()\l+ body()\l+ apply_noise()\l+ reconfigure()\l+ injectUncertainty()\l+ collect()\l+ process()\l+ transfer()\l# isActive()\l# turnOn()\l# turnOff()\l# recharge()\l}">
<polygon fill="#ffffff" stroke="#000000" points="377.5,-161.5 377.5,-383.5 496.5,-383.5 496.5,-161.5 377.5,-161.5"/>
<text text-anchor="middle" x="437" y="-371.5" font-family="Helvetica,sans-Serif" font-size="10.00" fill="#000000">Sensor</text>
<polyline fill="none" stroke="#000000" points="377.5,-364.5 496.5,-364.5 "/>
<text text-anchor="middle" x="437" y="-352.5" font-family="Helvetica,sans-Serif" font-size="10.00" fill="#000000"> </text>
<polyline fill="none" stroke="#000000" points="377.5,-345.5 496.5,-345.5 "/>
<text text-anchor="start" x="385.5" y="-333.5" font-family="Helvetica,sans-Serif" font-size="10.00" fill="#000000">+ Sensor()</text>
<text text-anchor="start" x="385.5" y="-322.5" font-family="Helvetica,sans-Serif" font-size="10.00" fill="#000000">+ ~Sensor()</text>
<text text-anchor="start" x="385.5" y="-311.5" font-family="Helvetica,sans-Serif" font-size="10.00" fill="#000000">+ setUp()</text>
<text text-anchor="start" x="385.5" y="-300.5" font-family="Helvetica,sans-Serif" font-size="10.00" fill="#000000">+ tearDown()</text>
<text text-anchor="start" x="385.5" y="-289.5" font-family="Helvetica,sans-Serif" font-size="10.00" fill="#000000">+ run()</text>
<text text-anchor="start" x="385.5" y="-278.5" font-family="Helvetica,sans-Serif" font-size="10.00" fill="#000000">+ body()</text>
<text text-anchor="start" x="385.5" y="-267.5" font-family="Helvetica,sans-Serif" font-size="10.00" fill="#000000">+ apply_noise()</text>
<text text-anchor="start" x="385.5" y="-256.5" font-family="Helvetica,sans-Serif" font-size="10.00" fill="#000000">+ reconfigure()</text>
<text text-anchor="start" x="385.5" y="-245.5" font-family="Helvetica,sans-Serif" font-size="10.00" fill="#000000">+ injectUncertainty()</text>
<text text-anchor="start" x="385.5" y="-234.5" font-family="Helvetica,sans-Serif" font-size="10.00" fill="#000000">+ collect()</text>
<text text-anchor="start" x="385.5" y="-223.5" font-family="Helvetica,sans-Serif" font-size="10.00" fill="#000000">+ process()</text>
<text text-anchor="start" x="385.5" y="-212.5" font-family="Helvetica,sans-Serif" font-size="10.00" fill="#000000">+ transfer()</text>
<text text-anchor="start" x="385.5" y="-201.5" font-family="Helvetica,sans-Serif" font-size="10.00" fill="#000000"># isActive()</text>
<text text-anchor="start" x="385.5" y="-190.5" font-family="Helvetica,sans-Serif" font-size="10.00" fill="#000000"># turnOn()</text>
<text text-anchor="start" x="385.5" y="-179.5" font-family="Helvetica,sans-Serif" font-size="10.00" fill="#000000"># turnOff()</text>
<text text-anchor="start" x="385.5" y="-168.5" font-family="Helvetica,sans-Serif" font-size="10.00" fill="#000000"># recharge()</text>
</a>
</g>
</g>
<!-- Node5&#45;&gt;Node4 -->
<g id="edge1" class="edge">
<title>Node5&#45;&gt;Node4</title>
<path fill="none" stroke="#191970" d="M437,-151.1167C437,-141.6957 437,-132.4513 437,-123.6953"/>
<polygon fill="none" stroke="#191970" points="433.5001,-151.394 437,-161.394 440.5001,-151.3941 433.5001,-151.394"/>
</g>
<!-- Node6 -->
<g id="node3" class="node">
<title>Node6</title>
<g id="a_node3"><a xlink:href="classarch_1_1target__system_1_1Component.html" target="_top" xlink:title="{arch::target_system\l::Component\n||+ Component()\l+ ~Component()\l+ setUp()\l+ tearDown()\l+ run()\l+ body()\l+ sendEvent()\l+ sendStatus()\l+ sendEnergyStatus()\l+ reconfigure()\l# activate()\l# deactivate()\l# shutdownComponent()\l# sigIntHandler()\l}">
<polygon fill="#ffffff" stroke="#000000" points="103.5,-453.5 103.5,-664.5 242.5,-664.5 242.5,-453.5 103.5,-453.5"/>
<text text-anchor="start" x="111.5" y="-652.5" font-family="Helvetica,sans-Serif" font-size="10.00" fill="#000000">arch::target_system</text>
<text text-anchor="middle" x="173" y="-641.5" font-family="Helvetica,sans-Serif" font-size="10.00" fill="#000000">::Component</text>
<polyline fill="none" stroke="#000000" points="103.5,-634.5 242.5,-634.5 "/>
<text text-anchor="middle" x="173" y="-622.5" font-family="Helvetica,sans-Serif" font-size="10.00" fill="#000000"> </text>
<polyline fill="none" stroke="#000000" points="103.5,-615.5 242.5,-615.5 "/>
<text text-anchor="start" x="111.5" y="-603.5" font-family="Helvetica,sans-Serif" font-size="10.00" fill="#000000">+ Component()</text>
<text text-anchor="start" x="111.5" y="-592.5" font-family="Helvetica,sans-Serif" font-size="10.00" fill="#000000">+ ~Component()</text>
<text text-anchor="start" x="111.5" y="-581.5" font-family="Helvetica,sans-Serif" font-size="10.00" fill="#000000">+ setUp()</text>
<text text-anchor="start" x="111.5" y="-570.5" font-family="Helvetica,sans-Serif" font-size="10.00" fill="#000000">+ tearDown()</text>
<text text-anchor="start" x="111.5" y="-559.5" font-family="Helvetica,sans-Serif" font-size="10.00" fill="#000000">+ run()</text>
<text text-anchor="start" x="111.5" y="-548.5" font-family="Helvetica,sans-Serif" font-size="10.00" fill="#000000">+ body()</text>
<text text-anchor="start" x="111.5" y="-537.5" font-family="Helvetica,sans-Serif" font-size="10.00" fill="#000000">+ sendEvent()</text>
<text text-anchor="start" x="111.5" y="-526.5" font-family="Helvetica,sans-Serif" font-size="10.00" fill="#000000">+ sendStatus()</text>
<text text-anchor="start" x="111.5" y="-515.5" font-family="Helvetica,sans-Serif" font-size="10.00" fill="#000000">+ sendEnergyStatus()</text>
<text text-anchor="start" x="111.5" y="-504.5" font-family="Helvetica,sans-Serif" font-size="10.00" fill="#000000">+ reconfigure()</text>
<text text-anchor="start" x="111.5" y="-493.5" font-family="Helvetica,sans-Serif" font-size="10.00" fill="#000000"># activate()</text>
<text text-anchor="start" x="111.5" y="-482.5" font-family="Helvetica,sans-Serif" font-size="10.00" fill="#000000"># deactivate()</text>
<text text-anchor="start" x="111.5" y="-471.5" font-family="Helvetica,sans-Serif" font-size="10.00" fill="#000000"># shutdownComponent()</text>
<text text-anchor="start" x="111.5" y="-460.5" font-family="Helvetica,sans-Serif" font-size="10.00" fill="#000000"># sigIntHandler()</text>
</a>
</g>
</g>
<!-- Node6&#45;&gt;Node5 -->
<g id="edge2" class="edge">
<title>Node6&#45;&gt;Node5</title>
<path fill="none" stroke="#191970" d="M248.7224,-446.7822C260.6253,-431.2666 273.233,-415.9017 286,-402 313.7987,-371.7307 348.3813,-341.6201 377.4342,-318.0612"/>
<polygon fill="none" stroke="#191970" points="245.8181,-444.8196 242.565,-454.9026 251.396,-449.049 245.8181,-444.8196"/>
</g>
<!-- Node7 -->
<g id="node4" class="node">
<title>Node7</title>
<g id="a_node4"><a xlink:href="classarch_1_1ROSComponent.html" target="_top" xlink:title="{arch::ROSComponent\n||+ ROSComponent()\l+ ~ROSComponent()\l+ setUp()\l+ tearDown()\l+ run()\l+ body()\l# getRosNodeName()\l}">
<polygon fill="#ffffff" stroke="#000000" points="23.5,-712.5 23.5,-835.5 146.5,-835.5 146.5,-712.5 23.5,-712.5"/>
<text text-anchor="middle" x="85" y="-823.5" font-family="Helvetica,sans-Serif" font-size="10.00" fill="#000000">arch::ROSComponent</text>
<polyline fill="none" stroke="#000000" points="23.5,-816.5 146.5,-816.5 "/>
<text text-anchor="middle" x="85" y="-804.5" font-family="Helvetica,sans-Serif" font-size="10.00" fill="#000000"> </text>
<polyline fill="none" stroke="#000000" points="23.5,-797.5 146.5,-797.5 "/>
<text text-anchor="start" x="31.5" y="-785.5" font-family="Helvetica,sans-Serif" font-size="10.00" fill="#000000">+ ROSComponent()</text>
<text text-anchor="start" x="31.5" y="-774.5" font-family="Helvetica,sans-Serif" font-size="10.00" fill="#000000">+ ~ROSComponent()</text>
<text text-anchor="start" x="31.5" y="-763.5" font-family="Helvetica,sans-Serif" font-size="10.00" fill="#000000">+ setUp()</text>
<text text-anchor="start" x="31.5" y="-752.5" font-family="Helvetica,sans-Serif" font-size="10.00" fill="#000000">+ tearDown()</text>
<text text-anchor="start" x="31.5" y="-741.5" font-family="Helvetica,sans-Serif" font-size="10.00" fill="#000000">+ run()</text>
<text text-anchor="start" x="31.5" y="-730.5" font-family="Helvetica,sans-Serif" font-size="10.00" fill="#000000">+ body()</text>
<text text-anchor="start" x="31.5" y="-719.5" font-family="Helvetica,sans-Serif" font-size="10.00" fill="#000000"># getRosNodeName()</text>
</a>
</g>
</g>
<!-- Node7&#45;&gt;Node6 -->
<g id="edge3" class="edge">
<title>Node7&#45;&gt;Node6</title>
<path fill="none" stroke="#191970" d="M114.1473,-702.7878C119.1319,-690.6096 124.4046,-677.7274 129.6647,-664.8761"/>
<polygon fill="none" stroke="#191970" points="110.7662,-701.809 110.2173,-712.3896 117.2445,-704.4607 110.7662,-701.809"/>
</g>
<!-- Node8 -->
<g id="node5" class="node">
<title>Node8</title>
<g id="a_node5"><a xlink:href="classarch_1_1ROSComponentDescriptor.html" target="_top" xlink:title="{arch::ROSComponentDescriptor\n||+ ROSComponentDescriptor()\l+ ~ROSComponentDescriptor()\l+ setName()\l+ getName()\l+ setFreq()\l+ getFreq()\l}">
<polygon fill="#ffffff" stroke="#000000" points="0,-883.5 0,-995.5 170,-995.5 170,-883.5 0,-883.5"/>
<text text-anchor="middle" x="85" y="-983.5" font-family="Helvetica,sans-Serif" font-size="10.00" fill="#000000">arch::ROSComponentDescriptor</text>
<polyline fill="none" stroke="#000000" points="0,-976.5 170,-976.5 "/>
<text text-anchor="middle" x="85" y="-964.5" font-family="Helvetica,sans-Serif" font-size="10.00" fill="#000000"> </text>
<polyline fill="none" stroke="#000000" points="0,-957.5 170,-957.5 "/>
<text text-anchor="start" x="8" y="-945.5" font-family="Helvetica,sans-Serif" font-size="10.00" fill="#000000">+ ROSComponentDescriptor()</text>
<text text-anchor="start" x="8" y="-934.5" font-family="Helvetica,sans-Serif" font-size="10.00" fill="#000000">+ ~ROSComponentDescriptor()</text>
<text text-anchor="start" x="8" y="-923.5" font-family="Helvetica,sans-Serif" font-size="10.00" fill="#000000">+ setName()</text>
<text text-anchor="start" x="8" y="-912.5" font-family="Helvetica,sans-Serif" font-size="10.00" fill="#000000">+ getName()</text>
<text text-anchor="start" x="8" y="-901.5" font-family="Helvetica,sans-Serif" font-size="10.00" fill="#000000">+ setFreq()</text>
<text text-anchor="start" x="8" y="-890.5" font-family="Helvetica,sans-Serif" font-size="10.00" fill="#000000">+ getFreq()</text>
</a>
</g>
</g>
<!-- Node8&#45;&gt;Node7 -->
<g id="edge4" class="edge">
<title>Node8&#45;&gt;Node7</title>
<path fill="none" stroke="#404040" d="M85,-883.4692C85,-872.0551 85,-859.8811 85,-847.9537"/>
<polygon fill="none" stroke="#404040" points="85.0001,-847.6555 81,-841.6555 85,-835.6555 89,-841.6555 85.0001,-847.6555"/>
<text text-anchor="middle" x="151.5" y="-857" font-family="Helvetica,sans-Serif" font-size="10.00" fill="#000000"> #rosComponentDescriptor</text>
</g>
<!-- Node9 -->
<g id="node6" class="node">
<title>Node9</title>
<polygon fill="#ffffff" stroke="#bfbfbf" points="164.5,-745.5 164.5,-802.5 241.5,-802.5 241.5,-745.5 164.5,-745.5"/>
<text text-anchor="middle" x="203" y="-790.5" font-family="Helvetica,sans-Serif" font-size="10.00" fill="#000000">NodeHandle</text>
<polyline fill="none" stroke="#bfbfbf" points="164.5,-783.5 241.5,-783.5 "/>
<text text-anchor="middle" x="203" y="-771.5" font-family="Helvetica,sans-Serif" font-size="10.00" fill="#000000"> </text>
<polyline fill="none" stroke="#bfbfbf" points="164.5,-764.5 241.5,-764.5 "/>
<text text-anchor="middle" x="203" y="-752.5" font-family="Helvetica,sans-Serif" font-size="10.00" fill="#000000"> </text>
</g>
<!-- Node9&#45;&gt;Node6 -->
<g id="edge5" class="edge">
<title>Node9&#45;&gt;Node6</title>
<path fill="none" stroke="#404040" d="M199.0162,-745.4497C196.4845,-727.3054 193.0196,-702.4736 189.4442,-676.8502"/>
<polygon fill="none" stroke="#404040" points="189.3989,-676.5248 184.6081,-671.1352 187.7405,-664.64 192.5313,-670.0296 189.3989,-676.5248"/>
<text text-anchor="middle" x="214.5" y="-686" font-family="Helvetica,sans-Serif" font-size="10.00" fill="#000000"> #handle</text>
</g>
<!-- Node10 -->
<g id="node7" class="node">
<title>Node10</title>
<polygon fill="#ffffff" stroke="#bfbfbf" points="261,-530.5 261,-587.5 311,-587.5 311,-530.5 261,-530.5"/>
<text text-anchor="middle" x="286" y="-575.5" font-family="Helvetica,sans-Serif" font-size="10.00" fill="#000000">double</text>
<polyline fill="none" stroke="#bfbfbf" points="261,-568.5 311,-568.5 "/>
<text text-anchor="middle" x="286" y="-556.5" font-family="Helvetica,sans-Serif" font-size="10.00" fill="#000000"> </text>
<polyline fill="none" stroke="#bfbfbf" points="261,-549.5 311,-549.5 "/>
<text text-anchor="middle" x="286" y="-537.5" font-family="Helvetica,sans-Serif" font-size="10.00" fill="#000000"> </text>
</g>
<!-- Node10&#45;&gt;Node5 -->
<g id="edge6" class="edge">
<title>Node10&#45;&gt;Node5</title>
<path fill="none" stroke="#404040" d="M282.9483,-530.4715C280.7124,-497.7303 280.9452,-443.2462 301,-402 316.3,-370.5328 342.6732,-342.69 368.1466,-320.9629"/>
<polygon fill="none" stroke="#404040" points="368.228,-320.8954 370.2963,-313.9872 377.4686,-313.2394 375.4003,-320.1476 368.228,-320.8954"/>
<text text-anchor="middle" x="337" y="-427" font-family="Helvetica,sans-Serif" font-size="10.00" fill="#000000"> #noise_factor</text>
<text text-anchor="middle" x="337" y="-416" font-family="Helvetica,sans-Serif" font-size="10.00" fill="#000000">#data</text>
<text text-anchor="middle" x="337" y="-405" font-family="Helvetica,sans-Serif" font-size="10.00" fill="#000000">#cost</text>
</g>
<!-- Node11 -->
<g id="node8" class="node">
<title>Node11</title>
<polygon fill="#ffffff" stroke="#bfbfbf" points="366.5,-530.5 366.5,-587.5 395.5,-587.5 395.5,-530.5 366.5,-530.5"/>
<text text-anchor="middle" x="381" y="-575.5" font-family="Helvetica,sans-Serif" font-size="10.00" fill="#000000">int</text>
<polyline fill="none" stroke="#bfbfbf" points="366.5,-568.5 395.5,-568.5 "/>
<text text-anchor="middle" x="381" y="-556.5" font-family="Helvetica,sans-Serif" font-size="10.00" fill="#000000"> </text>
<polyline fill="none" stroke="#bfbfbf" points="366.5,-549.5 395.5,-549.5 "/>
<text text-anchor="middle" x="381" y="-537.5" font-family="Helvetica,sans-Serif" font-size="10.00" fill="#000000"> </text>
</g>
<!-- Node11&#45;&gt;Node5 -->
<g id="edge7" class="edge">
<title>Node11&#45;&gt;Node5</title>
<path fill="none" stroke="#404040" d="M377.8354,-530.2844C375.107,-498.5323 372.8887,-446.0423 382,-402 382.4535,-399.808 382.945,-397.6069 383.4712,-395.4003"/>
<polygon fill="none" stroke="#404040" points="383.5323,-395.1685 381.1975,-388.3458 386.5974,-383.5665 388.9322,-390.3891 383.5323,-395.1685"/>
<text text-anchor="middle" x="426.5" y="-421.5" font-family="Helvetica,sans-Serif" font-size="10.00" fill="#000000"> #buffer_size</text>
<text text-anchor="middle" x="426.5" y="-410.5" font-family="Helvetica,sans-Serif" font-size="10.00" fill="#000000">#replicate_collect</text>
</g>
<!-- Node12 -->
<g id="node9" class="node">
<title>Node12</title>
<polygon fill="#ffffff" stroke="#bfbfbf" points="474,-530.5 474,-587.5 512,-587.5 512,-530.5 474,-530.5"/>
<text text-anchor="middle" x="493" y="-575.5" font-family="Helvetica,sans-Serif" font-size="10.00" fill="#000000">bool</text>
<polyline fill="none" stroke="#bfbfbf" points="474,-568.5 512,-568.5 "/>
<text text-anchor="middle" x="493" y="-556.5" font-family="Helvetica,sans-Serif" font-size="10.00" fill="#000000"> </text>
<polyline fill="none" stroke="#bfbfbf" points="474,-549.5 512,-549.5 "/>
<text text-anchor="middle" x="493" y="-537.5" font-family="Helvetica,sans-Serif" font-size="10.00" fill="#000000"> </text>
</g>
<!-- Node12&#45;&gt;Node5 -->
<g id="edge8" class="edge">
<title>Node12&#45;&gt;Node5</title>
<path fill="none" stroke="#404040" d="M490.0228,-530.4678C486.4898,-498.8764 479.9326,-446.5262 471,-402 470.5646,-399.8296 470.1145,-397.6414 469.6515,-395.4398"/>
<polygon fill="none" stroke="#404040" points="469.6183,-395.2872 464.4316,-390.2774 467.0612,-383.5628 472.2479,-388.5727 469.6183,-395.2872"/>
<text text-anchor="middle" x="523" y="-427" font-family="Helvetica,sans-Serif" font-size="10.00" fill="#000000"> #instant_recharge</text>
<text text-anchor="middle" x="523" y="-416" font-family="Helvetica,sans-Serif" font-size="10.00" fill="#000000">#shouldStart</text>
<text text-anchor="middle" x="523" y="-405" font-family="Helvetica,sans-Serif" font-size="10.00" fill="#000000">#active</text>
</g>
<!-- Node13 -->
<g id="node10" class="node">
<title>Node13</title>
<g id="a_node10"><a xlink:title="STL class. ">
<polygon fill="#ffffff" stroke="#bfbfbf" points="553.5,-530.5 553.5,-587.5 618.5,-587.5 618.5,-530.5 553.5,-530.5"/>
<text text-anchor="middle" x="586" y="-575.5" font-family="Helvetica,sans-Serif" font-size="10.00" fill="#000000">std::string</text>
<polyline fill="none" stroke="#bfbfbf" points="553.5,-568.5 618.5,-568.5 "/>
<text text-anchor="middle" x="586" y="-556.5" font-family="Helvetica,sans-Serif" font-size="10.00" fill="#000000"> </text>
<polyline fill="none" stroke="#bfbfbf" points="553.5,-549.5 618.5,-549.5 "/>
<text text-anchor="middle" x="586" y="-537.5" font-family="Helvetica,sans-Serif" font-size="10.00" fill="#000000"> </text>
</a>
</g>
</g>
<!-- Node13&#45;&gt;Node5 -->
<g id="edge9" class="edge">
<title>Node13&#45;&gt;Node5</title>
<path fill="none" stroke="#404040" d="M589.7814,-530.2084C592.7678,-497.4639 593.6475,-443.2076 574,-402 558.7577,-370.0315 531.9228,-341.9508 506.0191,-320.1831"/>
<polygon fill="none" stroke="#404040" points="505.8406,-320.0375 498.6628,-319.3454 496.5409,-312.4535 503.7188,-313.1456 505.8406,-320.0375"/>
<text text-anchor="middle" x="602" y="-416" font-family="Helvetica,sans-Serif" font-size="10.00" fill="#000000"> #type</text>
</g>
<!-- Node14 -->
<g id="node11" class="node">
<title>Node14</title>
<g id="a_node11"><a xlink:title="STL class. ">
<polygon fill="#ffffff" stroke="#bfbfbf" points="534,-740 534,-808 638,-808 638,-740 534,-740"/>
<text text-anchor="start" x="542" y="-796" font-family="Helvetica,sans-Serif" font-size="10.00" fill="#000000">std::basic_string&lt;</text>
<text text-anchor="middle" x="586" y="-785" font-family="Helvetica,sans-Serif" font-size="10.00" fill="#000000"> char &gt;</text>
<polyline fill="none" stroke="#bfbfbf" points="534,-778 638,-778 "/>
<text text-anchor="middle" x="586" y="-766" font-family="Helvetica,sans-Serif" font-size="10.00" fill="#000000"> </text>
<polyline fill="none" stroke="#bfbfbf" points="534,-759 638,-759 "/>
<text text-anchor="middle" x="586" y="-747" font-family="Helvetica,sans-Serif" font-size="10.00" fill="#000000"> </text>
</a>
</g>
</g>
<!-- Node14&#45;&gt;Node13 -->
<g id="edge10" class="edge">
<title>Node14&#45;&gt;Node13</title>
<path fill="none" stroke="#191970" d="M586,-729.8542C586,-687.305 586,-624.1679 586,-587.7475"/>
<polygon fill="none" stroke="#191970" points="582.5001,-729.9326 586,-739.9326 589.5001,-729.9326 582.5001,-729.9326"/>
</g>
<!-- Node15 -->
<g id="node12" class="node">
<title>Node15</title>
<g id="a_node12"><a xlink:href="classbsn_1_1resource_1_1Battery.html" target="_top" xlink:title="{bsn::resource::Battery\n||+ Battery()\l+ Battery()\l+ ~Battery()\l+ Battery()\l+ operator=()\l+ consume()\l+ generate()\l+ setId()\l+ getId()\l+ setCapacity()\land 6 more...\l}">
<polygon fill="#ffffff" stroke="#000000" points="637,-475.5 637,-642.5 761,-642.5 761,-475.5 637,-475.5"/>
<text text-anchor="middle" x="699" y="-630.5" font-family="Helvetica,sans-Serif" font-size="10.00" fill="#000000">bsn::resource::Battery</text>
<polyline fill="none" stroke="#000000" points="637,-623.5 761,-623.5 "/>
<text text-anchor="middle" x="699" y="-611.5" font-family="Helvetica,sans-Serif" font-size="10.00" fill="#000000"> </text>
<polyline fill="none" stroke="#000000" points="637,-604.5 761,-604.5 "/>
<text text-anchor="start" x="645" y="-592.5" font-family="Helvetica,sans-Serif" font-size="10.00" fill="#000000">+ Battery()</text>
<text text-anchor="start" x="645" y="-581.5" font-family="Helvetica,sans-Serif" font-size="10.00" fill="#000000">+ Battery()</text>
<text text-anchor="start" x="645" y="-570.5" font-family="Helvetica,sans-Serif" font-size="10.00" fill="#000000">+ ~Battery()</text>
<text text-anchor="start" x="645" y="-559.5" font-family="Helvetica,sans-Serif" font-size="10.00" fill="#000000">+ Battery()</text>
<text text-anchor="start" x="645" y="-548.5" font-family="Helvetica,sans-Serif" font-size="10.00" fill="#000000">+ operator=()</text>
<text text-anchor="start" x="645" y="-537.5" font-family="Helvetica,sans-Serif" font-size="10.00" fill="#000000">+ consume()</text>
<text text-anchor="start" x="645" y="-526.5" font-family="Helvetica,sans-Serif" font-size="10.00" fill="#000000">+ generate()</text>
<text text-anchor="start" x="645" y="-515.5" font-family="Helvetica,sans-Serif" font-size="10.00" fill="#000000">+ setId()</text>
<text text-anchor="start" x="645" y="-504.5" font-family="Helvetica,sans-Serif" font-size="10.00" fill="#000000">+ getId()</text>
<text text-anchor="start" x="645" y="-493.5" font-family="Helvetica,sans-Serif" font-size="10.00" fill="#000000">+ setCapacity()</text>
<text text-anchor="start" x="645" y="-482.5" font-family="Helvetica,sans-Serif" font-size="10.00" fill="#000000">and 6 more...</text>
</a>
</g>
</g>
<!-- Node15&#45;&gt;Node5 -->
<g id="edge11" class="edge">
<title>Node15&#45;&gt;Node5</title>
<path fill="none" stroke="#404040" d="M668.044,-475.1542C656.3176,-449.994 641.2872,-423.4178 623,-402 590.7713,-364.254 545.1443,-332.2645 507.1474,-309.5229"/>
<polygon fill="none" stroke="#404040" points="506.9971,-309.4346 499.7977,-309.8447 496.6502,-303.3567 503.8496,-302.9467 506.9971,-309.4346"/>
<text text-anchor="middle" x="668.5" y="-416" font-family="Helvetica,sans-Serif" font-size="10.00" fill="#000000"> #battery</text>
</g>
</g>
</svg>
