<?xml version="1.0" encoding="UTF-8" standalone="no"?>
<!DOCTYPE svg PUBLIC "-//W3C//DTD SVG 1.1//EN"
 "http://www.w3.org/Graphics/SVG/1.1/DTD/svg11.dtd">
<!-- Generated by graphviz version 2.40.1 (20161225.0304)
 -->
<!-- Title: RangeTest::SetUp Pages: 1 -->
<svg width="256pt" height="88pt"
 viewBox="0.00 0.00 256.00 88.00" xmlns="http://www.w3.org/2000/svg" xmlns:xlink="http://www.w3.org/1999/xlink">
<g id="graph0" class="graph" transform="scale(1 1) rotate(0) translate(4 84)">
<title>RangeTest::SetUp</title>
<polygon fill="#ffffff" stroke="transparent" points="-4,4 -4,-84 252,-84 252,4 -4,4"/>
<!-- Node2 -->
<g id="node1" class="node">
<title>Node2</title>
<polygon fill="#bfbfbf" stroke="#000000" points="0,-30 0,-49 102,-49 102,-30 0,-30"/>
<text text-anchor="middle" x="51" y="-37" font-family="Helvetica,sans-Serif" font-size="10.00" fill="#000000">RangeTest::SetUp</text>
</g>
<!-- Node3 -->
<g id="node2" class="node">
<title>Node3</title>
<g id="a_node2"><a xlink:href="classbsn_1_1range_1_1Range.html#a8eda775bde2030785c9d495039f4b0f0" target="_top" xlink:title="bsn::range::Range::\lsetLowerBound">
<polygon fill="#ffffff" stroke="#000000" points="138,-49.5 138,-79.5 248,-79.5 248,-49.5 138,-49.5"/>
<text text-anchor="start" x="146" y="-67.5" font-family="Helvetica,sans-Serif" font-size="10.00" fill="#000000">bsn::range::Range::</text>
<text text-anchor="middle" x="193" y="-56.5" font-family="Helvetica,sans-Serif" font-size="10.00" fill="#000000">setLowerBound</text>
</a>
</g>
</g>
<!-- Node2&#45;&gt;Node3 -->
<g id="edge1" class="edge">
<title>Node2&#45;&gt;Node3</title>
<path fill="none" stroke="#191970" d="M102.2653,-48.5256C110.6017,-49.9933 119.3324,-51.5304 127.9456,-53.0468"/>
<polygon fill="#191970" stroke="#191970" points="127.5167,-56.525 137.9721,-54.812 128.7304,-49.631 127.5167,-56.525"/>
</g>
<!-- Node4 -->
<g id="node3" class="node">
<title>Node4</title>
<g id="a_node3"><a xlink:href="classbsn_1_1range_1_1Range.html#a1a39ab11d284a377b8015cac09bfd763" target="_top" xlink:title="bsn::range::Range::\lsetUpperBound">
<polygon fill="#ffffff" stroke="#000000" points="138,-.5 138,-30.5 248,-30.5 248,-.5 138,-.5"/>
<text text-anchor="start" x="146" y="-18.5" font-family="Helvetica,sans-Serif" font-size="10.00" fill="#000000">bsn::range::Range::</text>
<text text-anchor="middle" x="193" y="-7.5" font-family="Helvetica,sans-Serif" font-size="10.00" fill="#000000">setUpperBound</text>
</a>
</g>
</g>
<!-- Node2&#45;&gt;Node4 -->
<g id="edge2" class="edge">
<title>Node2&#45;&gt;Node4</title>
<path fill="none" stroke="#191970" d="M102.2653,-30.8354C110.6017,-29.4265 119.3324,-27.9509 127.9456,-26.4951"/>
<polygon fill="#191970" stroke="#191970" points="128.6952,-29.9181 137.9721,-24.8005 127.5286,-23.016 128.6952,-29.9181"/>
</g>
</g>
</svg>
