<?xml version="1.0" encoding="UTF-8" standalone="no"?>
<!DOCTYPE svg PUBLIC "-//W3C//DTD SVG 1.1//EN"
 "http://www.w3.org/Graphics/SVG/1.1/DTD/svg11.dtd">
<!-- Generated by graphviz version 2.40.1 (20161225.0304)
 -->
<!-- Title: PropertyTest Pages: 1 -->
<svg width="104pt" height="171pt"
 viewBox="0.00 0.00 104.00 171.00" xmlns="http://www.w3.org/2000/svg" xmlns:xlink="http://www.w3.org/1999/xlink">
<g id="graph0" class="graph" transform="scale(1 1) rotate(0) translate(4 167)">
<title>PropertyTest</title>
<polygon fill="#ffffff" stroke="transparent" points="-4,4 -4,-167 100,-167 100,4 -4,4"/>
<!-- Node0 -->
<g id="node1" class="node">
<title>Node0</title>
<polygon fill="#bfbfbf" stroke="#000000" points="0,-.5 0,-68.5 96,-68.5 96,-.5 0,-.5"/>
<text text-anchor="middle" x="48" y="-56.5" font-family="Helvetica,sans-Serif" font-size="10.00" fill="#000000">PropertyTest</text>
<polyline fill="none" stroke="#000000" points="0,-49.5 96,-49.5 "/>
<text text-anchor="middle" x="48" y="-37.5" font-family="Helvetica,sans-Serif" font-size="10.00" fill="#000000"> </text>
<polyline fill="none" stroke="#000000" points="0,-30.5 96,-30.5 "/>
<text text-anchor="start" x="8" y="-18.5" font-family="Helvetica,sans-Serif" font-size="10.00" fill="#000000"># PropertyTest()</text>
<text text-anchor="start" x="8" y="-7.5" font-family="Helvetica,sans-Serif" font-size="10.00" fill="#000000"># SetUp()</text>
</g>
<!-- Node1 -->
<g id="node2" class="node">
<title>Node1</title>
<polygon fill="#ffffff" stroke="#bfbfbf" points="30,-105.5 30,-162.5 66,-162.5 66,-105.5 30,-105.5"/>
<text text-anchor="middle" x="48" y="-150.5" font-family="Helvetica,sans-Serif" font-size="10.00" fill="#000000">Test</text>
<polyline fill="none" stroke="#bfbfbf" points="30,-143.5 66,-143.5 "/>
<text text-anchor="middle" x="48" y="-131.5" font-family="Helvetica,sans-Serif" font-size="10.00" fill="#000000"> </text>
<polyline fill="none" stroke="#bfbfbf" points="30,-124.5 66,-124.5 "/>
<text text-anchor="middle" x="48" y="-112.5" font-family="Helvetica,sans-Serif" font-size="10.00" fill="#000000"> </text>
</g>
<!-- Node1&#45;&gt;Node0 -->
<g id="edge1" class="edge">
<title>Node1&#45;&gt;Node0</title>
<path fill="none" stroke="#191970" d="M48,-95.4268C48,-86.6025 48,-77.2834 48,-68.6596"/>
<polygon fill="none" stroke="#191970" points="44.5001,-95.4873 48,-105.4873 51.5001,-95.4873 44.5001,-95.4873"/>
</g>
</g>
</svg>
