<?xml version="1.0" encoding="UTF-8" standalone="no"?>
<!DOCTYPE svg PUBLIC "-//W3C//DTD SVG 1.1//EN"
 "http://www.w3.org/Graphics/SVG/1.1/DTD/svg11.dtd">
<!-- Generated by graphviz version 2.40.1 (20161225.0304)
 -->
<!-- Title: Engine::body Pages: 1 -->
<svg width="604pt" height="269pt"
 viewBox="0.00 0.00 604.00 268.50" xmlns="http://www.w3.org/2000/svg" xmlns:xlink="http://www.w3.org/1999/xlink">
<g id="graph0" class="graph" transform="scale(1 1) rotate(0) translate(4 264.5)">
<title>Engine::body</title>
<polygon fill="#ffffff" stroke="transparent" points="-4,4 -4,-264.5 600,-264.5 600,4 -4,4"/>
<!-- Node8 -->
<g id="node1" class="node">
<title>Node8</title>
<polygon fill="#bfbfbf" stroke="#000000" points="0,-123 0,-142 80,-142 80,-123 0,-123"/>
<text text-anchor="middle" x="40" y="-130" font-family="Helvetica,sans-Serif" font-size="10.00" fill="#000000">Engine::body</text>
</g>
<!-- Node9 -->
<g id="node2" class="node">
<title>Node9</title>
<g id="a_node2"><a xlink:href="classEngine.html#aea9c523a0feb05871f020d4fd4f417e4" target="_top" xlink:title="Engine::receiveException">
<polygon fill="#ffffff" stroke="#000000" points="131,-211 131,-230 271,-230 271,-211 131,-211"/>
<text text-anchor="middle" x="201" y="-218" font-family="Helvetica,sans-Serif" font-size="10.00" fill="#000000">Engine::receiveException</text>
</a>
</g>
</g>
<!-- Node8&#45;&gt;Node9 -->
<g id="edge1" class="edge">
<title>Node8&#45;&gt;Node9</title>
<path fill="none" stroke="#191970" d="M47.7462,-142.2207C60.3653,-157.361 86.8925,-186.4004 116,-201.5 120.5804,-203.8761 125.4501,-205.9564 130.4505,-207.7774"/>
<polygon fill="#191970" stroke="#191970" points="129.5933,-211.1796 140.186,-210.9696 131.7743,-204.5281 129.5933,-211.1796"/>
</g>
<!-- Node12 -->
<g id="node5" class="node">
<title>Node12</title>
<g id="a_node5"><a xlink:href="classarch_1_1ROSComponentDescriptor.html#a4b73f46f37241865a08e75ab202e28eb" target="_top" xlink:title="arch::ROSComponentDescriptor\l::getFreq">
<polygon fill="#ffffff" stroke="#000000" points="116,-161.5 116,-191.5 286,-191.5 286,-161.5 116,-161.5"/>
<text text-anchor="start" x="124" y="-179.5" font-family="Helvetica,sans-Serif" font-size="10.00" fill="#000000">arch::ROSComponentDescriptor</text>
<text text-anchor="middle" x="201" y="-168.5" font-family="Helvetica,sans-Serif" font-size="10.00" fill="#000000">::getFreq</text>
</a>
</g>
</g>
<!-- Node8&#45;&gt;Node12 -->
<g id="edge4" class="edge">
<title>Node8&#45;&gt;Node12</title>
<path fill="none" stroke="#191970" d="M74.9346,-142.0473C92.8185,-146.9349 115.1762,-153.0451 136.0773,-158.7571"/>
<polygon fill="#191970" stroke="#191970" points="135.3055,-162.1745 145.8745,-161.4346 137.1509,-155.4221 135.3055,-162.1745"/>
</g>
<!-- Node13 -->
<g id="node6" class="node">
<title>Node13</title>
<g id="a_node6"><a xlink:href="classEngine.html#a0a83dbc2fee3b317932ce4a166303f22" target="_top" xlink:title="Engine::fetch_formula">
<polygon fill="#ffffff" stroke="#000000" points="139,-123 139,-142 263,-142 263,-123 139,-123"/>
<text text-anchor="middle" x="201" y="-130" font-family="Helvetica,sans-Serif" font-size="10.00" fill="#000000">Engine::fetch_formula</text>
</a>
</g>
</g>
<!-- Node8&#45;&gt;Node13 -->
<g id="edge5" class="edge">
<title>Node8&#45;&gt;Node13</title>
<path fill="none" stroke="#191970" d="M80.2118,-132.5C94.8666,-132.5 111.9215,-132.5 128.5174,-132.5"/>
<polygon fill="#191970" stroke="#191970" points="128.7658,-136.0001 138.7658,-132.5 128.7658,-129.0001 128.7658,-136.0001"/>
</g>
<!-- Node14 -->
<g id="node7" class="node">
<title>Node14</title>
<g id="a_node7"><a xlink:href="classEngine.html#a88afff420d0d1652ad974fd26df6de63" target="_top" xlink:title="Engine::setUp_formula">
<polygon fill="#ffffff" stroke="#000000" points="137,-85 137,-104 265,-104 265,-85 137,-85"/>
<text text-anchor="middle" x="201" y="-92" font-family="Helvetica,sans-Serif" font-size="10.00" fill="#000000">Engine::setUp_formula</text>
</a>
</g>
</g>
<!-- Node8&#45;&gt;Node14 -->
<g id="edge6" class="edge">
<title>Node8&#45;&gt;Node14</title>
<path fill="none" stroke="#191970" d="M77.451,-122.9392C89.7195,-119.8602 103.427,-116.4764 116,-113.5 126.1472,-111.0979 136.9956,-108.6112 147.431,-106.2598"/>
<polygon fill="#191970" stroke="#191970" points="148.2807,-109.6563 157.2731,-104.054 146.7498,-102.8257 148.2807,-109.6563"/>
</g>
<!-- Node21 -->
<g id="node14" class="node">
<title>Node21</title>
<g id="a_node14"><a xlink:href="classEngine.html#ad738bba77de0d57a5c3424ea973140a7" target="_top" xlink:title="Engine::monitor">
<polygon fill="#ffffff" stroke="#000000" points="154,-47 154,-66 248,-66 248,-47 154,-47"/>
<text text-anchor="middle" x="201" y="-54" font-family="Helvetica,sans-Serif" font-size="10.00" fill="#000000">Engine::monitor</text>
</a>
</g>
</g>
<!-- Node8&#45;&gt;Node21 -->
<g id="edge13" class="edge">
<title>Node8&#45;&gt;Node21</title>
<path fill="none" stroke="#191970" d="M49.903,-122.8381C63.6003,-110.0326 89.6354,-87.6459 116,-75.5 124.766,-71.4616 134.4448,-68.2558 144.0363,-65.7186"/>
<polygon fill="#191970" stroke="#191970" points="145.0662,-69.0703 153.958,-63.3096 143.4145,-62.2679 145.0662,-69.0703"/>
</g>
<!-- Node10 -->
<g id="node3" class="node">
<title>Node10</title>
<g id="a_node3"><a xlink:href="namespacebsn_1_1utils.html#a4ab7be3d27380abe032f4ceec86b09b2" target="_top" xlink:title="bsn::utils::split">
<polygon fill="#ffffff" stroke="#000000" points="339,-241 339,-260 427,-260 427,-241 339,-241"/>
<text text-anchor="middle" x="383" y="-248" font-family="Helvetica,sans-Serif" font-size="10.00" fill="#000000">bsn::utils::split</text>
</a>
</g>
</g>
<!-- Node9&#45;&gt;Node10 -->
<g id="edge2" class="edge">
<title>Node9&#45;&gt;Node10</title>
<path fill="none" stroke="#191970" d="M258.836,-230.0334C281.3114,-233.7381 306.9134,-237.9583 329.0074,-241.6001"/>
<polygon fill="#191970" stroke="#191970" points="328.4519,-245.0557 338.888,-243.2288 329.5904,-238.1489 328.4519,-245.0557"/>
</g>
<!-- Node11 -->
<g id="node4" class="node">
<title>Node11</title>
<g id="a_node4"><a xlink:href="classEngine.html#a88c4ce811856103bc01cc60ad09eeaca" target="_top" xlink:title="Engine::get_prefix">
<polygon fill="#ffffff" stroke="#000000" points="331,-203 331,-222 435,-222 435,-203 331,-203"/>
<text text-anchor="middle" x="383" y="-210" font-family="Helvetica,sans-Serif" font-size="10.00" fill="#000000">Engine::get_prefix</text>
</a>
</g>
</g>
<!-- Node9&#45;&gt;Node11 -->
<g id="edge3" class="edge">
<title>Node9&#45;&gt;Node11</title>
<path fill="none" stroke="#191970" d="M271.1056,-217.4184C287.3701,-216.7035 304.5758,-215.9472 320.489,-215.2477"/>
<polygon fill="#191970" stroke="#191970" points="320.9,-218.7331 330.7366,-214.7973 320.5925,-211.7399 320.9,-218.7331"/>
</g>
<!-- Node15 -->
<g id="node8" class="node">
<title>Node15</title>
<g id="a_node8"><a xlink:href="classbsn_1_1model_1_1Formula.html#a5867d8c6d3860a5c5b73048b88ac25e6" target="_top" xlink:title="bsn::model::Formula\l::getTerms">
<polygon fill="#ffffff" stroke="#000000" points="325,-137.5 325,-167.5 441,-167.5 441,-137.5 325,-137.5"/>
<text text-anchor="start" x="333" y="-155.5" font-family="Helvetica,sans-Serif" font-size="10.00" fill="#000000">bsn::model::Formula</text>
<text text-anchor="middle" x="383" y="-144.5" font-family="Helvetica,sans-Serif" font-size="10.00" fill="#000000">::getTerms</text>
</a>
</g>
</g>
<!-- Node14&#45;&gt;Node15 -->
<g id="edge7" class="edge">
<title>Node14&#45;&gt;Node15</title>
<path fill="none" stroke="#191970" d="M250.3834,-104.0057C262.1609,-106.6931 274.6141,-109.886 286,-113.5 302.5211,-118.744 305.9343,-121.9933 322,-128.5 326.1468,-130.1795 330.4584,-131.9091 334.7866,-133.6339"/>
<polygon fill="#191970" stroke="#191970" points="333.6444,-136.9461 344.2304,-137.3806 336.2259,-130.4394 333.6444,-136.9461"/>
</g>
<!-- Node16 -->
<g id="node9" class="node">
<title>Node16</title>
<g id="a_node9"><a xlink:href="classEngine.html#a60b6aaac0bf5c293d5784666c701d777" target="_top" xlink:title="Engine::initialize\l_strategy">
<polygon fill="#ffffff" stroke="#000000" points="334,-88.5 334,-118.5 432,-118.5 432,-88.5 334,-88.5"/>
<text text-anchor="start" x="342" y="-106.5" font-family="Helvetica,sans-Serif" font-size="10.00" fill="#000000">Engine::initialize</text>
<text text-anchor="middle" x="383" y="-95.5" font-family="Helvetica,sans-Serif" font-size="10.00" fill="#000000">_strategy</text>
</a>
</g>
</g>
<!-- Node14&#45;&gt;Node16 -->
<g id="edge8" class="edge">
<title>Node14&#45;&gt;Node16</title>
<path fill="none" stroke="#191970" d="M265.1664,-97.6731C284.2499,-98.6168 305.0625,-99.6459 323.8134,-100.5732"/>
<polygon fill="#191970" stroke="#191970" points="323.8338,-104.0784 333.9945,-101.0766 324.1796,-97.0869 323.8338,-104.0784"/>
</g>
<!-- Node17 -->
<g id="node10" class="node">
<title>Node17</title>
<g id="a_node10"><a xlink:href="classEngine.html#a6b7b458cd4067230dfe02585ce00ab5b" target="_top" xlink:title="Engine::calculate_qos">
<polygon fill="#ffffff" stroke="#000000" points="322,-50 322,-69 444,-69 444,-50 322,-50"/>
<text text-anchor="middle" x="383" y="-57" font-family="Helvetica,sans-Serif" font-size="10.00" fill="#000000">Engine::calculate_qos</text>
</a>
</g>
</g>
<!-- Node14&#45;&gt;Node17 -->
<g id="edge9" class="edge">
<title>Node14&#45;&gt;Node17</title>
<path fill="none" stroke="#191970" d="M250.7323,-84.9361C273.2027,-80.6149 299.9322,-75.4746 323.4615,-70.9497"/>
<polygon fill="#191970" stroke="#191970" points="324.1688,-74.3779 333.3278,-69.0523 322.8468,-67.5039 324.1688,-74.3779"/>
</g>
<!-- Node20 -->
<g id="node13" class="node">
<title>Node20</title>
<g id="a_node13"><a xlink:href="classEngine.html#a70f52722c5037794f6fd52c2b6d3bae2" target="_top" xlink:title="Engine::initialize\l_priority">
<polygon fill="#ffffff" stroke="#000000" points="334,-.5 334,-30.5 432,-30.5 432,-.5 334,-.5"/>
<text text-anchor="start" x="342" y="-18.5" font-family="Helvetica,sans-Serif" font-size="10.00" fill="#000000">Engine::initialize</text>
<text text-anchor="middle" x="383" y="-7.5" font-family="Helvetica,sans-Serif" font-size="10.00" fill="#000000">_priority</text>
</a>
</g>
</g>
<!-- Node14&#45;&gt;Node20 -->
<g id="edge12" class="edge">
<title>Node14&#45;&gt;Node20</title>
<path fill="none" stroke="#191970" d="M262.8327,-84.9329C270.8824,-82.4736 278.8171,-79.3832 286,-75.5 305.6303,-64.8874 303.3357,-52.7319 322,-40.5 324.9122,-38.5915 327.9936,-36.7835 331.163,-35.0791"/>
<polygon fill="#191970" stroke="#191970" points="332.8664,-38.141 340.2603,-30.5528 329.7482,-31.8739 332.8664,-38.141"/>
</g>
<!-- Node18 -->
<g id="node11" class="node">
<title>Node18</title>
<g id="a_node11"><a xlink:href="classbsn_1_1model_1_1Formula.html#a49ea44acf0d7c9355d8134de7f3d7a3b" target="_top" xlink:title="bsn::model::Formula\l::setTermValueMap">
<polygon fill="#ffffff" stroke="#000000" points="480,-69.5 480,-99.5 596,-99.5 596,-69.5 480,-69.5"/>
<text text-anchor="start" x="488" y="-87.5" font-family="Helvetica,sans-Serif" font-size="10.00" fill="#000000">bsn::model::Formula</text>
<text text-anchor="middle" x="538" y="-76.5" font-family="Helvetica,sans-Serif" font-size="10.00" fill="#000000">::setTermValueMap</text>
</a>
</g>
</g>
<!-- Node17&#45;&gt;Node18 -->
<g id="edge10" class="edge">
<title>Node17&#45;&gt;Node18</title>
<path fill="none" stroke="#191970" d="M442.041,-69.0227C451.151,-70.4921 460.6224,-72.0197 469.9107,-73.5178"/>
<polygon fill="#191970" stroke="#191970" points="469.4621,-76.9907 479.8919,-75.1277 470.5768,-70.08 469.4621,-76.9907"/>
</g>
<!-- Node19 -->
<g id="node12" class="node">
<title>Node19</title>
<g id="a_node12"><a xlink:href="classbsn_1_1model_1_1Formula.html#afa267bb9172a038543604912d0b23ce8" target="_top" xlink:title="bsn::model::Formula\l::evaluate">
<polygon fill="#ffffff" stroke="#000000" points="480,-20.5 480,-50.5 596,-50.5 596,-20.5 480,-20.5"/>
<text text-anchor="start" x="488" y="-38.5" font-family="Helvetica,sans-Serif" font-size="10.00" fill="#000000">bsn::model::Formula</text>
<text text-anchor="middle" x="538" y="-27.5" font-family="Helvetica,sans-Serif" font-size="10.00" fill="#000000">::evaluate</text>
</a>
</g>
</g>
<!-- Node17&#45;&gt;Node19 -->
<g id="edge11" class="edge">
<title>Node17&#45;&gt;Node19</title>
<path fill="none" stroke="#191970" d="M444.2601,-50.0146C452.7141,-48.7056 461.4381,-47.3548 470.0047,-46.0283"/>
<polygon fill="#191970" stroke="#191970" points="470.6167,-49.4753 479.9634,-44.4863 469.5456,-42.5578 470.6167,-49.4753"/>
</g>
</g>
</svg>
