<?xml version="1.0" encoding="UTF-8" standalone="no"?>
<!DOCTYPE svg PUBLIC "-//W3C//DTD SVG 1.1//EN"
 "http://www.w3.org/Graphics/SVG/1.1/DTD/svg11.dtd">
<!-- Generated by graphviz version 2.40.1 (20161225.0304)
 -->
<!-- Title: bsn::configuration::SensorConfiguration::convertRealPercentage Pages: 1 -->
<svg width="434pt" height="446pt"
 viewBox="0.00 0.00 434.00 446.00" xmlns="http://www.w3.org/2000/svg" xmlns:xlink="http://www.w3.org/1999/xlink">
<g id="graph0" class="graph" transform="scale(1 1) rotate(0) translate(4 442)">
<title>bsn::configuration::SensorConfiguration::convertRealPercentage</title>
<polygon fill="#ffffff" stroke="transparent" points="-4,4 -4,-442 430,-442 430,4 -4,4"/>
<!-- Node10 -->
<g id="node1" class="node">
<title>Node10</title>
<polygon fill="#bfbfbf" stroke="#000000" points="0,-198.5 0,-239.5 135,-239.5 135,-198.5 0,-198.5"/>
<text text-anchor="start" x="8" y="-227.5" font-family="Helvetica,sans-Serif" font-size="10.00" fill="#000000">bsn::configuration</text>
<text text-anchor="start" x="8" y="-216.5" font-family="Helvetica,sans-Serif" font-size="10.00" fill="#000000">::SensorConfiguration</text>
<text text-anchor="middle" x="67.5" y="-205.5" font-family="Helvetica,sans-Serif" font-size="10.00" fill="#000000">::convertRealPercentage</text>
</g>
<!-- Node11 -->
<g id="node2" class="node">
<title>Node11</title>
<g id="a_node2"><a xlink:href="classbsn_1_1configuration_1_1SensorConfiguration.html#a74040e24635beeffd7067a23c5bb91ab" target="_top" xlink:title="bsn::configuration\l::SensorConfiguration\l::evaluateNumber">
<polygon fill="#ffffff" stroke="#000000" points="171,-198.5 171,-239.5 292,-239.5 292,-198.5 171,-198.5"/>
<text text-anchor="start" x="179" y="-227.5" font-family="Helvetica,sans-Serif" font-size="10.00" fill="#000000">bsn::configuration</text>
<text text-anchor="start" x="179" y="-216.5" font-family="Helvetica,sans-Serif" font-size="10.00" fill="#000000">::SensorConfiguration</text>
<text text-anchor="middle" x="231.5" y="-205.5" font-family="Helvetica,sans-Serif" font-size="10.00" fill="#000000">::evaluateNumber</text>
</a>
</g>
</g>
<!-- Node10&#45;&gt;Node11 -->
<g id="edge1" class="edge">
<title>Node10&#45;&gt;Node11</title>
<path fill="none" stroke="#191970" d="M145.2025,-219C153.8083,-219 162.4774,-219 170.8293,-219"/>
<polygon fill="#191970" stroke="#191970" points="145.152,-215.5001 135.1519,-219 145.1519,-222.5001 145.152,-215.5001"/>
</g>
<!-- Node12 -->
<g id="node3" class="node">
<title>Node12</title>
<g id="a_node3"><a xlink:href="classG3T1__1.html#a4696c0b3b423e6d0efe2a6f3f6e84cfa" target="_top" xlink:title="G3T1_1::collect">
<polygon fill="#ffffff" stroke="#000000" points="331,-418.5 331,-437.5 423,-437.5 423,-418.5 331,-418.5"/>
<text text-anchor="middle" x="377" y="-425.5" font-family="Helvetica,sans-Serif" font-size="10.00" fill="#000000">G3T1_1::collect</text>
</a>
</g>
</g>
<!-- Node11&#45;&gt;Node12 -->
<g id="edge2" class="edge">
<title>Node11&#45;&gt;Node12</title>
<path fill="none" stroke="#191970" d="M239.5238,-249.5632C251.8973,-291.058 279.4384,-365.0686 328,-409 332.2627,-412.8563 337.3949,-415.9652 342.7105,-418.4611"/>
<polygon fill="#191970" stroke="#191970" points="242.8297,-248.3948 236.7012,-239.7523 236.1025,-250.3302 242.8297,-248.3948"/>
</g>
<!-- Node13 -->
<g id="node4" class="node">
<title>Node13</title>
<g id="a_node4"><a xlink:href="classG3T1__1.html#a58277c46b8319bd35e3ffabd52805874" target="_top" xlink:title="G3T1_1::transfer">
<polygon fill="#ffffff" stroke="#000000" points="328,-380.5 328,-399.5 426,-399.5 426,-380.5 328,-380.5"/>
<text text-anchor="middle" x="377" y="-387.5" font-family="Helvetica,sans-Serif" font-size="10.00" fill="#000000">G3T1_1::transfer</text>
</a>
</g>
</g>
<!-- Node11&#45;&gt;Node13 -->
<g id="edge3" class="edge">
<title>Node11&#45;&gt;Node13</title>
<path fill="none" stroke="#191970" d="M243.6258,-249.0432C258.7226,-282.9754 287.545,-337.7794 328,-371 332.6539,-374.8216 338.165,-377.9356 343.782,-380.4528"/>
<polygon fill="#191970" stroke="#191970" points="246.7426,-247.4326 239.5583,-239.6455 240.3185,-250.2131 246.7426,-247.4326"/>
</g>
<!-- Node14 -->
<g id="node5" class="node">
<title>Node14</title>
<g id="a_node5"><a xlink:href="classG3T1__2.html#af0d9cc4619906329eeb799c5a35e142a" target="_top" xlink:title="G3T1_2::collect">
<polygon fill="#ffffff" stroke="#000000" points="331,-342.5 331,-361.5 423,-361.5 423,-342.5 331,-342.5"/>
<text text-anchor="middle" x="377" y="-349.5" font-family="Helvetica,sans-Serif" font-size="10.00" fill="#000000">G3T1_2::collect</text>
</a>
</g>
</g>
<!-- Node11&#45;&gt;Node14 -->
<g id="edge4" class="edge">
<title>Node11&#45;&gt;Node14</title>
<path fill="none" stroke="#191970" d="M250.1151,-248.3495C267.5446,-273.7699 295.6978,-309.9818 328,-333 333.2757,-336.7594 339.3941,-339.895 345.4819,-342.4636"/>
<polygon fill="#191970" stroke="#191970" points="252.8874,-246.1996 244.4081,-239.8473 247.0754,-250.1009 252.8874,-246.1996"/>
</g>
<!-- Node15 -->
<g id="node6" class="node">
<title>Node15</title>
<g id="a_node6"><a xlink:href="classG3T1__2.html#ac437972ecabb9e234c8717101d51eac8" target="_top" xlink:title="G3T1_2::transfer">
<polygon fill="#ffffff" stroke="#000000" points="328,-304.5 328,-323.5 426,-323.5 426,-304.5 328,-304.5"/>
<text text-anchor="middle" x="377" y="-311.5" font-family="Helvetica,sans-Serif" font-size="10.00" fill="#000000">G3T1_2::transfer</text>
</a>
</g>
</g>
<!-- Node11&#45;&gt;Node15 -->
<g id="edge5" class="edge">
<title>Node11&#45;&gt;Node15</title>
<path fill="none" stroke="#191970" d="M261.8221,-246.7284C280.0368,-262.3702 304.2277,-281.4359 328,-295 334.2606,-298.5722 341.3235,-301.749 348.0974,-304.4344"/>
<polygon fill="#191970" stroke="#191970" points="263.7331,-243.7509 253.8966,-239.8147 259.1315,-249.0259 263.7331,-243.7509"/>
</g>
<!-- Node16 -->
<g id="node7" class="node">
<title>Node16</title>
<g id="a_node7"><a xlink:href="classG3T1__3.html#a3519014bd56d810164d86d9756169c44" target="_top" xlink:title="G3T1_3::collect">
<polygon fill="#ffffff" stroke="#000000" points="331,-266.5 331,-285.5 423,-285.5 423,-266.5 331,-266.5"/>
<text text-anchor="middle" x="377" y="-273.5" font-family="Helvetica,sans-Serif" font-size="10.00" fill="#000000">G3T1_3::collect</text>
</a>
</g>
</g>
<!-- Node11&#45;&gt;Node16 -->
<g id="edge6" class="edge">
<title>Node11&#45;&gt;Node16</title>
<path fill="none" stroke="#191970" d="M293.1598,-243.336C304.7319,-247.8876 316.7322,-252.5969 328,-257 335.9034,-260.0884 344.5312,-263.4404 352.314,-266.4568"/>
<polygon fill="#191970" stroke="#191970" points="294.1524,-239.9654 283.5653,-239.56 291.5888,-246.4791 294.1524,-239.9654"/>
</g>
<!-- Node17 -->
<g id="node8" class="node">
<title>Node17</title>
<g id="a_node8"><a xlink:href="classG3T1__3.html#a4bd1c419743c7c128fd1c3cf4fa5e434" target="_top" xlink:title="G3T1_3::transfer">
<polygon fill="#ffffff" stroke="#000000" points="328,-228.5 328,-247.5 426,-247.5 426,-228.5 328,-228.5"/>
<text text-anchor="middle" x="377" y="-235.5" font-family="Helvetica,sans-Serif" font-size="10.00" fill="#000000">G3T1_3::transfer</text>
</a>
</g>
</g>
<!-- Node11&#45;&gt;Node17 -->
<g id="edge7" class="edge">
<title>Node11&#45;&gt;Node17</title>
<path fill="none" stroke="#191970" d="M302.4227,-228.2614C311.0309,-229.3855 319.6732,-230.514 327.8671,-231.584"/>
<polygon fill="#191970" stroke="#191970" points="302.7311,-224.772 292.362,-226.9476 301.8246,-231.7131 302.7311,-224.772"/>
</g>
<!-- Node18 -->
<g id="node9" class="node">
<title>Node18</title>
<g id="a_node9"><a xlink:href="classG3T1__4.html#aac00c133f2199079b671b3094496fb33" target="_top" xlink:title="G3T1_4::collect">
<polygon fill="#ffffff" stroke="#000000" points="331,-190.5 331,-209.5 423,-209.5 423,-190.5 331,-190.5"/>
<text text-anchor="middle" x="377" y="-197.5" font-family="Helvetica,sans-Serif" font-size="10.00" fill="#000000">G3T1_4::collect</text>
</a>
</g>
</g>
<!-- Node11&#45;&gt;Node18 -->
<g id="edge8" class="edge">
<title>Node11&#45;&gt;Node18</title>
<path fill="none" stroke="#191970" d="M302.4338,-209.7372C312.1414,-208.4695 321.8922,-207.1962 330.9941,-206.0076"/>
<polygon fill="#191970" stroke="#191970" points="301.8246,-206.2869 292.362,-211.0524 302.7311,-213.228 301.8246,-206.2869"/>
</g>
<!-- Node19 -->
<g id="node10" class="node">
<title>Node19</title>
<g id="a_node10"><a xlink:href="classG3T1__4.html#a20ad5272beba24e4879fb29985b85f69" target="_top" xlink:title="G3T1_4::transfer">
<polygon fill="#ffffff" stroke="#000000" points="328,-152.5 328,-171.5 426,-171.5 426,-152.5 328,-152.5"/>
<text text-anchor="middle" x="377" y="-159.5" font-family="Helvetica,sans-Serif" font-size="10.00" fill="#000000">G3T1_4::transfer</text>
</a>
</g>
</g>
<!-- Node11&#45;&gt;Node19 -->
<g id="edge9" class="edge">
<title>Node11&#45;&gt;Node19</title>
<path fill="none" stroke="#191970" d="M293.1598,-194.664C304.7319,-190.1124 316.7322,-185.4031 328,-181 335.9034,-177.9116 344.5312,-174.5596 352.314,-171.5432"/>
<polygon fill="#191970" stroke="#191970" points="291.5888,-191.5209 283.5653,-198.44 294.1524,-198.0346 291.5888,-191.5209"/>
</g>
<!-- Node20 -->
<g id="node11" class="node">
<title>Node20</title>
<g id="a_node11"><a xlink:href="classG3T1__5.html#a1aa8fb64b30b7263df5c2189fb5995dc" target="_top" xlink:title="G3T1_5::collect">
<polygon fill="#ffffff" stroke="#000000" points="331,-114.5 331,-133.5 423,-133.5 423,-114.5 331,-114.5"/>
<text text-anchor="middle" x="377" y="-121.5" font-family="Helvetica,sans-Serif" font-size="10.00" fill="#000000">G3T1_5::collect</text>
</a>
</g>
</g>
<!-- Node11&#45;&gt;Node20 -->
<g id="edge10" class="edge">
<title>Node11&#45;&gt;Node20</title>
<path fill="none" stroke="#191970" d="M261.8221,-191.2716C280.0368,-175.6298 304.2277,-156.5641 328,-143 334.2606,-139.4278 341.3235,-136.251 348.0974,-133.5656"/>
<polygon fill="#191970" stroke="#191970" points="259.1315,-188.9741 253.8966,-198.1853 263.7331,-194.2491 259.1315,-188.9741"/>
</g>
<!-- Node21 -->
<g id="node12" class="node">
<title>Node21</title>
<g id="a_node12"><a xlink:href="classG3T1__5.html#ae9918da7342a4fb88c6f633db43b9fe8" target="_top" xlink:title="G3T1_5::transfer">
<polygon fill="#ffffff" stroke="#000000" points="328,-76.5 328,-95.5 426,-95.5 426,-76.5 328,-76.5"/>
<text text-anchor="middle" x="377" y="-83.5" font-family="Helvetica,sans-Serif" font-size="10.00" fill="#000000">G3T1_5::transfer</text>
</a>
</g>
</g>
<!-- Node11&#45;&gt;Node21 -->
<g id="edge11" class="edge">
<title>Node11&#45;&gt;Node21</title>
<path fill="none" stroke="#191970" d="M250.1151,-189.6505C267.5446,-164.2301 295.6978,-128.0182 328,-105 333.2757,-101.2406 339.3941,-98.105 345.4819,-95.5364"/>
<polygon fill="#191970" stroke="#191970" points="247.0754,-187.8991 244.4081,-198.1527 252.8874,-191.8004 247.0754,-187.8991"/>
</g>
<!-- Node22 -->
<g id="node13" class="node">
<title>Node22</title>
<g id="a_node13"><a xlink:href="classG3T1__6.html#a0deb9a2b913d7753ef6708ccbd87df34" target="_top" xlink:title="G3T1_6::collect">
<polygon fill="#ffffff" stroke="#000000" points="331,-38.5 331,-57.5 423,-57.5 423,-38.5 331,-38.5"/>
<text text-anchor="middle" x="377" y="-45.5" font-family="Helvetica,sans-Serif" font-size="10.00" fill="#000000">G3T1_6::collect</text>
</a>
</g>
</g>
<!-- Node11&#45;&gt;Node22 -->
<g id="edge12" class="edge">
<title>Node11&#45;&gt;Node22</title>
<path fill="none" stroke="#191970" d="M243.6258,-188.9568C258.7226,-155.0246 287.545,-100.2206 328,-67 332.6539,-63.1784 338.165,-60.0644 343.782,-57.5472"/>
<polygon fill="#191970" stroke="#191970" points="240.3185,-187.7869 239.5583,-198.3545 246.7426,-190.5674 240.3185,-187.7869"/>
</g>
<!-- Node23 -->
<g id="node14" class="node">
<title>Node23</title>
<g id="a_node14"><a xlink:href="classG3T1__6.html#aaa3c643ee36464eca9e095d150926e22" target="_top" xlink:title="G3T1_6::transfer">
<polygon fill="#ffffff" stroke="#000000" points="328,-.5 328,-19.5 426,-19.5 426,-.5 328,-.5"/>
<text text-anchor="middle" x="377" y="-7.5" font-family="Helvetica,sans-Serif" font-size="10.00" fill="#000000">G3T1_6::transfer</text>
</a>
</g>
</g>
<!-- Node11&#45;&gt;Node23 -->
<g id="edge13" class="edge">
<title>Node11&#45;&gt;Node23</title>
<path fill="none" stroke="#191970" d="M239.5238,-188.4368C251.8973,-146.942 279.4384,-72.9314 328,-29 332.2627,-25.1437 337.3949,-22.0348 342.7105,-19.5389"/>
<polygon fill="#191970" stroke="#191970" points="236.1025,-187.6698 236.7012,-198.2477 242.8297,-189.6052 236.1025,-187.6698"/>
</g>
</g>
</svg>
