<?xml version="1.0" encoding="UTF-8" standalone="no"?>
<!DOCTYPE svg PUBLIC "-//W3C//DTD SVG 1.1//EN"
 "http://www.w3.org/Graphics/SVG/1.1/DTD/svg11.dtd">
<!-- Generated by graphviz version 2.40.1 (20161225.0304)
 -->
<!-- Title: bsn::resource::Battery::getId Pages: 1 -->
<svg width="292pt" height="39pt"
 viewBox="0.00 0.00 292.00 39.00" xmlns="http://www.w3.org/2000/svg" xmlns:xlink="http://www.w3.org/1999/xlink">
<g id="graph0" class="graph" transform="scale(1 1) rotate(0) translate(4 35)">
<title>bsn::resource::Battery::getId</title>
<polygon fill="#ffffff" stroke="transparent" points="-4,4 -4,-35 288,-35 288,4 -4,4"/>
<!-- Node62 -->
<g id="node1" class="node">
<title>Node62</title>
<polygon fill="#bfbfbf" stroke="#000000" points="0,-.5 0,-30.5 124,-30.5 124,-.5 0,-.5"/>
<text text-anchor="start" x="8" y="-18.5" font-family="Helvetica,sans-Serif" font-size="10.00" fill="#000000">bsn::resource::Battery</text>
<text text-anchor="middle" x="62" y="-7.5" font-family="Helvetica,sans-Serif" font-size="10.00" fill="#000000">::getId</text>
</g>
<!-- Node63 -->
<g id="node2" class="node">
<title>Node63</title>
<g id="a_node2"><a xlink:href="classbsn_1_1resource_1_1Battery.html#ad226c2dc5464351bbdbc6461120934ad" target="_top" xlink:title="bsn::resource::Battery\l::operator=">
<polygon fill="#ffffff" stroke="#000000" points="160,-.5 160,-30.5 284,-30.5 284,-.5 160,-.5"/>
<text text-anchor="start" x="168" y="-18.5" font-family="Helvetica,sans-Serif" font-size="10.00" fill="#000000">bsn::resource::Battery</text>
<text text-anchor="middle" x="222" y="-7.5" font-family="Helvetica,sans-Serif" font-size="10.00" fill="#000000">::operator=</text>
</a>
</g>
</g>
<!-- Node62&#45;&gt;Node63 -->
<g id="edge1" class="edge">
<title>Node62&#45;&gt;Node63</title>
<path fill="none" stroke="#191970" d="M134.5453,-15.5C142.996,-15.5 151.5587,-15.5 159.8518,-15.5"/>
<polygon fill="#191970" stroke="#191970" points="134.3184,-12.0001 124.3183,-15.5 134.3183,-19.0001 134.3184,-12.0001"/>
</g>
</g>
</svg>
