<?xml version="1.0" encoding="UTF-8" standalone="no"?>
<!DOCTYPE svg PUBLIC "-//W3C//DTD SVG 1.1//EN"
 "http://www.w3.org/Graphics/SVG/1.1/DTD/svg11.dtd">
<!-- Generated by graphviz version 2.40.1 (20161225.0304)
 -->
<!-- Title: bsn::goalmodel::Node::getDescription Pages: 1 -->
<svg width="322pt" height="214pt"
 viewBox="0.00 0.00 322.00 213.50" xmlns="http://www.w3.org/2000/svg" xmlns:xlink="http://www.w3.org/1999/xlink">
<g id="graph0" class="graph" transform="scale(1 1) rotate(0) translate(4 209.5)">
<title>bsn::goalmodel::Node::getDescription</title>
<polygon fill="#ffffff" stroke="transparent" points="-4,4 -4,-209.5 318,-209.5 318,4 -4,4"/>
<!-- Node20 -->
<g id="node1" class="node">
<title>Node20</title>
<polygon fill="#bfbfbf" stroke="#000000" points="0,-77 0,-107 123,-107 123,-77 0,-77"/>
<text text-anchor="start" x="8" y="-95" font-family="Helvetica,sans-Serif" font-size="10.00" fill="#000000">bsn::goalmodel::Node</text>
<text text-anchor="middle" x="61.5" y="-84" font-family="Helvetica,sans-Serif" font-size="10.00" fill="#000000">::getDescription</text>
</g>
<!-- Node21 -->
<g id="node2" class="node">
<title>Node21</title>
<g id="a_node2"><a xlink:href="classbsn_1_1goalmodel_1_1LeafTask.html#a5a0f2631ba7d3681b78f4f7c2fe405f1" target="_top" xlink:title="bsn::goalmodel::LeafTask\l::operator=">
<polygon fill="#ffffff" stroke="#000000" points="166.5,-175 166.5,-205 306.5,-205 306.5,-175 166.5,-175"/>
<text text-anchor="start" x="174.5" y="-193" font-family="Helvetica,sans-Serif" font-size="10.00" fill="#000000">bsn::goalmodel::LeafTask</text>
<text text-anchor="middle" x="236.5" y="-182" font-family="Helvetica,sans-Serif" font-size="10.00" fill="#000000">::operator=</text>
</a>
</g>
</g>
<!-- Node20&#45;&gt;Node21 -->
<g id="edge1" class="edge">
<title>Node20&#45;&gt;Node21</title>
<path fill="none" stroke="#191970" d="M85.2937,-113.8625C104.107,-130.1649 131.6702,-151.9532 159,-166 165.5143,-169.3482 172.5797,-172.3264 179.7037,-174.9468"/>
<polygon fill="#191970" stroke="#191970" points="87.3604,-111.0184 77.5456,-107.0283 82.73,-116.2681 87.3604,-111.0184"/>
</g>
<!-- Node22 -->
<g id="node3" class="node">
<title>Node22</title>
<g id="a_node3"><a xlink:href="classbsn_1_1goalmodel_1_1Node.html#a9a08ece2f46032f7fe474d341c3c22db" target="_top" xlink:title="bsn::goalmodel::Node\l::operator=">
<polygon fill="#ffffff" stroke="#000000" points="175,-126 175,-156 298,-156 298,-126 175,-126"/>
<text text-anchor="start" x="183" y="-144" font-family="Helvetica,sans-Serif" font-size="10.00" fill="#000000">bsn::goalmodel::Node</text>
<text text-anchor="middle" x="236.5" y="-133" font-family="Helvetica,sans-Serif" font-size="10.00" fill="#000000">::operator=</text>
</a>
</g>
</g>
<!-- Node20&#45;&gt;Node22 -->
<g id="edge2" class="edge">
<title>Node20&#45;&gt;Node22</title>
<path fill="none" stroke="#191970" d="M125.1473,-109.8212C144.042,-115.1118 164.5434,-120.8522 182.7444,-125.9484"/>
<polygon fill="#191970" stroke="#191970" points="126.0071,-106.4274 115.4337,-107.1014 124.1196,-113.1682 126.0071,-106.4274"/>
</g>
<!-- Node23 -->
<g id="node4" class="node">
<title>Node23</title>
<g id="a_node4"><a xlink:href="classbsn_1_1goalmodel_1_1Node.html#ac9a8f749fa881fe032db1cf9925f2780" target="_top" xlink:title="bsn::goalmodel::Node\l::operator==">
<polygon fill="#ffffff" stroke="#000000" points="175,-77 175,-107 298,-107 298,-77 175,-77"/>
<text text-anchor="start" x="183" y="-95" font-family="Helvetica,sans-Serif" font-size="10.00" fill="#000000">bsn::goalmodel::Node</text>
<text text-anchor="middle" x="236.5" y="-84" font-family="Helvetica,sans-Serif" font-size="10.00" fill="#000000">::operator==</text>
</a>
</g>
</g>
<!-- Node20&#45;&gt;Node23 -->
<g id="edge3" class="edge">
<title>Node20&#45;&gt;Node23</title>
<path fill="none" stroke="#191970" d="M133.5405,-92C147.2279,-92 161.4366,-92 174.7688,-92"/>
<polygon fill="#191970" stroke="#191970" points="133.1985,-88.5001 123.1985,-92 133.1984,-95.5001 133.1985,-88.5001"/>
</g>
<!-- Node24 -->
<g id="node5" class="node">
<title>Node24</title>
<g id="a_node5"><a xlink:href="namespacebsn_1_1goalmodel.html#ae667127e89e6ad5a47bc0c6e86601687" target="_top" xlink:title="bsn::goalmodel::operator\&lt;\&lt;">
<polygon fill="#ffffff" stroke="#000000" points="159,-38.5 159,-57.5 314,-57.5 314,-38.5 159,-38.5"/>
<text text-anchor="middle" x="236.5" y="-45.5" font-family="Helvetica,sans-Serif" font-size="10.00" fill="#000000">bsn::goalmodel::operator&lt;&lt;</text>
</a>
</g>
</g>
<!-- Node20&#45;&gt;Node24 -->
<g id="edge4" class="edge">
<title>Node20&#45;&gt;Node24</title>
<path fill="none" stroke="#191970" d="M130.9991,-74.5259C154.0763,-68.7237 178.8995,-62.4824 198.6665,-57.5124"/>
<polygon fill="#191970" stroke="#191970" points="130.0803,-71.1479 121.2356,-76.9808 131.7872,-77.9366 130.0803,-71.1479"/>
</g>
<!-- Node25 -->
<g id="node6" class="node">
<title>Node25</title>
<g id="a_node6"><a xlink:href="GoalTest_8cpp.html#a9040e36a6163547098fcaffa11976057" target="_top" xlink:title="TEST_F">
<polygon fill="#ffffff" stroke="#000000" points="211,-.5 211,-19.5 262,-19.5 262,-.5 211,-.5"/>
<text text-anchor="middle" x="236.5" y="-7.5" font-family="Helvetica,sans-Serif" font-size="10.00" fill="#000000">TEST_F</text>
</a>
</g>
</g>
<!-- Node20&#45;&gt;Node25 -->
<g id="edge5" class="edge">
<title>Node20&#45;&gt;Node25</title>
<path fill="none" stroke="#191970" d="M88.6749,-70.9072C107.4994,-57.2088 133.643,-39.9319 159,-29 175.5379,-21.8702 195.2647,-17.082 210.6769,-14.0958"/>
<polygon fill="#191970" stroke="#191970" points="86.5203,-68.1475 80.5699,-76.9136 90.6882,-73.7715 86.5203,-68.1475"/>
</g>
</g>
</svg>
