<?xml version="1.0" encoding="UTF-8" standalone="no"?>
<!DOCTYPE svg PUBLIC "-//W3C//DTD SVG 1.1//EN"
 "http://www.w3.org/Graphics/SVG/1.1/DTD/svg11.dtd">
<!-- Generated by graphviz version 2.40.1 (20161225.0304)
 -->
<!-- Title: Engine Pages: 1 -->
<svg width="809pt" height="690pt"
 viewBox="0.00 0.00 809.00 690.00" xmlns="http://www.w3.org/2000/svg" xmlns:xlink="http://www.w3.org/1999/xlink">
<g id="graph0" class="graph" transform="scale(1 1) rotate(0) translate(4 686)">
<title>Engine</title>
<polygon fill="#ffffff" stroke="transparent" points="-4,4 -4,-686 805,-686 805,4 -4,4"/>
<!-- Node4 -->
<g id="node1" class="node">
<title>Node4</title>
<polygon fill="#bfbfbf" stroke="#000000" points="365,-.5 365,-167.5 527,-167.5 527,-.5 365,-.5"/>
<text text-anchor="middle" x="446" y="-155.5" font-family="Helvetica,sans-Serif" font-size="10.00" fill="#000000">Engine</text>
<polyline fill="none" stroke="#000000" points="365,-148.5 527,-148.5 "/>
<text text-anchor="middle" x="446" y="-136.5" font-family="Helvetica,sans-Serif" font-size="10.00" fill="#000000"> </text>
<polyline fill="none" stroke="#000000" points="365,-129.5 527,-129.5 "/>
<text text-anchor="start" x="373" y="-117.5" font-family="Helvetica,sans-Serif" font-size="10.00" fill="#000000">+ Engine()</text>
<text text-anchor="start" x="373" y="-106.5" font-family="Helvetica,sans-Serif" font-size="10.00" fill="#000000">+ ~Engine()</text>
<text text-anchor="start" x="373" y="-95.5" font-family="Helvetica,sans-Serif" font-size="10.00" fill="#000000">+ setUp()</text>
<text text-anchor="start" x="373" y="-84.5" font-family="Helvetica,sans-Serif" font-size="10.00" fill="#000000">+ tearDown()</text>
<text text-anchor="start" x="373" y="-73.5" font-family="Helvetica,sans-Serif" font-size="10.00" fill="#000000">+ body()</text>
<text text-anchor="start" x="373" y="-62.5" font-family="Helvetica,sans-Serif" font-size="10.00" fill="#000000">+ receiveException()</text>
<text text-anchor="start" x="373" y="-51.5" font-family="Helvetica,sans-Serif" font-size="10.00" fill="#000000">+ sendAdaptationParameter()</text>
<text text-anchor="start" x="373" y="-40.5" font-family="Helvetica,sans-Serif" font-size="10.00" fill="#000000">+ get_prefix()</text>
<text text-anchor="start" x="373" y="-29.5" font-family="Helvetica,sans-Serif" font-size="10.00" fill="#000000">+ initialize_priority()</text>
<text text-anchor="start" x="373" y="-18.5" font-family="Helvetica,sans-Serif" font-size="10.00" fill="#000000">+ initialize_strategy()</text>
<text text-anchor="start" x="373" y="-7.5" font-family="Helvetica,sans-Serif" font-size="10.00" fill="#000000">and 8 more...</text>
</g>
<!-- Node5 -->
<g id="node2" class="node">
<title>Node5</title>
<g id="a_node2"><a xlink:href="classarch_1_1ROSComponent.html" target="_top" xlink:title="{arch::ROSComponent\n||+ ROSComponent()\l+ ~ROSComponent()\l+ setUp()\l+ tearDown()\l+ run()\l+ body()\l# getRosNodeName()\l}">
<polygon fill="#ffffff" stroke="#000000" points="30.5,-259.5 30.5,-382.5 153.5,-382.5 153.5,-259.5 30.5,-259.5"/>
<text text-anchor="middle" x="92" y="-370.5" font-family="Helvetica,sans-Serif" font-size="10.00" fill="#000000">arch::ROSComponent</text>
<polyline fill="none" stroke="#000000" points="30.5,-363.5 153.5,-363.5 "/>
<text text-anchor="middle" x="92" y="-351.5" font-family="Helvetica,sans-Serif" font-size="10.00" fill="#000000"> </text>
<polyline fill="none" stroke="#000000" points="30.5,-344.5 153.5,-344.5 "/>
<text text-anchor="start" x="38.5" y="-332.5" font-family="Helvetica,sans-Serif" font-size="10.00" fill="#000000">+ ROSComponent()</text>
<text text-anchor="start" x="38.5" y="-321.5" font-family="Helvetica,sans-Serif" font-size="10.00" fill="#000000">+ ~ROSComponent()</text>
<text text-anchor="start" x="38.5" y="-310.5" font-family="Helvetica,sans-Serif" font-size="10.00" fill="#000000">+ setUp()</text>
<text text-anchor="start" x="38.5" y="-299.5" font-family="Helvetica,sans-Serif" font-size="10.00" fill="#000000">+ tearDown()</text>
<text text-anchor="start" x="38.5" y="-288.5" font-family="Helvetica,sans-Serif" font-size="10.00" fill="#000000">+ run()</text>
<text text-anchor="start" x="38.5" y="-277.5" font-family="Helvetica,sans-Serif" font-size="10.00" fill="#000000">+ body()</text>
<text text-anchor="start" x="38.5" y="-266.5" font-family="Helvetica,sans-Serif" font-size="10.00" fill="#000000"># getRosNodeName()</text>
</a>
</g>
</g>
<!-- Node5&#45;&gt;Node4 -->
<g id="edge1" class="edge">
<title>Node5&#45;&gt;Node4</title>
<path fill="none" stroke="#191970" d="M143.2993,-251.5176C151.6596,-242.3547 160.6606,-233.541 170,-226 229.1153,-178.2678 306.8388,-140.0385 364.7391,-115.3241"/>
<polygon fill="none" stroke="#191970" points="140.4394,-249.468 136.4338,-259.2764 145.6818,-254.1067 140.4394,-249.468"/>
</g>
<!-- Node6 -->
<g id="node3" class="node">
<title>Node6</title>
<g id="a_node3"><a xlink:href="classarch_1_1ROSComponentDescriptor.html" target="_top" xlink:title="{arch::ROSComponentDescriptor\n||+ ROSComponentDescriptor()\l+ ~ROSComponentDescriptor()\l+ setName()\l+ getName()\l+ setFreq()\l+ getFreq()\l}">
<polygon fill="#ffffff" stroke="#000000" points="0,-463.5 0,-575.5 170,-575.5 170,-463.5 0,-463.5"/>
<text text-anchor="middle" x="85" y="-563.5" font-family="Helvetica,sans-Serif" font-size="10.00" fill="#000000">arch::ROSComponentDescriptor</text>
<polyline fill="none" stroke="#000000" points="0,-556.5 170,-556.5 "/>
<text text-anchor="middle" x="85" y="-544.5" font-family="Helvetica,sans-Serif" font-size="10.00" fill="#000000"> </text>
<polyline fill="none" stroke="#000000" points="0,-537.5 170,-537.5 "/>
<text text-anchor="start" x="8" y="-525.5" font-family="Helvetica,sans-Serif" font-size="10.00" fill="#000000">+ ROSComponentDescriptor()</text>
<text text-anchor="start" x="8" y="-514.5" font-family="Helvetica,sans-Serif" font-size="10.00" fill="#000000">+ ~ROSComponentDescriptor()</text>
<text text-anchor="start" x="8" y="-503.5" font-family="Helvetica,sans-Serif" font-size="10.00" fill="#000000">+ setName()</text>
<text text-anchor="start" x="8" y="-492.5" font-family="Helvetica,sans-Serif" font-size="10.00" fill="#000000">+ getName()</text>
<text text-anchor="start" x="8" y="-481.5" font-family="Helvetica,sans-Serif" font-size="10.00" fill="#000000">+ setFreq()</text>
<text text-anchor="start" x="8" y="-470.5" font-family="Helvetica,sans-Serif" font-size="10.00" fill="#000000">+ getFreq()</text>
</a>
</g>
</g>
<!-- Node6&#45;&gt;Node5 -->
<g id="edge2" class="edge">
<title>Node6&#45;&gt;Node5</title>
<path fill="none" stroke="#404040" d="M86.9779,-463.4138C87.7318,-442.0341 88.6028,-417.3358 89.4055,-394.5725"/>
<polygon fill="none" stroke="#404040" points="89.4076,-394.5097 85.6216,-388.3724 89.8306,-382.5172 93.6166,-388.6544 89.4076,-394.5097"/>
<text text-anchor="middle" x="154.5" y="-437" font-family="Helvetica,sans-Serif" font-size="10.00" fill="#000000"> #rosComponentDescriptor</text>
</g>
<!-- Node7 -->
<g id="node4" class="node">
<title>Node7</title>
<polygon fill="#ffffff" stroke="#bfbfbf" points="179,-287 179,-355 301,-355 301,-287 179,-287"/>
<text text-anchor="start" x="187" y="-343" font-family="Helvetica,sans-Serif" font-size="10.00" fill="#000000">std::map&lt; std::string,</text>
<text text-anchor="middle" x="240" y="-332" font-family="Helvetica,sans-Serif" font-size="10.00" fill="#000000"> int &gt;</text>
<polyline fill="none" stroke="#bfbfbf" points="179,-325 301,-325 "/>
<text text-anchor="middle" x="240" y="-313" font-family="Helvetica,sans-Serif" font-size="10.00" fill="#000000"> </text>
<polyline fill="none" stroke="#bfbfbf" points="179,-306 301,-306 "/>
<text text-anchor="middle" x="240" y="-294" font-family="Helvetica,sans-Serif" font-size="10.00" fill="#000000"> </text>
</g>
<!-- Node7&#45;&gt;Node4 -->
<g id="edge3" class="edge">
<title>Node7&#45;&gt;Node4</title>
<path fill="none" stroke="#404040" d="M240.1547,-286.8395C241.9043,-257.515 248.4375,-215.4427 270,-186 291.0923,-157.1993 322.9677,-135.24 353.8223,-119.2097"/>
<polygon fill="none" stroke="#404040" points="353.9403,-119.1508 357.5187,-112.8902 364.674,-113.7854 361.0956,-120.046 353.9403,-119.1508"/>
<text text-anchor="middle" x="335.5" y="-200" font-family="Helvetica,sans-Serif" font-size="10.00" fill="#000000"> +deactivatedComponents</text>
<text text-anchor="middle" x="335.5" y="-189" font-family="Helvetica,sans-Serif" font-size="10.00" fill="#000000">+priority</text>
</g>
<!-- Node8 -->
<g id="node5" class="node">
<title>Node8</title>
<polygon fill="#ffffff" stroke="#bfbfbf" points="226.5,-491 226.5,-548 255.5,-548 255.5,-491 226.5,-491"/>
<text text-anchor="middle" x="241" y="-536" font-family="Helvetica,sans-Serif" font-size="10.00" fill="#000000">int</text>
<polyline fill="none" stroke="#bfbfbf" points="226.5,-529 255.5,-529 "/>
<text text-anchor="middle" x="241" y="-517" font-family="Helvetica,sans-Serif" font-size="10.00" fill="#000000"> </text>
<polyline fill="none" stroke="#bfbfbf" points="226.5,-510 255.5,-510 "/>
<text text-anchor="middle" x="241" y="-498" font-family="Helvetica,sans-Serif" font-size="10.00" fill="#000000"> </text>
</g>
<!-- Node8&#45;&gt;Node7 -->
<g id="edge4" class="edge">
<title>Node8&#45;&gt;Node7</title>
<path fill="none" stroke="#404040" d="M240.8546,-490.6364C240.692,-458.3701 240.4265,-405.6553 240.2345,-367.5449"/>
<polygon fill="none" stroke="#404040" points="240.233,-367.2309 236.2028,-361.2511 240.1724,-355.231 244.2027,-361.2108 240.233,-367.2309"/>
<text text-anchor="middle" x="270" y="-437" font-family="Helvetica,sans-Serif" font-size="10.00" fill="#000000"> +elements</text>
</g>
<!-- Node9 -->
<g id="node6" class="node">
<title>Node9</title>
<g id="a_node6"><a xlink:title="STL class. ">
<polygon fill="#ffffff" stroke="#bfbfbf" points="318.5,-491 318.5,-548 383.5,-548 383.5,-491 318.5,-491"/>
<text text-anchor="middle" x="351" y="-536" font-family="Helvetica,sans-Serif" font-size="10.00" fill="#000000">std::string</text>
<polyline fill="none" stroke="#bfbfbf" points="318.5,-529 383.5,-529 "/>
<text text-anchor="middle" x="351" y="-517" font-family="Helvetica,sans-Serif" font-size="10.00" fill="#000000"> </text>
<polyline fill="none" stroke="#bfbfbf" points="318.5,-510 383.5,-510 "/>
<text text-anchor="middle" x="351" y="-498" font-family="Helvetica,sans-Serif" font-size="10.00" fill="#000000"> </text>
</a>
</g>
</g>
<!-- Node9&#45;&gt;Node7 -->
<g id="edge5" class="edge">
<title>Node9&#45;&gt;Node7</title>
<path fill="none" stroke="#404040" d="M334.8596,-490.6364C316.5812,-457.9492 286.5678,-404.2767 265.1979,-366.0612"/>
<polygon fill="none" stroke="#404040" points="264.9987,-365.7047 258.579,-362.4202 259.1418,-355.231 265.5614,-358.5156 264.9987,-365.7047"/>
<text text-anchor="middle" x="326.5" y="-437" font-family="Helvetica,sans-Serif" font-size="10.00" fill="#000000"> +keys</text>
</g>
<!-- Node13 -->
<g id="node10" class="node">
<title>Node13</title>
<polygon fill="#ffffff" stroke="#bfbfbf" points="319,-287 319,-355 441,-355 441,-287 319,-287"/>
<text text-anchor="start" x="327" y="-343" font-family="Helvetica,sans-Serif" font-size="10.00" fill="#000000">std::map&lt; std::string,</text>
<text text-anchor="middle" x="380" y="-332" font-family="Helvetica,sans-Serif" font-size="10.00" fill="#000000"> double &gt;</text>
<polyline fill="none" stroke="#bfbfbf" points="319,-325 441,-325 "/>
<text text-anchor="middle" x="380" y="-313" font-family="Helvetica,sans-Serif" font-size="10.00" fill="#000000"> </text>
<polyline fill="none" stroke="#bfbfbf" points="319,-306 441,-306 "/>
<text text-anchor="middle" x="380" y="-294" font-family="Helvetica,sans-Serif" font-size="10.00" fill="#000000"> </text>
</g>
<!-- Node9&#45;&gt;Node13 -->
<g id="edge11" class="edge">
<title>Node9&#45;&gt;Node13</title>
<path fill="none" stroke="#404040" d="M355.2168,-490.6364C359.9308,-458.3701 367.6322,-405.6553 373.2,-367.5449"/>
<polygon fill="none" stroke="#404040" points="373.2642,-367.105 370.1736,-360.5897 374.999,-355.231 378.0896,-361.7463 373.2642,-367.105"/>
<text text-anchor="middle" x="380.5" y="-437" font-family="Helvetica,sans-Serif" font-size="10.00" fill="#000000"> +keys</text>
</g>
<!-- Node10 -->
<g id="node7" class="node">
<title>Node10</title>
<g id="a_node7"><a xlink:title="STL class. ">
<polygon fill="#ffffff" stroke="#bfbfbf" points="299,-613.5 299,-681.5 403,-681.5 403,-613.5 299,-613.5"/>
<text text-anchor="start" x="307" y="-669.5" font-family="Helvetica,sans-Serif" font-size="10.00" fill="#000000">std::basic_string&lt;</text>
<text text-anchor="middle" x="351" y="-658.5" font-family="Helvetica,sans-Serif" font-size="10.00" fill="#000000"> char &gt;</text>
<polyline fill="none" stroke="#bfbfbf" points="299,-651.5 403,-651.5 "/>
<text text-anchor="middle" x="351" y="-639.5" font-family="Helvetica,sans-Serif" font-size="10.00" fill="#000000"> </text>
<polyline fill="none" stroke="#bfbfbf" points="299,-632.5 403,-632.5 "/>
<text text-anchor="middle" x="351" y="-620.5" font-family="Helvetica,sans-Serif" font-size="10.00" fill="#000000"> </text>
</a>
</g>
</g>
<!-- Node10&#45;&gt;Node9 -->
<g id="edge6" class="edge">
<title>Node10&#45;&gt;Node9</title>
<path fill="none" stroke="#191970" d="M351,-603.102C351,-584.9277 351,-564.4191 351,-548.2631"/>
<polygon fill="none" stroke="#191970" points="347.5001,-603.1983 351,-613.1983 354.5001,-603.1984 347.5001,-603.1983"/>
</g>
<!-- Node11 -->
<g id="node8" class="node">
<title>Node11</title>
<polygon fill="#ffffff" stroke="#bfbfbf" points="529,-491 529,-548 579,-548 579,-491 529,-491"/>
<text text-anchor="middle" x="554" y="-536" font-family="Helvetica,sans-Serif" font-size="10.00" fill="#000000">double</text>
<polyline fill="none" stroke="#bfbfbf" points="529,-529 579,-529 "/>
<text text-anchor="middle" x="554" y="-517" font-family="Helvetica,sans-Serif" font-size="10.00" fill="#000000"> </text>
<polyline fill="none" stroke="#bfbfbf" points="529,-510 579,-510 "/>
<text text-anchor="middle" x="554" y="-498" font-family="Helvetica,sans-Serif" font-size="10.00" fill="#000000"> </text>
</g>
<!-- Node11&#45;&gt;Node4 -->
<g id="edge7" class="edge">
<title>Node11&#45;&gt;Node4</title>
<path fill="none" stroke="#404040" d="M569.3725,-490.6679C599.3349,-430.194 658.0001,-287.3208 603,-186 588.485,-159.2605 563.5949,-138.4384 537.8573,-122.7814"/>
<polygon fill="none" stroke="#404040" points="537.5779,-122.6195 530.381,-123.0715 527.1957,-116.602 534.3927,-116.15 537.5779,-122.6195"/>
<text text-anchor="middle" x="667" y="-329.5" font-family="Helvetica,sans-Serif" font-size="10.00" fill="#000000"> +actuation_freq</text>
<text text-anchor="middle" x="667" y="-318.5" font-family="Helvetica,sans-Serif" font-size="10.00" fill="#000000">+monitor_freq</text>
<text text-anchor="middle" x="667" y="-307.5" font-family="Helvetica,sans-Serif" font-size="10.00" fill="#000000">+info_quant</text>
</g>
<!-- Node11&#45;&gt;Node13 -->
<g id="edge10" class="edge">
<title>Node11&#45;&gt;Node13</title>
<path fill="none" stroke="#404040" d="M528.9702,-496.6546C507.2041,-476.3162 475.28,-445.3273 450,-416 436.2645,-400.0655 422.2853,-381.6289 410.4679,-365.2614"/>
<polygon fill="none" stroke="#404040" points="410.3843,-365.1443 403.6423,-362.5859 403.4108,-355.3785 410.1528,-357.9369 410.3843,-365.1443"/>
<text text-anchor="middle" x="504" y="-437" font-family="Helvetica,sans-Serif" font-size="10.00" fill="#000000"> +elements</text>
</g>
<!-- Node12 -->
<g id="node9" class="node">
<title>Node12</title>
<g id="a_node9"><a xlink:href="classbsn_1_1model_1_1Formula.html" target="_top" xlink:title="{bsn::model::Formula\n||+ Formula()\l+ Formula()\l+ Formula()\l+ ~Formula()\l+ Formula()\l+ operator=()\l+ getExpression()\l+ setExpression()\l+ getTermValueMap()\l+ setTermValueMap()\l+ setTermValueMap()\l+ evaluate()\l+ getTerms()\l}">
<polygon fill="#ffffff" stroke="#000000" points="459,-226.5 459,-415.5 581,-415.5 581,-226.5 459,-226.5"/>
<text text-anchor="middle" x="520" y="-403.5" font-family="Helvetica,sans-Serif" font-size="10.00" fill="#000000">bsn::model::Formula</text>
<polyline fill="none" stroke="#000000" points="459,-396.5 581,-396.5 "/>
<text text-anchor="middle" x="520" y="-384.5" font-family="Helvetica,sans-Serif" font-size="10.00" fill="#000000"> </text>
<polyline fill="none" stroke="#000000" points="459,-377.5 581,-377.5 "/>
<text text-anchor="start" x="467" y="-365.5" font-family="Helvetica,sans-Serif" font-size="10.00" fill="#000000">+ Formula()</text>
<text text-anchor="start" x="467" y="-354.5" font-family="Helvetica,sans-Serif" font-size="10.00" fill="#000000">+ Formula()</text>
<text text-anchor="start" x="467" y="-343.5" font-family="Helvetica,sans-Serif" font-size="10.00" fill="#000000">+ Formula()</text>
<text text-anchor="start" x="467" y="-332.5" font-family="Helvetica,sans-Serif" font-size="10.00" fill="#000000">+ ~Formula()</text>
<text text-anchor="start" x="467" y="-321.5" font-family="Helvetica,sans-Serif" font-size="10.00" fill="#000000">+ Formula()</text>
<text text-anchor="start" x="467" y="-310.5" font-family="Helvetica,sans-Serif" font-size="10.00" fill="#000000">+ operator=()</text>
<text text-anchor="start" x="467" y="-299.5" font-family="Helvetica,sans-Serif" font-size="10.00" fill="#000000">+ getExpression()</text>
<text text-anchor="start" x="467" y="-288.5" font-family="Helvetica,sans-Serif" font-size="10.00" fill="#000000">+ setExpression()</text>
<text text-anchor="start" x="467" y="-277.5" font-family="Helvetica,sans-Serif" font-size="10.00" fill="#000000">+ getTermValueMap()</text>
<text text-anchor="start" x="467" y="-266.5" font-family="Helvetica,sans-Serif" font-size="10.00" fill="#000000">+ setTermValueMap()</text>
<text text-anchor="start" x="467" y="-255.5" font-family="Helvetica,sans-Serif" font-size="10.00" fill="#000000">+ setTermValueMap()</text>
<text text-anchor="start" x="467" y="-244.5" font-family="Helvetica,sans-Serif" font-size="10.00" fill="#000000">+ evaluate()</text>
<text text-anchor="start" x="467" y="-233.5" font-family="Helvetica,sans-Serif" font-size="10.00" fill="#000000">+ getTerms()</text>
</a>
</g>
</g>
<!-- Node12&#45;&gt;Node4 -->
<g id="edge8" class="edge">
<title>Node12&#45;&gt;Node4</title>
<path fill="none" stroke="#404040" d="M490.4342,-226.3096C485.6222,-210.898 480.6352,-194.9261 475.8171,-179.4954"/>
<polygon fill="none" stroke="#404040" points="475.748,-179.2738 470.1415,-174.7387 472.1714,-167.8192 477.7779,-172.3543 475.748,-179.2738"/>
<text text-anchor="middle" x="542" y="-194.5" font-family="Helvetica,sans-Serif" font-size="10.00" fill="#000000"> +target_system_model</text>
</g>
<!-- Node13&#45;&gt;Node4 -->
<g id="edge9" class="edge">
<title>Node13&#45;&gt;Node4</title>
<path fill="none" stroke="#404040" d="M386.3988,-286.8718C391.8318,-259.4058 400.281,-219.929 410,-186 410.6496,-183.7321 411.3222,-181.4412 412.0139,-179.1349"/>
<polygon fill="none" stroke="#404040" points="412.0635,-178.9745 410.0178,-172.0596 415.614,-167.5117 417.6597,-174.4266 412.0635,-178.9745"/>
<text text-anchor="middle" x="436" y="-194.5" font-family="Helvetica,sans-Serif" font-size="10.00" fill="#000000"> +strategy</text>
</g>
<!-- Node14 -->
<g id="node11" class="node">
<title>Node14</title>
<polygon fill="#ffffff" stroke="#bfbfbf" points="717,-292.5 717,-349.5 801,-349.5 801,-292.5 717,-292.5"/>
<text text-anchor="middle" x="759" y="-337.5" font-family="Helvetica,sans-Serif" font-size="10.00" fill="#000000">ServiceServer</text>
<polyline fill="none" stroke="#bfbfbf" points="717,-330.5 801,-330.5 "/>
<text text-anchor="middle" x="759" y="-318.5" font-family="Helvetica,sans-Serif" font-size="10.00" fill="#000000"> </text>
<polyline fill="none" stroke="#bfbfbf" points="717,-311.5 801,-311.5 "/>
<text text-anchor="middle" x="759" y="-299.5" font-family="Helvetica,sans-Serif" font-size="10.00" fill="#000000"> </text>
</g>
<!-- Node14&#45;&gt;Node4 -->
<g id="edge12" class="edge">
<title>Node14&#45;&gt;Node4</title>
<path fill="none" stroke="#404040" d="M746.9535,-292.1188C737.3554,-271.7484 722.3305,-244.8429 703,-226 655.8861,-180.0745 590.9517,-144.3626 538.1423,-120.2393"/>
<polygon fill="none" stroke="#404040" points="538.0157,-120.1825 530.9038,-121.3745 527.0682,-115.2681 534.1801,-114.0761 538.0157,-120.1825"/>
<text text-anchor="middle" x="722.5" y="-194.5" font-family="Helvetica,sans-Serif" font-size="10.00" fill="#000000"> +enactor_server</text>
</g>
</g>
</svg>
