<?xml version="1.0" encoding="UTF-8" standalone="no"?>
<!DOCTYPE svg PUBLIC "-//W3C//DTD SVG 1.1//EN"
 "http://www.w3.org/Graphics/SVG/1.1/DTD/svg11.dtd">
<!-- Generated by graphviz version 2.40.1 (20161225.0304)
 -->
<!-- Title: services.srv._PatientData.PatientData Pages: 1 -->
<svg width="151pt" height="171pt"
 viewBox="0.00 0.00 151.00 171.00" xmlns="http://www.w3.org/2000/svg" xmlns:xlink="http://www.w3.org/1999/xlink">
<g id="graph0" class="graph" transform="scale(1 1) rotate(0) translate(4 167)">
<title>services.srv._PatientData.PatientData</title>
<polygon fill="#ffffff" stroke="transparent" points="-4,4 -4,-167 147,-167 147,4 -4,4"/>
<!-- Node0 -->
<g id="node1" class="node">
<title>Node0</title>
<polygon fill="#bfbfbf" stroke="#000000" points="0,-.5 0,-68.5 143,-68.5 143,-.5 0,-.5"/>
<text text-anchor="start" x="8" y="-56.5" font-family="Helvetica,sans-Serif" font-size="10.00" fill="#000000">services.srv._PatientData.</text>
<text text-anchor="middle" x="71.5" y="-45.5" font-family="Helvetica,sans-Serif" font-size="10.00" fill="#000000">PatientData</text>
<polyline fill="none" stroke="#000000" points="0,-38.5 143,-38.5 "/>
<text text-anchor="middle" x="71.5" y="-26.5" font-family="Helvetica,sans-Serif" font-size="10.00" fill="#000000"> </text>
<polyline fill="none" stroke="#000000" points="0,-19.5 143,-19.5 "/>
<text text-anchor="middle" x="71.5" y="-7.5" font-family="Helvetica,sans-Serif" font-size="10.00" fill="#000000"> </text>
</g>
<!-- Node1 -->
<g id="node2" class="node">
<title>Node1</title>
<g id="a_node2"><a xlink:href="classobject.html" target="_top" xlink:title="{object\n||}">
<polygon fill="#ffffff" stroke="#000000" points="48,-105.5 48,-162.5 95,-162.5 95,-105.5 48,-105.5"/>
<text text-anchor="middle" x="71.5" y="-150.5" font-family="Helvetica,sans-Serif" font-size="10.00" fill="#000000">object</text>
<polyline fill="none" stroke="#000000" points="48,-143.5 95,-143.5 "/>
<text text-anchor="middle" x="71.5" y="-131.5" font-family="Helvetica,sans-Serif" font-size="10.00" fill="#000000"> </text>
<polyline fill="none" stroke="#000000" points="48,-124.5 95,-124.5 "/>
<text text-anchor="middle" x="71.5" y="-112.5" font-family="Helvetica,sans-Serif" font-size="10.00" fill="#000000"> </text>
</a>
</g>
</g>
<!-- Node1&#45;&gt;Node0 -->
<g id="edge1" class="edge">
<title>Node1&#45;&gt;Node0</title>
<path fill="none" stroke="#191970" d="M71.5,-95.4268C71.5,-86.6025 71.5,-77.2834 71.5,-68.6596"/>
<polygon fill="none" stroke="#191970" points="68.0001,-95.4873 71.5,-105.4873 75.0001,-95.4873 68.0001,-95.4873"/>
</g>
</g>
</svg>
