<?xml version="1.0" encoding="UTF-8" standalone="no"?>
<!DOCTYPE svg PUBLIC "-//W3C//DTD SVG 1.1//EN"
 "http://www.w3.org/Graphics/SVG/1.1/DTD/svg11.dtd">
<!-- Generated by graphviz version 2.40.1 (20161225.0304)
 -->
<!-- Title: bsn::goalmodel::Node::getChildren Pages: 1 -->
<svg width="322pt" height="116pt"
 viewBox="0.00 0.00 322.00 115.50" xmlns="http://www.w3.org/2000/svg" xmlns:xlink="http://www.w3.org/1999/xlink">
<g id="graph0" class="graph" transform="scale(1 1) rotate(0) translate(4 111.5)">
<title>bsn::goalmodel::Node::getChildren</title>
<polygon fill="#ffffff" stroke="transparent" points="-4,4 -4,-111.5 318,-111.5 318,4 -4,4"/>
<!-- Node15 -->
<g id="node1" class="node">
<title>Node15</title>
<polygon fill="#bfbfbf" stroke="#000000" points="0,-33 0,-63 123,-63 123,-33 0,-33"/>
<text text-anchor="start" x="8" y="-51" font-family="Helvetica,sans-Serif" font-size="10.00" fill="#000000">bsn::goalmodel::Node</text>
<text text-anchor="middle" x="61.5" y="-40" font-family="Helvetica,sans-Serif" font-size="10.00" fill="#000000">::getChildren</text>
</g>
<!-- Node16 -->
<g id="node2" class="node">
<title>Node16</title>
<g id="a_node2"><a xlink:href="classbsn_1_1goalmodel_1_1Node.html#a9a08ece2f46032f7fe474d341c3c22db" target="_top" xlink:title="bsn::goalmodel::Node\l::operator=">
<polygon fill="#ffffff" stroke="#000000" points="175,-77 175,-107 298,-107 298,-77 175,-77"/>
<text text-anchor="start" x="183" y="-95" font-family="Helvetica,sans-Serif" font-size="10.00" fill="#000000">bsn::goalmodel::Node</text>
<text text-anchor="middle" x="236.5" y="-84" font-family="Helvetica,sans-Serif" font-size="10.00" fill="#000000">::operator=</text>
</a>
</g>
</g>
<!-- Node15&#45;&gt;Node16 -->
<g id="edge1" class="edge">
<title>Node15&#45;&gt;Node16</title>
<path fill="none" stroke="#191970" d="M131.0444,-65.4855C146.1653,-69.2873 162.0337,-73.277 176.7367,-76.9738"/>
<polygon fill="#191970" stroke="#191970" points="131.7872,-62.0634 121.2356,-63.0192 130.0803,-68.8521 131.7872,-62.0634"/>
</g>
<!-- Node17 -->
<g id="node3" class="node">
<title>Node17</title>
<g id="a_node3"><a xlink:href="namespacebsn_1_1goalmodel.html#ae667127e89e6ad5a47bc0c6e86601687" target="_top" xlink:title="bsn::goalmodel::operator\&lt;\&lt;">
<polygon fill="#ffffff" stroke="#000000" points="159,-38.5 159,-57.5 314,-57.5 314,-38.5 159,-38.5"/>
<text text-anchor="middle" x="236.5" y="-45.5" font-family="Helvetica,sans-Serif" font-size="10.00" fill="#000000">bsn::goalmodel::operator&lt;&lt;</text>
</a>
</g>
</g>
<!-- Node15&#45;&gt;Node17 -->
<g id="edge2" class="edge">
<title>Node15&#45;&gt;Node17</title>
<path fill="none" stroke="#191970" d="M133.3251,-48C141.7259,-48 150.3261,-48 158.802,-48"/>
<polygon fill="#191970" stroke="#191970" points="133.1985,-44.5001 123.1985,-48 133.1984,-51.5001 133.1985,-44.5001"/>
</g>
<!-- Node18 -->
<g id="node4" class="node">
<title>Node18</title>
<g id="a_node4"><a xlink:href="GoalTest_8cpp.html#abed759dcd13129d547f84bfe9eaf1ee3" target="_top" xlink:title="TEST_F">
<polygon fill="#ffffff" stroke="#000000" points="211,-.5 211,-19.5 262,-19.5 262,-.5 211,-.5"/>
<text text-anchor="middle" x="236.5" y="-7.5" font-family="Helvetica,sans-Serif" font-size="10.00" fill="#000000">TEST_F</text>
</a>
</g>
</g>
<!-- Node15&#45;&gt;Node18 -->
<g id="edge3" class="edge">
<title>Node15&#45;&gt;Node18</title>
<path fill="none" stroke="#191970" d="M133.2186,-32.4268C160.7378,-26.4512 190.4109,-20.0079 210.8588,-15.5678"/>
<polygon fill="#191970" stroke="#191970" points="132.228,-29.0603 123.1985,-34.6026 133.7134,-35.9009 132.228,-29.0603"/>
</g>
</g>
</svg>
