<?xml version="1.0" encoding="UTF-8" standalone="no"?>
<!DOCTYPE svg PUBLIC "-//W3C//DTD SVG 1.1//EN"
 "http://www.w3.org/Graphics/SVG/1.1/DTD/svg11.dtd">
<!-- Generated by graphviz version 2.40.1 (20161225.0304)
 -->
<!-- Title: arch::target_system::Component::deactivate Pages: 1 -->
<svg width="519pt" height="39pt"
 viewBox="0.00 0.00 519.00 39.00" xmlns="http://www.w3.org/2000/svg" xmlns:xlink="http://www.w3.org/1999/xlink">
<g id="graph0" class="graph" transform="scale(1 1) rotate(0) translate(4 35)">
<title>arch::target_system::Component::deactivate</title>
<polygon fill="#ffffff" stroke="transparent" points="-4,4 -4,-35 515,-35 515,4 -4,4"/>
<!-- Node21 -->
<g id="node1" class="node">
<title>Node21</title>
<polygon fill="#bfbfbf" stroke="#000000" points="0,-.5 0,-30.5 137,-30.5 137,-.5 0,-.5"/>
<text text-anchor="start" x="8" y="-18.5" font-family="Helvetica,sans-Serif" font-size="10.00" fill="#000000">arch::target_system</text>
<text text-anchor="middle" x="68.5" y="-7.5" font-family="Helvetica,sans-Serif" font-size="10.00" fill="#000000">::Component::deactivate</text>
</g>
<!-- Node22 -->
<g id="node2" class="node">
<title>Node22</title>
<g id="a_node2"><a xlink:href="classCentralHub.html#a72336916ee15e722ee0b9f2c7c3747b6" target="_top" xlink:title="CentralHub::reconfigure">
<polygon fill="#ffffff" stroke="#000000" points="173,-6 173,-25 305,-25 305,-6 173,-6"/>
<text text-anchor="middle" x="239" y="-13" font-family="Helvetica,sans-Serif" font-size="10.00" fill="#000000">CentralHub::reconfigure</text>
</a>
</g>
</g>
<!-- Node21&#45;&gt;Node22 -->
<g id="edge1" class="edge">
<title>Node21&#45;&gt;Node22</title>
<path fill="none" stroke="#191970" d="M147.6215,-15.5C156.0877,-15.5 164.6349,-15.5 172.9268,-15.5"/>
<polygon fill="#191970" stroke="#191970" points="147.3575,-12.0001 137.3574,-15.5 147.3574,-19.0001 147.3575,-12.0001"/>
</g>
<!-- Node23 -->
<g id="node3" class="node">
<title>Node23</title>
<g id="a_node3"><a xlink:href="classCentralHub.html#a388e947318a28cf7cac762ac8b1cf3d4" target="_top" xlink:title="CentralHub::run">
<polygon fill="#ffffff" stroke="#000000" points="341,-6 341,-25 434,-25 434,-6 341,-6"/>
<text text-anchor="middle" x="387.5" y="-13" font-family="Helvetica,sans-Serif" font-size="10.00" fill="#000000">CentralHub::run</text>
</a>
</g>
</g>
<!-- Node22&#45;&gt;Node23 -->
<g id="edge2" class="edge">
<title>Node22&#45;&gt;Node23</title>
<path fill="none" stroke="#191970" d="M315.5028,-15.5C324.0896,-15.5 332.6361,-15.5 340.6825,-15.5"/>
<polygon fill="#191970" stroke="#191970" points="315.4319,-12.0001 305.4319,-15.5 315.4318,-19.0001 315.4319,-12.0001"/>
</g>
<!-- Node24 -->
<g id="node4" class="node">
<title>Node24</title>
<g id="a_node4"><a xlink:href="g4t1_8cpp.html#af19ddca125f05a2090dd132045573ee4" target="_top" xlink:title="main">
<polygon fill="#ffffff" stroke="#000000" points="470,-6 470,-25 511,-25 511,-6 470,-6"/>
<text text-anchor="middle" x="490.5" y="-13" font-family="Helvetica,sans-Serif" font-size="10.00" fill="#000000">main</text>
</a>
</g>
</g>
<!-- Node23&#45;&gt;Node24 -->
<g id="edge3" class="edge">
<title>Node23&#45;&gt;Node24</title>
<path fill="none" stroke="#191970" d="M444.2133,-15.5C453.4322,-15.5 462.4259,-15.5 469.9965,-15.5"/>
<polygon fill="#191970" stroke="#191970" points="444.1782,-12.0001 434.1782,-15.5 444.1781,-19.0001 444.1782,-12.0001"/>
</g>
</g>
</svg>
