<?xml version="1.0" encoding="UTF-8" standalone="no"?>
<!DOCTYPE svg PUBLIC "-//W3C//DTD SVG 1.1//EN"
 "http://www.w3.org/Graphics/SVG/1.1/DTD/svg11.dtd">
<!-- Generated by graphviz version 2.40.1 (20161225.0304)
 -->
<!-- Title: bsn::configuration::SensorConfiguration::getDisplacement Pages: 1 -->
<svg width="420pt" height="446pt"
 viewBox="0.00 0.00 420.00 446.00" xmlns="http://www.w3.org/2000/svg" xmlns:xlink="http://www.w3.org/1999/xlink">
<g id="graph0" class="graph" transform="scale(1 1) rotate(0) translate(4 442)">
<title>bsn::configuration::SensorConfiguration::getDisplacement</title>
<polygon fill="#ffffff" stroke="transparent" points="-4,4 -4,-442 416,-442 416,4 -4,4"/>
<!-- Node47 -->
<g id="node1" class="node">
<title>Node47</title>
<polygon fill="#bfbfbf" stroke="#000000" points="0,-198.5 0,-239.5 121,-239.5 121,-198.5 0,-198.5"/>
<text text-anchor="start" x="8" y="-227.5" font-family="Helvetica,sans-Serif" font-size="10.00" fill="#000000">bsn::configuration</text>
<text text-anchor="start" x="8" y="-216.5" font-family="Helvetica,sans-Serif" font-size="10.00" fill="#000000">::SensorConfiguration</text>
<text text-anchor="middle" x="60.5" y="-205.5" font-family="Helvetica,sans-Serif" font-size="10.00" fill="#000000">::getDisplacement</text>
</g>
<!-- Node48 -->
<g id="node2" class="node">
<title>Node48</title>
<g id="a_node2"><a xlink:href="classbsn_1_1configuration_1_1SensorConfiguration.html#a74040e24635beeffd7067a23c5bb91ab" target="_top" xlink:title="bsn::configuration\l::SensorConfiguration\l::evaluateNumber">
<polygon fill="#ffffff" stroke="#000000" points="157,-198.5 157,-239.5 278,-239.5 278,-198.5 157,-198.5"/>
<text text-anchor="start" x="165" y="-227.5" font-family="Helvetica,sans-Serif" font-size="10.00" fill="#000000">bsn::configuration</text>
<text text-anchor="start" x="165" y="-216.5" font-family="Helvetica,sans-Serif" font-size="10.00" fill="#000000">::SensorConfiguration</text>
<text text-anchor="middle" x="217.5" y="-205.5" font-family="Helvetica,sans-Serif" font-size="10.00" fill="#000000">::evaluateNumber</text>
</a>
</g>
</g>
<!-- Node47&#45;&gt;Node48 -->
<g id="edge1" class="edge">
<title>Node47&#45;&gt;Node48</title>
<path fill="none" stroke="#191970" d="M131.2098,-219C139.807,-219 148.5301,-219 156.9611,-219"/>
<polygon fill="#191970" stroke="#191970" points="131.2003,-215.5001 121.2003,-219 131.2003,-222.5001 131.2003,-215.5001"/>
</g>
<!-- Node49 -->
<g id="node3" class="node">
<title>Node49</title>
<g id="a_node3"><a xlink:href="classG3T1__1.html#a4696c0b3b423e6d0efe2a6f3f6e84cfa" target="_top" xlink:title="G3T1_1::collect">
<polygon fill="#ffffff" stroke="#000000" points="317,-418.5 317,-437.5 409,-437.5 409,-418.5 317,-418.5"/>
<text text-anchor="middle" x="363" y="-425.5" font-family="Helvetica,sans-Serif" font-size="10.00" fill="#000000">G3T1_1::collect</text>
</a>
</g>
</g>
<!-- Node48&#45;&gt;Node49 -->
<g id="edge2" class="edge">
<title>Node48&#45;&gt;Node49</title>
<path fill="none" stroke="#191970" d="M225.5238,-249.5632C237.8973,-291.058 265.4384,-365.0686 314,-409 318.2627,-412.8563 323.3949,-415.9652 328.7105,-418.4611"/>
<polygon fill="#191970" stroke="#191970" points="228.8297,-248.3948 222.7012,-239.7523 222.1025,-250.3302 228.8297,-248.3948"/>
</g>
<!-- Node50 -->
<g id="node4" class="node">
<title>Node50</title>
<g id="a_node4"><a xlink:href="classG3T1__1.html#a58277c46b8319bd35e3ffabd52805874" target="_top" xlink:title="G3T1_1::transfer">
<polygon fill="#ffffff" stroke="#000000" points="314,-380.5 314,-399.5 412,-399.5 412,-380.5 314,-380.5"/>
<text text-anchor="middle" x="363" y="-387.5" font-family="Helvetica,sans-Serif" font-size="10.00" fill="#000000">G3T1_1::transfer</text>
</a>
</g>
</g>
<!-- Node48&#45;&gt;Node50 -->
<g id="edge3" class="edge">
<title>Node48&#45;&gt;Node50</title>
<path fill="none" stroke="#191970" d="M229.6258,-249.0432C244.7226,-282.9754 273.545,-337.7794 314,-371 318.6539,-374.8216 324.165,-377.9356 329.782,-380.4528"/>
<polygon fill="#191970" stroke="#191970" points="232.7426,-247.4326 225.5583,-239.6455 226.3185,-250.2131 232.7426,-247.4326"/>
</g>
<!-- Node51 -->
<g id="node5" class="node">
<title>Node51</title>
<g id="a_node5"><a xlink:href="classG3T1__2.html#af0d9cc4619906329eeb799c5a35e142a" target="_top" xlink:title="G3T1_2::collect">
<polygon fill="#ffffff" stroke="#000000" points="317,-342.5 317,-361.5 409,-361.5 409,-342.5 317,-342.5"/>
<text text-anchor="middle" x="363" y="-349.5" font-family="Helvetica,sans-Serif" font-size="10.00" fill="#000000">G3T1_2::collect</text>
</a>
</g>
</g>
<!-- Node48&#45;&gt;Node51 -->
<g id="edge4" class="edge">
<title>Node48&#45;&gt;Node51</title>
<path fill="none" stroke="#191970" d="M236.1151,-248.3495C253.5446,-273.7699 281.6978,-309.9818 314,-333 319.2757,-336.7594 325.3941,-339.895 331.4819,-342.4636"/>
<polygon fill="#191970" stroke="#191970" points="238.8874,-246.1996 230.4081,-239.8473 233.0754,-250.1009 238.8874,-246.1996"/>
</g>
<!-- Node52 -->
<g id="node6" class="node">
<title>Node52</title>
<g id="a_node6"><a xlink:href="classG3T1__2.html#ac437972ecabb9e234c8717101d51eac8" target="_top" xlink:title="G3T1_2::transfer">
<polygon fill="#ffffff" stroke="#000000" points="314,-304.5 314,-323.5 412,-323.5 412,-304.5 314,-304.5"/>
<text text-anchor="middle" x="363" y="-311.5" font-family="Helvetica,sans-Serif" font-size="10.00" fill="#000000">G3T1_2::transfer</text>
</a>
</g>
</g>
<!-- Node48&#45;&gt;Node52 -->
<g id="edge5" class="edge">
<title>Node48&#45;&gt;Node52</title>
<path fill="none" stroke="#191970" d="M247.8221,-246.7284C266.0368,-262.3702 290.2277,-281.4359 314,-295 320.2606,-298.5722 327.3235,-301.749 334.0974,-304.4344"/>
<polygon fill="#191970" stroke="#191970" points="249.7331,-243.7509 239.8966,-239.8147 245.1315,-249.0259 249.7331,-243.7509"/>
</g>
<!-- Node53 -->
<g id="node7" class="node">
<title>Node53</title>
<g id="a_node7"><a xlink:href="classG3T1__3.html#a3519014bd56d810164d86d9756169c44" target="_top" xlink:title="G3T1_3::collect">
<polygon fill="#ffffff" stroke="#000000" points="317,-266.5 317,-285.5 409,-285.5 409,-266.5 317,-266.5"/>
<text text-anchor="middle" x="363" y="-273.5" font-family="Helvetica,sans-Serif" font-size="10.00" fill="#000000">G3T1_3::collect</text>
</a>
</g>
</g>
<!-- Node48&#45;&gt;Node53 -->
<g id="edge6" class="edge">
<title>Node48&#45;&gt;Node53</title>
<path fill="none" stroke="#191970" d="M279.1598,-243.336C290.7319,-247.8876 302.7322,-252.5969 314,-257 321.9034,-260.0884 330.5312,-263.4404 338.314,-266.4568"/>
<polygon fill="#191970" stroke="#191970" points="280.1524,-239.9654 269.5653,-239.56 277.5888,-246.4791 280.1524,-239.9654"/>
</g>
<!-- Node54 -->
<g id="node8" class="node">
<title>Node54</title>
<g id="a_node8"><a xlink:href="classG3T1__3.html#a4bd1c419743c7c128fd1c3cf4fa5e434" target="_top" xlink:title="G3T1_3::transfer">
<polygon fill="#ffffff" stroke="#000000" points="314,-228.5 314,-247.5 412,-247.5 412,-228.5 314,-228.5"/>
<text text-anchor="middle" x="363" y="-235.5" font-family="Helvetica,sans-Serif" font-size="10.00" fill="#000000">G3T1_3::transfer</text>
</a>
</g>
</g>
<!-- Node48&#45;&gt;Node54 -->
<g id="edge7" class="edge">
<title>Node48&#45;&gt;Node54</title>
<path fill="none" stroke="#191970" d="M288.4227,-228.2614C297.0309,-229.3855 305.6732,-230.514 313.8671,-231.584"/>
<polygon fill="#191970" stroke="#191970" points="288.7311,-224.772 278.362,-226.9476 287.8246,-231.7131 288.7311,-224.772"/>
</g>
<!-- Node55 -->
<g id="node9" class="node">
<title>Node55</title>
<g id="a_node9"><a xlink:href="classG3T1__4.html#aac00c133f2199079b671b3094496fb33" target="_top" xlink:title="G3T1_4::collect">
<polygon fill="#ffffff" stroke="#000000" points="317,-190.5 317,-209.5 409,-209.5 409,-190.5 317,-190.5"/>
<text text-anchor="middle" x="363" y="-197.5" font-family="Helvetica,sans-Serif" font-size="10.00" fill="#000000">G3T1_4::collect</text>
</a>
</g>
</g>
<!-- Node48&#45;&gt;Node55 -->
<g id="edge8" class="edge">
<title>Node48&#45;&gt;Node55</title>
<path fill="none" stroke="#191970" d="M288.4338,-209.7372C298.1414,-208.4695 307.8922,-207.1962 316.9941,-206.0076"/>
<polygon fill="#191970" stroke="#191970" points="287.8246,-206.2869 278.362,-211.0524 288.7311,-213.228 287.8246,-206.2869"/>
</g>
<!-- Node56 -->
<g id="node10" class="node">
<title>Node56</title>
<g id="a_node10"><a xlink:href="classG3T1__4.html#a20ad5272beba24e4879fb29985b85f69" target="_top" xlink:title="G3T1_4::transfer">
<polygon fill="#ffffff" stroke="#000000" points="314,-152.5 314,-171.5 412,-171.5 412,-152.5 314,-152.5"/>
<text text-anchor="middle" x="363" y="-159.5" font-family="Helvetica,sans-Serif" font-size="10.00" fill="#000000">G3T1_4::transfer</text>
</a>
</g>
</g>
<!-- Node48&#45;&gt;Node56 -->
<g id="edge9" class="edge">
<title>Node48&#45;&gt;Node56</title>
<path fill="none" stroke="#191970" d="M279.1598,-194.664C290.7319,-190.1124 302.7322,-185.4031 314,-181 321.9034,-177.9116 330.5312,-174.5596 338.314,-171.5432"/>
<polygon fill="#191970" stroke="#191970" points="277.5888,-191.5209 269.5653,-198.44 280.1524,-198.0346 277.5888,-191.5209"/>
</g>
<!-- Node57 -->
<g id="node11" class="node">
<title>Node57</title>
<g id="a_node11"><a xlink:href="classG3T1__5.html#a1aa8fb64b30b7263df5c2189fb5995dc" target="_top" xlink:title="G3T1_5::collect">
<polygon fill="#ffffff" stroke="#000000" points="317,-114.5 317,-133.5 409,-133.5 409,-114.5 317,-114.5"/>
<text text-anchor="middle" x="363" y="-121.5" font-family="Helvetica,sans-Serif" font-size="10.00" fill="#000000">G3T1_5::collect</text>
</a>
</g>
</g>
<!-- Node48&#45;&gt;Node57 -->
<g id="edge10" class="edge">
<title>Node48&#45;&gt;Node57</title>
<path fill="none" stroke="#191970" d="M247.8221,-191.2716C266.0368,-175.6298 290.2277,-156.5641 314,-143 320.2606,-139.4278 327.3235,-136.251 334.0974,-133.5656"/>
<polygon fill="#191970" stroke="#191970" points="245.1315,-188.9741 239.8966,-198.1853 249.7331,-194.2491 245.1315,-188.9741"/>
</g>
<!-- Node58 -->
<g id="node12" class="node">
<title>Node58</title>
<g id="a_node12"><a xlink:href="classG3T1__5.html#ae9918da7342a4fb88c6f633db43b9fe8" target="_top" xlink:title="G3T1_5::transfer">
<polygon fill="#ffffff" stroke="#000000" points="314,-76.5 314,-95.5 412,-95.5 412,-76.5 314,-76.5"/>
<text text-anchor="middle" x="363" y="-83.5" font-family="Helvetica,sans-Serif" font-size="10.00" fill="#000000">G3T1_5::transfer</text>
</a>
</g>
</g>
<!-- Node48&#45;&gt;Node58 -->
<g id="edge11" class="edge">
<title>Node48&#45;&gt;Node58</title>
<path fill="none" stroke="#191970" d="M236.1151,-189.6505C253.5446,-164.2301 281.6978,-128.0182 314,-105 319.2757,-101.2406 325.3941,-98.105 331.4819,-95.5364"/>
<polygon fill="#191970" stroke="#191970" points="233.0754,-187.8991 230.4081,-198.1527 238.8874,-191.8004 233.0754,-187.8991"/>
</g>
<!-- Node59 -->
<g id="node13" class="node">
<title>Node59</title>
<g id="a_node13"><a xlink:href="classG3T1__6.html#a0deb9a2b913d7753ef6708ccbd87df34" target="_top" xlink:title="G3T1_6::collect">
<polygon fill="#ffffff" stroke="#000000" points="317,-38.5 317,-57.5 409,-57.5 409,-38.5 317,-38.5"/>
<text text-anchor="middle" x="363" y="-45.5" font-family="Helvetica,sans-Serif" font-size="10.00" fill="#000000">G3T1_6::collect</text>
</a>
</g>
</g>
<!-- Node48&#45;&gt;Node59 -->
<g id="edge12" class="edge">
<title>Node48&#45;&gt;Node59</title>
<path fill="none" stroke="#191970" d="M229.6258,-188.9568C244.7226,-155.0246 273.545,-100.2206 314,-67 318.6539,-63.1784 324.165,-60.0644 329.782,-57.5472"/>
<polygon fill="#191970" stroke="#191970" points="226.3185,-187.7869 225.5583,-198.3545 232.7426,-190.5674 226.3185,-187.7869"/>
</g>
<!-- Node60 -->
<g id="node14" class="node">
<title>Node60</title>
<g id="a_node14"><a xlink:href="classG3T1__6.html#aaa3c643ee36464eca9e095d150926e22" target="_top" xlink:title="G3T1_6::transfer">
<polygon fill="#ffffff" stroke="#000000" points="314,-.5 314,-19.5 412,-19.5 412,-.5 314,-.5"/>
<text text-anchor="middle" x="363" y="-7.5" font-family="Helvetica,sans-Serif" font-size="10.00" fill="#000000">G3T1_6::transfer</text>
</a>
</g>
</g>
<!-- Node48&#45;&gt;Node60 -->
<g id="edge13" class="edge">
<title>Node48&#45;&gt;Node60</title>
<path fill="none" stroke="#191970" d="M225.5238,-188.4368C237.8973,-146.942 265.4384,-72.9314 314,-29 318.2627,-25.1437 323.3949,-22.0348 328.7105,-19.5389"/>
<polygon fill="#191970" stroke="#191970" points="222.1025,-187.6698 222.7012,-198.2477 228.8297,-189.6052 222.1025,-187.6698"/>
</g>
</g>
</svg>
