<?xml version="1.0" encoding="UTF-8" standalone="no"?>
<!DOCTYPE svg PUBLIC "-//W3C//DTD SVG 1.1//EN"
 "http://www.w3.org/Graphics/SVG/1.1/DTD/svg11.dtd">
<!-- Generated by graphviz version 2.40.1 (20161225.0304)
 -->
<!-- Title: CentralHub::reconfigure Pages: 1 -->
<svg width="346pt" height="28pt"
 viewBox="0.00 0.00 346.00 28.00" xmlns="http://www.w3.org/2000/svg" xmlns:xlink="http://www.w3.org/1999/xlink">
<g id="graph0" class="graph" transform="scale(1 1) rotate(0) translate(4 24)">
<title>CentralHub::reconfigure</title>
<polygon fill="#ffffff" stroke="transparent" points="-4,4 -4,-24 342,-24 342,4 -4,4"/>
<!-- Node38 -->
<g id="node1" class="node">
<title>Node38</title>
<polygon fill="#bfbfbf" stroke="#000000" points="0,-.5 0,-19.5 132,-19.5 132,-.5 0,-.5"/>
<text text-anchor="middle" x="66" y="-7.5" font-family="Helvetica,sans-Serif" font-size="10.00" fill="#000000">CentralHub::reconfigure</text>
</g>
<!-- Node39 -->
<g id="node2" class="node">
<title>Node39</title>
<g id="a_node2"><a xlink:href="classCentralHub.html#a388e947318a28cf7cac762ac8b1cf3d4" target="_top" xlink:title="CentralHub::run">
<polygon fill="#ffffff" stroke="#000000" points="168,-.5 168,-19.5 261,-19.5 261,-.5 168,-.5"/>
<text text-anchor="middle" x="214.5" y="-7.5" font-family="Helvetica,sans-Serif" font-size="10.00" fill="#000000">CentralHub::run</text>
</a>
</g>
</g>
<!-- Node38&#45;&gt;Node39 -->
<g id="edge1" class="edge">
<title>Node38&#45;&gt;Node39</title>
<path fill="none" stroke="#191970" d="M142.5028,-10C151.0896,-10 159.6361,-10 167.6825,-10"/>
<polygon fill="#191970" stroke="#191970" points="142.4319,-6.5001 132.4319,-10 142.4318,-13.5001 142.4319,-6.5001"/>
</g>
<!-- Node40 -->
<g id="node3" class="node">
<title>Node40</title>
<g id="a_node3"><a xlink:href="g4t1_8cpp.html#af19ddca125f05a2090dd132045573ee4" target="_top" xlink:title="main">
<polygon fill="#ffffff" stroke="#000000" points="297,-.5 297,-19.5 338,-19.5 338,-.5 297,-.5"/>
<text text-anchor="middle" x="317.5" y="-7.5" font-family="Helvetica,sans-Serif" font-size="10.00" fill="#000000">main</text>
</a>
</g>
</g>
<!-- Node39&#45;&gt;Node40 -->
<g id="edge2" class="edge">
<title>Node39&#45;&gt;Node40</title>
<path fill="none" stroke="#191970" d="M271.2133,-10C280.4322,-10 289.4259,-10 296.9965,-10"/>
<polygon fill="#191970" stroke="#191970" points="271.1782,-6.5001 261.1782,-10 271.1781,-13.5001 271.1782,-6.5001"/>
</g>
</g>
</svg>
