<?xml version="1.0" encoding="UTF-8" standalone="no"?>
<!DOCTYPE svg PUBLIC "-//W3C//DTD SVG 1.1//EN"
 "http://www.w3.org/Graphics/SVG/1.1/DTD/svg11.dtd">
<!-- Generated by graphviz version 2.40.1 (20161225.0304)
 -->
<!-- Title: arch::target_system::Component::sendEvent Pages: 1 -->
<svg width="350pt" height="88pt"
 viewBox="0.00 0.00 350.00 88.00" xmlns="http://www.w3.org/2000/svg" xmlns:xlink="http://www.w3.org/1999/xlink">
<g id="graph0" class="graph" transform="scale(1 1) rotate(0) translate(4 84)">
<title>arch::target_system::Component::sendEvent</title>
<polygon fill="#ffffff" stroke="transparent" points="-4,4 -4,-84 346,-84 346,4 -4,4"/>
<!-- Node47 -->
<g id="node1" class="node">
<title>Node47</title>
<polygon fill="#bfbfbf" stroke="#000000" points="0,-24.5 0,-54.5 136,-54.5 136,-24.5 0,-24.5"/>
<text text-anchor="start" x="8" y="-42.5" font-family="Helvetica,sans-Serif" font-size="10.00" fill="#000000">arch::target_system</text>
<text text-anchor="middle" x="68" y="-31.5" font-family="Helvetica,sans-Serif" font-size="10.00" fill="#000000">::Component::sendEvent</text>
</g>
<!-- Node48 -->
<g id="node2" class="node">
<title>Node48</title>
<g id="a_node2"><a xlink:href="classarch_1_1ROSComponentDescriptor.html#a462b00745d0de3f98d88f3eb1ba11e45" target="_top" xlink:title="arch::ROSComponentDescriptor\l::getName">
<polygon fill="#ffffff" stroke="#000000" points="172,-49.5 172,-79.5 342,-79.5 342,-49.5 172,-49.5"/>
<text text-anchor="start" x="180" y="-67.5" font-family="Helvetica,sans-Serif" font-size="10.00" fill="#000000">arch::ROSComponentDescriptor</text>
<text text-anchor="middle" x="257" y="-56.5" font-family="Helvetica,sans-Serif" font-size="10.00" fill="#000000">::getName</text>
</a>
</g>
</g>
<!-- Node47&#45;&gt;Node48 -->
<g id="edge1" class="edge">
<title>Node47&#45;&gt;Node48</title>
<path fill="none" stroke="#191970" d="M136.2333,-48.5256C144.5171,-49.6213 153.0933,-50.7557 161.6786,-51.8914"/>
<polygon fill="#191970" stroke="#191970" points="161.3715,-55.3811 171.7442,-53.2228 162.2895,-48.4416 161.3715,-55.3811"/>
</g>
<!-- Node49 -->
<g id="node3" class="node">
<title>Node49</title>
<g id="a_node3"><a xlink:href="classarch_1_1ROSComponentDescriptor.html#a4b73f46f37241865a08e75ab202e28eb" target="_top" xlink:title="arch::ROSComponentDescriptor\l::getFreq">
<polygon fill="#ffffff" stroke="#000000" points="172,-.5 172,-30.5 342,-30.5 342,-.5 172,-.5"/>
<text text-anchor="start" x="180" y="-18.5" font-family="Helvetica,sans-Serif" font-size="10.00" fill="#000000">arch::ROSComponentDescriptor</text>
<text text-anchor="middle" x="257" y="-7.5" font-family="Helvetica,sans-Serif" font-size="10.00" fill="#000000">::getFreq</text>
</a>
</g>
</g>
<!-- Node47&#45;&gt;Node49 -->
<g id="edge2" class="edge">
<title>Node47&#45;&gt;Node49</title>
<path fill="none" stroke="#191970" d="M136.2333,-30.8354C144.5171,-29.7835 153.0933,-28.6945 161.6786,-27.6043"/>
<polygon fill="#191970" stroke="#191970" points="162.2648,-31.0581 171.7442,-26.3261 161.3829,-24.1138 162.2648,-31.0581"/>
</g>
</g>
</svg>
