<?xml version="1.0" encoding="UTF-8" standalone="no"?>
<!DOCTYPE svg PUBLIC "-//W3C//DTD SVG 1.1//EN"
 "http://www.w3.org/Graphics/SVG/1.1/DTD/svg11.dtd">
<!-- Generated by graphviz version 2.40.1 (20161225.0304)
 -->
<!-- Title: arch::ROSComponentDescriptor::getFreq Pages: 1 -->
<svg width="952pt" height="481pt"
 viewBox="0.00 0.00 952.00 481.00" xmlns="http://www.w3.org/2000/svg" xmlns:xlink="http://www.w3.org/1999/xlink">
<g id="graph0" class="graph" transform="scale(1 1) rotate(0) translate(4 477)">
<title>arch::ROSComponentDescriptor::getFreq</title>
<polygon fill="#ffffff" stroke="transparent" points="-4,4 -4,-477 948,-477 948,4 -4,4"/>
<!-- Node9 -->
<g id="node1" class="node">
<title>Node9</title>
<polygon fill="#bfbfbf" stroke="#000000" points="0,-185 0,-215 170,-215 170,-185 0,-185"/>
<text text-anchor="start" x="8" y="-203" font-family="Helvetica,sans-Serif" font-size="10.00" fill="#000000">arch::ROSComponentDescriptor</text>
<text text-anchor="middle" x="85" y="-192" font-family="Helvetica,sans-Serif" font-size="10.00" fill="#000000">::getFreq</text>
</g>
<!-- Node10 -->
<g id="node2" class="node">
<title>Node10</title>
<g id="a_node2"><a xlink:href="classarch_1_1ROSComponent.html#acb85f671d782a1c628fcbf9b36abf21d" target="_top" xlink:title="arch::ROSComponent::run">
<polygon fill="#ffffff" stroke="#000000" points="220,-453.5 220,-472.5 362,-472.5 362,-453.5 220,-453.5"/>
<text text-anchor="middle" x="291" y="-460.5" font-family="Helvetica,sans-Serif" font-size="10.00" fill="#000000">arch::ROSComponent::run</text>
</a>
</g>
</g>
<!-- Node9&#45;&gt;Node10 -->
<g id="edge1" class="edge">
<title>Node9&#45;&gt;Node10</title>
<path fill="none" stroke="#191970" d="M89.9484,-225.1285C101.1619,-275.1025 133.387,-387.0403 206,-444 210.878,-447.8264 216.3737,-450.9145 222.1642,-453.4027"/>
<polygon fill="#191970" stroke="#191970" points="93.3327,-224.2177 87.8117,-215.175 86.4886,-225.6869 93.3327,-224.2177"/>
</g>
<!-- Node12 -->
<g id="node4" class="node">
<title>Node12</title>
<g id="a_node4"><a xlink:href="classarch_1_1ROSComponentDescriptor.html#a9149fc01ac3ad2c104d7b1765a66a46c" target="_top" xlink:title="arch::ROSComponentDescriptor\l::~ROSComponentDescriptor">
<polygon fill="#ffffff" stroke="#000000" points="206,-404 206,-434 376,-434 376,-404 206,-404"/>
<text text-anchor="start" x="214" y="-422" font-family="Helvetica,sans-Serif" font-size="10.00" fill="#000000">arch::ROSComponentDescriptor</text>
<text text-anchor="middle" x="291" y="-411" font-family="Helvetica,sans-Serif" font-size="10.00" fill="#000000">::~ROSComponentDescriptor</text>
</a>
</g>
</g>
<!-- Node9&#45;&gt;Node12 -->
<g id="edge3" class="edge">
<title>Node9&#45;&gt;Node12</title>
<path fill="none" stroke="#191970" d="M94.3971,-224.4265C110.9797,-264.4217 149.1459,-343.9281 206,-389 213.7257,-395.1247 222.7967,-400.0517 232.083,-403.9997"/>
<polygon fill="#191970" stroke="#191970" points="97.6415,-223.1132 90.648,-215.1545 91.1519,-225.7373 97.6415,-223.1132"/>
</g>
<!-- Node13 -->
<g id="node5" class="node">
<title>Node13</title>
<g id="a_node5"><a xlink:href="classarch_1_1target__system_1_1Component.html#ac590323763a5ea9e7edf1a5e67f8a94f" target="_top" xlink:title="arch::target_system\l::Component::run">
<polygon fill="#ffffff" stroke="#000000" points="753,-338 753,-368 867,-368 867,-338 753,-338"/>
<text text-anchor="start" x="761" y="-356" font-family="Helvetica,sans-Serif" font-size="10.00" fill="#000000">arch::target_system</text>
<text text-anchor="middle" x="810" y="-345" font-family="Helvetica,sans-Serif" font-size="10.00" fill="#000000">::Component::run</text>
</a>
</g>
</g>
<!-- Node9&#45;&gt;Node13 -->
<g id="edge4" class="edge">
<title>Node9&#45;&gt;Node13</title>
<path fill="none" stroke="#191970" d="M104.667,-223.1299C126.8109,-247.6666 165.079,-285.7586 206,-307 387.0775,-400.9945 640.5744,-378.9454 752.7409,-362.7522"/>
<polygon fill="#191970" stroke="#191970" points="107.0458,-220.5369 97.7949,-215.3723 101.806,-225.1785 107.0458,-220.5369"/>
</g>
<!-- Node14 -->
<g id="node6" class="node">
<title>Node14</title>
<g id="a_node6"><a xlink:href="classarch_1_1target__system_1_1Component.html#a9d793970d5fbdef5c31e5ab901b98030" target="_top" xlink:title="arch::target_system\l::Component::sendEvent">
<polygon fill="#ffffff" stroke="#000000" points="223,-267 223,-297 359,-297 359,-267 223,-267"/>
<text text-anchor="start" x="231" y="-285" font-family="Helvetica,sans-Serif" font-size="10.00" fill="#000000">arch::target_system</text>
<text text-anchor="middle" x="291" y="-274" font-family="Helvetica,sans-Serif" font-size="10.00" fill="#000000">::Component::sendEvent</text>
</a>
</g>
</g>
<!-- Node9&#45;&gt;Node14 -->
<g id="edge5" class="edge">
<title>Node9&#45;&gt;Node14</title>
<path fill="none" stroke="#191970" d="M127.5602,-219.1127C150.621,-229.26 179.7025,-241.7217 206,-252 219.1178,-257.1271 233.5179,-262.357 246.6772,-266.9839"/>
<polygon fill="#191970" stroke="#191970" points="128.9557,-215.9029 118.3943,-215.0621 126.1262,-222.3056 128.9557,-215.9029"/>
</g>
<!-- Node17 -->
<g id="node9" class="node">
<title>Node17</title>
<g id="a_node9"><a xlink:href="classCentralHub.html#a72336916ee15e722ee0b9f2c7c3747b6" target="_top" xlink:title="CentralHub::reconfigure">
<polygon fill="#ffffff" stroke="#000000" points="585,-252.5 585,-271.5 717,-271.5 717,-252.5 585,-252.5"/>
<text text-anchor="middle" x="651" y="-259.5" font-family="Helvetica,sans-Serif" font-size="10.00" fill="#000000">CentralHub::reconfigure</text>
</a>
</g>
</g>
<!-- Node9&#45;&gt;Node17 -->
<g id="edge19" class="edge">
<title>Node9&#45;&gt;Node17</title>
<path fill="none" stroke="#191970" d="M180.4145,-211.1096C189.0646,-212.0956 197.692,-213.0713 206,-214 340.37,-229.0202 497.6597,-245.7971 584.637,-255.0037"/>
<polygon fill="#191970" stroke="#191970" points="180.6003,-207.6081 170.2674,-209.9495 179.8051,-214.5628 180.6003,-207.6081"/>
</g>
<!-- Node18 -->
<g id="node10" class="node">
<title>Node18</title>
<g id="a_node10"><a xlink:href="classCentralHub.html#a388e947318a28cf7cac762ac8b1cf3d4" target="_top" xlink:title="CentralHub::run">
<polygon fill="#ffffff" stroke="#000000" points="763.5,-211.5 763.5,-230.5 856.5,-230.5 856.5,-211.5 763.5,-211.5"/>
<text text-anchor="middle" x="810" y="-218.5" font-family="Helvetica,sans-Serif" font-size="10.00" fill="#000000">CentralHub::run</text>
</a>
</g>
</g>
<!-- Node9&#45;&gt;Node18 -->
<g id="edge18" class="edge">
<title>Node9&#45;&gt;Node18</title>
<path fill="none" stroke="#191970" d="M180.4394,-202.7645C337.7589,-207.3213 645.7825,-216.2434 763.1014,-219.6416"/>
<polygon fill="#191970" stroke="#191970" points="180.3958,-199.2618 170.2986,-202.4707 180.1931,-206.2589 180.3958,-199.2618"/>
</g>
<!-- Node21 -->
<g id="node13" class="node">
<title>Node21</title>
<g id="a_node13"><a xlink:href="classDataAccess.html#a01b996865224272d1bcafe6307442422" target="_top" xlink:title="DataAccess::body">
<polygon fill="#ffffff" stroke="#000000" points="239,-152.5 239,-171.5 343,-171.5 343,-152.5 239,-152.5"/>
<text text-anchor="middle" x="291" y="-159.5" font-family="Helvetica,sans-Serif" font-size="10.00" fill="#000000">DataAccess::body</text>
</a>
</g>
</g>
<!-- Node9&#45;&gt;Node21 -->
<g id="edge14" class="edge">
<title>Node9&#45;&gt;Node21</title>
<path fill="none" stroke="#191970" d="M176.3071,-183.157C197.9708,-179.1607 220.3335,-175.0356 239.495,-171.5009"/>
<polygon fill="#191970" stroke="#191970" points="175.6158,-179.7253 166.4167,-184.9814 176.8857,-186.6092 175.6158,-179.7253"/>
</g>
<!-- Node22 -->
<g id="node14" class="node">
<title>Node22</title>
<g id="a_node14"><a xlink:href="classInjector.html#af4f05a4db5b7b9536b4033da098b90cf" target="_top" xlink:title="Injector::tearDown">
<polygon fill="#ffffff" stroke="#000000" points="237.5,-114.5 237.5,-133.5 344.5,-133.5 344.5,-114.5 237.5,-114.5"/>
<text text-anchor="middle" x="291" y="-121.5" font-family="Helvetica,sans-Serif" font-size="10.00" fill="#000000">Injector::tearDown</text>
</a>
</g>
</g>
<!-- Node9&#45;&gt;Node22 -->
<g id="edge15" class="edge">
<title>Node9&#45;&gt;Node22</title>
<path fill="none" stroke="#191970" d="M121.5611,-180.1846C145.1206,-168.0728 176.7162,-153.033 206,-143 216.7286,-139.3242 228.4666,-136.1715 239.7016,-133.5507"/>
<polygon fill="#191970" stroke="#191970" points="119.8822,-177.1127 112.628,-184.8346 123.1143,-183.3219 119.8822,-177.1127"/>
</g>
<!-- Node23 -->
<g id="node15" class="node">
<title>Node23</title>
<g id="a_node15"><a xlink:href="classEngine.html#ae164dcb3bf318cb307ab7266974c2064" target="_top" xlink:title="Engine::body">
<polygon fill="#ffffff" stroke="#000000" points="251,-76.5 251,-95.5 331,-95.5 331,-76.5 251,-76.5"/>
<text text-anchor="middle" x="291" y="-83.5" font-family="Helvetica,sans-Serif" font-size="10.00" fill="#000000">Engine::body</text>
</a>
</g>
</g>
<!-- Node9&#45;&gt;Node23 -->
<g id="edge16" class="edge">
<title>Node9&#45;&gt;Node23</title>
<path fill="none" stroke="#191970" d="M106.944,-177.7147C129.7184,-155.8897 167.3587,-123.322 206,-105 219.9363,-98.392 236.2611,-94.0335 250.8586,-91.1809"/>
<polygon fill="#191970" stroke="#191970" points="104.2457,-175.4574 99.5311,-184.9455 109.1335,-180.4683 104.2457,-175.4574"/>
</g>
<!-- Node24 -->
<g id="node16" class="node">
<title>Node24</title>
<g id="a_node16"><a xlink:href="classEnactor.html#abd25ade60e175a09b8a71f2d0c87c7d1" target="_top" xlink:title="Enactor::body">
<polygon fill="#ffffff" stroke="#000000" points="249.5,-38.5 249.5,-57.5 332.5,-57.5 332.5,-38.5 249.5,-38.5"/>
<text text-anchor="middle" x="291" y="-45.5" font-family="Helvetica,sans-Serif" font-size="10.00" fill="#000000">Enactor::body</text>
</a>
</g>
</g>
<!-- Node9&#45;&gt;Node24 -->
<g id="edge17" class="edge">
<title>Node9&#45;&gt;Node24</title>
<path fill="none" stroke="#191970" d="M99.8343,-176.2022C120.0129,-145.921 159.0332,-94.2832 206,-67 219.0751,-59.4046 234.9053,-54.8439 249.343,-52.1061"/>
<polygon fill="#191970" stroke="#191970" points="96.7173,-174.5748 94.189,-184.8636 102.5816,-178.3971 96.7173,-174.5748"/>
</g>
<!-- Node25 -->
<g id="node17" class="node">
<title>Node25</title>
<g id="a_node17"><a xlink:href="classSensor.html#a1a664cdb090cb4295bbdedcffb1c8499" target="_top" xlink:title="Sensor::run">
<polygon fill="#ffffff" stroke="#000000" points="255.5,-.5 255.5,-19.5 326.5,-19.5 326.5,-.5 255.5,-.5"/>
<text text-anchor="middle" x="291" y="-7.5" font-family="Helvetica,sans-Serif" font-size="10.00" fill="#000000">Sensor::run</text>
</a>
</g>
</g>
<!-- Node9&#45;&gt;Node25 -->
<g id="edge20" class="edge">
<title>Node9&#45;&gt;Node25</title>
<path fill="none" stroke="#191970" d="M95.2256,-175.581C112.329,-137.8828 150.4239,-66.0064 206,-29 220.4741,-19.3622 239.0969,-14.5492 255.2202,-12.1711"/>
<polygon fill="#191970" stroke="#191970" points="91.984,-174.2576 91.1458,-184.8192 98.3874,-177.0855 91.984,-174.2576"/>
</g>
<!-- Node11 -->
<g id="node3" class="node">
<title>Node11</title>
<g id="a_node3"><a xlink:href="patient_8cpp.html#a3c04138a5bfe5d72780bb7e82a18e627" target="_top" xlink:title="main">
<polygon fill="#ffffff" stroke="#000000" points="460,-453.5 460,-472.5 501,-472.5 501,-453.5 460,-453.5"/>
<text text-anchor="middle" x="480.5" y="-460.5" font-family="Helvetica,sans-Serif" font-size="10.00" fill="#000000">main</text>
</a>
</g>
</g>
<!-- Node10&#45;&gt;Node11 -->
<g id="edge2" class="edge">
<title>Node10&#45;&gt;Node11</title>
<path fill="none" stroke="#191970" d="M372.4284,-463C404.5181,-463 438.6878,-463 459.817,-463"/>
<polygon fill="#191970" stroke="#191970" points="372.102,-459.5001 362.102,-463 372.1019,-466.5001 372.102,-459.5001"/>
</g>
<!-- Node15 -->
<g id="node7" class="node">
<title>Node15</title>
<g id="a_node7"><a xlink:href="classarch_1_1target__system_1_1Component.html#a766a2494155aaa42b3c8162cefb11b77" target="_top" xlink:title="arch::target_system\l::Component::activate">
<polygon fill="#ffffff" stroke="#000000" points="418,-316 418,-346 543,-346 543,-316 418,-316"/>
<text text-anchor="start" x="426" y="-334" font-family="Helvetica,sans-Serif" font-size="10.00" fill="#000000">arch::target_system</text>
<text text-anchor="middle" x="480.5" y="-323" font-family="Helvetica,sans-Serif" font-size="10.00" fill="#000000">::Component::activate</text>
</a>
</g>
</g>
<!-- Node14&#45;&gt;Node15 -->
<g id="edge6" class="edge">
<title>Node14&#45;&gt;Node15</title>
<path fill="none" stroke="#191970" d="M358.8712,-299.5498C379.6806,-304.9306 402.3759,-310.799 422.4659,-315.9938"/>
<polygon fill="#191970" stroke="#191970" points="359.7019,-296.1496 349.1441,-297.0346 357.9494,-302.9267 359.7019,-296.1496"/>
</g>
<!-- Node20 -->
<g id="node12" class="node">
<title>Node20</title>
<g id="a_node12"><a xlink:href="classarch_1_1target__system_1_1Component.html#a7e504b0c12531376d3cca170a23b18e3" target="_top" xlink:title="arch::target_system\l::Component::deactivate">
<polygon fill="#ffffff" stroke="#000000" points="412,-267 412,-297 549,-297 549,-267 412,-267"/>
<text text-anchor="start" x="420" y="-285" font-family="Helvetica,sans-Serif" font-size="10.00" fill="#000000">arch::target_system</text>
<text text-anchor="middle" x="480.5" y="-274" font-family="Helvetica,sans-Serif" font-size="10.00" fill="#000000">::Component::deactivate</text>
</a>
</g>
</g>
<!-- Node14&#45;&gt;Node20 -->
<g id="edge12" class="edge">
<title>Node14&#45;&gt;Node20</title>
<path fill="none" stroke="#191970" d="M369.2812,-282C383.3467,-282 397.9118,-282 411.6847,-282"/>
<polygon fill="#191970" stroke="#191970" points="369.1462,-278.5001 359.1461,-282 369.1461,-285.5001 369.1462,-278.5001"/>
</g>
<!-- Node16 -->
<g id="node8" class="node">
<title>Node16</title>
<g id="a_node8"><a xlink:href="classarch_1_1target__system_1_1Component.html#a6a7bf2a65bcc78fc61167205509091a5" target="_top" xlink:title="arch::target_system\l::Component::setUp">
<polygon fill="#ffffff" stroke="#000000" points="594,-316 594,-346 708,-346 708,-316 594,-316"/>
<text text-anchor="start" x="602" y="-334" font-family="Helvetica,sans-Serif" font-size="10.00" fill="#000000">arch::target_system</text>
<text text-anchor="middle" x="651" y="-323" font-family="Helvetica,sans-Serif" font-size="10.00" fill="#000000">::Component::setUp</text>
</a>
</g>
</g>
<!-- Node15&#45;&gt;Node16 -->
<g id="edge7" class="edge">
<title>Node15&#45;&gt;Node16</title>
<path fill="none" stroke="#191970" d="M553.2856,-331C566.8505,-331 580.8458,-331 593.8573,-331"/>
<polygon fill="#191970" stroke="#191970" points="553.0198,-327.5001 543.0198,-331 553.0197,-334.5001 553.0198,-327.5001"/>
</g>
<!-- Node15&#45;&gt;Node17 -->
<g id="edge9" class="edge">
<title>Node15&#45;&gt;Node17</title>
<path fill="none" stroke="#191970" d="M535.0126,-312.3382C539.7608,-310.5805 544.4769,-308.7869 549,-307 577.622,-295.6924 610.0373,-281.0719 630.4929,-271.6157"/>
<polygon fill="#191970" stroke="#191970" points="533.4734,-309.1736 525.2728,-315.8819 535.8668,-315.7518 533.4734,-309.1736"/>
</g>
<!-- Node16&#45;&gt;Node13 -->
<g id="edge8" class="edge">
<title>Node16&#45;&gt;Node13</title>
<path fill="none" stroke="#191970" d="M718.3967,-340.3253C729.899,-341.9168 741.7474,-343.5562 752.9483,-345.106"/>
<polygon fill="#191970" stroke="#191970" points="718.788,-336.8462 708.4026,-338.9425 717.8285,-343.7802 718.788,-336.8462"/>
</g>
<!-- Node17&#45;&gt;Node18 -->
<g id="edge10" class="edge">
<title>Node17&#45;&gt;Node18</title>
<path fill="none" stroke="#191970" d="M697.8352,-249.923C721.8329,-243.7349 750.6375,-236.3073 773.0475,-230.5286"/>
<polygon fill="#191970" stroke="#191970" points="696.6867,-246.6046 687.8774,-252.4907 698.4346,-253.3828 696.6867,-246.6046"/>
</g>
<!-- Node19 -->
<g id="node11" class="node">
<title>Node19</title>
<g id="a_node11"><a xlink:href="g4t1_8cpp.html#af19ddca125f05a2090dd132045573ee4" target="_top" xlink:title="main">
<polygon fill="#ffffff" stroke="#000000" points="903,-211.5 903,-230.5 944,-230.5 944,-211.5 903,-211.5"/>
<text text-anchor="middle" x="923.5" y="-218.5" font-family="Helvetica,sans-Serif" font-size="10.00" fill="#000000">main</text>
</a>
</g>
</g>
<!-- Node18&#45;&gt;Node19 -->
<g id="edge11" class="edge">
<title>Node18&#45;&gt;Node19</title>
<path fill="none" stroke="#191970" d="M867.0396,-221C879.8393,-221 892.6194,-221 902.7752,-221"/>
<polygon fill="#191970" stroke="#191970" points="866.8201,-217.5001 856.8201,-221 866.82,-224.5001 866.8201,-217.5001"/>
</g>
<!-- Node20&#45;&gt;Node17 -->
<g id="edge13" class="edge">
<title>Node20&#45;&gt;Node17</title>
<path fill="none" stroke="#191970" d="M559.3424,-272.7516C567.8998,-271.7478 576.5438,-270.7339 584.9268,-269.7505"/>
<polygon fill="#191970" stroke="#191970" points="558.8815,-269.2816 549.3574,-273.9229 559.6971,-276.2339 558.8815,-269.2816"/>
</g>
<!-- Node26 -->
<g id="node18" class="node">
<title>Node26</title>
<g id="a_node18"><a xlink:href="g3t1__1_8cpp.html#a3c04138a5bfe5d72780bb7e82a18e627" target="_top" xlink:title="main">
<polygon fill="#ffffff" stroke="#000000" points="460,-.5 460,-19.5 501,-19.5 501,-.5 460,-.5"/>
<text text-anchor="middle" x="480.5" y="-7.5" font-family="Helvetica,sans-Serif" font-size="10.00" fill="#000000">main</text>
</a>
</g>
</g>
<!-- Node25&#45;&gt;Node26 -->
<g id="edge21" class="edge">
<title>Node25&#45;&gt;Node26</title>
<path fill="none" stroke="#191970" d="M336.7547,-10C375.9592,-10 430.6027,-10 459.9372,-10"/>
<polygon fill="#191970" stroke="#191970" points="336.6435,-6.5001 326.6435,-10 336.6435,-13.5001 336.6435,-6.5001"/>
</g>
</g>
</svg>
