<?xml version="1.0" encoding="UTF-8" standalone="no"?>
<!DOCTYPE svg PUBLIC "-//W3C//DTD SVG 1.1//EN"
 "http://www.w3.org/Graphics/SVG/1.1/DTD/svg11.dtd">
<!-- Generated by graphviz version 2.40.1 (20161225.0304)
 -->
<!-- Title: bsn::range::Range::getUpperBound Pages: 1 -->
<svg width="610pt" height="446pt"
 viewBox="0.00 0.00 610.00 446.00" xmlns="http://www.w3.org/2000/svg" xmlns:xlink="http://www.w3.org/1999/xlink">
<g id="graph0" class="graph" transform="scale(1 1) rotate(0) translate(4 442)">
<title>bsn::range::Range::getUpperBound</title>
<polygon fill="#ffffff" stroke="transparent" points="-4,4 -4,-442 606,-442 606,4 -4,4"/>
<!-- Node45 -->
<g id="node1" class="node">
<title>Node45</title>
<polygon fill="#bfbfbf" stroke="#000000" points="0,-146 0,-176 110,-176 110,-146 0,-146"/>
<text text-anchor="start" x="8" y="-164" font-family="Helvetica,sans-Serif" font-size="10.00" fill="#000000">bsn::range::Range::</text>
<text text-anchor="middle" x="55" y="-153" font-family="Helvetica,sans-Serif" font-size="10.00" fill="#000000">getUpperBound</text>
</g>
<!-- Node46 -->
<g id="node2" class="node">
<title>Node46</title>
<g id="a_node2"><a xlink:href="classbsn_1_1configuration_1_1SensorConfiguration.html#aab092b8b249eda7ee53a38ec45ba9421" target="_top" xlink:title="bsn::configuration\l::SensorConfiguration\l::getDisplacement">
<polygon fill="#ffffff" stroke="#000000" points="168,-228.5 168,-269.5 289,-269.5 289,-228.5 168,-228.5"/>
<text text-anchor="start" x="176" y="-257.5" font-family="Helvetica,sans-Serif" font-size="10.00" fill="#000000">bsn::configuration</text>
<text text-anchor="start" x="176" y="-246.5" font-family="Helvetica,sans-Serif" font-size="10.00" fill="#000000">::SensorConfiguration</text>
<text text-anchor="middle" x="228.5" y="-235.5" font-family="Helvetica,sans-Serif" font-size="10.00" fill="#000000">::getDisplacement</text>
</a>
</g>
</g>
<!-- Node45&#45;&gt;Node46 -->
<g id="edge1" class="edge">
<title>Node45&#45;&gt;Node46</title>
<path fill="none" stroke="#191970" d="M84.4773,-182.1198C101.8365,-193.9548 124.5368,-208.4167 146,-219 152.9712,-222.4375 160.4391,-225.6959 167.9291,-228.7103"/>
<polygon fill="#191970" stroke="#191970" points="86.1373,-179.0124 75.9213,-176.2047 82.1566,-184.7704 86.1373,-179.0124"/>
</g>
<!-- Node60 -->
<g id="node16" class="node">
<title>Node60</title>
<g id="a_node16"><a xlink:href="classbsn_1_1configuration_1_1SensorConfiguration.html#aeb452f9154ebbc75bd54564fa0f94430" target="_top" xlink:title="bsn::configuration\l::SensorConfiguration\l::convertRealPercentage">
<polygon fill="#ffffff" stroke="#000000" points="161,-168.5 161,-209.5 296,-209.5 296,-168.5 161,-168.5"/>
<text text-anchor="start" x="169" y="-197.5" font-family="Helvetica,sans-Serif" font-size="10.00" fill="#000000">bsn::configuration</text>
<text text-anchor="start" x="169" y="-186.5" font-family="Helvetica,sans-Serif" font-size="10.00" fill="#000000">::SensorConfiguration</text>
<text text-anchor="middle" x="228.5" y="-175.5" font-family="Helvetica,sans-Serif" font-size="10.00" fill="#000000">::convertRealPercentage</text>
</a>
</g>
</g>
<!-- Node45&#45;&gt;Node60 -->
<g id="edge15" class="edge">
<title>Node45&#45;&gt;Node60</title>
<path fill="none" stroke="#191970" d="M120.3467,-171.5459C133.599,-173.6846 147.562,-175.938 160.8906,-178.089"/>
<polygon fill="#191970" stroke="#191970" points="120.8034,-168.0744 110.3735,-169.9364 119.6881,-174.985 120.8034,-168.0744"/>
</g>
<!-- Node61 -->
<g id="node17" class="node">
<title>Node61</title>
<g id="a_node17"><a xlink:href="classbsn_1_1generator_1_1DataGenerator.html#aee4859b45a43ce3f9cde9750a3b6abd2" target="_top" xlink:title="bsn::generator::DataGenerator\l::nextState">
<polygon fill="#ffffff" stroke="#000000" points="146,-119 146,-149 311,-149 311,-119 146,-119"/>
<text text-anchor="start" x="154" y="-137" font-family="Helvetica,sans-Serif" font-size="10.00" fill="#000000">bsn::generator::DataGenerator</text>
<text text-anchor="middle" x="228.5" y="-126" font-family="Helvetica,sans-Serif" font-size="10.00" fill="#000000">::nextState</text>
</a>
</g>
</g>
<!-- Node45&#45;&gt;Node61 -->
<g id="edge17" class="edge">
<title>Node45&#45;&gt;Node61</title>
<path fill="none" stroke="#191970" d="M120.3612,-150.8285C128.6814,-149.5337 137.2817,-148.1954 145.829,-146.8652"/>
<polygon fill="#191970" stroke="#191970" points="119.7164,-147.3867 110.3735,-152.3828 120.7928,-154.3034 119.7164,-147.3867"/>
</g>
<!-- Node63 -->
<g id="node19" class="node">
<title>Node63</title>
<g id="a_node19"><a xlink:href="classbsn_1_1range_1_1Range.html#a35cf86ce26654472821f985c4b5790cf" target="_top" xlink:title="bsn::range::Range::\loperator=">
<polygon fill="#ffffff" stroke="#000000" points="173.5,-70 173.5,-100 283.5,-100 283.5,-70 173.5,-70"/>
<text text-anchor="start" x="181.5" y="-88" font-family="Helvetica,sans-Serif" font-size="10.00" fill="#000000">bsn::range::Range::</text>
<text text-anchor="middle" x="228.5" y="-77" font-family="Helvetica,sans-Serif" font-size="10.00" fill="#000000">operator=</text>
</a>
</g>
</g>
<!-- Node45&#45;&gt;Node63 -->
<g id="edge19" class="edge">
<title>Node45&#45;&gt;Node63</title>
<path fill="none" stroke="#191970" d="M86.2817,-140.675C103.4141,-130.18 125.3155,-117.7726 146,-109 154.6516,-105.3307 164.0413,-102.014 173.282,-99.0984"/>
<polygon fill="#191970" stroke="#191970" points="84.4304,-137.7047 77.789,-145.9595 88.1286,-143.648 84.4304,-137.7047"/>
</g>
<!-- Node47 -->
<g id="node3" class="node">
<title>Node47</title>
<g id="a_node3"><a xlink:href="classbsn_1_1configuration_1_1SensorConfiguration.html#a74040e24635beeffd7067a23c5bb91ab" target="_top" xlink:title="bsn::configuration\l::SensorConfiguration\l::evaluateNumber">
<polygon fill="#ffffff" stroke="#000000" points="347,-198.5 347,-239.5 468,-239.5 468,-198.5 347,-198.5"/>
<text text-anchor="start" x="355" y="-227.5" font-family="Helvetica,sans-Serif" font-size="10.00" fill="#000000">bsn::configuration</text>
<text text-anchor="start" x="355" y="-216.5" font-family="Helvetica,sans-Serif" font-size="10.00" fill="#000000">::SensorConfiguration</text>
<text text-anchor="middle" x="407.5" y="-205.5" font-family="Helvetica,sans-Serif" font-size="10.00" fill="#000000">::evaluateNumber</text>
</a>
</g>
</g>
<!-- Node46&#45;&gt;Node47 -->
<g id="edge2" class="edge">
<title>Node46&#45;&gt;Node47</title>
<path fill="none" stroke="#191970" d="M299.3213,-237.1305C315.0841,-234.4887 331.6559,-231.7113 346.9612,-229.1462"/>
<polygon fill="#191970" stroke="#191970" points="298.3851,-233.7385 289.1012,-238.8434 299.5422,-240.6422 298.3851,-233.7385"/>
</g>
<!-- Node48 -->
<g id="node4" class="node">
<title>Node48</title>
<g id="a_node4"><a xlink:href="classG3T1__1.html#a4696c0b3b423e6d0efe2a6f3f6e84cfa" target="_top" xlink:title="G3T1_1::collect">
<polygon fill="#ffffff" stroke="#000000" points="507,-418.5 507,-437.5 599,-437.5 599,-418.5 507,-418.5"/>
<text text-anchor="middle" x="553" y="-425.5" font-family="Helvetica,sans-Serif" font-size="10.00" fill="#000000">G3T1_1::collect</text>
</a>
</g>
</g>
<!-- Node47&#45;&gt;Node48 -->
<g id="edge3" class="edge">
<title>Node47&#45;&gt;Node48</title>
<path fill="none" stroke="#191970" d="M415.5238,-249.5632C427.8973,-291.058 455.4384,-365.0686 504,-409 508.2627,-412.8563 513.3949,-415.9652 518.7105,-418.4611"/>
<polygon fill="#191970" stroke="#191970" points="418.8297,-248.3948 412.7012,-239.7523 412.1025,-250.3302 418.8297,-248.3948"/>
</g>
<!-- Node49 -->
<g id="node5" class="node">
<title>Node49</title>
<g id="a_node5"><a xlink:href="classG3T1__1.html#a58277c46b8319bd35e3ffabd52805874" target="_top" xlink:title="G3T1_1::transfer">
<polygon fill="#ffffff" stroke="#000000" points="504,-380.5 504,-399.5 602,-399.5 602,-380.5 504,-380.5"/>
<text text-anchor="middle" x="553" y="-387.5" font-family="Helvetica,sans-Serif" font-size="10.00" fill="#000000">G3T1_1::transfer</text>
</a>
</g>
</g>
<!-- Node47&#45;&gt;Node49 -->
<g id="edge4" class="edge">
<title>Node47&#45;&gt;Node49</title>
<path fill="none" stroke="#191970" d="M419.6258,-249.0432C434.7226,-282.9754 463.545,-337.7794 504,-371 508.6539,-374.8216 514.165,-377.9356 519.782,-380.4528"/>
<polygon fill="#191970" stroke="#191970" points="422.7426,-247.4326 415.5583,-239.6455 416.3185,-250.2131 422.7426,-247.4326"/>
</g>
<!-- Node50 -->
<g id="node6" class="node">
<title>Node50</title>
<g id="a_node6"><a xlink:href="classG3T1__2.html#af0d9cc4619906329eeb799c5a35e142a" target="_top" xlink:title="G3T1_2::collect">
<polygon fill="#ffffff" stroke="#000000" points="507,-342.5 507,-361.5 599,-361.5 599,-342.5 507,-342.5"/>
<text text-anchor="middle" x="553" y="-349.5" font-family="Helvetica,sans-Serif" font-size="10.00" fill="#000000">G3T1_2::collect</text>
</a>
</g>
</g>
<!-- Node47&#45;&gt;Node50 -->
<g id="edge5" class="edge">
<title>Node47&#45;&gt;Node50</title>
<path fill="none" stroke="#191970" d="M426.1151,-248.3495C443.5446,-273.7699 471.6978,-309.9818 504,-333 509.2757,-336.7594 515.3941,-339.895 521.4819,-342.4636"/>
<polygon fill="#191970" stroke="#191970" points="428.8874,-246.1996 420.4081,-239.8473 423.0754,-250.1009 428.8874,-246.1996"/>
</g>
<!-- Node51 -->
<g id="node7" class="node">
<title>Node51</title>
<g id="a_node7"><a xlink:href="classG3T1__2.html#ac437972ecabb9e234c8717101d51eac8" target="_top" xlink:title="G3T1_2::transfer">
<polygon fill="#ffffff" stroke="#000000" points="504,-304.5 504,-323.5 602,-323.5 602,-304.5 504,-304.5"/>
<text text-anchor="middle" x="553" y="-311.5" font-family="Helvetica,sans-Serif" font-size="10.00" fill="#000000">G3T1_2::transfer</text>
</a>
</g>
</g>
<!-- Node47&#45;&gt;Node51 -->
<g id="edge6" class="edge">
<title>Node47&#45;&gt;Node51</title>
<path fill="none" stroke="#191970" d="M437.8221,-246.7284C456.0368,-262.3702 480.2277,-281.4359 504,-295 510.2606,-298.5722 517.3235,-301.749 524.0974,-304.4344"/>
<polygon fill="#191970" stroke="#191970" points="439.7331,-243.7509 429.8966,-239.8147 435.1315,-249.0259 439.7331,-243.7509"/>
</g>
<!-- Node52 -->
<g id="node8" class="node">
<title>Node52</title>
<g id="a_node8"><a xlink:href="classG3T1__3.html#a3519014bd56d810164d86d9756169c44" target="_top" xlink:title="G3T1_3::collect">
<polygon fill="#ffffff" stroke="#000000" points="507,-266.5 507,-285.5 599,-285.5 599,-266.5 507,-266.5"/>
<text text-anchor="middle" x="553" y="-273.5" font-family="Helvetica,sans-Serif" font-size="10.00" fill="#000000">G3T1_3::collect</text>
</a>
</g>
</g>
<!-- Node47&#45;&gt;Node52 -->
<g id="edge7" class="edge">
<title>Node47&#45;&gt;Node52</title>
<path fill="none" stroke="#191970" d="M469.1598,-243.336C480.7319,-247.8876 492.7322,-252.5969 504,-257 511.9034,-260.0884 520.5312,-263.4404 528.314,-266.4568"/>
<polygon fill="#191970" stroke="#191970" points="470.1524,-239.9654 459.5653,-239.56 467.5888,-246.4791 470.1524,-239.9654"/>
</g>
<!-- Node53 -->
<g id="node9" class="node">
<title>Node53</title>
<g id="a_node9"><a xlink:href="classG3T1__3.html#a4bd1c419743c7c128fd1c3cf4fa5e434" target="_top" xlink:title="G3T1_3::transfer">
<polygon fill="#ffffff" stroke="#000000" points="504,-228.5 504,-247.5 602,-247.5 602,-228.5 504,-228.5"/>
<text text-anchor="middle" x="553" y="-235.5" font-family="Helvetica,sans-Serif" font-size="10.00" fill="#000000">G3T1_3::transfer</text>
</a>
</g>
</g>
<!-- Node47&#45;&gt;Node53 -->
<g id="edge8" class="edge">
<title>Node47&#45;&gt;Node53</title>
<path fill="none" stroke="#191970" d="M478.4227,-228.2614C487.0309,-229.3855 495.6732,-230.514 503.8671,-231.584"/>
<polygon fill="#191970" stroke="#191970" points="478.7311,-224.772 468.362,-226.9476 477.8246,-231.7131 478.7311,-224.772"/>
</g>
<!-- Node54 -->
<g id="node10" class="node">
<title>Node54</title>
<g id="a_node10"><a xlink:href="classG3T1__4.html#aac00c133f2199079b671b3094496fb33" target="_top" xlink:title="G3T1_4::collect">
<polygon fill="#ffffff" stroke="#000000" points="507,-190.5 507,-209.5 599,-209.5 599,-190.5 507,-190.5"/>
<text text-anchor="middle" x="553" y="-197.5" font-family="Helvetica,sans-Serif" font-size="10.00" fill="#000000">G3T1_4::collect</text>
</a>
</g>
</g>
<!-- Node47&#45;&gt;Node54 -->
<g id="edge9" class="edge">
<title>Node47&#45;&gt;Node54</title>
<path fill="none" stroke="#191970" d="M478.4338,-209.7372C488.1414,-208.4695 497.8922,-207.1962 506.9941,-206.0076"/>
<polygon fill="#191970" stroke="#191970" points="477.8246,-206.2869 468.362,-211.0524 478.7311,-213.228 477.8246,-206.2869"/>
</g>
<!-- Node55 -->
<g id="node11" class="node">
<title>Node55</title>
<g id="a_node11"><a xlink:href="classG3T1__4.html#a20ad5272beba24e4879fb29985b85f69" target="_top" xlink:title="G3T1_4::transfer">
<polygon fill="#ffffff" stroke="#000000" points="504,-152.5 504,-171.5 602,-171.5 602,-152.5 504,-152.5"/>
<text text-anchor="middle" x="553" y="-159.5" font-family="Helvetica,sans-Serif" font-size="10.00" fill="#000000">G3T1_4::transfer</text>
</a>
</g>
</g>
<!-- Node47&#45;&gt;Node55 -->
<g id="edge10" class="edge">
<title>Node47&#45;&gt;Node55</title>
<path fill="none" stroke="#191970" d="M469.1598,-194.664C480.7319,-190.1124 492.7322,-185.4031 504,-181 511.9034,-177.9116 520.5312,-174.5596 528.314,-171.5432"/>
<polygon fill="#191970" stroke="#191970" points="467.5888,-191.5209 459.5653,-198.44 470.1524,-198.0346 467.5888,-191.5209"/>
</g>
<!-- Node56 -->
<g id="node12" class="node">
<title>Node56</title>
<g id="a_node12"><a xlink:href="classG3T1__5.html#a1aa8fb64b30b7263df5c2189fb5995dc" target="_top" xlink:title="G3T1_5::collect">
<polygon fill="#ffffff" stroke="#000000" points="507,-114.5 507,-133.5 599,-133.5 599,-114.5 507,-114.5"/>
<text text-anchor="middle" x="553" y="-121.5" font-family="Helvetica,sans-Serif" font-size="10.00" fill="#000000">G3T1_5::collect</text>
</a>
</g>
</g>
<!-- Node47&#45;&gt;Node56 -->
<g id="edge11" class="edge">
<title>Node47&#45;&gt;Node56</title>
<path fill="none" stroke="#191970" d="M437.8221,-191.2716C456.0368,-175.6298 480.2277,-156.5641 504,-143 510.2606,-139.4278 517.3235,-136.251 524.0974,-133.5656"/>
<polygon fill="#191970" stroke="#191970" points="435.1315,-188.9741 429.8966,-198.1853 439.7331,-194.2491 435.1315,-188.9741"/>
</g>
<!-- Node57 -->
<g id="node13" class="node">
<title>Node57</title>
<g id="a_node13"><a xlink:href="classG3T1__5.html#ae9918da7342a4fb88c6f633db43b9fe8" target="_top" xlink:title="G3T1_5::transfer">
<polygon fill="#ffffff" stroke="#000000" points="504,-76.5 504,-95.5 602,-95.5 602,-76.5 504,-76.5"/>
<text text-anchor="middle" x="553" y="-83.5" font-family="Helvetica,sans-Serif" font-size="10.00" fill="#000000">G3T1_5::transfer</text>
</a>
</g>
</g>
<!-- Node47&#45;&gt;Node57 -->
<g id="edge12" class="edge">
<title>Node47&#45;&gt;Node57</title>
<path fill="none" stroke="#191970" d="M434.5022,-190.7767C445.1957,-179.2851 457.434,-165.7313 468,-153 485.0303,-132.4798 482.7485,-121.1086 504,-105 509.0172,-101.197 514.8895,-98.0638 520.7915,-95.5155"/>
<polygon fill="#191970" stroke="#191970" points="431.6717,-188.6784 427.3853,-198.3675 436.7783,-193.4662 431.6717,-188.6784"/>
</g>
<!-- Node58 -->
<g id="node14" class="node">
<title>Node58</title>
<g id="a_node14"><a xlink:href="classG3T1__6.html#a0deb9a2b913d7753ef6708ccbd87df34" target="_top" xlink:title="G3T1_6::collect">
<polygon fill="#ffffff" stroke="#000000" points="507,-38.5 507,-57.5 599,-57.5 599,-38.5 507,-38.5"/>
<text text-anchor="middle" x="553" y="-45.5" font-family="Helvetica,sans-Serif" font-size="10.00" fill="#000000">G3T1_6::collect</text>
</a>
</g>
</g>
<!-- Node47&#45;&gt;Node58 -->
<g id="edge13" class="edge">
<title>Node47&#45;&gt;Node58</title>
<path fill="none" stroke="#191970" d="M437.1951,-190.967C447.8503,-179.8527 459.3555,-166.5106 468,-153 490.3321,-118.097 474.3142,-95.9083 504,-67 507.9874,-63.117 512.8567,-60.0057 517.9612,-57.5189"/>
<polygon fill="#191970" stroke="#191970" points="434.5182,-188.6972 429.9997,-198.2803 439.508,-193.6066 434.5182,-188.6972"/>
</g>
<!-- Node59 -->
<g id="node15" class="node">
<title>Node59</title>
<g id="a_node15"><a xlink:href="classG3T1__6.html#aaa3c643ee36464eca9e095d150926e22" target="_top" xlink:title="G3T1_6::transfer">
<polygon fill="#ffffff" stroke="#000000" points="504,-.5 504,-19.5 602,-19.5 602,-.5 504,-.5"/>
<text text-anchor="middle" x="553" y="-7.5" font-family="Helvetica,sans-Serif" font-size="10.00" fill="#000000">G3T1_6::transfer</text>
</a>
</g>
</g>
<!-- Node47&#45;&gt;Node59 -->
<g id="edge14" class="edge">
<title>Node47&#45;&gt;Node59</title>
<path fill="none" stroke="#191970" d="M438.2861,-191.2079C448.9636,-180.2023 460.2003,-166.8706 468,-153 496.1276,-102.9793 465.2319,-71.3116 504,-29 507.575,-25.0982 512.0453,-21.9891 516.8217,-19.5138"/>
<polygon fill="#191970" stroke="#191970" points="435.6471,-188.8964 431.0325,-198.4335 440.5873,-193.8558 435.6471,-188.8964"/>
</g>
<!-- Node60&#45;&gt;Node47 -->
<g id="edge16" class="edge">
<title>Node60&#45;&gt;Node47</title>
<path fill="none" stroke="#191970" d="M306.4194,-202.0591C319.9382,-204.3248 333.8155,-206.6506 346.7895,-208.8251"/>
<polygon fill="#191970" stroke="#191970" points="306.6132,-198.5429 296.1722,-200.3417 305.4561,-205.4466 306.6132,-198.5429"/>
</g>
<!-- Node62 -->
<g id="node18" class="node">
<title>Node62</title>
<g id="a_node18"><a xlink:href="DataGeneratorTest_8cpp.html#a198eb29e95012f167dd321867248e6df" target="_top" xlink:title="TEST_F">
<polygon fill="#ffffff" stroke="#000000" points="382,-124.5 382,-143.5 433,-143.5 433,-124.5 382,-124.5"/>
<text text-anchor="middle" x="407.5" y="-131.5" font-family="Helvetica,sans-Serif" font-size="10.00" fill="#000000">TEST_F</text>
</a>
</g>
</g>
<!-- Node61&#45;&gt;Node62 -->
<g id="edge18" class="edge">
<title>Node61&#45;&gt;Node62</title>
<path fill="none" stroke="#191970" d="M321.4279,-134C343.7134,-134 365.7151,-134 381.8953,-134"/>
<polygon fill="#191970" stroke="#191970" points="321.1885,-130.5001 311.1885,-134 321.1884,-137.5001 321.1885,-130.5001"/>
</g>
</g>
</svg>
