<?xml version="1.0" encoding="UTF-8" standalone="no"?>
<!DOCTYPE svg PUBLIC "-//W3C//DTD SVG 1.1//EN"
 "http://www.w3.org/Graphics/SVG/1.1/DTD/svg11.dtd">
<!-- Generated by graphviz version 2.40.1 (20161225.0304)
 -->
<!-- Title: ProcessorTest Pages: 1 -->
<svg width="110pt" height="160pt"
 viewBox="0.00 0.00 110.00 160.00" xmlns="http://www.w3.org/2000/svg" xmlns:xlink="http://www.w3.org/1999/xlink">
<g id="graph0" class="graph" transform="scale(1 1) rotate(0) translate(4 156)">
<title>ProcessorTest</title>
<polygon fill="#ffffff" stroke="transparent" points="-4,4 -4,-156 106,-156 106,4 -4,4"/>
<!-- Node2 -->
<g id="node1" class="node">
<title>Node2</title>
<polygon fill="#bfbfbf" stroke="#000000" points="0,-.5 0,-57.5 102,-57.5 102,-.5 0,-.5"/>
<text text-anchor="middle" x="51" y="-45.5" font-family="Helvetica,sans-Serif" font-size="10.00" fill="#000000">ProcessorTest</text>
<polyline fill="none" stroke="#000000" points="0,-38.5 102,-38.5 "/>
<text text-anchor="middle" x="51" y="-26.5" font-family="Helvetica,sans-Serif" font-size="10.00" fill="#000000"> </text>
<polyline fill="none" stroke="#000000" points="0,-19.5 102,-19.5 "/>
<text text-anchor="start" x="8" y="-7.5" font-family="Helvetica,sans-Serif" font-size="10.00" fill="#000000"># ProcessorTest()</text>
</g>
<!-- Node3 -->
<g id="node2" class="node">
<title>Node3</title>
<polygon fill="#ffffff" stroke="#bfbfbf" points="13,-94.5 13,-151.5 89,-151.5 89,-94.5 13,-94.5"/>
<text text-anchor="middle" x="51" y="-139.5" font-family="Helvetica,sans-Serif" font-size="10.00" fill="#000000">testing::Test</text>
<polyline fill="none" stroke="#bfbfbf" points="13,-132.5 89,-132.5 "/>
<text text-anchor="middle" x="51" y="-120.5" font-family="Helvetica,sans-Serif" font-size="10.00" fill="#000000"> </text>
<polyline fill="none" stroke="#bfbfbf" points="13,-113.5 89,-113.5 "/>
<text text-anchor="middle" x="51" y="-101.5" font-family="Helvetica,sans-Serif" font-size="10.00" fill="#000000"> </text>
</g>
<!-- Node3&#45;&gt;Node2 -->
<g id="edge1" class="edge">
<title>Node3&#45;&gt;Node2</title>
<path fill="none" stroke="#191970" d="M51,-84.1035C51,-75.2052 51,-65.9073 51,-57.538"/>
<polygon fill="none" stroke="#191970" points="47.5001,-84.2861 51,-94.2861 54.5001,-84.2862 47.5001,-84.2861"/>
</g>
</g>
</svg>
