<?xml version="1.0" encoding="UTF-8" standalone="no"?>
<!DOCTYPE svg PUBLIC "-//W3C//DTD SVG 1.1//EN"
 "http://www.w3.org/Graphics/SVG/1.1/DTD/svg11.dtd">
<!-- Generated by graphviz version 2.40.1 (20161225.0304)
 -->
<!-- Title: bsn::goalmodel::Node Pages: 1 -->
<svg width="293pt" height="463pt"
 viewBox="0.00 0.00 293.00 463.00" xmlns="http://www.w3.org/2000/svg" xmlns:xlink="http://www.w3.org/1999/xlink">
<g id="graph0" class="graph" transform="scale(1 1) rotate(0) translate(4 459)">
<title>bsn::goalmodel::Node</title>
<polygon fill="#ffffff" stroke="transparent" points="-4,4 -4,-459 289,-459 289,4 -4,4"/>
<!-- Node4 -->
<g id="node1" class="node">
<title>Node4</title>
<polygon fill="#bfbfbf" stroke="#000000" points="95.5,-.5 95.5,-211.5 218.5,-211.5 218.5,-.5 95.5,-.5"/>
<text text-anchor="middle" x="157" y="-199.5" font-family="Helvetica,sans-Serif" font-size="10.00" fill="#000000">bsn::goalmodel::Node</text>
<polyline fill="none" stroke="#000000" points="95.5,-192.5 218.5,-192.5 "/>
<text text-anchor="middle" x="157" y="-180.5" font-family="Helvetica,sans-Serif" font-size="10.00" fill="#000000"> </text>
<polyline fill="none" stroke="#000000" points="95.5,-173.5 218.5,-173.5 "/>
<text text-anchor="start" x="103.5" y="-161.5" font-family="Helvetica,sans-Serif" font-size="10.00" fill="#000000">+ Node()</text>
<text text-anchor="start" x="103.5" y="-150.5" font-family="Helvetica,sans-Serif" font-size="10.00" fill="#000000">+ Node()</text>
<text text-anchor="start" x="103.5" y="-139.5" font-family="Helvetica,sans-Serif" font-size="10.00" fill="#000000">+ ~Node()</text>
<text text-anchor="start" x="103.5" y="-128.5" font-family="Helvetica,sans-Serif" font-size="10.00" fill="#000000">+ Node()</text>
<text text-anchor="start" x="103.5" y="-117.5" font-family="Helvetica,sans-Serif" font-size="10.00" fill="#000000">+ operator=()</text>
<text text-anchor="start" x="103.5" y="-106.5" font-family="Helvetica,sans-Serif" font-size="10.00" fill="#000000">+ operator==()</text>
<text text-anchor="start" x="103.5" y="-95.5" font-family="Helvetica,sans-Serif" font-size="10.00" fill="#000000">+ setID()</text>
<text text-anchor="start" x="103.5" y="-84.5" font-family="Helvetica,sans-Serif" font-size="10.00" fill="#000000">+ getID()</text>
<text text-anchor="start" x="103.5" y="-73.5" font-family="Helvetica,sans-Serif" font-size="10.00" fill="#000000">+ setDescription()</text>
<text text-anchor="start" x="103.5" y="-62.5" font-family="Helvetica,sans-Serif" font-size="10.00" fill="#000000">+ getDescription()</text>
<text text-anchor="start" x="103.5" y="-51.5" font-family="Helvetica,sans-Serif" font-size="10.00" fill="#000000">+ hasChildren()</text>
<text text-anchor="start" x="103.5" y="-40.5" font-family="Helvetica,sans-Serif" font-size="10.00" fill="#000000">+ getChildren()</text>
<text text-anchor="start" x="103.5" y="-29.5" font-family="Helvetica,sans-Serif" font-size="10.00" fill="#000000">+ addChild()</text>
<text text-anchor="start" x="103.5" y="-18.5" font-family="Helvetica,sans-Serif" font-size="10.00" fill="#000000">+ removeChild()</text>
<text text-anchor="start" x="103.5" y="-7.5" font-family="Helvetica,sans-Serif" font-size="10.00" fill="#000000">+ getChild()</text>
</g>
<!-- Node5 -->
<g id="node2" class="node">
<title>Node5</title>
<polygon fill="#ffffff" stroke="#bfbfbf" points="0,-270.5 0,-338.5 176,-338.5 176,-270.5 0,-270.5"/>
<text text-anchor="start" x="8" y="-326.5" font-family="Helvetica,sans-Serif" font-size="10.00" fill="#000000">std::vector&lt; std::shared</text>
<text text-anchor="middle" x="88" y="-315.5" font-family="Helvetica,sans-Serif" font-size="10.00" fill="#000000">_ptr&lt; bsn::goalmodel::Node &gt; &gt;</text>
<polyline fill="none" stroke="#bfbfbf" points="0,-308.5 176,-308.5 "/>
<text text-anchor="middle" x="88" y="-296.5" font-family="Helvetica,sans-Serif" font-size="10.00" fill="#000000"> </text>
<polyline fill="none" stroke="#bfbfbf" points="0,-289.5 176,-289.5 "/>
<text text-anchor="middle" x="88" y="-277.5" font-family="Helvetica,sans-Serif" font-size="10.00" fill="#000000"> </text>
</g>
<!-- Node5&#45;&gt;Node4 -->
<g id="edge1" class="edge">
<title>Node5&#45;&gt;Node4</title>
<path fill="none" stroke="#404040" d="M99.8615,-270.3766C104.5711,-256.8281 110.2884,-240.3806 116.2638,-223.1904"/>
<polygon fill="none" stroke="#404040" points="116.2797,-223.1444 114.4715,-216.1637 120.2198,-211.8097 122.028,-218.7904 116.2797,-223.1444"/>
<text text-anchor="middle" x="138.5" y="-238.5" font-family="Helvetica,sans-Serif" font-size="10.00" fill="#000000"> #children</text>
</g>
<!-- Node6 -->
<g id="node3" class="node">
<title>Node6</title>
<polygon fill="#ffffff" stroke="#bfbfbf" points="7.5,-386.5 7.5,-454.5 162.5,-454.5 162.5,-386.5 7.5,-386.5"/>
<text text-anchor="start" x="15.5" y="-442.5" font-family="Helvetica,sans-Serif" font-size="10.00" fill="#000000">shared_ptr&lt; bsn::goalmodel</text>
<text text-anchor="middle" x="85" y="-431.5" font-family="Helvetica,sans-Serif" font-size="10.00" fill="#000000">::Node &gt;</text>
<polyline fill="none" stroke="#bfbfbf" points="7.5,-424.5 162.5,-424.5 "/>
<text text-anchor="middle" x="85" y="-412.5" font-family="Helvetica,sans-Serif" font-size="10.00" fill="#000000"> </text>
<polyline fill="none" stroke="#bfbfbf" points="7.5,-405.5 162.5,-405.5 "/>
<text text-anchor="middle" x="85" y="-393.5" font-family="Helvetica,sans-Serif" font-size="10.00" fill="#000000"> </text>
</g>
<!-- Node6&#45;&gt;Node5 -->
<g id="edge2" class="edge">
<title>Node6&#45;&gt;Node5</title>
<path fill="none" stroke="#404040" d="M85.8839,-386.3236C86.1712,-375.213 86.4951,-362.6908 86.8014,-350.8451"/>
<polygon fill="none" stroke="#404040" points="86.8017,-350.829 82.9582,-344.7275 87.1121,-338.833 90.9556,-344.9344 86.8017,-350.829"/>
<text text-anchor="middle" x="116" y="-360" font-family="Helvetica,sans-Serif" font-size="10.00" fill="#000000"> +elements</text>
</g>
<!-- Node7 -->
<g id="node4" class="node">
<title>Node7</title>
<g id="a_node4"><a xlink:title="STL class. ">
<polygon fill="#ffffff" stroke="#bfbfbf" points="198.5,-276 198.5,-333 263.5,-333 263.5,-276 198.5,-276"/>
<text text-anchor="middle" x="231" y="-321" font-family="Helvetica,sans-Serif" font-size="10.00" fill="#000000">std::string</text>
<polyline fill="none" stroke="#bfbfbf" points="198.5,-314 263.5,-314 "/>
<text text-anchor="middle" x="231" y="-302" font-family="Helvetica,sans-Serif" font-size="10.00" fill="#000000"> </text>
<polyline fill="none" stroke="#bfbfbf" points="198.5,-295 263.5,-295 "/>
<text text-anchor="middle" x="231" y="-283" font-family="Helvetica,sans-Serif" font-size="10.00" fill="#000000"> </text>
</a>
</g>
</g>
<!-- Node7&#45;&gt;Node4 -->
<g id="edge3" class="edge">
<title>Node7&#45;&gt;Node4</title>
<path fill="none" stroke="#404040" d="M220.2398,-275.6364C214.8783,-261.2547 208.0025,-242.8107 200.7693,-223.4082"/>
<polygon fill="none" stroke="#404040" points="200.6698,-223.1411 194.8258,-218.9163 196.478,-211.897 202.3219,-216.1217 200.6698,-223.1411"/>
<text text-anchor="middle" x="243.5" y="-244" font-family="Helvetica,sans-Serif" font-size="10.00" fill="#000000"> #id</text>
<text text-anchor="middle" x="243.5" y="-233" font-family="Helvetica,sans-Serif" font-size="10.00" fill="#000000">#description</text>
</g>
<!-- Node8 -->
<g id="node5" class="node">
<title>Node8</title>
<g id="a_node5"><a xlink:title="STL class. ">
<polygon fill="#ffffff" stroke="#bfbfbf" points="181,-386.5 181,-454.5 285,-454.5 285,-386.5 181,-386.5"/>
<text text-anchor="start" x="189" y="-442.5" font-family="Helvetica,sans-Serif" font-size="10.00" fill="#000000">std::basic_string&lt;</text>
<text text-anchor="middle" x="233" y="-431.5" font-family="Helvetica,sans-Serif" font-size="10.00" fill="#000000"> char &gt;</text>
<polyline fill="none" stroke="#bfbfbf" points="181,-424.5 285,-424.5 "/>
<text text-anchor="middle" x="233" y="-412.5" font-family="Helvetica,sans-Serif" font-size="10.00" fill="#000000"> </text>
<polyline fill="none" stroke="#bfbfbf" points="181,-405.5 285,-405.5 "/>
<text text-anchor="middle" x="233" y="-393.5" font-family="Helvetica,sans-Serif" font-size="10.00" fill="#000000"> </text>
</a>
</g>
</g>
<!-- Node8&#45;&gt;Node7 -->
<g id="edge4" class="edge">
<title>Node8&#45;&gt;Node7</title>
<path fill="none" stroke="#191970" d="M232.2351,-376.1387C231.9878,-361.7904 231.72,-346.2617 231.4973,-333.3418"/>
<polygon fill="none" stroke="#191970" points="228.7388,-376.3854 232.4108,-386.3236 235.7377,-376.2647 228.7388,-376.3854"/>
</g>
</g>
</svg>
