<?xml version="1.0" encoding="UTF-8" standalone="no"?>
<!DOCTYPE svg PUBLIC "-//W3C//DTD SVG 1.1//EN"
 "http://www.w3.org/Graphics/SVG/1.1/DTD/svg11.dtd">
<!-- Generated by graphviz version 2.40.1 (20161225.0304)
 -->
<!-- Title: bsn::configuration::SensorConfiguration::setId Pages: 1 -->
<svg width="272pt" height="50pt"
 viewBox="0.00 0.00 272.00 50.00" xmlns="http://www.w3.org/2000/svg" xmlns:xlink="http://www.w3.org/1999/xlink">
<g id="graph0" class="graph" transform="scale(1 1) rotate(0) translate(4 46)">
<title>bsn::configuration::SensorConfiguration::setId</title>
<polygon fill="#ffffff" stroke="transparent" points="-4,4 -4,-46 268,-46 268,4 -4,4"/>
<!-- Node123 -->
<g id="node1" class="node">
<title>Node123</title>
<polygon fill="#bfbfbf" stroke="#000000" points="0,-.5 0,-41.5 121,-41.5 121,-.5 0,-.5"/>
<text text-anchor="start" x="8" y="-29.5" font-family="Helvetica,sans-Serif" font-size="10.00" fill="#000000">bsn::configuration</text>
<text text-anchor="start" x="8" y="-18.5" font-family="Helvetica,sans-Serif" font-size="10.00" fill="#000000">::SensorConfiguration</text>
<text text-anchor="middle" x="60.5" y="-7.5" font-family="Helvetica,sans-Serif" font-size="10.00" fill="#000000">::setId</text>
</g>
<!-- Node124 -->
<g id="node2" class="node">
<title>Node124</title>
<g id="a_node2"><a xlink:href="classConfigurationTest.html#a7b9f2c612f8aebd8e37cbc6429d34aea" target="_top" xlink:title="ConfigurationTest::\lSetUp">
<polygon fill="#ffffff" stroke="#000000" points="157,-6 157,-36 264,-36 264,-6 157,-6"/>
<text text-anchor="start" x="165" y="-24" font-family="Helvetica,sans-Serif" font-size="10.00" fill="#000000">ConfigurationTest::</text>
<text text-anchor="middle" x="210.5" y="-13" font-family="Helvetica,sans-Serif" font-size="10.00" fill="#000000">SetUp</text>
</a>
</g>
</g>
<!-- Node123&#45;&gt;Node124 -->
<g id="edge1" class="edge">
<title>Node123&#45;&gt;Node124</title>
<path fill="none" stroke="#191970" d="M131.1857,-21C139.8496,-21 148.5904,-21 156.9438,-21"/>
<polygon fill="#191970" stroke="#191970" points="131.0784,-17.5001 121.0784,-21 131.0783,-24.5001 131.0784,-17.5001"/>
</g>
</g>
</svg>
