<?xml version="1.0" encoding="UTF-8" standalone="no"?>
<!DOCTYPE svg PUBLIC "-//W3C//DTD SVG 1.1//EN"
 "http://www.w3.org/Graphics/SVG/1.1/DTD/svg11.dtd">
<!-- Generated by graphviz version 2.40.1 (20161225.0304)
 -->
<!-- Title: bsn::goalmodel::Node::operator= Pages: 1 -->
<svg width="290pt" height="137pt"
 viewBox="0.00 0.00 290.00 137.00" xmlns="http://www.w3.org/2000/svg" xmlns:xlink="http://www.w3.org/1999/xlink">
<g id="graph0" class="graph" transform="scale(1 1) rotate(0) translate(4 133)">
<title>bsn::goalmodel::Node::operator=</title>
<polygon fill="#ffffff" stroke="transparent" points="-4,4 -4,-133 286,-133 286,4 -4,4"/>
<!-- Node35 -->
<g id="node1" class="node">
<title>Node35</title>
<polygon fill="#bfbfbf" stroke="#000000" points="0,-49.5 0,-79.5 123,-79.5 123,-49.5 0,-49.5"/>
<text text-anchor="start" x="8" y="-67.5" font-family="Helvetica,sans-Serif" font-size="10.00" fill="#000000">bsn::goalmodel::Node</text>
<text text-anchor="middle" x="61.5" y="-56.5" font-family="Helvetica,sans-Serif" font-size="10.00" fill="#000000">::operator=</text>
</g>
<!-- Node36 -->
<g id="node2" class="node">
<title>Node36</title>
<g id="a_node2"><a xlink:href="classbsn_1_1goalmodel_1_1Node.html#ae0ad7ddec09e54734821a25e84677553" target="_top" xlink:title="bsn::goalmodel::Node\l::getID">
<polygon fill="#ffffff" stroke="#000000" points="159,-98.5 159,-128.5 282,-128.5 282,-98.5 159,-98.5"/>
<text text-anchor="start" x="167" y="-116.5" font-family="Helvetica,sans-Serif" font-size="10.00" fill="#000000">bsn::goalmodel::Node</text>
<text text-anchor="middle" x="220.5" y="-105.5" font-family="Helvetica,sans-Serif" font-size="10.00" fill="#000000">::getID</text>
</a>
</g>
</g>
<!-- Node35&#45;&gt;Node36 -->
<g id="edge1" class="edge">
<title>Node35&#45;&gt;Node36</title>
<path fill="none" stroke="#191970" d="M110.5026,-79.6014C126.7494,-84.6083 144.9991,-90.2324 161.8938,-95.439"/>
<polygon fill="#191970" stroke="#191970" points="161.0719,-98.848 171.6592,-98.4484 163.1335,-92.1585 161.0719,-98.848"/>
</g>
<!-- Node37 -->
<g id="node3" class="node">
<title>Node37</title>
<g id="a_node3"><a xlink:href="classbsn_1_1goalmodel_1_1Node.html#a6e9b650e57a8951f241d88267a4521e7" target="_top" xlink:title="bsn::goalmodel::Node\l::getDescription">
<polygon fill="#ffffff" stroke="#000000" points="159,-49.5 159,-79.5 282,-79.5 282,-49.5 159,-49.5"/>
<text text-anchor="start" x="167" y="-67.5" font-family="Helvetica,sans-Serif" font-size="10.00" fill="#000000">bsn::goalmodel::Node</text>
<text text-anchor="middle" x="220.5" y="-56.5" font-family="Helvetica,sans-Serif" font-size="10.00" fill="#000000">::getDescription</text>
</a>
</g>
</g>
<!-- Node35&#45;&gt;Node37 -->
<g id="edge2" class="edge">
<title>Node35&#45;&gt;Node37</title>
<path fill="none" stroke="#191970" d="M123.4288,-64.5C131.6737,-64.5 140.1839,-64.5 148.5803,-64.5"/>
<polygon fill="#191970" stroke="#191970" points="148.7402,-68.0001 158.7402,-64.5 148.7401,-61.0001 148.7402,-68.0001"/>
</g>
<!-- Node38 -->
<g id="node4" class="node">
<title>Node38</title>
<g id="a_node4"><a xlink:href="classbsn_1_1goalmodel_1_1Node.html#ac7e1c2bc59a420499d0dac0a1593282e" target="_top" xlink:title="bsn::goalmodel::Node\l::getChildren">
<polygon fill="#ffffff" stroke="#000000" points="159,-.5 159,-30.5 282,-30.5 282,-.5 159,-.5"/>
<text text-anchor="start" x="167" y="-18.5" font-family="Helvetica,sans-Serif" font-size="10.00" fill="#000000">bsn::goalmodel::Node</text>
<text text-anchor="middle" x="220.5" y="-7.5" font-family="Helvetica,sans-Serif" font-size="10.00" fill="#000000">::getChildren</text>
</a>
</g>
</g>
<!-- Node35&#45;&gt;Node38 -->
<g id="edge3" class="edge">
<title>Node35&#45;&gt;Node38</title>
<path fill="none" stroke="#191970" d="M110.5026,-49.3986C126.7494,-44.3917 144.9991,-38.7676 161.8938,-33.561"/>
<polygon fill="#191970" stroke="#191970" points="163.1335,-36.8415 171.6592,-30.5516 161.0719,-30.152 163.1335,-36.8415"/>
</g>
</g>
</svg>
