<?xml version="1.0" encoding="UTF-8" standalone="no"?>
<!DOCTYPE svg PUBLIC "-//W3C//DTD SVG 1.1//EN"
 "http://www.w3.org/Graphics/SVG/1.1/DTD/svg11.dtd">
<!-- Generated by graphviz version 2.40.1 (20161225.0304)
 -->
<!-- Title: Sensor::isActive Pages: 1 -->
<svg width="403pt" height="28pt"
 viewBox="0.00 0.00 403.00 28.00" xmlns="http://www.w3.org/2000/svg" xmlns:xlink="http://www.w3.org/1999/xlink">
<g id="graph0" class="graph" transform="scale(1 1) rotate(0) translate(4 24)">
<title>Sensor::isActive</title>
<polygon fill="#ffffff" stroke="transparent" points="-4,4 -4,-24 399,-24 399,4 -4,4"/>
<!-- Node37 -->
<g id="node1" class="node">
<title>Node37</title>
<polygon fill="#bfbfbf" stroke="#000000" points="0,-.5 0,-19.5 95,-19.5 95,-.5 0,-.5"/>
<text text-anchor="middle" x="47.5" y="-7.5" font-family="Helvetica,sans-Serif" font-size="10.00" fill="#000000">Sensor::isActive</text>
</g>
<!-- Node38 -->
<g id="node2" class="node">
<title>Node38</title>
<g id="a_node2"><a xlink:href="classSensor.html#a043dabb8b92f70fc247d585b8d66e133" target="_top" xlink:title="Sensor::body">
<polygon fill="#ffffff" stroke="#000000" points="131,-.5 131,-19.5 211,-19.5 211,-.5 131,-.5"/>
<text text-anchor="middle" x="171" y="-7.5" font-family="Helvetica,sans-Serif" font-size="10.00" fill="#000000">Sensor::body</text>
</a>
</g>
</g>
<!-- Node37&#45;&gt;Node38 -->
<g id="edge1" class="edge">
<title>Node37&#45;&gt;Node38</title>
<path fill="none" stroke="#191970" d="M105.3434,-10C114.0185,-10 122.7967,-10 130.9897,-10"/>
<polygon fill="#191970" stroke="#191970" points="105.2484,-6.5001 95.2483,-10 105.2483,-13.5001 105.2484,-6.5001"/>
</g>
<!-- Node39 -->
<g id="node3" class="node">
<title>Node39</title>
<g id="a_node3"><a xlink:href="classSensor.html#a1a664cdb090cb4295bbdedcffb1c8499" target="_top" xlink:title="Sensor::run">
<polygon fill="#ffffff" stroke="#000000" points="247,-.5 247,-19.5 318,-19.5 318,-.5 247,-.5"/>
<text text-anchor="middle" x="282.5" y="-7.5" font-family="Helvetica,sans-Serif" font-size="10.00" fill="#000000">Sensor::run</text>
</a>
</g>
</g>
<!-- Node38&#45;&gt;Node39 -->
<g id="edge2" class="edge">
<title>Node38&#45;&gt;Node39</title>
<path fill="none" stroke="#191970" d="M221.5053,-10C230.0207,-10 238.7008,-10 246.7414,-10"/>
<polygon fill="#191970" stroke="#191970" points="221.2541,-6.5001 211.2541,-10 221.254,-13.5001 221.2541,-6.5001"/>
</g>
<!-- Node40 -->
<g id="node4" class="node">
<title>Node40</title>
<g id="a_node4"><a xlink:href="g3t1__1_8cpp.html#a3c04138a5bfe5d72780bb7e82a18e627" target="_top" xlink:title="main">
<polygon fill="#ffffff" stroke="#000000" points="354,-.5 354,-19.5 395,-19.5 395,-.5 354,-.5"/>
<text text-anchor="middle" x="374.5" y="-7.5" font-family="Helvetica,sans-Serif" font-size="10.00" fill="#000000">main</text>
</a>
</g>
</g>
<!-- Node39&#45;&gt;Node40 -->
<g id="edge3" class="edge">
<title>Node39&#45;&gt;Node40</title>
<path fill="none" stroke="#191970" d="M328.1796,-10C337.206,-10 346.2489,-10 353.9178,-10"/>
<polygon fill="#191970" stroke="#191970" points="328.0696,-6.5001 318.0696,-10 328.0696,-13.5001 328.0696,-6.5001"/>
</g>
</g>
</svg>
