<?xml version="1.0" encoding="UTF-8" standalone="no"?>
<!DOCTYPE svg PUBLIC "-//W3C//DTD SVG 1.1//EN"
 "http://www.w3.org/Graphics/SVG/1.1/DTD/svg11.dtd">
<!-- Generated by graphviz version 2.40.1 (20161225.0304)
 -->
<!-- Title: src/archlib/include/archlib/target_system/Component.hpp Pages: 1 -->
<svg width="968pt" height="218pt"
 viewBox="0.00 0.00 967.51 218.00" xmlns="http://www.w3.org/2000/svg" xmlns:xlink="http://www.w3.org/1999/xlink">
<g id="graph0" class="graph" transform="scale(1 1) rotate(0) translate(4 214)">
<title>src/archlib/include/archlib/target_system/Component.hpp</title>
<polygon fill="#ffffff" stroke="transparent" points="-4,4 -4,-214 963.5137,-214 963.5137,4 -4,4"/>
<!-- Node0 -->
<g id="node1" class="node">
<title>Node0</title>
<polygon fill="#bfbfbf" stroke="#000000" points="349.513,-168.5 349.513,-209.5 475.513,-209.5 475.513,-168.5 349.513,-168.5"/>
<text text-anchor="start" x="357.513" y="-197.5" font-family="Helvetica,sans-Serif" font-size="10.00" fill="#000000">src/archlib/include</text>
<text text-anchor="start" x="357.513" y="-186.5" font-family="Helvetica,sans-Serif" font-size="10.00" fill="#000000">/archlib/target_system</text>
<text text-anchor="middle" x="412.513" y="-175.5" font-family="Helvetica,sans-Serif" font-size="10.00" fill="#000000">/Component.hpp</text>
</g>
<!-- Node1 -->
<g id="node2" class="node">
<title>Node1</title>
<polygon fill="#ffffff" stroke="#bfbfbf" points="45.513,-.5 45.513,-19.5 89.513,-19.5 89.513,-.5 45.513,-.5"/>
<text text-anchor="middle" x="67.513" y="-7.5" font-family="Helvetica,sans-Serif" font-size="10.00" fill="#000000">string</text>
</g>
<!-- Node0&#45;&gt;Node1 -->
<g id="edge1" class="edge">
<title>Node0&#45;&gt;Node1</title>
<path fill="none" stroke="#191970" d="M349.5035,-184.5759C241.7399,-176.3638 31.464,-157.2743 9.513,-132 -18.4995,-99.7466 22.7179,-51.6242 48.8271,-26.5459"/>
<polygon fill="#191970" stroke="#191970" points="51.4139,-28.9197 56.3516,-19.5458 46.646,-23.7946 51.4139,-28.9197"/>
</g>
<!-- Node2 -->
<g id="node3" class="node">
<title>Node2</title>
<polygon fill="#ffffff" stroke="#bfbfbf" points="19.013,-112.5 19.013,-131.5 74.013,-131.5 74.013,-112.5 19.013,-112.5"/>
<text text-anchor="middle" x="46.513" y="-119.5" font-family="Helvetica,sans-Serif" font-size="10.00" fill="#000000">signal.h</text>
</g>
<!-- Node0&#45;&gt;Node2 -->
<g id="edge2" class="edge">
<title>Node0&#45;&gt;Node2</title>
<path fill="none" stroke="#191970" d="M349.4959,-180.0311C285.0276,-170.4243 181.827,-153.8556 84.3704,-132.2705"/>
<polygon fill="#191970" stroke="#191970" points="84.8744,-128.7968 74.3515,-130.0289 83.346,-135.6279 84.8744,-128.7968"/>
</g>
<!-- Node3 -->
<g id="node4" class="node">
<title>Node3</title>
<polygon fill="#ffffff" stroke="#bfbfbf" points="378.013,-.5 378.013,-19.5 437.013,-19.5 437.013,-.5 378.013,-.5"/>
<text text-anchor="middle" x="407.513" y="-7.5" font-family="Helvetica,sans-Serif" font-size="10.00" fill="#000000">ros/ros.h</text>
</g>
<!-- Node0&#45;&gt;Node3 -->
<g id="edge3" class="edge">
<title>Node0&#45;&gt;Node3</title>
<path fill="none" stroke="#191970" d="M475.6097,-186.9754C611.0956,-181.9777 920.1602,-166.8432 951.513,-132 1021.6312,-54.0757 583.6317,-20.6759 447.1734,-12.2419"/>
<polygon fill="#191970" stroke="#191970" points="447.3302,-8.7451 437.1366,-11.6332 446.9064,-15.7323 447.3302,-8.7451"/>
</g>
<!-- Node4 -->
<g id="node5" class="node">
<title>Node4</title>
<polygon fill="#ffffff" stroke="#bfbfbf" points="259.013,-112.5 259.013,-131.5 348.013,-131.5 348.013,-112.5 259.013,-112.5"/>
<text text-anchor="middle" x="303.513" y="-119.5" font-family="Helvetica,sans-Serif" font-size="10.00" fill="#000000">archlib/Event.h</text>
</g>
<!-- Node0&#45;&gt;Node4 -->
<g id="edge4" class="edge">
<title>Node0&#45;&gt;Node4</title>
<path fill="none" stroke="#191970" d="M378.92,-168.3511C362.4472,-158.2256 342.9709,-146.254 327.9386,-137.0139"/>
<polygon fill="#191970" stroke="#191970" points="329.5719,-133.9095 319.2198,-131.6546 325.9062,-139.873 329.5719,-133.9095"/>
</g>
<!-- Node5 -->
<g id="node6" class="node">
<title>Node5</title>
<polygon fill="#ffffff" stroke="#bfbfbf" points="366.513,-112.5 366.513,-131.5 458.513,-131.5 458.513,-112.5 366.513,-112.5"/>
<text text-anchor="middle" x="412.513" y="-119.5" font-family="Helvetica,sans-Serif" font-size="10.00" fill="#000000">archlib/Status.h</text>
</g>
<!-- Node0&#45;&gt;Node5 -->
<g id="edge5" class="edge">
<title>Node0&#45;&gt;Node5</title>
<path fill="none" stroke="#191970" d="M412.513,-168.168C412.513,-159.8226 412.513,-150.2471 412.513,-141.9879"/>
<polygon fill="#191970" stroke="#191970" points="416.0131,-141.7804 412.513,-131.7805 409.0131,-141.7805 416.0131,-141.7804"/>
</g>
<!-- Node6 -->
<g id="node7" class="node">
<title>Node6</title>
<polygon fill="#ffffff" stroke="#bfbfbf" points="476.513,-112.5 476.513,-131.5 602.513,-131.5 602.513,-112.5 476.513,-112.5"/>
<text text-anchor="middle" x="539.513" y="-119.5" font-family="Helvetica,sans-Serif" font-size="10.00" fill="#000000">archlib/EnergyStatus.h</text>
</g>
<!-- Node0&#45;&gt;Node6 -->
<g id="edge6" class="edge">
<title>Node0&#45;&gt;Node6</title>
<path fill="none" stroke="#191970" d="M451.6534,-168.3511C471.2086,-158.0346 494.3966,-145.8015 512.0395,-136.4939"/>
<polygon fill="#191970" stroke="#191970" points="514.0009,-139.4164 521.2124,-131.6546 510.7346,-133.2251 514.0009,-139.4164"/>
</g>
<!-- Node7 -->
<g id="node8" class="node">
<title>Node7</title>
<polygon fill="#ffffff" stroke="#bfbfbf" points="621.013,-112.5 621.013,-131.5 786.013,-131.5 786.013,-112.5 621.013,-112.5"/>
<text text-anchor="middle" x="703.513" y="-119.5" font-family="Helvetica,sans-Serif" font-size="10.00" fill="#000000">archlib/AdaptationCommand.h</text>
</g>
<!-- Node0&#45;&gt;Node7 -->
<g id="edge7" class="edge">
<title>Node0&#45;&gt;Node7</title>
<path fill="none" stroke="#191970" d="M475.6556,-174.462C528.5138,-162.2919 602.9944,-145.1435 652.2269,-133.8081"/>
<polygon fill="#191970" stroke="#191970" points="653.0678,-137.2062 662.0275,-131.5516 651.4971,-130.3847 653.0678,-137.2062"/>
</g>
<!-- Node8 -->
<g id="node9" class="node">
<title>Node8</title>
<polygon fill="#ffffff" stroke="#bfbfbf" points="804.513,-112.5 804.513,-131.5 942.513,-131.5 942.513,-112.5 804.513,-112.5"/>
<text text-anchor="middle" x="873.513" y="-119.5" font-family="Helvetica,sans-Serif" font-size="10.00" fill="#000000">archlib/EffectorRegister.h</text>
</g>
<!-- Node0&#45;&gt;Node8 -->
<g id="edge8" class="edge">
<title>Node0&#45;&gt;Node8</title>
<path fill="none" stroke="#191970" d="M475.6464,-179.8244C559.5827,-167.6254 707.761,-146.0898 797.6668,-133.0232"/>
<polygon fill="#191970" stroke="#191970" points="798.4023,-136.4532 807.7949,-131.5512 797.3954,-129.5259 798.4023,-136.4532"/>
</g>
<!-- Node9 -->
<g id="node10" class="node">
<title>Node9</title>
<g id="a_node10"><a xlink:href="ROSComponent_8hpp.html" target="_top" xlink:title="archlib/ROSComponent.hpp">
<polygon fill="#ffffff" stroke="#000000" points="91.513,-112.5 91.513,-131.5 241.513,-131.5 241.513,-112.5 91.513,-112.5"/>
<text text-anchor="middle" x="166.513" y="-119.5" font-family="Helvetica,sans-Serif" font-size="10.00" fill="#000000">archlib/ROSComponent.hpp</text>
</a>
</g>
</g>
<!-- Node0&#45;&gt;Node9 -->
<g id="edge9" class="edge">
<title>Node0&#45;&gt;Node9</title>
<path fill="none" stroke="#191970" d="M349.4813,-171.8328C306.3574,-160.0877 250.2128,-144.7963 211.5511,-134.2665"/>
<polygon fill="#191970" stroke="#191970" points="212.1954,-130.8145 201.627,-131.5636 210.3558,-137.5685 212.1954,-130.8145"/>
</g>
<!-- Node9&#45;&gt;Node1 -->
<g id="edge10" class="edge">
<title>Node9&#45;&gt;Node1</title>
<path fill="none" stroke="#191970" d="M139.1166,-112.459C121.6899,-105.0615 99.9516,-93.151 86.513,-76 76.0678,-62.6694 71.3643,-43.815 69.2466,-29.6694"/>
<polygon fill="#191970" stroke="#191970" points="72.6974,-29.0474 68.0423,-19.53 65.7463,-29.873 72.6974,-29.0474"/>
</g>
<!-- Node9&#45;&gt;Node3 -->
<g id="edge12" class="edge">
<title>Node9&#45;&gt;Node3</title>
<path fill="none" stroke="#191970" d="M228.7458,-112.4692C290.2304,-102.5222 376.7669,-86.8858 388.513,-76 401.1966,-64.2452 405.6071,-44.6263 407.0475,-29.8265"/>
<polygon fill="#191970" stroke="#191970" points="410.5523,-29.8502 407.6579,-19.6584 403.5649,-29.4307 410.5523,-29.8502"/>
</g>
<!-- Node10 -->
<g id="node11" class="node">
<title>Node10</title>
<polygon fill="#ffffff" stroke="#bfbfbf" points="96.013,-56.5 96.013,-75.5 161.013,-75.5 161.013,-56.5 96.013,-56.5"/>
<text text-anchor="middle" x="128.513" y="-63.5" font-family="Helvetica,sans-Serif" font-size="10.00" fill="#000000">stdexcept</text>
</g>
<!-- Node9&#45;&gt;Node10 -->
<g id="edge11" class="edge">
<title>Node9&#45;&gt;Node10</title>
<path fill="none" stroke="#191970" d="M159.8939,-112.2455C154.6084,-104.4564 147.0588,-93.3308 140.6892,-83.9439"/>
<polygon fill="#191970" stroke="#191970" points="143.5674,-81.9522 135.0562,-75.6427 137.7751,-85.8827 143.5674,-81.9522"/>
</g>
<!-- Node11 -->
<g id="node12" class="node">
<title>Node11</title>
<g id="a_node12"><a xlink:href="ROSComponentDescriptor_8hpp.html" target="_top" xlink:title="archlib/ROSComponentDescriptor.hpp">
<polygon fill="#ffffff" stroke="#000000" points="179.513,-56.5 179.513,-75.5 379.513,-75.5 379.513,-56.5 179.513,-56.5"/>
<text text-anchor="middle" x="279.513" y="-63.5" font-family="Helvetica,sans-Serif" font-size="10.00" fill="#000000">archlib/ROSComponentDescriptor.hpp</text>
</a>
</g>
</g>
<!-- Node9&#45;&gt;Node11 -->
<g id="edge13" class="edge">
<title>Node9&#45;&gt;Node11</title>
<path fill="none" stroke="#191970" d="M185.9384,-112.3733C203.9151,-103.4644 230.8571,-90.1127 251.222,-80.0203"/>
<polygon fill="#191970" stroke="#191970" points="252.9351,-83.0776 260.3411,-75.5011 249.8268,-76.8055 252.9351,-83.0776"/>
</g>
<!-- Node11&#45;&gt;Node1 -->
<g id="edge14" class="edge">
<title>Node11&#45;&gt;Node1</title>
<path fill="none" stroke="#191970" d="M243.0689,-56.3733C202.7055,-45.7112 138.2512,-28.6856 99.6893,-18.4994"/>
<polygon fill="#191970" stroke="#191970" points="100.1032,-14.9888 89.5409,-15.8187 98.3154,-21.7566 100.1032,-14.9888"/>
</g>
<!-- Node11&#45;&gt;Node3 -->
<g id="edge15" class="edge">
<title>Node11&#45;&gt;Node3</title>
<path fill="none" stroke="#191970" d="M301.517,-56.3733C322.1564,-47.3435 353.2287,-33.7494 376.4019,-23.6111"/>
<polygon fill="#191970" stroke="#191970" points="378.0374,-26.7159 385.7961,-19.5011 375.2317,-20.3028 378.0374,-26.7159"/>
</g>
</g>
</svg>
