<?xml version="1.0" encoding="UTF-8" standalone="no"?>
<!DOCTYPE svg PUBLIC "-//W3C//DTD SVG 1.1//EN"
 "http://www.w3.org/Graphics/SVG/1.1/DTD/svg11.dtd">
<!-- Generated by graphviz version 2.40.1 (20161225.0304)
 -->
<!-- Title: src/archlib/src/target_system/Component.cpp Pages: 1 -->
<svg width="968pt" height="274pt"
 viewBox="0.00 0.00 967.70 274.00" xmlns="http://www.w3.org/2000/svg" xmlns:xlink="http://www.w3.org/1999/xlink">
<g id="graph0" class="graph" transform="scale(1 1) rotate(0) translate(4 270)">
<title>src/archlib/src/target_system/Component.cpp</title>
<polygon fill="#ffffff" stroke="transparent" points="-4,4 -4,-270 963.6982,-270 963.6982,4 -4,4"/>
<!-- Node0 -->
<g id="node1" class="node">
<title>Node0</title>
<polygon fill="#bfbfbf" stroke="#000000" points="344.1119,-235.5 344.1119,-265.5 481.1119,-265.5 481.1119,-235.5 344.1119,-235.5"/>
<text text-anchor="start" x="352.1119" y="-253.5" font-family="Helvetica,sans-Serif" font-size="10.00" fill="#000000">src/archlib/src/target</text>
<text text-anchor="middle" x="412.6119" y="-242.5" font-family="Helvetica,sans-Serif" font-size="10.00" fill="#000000">_system/Component.cpp</text>
</g>
<!-- Node1 -->
<g id="node2" class="node">
<title>Node1</title>
<g id="a_node2"><a xlink:href="Component_8hpp.html" target="_top" xlink:title="archlib/target_system\l/Component.hpp">
<polygon fill="#ffffff" stroke="#000000" points="351.1119,-168.5 351.1119,-198.5 474.1119,-198.5 474.1119,-168.5 351.1119,-168.5"/>
<text text-anchor="start" x="359.1119" y="-186.5" font-family="Helvetica,sans-Serif" font-size="10.00" fill="#000000">archlib/target_system</text>
<text text-anchor="middle" x="412.6119" y="-175.5" font-family="Helvetica,sans-Serif" font-size="10.00" fill="#000000">/Component.hpp</text>
</a>
</g>
</g>
<!-- Node0&#45;&gt;Node1 -->
<g id="edge1" class="edge">
<title>Node0&#45;&gt;Node1</title>
<path fill="none" stroke="#191970" d="M412.6119,-235.2967C412.6119,-227.5013 412.6119,-217.7991 412.6119,-208.9064"/>
<polygon fill="#191970" stroke="#191970" points="416.112,-208.6431 412.6119,-198.6432 409.112,-208.6432 416.112,-208.6431"/>
</g>
<!-- Node2 -->
<g id="node3" class="node">
<title>Node2</title>
<polygon fill="#ffffff" stroke="#bfbfbf" points="45.6119,-.5 45.6119,-19.5 89.6119,-19.5 89.6119,-.5 45.6119,-.5"/>
<text text-anchor="middle" x="67.6119" y="-7.5" font-family="Helvetica,sans-Serif" font-size="10.00" fill="#000000">string</text>
</g>
<!-- Node1&#45;&gt;Node2 -->
<g id="edge2" class="edge">
<title>Node1&#45;&gt;Node2</title>
<path fill="none" stroke="#191970" d="M350.9027,-180.0366C243.5727,-173.3776 31.7794,-157.1806 9.6119,-132 -18.6161,-99.9351 22.6924,-51.733 48.8722,-26.5929"/>
<polygon fill="#191970" stroke="#191970" points="51.4791,-28.9481 56.4176,-19.5746 46.7116,-23.8226 51.4791,-28.9481"/>
</g>
<!-- Node3 -->
<g id="node4" class="node">
<title>Node3</title>
<polygon fill="#ffffff" stroke="#bfbfbf" points="19.1119,-112.5 19.1119,-131.5 74.1119,-131.5 74.1119,-112.5 19.1119,-112.5"/>
<text text-anchor="middle" x="46.6119" y="-119.5" font-family="Helvetica,sans-Serif" font-size="10.00" fill="#000000">signal.h</text>
</g>
<!-- Node1&#45;&gt;Node3 -->
<g id="edge3" class="edge">
<title>Node1&#45;&gt;Node3</title>
<path fill="none" stroke="#191970" d="M351.0944,-176.0722C286.6635,-167.8044 182.4068,-153.0505 84.2266,-132.1795"/>
<polygon fill="#191970" stroke="#191970" points="84.9529,-128.7557 74.4404,-130.0742 83.4806,-135.5992 84.9529,-128.7557"/>
</g>
<!-- Node4 -->
<g id="node5" class="node">
<title>Node4</title>
<polygon fill="#ffffff" stroke="#bfbfbf" points="378.1119,-.5 378.1119,-19.5 437.1119,-19.5 437.1119,-.5 378.1119,-.5"/>
<text text-anchor="middle" x="407.6119" y="-7.5" font-family="Helvetica,sans-Serif" font-size="10.00" fill="#000000">ros/ros.h</text>
</g>
<!-- Node1&#45;&gt;Node4 -->
<g id="edge4" class="edge">
<title>Node1&#45;&gt;Node4</title>
<path fill="none" stroke="#191970" d="M474.1654,-182.1779C608.8009,-178.6492 919.997,-166.7796 951.6119,-132 1022.1228,-54.4308 583.8515,-20.7852 447.3002,-12.2672"/>
<polygon fill="#191970" stroke="#191970" points="447.4518,-8.77 437.2566,-11.6522 447.024,-15.7569 447.4518,-8.77"/>
</g>
<!-- Node5 -->
<g id="node6" class="node">
<title>Node5</title>
<polygon fill="#ffffff" stroke="#bfbfbf" points="259.1119,-112.5 259.1119,-131.5 348.1119,-131.5 348.1119,-112.5 259.1119,-112.5"/>
<text text-anchor="middle" x="303.6119" y="-119.5" font-family="Helvetica,sans-Serif" font-size="10.00" fill="#000000">archlib/Event.h</text>
</g>
<!-- Node1&#45;&gt;Node5 -->
<g id="edge5" class="edge">
<title>Node1&#45;&gt;Node5</title>
<path fill="none" stroke="#191970" d="M385.9475,-168.4554C368.7178,-158.734 346.4144,-146.15 329.3673,-136.5317"/>
<polygon fill="#191970" stroke="#191970" points="330.9323,-133.3961 320.503,-131.5303 327.4925,-139.4926 330.9323,-133.3961"/>
</g>
<!-- Node6 -->
<g id="node7" class="node">
<title>Node6</title>
<polygon fill="#ffffff" stroke="#bfbfbf" points="366.6119,-112.5 366.6119,-131.5 458.6119,-131.5 458.6119,-112.5 366.6119,-112.5"/>
<text text-anchor="middle" x="412.6119" y="-119.5" font-family="Helvetica,sans-Serif" font-size="10.00" fill="#000000">archlib/Status.h</text>
</g>
<!-- Node1&#45;&gt;Node6 -->
<g id="edge6" class="edge">
<title>Node1&#45;&gt;Node6</title>
<path fill="none" stroke="#191970" d="M412.6119,-168.2977C412.6119,-160.3834 412.6119,-150.6043 412.6119,-142.0759"/>
<polygon fill="#191970" stroke="#191970" points="416.112,-141.8469 412.6119,-131.8469 409.112,-141.847 416.112,-141.8469"/>
</g>
<!-- Node7 -->
<g id="node8" class="node">
<title>Node7</title>
<polygon fill="#ffffff" stroke="#bfbfbf" points="476.6119,-112.5 476.6119,-131.5 602.6119,-131.5 602.6119,-112.5 476.6119,-112.5"/>
<text text-anchor="middle" x="539.6119" y="-119.5" font-family="Helvetica,sans-Serif" font-size="10.00" fill="#000000">archlib/EnergyStatus.h</text>
</g>
<!-- Node1&#45;&gt;Node7 -->
<g id="edge7" class="edge">
<title>Node1&#45;&gt;Node7</title>
<path fill="none" stroke="#191970" d="M443.6796,-168.4554C464.1264,-158.554 490.7056,-145.683 510.7004,-136.0004"/>
<polygon fill="#191970" stroke="#191970" points="512.4566,-139.0388 519.9314,-131.5303 509.4057,-132.7387 512.4566,-139.0388"/>
</g>
<!-- Node8 -->
<g id="node9" class="node">
<title>Node8</title>
<polygon fill="#ffffff" stroke="#bfbfbf" points="621.1119,-112.5 621.1119,-131.5 786.1119,-131.5 786.1119,-112.5 621.1119,-112.5"/>
<text text-anchor="middle" x="703.6119" y="-119.5" font-family="Helvetica,sans-Serif" font-size="10.00" fill="#000000">archlib/AdaptationCommand.h</text>
</g>
<!-- Node1&#45;&gt;Node8 -->
<g id="edge8" class="edge">
<title>Node1&#45;&gt;Node8</title>
<path fill="none" stroke="#191970" d="M474.3255,-170.4574C525.9892,-159.5388 599.0324,-144.1019 648.6951,-133.6061"/>
<polygon fill="#191970" stroke="#191970" points="649.5517,-137.0025 658.6118,-131.5103 648.1042,-130.1538 649.5517,-137.0025"/>
</g>
<!-- Node9 -->
<g id="node10" class="node">
<title>Node9</title>
<polygon fill="#ffffff" stroke="#bfbfbf" points="804.6119,-112.5 804.6119,-131.5 942.6119,-131.5 942.6119,-112.5 804.6119,-112.5"/>
<text text-anchor="middle" x="873.6119" y="-119.5" font-family="Helvetica,sans-Serif" font-size="10.00" fill="#000000">archlib/EffectorRegister.h</text>
</g>
<!-- Node1&#45;&gt;Node9 -->
<g id="edge9" class="edge">
<title>Node1&#45;&gt;Node9</title>
<path fill="none" stroke="#191970" d="M474.3061,-175.2697C556.9569,-164.2436 703.7071,-144.6663 794.4284,-132.5635"/>
<polygon fill="#191970" stroke="#191970" points="794.9392,-136.0265 804.3885,-131.2348 794.0135,-129.0879 794.9392,-136.0265"/>
</g>
<!-- Node10 -->
<g id="node11" class="node">
<title>Node10</title>
<g id="a_node11"><a xlink:href="ROSComponent_8hpp.html" target="_top" xlink:title="archlib/ROSComponent.hpp">
<polygon fill="#ffffff" stroke="#000000" points="91.6119,-112.5 91.6119,-131.5 241.6119,-131.5 241.6119,-112.5 91.6119,-112.5"/>
<text text-anchor="middle" x="166.6119" y="-119.5" font-family="Helvetica,sans-Serif" font-size="10.00" fill="#000000">archlib/ROSComponent.hpp</text>
</a>
</g>
</g>
<!-- Node1&#45;&gt;Node10 -->
<g id="edge10" class="edge">
<title>Node1&#45;&gt;Node10</title>
<path fill="none" stroke="#191970" d="M352.4335,-168.4554C310.0376,-157.8564 254.0301,-143.8546 214.626,-134.0035"/>
<polygon fill="#191970" stroke="#191970" points="215.2835,-130.5602 204.7332,-131.5303 213.5857,-137.3512 215.2835,-130.5602"/>
</g>
<!-- Node10&#45;&gt;Node2 -->
<g id="edge11" class="edge">
<title>Node10&#45;&gt;Node2</title>
<path fill="none" stroke="#191970" d="M139.2155,-112.459C121.7888,-105.0615 100.0506,-93.151 86.6119,-76 76.1667,-62.6694 71.4632,-43.815 69.3455,-29.6694"/>
<polygon fill="#191970" stroke="#191970" points="72.7963,-29.0474 68.1413,-19.53 65.8452,-29.873 72.7963,-29.0474"/>
</g>
<!-- Node10&#45;&gt;Node4 -->
<g id="edge13" class="edge">
<title>Node10&#45;&gt;Node4</title>
<path fill="none" stroke="#191970" d="M228.8447,-112.4692C290.3294,-102.5222 376.8658,-86.8858 388.6119,-76 401.2956,-64.2452 405.7061,-44.6263 407.1465,-29.8265"/>
<polygon fill="#191970" stroke="#191970" points="410.6513,-29.8502 407.7568,-19.6584 403.6638,-29.4307 410.6513,-29.8502"/>
</g>
<!-- Node11 -->
<g id="node12" class="node">
<title>Node11</title>
<polygon fill="#ffffff" stroke="#bfbfbf" points="96.1119,-56.5 96.1119,-75.5 161.1119,-75.5 161.1119,-56.5 96.1119,-56.5"/>
<text text-anchor="middle" x="128.6119" y="-63.5" font-family="Helvetica,sans-Serif" font-size="10.00" fill="#000000">stdexcept</text>
</g>
<!-- Node10&#45;&gt;Node11 -->
<g id="edge12" class="edge">
<title>Node10&#45;&gt;Node11</title>
<path fill="none" stroke="#191970" d="M159.9928,-112.2455C154.7073,-104.4564 147.1578,-93.3308 140.7881,-83.9439"/>
<polygon fill="#191970" stroke="#191970" points="143.6664,-81.9522 135.1551,-75.6427 137.874,-85.8827 143.6664,-81.9522"/>
</g>
<!-- Node12 -->
<g id="node13" class="node">
<title>Node12</title>
<g id="a_node13"><a xlink:href="ROSComponentDescriptor_8hpp.html" target="_top" xlink:title="archlib/ROSComponentDescriptor.hpp">
<polygon fill="#ffffff" stroke="#000000" points="179.6119,-56.5 179.6119,-75.5 379.6119,-75.5 379.6119,-56.5 179.6119,-56.5"/>
<text text-anchor="middle" x="279.6119" y="-63.5" font-family="Helvetica,sans-Serif" font-size="10.00" fill="#000000">archlib/ROSComponentDescriptor.hpp</text>
</a>
</g>
</g>
<!-- Node10&#45;&gt;Node12 -->
<g id="edge14" class="edge">
<title>Node10&#45;&gt;Node12</title>
<path fill="none" stroke="#191970" d="M186.0373,-112.3733C204.014,-103.4644 230.956,-90.1127 251.3209,-80.0203"/>
<polygon fill="#191970" stroke="#191970" points="253.0341,-83.0776 260.44,-75.5011 249.9258,-76.8055 253.0341,-83.0776"/>
</g>
<!-- Node12&#45;&gt;Node2 -->
<g id="edge15" class="edge">
<title>Node12&#45;&gt;Node2</title>
<path fill="none" stroke="#191970" d="M243.1678,-56.3733C202.8045,-45.7112 138.3502,-28.6856 99.7882,-18.4994"/>
<polygon fill="#191970" stroke="#191970" points="100.2021,-14.9888 89.6399,-15.8187 98.4144,-21.7566 100.2021,-14.9888"/>
</g>
<!-- Node12&#45;&gt;Node4 -->
<g id="edge16" class="edge">
<title>Node12&#45;&gt;Node4</title>
<path fill="none" stroke="#191970" d="M301.6159,-56.3733C322.2554,-47.3435 353.3277,-33.7494 376.5008,-23.6111"/>
<polygon fill="#191970" stroke="#191970" points="378.1364,-26.7159 385.895,-19.5011 375.3306,-20.3028 378.1364,-26.7159"/>
</g>
</g>
</svg>
