<?xml version="1.0" encoding="UTF-8" standalone="no"?>
<!DOCTYPE svg PUBLIC "-//W3C//DTD SVG 1.1//EN"
 "http://www.w3.org/Graphics/SVG/1.1/DTD/svg11.dtd">
<!-- Generated by graphviz version 2.40.1 (20161225.0304)
 -->
<!-- Title: src/libbsn/test/unit/configuration/ConfigurationTest.cpp Pages: 1 -->
<svg width="418pt" height="229pt"
 viewBox="0.00 0.00 418.00 229.00" xmlns="http://www.w3.org/2000/svg" xmlns:xlink="http://www.w3.org/1999/xlink">
<g id="graph0" class="graph" transform="scale(1 1) rotate(0) translate(4 225)">
<title>src/libbsn/test/unit/configuration/ConfigurationTest.cpp</title>
<polygon fill="#ffffff" stroke="transparent" points="-4,4 -4,-225 414,-225 414,4 -4,4"/>
<!-- Node0 -->
<g id="node1" class="node">
<title>Node0</title>
<polygon fill="#bfbfbf" stroke="#000000" points="83,-179.5 83,-220.5 235,-220.5 235,-179.5 83,-179.5"/>
<text text-anchor="start" x="91" y="-208.5" font-family="Helvetica,sans-Serif" font-size="10.00" fill="#000000">src/libbsn/test/unit</text>
<text text-anchor="start" x="91" y="-197.5" font-family="Helvetica,sans-Serif" font-size="10.00" fill="#000000">/configuration/Configuration</text>
<text text-anchor="middle" x="159" y="-186.5" font-family="Helvetica,sans-Serif" font-size="10.00" fill="#000000">Test.cpp</text>
</g>
<!-- Node1 -->
<g id="node2" class="node">
<title>Node1</title>
<polygon fill="#ffffff" stroke="#bfbfbf" points="57,-118 57,-137 135,-137 135,-118 57,-118"/>
<text text-anchor="middle" x="96" y="-125" font-family="Helvetica,sans-Serif" font-size="10.00" fill="#000000">gtest/gtest.h</text>
</g>
<!-- Node0&#45;&gt;Node1 -->
<g id="edge1" class="edge">
<title>Node0&#45;&gt;Node1</title>
<path fill="none" stroke="#191970" d="M141.1152,-179.4183C131.5853,-168.4514 119.9966,-155.1152 110.9508,-144.7053"/>
<polygon fill="#191970" stroke="#191970" points="113.5305,-142.3379 104.3293,-137.0853 108.2467,-146.9294 113.5305,-142.3379"/>
</g>
<!-- Node2 -->
<g id="node3" class="node">
<title>Node2</title>
<g id="a_node3"><a xlink:href="SensorConfiguration_8hpp.html" target="_top" xlink:title="libbsn/configuration\l/SensorConfiguration.hpp">
<polygon fill="#ffffff" stroke="#000000" points="153.5,-112.5 153.5,-142.5 292.5,-142.5 292.5,-112.5 153.5,-112.5"/>
<text text-anchor="start" x="161.5" y="-130.5" font-family="Helvetica,sans-Serif" font-size="10.00" fill="#000000">libbsn/configuration</text>
<text text-anchor="middle" x="223" y="-119.5" font-family="Helvetica,sans-Serif" font-size="10.00" fill="#000000">/SensorConfiguration.hpp</text>
</a>
</g>
</g>
<!-- Node0&#45;&gt;Node2 -->
<g id="edge2" class="edge">
<title>Node0&#45;&gt;Node2</title>
<path fill="none" stroke="#191970" d="M177.1686,-179.4183C185.1718,-170.3522 194.6043,-159.6671 202.8251,-150.3544"/>
<polygon fill="#191970" stroke="#191970" points="205.6771,-152.4123 209.6711,-142.5991 200.4293,-147.7797 205.6771,-152.4123"/>
</g>
<!-- Node3 -->
<g id="node4" class="node">
<title>Node3</title>
<polygon fill="#ffffff" stroke="#bfbfbf" points="0,-.5 0,-19.5 44,-19.5 44,-.5 0,-.5"/>
<text text-anchor="middle" x="22" y="-7.5" font-family="Helvetica,sans-Serif" font-size="10.00" fill="#000000">string</text>
</g>
<!-- Node2&#45;&gt;Node3 -->
<g id="edge3" class="edge">
<title>Node2&#45;&gt;Node3</title>
<path fill="none" stroke="#191970" d="M168.2759,-112.4452C142.6873,-103.9842 112.5259,-91.8911 88,-76 67.5371,-62.7415 48.328,-42.2677 35.9681,-27.6409"/>
<polygon fill="#191970" stroke="#191970" points="38.5788,-25.3052 29.5246,-19.8033 33.1716,-29.7506 38.5788,-25.3052"/>
</g>
<!-- Node4 -->
<g id="node5" class="node">
<title>Node4</title>
<polygon fill="#ffffff" stroke="#bfbfbf" points="298.5,-56.5 298.5,-75.5 349.5,-75.5 349.5,-56.5 298.5,-56.5"/>
<text text-anchor="middle" x="324" y="-63.5" font-family="Helvetica,sans-Serif" font-size="10.00" fill="#000000">math.h</text>
</g>
<!-- Node2&#45;&gt;Node4 -->
<g id="edge4" class="edge">
<title>Node2&#45;&gt;Node4</title>
<path fill="none" stroke="#191970" d="M247.7074,-112.4554C263.5247,-102.8241 283.9567,-90.3828 299.6949,-80.7996"/>
<polygon fill="#191970" stroke="#191970" points="301.6277,-83.7206 308.3486,-75.5303 297.9871,-77.7418 301.6277,-83.7206"/>
</g>
<!-- Node5 -->
<g id="node6" class="node">
<title>Node5</title>
<polygon fill="#ffffff" stroke="#bfbfbf" points="62,-.5 62,-19.5 122,-19.5 122,-.5 62,-.5"/>
<text text-anchor="middle" x="92" y="-7.5" font-family="Helvetica,sans-Serif" font-size="10.00" fill="#000000">iostream</text>
</g>
<!-- Node2&#45;&gt;Node5 -->
<g id="edge5" class="edge">
<title>Node2&#45;&gt;Node5</title>
<path fill="none" stroke="#191970" d="M155.7042,-112.4744C135.5876,-104.7749 115.3573,-93.2325 102,-76 91.916,-62.9904 89.9432,-44.1008 90.1854,-29.8603"/>
<polygon fill="#191970" stroke="#191970" points="93.693,-29.813 90.7417,-19.6376 86.7034,-29.4325 93.693,-29.813"/>
</g>
<!-- Node6 -->
<g id="node7" class="node">
<title>Node6</title>
<polygon fill="#ffffff" stroke="#bfbfbf" points="368,-56.5 368,-75.5 410,-75.5 410,-56.5 368,-56.5"/>
<text text-anchor="middle" x="389" y="-63.5" font-family="Helvetica,sans-Serif" font-size="10.00" fill="#000000">array</text>
</g>
<!-- Node2&#45;&gt;Node6 -->
<g id="edge6" class="edge">
<title>Node2&#45;&gt;Node6</title>
<path fill="none" stroke="#191970" d="M263.6082,-112.4554C292.7162,-101.6714 331.3328,-87.3647 357.9824,-77.4915"/>
<polygon fill="#191970" stroke="#191970" points="359.4042,-80.6973 367.5654,-73.9411 356.9723,-74.1333 359.4042,-80.6973"/>
</g>
<!-- Node7 -->
<g id="node8" class="node">
<title>Node7</title>
<polygon fill="#ffffff" stroke="#bfbfbf" points="295,-.5 295,-19.5 351,-19.5 351,-.5 295,-.5"/>
<text text-anchor="middle" x="323" y="-7.5" font-family="Helvetica,sans-Serif" font-size="10.00" fill="#000000">sstream</text>
</g>
<!-- Node2&#45;&gt;Node7 -->
<g id="edge7" class="edge">
<title>Node2&#45;&gt;Node7</title>
<path fill="none" stroke="#191970" d="M236.0733,-112.1389C254.6633,-90.2957 288.6405,-50.3724 308.1554,-27.4424"/>
<polygon fill="#191970" stroke="#191970" points="311.0484,-29.4433 314.8643,-19.5595 305.7177,-24.9065 311.0484,-29.4433"/>
</g>
<!-- Node8 -->
<g id="node9" class="node">
<title>Node8</title>
<g id="a_node9"><a xlink:href="Range_8hpp.html" target="_top" xlink:title="libbsn/range/Range.hpp">
<polygon fill="#ffffff" stroke="#000000" points="110.5,-56.5 110.5,-75.5 241.5,-75.5 241.5,-56.5 110.5,-56.5"/>
<text text-anchor="middle" x="176" y="-63.5" font-family="Helvetica,sans-Serif" font-size="10.00" fill="#000000">libbsn/range/Range.hpp</text>
</a>
</g>
</g>
<!-- Node2&#45;&gt;Node8 -->
<g id="edge8" class="edge">
<title>Node2&#45;&gt;Node8</title>
<path fill="none" stroke="#191970" d="M211.382,-112.2977C204.79,-103.672 196.5052,-92.8312 189.6099,-83.8087"/>
<polygon fill="#191970" stroke="#191970" points="192.3783,-81.6671 183.5253,-75.8469 186.8165,-85.9176 192.3783,-81.6671"/>
</g>
<!-- Node8&#45;&gt;Node3 -->
<g id="edge9" class="edge">
<title>Node8&#45;&gt;Node3</title>
<path fill="none" stroke="#191970" d="M149.5265,-56.3733C122.9095,-46.6944 81.8709,-31.7712 53.5733,-21.4812"/>
<polygon fill="#191970" stroke="#191970" points="54.734,-18.1791 44.14,-18.0509 52.3418,-24.7577 54.734,-18.1791"/>
</g>
<!-- Node8&#45;&gt;Node5 -->
<g id="edge11" class="edge">
<title>Node8&#45;&gt;Node5</title>
<path fill="none" stroke="#191970" d="M161.3683,-56.2455C148.6006,-47.7337 129.8562,-35.2375 115.0701,-25.3801"/>
<polygon fill="#191970" stroke="#191970" points="116.726,-22.2775 106.464,-19.6427 112.8431,-28.1019 116.726,-22.2775"/>
</g>
<!-- Node8&#45;&gt;Node7 -->
<g id="edge13" class="edge">
<title>Node8&#45;&gt;Node7</title>
<path fill="none" stroke="#191970" d="M201.2702,-56.3733C225.3966,-47.1822 261.9362,-33.2624 288.6877,-23.0713"/>
<polygon fill="#191970" stroke="#191970" points="289.9607,-26.3318 298.0596,-19.5011 287.4687,-19.7904 289.9607,-26.3318"/>
</g>
<!-- Node9 -->
<g id="node10" class="node">
<title>Node9</title>
<polygon fill="#ffffff" stroke="#bfbfbf" points="211.5,-.5 211.5,-19.5 276.5,-19.5 276.5,-.5 211.5,-.5"/>
<text text-anchor="middle" x="244" y="-7.5" font-family="Helvetica,sans-Serif" font-size="10.00" fill="#000000">stdexcept</text>
</g>
<!-- Node8&#45;&gt;Node9 -->
<g id="edge10" class="edge">
<title>Node8&#45;&gt;Node9</title>
<path fill="none" stroke="#191970" d="M187.8447,-56.2455C197.888,-47.9746 212.4995,-35.9416 224.3004,-26.2232"/>
<polygon fill="#191970" stroke="#191970" points="226.7967,-28.7015 232.291,-19.6427 222.3467,-23.298 226.7967,-28.7015"/>
</g>
<!-- Node10 -->
<g id="node11" class="node">
<title>Node10</title>
<polygon fill="#ffffff" stroke="#bfbfbf" points="140.5,-.5 140.5,-19.5 193.5,-19.5 193.5,-.5 140.5,-.5"/>
<text text-anchor="middle" x="167" y="-7.5" font-family="Helvetica,sans-Serif" font-size="10.00" fill="#000000">stdint.h</text>
</g>
<!-- Node8&#45;&gt;Node10 -->
<g id="edge12" class="edge">
<title>Node8&#45;&gt;Node10</title>
<path fill="none" stroke="#191970" d="M174.4323,-56.2455C173.2579,-48.9382 171.6116,-38.6944 170.1668,-29.7046"/>
<polygon fill="#191970" stroke="#191970" points="173.5922,-28.9606 168.5497,-19.6427 166.6809,-30.0714 173.5922,-28.9606"/>
</g>
</g>
</svg>
