<?xml version="1.0" encoding="UTF-8" standalone="no"?>
<!DOCTYPE svg PUBLIC "-//W3C//DTD SVG 1.1//EN"
 "http://www.w3.org/Graphics/SVG/1.1/DTD/svg11.dtd">
<!-- Generated by graphviz version 2.40.1 (20161225.0304)
 -->
<!-- Title: TEST_F Pages: 1 -->
<svg width="231pt" height="137pt"
 viewBox="0.00 0.00 231.00 137.00" xmlns="http://www.w3.org/2000/svg" xmlns:xlink="http://www.w3.org/1999/xlink">
<g id="graph0" class="graph" transform="scale(1 1) rotate(0) translate(4 133)">
<title>TEST_F</title>
<polygon fill="#ffffff" stroke="transparent" points="-4,4 -4,-133 227,-133 227,4 -4,4"/>
<!-- Node0 -->
<g id="node1" class="node">
<title>Node0</title>
<polygon fill="#bfbfbf" stroke="#000000" points="0,-55 0,-74 51,-74 51,-55 0,-55"/>
<text text-anchor="middle" x="25.5" y="-62" font-family="Helvetica,sans-Serif" font-size="10.00" fill="#000000">TEST_F</text>
</g>
<!-- Node1 -->
<g id="node2" class="node">
<title>Node1</title>
<g id="a_node2"><a xlink:href="classbsn_1_1goalmodel_1_1Context.html#a1a85b9742883830048170eb0e0d6ec63" target="_top" xlink:title="bsn::goalmodel::Context\l::getID">
<polygon fill="#ffffff" stroke="#000000" points="87,-98.5 87,-128.5 223,-128.5 223,-98.5 87,-98.5"/>
<text text-anchor="start" x="95" y="-116.5" font-family="Helvetica,sans-Serif" font-size="10.00" fill="#000000">bsn::goalmodel::Context</text>
<text text-anchor="middle" x="155" y="-105.5" font-family="Helvetica,sans-Serif" font-size="10.00" fill="#000000">::getID</text>
</a>
</g>
</g>
<!-- Node0&#45;&gt;Node1 -->
<g id="edge1" class="edge">
<title>Node0&#45;&gt;Node1</title>
<path fill="none" stroke="#191970" d="M48.1807,-74.0156C59.7478,-78.7931 74.0691,-84.5929 87,-89.5 91.7789,-91.3135 96.763,-93.159 101.7654,-94.9802"/>
<polygon fill="#191970" stroke="#191970" points="100.7643,-98.3397 111.3587,-98.4376 103.1377,-91.7543 100.7643,-98.3397"/>
</g>
<!-- Node2 -->
<g id="node3" class="node">
<title>Node2</title>
<g id="a_node3"><a xlink:href="classbsn_1_1goalmodel_1_1Context.html#a9f20ad24f09de5021153ee43849bc761" target="_top" xlink:title="bsn::goalmodel::Context\l::getDescription">
<polygon fill="#ffffff" stroke="#000000" points="87,-49.5 87,-79.5 223,-79.5 223,-49.5 87,-49.5"/>
<text text-anchor="start" x="95" y="-67.5" font-family="Helvetica,sans-Serif" font-size="10.00" fill="#000000">bsn::goalmodel::Context</text>
<text text-anchor="middle" x="155" y="-56.5" font-family="Helvetica,sans-Serif" font-size="10.00" fill="#000000">::getDescription</text>
</a>
</g>
</g>
<!-- Node0&#45;&gt;Node2 -->
<g id="edge2" class="edge">
<title>Node0&#45;&gt;Node2</title>
<path fill="none" stroke="#191970" d="M51.085,-64.5C58.7176,-64.5 67.5132,-64.5 76.6892,-64.5"/>
<polygon fill="#191970" stroke="#191970" points="76.7584,-68.0001 86.7584,-64.5 76.7584,-61.0001 76.7584,-68.0001"/>
</g>
<!-- Node3 -->
<g id="node4" class="node">
<title>Node3</title>
<g id="a_node4"><a xlink:href="classbsn_1_1goalmodel_1_1Context.html#ae83fe1b52f926d67ca2abafc9d47484a" target="_top" xlink:title="bsn::goalmodel::Context\l::getValue">
<polygon fill="#ffffff" stroke="#000000" points="87,-.5 87,-30.5 223,-30.5 223,-.5 87,-.5"/>
<text text-anchor="start" x="95" y="-18.5" font-family="Helvetica,sans-Serif" font-size="10.00" fill="#000000">bsn::goalmodel::Context</text>
<text text-anchor="middle" x="155" y="-7.5" font-family="Helvetica,sans-Serif" font-size="10.00" fill="#000000">::getValue</text>
</a>
</g>
</g>
<!-- Node0&#45;&gt;Node3 -->
<g id="edge3" class="edge">
<title>Node0&#45;&gt;Node3</title>
<path fill="none" stroke="#191970" d="M49.7014,-54.9284C61.0123,-50.4876 74.6746,-45.1701 87,-40.5 92.5006,-38.4158 98.2608,-36.2588 104.0022,-34.1251"/>
<polygon fill="#191970" stroke="#191970" points="105.4344,-37.3271 113.5975,-30.5733 103.0043,-30.7624 105.4344,-37.3271"/>
</g>
</g>
</svg>
