<?xml version="1.0" encoding="UTF-8" standalone="no"?>
<!DOCTYPE svg PUBLIC "-//W3C//DTD SVG 1.1//EN"
 "http://www.w3.org/Graphics/SVG/1.1/DTD/svg11.dtd">
<!-- Generated by graphviz version 2.40.1 (20161225.0304)
 -->
<!-- Title: src/sa&#45;bsn/system_manager/enactor/include/controller/Controller.hpp Pages: 1 -->
<svg width="334pt" height="117pt"
 viewBox="0.00 0.00 334.00 117.00" xmlns="http://www.w3.org/2000/svg" xmlns:xlink="http://www.w3.org/1999/xlink">
<g id="graph0" class="graph" transform="scale(1 1) rotate(0) translate(4 113)">
<title>src/sa&#45;bsn/system_manager/enactor/include/controller/Controller.hpp</title>
<polygon fill="#ffffff" stroke="transparent" points="-4,4 -4,-113 330,-113 330,4 -4,4"/>
<!-- Node20 -->
<g id="node1" class="node">
<title>Node20</title>
<polygon fill="#bfbfbf" stroke="#000000" points="86,-67.5 86,-108.5 240,-108.5 240,-67.5 86,-67.5"/>
<text text-anchor="start" x="94" y="-96.5" font-family="Helvetica,sans-Serif" font-size="10.00" fill="#000000">src/sa&#45;bsn/system_manager</text>
<text text-anchor="start" x="94" y="-85.5" font-family="Helvetica,sans-Serif" font-size="10.00" fill="#000000">/enactor/include/controller</text>
<text text-anchor="middle" x="163" y="-74.5" font-family="Helvetica,sans-Serif" font-size="10.00" fill="#000000">/Controller.hpp</text>
</g>
<!-- Node21 -->
<g id="node2" class="node">
<title>Node21</title>
<g id="a_node2"><a xlink:href="controller_8cpp.html" target="_top" xlink:title="src/sa&#45;bsn/system_manager\l/enactor/apps/controller.cpp">
<polygon fill="#ffffff" stroke="#000000" points="0,-.5 0,-30.5 154,-30.5 154,-.5 0,-.5"/>
<text text-anchor="start" x="8" y="-18.5" font-family="Helvetica,sans-Serif" font-size="10.00" fill="#000000">src/sa&#45;bsn/system_manager</text>
<text text-anchor="middle" x="77" y="-7.5" font-family="Helvetica,sans-Serif" font-size="10.00" fill="#000000">/enactor/apps/controller.cpp</text>
</a>
</g>
</g>
<!-- Node20&#45;&gt;Node21 -->
<g id="edge1" class="edge">
<title>Node20&#45;&gt;Node21</title>
<path fill="none" stroke="#191970" d="M130.824,-60.8749C118.6746,-50.6327 105.2922,-39.351 94.9107,-30.5991"/>
<polygon fill="#191970" stroke="#191970" points="128.6843,-63.6488 138.5859,-67.4183 133.1961,-58.2969 128.6843,-63.6488"/>
</g>
<!-- Node22 -->
<g id="node3" class="node">
<title>Node22</title>
<g id="a_node3"><a xlink:href="Controller_8cpp.html" target="_top" xlink:title="src/sa&#45;bsn/system_manager\l/enactor/src/Controller.cpp">
<polygon fill="#ffffff" stroke="#000000" points="172,-.5 172,-30.5 326,-30.5 326,-.5 172,-.5"/>
<text text-anchor="start" x="180" y="-18.5" font-family="Helvetica,sans-Serif" font-size="10.00" fill="#000000">src/sa&#45;bsn/system_manager</text>
<text text-anchor="middle" x="249" y="-7.5" font-family="Helvetica,sans-Serif" font-size="10.00" fill="#000000">/enactor/src/Controller.cpp</text>
</a>
</g>
</g>
<!-- Node20&#45;&gt;Node22 -->
<g id="edge2" class="edge">
<title>Node20&#45;&gt;Node22</title>
<path fill="none" stroke="#191970" d="M195.176,-60.8749C207.3254,-50.6327 220.7078,-39.351 231.0893,-30.5991"/>
<polygon fill="#191970" stroke="#191970" points="192.8039,-58.2969 187.4141,-67.4183 197.3157,-63.6488 192.8039,-58.2969"/>
</g>
</g>
</svg>
