<?xml version="1.0" encoding="UTF-8" standalone="no"?>
<!DOCTYPE svg PUBLIC "-//W3C//DTD SVG 1.1//EN"
 "http://www.w3.org/Graphics/SVG/1.1/DTD/svg11.dtd">
<!-- Generated by graphviz version 2.40.1 (20161225.0304)
 -->
<!-- Title: src/sa&#45;bsn/system_manager/enactor/include/controller/Controller.hpp Pages: 1 -->
<svg width="1631pt" height="274pt"
 viewBox="0.00 0.00 1631.00 274.00" xmlns="http://www.w3.org/2000/svg" xmlns:xlink="http://www.w3.org/1999/xlink">
<g id="graph0" class="graph" transform="scale(1 1) rotate(0) translate(4 270)">
<title>src/sa&#45;bsn/system_manager/enactor/include/controller/Controller.hpp</title>
<polygon fill="#ffffff" stroke="transparent" points="-4,4 -4,-270 1627,-270 1627,4 -4,4"/>
<!-- Node0 -->
<g id="node1" class="node">
<title>Node0</title>
<polygon fill="#bfbfbf" stroke="#000000" points="579,-224.5 579,-265.5 733,-265.5 733,-224.5 579,-224.5"/>
<text text-anchor="start" x="587" y="-253.5" font-family="Helvetica,sans-Serif" font-size="10.00" fill="#000000">src/sa&#45;bsn/system_manager</text>
<text text-anchor="start" x="587" y="-242.5" font-family="Helvetica,sans-Serif" font-size="10.00" fill="#000000">/enactor/include/controller</text>
<text text-anchor="middle" x="656" y="-231.5" font-family="Helvetica,sans-Serif" font-size="10.00" fill="#000000">/Controller.hpp</text>
</g>
<!-- Node1 -->
<g id="node2" class="node">
<title>Node1</title>
<g id="a_node2"><a xlink:href="Enactor_8hpp.html" target="_top" xlink:title="enactor/Enactor.hpp">
<polygon fill="#ffffff" stroke="#000000" points="599.5,-168.5 599.5,-187.5 712.5,-187.5 712.5,-168.5 599.5,-168.5"/>
<text text-anchor="middle" x="656" y="-175.5" font-family="Helvetica,sans-Serif" font-size="10.00" fill="#000000">enactor/Enactor.hpp</text>
</a>
</g>
</g>
<!-- Node0&#45;&gt;Node1 -->
<g id="edge1" class="edge">
<title>Node0&#45;&gt;Node1</title>
<path fill="none" stroke="#191970" d="M656,-224.168C656,-215.8226 656,-206.2471 656,-197.9879"/>
<polygon fill="#191970" stroke="#191970" points="659.5001,-197.7804 656,-187.7805 652.5001,-197.7805 659.5001,-197.7804"/>
</g>
<!-- Node2 -->
<g id="node3" class="node">
<title>Node2</title>
<polygon fill="#ffffff" stroke="#bfbfbf" points="0,-112.5 0,-131.5 38,-131.5 38,-112.5 0,-112.5"/>
<text text-anchor="middle" x="19" y="-119.5" font-family="Helvetica,sans-Serif" font-size="10.00" fill="#000000">map</text>
</g>
<!-- Node1&#45;&gt;Node2 -->
<g id="edge2" class="edge">
<title>Node1&#45;&gt;Node2</title>
<path fill="none" stroke="#191970" d="M599.1562,-175.6498C472.4851,-170.1068 169.3183,-155.0706 48.2011,-131.6463"/>
<polygon fill="#191970" stroke="#191970" points="48.5824,-128.1519 38.0838,-129.5768 47.1795,-135.0099 48.5824,-128.1519"/>
</g>
<!-- Node3 -->
<g id="node4" class="node">
<title>Node3</title>
<polygon fill="#ffffff" stroke="#bfbfbf" points="56.5,-112.5 56.5,-131.5 103.5,-131.5 103.5,-112.5 56.5,-112.5"/>
<text text-anchor="middle" x="80" y="-119.5" font-family="Helvetica,sans-Serif" font-size="10.00" fill="#000000">deque</text>
</g>
<!-- Node1&#45;&gt;Node3 -->
<g id="edge3" class="edge">
<title>Node1&#45;&gt;Node3</title>
<path fill="none" stroke="#191970" d="M599.0611,-174.7666C482.895,-167.9195 221.1205,-151.1473 113.537,-131.8842"/>
<polygon fill="#191970" stroke="#191970" points="114.0927,-128.4274 103.6172,-130.0125 112.7948,-135.306 114.0927,-128.4274"/>
</g>
<!-- Node4 -->
<g id="node5" class="node">
<title>Node4</title>
<polygon fill="#ffffff" stroke="#bfbfbf" points="121.5,-112.5 121.5,-131.5 172.5,-131.5 172.5,-112.5 121.5,-112.5"/>
<text text-anchor="middle" x="147" y="-119.5" font-family="Helvetica,sans-Serif" font-size="10.00" fill="#000000">math.h</text>
</g>
<!-- Node1&#45;&gt;Node4 -->
<g id="edge4" class="edge">
<title>Node1&#45;&gt;Node4</title>
<path fill="none" stroke="#191970" d="M599.3288,-175.1404C510.7962,-170.0677 334.527,-157.5327 187,-132 185.5453,-131.7482 184.0653,-131.4721 182.5736,-131.1772"/>
<polygon fill="#191970" stroke="#191970" points="183.219,-127.7357 172.702,-129.0173 181.7228,-134.5739 183.219,-127.7357"/>
</g>
<!-- Node5 -->
<g id="node6" class="node">
<title>Node5</title>
<polygon fill="#ffffff" stroke="#bfbfbf" points="193.5,-.5 193.5,-19.5 252.5,-19.5 252.5,-.5 193.5,-.5"/>
<text text-anchor="middle" x="223" y="-7.5" font-family="Helvetica,sans-Serif" font-size="10.00" fill="#000000">ros/ros.h</text>
</g>
<!-- Node1&#45;&gt;Node5 -->
<g id="edge5" class="edge">
<title>Node1&#45;&gt;Node5</title>
<path fill="none" stroke="#191970" d="M599.4386,-174.7535C494.5996,-168.2766 278.2414,-152.5843 251,-132 219.9134,-108.5102 218.6367,-58.0792 220.6624,-29.9676"/>
<polygon fill="#191970" stroke="#191970" points="224.1717,-30.0305 221.6185,-19.748 217.2022,-29.3785 224.1717,-30.0305"/>
</g>
<!-- Node6 -->
<g id="node7" class="node">
<title>Node6</title>
<polygon fill="#ffffff" stroke="#bfbfbf" points="560.5,-112.5 560.5,-131.5 645.5,-131.5 645.5,-112.5 560.5,-112.5"/>
<text text-anchor="middle" x="603" y="-119.5" font-family="Helvetica,sans-Serif" font-size="10.00" fill="#000000">ros/package.h</text>
</g>
<!-- Node1&#45;&gt;Node6 -->
<g id="edge6" class="edge">
<title>Node1&#45;&gt;Node6</title>
<path fill="none" stroke="#191970" d="M646.7681,-168.2455C639.1683,-160.2155 628.2123,-148.6394 619.1632,-139.0781"/>
<polygon fill="#191970" stroke="#191970" points="621.542,-136.4998 612.1261,-131.6427 616.4579,-141.3115 621.542,-136.4998"/>
</g>
<!-- Node7 -->
<g id="node8" class="node">
<title>Node7</title>
<g id="a_node8"><a xlink:href="utils_8hpp.html" target="_top" xlink:title="libbsn/utils/utils.hpp">
<polygon fill="#ffffff" stroke="#000000" points="427.5,-112.5 427.5,-131.5 542.5,-131.5 542.5,-112.5 427.5,-112.5"/>
<text text-anchor="middle" x="485" y="-119.5" font-family="Helvetica,sans-Serif" font-size="10.00" fill="#000000">libbsn/utils/utils.hpp</text>
</a>
</g>
</g>
<!-- Node1&#45;&gt;Node7 -->
<g id="edge7" class="edge">
<title>Node1&#45;&gt;Node7</title>
<path fill="none" stroke="#191970" d="M626.6041,-168.3733C598.1693,-159.0613 554.9123,-144.8953 523.6919,-134.671"/>
<polygon fill="#191970" stroke="#191970" points="524.605,-131.2872 514.0124,-131.5011 522.4264,-137.9396 524.605,-131.2872"/>
</g>
<!-- Node10 -->
<g id="node11" class="node">
<title>Node10</title>
<polygon fill="#ffffff" stroke="#bfbfbf" points="664,-112.5 664,-131.5 756,-131.5 756,-112.5 664,-112.5"/>
<text text-anchor="middle" x="710" y="-119.5" font-family="Helvetica,sans-Serif" font-size="10.00" fill="#000000">archlib/Status.h</text>
</g>
<!-- Node1&#45;&gt;Node10 -->
<g id="edge10" class="edge">
<title>Node1&#45;&gt;Node10</title>
<path fill="none" stroke="#191970" d="M665.4061,-168.2455C673.1493,-160.2155 684.312,-148.6394 693.5318,-139.0781"/>
<polygon fill="#191970" stroke="#191970" points="696.2798,-141.2706 700.7017,-131.6427 691.2409,-136.4117 696.2798,-141.2706"/>
</g>
<!-- Node11 -->
<g id="node12" class="node">
<title>Node11</title>
<polygon fill="#ffffff" stroke="#bfbfbf" points="774.5,-112.5 774.5,-131.5 863.5,-131.5 863.5,-112.5 774.5,-112.5"/>
<text text-anchor="middle" x="819" y="-119.5" font-family="Helvetica,sans-Serif" font-size="10.00" fill="#000000">archlib/Event.h</text>
</g>
<!-- Node1&#45;&gt;Node11 -->
<g id="edge11" class="edge">
<title>Node1&#45;&gt;Node11</title>
<path fill="none" stroke="#191970" d="M684.0207,-168.3733C711.0078,-159.1016 752.0017,-145.0178 781.7311,-134.804"/>
<polygon fill="#191970" stroke="#191970" points="783.0248,-138.0605 791.3449,-131.5011 780.7503,-131.4403 783.0248,-138.0605"/>
</g>
<!-- Node12 -->
<g id="node13" class="node">
<title>Node12</title>
<polygon fill="#ffffff" stroke="#bfbfbf" points="881.5,-112.5 881.5,-131.5 982.5,-131.5 982.5,-112.5 881.5,-112.5"/>
<text text-anchor="middle" x="932" y="-119.5" font-family="Helvetica,sans-Serif" font-size="10.00" fill="#000000">archlib/Strategy.h</text>
</g>
<!-- Node1&#45;&gt;Node12 -->
<g id="edge12" class="edge">
<title>Node1&#45;&gt;Node12</title>
<path fill="none" stroke="#191970" d="M703.1325,-168.4369C750.7647,-158.7724 824.3967,-143.8326 875.2166,-133.5213"/>
<polygon fill="#191970" stroke="#191970" points="875.9576,-136.9423 885.0619,-131.5237 874.5656,-130.0821 875.9576,-136.9423"/>
</g>
<!-- Node13 -->
<g id="node14" class="node">
<title>Node13</title>
<polygon fill="#ffffff" stroke="#bfbfbf" points="1001,-112.5 1001,-131.5 1111,-131.5 1111,-112.5 1001,-112.5"/>
<text text-anchor="middle" x="1056" y="-119.5" font-family="Helvetica,sans-Serif" font-size="10.00" fill="#000000">archlib/Exception.h</text>
</g>
<!-- Node1&#45;&gt;Node13 -->
<g id="edge13" class="edge">
<title>Node1&#45;&gt;Node13</title>
<path fill="none" stroke="#191970" d="M712.5238,-170.5939C777.245,-162.0393 886.73,-147.3413 990.7994,-132.1556"/>
<polygon fill="#191970" stroke="#191970" points="991.4642,-135.5957 1000.8521,-130.6847 990.4507,-128.6695 991.4642,-135.5957"/>
</g>
<!-- Node14 -->
<g id="node15" class="node">
<title>Node14</title>
<polygon fill="#ffffff" stroke="#bfbfbf" points="1129.5,-112.5 1129.5,-131.5 1294.5,-131.5 1294.5,-112.5 1129.5,-112.5"/>
<text text-anchor="middle" x="1212" y="-119.5" font-family="Helvetica,sans-Serif" font-size="10.00" fill="#000000">archlib/AdaptationCommand.h</text>
</g>
<!-- Node1&#45;&gt;Node14 -->
<g id="edge14" class="edge">
<title>Node1&#45;&gt;Node14</title>
<path fill="none" stroke="#191970" d="M712.8033,-172.5432C798.4066,-164.281 965.865,-147.9688 1119.1751,-132.0777"/>
<polygon fill="#191970" stroke="#191970" points="1119.6668,-135.5456 1129.2519,-131.0317 1118.944,-128.583 1119.6668,-135.5456"/>
</g>
<!-- Node15 -->
<g id="node16" class="node">
<title>Node15</title>
<polygon fill="#ffffff" stroke="#bfbfbf" points="1313,-112.5 1313,-131.5 1471,-131.5 1471,-112.5 1313,-112.5"/>
<text text-anchor="middle" x="1392" y="-119.5" font-family="Helvetica,sans-Serif" font-size="10.00" fill="#000000">archlib/DataAccessRequest.h</text>
</g>
<!-- Node1&#45;&gt;Node15 -->
<g id="edge15" class="edge">
<title>Node1&#45;&gt;Node15</title>
<path fill="none" stroke="#191970" d="M712.8403,-174.7755C824.0118,-168.2921 1078.2546,-152.5979 1302.8651,-132.0714"/>
<polygon fill="#191970" stroke="#191970" points="1303.2244,-135.5532 1312.8622,-131.1527 1302.5838,-128.5826 1303.2244,-135.5532"/>
</g>
<!-- Node16 -->
<g id="node17" class="node">
<title>Node16</title>
<g id="a_node17"><a xlink:href="ROSComponent_8hpp.html" target="_top" xlink:title="archlib/ROSComponent.hpp">
<polygon fill="#ffffff" stroke="#000000" points="260,-112.5 260,-131.5 410,-131.5 410,-112.5 260,-112.5"/>
<text text-anchor="middle" x="335" y="-119.5" font-family="Helvetica,sans-Serif" font-size="10.00" fill="#000000">archlib/ROSComponent.hpp</text>
</a>
</g>
</g>
<!-- Node1&#45;&gt;Node16 -->
<g id="edge16" class="edge">
<title>Node1&#45;&gt;Node16</title>
<path fill="none" stroke="#191970" d="M601.1829,-168.4369C545.3229,-158.6918 458.7179,-143.5832 399.5695,-133.2645"/>
<polygon fill="#191970" stroke="#191970" points="400.0438,-129.7944 389.591,-131.5237 398.8407,-136.6903 400.0438,-129.7944"/>
</g>
<!-- Node19 -->
<g id="node20" class="node">
<title>Node19</title>
<polygon fill="#ffffff" stroke="#bfbfbf" points="1489,-112.5 1489,-131.5 1623,-131.5 1623,-112.5 1489,-112.5"/>
<text text-anchor="middle" x="1556" y="-119.5" font-family="Helvetica,sans-Serif" font-size="10.00" fill="#000000">archlib/EngineRequest.h</text>
</g>
<!-- Node1&#45;&gt;Node19 -->
<g id="edge23" class="edge">
<title>Node1&#45;&gt;Node19</title>
<path fill="none" stroke="#191970" d="M712.5541,-176.3063C844.7485,-172.0318 1184.4498,-159.2219 1478.8795,-132.0392"/>
<polygon fill="#191970" stroke="#191970" points="1479.2614,-135.5189 1488.8941,-131.1075 1478.6128,-128.549 1479.2614,-135.5189"/>
</g>
<!-- Node8 -->
<g id="node9" class="node">
<title>Node8</title>
<polygon fill="#ffffff" stroke="#bfbfbf" points="629.5,-56.5 629.5,-75.5 676.5,-75.5 676.5,-56.5 629.5,-56.5"/>
<text text-anchor="middle" x="653" y="-63.5" font-family="Helvetica,sans-Serif" font-size="10.00" fill="#000000">vector</text>
</g>
<!-- Node7&#45;&gt;Node8 -->
<g id="edge8" class="edge">
<title>Node7&#45;&gt;Node8</title>
<path fill="none" stroke="#191970" d="M513.8802,-112.3733C543.2123,-102.5959 588.5987,-87.4671 619.4941,-77.1686"/>
<polygon fill="#191970" stroke="#191970" points="620.992,-80.3587 629.372,-73.876 618.7784,-73.7179 620.992,-80.3587"/>
</g>
<!-- Node9 -->
<g id="node10" class="node">
<title>Node9</title>
<polygon fill="#ffffff" stroke="#bfbfbf" points="457,-.5 457,-19.5 501,-19.5 501,-.5 457,-.5"/>
<text text-anchor="middle" x="479" y="-7.5" font-family="Helvetica,sans-Serif" font-size="10.00" fill="#000000">string</text>
</g>
<!-- Node7&#45;&gt;Node9 -->
<g id="edge9" class="edge">
<title>Node7&#45;&gt;Node9</title>
<path fill="none" stroke="#191970" d="M523.8159,-112.457C557.9367,-102.051 599.6233,-83.1716 582,-56 566.4971,-32.0976 535.3535,-20.5065 511.351,-14.9532"/>
<polygon fill="#191970" stroke="#191970" points="511.7394,-11.4596 501.2381,-12.8642 510.3233,-18.3149 511.7394,-11.4596"/>
</g>
<!-- Node16&#45;&gt;Node5 -->
<g id="edge19" class="edge">
<title>Node16&#45;&gt;Node5</title>
<path fill="none" stroke="#191970" d="M300.0431,-112.4368C280.3944,-105.375 256.8961,-93.8339 242,-76 231.1434,-63.0023 226.485,-44.1114 224.489,-29.8674"/>
<polygon fill="#191970" stroke="#191970" points="227.9388,-29.2109 223.3915,-19.6415 220.9787,-29.958 227.9388,-29.2109"/>
</g>
<!-- Node16&#45;&gt;Node9 -->
<g id="edge17" class="edge">
<title>Node16&#45;&gt;Node9</title>
<path fill="none" stroke="#191970" d="M393.3722,-112.444C416.9283,-105.8379 442.5969,-94.7095 460,-76 471.5344,-63.5998 476.1184,-44.6434 477.914,-30.2226"/>
<polygon fill="#191970" stroke="#191970" points="481.4374,-30.1121 478.8356,-19.8418 474.4649,-29.493 481.4374,-30.1121"/>
</g>
<!-- Node17 -->
<g id="node18" class="node">
<title>Node17</title>
<polygon fill="#ffffff" stroke="#bfbfbf" points="507.5,-56.5 507.5,-75.5 572.5,-75.5 572.5,-56.5 507.5,-56.5"/>
<text text-anchor="middle" x="540" y="-63.5" font-family="Helvetica,sans-Serif" font-size="10.00" fill="#000000">stdexcept</text>
</g>
<!-- Node16&#45;&gt;Node17 -->
<g id="edge18" class="edge">
<title>Node16&#45;&gt;Node17</title>
<path fill="none" stroke="#191970" d="M370.2408,-112.3733C405.5499,-102.7278 459.9241,-87.8744 497.5792,-77.5881"/>
<polygon fill="#191970" stroke="#191970" points="498.5237,-80.9584 507.2479,-74.9469 496.679,-74.2059 498.5237,-80.9584"/>
</g>
<!-- Node18 -->
<g id="node19" class="node">
<title>Node18</title>
<g id="a_node19"><a xlink:href="ROSComponentDescriptor_8hpp.html" target="_top" xlink:title="archlib/ROSComponentDescriptor.hpp">
<polygon fill="#ffffff" stroke="#000000" points="251,-56.5 251,-75.5 451,-75.5 451,-56.5 251,-56.5"/>
<text text-anchor="middle" x="351" y="-63.5" font-family="Helvetica,sans-Serif" font-size="10.00" fill="#000000">archlib/ROSComponentDescriptor.hpp</text>
</a>
</g>
</g>
<!-- Node16&#45;&gt;Node18 -->
<g id="edge20" class="edge">
<title>Node16&#45;&gt;Node18</title>
<path fill="none" stroke="#191970" d="M337.787,-112.2455C339.8977,-104.8579 342.866,-94.4689 345.4547,-85.4087"/>
<polygon fill="#191970" stroke="#191970" points="348.863,-86.2195 348.245,-75.6427 342.1323,-84.2964 348.863,-86.2195"/>
</g>
<!-- Node18&#45;&gt;Node5 -->
<g id="edge22" class="edge">
<title>Node18&#45;&gt;Node5</title>
<path fill="none" stroke="#191970" d="M328.996,-56.3733C308.3565,-47.3435 277.2842,-33.7494 254.1111,-23.6111"/>
<polygon fill="#191970" stroke="#191970" points="255.2813,-20.3028 244.7169,-19.5011 252.4755,-26.7159 255.2813,-20.3028"/>
</g>
<!-- Node18&#45;&gt;Node9 -->
<g id="edge21" class="edge">
<title>Node18&#45;&gt;Node9</title>
<path fill="none" stroke="#191970" d="M373.004,-56.3733C393.6435,-47.3435 424.7158,-33.7494 447.8889,-23.6111"/>
<polygon fill="#191970" stroke="#191970" points="449.5245,-26.7159 457.2831,-19.5011 446.7187,-20.3028 449.5245,-26.7159"/>
</g>
</g>
</svg>
