<?xml version="1.0" encoding="UTF-8" standalone="no"?>
<!DOCTYPE svg PUBLIC "-//W3C//DTD SVG 1.1//EN"
 "http://www.w3.org/Graphics/SVG/1.1/DTD/svg11.dtd">
<!-- Generated by graphviz version 2.40.1 (20161225.0304)
 -->
<!-- Title: src/libbsn/src/goalmodel/Context.cpp Pages: 1 -->
<svg width="171pt" height="151pt"
 viewBox="0.00 0.00 171.00 151.00" xmlns="http://www.w3.org/2000/svg" xmlns:xlink="http://www.w3.org/1999/xlink">
<g id="graph0" class="graph" transform="scale(1 1) rotate(0) translate(4 147)">
<title>src/libbsn/src/goalmodel/Context.cpp</title>
<polygon fill="#ffffff" stroke="transparent" points="-4,4 -4,-147 167,-147 167,4 -4,4"/>
<!-- Node0 -->
<g id="node1" class="node">
<title>Node0</title>
<polygon fill="#bfbfbf" stroke="#000000" points="14,-112.5 14,-142.5 149,-142.5 149,-112.5 14,-112.5"/>
<text text-anchor="start" x="22" y="-130.5" font-family="Helvetica,sans-Serif" font-size="10.00" fill="#000000">src/libbsn/src/goalmodel</text>
<text text-anchor="middle" x="81.5" y="-119.5" font-family="Helvetica,sans-Serif" font-size="10.00" fill="#000000">/Context.cpp</text>
</g>
<!-- Node1 -->
<g id="node2" class="node">
<title>Node1</title>
<g id="a_node2"><a xlink:href="Context_8hpp.html" target="_top" xlink:title="libbsn/goalmodel/Context.hpp">
<polygon fill="#ffffff" stroke="#000000" points="0,-56.5 0,-75.5 163,-75.5 163,-56.5 0,-56.5"/>
<text text-anchor="middle" x="81.5" y="-63.5" font-family="Helvetica,sans-Serif" font-size="10.00" fill="#000000">libbsn/goalmodel/Context.hpp</text>
</a>
</g>
</g>
<!-- Node0&#45;&gt;Node1 -->
<g id="edge1" class="edge">
<title>Node0&#45;&gt;Node1</title>
<path fill="none" stroke="#191970" d="M81.5,-112.2977C81.5,-104.3834 81.5,-94.6043 81.5,-86.0759"/>
<polygon fill="#191970" stroke="#191970" points="85.0001,-85.8469 81.5,-75.8469 78.0001,-85.847 85.0001,-85.8469"/>
</g>
<!-- Node2 -->
<g id="node3" class="node">
<title>Node2</title>
<polygon fill="#ffffff" stroke="#bfbfbf" points="59.5,-.5 59.5,-19.5 103.5,-19.5 103.5,-.5 59.5,-.5"/>
<text text-anchor="middle" x="81.5" y="-7.5" font-family="Helvetica,sans-Serif" font-size="10.00" fill="#000000">string</text>
</g>
<!-- Node1&#45;&gt;Node2 -->
<g id="edge2" class="edge">
<title>Node1&#45;&gt;Node2</title>
<path fill="none" stroke="#191970" d="M81.5,-56.2455C81.5,-48.9382 81.5,-38.6944 81.5,-29.7046"/>
<polygon fill="#191970" stroke="#191970" points="85.0001,-29.6426 81.5,-19.6427 78.0001,-29.6427 85.0001,-29.6426"/>
</g>
</g>
</svg>
