<?xml version="1.0" encoding="UTF-8" standalone="no"?>
<!DOCTYPE svg PUBLIC "-//W3C//DTD SVG 1.1//EN"
 "http://www.w3.org/Graphics/SVG/1.1/DTD/svg11.dtd">
<!-- Generated by graphviz version 2.40.1 (20161225.0304)
 -->
<!-- Title: src/libbsn/include/libbsn/generator/DataGenerator.hpp Pages: 1 -->
<svg width="2470pt" height="195pt"
 viewBox="0.00 0.00 2470.00 195.00" xmlns="http://www.w3.org/2000/svg" xmlns:xlink="http://www.w3.org/1999/xlink">
<g id="graph0" class="graph" transform="scale(1 1) rotate(0) translate(4 191)">
<title>src/libbsn/include/libbsn/generator/DataGenerator.hpp</title>
<polygon fill="#ffffff" stroke="transparent" points="-4,4 -4,-191 2466,-191 2466,4 -4,4"/>
<!-- Node11 -->
<g id="node1" class="node">
<title>Node11</title>
<polygon fill="#bfbfbf" stroke="#000000" points="810.5,-156.5 810.5,-186.5 1004.5,-186.5 1004.5,-156.5 810.5,-156.5"/>
<text text-anchor="start" x="818.5" y="-174.5" font-family="Helvetica,sans-Serif" font-size="10.00" fill="#000000">src/libbsn/include</text>
<text text-anchor="middle" x="907.5" y="-163.5" font-family="Helvetica,sans-Serif" font-size="10.00" fill="#000000">/libbsn/generator/DataGenerator.hpp</text>
</g>
<!-- Node12 -->
<g id="node2" class="node">
<title>Node12</title>
<g id="a_node2"><a xlink:href="DataGenerator_8cpp.html" target="_top" xlink:title="src/libbsn/src/generator\l/DataGenerator.cpp">
<polygon fill="#ffffff" stroke="#000000" points="0,-84 0,-114 131,-114 131,-84 0,-84"/>
<text text-anchor="start" x="8" y="-102" font-family="Helvetica,sans-Serif" font-size="10.00" fill="#000000">src/libbsn/src/generator</text>
<text text-anchor="middle" x="65.5" y="-91" font-family="Helvetica,sans-Serif" font-size="10.00" fill="#000000">/DataGenerator.cpp</text>
</a>
</g>
</g>
<!-- Node11&#45;&gt;Node12 -->
<g id="edge1" class="edge">
<title>Node11&#45;&gt;Node12</title>
<path fill="none" stroke="#191970" d="M800.27,-167.0314C620.0964,-159.0646 264.1887,-141.2354 140.5,-120 131.7044,-118.4899 122.459,-116.3627 113.5803,-114.0369"/>
<polygon fill="#191970" stroke="#191970" points="800.1534,-170.5296 810.2976,-167.4727 800.4612,-163.5364 800.1534,-170.5296"/>
</g>
<!-- Node13 -->
<g id="node3" class="node">
<title>Node13</title>
<g id="a_node3"><a xlink:href="DataGeneratorTest_8cpp.html" target="_top" xlink:title="src/libbsn/test/unit\l/generator/DataGeneratorTest.cpp">
<polygon fill="#ffffff" stroke="#000000" points="149.5,-84 149.5,-114 331.5,-114 331.5,-84 149.5,-84"/>
<text text-anchor="start" x="157.5" y="-102" font-family="Helvetica,sans-Serif" font-size="10.00" fill="#000000">src/libbsn/test/unit</text>
<text text-anchor="middle" x="240.5" y="-91" font-family="Helvetica,sans-Serif" font-size="10.00" fill="#000000">/generator/DataGeneratorTest.cpp</text>
</a>
</g>
</g>
<!-- Node11&#45;&gt;Node13 -->
<g id="edge2" class="edge">
<title>Node11&#45;&gt;Node13</title>
<path fill="none" stroke="#191970" d="M800.1182,-165.4821C685.7576,-158.2023 499.6727,-143.859 340.5,-120 329.5351,-118.3564 317.9637,-116.2637 306.7355,-114.0391"/>
<polygon fill="#191970" stroke="#191970" points="800.0737,-168.9861 810.274,-166.122 800.5139,-162 800.0737,-168.9861"/>
</g>
<!-- Node14 -->
<g id="node4" class="node">
<title>Node14</title>
<g id="a_node4"><a xlink:href="PatientModule_8hpp.html" target="_top" xlink:title="src/sa&#45;bsn/environment\l/patient/include/PatientModule.hpp">
<polygon fill="#ffffff" stroke="#000000" points="350,-84 350,-114 535,-114 535,-84 350,-84"/>
<text text-anchor="start" x="358" y="-102" font-family="Helvetica,sans-Serif" font-size="10.00" fill="#000000">src/sa&#45;bsn/environment</text>
<text text-anchor="middle" x="442.5" y="-91" font-family="Helvetica,sans-Serif" font-size="10.00" fill="#000000">/patient/include/PatientModule.hpp</text>
</a>
</g>
</g>
<!-- Node11&#45;&gt;Node14 -->
<g id="edge3" class="edge">
<title>Node11&#45;&gt;Node14</title>
<path fill="none" stroke="#191970" d="M800.2063,-158.1674C727.5618,-148.6874 629.5204,-135.0119 543.5,-120 533.267,-118.2142 522.4865,-116.1596 511.9317,-114.0498"/>
<polygon fill="#191970" stroke="#191970" points="799.9166,-161.6591 810.2843,-159.4769 800.8187,-154.7174 799.9166,-161.6591"/>
</g>
<!-- Node17 -->
<g id="node7" class="node">
<title>Node17</title>
<g id="a_node7"><a xlink:href="G3T1__1_8hpp.html" target="_top" xlink:title="src/sa&#45;bsn/target_system\l/components/component/include\l/component/g3t1_1/G3T1_1.hpp">
<polygon fill="#ffffff" stroke="#000000" points="552.5,-78.5 552.5,-119.5 728.5,-119.5 728.5,-78.5 552.5,-78.5"/>
<text text-anchor="start" x="560.5" y="-107.5" font-family="Helvetica,sans-Serif" font-size="10.00" fill="#000000">src/sa&#45;bsn/target_system</text>
<text text-anchor="start" x="560.5" y="-96.5" font-family="Helvetica,sans-Serif" font-size="10.00" fill="#000000">/components/component/include</text>
<text text-anchor="middle" x="640.5" y="-85.5" font-family="Helvetica,sans-Serif" font-size="10.00" fill="#000000">/component/g3t1_1/G3T1_1.hpp</text>
</a>
</g>
</g>
<!-- Node11&#45;&gt;Node17 -->
<g id="edge6" class="edge">
<title>Node11&#45;&gt;Node17</title>
<path fill="none" stroke="#191970" d="M842.2093,-153.7712C804.0693,-143.4149 755.7734,-130.3008 716.0021,-119.5015"/>
<polygon fill="#191970" stroke="#191970" points="841.6097,-157.2351 852.1774,-156.478 843.4441,-150.4797 841.6097,-157.2351"/>
</g>
<!-- Node20 -->
<g id="node10" class="node">
<title>Node20</title>
<g id="a_node10"><a xlink:href="G3T1__2_8hpp.html" target="_top" xlink:title="src/sa&#45;bsn/target_system\l/components/component/include\l/component/g3t1_2/G3T1_2.hpp">
<polygon fill="#ffffff" stroke="#000000" points="819.5,-78.5 819.5,-119.5 995.5,-119.5 995.5,-78.5 819.5,-78.5"/>
<text text-anchor="start" x="827.5" y="-107.5" font-family="Helvetica,sans-Serif" font-size="10.00" fill="#000000">src/sa&#45;bsn/target_system</text>
<text text-anchor="start" x="827.5" y="-96.5" font-family="Helvetica,sans-Serif" font-size="10.00" fill="#000000">/components/component/include</text>
<text text-anchor="middle" x="907.5" y="-85.5" font-family="Helvetica,sans-Serif" font-size="10.00" fill="#000000">/component/g3t1_2/G3T1_2.hpp</text>
</a>
</g>
</g>
<!-- Node11&#45;&gt;Node20 -->
<g id="edge9" class="edge">
<title>Node11&#45;&gt;Node20</title>
<path fill="none" stroke="#191970" d="M907.5,-146.4016C907.5,-137.6173 907.5,-127.8652 907.5,-119.5015"/>
<polygon fill="#191970" stroke="#191970" points="904.0001,-146.4779 907.5,-156.478 911.0001,-146.478 904.0001,-146.4779"/>
</g>
<!-- Node23 -->
<g id="node13" class="node">
<title>Node23</title>
<g id="a_node13"><a xlink:href="G3T1__3_8hpp.html" target="_top" xlink:title="src/sa&#45;bsn/target_system\l/components/component/include\l/component/g3t1_3/G3T1_3.hpp">
<polygon fill="#ffffff" stroke="#000000" points="1050.5,-78.5 1050.5,-119.5 1226.5,-119.5 1226.5,-78.5 1050.5,-78.5"/>
<text text-anchor="start" x="1058.5" y="-107.5" font-family="Helvetica,sans-Serif" font-size="10.00" fill="#000000">src/sa&#45;bsn/target_system</text>
<text text-anchor="start" x="1058.5" y="-96.5" font-family="Helvetica,sans-Serif" font-size="10.00" fill="#000000">/components/component/include</text>
<text text-anchor="middle" x="1138.5" y="-85.5" font-family="Helvetica,sans-Serif" font-size="10.00" fill="#000000">/component/g3t1_3/G3T1_3.hpp</text>
</a>
</g>
</g>
<!-- Node11&#45;&gt;Node23 -->
<g id="edge12" class="edge">
<title>Node11&#45;&gt;Node23</title>
<path fill="none" stroke="#191970" d="M965.2555,-153.3733C998.0506,-143.0804 1039.2084,-130.163 1073.178,-119.5015"/>
<polygon fill="#191970" stroke="#191970" points="963.8564,-150.144 955.3633,-156.478 965.9526,-156.8228 963.8564,-150.144"/>
</g>
<!-- Node26 -->
<g id="node16" class="node">
<title>Node26</title>
<g id="a_node16"><a xlink:href="G3T1__4_8hpp.html" target="_top" xlink:title="src/sa&#45;bsn/target_system\l/components/component/include\l/component/g3t1_4/G3T1_4.hpp">
<polygon fill="#ffffff" stroke="#000000" points="1406.5,-78.5 1406.5,-119.5 1582.5,-119.5 1582.5,-78.5 1406.5,-78.5"/>
<text text-anchor="start" x="1414.5" y="-107.5" font-family="Helvetica,sans-Serif" font-size="10.00" fill="#000000">src/sa&#45;bsn/target_system</text>
<text text-anchor="start" x="1414.5" y="-96.5" font-family="Helvetica,sans-Serif" font-size="10.00" fill="#000000">/components/component/include</text>
<text text-anchor="middle" x="1494.5" y="-85.5" font-family="Helvetica,sans-Serif" font-size="10.00" fill="#000000">/component/g3t1_4/G3T1_4.hpp</text>
</a>
</g>
</g>
<!-- Node11&#45;&gt;Node26 -->
<g id="edge15" class="edge">
<title>Node11&#45;&gt;Node26</title>
<path fill="none" stroke="#191970" d="M1014.7595,-158.2524C1127.1067,-144.3765 1301.4898,-122.8386 1406.1791,-109.9085"/>
<polygon fill="#191970" stroke="#191970" points="1014.2559,-154.788 1004.7604,-159.4874 1015.114,-161.7352 1014.2559,-154.788"/>
</g>
<!-- Node29 -->
<g id="node19" class="node">
<title>Node29</title>
<g id="a_node19"><a xlink:href="G3T1__5_8hpp.html" target="_top" xlink:title="src/sa&#45;bsn/target_system\l/components/component/include\l/component/g3t1_5/G3T1_5.hpp">
<polygon fill="#ffffff" stroke="#000000" points="1762.5,-78.5 1762.5,-119.5 1938.5,-119.5 1938.5,-78.5 1762.5,-78.5"/>
<text text-anchor="start" x="1770.5" y="-107.5" font-family="Helvetica,sans-Serif" font-size="10.00" fill="#000000">src/sa&#45;bsn/target_system</text>
<text text-anchor="start" x="1770.5" y="-96.5" font-family="Helvetica,sans-Serif" font-size="10.00" fill="#000000">/components/component/include</text>
<text text-anchor="middle" x="1850.5" y="-85.5" font-family="Helvetica,sans-Serif" font-size="10.00" fill="#000000">/component/g3t1_5/G3T1_5.hpp</text>
</a>
</g>
</g>
<!-- Node11&#45;&gt;Node29 -->
<g id="edge18" class="edge">
<title>Node11&#45;&gt;Node29</title>
<path fill="none" stroke="#191970" d="M1014.9599,-163.6011C1149.6842,-153.654 1387.707,-135.9338 1591.5,-120 1648.3941,-115.5517 1712.3022,-110.3719 1762.4003,-106.2697"/>
<polygon fill="#191970" stroke="#191970" points="1014.3583,-160.1359 1004.6431,-164.3626 1014.8736,-167.1169 1014.3583,-160.1359"/>
</g>
<!-- Node32 -->
<g id="node22" class="node">
<title>Node32</title>
<g id="a_node22"><a xlink:href="G3T1__6_8hpp.html" target="_top" xlink:title="src/sa&#45;bsn/target_system\l/components/component/include\l/component/g3t1_6/G3T1_6.hpp">
<polygon fill="#ffffff" stroke="#000000" points="2118.5,-78.5 2118.5,-119.5 2294.5,-119.5 2294.5,-78.5 2118.5,-78.5"/>
<text text-anchor="start" x="2126.5" y="-107.5" font-family="Helvetica,sans-Serif" font-size="10.00" fill="#000000">src/sa&#45;bsn/target_system</text>
<text text-anchor="start" x="2126.5" y="-96.5" font-family="Helvetica,sans-Serif" font-size="10.00" fill="#000000">/components/component/include</text>
<text text-anchor="middle" x="2206.5" y="-85.5" font-family="Helvetica,sans-Serif" font-size="10.00" fill="#000000">/component/g3t1_6/G3T1_6.hpp</text>
</a>
</g>
</g>
<!-- Node11&#45;&gt;Node32 -->
<g id="edge21" class="edge">
<title>Node11&#45;&gt;Node32</title>
<path fill="none" stroke="#191970" d="M1014.898,-167.2956C1203.6568,-159.6573 1607.1818,-142.2173 1947.5,-120 2004.4465,-116.2823 2068.3552,-111.1111 2118.4405,-106.8306"/>
<polygon fill="#191970" stroke="#191970" points="1014.5497,-163.8067 1004.699,-167.7072 1014.832,-170.801 1014.5497,-163.8067"/>
</g>
<!-- Node15 -->
<g id="node5" class="node">
<title>Node15</title>
<g id="a_node5"><a xlink:href="patient_8cpp.html" target="_top" xlink:title="src/sa&#45;bsn/environment\l/patient/apps/patient.cpp">
<polygon fill="#ffffff" stroke="#000000" points="6.5,-6 6.5,-36 144.5,-36 144.5,-6 6.5,-6"/>
<text text-anchor="start" x="14.5" y="-24" font-family="Helvetica,sans-Serif" font-size="10.00" fill="#000000">src/sa&#45;bsn/environment</text>
<text text-anchor="middle" x="75.5" y="-13" font-family="Helvetica,sans-Serif" font-size="10.00" fill="#000000">/patient/apps/patient.cpp</text>
</a>
</g>
</g>
<!-- Node14&#45;&gt;Node15 -->
<g id="edge4" class="edge">
<title>Node14&#45;&gt;Node15</title>
<path fill="none" stroke="#191970" d="M360.2823,-81.9777C353.5916,-80.6214 346.9332,-79.2814 340.5,-78 257.4935,-61.466 235.9737,-61.0143 153.5,-42 145.7107,-40.2042 137.5232,-38.167 129.5009,-36.0849"/>
<polygon fill="#191970" stroke="#191970" points="359.5884,-85.4081 370.0854,-83.9714 360.9836,-78.5486 359.5884,-85.4081"/>
</g>
<!-- Node16 -->
<g id="node6" class="node">
<title>Node16</title>
<g id="a_node6"><a xlink:href="PatientModule_8cpp.html" target="_top" xlink:title="src/sa&#45;bsn/environment\l/patient/src/PatientModule.cpp">
<polygon fill="#ffffff" stroke="#000000" points="162.5,-6 162.5,-36 326.5,-36 326.5,-6 162.5,-6"/>
<text text-anchor="start" x="170.5" y="-24" font-family="Helvetica,sans-Serif" font-size="10.00" fill="#000000">src/sa&#45;bsn/environment</text>
<text text-anchor="middle" x="244.5" y="-13" font-family="Helvetica,sans-Serif" font-size="10.00" fill="#000000">/patient/src/PatientModule.cpp</text>
</a>
</g>
</g>
<!-- Node14&#45;&gt;Node16 -->
<g id="edge5" class="edge">
<title>Node14&#45;&gt;Node16</title>
<path fill="none" stroke="#191970" d="M394.9684,-80.2754C360.6514,-66.7566 314.9051,-48.7354 282.8965,-36.1259"/>
<polygon fill="#191970" stroke="#191970" points="393.7367,-83.5519 404.3236,-83.9608 396.3024,-77.0391 393.7367,-83.5519"/>
</g>
<!-- Node18 -->
<g id="node8" class="node">
<title>Node18</title>
<g id="a_node8"><a xlink:href="g3t1__1_8cpp.html" target="_top" xlink:title="src/sa&#45;bsn/target_system\l/components/component/apps\l/g3t1_1.cpp">
<polygon fill="#ffffff" stroke="#000000" points="344.5,-.5 344.5,-41.5 508.5,-41.5 508.5,-.5 344.5,-.5"/>
<text text-anchor="start" x="352.5" y="-29.5" font-family="Helvetica,sans-Serif" font-size="10.00" fill="#000000">src/sa&#45;bsn/target_system</text>
<text text-anchor="start" x="352.5" y="-18.5" font-family="Helvetica,sans-Serif" font-size="10.00" fill="#000000">/components/component/apps</text>
<text text-anchor="middle" x="426.5" y="-7.5" font-family="Helvetica,sans-Serif" font-size="10.00" fill="#000000">/g3t1_1.cpp</text>
</a>
</g>
</g>
<!-- Node17&#45;&gt;Node18 -->
<g id="edge7" class="edge">
<title>Node17&#45;&gt;Node18</title>
<path fill="none" stroke="#191970" d="M574.2716,-74.8607C545.0164,-64.1976 510.9797,-51.7917 482.9512,-41.5757"/>
<polygon fill="#191970" stroke="#191970" points="573.4001,-78.2682 583.9941,-78.4044 575.7973,-71.6915 573.4001,-78.2682"/>
</g>
<!-- Node19 -->
<g id="node9" class="node">
<title>Node19</title>
<g id="a_node9"><a xlink:href="G3T1__1_8cpp.html" target="_top" xlink:title="src/sa&#45;bsn/target_system\l/components/component/src\l/g3t1_1/G3T1_1.cpp">
<polygon fill="#ffffff" stroke="#000000" points="527,-.5 527,-41.5 682,-41.5 682,-.5 527,-.5"/>
<text text-anchor="start" x="535" y="-29.5" font-family="Helvetica,sans-Serif" font-size="10.00" fill="#000000">src/sa&#45;bsn/target_system</text>
<text text-anchor="start" x="535" y="-18.5" font-family="Helvetica,sans-Serif" font-size="10.00" fill="#000000">/components/component/src</text>
<text text-anchor="middle" x="604.5" y="-7.5" font-family="Helvetica,sans-Serif" font-size="10.00" fill="#000000">/g3t1_1/G3T1_1.cpp</text>
</a>
</g>
</g>
<!-- Node17&#45;&gt;Node19 -->
<g id="edge8" class="edge">
<title>Node17&#45;&gt;Node19</title>
<path fill="none" stroke="#191970" d="M626.6279,-68.9438C622.4239,-59.8351 617.9023,-50.0384 614.0491,-41.6898"/>
<polygon fill="#191970" stroke="#191970" points="623.4842,-70.4846 630.8527,-78.0974 629.8399,-67.5511 623.4842,-70.4846"/>
</g>
<!-- Node21 -->
<g id="node11" class="node">
<title>Node21</title>
<g id="a_node11"><a xlink:href="g3t1__2_8cpp.html" target="_top" xlink:title="src/sa&#45;bsn/target_system\l/components/component/apps\l/g3t1_2.cpp">
<polygon fill="#ffffff" stroke="#000000" points="700.5,-.5 700.5,-41.5 864.5,-41.5 864.5,-.5 700.5,-.5"/>
<text text-anchor="start" x="708.5" y="-29.5" font-family="Helvetica,sans-Serif" font-size="10.00" fill="#000000">src/sa&#45;bsn/target_system</text>
<text text-anchor="start" x="708.5" y="-18.5" font-family="Helvetica,sans-Serif" font-size="10.00" fill="#000000">/components/component/apps</text>
<text text-anchor="middle" x="782.5" y="-7.5" font-family="Helvetica,sans-Serif" font-size="10.00" fill="#000000">/g3t1_2.cpp</text>
</a>
</g>
</g>
<!-- Node20&#45;&gt;Node21 -->
<g id="edge10" class="edge">
<title>Node20&#45;&gt;Node21</title>
<path fill="none" stroke="#191970" d="M865.5045,-72.7948C849.1692,-62.6016 830.7323,-51.0969 815.3908,-41.5239"/>
<polygon fill="#191970" stroke="#191970" points="863.9938,-75.9776 874.3305,-78.3022 867.6995,-70.0389 863.9938,-75.9776"/>
</g>
<!-- Node22 -->
<g id="node12" class="node">
<title>Node22</title>
<g id="a_node12"><a xlink:href="G3T1__2_8cpp.html" target="_top" xlink:title="src/sa&#45;bsn/target_system\l/components/component/src\l/g3t1_2/G3T1_2.cpp">
<polygon fill="#ffffff" stroke="#000000" points="883,-.5 883,-41.5 1038,-41.5 1038,-.5 883,-.5"/>
<text text-anchor="start" x="891" y="-29.5" font-family="Helvetica,sans-Serif" font-size="10.00" fill="#000000">src/sa&#45;bsn/target_system</text>
<text text-anchor="start" x="891" y="-18.5" font-family="Helvetica,sans-Serif" font-size="10.00" fill="#000000">/components/component/src</text>
<text text-anchor="middle" x="960.5" y="-7.5" font-family="Helvetica,sans-Serif" font-size="10.00" fill="#000000">/g3t1_2/G3T1_2.cpp</text>
</a>
</g>
</g>
<!-- Node20&#45;&gt;Node22 -->
<g id="edge11" class="edge">
<title>Node20&#45;&gt;Node22</title>
<path fill="none" stroke="#191970" d="M927.3379,-69.8046C933.6907,-60.4552 940.5897,-50.302 946.4415,-41.6898"/>
<polygon fill="#191970" stroke="#191970" points="924.4283,-67.8591 921.703,-78.0974 930.2182,-71.7933 924.4283,-67.8591"/>
</g>
<!-- Node24 -->
<g id="node14" class="node">
<title>Node24</title>
<g id="a_node14"><a xlink:href="g3t1__3_8cpp.html" target="_top" xlink:title="src/sa&#45;bsn/target_system\l/components/component/apps\l/g3t1_3.cpp">
<polygon fill="#ffffff" stroke="#000000" points="1056.5,-.5 1056.5,-41.5 1220.5,-41.5 1220.5,-.5 1056.5,-.5"/>
<text text-anchor="start" x="1064.5" y="-29.5" font-family="Helvetica,sans-Serif" font-size="10.00" fill="#000000">src/sa&#45;bsn/target_system</text>
<text text-anchor="start" x="1064.5" y="-18.5" font-family="Helvetica,sans-Serif" font-size="10.00" fill="#000000">/components/component/apps</text>
<text text-anchor="middle" x="1138.5" y="-7.5" font-family="Helvetica,sans-Serif" font-size="10.00" fill="#000000">/g3t1_3.cpp</text>
</a>
</g>
</g>
<!-- Node23&#45;&gt;Node24 -->
<g id="edge13" class="edge">
<title>Node23&#45;&gt;Node24</title>
<path fill="none" stroke="#191970" d="M1138.5,-68.0789C1138.5,-59.2178 1138.5,-49.7747 1138.5,-41.6898"/>
<polygon fill="#191970" stroke="#191970" points="1135.0001,-68.0974 1138.5,-78.0974 1142.0001,-68.0975 1135.0001,-68.0974"/>
</g>
<!-- Node25 -->
<g id="node15" class="node">
<title>Node25</title>
<g id="a_node15"><a xlink:href="G3T1__3_8cpp.html" target="_top" xlink:title="src/sa&#45;bsn/target_system\l/components/component/src\l/g3t1_3/G3T1_3.cpp">
<polygon fill="#ffffff" stroke="#000000" points="1239,-.5 1239,-41.5 1394,-41.5 1394,-.5 1239,-.5"/>
<text text-anchor="start" x="1247" y="-29.5" font-family="Helvetica,sans-Serif" font-size="10.00" fill="#000000">src/sa&#45;bsn/target_system</text>
<text text-anchor="start" x="1247" y="-18.5" font-family="Helvetica,sans-Serif" font-size="10.00" fill="#000000">/components/component/src</text>
<text text-anchor="middle" x="1316.5" y="-7.5" font-family="Helvetica,sans-Serif" font-size="10.00" fill="#000000">/g3t1_3/G3T1_3.cpp</text>
</a>
</g>
</g>
<!-- Node23&#45;&gt;Node25 -->
<g id="edge14" class="edge">
<title>Node23&#45;&gt;Node25</title>
<path fill="none" stroke="#191970" d="M1195.0908,-74.2018C1219.1227,-63.671 1246.8059,-51.5401 1269.6635,-41.5239"/>
<polygon fill="#191970" stroke="#191970" points="1193.4879,-71.0828 1185.7334,-78.3022 1196.2974,-77.4943 1193.4879,-71.0828"/>
</g>
<!-- Node27 -->
<g id="node17" class="node">
<title>Node27</title>
<g id="a_node17"><a xlink:href="g3t1__4_8cpp.html" target="_top" xlink:title="src/sa&#45;bsn/target_system\l/components/component/apps\l/g3t1_4.cpp">
<polygon fill="#ffffff" stroke="#000000" points="1412.5,-.5 1412.5,-41.5 1576.5,-41.5 1576.5,-.5 1412.5,-.5"/>
<text text-anchor="start" x="1420.5" y="-29.5" font-family="Helvetica,sans-Serif" font-size="10.00" fill="#000000">src/sa&#45;bsn/target_system</text>
<text text-anchor="start" x="1420.5" y="-18.5" font-family="Helvetica,sans-Serif" font-size="10.00" fill="#000000">/components/component/apps</text>
<text text-anchor="middle" x="1494.5" y="-7.5" font-family="Helvetica,sans-Serif" font-size="10.00" fill="#000000">/g3t1_4.cpp</text>
</a>
</g>
</g>
<!-- Node26&#45;&gt;Node27 -->
<g id="edge16" class="edge">
<title>Node26&#45;&gt;Node27</title>
<path fill="none" stroke="#191970" d="M1494.5,-68.0789C1494.5,-59.2178 1494.5,-49.7747 1494.5,-41.6898"/>
<polygon fill="#191970" stroke="#191970" points="1491.0001,-68.0974 1494.5,-78.0974 1498.0001,-68.0975 1491.0001,-68.0974"/>
</g>
<!-- Node28 -->
<g id="node18" class="node">
<title>Node28</title>
<g id="a_node18"><a xlink:href="G3T1__4_8cpp.html" target="_top" xlink:title="src/sa&#45;bsn/target_system\l/components/component/src\l/g3t1_4/G3T1_4.cpp">
<polygon fill="#ffffff" stroke="#000000" points="1595,-.5 1595,-41.5 1750,-41.5 1750,-.5 1595,-.5"/>
<text text-anchor="start" x="1603" y="-29.5" font-family="Helvetica,sans-Serif" font-size="10.00" fill="#000000">src/sa&#45;bsn/target_system</text>
<text text-anchor="start" x="1603" y="-18.5" font-family="Helvetica,sans-Serif" font-size="10.00" fill="#000000">/components/component/src</text>
<text text-anchor="middle" x="1672.5" y="-7.5" font-family="Helvetica,sans-Serif" font-size="10.00" fill="#000000">/g3t1_4/G3T1_4.cpp</text>
</a>
</g>
</g>
<!-- Node26&#45;&gt;Node28 -->
<g id="edge17" class="edge">
<title>Node26&#45;&gt;Node28</title>
<path fill="none" stroke="#191970" d="M1551.0908,-74.2018C1575.1227,-63.671 1602.8059,-51.5401 1625.6635,-41.5239"/>
<polygon fill="#191970" stroke="#191970" points="1549.4879,-71.0828 1541.7334,-78.3022 1552.2974,-77.4943 1549.4879,-71.0828"/>
</g>
<!-- Node30 -->
<g id="node20" class="node">
<title>Node30</title>
<g id="a_node20"><a xlink:href="g3t1__5_8cpp.html" target="_top" xlink:title="src/sa&#45;bsn/target_system\l/components/component/apps\l/g3t1_5.cpp">
<polygon fill="#ffffff" stroke="#000000" points="1768.5,-.5 1768.5,-41.5 1932.5,-41.5 1932.5,-.5 1768.5,-.5"/>
<text text-anchor="start" x="1776.5" y="-29.5" font-family="Helvetica,sans-Serif" font-size="10.00" fill="#000000">src/sa&#45;bsn/target_system</text>
<text text-anchor="start" x="1776.5" y="-18.5" font-family="Helvetica,sans-Serif" font-size="10.00" fill="#000000">/components/component/apps</text>
<text text-anchor="middle" x="1850.5" y="-7.5" font-family="Helvetica,sans-Serif" font-size="10.00" fill="#000000">/g3t1_5.cpp</text>
</a>
</g>
</g>
<!-- Node29&#45;&gt;Node30 -->
<g id="edge19" class="edge">
<title>Node29&#45;&gt;Node30</title>
<path fill="none" stroke="#191970" d="M1850.5,-68.0789C1850.5,-59.2178 1850.5,-49.7747 1850.5,-41.6898"/>
<polygon fill="#191970" stroke="#191970" points="1847.0001,-68.0974 1850.5,-78.0974 1854.0001,-68.0975 1847.0001,-68.0974"/>
</g>
<!-- Node31 -->
<g id="node21" class="node">
<title>Node31</title>
<g id="a_node21"><a xlink:href="G3T1__5_8cpp.html" target="_top" xlink:title="src/sa&#45;bsn/target_system\l/components/component/src\l/g3t1_5/G3T1_5.cpp">
<polygon fill="#ffffff" stroke="#000000" points="1951,-.5 1951,-41.5 2106,-41.5 2106,-.5 1951,-.5"/>
<text text-anchor="start" x="1959" y="-29.5" font-family="Helvetica,sans-Serif" font-size="10.00" fill="#000000">src/sa&#45;bsn/target_system</text>
<text text-anchor="start" x="1959" y="-18.5" font-family="Helvetica,sans-Serif" font-size="10.00" fill="#000000">/components/component/src</text>
<text text-anchor="middle" x="2028.5" y="-7.5" font-family="Helvetica,sans-Serif" font-size="10.00" fill="#000000">/g3t1_5/G3T1_5.cpp</text>
</a>
</g>
</g>
<!-- Node29&#45;&gt;Node31 -->
<g id="edge20" class="edge">
<title>Node29&#45;&gt;Node31</title>
<path fill="none" stroke="#191970" d="M1907.0908,-74.2018C1931.1227,-63.671 1958.8059,-51.5401 1981.6635,-41.5239"/>
<polygon fill="#191970" stroke="#191970" points="1905.4879,-71.0828 1897.7334,-78.3022 1908.2974,-77.4943 1905.4879,-71.0828"/>
</g>
<!-- Node33 -->
<g id="node23" class="node">
<title>Node33</title>
<g id="a_node23"><a xlink:href="g3t1__6_8cpp.html" target="_top" xlink:title="src/sa&#45;bsn/target_system\l/components/component/apps\l/g3t1_6.cpp">
<polygon fill="#ffffff" stroke="#000000" points="2124.5,-.5 2124.5,-41.5 2288.5,-41.5 2288.5,-.5 2124.5,-.5"/>
<text text-anchor="start" x="2132.5" y="-29.5" font-family="Helvetica,sans-Serif" font-size="10.00" fill="#000000">src/sa&#45;bsn/target_system</text>
<text text-anchor="start" x="2132.5" y="-18.5" font-family="Helvetica,sans-Serif" font-size="10.00" fill="#000000">/components/component/apps</text>
<text text-anchor="middle" x="2206.5" y="-7.5" font-family="Helvetica,sans-Serif" font-size="10.00" fill="#000000">/g3t1_6.cpp</text>
</a>
</g>
</g>
<!-- Node32&#45;&gt;Node33 -->
<g id="edge22" class="edge">
<title>Node32&#45;&gt;Node33</title>
<path fill="none" stroke="#191970" d="M2206.5,-68.0789C2206.5,-59.2178 2206.5,-49.7747 2206.5,-41.6898"/>
<polygon fill="#191970" stroke="#191970" points="2203.0001,-68.0974 2206.5,-78.0974 2210.0001,-68.0975 2203.0001,-68.0974"/>
</g>
<!-- Node34 -->
<g id="node24" class="node">
<title>Node34</title>
<g id="a_node24"><a xlink:href="G3T1__6_8cpp.html" target="_top" xlink:title="src/sa&#45;bsn/target_system\l/components/component/src\l/g3t1_6/G3T1_6.cpp">
<polygon fill="#ffffff" stroke="#000000" points="2307,-.5 2307,-41.5 2462,-41.5 2462,-.5 2307,-.5"/>
<text text-anchor="start" x="2315" y="-29.5" font-family="Helvetica,sans-Serif" font-size="10.00" fill="#000000">src/sa&#45;bsn/target_system</text>
<text text-anchor="start" x="2315" y="-18.5" font-family="Helvetica,sans-Serif" font-size="10.00" fill="#000000">/components/component/src</text>
<text text-anchor="middle" x="2384.5" y="-7.5" font-family="Helvetica,sans-Serif" font-size="10.00" fill="#000000">/g3t1_6/G3T1_6.cpp</text>
</a>
</g>
</g>
<!-- Node32&#45;&gt;Node34 -->
<g id="edge23" class="edge">
<title>Node32&#45;&gt;Node34</title>
<path fill="none" stroke="#191970" d="M2263.0908,-74.2018C2287.1227,-63.671 2314.8059,-51.5401 2337.6635,-41.5239"/>
<polygon fill="#191970" stroke="#191970" points="2261.4879,-71.0828 2253.7334,-78.3022 2264.2974,-77.4943 2261.4879,-71.0828"/>
</g>
</g>
</svg>
