<?xml version="1.0" encoding="UTF-8" standalone="no"?>
<!DOCTYPE svg PUBLIC "-//W3C//DTD SVG 1.1//EN"
 "http://www.w3.org/Graphics/SVG/1.1/DTD/svg11.dtd">
<!-- Generated by graphviz version 2.40.1 (20161225.0304)
 -->
<!-- Title: TEST_F Pages: 1 -->
<svg width="442pt" height="137pt"
 viewBox="0.00 0.00 442.00 137.00" xmlns="http://www.w3.org/2000/svg" xmlns:xlink="http://www.w3.org/1999/xlink">
<g id="graph0" class="graph" transform="scale(1 1) rotate(0) translate(4 133)">
<title>TEST_F</title>
<polygon fill="#ffffff" stroke="transparent" points="-4,4 -4,-133 438,-133 438,4 -4,4"/>
<!-- Node16 -->
<g id="node1" class="node">
<title>Node16</title>
<polygon fill="#bfbfbf" stroke="#000000" points="0,-30 0,-49 51,-49 51,-30 0,-30"/>
<text text-anchor="middle" x="25.5" y="-37" font-family="Helvetica,sans-Serif" font-size="10.00" fill="#000000">TEST_F</text>
</g>
<!-- Node17 -->
<g id="node2" class="node">
<title>Node17</title>
<g id="a_node2"><a xlink:href="classbsn_1_1generator_1_1DataGenerator.html#aee4859b45a43ce3f9cde9750a3b6abd2" target="_top" xlink:title="bsn::generator::DataGenerator\l::nextState">
<polygon fill="#ffffff" stroke="#000000" points="87,-49.5 87,-79.5 252,-79.5 252,-49.5 87,-49.5"/>
<text text-anchor="start" x="95" y="-67.5" font-family="Helvetica,sans-Serif" font-size="10.00" fill="#000000">bsn::generator::DataGenerator</text>
<text text-anchor="middle" x="169.5" y="-56.5" font-family="Helvetica,sans-Serif" font-size="10.00" fill="#000000">::nextState</text>
</a>
</g>
</g>
<!-- Node16&#45;&gt;Node17 -->
<g id="edge1" class="edge">
<title>Node16&#45;&gt;Node17</title>
<path fill="none" stroke="#191970" d="M51.2443,-43.9695C58.8695,-45.2933 67.6951,-46.8255 77.0206,-48.4445"/>
<polygon fill="#191970" stroke="#191970" points="76.439,-51.8959 86.8904,-50.158 77.6365,-44.999 76.439,-51.8959"/>
</g>
<!-- Node21 -->
<g id="node6" class="node">
<title>Node21</title>
<g id="a_node6"><a xlink:href="classbsn_1_1generator_1_1DataGenerator.html#acc7cc7cec86a17465054307a4814295b" target="_top" xlink:title="bsn::generator::DataGenerator\l::getValue">
<polygon fill="#ffffff" stroke="#000000" points="87,-.5 87,-30.5 252,-30.5 252,-.5 87,-.5"/>
<text text-anchor="start" x="95" y="-18.5" font-family="Helvetica,sans-Serif" font-size="10.00" fill="#000000">bsn::generator::DataGenerator</text>
<text text-anchor="middle" x="169.5" y="-7.5" font-family="Helvetica,sans-Serif" font-size="10.00" fill="#000000">::getValue</text>
</a>
</g>
</g>
<!-- Node16&#45;&gt;Node21 -->
<g id="edge5" class="edge">
<title>Node16&#45;&gt;Node21</title>
<path fill="none" stroke="#191970" d="M51.2443,-35.2093C58.8695,-33.9384 67.6951,-32.4675 77.0206,-30.9132"/>
<polygon fill="#191970" stroke="#191970" points="77.6018,-34.3647 86.8904,-29.2683 76.451,-27.46 77.6018,-34.3647"/>
</g>
<!-- Node18 -->
<g id="node3" class="node">
<title>Node18</title>
<g id="a_node3"><a xlink:href="namespacebsn_1_1generator.html#aed8b98157588111aca3f20d0fb2a76b2" target="_top" xlink:title="bsn::generator::probability\lGenerator">
<polygon fill="#ffffff" stroke="#000000" points="288,-98.5 288,-128.5 434,-128.5 434,-98.5 288,-98.5"/>
<text text-anchor="start" x="296" y="-116.5" font-family="Helvetica,sans-Serif" font-size="10.00" fill="#000000">bsn::generator::probability</text>
<text text-anchor="middle" x="361" y="-105.5" font-family="Helvetica,sans-Serif" font-size="10.00" fill="#000000">Generator</text>
</a>
</g>
</g>
<!-- Node17&#45;&gt;Node18 -->
<g id="edge2" class="edge">
<title>Node17&#45;&gt;Node18</title>
<path fill="none" stroke="#191970" d="M228.2577,-79.5346C248.5694,-84.7318 271.5054,-90.6006 292.5275,-95.9796"/>
<polygon fill="#191970" stroke="#191970" points="291.7979,-99.4056 302.3534,-98.4938 293.5331,-92.6241 291.7979,-99.4056"/>
</g>
<!-- Node19 -->
<g id="node4" class="node">
<title>Node19</title>
<g id="a_node4"><a xlink:href="classbsn_1_1range_1_1Range.html#a0785d0aa7d5463bcdd3842089069a2e7" target="_top" xlink:title="bsn::range::Range::\lgetLowerBound">
<polygon fill="#ffffff" stroke="#000000" points="306,-49.5 306,-79.5 416,-79.5 416,-49.5 306,-49.5"/>
<text text-anchor="start" x="314" y="-67.5" font-family="Helvetica,sans-Serif" font-size="10.00" fill="#000000">bsn::range::Range::</text>
<text text-anchor="middle" x="361" y="-56.5" font-family="Helvetica,sans-Serif" font-size="10.00" fill="#000000">getLowerBound</text>
</a>
</g>
</g>
<!-- Node17&#45;&gt;Node19 -->
<g id="edge3" class="edge">
<title>Node17&#45;&gt;Node19</title>
<path fill="none" stroke="#191970" d="M252.1027,-64.5C266.6837,-64.5 281.6792,-64.5 295.7021,-64.5"/>
<polygon fill="#191970" stroke="#191970" points="295.7212,-68.0001 305.7212,-64.5 295.7212,-61.0001 295.7212,-68.0001"/>
</g>
<!-- Node20 -->
<g id="node5" class="node">
<title>Node20</title>
<g id="a_node5"><a xlink:href="classbsn_1_1range_1_1Range.html#a540c2181ec15a65b189a7fb89659f388" target="_top" xlink:title="bsn::range::Range::\lgetUpperBound">
<polygon fill="#ffffff" stroke="#000000" points="306,-.5 306,-30.5 416,-30.5 416,-.5 306,-.5"/>
<text text-anchor="start" x="314" y="-18.5" font-family="Helvetica,sans-Serif" font-size="10.00" fill="#000000">bsn::range::Range::</text>
<text text-anchor="middle" x="361" y="-7.5" font-family="Helvetica,sans-Serif" font-size="10.00" fill="#000000">getUpperBound</text>
</a>
</g>
</g>
<!-- Node17&#45;&gt;Node20 -->
<g id="edge4" class="edge">
<title>Node17&#45;&gt;Node20</title>
<path fill="none" stroke="#191970" d="M228.2577,-49.4654C249.7101,-43.9763 274.0899,-37.7381 296.0504,-32.119"/>
<polygon fill="#191970" stroke="#191970" points="297.1307,-35.4554 305.9509,-29.5857 295.3954,-28.6739 297.1307,-35.4554"/>
</g>
</g>
</svg>
