<?xml version="1.0" encoding="UTF-8" standalone="no"?>
<!DOCTYPE svg PUBLIC "-//W3C//DTD SVG 1.1//EN"
 "http://www.w3.org/Graphics/SVG/1.1/DTD/svg11.dtd">
<!-- Generated by graphviz version 2.40.1 (20161225.0304)
 -->
<!-- Title: src/sa&#45;bsn/knowledge_repository/data_access/apps/data_access.cpp Pages: 1 -->
<svg width="2109pt" height="442pt"
 viewBox="0.00 0.00 2108.50 442.00" xmlns="http://www.w3.org/2000/svg" xmlns:xlink="http://www.w3.org/1999/xlink">
<g id="graph0" class="graph" transform="scale(1 1) rotate(0) translate(4 438)">
<title>src/sa&#45;bsn/knowledge_repository/data_access/apps/data_access.cpp</title>
<polygon fill="#ffffff" stroke="transparent" points="-4,4 -4,-438 2104.5,-438 2104.5,4 -4,4"/>
<!-- Node0 -->
<g id="node1" class="node">
<title>Node0</title>
<polygon fill="#bfbfbf" stroke="#000000" points="922.5,-392.5 922.5,-433.5 1056.5,-433.5 1056.5,-392.5 922.5,-392.5"/>
<text text-anchor="start" x="930.5" y="-421.5" font-family="Helvetica,sans-Serif" font-size="10.00" fill="#000000">src/sa&#45;bsn/knowledge</text>
<text text-anchor="start" x="930.5" y="-410.5" font-family="Helvetica,sans-Serif" font-size="10.00" fill="#000000">_repository/data_access</text>
<text text-anchor="middle" x="989.5" y="-399.5" font-family="Helvetica,sans-Serif" font-size="10.00" fill="#000000">/apps/data_access.cpp</text>
</g>
<!-- Node1 -->
<g id="node2" class="node">
<title>Node1</title>
<g id="a_node2"><a xlink:href="DataAccess_8hpp.html" target="_top" xlink:title="data_access/DataAccess.hpp">
<polygon fill="#ffffff" stroke="#000000" points="910.5,-336.5 910.5,-355.5 1068.5,-355.5 1068.5,-336.5 910.5,-336.5"/>
<text text-anchor="middle" x="989.5" y="-343.5" font-family="Helvetica,sans-Serif" font-size="10.00" fill="#000000">data_access/DataAccess.hpp</text>
</a>
</g>
</g>
<!-- Node0&#45;&gt;Node1 -->
<g id="edge1" class="edge">
<title>Node0&#45;&gt;Node1</title>
<path fill="none" stroke="#191970" d="M989.5,-392.168C989.5,-383.8226 989.5,-374.2471 989.5,-365.9879"/>
<polygon fill="#191970" stroke="#191970" points="993.0001,-365.7804 989.5,-355.7805 986.0001,-365.7805 993.0001,-365.7804"/>
</g>
<!-- Node2 -->
<g id="node3" class="node">
<title>Node2</title>
<polygon fill="#ffffff" stroke="#bfbfbf" points="0,-280.5 0,-299.5 55,-299.5 55,-280.5 0,-280.5"/>
<text text-anchor="middle" x="27.5" y="-287.5" font-family="Helvetica,sans-Serif" font-size="10.00" fill="#000000">fstream</text>
</g>
<!-- Node1&#45;&gt;Node2 -->
<g id="edge2" class="edge">
<title>Node1&#45;&gt;Node2</title>
<path fill="none" stroke="#191970" d="M910.2052,-344.2393C720.7688,-339.6877 244.9734,-326.129 65.3631,-299.7341"/>
<polygon fill="#191970" stroke="#191970" points="65.6571,-296.2383 55.2421,-298.1823 64.5962,-303.1575 65.6571,-296.2383"/>
</g>
<!-- Node3 -->
<g id="node4" class="node">
<title>Node3</title>
<polygon fill="#ffffff" stroke="#bfbfbf" points="73.5,-280.5 73.5,-299.5 123.5,-299.5 123.5,-280.5 73.5,-280.5"/>
<text text-anchor="middle" x="98.5" y="-287.5" font-family="Helvetica,sans-Serif" font-size="10.00" fill="#000000">chrono</text>
</g>
<!-- Node1&#45;&gt;Node3 -->
<g id="edge3" class="edge">
<title>Node1&#45;&gt;Node3</title>
<path fill="none" stroke="#191970" d="M910.3118,-344.1008C731.2991,-339.4345 298.8594,-325.9721 133.6202,-299.7523"/>
<polygon fill="#191970" stroke="#191970" points="134.0356,-296.2734 123.5975,-298.0885 132.8893,-303.1789 134.0356,-296.2734"/>
</g>
<!-- Node4 -->
<g id="node5" class="node">
<title>Node4</title>
<polygon fill="#ffffff" stroke="#bfbfbf" points="142,-280.5 142,-299.5 189,-299.5 189,-280.5 142,-280.5"/>
<text text-anchor="middle" x="165.5" y="-287.5" font-family="Helvetica,sans-Serif" font-size="10.00" fill="#000000">deque</text>
</g>
<!-- Node1&#45;&gt;Node4 -->
<g id="edge4" class="edge">
<title>Node1&#45;&gt;Node4</title>
<path fill="none" stroke="#191970" d="M910.2523,-343.366C738.767,-337.3393 337.9009,-321.3988 203.5,-300 202.0263,-299.7654 200.527,-299.4978 199.0172,-299.2047"/>
<polygon fill="#191970" stroke="#191970" points="199.5848,-295.7452 189.0618,-296.9768 198.056,-302.5762 199.5848,-295.7452"/>
</g>
<!-- Node5 -->
<g id="node6" class="node">
<title>Node5</title>
<polygon fill="#ffffff" stroke="#bfbfbf" points="1837,-.5 1837,-19.5 1896,-19.5 1896,-.5 1837,-.5"/>
<text text-anchor="middle" x="1866.5" y="-7.5" font-family="Helvetica,sans-Serif" font-size="10.00" fill="#000000">ros/ros.h</text>
</g>
<!-- Node1&#45;&gt;Node5 -->
<g id="edge5" class="edge">
<title>Node1&#45;&gt;Node5</title>
<path fill="none" stroke="#191970" d="M1068.7015,-344.5623C1290.982,-339.4841 1904.5,-317.8708 1904.5,-234 1904.5,-234 1904.5,-234 1904.5,-122 1904.5,-87.6118 1888.2366,-50.2832 1876.989,-28.5791"/>
<polygon fill="#191970" stroke="#191970" points="1879.931,-26.6605 1872.107,-19.5166 1873.7683,-29.9804 1879.931,-26.6605"/>
</g>
<!-- Node6 -->
<g id="node7" class="node">
<title>Node6</title>
<polygon fill="#ffffff" stroke="#bfbfbf" points="246,-280.5 246,-299.5 331,-299.5 331,-280.5 246,-280.5"/>
<text text-anchor="middle" x="288.5" y="-287.5" font-family="Helvetica,sans-Serif" font-size="10.00" fill="#000000">ros/package.h</text>
</g>
<!-- Node1&#45;&gt;Node6 -->
<g id="edge6" class="edge">
<title>Node1&#45;&gt;Node6</title>
<path fill="none" stroke="#191970" d="M910.4335,-342.9611C788.7144,-337.6951 548.2542,-324.9602 345.5,-300 344.0354,-299.8197 342.5512,-299.6272 341.0546,-299.4244"/>
<polygon fill="#191970" stroke="#191970" points="341.4726,-295.9484 331.0703,-297.9589 340.456,-302.8741 341.4726,-295.9484"/>
</g>
<!-- Node7 -->
<g id="node8" class="node">
<title>Node7</title>
<g id="a_node8"><a xlink:href="Node_8hpp.html" target="_top" xlink:title="libbsn/goalmodel/Node.hpp">
<polygon fill="#ffffff" stroke="#000000" points="356.5,-56.5 356.5,-75.5 506.5,-75.5 506.5,-56.5 356.5,-56.5"/>
<text text-anchor="middle" x="431.5" y="-63.5" font-family="Helvetica,sans-Serif" font-size="10.00" fill="#000000">libbsn/goalmodel/Node.hpp</text>
</a>
</g>
</g>
<!-- Node1&#45;&gt;Node7 -->
<g id="edge7" class="edge">
<title>Node1&#45;&gt;Node7</title>
<path fill="none" stroke="#191970" d="M910.4158,-343.6078C722.4175,-337.594 262.4785,-320.826 236.5,-300 212.6836,-280.9073 217.5,-264.5246 217.5,-234 217.5,-234 217.5,-234 217.5,-178 217.5,-116.9272 286.764,-89.0945 346.4814,-76.4474"/>
<polygon fill="#191970" stroke="#191970" points="347.2331,-79.8664 356.3525,-74.4732 345.8603,-73.0023 347.2331,-79.8664"/>
</g>
<!-- Node12 -->
<g id="node13" class="node">
<title>Node12</title>
<g id="a_node13"><a xlink:href="Goal_8hpp.html" target="_top" xlink:title="libbsn/goalmodel/Goal.hpp">
<polygon fill="#ffffff" stroke="#000000" points="459,-112.5 459,-131.5 606,-131.5 606,-112.5 459,-112.5"/>
<text text-anchor="middle" x="532.5" y="-119.5" font-family="Helvetica,sans-Serif" font-size="10.00" fill="#000000">libbsn/goalmodel/Goal.hpp</text>
</a>
</g>
</g>
<!-- Node1&#45;&gt;Node12 -->
<g id="edge12" class="edge">
<title>Node1&#45;&gt;Node12</title>
<path fill="none" stroke="#191970" d="M957.7513,-336.4541C928.0847,-327.4263 882.6213,-313.3146 843.5,-300 774.9497,-276.6694 753.9009,-278.9825 690.5,-244 634.9889,-213.3708 578.1294,-164.2155 550.1967,-138.6537"/>
<polygon fill="#191970" stroke="#191970" points="552.5181,-136.0332 542.7995,-131.8141 547.7658,-141.1729 552.5181,-136.0332"/>
</g>
<!-- Node13 -->
<g id="node14" class="node">
<title>Node13</title>
<g id="a_node14"><a xlink:href="Task_8hpp.html" target="_top" xlink:title="libbsn/goalmodel/Task.hpp">
<polygon fill="#ffffff" stroke="#000000" points="317.5,-168.5 317.5,-187.5 463.5,-187.5 463.5,-168.5 317.5,-168.5"/>
<text text-anchor="middle" x="390.5" y="-175.5" font-family="Helvetica,sans-Serif" font-size="10.00" fill="#000000">libbsn/goalmodel/Task.hpp</text>
</a>
</g>
</g>
<!-- Node1&#45;&gt;Node13 -->
<g id="edge17" class="edge">
<title>Node1&#45;&gt;Node13</title>
<path fill="none" stroke="#191970" d="M910.2642,-344.974C756.921,-342.2611 431.1908,-332.6788 392.5,-300 363.3547,-275.3835 374.2265,-225.0242 383.2361,-197.3245"/>
<polygon fill="#191970" stroke="#191970" points="386.6377,-198.1995 386.6276,-187.6047 380.0284,-195.8933 386.6377,-198.1995"/>
</g>
<!-- Node14 -->
<g id="node15" class="node">
<title>Node14</title>
<g id="a_node15"><a xlink:href="Property_8hpp.html" target="_top" xlink:title="libbsn/goalmodel/Property.hpp">
<polygon fill="#ffffff" stroke="#000000" points="996.5,-168.5 996.5,-187.5 1160.5,-187.5 1160.5,-168.5 996.5,-168.5"/>
<text text-anchor="middle" x="1078.5" y="-175.5" font-family="Helvetica,sans-Serif" font-size="10.00" fill="#000000">libbsn/goalmodel/Property.hpp</text>
</a>
</g>
</g>
<!-- Node1&#45;&gt;Node14 -->
<g id="edge24" class="edge">
<title>Node1&#45;&gt;Node14</title>
<path fill="none" stroke="#191970" d="M988.4494,-336.1898C987.4216,-322.9232 986.9557,-298.7647 994.5,-280 1008.5645,-245.0177 1039.193,-212.9111 1059.3198,-194.4068"/>
<polygon fill="#191970" stroke="#191970" points="1061.8519,-196.8377 1066.97,-187.561 1057.184,-191.6213 1061.8519,-196.8377"/>
</g>
<!-- Node15 -->
<g id="node16" class="node">
<title>Node15</title>
<g id="a_node16"><a xlink:href="LeafTask_8hpp.html" target="_top" xlink:title="libbsn/goalmodel/LeafTask.hpp">
<polygon fill="#ffffff" stroke="#000000" points="700,-224.5 700,-243.5 867,-243.5 867,-224.5 700,-224.5"/>
<text text-anchor="middle" x="783.5" y="-231.5" font-family="Helvetica,sans-Serif" font-size="10.00" fill="#000000">libbsn/goalmodel/LeafTask.hpp</text>
</a>
</g>
</g>
<!-- Node1&#45;&gt;Node15 -->
<g id="edge26" class="edge">
<title>Node1&#45;&gt;Node15</title>
<path fill="none" stroke="#191970" d="M962.8314,-336.4464C940.3325,-327.9892 907.5616,-314.7277 880.5,-300 852.7286,-284.886 822.9723,-263.835 803.8487,-249.6037"/>
<polygon fill="#191970" stroke="#191970" points="805.9511,-246.8055 795.8558,-243.5907 801.7429,-252.3994 805.9511,-246.8055"/>
</g>
<!-- Node16 -->
<g id="node17" class="node">
<title>Node16</title>
<g id="a_node17"><a xlink:href="Context_8hpp.html" target="_top" xlink:title="libbsn/goalmodel/Context.hpp">
<polygon fill="#ffffff" stroke="#000000" points="815,-168.5 815,-187.5 978,-187.5 978,-168.5 815,-168.5"/>
<text text-anchor="middle" x="896.5" y="-175.5" font-family="Helvetica,sans-Serif" font-size="10.00" fill="#000000">libbsn/goalmodel/Context.hpp</text>
</a>
</g>
</g>
<!-- Node1&#45;&gt;Node16 -->
<g id="edge33" class="edge">
<title>Node1&#45;&gt;Node16</title>
<path fill="none" stroke="#191970" d="M984.2335,-336.4862C969.3414,-309.5845 926.7247,-232.5994 906.889,-196.7673"/>
<polygon fill="#191970" stroke="#191970" points="909.8458,-194.8817 901.9404,-187.8279 903.7215,-198.272 909.8458,-194.8817"/>
</g>
<!-- Node17 -->
<g id="node18" class="node">
<title>Node17</title>
<g id="a_node18"><a xlink:href="GoalTree_8hpp.html" target="_top" xlink:title="libbsn/goalmodel/GoalTree.hpp">
<polygon fill="#ffffff" stroke="#000000" points="402,-280.5 402,-299.5 569,-299.5 569,-280.5 402,-280.5"/>
<text text-anchor="middle" x="485.5" y="-287.5" font-family="Helvetica,sans-Serif" font-size="10.00" fill="#000000">libbsn/goalmodel/GoalTree.hpp</text>
</a>
</g>
</g>
<!-- Node1&#45;&gt;Node17 -->
<g id="edge34" class="edge">
<title>Node1&#45;&gt;Node17</title>
<path fill="none" stroke="#191970" d="M910.473,-337.2192C820.7953,-327.255 674.6412,-311.0157 579.2697,-300.4189"/>
<polygon fill="#191970" stroke="#191970" points="579.3774,-296.9094 569.052,-299.2836 578.6043,-303.8665 579.3774,-296.9094"/>
</g>
<!-- Node19 -->
<g id="node20" class="node">
<title>Node19</title>
<g id="a_node20"><a xlink:href="Formula_8hpp.html" target="_top" xlink:title="libbsn/model/Formula.hpp">
<polygon fill="#ffffff" stroke="#000000" points="1037,-280.5 1037,-299.5 1180,-299.5 1180,-280.5 1037,-280.5"/>
<text text-anchor="middle" x="1108.5" y="-287.5" font-family="Helvetica,sans-Serif" font-size="10.00" fill="#000000">libbsn/model/Formula.hpp</text>
</a>
</g>
</g>
<!-- Node1&#45;&gt;Node19 -->
<g id="edge44" class="edge">
<title>Node1&#45;&gt;Node19</title>
<path fill="none" stroke="#191970" d="M1009.9568,-336.3733C1028.9738,-327.4241 1057.5175,-313.9917 1078.9976,-303.8835"/>
<polygon fill="#191970" stroke="#191970" points="1080.7522,-306.926 1088.3101,-299.5011 1077.7716,-300.5923 1080.7522,-306.926"/>
</g>
<!-- Node21 -->
<g id="node22" class="node">
<title>Node21</title>
<polygon fill="#ffffff" stroke="#bfbfbf" points="1302.5,-224.5 1302.5,-243.5 1394.5,-243.5 1394.5,-224.5 1302.5,-224.5"/>
<text text-anchor="middle" x="1348.5" y="-231.5" font-family="Helvetica,sans-Serif" font-size="10.00" fill="#000000">lepton/Lepton.h</text>
</g>
<!-- Node1&#45;&gt;Node21 -->
<g id="edge71" class="edge">
<title>Node1&#45;&gt;Node21</title>
<path fill="none" stroke="#191970" d="M1068.5903,-344.8733C1208.5092,-342.0532 1487.8109,-332.3881 1517.5,-300 1553.7408,-260.4646 1467.0093,-244.3233 1404.8561,-237.9463"/>
<polygon fill="#191970" stroke="#191970" points="1405.0196,-234.4459 1394.7298,-236.9697 1404.3476,-241.4136 1405.0196,-234.4459"/>
</g>
<!-- Node22 -->
<g id="node23" class="node">
<title>Node22</title>
<g id="a_node23"><a xlink:href="utils_8hpp.html" target="_top" xlink:title="libbsn/utils/utils.hpp">
<polygon fill="#ffffff" stroke="#000000" points="715,-56.5 715,-75.5 830,-75.5 830,-56.5 715,-56.5"/>
<text text-anchor="middle" x="772.5" y="-63.5" font-family="Helvetica,sans-Serif" font-size="10.00" fill="#000000">libbsn/utils/utils.hpp</text>
</a>
</g>
</g>
<!-- Node1&#45;&gt;Node22 -->
<g id="edge49" class="edge">
<title>Node1&#45;&gt;Node22</title>
<path fill="none" stroke="#191970" d="M981.2,-336.2903C959.1991,-310.6913 899.4366,-242.0892 875.5,-224 847.5893,-202.9075 827.4973,-215.2033 805.5,-188 781.3439,-158.1269 774.7939,-112.0477 773.0666,-85.9046"/>
<polygon fill="#191970" stroke="#191970" points="776.5534,-85.5449 772.5751,-75.7253 769.5615,-85.8825 776.5534,-85.5449"/>
</g>
<!-- Node23 -->
<g id="node24" class="node">
<title>Node23</title>
<polygon fill="#ffffff" stroke="#bfbfbf" points="1237,-280.5 1237,-299.5 1332,-299.5 1332,-280.5 1237,-280.5"/>
<text text-anchor="middle" x="1284.5" y="-287.5" font-family="Helvetica,sans-Serif" font-size="10.00" fill="#000000">archlib/Persist.h</text>
</g>
<!-- Node1&#45;&gt;Node23 -->
<g id="edge52" class="edge">
<title>Node1&#45;&gt;Node23</title>
<path fill="none" stroke="#191970" d="M1039.8771,-336.4369C1091.7751,-326.5851 1172.5503,-311.2515 1226.938,-300.927"/>
<polygon fill="#191970" stroke="#191970" points="1227.6016,-304.3636 1236.7734,-299.06 1226.296,-297.4865 1227.6016,-304.3636"/>
</g>
<!-- Node24 -->
<g id="node25" class="node">
<title>Node24</title>
<polygon fill="#ffffff" stroke="#bfbfbf" points="1350.5,-280.5 1350.5,-299.5 1508.5,-299.5 1508.5,-280.5 1350.5,-280.5"/>
<text text-anchor="middle" x="1429.5" y="-287.5" font-family="Helvetica,sans-Serif" font-size="10.00" fill="#000000">archlib/DataAccessRequest.h</text>
</g>
<!-- Node1&#45;&gt;Node24 -->
<g id="edge53" class="edge">
<title>Node1&#45;&gt;Node24</title>
<path fill="none" stroke="#191970" d="M1064.6388,-336.4369C1142.3143,-326.5509 1263.3604,-311.145 1344.4874,-300.8198"/>
<polygon fill="#191970" stroke="#191970" points="1345.1931,-304.2583 1354.6712,-299.5237 1344.3093,-297.3143 1345.1931,-304.2583"/>
</g>
<!-- Node25 -->
<g id="node26" class="node">
<title>Node25</title>
<g id="a_node26"><a xlink:href="ROSComponent_8hpp.html" target="_top" xlink:title="archlib/ROSComponent.hpp">
<polygon fill="#ffffff" stroke="#000000" points="1663.5,-112.5 1663.5,-131.5 1813.5,-131.5 1813.5,-112.5 1663.5,-112.5"/>
<text text-anchor="middle" x="1738.5" y="-119.5" font-family="Helvetica,sans-Serif" font-size="10.00" fill="#000000">archlib/ROSComponent.hpp</text>
</a>
</g>
</g>
<!-- Node1&#45;&gt;Node25 -->
<g id="edge54" class="edge">
<title>Node1&#45;&gt;Node25</title>
<path fill="none" stroke="#191970" d="M1068.6653,-342.9016C1231.9259,-336.1601 1595.2321,-319.214 1648.5,-300 1688.6442,-285.5198 1705.181,-280.9694 1726.5,-244 1744.9397,-212.0235 1743.9019,-167.3774 1741.3145,-141.9057"/>
<polygon fill="#191970" stroke="#191970" points="1744.752,-141.1758 1740.0811,-131.6662 1737.8022,-142.013 1744.752,-141.1758"/>
</g>
<!-- Node27 -->
<g id="node28" class="node">
<title>Node27</title>
<g id="a_node28"><a xlink:href="StatusMessage_8hpp.html" target="_top" xlink:title="StatusMessage.hpp">
<polygon fill="#ffffff" stroke="#000000" points="1125,-112.5 1125,-131.5 1236,-131.5 1236,-112.5 1125,-112.5"/>
<text text-anchor="middle" x="1180.5" y="-119.5" font-family="Helvetica,sans-Serif" font-size="10.00" fill="#000000">StatusMessage.hpp</text>
</a>
</g>
</g>
<!-- Node1&#45;&gt;Node27 -->
<g id="edge61" class="edge">
<title>Node1&#45;&gt;Node27</title>
<path fill="none" stroke="#191970" d="M993.4219,-336.1072C999.2571,-322.3119 1011.3007,-297.0726 1027.5,-280 1079.2603,-225.4492 1128.2558,-250.8795 1169.5,-188 1178.4485,-174.3574 1180.8891,-155.8179 1181.2691,-141.8614"/>
<polygon fill="#191970" stroke="#191970" points="1184.769,-141.814 1181.2172,-131.8323 1177.7691,-141.8503 1184.769,-141.814"/>
</g>
<!-- Node28 -->
<g id="node29" class="node">
<title>Node28</title>
<g id="a_node29"><a xlink:href="EnergyStatusMessage_8hpp.html" target="_top" xlink:title="EnergyStatusMessage.hpp">
<polygon fill="#ffffff" stroke="#000000" points="1319,-168.5 1319,-187.5 1464,-187.5 1464,-168.5 1319,-168.5"/>
<text text-anchor="middle" x="1391.5" y="-175.5" font-family="Helvetica,sans-Serif" font-size="10.00" fill="#000000">EnergyStatusMessage.hpp</text>
</a>
</g>
</g>
<!-- Node1&#45;&gt;Node28 -->
<g id="edge63" class="edge">
<title>Node1&#45;&gt;Node28</title>
<path fill="none" stroke="#191970" d="M1047.633,-336.4816C1087.9114,-328.9445 1142.3745,-316.8637 1188.5,-300 1206.7953,-293.3112 1209.1213,-286.4559 1227.5,-280 1302.8295,-253.5389 1353.0161,-305.8554 1403.5,-244 1414.2697,-230.8045 1408.8177,-211.1454 1402.1637,-196.7145"/>
<polygon fill="#191970" stroke="#191970" points="1405.2225,-195.0088 1397.5496,-187.7028 1398.9917,-198.199 1405.2225,-195.0088"/>
</g>
<!-- Node29 -->
<g id="node30" class="node">
<title>Node29</title>
<g id="a_node30"><a xlink:href="EventMessage_8hpp.html" target="_top" xlink:title="EventMessage.hpp">
<polygon fill="#ffffff" stroke="#000000" points="1375.5,-112.5 1375.5,-131.5 1483.5,-131.5 1483.5,-112.5 1375.5,-112.5"/>
<text text-anchor="middle" x="1429.5" y="-119.5" font-family="Helvetica,sans-Serif" font-size="10.00" fill="#000000">EventMessage.hpp</text>
</a>
</g>
</g>
<!-- Node1&#45;&gt;Node29 -->
<g id="edge65" class="edge">
<title>Node1&#45;&gt;Node29</title>
<path fill="none" stroke="#191970" d="M1068.6011,-345.1358C1212.5705,-342.7355 1505.4986,-333.7179 1536.5,-300 1568.6309,-265.0536 1589.9946,-327.3243 1472.5,-168 1464.9279,-157.7321 1455.3234,-147.2663 1447.1131,-138.9168"/>
<polygon fill="#191970" stroke="#191970" points="1449.3426,-136.1982 1439.7805,-131.6356 1444.4103,-141.1653 1449.3426,-136.1982"/>
</g>
<!-- Node30 -->
<g id="node31" class="node">
<title>Node30</title>
<g id="a_node31"><a xlink:href="UncertaintyMessage_8hpp.html" target="_top" xlink:title="UncertaintyMessage.hpp">
<polygon fill="#ffffff" stroke="#000000" points="1407,-56.5 1407,-75.5 1544,-75.5 1544,-56.5 1407,-56.5"/>
<text text-anchor="middle" x="1475.5" y="-63.5" font-family="Helvetica,sans-Serif" font-size="10.00" fill="#000000">UncertaintyMessage.hpp</text>
</a>
</g>
</g>
<!-- Node1&#45;&gt;Node30 -->
<g id="edge67" class="edge">
<title>Node1&#45;&gt;Node30</title>
<path fill="none" stroke="#191970" d="M1068.6296,-342.4732C1222.1635,-335.2454 1546.961,-317.9174 1563.5,-300 1594.066,-266.8864 1517.1425,-133.5271 1486.9995,-84.3401"/>
<polygon fill="#191970" stroke="#191970" points="1489.8787,-82.3415 1481.6404,-75.6796 1483.9262,-86.0249 1489.8787,-82.3415"/>
</g>
<!-- Node31 -->
<g id="node32" class="node">
<title>Node31</title>
<g id="a_node32"><a xlink:href="AdaptationMessage_8hpp.html" target="_top" xlink:title="AdaptationMessage.hpp">
<polygon fill="#ffffff" stroke="#000000" points="1583.5,-224.5 1583.5,-243.5 1717.5,-243.5 1717.5,-224.5 1583.5,-224.5"/>
<text text-anchor="middle" x="1650.5" y="-231.5" font-family="Helvetica,sans-Serif" font-size="10.00" fill="#000000">AdaptationMessage.hpp</text>
</a>
</g>
</g>
<!-- Node1&#45;&gt;Node31 -->
<g id="edge69" class="edge">
<title>Node1&#45;&gt;Node31</title>
<path fill="none" stroke="#191970" d="M1068.7722,-345.0369C1229.6485,-342.402 1582.9584,-332.8988 1626.5,-300 1640.9033,-289.1173 1646.674,-268.7453 1648.9797,-253.5011"/>
<polygon fill="#191970" stroke="#191970" points="1652.4627,-253.8487 1650.1201,-243.5161 1645.5079,-253.0543 1652.4627,-253.8487"/>
</g>
<!-- Node32 -->
<g id="node33" class="node">
<title>Node32</title>
<polygon fill="#ffffff" stroke="#bfbfbf" points="1932.5,-280.5 1932.5,-299.5 2100.5,-299.5 2100.5,-280.5 1932.5,-280.5"/>
<text text-anchor="middle" x="2016.5" y="-287.5" font-family="Helvetica,sans-Serif" font-size="10.00" fill="#000000">messages/TargetSystemData.h</text>
</g>
<!-- Node1&#45;&gt;Node32 -->
<g id="edge72" class="edge">
<title>Node1&#45;&gt;Node32</title>
<path fill="none" stroke="#191970" d="M1068.5025,-343.4803C1228.8825,-338.0578 1604.1059,-323.8079 1918.5,-300 1919.771,-299.9038 1921.0511,-299.8046 1922.3386,-299.7029"/>
<polygon fill="#191970" stroke="#191970" points="1922.6518,-303.189 1932.3289,-298.8756 1922.0741,-296.2129 1922.6518,-303.189"/>
</g>
<!-- Node8 -->
<g id="node9" class="node">
<title>Node8</title>
<polygon fill="#ffffff" stroke="#bfbfbf" points="1105.5,-.5 1105.5,-19.5 1149.5,-19.5 1149.5,-.5 1105.5,-.5"/>
<text text-anchor="middle" x="1127.5" y="-7.5" font-family="Helvetica,sans-Serif" font-size="10.00" fill="#000000">string</text>
</g>
<!-- Node7&#45;&gt;Node8 -->
<g id="edge8" class="edge">
<title>Node7&#45;&gt;Node8</title>
<path fill="none" stroke="#191970" d="M506.6455,-59.9538C657.1917,-47.8409 990.3104,-21.0382 1095.2121,-12.5979"/>
<polygon fill="#191970" stroke="#191970" points="1095.5089,-16.0854 1105.196,-11.7946 1094.9475,-9.1079 1095.5089,-16.0854"/>
</g>
<!-- Node9 -->
<g id="node10" class="node">
<title>Node9</title>
<polygon fill="#ffffff" stroke="#bfbfbf" points="460,-.5 460,-19.5 507,-19.5 507,-.5 460,-.5"/>
<text text-anchor="middle" x="483.5" y="-7.5" font-family="Helvetica,sans-Serif" font-size="10.00" fill="#000000">vector</text>
</g>
<!-- Node7&#45;&gt;Node9 -->
<g id="edge9" class="edge">
<title>Node7&#45;&gt;Node9</title>
<path fill="none" stroke="#191970" d="M440.5577,-56.2455C448.0142,-48.2155 458.7634,-36.6394 467.6417,-27.0781"/>
<polygon fill="#191970" stroke="#191970" points="470.3063,-29.3522 474.5461,-19.6427 465.1768,-24.589 470.3063,-29.3522"/>
</g>
<!-- Node10 -->
<g id="node11" class="node">
<title>Node10</title>
<polygon fill="#ffffff" stroke="#bfbfbf" points="615,-.5 615,-19.5 680,-19.5 680,-.5 615,-.5"/>
<text text-anchor="middle" x="647.5" y="-7.5" font-family="Helvetica,sans-Serif" font-size="10.00" fill="#000000">stdexcept</text>
</g>
<!-- Node7&#45;&gt;Node10 -->
<g id="edge10" class="edge">
<title>Node7&#45;&gt;Node10</title>
<path fill="none" stroke="#191970" d="M468.6317,-56.3733C506.4695,-46.5635 565.0857,-31.3667 604.8157,-21.0663"/>
<polygon fill="#191970" stroke="#191970" points="605.9339,-24.3922 614.7355,-18.4945 604.1772,-17.6162 605.9339,-24.3922"/>
</g>
<!-- Node11 -->
<g id="node12" class="node">
<title>Node11</title>
<polygon fill="#ffffff" stroke="#bfbfbf" points="223.5,-.5 223.5,-19.5 281.5,-19.5 281.5,-.5 223.5,-.5"/>
<text text-anchor="middle" x="252.5" y="-7.5" font-family="Helvetica,sans-Serif" font-size="10.00" fill="#000000">memory</text>
</g>
<!-- Node7&#45;&gt;Node11 -->
<g id="edge11" class="edge">
<title>Node7&#45;&gt;Node11</title>
<path fill="none" stroke="#191970" d="M400.7288,-56.3733C370.4726,-46.9076 324.1843,-32.4264 291.3945,-22.1681"/>
<polygon fill="#191970" stroke="#191970" points="292.2733,-18.7758 281.6844,-19.1303 290.1832,-25.4565 292.2733,-18.7758"/>
</g>
<!-- Node12&#45;&gt;Node7 -->
<g id="edge16" class="edge">
<title>Node12&#45;&gt;Node7</title>
<path fill="none" stroke="#191970" d="M514.9071,-112.2455C499.121,-103.4928 475.7361,-90.527 457.7413,-80.5496"/>
<polygon fill="#191970" stroke="#191970" points="459.3341,-77.4308 448.8913,-75.6427 455.9397,-83.5528 459.3341,-77.4308"/>
</g>
<!-- Node12&#45;&gt;Node8 -->
<g id="edge13" class="edge">
<title>Node12&#45;&gt;Node8</title>
<path fill="none" stroke="#191970" d="M552.4687,-112.4436C584.1318,-97.7396 648.154,-69.8221 705.5,-56 847.9288,-21.6705 1023.6273,-12.9188 1095.0377,-10.7217"/>
<polygon fill="#191970" stroke="#191970" points="1095.2958,-14.2159 1105.1921,-10.4326 1095.0965,-7.2187 1095.2958,-14.2159"/>
</g>
<!-- Node12&#45;&gt;Node9 -->
<g id="edge14" class="edge">
<title>Node12&#45;&gt;Node9</title>
<path fill="none" stroke="#191970" d="M531.1002,-112.2382C528.9604,-99.0263 524.1803,-74.9296 515.5,-56 510.914,-45.9991 504.1347,-35.857 497.995,-27.6502"/>
<polygon fill="#191970" stroke="#191970" points="500.6281,-25.3351 491.7179,-19.6028 495.1086,-29.6404 500.6281,-25.3351"/>
</g>
<!-- Node12&#45;&gt;Node10 -->
<g id="edge15" class="edge">
<title>Node12&#45;&gt;Node10</title>
<path fill="none" stroke="#191970" d="M541.4202,-112.4057C553.6132,-99.3838 576.2811,-75.5015 596.5,-56 606.9595,-45.9116 619.019,-35.0031 628.7845,-26.3418"/>
<polygon fill="#191970" stroke="#191970" points="631.175,-28.9004 636.3624,-19.6623 626.5462,-23.6491 631.175,-28.9004"/>
</g>
<!-- Node13&#45;&gt;Node7 -->
<g id="edge21" class="edge">
<title>Node13&#45;&gt;Node7</title>
<path fill="none" stroke="#191970" d="M393.9956,-168.4509C400.7432,-150.0186 415.6764,-109.2254 424.5289,-85.043"/>
<polygon fill="#191970" stroke="#191970" points="427.8622,-86.1187 428.0132,-75.5249 421.2888,-83.7123 427.8622,-86.1187"/>
</g>
<!-- Node13&#45;&gt;Node8 -->
<g id="edge18" class="edge">
<title>Node13&#45;&gt;Node8</title>
<path fill="none" stroke="#191970" d="M440.0102,-168.4593C485.4863,-159.5474 554.692,-145.6106 614.5,-132 714.5612,-109.229 741.6122,-109.816 838.5,-76 858.7812,-68.9214 862.0176,-62.4733 882.5,-56 956.9272,-32.4777 1048.0906,-19.2671 1095.4652,-13.5139"/>
<polygon fill="#191970" stroke="#191970" points="1095.9164,-16.985 1105.4364,-12.3353 1095.0947,-10.0334 1095.9164,-16.985"/>
</g>
<!-- Node13&#45;&gt;Node9 -->
<g id="edge19" class="edge">
<title>Node13&#45;&gt;Node9</title>
<path fill="none" stroke="#191970" d="M363.4904,-168.4092C347.1898,-161.1009 327.6652,-149.3089 317.5,-132 300.3813,-102.851 293.9744,-82.8592 314.5,-56 330.8238,-34.6391 405.2261,-20.8407 449.687,-14.3488"/>
<polygon fill="#191970" stroke="#191970" points="450.3444,-17.7908 459.7574,-12.9282 449.3666,-10.8594 450.3444,-17.7908"/>
</g>
<!-- Node13&#45;&gt;Node10 -->
<g id="edge20" class="edge">
<title>Node13&#45;&gt;Node10</title>
<path fill="none" stroke="#191970" d="M381.3273,-168.2689C361.3752,-145.9271 318.0994,-90.2523 347.5,-56 364.0456,-36.7241 525.8969,-20.3864 604.7511,-13.4983"/>
<polygon fill="#191970" stroke="#191970" points="605.1871,-16.9738 614.8497,-12.6282 604.5862,-9.9996 605.1871,-16.9738"/>
</g>
<!-- Node13&#45;&gt;Node11 -->
<g id="edge22" class="edge">
<title>Node13&#45;&gt;Node11</title>
<path fill="none" stroke="#191970" d="M361.4029,-168.4625C342.7455,-161.0664 319.1712,-149.1563 303.5,-132 276.2698,-102.1894 262.3833,-55.7571 256.3582,-29.6118"/>
<polygon fill="#191970" stroke="#191970" points="259.7634,-28.7984 254.2413,-19.7564 252.9195,-30.2684 259.7634,-28.7984"/>
</g>
<!-- Node13&#45;&gt;Node12 -->
<g id="edge23" class="edge">
<title>Node13&#45;&gt;Node12</title>
<path fill="none" stroke="#191970" d="M414.9107,-168.3733C438.1142,-159.2226 473.2038,-145.3844 499.0142,-135.2057"/>
<polygon fill="#191970" stroke="#191970" points="500.3892,-138.4258 508.4079,-131.5011 497.8211,-131.9139 500.3892,-138.4258"/>
</g>
<!-- Node14&#45;&gt;Node8 -->
<g id="edge25" class="edge">
<title>Node14&#45;&gt;Node8</title>
<path fill="none" stroke="#191970" d="M1081.2748,-168.4862C1089.0541,-141.8144 1111.1924,-65.9117 1121.7556,-29.695"/>
<polygon fill="#191970" stroke="#191970" points="1125.1935,-30.4079 1124.6335,-19.8279 1118.4735,-28.4479 1125.1935,-30.4079"/>
</g>
<!-- Node15&#45;&gt;Node8 -->
<g id="edge27" class="edge">
<title>Node15&#45;&gt;Node8</title>
<path fill="none" stroke="#191970" d="M784.3831,-224.3316C786.1294,-210.3495 791.1941,-184.3707 805.5,-168 826.4734,-143.9994 1019.8643,-57.3252 1096.4657,-23.5792"/>
<polygon fill="#191970" stroke="#191970" points="1097.8859,-26.7783 1105.6309,-19.5488 1095.068,-20.3705 1097.8859,-26.7783"/>
</g>
<!-- Node15&#45;&gt;Node9 -->
<g id="edge28" class="edge">
<title>Node15&#45;&gt;Node9</title>
<path fill="none" stroke="#191970" d="M770.6094,-224.375C723.7786,-189.4081 562.3687,-68.8886 504.4196,-25.6199"/>
<polygon fill="#191970" stroke="#191970" points="506.4494,-22.7676 496.3426,-19.5891 502.2614,-28.3766 506.4494,-22.7676"/>
</g>
<!-- Node15&#45;&gt;Node13 -->
<g id="edge32" class="edge">
<title>Node15&#45;&gt;Node13</title>
<path fill="none" stroke="#191970" d="M716.3874,-224.4369C647.2916,-214.5912 539.773,-199.2705 467.319,-188.9462"/>
<polygon fill="#191970" stroke="#191970" points="467.7295,-185.4694 457.3358,-187.5237 466.742,-192.3994 467.7295,-185.4694"/>
</g>
<!-- Node15&#45;&gt;Node14 -->
<g id="edge31" class="edge">
<title>Node15&#45;&gt;Node14</title>
<path fill="none" stroke="#191970" d="M833.8771,-224.4369C885.0005,-214.7321 964.1455,-199.708 1018.4853,-189.3926"/>
<polygon fill="#191970" stroke="#191970" points="1019.1589,-192.8273 1028.3307,-187.5237 1017.8533,-185.9502 1019.1589,-192.8273"/>
</g>
<!-- Node15&#45;&gt;Node16 -->
<g id="edge29" class="edge">
<title>Node15&#45;&gt;Node16</title>
<path fill="none" stroke="#191970" d="M802.9254,-224.3733C820.9021,-215.4644 847.8441,-202.1127 868.209,-192.0203"/>
<polygon fill="#191970" stroke="#191970" points="869.9222,-195.0776 877.3281,-187.5011 866.8139,-188.8055 869.9222,-195.0776"/>
</g>
<!-- Node16&#45;&gt;Node8 -->
<g id="edge30" class="edge">
<title>Node16&#45;&gt;Node8</title>
<path fill="none" stroke="#191970" d="M909.5814,-168.4862C947.6885,-140.772 1058.8826,-59.9036 1106.0007,-25.6358"/>
<polygon fill="#191970" stroke="#191970" points="1108.247,-28.33 1114.2757,-19.6177 1104.1297,-22.6688 1108.247,-28.33"/>
</g>
<!-- Node17&#45;&gt;Node7 -->
<g id="edge40" class="edge">
<title>Node17&#45;&gt;Node7</title>
<path fill="none" stroke="#191970" d="M485.9401,-280.4975C486.6029,-259.5321 486.5295,-207.9989 472.5,-168 466.2158,-150.0834 457.1967,-149.3567 449.5,-132 442.88,-117.0713 438.1786,-99.1392 435.2445,-85.7367"/>
<polygon fill="#191970" stroke="#191970" points="438.6264,-84.8045 433.1923,-75.7094 431.7685,-86.2081 438.6264,-84.8045"/>
</g>
<!-- Node17&#45;&gt;Node8 -->
<g id="edge35" class="edge">
<title>Node17&#45;&gt;Node8</title>
<path fill="none" stroke="#191970" d="M503.3933,-280.3054C566.7155,-246.256 786.6363,-130.1945 977.5,-56 1017.4166,-40.4832 1064.8824,-26.675 1095.5679,-18.3296"/>
<polygon fill="#191970" stroke="#191970" points="1096.5475,-21.6906 1105.2958,-15.7142 1094.73,-14.9306 1096.5475,-21.6906"/>
</g>
<!-- Node17&#45;&gt;Node9 -->
<g id="edge38" class="edge">
<title>Node17&#45;&gt;Node9</title>
<path fill="none" stroke="#191970" d="M445.9638,-280.395C402.8975,-267.5286 336.4241,-240.032 308.5,-188 280.707,-136.2123 264.3594,-102.3495 300.5,-56 318.6656,-32.7031 402.0689,-19.4003 449.7695,-13.573"/>
<polygon fill="#191970" stroke="#191970" points="450.4129,-17.0215 459.936,-12.378 449.5957,-10.0694 450.4129,-17.0215"/>
</g>
<!-- Node17&#45;&gt;Node10 -->
<g id="edge37" class="edge">
<title>Node17&#45;&gt;Node10</title>
<path fill="none" stroke="#191970" d="M495.9359,-280.3692C520.3959,-257.2185 581.8217,-195.6316 614.5,-132 631.798,-98.3172 640.7704,-54.6072 644.7814,-29.6946"/>
<polygon fill="#191970" stroke="#191970" points="648.2621,-30.0837 646.2872,-19.6746 641.3399,-29.0434 648.2621,-30.0837"/>
</g>
<!-- Node17&#45;&gt;Node11 -->
<g id="edge39" class="edge">
<title>Node17&#45;&gt;Node11</title>
<path fill="none" stroke="#191970" d="M407.4411,-280.4656C305.9467,-265.8471 141.5,-233.585 141.5,-178 141.5,-178 141.5,-178 141.5,-122 141.5,-76.029 189.2604,-42.1769 222.124,-24.325"/>
<polygon fill="#191970" stroke="#191970" points="224.1111,-27.2362 231.3605,-19.5099 220.8751,-21.0291 224.1111,-27.2362"/>
</g>
<!-- Node17&#45;&gt;Node12 -->
<g id="edge41" class="edge">
<title>Node17&#45;&gt;Node12</title>
<path fill="none" stroke="#191970" d="M490.3506,-280.3412C494.7955,-271.176 501.3045,-256.9209 505.5,-244 516.9514,-208.7327 525.1478,-166.1715 529.3306,-141.7792"/>
<polygon fill="#191970" stroke="#191970" points="532.8257,-142.097 531.0129,-131.6584 525.9205,-140.9491 532.8257,-142.097"/>
</g>
<!-- Node17&#45;&gt;Node13 -->
<g id="edge42" class="edge">
<title>Node17&#45;&gt;Node13</title>
<path fill="none" stroke="#191970" d="M478.5414,-280.3522C468.9948,-267.2695 451.1229,-243.3187 434.5,-224 425.8909,-213.9947 415.7374,-203.3125 407.3546,-194.7629"/>
<polygon fill="#191970" stroke="#191970" points="409.7737,-192.2316 400.249,-187.5914 404.8011,-197.1585 409.7737,-192.2316"/>
</g>
<!-- Node17&#45;&gt;Node15 -->
<g id="edge43" class="edge">
<title>Node17&#45;&gt;Node15</title>
<path fill="none" stroke="#191970" d="M536.3894,-280.4369C588.0327,-270.7321 667.9826,-255.708 722.8749,-245.3926"/>
<polygon fill="#191970" stroke="#191970" points="723.6389,-248.8104 732.8205,-243.5237 722.3461,-241.9308 723.6389,-248.8104"/>
</g>
<!-- Node18 -->
<g id="node19" class="node">
<title>Node18</title>
<polygon fill="#ffffff" stroke="#bfbfbf" points="387.5,-224.5 387.5,-243.5 425.5,-243.5 425.5,-224.5 387.5,-224.5"/>
<text text-anchor="middle" x="406.5" y="-231.5" font-family="Helvetica,sans-Serif" font-size="10.00" fill="#000000">map</text>
</g>
<!-- Node17&#45;&gt;Node18 -->
<g id="edge36" class="edge">
<title>Node17&#45;&gt;Node18</title>
<path fill="none" stroke="#191970" d="M471.7393,-280.2455C459.8448,-271.814 442.435,-259.4729 428.5915,-249.6598"/>
<polygon fill="#191970" stroke="#191970" points="430.2854,-246.5704 420.1031,-243.6427 426.2372,-252.2811 430.2854,-246.5704"/>
</g>
<!-- Node19&#45;&gt;Node8 -->
<g id="edge47" class="edge">
<title>Node19&#45;&gt;Node8</title>
<path fill="none" stroke="#191970" d="M1125.3384,-280.3584C1139.0844,-271.9428 1158.462,-258.7856 1172.5,-244 1213.2449,-201.0852 1227.8242,-188.778 1244.5,-132 1259.0232,-82.5512 1198.56,-43.5331 1159.1577,-23.9055"/>
<polygon fill="#191970" stroke="#191970" points="1160.1818,-20.5145 1149.6524,-19.3386 1157.1503,-26.8241 1160.1818,-20.5145"/>
</g>
<!-- Node19&#45;&gt;Node10 -->
<g id="edge46" class="edge">
<title>Node19&#45;&gt;Node10</title>
<path fill="none" stroke="#191970" d="M1120.3109,-280.2436C1144.8716,-258.7718 1196.9675,-206.2915 1169.5,-168 1140.6087,-127.7236 809.7351,-47.6255 690.2261,-19.7976"/>
<polygon fill="#191970" stroke="#191970" points="690.8604,-16.3518 680.3279,-17.4999 689.2775,-23.1705 690.8604,-16.3518"/>
</g>
<!-- Node20 -->
<g id="node21" class="node">
<title>Node20</title>
<polygon fill="#ffffff" stroke="#bfbfbf" points="1224.5,-224.5 1224.5,-243.5 1284.5,-243.5 1284.5,-224.5 1224.5,-224.5"/>
<text text-anchor="middle" x="1254.5" y="-231.5" font-family="Helvetica,sans-Serif" font-size="10.00" fill="#000000">iostream</text>
</g>
<!-- Node19&#45;&gt;Node20 -->
<g id="edge45" class="edge">
<title>Node19&#45;&gt;Node20</title>
<path fill="none" stroke="#191970" d="M1133.5983,-280.3733C1157.4555,-271.2226 1193.5335,-257.3844 1220.071,-247.2057"/>
<polygon fill="#191970" stroke="#191970" points="1221.6459,-250.3503 1229.7292,-243.5011 1219.139,-243.8145 1221.6459,-250.3503"/>
</g>
<!-- Node19&#45;&gt;Node21 -->
<g id="edge48" class="edge">
<title>Node19&#45;&gt;Node21</title>
<path fill="none" stroke="#191970" d="M1149.4848,-280.4369C1190.4726,-270.8731 1253.6004,-256.1432 1297.7357,-245.845"/>
<polygon fill="#191970" stroke="#191970" points="1298.7412,-249.2045 1307.6843,-243.5237 1297.1505,-242.3876 1298.7412,-249.2045"/>
</g>
<!-- Node22&#45;&gt;Node8 -->
<g id="edge51" class="edge">
<title>Node22&#45;&gt;Node8</title>
<path fill="none" stroke="#191970" d="M830.327,-56.878C905.7617,-44.9784 1035.1738,-24.5641 1095.1879,-15.0971"/>
<polygon fill="#191970" stroke="#191970" points="1095.8883,-18.53 1105.2207,-13.5145 1094.7975,-11.6155 1095.8883,-18.53"/>
</g>
<!-- Node22&#45;&gt;Node9 -->
<g id="edge50" class="edge">
<title>Node22&#45;&gt;Node9</title>
<path fill="none" stroke="#191970" d="M723.1475,-56.4369C664.449,-45.0628 568.0426,-26.382 517.2438,-16.5386"/>
<polygon fill="#191970" stroke="#191970" points="517.6094,-13.0444 507.1261,-14.5781 516.2777,-19.9166 517.6094,-13.0444"/>
</g>
<!-- Node25&#45;&gt;Node5 -->
<g id="edge57" class="edge">
<title>Node25&#45;&gt;Node5</title>
<path fill="none" stroke="#191970" d="M1784.2503,-112.4546C1806.1663,-105.694 1831.1391,-94.4344 1847.5,-76 1858.7415,-63.3337 1863.3577,-44.4065 1865.2399,-30.0644"/>
<polygon fill="#191970" stroke="#191970" points="1868.7582,-30.0432 1866.2375,-19.7526 1861.7907,-29.3691 1868.7582,-30.0432"/>
</g>
<!-- Node25&#45;&gt;Node8 -->
<g id="edge55" class="edge">
<title>Node25&#45;&gt;Node8</title>
<path fill="none" stroke="#191970" d="M1715.0063,-112.3719C1692.86,-103.2283 1658.7917,-88.9878 1629.5,-76 1610.2319,-67.4566 1606.8269,-61.5736 1586.5,-56 1505.6943,-33.8434 1250.3358,-17.1751 1159.7539,-11.8256"/>
<polygon fill="#191970" stroke="#191970" points="1159.734,-8.3185 1149.547,-11.2297 1159.326,-15.3066 1159.734,-8.3185"/>
</g>
<!-- Node25&#45;&gt;Node10 -->
<g id="edge56" class="edge">
<title>Node25&#45;&gt;Node10</title>
<path fill="none" stroke="#191970" d="M1663.0807,-114.2576C1451.1681,-92.5031 855.1154,-31.3134 690.2366,-14.3873"/>
<polygon fill="#191970" stroke="#191970" points="690.3137,-10.8769 680.0085,-13.3373 689.5988,-17.8403 690.3137,-10.8769"/>
</g>
<!-- Node26 -->
<g id="node27" class="node">
<title>Node26</title>
<g id="a_node27"><a xlink:href="ROSComponentDescriptor_8hpp.html" target="_top" xlink:title="archlib/ROSComponentDescriptor.hpp">
<polygon fill="#ffffff" stroke="#000000" points="1638.5,-56.5 1638.5,-75.5 1838.5,-75.5 1838.5,-56.5 1638.5,-56.5"/>
<text text-anchor="middle" x="1738.5" y="-63.5" font-family="Helvetica,sans-Serif" font-size="10.00" fill="#000000">archlib/ROSComponentDescriptor.hpp</text>
</a>
</g>
</g>
<!-- Node25&#45;&gt;Node26 -->
<g id="edge58" class="edge">
<title>Node25&#45;&gt;Node26</title>
<path fill="none" stroke="#191970" d="M1738.5,-112.2455C1738.5,-104.9382 1738.5,-94.6944 1738.5,-85.7046"/>
<polygon fill="#191970" stroke="#191970" points="1742.0001,-85.6426 1738.5,-75.6427 1735.0001,-85.6427 1742.0001,-85.6426"/>
</g>
<!-- Node26&#45;&gt;Node5 -->
<g id="edge60" class="edge">
<title>Node26&#45;&gt;Node5</title>
<path fill="none" stroke="#191970" d="M1760.504,-56.3733C1781.1435,-47.3435 1812.2158,-33.7494 1835.3889,-23.6111"/>
<polygon fill="#191970" stroke="#191970" points="1837.0245,-26.7159 1844.7831,-19.5011 1834.2187,-20.3028 1837.0245,-26.7159"/>
</g>
<!-- Node26&#45;&gt;Node8 -->
<g id="edge59" class="edge">
<title>Node26&#45;&gt;Node8</title>
<path fill="none" stroke="#191970" d="M1638.29,-56.8154C1497.4229,-43.9046 1248.1716,-21.0599 1159.7295,-12.9539"/>
<polygon fill="#191970" stroke="#191970" points="1160.0369,-9.4675 1149.7592,-12.0401 1159.3979,-16.4383 1160.0369,-9.4675"/>
</g>
<!-- Node27&#45;&gt;Node8 -->
<g id="edge62" class="edge">
<title>Node27&#45;&gt;Node8</title>
<path fill="none" stroke="#191970" d="M1175.9812,-112.4509C1167.2197,-93.936 1147.7815,-52.8591 1136.3579,-28.7187"/>
<polygon fill="#191970" stroke="#191970" points="1139.4484,-27.0668 1132.0073,-19.5249 1133.1211,-30.061 1139.4484,-27.0668"/>
</g>
<!-- Node28&#45;&gt;Node8 -->
<g id="edge64" class="edge">
<title>Node28&#45;&gt;Node8</title>
<path fill="none" stroke="#191970" d="M1385.3614,-168.4787C1370.1184,-145.5973 1328.1642,-87.1155 1278.5,-56 1241.4652,-32.797 1191.9751,-20.6517 1159.9191,-14.7915"/>
<polygon fill="#191970" stroke="#191970" points="1160.209,-11.2899 1149.7594,-13.0382 1159.0185,-18.1879 1160.209,-11.2899"/>
</g>
<!-- Node29&#45;&gt;Node8 -->
<g id="edge66" class="edge">
<title>Node29&#45;&gt;Node8</title>
<path fill="none" stroke="#191970" d="M1415.905,-112.2885C1395.3308,-98.0126 1354.6318,-71.3935 1316.5,-56 1263.5459,-34.6229 1198.0833,-21.416 1159.7428,-14.9131"/>
<polygon fill="#191970" stroke="#191970" points="1160.1169,-11.4276 1149.681,-13.2555 1158.979,-18.3345 1160.1169,-11.4276"/>
</g>
<!-- Node30&#45;&gt;Node8 -->
<g id="edge68" class="edge">
<title>Node30&#45;&gt;Node8</title>
<path fill="none" stroke="#191970" d="M1416.0721,-56.4369C1342.0574,-44.5265 1218.2537,-24.604 1159.8568,-15.2068"/>
<polygon fill="#191970" stroke="#191970" points="1160.1698,-11.7123 1149.7407,-13.579 1159.0576,-18.6233 1160.1698,-11.7123"/>
</g>
<!-- Node31&#45;&gt;Node8 -->
<g id="edge70" class="edge">
<title>Node31&#45;&gt;Node8</title>
<path fill="none" stroke="#191970" d="M1648.427,-224.1471C1641.3505,-193.22 1615.0339,-97.6591 1552.5,-56 1519.9758,-34.3329 1253.2596,-17.1797 1159.7475,-11.7806"/>
<polygon fill="#191970" stroke="#191970" points="1159.914,-8.2845 1149.7308,-11.2091 1159.5152,-15.2731 1159.914,-8.2845"/>
</g>
</g>
</svg>
