<?xml version="1.0" encoding="UTF-8" standalone="no"?>
<!DOCTYPE svg PUBLIC "-//W3C//DTD SVG 1.1//EN"
 "http://www.w3.org/Graphics/SVG/1.1/DTD/svg11.dtd">
<!-- Generated by graphviz version 2.40.1 (20161225.0304)
 -->
<!-- Title: src/libbsn/test/unit/generator/DataGeneratorTest.cpp Pages: 1 -->
<svg width="674pt" height="263pt"
 viewBox="0.00 0.00 673.50 263.00" xmlns="http://www.w3.org/2000/svg" xmlns:xlink="http://www.w3.org/1999/xlink">
<g id="graph0" class="graph" transform="scale(1 1) rotate(0) translate(4 259)">
<title>src/libbsn/test/unit/generator/DataGeneratorTest.cpp</title>
<polygon fill="#ffffff" stroke="transparent" points="-4,4 -4,-259 669.5,-259 669.5,4 -4,4"/>
<!-- Node0 -->
<g id="node1" class="node">
<title>Node0</title>
<polygon fill="#bfbfbf" stroke="#000000" points="201,-224.5 201,-254.5 383,-254.5 383,-224.5 201,-224.5"/>
<text text-anchor="start" x="209" y="-242.5" font-family="Helvetica,sans-Serif" font-size="10.00" fill="#000000">src/libbsn/test/unit</text>
<text text-anchor="middle" x="292" y="-231.5" font-family="Helvetica,sans-Serif" font-size="10.00" fill="#000000">/generator/DataGeneratorTest.cpp</text>
</g>
<!-- Node1 -->
<g id="node2" class="node">
<title>Node1</title>
<polygon fill="#ffffff" stroke="#bfbfbf" points="0,-168.5 0,-187.5 78,-187.5 78,-168.5 0,-168.5"/>
<text text-anchor="middle" x="39" y="-175.5" font-family="Helvetica,sans-Serif" font-size="10.00" fill="#000000">gtest/gtest.h</text>
</g>
<!-- Node0&#45;&gt;Node1 -->
<g id="edge1" class="edge">
<title>Node0&#45;&gt;Node1</title>
<path fill="none" stroke="#191970" d="M230.1092,-224.4554C186.4144,-213.8339 128.6611,-199.7951 88.1225,-189.9408"/>
<polygon fill="#191970" stroke="#191970" points="88.7498,-186.4915 78.206,-187.5303 87.0963,-193.2934 88.7498,-186.4915"/>
</g>
<!-- Node2 -->
<g id="node3" class="node">
<title>Node2</title>
<polygon fill="#ffffff" stroke="#bfbfbf" points="172.5,-.5 172.5,-19.5 225.5,-19.5 225.5,-.5 172.5,-.5"/>
<text text-anchor="middle" x="199" y="-7.5" font-family="Helvetica,sans-Serif" font-size="10.00" fill="#000000">stdint.h</text>
</g>
<!-- Node0&#45;&gt;Node2 -->
<g id="edge2" class="edge">
<title>Node0&#45;&gt;Node2</title>
<path fill="none" stroke="#191970" d="M212.5825,-224.3985C175.0656,-215.4881 136.0808,-203.0129 125,-188 86.3617,-135.6507 149.0878,-60.154 181.5041,-26.8592"/>
<polygon fill="#191970" stroke="#191970" points="184.0627,-29.2501 188.6481,-19.699 179.1074,-24.306 184.0627,-29.2501"/>
</g>
<!-- Node3 -->
<g id="node4" class="node">
<title>Node3</title>
<polygon fill="#ffffff" stroke="#bfbfbf" points="600.5,-.5 600.5,-19.5 665.5,-19.5 665.5,-.5 600.5,-.5"/>
<text text-anchor="middle" x="633" y="-7.5" font-family="Helvetica,sans-Serif" font-size="10.00" fill="#000000">stdexcept</text>
</g>
<!-- Node0&#45;&gt;Node3 -->
<g id="edge3" class="edge">
<title>Node0&#45;&gt;Node3</title>
<path fill="none" stroke="#191970" d="M367.4869,-224.4239C445.4718,-204.605 564.1231,-161.7246 625,-76 634.4919,-62.6339 635.9139,-43.7834 635.2988,-29.6483"/>
<polygon fill="#191970" stroke="#191970" points="638.7746,-29.2053 634.484,-19.5181 631.7971,-29.7666 638.7746,-29.2053"/>
</g>
<!-- Node4 -->
<g id="node5" class="node">
<title>Node4</title>
<g id="a_node5"><a xlink:href="DataGenerator_8hpp.html" target="_top" xlink:title="libbsn/generator/DataGenerator.hpp">
<polygon fill="#ffffff" stroke="#000000" points="134.5,-168.5 134.5,-187.5 325.5,-187.5 325.5,-168.5 134.5,-168.5"/>
<text text-anchor="middle" x="230" y="-175.5" font-family="Helvetica,sans-Serif" font-size="10.00" fill="#000000">libbsn/generator/DataGenerator.hpp</text>
</a>
</g>
</g>
<!-- Node0&#45;&gt;Node4 -->
<g id="edge4" class="edge">
<title>Node0&#45;&gt;Node4</title>
<path fill="none" stroke="#191970" d="M276.6742,-224.2977C267.7093,-215.4052 256.3712,-204.1586 247.1149,-194.9769"/>
<polygon fill="#191970" stroke="#191970" points="249.4915,-192.4045 239.927,-187.8469 244.5618,-197.3742 249.4915,-192.4045"/>
</g>
<!-- Node5 -->
<g id="node6" class="node">
<title>Node5</title>
<g id="a_node6"><a xlink:href="Markov_8hpp.html" target="_top" xlink:title="libbsn/generator/Markov.hpp">
<polygon fill="#ffffff" stroke="#000000" points="276.5,-112.5 276.5,-131.5 431.5,-131.5 431.5,-112.5 276.5,-112.5"/>
<text text-anchor="middle" x="354" y="-119.5" font-family="Helvetica,sans-Serif" font-size="10.00" fill="#000000">libbsn/generator/Markov.hpp</text>
</a>
</g>
</g>
<!-- Node0&#45;&gt;Node5 -->
<g id="edge20" class="edge">
<title>Node0&#45;&gt;Node5</title>
<path fill="none" stroke="#191970" d="M307.8366,-224.0734C316.9229,-214.4462 327.9005,-201.3747 335,-188 342.6869,-173.5187 347.5977,-155.5533 350.4969,-142.0243"/>
<polygon fill="#191970" stroke="#191970" points="353.9968,-142.3622 352.4759,-131.8771 347.1263,-141.0222 353.9968,-142.3622"/>
</g>
<!-- Node11 -->
<g id="node12" class="node">
<title>Node11</title>
<g id="a_node12"><a xlink:href="Range_8hpp.html" target="_top" xlink:title="libbsn/range/Range.hpp">
<polygon fill="#ffffff" stroke="#000000" points="484.5,-56.5 484.5,-75.5 615.5,-75.5 615.5,-56.5 484.5,-56.5"/>
<text text-anchor="middle" x="550" y="-63.5" font-family="Helvetica,sans-Serif" font-size="10.00" fill="#000000">libbsn/range/Range.hpp</text>
</a>
</g>
</g>
<!-- Node0&#45;&gt;Node11 -->
<g id="edge21" class="edge">
<title>Node0&#45;&gt;Node11</title>
<path fill="none" stroke="#191970" d="M314.4445,-224.4065C363.2645,-191.576 478.635,-113.9916 527.5028,-81.1289"/>
<polygon fill="#191970" stroke="#191970" points="529.4776,-84.0188 535.8226,-75.534 525.5713,-78.2101 529.4776,-84.0188"/>
</g>
<!-- Node4&#45;&gt;Node2 -->
<g id="edge19" class="edge">
<title>Node4&#45;&gt;Node2</title>
<path fill="none" stroke="#191970" d="M220.7452,-168.3106C205.1964,-151.2826 174.4125,-114.1615 163,-76 160.4532,-67.4838 160.1026,-64.4034 163,-56 166.7187,-45.2144 174.1213,-35.0249 181.2519,-26.9904"/>
<polygon fill="#191970" stroke="#191970" points="183.7967,-29.3934 188.1452,-19.7321 178.7209,-24.5729 183.7967,-29.3934"/>
</g>
<!-- Node4&#45;&gt;Node5 -->
<g id="edge5" class="edge">
<title>Node4&#45;&gt;Node5</title>
<path fill="none" stroke="#191970" d="M251.3164,-168.3733C271.2216,-159.3838 301.1436,-145.8706 323.56,-135.7471"/>
<polygon fill="#191970" stroke="#191970" points="325.2887,-138.8068 332.9618,-131.5011 322.4075,-132.4272 325.2887,-138.8068"/>
</g>
<!-- Node8 -->
<g id="node9" class="node">
<title>Node8</title>
<polygon fill="#ffffff" stroke="#bfbfbf" points="172,-56.5 172,-75.5 226,-75.5 226,-56.5 172,-56.5"/>
<text text-anchor="middle" x="199" y="-63.5" font-family="Helvetica,sans-Serif" font-size="10.00" fill="#000000">random</text>
</g>
<!-- Node4&#45;&gt;Node8 -->
<g id="edge18" class="edge">
<title>Node4&#45;&gt;Node8</title>
<path fill="none" stroke="#191970" d="M227.357,-168.4509C222.278,-150.1013 211.0653,-109.5908 204.3612,-85.3693"/>
<polygon fill="#191970" stroke="#191970" points="207.6772,-84.2289 201.6364,-75.5249 200.9308,-86.0962 207.6772,-84.2289"/>
</g>
<!-- Node5&#45;&gt;Node2 -->
<g id="edge10" class="edge">
<title>Node5&#45;&gt;Node2</title>
<path fill="none" stroke="#191970" d="M334.919,-112.4157C318.2866,-103.7413 293.795,-90.1841 274,-76 252.8254,-60.8274 230.6822,-40.7414 215.9948,-26.7293"/>
<polygon fill="#191970" stroke="#191970" points="218.2796,-24.0701 208.6556,-19.6394 213.416,-29.1046 218.2796,-24.0701"/>
</g>
<!-- Node6 -->
<g id="node7" class="node">
<title>Node6</title>
<polygon fill="#ffffff" stroke="#bfbfbf" points="340,-.5 340,-19.5 400,-19.5 400,-.5 340,-.5"/>
<text text-anchor="middle" x="370" y="-7.5" font-family="Helvetica,sans-Serif" font-size="10.00" fill="#000000">iostream</text>
</g>
<!-- Node5&#45;&gt;Node6 -->
<g id="edge6" class="edge">
<title>Node5&#45;&gt;Node6</title>
<path fill="none" stroke="#191970" d="M355.3642,-112.4509C357.9737,-94.184 363.7207,-53.9553 367.1861,-29.6976"/>
<polygon fill="#191970" stroke="#191970" points="370.6898,-29.9194 368.6393,-19.5249 363.7602,-28.9294 370.6898,-29.9194"/>
</g>
<!-- Node7 -->
<g id="node8" class="node">
<title>Node7</title>
<polygon fill="#ffffff" stroke="#bfbfbf" points="424,-56.5 424,-75.5 466,-75.5 466,-56.5 424,-56.5"/>
<text text-anchor="middle" x="445" y="-63.5" font-family="Helvetica,sans-Serif" font-size="10.00" fill="#000000">array</text>
</g>
<!-- Node5&#45;&gt;Node7 -->
<g id="edge7" class="edge">
<title>Node5&#45;&gt;Node7</title>
<path fill="none" stroke="#191970" d="M369.851,-112.2455C383.8132,-103.6534 404.3728,-91.0014 420.4596,-81.1018"/>
<polygon fill="#191970" stroke="#191970" points="422.6484,-83.8645 429.3307,-75.6427 418.9797,-77.9029 422.6484,-83.8645"/>
</g>
<!-- Node5&#45;&gt;Node8 -->
<g id="edge8" class="edge">
<title>Node5&#45;&gt;Node8</title>
<path fill="none" stroke="#191970" d="M327.3546,-112.3733C301.8036,-103.1419 263.0488,-89.1402 234.8091,-78.9375"/>
<polygon fill="#191970" stroke="#191970" points="235.8921,-75.6074 225.2978,-75.5011 233.5135,-82.1909 235.8921,-75.6074"/>
</g>
<!-- Node9 -->
<g id="node10" class="node">
<title>Node9</title>
<polygon fill="#ffffff" stroke="#bfbfbf" points="282.5,-56.5 282.5,-75.5 329.5,-75.5 329.5,-56.5 282.5,-56.5"/>
<text text-anchor="middle" x="306" y="-63.5" font-family="Helvetica,sans-Serif" font-size="10.00" fill="#000000">vector</text>
</g>
<!-- Node5&#45;&gt;Node9 -->
<g id="edge9" class="edge">
<title>Node5&#45;&gt;Node9</title>
<path fill="none" stroke="#191970" d="M345.639,-112.2455C338.825,-104.2958 329.0319,-92.8706 320.8848,-83.3656"/>
<polygon fill="#191970" stroke="#191970" points="323.4305,-80.9575 314.2651,-75.6427 318.1157,-85.513 323.4305,-80.9575"/>
</g>
<!-- Node10 -->
<g id="node11" class="node">
<title>Node10</title>
<polygon fill="#ffffff" stroke="#bfbfbf" points="430,-.5 430,-19.5 486,-19.5 486,-.5 430,-.5"/>
<text text-anchor="middle" x="458" y="-7.5" font-family="Helvetica,sans-Serif" font-size="10.00" fill="#000000">sstream</text>
</g>
<!-- Node5&#45;&gt;Node10 -->
<g id="edge11" class="edge">
<title>Node5&#45;&gt;Node10</title>
<path fill="none" stroke="#191970" d="M363.0772,-112.1439C374.9786,-99.2294 396.5166,-75.8853 415,-56 424.0033,-46.3138 434.0993,-35.5105 442.2449,-26.8086"/>
<polygon fill="#191970" stroke="#191970" points="444.8086,-29.1914 449.0901,-19.5001 439.6996,-24.4062 444.8086,-29.1914"/>
</g>
<!-- Node5&#45;&gt;Node11 -->
<g id="edge12" class="edge">
<title>Node5&#45;&gt;Node11</title>
<path fill="none" stroke="#191970" d="M387.6936,-112.3733C420.7087,-102.9404 471.1573,-88.5265 507.0386,-78.2747"/>
<polygon fill="#191970" stroke="#191970" points="508.0924,-81.6137 516.7461,-75.5011 506.1693,-74.8831 508.0924,-81.6137"/>
</g>
<!-- Node11&#45;&gt;Node2 -->
<g id="edge16" class="edge">
<title>Node11&#45;&gt;Node2</title>
<path fill="none" stroke="#191970" d="M490.0598,-56.4369C417.0993,-44.7965 296.1714,-25.5031 235.7415,-15.8619"/>
<polygon fill="#191970" stroke="#191970" points="235.9609,-12.3527 225.5344,-14.2334 234.858,-19.2653 235.9609,-12.3527"/>
</g>
<!-- Node11&#45;&gt;Node3 -->
<g id="edge14" class="edge">
<title>Node11&#45;&gt;Node3</title>
<path fill="none" stroke="#191970" d="M564.4575,-56.2455C577.0732,-47.7337 595.5944,-35.2375 610.2045,-25.3801"/>
<polygon fill="#191970" stroke="#191970" points="612.3761,-28.1371 618.7082,-19.6427 608.4609,-22.3343 612.3761,-28.1371"/>
</g>
<!-- Node11&#45;&gt;Node6 -->
<g id="edge15" class="edge">
<title>Node11&#45;&gt;Node6</title>
<path fill="none" stroke="#191970" d="M519.0569,-56.3733C488.905,-46.9927 442.9197,-32.6861 410.0035,-22.4455"/>
<polygon fill="#191970" stroke="#191970" points="410.8281,-19.0366 400.2397,-19.4079 408.7485,-25.7206 410.8281,-19.0366"/>
</g>
<!-- Node11&#45;&gt;Node10 -->
<g id="edge17" class="edge">
<title>Node11&#45;&gt;Node10</title>
<path fill="none" stroke="#191970" d="M533.9748,-56.2455C519.8592,-47.6534 499.0737,-35.0014 482.8101,-25.1018"/>
<polygon fill="#191970" stroke="#191970" points="484.2034,-21.8525 473.8415,-19.6427 480.5637,-27.8319 484.2034,-21.8525"/>
</g>
<!-- Node12 -->
<g id="node13" class="node">
<title>Node12</title>
<polygon fill="#ffffff" stroke="#bfbfbf" points="528,-.5 528,-19.5 572,-19.5 572,-.5 528,-.5"/>
<text text-anchor="middle" x="550" y="-7.5" font-family="Helvetica,sans-Serif" font-size="10.00" fill="#000000">string</text>
</g>
<!-- Node11&#45;&gt;Node12 -->
<g id="edge13" class="edge">
<title>Node11&#45;&gt;Node12</title>
<path fill="none" stroke="#191970" d="M550,-56.2455C550,-48.9382 550,-38.6944 550,-29.7046"/>
<polygon fill="#191970" stroke="#191970" points="553.5001,-29.6426 550,-19.6427 546.5001,-29.6427 553.5001,-29.6426"/>
</g>
</g>
</svg>
