<?xml version="1.0" encoding="UTF-8" standalone="no"?>
<!DOCTYPE svg PUBLIC "-//W3C//DTD SVG 1.1//EN"
 "http://www.w3.org/Graphics/SVG/1.1/DTD/svg11.dtd">
<!-- Generated by graphviz version 2.40.1 (20161225.0304)
 -->
<!-- Title: src/libbsn/include/libbsn/generator/DataGenerator.hpp Pages: 1 -->
<svg width="504pt" height="207pt"
 viewBox="0.00 0.00 503.50 207.00" xmlns="http://www.w3.org/2000/svg" xmlns:xlink="http://www.w3.org/1999/xlink">
<g id="graph0" class="graph" transform="scale(1 1) rotate(0) translate(4 203)">
<title>src/libbsn/include/libbsn/generator/DataGenerator.hpp</title>
<polygon fill="#ffffff" stroke="transparent" points="-4,4 -4,-203 499.5,-203 499.5,4 -4,4"/>
<!-- Node0 -->
<g id="node1" class="node">
<title>Node0</title>
<polygon fill="#bfbfbf" stroke="#000000" points="190.5,-168.5 190.5,-198.5 384.5,-198.5 384.5,-168.5 190.5,-168.5"/>
<text text-anchor="start" x="198.5" y="-186.5" font-family="Helvetica,sans-Serif" font-size="10.00" fill="#000000">src/libbsn/include</text>
<text text-anchor="middle" x="287.5" y="-175.5" font-family="Helvetica,sans-Serif" font-size="10.00" fill="#000000">/libbsn/generator/DataGenerator.hpp</text>
</g>
<!-- Node1 -->
<g id="node2" class="node">
<title>Node1</title>
<g id="a_node2"><a xlink:href="Markov_8hpp.html" target="_top" xlink:title="libbsn/generator/Markov.hpp">
<polygon fill="#ffffff" stroke="#000000" points="210,-112.5 210,-131.5 365,-131.5 365,-112.5 210,-112.5"/>
<text text-anchor="middle" x="287.5" y="-119.5" font-family="Helvetica,sans-Serif" font-size="10.00" fill="#000000">libbsn/generator/Markov.hpp</text>
</a>
</g>
</g>
<!-- Node0&#45;&gt;Node1 -->
<g id="edge1" class="edge">
<title>Node0&#45;&gt;Node1</title>
<path fill="none" stroke="#191970" d="M287.5,-168.2977C287.5,-160.3834 287.5,-150.6043 287.5,-142.0759"/>
<polygon fill="#191970" stroke="#191970" points="291.0001,-141.8469 287.5,-131.8469 284.0001,-141.847 291.0001,-141.8469"/>
</g>
<!-- Node4 -->
<g id="node5" class="node">
<title>Node4</title>
<polygon fill="#ffffff" stroke="#bfbfbf" points="441.5,-56.5 441.5,-75.5 495.5,-75.5 495.5,-56.5 441.5,-56.5"/>
<text text-anchor="middle" x="468.5" y="-63.5" font-family="Helvetica,sans-Serif" font-size="10.00" fill="#000000">random</text>
</g>
<!-- Node0&#45;&gt;Node4 -->
<g id="edge14" class="edge">
<title>Node0&#45;&gt;Node4</title>
<path fill="none" stroke="#191970" d="M314.0935,-168.4744C331.4881,-158.4717 354.5934,-144.8529 374.5,-132 400.0972,-115.4729 428.6264,-95.1618 447.4681,-81.4718"/>
<polygon fill="#191970" stroke="#191970" points="449.6267,-84.2294 455.641,-75.507 445.5001,-78.5751 449.6267,-84.2294"/>
</g>
<!-- Node6 -->
<g id="node7" class="node">
<title>Node6</title>
<polygon fill="#ffffff" stroke="#bfbfbf" points="0,-.5 0,-19.5 53,-19.5 53,-.5 0,-.5"/>
<text text-anchor="middle" x="26.5" y="-7.5" font-family="Helvetica,sans-Serif" font-size="10.00" fill="#000000">stdint.h</text>
</g>
<!-- Node0&#45;&gt;Node6 -->
<g id="edge15" class="edge">
<title>Node0&#45;&gt;Node6</title>
<path fill="none" stroke="#191970" d="M251.0312,-168.3241C196.8296,-145.3078 98.303,-101.5563 69.5,-76 54.5394,-62.7257 42.6385,-43.0779 35.184,-28.6711"/>
<polygon fill="#191970" stroke="#191970" points="38.3114,-27.0992 30.7507,-19.6772 32.0327,-30.1942 38.3114,-27.0992"/>
</g>
<!-- Node2 -->
<g id="node3" class="node">
<title>Node2</title>
<polygon fill="#ffffff" stroke="#bfbfbf" points="291.5,-.5 291.5,-19.5 351.5,-19.5 351.5,-.5 291.5,-.5"/>
<text text-anchor="middle" x="321.5" y="-7.5" font-family="Helvetica,sans-Serif" font-size="10.00" fill="#000000">iostream</text>
</g>
<!-- Node1&#45;&gt;Node2 -->
<g id="edge2" class="edge">
<title>Node1&#45;&gt;Node2</title>
<path fill="none" stroke="#191970" d="M290.2259,-112.1282C293.8231,-99.1967 300.4132,-75.8343 306.5,-56 309.1731,-47.2896 312.2738,-37.7022 314.96,-29.5448"/>
<polygon fill="#191970" stroke="#191970" points="318.3531,-30.4324 318.1815,-19.8389 311.7095,-28.2272 318.3531,-30.4324"/>
</g>
<!-- Node3 -->
<g id="node4" class="node">
<title>Node3</title>
<polygon fill="#ffffff" stroke="#bfbfbf" points="315.5,-56.5 315.5,-75.5 357.5,-75.5 357.5,-56.5 315.5,-56.5"/>
<text text-anchor="middle" x="336.5" y="-63.5" font-family="Helvetica,sans-Serif" font-size="10.00" fill="#000000">array</text>
</g>
<!-- Node1&#45;&gt;Node3 -->
<g id="edge3" class="edge">
<title>Node1&#45;&gt;Node3</title>
<path fill="none" stroke="#191970" d="M296.0351,-112.2455C302.9912,-104.2958 312.9883,-92.8706 321.3051,-83.3656"/>
<polygon fill="#191970" stroke="#191970" points="324.1116,-85.4732 328.0627,-75.6427 318.8436,-80.8637 324.1116,-85.4732"/>
</g>
<!-- Node1&#45;&gt;Node4 -->
<g id="edge4" class="edge">
<title>Node1&#45;&gt;Node4</title>
<path fill="none" stroke="#191970" d="M318.615,-112.3733C349.942,-102.6809 398.2662,-87.7298 431.5295,-77.4384"/>
<polygon fill="#191970" stroke="#191970" points="432.8149,-80.7044 441.3336,-74.4051 430.7459,-74.0172 432.8149,-80.7044"/>
</g>
<!-- Node5 -->
<g id="node6" class="node">
<title>Node5</title>
<polygon fill="#ffffff" stroke="#bfbfbf" points="376,-56.5 376,-75.5 423,-75.5 423,-56.5 376,-56.5"/>
<text text-anchor="middle" x="399.5" y="-63.5" font-family="Helvetica,sans-Serif" font-size="10.00" fill="#000000">vector</text>
</g>
<!-- Node1&#45;&gt;Node5 -->
<g id="edge5" class="edge">
<title>Node1&#45;&gt;Node5</title>
<path fill="none" stroke="#191970" d="M306.7535,-112.3733C324.5712,-103.4644 351.2747,-90.1127 371.4594,-80.0203"/>
<polygon fill="#191970" stroke="#191970" points="373.1187,-83.1038 380.4978,-75.5011 369.9882,-76.8428 373.1187,-83.1038"/>
</g>
<!-- Node1&#45;&gt;Node6 -->
<g id="edge6" class="edge">
<title>Node1&#45;&gt;Node6</title>
<path fill="none" stroke="#191970" d="M217.9332,-112.4543C182.2967,-105.6549 139.0449,-94.3608 103.5,-76 79.4782,-63.5914 56.569,-42.3211 42.0813,-27.2855"/>
<polygon fill="#191970" stroke="#191970" points="44.3369,-24.5738 34.9454,-19.6696 39.2288,-29.36 44.3369,-24.5738"/>
</g>
<!-- Node7 -->
<g id="node8" class="node">
<title>Node7</title>
<polygon fill="#ffffff" stroke="#bfbfbf" points="71.5,-.5 71.5,-19.5 127.5,-19.5 127.5,-.5 71.5,-.5"/>
<text text-anchor="middle" x="99.5" y="-7.5" font-family="Helvetica,sans-Serif" font-size="10.00" fill="#000000">sstream</text>
</g>
<!-- Node1&#45;&gt;Node7 -->
<g id="edge7" class="edge">
<title>Node1&#45;&gt;Node7</title>
<path fill="none" stroke="#191970" d="M229.4637,-112.4501C187.0549,-104.3522 134.3099,-91.5815 118.5,-76 106.1833,-63.8612 101.724,-44.2934 100.1723,-29.61"/>
<polygon fill="#191970" stroke="#191970" points="103.6572,-29.2701 99.4705,-19.5376 96.6741,-29.7567 103.6572,-29.2701"/>
</g>
<!-- Node8 -->
<g id="node9" class="node">
<title>Node8</title>
<g id="a_node9"><a xlink:href="Range_8hpp.html" target="_top" xlink:title="libbsn/range/Range.hpp">
<polygon fill="#ffffff" stroke="#000000" points="128,-56.5 128,-75.5 259,-75.5 259,-56.5 128,-56.5"/>
<text text-anchor="middle" x="193.5" y="-63.5" font-family="Helvetica,sans-Serif" font-size="10.00" fill="#000000">libbsn/range/Range.hpp</text>
</a>
</g>
</g>
<!-- Node1&#45;&gt;Node8 -->
<g id="edge8" class="edge">
<title>Node1&#45;&gt;Node8</title>
<path fill="none" stroke="#191970" d="M271.1264,-112.2455C256.5692,-103.5731 235.069,-90.7645 218.3848,-80.825"/>
<polygon fill="#191970" stroke="#191970" points="220.0683,-77.7539 209.6859,-75.6427 216.4856,-83.7676 220.0683,-77.7539"/>
</g>
<!-- Node8&#45;&gt;Node2 -->
<g id="edge11" class="edge">
<title>Node8&#45;&gt;Node2</title>
<path fill="none" stroke="#191970" d="M215.504,-56.3733C236.1435,-47.3435 267.2158,-33.7494 290.3889,-23.6111"/>
<polygon fill="#191970" stroke="#191970" points="292.0245,-26.7159 299.7831,-19.5011 289.2187,-20.3028 292.0245,-26.7159"/>
</g>
<!-- Node8&#45;&gt;Node6 -->
<g id="edge12" class="edge">
<title>Node8&#45;&gt;Node6</title>
<path fill="none" stroke="#191970" d="M164.7917,-56.3733C136.6396,-46.933 93.6104,-32.5041 63.0336,-22.2508"/>
<polygon fill="#191970" stroke="#191970" points="63.7749,-18.8079 53.181,-18.9469 61.5493,-25.4447 63.7749,-18.8079"/>
</g>
<!-- Node8&#45;&gt;Node7 -->
<g id="edge13" class="edge">
<title>Node8&#45;&gt;Node7</title>
<path fill="none" stroke="#191970" d="M177.1264,-56.2455C162.5692,-47.5731 141.069,-34.7645 124.3848,-24.825"/>
<polygon fill="#191970" stroke="#191970" points="126.0683,-21.7539 115.6859,-19.6427 122.4856,-27.7676 126.0683,-21.7539"/>
</g>
<!-- Node9 -->
<g id="node10" class="node">
<title>Node9</title>
<polygon fill="#ffffff" stroke="#bfbfbf" points="145.5,-.5 145.5,-19.5 189.5,-19.5 189.5,-.5 145.5,-.5"/>
<text text-anchor="middle" x="167.5" y="-7.5" font-family="Helvetica,sans-Serif" font-size="10.00" fill="#000000">string</text>
</g>
<!-- Node8&#45;&gt;Node9 -->
<g id="edge9" class="edge">
<title>Node8&#45;&gt;Node9</title>
<path fill="none" stroke="#191970" d="M188.9711,-56.2455C185.4666,-48.6973 180.5073,-38.0158 176.2377,-28.8197"/>
<polygon fill="#191970" stroke="#191970" points="179.3627,-27.2389 171.977,-19.6427 173.0136,-30.1867 179.3627,-27.2389"/>
</g>
<!-- Node10 -->
<g id="node11" class="node">
<title>Node10</title>
<polygon fill="#ffffff" stroke="#bfbfbf" points="208,-.5 208,-19.5 273,-19.5 273,-.5 208,-.5"/>
<text text-anchor="middle" x="240.5" y="-7.5" font-family="Helvetica,sans-Serif" font-size="10.00" fill="#000000">stdexcept</text>
</g>
<!-- Node8&#45;&gt;Node10 -->
<g id="edge10" class="edge">
<title>Node8&#45;&gt;Node10</title>
<path fill="none" stroke="#191970" d="M201.6868,-56.2455C208.3589,-48.2958 217.9479,-36.8706 225.9253,-27.3656"/>
<polygon fill="#191970" stroke="#191970" points="228.6592,-29.5525 232.407,-19.6427 223.2974,-25.0524 228.6592,-29.5525"/>
</g>
</g>
</svg>
