<?xml version="1.0" encoding="UTF-8" standalone="no"?>
<!DOCTYPE svg PUBLIC "-//W3C//DTD SVG 1.1//EN"
 "http://www.w3.org/Graphics/SVG/1.1/DTD/svg11.dtd">
<!-- Generated by graphviz version 2.40.1 (20161225.0304)
 -->
<!-- Title: src/sa&#45;bsn/system_manager Pages: 1 -->
<svg width="355pt" height="159pt"
 viewBox="0.00 0.00 355.00 159.00" xmlns="http://www.w3.org/2000/svg" xmlns:xlink="http://www.w3.org/1999/xlink">
<g id="graph0" class="graph" transform="scale(1 1) rotate(0) translate(4 155)">
<title>src/sa&#45;bsn/system_manager</title>
<polygon fill="#ffffff" stroke="transparent" points="-4,4 -4,-155 351,-155 351,4 -4,4"/>
<g id="clust1" class="cluster">
<title>clusterdir_67bfdd06b9e1d9840810a9d51e07a67d</title>
<g id="a_clust1"><a xlink:href="dir_67bfdd06b9e1d9840810a9d51e07a67d.html" target="_top" xlink:title="sa&#45;bsn">
<polygon fill="#ddddee" stroke="#000000" points="8,-56 8,-143 339,-143 339,-56 8,-56"/>
<text text-anchor="middle" x="173.5" y="-131" font-family="Helvetica,sans-Serif" font-size="10.00" fill="#000000">sa&#45;bsn</text>
</a>
</g>
</g>
<g id="clust2" class="cluster">
<title>clusterdir_ac4796b96f58b29c127bc656c2ffdf13</title>
<g id="a_clust2"><a xlink:href="dir_ac4796b96f58b29c127bc656c2ffdf13.html" target="_top">
<polygon fill="#eeeeff" stroke="#000000" points="16,-64 16,-116 331,-116 331,-64 16,-64"/>
</a>
</g>
</g>
<!-- dir_ac4796b96f58b29c127bc656c2ffdf13 -->
<g id="node1" class="node">
<title>dir_ac4796b96f58b29c127bc656c2ffdf13</title>
<text text-anchor="middle" x="272" y="-87.5" font-family="Helvetica,sans-Serif" font-size="10.00" fill="#000000">system_manager</text>
</g>
<!-- dir_7aebaafb036e4faaba9604662e59a2d6 -->
<g id="node2" class="node">
<title>dir_7aebaafb036e4faaba9604662e59a2d6</title>
<g id="a_node2"><a xlink:href="dir_7aebaafb036e4faaba9604662e59a2d6.html" target="_top" xlink:title="adaptation_engine">
<polygon fill="#ffffff" stroke="#ff0000" points="203.5,-108 96.5,-108 96.5,-72 203.5,-72 203.5,-108"/>
<text text-anchor="middle" x="150" y="-87.5" font-family="Helvetica,sans-Serif" font-size="10.00" fill="#000000">adaptation_engine</text>
</a>
</g>
</g>
<!-- dir_7820f11c4482f02b738474524ce1ba7b -->
<g id="node4" class="node">
<title>dir_7820f11c4482f02b738474524ce1ba7b</title>
<g id="a_node4"><a xlink:href="dir_7820f11c4482f02b738474524ce1ba7b.html" target="_top" xlink:title="archlib">
<polygon fill="#ffffff" stroke="#ff0000" points="91,-36 37,-36 37,0 91,0 91,-36"/>
<text text-anchor="middle" x="64" y="-15.5" font-family="Helvetica,sans-Serif" font-size="10.00" fill="#000000">archlib</text>
</a>
</g>
</g>
<!-- dir_7aebaafb036e4faaba9604662e59a2d6&#45;&gt;dir_7820f11c4482f02b738474524ce1ba7b -->
<g id="edge1" class="edge">
<title>dir_7aebaafb036e4faaba9604662e59a2d6&#45;&gt;dir_7820f11c4482f02b738474524ce1ba7b</title>
<path fill="none" stroke="#000000" d="M128.2986,-71.8314C117.8079,-63.0485 105.0545,-52.3712 93.6806,-42.8489"/>
<polygon fill="#000000" stroke="#000000" points="95.6089,-39.8986 85.6945,-36.1628 91.1153,-45.2659 95.6089,-39.8986"/>
<g id="a_edge1&#45;headlabel"><a xlink:href="dir_000126_000059.html" target="_top" xlink:title="3">
<text text-anchor="middle" x="100.1877" y="-37.529" font-family="Helvetica,sans-Serif" font-size="10.00" fill="#000000">3</text>
</a>
</g>
</g>
<!-- dir_1b3ed615309ca9bc94672b13777cb4d7 -->
<g id="node5" class="node">
<title>dir_1b3ed615309ca9bc94672b13777cb4d7</title>
<g id="a_node5"><a xlink:href="dir_1b3ed615309ca9bc94672b13777cb4d7.html" target="_top" xlink:title="libbsn">
<polygon fill="#ffffff" stroke="#ff0000" points="170,-36 116,-36 116,0 170,0 170,-36"/>
<text text-anchor="middle" x="143" y="-15.5" font-family="Helvetica,sans-Serif" font-size="10.00" fill="#000000">libbsn</text>
</a>
</g>
</g>
<!-- dir_7aebaafb036e4faaba9604662e59a2d6&#45;&gt;dir_1b3ed615309ca9bc94672b13777cb4d7 -->
<g id="edge2" class="edge">
<title>dir_7aebaafb036e4faaba9604662e59a2d6&#45;&gt;dir_1b3ed615309ca9bc94672b13777cb4d7</title>
<path fill="none" stroke="#000000" d="M148.2336,-71.8314C147.485,-64.131 146.5947,-54.9743 145.7627,-46.4166"/>
<polygon fill="#000000" stroke="#000000" points="149.2415,-46.0276 144.7902,-36.4133 142.2744,-46.7051 149.2415,-46.0276"/>
<g id="a_edge2&#45;headlabel"><a xlink:href="dir_000126_000066.html" target="_top" xlink:title="27">
<text text-anchor="middle" x="152.4152" y="-46.8307" font-family="Helvetica,sans-Serif" font-size="10.00" fill="#000000">27</text>
</a>
</g>
</g>
<!-- dir_4608eee037232a547391c866eb6a4619 -->
<g id="node3" class="node">
<title>dir_4608eee037232a547391c866eb6a4619</title>
<g id="a_node3"><a xlink:href="dir_4608eee037232a547391c866eb6a4619.html" target="_top" xlink:title="enactor">
<polygon fill="#ffffff" stroke="#ff0000" points="78,-108 24,-108 24,-72 78,-72 78,-108"/>
<text text-anchor="middle" x="51" y="-87.5" font-family="Helvetica,sans-Serif" font-size="10.00" fill="#000000">enactor</text>
</a>
</g>
</g>
<!-- dir_4608eee037232a547391c866eb6a4619&#45;&gt;dir_7820f11c4482f02b738474524ce1ba7b -->
<g id="edge3" class="edge">
<title>dir_4608eee037232a547391c866eb6a4619&#45;&gt;dir_7820f11c4482f02b738474524ce1ba7b</title>
<path fill="none" stroke="#000000" d="M54.2804,-71.8314C55.6708,-64.131 57.3241,-54.9743 58.8692,-46.4166"/>
<polygon fill="#000000" stroke="#000000" points="62.3428,-46.8761 60.6754,-36.4133 55.4542,-45.6322 62.3428,-46.8761"/>
<g id="a_edge3&#45;headlabel"><a xlink:href="dir_000131_000059.html" target="_top" xlink:title="1">
<text text-anchor="middle" x="64.4983" y="-48.4179" font-family="Helvetica,sans-Serif" font-size="10.00" fill="#000000">1</text>
</a>
</g>
</g>
<!-- dir_4608eee037232a547391c866eb6a4619&#45;&gt;dir_1b3ed615309ca9bc94672b13777cb4d7 -->
<g id="edge4" class="edge">
<title>dir_4608eee037232a547391c866eb6a4619&#45;&gt;dir_1b3ed615309ca9bc94672b13777cb4d7</title>
<path fill="none" stroke="#000000" d="M69.7573,-71.8324C75.4704,-66.5563 81.8648,-60.8995 88,-56 94.1853,-51.0604 100.9787,-46.0556 107.6171,-41.371"/>
<polygon fill="#000000" stroke="#000000" points="109.6624,-44.212 115.8855,-35.6374 105.6735,-38.4597 109.6624,-44.212"/>
<g id="a_edge4&#45;headlabel"><a xlink:href="dir_000131_000066.html" target="_top" xlink:title="1">
<text text-anchor="middle" x="108.3264" y="-46.0935" font-family="Helvetica,sans-Serif" font-size="10.00" fill="#000000">1</text>
</a>
</g>
</g>
</g>
</svg>
