<?xml version="1.0" encoding="UTF-8" standalone="no"?>
<!DOCTYPE svg PUBLIC "-//W3C//DTD SVG 1.1//EN"
 "http://www.w3.org/Graphics/SVG/1.1/DTD/svg11.dtd">
<!-- Generated by graphviz version 2.40.1 (20161225.0304)
 -->
<!-- Title: src/sa&#45;bsn/target_system/probes Pages: 1 -->
<svg width="188pt" height="159pt"
 viewBox="0.00 0.00 188.00 159.00" xmlns="http://www.w3.org/2000/svg" xmlns:xlink="http://www.w3.org/1999/xlink">
<g id="graph0" class="graph" transform="scale(1 1) rotate(0) translate(4 155)">
<title>src/sa&#45;bsn/target_system/probes</title>
<polygon fill="#ffffff" stroke="transparent" points="-4,4 -4,-155 184,-155 184,4 -4,4"/>
<g id="clust1" class="cluster">
<title>clusterdir_e70d6ec7091086c81b6e93c354deb1ee</title>
<g id="a_clust1"><a xlink:href="dir_e70d6ec7091086c81b6e93c354deb1ee.html" target="_top" xlink:title="target_system">
<polygon fill="#ddddee" stroke="#000000" points="8,-56 8,-143 172,-143 172,-56 8,-56"/>
<text text-anchor="middle" x="90" y="-131" font-family="Helvetica,sans-Serif" font-size="10.00" fill="#000000">target_system</text>
</a>
</g>
</g>
<g id="clust2" class="cluster">
<title>clusterdir_0a05d3b0c9861b6955a9ad600ba25401</title>
<g id="a_clust2"><a xlink:href="dir_0a05d3b0c9861b6955a9ad600ba25401.html" target="_top">
<polygon fill="#eeeeff" stroke="#000000" points="16,-64 16,-116 164,-116 164,-64 16,-64"/>
</a>
</g>
</g>
<!-- dir_0a05d3b0c9861b6955a9ad600ba25401 -->
<g id="node1" class="node">
<title>dir_0a05d3b0c9861b6955a9ad600ba25401</title>
<text text-anchor="middle" x="129" y="-87.5" font-family="Helvetica,sans-Serif" font-size="10.00" fill="#000000">probes</text>
</g>
<!-- dir_e0abd878bbdc0cd9749a6fc42c383798 -->
<g id="node2" class="node">
<title>dir_e0abd878bbdc0cd9749a6fc42c383798</title>
<g id="a_node2"><a xlink:href="dir_e0abd878bbdc0cd9749a6fc42c383798.html" target="_top" xlink:title="collector">
<polygon fill="#ffffff" stroke="#ff0000" points="83.5,-108 24.5,-108 24.5,-72 83.5,-72 83.5,-108"/>
<text text-anchor="middle" x="54" y="-87.5" font-family="Helvetica,sans-Serif" font-size="10.00" fill="#000000">collector</text>
</a>
</g>
</g>
<!-- dir_7820f11c4482f02b738474524ce1ba7b -->
<g id="node3" class="node">
<title>dir_7820f11c4482f02b738474524ce1ba7b</title>
<g id="a_node3"><a xlink:href="dir_7820f11c4482f02b738474524ce1ba7b.html" target="_top" xlink:title="archlib">
<polygon fill="#ffffff" stroke="#ff0000" points="81,-36 27,-36 27,0 81,0 81,-36"/>
<text text-anchor="middle" x="54" y="-15.5" font-family="Helvetica,sans-Serif" font-size="10.00" fill="#000000">archlib</text>
</a>
</g>
</g>
<!-- dir_e0abd878bbdc0cd9749a6fc42c383798&#45;&gt;dir_7820f11c4482f02b738474524ce1ba7b -->
<g id="edge1" class="edge">
<title>dir_e0abd878bbdc0cd9749a6fc42c383798&#45;&gt;dir_7820f11c4482f02b738474524ce1ba7b</title>
<path fill="none" stroke="#000000" d="M54,-71.8314C54,-64.131 54,-54.9743 54,-46.4166"/>
<polygon fill="#000000" stroke="#000000" points="57.5001,-46.4132 54,-36.4133 50.5001,-46.4133 57.5001,-46.4132"/>
<g id="a_edge1&#45;headlabel"><a xlink:href="dir_000165_000059.html" target="_top" xlink:title="1">
<text text-anchor="middle" x="60.3393" y="-47.5079" font-family="Helvetica,sans-Serif" font-size="10.00" fill="#000000">1</text>
</a>
</g>
</g>
</g>
</svg>
