<?xml version="1.0" encoding="UTF-8" standalone="no"?>
<!DOCTYPE svg PUBLIC "-//W3C//DTD SVG 1.1//EN"
 "http://www.w3.org/Graphics/SVG/1.1/DTD/svg11.dtd">
<!-- Generated by graphviz version 2.40.1 (20161225.0304)
 -->
<!-- Title: src/libbsn Pages: 1 -->
<svg width="254pt" height="183pt"
 viewBox="0.00 0.00 254.00 183.00" xmlns="http://www.w3.org/2000/svg" xmlns:xlink="http://www.w3.org/1999/xlink">
<g id="graph0" class="graph" transform="scale(1 1) rotate(0) translate(4 179)">
<title>src/libbsn</title>
<polygon fill="#ffffff" stroke="transparent" points="-4,4 -4,-179 250,-179 250,4 -4,4"/>
<g id="clust1" class="cluster">
<title>clusterdir_68267d1309a1af8e8297ef4c3efbcdba</title>
<g id="a_clust1"><a xlink:href="dir_68267d1309a1af8e8297ef4c3efbcdba.html" target="_top" xlink:title="src">
<polygon fill="#ddddee" stroke="#000000" points="8,-8 8,-167 238,-167 238,-8 8,-8"/>
<text text-anchor="middle" x="123" y="-155" font-family="Helvetica,sans-Serif" font-size="10.00" fill="#000000">src</text>
</a>
</g>
</g>
<g id="clust2" class="cluster">
<title>clusterdir_1b3ed615309ca9bc94672b13777cb4d7</title>
<g id="a_clust2"><a xlink:href="dir_1b3ed615309ca9bc94672b13777cb4d7.html" target="_top">
<polygon fill="#eeeeff" stroke="#000000" points="16,-16 16,-140 230,-140 230,-16 16,-16"/>
</a>
</g>
</g>
<!-- dir_1b3ed615309ca9bc94672b13777cb4d7 -->
<g id="node1" class="node">
<title>dir_1b3ed615309ca9bc94672b13777cb4d7</title>
<text text-anchor="middle" x="195" y="-111.5" font-family="Helvetica,sans-Serif" font-size="10.00" fill="#000000">libbsn</text>
</g>
<!-- dir_df7abd43abb61486b9ff190473949a1d -->
<g id="node2" class="node">
<title>dir_df7abd43abb61486b9ff190473949a1d</title>
<g id="a_node2"><a xlink:href="dir_df7abd43abb61486b9ff190473949a1d.html" target="_top" xlink:title="include">
<polygon fill="#ffffff" stroke="#ff0000" points="114,-60 60,-60 60,-24 114,-24 114,-60"/>
<text text-anchor="middle" x="87" y="-39.5" font-family="Helvetica,sans-Serif" font-size="10.00" fill="#000000">include</text>
</a>
</g>
</g>
<!-- dir_fbb7f83508d65ad88b882e23eeccc7ed -->
<g id="node3" class="node">
<title>dir_fbb7f83508d65ad88b882e23eeccc7ed</title>
<g id="a_node3"><a xlink:href="dir_fbb7f83508d65ad88b882e23eeccc7ed.html" target="_top" xlink:title="src">
<polygon fill="#ffffff" stroke="#ff0000" points="150,-132 96,-132 96,-96 150,-96 150,-132"/>
<text text-anchor="middle" x="123" y="-111.5" font-family="Helvetica,sans-Serif" font-size="10.00" fill="#000000">src</text>
</a>
</g>
</g>
<!-- dir_fbb7f83508d65ad88b882e23eeccc7ed&#45;&gt;dir_df7abd43abb61486b9ff190473949a1d -->
<g id="edge1" class="edge">
<title>dir_fbb7f83508d65ad88b882e23eeccc7ed&#45;&gt;dir_df7abd43abb61486b9ff190473949a1d</title>
<path fill="none" stroke="#000000" d="M113.9157,-95.8314C109.9385,-87.8771 105.1845,-78.369 100.7861,-69.5723"/>
<polygon fill="#000000" stroke="#000000" points="103.8093,-67.7923 96.2066,-60.4133 97.5483,-70.9228 103.8093,-67.7923"/>
<g id="a_edge1&#45;headlabel"><a xlink:href="dir_000080_000068.html" target="_top" xlink:title="18">
<text text-anchor="middle" x="107.9563" y="-67.2377" font-family="Helvetica,sans-Serif" font-size="10.00" fill="#000000">18</text>
</a>
</g>
</g>
<!-- dir_e31ccf83aab957b8b80ff899d1817acb -->
<g id="node4" class="node">
<title>dir_e31ccf83aab957b8b80ff899d1817acb</title>
<g id="a_node4"><a xlink:href="dir_e31ccf83aab957b8b80ff899d1817acb.html" target="_top" xlink:title="test">
<polygon fill="#ffffff" stroke="#ff0000" points="78,-132 24,-132 24,-96 78,-96 78,-132"/>
<text text-anchor="middle" x="51" y="-111.5" font-family="Helvetica,sans-Serif" font-size="10.00" fill="#000000">test</text>
</a>
</g>
</g>
<!-- dir_e31ccf83aab957b8b80ff899d1817acb&#45;&gt;dir_df7abd43abb61486b9ff190473949a1d -->
<g id="edge2" class="edge">
<title>dir_e31ccf83aab957b8b80ff899d1817acb&#45;&gt;dir_df7abd43abb61486b9ff190473949a1d</title>
<path fill="none" stroke="#000000" d="M60.0843,-95.8314C64.0615,-87.8771 68.8155,-78.369 73.2139,-69.5723"/>
<polygon fill="#000000" stroke="#000000" points="76.4517,-70.9228 77.7934,-60.4133 70.1907,-67.7923 76.4517,-70.9228"/>
<g id="a_edge2&#45;headlabel"><a xlink:href="dir_000067_000068.html" target="_top" xlink:title="29">
<text text-anchor="middle" x="77.3837" y="-72.9077" font-family="Helvetica,sans-Serif" font-size="10.00" fill="#000000">29</text>
</a>
</g>
</g>
</g>
</svg>
