<?xml version="1.0" encoding="UTF-8" standalone="no"?>
<!DOCTYPE svg PUBLIC "-//W3C//DTD SVG 1.1//EN"
 "http://www.w3.org/Graphics/SVG/1.1/DTD/svg11.dtd">
<!-- Generated by graphviz version 2.40.1 (20161225.0304)
 -->
<!-- Title: src/sa&#45;bsn/target_system/effectors/param_adapter/apps Pages: 1 -->
<svg width="115pt" height="151pt"
 viewBox="0.00 0.00 115.00 151.00" xmlns="http://www.w3.org/2000/svg" xmlns:xlink="http://www.w3.org/1999/xlink">
<g id="graph0" class="graph" transform="scale(1 1) rotate(0) translate(4 147)">
<title>src/sa&#45;bsn/target_system/effectors/param_adapter/apps</title>
<polygon fill="#ffffff" stroke="transparent" points="-4,4 -4,-147 111,-147 111,4 -4,4"/>
<g id="clust1" class="cluster">
<title>clusterdir_bee2b3c94f8a5e52fec4471b723184f2</title>
<g id="a_clust1"><a xlink:href="dir_bee2b3c94f8a5e52fec4471b723184f2.html" target="_top" xlink:title="param_adapter">
<polygon fill="#ddddee" stroke="#000000" points="8,-64 8,-135 99,-135 99,-64 8,-64"/>
<text text-anchor="middle" x="53.5" y="-123" font-family="Helvetica,sans-Serif" font-size="10.00" fill="#000000">param_adapter</text>
</a>
</g>
</g>
<!-- dir_ac6b2ed7a063a67663c5fdf9c79f481a -->
<g id="node1" class="node">
<title>dir_ac6b2ed7a063a67663c5fdf9c79f481a</title>
<g id="a_node1"><a xlink:href="dir_ac6b2ed7a063a67663c5fdf9c79f481a.html" target="_top" xlink:title="apps">
<polygon fill="#eeeeff" stroke="#000000" points="80,-108 26,-108 26,-72 80,-72 80,-108"/>
<text text-anchor="middle" x="53" y="-87.5" font-family="Helvetica,sans-Serif" font-size="10.00" fill="#000000">apps</text>
</a>
</g>
</g>
<!-- dir_541953cd7281d88cebf7c74217de7a4c -->
<g id="node2" class="node">
<title>dir_541953cd7281d88cebf7c74217de7a4c</title>
<g id="a_node2"><a xlink:href="dir_541953cd7281d88cebf7c74217de7a4c.html" target="_top" xlink:title="include">
<polygon fill="#ffffff" stroke="#ff0000" points="80,-36 26,-36 26,0 80,0 80,-36"/>
<text text-anchor="middle" x="53" y="-15.5" font-family="Helvetica,sans-Serif" font-size="10.00" fill="#000000">include</text>
</a>
</g>
</g>
<!-- dir_ac6b2ed7a063a67663c5fdf9c79f481a&#45;&gt;dir_541953cd7281d88cebf7c74217de7a4c -->
<g id="edge1" class="edge">
<title>dir_ac6b2ed7a063a67663c5fdf9c79f481a&#45;&gt;dir_541953cd7281d88cebf7c74217de7a4c</title>
<path fill="none" stroke="#000000" d="M53,-71.8314C53,-64.131 53,-54.9743 53,-46.4166"/>
<polygon fill="#000000" stroke="#000000" points="56.5001,-46.4132 53,-36.4133 49.5001,-46.4133 56.5001,-46.4132"/>
<g id="a_edge1&#45;headlabel"><a xlink:href="dir_000160_000161.html" target="_top" xlink:title="1">
<text text-anchor="middle" x="59.3393" y="-47.5079" font-family="Helvetica,sans-Serif" font-size="10.00" fill="#000000">1</text>
</a>
</g>
</g>
</g>
</svg>
