<?xml version="1.0" encoding="UTF-8" standalone="no"?>
<!DOCTYPE svg PUBLIC "-//W3C//DTD SVG 1.1//EN"
 "http://www.w3.org/Graphics/SVG/1.1/DTD/svg11.dtd">
<!-- Generated by graphviz version 2.40.1 (20161225.0304)
 -->
<!-- Title: src/sa&#45;bsn/system_manager/enactor/include/controller Pages: 1 -->
<svg width="104pt" height="151pt"
 viewBox="0.00 0.00 104.00 151.00" xmlns="http://www.w3.org/2000/svg" xmlns:xlink="http://www.w3.org/1999/xlink">
<g id="graph0" class="graph" transform="scale(1 1) rotate(0) translate(4 147)">
<title>src/sa&#45;bsn/system_manager/enactor/include/controller</title>
<polygon fill="#ffffff" stroke="transparent" points="-4,4 -4,-147 100,-147 100,4 -4,4"/>
<g id="clust1" class="cluster">
<title>clusterdir_1f1d08cbadb67c7a44454216c00b3c3c</title>
<g id="a_clust1"><a xlink:href="dir_1f1d08cbadb67c7a44454216c00b3c3c.html" target="_top" xlink:title="include">
<polygon fill="#ddddee" stroke="#000000" points="8,-64 8,-135 88,-135 88,-64 8,-64"/>
<text text-anchor="middle" x="48" y="-123" font-family="Helvetica,sans-Serif" font-size="10.00" fill="#000000">include</text>
</a>
</g>
</g>
<!-- dir_c33613a292a310e39c057f1f598baed4 -->
<g id="node1" class="node">
<title>dir_c33613a292a310e39c057f1f598baed4</title>
<g id="a_node1"><a xlink:href="dir_c33613a292a310e39c057f1f598baed4.html" target="_top" xlink:title="controller">
<polygon fill="#eeeeff" stroke="#000000" points="79.5,-108 16.5,-108 16.5,-72 79.5,-72 79.5,-108"/>
<text text-anchor="middle" x="48" y="-87.5" font-family="Helvetica,sans-Serif" font-size="10.00" fill="#000000">controller</text>
</a>
</g>
</g>
<!-- dir_4cfa5d186d967e0d0dc4c5e3b4ed19a5 -->
<g id="node2" class="node">
<title>dir_4cfa5d186d967e0d0dc4c5e3b4ed19a5</title>
<g id="a_node2"><a xlink:href="dir_4cfa5d186d967e0d0dc4c5e3b4ed19a5.html" target="_top" xlink:title="enactor">
<polygon fill="none" stroke="#000000" points="75,-36 21,-36 21,0 75,0 75,-36"/>
<text text-anchor="middle" x="48" y="-15.5" font-family="Helvetica,sans-Serif" font-size="10.00" fill="#000000">enactor</text>
</a>
</g>
</g>
<!-- dir_c33613a292a310e39c057f1f598baed4&#45;&gt;dir_4cfa5d186d967e0d0dc4c5e3b4ed19a5 -->
<g id="edge1" class="edge">
<title>dir_c33613a292a310e39c057f1f598baed4&#45;&gt;dir_4cfa5d186d967e0d0dc4c5e3b4ed19a5</title>
<path fill="none" stroke="#000000" d="M48,-71.8314C48,-64.131 48,-54.9743 48,-46.4166"/>
<polygon fill="#000000" stroke="#000000" points="51.5001,-46.4132 48,-36.4133 44.5001,-46.4133 51.5001,-46.4132"/>
<g id="a_edge1&#45;headlabel"><a xlink:href="dir_000134_000135.html" target="_top" xlink:title="1">
<text text-anchor="middle" x="54.3393" y="-47.5079" font-family="Helvetica,sans-Serif" font-size="10.00" fill="#000000">1</text>
</a>
</g>
</g>
</g>
</svg>
