<?xml version="1.0" encoding="UTF-8" standalone="no"?>
<!DOCTYPE svg PUBLIC "-//W3C//DTD SVG 1.1//EN"
 "http://www.w3.org/Graphics/SVG/1.1/DTD/svg11.dtd">
<!-- Generated by graphviz version 2.40.1 (20161225.0304)
 -->
<!-- Title: src/libbsn/test/unit/goalmodel Pages: 1 -->
<svg width="108pt" height="151pt"
 viewBox="0.00 0.00 108.00 151.00" xmlns="http://www.w3.org/2000/svg" xmlns:xlink="http://www.w3.org/1999/xlink">
<g id="graph0" class="graph" transform="scale(1 1) rotate(0) translate(4 147)">
<title>src/libbsn/test/unit/goalmodel</title>
<polygon fill="#ffffff" stroke="transparent" points="-4,4 -4,-147 104,-147 104,4 -4,4"/>
<g id="clust1" class="cluster">
<title>clusterdir_8a85ae842fccf6dd55a5bc532a0817cd</title>
<g id="a_clust1"><a xlink:href="dir_8a85ae842fccf6dd55a5bc532a0817cd.html" target="_top" xlink:title="unit">
<polygon fill="#ddddee" stroke="#000000" points="8,-64 8,-135 92,-135 92,-64 8,-64"/>
<text text-anchor="middle" x="50" y="-123" font-family="Helvetica,sans-Serif" font-size="10.00" fill="#000000">unit</text>
</a>
</g>
</g>
<!-- dir_5eda84fa59c1ae7978ecd0f74c139fde -->
<g id="node1" class="node">
<title>dir_5eda84fa59c1ae7978ecd0f74c139fde</title>
<g id="a_node1"><a xlink:href="dir_5eda84fa59c1ae7978ecd0f74c139fde.html" target="_top" xlink:title="goalmodel">
<polygon fill="#eeeeff" stroke="#000000" points="84,-108 16,-108 16,-72 84,-72 84,-108"/>
<text text-anchor="middle" x="50" y="-87.5" font-family="Helvetica,sans-Serif" font-size="10.00" fill="#000000">goalmodel</text>
</a>
</g>
</g>
<!-- dir_df7abd43abb61486b9ff190473949a1d -->
<g id="node2" class="node">
<title>dir_df7abd43abb61486b9ff190473949a1d</title>
<g id="a_node2"><a xlink:href="dir_df7abd43abb61486b9ff190473949a1d.html" target="_top" xlink:title="include">
<polygon fill="#ffffff" stroke="#ff0000" points="77,-36 23,-36 23,0 77,0 77,-36"/>
<text text-anchor="middle" x="50" y="-15.5" font-family="Helvetica,sans-Serif" font-size="10.00" fill="#000000">include</text>
</a>
</g>
</g>
<!-- dir_5eda84fa59c1ae7978ecd0f74c139fde&#45;&gt;dir_df7abd43abb61486b9ff190473949a1d -->
<g id="edge1" class="edge">
<title>dir_5eda84fa59c1ae7978ecd0f74c139fde&#45;&gt;dir_df7abd43abb61486b9ff190473949a1d</title>
<path fill="none" stroke="#000000" d="M50,-71.8314C50,-64.131 50,-54.9743 50,-46.4166"/>
<polygon fill="#000000" stroke="#000000" points="53.5001,-46.4132 50,-36.4133 46.5001,-46.4133 53.5001,-46.4132"/>
<g id="a_edge1&#45;headlabel"><a xlink:href="dir_000096_000068.html" target="_top" xlink:title="20">
<text text-anchor="middle" x="56.3393" y="-47.5079" font-family="Helvetica,sans-Serif" font-size="10.00" fill="#000000">20</text>
</a>
</g>
</g>
</g>
</svg>
