<?xml version="1.0" encoding="UTF-8" standalone="no"?>
<!DOCTYPE svg PUBLIC "-//W3C//DTD SVG 1.1//EN"
 "http://www.w3.org/Graphics/SVG/1.1/DTD/svg11.dtd">
<!-- Generated by graphviz version 2.40.1 (20161225.0304)
 -->
<!-- Title: src/sa&#45;bsn/target_system Pages: 1 -->
<svg width="388pt" height="159pt"
 viewBox="0.00 0.00 388.00 159.00" xmlns="http://www.w3.org/2000/svg" xmlns:xlink="http://www.w3.org/1999/xlink">
<g id="graph0" class="graph" transform="scale(1 1) rotate(0) translate(4 155)">
<title>src/sa&#45;bsn/target_system</title>
<polygon fill="#ffffff" stroke="transparent" points="-4,4 -4,-155 384,-155 384,4 -4,4"/>
<g id="clust1" class="cluster">
<title>clusterdir_67bfdd06b9e1d9840810a9d51e07a67d</title>
<g id="a_clust1"><a xlink:href="dir_67bfdd06b9e1d9840810a9d51e07a67d.html" target="_top" xlink:title="sa&#45;bsn">
<polygon fill="#ddddee" stroke="#000000" points="8,-56 8,-143 372,-143 372,-56 8,-56"/>
<text text-anchor="middle" x="190" y="-131" font-family="Helvetica,sans-Serif" font-size="10.00" fill="#000000">sa&#45;bsn</text>
</a>
</g>
</g>
<g id="clust2" class="cluster">
<title>clusterdir_e70d6ec7091086c81b6e93c354deb1ee</title>
<g id="a_clust2"><a xlink:href="dir_e70d6ec7091086c81b6e93c354deb1ee.html" target="_top">
<polygon fill="#eeeeff" stroke="#000000" points="16,-64 16,-116 364,-116 364,-64 16,-64"/>
</a>
</g>
</g>
<!-- dir_e70d6ec7091086c81b6e93c354deb1ee -->
<g id="node1" class="node">
<title>dir_e70d6ec7091086c81b6e93c354deb1ee</title>
<text text-anchor="middle" x="312" y="-87.5" font-family="Helvetica,sans-Serif" font-size="10.00" fill="#000000">target_system</text>
</g>
<!-- dir_ae8593cfd9c55bfa5bb70cc8923d9ba7 -->
<g id="node2" class="node">
<title>dir_ae8593cfd9c55bfa5bb70cc8923d9ba7</title>
<g id="a_node2"><a xlink:href="dir_ae8593cfd9c55bfa5bb70cc8923d9ba7.html" target="_top" xlink:title="components">
<polygon fill="#ffffff" stroke="#ff0000" points="250.5,-108 173.5,-108 173.5,-72 250.5,-72 250.5,-108"/>
<text text-anchor="middle" x="212" y="-87.5" font-family="Helvetica,sans-Serif" font-size="10.00" fill="#000000">components</text>
</a>
</g>
</g>
<!-- dir_7820f11c4482f02b738474524ce1ba7b -->
<g id="node5" class="node">
<title>dir_7820f11c4482f02b738474524ce1ba7b</title>
<g id="a_node5"><a xlink:href="dir_7820f11c4482f02b738474524ce1ba7b.html" target="_top" xlink:title="archlib">
<polygon fill="#ffffff" stroke="#ff0000" points="153,-36 99,-36 99,0 153,0 153,-36"/>
<text text-anchor="middle" x="126" y="-15.5" font-family="Helvetica,sans-Serif" font-size="10.00" fill="#000000">archlib</text>
</a>
</g>
</g>
<!-- dir_ae8593cfd9c55bfa5bb70cc8923d9ba7&#45;&gt;dir_7820f11c4482f02b738474524ce1ba7b -->
<g id="edge3" class="edge">
<title>dir_ae8593cfd9c55bfa5bb70cc8923d9ba7&#45;&gt;dir_7820f11c4482f02b738474524ce1ba7b</title>
<path fill="none" stroke="#000000" d="M190.2986,-71.8314C179.8079,-63.0485 167.0545,-52.3712 155.6806,-42.8489"/>
<polygon fill="#000000" stroke="#000000" points="157.6089,-39.8986 147.6945,-36.1628 153.1153,-45.2659 157.6089,-39.8986"/>
<g id="a_edge3&#45;headlabel"><a xlink:href="dir_000138_000059.html" target="_top" xlink:title="3">
<text text-anchor="middle" x="162.1877" y="-37.529" font-family="Helvetica,sans-Serif" font-size="10.00" fill="#000000">3</text>
</a>
</g>
</g>
<!-- dir_1b3ed615309ca9bc94672b13777cb4d7 -->
<g id="node6" class="node">
<title>dir_1b3ed615309ca9bc94672b13777cb4d7</title>
<g id="a_node6"><a xlink:href="dir_1b3ed615309ca9bc94672b13777cb4d7.html" target="_top" xlink:title="libbsn">
<polygon fill="#ffffff" stroke="#ff0000" points="239,-36 185,-36 185,0 239,0 239,-36"/>
<text text-anchor="middle" x="212" y="-15.5" font-family="Helvetica,sans-Serif" font-size="10.00" fill="#000000">libbsn</text>
</a>
</g>
</g>
<!-- dir_ae8593cfd9c55bfa5bb70cc8923d9ba7&#45;&gt;dir_1b3ed615309ca9bc94672b13777cb4d7 -->
<g id="edge4" class="edge">
<title>dir_ae8593cfd9c55bfa5bb70cc8923d9ba7&#45;&gt;dir_1b3ed615309ca9bc94672b13777cb4d7</title>
<path fill="none" stroke="#000000" d="M212,-71.8314C212,-64.131 212,-54.9743 212,-46.4166"/>
<polygon fill="#000000" stroke="#000000" points="215.5001,-46.4132 212,-36.4133 208.5001,-46.4133 215.5001,-46.4132"/>
<g id="a_edge4&#45;headlabel"><a xlink:href="dir_000138_000066.html" target="_top" xlink:title="48">
<text text-anchor="middle" x="218.3393" y="-47.5079" font-family="Helvetica,sans-Serif" font-size="10.00" fill="#000000">48</text>
</a>
</g>
</g>
<!-- dir_78c3d85035859e77a69a25fb37583f0d -->
<g id="node3" class="node">
<title>dir_78c3d85035859e77a69a25fb37583f0d</title>
<g id="a_node3"><a xlink:href="dir_78c3d85035859e77a69a25fb37583f0d.html" target="_top" xlink:title="effectors">
<polygon fill="#ffffff" stroke="#ff0000" points="155.5,-108 96.5,-108 96.5,-72 155.5,-72 155.5,-108"/>
<text text-anchor="middle" x="126" y="-87.5" font-family="Helvetica,sans-Serif" font-size="10.00" fill="#000000">effectors</text>
</a>
</g>
</g>
<!-- dir_78c3d85035859e77a69a25fb37583f0d&#45;&gt;dir_7820f11c4482f02b738474524ce1ba7b -->
<g id="edge1" class="edge">
<title>dir_78c3d85035859e77a69a25fb37583f0d&#45;&gt;dir_7820f11c4482f02b738474524ce1ba7b</title>
<path fill="none" stroke="#000000" d="M126,-71.8314C126,-64.131 126,-54.9743 126,-46.4166"/>
<polygon fill="#000000" stroke="#000000" points="129.5001,-46.4132 126,-36.4133 122.5001,-46.4133 129.5001,-46.4132"/>
<g id="a_edge1&#45;headlabel"><a xlink:href="dir_000158_000059.html" target="_top" xlink:title="1">
<text text-anchor="middle" x="132.3393" y="-47.5079" font-family="Helvetica,sans-Serif" font-size="10.00" fill="#000000">1</text>
</a>
</g>
</g>
<!-- dir_0a05d3b0c9861b6955a9ad600ba25401 -->
<g id="node4" class="node">
<title>dir_0a05d3b0c9861b6955a9ad600ba25401</title>
<g id="a_node4"><a xlink:href="dir_0a05d3b0c9861b6955a9ad600ba25401.html" target="_top" xlink:title="probes">
<polygon fill="#ffffff" stroke="#ff0000" points="78,-108 24,-108 24,-72 78,-72 78,-108"/>
<text text-anchor="middle" x="51" y="-87.5" font-family="Helvetica,sans-Serif" font-size="10.00" fill="#000000">probes</text>
</a>
</g>
</g>
<!-- dir_0a05d3b0c9861b6955a9ad600ba25401&#45;&gt;dir_7820f11c4482f02b738474524ce1ba7b -->
<g id="edge2" class="edge">
<title>dir_0a05d3b0c9861b6955a9ad600ba25401&#45;&gt;dir_7820f11c4482f02b738474524ce1ba7b</title>
<path fill="none" stroke="#000000" d="M69.9257,-71.8314C78.9857,-63.1337 89.9809,-52.5783 99.8265,-43.1265"/>
<polygon fill="#000000" stroke="#000000" points="102.2904,-45.613 107.0804,-36.1628 97.4426,-40.5633 102.2904,-45.613"/>
<g id="a_edge2&#45;headlabel"><a xlink:href="dir_000164_000059.html" target="_top" xlink:title="1">
<text text-anchor="middle" x="101.6636" y="-47.6506" font-family="Helvetica,sans-Serif" font-size="10.00" fill="#000000">1</text>
</a>
</g>
</g>
</g>
</svg>
