<?xml version="1.0" encoding="UTF-8" standalone="no"?>
<!DOCTYPE svg PUBLIC "-//W3C//DTD SVG 1.1//EN"
 "http://www.w3.org/Graphics/SVG/1.1/DTD/svg11.dtd">
<!-- Generated by graphviz version 2.40.1 (20161225.0304)
 -->
<!-- Title: src/sa&#45;bsn/target_system/components/component/include/component Pages: 1 -->
<svg width="632pt" height="159pt"
 viewBox="0.00 0.00 632.00 159.00" xmlns="http://www.w3.org/2000/svg" xmlns:xlink="http://www.w3.org/1999/xlink">
<g id="graph0" class="graph" transform="scale(1 1) rotate(0) translate(4 155)">
<title>src/sa&#45;bsn/target_system/components/component/include/component</title>
<polygon fill="#ffffff" stroke="transparent" points="-4,4 -4,-155 628,-155 628,4 -4,4"/>
<g id="clust1" class="cluster">
<title>clusterdir_f03eb50f104db3cea34c702cbda0e1eb</title>
<g id="a_clust1"><a xlink:href="dir_f03eb50f104db3cea34c702cbda0e1eb.html" target="_top" xlink:title="include">
<polygon fill="#ddddee" stroke="#000000" points="8,-56 8,-143 616,-143 616,-56 8,-56"/>
<text text-anchor="middle" x="312" y="-131" font-family="Helvetica,sans-Serif" font-size="10.00" fill="#000000">include</text>
</a>
</g>
</g>
<g id="clust2" class="cluster">
<title>clusterdir_18402482242147d3153d76b4ea813b0b</title>
<g id="a_clust2"><a xlink:href="dir_18402482242147d3153d76b4ea813b0b.html" target="_top">
<polygon fill="#eeeeff" stroke="#000000" points="16,-64 16,-116 608,-116 608,-64 16,-64"/>
</a>
</g>
</g>
<!-- dir_18402482242147d3153d76b4ea813b0b -->
<g id="node1" class="node">
<title>dir_18402482242147d3153d76b4ea813b0b</title>
<text text-anchor="middle" x="132" y="-87.5" font-family="Helvetica,sans-Serif" font-size="10.00" fill="#000000">component</text>
</g>
<!-- dir_7820f11c4482f02b738474524ce1ba7b -->
<g id="node9" class="node">
<title>dir_7820f11c4482f02b738474524ce1ba7b</title>
<g id="a_node9"><a xlink:href="dir_7820f11c4482f02b738474524ce1ba7b.html" target="_top" xlink:title="archlib">
<polygon fill="#ffffff" stroke="#ff0000" points="119,-36 65,-36 65,0 119,0 119,-36"/>
<text text-anchor="middle" x="92" y="-15.5" font-family="Helvetica,sans-Serif" font-size="10.00" fill="#000000">archlib</text>
</a>
</g>
</g>
<!-- dir_18402482242147d3153d76b4ea813b0b&#45;&gt;dir_7820f11c4482f02b738474524ce1ba7b -->
<g id="edge9" class="edge">
<title>dir_18402482242147d3153d76b4ea813b0b&#45;&gt;dir_7820f11c4482f02b738474524ce1ba7b</title>
<path fill="none" stroke="#000000" d="M121.9063,-71.8314C117.4403,-63.7925 112.0925,-54.1666 107.1621,-45.2918"/>
<polygon fill="#000000" stroke="#000000" points="110.1456,-43.4551 102.2296,-36.4133 104.0265,-46.8546 110.1456,-43.4551"/>
<g id="a_edge9&#45;headlabel"><a xlink:href="dir_000142_000059.html" target="_top" xlink:title="3">
<text text-anchor="middle" x="114.3732" y="-42.7185" font-family="Helvetica,sans-Serif" font-size="10.00" fill="#000000">3</text>
</a>
</g>
</g>
<!-- dir_1b3ed615309ca9bc94672b13777cb4d7 -->
<g id="node10" class="node">
<title>dir_1b3ed615309ca9bc94672b13777cb4d7</title>
<g id="a_node10"><a xlink:href="dir_1b3ed615309ca9bc94672b13777cb4d7.html" target="_top" xlink:title="libbsn">
<polygon fill="#ffffff" stroke="#ff0000" points="348,-36 294,-36 294,0 348,0 348,-36"/>
<text text-anchor="middle" x="321" y="-15.5" font-family="Helvetica,sans-Serif" font-size="10.00" fill="#000000">libbsn</text>
</a>
</g>
</g>
<!-- dir_18402482242147d3153d76b4ea813b0b&#45;&gt;dir_1b3ed615309ca9bc94672b13777cb4d7 -->
<g id="edge10" class="edge">
<title>dir_18402482242147d3153d76b4ea813b0b&#45;&gt;dir_1b3ed615309ca9bc94672b13777cb4d7</title>
<path fill="none" stroke="#000000" d="M152.4033,-71.9276C159.7528,-66.1616 168.37,-60.1957 177,-56 211.3213,-39.3138 253.9341,-29.2368 283.8685,-23.6947"/>
<polygon fill="#000000" stroke="#000000" points="284.6567,-27.1097 293.8935,-21.9201 283.4365,-20.2168 284.6567,-27.1097"/>
<g id="a_edge10&#45;headlabel"><a xlink:href="dir_000142_000066.html" target="_top" xlink:title="48">
<text text-anchor="middle" x="281.612" y="-28.032" font-family="Helvetica,sans-Serif" font-size="10.00" fill="#000000">48</text>
</a>
</g>
</g>
<!-- dir_1228ef77e0d452ae142f4c70489773c9 -->
<g id="node2" class="node">
<title>dir_1228ef77e0d452ae142f4c70489773c9</title>
<g id="a_node2"><a xlink:href="dir_1228ef77e0d452ae142f4c70489773c9.html" target="_top" xlink:title="g3t1_1">
<polygon fill="#ffffff" stroke="#000000" points="312,-108 258,-108 258,-72 312,-72 312,-108"/>
<text text-anchor="middle" x="285" y="-87.5" font-family="Helvetica,sans-Serif" font-size="10.00" fill="#000000">g3t1_1</text>
</a>
</g>
</g>
<!-- dir_1228ef77e0d452ae142f4c70489773c9&#45;&gt;dir_1b3ed615309ca9bc94672b13777cb4d7 -->
<g id="edge4" class="edge">
<title>dir_1228ef77e0d452ae142f4c70489773c9&#45;&gt;dir_1b3ed615309ca9bc94672b13777cb4d7</title>
<path fill="none" stroke="#000000" d="M294.0843,-71.8314C298.0615,-63.8771 302.8155,-54.369 307.2139,-45.5723"/>
<polygon fill="#000000" stroke="#000000" points="310.4517,-46.9228 311.7934,-36.4133 304.1907,-43.7923 310.4517,-46.9228"/>
<g id="a_edge4&#45;headlabel"><a xlink:href="dir_000143_000066.html" target="_top" xlink:title="7">
<text text-anchor="middle" x="311.3837" y="-48.9077" font-family="Helvetica,sans-Serif" font-size="10.00" fill="#000000">7</text>
</a>
</g>
</g>
<!-- dir_7a2efd16d830dc92e0857984052b507e -->
<g id="node3" class="node">
<title>dir_7a2efd16d830dc92e0857984052b507e</title>
<g id="a_node3"><a xlink:href="dir_7a2efd16d830dc92e0857984052b507e.html" target="_top" xlink:title="g3t1_2">
<polygon fill="#ffffff" stroke="#000000" points="240,-108 186,-108 186,-72 240,-72 240,-108"/>
<text text-anchor="middle" x="213" y="-87.5" font-family="Helvetica,sans-Serif" font-size="10.00" fill="#000000">g3t1_2</text>
</a>
</g>
</g>
<!-- dir_7a2efd16d830dc92e0857984052b507e&#45;&gt;dir_1b3ed615309ca9bc94672b13777cb4d7 -->
<g id="edge3" class="edge">
<title>dir_7a2efd16d830dc92e0857984052b507e&#45;&gt;dir_1b3ed615309ca9bc94672b13777cb4d7</title>
<path fill="none" stroke="#000000" d="M230.4752,-71.6849C236.1104,-66.2892 242.5686,-60.6034 249,-56 260.0642,-48.0807 272.9883,-40.7439 284.8092,-34.6714"/>
<polygon fill="#000000" stroke="#000000" points="286.6121,-37.6833 293.9961,-30.0854 283.4856,-31.4203 286.6121,-37.6833"/>
<g id="a_edge3&#45;headlabel"><a xlink:href="dir_000144_000066.html" target="_top" xlink:title="7">
<text text-anchor="middle" x="284.664" y="-39.3291" font-family="Helvetica,sans-Serif" font-size="10.00" fill="#000000">7</text>
</a>
</g>
</g>
<!-- dir_62bed48faad69bedb898425cdc4d2424 -->
<g id="node4" class="node">
<title>dir_62bed48faad69bedb898425cdc4d2424</title>
<g id="a_node4"><a xlink:href="dir_62bed48faad69bedb898425cdc4d2424.html" target="_top" xlink:title="g3t1_3">
<polygon fill="#ffffff" stroke="#000000" points="600,-108 546,-108 546,-72 600,-72 600,-108"/>
<text text-anchor="middle" x="573" y="-87.5" font-family="Helvetica,sans-Serif" font-size="10.00" fill="#000000">g3t1_3</text>
</a>
</g>
</g>
<!-- dir_62bed48faad69bedb898425cdc4d2424&#45;&gt;dir_1b3ed615309ca9bc94672b13777cb4d7 -->
<g id="edge6" class="edge">
<title>dir_62bed48faad69bedb898425cdc4d2424&#45;&gt;dir_1b3ed615309ca9bc94672b13777cb4d7</title>
<path fill="none" stroke="#000000" d="M557.746,-71.8096C551.8558,-65.8909 544.6821,-59.8588 537,-56 506.298,-40.5783 411.5391,-28.0152 358.2957,-21.9444"/>
<polygon fill="#000000" stroke="#000000" points="358.5591,-18.4521 348.2318,-20.8179 357.7804,-25.4087 358.5591,-18.4521"/>
<g id="a_edge6&#45;headlabel"><a xlink:href="dir_000145_000066.html" target="_top" xlink:title="7">
<text text-anchor="middle" x="362.4472" y="-13.5303" font-family="Helvetica,sans-Serif" font-size="10.00" fill="#000000">7</text>
</a>
</g>
</g>
<!-- dir_af9d90ef68e7847d546c46aeabc3fb9d -->
<g id="node5" class="node">
<title>dir_af9d90ef68e7847d546c46aeabc3fb9d</title>
<g id="a_node5"><a xlink:href="dir_af9d90ef68e7847d546c46aeabc3fb9d.html" target="_top" xlink:title="g3t1_4">
<polygon fill="#ffffff" stroke="#000000" points="528,-108 474,-108 474,-72 528,-72 528,-108"/>
<text text-anchor="middle" x="501" y="-87.5" font-family="Helvetica,sans-Serif" font-size="10.00" fill="#000000">g3t1_4</text>
</a>
</g>
</g>
<!-- dir_af9d90ef68e7847d546c46aeabc3fb9d&#45;&gt;dir_1b3ed615309ca9bc94672b13777cb4d7 -->
<g id="edge2" class="edge">
<title>dir_af9d90ef68e7847d546c46aeabc3fb9d&#45;&gt;dir_1b3ed615309ca9bc94672b13777cb4d7</title>
<path fill="none" stroke="#000000" d="M485.2023,-71.8112C479.3648,-66.0359 472.3634,-60.0939 465,-56 431.5448,-37.3997 388.6258,-27.6041 358.3773,-22.6502"/>
<polygon fill="#000000" stroke="#000000" points="358.6582,-19.1524 348.2427,-21.0934 357.5953,-26.0713 358.6582,-19.1524"/>
<g id="a_edge2&#45;headlabel"><a xlink:href="dir_000146_000066.html" target="_top" xlink:title="7">
<text text-anchor="middle" x="362.6422" y="-14.3918" font-family="Helvetica,sans-Serif" font-size="10.00" fill="#000000">7</text>
</a>
</g>
</g>
<!-- dir_f5b383c0c7108ffd8d1e457c0320638f -->
<g id="node6" class="node">
<title>dir_f5b383c0c7108ffd8d1e457c0320638f</title>
<g id="a_node6"><a xlink:href="dir_f5b383c0c7108ffd8d1e457c0320638f.html" target="_top" xlink:title="g3t1_5">
<polygon fill="#ffffff" stroke="#000000" points="456,-108 402,-108 402,-72 456,-72 456,-108"/>
<text text-anchor="middle" x="429" y="-87.5" font-family="Helvetica,sans-Serif" font-size="10.00" fill="#000000">g3t1_5</text>
</a>
</g>
</g>
<!-- dir_f5b383c0c7108ffd8d1e457c0320638f&#45;&gt;dir_1b3ed615309ca9bc94672b13777cb4d7 -->
<g id="edge1" class="edge">
<title>dir_f5b383c0c7108ffd8d1e457c0320638f&#45;&gt;dir_1b3ed615309ca9bc94672b13777cb4d7</title>
<path fill="none" stroke="#000000" d="M411.5248,-71.6849C405.8896,-66.2892 399.4314,-60.6034 393,-56 381.9358,-48.0807 369.0117,-40.7439 357.1908,-34.6714"/>
<polygon fill="#000000" stroke="#000000" points="358.5144,-31.4203 348.0039,-30.0854 355.3879,-37.6833 358.5144,-31.4203"/>
<g id="a_edge1&#45;headlabel"><a xlink:href="dir_000147_000066.html" target="_top" xlink:title="7">
<text text-anchor="middle" x="362.9986" y="-27.9853" font-family="Helvetica,sans-Serif" font-size="10.00" fill="#000000">7</text>
</a>
</g>
</g>
<!-- dir_32f9351f12aa67b265895c1b344436f0 -->
<g id="node7" class="node">
<title>dir_32f9351f12aa67b265895c1b344436f0</title>
<g id="a_node7"><a xlink:href="dir_32f9351f12aa67b265895c1b344436f0.html" target="_top" xlink:title="g3t1_6">
<polygon fill="#ffffff" stroke="#000000" points="384,-108 330,-108 330,-72 384,-72 384,-108"/>
<text text-anchor="middle" x="357" y="-87.5" font-family="Helvetica,sans-Serif" font-size="10.00" fill="#000000">g3t1_6</text>
</a>
</g>
</g>
<!-- dir_32f9351f12aa67b265895c1b344436f0&#45;&gt;dir_1b3ed615309ca9bc94672b13777cb4d7 -->
<g id="edge5" class="edge">
<title>dir_32f9351f12aa67b265895c1b344436f0&#45;&gt;dir_1b3ed615309ca9bc94672b13777cb4d7</title>
<path fill="none" stroke="#000000" d="M347.9157,-71.8314C343.9385,-63.8771 339.1845,-54.369 334.7861,-45.5723"/>
<polygon fill="#000000" stroke="#000000" points="337.8093,-43.7923 330.2066,-36.4133 331.5483,-46.9228 337.8093,-43.7923"/>
<g id="a_edge5&#45;headlabel"><a xlink:href="dir_000148_000066.html" target="_top" xlink:title="7">
<text text-anchor="middle" x="341.9563" y="-43.2377" font-family="Helvetica,sans-Serif" font-size="10.00" fill="#000000">7</text>
</a>
</g>
</g>
<!-- dir_8bfdeca4f6e72d1b967a406d8c2af3ad -->
<g id="node8" class="node">
<title>dir_8bfdeca4f6e72d1b967a406d8c2af3ad</title>
<g id="a_node8"><a xlink:href="dir_8bfdeca4f6e72d1b967a406d8c2af3ad.html" target="_top" xlink:title="g4t1">
<polygon fill="#ffffff" stroke="#000000" points="78,-108 24,-108 24,-72 78,-72 78,-108"/>
<text text-anchor="middle" x="51" y="-87.5" font-family="Helvetica,sans-Serif" font-size="10.00" fill="#000000">g4t1</text>
</a>
</g>
</g>
<!-- dir_8bfdeca4f6e72d1b967a406d8c2af3ad&#45;&gt;dir_7820f11c4482f02b738474524ce1ba7b -->
<g id="edge7" class="edge">
<title>dir_8bfdeca4f6e72d1b967a406d8c2af3ad&#45;&gt;dir_7820f11c4482f02b738474524ce1ba7b</title>
<path fill="none" stroke="#000000" d="M61.346,-71.8314C65.9237,-63.7925 71.4052,-54.1666 76.4588,-45.2918"/>
<polygon fill="#000000" stroke="#000000" points="79.6077,-46.8351 81.5147,-36.4133 73.5248,-43.3712 79.6077,-46.8351"/>
<g id="a_edge7&#45;headlabel"><a xlink:href="dir_000149_000059.html" target="_top" xlink:title="1">
<text text-anchor="middle" x="80.2963" y="-48.8637" font-family="Helvetica,sans-Serif" font-size="10.00" fill="#000000">1</text>
</a>
</g>
</g>
<!-- dir_8bfdeca4f6e72d1b967a406d8c2af3ad&#45;&gt;dir_1b3ed615309ca9bc94672b13777cb4d7 -->
<g id="edge8" class="edge">
<title>dir_8bfdeca4f6e72d1b967a406d8c2af3ad&#45;&gt;dir_1b3ed615309ca9bc94672b13777cb4d7</title>
<path fill="none" stroke="#000000" d="M66.7328,-71.7592C72.7917,-65.8358 80.1538,-59.8136 88,-56 121.8349,-39.5549 226.9564,-27.1548 283.7288,-21.4548"/>
<polygon fill="#000000" stroke="#000000" points="284.1299,-24.9323 293.7387,-20.469 283.4438,-17.966 284.1299,-24.9323"/>
<g id="a_edge8&#45;headlabel"><a xlink:href="dir_000149_000066.html" target="_top" xlink:title="2">
<text text-anchor="middle" x="280.8309" y="-25.6101" font-family="Helvetica,sans-Serif" font-size="10.00" fill="#000000">2</text>
</a>
</g>
</g>
</g>
</svg>
