<?xml version="1.0" encoding="UTF-8" standalone="no"?>
<!DOCTYPE svg PUBLIC "-//W3C//DTD SVG 1.1//EN"
 "http://www.w3.org/Graphics/SVG/1.1/DTD/svg11.dtd">
<!-- Generated by graphviz version 2.40.1 (20161225.0304)
 -->
<!-- Title: src/sa&#45;bsn/target_system/components/component/include/component/g3t1_2 Pages: 1 -->
<svg width="95pt" height="151pt"
 viewBox="0.00 0.00 95.00 151.00" xmlns="http://www.w3.org/2000/svg" xmlns:xlink="http://www.w3.org/1999/xlink">
<g id="graph0" class="graph" transform="scale(1 1) rotate(0) translate(4 147)">
<title>src/sa&#45;bsn/target_system/components/component/include/component/g3t1_2</title>
<polygon fill="#ffffff" stroke="transparent" points="-4,4 -4,-147 91,-147 91,4 -4,4"/>
<g id="clust1" class="cluster">
<title>clusterdir_18402482242147d3153d76b4ea813b0b</title>
<g id="a_clust1"><a xlink:href="dir_18402482242147d3153d76b4ea813b0b.html" target="_top" xlink:title="component">
<polygon fill="#ddddee" stroke="#000000" points="8,-64 8,-135 79,-135 79,-64 8,-64"/>
<text text-anchor="middle" x="43.5" y="-123" font-family="Helvetica,sans-Serif" font-size="10.00" fill="#000000">component</text>
</a>
</g>
</g>
<!-- dir_7a2efd16d830dc92e0857984052b507e -->
<g id="node1" class="node">
<title>dir_7a2efd16d830dc92e0857984052b507e</title>
<g id="a_node1"><a xlink:href="dir_7a2efd16d830dc92e0857984052b507e.html" target="_top" xlink:title="g3t1_2">
<polygon fill="#eeeeff" stroke="#000000" points="70,-108 16,-108 16,-72 70,-72 70,-108"/>
<text text-anchor="middle" x="43" y="-87.5" font-family="Helvetica,sans-Serif" font-size="10.00" fill="#000000">g3t1_2</text>
</a>
</g>
</g>
<!-- dir_1b3ed615309ca9bc94672b13777cb4d7 -->
<g id="node2" class="node">
<title>dir_1b3ed615309ca9bc94672b13777cb4d7</title>
<g id="a_node2"><a xlink:href="dir_1b3ed615309ca9bc94672b13777cb4d7.html" target="_top" xlink:title="libbsn">
<polygon fill="#ffffff" stroke="#ff0000" points="70,-36 16,-36 16,0 70,0 70,-36"/>
<text text-anchor="middle" x="43" y="-15.5" font-family="Helvetica,sans-Serif" font-size="10.00" fill="#000000">libbsn</text>
</a>
</g>
</g>
<!-- dir_7a2efd16d830dc92e0857984052b507e&#45;&gt;dir_1b3ed615309ca9bc94672b13777cb4d7 -->
<g id="edge1" class="edge">
<title>dir_7a2efd16d830dc92e0857984052b507e&#45;&gt;dir_1b3ed615309ca9bc94672b13777cb4d7</title>
<path fill="none" stroke="#000000" d="M43,-71.8314C43,-64.131 43,-54.9743 43,-46.4166"/>
<polygon fill="#000000" stroke="#000000" points="46.5001,-46.4132 43,-36.4133 39.5001,-46.4133 46.5001,-46.4132"/>
<g id="a_edge1&#45;headlabel"><a xlink:href="dir_000144_000066.html" target="_top" xlink:title="7">
<text text-anchor="middle" x="49.3393" y="-47.5079" font-family="Helvetica,sans-Serif" font-size="10.00" fill="#000000">7</text>
</a>
</g>
</g>
</g>
</svg>
