<?xml version="1.0" encoding="UTF-8" standalone="no"?>
<!DOCTYPE svg PUBLIC "-//W3C//DTD SVG 1.1//EN"
 "http://www.w3.org/Graphics/SVG/1.1/DTD/svg11.dtd">
<!-- Generated by graphviz version 2.40.1 (20161225.0304)
 -->
<!-- Title: src/libbsn/include/libbsn Pages: 1 -->
<svg width="824pt" height="183pt"
 viewBox="0.00 0.00 824.00 183.00" xmlns="http://www.w3.org/2000/svg" xmlns:xlink="http://www.w3.org/1999/xlink">
<g id="graph0" class="graph" transform="scale(1 1) rotate(0) translate(4 179)">
<title>src/libbsn/include/libbsn</title>
<polygon fill="#ffffff" stroke="transparent" points="-4,4 -4,-179 820,-179 820,4 -4,4"/>
<g id="clust1" class="cluster">
<title>clusterdir_df7abd43abb61486b9ff190473949a1d</title>
<g id="a_clust1"><a xlink:href="dir_df7abd43abb61486b9ff190473949a1d.html" target="_top" xlink:title="include">
<polygon fill="#ddddee" stroke="#000000" points="8,-8 8,-167 808,-167 808,-8 8,-8"/>
<text text-anchor="middle" x="408" y="-155" font-family="Helvetica,sans-Serif" font-size="10.00" fill="#000000">include</text>
</a>
</g>
</g>
<g id="clust2" class="cluster">
<title>clusterdir_8f7d975d66dcfbb8005559e9a945d9f0</title>
<g id="a_clust2"><a xlink:href="dir_8f7d975d66dcfbb8005559e9a945d9f0.html" target="_top">
<polygon fill="#eeeeff" stroke="#000000" points="16,-16 16,-140 800,-140 800,-16 16,-16"/>
</a>
</g>
</g>
<!-- dir_8f7d975d66dcfbb8005559e9a945d9f0 -->
<g id="node1" class="node">
<title>dir_8f7d975d66dcfbb8005559e9a945d9f0</title>
<text text-anchor="middle" x="765" y="-111.5" font-family="Helvetica,sans-Serif" font-size="10.00" fill="#000000">libbsn</text>
</g>
<!-- dir_8a676fa8bf3676acc0e762ad519b41c1 -->
<g id="node2" class="node">
<title>dir_8a676fa8bf3676acc0e762ad519b41c1</title>
<g id="a_node2"><a xlink:href="dir_8a676fa8bf3676acc0e762ad519b41c1.html" target="_top" xlink:title="configuration">
<polygon fill="#ffffff" stroke="#000000" points="720,-132 640,-132 640,-96 720,-96 720,-132"/>
<text text-anchor="middle" x="680" y="-111.5" font-family="Helvetica,sans-Serif" font-size="10.00" fill="#000000">configuration</text>
</a>
</g>
</g>
<!-- dir_c03ba0c34b20eec6a4a6bb325bd4c427 -->
<g id="node8" class="node">
<title>dir_c03ba0c34b20eec6a4a6bb325bd4c427</title>
<g id="a_node8"><a xlink:href="dir_c03ba0c34b20eec6a4a6bb325bd4c427.html" target="_top" xlink:title="range">
<polygon fill="#ffffff" stroke="#000000" points="626,-60 572,-60 572,-24 626,-24 626,-60"/>
<text text-anchor="middle" x="599" y="-39.5" font-family="Helvetica,sans-Serif" font-size="10.00" fill="#000000">range</text>
</a>
</g>
</g>
<!-- dir_8a676fa8bf3676acc0e762ad519b41c1&#45;&gt;dir_c03ba0c34b20eec6a4a6bb325bd4c427 -->
<g id="edge2" class="edge">
<title>dir_8a676fa8bf3676acc0e762ad519b41c1&#45;&gt;dir_c03ba0c34b20eec6a4a6bb325bd4c427</title>
<path fill="none" stroke="#000000" d="M659.5603,-95.8314C649.6795,-87.0485 637.6676,-76.3712 626.955,-66.8489"/>
<polygon fill="#000000" stroke="#000000" points="629.2326,-64.1906 619.4332,-60.1628 624.582,-69.4224 629.2326,-64.1906"/>
<g id="a_edge2&#45;headlabel"><a xlink:href="dir_000070_000076.html" target="_top" xlink:title="1">
<text text-anchor="middle" x="633.8055" y="-61.9566" font-family="Helvetica,sans-Serif" font-size="10.00" fill="#000000">1</text>
</a>
</g>
</g>
<!-- dir_490c93b2d178fe0cb5faeea327b9b551 -->
<g id="node3" class="node">
<title>dir_490c93b2d178fe0cb5faeea327b9b551</title>
<g id="a_node3"><a xlink:href="dir_490c93b2d178fe0cb5faeea327b9b551.html" target="_top" xlink:title="filters">
<polygon fill="#ffffff" stroke="#000000" points="622,-132 568,-132 568,-96 622,-96 622,-132"/>
<text text-anchor="middle" x="595" y="-111.5" font-family="Helvetica,sans-Serif" font-size="10.00" fill="#000000">filters</text>
</a>
</g>
</g>
<!-- dir_643fe34f7b2bdc1442276ebc87b3cb2f -->
<g id="node4" class="node">
<title>dir_643fe34f7b2bdc1442276ebc87b3cb2f</title>
<g id="a_node4"><a xlink:href="dir_643fe34f7b2bdc1442276ebc87b3cb2f.html" target="_top" xlink:title="generator">
<polygon fill="#ffffff" stroke="#000000" points="550,-132 486,-132 486,-96 550,-96 550,-132"/>
<text text-anchor="middle" x="518" y="-111.5" font-family="Helvetica,sans-Serif" font-size="10.00" fill="#000000">generator</text>
</a>
</g>
</g>
<!-- dir_643fe34f7b2bdc1442276ebc87b3cb2f&#45;&gt;dir_c03ba0c34b20eec6a4a6bb325bd4c427 -->
<g id="edge1" class="edge">
<title>dir_643fe34f7b2bdc1442276ebc87b3cb2f&#45;&gt;dir_c03ba0c34b20eec6a4a6bb325bd4c427</title>
<path fill="none" stroke="#000000" d="M538.4397,-95.8314C548.3205,-87.0485 560.3324,-76.3712 571.045,-66.8489"/>
<polygon fill="#000000" stroke="#000000" points="573.418,-69.4224 578.5668,-60.1628 568.7674,-64.1906 573.418,-69.4224"/>
<g id="a_edge1&#45;headlabel"><a xlink:href="dir_000072_000076.html" target="_top" xlink:title="1">
<text text-anchor="middle" x="572.6177" y="-71.4326" font-family="Helvetica,sans-Serif" font-size="10.00" fill="#000000">1</text>
</a>
</g>
</g>
<!-- dir_4a90a0391c9fad23deb9cff6e18623ae -->
<g id="node5" class="node">
<title>dir_4a90a0391c9fad23deb9cff6e18623ae</title>
<g id="a_node5"><a xlink:href="dir_4a90a0391c9fad23deb9cff6e18623ae.html" target="_top" xlink:title="goalmodel">
<polygon fill="#ffffff" stroke="#000000" points="468,-132 400,-132 400,-96 468,-96 468,-132"/>
<text text-anchor="middle" x="434" y="-111.5" font-family="Helvetica,sans-Serif" font-size="10.00" fill="#000000">goalmodel</text>
</a>
</g>
</g>
<!-- dir_e346bdf11713f0ab8422da634091a0da -->
<g id="node6" class="node">
<title>dir_e346bdf11713f0ab8422da634091a0da</title>
<g id="a_node6"><a xlink:href="dir_e346bdf11713f0ab8422da634091a0da.html" target="_top" xlink:title="model">
<polygon fill="#ffffff" stroke="#000000" points="382,-132 328,-132 328,-96 382,-96 382,-132"/>
<text text-anchor="middle" x="355" y="-111.5" font-family="Helvetica,sans-Serif" font-size="10.00" fill="#000000">model</text>
</a>
</g>
</g>
<!-- dir_22bd3ae72c8b9ac44162bfdb06f014a2 -->
<g id="node7" class="node">
<title>dir_22bd3ae72c8b9ac44162bfdb06f014a2</title>
<g id="a_node7"><a xlink:href="dir_22bd3ae72c8b9ac44162bfdb06f014a2.html" target="_top" xlink:title="processor">
<polygon fill="#ffffff" stroke="#000000" points="310,-132 246,-132 246,-96 310,-96 310,-132"/>
<text text-anchor="middle" x="278" y="-111.5" font-family="Helvetica,sans-Serif" font-size="10.00" fill="#000000">processor</text>
</a>
</g>
</g>
<!-- dir_cc2e5613f4416c0a7e7f289fb7ba109d -->
<g id="node9" class="node">
<title>dir_cc2e5613f4416c0a7e7f289fb7ba109d</title>
<g id="a_node9"><a xlink:href="dir_cc2e5613f4416c0a7e7f289fb7ba109d.html" target="_top" xlink:title="resource">
<polygon fill="#ffffff" stroke="#000000" points="227.5,-132 168.5,-132 168.5,-96 227.5,-96 227.5,-132"/>
<text text-anchor="middle" x="198" y="-111.5" font-family="Helvetica,sans-Serif" font-size="10.00" fill="#000000">resource</text>
</a>
</g>
</g>
<!-- dir_800ec9653fc75de31ddb83b9b3a787bc -->
<g id="node10" class="node">
<title>dir_800ec9653fc75de31ddb83b9b3a787bc</title>
<g id="a_node10"><a xlink:href="dir_800ec9653fc75de31ddb83b9b3a787bc.html" target="_top" xlink:title="time">
<polygon fill="#ffffff" stroke="#000000" points="150,-132 96,-132 96,-96 150,-96 150,-132"/>
<text text-anchor="middle" x="123" y="-111.5" font-family="Helvetica,sans-Serif" font-size="10.00" fill="#000000">time</text>
</a>
</g>
</g>
<!-- dir_905bfabc4a82641fdd63268e9d9707f0 -->
<g id="node11" class="node">
<title>dir_905bfabc4a82641fdd63268e9d9707f0</title>
<g id="a_node11"><a xlink:href="dir_905bfabc4a82641fdd63268e9d9707f0.html" target="_top" xlink:title="utils">
<polygon fill="#ffffff" stroke="#000000" points="78,-132 24,-132 24,-96 78,-96 78,-132"/>
<text text-anchor="middle" x="51" y="-111.5" font-family="Helvetica,sans-Serif" font-size="10.00" fill="#000000">utils</text>
</a>
</g>
</g>
</g>
</svg>
