<?xml version="1.0" encoding="UTF-8" standalone="no"?>
<!DOCTYPE svg PUBLIC "-//W3C//DTD SVG 1.1//EN"
 "http://www.w3.org/Graphics/SVG/1.1/DTD/svg11.dtd">
<!-- Generated by graphviz version 2.40.1 (20161225.0304)
 -->
<!-- Title: src/sa&#45;bsn/environment Pages: 1 -->
<svg width="219pt" height="159pt"
 viewBox="0.00 0.00 219.00 159.00" xmlns="http://www.w3.org/2000/svg" xmlns:xlink="http://www.w3.org/1999/xlink">
<g id="graph0" class="graph" transform="scale(1 1) rotate(0) translate(4 155)">
<title>src/sa&#45;bsn/environment</title>
<polygon fill="#ffffff" stroke="transparent" points="-4,4 -4,-155 215,-155 215,4 -4,4"/>
<g id="clust1" class="cluster">
<title>clusterdir_67bfdd06b9e1d9840810a9d51e07a67d</title>
<g id="a_clust1"><a xlink:href="dir_67bfdd06b9e1d9840810a9d51e07a67d.html" target="_top" xlink:title="sa&#45;bsn">
<polygon fill="#ddddee" stroke="#000000" points="20,-56 20,-143 203,-143 203,-56 20,-56"/>
<text text-anchor="middle" x="111.5" y="-131" font-family="Helvetica,sans-Serif" font-size="10.00" fill="#000000">sa&#45;bsn</text>
</a>
</g>
</g>
<g id="clust2" class="cluster">
<title>clusterdir_749ff10de60b3471b204734c07089d11</title>
<g id="a_clust2"><a xlink:href="dir_749ff10de60b3471b204734c07089d11.html" target="_top">
<polygon fill="#eeeeff" stroke="#000000" points="28,-64 28,-116 195,-116 195,-64 28,-64"/>
</a>
</g>
</g>
<!-- dir_749ff10de60b3471b204734c07089d11 -->
<g id="node1" class="node">
<title>dir_749ff10de60b3471b204734c07089d11</title>
<text text-anchor="middle" x="148" y="-87.5" font-family="Helvetica,sans-Serif" font-size="10.00" fill="#000000">environment</text>
</g>
<!-- dir_a002fd1ebd906690227ee829db4612d7 -->
<g id="node2" class="node">
<title>dir_a002fd1ebd906690227ee829db4612d7</title>
<g id="a_node2"><a xlink:href="dir_a002fd1ebd906690227ee829db4612d7.html" target="_top" xlink:title="patient">
<polygon fill="#ffffff" stroke="#ff0000" points="90,-108 36,-108 36,-72 90,-72 90,-108"/>
<text text-anchor="middle" x="63" y="-87.5" font-family="Helvetica,sans-Serif" font-size="10.00" fill="#000000">patient</text>
</a>
</g>
</g>
<!-- dir_7820f11c4482f02b738474524ce1ba7b -->
<g id="node3" class="node">
<title>dir_7820f11c4482f02b738474524ce1ba7b</title>
<g id="a_node3"><a xlink:href="dir_7820f11c4482f02b738474524ce1ba7b.html" target="_top" xlink:title="archlib">
<polygon fill="#ffffff" stroke="#ff0000" points="54,-36 0,-36 0,0 54,0 54,-36"/>
<text text-anchor="middle" x="27" y="-15.5" font-family="Helvetica,sans-Serif" font-size="10.00" fill="#000000">archlib</text>
</a>
</g>
</g>
<!-- dir_a002fd1ebd906690227ee829db4612d7&#45;&gt;dir_7820f11c4482f02b738474524ce1ba7b -->
<g id="edge1" class="edge">
<title>dir_a002fd1ebd906690227ee829db4612d7&#45;&gt;dir_7820f11c4482f02b738474524ce1ba7b</title>
<path fill="none" stroke="#000000" d="M53.9157,-71.8314C49.9385,-63.8771 45.1845,-54.369 40.7861,-45.5723"/>
<polygon fill="#000000" stroke="#000000" points="43.8093,-43.7923 36.2066,-36.4133 37.5483,-46.9228 43.8093,-43.7923"/>
<g id="a_edge1&#45;headlabel"><a xlink:href="dir_000103_000059.html" target="_top" xlink:title="1">
<text text-anchor="middle" x="47.9563" y="-43.2377" font-family="Helvetica,sans-Serif" font-size="10.00" fill="#000000">1</text>
</a>
</g>
</g>
<!-- dir_1b3ed615309ca9bc94672b13777cb4d7 -->
<g id="node4" class="node">
<title>dir_1b3ed615309ca9bc94672b13777cb4d7</title>
<g id="a_node4"><a xlink:href="dir_1b3ed615309ca9bc94672b13777cb4d7.html" target="_top" xlink:title="libbsn">
<polygon fill="#ffffff" stroke="#ff0000" points="126,-36 72,-36 72,0 126,0 126,-36"/>
<text text-anchor="middle" x="99" y="-15.5" font-family="Helvetica,sans-Serif" font-size="10.00" fill="#000000">libbsn</text>
</a>
</g>
</g>
<!-- dir_a002fd1ebd906690227ee829db4612d7&#45;&gt;dir_1b3ed615309ca9bc94672b13777cb4d7 -->
<g id="edge2" class="edge">
<title>dir_a002fd1ebd906690227ee829db4612d7&#45;&gt;dir_1b3ed615309ca9bc94672b13777cb4d7</title>
<path fill="none" stroke="#000000" d="M72.0843,-71.8314C76.0615,-63.8771 80.8155,-54.369 85.2139,-45.5723"/>
<polygon fill="#000000" stroke="#000000" points="88.4517,-46.9228 89.7934,-36.4133 82.1907,-43.7923 88.4517,-46.9228"/>
<g id="a_edge2&#45;headlabel"><a xlink:href="dir_000103_000066.html" target="_top" xlink:title="3">
<text text-anchor="middle" x="89.3837" y="-48.9077" font-family="Helvetica,sans-Serif" font-size="10.00" fill="#000000">3</text>
</a>
</g>
</g>
</g>
</svg>
