<?xml version="1.0" encoding="UTF-8" standalone="no"?>
<!DOCTYPE svg PUBLIC "-//W3C//DTD SVG 1.1//EN"
 "http://www.w3.org/Graphics/SVG/1.1/DTD/svg11.dtd">
<!-- Generated by graphviz version 2.40.1 (20161225.0304)
 -->
<!-- Title: src/archlib/src Pages: 1 -->
<svg width="216pt" height="159pt"
 viewBox="0.00 0.00 216.00 159.00" xmlns="http://www.w3.org/2000/svg" xmlns:xlink="http://www.w3.org/1999/xlink">
<g id="graph0" class="graph" transform="scale(1 1) rotate(0) translate(4 155)">
<title>src/archlib/src</title>
<polygon fill="#ffffff" stroke="transparent" points="-4,4 -4,-155 212,-155 212,4 -4,4"/>
<g id="clust1" class="cluster">
<title>clusterdir_7820f11c4482f02b738474524ce1ba7b</title>
<g id="a_clust1"><a xlink:href="dir_7820f11c4482f02b738474524ce1ba7b.html" target="_top" xlink:title="archlib">
<polygon fill="#ddddee" stroke="#000000" points="8,-56 8,-143 200,-143 200,-56 8,-56"/>
<text text-anchor="middle" x="104" y="-131" font-family="Helvetica,sans-Serif" font-size="10.00" fill="#000000">archlib</text>
</a>
</g>
</g>
<g id="clust2" class="cluster">
<title>clusterdir_383c43fd0da3a69e1b7af261769a27c7</title>
<g id="a_clust2"><a xlink:href="dir_383c43fd0da3a69e1b7af261769a27c7.html" target="_top">
<polygon fill="#eeeeff" stroke="#000000" points="16,-64 16,-116 192,-116 192,-64 16,-64"/>
</a>
</g>
</g>
<!-- dir_383c43fd0da3a69e1b7af261769a27c7 -->
<g id="node1" class="node">
<title>dir_383c43fd0da3a69e1b7af261769a27c7</title>
<text text-anchor="middle" x="157" y="-87.5" font-family="Helvetica,sans-Serif" font-size="10.00" fill="#000000">src</text>
</g>
<!-- dir_67f664916e4a84898a9ed61e29be9a4d -->
<g id="node3" class="node">
<title>dir_67f664916e4a84898a9ed61e29be9a4d</title>
<g id="a_node3"><a xlink:href="dir_67f664916e4a84898a9ed61e29be9a4d.html" target="_top" xlink:title="include">
<polygon fill="#ffffff" stroke="#ff0000" points="139,-36 85,-36 85,0 139,0 139,-36"/>
<text text-anchor="middle" x="112" y="-15.5" font-family="Helvetica,sans-Serif" font-size="10.00" fill="#000000">include</text>
</a>
</g>
</g>
<!-- dir_383c43fd0da3a69e1b7af261769a27c7&#45;&gt;dir_67f664916e4a84898a9ed61e29be9a4d -->
<g id="edge2" class="edge">
<title>dir_383c43fd0da3a69e1b7af261769a27c7&#45;&gt;dir_67f664916e4a84898a9ed61e29be9a4d</title>
<path fill="none" stroke="#000000" d="M145.6446,-71.8314C140.5674,-63.7079 134.4773,-53.9637 128.8824,-45.0118"/>
<polygon fill="#000000" stroke="#000000" points="131.7763,-43.0383 123.5083,-36.4133 125.8403,-46.7483 131.7763,-43.0383"/>
<g id="a_edge2&#45;headlabel"><a xlink:href="dir_000063_000060.html" target="_top" xlink:title="5">
<text text-anchor="middle" x="136.0891" y="-42.0817" font-family="Helvetica,sans-Serif" font-size="10.00" fill="#000000">5</text>
</a>
</g>
</g>
<!-- dir_e9cab8cc8a7f6a9707f8911617fd4baf -->
<g id="node2" class="node">
<title>dir_e9cab8cc8a7f6a9707f8911617fd4baf</title>
<g id="a_node2"><a xlink:href="dir_e9cab8cc8a7f6a9707f8911617fd4baf.html" target="_top" xlink:title="target_system">
<polygon fill="#ffffff" stroke="#000000" points="111.5,-108 24.5,-108 24.5,-72 111.5,-72 111.5,-108"/>
<text text-anchor="middle" x="68" y="-87.5" font-family="Helvetica,sans-Serif" font-size="10.00" fill="#000000">target_system</text>
</a>
</g>
</g>
<!-- dir_e9cab8cc8a7f6a9707f8911617fd4baf&#45;&gt;dir_67f664916e4a84898a9ed61e29be9a4d -->
<g id="edge1" class="edge">
<title>dir_e9cab8cc8a7f6a9707f8911617fd4baf&#45;&gt;dir_67f664916e4a84898a9ed61e29be9a4d</title>
<path fill="none" stroke="#000000" d="M79.1031,-71.8314C84.0674,-63.7079 90.0222,-53.9637 95.4928,-45.0118"/>
<polygon fill="#000000" stroke="#000000" points="98.5194,-46.7712 100.7474,-36.4133 92.5464,-43.121 98.5194,-46.7712"/>
<g id="a_edge1&#45;headlabel"><a xlink:href="dir_000064_000060.html" target="_top" xlink:title="3">
<text text-anchor="middle" x="99.0677" y="-48.8189" font-family="Helvetica,sans-Serif" font-size="10.00" fill="#000000">3</text>
</a>
</g>
</g>
</g>
</svg>
