<?xml version="1.0" encoding="UTF-8" standalone="no"?>
<!DOCTYPE svg PUBLIC "-//W3C//DTD SVG 1.1//EN"
 "http://www.w3.org/Graphics/SVG/1.1/DTD/svg11.dtd">
<!-- Generated by graphviz version 2.40.1 (20161225.0304)
 -->
<!-- Title: src/sa&#45;bsn/simulation/injector/include Pages: 1 -->
<svg width="134pt" height="151pt"
 viewBox="0.00 0.00 134.00 151.00" xmlns="http://www.w3.org/2000/svg" xmlns:xlink="http://www.w3.org/1999/xlink">
<g id="graph0" class="graph" transform="scale(1 1) rotate(0) translate(4 147)">
<title>src/sa&#45;bsn/simulation/injector/include</title>
<polygon fill="#ffffff" stroke="transparent" points="-4,4 -4,-147 130,-147 130,4 -4,4"/>
<g id="clust1" class="cluster">
<title>clusterdir_337eef705d22193098767f9854e5a52f</title>
<g id="a_clust1"><a xlink:href="dir_337eef705d22193098767f9854e5a52f.html" target="_top" xlink:title="injector">
<polygon fill="#ddddee" stroke="#000000" points="28,-64 28,-135 98,-135 98,-64 28,-64"/>
<text text-anchor="middle" x="63" y="-123" font-family="Helvetica,sans-Serif" font-size="10.00" fill="#000000">injector</text>
</a>
</g>
</g>
<!-- dir_ccca917a6867a44e02405f971e0e01a3 -->
<g id="node1" class="node">
<title>dir_ccca917a6867a44e02405f971e0e01a3</title>
<g id="a_node1"><a xlink:href="dir_ccca917a6867a44e02405f971e0e01a3.html" target="_top" xlink:title="include">
<polygon fill="#eeeeff" stroke="#000000" points="90,-108 36,-108 36,-72 90,-72 90,-108"/>
<text text-anchor="middle" x="63" y="-87.5" font-family="Helvetica,sans-Serif" font-size="10.00" fill="#000000">include</text>
</a>
</g>
</g>
<!-- dir_7820f11c4482f02b738474524ce1ba7b -->
<g id="node2" class="node">
<title>dir_7820f11c4482f02b738474524ce1ba7b</title>
<g id="a_node2"><a xlink:href="dir_7820f11c4482f02b738474524ce1ba7b.html" target="_top" xlink:title="archlib">
<polygon fill="#ffffff" stroke="#ff0000" points="54,-36 0,-36 0,0 54,0 54,-36"/>
<text text-anchor="middle" x="27" y="-15.5" font-family="Helvetica,sans-Serif" font-size="10.00" fill="#000000">archlib</text>
</a>
</g>
</g>
<!-- dir_ccca917a6867a44e02405f971e0e01a3&#45;&gt;dir_7820f11c4482f02b738474524ce1ba7b -->
<g id="edge1" class="edge">
<title>dir_ccca917a6867a44e02405f971e0e01a3&#45;&gt;dir_7820f11c4482f02b738474524ce1ba7b</title>
<path fill="none" stroke="#000000" d="M53.9157,-71.8314C49.9385,-63.8771 45.1845,-54.369 40.7861,-45.5723"/>
<polygon fill="#000000" stroke="#000000" points="43.8093,-43.7923 36.2066,-36.4133 37.5483,-46.9228 43.8093,-43.7923"/>
<g id="a_edge1&#45;headlabel"><a xlink:href="dir_000123_000059.html" target="_top" xlink:title="1">
<text text-anchor="middle" x="47.9563" y="-43.2377" font-family="Helvetica,sans-Serif" font-size="10.00" fill="#000000">1</text>
</a>
</g>
</g>
<!-- dir_1b3ed615309ca9bc94672b13777cb4d7 -->
<g id="node3" class="node">
<title>dir_1b3ed615309ca9bc94672b13777cb4d7</title>
<g id="a_node3"><a xlink:href="dir_1b3ed615309ca9bc94672b13777cb4d7.html" target="_top" xlink:title="libbsn">
<polygon fill="#ffffff" stroke="#ff0000" points="126,-36 72,-36 72,0 126,0 126,-36"/>
<text text-anchor="middle" x="99" y="-15.5" font-family="Helvetica,sans-Serif" font-size="10.00" fill="#000000">libbsn</text>
</a>
</g>
</g>
<!-- dir_ccca917a6867a44e02405f971e0e01a3&#45;&gt;dir_1b3ed615309ca9bc94672b13777cb4d7 -->
<g id="edge2" class="edge">
<title>dir_ccca917a6867a44e02405f971e0e01a3&#45;&gt;dir_1b3ed615309ca9bc94672b13777cb4d7</title>
<path fill="none" stroke="#000000" d="M72.0843,-71.8314C76.0615,-63.8771 80.8155,-54.369 85.2139,-45.5723"/>
<polygon fill="#000000" stroke="#000000" points="88.4517,-46.9228 89.7934,-36.4133 82.1907,-43.7923 88.4517,-46.9228"/>
<g id="a_edge2&#45;headlabel"><a xlink:href="dir_000123_000066.html" target="_top" xlink:title="1">
<text text-anchor="middle" x="89.3837" y="-48.9077" font-family="Helvetica,sans-Serif" font-size="10.00" fill="#000000">1</text>
</a>
</g>
</g>
</g>
</svg>
