<?xml version="1.0" encoding="UTF-8" standalone="no"?>
<!DOCTYPE svg PUBLIC "-//W3C//DTD SVG 1.1//EN"
 "http://www.w3.org/Graphics/SVG/1.1/DTD/svg11.dtd">
<!-- Generated by graphviz version 2.40.1 (20161225.0304)
 -->
<!-- Title: src/sa&#45;bsn/target_system/effectors/param_adapter/include/param_adapter Pages: 1 -->
<svg width="132pt" height="151pt"
 viewBox="0.00 0.00 132.00 151.00" xmlns="http://www.w3.org/2000/svg" xmlns:xlink="http://www.w3.org/1999/xlink">
<g id="graph0" class="graph" transform="scale(1 1) rotate(0) translate(4 147)">
<title>src/sa&#45;bsn/target_system/effectors/param_adapter/include/param_adapter</title>
<polygon fill="#ffffff" stroke="transparent" points="-4,4 -4,-147 128,-147 128,4 -4,4"/>
<g id="clust1" class="cluster">
<title>clusterdir_541953cd7281d88cebf7c74217de7a4c</title>
<g id="a_clust1"><a xlink:href="dir_541953cd7281d88cebf7c74217de7a4c.html" target="_top" xlink:title="include">
<polygon fill="#ddddee" stroke="#000000" points="8,-64 8,-135 116,-135 116,-64 8,-64"/>
<text text-anchor="middle" x="62" y="-123" font-family="Helvetica,sans-Serif" font-size="10.00" fill="#000000">include</text>
</a>
</g>
</g>
<!-- dir_a6b5881846e822b1c16223f7a90cd9aa -->
<g id="node1" class="node">
<title>dir_a6b5881846e822b1c16223f7a90cd9aa</title>
<g id="a_node1"><a xlink:href="dir_a6b5881846e822b1c16223f7a90cd9aa.html" target="_top" xlink:title="param_adapter">
<polygon fill="#eeeeff" stroke="#000000" points="107.5,-108 16.5,-108 16.5,-72 107.5,-72 107.5,-108"/>
<text text-anchor="middle" x="62" y="-87.5" font-family="Helvetica,sans-Serif" font-size="10.00" fill="#000000">param_adapter</text>
</a>
</g>
</g>
<!-- dir_7820f11c4482f02b738474524ce1ba7b -->
<g id="node2" class="node">
<title>dir_7820f11c4482f02b738474524ce1ba7b</title>
<g id="a_node2"><a xlink:href="dir_7820f11c4482f02b738474524ce1ba7b.html" target="_top" xlink:title="archlib">
<polygon fill="#ffffff" stroke="#ff0000" points="89,-36 35,-36 35,0 89,0 89,-36"/>
<text text-anchor="middle" x="62" y="-15.5" font-family="Helvetica,sans-Serif" font-size="10.00" fill="#000000">archlib</text>
</a>
</g>
</g>
<!-- dir_a6b5881846e822b1c16223f7a90cd9aa&#45;&gt;dir_7820f11c4482f02b738474524ce1ba7b -->
<g id="edge1" class="edge">
<title>dir_a6b5881846e822b1c16223f7a90cd9aa&#45;&gt;dir_7820f11c4482f02b738474524ce1ba7b</title>
<path fill="none" stroke="#000000" d="M62,-71.8314C62,-64.131 62,-54.9743 62,-46.4166"/>
<polygon fill="#000000" stroke="#000000" points="65.5001,-46.4132 62,-36.4133 58.5001,-46.4133 65.5001,-46.4132"/>
<g id="a_edge1&#45;headlabel"><a xlink:href="dir_000162_000059.html" target="_top" xlink:title="1">
<text text-anchor="middle" x="68.3393" y="-47.5079" font-family="Helvetica,sans-Serif" font-size="10.00" fill="#000000">1</text>
</a>
</g>
</g>
</g>
</svg>
