<?xml version="1.0" encoding="UTF-8" standalone="no"?>
<!DOCTYPE svg PUBLIC "-//W3C//DTD SVG 1.1//EN"
 "http://www.w3.org/Graphics/SVG/1.1/DTD/svg11.dtd">
<!-- Generated by graphviz version 2.40.1 (20161225.0304)
 -->
<!-- Title: src/sa&#45;bsn/target_system/components/component/include Pages: 1 -->
<svg width="203pt" height="159pt"
 viewBox="0.00 0.00 203.00 159.00" xmlns="http://www.w3.org/2000/svg" xmlns:xlink="http://www.w3.org/1999/xlink">
<g id="graph0" class="graph" transform="scale(1 1) rotate(0) translate(4 155)">
<title>src/sa&#45;bsn/target_system/components/component/include</title>
<polygon fill="#ffffff" stroke="transparent" points="-4,4 -4,-155 199,-155 199,4 -4,4"/>
<g id="clust1" class="cluster">
<title>clusterdir_f70c295ff28c301a61b043dc8bc45c28</title>
<g id="a_clust1"><a xlink:href="dir_f70c295ff28c301a61b043dc8bc45c28.html" target="_top" xlink:title="component">
<polygon fill="#ddddee" stroke="#000000" points="11,-56 11,-143 187,-143 187,-56 11,-56"/>
<text text-anchor="middle" x="99" y="-131" font-family="Helvetica,sans-Serif" font-size="10.00" fill="#000000">component</text>
</a>
</g>
</g>
<g id="clust2" class="cluster">
<title>clusterdir_f03eb50f104db3cea34c702cbda0e1eb</title>
<g id="a_clust2"><a xlink:href="dir_f03eb50f104db3cea34c702cbda0e1eb.html" target="_top">
<polygon fill="#eeeeff" stroke="#000000" points="19,-64 19,-116 179,-116 179,-64 19,-64"/>
</a>
</g>
</g>
<!-- dir_f03eb50f104db3cea34c702cbda0e1eb -->
<g id="node1" class="node">
<title>dir_f03eb50f104db3cea34c702cbda0e1eb</title>
<text text-anchor="middle" x="144" y="-87.5" font-family="Helvetica,sans-Serif" font-size="10.00" fill="#000000">include</text>
</g>
<!-- dir_18402482242147d3153d76b4ea813b0b -->
<g id="node2" class="node">
<title>dir_18402482242147d3153d76b4ea813b0b</title>
<g id="a_node2"><a xlink:href="dir_18402482242147d3153d76b4ea813b0b.html" target="_top" xlink:title="component">
<polygon fill="#ffffff" stroke="#ff0000" points="98.5,-108 27.5,-108 27.5,-72 98.5,-72 98.5,-108"/>
<text text-anchor="middle" x="63" y="-87.5" font-family="Helvetica,sans-Serif" font-size="10.00" fill="#000000">component</text>
</a>
</g>
</g>
<!-- dir_7820f11c4482f02b738474524ce1ba7b -->
<g id="node3" class="node">
<title>dir_7820f11c4482f02b738474524ce1ba7b</title>
<g id="a_node3"><a xlink:href="dir_7820f11c4482f02b738474524ce1ba7b.html" target="_top" xlink:title="archlib">
<polygon fill="#ffffff" stroke="#ff0000" points="54,-36 0,-36 0,0 54,0 54,-36"/>
<text text-anchor="middle" x="27" y="-15.5" font-family="Helvetica,sans-Serif" font-size="10.00" fill="#000000">archlib</text>
</a>
</g>
</g>
<!-- dir_18402482242147d3153d76b4ea813b0b&#45;&gt;dir_7820f11c4482f02b738474524ce1ba7b -->
<g id="edge1" class="edge">
<title>dir_18402482242147d3153d76b4ea813b0b&#45;&gt;dir_7820f11c4482f02b738474524ce1ba7b</title>
<path fill="none" stroke="#000000" d="M53.9157,-71.8314C49.9385,-63.8771 45.1845,-54.369 40.7861,-45.5723"/>
<polygon fill="#000000" stroke="#000000" points="43.8093,-43.7923 36.2066,-36.4133 37.5483,-46.9228 43.8093,-43.7923"/>
<g id="a_edge1&#45;headlabel"><a xlink:href="dir_000142_000059.html" target="_top" xlink:title="3">
<text text-anchor="middle" x="47.9563" y="-43.2377" font-family="Helvetica,sans-Serif" font-size="10.00" fill="#000000">3</text>
</a>
</g>
</g>
<!-- dir_1b3ed615309ca9bc94672b13777cb4d7 -->
<g id="node4" class="node">
<title>dir_1b3ed615309ca9bc94672b13777cb4d7</title>
<g id="a_node4"><a xlink:href="dir_1b3ed615309ca9bc94672b13777cb4d7.html" target="_top" xlink:title="libbsn">
<polygon fill="#ffffff" stroke="#ff0000" points="126,-36 72,-36 72,0 126,0 126,-36"/>
<text text-anchor="middle" x="99" y="-15.5" font-family="Helvetica,sans-Serif" font-size="10.00" fill="#000000">libbsn</text>
</a>
</g>
</g>
<!-- dir_18402482242147d3153d76b4ea813b0b&#45;&gt;dir_1b3ed615309ca9bc94672b13777cb4d7 -->
<g id="edge2" class="edge">
<title>dir_18402482242147d3153d76b4ea813b0b&#45;&gt;dir_1b3ed615309ca9bc94672b13777cb4d7</title>
<path fill="none" stroke="#000000" d="M72.0843,-71.8314C76.0615,-63.8771 80.8155,-54.369 85.2139,-45.5723"/>
<polygon fill="#000000" stroke="#000000" points="88.4517,-46.9228 89.7934,-36.4133 82.1907,-43.7923 88.4517,-46.9228"/>
<g id="a_edge2&#45;headlabel"><a xlink:href="dir_000142_000066.html" target="_top" xlink:title="48">
<text text-anchor="middle" x="89.3837" y="-48.9077" font-family="Helvetica,sans-Serif" font-size="10.00" fill="#000000">48</text>
</a>
</g>
</g>
</g>
</svg>
