<?xml version="1.0" encoding="UTF-8" standalone="no"?>
<!DOCTYPE svg PUBLIC "-//W3C//DTD SVG 1.1//EN"
 "http://www.w3.org/Graphics/SVG/1.1/DTD/svg11.dtd">
<!-- Generated by graphviz version 2.40.1 (20161225.0304)
 -->
<!-- Title: src/sa&#45;bsn/system_manager/enactor/include Pages: 1 -->
<svg width="199pt" height="231pt"
 viewBox="0.00 0.00 199.00 231.00" xmlns="http://www.w3.org/2000/svg" xmlns:xlink="http://www.w3.org/1999/xlink">
<g id="graph0" class="graph" transform="scale(1 1) rotate(0) translate(4 227)">
<title>src/sa&#45;bsn/system_manager/enactor/include</title>
<polygon fill="#ffffff" stroke="transparent" points="-4,4 -4,-227 195,-227 195,4 -4,4"/>
<g id="clust1" class="cluster">
<title>clusterdir_4608eee037232a547391c866eb6a4619</title>
<g id="a_clust1"><a xlink:href="dir_4608eee037232a547391c866eb6a4619.html" target="_top" xlink:title="enactor">
<polygon fill="#ddddee" stroke="#000000" points="15,-56 15,-215 183,-215 183,-56 15,-56"/>
<text text-anchor="middle" x="99" y="-203" font-family="Helvetica,sans-Serif" font-size="10.00" fill="#000000">enactor</text>
</a>
</g>
</g>
<g id="clust2" class="cluster">
<title>clusterdir_1f1d08cbadb67c7a44454216c00b3c3c</title>
<g id="a_clust2"><a xlink:href="dir_1f1d08cbadb67c7a44454216c00b3c3c.html" target="_top">
<polygon fill="#eeeeff" stroke="#000000" points="23,-64 23,-188 175,-188 175,-64 23,-64"/>
</a>
</g>
</g>
<!-- dir_1f1d08cbadb67c7a44454216c00b3c3c -->
<g id="node1" class="node">
<title>dir_1f1d08cbadb67c7a44454216c00b3c3c</title>
<text text-anchor="middle" x="140" y="-159.5" font-family="Helvetica,sans-Serif" font-size="10.00" fill="#000000">include</text>
</g>
<!-- dir_c33613a292a310e39c057f1f598baed4 -->
<g id="node2" class="node">
<title>dir_c33613a292a310e39c057f1f598baed4</title>
<g id="a_node2"><a xlink:href="dir_c33613a292a310e39c057f1f598baed4.html" target="_top" xlink:title="controller">
<polygon fill="#ffffff" stroke="#000000" points="94.5,-180 31.5,-180 31.5,-144 94.5,-144 94.5,-180"/>
<text text-anchor="middle" x="63" y="-159.5" font-family="Helvetica,sans-Serif" font-size="10.00" fill="#000000">controller</text>
</a>
</g>
</g>
<!-- dir_4cfa5d186d967e0d0dc4c5e3b4ed19a5 -->
<g id="node3" class="node">
<title>dir_4cfa5d186d967e0d0dc4c5e3b4ed19a5</title>
<g id="a_node3"><a xlink:href="dir_4cfa5d186d967e0d0dc4c5e3b4ed19a5.html" target="_top" xlink:title="enactor">
<polygon fill="#ffffff" stroke="#000000" points="90,-108 36,-108 36,-72 90,-72 90,-108"/>
<text text-anchor="middle" x="63" y="-87.5" font-family="Helvetica,sans-Serif" font-size="10.00" fill="#000000">enactor</text>
</a>
</g>
</g>
<!-- dir_c33613a292a310e39c057f1f598baed4&#45;&gt;dir_4cfa5d186d967e0d0dc4c5e3b4ed19a5 -->
<g id="edge1" class="edge">
<title>dir_c33613a292a310e39c057f1f598baed4&#45;&gt;dir_4cfa5d186d967e0d0dc4c5e3b4ed19a5</title>
<path fill="none" stroke="#000000" d="M63,-143.8314C63,-136.131 63,-126.9743 63,-118.4166"/>
<polygon fill="#000000" stroke="#000000" points="66.5001,-118.4132 63,-108.4133 59.5001,-118.4133 66.5001,-118.4132"/>
<g id="a_edge1&#45;headlabel"><a xlink:href="dir_000134_000135.html" target="_top" xlink:title="1">
<text text-anchor="middle" x="69.3393" y="-119.5079" font-family="Helvetica,sans-Serif" font-size="10.00" fill="#000000">1</text>
</a>
</g>
</g>
<!-- dir_7820f11c4482f02b738474524ce1ba7b -->
<g id="node4" class="node">
<title>dir_7820f11c4482f02b738474524ce1ba7b</title>
<g id="a_node4"><a xlink:href="dir_7820f11c4482f02b738474524ce1ba7b.html" target="_top" xlink:title="archlib">
<polygon fill="#ffffff" stroke="#ff0000" points="54,-36 0,-36 0,0 54,0 54,-36"/>
<text text-anchor="middle" x="27" y="-15.5" font-family="Helvetica,sans-Serif" font-size="10.00" fill="#000000">archlib</text>
</a>
</g>
</g>
<!-- dir_4cfa5d186d967e0d0dc4c5e3b4ed19a5&#45;&gt;dir_7820f11c4482f02b738474524ce1ba7b -->
<g id="edge2" class="edge">
<title>dir_4cfa5d186d967e0d0dc4c5e3b4ed19a5&#45;&gt;dir_7820f11c4482f02b738474524ce1ba7b</title>
<path fill="none" stroke="#000000" d="M53.9157,-71.8314C49.9385,-63.8771 45.1845,-54.369 40.7861,-45.5723"/>
<polygon fill="#000000" stroke="#000000" points="43.8093,-43.7923 36.2066,-36.4133 37.5483,-46.9228 43.8093,-43.7923"/>
<g id="a_edge2&#45;headlabel"><a xlink:href="dir_000135_000059.html" target="_top" xlink:title="1">
<text text-anchor="middle" x="47.9563" y="-43.2377" font-family="Helvetica,sans-Serif" font-size="10.00" fill="#000000">1</text>
</a>
</g>
</g>
<!-- dir_1b3ed615309ca9bc94672b13777cb4d7 -->
<g id="node5" class="node">
<title>dir_1b3ed615309ca9bc94672b13777cb4d7</title>
<g id="a_node5"><a xlink:href="dir_1b3ed615309ca9bc94672b13777cb4d7.html" target="_top" xlink:title="libbsn">
<polygon fill="#ffffff" stroke="#ff0000" points="126,-36 72,-36 72,0 126,0 126,-36"/>
<text text-anchor="middle" x="99" y="-15.5" font-family="Helvetica,sans-Serif" font-size="10.00" fill="#000000">libbsn</text>
</a>
</g>
</g>
<!-- dir_4cfa5d186d967e0d0dc4c5e3b4ed19a5&#45;&gt;dir_1b3ed615309ca9bc94672b13777cb4d7 -->
<g id="edge3" class="edge">
<title>dir_4cfa5d186d967e0d0dc4c5e3b4ed19a5&#45;&gt;dir_1b3ed615309ca9bc94672b13777cb4d7</title>
<path fill="none" stroke="#000000" d="M72.0843,-71.8314C76.0615,-63.8771 80.8155,-54.369 85.2139,-45.5723"/>
<polygon fill="#000000" stroke="#000000" points="88.4517,-46.9228 89.7934,-36.4133 82.1907,-43.7923 88.4517,-46.9228"/>
<g id="a_edge3&#45;headlabel"><a xlink:href="dir_000135_000066.html" target="_top" xlink:title="1">
<text text-anchor="middle" x="89.3837" y="-48.9077" font-family="Helvetica,sans-Serif" font-size="10.00" fill="#000000">1</text>
</a>
</g>
</g>
</g>
</svg>
