<?xml version="1.0" encoding="UTF-8" standalone="no"?>
<!DOCTYPE svg PUBLIC "-//W3C//DTD SVG 1.1//EN"
 "http://www.w3.org/Graphics/SVG/1.1/DTD/svg11.dtd">
<!-- Generated by graphviz version 2.40.1 (20161225.0304)
 -->
<!-- Title: src/sa&#45;bsn/target_system/components/component Pages: 1 -->
<svg width="272pt" height="231pt"
 viewBox="0.00 0.00 272.00 231.00" xmlns="http://www.w3.org/2000/svg" xmlns:xlink="http://www.w3.org/1999/xlink">
<g id="graph0" class="graph" transform="scale(1 1) rotate(0) translate(4 227)">
<title>src/sa&#45;bsn/target_system/components/component</title>
<polygon fill="#ffffff" stroke="transparent" points="-4,4 -4,-227 268,-227 268,4 -4,4"/>
<g id="clust1" class="cluster">
<title>clusterdir_ae8593cfd9c55bfa5bb70cc8923d9ba7</title>
<g id="a_clust1"><a xlink:href="dir_ae8593cfd9c55bfa5bb70cc8923d9ba7.html" target="_top" xlink:title="components">
<polygon fill="#ddddee" stroke="#000000" points="8,-56 8,-215 256,-215 256,-56 8,-56"/>
<text text-anchor="middle" x="132" y="-203" font-family="Helvetica,sans-Serif" font-size="10.00" fill="#000000">components</text>
</a>
</g>
</g>
<g id="clust2" class="cluster">
<title>clusterdir_f70c295ff28c301a61b043dc8bc45c28</title>
<g id="a_clust2"><a xlink:href="dir_f70c295ff28c301a61b043dc8bc45c28.html" target="_top">
<polygon fill="#eeeeff" stroke="#000000" points="16,-64 16,-188 248,-188 248,-64 16,-64"/>
</a>
</g>
</g>
<!-- dir_f70c295ff28c301a61b043dc8bc45c28 -->
<g id="node1" class="node">
<title>dir_f70c295ff28c301a61b043dc8bc45c28</title>
<text text-anchor="middle" x="204" y="-159.5" font-family="Helvetica,sans-Serif" font-size="10.00" fill="#000000">component</text>
</g>
<!-- dir_c65bd38cc15a47d47c2d95ca9cdd2092 -->
<g id="node2" class="node">
<title>dir_c65bd38cc15a47d47c2d95ca9cdd2092</title>
<g id="a_node2"><a xlink:href="dir_c65bd38cc15a47d47c2d95ca9cdd2092.html" target="_top" xlink:title="apps">
<polygon fill="#ffffff" stroke="#000000" points="150,-180 96,-180 96,-144 150,-144 150,-180"/>
<text text-anchor="middle" x="123" y="-159.5" font-family="Helvetica,sans-Serif" font-size="10.00" fill="#000000">apps</text>
</a>
</g>
</g>
<!-- dir_f03eb50f104db3cea34c702cbda0e1eb -->
<g id="node3" class="node">
<title>dir_f03eb50f104db3cea34c702cbda0e1eb</title>
<g id="a_node3"><a xlink:href="dir_f03eb50f104db3cea34c702cbda0e1eb.html" target="_top" xlink:title="include">
<polygon fill="#ffffff" stroke="#ff0000" points="114,-108 60,-108 60,-72 114,-72 114,-108"/>
<text text-anchor="middle" x="87" y="-87.5" font-family="Helvetica,sans-Serif" font-size="10.00" fill="#000000">include</text>
</a>
</g>
</g>
<!-- dir_c65bd38cc15a47d47c2d95ca9cdd2092&#45;&gt;dir_f03eb50f104db3cea34c702cbda0e1eb -->
<g id="edge3" class="edge">
<title>dir_c65bd38cc15a47d47c2d95ca9cdd2092&#45;&gt;dir_f03eb50f104db3cea34c702cbda0e1eb</title>
<path fill="none" stroke="#000000" d="M113.9157,-143.8314C109.9385,-135.8771 105.1845,-126.369 100.7861,-117.5723"/>
<polygon fill="#000000" stroke="#000000" points="103.8093,-115.7923 96.2066,-108.4133 97.5483,-118.9228 103.8093,-115.7923"/>
<g id="a_edge3&#45;headlabel"><a xlink:href="dir_000140_000141.html" target="_top" xlink:title="7">
<text text-anchor="middle" x="107.9563" y="-115.2377" font-family="Helvetica,sans-Serif" font-size="10.00" fill="#000000">7</text>
</a>
</g>
</g>
<!-- dir_7820f11c4482f02b738474524ce1ba7b -->
<g id="node5" class="node">
<title>dir_7820f11c4482f02b738474524ce1ba7b</title>
<g id="a_node5"><a xlink:href="dir_7820f11c4482f02b738474524ce1ba7b.html" target="_top" xlink:title="archlib">
<polygon fill="#ffffff" stroke="#ff0000" points="78,-36 24,-36 24,0 78,0 78,-36"/>
<text text-anchor="middle" x="51" y="-15.5" font-family="Helvetica,sans-Serif" font-size="10.00" fill="#000000">archlib</text>
</a>
</g>
</g>
<!-- dir_f03eb50f104db3cea34c702cbda0e1eb&#45;&gt;dir_7820f11c4482f02b738474524ce1ba7b -->
<g id="edge1" class="edge">
<title>dir_f03eb50f104db3cea34c702cbda0e1eb&#45;&gt;dir_7820f11c4482f02b738474524ce1ba7b</title>
<path fill="none" stroke="#000000" d="M77.9157,-71.8314C73.9385,-63.8771 69.1845,-54.369 64.7861,-45.5723"/>
<polygon fill="#000000" stroke="#000000" points="67.8093,-43.7923 60.2066,-36.4133 61.5483,-46.9228 67.8093,-43.7923"/>
<g id="a_edge1&#45;headlabel"><a xlink:href="dir_000141_000059.html" target="_top" xlink:title="3">
<text text-anchor="middle" x="71.9563" y="-43.2377" font-family="Helvetica,sans-Serif" font-size="10.00" fill="#000000">3</text>
</a>
</g>
</g>
<!-- dir_1b3ed615309ca9bc94672b13777cb4d7 -->
<g id="node6" class="node">
<title>dir_1b3ed615309ca9bc94672b13777cb4d7</title>
<g id="a_node6"><a xlink:href="dir_1b3ed615309ca9bc94672b13777cb4d7.html" target="_top" xlink:title="libbsn">
<polygon fill="#ffffff" stroke="#ff0000" points="150,-36 96,-36 96,0 150,0 150,-36"/>
<text text-anchor="middle" x="123" y="-15.5" font-family="Helvetica,sans-Serif" font-size="10.00" fill="#000000">libbsn</text>
</a>
</g>
</g>
<!-- dir_f03eb50f104db3cea34c702cbda0e1eb&#45;&gt;dir_1b3ed615309ca9bc94672b13777cb4d7 -->
<g id="edge2" class="edge">
<title>dir_f03eb50f104db3cea34c702cbda0e1eb&#45;&gt;dir_1b3ed615309ca9bc94672b13777cb4d7</title>
<path fill="none" stroke="#000000" d="M96.0843,-71.8314C100.0615,-63.8771 104.8155,-54.369 109.2139,-45.5723"/>
<polygon fill="#000000" stroke="#000000" points="112.4517,-46.9228 113.7934,-36.4133 106.1907,-43.7923 112.4517,-46.9228"/>
<g id="a_edge2&#45;headlabel"><a xlink:href="dir_000141_000066.html" target="_top" xlink:title="48">
<text text-anchor="middle" x="113.3837" y="-48.9077" font-family="Helvetica,sans-Serif" font-size="10.00" fill="#000000">48</text>
</a>
</g>
</g>
<!-- dir_b9cf9d22fcea8e4f52eabf3378ba0335 -->
<g id="node4" class="node">
<title>dir_b9cf9d22fcea8e4f52eabf3378ba0335</title>
<g id="a_node4"><a xlink:href="dir_b9cf9d22fcea8e4f52eabf3378ba0335.html" target="_top" xlink:title="src">
<polygon fill="#ffffff" stroke="#ff0000" points="78,-180 24,-180 24,-144 78,-144 78,-180"/>
<text text-anchor="middle" x="51" y="-159.5" font-family="Helvetica,sans-Serif" font-size="10.00" fill="#000000">src</text>
</a>
</g>
</g>
<!-- dir_b9cf9d22fcea8e4f52eabf3378ba0335&#45;&gt;dir_f03eb50f104db3cea34c702cbda0e1eb -->
<g id="edge4" class="edge">
<title>dir_b9cf9d22fcea8e4f52eabf3378ba0335&#45;&gt;dir_f03eb50f104db3cea34c702cbda0e1eb</title>
<path fill="none" stroke="#000000" d="M60.0843,-143.8314C64.0615,-135.8771 68.8155,-126.369 73.2139,-117.5723"/>
<polygon fill="#000000" stroke="#000000" points="76.4517,-118.9228 77.7934,-108.4133 70.1907,-115.7923 76.4517,-118.9228"/>
<g id="a_edge4&#45;headlabel"><a xlink:href="dir_000150_000141.html" target="_top" xlink:title="9">
<text text-anchor="middle" x="77.3837" y="-120.9077" font-family="Helvetica,sans-Serif" font-size="10.00" fill="#000000">9</text>
</a>
</g>
</g>
</g>
</svg>
