<?xml version="1.0" encoding="UTF-8" standalone="no"?>
<!DOCTYPE svg PUBLIC "-//W3C//DTD SVG 1.1//EN"
 "http://www.w3.org/Graphics/SVG/1.1/DTD/svg11.dtd">
<!-- Generated by graphviz version 2.40.1 (20161225.0304)
 -->
<!-- Title: src/libbsn/test/unit Pages: 1 -->
<svg width="752pt" height="159pt"
 viewBox="0.00 0.00 752.00 159.00" xmlns="http://www.w3.org/2000/svg" xmlns:xlink="http://www.w3.org/1999/xlink">
<g id="graph0" class="graph" transform="scale(1 1) rotate(0) translate(4 155)">
<title>src/libbsn/test/unit</title>
<polygon fill="#ffffff" stroke="transparent" points="-4,4 -4,-155 748,-155 748,4 -4,4"/>
<g id="clust1" class="cluster">
<title>clusterdir_e31ccf83aab957b8b80ff899d1817acb</title>
<g id="a_clust1"><a xlink:href="dir_e31ccf83aab957b8b80ff899d1817acb.html" target="_top" xlink:title="test">
<polygon fill="#ddddee" stroke="#000000" points="8,-56 8,-143 736,-143 736,-56 8,-56"/>
<text text-anchor="middle" x="372" y="-131" font-family="Helvetica,sans-Serif" font-size="10.00" fill="#000000">test</text>
</a>
</g>
</g>
<g id="clust2" class="cluster">
<title>clusterdir_8a85ae842fccf6dd55a5bc532a0817cd</title>
<g id="a_clust2"><a xlink:href="dir_8a85ae842fccf6dd55a5bc532a0817cd.html" target="_top">
<polygon fill="#eeeeff" stroke="#000000" points="16,-64 16,-116 728,-116 728,-64 16,-64"/>
</a>
</g>
</g>
<!-- dir_8a85ae842fccf6dd55a5bc532a0817cd -->
<g id="node1" class="node">
<title>dir_8a85ae842fccf6dd55a5bc532a0817cd</title>
<text text-anchor="middle" x="693" y="-87.5" font-family="Helvetica,sans-Serif" font-size="10.00" fill="#000000">unit</text>
</g>
<!-- dir_8106fafbed4ddf20cb43f1892c0321ae -->
<g id="node2" class="node">
<title>dir_8106fafbed4ddf20cb43f1892c0321ae</title>
<g id="a_node2"><a xlink:href="dir_8106fafbed4ddf20cb43f1892c0321ae.html" target="_top" xlink:title="configuration">
<polygon fill="#ffffff" stroke="#000000" points="648,-108 568,-108 568,-72 648,-72 648,-108"/>
<text text-anchor="middle" x="608" y="-87.5" font-family="Helvetica,sans-Serif" font-size="10.00" fill="#000000">configuration</text>
</a>
</g>
</g>
<!-- dir_df7abd43abb61486b9ff190473949a1d -->
<g id="node10" class="node">
<title>dir_df7abd43abb61486b9ff190473949a1d</title>
<g id="a_node10"><a xlink:href="dir_df7abd43abb61486b9ff190473949a1d.html" target="_top" xlink:title="include">
<polygon fill="#ffffff" stroke="#ff0000" points="349,-36 295,-36 295,0 349,0 349,-36"/>
<text text-anchor="middle" x="322" y="-15.5" font-family="Helvetica,sans-Serif" font-size="10.00" fill="#000000">include</text>
</a>
</g>
</g>
<!-- dir_8106fafbed4ddf20cb43f1892c0321ae&#45;&gt;dir_df7abd43abb61486b9ff190473949a1d -->
<g id="edge6" class="edge">
<title>dir_8106fafbed4ddf20cb43f1892c0321ae&#45;&gt;dir_df7abd43abb61486b9ff190473949a1d</title>
<path fill="none" stroke="#000000" d="M586.2891,-71.8193C578.1827,-65.9015 568.6049,-59.8675 559,-56 523.4284,-41.6768 416.5091,-28.3078 359.2148,-21.924"/>
<polygon fill="#000000" stroke="#000000" points="359.4451,-18.4283 349.1226,-20.8146 358.6802,-25.3864 359.4451,-18.4283"/>
<g id="a_edge6&#45;headlabel"><a xlink:href="dir_000093_000068.html" target="_top" xlink:title="1">
<text text-anchor="middle" x="363.3284" y="-13.4987" font-family="Helvetica,sans-Serif" font-size="10.00" fill="#000000">1</text>
</a>
</g>
</g>
<!-- dir_767bdcfdaaf68601724a0cbdaf2c6973 -->
<g id="node3" class="node">
<title>dir_767bdcfdaaf68601724a0cbdaf2c6973</title>
<g id="a_node3"><a xlink:href="dir_767bdcfdaaf68601724a0cbdaf2c6973.html" target="_top" xlink:title="filters">
<polygon fill="#ffffff" stroke="#000000" points="550,-108 496,-108 496,-72 550,-72 550,-108"/>
<text text-anchor="middle" x="523" y="-87.5" font-family="Helvetica,sans-Serif" font-size="10.00" fill="#000000">filters</text>
</a>
</g>
</g>
<!-- dir_767bdcfdaaf68601724a0cbdaf2c6973&#45;&gt;dir_df7abd43abb61486b9ff190473949a1d -->
<g id="edge3" class="edge">
<title>dir_767bdcfdaaf68601724a0cbdaf2c6973&#45;&gt;dir_df7abd43abb61486b9ff190473949a1d</title>
<path fill="none" stroke="#000000" d="M507.2753,-71.6774C501.4436,-65.8914 494.4272,-59.9768 487,-56 446.6055,-34.3712 394.2297,-24.9931 359.4392,-20.9659"/>
<polygon fill="#000000" stroke="#000000" points="359.5537,-17.4584 349.2394,-19.8802 358.8127,-24.4191 359.5537,-17.4584"/>
<g id="a_edge3&#45;headlabel"><a xlink:href="dir_000094_000068.html" target="_top" xlink:title="1">
<text text-anchor="middle" x="363.4286" y="-12.5155" font-family="Helvetica,sans-Serif" font-size="10.00" fill="#000000">1</text>
</a>
</g>
</g>
<!-- dir_79350f939b25a915f557458d0cc2e1a5 -->
<g id="node4" class="node">
<title>dir_79350f939b25a915f557458d0cc2e1a5</title>
<g id="a_node4"><a xlink:href="dir_79350f939b25a915f557458d0cc2e1a5.html" target="_top" xlink:title="generator">
<polygon fill="#ffffff" stroke="#000000" points="478,-108 414,-108 414,-72 478,-72 478,-108"/>
<text text-anchor="middle" x="446" y="-87.5" font-family="Helvetica,sans-Serif" font-size="10.00" fill="#000000">generator</text>
</a>
</g>
</g>
<!-- dir_79350f939b25a915f557458d0cc2e1a5&#45;&gt;dir_df7abd43abb61486b9ff190473949a1d -->
<g id="edge7" class="edge">
<title>dir_79350f939b25a915f557458d0cc2e1a5&#45;&gt;dir_df7abd43abb61486b9ff190473949a1d</title>
<path fill="none" stroke="#000000" d="M426.367,-71.9402C419.8438,-66.4356 412.3607,-60.6234 405,-56 390.4683,-46.8723 373.3804,-38.6677 358.4985,-32.2383"/>
<polygon fill="#000000" stroke="#000000" points="359.6613,-28.9304 349.0866,-28.2778 356.9463,-35.3825 359.6613,-28.9304"/>
<g id="a_edge7&#45;headlabel"><a xlink:href="dir_000095_000068.html" target="_top" xlink:title="3">
<text text-anchor="middle" x="364.0758" y="-25.2076" font-family="Helvetica,sans-Serif" font-size="10.00" fill="#000000">3</text>
</a>
</g>
</g>
<!-- dir_5eda84fa59c1ae7978ecd0f74c139fde -->
<g id="node5" class="node">
<title>dir_5eda84fa59c1ae7978ecd0f74c139fde</title>
<g id="a_node5"><a xlink:href="dir_5eda84fa59c1ae7978ecd0f74c139fde.html" target="_top" xlink:title="goalmodel">
<polygon fill="#ffffff" stroke="#000000" points="396,-108 328,-108 328,-72 396,-72 396,-108"/>
<text text-anchor="middle" x="362" y="-87.5" font-family="Helvetica,sans-Serif" font-size="10.00" fill="#000000">goalmodel</text>
</a>
</g>
</g>
<!-- dir_5eda84fa59c1ae7978ecd0f74c139fde&#45;&gt;dir_df7abd43abb61486b9ff190473949a1d -->
<g id="edge1" class="edge">
<title>dir_5eda84fa59c1ae7978ecd0f74c139fde&#45;&gt;dir_df7abd43abb61486b9ff190473949a1d</title>
<path fill="none" stroke="#000000" d="M351.9063,-71.8314C347.4403,-63.7925 342.0925,-54.1666 337.1621,-45.2918"/>
<polygon fill="#000000" stroke="#000000" points="340.1456,-43.4551 332.2296,-36.4133 334.0265,-46.8546 340.1456,-43.4551"/>
<g id="a_edge1&#45;headlabel"><a xlink:href="dir_000096_000068.html" target="_top" xlink:title="20">
<text text-anchor="middle" x="344.3732" y="-42.7185" font-family="Helvetica,sans-Serif" font-size="10.00" fill="#000000">20</text>
</a>
</g>
</g>
<!-- dir_e8b34cca3a5eead221961dfd3508031b -->
<g id="node6" class="node">
<title>dir_e8b34cca3a5eead221961dfd3508031b</title>
<g id="a_node6"><a xlink:href="dir_e8b34cca3a5eead221961dfd3508031b.html" target="_top" xlink:title="model">
<polygon fill="#ffffff" stroke="#000000" points="310,-108 256,-108 256,-72 310,-72 310,-108"/>
<text text-anchor="middle" x="283" y="-87.5" font-family="Helvetica,sans-Serif" font-size="10.00" fill="#000000">model</text>
</a>
</g>
</g>
<!-- dir_e8b34cca3a5eead221961dfd3508031b&#45;&gt;dir_df7abd43abb61486b9ff190473949a1d -->
<g id="edge4" class="edge">
<title>dir_e8b34cca3a5eead221961dfd3508031b&#45;&gt;dir_df7abd43abb61486b9ff190473949a1d</title>
<path fill="none" stroke="#000000" d="M292.8413,-71.8314C297.1957,-63.7925 302.4098,-54.1666 307.2169,-45.2918"/>
<polygon fill="#000000" stroke="#000000" points="310.3408,-46.8732 312.0261,-36.4133 304.1857,-43.5392 310.3408,-46.8732"/>
<g id="a_edge4&#45;headlabel"><a xlink:href="dir_000097_000068.html" target="_top" xlink:title="1">
<text text-anchor="middle" x="311.1253" y="-48.8862" font-family="Helvetica,sans-Serif" font-size="10.00" fill="#000000">1</text>
</a>
</g>
</g>
<!-- dir_65b4b1a6c3484b83c13e5eb0d1f6ef3a -->
<g id="node7" class="node">
<title>dir_65b4b1a6c3484b83c13e5eb0d1f6ef3a</title>
<g id="a_node7"><a xlink:href="dir_65b4b1a6c3484b83c13e5eb0d1f6ef3a.html" target="_top" xlink:title="processor">
<polygon fill="#ffffff" stroke="#000000" points="238,-108 174,-108 174,-72 238,-72 238,-108"/>
<text text-anchor="middle" x="206" y="-87.5" font-family="Helvetica,sans-Serif" font-size="10.00" fill="#000000">processor</text>
</a>
</g>
</g>
<!-- dir_65b4b1a6c3484b83c13e5eb0d1f6ef3a&#45;&gt;dir_df7abd43abb61486b9ff190473949a1d -->
<g id="edge8" class="edge">
<title>dir_65b4b1a6c3484b83c13e5eb0d1f6ef3a&#45;&gt;dir_df7abd43abb61486b9ff190473949a1d</title>
<path fill="none" stroke="#000000" d="M226.1628,-71.7631C232.5912,-66.3705 239.8869,-60.6669 247,-56 259.0595,-48.0878 272.9833,-40.6221 285.5355,-34.4371"/>
<polygon fill="#000000" stroke="#000000" points="287.3212,-37.462 294.8134,-29.9708 284.2849,-31.1548 287.3212,-37.462"/>
<g id="a_edge8&#45;headlabel"><a xlink:href="dir_000098_000068.html" target="_top" xlink:title="1">
<text text-anchor="middle" x="285.3138" y="-39.0794" font-family="Helvetica,sans-Serif" font-size="10.00" fill="#000000">1</text>
</a>
</g>
</g>
<!-- dir_8aaca1c22752f9128014d771225f2b26 -->
<g id="node8" class="node">
<title>dir_8aaca1c22752f9128014d771225f2b26</title>
<g id="a_node8"><a xlink:href="dir_8aaca1c22752f9128014d771225f2b26.html" target="_top" xlink:title="range">
<polygon fill="#ffffff" stroke="#000000" points="156,-108 102,-108 102,-72 156,-72 156,-108"/>
<text text-anchor="middle" x="129" y="-87.5" font-family="Helvetica,sans-Serif" font-size="10.00" fill="#000000">range</text>
</a>
</g>
</g>
<!-- dir_8aaca1c22752f9128014d771225f2b26&#45;&gt;dir_df7abd43abb61486b9ff190473949a1d -->
<g id="edge5" class="edge">
<title>dir_8aaca1c22752f9128014d771225f2b26&#45;&gt;dir_df7abd43abb61486b9ff190473949a1d</title>
<path fill="none" stroke="#000000" d="M144.7501,-71.7245C150.5838,-65.9423 157.595,-60.018 165,-56 202.8113,-35.4832 251.6803,-25.9101 284.7789,-21.5322"/>
<polygon fill="#000000" stroke="#000000" points="285.4376,-24.9777 294.937,-20.2861 284.5852,-18.0298 285.4376,-24.9777"/>
<g id="a_edge5&#45;headlabel"><a xlink:href="dir_000099_000068.html" target="_top" xlink:title="1">
<text text-anchor="middle" x="282.2154" y="-25.7335" font-family="Helvetica,sans-Serif" font-size="10.00" fill="#000000">1</text>
</a>
</g>
</g>
<!-- dir_075374ab8f38a69df0d8c357ef30806b -->
<g id="node9" class="node">
<title>dir_075374ab8f38a69df0d8c357ef30806b</title>
<g id="a_node9"><a xlink:href="dir_075374ab8f38a69df0d8c357ef30806b.html" target="_top" xlink:title="resource">
<polygon fill="#ffffff" stroke="#000000" points="83.5,-108 24.5,-108 24.5,-72 83.5,-72 83.5,-108"/>
<text text-anchor="middle" x="54" y="-87.5" font-family="Helvetica,sans-Serif" font-size="10.00" fill="#000000">resource</text>
</a>
</g>
</g>
<!-- dir_075374ab8f38a69df0d8c357ef30806b&#45;&gt;dir_df7abd43abb61486b9ff190473949a1d -->
<g id="edge2" class="edge">
<title>dir_075374ab8f38a69df0d8c357ef30806b&#45;&gt;dir_df7abd43abb61486b9ff190473949a1d</title>
<path fill="none" stroke="#000000" d="M70.7459,-71.7797C77.1477,-65.8582 84.8758,-59.8319 93,-56 126.301,-40.293 228.73,-27.6487 284.6394,-21.6971"/>
<polygon fill="#000000" stroke="#000000" points="285.2569,-25.1518 294.8387,-20.6308 284.5289,-18.1897 285.2569,-25.1518"/>
<g id="a_edge2&#45;headlabel"><a xlink:href="dir_000100_000068.html" target="_top" xlink:title="1">
<text text-anchor="middle" x="281.977" y="-25.8493" font-family="Helvetica,sans-Serif" font-size="10.00" fill="#000000">1</text>
</a>
</g>
</g>
</g>
</svg>
