<?xml version="1.0" encoding="UTF-8" standalone="no"?>
<!DOCTYPE svg PUBLIC "-//W3C//DTD SVG 1.1//EN"
 "http://www.w3.org/Graphics/SVG/1.1/DTD/svg11.dtd">
<!-- Generated by graphviz version 2.40.1 (20161225.0304)
 -->
<!-- Title: src/archlib/src/target_system Pages: 1 -->
<svg width="128pt" height="151pt"
 viewBox="0.00 0.00 128.00 151.00" xmlns="http://www.w3.org/2000/svg" xmlns:xlink="http://www.w3.org/1999/xlink">
<g id="graph0" class="graph" transform="scale(1 1) rotate(0) translate(4 147)">
<title>src/archlib/src/target_system</title>
<polygon fill="#ffffff" stroke="transparent" points="-4,4 -4,-147 124,-147 124,4 -4,4"/>
<g id="clust1" class="cluster">
<title>clusterdir_383c43fd0da3a69e1b7af261769a27c7</title>
<g id="a_clust1"><a xlink:href="dir_383c43fd0da3a69e1b7af261769a27c7.html" target="_top" xlink:title="src">
<polygon fill="#ddddee" stroke="#000000" points="8,-64 8,-135 112,-135 112,-64 8,-64"/>
<text text-anchor="middle" x="60" y="-123" font-family="Helvetica,sans-Serif" font-size="10.00" fill="#000000">src</text>
</a>
</g>
</g>
<!-- dir_e9cab8cc8a7f6a9707f8911617fd4baf -->
<g id="node1" class="node">
<title>dir_e9cab8cc8a7f6a9707f8911617fd4baf</title>
<g id="a_node1"><a xlink:href="dir_e9cab8cc8a7f6a9707f8911617fd4baf.html" target="_top" xlink:title="target_system">
<polygon fill="#eeeeff" stroke="#000000" points="103.5,-108 16.5,-108 16.5,-72 103.5,-72 103.5,-108"/>
<text text-anchor="middle" x="60" y="-87.5" font-family="Helvetica,sans-Serif" font-size="10.00" fill="#000000">target_system</text>
</a>
</g>
</g>
<!-- dir_67f664916e4a84898a9ed61e29be9a4d -->
<g id="node2" class="node">
<title>dir_67f664916e4a84898a9ed61e29be9a4d</title>
<g id="a_node2"><a xlink:href="dir_67f664916e4a84898a9ed61e29be9a4d.html" target="_top" xlink:title="include">
<polygon fill="#ffffff" stroke="#ff0000" points="87,-36 33,-36 33,0 87,0 87,-36"/>
<text text-anchor="middle" x="60" y="-15.5" font-family="Helvetica,sans-Serif" font-size="10.00" fill="#000000">include</text>
</a>
</g>
</g>
<!-- dir_e9cab8cc8a7f6a9707f8911617fd4baf&#45;&gt;dir_67f664916e4a84898a9ed61e29be9a4d -->
<g id="edge1" class="edge">
<title>dir_e9cab8cc8a7f6a9707f8911617fd4baf&#45;&gt;dir_67f664916e4a84898a9ed61e29be9a4d</title>
<path fill="none" stroke="#000000" d="M60,-71.8314C60,-64.131 60,-54.9743 60,-46.4166"/>
<polygon fill="#000000" stroke="#000000" points="63.5001,-46.4132 60,-36.4133 56.5001,-46.4133 63.5001,-46.4132"/>
<g id="a_edge1&#45;headlabel"><a xlink:href="dir_000064_000060.html" target="_top" xlink:title="3">
<text text-anchor="middle" x="66.3393" y="-47.5079" font-family="Helvetica,sans-Serif" font-size="10.00" fill="#000000">3</text>
</a>
</g>
</g>
</g>
</svg>
