<?xml version="1.0" encoding="UTF-8" standalone="no"?>
<!DOCTYPE svg PUBLIC "-//W3C//DTD SVG 1.1//EN"
 "http://www.w3.org/Graphics/SVG/1.1/DTD/svg11.dtd">
<!-- Generated by graphviz version 2.40.1 (20161225.0304)
 -->
<!-- Title: src/sa&#45;bsn/target_system/probes/collector Pages: 1 -->
<svg width="188pt" height="159pt"
 viewBox="0.00 0.00 188.00 159.00" xmlns="http://www.w3.org/2000/svg" xmlns:xlink="http://www.w3.org/1999/xlink">
<g id="graph0" class="graph" transform="scale(1 1) rotate(0) translate(4 155)">
<title>src/sa&#45;bsn/target_system/probes/collector</title>
<polygon fill="#ffffff" stroke="transparent" points="-4,4 -4,-155 184,-155 184,4 -4,4"/>
<g id="clust1" class="cluster">
<title>clusterdir_0a05d3b0c9861b6955a9ad600ba25401</title>
<g id="a_clust1"><a xlink:href="dir_0a05d3b0c9861b6955a9ad600ba25401.html" target="_top" xlink:title="probes">
<polygon fill="#ddddee" stroke="#000000" points="8,-56 8,-143 172,-143 172,-56 8,-56"/>
<text text-anchor="middle" x="90" y="-131" font-family="Helvetica,sans-Serif" font-size="10.00" fill="#000000">probes</text>
</a>
</g>
</g>
<g id="clust2" class="cluster">
<title>clusterdir_e0abd878bbdc0cd9749a6fc42c383798</title>
<g id="a_clust2"><a xlink:href="dir_e0abd878bbdc0cd9749a6fc42c383798.html" target="_top">
<polygon fill="#eeeeff" stroke="#000000" points="16,-64 16,-116 164,-116 164,-64 16,-64"/>
</a>
</g>
</g>
<!-- dir_e0abd878bbdc0cd9749a6fc42c383798 -->
<g id="node1" class="node">
<title>dir_e0abd878bbdc0cd9749a6fc42c383798</title>
<text text-anchor="middle" x="126" y="-87.5" font-family="Helvetica,sans-Serif" font-size="10.00" fill="#000000">collector</text>
</g>
<!-- dir_b0b52fa4030ffb1c8da49a9a5ada0fe1 -->
<g id="node2" class="node">
<title>dir_b0b52fa4030ffb1c8da49a9a5ada0fe1</title>
<g id="a_node2"><a xlink:href="dir_b0b52fa4030ffb1c8da49a9a5ada0fe1.html" target="_top" xlink:title="apps">
<polygon fill="#ffffff" stroke="#000000" points="78,-108 24,-108 24,-72 78,-72 78,-108"/>
<text text-anchor="middle" x="51" y="-87.5" font-family="Helvetica,sans-Serif" font-size="10.00" fill="#000000">apps</text>
</a>
</g>
</g>
<!-- dir_7820f11c4482f02b738474524ce1ba7b -->
<g id="node3" class="node">
<title>dir_7820f11c4482f02b738474524ce1ba7b</title>
<g id="a_node3"><a xlink:href="dir_7820f11c4482f02b738474524ce1ba7b.html" target="_top" xlink:title="archlib">
<polygon fill="#ffffff" stroke="#ff0000" points="78,-36 24,-36 24,0 78,0 78,-36"/>
<text text-anchor="middle" x="51" y="-15.5" font-family="Helvetica,sans-Serif" font-size="10.00" fill="#000000">archlib</text>
</a>
</g>
</g>
<!-- dir_b0b52fa4030ffb1c8da49a9a5ada0fe1&#45;&gt;dir_7820f11c4482f02b738474524ce1ba7b -->
<g id="edge1" class="edge">
<title>dir_b0b52fa4030ffb1c8da49a9a5ada0fe1&#45;&gt;dir_7820f11c4482f02b738474524ce1ba7b</title>
<path fill="none" stroke="#000000" d="M51,-71.8314C51,-64.131 51,-54.9743 51,-46.4166"/>
<polygon fill="#000000" stroke="#000000" points="54.5001,-46.4132 51,-36.4133 47.5001,-46.4133 54.5001,-46.4132"/>
<g id="a_edge1&#45;headlabel"><a xlink:href="dir_000166_000059.html" target="_top" xlink:title="1">
<text text-anchor="middle" x="57.3393" y="-47.5079" font-family="Helvetica,sans-Serif" font-size="10.00" fill="#000000">1</text>
</a>
</g>
</g>
</g>
</svg>
