<?xml version="1.0" encoding="UTF-8" standalone="no"?>
<!DOCTYPE svg PUBLIC "-//W3C//DTD SVG 1.1//EN"
 "http://www.w3.org/Graphics/SVG/1.1/DTD/svg11.dtd">
<!-- Generated by graphviz version 2.40.1 (20161225.0304)
 -->
<!-- Title: src/sa&#45;bsn/logging_infrastructure/logger Pages: 1 -->
<svg width="254pt" height="231pt"
 viewBox="0.00 0.00 254.00 231.00" xmlns="http://www.w3.org/2000/svg" xmlns:xlink="http://www.w3.org/1999/xlink">
<g id="graph0" class="graph" transform="scale(1 1) rotate(0) translate(4 227)">
<title>src/sa&#45;bsn/logging_infrastructure/logger</title>
<polygon fill="#ffffff" stroke="transparent" points="-4,4 -4,-227 250,-227 250,4 -4,4"/>
<g id="clust1" class="cluster">
<title>clusterdir_d581bd466ddd750643f8adfd4eb084b9</title>
<g id="a_clust1"><a xlink:href="dir_d581bd466ddd750643f8adfd4eb084b9.html" target="_top" xlink:title="logging_infrastructure">
<polygon fill="#ddddee" stroke="#000000" points="8,-56 8,-215 238,-215 238,-56 8,-56"/>
<text text-anchor="middle" x="123" y="-203" font-family="Helvetica,sans-Serif" font-size="10.00" fill="#000000">logging_infrastructure</text>
</a>
</g>
</g>
<g id="clust2" class="cluster">
<title>clusterdir_f89ff0282686e89282a1d25615c5865f</title>
<g id="a_clust2"><a xlink:href="dir_f89ff0282686e89282a1d25615c5865f.html" target="_top">
<polygon fill="#eeeeff" stroke="#000000" points="16,-64 16,-188 230,-188 230,-64 16,-64"/>
</a>
</g>
</g>
<!-- dir_f89ff0282686e89282a1d25615c5865f -->
<g id="node1" class="node">
<title>dir_f89ff0282686e89282a1d25615c5865f</title>
<text text-anchor="middle" x="195" y="-159.5" font-family="Helvetica,sans-Serif" font-size="10.00" fill="#000000">logger</text>
</g>
<!-- dir_332e0e6f052338b0feb6964e9c6ffc66 -->
<g id="node2" class="node">
<title>dir_332e0e6f052338b0feb6964e9c6ffc66</title>
<g id="a_node2"><a xlink:href="dir_332e0e6f052338b0feb6964e9c6ffc66.html" target="_top" xlink:title="apps">
<polygon fill="#ffffff" stroke="#000000" points="150,-180 96,-180 96,-144 150,-144 150,-180"/>
<text text-anchor="middle" x="123" y="-159.5" font-family="Helvetica,sans-Serif" font-size="10.00" fill="#000000">apps</text>
</a>
</g>
</g>
<!-- dir_ac4db0263e564eeaafebb07bc2f809dd -->
<g id="node3" class="node">
<title>dir_ac4db0263e564eeaafebb07bc2f809dd</title>
<g id="a_node3"><a xlink:href="dir_ac4db0263e564eeaafebb07bc2f809dd.html" target="_top" xlink:title="include">
<polygon fill="#ffffff" stroke="#000000" points="114,-108 60,-108 60,-72 114,-72 114,-108"/>
<text text-anchor="middle" x="87" y="-87.5" font-family="Helvetica,sans-Serif" font-size="10.00" fill="#000000">include</text>
</a>
</g>
</g>
<!-- dir_332e0e6f052338b0feb6964e9c6ffc66&#45;&gt;dir_ac4db0263e564eeaafebb07bc2f809dd -->
<g id="edge1" class="edge">
<title>dir_332e0e6f052338b0feb6964e9c6ffc66&#45;&gt;dir_ac4db0263e564eeaafebb07bc2f809dd</title>
<path fill="none" stroke="#000000" d="M113.9157,-143.8314C109.9385,-135.8771 105.1845,-126.369 100.7861,-117.5723"/>
<polygon fill="#000000" stroke="#000000" points="103.8093,-115.7923 96.2066,-108.4133 97.5483,-118.9228 103.8093,-115.7923"/>
<g id="a_edge1&#45;headlabel"><a xlink:href="dir_000115_000116.html" target="_top" xlink:title="1">
<text text-anchor="middle" x="107.9563" y="-115.2377" font-family="Helvetica,sans-Serif" font-size="10.00" fill="#000000">1</text>
</a>
</g>
</g>
<!-- dir_7820f11c4482f02b738474524ce1ba7b -->
<g id="node5" class="node">
<title>dir_7820f11c4482f02b738474524ce1ba7b</title>
<g id="a_node5"><a xlink:href="dir_7820f11c4482f02b738474524ce1ba7b.html" target="_top" xlink:title="archlib">
<polygon fill="#ffffff" stroke="#ff0000" points="114,-36 60,-36 60,0 114,0 114,-36"/>
<text text-anchor="middle" x="87" y="-15.5" font-family="Helvetica,sans-Serif" font-size="10.00" fill="#000000">archlib</text>
</a>
</g>
</g>
<!-- dir_ac4db0263e564eeaafebb07bc2f809dd&#45;&gt;dir_7820f11c4482f02b738474524ce1ba7b -->
<g id="edge2" class="edge">
<title>dir_ac4db0263e564eeaafebb07bc2f809dd&#45;&gt;dir_7820f11c4482f02b738474524ce1ba7b</title>
<path fill="none" stroke="#000000" d="M87,-71.8314C87,-64.131 87,-54.9743 87,-46.4166"/>
<polygon fill="#000000" stroke="#000000" points="90.5001,-46.4132 87,-36.4133 83.5001,-46.4133 90.5001,-46.4132"/>
<g id="a_edge2&#45;headlabel"><a xlink:href="dir_000116_000059.html" target="_top" xlink:title="1">
<text text-anchor="middle" x="93.3393" y="-47.5079" font-family="Helvetica,sans-Serif" font-size="10.00" fill="#000000">1</text>
</a>
</g>
</g>
<!-- dir_d978607e8ab218b5b824903d3f660863 -->
<g id="node4" class="node">
<title>dir_d978607e8ab218b5b824903d3f660863</title>
<g id="a_node4"><a xlink:href="dir_d978607e8ab218b5b824903d3f660863.html" target="_top" xlink:title="src">
<polygon fill="#ffffff" stroke="#000000" points="78,-180 24,-180 24,-144 78,-144 78,-180"/>
<text text-anchor="middle" x="51" y="-159.5" font-family="Helvetica,sans-Serif" font-size="10.00" fill="#000000">src</text>
</a>
</g>
</g>
<!-- dir_d978607e8ab218b5b824903d3f660863&#45;&gt;dir_ac4db0263e564eeaafebb07bc2f809dd -->
<g id="edge3" class="edge">
<title>dir_d978607e8ab218b5b824903d3f660863&#45;&gt;dir_ac4db0263e564eeaafebb07bc2f809dd</title>
<path fill="none" stroke="#000000" d="M60.0843,-143.8314C64.0615,-135.8771 68.8155,-126.369 73.2139,-117.5723"/>
<polygon fill="#000000" stroke="#000000" points="76.4517,-118.9228 77.7934,-108.4133 70.1907,-115.7923 76.4517,-118.9228"/>
<g id="a_edge3&#45;headlabel"><a xlink:href="dir_000117_000116.html" target="_top" xlink:title="1">
<text text-anchor="middle" x="77.3837" y="-120.9077" font-family="Helvetica,sans-Serif" font-size="10.00" fill="#000000">1</text>
</a>
</g>
</g>
</g>
</svg>
