<?xml version="1.0" encoding="UTF-8" standalone="no"?>
<!DOCTYPE svg PUBLIC "-//W3C//DTD SVG 1.1//EN"
 "http://www.w3.org/Graphics/SVG/1.1/DTD/svg11.dtd">
<!-- Generated by graphviz version 2.40.1 (20161225.0304)
 -->
<!-- Title: src/libbsn/src Pages: 1 -->
<svg width="896pt" height="159pt"
 viewBox="0.00 0.00 896.00 159.00" xmlns="http://www.w3.org/2000/svg" xmlns:xlink="http://www.w3.org/1999/xlink">
<g id="graph0" class="graph" transform="scale(1 1) rotate(0) translate(4 155)">
<title>src/libbsn/src</title>
<polygon fill="#ffffff" stroke="transparent" points="-4,4 -4,-155 892,-155 892,4 -4,4"/>
<g id="clust1" class="cluster">
<title>clusterdir_1b3ed615309ca9bc94672b13777cb4d7</title>
<g id="a_clust1"><a xlink:href="dir_1b3ed615309ca9bc94672b13777cb4d7.html" target="_top" xlink:title="libbsn">
<polygon fill="#ddddee" stroke="#000000" points="8,-56 8,-143 880,-143 880,-56 8,-56"/>
<text text-anchor="middle" x="444" y="-131" font-family="Helvetica,sans-Serif" font-size="10.00" fill="#000000">libbsn</text>
</a>
</g>
</g>
<g id="clust2" class="cluster">
<title>clusterdir_fbb7f83508d65ad88b882e23eeccc7ed</title>
<g id="a_clust2"><a xlink:href="dir_fbb7f83508d65ad88b882e23eeccc7ed.html" target="_top">
<polygon fill="#eeeeff" stroke="#000000" points="16,-64 16,-116 872,-116 872,-64 16,-64"/>
</a>
</g>
</g>
<!-- dir_fbb7f83508d65ad88b882e23eeccc7ed -->
<g id="node1" class="node">
<title>dir_fbb7f83508d65ad88b882e23eeccc7ed</title>
<text text-anchor="middle" x="837" y="-87.5" font-family="Helvetica,sans-Serif" font-size="10.00" fill="#000000">src</text>
</g>
<!-- dir_205f712d38e10a9a191eba20b71dc291 -->
<g id="node2" class="node">
<title>dir_205f712d38e10a9a191eba20b71dc291</title>
<g id="a_node2"><a xlink:href="dir_205f712d38e10a9a191eba20b71dc291.html" target="_top" xlink:title="configuration">
<polygon fill="#ffffff" stroke="#000000" points="792,-108 712,-108 712,-72 792,-72 792,-108"/>
<text text-anchor="middle" x="752" y="-87.5" font-family="Helvetica,sans-Serif" font-size="10.00" fill="#000000">configuration</text>
</a>
</g>
</g>
<!-- dir_df7abd43abb61486b9ff190473949a1d -->
<g id="node12" class="node">
<title>dir_df7abd43abb61486b9ff190473949a1d</title>
<g id="a_node12"><a xlink:href="dir_df7abd43abb61486b9ff190473949a1d.html" target="_top" xlink:title="include">
<polygon fill="#ffffff" stroke="#ff0000" points="415,-36 361,-36 361,0 415,0 415,-36"/>
<text text-anchor="middle" x="388" y="-15.5" font-family="Helvetica,sans-Serif" font-size="10.00" fill="#000000">include</text>
</a>
</g>
</g>
<!-- dir_205f712d38e10a9a191eba20b71dc291&#45;&gt;dir_df7abd43abb61486b9ff190473949a1d -->
<g id="edge10" class="edge">
<title>dir_205f712d38e10a9a191eba20b71dc291&#45;&gt;dir_df7abd43abb61486b9ff190473949a1d</title>
<path fill="none" stroke="#000000" d="M730.8551,-71.9663C722.656,-65.9134 712.8719,-59.7534 703,-56 652.944,-36.9682 497.2102,-24.9254 425.2037,-20.2339"/>
<polygon fill="#000000" stroke="#000000" points="425.4128,-16.7402 415.2099,-19.5951 424.9662,-23.7259 425.4128,-16.7402"/>
<g id="a_edge10&#45;headlabel"><a xlink:href="dir_000081_000068.html" target="_top" xlink:title="1">
<text text-anchor="middle" x="429.1812" y="-11.6359" font-family="Helvetica,sans-Serif" font-size="10.00" fill="#000000">1</text>
</a>
</g>
</g>
<!-- dir_36327e7bf9070d30e045b80b98fcf77d -->
<g id="node3" class="node">
<title>dir_36327e7bf9070d30e045b80b98fcf77d</title>
<g id="a_node3"><a xlink:href="dir_36327e7bf9070d30e045b80b98fcf77d.html" target="_top" xlink:title="filters">
<polygon fill="#ffffff" stroke="#000000" points="694,-108 640,-108 640,-72 694,-72 694,-108"/>
<text text-anchor="middle" x="667" y="-87.5" font-family="Helvetica,sans-Serif" font-size="10.00" fill="#000000">filters</text>
</a>
</g>
</g>
<!-- dir_36327e7bf9070d30e045b80b98fcf77d&#45;&gt;dir_df7abd43abb61486b9ff190473949a1d -->
<g id="edge3" class="edge">
<title>dir_36327e7bf9070d30e045b80b98fcf77d&#45;&gt;dir_df7abd43abb61486b9ff190473949a1d</title>
<path fill="none" stroke="#000000" d="M651.7865,-71.728C645.9001,-65.8016 638.7185,-59.7855 631,-56 595.4668,-38.5727 483.9823,-26.4594 425.1703,-21.1019"/>
<polygon fill="#000000" stroke="#000000" points="425.4458,-17.6126 415.1743,-20.2102 424.8238,-24.585 425.4458,-17.6126"/>
<g id="a_edge3&#45;headlabel"><a xlink:href="dir_000082_000068.html" target="_top" xlink:title="1">
<text text-anchor="middle" x="429.2784" y="-12.6039" font-family="Helvetica,sans-Serif" font-size="10.00" fill="#000000">1</text>
</a>
</g>
</g>
<!-- dir_41e783f9e30e1b755fbf55c66439287d -->
<g id="node4" class="node">
<title>dir_41e783f9e30e1b755fbf55c66439287d</title>
<g id="a_node4"><a xlink:href="dir_41e783f9e30e1b755fbf55c66439287d.html" target="_top" xlink:title="generator">
<polygon fill="#ffffff" stroke="#000000" points="622,-108 558,-108 558,-72 622,-72 622,-108"/>
<text text-anchor="middle" x="590" y="-87.5" font-family="Helvetica,sans-Serif" font-size="10.00" fill="#000000">generator</text>
</a>
</g>
</g>
<!-- dir_41e783f9e30e1b755fbf55c66439287d&#45;&gt;dir_df7abd43abb61486b9ff190473949a1d -->
<g id="edge6" class="edge">
<title>dir_41e783f9e30e1b755fbf55c66439287d&#45;&gt;dir_df7abd43abb61486b9ff190473949a1d</title>
<path fill="none" stroke="#000000" d="M571.6949,-71.7495C565.0215,-65.9692 557.1119,-60.0399 549,-56 509.4487,-36.3028 459.2875,-26.5562 425.5538,-21.9141"/>
<polygon fill="#000000" stroke="#000000" points="425.5785,-18.3883 415.2128,-20.5801 424.6829,-25.3308 425.5785,-18.3883"/>
<g id="a_edge6&#45;headlabel"><a xlink:href="dir_000083_000068.html" target="_top" xlink:title="3">
<text text-anchor="middle" x="429.5068" y="-13.5322" font-family="Helvetica,sans-Serif" font-size="10.00" fill="#000000">3</text>
</a>
</g>
</g>
<!-- dir_f7cb86759195c51b2f06f9537b05b4b5 -->
<g id="node5" class="node">
<title>dir_f7cb86759195c51b2f06f9537b05b4b5</title>
<g id="a_node5"><a xlink:href="dir_f7cb86759195c51b2f06f9537b05b4b5.html" target="_top" xlink:title="goalmodel">
<polygon fill="#ffffff" stroke="#000000" points="540,-108 472,-108 472,-72 540,-72 540,-108"/>
<text text-anchor="middle" x="506" y="-87.5" font-family="Helvetica,sans-Serif" font-size="10.00" fill="#000000">goalmodel</text>
</a>
</g>
</g>
<!-- dir_f7cb86759195c51b2f06f9537b05b4b5&#45;&gt;dir_df7abd43abb61486b9ff190473949a1d -->
<g id="edge8" class="edge">
<title>dir_f7cb86759195c51b2f06f9537b05b4b5&#45;&gt;dir_df7abd43abb61486b9ff190473949a1d</title>
<path fill="none" stroke="#000000" d="M484.7503,-71.8254C478.0041,-66.4354 470.3761,-60.7175 463,-56 450.8492,-48.2287 436.9045,-40.7952 424.3612,-34.5966"/>
<polygon fill="#000000" stroke="#000000" points="425.6212,-31.3181 415.0952,-30.1119 422.5716,-37.6189 425.6212,-31.3181"/>
<g id="a_edge8&#45;headlabel"><a xlink:href="dir_000084_000068.html" target="_top" xlink:title="7">
<text text-anchor="middle" x="430.0937" y="-27.8283" font-family="Helvetica,sans-Serif" font-size="10.00" fill="#000000">7</text>
</a>
</g>
</g>
<!-- dir_d6ffbb0b16dbe573c428b1a7d3bbb617 -->
<g id="node6" class="node">
<title>dir_d6ffbb0b16dbe573c428b1a7d3bbb617</title>
<g id="a_node6"><a xlink:href="dir_d6ffbb0b16dbe573c428b1a7d3bbb617.html" target="_top" xlink:title="model">
<polygon fill="#ffffff" stroke="#000000" points="454,-108 400,-108 400,-72 454,-72 454,-108"/>
<text text-anchor="middle" x="427" y="-87.5" font-family="Helvetica,sans-Serif" font-size="10.00" fill="#000000">model</text>
</a>
</g>
</g>
<!-- dir_d6ffbb0b16dbe573c428b1a7d3bbb617&#45;&gt;dir_df7abd43abb61486b9ff190473949a1d -->
<g id="edge5" class="edge">
<title>dir_d6ffbb0b16dbe573c428b1a7d3bbb617&#45;&gt;dir_df7abd43abb61486b9ff190473949a1d</title>
<path fill="none" stroke="#000000" d="M417.1587,-71.8314C412.8043,-63.7925 407.5902,-54.1666 402.7831,-45.2918"/>
<polygon fill="#000000" stroke="#000000" points="405.8143,-43.5392 397.9739,-36.4133 399.6592,-46.8732 405.8143,-43.5392"/>
<g id="a_edge5&#45;headlabel"><a xlink:href="dir_000085_000068.html" target="_top" xlink:title="1">
<text text-anchor="middle" x="410.0228" y="-42.8476" font-family="Helvetica,sans-Serif" font-size="10.00" fill="#000000">1</text>
</a>
</g>
</g>
<!-- dir_0c248d2aa3e5975019d0d4e8f849b240 -->
<g id="node7" class="node">
<title>dir_0c248d2aa3e5975019d0d4e8f849b240</title>
<g id="a_node7"><a xlink:href="dir_0c248d2aa3e5975019d0d4e8f849b240.html" target="_top" xlink:title="processor">
<polygon fill="#ffffff" stroke="#000000" points="382,-108 318,-108 318,-72 382,-72 382,-108"/>
<text text-anchor="middle" x="350" y="-87.5" font-family="Helvetica,sans-Serif" font-size="10.00" fill="#000000">processor</text>
</a>
</g>
</g>
<!-- dir_0c248d2aa3e5975019d0d4e8f849b240&#45;&gt;dir_df7abd43abb61486b9ff190473949a1d -->
<g id="edge4" class="edge">
<title>dir_0c248d2aa3e5975019d0d4e8f849b240&#45;&gt;dir_df7abd43abb61486b9ff190473949a1d</title>
<path fill="none" stroke="#000000" d="M359.589,-71.8314C363.8317,-63.7925 368.9121,-54.1666 373.596,-45.2918"/>
<polygon fill="#000000" stroke="#000000" points="376.7096,-46.8908 378.2819,-36.4133 370.5189,-43.6235 376.7096,-46.8908"/>
<g id="a_edge4&#45;headlabel"><a xlink:href="dir_000086_000068.html" target="_top" xlink:title="1">
<text text-anchor="middle" x="377.5428" y="-48.895" font-family="Helvetica,sans-Serif" font-size="10.00" fill="#000000">1</text>
</a>
</g>
</g>
<!-- dir_64d389c66c8782a316ac0e9c13b7e863 -->
<g id="node8" class="node">
<title>dir_64d389c66c8782a316ac0e9c13b7e863</title>
<g id="a_node8"><a xlink:href="dir_64d389c66c8782a316ac0e9c13b7e863.html" target="_top" xlink:title="range">
<polygon fill="#ffffff" stroke="#000000" points="300,-108 246,-108 246,-72 300,-72 300,-108"/>
<text text-anchor="middle" x="273" y="-87.5" font-family="Helvetica,sans-Serif" font-size="10.00" fill="#000000">range</text>
</a>
</g>
</g>
<!-- dir_64d389c66c8782a316ac0e9c13b7e863&#45;&gt;dir_df7abd43abb61486b9ff190473949a1d -->
<g id="edge9" class="edge">
<title>dir_64d389c66c8782a316ac0e9c13b7e863&#45;&gt;dir_df7abd43abb61486b9ff190473949a1d</title>
<path fill="none" stroke="#000000" d="M290.0049,-71.8882C295.7201,-66.3808 302.3423,-60.5801 309,-56 322.1423,-46.9588 337.7657,-38.9511 351.6355,-32.6462"/>
<polygon fill="#000000" stroke="#000000" points="353.1657,-35.7967 360.9054,-28.5615 350.3431,-29.391 353.1657,-35.7967"/>
<g id="a_edge9&#45;headlabel"><a xlink:href="dir_000087_000068.html" target="_top" xlink:title="1">
<text text-anchor="middle" x="351.0212" y="-37.3443" font-family="Helvetica,sans-Serif" font-size="10.00" fill="#000000">1</text>
</a>
</g>
</g>
<!-- dir_eb0a9776c5de32e5e1c9837b6c35f4dd -->
<g id="node9" class="node">
<title>dir_eb0a9776c5de32e5e1c9837b6c35f4dd</title>
<g id="a_node9"><a xlink:href="dir_eb0a9776c5de32e5e1c9837b6c35f4dd.html" target="_top" xlink:title="resource">
<polygon fill="#ffffff" stroke="#000000" points="227.5,-108 168.5,-108 168.5,-72 227.5,-72 227.5,-108"/>
<text text-anchor="middle" x="198" y="-87.5" font-family="Helvetica,sans-Serif" font-size="10.00" fill="#000000">resource</text>
</a>
</g>
</g>
<!-- dir_eb0a9776c5de32e5e1c9837b6c35f4dd&#45;&gt;dir_df7abd43abb61486b9ff190473949a1d -->
<g id="edge1" class="edge">
<title>dir_eb0a9776c5de32e5e1c9837b6c35f4dd&#45;&gt;dir_df7abd43abb61486b9ff190473949a1d</title>
<path fill="none" stroke="#000000" d="M215.3153,-71.794C221.6554,-66.0174 229.1991,-60.0789 237,-56 273.0504,-37.1504 318.8965,-27.3307 350.564,-22.4383"/>
<polygon fill="#000000" stroke="#000000" points="351.3323,-25.8635 360.7252,-20.9621 350.3259,-18.9362 351.3323,-25.8635"/>
<g id="a_edge1&#45;headlabel"><a xlink:href="dir_000088_000068.html" target="_top" xlink:title="1">
<text text-anchor="middle" x="348.1832" y="-26.69" font-family="Helvetica,sans-Serif" font-size="10.00" fill="#000000">1</text>
</a>
</g>
</g>
<!-- dir_bd559c46e337b77c0ba6591045fb5dd5 -->
<g id="node10" class="node">
<title>dir_bd559c46e337b77c0ba6591045fb5dd5</title>
<g id="a_node10"><a xlink:href="dir_bd559c46e337b77c0ba6591045fb5dd5.html" target="_top" xlink:title="time">
<polygon fill="#ffffff" stroke="#000000" points="150,-108 96,-108 96,-72 150,-72 150,-108"/>
<text text-anchor="middle" x="123" y="-87.5" font-family="Helvetica,sans-Serif" font-size="10.00" fill="#000000">time</text>
</a>
</g>
</g>
<!-- dir_bd559c46e337b77c0ba6591045fb5dd5&#45;&gt;dir_df7abd43abb61486b9ff190473949a1d -->
<g id="edge7" class="edge">
<title>dir_bd559c46e337b77c0ba6591045fb5dd5&#45;&gt;dir_df7abd43abb61486b9ff190473949a1d</title>
<path fill="none" stroke="#000000" d="M138.7402,-71.7744C144.7998,-65.8524 152.1605,-59.8272 160,-56 192.9464,-39.9157 295.0176,-27.4328 350.7511,-21.6044"/>
<polygon fill="#000000" stroke="#000000" points="351.3282,-25.0637 360.9187,-20.5613 350.6137,-18.1002 351.3282,-25.0637"/>
<g id="a_edge7&#45;headlabel"><a xlink:href="dir_000089_000068.html" target="_top" xlink:title="1">
<text text-anchor="middle" x="348.0421" y="-25.7549" font-family="Helvetica,sans-Serif" font-size="10.00" fill="#000000">1</text>
</a>
</g>
</g>
<!-- dir_b3cfbae5d67ae7091005f5394b61d2ca -->
<g id="node11" class="node">
<title>dir_b3cfbae5d67ae7091005f5394b61d2ca</title>
<g id="a_node11"><a xlink:href="dir_b3cfbae5d67ae7091005f5394b61d2ca.html" target="_top" xlink:title="utils">
<polygon fill="#ffffff" stroke="#000000" points="78,-108 24,-108 24,-72 78,-72 78,-108"/>
<text text-anchor="middle" x="51" y="-87.5" font-family="Helvetica,sans-Serif" font-size="10.00" fill="#000000">utils</text>
</a>
</g>
</g>
<!-- dir_b3cfbae5d67ae7091005f5394b61d2ca&#45;&gt;dir_df7abd43abb61486b9ff190473949a1d -->
<g id="edge2" class="edge">
<title>dir_b3cfbae5d67ae7091005f5394b61d2ca&#45;&gt;dir_df7abd43abb61486b9ff190473949a1d</title>
<path fill="none" stroke="#000000" d="M65.8009,-71.9567C71.7453,-65.9027 79.071,-59.7445 87,-56 132.9817,-34.2848 280.8366,-23.7091 350.7305,-19.8225"/>
<polygon fill="#000000" stroke="#000000" points="351.0569,-23.3101 360.8538,-19.2763 350.6797,-16.3203 351.0569,-23.3101"/>
<g id="a_edge2&#45;headlabel"><a xlink:href="dir_000090_000068.html" target="_top" xlink:title="1">
<text text-anchor="middle" x="347.6205" y="-23.8388" font-family="Helvetica,sans-Serif" font-size="10.00" fill="#000000">1</text>
</a>
</g>
</g>
</g>
</svg>
