<?xml version="1.0" encoding="UTF-8" standalone="no"?>
<!DOCTYPE svg PUBLIC "-//W3C//DTD SVG 1.1//EN"
 "http://www.w3.org/Graphics/SVG/1.1/DTD/svg11.dtd">
<!-- Generated by graphviz version 2.40.1 (20161225.0304)
 -->
<!-- Title: src/archlib/src/target_system/Effector.cpp Pages: 1 -->
<svg width="396pt" height="274pt"
 viewBox="0.00 0.00 395.54 274.00" xmlns="http://www.w3.org/2000/svg" xmlns:xlink="http://www.w3.org/1999/xlink">
<g id="graph0" class="graph" transform="scale(1 1) rotate(0) translate(4 270)">
<title>src/archlib/src/target_system/Effector.cpp</title>
<polygon fill="#ffffff" stroke="transparent" points="-4,4 -4,-270 391.5439,-270 391.5439,4 -4,4"/>
<!-- Node0 -->
<g id="node1" class="node">
<title>Node0</title>
<polygon fill="#bfbfbf" stroke="#000000" points="229.928,-235.5 229.928,-265.5 347.928,-265.5 347.928,-235.5 229.928,-235.5"/>
<text text-anchor="start" x="237.928" y="-253.5" font-family="Helvetica,sans-Serif" font-size="10.00" fill="#000000">src/archlib/src/target</text>
<text text-anchor="middle" x="288.928" y="-242.5" font-family="Helvetica,sans-Serif" font-size="10.00" fill="#000000">_system/Effector.cpp</text>
</g>
<!-- Node1 -->
<g id="node2" class="node">
<title>Node1</title>
<g id="a_node2"><a xlink:href="Effector_8hpp.html" target="_top" xlink:title="archlib/target_system\l/Effector.hpp">
<polygon fill="#ffffff" stroke="#000000" points="227.428,-168.5 227.428,-198.5 350.428,-198.5 350.428,-168.5 227.428,-168.5"/>
<text text-anchor="start" x="235.428" y="-186.5" font-family="Helvetica,sans-Serif" font-size="10.00" fill="#000000">archlib/target_system</text>
<text text-anchor="middle" x="288.928" y="-175.5" font-family="Helvetica,sans-Serif" font-size="10.00" fill="#000000">/Effector.hpp</text>
</a>
</g>
</g>
<!-- Node0&#45;&gt;Node1 -->
<g id="edge1" class="edge">
<title>Node0&#45;&gt;Node1</title>
<path fill="none" stroke="#191970" d="M288.928,-235.2967C288.928,-227.5013 288.928,-217.7991 288.928,-208.9064"/>
<polygon fill="#191970" stroke="#191970" points="292.4281,-208.6431 288.928,-198.6432 285.4281,-208.6432 292.4281,-208.6431"/>
</g>
<!-- Node2 -->
<g id="node3" class="node">
<title>Node2</title>
<polygon fill="#ffffff" stroke="#bfbfbf" points="295.428,-.5 295.428,-19.5 354.428,-19.5 354.428,-.5 295.428,-.5"/>
<text text-anchor="middle" x="324.928" y="-7.5" font-family="Helvetica,sans-Serif" font-size="10.00" fill="#000000">ros/ros.h</text>
</g>
<!-- Node1&#45;&gt;Node2 -->
<g id="edge2" class="edge">
<title>Node1&#45;&gt;Node2</title>
<path fill="none" stroke="#191970" d="M336.5639,-168.4168C353.6556,-160.445 371.1153,-148.7385 380.928,-132 402.0008,-96.0541 366.325,-50.8109 342.8881,-26.7896"/>
<polygon fill="#191970" stroke="#191970" points="345.083,-24.0381 335.5088,-19.5009 340.1639,-29.0183 345.083,-24.0381"/>
</g>
<!-- Node3 -->
<g id="node4" class="node">
<title>Node3</title>
<polygon fill="#ffffff" stroke="#bfbfbf" points="206.428,-112.5 206.428,-131.5 371.428,-131.5 371.428,-112.5 206.428,-112.5"/>
<text text-anchor="middle" x="288.928" y="-119.5" font-family="Helvetica,sans-Serif" font-size="10.00" fill="#000000">archlib/AdaptationCommand.h</text>
</g>
<!-- Node1&#45;&gt;Node3 -->
<g id="edge3" class="edge">
<title>Node1&#45;&gt;Node3</title>
<path fill="none" stroke="#191970" d="M288.928,-168.2977C288.928,-160.3834 288.928,-150.6043 288.928,-142.0759"/>
<polygon fill="#191970" stroke="#191970" points="292.4281,-141.8469 288.928,-131.8469 285.4281,-141.847 292.4281,-141.8469"/>
</g>
<!-- Node4 -->
<g id="node5" class="node">
<title>Node4</title>
<g id="a_node5"><a xlink:href="ROSComponent_8hpp.html" target="_top" xlink:title="archlib/ROSComponent.hpp">
<polygon fill="#ffffff" stroke="#000000" points="37.928,-112.5 37.928,-131.5 187.928,-131.5 187.928,-112.5 37.928,-112.5"/>
<text text-anchor="middle" x="112.928" y="-119.5" font-family="Helvetica,sans-Serif" font-size="10.00" fill="#000000">archlib/ROSComponent.hpp</text>
</a>
</g>
</g>
<!-- Node1&#45;&gt;Node4 -->
<g id="edge4" class="edge">
<title>Node1&#45;&gt;Node4</title>
<path fill="none" stroke="#191970" d="M245.8736,-168.4554C216.5075,-158.194 178.0135,-144.7429 150.0085,-134.9571"/>
<polygon fill="#191970" stroke="#191970" points="150.7966,-131.525 140.2018,-131.5303 148.4874,-138.1332 150.7966,-131.525"/>
</g>
<!-- Node4&#45;&gt;Node2 -->
<g id="edge7" class="edge">
<title>Node4&#45;&gt;Node2</title>
<path fill="none" stroke="#191970" d="M185.155,-112.4809C232.4021,-104.8466 288.4881,-92.6502 305.928,-76 318.436,-64.0584 322.8698,-44.4643 324.3635,-29.7212"/>
<polygon fill="#191970" stroke="#191970" points="327.8653,-29.8046 325.0177,-19.5996 320.8799,-29.3531 327.8653,-29.8046"/>
</g>
<!-- Node5 -->
<g id="node6" class="node">
<title>Node5</title>
<polygon fill="#ffffff" stroke="#bfbfbf" points="26.928,-.5 26.928,-19.5 70.928,-19.5 70.928,-.5 26.928,-.5"/>
<text text-anchor="middle" x="48.928" y="-7.5" font-family="Helvetica,sans-Serif" font-size="10.00" fill="#000000">string</text>
</g>
<!-- Node4&#45;&gt;Node5 -->
<g id="edge5" class="edge">
<title>Node4&#45;&gt;Node5</title>
<path fill="none" stroke="#191970" d="M58.91,-112.4617C38.1004,-105.8668 16.3612,-94.742 3.928,-76 -7.4968,-58.778 9.6287,-39.2414 25.9364,-25.921"/>
<polygon fill="#191970" stroke="#191970" points="28.4225,-28.4256 34.2342,-19.567 24.1667,-22.8679 28.4225,-28.4256"/>
</g>
<!-- Node6 -->
<g id="node7" class="node">
<title>Node6</title>
<polygon fill="#ffffff" stroke="#bfbfbf" points="231.428,-56.5 231.428,-75.5 296.428,-75.5 296.428,-56.5 231.428,-56.5"/>
<text text-anchor="middle" x="263.928" y="-63.5" font-family="Helvetica,sans-Serif" font-size="10.00" fill="#000000">stdexcept</text>
</g>
<!-- Node4&#45;&gt;Node6 -->
<g id="edge6" class="edge">
<title>Node4&#45;&gt;Node6</title>
<path fill="none" stroke="#191970" d="M138.8858,-112.3733C163.6687,-103.1822 201.2026,-89.2624 228.6821,-79.0713"/>
<polygon fill="#191970" stroke="#191970" points="230.15,-82.26 238.3089,-75.5011 227.7159,-75.6968 230.15,-82.26"/>
</g>
<!-- Node7 -->
<g id="node8" class="node">
<title>Node7</title>
<g id="a_node8"><a xlink:href="ROSComponentDescriptor_8hpp.html" target="_top" xlink:title="archlib/ROSComponentDescriptor.hpp">
<polygon fill="#ffffff" stroke="#000000" points="12.928,-56.5 12.928,-75.5 212.928,-75.5 212.928,-56.5 12.928,-56.5"/>
<text text-anchor="middle" x="112.928" y="-63.5" font-family="Helvetica,sans-Serif" font-size="10.00" fill="#000000">archlib/ROSComponentDescriptor.hpp</text>
</a>
</g>
</g>
<!-- Node4&#45;&gt;Node7 -->
<g id="edge8" class="edge">
<title>Node4&#45;&gt;Node7</title>
<path fill="none" stroke="#191970" d="M112.928,-112.2455C112.928,-104.9382 112.928,-94.6944 112.928,-85.7046"/>
<polygon fill="#191970" stroke="#191970" points="116.4281,-85.6426 112.928,-75.6427 109.4281,-85.6427 116.4281,-85.6426"/>
</g>
<!-- Node7&#45;&gt;Node2 -->
<g id="edge10" class="edge">
<title>Node7&#45;&gt;Node2</title>
<path fill="none" stroke="#191970" d="M149.3721,-56.3733C187.1911,-46.3833 246.1595,-30.8068 285.1631,-20.5039"/>
<polygon fill="#191970" stroke="#191970" points="286.3373,-23.8139 295.1117,-17.876 284.5495,-17.046 286.3373,-23.8139"/>
</g>
<!-- Node7&#45;&gt;Node5 -->
<g id="edge9" class="edge">
<title>Node7&#45;&gt;Node5</title>
<path fill="none" stroke="#191970" d="M101.7801,-56.2455C92.4193,-48.0549 78.8422,-36.1749 67.7931,-26.5069"/>
<polygon fill="#191970" stroke="#191970" points="69.7788,-23.5937 59.9482,-19.6427 65.1692,-28.8618 69.7788,-23.5937"/>
</g>
</g>
</svg>
