<?xml version="1.0" encoding="UTF-8" standalone="no"?>
<!DOCTYPE svg PUBLIC "-//W3C//DTD SVG 1.1//EN"
 "http://www.w3.org/Graphics/SVG/1.1/DTD/svg11.dtd">
<!-- Generated by graphviz version 2.40.1 (20161225.0304)
 -->
<!-- Title: src/archlib/include/archlib/target_system/Effector.hpp Pages: 1 -->
<svg width="405pt" height="206pt"
 viewBox="0.00 0.00 405.00 206.00" xmlns="http://www.w3.org/2000/svg" xmlns:xlink="http://www.w3.org/1999/xlink">
<g id="graph0" class="graph" transform="scale(1 1) rotate(0) translate(4 202)">
<title>src/archlib/include/archlib/target_system/Effector.hpp</title>
<polygon fill="#ffffff" stroke="transparent" points="-4,4 -4,-202 401,-202 401,4 -4,4"/>
<!-- Node7 -->
<g id="node1" class="node">
<title>Node7</title>
<polygon fill="#bfbfbf" stroke="#000000" points="90,-156.5 90,-197.5 216,-197.5 216,-156.5 90,-156.5"/>
<text text-anchor="start" x="98" y="-185.5" font-family="Helvetica,sans-Serif" font-size="10.00" fill="#000000">src/archlib/include</text>
<text text-anchor="start" x="98" y="-174.5" font-family="Helvetica,sans-Serif" font-size="10.00" fill="#000000">/archlib/target_system</text>
<text text-anchor="middle" x="153" y="-163.5" font-family="Helvetica,sans-Serif" font-size="10.00" fill="#000000">/Effector.hpp</text>
</g>
<!-- Node8 -->
<g id="node2" class="node">
<title>Node8</title>
<g id="a_node2"><a xlink:href="Effector_8cpp.html" target="_top" xlink:title="src/archlib/src/target\l_system/Effector.cpp">
<polygon fill="#ffffff" stroke="#000000" points="0,-84 0,-114 118,-114 118,-84 0,-84"/>
<text text-anchor="start" x="8" y="-102" font-family="Helvetica,sans-Serif" font-size="10.00" fill="#000000">src/archlib/src/target</text>
<text text-anchor="middle" x="59" y="-91" font-family="Helvetica,sans-Serif" font-size="10.00" fill="#000000">_system/Effector.cpp</text>
</a>
</g>
</g>
<!-- Node7&#45;&gt;Node8 -->
<g id="edge1" class="edge">
<title>Node7&#45;&gt;Node8</title>
<path fill="none" stroke="#191970" d="M120.0373,-149.648C105.6171,-137.6823 89.2559,-124.106 77.105,-114.0233"/>
<polygon fill="#191970" stroke="#191970" points="117.8791,-152.4051 127.8097,-156.0974 122.3491,-147.0182 117.8791,-152.4051"/>
</g>
<!-- Node9 -->
<g id="node3" class="node">
<title>Node9</title>
<g id="a_node3"><a xlink:href="ParamAdapter_8hpp.html" target="_top" xlink:title="src/sa&#45;bsn/target_system\l/effectors/param_adapter\l/include/param_adapter/ParamAdapter.hpp">
<polygon fill="#ffffff" stroke="#000000" points="136,-78.5 136,-119.5 360,-119.5 360,-78.5 136,-78.5"/>
<text text-anchor="start" x="144" y="-107.5" font-family="Helvetica,sans-Serif" font-size="10.00" fill="#000000">src/sa&#45;bsn/target_system</text>
<text text-anchor="start" x="144" y="-96.5" font-family="Helvetica,sans-Serif" font-size="10.00" fill="#000000">/effectors/param_adapter</text>
<text text-anchor="middle" x="248" y="-85.5" font-family="Helvetica,sans-Serif" font-size="10.00" fill="#000000">/include/param_adapter/ParamAdapter.hpp</text>
</a>
</g>
</g>
<!-- Node7&#45;&gt;Node9 -->
<g id="edge2" class="edge">
<title>Node7&#45;&gt;Node9</title>
<path fill="none" stroke="#191970" d="M186.4787,-149.5122C198.4243,-139.7043 211.6694,-128.8293 222.8009,-119.6898"/>
<polygon fill="#191970" stroke="#191970" points="183.966,-147.0467 178.4583,-156.0974 188.408,-152.4568 183.966,-147.0467"/>
</g>
<!-- Node10 -->
<g id="node4" class="node">
<title>Node10</title>
<g id="a_node4"><a xlink:href="param__adapter_8cpp.html" target="_top" xlink:title="src/sa&#45;bsn/target_system\l/effectors/param_adapter\l/apps/param_adapter.cpp">
<polygon fill="#ffffff" stroke="#000000" points="99,-.5 99,-41.5 239,-41.5 239,-.5 99,-.5"/>
<text text-anchor="start" x="107" y="-29.5" font-family="Helvetica,sans-Serif" font-size="10.00" fill="#000000">src/sa&#45;bsn/target_system</text>
<text text-anchor="start" x="107" y="-18.5" font-family="Helvetica,sans-Serif" font-size="10.00" fill="#000000">/effectors/param_adapter</text>
<text text-anchor="middle" x="169" y="-7.5" font-family="Helvetica,sans-Serif" font-size="10.00" fill="#000000">/apps/param_adapter.cpp</text>
</a>
</g>
</g>
<!-- Node9&#45;&gt;Node10 -->
<g id="edge3" class="edge">
<title>Node9&#45;&gt;Node10</title>
<path fill="none" stroke="#191970" d="M219.5855,-70.9452C209.8031,-61.2866 199.0337,-50.6535 189.9551,-41.6898"/>
<polygon fill="#191970" stroke="#191970" points="217.2544,-73.5621 226.8294,-78.0974 222.1725,-68.5809 217.2544,-73.5621"/>
</g>
<!-- Node11 -->
<g id="node5" class="node">
<title>Node11</title>
<g id="a_node5"><a xlink:href="ParamAdapter_8cpp.html" target="_top" xlink:title="src/sa&#45;bsn/target_system\l/effectors/param_adapter\l/src/ParamAdapter.cpp">
<polygon fill="#ffffff" stroke="#000000" points="257,-.5 257,-41.5 397,-41.5 397,-.5 257,-.5"/>
<text text-anchor="start" x="265" y="-29.5" font-family="Helvetica,sans-Serif" font-size="10.00" fill="#000000">src/sa&#45;bsn/target_system</text>
<text text-anchor="start" x="265" y="-18.5" font-family="Helvetica,sans-Serif" font-size="10.00" fill="#000000">/effectors/param_adapter</text>
<text text-anchor="middle" x="327" y="-7.5" font-family="Helvetica,sans-Serif" font-size="10.00" fill="#000000">/src/ParamAdapter.cpp</text>
</a>
</g>
</g>
<!-- Node9&#45;&gt;Node11 -->
<g id="edge4" class="edge">
<title>Node9&#45;&gt;Node11</title>
<path fill="none" stroke="#191970" d="M276.4145,-70.9452C286.1969,-61.2866 296.9663,-50.6535 306.0449,-41.6898"/>
<polygon fill="#191970" stroke="#191970" points="273.8275,-68.5809 269.1706,-78.0974 278.7456,-73.5621 273.8275,-68.5809"/>
</g>
</g>
</svg>
