<?xml version="1.0" encoding="UTF-8" standalone="no"?>
<!DOCTYPE svg PUBLIC "-//W3C//DTD SVG 1.1//EN"
 "http://www.w3.org/Graphics/SVG/1.1/DTD/svg11.dtd">
<!-- Generated by graphviz version 2.40.1 (20161225.0304)
 -->
<!-- Title: src/sa&#45;bsn/system_manager/enactor/include/enactor/Enactor.hpp Pages: 1 -->
<svg width="1631pt" height="218pt"
 viewBox="0.00 0.00 1631.00 218.00" xmlns="http://www.w3.org/2000/svg" xmlns:xlink="http://www.w3.org/1999/xlink">
<g id="graph0" class="graph" transform="scale(1 1) rotate(0) translate(4 214)">
<title>src/sa&#45;bsn/system_manager/enactor/include/enactor/Enactor.hpp</title>
<polygon fill="#ffffff" stroke="transparent" points="-4,4 -4,-214 1627,-214 1627,4 -4,4"/>
<!-- Node0 -->
<g id="node1" class="node">
<title>Node0</title>
<polygon fill="#bfbfbf" stroke="#000000" points="579,-168.5 579,-209.5 733,-209.5 733,-168.5 579,-168.5"/>
<text text-anchor="start" x="587" y="-197.5" font-family="Helvetica,sans-Serif" font-size="10.00" fill="#000000">src/sa&#45;bsn/system_manager</text>
<text text-anchor="start" x="587" y="-186.5" font-family="Helvetica,sans-Serif" font-size="10.00" fill="#000000">/enactor/include/enactor</text>
<text text-anchor="middle" x="656" y="-175.5" font-family="Helvetica,sans-Serif" font-size="10.00" fill="#000000">/Enactor.hpp</text>
</g>
<!-- Node1 -->
<g id="node2" class="node">
<title>Node1</title>
<polygon fill="#ffffff" stroke="#bfbfbf" points="0,-112.5 0,-131.5 38,-131.5 38,-112.5 0,-112.5"/>
<text text-anchor="middle" x="19" y="-119.5" font-family="Helvetica,sans-Serif" font-size="10.00" fill="#000000">map</text>
</g>
<!-- Node0&#45;&gt;Node1 -->
<g id="edge1" class="edge">
<title>Node0&#45;&gt;Node1</title>
<path fill="none" stroke="#191970" d="M578.9567,-184.1953C442.6769,-175.3087 163.3862,-155.2572 48.0779,-131.6744"/>
<polygon fill="#191970" stroke="#191970" points="48.6061,-128.2081 38.094,-129.5297 47.1359,-135.052 48.6061,-128.2081"/>
</g>
<!-- Node2 -->
<g id="node3" class="node">
<title>Node2</title>
<polygon fill="#ffffff" stroke="#bfbfbf" points="56.5,-112.5 56.5,-131.5 103.5,-131.5 103.5,-112.5 56.5,-112.5"/>
<text text-anchor="middle" x="80" y="-119.5" font-family="Helvetica,sans-Serif" font-size="10.00" fill="#000000">deque</text>
</g>
<!-- Node0&#45;&gt;Node2 -->
<g id="edge2" class="edge">
<title>Node0&#45;&gt;Node2</title>
<path fill="none" stroke="#191970" d="M578.6851,-185.7299C474.558,-180.2538 283.5907,-166.436 113.5089,-131.9878"/>
<polygon fill="#191970" stroke="#191970" points="114.1278,-128.5419 103.6281,-129.9581 112.7193,-135.3987 114.1278,-128.5419"/>
</g>
<!-- Node3 -->
<g id="node4" class="node">
<title>Node3</title>
<polygon fill="#ffffff" stroke="#bfbfbf" points="121.5,-112.5 121.5,-131.5 172.5,-131.5 172.5,-112.5 121.5,-112.5"/>
<text text-anchor="middle" x="147" y="-119.5" font-family="Helvetica,sans-Serif" font-size="10.00" fill="#000000">math.h</text>
</g>
<!-- Node0&#45;&gt;Node3 -->
<g id="edge3" class="edge">
<title>Node0&#45;&gt;Node3</title>
<path fill="none" stroke="#191970" d="M578.7846,-182.5759C485.4649,-174.1316 323.9097,-157.3323 187,-132 185.5483,-131.7314 184.0708,-131.4411 182.5812,-131.1345"/>
<polygon fill="#191970" stroke="#191970" points="183.2408,-127.6956 172.7179,-128.9283 181.7127,-134.5268 183.2408,-127.6956"/>
</g>
<!-- Node4 -->
<g id="node5" class="node">
<title>Node4</title>
<polygon fill="#ffffff" stroke="#bfbfbf" points="193.5,-.5 193.5,-19.5 252.5,-19.5 252.5,-.5 193.5,-.5"/>
<text text-anchor="middle" x="223" y="-7.5" font-family="Helvetica,sans-Serif" font-size="10.00" fill="#000000">ros/ros.h</text>
</g>
<!-- Node0&#45;&gt;Node4 -->
<g id="edge4" class="edge">
<title>Node0&#45;&gt;Node4</title>
<path fill="none" stroke="#191970" d="M578.7129,-187.0965C475.729,-183.0767 300.6955,-170.6052 251,-132 220.2301,-108.0969 218.8265,-57.8316 220.7477,-29.8563"/>
<polygon fill="#191970" stroke="#191970" points="224.2521,-29.9634 221.6631,-19.6898 217.2803,-29.3356 224.2521,-29.9634"/>
</g>
<!-- Node5 -->
<g id="node6" class="node">
<title>Node5</title>
<polygon fill="#ffffff" stroke="#bfbfbf" points="560.5,-112.5 560.5,-131.5 645.5,-131.5 645.5,-112.5 560.5,-112.5"/>
<text text-anchor="middle" x="603" y="-119.5" font-family="Helvetica,sans-Serif" font-size="10.00" fill="#000000">ros/package.h</text>
</g>
<!-- Node0&#45;&gt;Node5 -->
<g id="edge5" class="edge">
<title>Node0&#45;&gt;Node5</title>
<path fill="none" stroke="#191970" d="M639.521,-168.168C632.3192,-159.0639 623.9594,-148.4959 617.0568,-139.7699"/>
<polygon fill="#191970" stroke="#191970" points="619.6859,-137.4519 610.7368,-131.7805 614.1959,-141.7947 619.6859,-137.4519"/>
</g>
<!-- Node6 -->
<g id="node7" class="node">
<title>Node6</title>
<g id="a_node7"><a xlink:href="utils_8hpp.html" target="_top" xlink:title="libbsn/utils/utils.hpp">
<polygon fill="#ffffff" stroke="#000000" points="427.5,-112.5 427.5,-131.5 542.5,-131.5 542.5,-112.5 427.5,-112.5"/>
<text text-anchor="middle" x="485" y="-119.5" font-family="Helvetica,sans-Serif" font-size="10.00" fill="#000000">libbsn/utils/utils.hpp</text>
</a>
</g>
</g>
<!-- Node0&#45;&gt;Node6 -->
<g id="edge6" class="edge">
<title>Node0&#45;&gt;Node6</title>
<path fill="none" stroke="#191970" d="M603.2991,-168.3511C575.8718,-157.6047 543.1369,-144.7788 519.0621,-135.346"/>
<polygon fill="#191970" stroke="#191970" points="520.2286,-132.044 509.6409,-131.6546 517.6749,-138.5616 520.2286,-132.044"/>
</g>
<!-- Node9 -->
<g id="node10" class="node">
<title>Node9</title>
<polygon fill="#ffffff" stroke="#bfbfbf" points="664,-112.5 664,-131.5 756,-131.5 756,-112.5 664,-112.5"/>
<text text-anchor="middle" x="710" y="-119.5" font-family="Helvetica,sans-Serif" font-size="10.00" fill="#000000">archlib/Status.h</text>
</g>
<!-- Node0&#45;&gt;Node9 -->
<g id="edge9" class="edge">
<title>Node0&#45;&gt;Node9</title>
<path fill="none" stroke="#191970" d="M672.7899,-168.168C680.1276,-159.0639 688.6451,-148.4959 695.678,-139.7699"/>
<polygon fill="#191970" stroke="#191970" points="698.567,-141.7628 702.1172,-131.7805 693.1169,-137.3701 698.567,-141.7628"/>
</g>
<!-- Node10 -->
<g id="node11" class="node">
<title>Node10</title>
<polygon fill="#ffffff" stroke="#bfbfbf" points="774.5,-112.5 774.5,-131.5 863.5,-131.5 863.5,-112.5 774.5,-112.5"/>
<text text-anchor="middle" x="819" y="-119.5" font-family="Helvetica,sans-Serif" font-size="10.00" fill="#000000">archlib/Event.h</text>
</g>
<!-- Node0&#45;&gt;Node10 -->
<g id="edge10" class="edge">
<title>Node0&#45;&gt;Node10</title>
<path fill="none" stroke="#191970" d="M706.2354,-168.3511C732.2633,-157.6525 763.3057,-144.8928 786.2249,-135.472"/>
<polygon fill="#191970" stroke="#191970" points="787.5934,-138.6937 795.5119,-131.6546 784.9321,-132.2193 787.5934,-138.6937"/>
</g>
<!-- Node11 -->
<g id="node12" class="node">
<title>Node11</title>
<polygon fill="#ffffff" stroke="#bfbfbf" points="881.5,-112.5 881.5,-131.5 982.5,-131.5 982.5,-112.5 881.5,-112.5"/>
<text text-anchor="middle" x="932" y="-119.5" font-family="Helvetica,sans-Serif" font-size="10.00" fill="#000000">archlib/Strategy.h</text>
</g>
<!-- Node0&#45;&gt;Node11 -->
<g id="edge11" class="edge">
<title>Node0&#45;&gt;Node11</title>
<path fill="none" stroke="#191970" d="M733.2484,-170.2477C781.1294,-158.6244 841.2013,-144.0417 882.7008,-133.9676"/>
<polygon fill="#191970" stroke="#191970" points="883.6779,-137.3321 892.57,-131.5718 882.0265,-130.5297 883.6779,-137.3321"/>
</g>
<!-- Node12 -->
<g id="node13" class="node">
<title>Node12</title>
<polygon fill="#ffffff" stroke="#bfbfbf" points="1001,-112.5 1001,-131.5 1111,-131.5 1111,-112.5 1001,-112.5"/>
<text text-anchor="middle" x="1056" y="-119.5" font-family="Helvetica,sans-Serif" font-size="10.00" fill="#000000">archlib/Exception.h</text>
</g>
<!-- Node0&#45;&gt;Node12 -->
<g id="edge12" class="edge">
<title>Node0&#45;&gt;Node12</title>
<path fill="none" stroke="#191970" d="M733.124,-176.0817C807.9917,-163.5414 920.3658,-144.7187 990.8699,-132.9093"/>
<polygon fill="#191970" stroke="#191970" points="991.6745,-136.3234 1000.9588,-131.2194 990.518,-129.4195 991.6745,-136.3234"/>
</g>
<!-- Node13 -->
<g id="node14" class="node">
<title>Node13</title>
<polygon fill="#ffffff" stroke="#bfbfbf" points="1129.5,-112.5 1129.5,-131.5 1294.5,-131.5 1294.5,-112.5 1129.5,-112.5"/>
<text text-anchor="middle" x="1212" y="-119.5" font-family="Helvetica,sans-Serif" font-size="10.00" fill="#000000">archlib/AdaptationCommand.h</text>
</g>
<!-- Node0&#45;&gt;Node13 -->
<g id="edge13" class="edge">
<title>Node0&#45;&gt;Node13</title>
<path fill="none" stroke="#191970" d="M733.0173,-179.7191C835.1177,-167.4157 1014.9179,-145.7491 1122.8021,-132.7487"/>
<polygon fill="#191970" stroke="#191970" points="1123.5036,-136.1895 1133.013,-131.5182 1122.6661,-129.2398 1123.5036,-136.1895"/>
</g>
<!-- Node14 -->
<g id="node15" class="node">
<title>Node14</title>
<polygon fill="#ffffff" stroke="#bfbfbf" points="1313,-112.5 1313,-131.5 1471,-131.5 1471,-112.5 1313,-112.5"/>
<text text-anchor="middle" x="1392" y="-119.5" font-family="Helvetica,sans-Serif" font-size="10.00" fill="#000000">archlib/DataAccessRequest.h</text>
</g>
<!-- Node0&#45;&gt;Node14 -->
<g id="edge14" class="edge">
<title>Node0&#45;&gt;Node14</title>
<path fill="none" stroke="#191970" d="M733.3643,-182.8344C853.0357,-173.1551 1090.5219,-153.3824 1302.7688,-132.104"/>
<polygon fill="#191970" stroke="#191970" points="1303.2565,-135.5727 1312.8561,-131.0897 1302.5561,-128.6079 1303.2565,-135.5727"/>
</g>
<!-- Node15 -->
<g id="node16" class="node">
<title>Node15</title>
<g id="a_node16"><a xlink:href="ROSComponent_8hpp.html" target="_top" xlink:title="archlib/ROSComponent.hpp">
<polygon fill="#ffffff" stroke="#000000" points="260,-112.5 260,-131.5 410,-131.5 410,-112.5 260,-112.5"/>
<text text-anchor="middle" x="335" y="-119.5" font-family="Helvetica,sans-Serif" font-size="10.00" fill="#000000">archlib/ROSComponent.hpp</text>
</a>
</g>
</g>
<!-- Node0&#45;&gt;Node15 -->
<g id="edge15" class="edge">
<title>Node0&#45;&gt;Node15</title>
<path fill="none" stroke="#191970" d="M578.704,-172.8666C520.7886,-160.7783 442.8947,-144.5201 390.9177,-133.6713"/>
<polygon fill="#191970" stroke="#191970" points="391.3857,-130.1936 380.8815,-131.5765 389.9554,-137.046 391.3857,-130.1936"/>
</g>
<!-- Node18 -->
<g id="node19" class="node">
<title>Node18</title>
<polygon fill="#ffffff" stroke="#bfbfbf" points="1489,-112.5 1489,-131.5 1623,-131.5 1623,-112.5 1489,-112.5"/>
<text text-anchor="middle" x="1556" y="-119.5" font-family="Helvetica,sans-Serif" font-size="10.00" fill="#000000">archlib/EngineRequest.h</text>
</g>
<!-- Node0&#45;&gt;Node18 -->
<g id="edge22" class="edge">
<title>Node0&#45;&gt;Node18</title>
<path fill="none" stroke="#191970" d="M733.0993,-185.2592C877.3893,-177.9093 1198.2387,-159.9177 1478.9219,-132.0542"/>
<polygon fill="#191970" stroke="#191970" points="1479.2867,-135.5353 1488.8894,-131.0589 1478.591,-128.57 1479.2867,-135.5353"/>
</g>
<!-- Node7 -->
<g id="node8" class="node">
<title>Node7</title>
<polygon fill="#ffffff" stroke="#bfbfbf" points="629.5,-56.5 629.5,-75.5 676.5,-75.5 676.5,-56.5 629.5,-56.5"/>
<text text-anchor="middle" x="653" y="-63.5" font-family="Helvetica,sans-Serif" font-size="10.00" fill="#000000">vector</text>
</g>
<!-- Node6&#45;&gt;Node7 -->
<g id="edge7" class="edge">
<title>Node6&#45;&gt;Node7</title>
<path fill="none" stroke="#191970" d="M513.8802,-112.3733C543.2123,-102.5959 588.5987,-87.4671 619.4941,-77.1686"/>
<polygon fill="#191970" stroke="#191970" points="620.992,-80.3587 629.372,-73.876 618.7784,-73.7179 620.992,-80.3587"/>
</g>
<!-- Node8 -->
<g id="node9" class="node">
<title>Node8</title>
<polygon fill="#ffffff" stroke="#bfbfbf" points="457,-.5 457,-19.5 501,-19.5 501,-.5 457,-.5"/>
<text text-anchor="middle" x="479" y="-7.5" font-family="Helvetica,sans-Serif" font-size="10.00" fill="#000000">string</text>
</g>
<!-- Node6&#45;&gt;Node8 -->
<g id="edge8" class="edge">
<title>Node6&#45;&gt;Node8</title>
<path fill="none" stroke="#191970" d="M523.8159,-112.457C557.9367,-102.051 599.6233,-83.1716 582,-56 566.4971,-32.0976 535.3535,-20.5065 511.351,-14.9532"/>
<polygon fill="#191970" stroke="#191970" points="511.7394,-11.4596 501.2381,-12.8642 510.3233,-18.3149 511.7394,-11.4596"/>
</g>
<!-- Node15&#45;&gt;Node4 -->
<g id="edge18" class="edge">
<title>Node15&#45;&gt;Node4</title>
<path fill="none" stroke="#191970" d="M300.0431,-112.4368C280.3944,-105.375 256.8961,-93.8339 242,-76 231.1434,-63.0023 226.485,-44.1114 224.489,-29.8674"/>
<polygon fill="#191970" stroke="#191970" points="227.9388,-29.2109 223.3915,-19.6415 220.9787,-29.958 227.9388,-29.2109"/>
</g>
<!-- Node15&#45;&gt;Node8 -->
<g id="edge16" class="edge">
<title>Node15&#45;&gt;Node8</title>
<path fill="none" stroke="#191970" d="M393.3722,-112.444C416.9283,-105.8379 442.5969,-94.7095 460,-76 471.5344,-63.5998 476.1184,-44.6434 477.914,-30.2226"/>
<polygon fill="#191970" stroke="#191970" points="481.4374,-30.1121 478.8356,-19.8418 474.4649,-29.493 481.4374,-30.1121"/>
</g>
<!-- Node16 -->
<g id="node17" class="node">
<title>Node16</title>
<polygon fill="#ffffff" stroke="#bfbfbf" points="507.5,-56.5 507.5,-75.5 572.5,-75.5 572.5,-56.5 507.5,-56.5"/>
<text text-anchor="middle" x="540" y="-63.5" font-family="Helvetica,sans-Serif" font-size="10.00" fill="#000000">stdexcept</text>
</g>
<!-- Node15&#45;&gt;Node16 -->
<g id="edge17" class="edge">
<title>Node15&#45;&gt;Node16</title>
<path fill="none" stroke="#191970" d="M370.2408,-112.3733C405.5499,-102.7278 459.9241,-87.8744 497.5792,-77.5881"/>
<polygon fill="#191970" stroke="#191970" points="498.5237,-80.9584 507.2479,-74.9469 496.679,-74.2059 498.5237,-80.9584"/>
</g>
<!-- Node17 -->
<g id="node18" class="node">
<title>Node17</title>
<g id="a_node18"><a xlink:href="ROSComponentDescriptor_8hpp.html" target="_top" xlink:title="archlib/ROSComponentDescriptor.hpp">
<polygon fill="#ffffff" stroke="#000000" points="251,-56.5 251,-75.5 451,-75.5 451,-56.5 251,-56.5"/>
<text text-anchor="middle" x="351" y="-63.5" font-family="Helvetica,sans-Serif" font-size="10.00" fill="#000000">archlib/ROSComponentDescriptor.hpp</text>
</a>
</g>
</g>
<!-- Node15&#45;&gt;Node17 -->
<g id="edge19" class="edge">
<title>Node15&#45;&gt;Node17</title>
<path fill="none" stroke="#191970" d="M337.787,-112.2455C339.8977,-104.8579 342.866,-94.4689 345.4547,-85.4087"/>
<polygon fill="#191970" stroke="#191970" points="348.863,-86.2195 348.245,-75.6427 342.1323,-84.2964 348.863,-86.2195"/>
</g>
<!-- Node17&#45;&gt;Node4 -->
<g id="edge21" class="edge">
<title>Node17&#45;&gt;Node4</title>
<path fill="none" stroke="#191970" d="M328.996,-56.3733C308.3565,-47.3435 277.2842,-33.7494 254.1111,-23.6111"/>
<polygon fill="#191970" stroke="#191970" points="255.2813,-20.3028 244.7169,-19.5011 252.4755,-26.7159 255.2813,-20.3028"/>
</g>
<!-- Node17&#45;&gt;Node8 -->
<g id="edge20" class="edge">
<title>Node17&#45;&gt;Node8</title>
<path fill="none" stroke="#191970" d="M373.004,-56.3733C393.6435,-47.3435 424.7158,-33.7494 447.8889,-23.6111"/>
<polygon fill="#191970" stroke="#191970" points="449.5245,-26.7159 457.2831,-19.5011 446.7187,-20.3028 449.5245,-26.7159"/>
</g>
</g>
</svg>
