<?xml version="1.0" encoding="UTF-8" standalone="no"?>
<!DOCTYPE svg PUBLIC "-//W3C//DTD SVG 1.1//EN"
 "http://www.w3.org/Graphics/SVG/1.1/DTD/svg11.dtd">
<!-- Generated by graphviz version 2.40.1 (20161225.0304)
 -->
<!-- Title: src/sa&#45;bsn/system_manager/enactor/include/enactor/Enactor.hpp Pages: 1 -->
<svg width="506pt" height="195pt"
 viewBox="0.00 0.00 506.00 195.00" xmlns="http://www.w3.org/2000/svg" xmlns:xlink="http://www.w3.org/1999/xlink">
<g id="graph0" class="graph" transform="scale(1 1) rotate(0) translate(4 191)">
<title>src/sa&#45;bsn/system_manager/enactor/include/enactor/Enactor.hpp</title>
<polygon fill="#ffffff" stroke="transparent" points="-4,4 -4,-191 502,-191 502,4 -4,4"/>
<!-- Node19 -->
<g id="node1" class="node">
<title>Node19</title>
<polygon fill="#bfbfbf" stroke="#000000" points="172,-145.5 172,-186.5 326,-186.5 326,-145.5 172,-145.5"/>
<text text-anchor="start" x="180" y="-174.5" font-family="Helvetica,sans-Serif" font-size="10.00" fill="#000000">src/sa&#45;bsn/system_manager</text>
<text text-anchor="start" x="180" y="-163.5" font-family="Helvetica,sans-Serif" font-size="10.00" fill="#000000">/enactor/include/enactor</text>
<text text-anchor="middle" x="249" y="-152.5" font-family="Helvetica,sans-Serif" font-size="10.00" fill="#000000">/Enactor.hpp</text>
</g>
<!-- Node20 -->
<g id="node2" class="node">
<title>Node20</title>
<g id="a_node2"><a xlink:href="enactor_8cpp.html" target="_top" xlink:title="src/sa&#45;bsn/system_manager\l/enactor/apps/enactor.cpp">
<polygon fill="#ffffff" stroke="#000000" points="0,-73 0,-103 154,-103 154,-73 0,-73"/>
<text text-anchor="start" x="8" y="-91" font-family="Helvetica,sans-Serif" font-size="10.00" fill="#000000">src/sa&#45;bsn/system_manager</text>
<text text-anchor="middle" x="77" y="-80" font-family="Helvetica,sans-Serif" font-size="10.00" fill="#000000">/enactor/apps/enactor.cpp</text>
</a>
</g>
</g>
<!-- Node19&#45;&gt;Node20 -->
<g id="edge1" class="edge">
<title>Node19&#45;&gt;Node20</title>
<path fill="none" stroke="#191970" d="M194.214,-141.1552C166.63,-128.6462 134.0893,-113.8893 110.3019,-103.102"/>
<polygon fill="#191970" stroke="#191970" points="192.8059,-144.3597 203.3587,-145.3022 195.697,-137.9846 192.8059,-144.3597"/>
</g>
<!-- Node21 -->
<g id="node3" class="node">
<title>Node21</title>
<g id="a_node3"><a xlink:href="Controller_8hpp.html" target="_top" xlink:title="src/sa&#45;bsn/system_manager\l/enactor/include/controller\l/Controller.hpp">
<polygon fill="#ffffff" stroke="#000000" points="172,-67.5 172,-108.5 326,-108.5 326,-67.5 172,-67.5"/>
<text text-anchor="start" x="180" y="-96.5" font-family="Helvetica,sans-Serif" font-size="10.00" fill="#000000">src/sa&#45;bsn/system_manager</text>
<text text-anchor="start" x="180" y="-85.5" font-family="Helvetica,sans-Serif" font-size="10.00" fill="#000000">/enactor/include/controller</text>
<text text-anchor="middle" x="249" y="-74.5" font-family="Helvetica,sans-Serif" font-size="10.00" fill="#000000">/Controller.hpp</text>
</a>
</g>
</g>
<!-- Node19&#45;&gt;Node21 -->
<g id="edge2" class="edge">
<title>Node19&#45;&gt;Node21</title>
<path fill="none" stroke="#191970" d="M249,-135.0789C249,-126.2178 249,-116.7747 249,-108.6898"/>
<polygon fill="#191970" stroke="#191970" points="245.5001,-135.0974 249,-145.0974 252.5001,-135.0975 245.5001,-135.0974"/>
</g>
<!-- Node24 -->
<g id="node6" class="node">
<title>Node24</title>
<g id="a_node6"><a xlink:href="Enactor_8cpp.html" target="_top" xlink:title="src/sa&#45;bsn/system_manager\l/enactor/src/Enactor.cpp">
<polygon fill="#ffffff" stroke="#000000" points="344,-73 344,-103 498,-103 498,-73 344,-73"/>
<text text-anchor="start" x="352" y="-91" font-family="Helvetica,sans-Serif" font-size="10.00" fill="#000000">src/sa&#45;bsn/system_manager</text>
<text text-anchor="middle" x="421" y="-80" font-family="Helvetica,sans-Serif" font-size="10.00" fill="#000000">/enactor/src/Enactor.cpp</text>
</a>
</g>
</g>
<!-- Node19&#45;&gt;Node24 -->
<g id="edge5" class="edge">
<title>Node19&#45;&gt;Node24</title>
<path fill="none" stroke="#191970" d="M303.786,-141.1552C331.37,-128.6462 363.9107,-113.8893 387.6981,-103.102"/>
<polygon fill="#191970" stroke="#191970" points="302.303,-137.9846 294.6413,-145.3022 305.1941,-144.3597 302.303,-137.9846"/>
</g>
<!-- Node22 -->
<g id="node4" class="node">
<title>Node22</title>
<g id="a_node4"><a xlink:href="controller_8cpp.html" target="_top" xlink:title="src/sa&#45;bsn/system_manager\l/enactor/apps/controller.cpp">
<polygon fill="#ffffff" stroke="#000000" points="86,-.5 86,-30.5 240,-30.5 240,-.5 86,-.5"/>
<text text-anchor="start" x="94" y="-18.5" font-family="Helvetica,sans-Serif" font-size="10.00" fill="#000000">src/sa&#45;bsn/system_manager</text>
<text text-anchor="middle" x="163" y="-7.5" font-family="Helvetica,sans-Serif" font-size="10.00" fill="#000000">/enactor/apps/controller.cpp</text>
</a>
</g>
</g>
<!-- Node21&#45;&gt;Node22 -->
<g id="edge3" class="edge">
<title>Node21&#45;&gt;Node22</title>
<path fill="none" stroke="#191970" d="M216.824,-60.8749C204.6746,-50.6327 191.2922,-39.351 180.9107,-30.5991"/>
<polygon fill="#191970" stroke="#191970" points="214.6843,-63.6488 224.5859,-67.4183 219.1961,-58.2969 214.6843,-63.6488"/>
</g>
<!-- Node23 -->
<g id="node5" class="node">
<title>Node23</title>
<g id="a_node5"><a xlink:href="Controller_8cpp.html" target="_top" xlink:title="src/sa&#45;bsn/system_manager\l/enactor/src/Controller.cpp">
<polygon fill="#ffffff" stroke="#000000" points="258,-.5 258,-30.5 412,-30.5 412,-.5 258,-.5"/>
<text text-anchor="start" x="266" y="-18.5" font-family="Helvetica,sans-Serif" font-size="10.00" fill="#000000">src/sa&#45;bsn/system_manager</text>
<text text-anchor="middle" x="335" y="-7.5" font-family="Helvetica,sans-Serif" font-size="10.00" fill="#000000">/enactor/src/Controller.cpp</text>
</a>
</g>
</g>
<!-- Node21&#45;&gt;Node23 -->
<g id="edge4" class="edge">
<title>Node21&#45;&gt;Node23</title>
<path fill="none" stroke="#191970" d="M281.176,-60.8749C293.3254,-50.6327 306.7078,-39.351 317.0893,-30.5991"/>
<polygon fill="#191970" stroke="#191970" points="278.8039,-58.2969 273.4141,-67.4183 283.3157,-63.6488 278.8039,-58.2969"/>
</g>
</g>
</svg>
