<?xml version="1.0" encoding="UTF-8" standalone="no"?>
<!DOCTYPE svg PUBLIC "-//W3C//DTD SVG 1.1//EN"
 "http://www.w3.org/Graphics/SVG/1.1/DTD/svg11.dtd">
<!-- Generated by graphviz version 2.40.1 (20161225.0304)
 -->
<!-- Title: src/sa&#45;bsn/system_manager/adaptation_engine/include/engine/Engine.hpp Pages: 1 -->
<svg width="2093pt" height="386pt"
 viewBox="0.00 0.00 2092.50 386.00" xmlns="http://www.w3.org/2000/svg" xmlns:xlink="http://www.w3.org/1999/xlink">
<g id="graph0" class="graph" transform="scale(1 1) rotate(0) translate(4 382)">
<title>src/sa&#45;bsn/system_manager/adaptation_engine/include/engine/Engine.hpp</title>
<polygon fill="#ffffff" stroke="transparent" points="-4,4 -4,-382 2088.5,-382 2088.5,4 -4,4"/>
<!-- Node0 -->
<g id="node1" class="node">
<title>Node0</title>
<polygon fill="#bfbfbf" stroke="#000000" points="844.5,-336.5 844.5,-377.5 998.5,-377.5 998.5,-336.5 844.5,-336.5"/>
<text text-anchor="start" x="852.5" y="-365.5" font-family="Helvetica,sans-Serif" font-size="10.00" fill="#000000">src/sa&#45;bsn/system_manager</text>
<text text-anchor="start" x="852.5" y="-354.5" font-family="Helvetica,sans-Serif" font-size="10.00" fill="#000000">/adaptation_engine/include</text>
<text text-anchor="middle" x="921.5" y="-343.5" font-family="Helvetica,sans-Serif" font-size="10.00" fill="#000000">/engine/Engine.hpp</text>
</g>
<!-- Node1 -->
<g id="node2" class="node">
<title>Node1</title>
<polygon fill="#ffffff" stroke="#bfbfbf" points="0,-280.5 0,-299.5 55,-299.5 55,-280.5 0,-280.5"/>
<text text-anchor="middle" x="27.5" y="-287.5" font-family="Helvetica,sans-Serif" font-size="10.00" fill="#000000">fstream</text>
</g>
<!-- Node0&#45;&gt;Node1 -->
<g id="edge1" class="edge">
<title>Node0&#45;&gt;Node1</title>
<path fill="none" stroke="#191970" d="M844.3694,-353.825C666.6946,-346.2015 231.7481,-325.691 65.3445,-299.7667"/>
<polygon fill="#191970" stroke="#191970" points="65.6815,-296.2758 55.2504,-298.1313 64.5619,-303.1857 65.6815,-296.2758"/>
</g>
<!-- Node2 -->
<g id="node3" class="node">
<title>Node2</title>
<polygon fill="#ffffff" stroke="#bfbfbf" points="73.5,-280.5 73.5,-299.5 129.5,-299.5 129.5,-280.5 73.5,-280.5"/>
<text text-anchor="middle" x="101.5" y="-287.5" font-family="Helvetica,sans-Serif" font-size="10.00" fill="#000000">sstream</text>
</g>
<!-- Node0&#45;&gt;Node2 -->
<g id="edge2" class="edge">
<title>Node0&#45;&gt;Node2</title>
<path fill="none" stroke="#191970" d="M844.2903,-355.4445C703.9807,-351.709 398.1312,-339.3798 143.5,-300 142.25,-299.8067 140.9823,-299.5954 139.7046,-299.3694"/>
<polygon fill="#191970" stroke="#191970" points="140.336,-295.9264 129.8443,-297.4008 138.9655,-302.7909 140.336,-295.9264"/>
</g>
<!-- Node3 -->
<g id="node4" class="node">
<title>Node3</title>
<polygon fill="#ffffff" stroke="#bfbfbf" points="932.5,-.5 932.5,-19.5 976.5,-19.5 976.5,-.5 932.5,-.5"/>
<text text-anchor="middle" x="954.5" y="-7.5" font-family="Helvetica,sans-Serif" font-size="10.00" fill="#000000">string</text>
</g>
<!-- Node0&#45;&gt;Node3 -->
<g id="edge3" class="edge">
<title>Node0&#45;&gt;Node3</title>
<path fill="none" stroke="#191970" d="M985.0871,-336.4765C1048.5254,-312.2007 1142.4256,-265.0487 1184.5,-188 1233.6136,-98.0608 1060.2952,-38.8516 986.3597,-18.1757"/>
<polygon fill="#191970" stroke="#191970" points="987.1891,-14.7741 976.6201,-15.5148 985.3442,-21.5266 987.1891,-14.7741"/>
</g>
<!-- Node4 -->
<g id="node5" class="node">
<title>Node4</title>
<polygon fill="#ffffff" stroke="#bfbfbf" points="185.5,-224.5 185.5,-243.5 223.5,-243.5 223.5,-224.5 185.5,-224.5"/>
<text text-anchor="middle" x="204.5" y="-231.5" font-family="Helvetica,sans-Serif" font-size="10.00" fill="#000000">map</text>
</g>
<!-- Node0&#45;&gt;Node4 -->
<g id="edge4" class="edge">
<title>Node0&#45;&gt;Node4</title>
<path fill="none" stroke="#191970" d="M844.213,-356.0861C670.3012,-353.2848 259.7855,-342.2248 214.5,-300 202.2069,-288.5378 200.633,-268.8799 201.5784,-253.9914"/>
<polygon fill="#191970" stroke="#191970" points="205.0903,-254.062 202.6566,-243.7504 198.1287,-253.329 205.0903,-254.062"/>
</g>
<!-- Node5 -->
<g id="node6" class="node">
<title>Node5</title>
<polygon fill="#ffffff" stroke="#bfbfbf" points="223.5,-280.5 223.5,-299.5 255.5,-299.5 255.5,-280.5 223.5,-280.5"/>
<text text-anchor="middle" x="239.5" y="-287.5" font-family="Helvetica,sans-Serif" font-size="10.00" fill="#000000">set</text>
</g>
<!-- Node0&#45;&gt;Node5 -->
<g id="edge5" class="edge">
<title>Node0&#45;&gt;Node5</title>
<path fill="none" stroke="#191970" d="M844.4335,-353.1575C699.4544,-345.4733 390.2646,-326.8071 265.7388,-299.5853"/>
<polygon fill="#191970" stroke="#191970" points="266.2126,-296.1028 255.6822,-297.2692 264.6416,-302.9243 266.2126,-296.1028"/>
</g>
<!-- Node6 -->
<g id="node7" class="node">
<title>Node6</title>
<polygon fill="#ffffff" stroke="#bfbfbf" points="273.5,-280.5 273.5,-299.5 337.5,-299.5 337.5,-280.5 273.5,-280.5"/>
<text text-anchor="middle" x="305.5" y="-287.5" font-family="Helvetica,sans-Serif" font-size="10.00" fill="#000000">algorithm</text>
</g>
<!-- Node0&#45;&gt;Node6 -->
<g id="edge6" class="edge">
<title>Node0&#45;&gt;Node6</title>
<path fill="none" stroke="#191970" d="M844.1583,-352.084C734.2039,-344.4566 526.5964,-327.694 351.5,-300 350.2286,-299.7989 348.9396,-299.5847 347.6398,-299.3598"/>
<polygon fill="#191970" stroke="#191970" points="348.0574,-295.877 337.5822,-297.4646 346.7612,-302.7559 348.0574,-295.877"/>
</g>
<!-- Node7 -->
<g id="node8" class="node">
<title>Node7</title>
<polygon fill="#ffffff" stroke="#bfbfbf" points="1544,-.5 1544,-19.5 1603,-19.5 1603,-.5 1544,-.5"/>
<text text-anchor="middle" x="1573.5" y="-7.5" font-family="Helvetica,sans-Serif" font-size="10.00" fill="#000000">ros/ros.h</text>
</g>
<!-- Node0&#45;&gt;Node7 -->
<g id="edge7" class="edge">
<title>Node0&#45;&gt;Node7</title>
<path fill="none" stroke="#191970" d="M998.5996,-354.942C1224.0216,-348.6079 1868.3144,-328.1195 1903.5,-300 1927.3453,-280.9434 1922.5,-264.5246 1922.5,-234 1922.5,-234 1922.5,-234 1922.5,-122 1922.5,-57.6639 1704.7601,-25.0859 1613.2533,-14.2354"/>
<polygon fill="#191970" stroke="#191970" points="1613.5919,-10.7513 1603.2555,-13.0771 1612.7863,-17.7048 1613.5919,-10.7513"/>
</g>
<!-- Node8 -->
<g id="node9" class="node">
<title>Node8</title>
<polygon fill="#ffffff" stroke="#bfbfbf" points="394,-280.5 394,-299.5 479,-299.5 479,-280.5 394,-280.5"/>
<text text-anchor="middle" x="436.5" y="-287.5" font-family="Helvetica,sans-Serif" font-size="10.00" fill="#000000">ros/package.h</text>
</g>
<!-- Node0&#45;&gt;Node8 -->
<g id="edge8" class="edge">
<title>Node0&#45;&gt;Node8</title>
<path fill="none" stroke="#191970" d="M844.2555,-348.228C759.692,-338.3088 619.8833,-320.9844 489.223,-300.0357"/>
<polygon fill="#191970" stroke="#191970" points="489.4607,-296.5289 479.0308,-298.3912 488.3456,-303.4395 489.4607,-296.5289"/>
</g>
<!-- Node9 -->
<g id="node10" class="node">
<title>Node9</title>
<g id="a_node10"><a xlink:href="Node_8hpp.html" target="_top" xlink:title="libbsn/goalmodel/Node.hpp">
<polygon fill="#ffffff" stroke="#000000" points="319.5,-56.5 319.5,-75.5 469.5,-75.5 469.5,-56.5 319.5,-56.5"/>
<text text-anchor="middle" x="394.5" y="-63.5" font-family="Helvetica,sans-Serif" font-size="10.00" fill="#000000">libbsn/goalmodel/Node.hpp</text>
</a>
</g>
</g>
<!-- Node0&#45;&gt;Node9 -->
<g id="edge9" class="edge">
<title>Node0&#45;&gt;Node9</title>
<path fill="none" stroke="#191970" d="M844.3687,-355.3637C669.0709,-351.0148 251.8919,-336.8756 200.5,-300 171.7203,-279.3495 160.4004,-255.5519 176.5,-224 214.92,-148.7045 307.8482,-100.9426 359.0997,-79.3885"/>
<polygon fill="#191970" stroke="#191970" points="360.5404,-82.5807 368.4639,-75.5473 357.8837,-76.1043 360.5404,-82.5807"/>
</g>
<!-- Node13 -->
<g id="node14" class="node">
<title>Node13</title>
<g id="a_node14"><a xlink:href="Goal_8hpp.html" target="_top" xlink:title="libbsn/goalmodel/Goal.hpp">
<polygon fill="#ffffff" stroke="#000000" points="474,-112.5 474,-131.5 621,-131.5 621,-112.5 474,-112.5"/>
<text text-anchor="middle" x="547.5" y="-119.5" font-family="Helvetica,sans-Serif" font-size="10.00" fill="#000000">libbsn/goalmodel/Goal.hpp</text>
</a>
</g>
</g>
<!-- Node0&#45;&gt;Node13 -->
<g id="edge14" class="edge">
<title>Node0&#45;&gt;Node13</title>
<path fill="none" stroke="#191970" d="M844.1272,-345.8997C803.6806,-337.6277 754.5982,-323.5493 715.5,-300 644.6613,-257.3329 584.4387,-176.6713 559.6288,-140.4385"/>
<polygon fill="#191970" stroke="#191970" points="562.3327,-138.1876 553.8437,-131.8482 556.5266,-142.0977 562.3327,-138.1876"/>
</g>
<!-- Node14 -->
<g id="node15" class="node">
<title>Node14</title>
<g id="a_node15"><a xlink:href="Task_8hpp.html" target="_top" xlink:title="libbsn/goalmodel/Task.hpp">
<polygon fill="#ffffff" stroke="#000000" points="397.5,-168.5 397.5,-187.5 543.5,-187.5 543.5,-168.5 397.5,-168.5"/>
<text text-anchor="middle" x="470.5" y="-175.5" font-family="Helvetica,sans-Serif" font-size="10.00" fill="#000000">libbsn/goalmodel/Task.hpp</text>
</a>
</g>
</g>
<!-- Node0&#45;&gt;Node14 -->
<g id="edge19" class="edge">
<title>Node0&#45;&gt;Node14</title>
<path fill="none" stroke="#191970" d="M844.4832,-354.3996C703.5118,-348.8421 415.6141,-333.4864 385.5,-300 353.7538,-264.6988 411.4916,-217.1528 446.525,-193.1754"/>
<polygon fill="#191970" stroke="#191970" points="448.4954,-196.0683 454.8743,-187.609 444.6124,-190.244 448.4954,-196.0683"/>
</g>
<!-- Node15 -->
<g id="node16" class="node">
<title>Node15</title>
<g id="a_node16"><a xlink:href="Property_8hpp.html" target="_top" xlink:title="libbsn/goalmodel/Property.hpp">
<polygon fill="#ffffff" stroke="#000000" points="1011.5,-168.5 1011.5,-187.5 1175.5,-187.5 1175.5,-168.5 1011.5,-168.5"/>
<text text-anchor="middle" x="1093.5" y="-175.5" font-family="Helvetica,sans-Serif" font-size="10.00" fill="#000000">libbsn/goalmodel/Property.hpp</text>
</a>
</g>
</g>
<!-- Node0&#45;&gt;Node15 -->
<g id="edge26" class="edge">
<title>Node0&#45;&gt;Node15</title>
<path fill="none" stroke="#191970" d="M941.2306,-336.4664C975.396,-300.9106 1044.9673,-228.5079 1076.8564,-195.321"/>
<polygon fill="#191970" stroke="#191970" points="1079.7024,-197.4106 1084.1074,-187.7749 1074.655,-192.5605 1079.7024,-197.4106"/>
</g>
<!-- Node16 -->
<g id="node17" class="node">
<title>Node16</title>
<g id="a_node17"><a xlink:href="LeafTask_8hpp.html" target="_top" xlink:title="libbsn/goalmodel/LeafTask.hpp">
<polygon fill="#ffffff" stroke="#000000" points="755,-224.5 755,-243.5 922,-243.5 922,-224.5 755,-224.5"/>
<text text-anchor="middle" x="838.5" y="-231.5" font-family="Helvetica,sans-Serif" font-size="10.00" fill="#000000">libbsn/goalmodel/LeafTask.hpp</text>
</a>
</g>
</g>
<!-- Node0&#45;&gt;Node16 -->
<g id="edge28" class="edge">
<title>Node0&#45;&gt;Node16</title>
<path fill="none" stroke="#191970" d="M907.6077,-336.4126C891.6979,-312.8355 865.881,-274.5767 850.712,-252.0973"/>
<polygon fill="#191970" stroke="#191970" points="853.4177,-249.8497 844.9228,-243.5182 847.6152,-253.7652 853.4177,-249.8497"/>
</g>
<!-- Node17 -->
<g id="node18" class="node">
<title>Node17</title>
<g id="a_node18"><a xlink:href="Context_8hpp.html" target="_top" xlink:title="libbsn/goalmodel/Context.hpp">
<polygon fill="#ffffff" stroke="#000000" points="830,-168.5 830,-187.5 993,-187.5 993,-168.5 830,-168.5"/>
<text text-anchor="middle" x="911.5" y="-175.5" font-family="Helvetica,sans-Serif" font-size="10.00" fill="#000000">libbsn/goalmodel/Context.hpp</text>
</a>
</g>
</g>
<!-- Node0&#45;&gt;Node17 -->
<g id="edge35" class="edge">
<title>Node0&#45;&gt;Node17</title>
<path fill="none" stroke="#191970" d="M926.5443,-336.4916C932.2226,-310.17 939.6572,-263.2196 931.5,-224 929.5586,-214.6655 925.6196,-204.9017 921.7469,-196.783"/>
<polygon fill="#191970" stroke="#191970" points="924.8486,-195.161 917.1945,-187.8354 918.6097,-198.3353 924.8486,-195.161"/>
</g>
<!-- Node18 -->
<g id="node19" class="node">
<title>Node18</title>
<g id="a_node19"><a xlink:href="GoalTree_8hpp.html" target="_top" xlink:title="libbsn/goalmodel/GoalTree.hpp">
<polygon fill="#ffffff" stroke="#000000" points="497,-280.5 497,-299.5 664,-299.5 664,-280.5 497,-280.5"/>
<text text-anchor="middle" x="580.5" y="-287.5" font-family="Helvetica,sans-Serif" font-size="10.00" fill="#000000">libbsn/goalmodel/GoalTree.hpp</text>
</a>
</g>
</g>
<!-- Node0&#45;&gt;Node18 -->
<g id="edge36" class="edge">
<title>Node0&#45;&gt;Node18</title>
<path fill="none" stroke="#191970" d="M844.1218,-341.7967C781.8367,-329.5588 695.6349,-312.6218 639.0004,-301.4942"/>
<polygon fill="#191970" stroke="#191970" points="639.6177,-298.0487 629.1305,-299.555 638.2681,-304.9173 639.6177,-298.0487"/>
</g>
<!-- Node19 -->
<g id="node20" class="node">
<title>Node19</title>
<g id="a_node20"><a xlink:href="Formula_8hpp.html" target="_top" xlink:title="libbsn/model/Formula.hpp">
<polygon fill="#ffffff" stroke="#000000" points="1107,-280.5 1107,-299.5 1250,-299.5 1250,-280.5 1107,-280.5"/>
<text text-anchor="middle" x="1178.5" y="-287.5" font-family="Helvetica,sans-Serif" font-size="10.00" fill="#000000">libbsn/model/Formula.hpp</text>
</a>
</g>
</g>
<!-- Node0&#45;&gt;Node19 -->
<g id="edge46" class="edge">
<title>Node0&#45;&gt;Node19</title>
<path fill="none" stroke="#191970" d="M998.6085,-336.8978C1041.9908,-325.588 1094.7294,-311.839 1131.8533,-302.1608"/>
<polygon fill="#191970" stroke="#191970" points="1133.0957,-305.454 1141.8893,-299.5444 1131.3298,-298.6804 1133.0957,-305.454"/>
</g>
<!-- Node21 -->
<g id="node22" class="node">
<title>Node21</title>
<polygon fill="#ffffff" stroke="#bfbfbf" points="1307.5,-224.5 1307.5,-243.5 1399.5,-243.5 1399.5,-224.5 1307.5,-224.5"/>
<text text-anchor="middle" x="1353.5" y="-231.5" font-family="Helvetica,sans-Serif" font-size="10.00" fill="#000000">lepton/Lepton.h</text>
</g>
<!-- Node0&#45;&gt;Node21 -->
<g id="edge54" class="edge">
<title>Node0&#45;&gt;Node21</title>
<path fill="none" stroke="#191970" d="M998.6046,-348.0133C1083.3135,-337.435 1213.465,-318.9019 1259.5,-300 1288.5092,-288.0889 1317.351,-265.9046 1335.2834,-250.5643"/>
<polygon fill="#191970" stroke="#191970" points="1337.9495,-252.8817 1343.1632,-243.6584 1333.3358,-247.6173 1337.9495,-252.8817"/>
</g>
<!-- Node22 -->
<g id="node23" class="node">
<title>Node22</title>
<g id="a_node23"><a xlink:href="utils_8hpp.html" target="_top" xlink:title="libbsn/utils/utils.hpp">
<polygon fill="#ffffff" stroke="#000000" points="792,-56.5 792,-75.5 907,-75.5 907,-56.5 792,-56.5"/>
<text text-anchor="middle" x="849.5" y="-63.5" font-family="Helvetica,sans-Serif" font-size="10.00" fill="#000000">libbsn/utils/utils.hpp</text>
</a>
</g>
</g>
<!-- Node0&#45;&gt;Node22 -->
<g id="edge51" class="edge">
<title>Node0&#45;&gt;Node22</title>
<path fill="none" stroke="#191970" d="M862.4808,-336.376C821.8602,-318.7241 770.9766,-288.9407 746.5,-244 713.4772,-183.3678 789.1136,-112.771 828.0956,-81.8594"/>
<polygon fill="#191970" stroke="#191970" points="830.4832,-84.4373 836.2483,-75.5483 826.1983,-78.902 830.4832,-84.4373"/>
</g>
<!-- Node23 -->
<g id="node24" class="node">
<title>Node23</title>
<polygon fill="#ffffff" stroke="#bfbfbf" points="1344.5,-280.5 1344.5,-299.5 1502.5,-299.5 1502.5,-280.5 1344.5,-280.5"/>
<text text-anchor="middle" x="1423.5" y="-287.5" font-family="Helvetica,sans-Serif" font-size="10.00" fill="#000000">archlib/DataAccessRequest.h</text>
</g>
<!-- Node0&#45;&gt;Node23 -->
<g id="edge55" class="edge">
<title>Node0&#45;&gt;Node23</title>
<path fill="none" stroke="#191970" d="M998.5632,-346.7147C1091.5095,-334.3095 1247.0581,-313.549 1341.9617,-300.8826"/>
<polygon fill="#191970" stroke="#191970" points="1342.6392,-304.3233 1352.0882,-299.5311 1341.7131,-297.3848 1342.6392,-304.3233"/>
</g>
<!-- Node24 -->
<g id="node25" class="node">
<title>Node24</title>
<polygon fill="#ffffff" stroke="#bfbfbf" points="1521,-280.5 1521,-299.5 1622,-299.5 1622,-280.5 1521,-280.5"/>
<text text-anchor="middle" x="1571.5" y="-287.5" font-family="Helvetica,sans-Serif" font-size="10.00" fill="#000000">archlib/Strategy.h</text>
</g>
<!-- Node0&#45;&gt;Node24 -->
<g id="edge56" class="edge">
<title>Node0&#45;&gt;Node24</title>
<path fill="none" stroke="#191970" d="M998.5354,-351.2596C1109.3886,-342.6205 1320.5149,-324.7554 1510.6144,-300.0359"/>
<polygon fill="#191970" stroke="#191970" points="1511.3368,-303.4712 1520.7977,-298.7024 1510.4278,-296.5305 1511.3368,-303.4712"/>
</g>
<!-- Node25 -->
<g id="node26" class="node">
<title>Node25</title>
<polygon fill="#ffffff" stroke="#bfbfbf" points="1640.5,-280.5 1640.5,-299.5 1750.5,-299.5 1750.5,-280.5 1640.5,-280.5"/>
<text text-anchor="middle" x="1695.5" y="-287.5" font-family="Helvetica,sans-Serif" font-size="10.00" fill="#000000">archlib/Exception.h</text>
</g>
<!-- Node0&#45;&gt;Node25 -->
<g id="edge57" class="edge">
<title>Node0&#45;&gt;Node25</title>
<path fill="none" stroke="#191970" d="M998.6456,-352.7049C1127.3756,-345.1193 1394.3076,-327.608 1630.2316,-300.0738"/>
<polygon fill="#191970" stroke="#191970" points="1630.855,-303.5247 1640.378,-298.8811 1630.0378,-296.5725 1630.855,-303.5247"/>
</g>
<!-- Node26 -->
<g id="node27" class="node">
<title>Node26</title>
<polygon fill="#ffffff" stroke="#bfbfbf" points="1768.5,-280.5 1768.5,-299.5 1894.5,-299.5 1894.5,-280.5 1768.5,-280.5"/>
<text text-anchor="middle" x="1831.5" y="-287.5" font-family="Helvetica,sans-Serif" font-size="10.00" fill="#000000">archlib/EnergyStatus.h</text>
</g>
<!-- Node0&#45;&gt;Node26 -->
<g id="edge58" class="edge">
<title>Node0&#45;&gt;Node26</title>
<path fill="none" stroke="#191970" d="M998.7736,-353.5576C1144.9804,-346.6473 1472.3092,-329.2827 1758.1634,-300.075"/>
<polygon fill="#191970" stroke="#191970" points="1758.7249,-303.5358 1768.3143,-299.031 1758.0087,-296.5725 1758.7249,-303.5358"/>
</g>
<!-- Node27 -->
<g id="node28" class="node">
<title>Node27</title>
<g id="a_node28"><a xlink:href="ROSComponent_8hpp.html" target="_top" xlink:title="archlib/ROSComponent.hpp">
<polygon fill="#ffffff" stroke="#000000" points="1352.5,-112.5 1352.5,-131.5 1502.5,-131.5 1502.5,-112.5 1352.5,-112.5"/>
<text text-anchor="middle" x="1427.5" y="-119.5" font-family="Helvetica,sans-Serif" font-size="10.00" fill="#000000">archlib/ROSComponent.hpp</text>
</a>
</g>
</g>
<!-- Node0&#45;&gt;Node27 -->
<g id="edge59" class="edge">
<title>Node0&#45;&gt;Node27</title>
<path fill="none" stroke="#191970" d="M998.5667,-351.6287C1074.2413,-344.842 1192.2905,-330.1842 1290.5,-300 1293.9681,-298.9341 1406.3301,-246.9078 1408.5,-244 1430.9469,-213.9203 1431.5768,-167.9171 1429.7326,-141.8427"/>
<polygon fill="#191970" stroke="#191970" points="1433.2012,-141.3363 1428.8141,-131.6925 1426.2297,-141.9672 1433.2012,-141.3363"/>
</g>
<!-- Node29 -->
<g id="node30" class="node">
<title>Node29</title>
<polygon fill="#ffffff" stroke="#bfbfbf" points="1950.5,-280.5 1950.5,-299.5 2084.5,-299.5 2084.5,-280.5 1950.5,-280.5"/>
<text text-anchor="middle" x="2017.5" y="-287.5" font-family="Helvetica,sans-Serif" font-size="10.00" fill="#000000">archlib/EngineRequest.h</text>
</g>
<!-- Node0&#45;&gt;Node29 -->
<g id="edge66" class="edge">
<title>Node0&#45;&gt;Node29</title>
<path fill="none" stroke="#191970" d="M998.6627,-354.4253C1168.4486,-348.3744 1587.1233,-331.3413 1936.5,-300 1937.7701,-299.8861 1939.0511,-299.7678 1940.3405,-299.6456"/>
<polygon fill="#191970" stroke="#191970" points="1940.7531,-303.1218 1950.3532,-298.6398 1940.0535,-296.1569 1940.7531,-303.1218"/>
</g>
<!-- Node9&#45;&gt;Node3 -->
<g id="edge10" class="edge">
<title>Node9&#45;&gt;Node3</title>
<path fill="none" stroke="#191970" d="M469.7333,-58.4767C593.5794,-46.0921 835.3369,-21.9163 922.3391,-13.2161"/>
<polygon fill="#191970" stroke="#191970" points="922.7959,-16.688 932.398,-12.2102 922.0993,-9.7227 922.7959,-16.688"/>
</g>
<!-- Node10 -->
<g id="node11" class="node">
<title>Node10</title>
<polygon fill="#ffffff" stroke="#bfbfbf" points="422,-.5 422,-19.5 469,-19.5 469,-.5 422,-.5"/>
<text text-anchor="middle" x="445.5" y="-7.5" font-family="Helvetica,sans-Serif" font-size="10.00" fill="#000000">vector</text>
</g>
<!-- Node9&#45;&gt;Node10 -->
<g id="edge11" class="edge">
<title>Node9&#45;&gt;Node10</title>
<path fill="none" stroke="#191970" d="M403.3835,-56.2455C410.6966,-48.2155 421.2391,-36.6394 429.9467,-27.0781"/>
<polygon fill="#191970" stroke="#191970" points="432.5727,-29.3928 436.7183,-19.6427 427.3972,-24.6795 432.5727,-29.3928"/>
</g>
<!-- Node11 -->
<g id="node12" class="node">
<title>Node11</title>
<polygon fill="#ffffff" stroke="#bfbfbf" points="579,-.5 579,-19.5 644,-19.5 644,-.5 579,-.5"/>
<text text-anchor="middle" x="611.5" y="-7.5" font-family="Helvetica,sans-Serif" font-size="10.00" fill="#000000">stdexcept</text>
</g>
<!-- Node9&#45;&gt;Node11 -->
<g id="edge12" class="edge">
<title>Node9&#45;&gt;Node11</title>
<path fill="none" stroke="#191970" d="M431.8036,-56.3733C470.009,-46.5138 529.3009,-31.2127 569.2227,-20.9103"/>
<polygon fill="#191970" stroke="#191970" points="570.1222,-24.2929 578.9304,-18.4051 568.373,-17.5149 570.1222,-24.2929"/>
</g>
<!-- Node12 -->
<g id="node13" class="node">
<title>Node12</title>
<polygon fill="#ffffff" stroke="#bfbfbf" points="167.5,-.5 167.5,-19.5 225.5,-19.5 225.5,-.5 167.5,-.5"/>
<text text-anchor="middle" x="196.5" y="-7.5" font-family="Helvetica,sans-Serif" font-size="10.00" fill="#000000">memory</text>
</g>
<!-- Node9&#45;&gt;Node12 -->
<g id="edge13" class="edge">
<title>Node9&#45;&gt;Node12</title>
<path fill="none" stroke="#191970" d="M360.4626,-56.3733C325.6957,-46.5402 271.7914,-31.2945 235.3684,-20.9931"/>
<polygon fill="#191970" stroke="#191970" points="236.1644,-17.581 225.5893,-18.2273 234.2592,-24.3168 236.1644,-17.581"/>
</g>
<!-- Node13&#45;&gt;Node3 -->
<g id="edge15" class="edge">
<title>Node13&#45;&gt;Node3</title>
<path fill="none" stroke="#191970" d="M567.5009,-112.4618C597.9484,-98.2864 658.0398,-71.6537 711.5,-56 785.4727,-34.3401 875.1917,-20.4379 922.1985,-14.0644"/>
<polygon fill="#191970" stroke="#191970" points="922.9262,-17.4985 932.3781,-12.7119 922.0042,-10.5595 922.9262,-17.4985"/>
</g>
<!-- Node13&#45;&gt;Node9 -->
<g id="edge18" class="edge">
<title>Node13&#45;&gt;Node9</title>
<path fill="none" stroke="#191970" d="M521.1984,-112.3733C496.0872,-103.1822 458.0562,-89.2624 430.2128,-79.0713"/>
<polygon fill="#191970" stroke="#191970" points="431.0522,-75.6516 420.4584,-75.5011 428.6462,-82.2251 431.0522,-75.6516"/>
</g>
<!-- Node13&#45;&gt;Node10 -->
<g id="edge16" class="edge">
<title>Node13&#45;&gt;Node10</title>
<path fill="none" stroke="#191970" d="M538.8035,-112.4509C521.5653,-93.5227 482.8521,-51.014 461.0986,-27.1279"/>
<polygon fill="#191970" stroke="#191970" points="463.4955,-24.5617 454.1745,-19.5249 458.3201,-29.275 463.4955,-24.5617"/>
</g>
<!-- Node13&#45;&gt;Node11 -->
<g id="edge17" class="edge">
<title>Node13&#45;&gt;Node11</title>
<path fill="none" stroke="#191970" d="M552.9566,-112.4509C563.5838,-93.8533 587.2189,-52.4919 600.9878,-28.3964"/>
<polygon fill="#191970" stroke="#191970" points="604.1346,-29.9438 606.0572,-19.5249 598.0569,-26.4708 604.1346,-29.9438"/>
</g>
<!-- Node14&#45;&gt;Node3 -->
<g id="edge20" class="edge">
<title>Node14&#45;&gt;Node3</title>
<path fill="none" stroke="#191970" d="M516.567,-168.4826C549.2273,-160.8491 593.6215,-148.653 630.5,-132 687.694,-106.1732 691.5665,-80.1223 749.5,-56 807.8906,-31.6873 881.2364,-19.2059 922.4862,-13.6828"/>
<polygon fill="#191970" stroke="#191970" points="923.0259,-17.1423 932.4978,-12.3954 922.1331,-10.1995 923.0259,-17.1423"/>
</g>
<!-- Node14&#45;&gt;Node9 -->
<g id="edge23" class="edge">
<title>Node14&#45;&gt;Node9</title>
<path fill="none" stroke="#191970" d="M461.2405,-168.2184C452.9432,-159.1992 440.6984,-145.2427 431.5,-132 420.9899,-116.8687 410.8905,-98.5075 403.9063,-84.9969"/>
<polygon fill="#191970" stroke="#191970" points="406.86,-83.0825 399.2175,-75.7446 400.616,-86.2468 406.86,-83.0825"/>
</g>
<!-- Node14&#45;&gt;Node10 -->
<g id="edge21" class="edge">
<title>Node14&#45;&gt;Node10</title>
<path fill="none" stroke="#191970" d="M439.2591,-168.4264C400.9722,-154.8152 337.8247,-125.8245 310.5,-76 287.7577,-34.5312 364.9271,-18.6971 411.9062,-12.987"/>
<polygon fill="#191970" stroke="#191970" points="412.4423,-16.4489 421.991,-11.8584 411.6638,-9.4924 412.4423,-16.4489"/>
</g>
<!-- Node14&#45;&gt;Node11 -->
<g id="edge22" class="edge">
<title>Node14&#45;&gt;Node11</title>
<path fill="none" stroke="#191970" d="M466.7573,-168.404C462.1561,-154.9613 456.0457,-130.1382 465.5,-112 488.4922,-67.8895 540.2437,-38.9379 575.529,-23.5126"/>
<polygon fill="#191970" stroke="#191970" points="577.1505,-26.6275 585.007,-19.5193 574.4326,-20.1767 577.1505,-26.6275"/>
</g>
<!-- Node14&#45;&gt;Node12 -->
<g id="edge24" class="edge">
<title>Node14&#45;&gt;Node12</title>
<path fill="none" stroke="#191970" d="M429.1425,-168.4315C401.4625,-160.9639 364.8643,-148.984 335.5,-132 284.8382,-102.6977 235.8531,-53.274 211.8401,-27.2369"/>
<polygon fill="#191970" stroke="#191970" points="214.2678,-24.7043 204.9507,-19.6603 209.0887,-29.4136 214.2678,-24.7043"/>
</g>
<!-- Node14&#45;&gt;Node13 -->
<g id="edge25" class="edge">
<title>Node14&#45;&gt;Node13</title>
<path fill="none" stroke="#191970" d="M483.9124,-168.2455C495.5057,-159.814 512.4748,-147.4729 525.9678,-137.6598"/>
<polygon fill="#191970" stroke="#191970" points="528.2126,-140.355 534.2413,-131.6427 524.0953,-134.6938 528.2126,-140.355"/>
</g>
<!-- Node15&#45;&gt;Node3 -->
<g id="edge27" class="edge">
<title>Node15&#45;&gt;Node3</title>
<path fill="none" stroke="#191970" d="M1085.6285,-168.4862C1063.1802,-141.3545 998.5827,-63.2798 969.275,-27.8576"/>
<polygon fill="#191970" stroke="#191970" points="971.7028,-25.3015 962.6314,-19.8279 966.3095,-29.7638 971.7028,-25.3015"/>
</g>
<!-- Node16&#45;&gt;Node3 -->
<g id="edge29" class="edge">
<title>Node16&#45;&gt;Node3</title>
<path fill="none" stroke="#191970" d="M832.1772,-224.3101C824.458,-211.1798 813.3766,-187.1752 821.5,-168 844.4274,-113.8802 880.3743,-122.3632 916.5,-76 928.0093,-61.2292 938.4143,-42.6018 945.4143,-28.9056"/>
<polygon fill="#191970" stroke="#191970" points="948.5589,-30.4424 949.8768,-19.9299 942.2909,-27.3261 948.5589,-30.4424"/>
</g>
<!-- Node16&#45;&gt;Node10 -->
<g id="edge30" class="edge">
<title>Node16&#45;&gt;Node10</title>
<path fill="none" stroke="#191970" d="M822.4029,-224.3617C787.5749,-203.5517 702.5511,-152.9835 630.5,-112 574.4581,-80.1227 508.1484,-43.9281 472.0981,-24.3767"/>
<polygon fill="#191970" stroke="#191970" points="473.6472,-21.2353 463.1874,-19.549 470.3125,-27.3901 473.6472,-21.2353"/>
</g>
<!-- Node16&#45;&gt;Node14 -->
<g id="edge34" class="edge">
<title>Node16&#45;&gt;Node14</title>
<path fill="none" stroke="#191970" d="M775.6567,-224.4369C711.2209,-214.6314 611.1002,-199.3957 543.2664,-189.0731"/>
<polygon fill="#191970" stroke="#191970" points="543.4969,-185.568 533.0841,-187.5237 542.4437,-192.4883 543.4969,-185.568"/>
</g>
<!-- Node16&#45;&gt;Node15 -->
<g id="edge33" class="edge">
<title>Node16&#45;&gt;Node15</title>
<path fill="none" stroke="#191970" d="M882.0463,-224.4369C925.7793,-214.8328 993.2345,-200.0191 1040.1542,-189.7152"/>
<polygon fill="#191970" stroke="#191970" points="1041.1168,-193.0872 1050.1333,-187.5237 1039.6153,-186.2502 1041.1168,-193.0872"/>
</g>
<!-- Node16&#45;&gt;Node17 -->
<g id="edge31" class="edge">
<title>Node16&#45;&gt;Node17</title>
<path fill="none" stroke="#191970" d="M851.2156,-224.2455C862.102,-215.8943 877.9883,-203.7076 890.72,-193.9408"/>
<polygon fill="#191970" stroke="#191970" points="893.1261,-196.5063 898.9301,-187.6427 888.8654,-190.9523 893.1261,-196.5063"/>
</g>
<!-- Node17&#45;&gt;Node3 -->
<g id="edge32" class="edge">
<title>Node17&#45;&gt;Node3</title>
<path fill="none" stroke="#191970" d="M916.1084,-168.4303C924.4167,-150.6814 941.7601,-111.2542 949.5,-76 952.8543,-60.7215 954.0551,-43.0301 954.4442,-29.8118"/>
<polygon fill="#191970" stroke="#191970" points="957.9484,-29.5757 954.6109,-19.5203 950.9493,-29.4623 957.9484,-29.5757"/>
</g>
<!-- Node18&#45;&gt;Node3 -->
<g id="edge37" class="edge">
<title>Node18&#45;&gt;Node3</title>
<path fill="none" stroke="#191970" d="M589.3456,-280.1718C597.6818,-270.8869 610.5005,-256.5508 621.5,-244 694.1969,-161.0501 690.1183,-114.6974 783.5,-56 826.8519,-28.7501 886.1779,-17.4867 922.3408,-12.9427"/>
<polygon fill="#191970" stroke="#191970" points="922.8046,-16.4125 932.3352,-11.7845 921.9987,-9.459 922.8046,-16.4125"/>
</g>
<!-- Node18&#45;&gt;Node4 -->
<g id="edge38" class="edge">
<title>Node18&#45;&gt;Node4</title>
<path fill="none" stroke="#191970" d="M516.2905,-280.4369C433.7804,-268.1481 294.0032,-247.3303 233.6653,-238.3438"/>
<polygon fill="#191970" stroke="#191970" points="234.0922,-234.8688 223.6857,-236.8574 233.061,-241.7925 234.0922,-234.8688"/>
</g>
<!-- Node18&#45;&gt;Node9 -->
<g id="edge42" class="edge">
<title>Node18&#45;&gt;Node9</title>
<path fill="none" stroke="#191970" d="M535.8665,-280.3896C489.7934,-267.8294 420.2942,-240.8929 388.5,-188 369.3808,-156.1933 379.205,-110.8617 387.3359,-85.3595"/>
<polygon fill="#191970" stroke="#191970" points="390.7009,-86.3359 390.6275,-75.7413 384.0781,-84.0693 390.7009,-86.3359"/>
</g>
<!-- Node18&#45;&gt;Node10 -->
<g id="edge40" class="edge">
<title>Node18&#45;&gt;Node10</title>
<path fill="none" stroke="#191970" d="M506.8528,-280.4978C476.521,-273.9051 442.2896,-262.7722 415.5,-244 341.6026,-192.2179 325.8141,-162.8968 301.5,-76 299.1048,-67.4399 296.2574,-63.1783 301.5,-56 314.5874,-38.0803 373.2165,-23.7632 411.5115,-16.1083"/>
<polygon fill="#191970" stroke="#191970" points="412.5682,-19.4686 421.7187,-14.1284 411.2351,-12.5967 412.5682,-19.4686"/>
</g>
<!-- Node18&#45;&gt;Node11 -->
<g id="edge39" class="edge">
<title>Node18&#45;&gt;Node11</title>
<path fill="none" stroke="#191970" d="M585.9657,-280.2045C600.1477,-253.7087 636.6097,-178.163 630.5,-112 627.8307,-83.094 620.9926,-50.1599 616.2922,-29.7244"/>
<polygon fill="#191970" stroke="#191970" points="619.6445,-28.6907 613.9408,-19.7622 612.8317,-30.2988 619.6445,-28.6907"/>
</g>
<!-- Node18&#45;&gt;Node12 -->
<g id="edge41" class="edge">
<title>Node18&#45;&gt;Node12</title>
<path fill="none" stroke="#191970" d="M496.863,-281.1575C460.8082,-274.6684 419.2636,-263.4345 385.5,-244 293.3519,-190.9592 228.2295,-74.2746 205.4313,-28.7305"/>
<polygon fill="#191970" stroke="#191970" points="208.5367,-27.1137 200.9915,-19.676 202.2517,-30.1956 208.5367,-27.1137"/>
</g>
<!-- Node18&#45;&gt;Node13 -->
<g id="edge43" class="edge">
<title>Node18&#45;&gt;Node13</title>
<path fill="none" stroke="#191970" d="M578.6312,-280.4862C573.3921,-253.8144 558.4827,-177.9117 551.3687,-141.695"/>
<polygon fill="#191970" stroke="#191970" points="554.7924,-140.9657 549.4305,-131.8279 547.9236,-142.315 554.7924,-140.9657"/>
</g>
<!-- Node18&#45;&gt;Node14 -->
<g id="edge44" class="edge">
<title>Node18&#45;&gt;Node14</title>
<path fill="none" stroke="#191970" d="M571.1215,-280.4509C552.4501,-261.4401 510.4166,-218.6423 487.0158,-194.816"/>
<polygon fill="#191970" stroke="#191970" points="489.359,-192.2069 479.8548,-187.5249 484.3648,-197.1119 489.359,-192.2069"/>
</g>
<!-- Node18&#45;&gt;Node16 -->
<g id="edge45" class="edge">
<title>Node18&#45;&gt;Node16</title>
<path fill="none" stroke="#191970" d="M624.5586,-280.4369C668.8989,-270.8127 737.3411,-255.957 784.8249,-245.6504"/>
<polygon fill="#191970" stroke="#191970" points="785.5931,-249.0653 794.6231,-243.5237 784.1082,-242.2245 785.5931,-249.0653"/>
</g>
<!-- Node19&#45;&gt;Node3 -->
<g id="edge49" class="edge">
<title>Node19&#45;&gt;Node3</title>
<path fill="none" stroke="#191970" d="M1206.9695,-280.4617C1224.7618,-273.121 1246.817,-261.2734 1260.5,-244 1279.4538,-220.0729 1279.5,-208.5246 1279.5,-178 1279.5,-178 1279.5,-178 1279.5,-122 1279.5,-90.7875 1279.6352,-75.7917 1255.5,-56 1214.9526,-22.7498 1056.4856,-13.4089 987.2126,-10.8886"/>
<polygon fill="#191970" stroke="#191970" points="987.0047,-7.3797 976.8922,-10.5401 986.7684,-14.3757 987.0047,-7.3797"/>
</g>
<!-- Node19&#45;&gt;Node11 -->
<g id="edge48" class="edge">
<title>Node19&#45;&gt;Node11</title>
<path fill="none" stroke="#191970" d="M1179.0819,-280.3695C1180.5625,-255.8308 1184.3658,-192.5658 1184.5,-188 1184.7611,-179.1149 1189.4268,-175.3986 1184.5,-168 1112.9484,-60.5493 1040.8212,-90.7781 916.5,-56 825.0391,-30.4144 713.9199,-18.2018 654.2762,-13.1127"/>
<polygon fill="#191970" stroke="#191970" points="654.3595,-9.6077 644.1051,-12.2717 653.7826,-16.5839 654.3595,-9.6077"/>
</g>
<!-- Node20 -->
<g id="node21" class="node">
<title>Node20</title>
<polygon fill="#ffffff" stroke="#bfbfbf" points="1191.5,-224.5 1191.5,-243.5 1251.5,-243.5 1251.5,-224.5 1191.5,-224.5"/>
<text text-anchor="middle" x="1221.5" y="-231.5" font-family="Helvetica,sans-Serif" font-size="10.00" fill="#000000">iostream</text>
</g>
<!-- Node19&#45;&gt;Node20 -->
<g id="edge47" class="edge">
<title>Node19&#45;&gt;Node20</title>
<path fill="none" stroke="#191970" d="M1185.99,-280.2455C1192.0326,-272.3761 1200.6903,-261.101 1207.9441,-251.6542"/>
<polygon fill="#191970" stroke="#191970" points="1210.7815,-253.7058 1214.0958,-243.6427 1205.2295,-249.4426 1210.7815,-253.7058"/>
</g>
<!-- Node19&#45;&gt;Node21 -->
<g id="edge50" class="edge">
<title>Node19&#45;&gt;Node21</title>
<path fill="none" stroke="#191970" d="M1208.5836,-280.3733C1237.6834,-271.0613 1281.9523,-256.8953 1313.903,-246.671"/>
<polygon fill="#191970" stroke="#191970" points="1315.3515,-249.8824 1323.809,-243.5011 1313.218,-243.2155 1315.3515,-249.8824"/>
</g>
<!-- Node22&#45;&gt;Node3 -->
<g id="edge53" class="edge">
<title>Node22&#45;&gt;Node3</title>
<path fill="none" stroke="#191970" d="M867.7896,-56.2455C884.2762,-47.4527 908.7352,-34.4079 927.4765,-24.4125"/>
<polygon fill="#191970" stroke="#191970" points="929.2435,-27.4368 936.42,-19.6427 925.9494,-21.2604 929.2435,-27.4368"/>
</g>
<!-- Node22&#45;&gt;Node10 -->
<g id="edge52" class="edge">
<title>Node22&#45;&gt;Node10</title>
<path fill="none" stroke="#191970" d="M791.6167,-57.9766C706.083,-46.1204 548.6164,-24.2934 479.5171,-14.7152"/>
<polygon fill="#191970" stroke="#191970" points="479.5962,-11.1928 469.2103,-13.2866 478.635,-18.1265 479.5962,-11.1928"/>
</g>
<!-- Node27&#45;&gt;Node3 -->
<g id="edge60" class="edge">
<title>Node27&#45;&gt;Node3</title>
<path fill="none" stroke="#191970" d="M1408.5116,-112.4466C1372.9866,-94.6015 1299.4992,-57.8312 1293.5,-56 1184.4475,-22.7119 1048.3162,-13.4812 987.0438,-10.9462"/>
<polygon fill="#191970" stroke="#191970" points="986.9647,-7.4407 976.8389,-10.5582 986.6987,-14.4357 986.9647,-7.4407"/>
</g>
<!-- Node27&#45;&gt;Node7 -->
<g id="edge62" class="edge">
<title>Node27&#45;&gt;Node7</title>
<path fill="none" stroke="#191970" d="M1487.4414,-112.4764C1511.193,-105.8839 1536.9631,-94.757 1554.5,-76 1566.066,-63.6293 1570.6466,-44.6697 1572.4328,-30.2402"/>
<polygon fill="#191970" stroke="#191970" points="1575.9568,-30.1198 1573.3462,-19.8517 1568.9837,-29.5066 1575.9568,-30.1198"/>
</g>
<!-- Node27&#45;&gt;Node11 -->
<g id="edge61" class="edge">
<title>Node27&#45;&gt;Node11</title>
<path fill="none" stroke="#191970" d="M1393.0272,-112.3913C1339.5959,-97.8751 1233.3586,-70.512 1141.5,-56 961.824,-27.6144 744.9118,-15.6784 654.4065,-11.6824"/>
<polygon fill="#191970" stroke="#191970" points="654.4024,-8.1791 644.2608,-11.2446 654.1006,-15.1726 654.4024,-8.1791"/>
</g>
<!-- Node28 -->
<g id="node29" class="node">
<title>Node28</title>
<g id="a_node29"><a xlink:href="ROSComponentDescriptor_8hpp.html" target="_top" xlink:title="archlib/ROSComponentDescriptor.hpp">
<polygon fill="#ffffff" stroke="#000000" points="1345.5,-56.5 1345.5,-75.5 1545.5,-75.5 1545.5,-56.5 1345.5,-56.5"/>
<text text-anchor="middle" x="1445.5" y="-63.5" font-family="Helvetica,sans-Serif" font-size="10.00" fill="#000000">archlib/ROSComponentDescriptor.hpp</text>
</a>
</g>
</g>
<!-- Node27&#45;&gt;Node28 -->
<g id="edge63" class="edge">
<title>Node27&#45;&gt;Node28</title>
<path fill="none" stroke="#191970" d="M1430.6354,-112.2455C1433.01,-104.8579 1436.3493,-94.4689 1439.2615,-85.4087"/>
<polygon fill="#191970" stroke="#191970" points="1442.6725,-86.234 1442.4006,-75.6427 1436.0083,-84.0919 1442.6725,-86.234"/>
</g>
<!-- Node28&#45;&gt;Node3 -->
<g id="edge64" class="edge">
<title>Node28&#45;&gt;Node3</title>
<path fill="none" stroke="#191970" d="M1361.9304,-56.4686C1251.5619,-43.8808 1062.3764,-22.3036 986.9382,-13.6997"/>
<polygon fill="#191970" stroke="#191970" points="986.9885,-10.1828 976.6562,-12.527 986.1952,-17.1377 986.9885,-10.1828"/>
</g>
<!-- Node28&#45;&gt;Node7 -->
<g id="edge65" class="edge">
<title>Node28&#45;&gt;Node7</title>
<path fill="none" stroke="#191970" d="M1467.504,-56.3733C1488.1435,-47.3435 1519.2158,-33.7494 1542.3889,-23.6111"/>
<polygon fill="#191970" stroke="#191970" points="1544.0245,-26.7159 1551.7831,-19.5011 1541.2187,-20.3028 1544.0245,-26.7159"/>
</g>
</g>
</svg>
