<?xml version="1.0" encoding="UTF-8" standalone="no"?>
<!DOCTYPE svg PUBLIC "-//W3C//DTD SVG 1.1//EN"
 "http://www.w3.org/Graphics/SVG/1.1/DTD/svg11.dtd">
<!-- Generated by graphviz version 2.40.1 (20161225.0304)
 -->
<!-- Title: src/libbsn/include/libbsn/model/Formula.hpp Pages: 1 -->
<svg width="324pt" height="95pt"
 viewBox="0.00 0.00 324.00 95.00" xmlns="http://www.w3.org/2000/svg" xmlns:xlink="http://www.w3.org/1999/xlink">
<g id="graph0" class="graph" transform="scale(1 1) rotate(0) translate(4 91)">
<title>src/libbsn/include/libbsn/model/Formula.hpp</title>
<polygon fill="#ffffff" stroke="transparent" points="-4,4 -4,-91 320,-91 320,4 -4,4"/>
<!-- Node0 -->
<g id="node1" class="node">
<title>Node0</title>
<polygon fill="#bfbfbf" stroke="#000000" points="74,-56.5 74,-86.5 220,-86.5 220,-56.5 74,-56.5"/>
<text text-anchor="start" x="82" y="-74.5" font-family="Helvetica,sans-Serif" font-size="10.00" fill="#000000">src/libbsn/include</text>
<text text-anchor="middle" x="147" y="-63.5" font-family="Helvetica,sans-Serif" font-size="10.00" fill="#000000">/libbsn/model/Formula.hpp</text>
</g>
<!-- Node1 -->
<g id="node2" class="node">
<title>Node1</title>
<polygon fill="#ffffff" stroke="#bfbfbf" points="0,-.5 0,-19.5 60,-19.5 60,-.5 0,-.5"/>
<text text-anchor="middle" x="30" y="-7.5" font-family="Helvetica,sans-Serif" font-size="10.00" fill="#000000">iostream</text>
</g>
<!-- Node0&#45;&gt;Node1 -->
<g id="edge1" class="edge">
<title>Node0&#45;&gt;Node1</title>
<path fill="none" stroke="#191970" d="M118.3786,-56.4554C99.713,-46.644 75.5001,-33.9167 57.1388,-24.2653"/>
<polygon fill="#191970" stroke="#191970" points="58.611,-21.0851 48.1308,-19.5303 55.354,-27.2812 58.611,-21.0851"/>
</g>
<!-- Node2 -->
<g id="node3" class="node">
<title>Node2</title>
<polygon fill="#ffffff" stroke="#bfbfbf" points="78.5,-.5 78.5,-19.5 143.5,-19.5 143.5,-.5 78.5,-.5"/>
<text text-anchor="middle" x="111" y="-7.5" font-family="Helvetica,sans-Serif" font-size="10.00" fill="#000000">stdexcept</text>
</g>
<!-- Node0&#45;&gt;Node2 -->
<g id="edge2" class="edge">
<title>Node0&#45;&gt;Node2</title>
<path fill="none" stroke="#191970" d="M138.1011,-56.2977C133.2081,-47.9388 127.0974,-37.4997 121.9176,-28.6509"/>
<polygon fill="#191970" stroke="#191970" points="124.8365,-26.7089 116.7641,-19.8469 118.7953,-30.2452 124.8365,-26.7089"/>
</g>
<!-- Node3 -->
<g id="node4" class="node">
<title>Node3</title>
<polygon fill="#ffffff" stroke="#bfbfbf" points="162,-.5 162,-19.5 206,-19.5 206,-.5 162,-.5"/>
<text text-anchor="middle" x="184" y="-7.5" font-family="Helvetica,sans-Serif" font-size="10.00" fill="#000000">string</text>
</g>
<!-- Node0&#45;&gt;Node3 -->
<g id="edge3" class="edge">
<title>Node0&#45;&gt;Node3</title>
<path fill="none" stroke="#191970" d="M156.1461,-56.2977C161.1751,-47.9388 167.4555,-37.4997 172.7791,-28.6509"/>
<polygon fill="#191970" stroke="#191970" points="175.9197,-30.2201 178.0758,-19.8469 169.9215,-26.6114 175.9197,-30.2201"/>
</g>
<!-- Node4 -->
<g id="node5" class="node">
<title>Node4</title>
<polygon fill="#ffffff" stroke="#bfbfbf" points="224,-.5 224,-19.5 316,-19.5 316,-.5 224,-.5"/>
<text text-anchor="middle" x="270" y="-7.5" font-family="Helvetica,sans-Serif" font-size="10.00" fill="#000000">lepton/Lepton.h</text>
</g>
<!-- Node0&#45;&gt;Node4 -->
<g id="edge4" class="edge">
<title>Node0&#45;&gt;Node4</title>
<path fill="none" stroke="#191970" d="M177.0892,-56.4554C196.8019,-46.599 222.4002,-33.7999 241.7347,-24.1327"/>
<polygon fill="#191970" stroke="#191970" points="243.5603,-27.133 250.9394,-19.5303 240.4298,-20.872 243.5603,-27.133"/>
</g>
</g>
</svg>
