<?xml version="1.0" encoding="UTF-8" standalone="no"?>
<!DOCTYPE svg PUBLIC "-//W3C//DTD SVG 1.1//EN"
 "http://www.w3.org/Graphics/SVG/1.1/DTD/svg11.dtd">
<!-- Generated by graphviz version 2.40.1 (20161225.0304)
 -->
<!-- Title: src/libbsn/include/libbsn/model/Formula.hpp Pages: 1 -->
<svg width="1028pt" height="273pt"
 viewBox="0.00 0.00 1028.00 273.00" xmlns="http://www.w3.org/2000/svg" xmlns:xlink="http://www.w3.org/1999/xlink">
<g id="graph0" class="graph" transform="scale(1 1) rotate(0) translate(4 269)">
<title>src/libbsn/include/libbsn/model/Formula.hpp</title>
<polygon fill="#ffffff" stroke="transparent" points="-4,4 -4,-269 1024,-269 1024,4 -4,4"/>
<!-- Node5 -->
<g id="node1" class="node">
<title>Node5</title>
<polygon fill="#bfbfbf" stroke="#000000" points="374,-234.5 374,-264.5 520,-264.5 520,-234.5 374,-234.5"/>
<text text-anchor="start" x="382" y="-252.5" font-family="Helvetica,sans-Serif" font-size="10.00" fill="#000000">src/libbsn/include</text>
<text text-anchor="middle" x="447" y="-241.5" font-family="Helvetica,sans-Serif" font-size="10.00" fill="#000000">/libbsn/model/Formula.hpp</text>
</g>
<!-- Node6 -->
<g id="node2" class="node">
<title>Node6</title>
<g id="a_node2"><a xlink:href="Formula_8cpp.html" target="_top" xlink:title="src/libbsn/src/model\l/Formula.cpp">
<polygon fill="#ffffff" stroke="#000000" points="0,-162 0,-192 114,-192 114,-162 0,-162"/>
<text text-anchor="start" x="8" y="-180" font-family="Helvetica,sans-Serif" font-size="10.00" fill="#000000">src/libbsn/src/model</text>
<text text-anchor="middle" x="57" y="-169" font-family="Helvetica,sans-Serif" font-size="10.00" fill="#000000">/Formula.cpp</text>
</a>
</g>
</g>
<!-- Node5&#45;&gt;Node6 -->
<g id="edge1" class="edge">
<title>Node5&#45;&gt;Node6</title>
<path fill="none" stroke="#191970" d="M363.3639,-239.722C297.5371,-231.1834 203.7485,-217.149 123,-198 115.8631,-196.3075 108.38,-194.2293 101.1209,-192.0452"/>
<polygon fill="#191970" stroke="#191970" points="363.3184,-243.2448 373.6823,-241.0452 364.2088,-236.3016 363.3184,-243.2448"/>
</g>
<!-- Node7 -->
<g id="node3" class="node">
<title>Node7</title>
<g id="a_node3"><a xlink:href="FormulaTest_8cpp.html" target="_top" xlink:title="src/libbsn/test/unit\l/model/FormulaTest.cpp">
<polygon fill="#ffffff" stroke="#000000" points="132.5,-162 132.5,-192 265.5,-192 265.5,-162 132.5,-162"/>
<text text-anchor="start" x="140.5" y="-180" font-family="Helvetica,sans-Serif" font-size="10.00" fill="#000000">src/libbsn/test/unit</text>
<text text-anchor="middle" x="199" y="-169" font-family="Helvetica,sans-Serif" font-size="10.00" fill="#000000">/model/FormulaTest.cpp</text>
</a>
</g>
</g>
<!-- Node5&#45;&gt;Node7 -->
<g id="edge2" class="edge">
<title>Node5&#45;&gt;Node7</title>
<path fill="none" stroke="#191970" d="M385.8605,-231.6266C344.2145,-219.4518 289.7071,-203.5172 250.3199,-192.0028"/>
<polygon fill="#191970" stroke="#191970" points="385.0339,-235.0313 395.6142,-234.478 386.9981,-228.3125 385.0339,-235.0313"/>
</g>
<!-- Node8 -->
<g id="node4" class="node">
<title>Node8</title>
<g id="a_node4"><a xlink:href="DataAccess_8hpp.html" target="_top" xlink:title="src/sa&#45;bsn/knowledge\l_repository/data_access\l/include/data_access/DataAccess.hpp">
<polygon fill="#ffffff" stroke="#000000" points="283.5,-156.5 283.5,-197.5 482.5,-197.5 482.5,-156.5 283.5,-156.5"/>
<text text-anchor="start" x="291.5" y="-185.5" font-family="Helvetica,sans-Serif" font-size="10.00" fill="#000000">src/sa&#45;bsn/knowledge</text>
<text text-anchor="start" x="291.5" y="-174.5" font-family="Helvetica,sans-Serif" font-size="10.00" fill="#000000">_repository/data_access</text>
<text text-anchor="middle" x="383" y="-163.5" font-family="Helvetica,sans-Serif" font-size="10.00" fill="#000000">/include/data_access/DataAccess.hpp</text>
</a>
</g>
</g>
<!-- Node5&#45;&gt;Node8 -->
<g id="edge3" class="edge">
<title>Node5&#45;&gt;Node8</title>
<path fill="none" stroke="#191970" d="M427.1178,-226.9772C418.8046,-217.5599 409.2112,-206.6924 401.0979,-197.5015"/>
<polygon fill="#191970" stroke="#191970" points="424.4973,-229.2973 433.7392,-234.478 429.7451,-224.6648 424.4973,-229.2973"/>
</g>
<!-- Node11 -->
<g id="node7" class="node">
<title>Node11</title>
<g id="a_node7"><a xlink:href="CostEngine_8hpp.html" target="_top" xlink:title="src/sa&#45;bsn/system_manager\l/adaptation_engine/include\l/engine/CostEngine.hpp">
<polygon fill="#ffffff" stroke="#000000" points="434,-78.5 434,-119.5 588,-119.5 588,-78.5 434,-78.5"/>
<text text-anchor="start" x="442" y="-107.5" font-family="Helvetica,sans-Serif" font-size="10.00" fill="#000000">src/sa&#45;bsn/system_manager</text>
<text text-anchor="start" x="442" y="-96.5" font-family="Helvetica,sans-Serif" font-size="10.00" fill="#000000">/adaptation_engine/include</text>
<text text-anchor="middle" x="511" y="-85.5" font-family="Helvetica,sans-Serif" font-size="10.00" fill="#000000">/engine/CostEngine.hpp</text>
</a>
</g>
</g>
<!-- Node5&#45;&gt;Node11 -->
<g id="edge6" class="edge">
<title>Node5&#45;&gt;Node11</title>
<path fill="none" stroke="#191970" d="M470.7083,-226.8355C478.2432,-218.4418 485.9276,-208.4158 491,-198 503.2835,-172.7764 508.0251,-140.4104 509.854,-119.683"/>
<polygon fill="#191970" stroke="#191970" points="467.9407,-224.6685 463.62,-234.3423 473.0303,-229.4743 467.9407,-224.6685"/>
</g>
<!-- Node14 -->
<g id="node10" class="node">
<title>Node14</title>
<g id="a_node10"><a xlink:href="Engine_8hpp.html" target="_top" xlink:title="src/sa&#45;bsn/system_manager\l/adaptation_engine/include\l/engine/Engine.hpp">
<polygon fill="#ffffff" stroke="#000000" points="573,-156.5 573,-197.5 727,-197.5 727,-156.5 573,-156.5"/>
<text text-anchor="start" x="581" y="-185.5" font-family="Helvetica,sans-Serif" font-size="10.00" fill="#000000">src/sa&#45;bsn/system_manager</text>
<text text-anchor="start" x="581" y="-174.5" font-family="Helvetica,sans-Serif" font-size="10.00" fill="#000000">/adaptation_engine/include</text>
<text text-anchor="middle" x="650" y="-163.5" font-family="Helvetica,sans-Serif" font-size="10.00" fill="#000000">/engine/Engine.hpp</text>
</a>
</g>
</g>
<!-- Node5&#45;&gt;Node14 -->
<g id="edge9" class="edge">
<title>Node5&#45;&gt;Node14</title>
<path fill="none" stroke="#191970" d="M498.5018,-231.1065C527.1979,-220.8579 563.0011,-208.071 592.5958,-197.5015"/>
<polygon fill="#191970" stroke="#191970" points="497.302,-227.8184 489.0617,-234.478 499.6564,-234.4106 497.302,-227.8184"/>
</g>
<!-- Node15 -->
<g id="node11" class="node">
<title>Node15</title>
<g id="a_node11"><a xlink:href="ReliabilityEngine_8hpp.html" target="_top" xlink:title="src/sa&#45;bsn/system_manager\l/adaptation_engine/include\l/engine/ReliabilityEngine.hpp">
<polygon fill="#ffffff" stroke="#000000" points="778,-78.5 778,-119.5 936,-119.5 936,-78.5 778,-78.5"/>
<text text-anchor="start" x="786" y="-107.5" font-family="Helvetica,sans-Serif" font-size="10.00" fill="#000000">src/sa&#45;bsn/system_manager</text>
<text text-anchor="start" x="786" y="-96.5" font-family="Helvetica,sans-Serif" font-size="10.00" fill="#000000">/adaptation_engine/include</text>
<text text-anchor="middle" x="857" y="-85.5" font-family="Helvetica,sans-Serif" font-size="10.00" fill="#000000">/engine/ReliabilityEngine.hpp</text>
</a>
</g>
</g>
<!-- Node5&#45;&gt;Node15 -->
<g id="edge15" class="edge">
<title>Node5&#45;&gt;Node15</title>
<path fill="none" stroke="#191970" d="M530.0876,-239.4312C602.0916,-229.8459 700.1798,-214.473 736,-198 777.1815,-179.0614 816.1259,-142.7021 838.227,-119.71"/>
<polygon fill="#191970" stroke="#191970" points="529.5674,-235.9694 520.1098,-240.7449 530.4812,-242.9095 529.5674,-235.9694"/>
</g>
<!-- Node9 -->
<g id="node5" class="node">
<title>Node9</title>
<g id="a_node5"><a xlink:href="data__access_8cpp.html" target="_top" xlink:title="src/sa&#45;bsn/knowledge\l_repository/data_access\l/apps/data_access.cpp">
<polygon fill="#ffffff" stroke="#000000" points="130,-78.5 130,-119.5 264,-119.5 264,-78.5 130,-78.5"/>
<text text-anchor="start" x="138" y="-107.5" font-family="Helvetica,sans-Serif" font-size="10.00" fill="#000000">src/sa&#45;bsn/knowledge</text>
<text text-anchor="start" x="138" y="-96.5" font-family="Helvetica,sans-Serif" font-size="10.00" fill="#000000">_repository/data_access</text>
<text text-anchor="middle" x="197" y="-85.5" font-family="Helvetica,sans-Serif" font-size="10.00" fill="#000000">/apps/data_access.cpp</text>
</a>
</g>
</g>
<!-- Node8&#45;&gt;Node9 -->
<g id="edge4" class="edge">
<title>Node8&#45;&gt;Node9</title>
<path fill="none" stroke="#191970" d="M324.1989,-152.3415C299.0099,-141.7784 269.9321,-129.5844 245.9415,-119.5239"/>
<polygon fill="#191970" stroke="#191970" points="323.0682,-155.6626 333.6437,-156.3022 325.7754,-149.2072 323.0682,-155.6626"/>
</g>
<!-- Node10 -->
<g id="node6" class="node">
<title>Node10</title>
<g id="a_node6"><a xlink:href="DataAccess_8cpp.html" target="_top" xlink:title="src/sa&#45;bsn/knowledge\l_repository/data_access\l/src/DataAccess.cpp">
<polygon fill="#ffffff" stroke="#000000" points="282,-78.5 282,-119.5 416,-119.5 416,-78.5 282,-78.5"/>
<text text-anchor="start" x="290" y="-107.5" font-family="Helvetica,sans-Serif" font-size="10.00" fill="#000000">src/sa&#45;bsn/knowledge</text>
<text text-anchor="start" x="290" y="-96.5" font-family="Helvetica,sans-Serif" font-size="10.00" fill="#000000">_repository/data_access</text>
<text text-anchor="middle" x="349" y="-85.5" font-family="Helvetica,sans-Serif" font-size="10.00" fill="#000000">/src/DataAccess.cpp</text>
</a>
</g>
</g>
<!-- Node8&#45;&gt;Node10 -->
<g id="edge5" class="edge">
<title>Node8&#45;&gt;Node10</title>
<path fill="none" stroke="#191970" d="M369.7731,-146.6559C365.8383,-137.629 361.6195,-127.9505 358.0186,-119.6898"/>
<polygon fill="#191970" stroke="#191970" points="366.6843,-148.329 373.8886,-156.0974 373.1012,-145.5319 366.6843,-148.329"/>
</g>
<!-- Node12 -->
<g id="node8" class="node">
<title>Node12</title>
<g id="a_node8"><a xlink:href="cost__engine_8cpp.html" target="_top" xlink:title="src/sa&#45;bsn/system_manager\l/adaptation_engine/apps\l/cost_engine.cpp">
<polygon fill="#ffffff" stroke="#000000" points="349,-.5 349,-41.5 503,-41.5 503,-.5 349,-.5"/>
<text text-anchor="start" x="357" y="-29.5" font-family="Helvetica,sans-Serif" font-size="10.00" fill="#000000">src/sa&#45;bsn/system_manager</text>
<text text-anchor="start" x="357" y="-18.5" font-family="Helvetica,sans-Serif" font-size="10.00" fill="#000000">/adaptation_engine/apps</text>
<text text-anchor="middle" x="426" y="-7.5" font-family="Helvetica,sans-Serif" font-size="10.00" fill="#000000">/cost_engine.cpp</text>
</a>
</g>
</g>
<!-- Node11&#45;&gt;Node12 -->
<g id="edge7" class="edge">
<title>Node11&#45;&gt;Node12</title>
<path fill="none" stroke="#191970" d="M480.7367,-71.229C470.1295,-61.4953 458.4105,-50.7414 448.5466,-41.6898"/>
<polygon fill="#191970" stroke="#191970" points="478.4872,-73.915 488.2216,-78.0974 483.22,-68.7574 478.4872,-73.915"/>
</g>
<!-- Node13 -->
<g id="node9" class="node">
<title>Node13</title>
<g id="a_node9"><a xlink:href="CostEngine_8cpp.html" target="_top" xlink:title="src/sa&#45;bsn/system_manager\l/adaptation_engine/src\l/CostEngine.cpp">
<polygon fill="#ffffff" stroke="#000000" points="521,-.5 521,-41.5 675,-41.5 675,-.5 521,-.5"/>
<text text-anchor="start" x="529" y="-29.5" font-family="Helvetica,sans-Serif" font-size="10.00" fill="#000000">src/sa&#45;bsn/system_manager</text>
<text text-anchor="start" x="529" y="-18.5" font-family="Helvetica,sans-Serif" font-size="10.00" fill="#000000">/adaptation_engine/src</text>
<text text-anchor="middle" x="598" y="-7.5" font-family="Helvetica,sans-Serif" font-size="10.00" fill="#000000">/CostEngine.cpp</text>
</a>
</g>
</g>
<!-- Node11&#45;&gt;Node13 -->
<g id="edge8" class="edge">
<title>Node11&#45;&gt;Node13</title>
<path fill="none" stroke="#191970" d="M541.9753,-71.229C552.8322,-61.4953 564.8269,-50.7414 574.9229,-41.6898"/>
<polygon fill="#191970" stroke="#191970" points="539.4237,-68.8159 534.3144,-78.0974 544.0965,-74.028 539.4237,-68.8159"/>
</g>
<!-- Node14&#45;&gt;Node11 -->
<g id="edge10" class="edge">
<title>Node14&#45;&gt;Node11</title>
<path fill="none" stroke="#191970" d="M604.3077,-151.3597C585.8967,-141.0283 564.9502,-129.2742 547.5746,-119.5239"/>
<polygon fill="#191970" stroke="#191970" points="602.6819,-154.4608 613.1155,-156.3022 606.1075,-148.3562 602.6819,-154.4608"/>
</g>
<!-- Node14&#45;&gt;Node15 -->
<g id="edge11" class="edge">
<title>Node14&#45;&gt;Node15</title>
<path fill="none" stroke="#191970" d="M714.062,-152.8607C742.3603,-142.1976 775.2836,-129.7917 802.3953,-119.5757"/>
<polygon fill="#191970" stroke="#191970" points="712.7811,-149.603 704.6576,-156.4044 715.2495,-156.1534 712.7811,-149.603"/>
</g>
<!-- Node18 -->
<g id="node14" class="node">
<title>Node18</title>
<g id="a_node14"><a xlink:href="Engine_8cpp.html" target="_top" xlink:title="src/sa&#45;bsn/system_manager\l/adaptation_engine/src\l/Engine.cpp">
<polygon fill="#ffffff" stroke="#000000" points="606,-78.5 606,-119.5 760,-119.5 760,-78.5 606,-78.5"/>
<text text-anchor="start" x="614" y="-107.5" font-family="Helvetica,sans-Serif" font-size="10.00" fill="#000000">src/sa&#45;bsn/system_manager</text>
<text text-anchor="start" x="614" y="-96.5" font-family="Helvetica,sans-Serif" font-size="10.00" fill="#000000">/adaptation_engine/src</text>
<text text-anchor="middle" x="683" y="-85.5" font-family="Helvetica,sans-Serif" font-size="10.00" fill="#000000">/Engine.cpp</text>
</a>
</g>
</g>
<!-- Node14&#45;&gt;Node18 -->
<g id="edge14" class="edge">
<title>Node14&#45;&gt;Node18</title>
<path fill="none" stroke="#191970" d="M662.8379,-146.6559C666.657,-137.629 670.7517,-127.9505 674.2466,-119.6898"/>
<polygon fill="#191970" stroke="#191970" points="659.5165,-145.524 658.8434,-156.0974 665.9632,-148.2515 659.5165,-145.524"/>
</g>
<!-- Node16 -->
<g id="node12" class="node">
<title>Node16</title>
<g id="a_node12"><a xlink:href="reli__engine_8cpp.html" target="_top" xlink:title="src/sa&#45;bsn/system_manager\l/adaptation_engine/apps\l/reli_engine.cpp">
<polygon fill="#ffffff" stroke="#000000" points="694,-.5 694,-41.5 848,-41.5 848,-.5 694,-.5"/>
<text text-anchor="start" x="702" y="-29.5" font-family="Helvetica,sans-Serif" font-size="10.00" fill="#000000">src/sa&#45;bsn/system_manager</text>
<text text-anchor="start" x="702" y="-18.5" font-family="Helvetica,sans-Serif" font-size="10.00" fill="#000000">/adaptation_engine/apps</text>
<text text-anchor="middle" x="771" y="-7.5" font-family="Helvetica,sans-Serif" font-size="10.00" fill="#000000">/reli_engine.cpp</text>
</a>
</g>
</g>
<!-- Node15&#45;&gt;Node16 -->
<g id="edge12" class="edge">
<title>Node15&#45;&gt;Node16</title>
<path fill="none" stroke="#191970" d="M826.3807,-71.229C815.6487,-61.4953 803.7918,-50.7414 793.8118,-41.6898"/>
<polygon fill="#191970" stroke="#191970" points="824.195,-73.9718 833.9536,-78.0974 828.8977,-68.7867 824.195,-73.9718"/>
</g>
<!-- Node17 -->
<g id="node13" class="node">
<title>Node17</title>
<g id="a_node13"><a xlink:href="ReliabilityEngine_8cpp.html" target="_top" xlink:title="src/sa&#45;bsn/system_manager\l/adaptation_engine/src\l/ReliabilityEngine.cpp">
<polygon fill="#ffffff" stroke="#000000" points="866,-.5 866,-41.5 1020,-41.5 1020,-.5 866,-.5"/>
<text text-anchor="start" x="874" y="-29.5" font-family="Helvetica,sans-Serif" font-size="10.00" fill="#000000">src/sa&#45;bsn/system_manager</text>
<text text-anchor="start" x="874" y="-18.5" font-family="Helvetica,sans-Serif" font-size="10.00" fill="#000000">/adaptation_engine/src</text>
<text text-anchor="middle" x="943" y="-7.5" font-family="Helvetica,sans-Serif" font-size="10.00" fill="#000000">/ReliabilityEngine.cpp</text>
</a>
</g>
</g>
<!-- Node15&#45;&gt;Node17 -->
<g id="edge13" class="edge">
<title>Node15&#45;&gt;Node17</title>
<path fill="none" stroke="#191970" d="M887.6193,-71.229C898.3513,-61.4953 910.2082,-50.7414 920.1882,-41.6898"/>
<polygon fill="#191970" stroke="#191970" points="885.1023,-68.7867 880.0464,-78.0974 889.805,-73.9718 885.1023,-68.7867"/>
</g>
</g>
</svg>
