<?xml version="1.0" encoding="UTF-8" standalone="no"?>
<!DOCTYPE svg PUBLIC "-//W3C//DTD SVG 1.1//EN"
 "http://www.w3.org/Graphics/SVG/1.1/DTD/svg11.dtd">
<!-- Generated by graphviz version 2.40.1 (20161225.0304)
 -->
<!-- Title: src/libbsn/test/unit/model/FormulaTest.cpp Pages: 1 -->
<svg width="344pt" height="151pt"
 viewBox="0.00 0.00 344.00 151.00" xmlns="http://www.w3.org/2000/svg" xmlns:xlink="http://www.w3.org/1999/xlink">
<g id="graph0" class="graph" transform="scale(1 1) rotate(0) translate(4 147)">
<title>src/libbsn/test/unit/model/FormulaTest.cpp</title>
<polygon fill="#ffffff" stroke="transparent" points="-4,4 -4,-147 340,-147 340,4 -4,4"/>
<!-- Node0 -->
<g id="node1" class="node">
<title>Node0</title>
<polygon fill="#bfbfbf" stroke="#000000" points="36.5,-112.5 36.5,-142.5 169.5,-142.5 169.5,-112.5 36.5,-112.5"/>
<text text-anchor="start" x="44.5" y="-130.5" font-family="Helvetica,sans-Serif" font-size="10.00" fill="#000000">src/libbsn/test/unit</text>
<text text-anchor="middle" x="103" y="-119.5" font-family="Helvetica,sans-Serif" font-size="10.00" fill="#000000">/model/FormulaTest.cpp</text>
</g>
<!-- Node1 -->
<g id="node2" class="node">
<title>Node1</title>
<polygon fill="#ffffff" stroke="#bfbfbf" points="0,-56.5 0,-75.5 78,-75.5 78,-56.5 0,-56.5"/>
<text text-anchor="middle" x="39" y="-63.5" font-family="Helvetica,sans-Serif" font-size="10.00" fill="#000000">gtest/gtest.h</text>
</g>
<!-- Node0&#45;&gt;Node1 -->
<g id="edge1" class="edge">
<title>Node0&#45;&gt;Node1</title>
<path fill="none" stroke="#191970" d="M87.1798,-112.2977C77.9258,-103.4052 66.2219,-92.1586 56.667,-82.9769"/>
<polygon fill="#191970" stroke="#191970" points="58.8828,-80.2521 49.2472,-75.8469 54.0326,-85.2995 58.8828,-80.2521"/>
</g>
<!-- Node2 -->
<g id="node3" class="node">
<title>Node2</title>
<g id="a_node3"><a xlink:href="Formula_8hpp.html" target="_top" xlink:title="libbsn/model/Formula.hpp">
<polygon fill="#ffffff" stroke="#000000" points="96.5,-56.5 96.5,-75.5 239.5,-75.5 239.5,-56.5 96.5,-56.5"/>
<text text-anchor="middle" x="168" y="-63.5" font-family="Helvetica,sans-Serif" font-size="10.00" fill="#000000">libbsn/model/Formula.hpp</text>
</a>
</g>
</g>
<!-- Node0&#45;&gt;Node2 -->
<g id="edge2" class="edge">
<title>Node0&#45;&gt;Node2</title>
<path fill="none" stroke="#191970" d="M119.0674,-112.2977C128.466,-103.4052 140.3527,-92.1586 150.057,-82.9769"/>
<polygon fill="#191970" stroke="#191970" points="152.7342,-85.2621 157.5927,-75.8469 147.9232,-80.1774 152.7342,-85.2621"/>
</g>
<!-- Node3 -->
<g id="node4" class="node">
<title>Node3</title>
<polygon fill="#ffffff" stroke="#bfbfbf" points="20,-.5 20,-19.5 80,-19.5 80,-.5 20,-.5"/>
<text text-anchor="middle" x="50" y="-7.5" font-family="Helvetica,sans-Serif" font-size="10.00" fill="#000000">iostream</text>
</g>
<!-- Node2&#45;&gt;Node3 -->
<g id="edge3" class="edge">
<title>Node2&#45;&gt;Node3</title>
<path fill="none" stroke="#191970" d="M147.7151,-56.3733C128.8579,-47.4241 100.554,-33.9917 79.2545,-23.8835"/>
<polygon fill="#191970" stroke="#191970" points="80.5551,-20.6266 70.0202,-19.5011 77.5539,-26.9506 80.5551,-20.6266"/>
</g>
<!-- Node4 -->
<g id="node5" class="node">
<title>Node4</title>
<polygon fill="#ffffff" stroke="#bfbfbf" points="98.5,-.5 98.5,-19.5 163.5,-19.5 163.5,-.5 98.5,-.5"/>
<text text-anchor="middle" x="131" y="-7.5" font-family="Helvetica,sans-Serif" font-size="10.00" fill="#000000">stdexcept</text>
</g>
<!-- Node2&#45;&gt;Node4 -->
<g id="edge4" class="edge">
<title>Node2&#45;&gt;Node4</title>
<path fill="none" stroke="#191970" d="M161.5551,-56.2455C156.4618,-48.5367 149.2092,-37.5598 143.048,-28.2348"/>
<polygon fill="#191970" stroke="#191970" points="145.8038,-26.0566 137.3711,-19.6427 139.9635,-29.9155 145.8038,-26.0566"/>
</g>
<!-- Node5 -->
<g id="node6" class="node">
<title>Node5</title>
<polygon fill="#ffffff" stroke="#bfbfbf" points="182,-.5 182,-19.5 226,-19.5 226,-.5 182,-.5"/>
<text text-anchor="middle" x="204" y="-7.5" font-family="Helvetica,sans-Serif" font-size="10.00" fill="#000000">string</text>
</g>
<!-- Node2&#45;&gt;Node5 -->
<g id="edge5" class="edge">
<title>Node2&#45;&gt;Node5</title>
<path fill="none" stroke="#191970" d="M174.2707,-56.2455C179.2264,-48.5367 186.283,-37.5598 192.2776,-28.2348"/>
<polygon fill="#191970" stroke="#191970" points="195.3376,-29.9471 197.8011,-19.6427 189.4494,-26.1618 195.3376,-29.9471"/>
</g>
<!-- Node6 -->
<g id="node7" class="node">
<title>Node6</title>
<polygon fill="#ffffff" stroke="#bfbfbf" points="244,-.5 244,-19.5 336,-19.5 336,-.5 244,-.5"/>
<text text-anchor="middle" x="290" y="-7.5" font-family="Helvetica,sans-Serif" font-size="10.00" fill="#000000">lepton/Lepton.h</text>
</g>
<!-- Node2&#45;&gt;Node6 -->
<g id="edge6" class="edge">
<title>Node2&#45;&gt;Node6</title>
<path fill="none" stroke="#191970" d="M188.9725,-56.3733C208.5567,-47.3838 237.9961,-33.8706 260.051,-23.7471"/>
<polygon fill="#191970" stroke="#191970" points="261.6729,-26.8538 269.3011,-19.5011 258.7527,-20.4919 261.6729,-26.8538"/>
</g>
</g>
</svg>
