<?xml version="1.0" encoding="UTF-8" standalone="no"?>
<!DOCTYPE svg PUBLIC "-//W3C//DTD SVG 1.1//EN"
 "http://www.w3.org/Graphics/SVG/1.1/DTD/svg11.dtd">
<!-- Generated by graphviz version 2.40.1 (20161225.0304)
 -->
<!-- Title: src/sa&#45;bsn/target_system/components/component/src/g3t1_3/G3T1_3.cpp Pages: 1 -->
<svg width="2174pt" height="408pt"
 viewBox="0.00 0.00 2174.35 408.00" xmlns="http://www.w3.org/2000/svg" xmlns:xlink="http://www.w3.org/1999/xlink">
<g id="graph0" class="graph" transform="scale(1 1) rotate(0) translate(4 404)">
<title>src/sa&#45;bsn/target_system/components/component/src/g3t1_3/G3T1_3.cpp</title>
<polygon fill="#ffffff" stroke="transparent" points="-4,4 -4,-404 2170.3531,-404 2170.3531,4 -4,4"/>
<!-- Node0 -->
<g id="node1" class="node">
<title>Node0</title>
<polygon fill="#bfbfbf" stroke="#000000" points="838.5,-358.5 838.5,-399.5 993.5,-399.5 993.5,-358.5 838.5,-358.5"/>
<text text-anchor="start" x="846.5" y="-387.5" font-family="Helvetica,sans-Serif" font-size="10.00" fill="#000000">src/sa&#45;bsn/target_system</text>
<text text-anchor="start" x="846.5" y="-376.5" font-family="Helvetica,sans-Serif" font-size="10.00" fill="#000000">/components/component/src</text>
<text text-anchor="middle" x="916" y="-365.5" font-family="Helvetica,sans-Serif" font-size="10.00" fill="#000000">/g3t1_3/G3T1_3.cpp</text>
</g>
<!-- Node1 -->
<g id="node2" class="node">
<title>Node1</title>
<g id="a_node2"><a xlink:href="G3T1__3_8hpp.html" target="_top" xlink:title="component/g3t1_3/G3T1\l_3.hpp">
<polygon fill="#ffffff" stroke="#000000" points="848,-291.5 848,-321.5 984,-321.5 984,-291.5 848,-291.5"/>
<text text-anchor="start" x="856" y="-309.5" font-family="Helvetica,sans-Serif" font-size="10.00" fill="#000000">component/g3t1_3/G3T1</text>
<text text-anchor="middle" x="916" y="-298.5" font-family="Helvetica,sans-Serif" font-size="10.00" fill="#000000">_3.hpp</text>
</a>
</g>
</g>
<!-- Node0&#45;&gt;Node1 -->
<g id="edge1" class="edge">
<title>Node0&#45;&gt;Node1</title>
<path fill="none" stroke="#191970" d="M916,-358.4183C916,-350.0849 916,-340.3834 916,-331.6373"/>
<polygon fill="#191970" stroke="#191970" points="919.5001,-331.5991 916,-321.5991 912.5001,-331.5991 919.5001,-331.5991"/>
</g>
<!-- Node2 -->
<g id="node3" class="node">
<title>Node2</title>
<polygon fill="#ffffff" stroke="#bfbfbf" points="955,-.5 955,-19.5 999,-19.5 999,-.5 955,-.5"/>
<text text-anchor="middle" x="977" y="-7.5" font-family="Helvetica,sans-Serif" font-size="10.00" fill="#000000">string</text>
</g>
<!-- Node1&#45;&gt;Node2 -->
<g id="edge2" class="edge">
<title>Node1&#45;&gt;Node2</title>
<path fill="none" stroke="#191970" d="M847.8995,-304.5119C635.6142,-297.4198 0,-269.0426 0,-183.5 0,-183.5 0,-183.5 0,-122 0,-72.038 43.8928,-72.6466 91,-56 172.6432,-27.1492 794.4931,-13.4903 944.5094,-10.5952"/>
<polygon fill="#191970" stroke="#191970" points="944.938,-14.0878 954.8696,-10.398 944.8048,-7.0891 944.938,-14.0878"/>
</g>
<!-- Node3 -->
<g id="node4" class="node">
<title>Node3</title>
<polygon fill="#ffffff" stroke="#bfbfbf" points="1509.5,-235.5 1509.5,-254.5 1574.5,-254.5 1574.5,-235.5 1509.5,-235.5"/>
<text text-anchor="middle" x="1542" y="-242.5" font-family="Helvetica,sans-Serif" font-size="10.00" fill="#000000">exception</text>
</g>
<!-- Node1&#45;&gt;Node3 -->
<g id="edge3" class="edge">
<title>Node1&#45;&gt;Node3</title>
<path fill="none" stroke="#191970" d="M984.0617,-303.1194C1092.5979,-297.1287 1311.3738,-282.5977 1495,-255 1496.4695,-254.7791 1497.962,-254.5406 1499.4673,-254.2879"/>
<polygon fill="#191970" stroke="#191970" points="1500.2723,-257.6988 1509.4769,-252.4523 1499.0096,-250.8136 1500.2723,-257.6988"/>
</g>
<!-- Node4 -->
<g id="node5" class="node">
<title>Node4</title>
<polygon fill="#ffffff" stroke="#bfbfbf" points="1533.5,-.5 1533.5,-19.5 1592.5,-19.5 1592.5,-.5 1533.5,-.5"/>
<text text-anchor="middle" x="1563" y="-7.5" font-family="Helvetica,sans-Serif" font-size="10.00" fill="#000000">ros/ros.h</text>
</g>
<!-- Node1&#45;&gt;Node4 -->
<g id="edge4" class="edge">
<title>Node1&#45;&gt;Node4</title>
<path fill="none" stroke="#191970" d="M984.2264,-298.1364C1241.3744,-266.4607 2138.4243,-154.5183 2158,-132 2233.5073,-45.1424 1747.6391,-17.7064 1602.8491,-11.5079"/>
<polygon fill="#191970" stroke="#191970" points="1602.7711,-8.0017 1592.6339,-11.0818 1602.4793,-14.9956 1602.7711,-8.0017"/>
</g>
<!-- Node5 -->
<g id="node6" class="node">
<title>Node5</title>
<g id="a_node6"><a xlink:href="Range_8hpp.html" target="_top" xlink:title="libbsn/range/Range.hpp">
<polygon fill="#ffffff" stroke="#000000" points="542.5,-112.5 542.5,-131.5 673.5,-131.5 673.5,-112.5 542.5,-112.5"/>
<text text-anchor="middle" x="608" y="-119.5" font-family="Helvetica,sans-Serif" font-size="10.00" fill="#000000">libbsn/range/Range.hpp</text>
</a>
</g>
</g>
<!-- Node1&#45;&gt;Node5 -->
<g id="edge5" class="edge">
<title>Node1&#45;&gt;Node5</title>
<path fill="none" stroke="#191970" d="M847.9029,-298.5181C797.9249,-291.1463 729.0963,-277.794 672,-255 627.8957,-237.3927 604.1653,-240.4558 581,-199 570.3301,-179.9056 582.3536,-155.833 593.5771,-139.7337"/>
<polygon fill="#191970" stroke="#191970" points="596.4029,-141.7992 599.5808,-131.6922 590.7937,-137.6114 596.4029,-141.7992"/>
</g>
<!-- Node10 -->
<g id="node11" class="node">
<title>Node10</title>
<g id="a_node11"><a xlink:href="Battery_8hpp.html" target="_top" xlink:title="libbsn/resource/Battery.hpp">
<polygon fill="#ffffff" stroke="#000000" points="943.5,-112.5 943.5,-131.5 1092.5,-131.5 1092.5,-112.5 943.5,-112.5"/>
<text text-anchor="middle" x="1018" y="-119.5" font-family="Helvetica,sans-Serif" font-size="10.00" fill="#000000">libbsn/resource/Battery.hpp</text>
</a>
</g>
</g>
<!-- Node1&#45;&gt;Node10 -->
<g id="edge11" class="edge">
<title>Node1&#45;&gt;Node10</title>
<path fill="none" stroke="#191970" d="M924.3471,-291.4016C942.874,-257.8897 987.3896,-177.3688 1007.6476,-140.7257"/>
<polygon fill="#191970" stroke="#191970" points="1010.9011,-142.0746 1012.6764,-131.6295 1004.775,-138.6877 1010.9011,-142.0746"/>
</g>
<!-- Node11 -->
<g id="node12" class="node">
<title>Node11</title>
<g id="a_node12"><a xlink:href="Markov_8hpp.html" target="_top" xlink:title="libbsn/generator/Markov.hpp">
<polygon fill="#ffffff" stroke="#000000" points="590.5,-174 590.5,-193 745.5,-193 745.5,-174 590.5,-174"/>
<text text-anchor="middle" x="668" y="-181" font-family="Helvetica,sans-Serif" font-size="10.00" fill="#000000">libbsn/generator/Markov.hpp</text>
</a>
</g>
</g>
<!-- Node1&#45;&gt;Node11 -->
<g id="edge16" class="edge">
<title>Node1&#45;&gt;Node11</title>
<path fill="none" stroke="#191970" d="M847.8955,-298.8568C789.3149,-290.9313 710.7572,-276.6338 688,-255 674.0337,-241.7231 669.5588,-219.569 668.2527,-203.4339"/>
<polygon fill="#191970" stroke="#191970" points="671.7472,-203.231 667.7771,-193.4082 664.755,-203.5628 671.7472,-203.231"/>
</g>
<!-- Node15 -->
<g id="node16" class="node">
<title>Node15</title>
<g id="a_node16"><a xlink:href="DataGenerator_8hpp.html" target="_top" xlink:title="libbsn/generator/DataGenerator.hpp">
<polygon fill="#ffffff" stroke="#000000" points="696.5,-235.5 696.5,-254.5 887.5,-254.5 887.5,-235.5 696.5,-235.5"/>
<text text-anchor="middle" x="792" y="-242.5" font-family="Helvetica,sans-Serif" font-size="10.00" fill="#000000">libbsn/generator/DataGenerator.hpp</text>
</a>
</g>
</g>
<!-- Node1&#45;&gt;Node15 -->
<g id="edge24" class="edge">
<title>Node1&#45;&gt;Node15</title>
<path fill="none" stroke="#191970" d="M885.6662,-291.4554C865.7024,-281.554 839.751,-268.683 820.2285,-259.0004"/>
<polygon fill="#191970" stroke="#191970" points="821.7294,-255.838 811.2156,-254.5303 818.6191,-262.1091 821.7294,-255.838"/>
</g>
<!-- Node16 -->
<g id="node17" class="node">
<title>Node16</title>
<g id="a_node17"><a xlink:href="MovingAverage_8hpp.html" target="_top" xlink:title="libbsn/filters/MovingAverage.hpp">
<polygon fill="#ffffff" stroke="#000000" points="28,-112.5 28,-131.5 204,-131.5 204,-112.5 28,-112.5"/>
<text text-anchor="middle" x="116" y="-119.5" font-family="Helvetica,sans-Serif" font-size="10.00" fill="#000000">libbsn/filters/MovingAverage.hpp</text>
</a>
</g>
</g>
<!-- Node1&#45;&gt;Node16 -->
<g id="edge28" class="edge">
<title>Node1&#45;&gt;Node16</title>
<path fill="none" stroke="#191970" d="M847.8086,-301.91C762.692,-295.3591 612.9684,-281.1244 487,-255 401.6328,-237.2959 381.079,-228.3942 299,-199 244.1256,-179.3483 181.8977,-152.0612 145.9744,-135.8004"/>
<polygon fill="#191970" stroke="#191970" points="147.1194,-132.4763 136.5676,-131.522 144.2213,-138.8482 147.1194,-132.4763"/>
</g>
<!-- Node18 -->
<g id="node19" class="node">
<title>Node18</title>
<g id="a_node19"><a xlink:href="utils_8hpp.html" target="_top" xlink:title="libbsn/utils/utils.hpp">
<polygon fill="#ffffff" stroke="#000000" points="840.5,-174 840.5,-193 955.5,-193 955.5,-174 840.5,-174"/>
<text text-anchor="middle" x="898" y="-181" font-family="Helvetica,sans-Serif" font-size="10.00" fill="#000000">libbsn/utils/utils.hpp</text>
</a>
</g>
</g>
<!-- Node1&#45;&gt;Node18 -->
<g id="edge33" class="edge">
<title>Node1&#45;&gt;Node18</title>
<path fill="none" stroke="#191970" d="M913.7928,-291.4178C910.5365,-269.1659 904.4436,-227.5314 900.8523,-202.9908"/>
<polygon fill="#191970" stroke="#191970" points="904.3086,-202.437 899.3975,-193.0493 897.3824,-203.4507 904.3086,-202.437"/>
</g>
<!-- Node19 -->
<g id="node20" class="node">
<title>Node19</title>
<g id="a_node20"><a xlink:href="SensorConfiguration_8hpp.html" target="_top" xlink:title="libbsn/configuration\l/SensorConfiguration.hpp">
<polygon fill="#ffffff" stroke="#000000" points="308.5,-168.5 308.5,-198.5 447.5,-198.5 447.5,-168.5 308.5,-168.5"/>
<text text-anchor="start" x="316.5" y="-186.5" font-family="Helvetica,sans-Serif" font-size="10.00" fill="#000000">libbsn/configuration</text>
<text text-anchor="middle" x="378" y="-175.5" font-family="Helvetica,sans-Serif" font-size="10.00" fill="#000000">/SensorConfiguration.hpp</text>
</a>
</g>
</g>
<!-- Node1&#45;&gt;Node19 -->
<g id="edge36" class="edge">
<title>Node1&#45;&gt;Node19</title>
<path fill="none" stroke="#191970" d="M847.7829,-302.2584C773.0901,-296.3955 650.3166,-283.1612 548,-255 501.1594,-242.1078 450.1224,-219.3798 416.3191,-203.0048"/>
<polygon fill="#191970" stroke="#191970" points="417.7799,-199.823 407.2596,-198.5681 414.7011,-206.1096 417.7799,-199.823"/>
</g>
<!-- Node21 -->
<g id="node22" class="node">
<title>Node21</title>
<g id="a_node22"><a xlink:href="Sensor_8hpp.html" target="_top" xlink:title="component/Sensor.hpp">
<polygon fill="#ffffff" stroke="#000000" points="1132,-235.5 1132,-254.5 1260,-254.5 1260,-235.5 1132,-235.5"/>
<text text-anchor="middle" x="1196" y="-242.5" font-family="Helvetica,sans-Serif" font-size="10.00" fill="#000000">component/Sensor.hpp</text>
</a>
</g>
</g>
<!-- Node1&#45;&gt;Node21 -->
<g id="edge43" class="edge">
<title>Node1&#45;&gt;Node21</title>
<path fill="none" stroke="#191970" d="M984.1377,-291.534C1032.8979,-280.8242 1097.6144,-266.6097 1142.6357,-256.7211"/>
<polygon fill="#191970" stroke="#191970" points="1143.481,-260.1189 1152.4973,-254.5551 1141.9792,-253.2819 1143.481,-260.1189"/>
</g>
<!-- Node33 -->
<g id="node34" class="node">
<title>Node33</title>
<polygon fill="#ffffff" stroke="#bfbfbf" points="1593,-235.5 1593,-254.5 1727,-254.5 1727,-235.5 1593,-235.5"/>
<text text-anchor="middle" x="1660" y="-242.5" font-family="Helvetica,sans-Serif" font-size="10.00" fill="#000000">messages/SensorData.h</text>
</g>
<!-- Node1&#45;&gt;Node33 -->
<g id="edge67" class="edge">
<title>Node1&#45;&gt;Node33</title>
<path fill="none" stroke="#191970" d="M984.3861,-302.4483C1103.676,-295.1124 1357.7629,-278.2989 1582.8668,-255.0703"/>
<polygon fill="#191970" stroke="#191970" points="1583.3013,-258.5441 1592.8864,-254.0301 1582.5784,-251.5816 1583.3013,-258.5441"/>
</g>
<!-- Node34 -->
<g id="node35" class="node">
<title>Node34</title>
<polygon fill="#ffffff" stroke="#bfbfbf" points="1745,-235.5 1745,-254.5 1871,-254.5 1871,-235.5 1745,-235.5"/>
<text text-anchor="middle" x="1808" y="-242.5" font-family="Helvetica,sans-Serif" font-size="10.00" fill="#000000">services/PatientData.h</text>
</g>
<!-- Node1&#45;&gt;Node34 -->
<g id="edge68" class="edge">
<title>Node1&#45;&gt;Node34</title>
<path fill="none" stroke="#191970" d="M984.1764,-303.9555C1123.289,-298.3853 1450.0536,-283.3699 1734.7083,-255.0622"/>
<polygon fill="#191970" stroke="#191970" points="1735.2149,-258.5291 1744.8162,-254.0496 1734.5171,-251.5639 1735.2149,-258.5291"/>
</g>
<!-- Node5&#45;&gt;Node2 -->
<g id="edge6" class="edge">
<title>Node5&#45;&gt;Node2</title>
<path fill="none" stroke="#191970" d="M613.4683,-112.4584C622.5176,-97.6427 642.106,-69.4168 667,-56 714.6227,-30.3334 875.3192,-16.7851 944.6811,-12.0159"/>
<polygon fill="#191970" stroke="#191970" points="945.2538,-15.4855 954.9977,-11.3253 944.7862,-8.5011 945.2538,-15.4855"/>
</g>
<!-- Node6 -->
<g id="node7" class="node">
<title>Node6</title>
<polygon fill="#ffffff" stroke="#bfbfbf" points="944.5,-56.5 944.5,-75.5 1009.5,-75.5 1009.5,-56.5 944.5,-56.5"/>
<text text-anchor="middle" x="977" y="-63.5" font-family="Helvetica,sans-Serif" font-size="10.00" fill="#000000">stdexcept</text>
</g>
<!-- Node5&#45;&gt;Node6 -->
<g id="edge7" class="edge">
<title>Node5&#45;&gt;Node6</title>
<path fill="none" stroke="#191970" d="M671.0141,-112.4369C746.0839,-101.0442 869.4575,-82.3208 934.2332,-72.4903"/>
<polygon fill="#191970" stroke="#191970" points="935.1266,-75.8949 944.4882,-70.934 934.0762,-68.9742 935.1266,-75.8949"/>
</g>
<!-- Node7 -->
<g id="node8" class="node">
<title>Node7</title>
<polygon fill="#ffffff" stroke="#bfbfbf" points="427,-56.5 427,-75.5 487,-75.5 487,-56.5 427,-56.5"/>
<text text-anchor="middle" x="457" y="-63.5" font-family="Helvetica,sans-Serif" font-size="10.00" fill="#000000">iostream</text>
</g>
<!-- Node5&#45;&gt;Node7 -->
<g id="edge8" class="edge">
<title>Node5&#45;&gt;Node7</title>
<path fill="none" stroke="#191970" d="M582.0422,-112.3733C557.2593,-103.1822 519.7254,-89.2624 492.246,-79.0713"/>
<polygon fill="#191970" stroke="#191970" points="493.2121,-75.6968 482.6191,-75.5011 490.7781,-82.26 493.2121,-75.6968"/>
</g>
<!-- Node8 -->
<g id="node9" class="node">
<title>Node8</title>
<polygon fill="#ffffff" stroke="#bfbfbf" points="675.5,-56.5 675.5,-75.5 728.5,-75.5 728.5,-56.5 675.5,-56.5"/>
<text text-anchor="middle" x="702" y="-63.5" font-family="Helvetica,sans-Serif" font-size="10.00" fill="#000000">stdint.h</text>
</g>
<!-- Node5&#45;&gt;Node8 -->
<g id="edge9" class="edge">
<title>Node5&#45;&gt;Node8</title>
<path fill="none" stroke="#191970" d="M624.3736,-112.2455C638.9308,-103.5731 660.431,-90.7645 677.1152,-80.825"/>
<polygon fill="#191970" stroke="#191970" points="679.0144,-83.7676 685.8141,-75.6427 675.4317,-77.7539 679.0144,-83.7676"/>
</g>
<!-- Node9 -->
<g id="node10" class="node">
<title>Node9</title>
<polygon fill="#ffffff" stroke="#bfbfbf" points="505,-56.5 505,-75.5 561,-75.5 561,-56.5 505,-56.5"/>
<text text-anchor="middle" x="533" y="-63.5" font-family="Helvetica,sans-Serif" font-size="10.00" fill="#000000">sstream</text>
</g>
<!-- Node5&#45;&gt;Node9 -->
<g id="edge10" class="edge">
<title>Node5&#45;&gt;Node9</title>
<path fill="none" stroke="#191970" d="M594.936,-112.2455C583.6438,-103.814 567.1155,-91.4729 553.9729,-81.6598"/>
<polygon fill="#191970" stroke="#191970" points="556.0211,-78.8211 545.9143,-75.6427 551.8331,-84.4301 556.0211,-78.8211"/>
</g>
<!-- Node10&#45;&gt;Node2 -->
<g id="edge13" class="edge">
<title>Node10&#45;&gt;Node2</title>
<path fill="none" stroke="#191970" d="M1020.3686,-112.2014C1023.0856,-98.9479 1026.2932,-74.8042 1019,-56 1014.6142,-44.692 1006.0098,-34.463 997.7251,-26.5381"/>
<polygon fill="#191970" stroke="#191970" points="999.8244,-23.721 990.028,-19.6859 995.1699,-28.9494 999.8244,-23.721"/>
</g>
<!-- Node10&#45;&gt;Node6 -->
<g id="edge15" class="edge">
<title>Node10&#45;&gt;Node6</title>
<path fill="none" stroke="#191970" d="M1010.8583,-112.2455C1005.1556,-104.4564 997.01,-93.3308 990.1375,-83.9439"/>
<polygon fill="#191970" stroke="#191970" points="992.7913,-81.6437 984.0598,-75.6427 987.1432,-85.7789 992.7913,-81.6437"/>
</g>
<!-- Node10&#45;&gt;Node8 -->
<g id="edge14" class="edge">
<title>Node10&#45;&gt;Node8</title>
<path fill="none" stroke="#191970" d="M964.0367,-112.4369C899.7827,-101.0501 794.2058,-82.3403 738.7106,-72.5057"/>
<polygon fill="#191970" stroke="#191970" points="739.0867,-69.0179 728.6293,-70.7191 737.8651,-75.9105 739.0867,-69.0179"/>
</g>
<!-- Node10&#45;&gt;Node9 -->
<g id="edge12" class="edge">
<title>Node10&#45;&gt;Node9</title>
<path fill="none" stroke="#191970" d="M943.2816,-113.3727C838.3837,-101.2608 651.3308,-79.6629 571.1765,-70.408"/>
<polygon fill="#191970" stroke="#191970" points="571.3792,-66.9082 561.0437,-69.238 570.5763,-73.862 571.3792,-66.9082"/>
</g>
<!-- Node11&#45;&gt;Node5 -->
<g id="edge23" class="edge">
<title>Node11&#45;&gt;Node5</title>
<path fill="none" stroke="#191970" d="M658.625,-173.8906C649.5201,-164.5581 635.5026,-150.1902 624.5243,-138.9374"/>
<polygon fill="#191970" stroke="#191970" points="626.9957,-136.4586 617.5072,-131.7449 621.9852,-141.3468 626.9957,-136.4586"/>
</g>
<!-- Node11&#45;&gt;Node7 -->
<g id="edge17" class="edge">
<title>Node11&#45;&gt;Node7</title>
<path fill="none" stroke="#191970" d="M626.1074,-173.923C595.8886,-165.791 554.9596,-152.186 523,-132 502.3849,-118.9794 483.2025,-98.4638 470.8905,-83.7622"/>
<polygon fill="#191970" stroke="#191970" points="473.5024,-81.4267 464.4764,-75.8785 468.0725,-85.8444 473.5024,-81.4267"/>
</g>
<!-- Node11&#45;&gt;Node8 -->
<g id="edge21" class="edge">
<title>Node11&#45;&gt;Node8</title>
<path fill="none" stroke="#191970" d="M670.8847,-173.6298C673.9117,-163.265 678.8039,-146.4909 683,-132 687.5084,-116.4308 692.5862,-98.7865 696.3574,-85.6608"/>
<polygon fill="#191970" stroke="#191970" points="699.7807,-86.4204 699.1769,-75.8428 693.0526,-84.4882 699.7807,-86.4204"/>
</g>
<!-- Node11&#45;&gt;Node9 -->
<g id="edge22" class="edge">
<title>Node11&#45;&gt;Node9</title>
<path fill="none" stroke="#191970" d="M629.4145,-173.9953C593.6501,-164.3124 544.3127,-148.4235 533,-132 523.7681,-118.5974 524.7801,-99.7509 527.5109,-85.6266"/>
<polygon fill="#191970" stroke="#191970" points="531.0089,-86.0432 529.9065,-75.5059 524.1972,-84.4308 531.0089,-86.0432"/>
</g>
<!-- Node12 -->
<g id="node13" class="node">
<title>Node12</title>
<polygon fill="#ffffff" stroke="#bfbfbf" points="406,-112.5 406,-131.5 448,-131.5 448,-112.5 406,-112.5"/>
<text text-anchor="middle" x="427" y="-119.5" font-family="Helvetica,sans-Serif" font-size="10.00" fill="#000000">array</text>
</g>
<!-- Node11&#45;&gt;Node12 -->
<g id="edge18" class="edge">
<title>Node11&#45;&gt;Node12</title>
<path fill="none" stroke="#191970" d="M628.0221,-173.9235C586.4432,-163.8656 519.5101,-147.3999 462,-132 460.7295,-131.6598 459.4343,-131.3088 458.1267,-130.951"/>
<polygon fill="#191970" stroke="#191970" points="458.6405,-127.4607 448.0677,-128.1422 456.7579,-134.2028 458.6405,-127.4607"/>
</g>
<!-- Node13 -->
<g id="node14" class="node">
<title>Node13</title>
<polygon fill="#ffffff" stroke="#bfbfbf" points="730,-112.5 730,-131.5 784,-131.5 784,-112.5 730,-112.5"/>
<text text-anchor="middle" x="757" y="-119.5" font-family="Helvetica,sans-Serif" font-size="10.00" fill="#000000">random</text>
</g>
<!-- Node11&#45;&gt;Node13 -->
<g id="edge19" class="edge">
<title>Node11&#45;&gt;Node13</title>
<path fill="none" stroke="#191970" d="M681.9063,-173.8906C696.0138,-164.1421 718.0724,-148.8994 734.6385,-137.4521"/>
<polygon fill="#191970" stroke="#191970" points="736.9542,-140.1063 743.1914,-131.5419 732.9747,-134.3474 736.9542,-140.1063"/>
</g>
<!-- Node14 -->
<g id="node15" class="node">
<title>Node14</title>
<polygon fill="#ffffff" stroke="#bfbfbf" points="840.5,-112.5 840.5,-131.5 887.5,-131.5 887.5,-112.5 840.5,-112.5"/>
<text text-anchor="middle" x="864" y="-119.5" font-family="Helvetica,sans-Serif" font-size="10.00" fill="#000000">vector</text>
</g>
<!-- Node11&#45;&gt;Node14 -->
<g id="edge20" class="edge">
<title>Node11&#45;&gt;Node14</title>
<path fill="none" stroke="#191970" d="M698.625,-173.8906C734.4475,-162.6504 793.5489,-144.1058 830.5465,-132.4969"/>
<polygon fill="#191970" stroke="#191970" points="831.8644,-135.7517 840.3578,-129.4183 829.7686,-129.0728 831.8644,-135.7517"/>
</g>
<!-- Node15&#45;&gt;Node8 -->
<g id="edge27" class="edge">
<title>Node15&#45;&gt;Node8</title>
<path fill="none" stroke="#191970" d="M795.2684,-235.3927C802.5389,-212.163 817.5559,-151.9279 793,-112 781.1,-92.6507 758.2658,-81.1415 738.4488,-74.4742"/>
<polygon fill="#191970" stroke="#191970" points="739.317,-71.0797 728.7303,-71.4951 737.2654,-77.7723 739.317,-71.0797"/>
</g>
<!-- Node15&#45;&gt;Node11 -->
<g id="edge25" class="edge">
<title>Node15&#45;&gt;Node11</title>
<path fill="none" stroke="#191970" d="M772.625,-235.3906C752.1505,-225.2359 719.6558,-209.1196 696.3115,-197.5416"/>
<polygon fill="#191970" stroke="#191970" points="697.7528,-194.3496 687.2389,-193.0419 694.6425,-200.6207 697.7528,-194.3496"/>
</g>
<!-- Node15&#45;&gt;Node13 -->
<g id="edge26" class="edge">
<title>Node15&#45;&gt;Node13</title>
<path fill="none" stroke="#191970" d="M789.2536,-235.3484C783.5032,-215.1397 770.1016,-168.0427 762.5069,-141.3528"/>
<polygon fill="#191970" stroke="#191970" points="765.837,-140.267 759.7336,-131.6068 759.1042,-142.1829 765.837,-140.267"/>
</g>
<!-- Node16&#45;&gt;Node2 -->
<g id="edge30" class="edge">
<title>Node16&#45;&gt;Node2</title>
<path fill="none" stroke="#191970" d="M126.6309,-112.3963C144.1694,-97.2228 180.9288,-68.1789 218,-56 287.6795,-33.1084 808.3533,-15.296 944.5024,-10.9951"/>
<polygon fill="#191970" stroke="#191970" points="944.8155,-14.4871 954.701,-10.6756 944.5963,-7.4905 944.8155,-14.4871"/>
</g>
<!-- Node16&#45;&gt;Node8 -->
<g id="edge31" class="edge">
<title>Node16&#45;&gt;Node8</title>
<path fill="none" stroke="#191970" d="M204.0471,-113.5859C334.514,-101.1181 573.6004,-78.2703 665.07,-69.5291"/>
<polygon fill="#191970" stroke="#191970" points="665.6031,-72.9942 675.2248,-68.5587 664.9372,-66.026 665.6031,-72.9942"/>
</g>
<!-- Node16&#45;&gt;Node9 -->
<g id="edge32" class="edge">
<title>Node16&#45;&gt;Node9</title>
<path fill="none" stroke="#191970" d="M204.0981,-114.9469C279.1336,-108.1085 389.8997,-96.054 494.9914,-75.9692"/>
<polygon fill="#191970" stroke="#191970" points="495.6649,-79.4039 504.816,-74.0646 494.3326,-72.5319 495.6649,-79.4039"/>
</g>
<!-- Node17 -->
<g id="node18" class="node">
<title>Node17</title>
<polygon fill="#ffffff" stroke="#bfbfbf" points="100,-56.5 100,-75.5 132,-75.5 132,-56.5 100,-56.5"/>
<text text-anchor="middle" x="116" y="-63.5" font-family="Helvetica,sans-Serif" font-size="10.00" fill="#000000">list</text>
</g>
<!-- Node16&#45;&gt;Node17 -->
<g id="edge29" class="edge">
<title>Node16&#45;&gt;Node17</title>
<path fill="none" stroke="#191970" d="M116,-112.2455C116,-104.9382 116,-94.6944 116,-85.7046"/>
<polygon fill="#191970" stroke="#191970" points="119.5001,-85.6426 116,-75.6427 112.5001,-85.6427 119.5001,-85.6426"/>
</g>
<!-- Node18&#45;&gt;Node2 -->
<g id="edge35" class="edge">
<title>Node18&#45;&gt;Node2</title>
<path fill="none" stroke="#191970" d="M899.3765,-173.9878C902.8561,-152.0216 913.3835,-96.5449 936,-56 941.9411,-45.3494 950.7213,-35.0625 958.634,-26.9275"/>
<polygon fill="#191970" stroke="#191970" points="961.4375,-29.0799 966.1201,-19.576 956.5328,-24.0854 961.4375,-29.0799"/>
</g>
<!-- Node18&#45;&gt;Node14 -->
<g id="edge34" class="edge">
<title>Node18&#45;&gt;Node14</title>
<path fill="none" stroke="#191970" d="M892.6875,-173.8906C887.7761,-165.0068 880.3421,-151.5601 874.2725,-140.5811"/>
<polygon fill="#191970" stroke="#191970" points="877.2888,-138.8031 869.3874,-131.7449 871.1627,-142.1899 877.2888,-138.8031"/>
</g>
<!-- Node19&#45;&gt;Node2 -->
<g id="edge37" class="edge">
<title>Node19&#45;&gt;Node2</title>
<path fill="none" stroke="#191970" d="M308.4962,-169.877C268.8283,-158.7731 230.6825,-140.2424 251,-112 296.7165,-48.4516 341.3207,-71.7694 418,-56 519.9083,-35.0422 841.1726,-17.0214 944.5872,-11.6369"/>
<polygon fill="#191970" stroke="#191970" points="944.9225,-15.1244 954.7286,-11.1132 944.5614,-8.1337 944.9225,-15.1244"/>
</g>
<!-- Node19&#45;&gt;Node5 -->
<g id="edge42" class="edge">
<title>Node19&#45;&gt;Node5</title>
<path fill="none" stroke="#191970" d="M434.2643,-168.4554C473.6503,-157.9239 525.601,-144.0328 562.4029,-134.1923"/>
<polygon fill="#191970" stroke="#191970" points="563.6017,-137.4948 572.3582,-131.5303 561.7934,-130.7323 563.6017,-137.4948"/>
</g>
<!-- Node19&#45;&gt;Node7 -->
<g id="edge39" class="edge">
<title>Node19&#45;&gt;Node7</title>
<path fill="none" stroke="#191970" d="M369.2085,-168.4161C361.5635,-153.1199 353.2563,-129.3002 364,-112 375.6252,-93.2804 397.3765,-81.9474 416.9216,-75.2161"/>
<polygon fill="#191970" stroke="#191970" points="418.0865,-78.5189 426.5796,-72.185 415.9903,-71.8401 418.0865,-78.5189"/>
</g>
<!-- Node19&#45;&gt;Node9 -->
<g id="edge41" class="edge">
<title>Node19&#45;&gt;Node9</title>
<path fill="none" stroke="#191970" d="M378.0217,-168.3937C378.8583,-152.3987 382.6082,-127.381 397,-112 403.9566,-104.5653 457.4385,-87.8812 495.2197,-76.7839"/>
<polygon fill="#191970" stroke="#191970" points="496.3072,-80.1126 504.9278,-73.9533 494.3478,-73.3924 496.3072,-80.1126"/>
</g>
<!-- Node19&#45;&gt;Node12 -->
<g id="edge40" class="edge">
<title>Node19&#45;&gt;Node12</title>
<path fill="none" stroke="#191970" d="M390.1124,-168.2977C396.9849,-159.672 405.6223,-148.8312 412.811,-139.8087"/>
<polygon fill="#191970" stroke="#191970" points="415.6604,-141.849 419.1545,-131.8469 410.1856,-137.487 415.6604,-141.849"/>
</g>
<!-- Node20 -->
<g id="node21" class="node">
<title>Node20</title>
<polygon fill="#ffffff" stroke="#bfbfbf" points="260.5,-112.5 260.5,-131.5 311.5,-131.5 311.5,-112.5 260.5,-112.5"/>
<text text-anchor="middle" x="286" y="-119.5" font-family="Helvetica,sans-Serif" font-size="10.00" fill="#000000">math.h</text>
</g>
<!-- Node19&#45;&gt;Node20 -->
<g id="edge38" class="edge">
<title>Node19&#45;&gt;Node20</title>
<path fill="none" stroke="#191970" d="M355.2584,-168.2977C341.2033,-158.9022 323.217,-146.8787 309.0964,-137.4395"/>
<polygon fill="#191970" stroke="#191970" points="310.7143,-134.311 300.4556,-131.6633 306.8241,-140.1305 310.7143,-134.311"/>
</g>
<!-- Node21&#45;&gt;Node2 -->
<g id="edge45" class="edge">
<title>Node21&#45;&gt;Node2</title>
<path fill="none" stroke="#191970" d="M1199.0563,-235.3461C1203.2974,-220.0863 1209.2544,-189.8808 1198,-168 1192.4825,-157.2728 1054.608,-62.7613 999.4752,-25.2482"/>
<polygon fill="#191970" stroke="#191970" points="1001.3117,-22.2646 991.0738,-19.5374 997.3764,-28.0537 1001.3117,-22.2646"/>
</g>
<!-- Node21&#45;&gt;Node10 -->
<g id="edge65" class="edge">
<title>Node21&#45;&gt;Node10</title>
<path fill="none" stroke="#191970" d="M1196.4916,-235.2799C1196.7559,-219.0934 1194.8417,-186.5644 1177,-168 1163.5194,-153.9733 1119.8196,-141.9161 1081.638,-133.6688"/>
<polygon fill="#191970" stroke="#191970" points="1082.0659,-130.1824 1071.5598,-131.5505 1080.626,-137.0327 1082.0659,-130.1824"/>
</g>
<!-- Node21&#45;&gt;Node14 -->
<g id="edge46" class="edge">
<title>Node21&#45;&gt;Node14</title>
<path fill="none" stroke="#191970" d="M1159.823,-235.4945C1128.3631,-226.9209 1081.7212,-213.4666 1042,-199 1013.6029,-188.6577 937.5035,-154.9568 894.5668,-135.7427"/>
<polygon fill="#191970" stroke="#191970" points="895.732,-132.4295 885.1751,-131.5343 892.8695,-138.8175 895.732,-132.4295"/>
</g>
<!-- Node21&#45;&gt;Node18 -->
<g id="edge66" class="edge">
<title>Node21&#45;&gt;Node18</title>
<path fill="none" stroke="#191970" d="M1149.7645,-235.4581C1097.0205,-224.573 1010.7801,-206.7751 954.2008,-195.0985"/>
<polygon fill="#191970" stroke="#191970" points="954.8451,-191.6578 944.344,-193.0643 953.4302,-198.5133 954.8451,-191.6578"/>
</g>
<!-- Node22 -->
<g id="node23" class="node">
<title>Node22</title>
<polygon fill="#ffffff" stroke="#bfbfbf" points="1597,-174 1597,-193 1647,-193 1647,-174 1597,-174"/>
<text text-anchor="middle" x="1622" y="-181" font-family="Helvetica,sans-Serif" font-size="10.00" fill="#000000">stdio.h</text>
</g>
<!-- Node21&#45;&gt;Node22 -->
<g id="edge44" class="edge">
<title>Node21&#45;&gt;Node22</title>
<path fill="none" stroke="#191970" d="M1260.2739,-242.4658C1337.8246,-238.245 1471.6688,-227.2261 1583,-199 1585.7809,-198.295 1588.6289,-197.4401 1591.4577,-196.4982"/>
<polygon fill="#191970" stroke="#191970" points="1592.6874,-199.7753 1600.8755,-193.0518 1590.2817,-193.2017 1592.6874,-199.7753"/>
</g>
<!-- Node23 -->
<g id="node24" class="node">
<title>Node23</title>
<g id="a_node24"><a xlink:href="Component_8hpp.html" target="_top" xlink:title="archlib/target_system\l/Component.hpp">
<polygon fill="#ffffff" stroke="#000000" points="1417.5,-168.5 1417.5,-198.5 1540.5,-198.5 1540.5,-168.5 1417.5,-168.5"/>
<text text-anchor="start" x="1425.5" y="-186.5" font-family="Helvetica,sans-Serif" font-size="10.00" fill="#000000">archlib/target_system</text>
<text text-anchor="middle" x="1479" y="-175.5" font-family="Helvetica,sans-Serif" font-size="10.00" fill="#000000">/Component.hpp</text>
</a>
</g>
</g>
<!-- Node21&#45;&gt;Node23 -->
<g id="edge47" class="edge">
<title>Node21&#45;&gt;Node23</title>
<path fill="none" stroke="#191970" d="M1239.9082,-235.4581C1284.6121,-225.7433 1354.654,-210.5222 1407.3955,-199.0607"/>
<polygon fill="#191970" stroke="#191970" points="1408.3373,-202.4378 1417.3659,-196.894 1406.8507,-195.5975 1408.3373,-202.4378"/>
</g>
<!-- Node28 -->
<g id="node29" class="node">
<title>Node28</title>
<polygon fill="#ffffff" stroke="#bfbfbf" points="1983.5,-112.5 1983.5,-131.5 2148.5,-131.5 2148.5,-112.5 1983.5,-112.5"/>
<text text-anchor="middle" x="2066" y="-119.5" font-family="Helvetica,sans-Serif" font-size="10.00" fill="#000000">archlib/AdaptationCommand.h</text>
</g>
<!-- Node21&#45;&gt;Node28 -->
<g id="edge63" class="edge">
<title>Node21&#45;&gt;Node28</title>
<path fill="none" stroke="#191970" d="M1260.0874,-240.8953C1347.5606,-234.5756 1499.2715,-220.8529 1550,-199 1570.0176,-190.3768 1567.8286,-176.2568 1588,-168 1665.2018,-136.3988 1874.118,-140.3905 1973.0951,-132.09"/>
<polygon fill="#191970" stroke="#191970" points="1973.543,-135.5637 1983.1795,-131.1605 1972.9004,-128.5932 1973.543,-135.5637"/>
</g>
<!-- Node32 -->
<g id="node33" class="node">
<title>Node32</title>
<polygon fill="#ffffff" stroke="#bfbfbf" points="1050.5,-174 1050.5,-193 1167.5,-193 1167.5,-174 1050.5,-174"/>
<text text-anchor="middle" x="1109" y="-181" font-family="Helvetica,sans-Serif" font-size="10.00" fill="#000000">archlib/Uncertainty.h</text>
</g>
<!-- Node21&#45;&gt;Node32 -->
<g id="edge64" class="edge">
<title>Node21&#45;&gt;Node32</title>
<path fill="none" stroke="#191970" d="M1182.4063,-235.3906C1168.6157,-225.6421 1147.0528,-210.3994 1130.859,-198.9521"/>
<polygon fill="#191970" stroke="#191970" points="1132.6844,-195.9563 1122.4983,-193.0419 1128.6437,-201.6723 1132.6844,-195.9563"/>
</g>
<!-- Node23&#45;&gt;Node2 -->
<g id="edge48" class="edge">
<title>Node23&#45;&gt;Node2</title>
<path fill="none" stroke="#191970" d="M1417.4614,-179.1119C1340.9518,-172.6227 1215.8111,-158.2992 1178,-132 1145.9582,-109.7136 1164.7013,-80.0996 1134,-56 1097.5106,-27.3569 1043.6776,-16.5384 1009.4831,-12.4593"/>
<polygon fill="#191970" stroke="#191970" points="1009.4318,-8.9342 999.1179,-11.3577 1008.692,-15.895 1009.4318,-8.9342"/>
</g>
<!-- Node23&#45;&gt;Node4 -->
<g id="edge50" class="edge">
<title>Node23&#45;&gt;Node4</title>
<path fill="none" stroke="#191970" d="M1520.8313,-168.3747C1537.0059,-160.2357 1553.8076,-148.4184 1563,-132 1581.0269,-99.8025 1574.5177,-54.9258 1568.5191,-29.5391"/>
<polygon fill="#191970" stroke="#191970" points="1571.8563,-28.4633 1565.9708,-19.6535 1565.0779,-30.2106 1571.8563,-28.4633"/>
</g>
<!-- Node24 -->
<g id="node25" class="node">
<title>Node24</title>
<polygon fill="#ffffff" stroke="#bfbfbf" points="1910.5,-112.5 1910.5,-131.5 1965.5,-131.5 1965.5,-112.5 1910.5,-112.5"/>
<text text-anchor="middle" x="1938" y="-119.5" font-family="Helvetica,sans-Serif" font-size="10.00" fill="#000000">signal.h</text>
</g>
<!-- Node23&#45;&gt;Node24 -->
<g id="edge49" class="edge">
<title>Node23&#45;&gt;Node24</title>
<path fill="none" stroke="#191970" d="M1540.7114,-170.39C1545.5363,-169.5253 1550.3415,-168.7156 1555,-168 1704.5321,-145.0285 1747.1757,-159.602 1900.0016,-131.9043"/>
<polygon fill="#191970" stroke="#191970" points="1901.0303,-135.2737 1910.2296,-130.018 1899.7606,-128.3898 1901.0303,-135.2737"/>
</g>
<!-- Node25 -->
<g id="node26" class="node">
<title>Node25</title>
<polygon fill="#ffffff" stroke="#bfbfbf" points="1186.5,-112.5 1186.5,-131.5 1275.5,-131.5 1275.5,-112.5 1186.5,-112.5"/>
<text text-anchor="middle" x="1231" y="-119.5" font-family="Helvetica,sans-Serif" font-size="10.00" fill="#000000">archlib/Event.h</text>
</g>
<!-- Node23&#45;&gt;Node25 -->
<g id="edge51" class="edge">
<title>Node23&#45;&gt;Node25</title>
<path fill="none" stroke="#191970" d="M1418.3324,-168.4554C1375.501,-157.8339 1318.8891,-143.7951 1279.1517,-133.9408"/>
<polygon fill="#191970" stroke="#191970" points="1279.9797,-130.5402 1269.4312,-131.5303 1278.2948,-137.3344 1279.9797,-130.5402"/>
</g>
<!-- Node26 -->
<g id="node27" class="node">
<title>Node26</title>
<polygon fill="#ffffff" stroke="#bfbfbf" points="1294,-112.5 1294,-131.5 1386,-131.5 1386,-112.5 1294,-112.5"/>
<text text-anchor="middle" x="1340" y="-119.5" font-family="Helvetica,sans-Serif" font-size="10.00" fill="#000000">archlib/Status.h</text>
</g>
<!-- Node23&#45;&gt;Node26 -->
<g id="edge52" class="edge">
<title>Node23&#45;&gt;Node26</title>
<path fill="none" stroke="#191970" d="M1444.9968,-168.4554C1422.3129,-158.419 1392.7327,-145.3314 1370.7521,-135.6061"/>
<polygon fill="#191970" stroke="#191970" points="1372.1011,-132.3758 1361.5401,-131.5303 1369.2688,-138.7772 1372.1011,-132.3758"/>
</g>
<!-- Node27 -->
<g id="node28" class="node">
<title>Node27</title>
<polygon fill="#ffffff" stroke="#bfbfbf" points="1610,-112.5 1610,-131.5 1736,-131.5 1736,-112.5 1610,-112.5"/>
<text text-anchor="middle" x="1673" y="-119.5" font-family="Helvetica,sans-Serif" font-size="10.00" fill="#000000">archlib/EnergyStatus.h</text>
</g>
<!-- Node23&#45;&gt;Node27 -->
<g id="edge53" class="edge">
<title>Node23&#45;&gt;Node27</title>
<path fill="none" stroke="#191970" d="M1526.4577,-168.4554C1559.2531,-158.059 1602.3764,-144.3884 1633.3397,-134.5727"/>
<polygon fill="#191970" stroke="#191970" points="1634.4621,-137.8886 1642.9369,-131.5303 1632.3467,-131.2159 1634.4621,-137.8886"/>
</g>
<!-- Node23&#45;&gt;Node28 -->
<g id="edge54" class="edge">
<title>Node23&#45;&gt;Node28</title>
<path fill="none" stroke="#191970" d="M1540.6973,-170.2953C1545.5254,-169.4522 1550.3352,-168.6733 1555,-168 1737.17,-141.7062 1786.8045,-149.9284 1973.0519,-132.1648"/>
<polygon fill="#191970" stroke="#191970" points="1973.565,-135.6316 1983.182,-131.186 1972.8917,-128.6641 1973.565,-135.6316"/>
</g>
<!-- Node29 -->
<g id="node30" class="node">
<title>Node29</title>
<polygon fill="#ffffff" stroke="#bfbfbf" points="1754,-112.5 1754,-131.5 1892,-131.5 1892,-112.5 1754,-112.5"/>
<text text-anchor="middle" x="1823" y="-119.5" font-family="Helvetica,sans-Serif" font-size="10.00" fill="#000000">archlib/EffectorRegister.h</text>
</g>
<!-- Node23&#45;&gt;Node29 -->
<g id="edge55" class="edge">
<title>Node23&#45;&gt;Node29</title>
<path fill="none" stroke="#191970" d="M1540.7702,-170.7344C1545.5816,-169.7913 1550.3678,-168.8697 1555,-168 1622.5619,-155.3154 1699.9739,-142.178 1754.1712,-133.207"/>
<polygon fill="#191970" stroke="#191970" points="1755.0559,-136.6084 1764.3519,-131.5256 1753.9152,-129.7019 1755.0559,-136.6084"/>
</g>
<!-- Node30 -->
<g id="node31" class="node">
<title>Node30</title>
<g id="a_node31"><a xlink:href="ROSComponent_8hpp.html" target="_top" xlink:title="archlib/ROSComponent.hpp">
<polygon fill="#ffffff" stroke="#000000" points="1404,-112.5 1404,-131.5 1554,-131.5 1554,-112.5 1404,-112.5"/>
<text text-anchor="middle" x="1479" y="-119.5" font-family="Helvetica,sans-Serif" font-size="10.00" fill="#000000">archlib/ROSComponent.hpp</text>
</a>
</g>
</g>
<!-- Node23&#45;&gt;Node30 -->
<g id="edge56" class="edge">
<title>Node23&#45;&gt;Node30</title>
<path fill="none" stroke="#191970" d="M1479,-168.2977C1479,-160.3834 1479,-150.6043 1479,-142.0759"/>
<polygon fill="#191970" stroke="#191970" points="1482.5001,-141.8469 1479,-131.8469 1475.5001,-141.847 1482.5001,-141.8469"/>
</g>
<!-- Node30&#45;&gt;Node2 -->
<g id="edge57" class="edge">
<title>Node30&#45;&gt;Node2</title>
<path fill="none" stroke="#191970" d="M1436.1998,-112.4509C1337.5438,-90.4401 1095.968,-36.5427 1008.9204,-17.1217"/>
<polygon fill="#191970" stroke="#191970" points="1009.6131,-13.6902 999.0909,-14.9286 1008.0887,-20.5223 1009.6131,-13.6902"/>
</g>
<!-- Node30&#45;&gt;Node4 -->
<g id="edge59" class="edge">
<title>Node30&#45;&gt;Node4</title>
<path fill="none" stroke="#191970" d="M1490.0498,-112.4862C1499.9228,-103.6472 1514.4201,-89.805 1525,-76 1536.3904,-61.1373 1546.8081,-42.5197 1553.8432,-28.8506"/>
<polygon fill="#191970" stroke="#191970" points="1556.9794,-30.4044 1558.3335,-19.8964 1550.7221,-27.2665 1556.9794,-30.4044"/>
</g>
<!-- Node30&#45;&gt;Node6 -->
<g id="edge58" class="edge">
<title>Node30&#45;&gt;Node6</title>
<path fill="none" stroke="#191970" d="M1403.8981,-113.0258C1400.8931,-112.6773 1397.9182,-112.3343 1395,-112 1257.8356,-96.2884 1095.227,-78.6882 1019.6112,-70.5629"/>
<polygon fill="#191970" stroke="#191970" points="1019.8471,-67.0682 1009.5306,-69.4804 1019.0997,-74.0282 1019.8471,-67.0682"/>
</g>
<!-- Node31 -->
<g id="node32" class="node">
<title>Node31</title>
<g id="a_node32"><a xlink:href="ROSComponentDescriptor_8hpp.html" target="_top" xlink:title="archlib/ROSComponentDescriptor.hpp">
<polygon fill="#ffffff" stroke="#000000" points="1316,-56.5 1316,-75.5 1516,-75.5 1516,-56.5 1316,-56.5"/>
<text text-anchor="middle" x="1416" y="-63.5" font-family="Helvetica,sans-Serif" font-size="10.00" fill="#000000">archlib/ROSComponentDescriptor.hpp</text>
</a>
</g>
</g>
<!-- Node30&#45;&gt;Node31 -->
<g id="edge60" class="edge">
<title>Node30&#45;&gt;Node31</title>
<path fill="none" stroke="#191970" d="M1468.0262,-112.2455C1458.8118,-104.0549 1445.4468,-92.1749 1434.5703,-82.5069"/>
<polygon fill="#191970" stroke="#191970" points="1436.6474,-79.6704 1426.848,-75.6427 1431.9968,-84.9023 1436.6474,-79.6704"/>
</g>
<!-- Node31&#45;&gt;Node2 -->
<g id="edge61" class="edge">
<title>Node31&#45;&gt;Node2</title>
<path fill="none" stroke="#191970" d="M1341.032,-56.4369C1243.8992,-44.0464 1078.7921,-22.9849 1009.3209,-14.1229"/>
<polygon fill="#191970" stroke="#191970" points="1009.7628,-10.651 999.4003,-12.8574 1008.877,-17.5948 1009.7628,-10.651"/>
</g>
<!-- Node31&#45;&gt;Node4 -->
<g id="edge62" class="edge">
<title>Node31&#45;&gt;Node4</title>
<path fill="none" stroke="#191970" d="M1441.2702,-56.3733C1465.3966,-47.1822 1501.9362,-33.2624 1528.6877,-23.0713"/>
<polygon fill="#191970" stroke="#191970" points="1529.9607,-26.3318 1538.0596,-19.5011 1527.4687,-19.7904 1529.9607,-26.3318"/>
</g>
</g>
</svg>
