<?xml version="1.0" encoding="UTF-8" standalone="no"?>
<!DOCTYPE svg PUBLIC "-//W3C//DTD SVG 1.1//EN"
 "http://www.w3.org/Graphics/SVG/1.1/DTD/svg11.dtd">
<!-- Generated by graphviz version 2.40.1 (20161225.0304)
 -->
<!-- Title: src/sa&#45;bsn/target_system/components/component/apps/g3t1_1.cpp Pages: 1 -->
<svg width="2585pt" height="408pt"
 viewBox="0.00 0.00 2585.00 408.00" xmlns="http://www.w3.org/2000/svg" xmlns:xlink="http://www.w3.org/1999/xlink">
<g id="graph0" class="graph" transform="scale(1 1) rotate(0) translate(4 404)">
<title>src/sa&#45;bsn/target_system/components/component/apps/g3t1_1.cpp</title>
<polygon fill="#ffffff" stroke="transparent" points="-4,4 -4,-404 2581,-404 2581,4 -4,4"/>
<!-- Node0 -->
<g id="node1" class="node">
<title>Node0</title>
<polygon fill="#bfbfbf" stroke="#000000" points="896,-358.5 896,-399.5 1060,-399.5 1060,-358.5 896,-358.5"/>
<text text-anchor="start" x="904" y="-387.5" font-family="Helvetica,sans-Serif" font-size="10.00" fill="#000000">src/sa&#45;bsn/target_system</text>
<text text-anchor="start" x="904" y="-376.5" font-family="Helvetica,sans-Serif" font-size="10.00" fill="#000000">/components/component/apps</text>
<text text-anchor="middle" x="978" y="-365.5" font-family="Helvetica,sans-Serif" font-size="10.00" fill="#000000">/g3t1_1.cpp</text>
</g>
<!-- Node1 -->
<g id="node2" class="node">
<title>Node1</title>
<g id="a_node2"><a xlink:href="G3T1__1_8hpp.html" target="_top" xlink:title="component/g3t1_1/G3T1\l_1.hpp">
<polygon fill="#ffffff" stroke="#000000" points="910,-291.5 910,-321.5 1046,-321.5 1046,-291.5 910,-291.5"/>
<text text-anchor="start" x="918" y="-309.5" font-family="Helvetica,sans-Serif" font-size="10.00" fill="#000000">component/g3t1_1/G3T1</text>
<text text-anchor="middle" x="978" y="-298.5" font-family="Helvetica,sans-Serif" font-size="10.00" fill="#000000">_1.hpp</text>
</a>
</g>
</g>
<!-- Node0&#45;&gt;Node1 -->
<g id="edge1" class="edge">
<title>Node0&#45;&gt;Node1</title>
<path fill="none" stroke="#191970" d="M978,-358.4183C978,-350.0849 978,-340.3834 978,-331.6373"/>
<polygon fill="#191970" stroke="#191970" points="981.5001,-331.5991 978,-321.5991 974.5001,-331.5991 981.5001,-331.5991"/>
</g>
<!-- Node2 -->
<g id="node3" class="node">
<title>Node2</title>
<polygon fill="#ffffff" stroke="#bfbfbf" points="1009,-.5 1009,-19.5 1053,-19.5 1053,-.5 1009,-.5"/>
<text text-anchor="middle" x="1031" y="-7.5" font-family="Helvetica,sans-Serif" font-size="10.00" fill="#000000">string</text>
</g>
<!-- Node1&#45;&gt;Node2 -->
<g id="edge2" class="edge">
<title>Node1&#45;&gt;Node2</title>
<path fill="none" stroke="#191970" d="M1046.3062,-301.2803C1283.1501,-282.4998 2058.5736,-215.0605 2130,-132 2192.1255,-59.7553 2570.8381,-146.2576 1832,-56 1534.9118,-19.7073 1172.2431,-11.9318 1063.3776,-10.3702"/>
<polygon fill="#191970" stroke="#191970" points="1063.1188,-6.8664 1053.0722,-10.2304 1063.0238,-13.8658 1063.1188,-6.8664"/>
</g>
<!-- Node3 -->
<g id="node4" class="node">
<title>Node3</title>
<polygon fill="#ffffff" stroke="#bfbfbf" points="2215.5,-235.5 2215.5,-254.5 2280.5,-254.5 2280.5,-235.5 2215.5,-235.5"/>
<text text-anchor="middle" x="2248" y="-242.5" font-family="Helvetica,sans-Serif" font-size="10.00" fill="#000000">exception</text>
</g>
<!-- Node1&#45;&gt;Node3 -->
<g id="edge3" class="edge">
<title>Node1&#45;&gt;Node3</title>
<path fill="none" stroke="#191970" d="M1046.1721,-305.1343C1269.0678,-300.4324 1974.881,-283.6111 2201,-255 2202.3035,-254.8351 2203.6246,-254.6526 2204.956,-254.4553"/>
<polygon fill="#191970" stroke="#191970" points="2205.9803,-257.8312 2215.2496,-252.7 2204.8036,-250.9309 2205.9803,-257.8312"/>
</g>
<!-- Node4 -->
<g id="node5" class="node">
<title>Node4</title>
<polygon fill="#ffffff" stroke="#bfbfbf" points="1878.5,-.5 1878.5,-19.5 1937.5,-19.5 1937.5,-.5 1878.5,-.5"/>
<text text-anchor="middle" x="1908" y="-7.5" font-family="Helvetica,sans-Serif" font-size="10.00" fill="#000000">ros/ros.h</text>
</g>
<!-- Node1&#45;&gt;Node4 -->
<g id="edge4" class="edge">
<title>Node1&#45;&gt;Node4</title>
<path fill="none" stroke="#191970" d="M1046.0278,-303.1761C1301.2111,-290.2655 2187,-241.2885 2187,-183.5 2187,-183.5 2187,-183.5 2187,-122 2187,-70.9866 2024.3326,-32.5775 1947.4133,-17.2669"/>
<polygon fill="#191970" stroke="#191970" points="1948.0798,-13.831 1937.5938,-15.3453 1946.7354,-20.7007 1948.0798,-13.831"/>
</g>
<!-- Node5 -->
<g id="node6" class="node">
<title>Node5</title>
<g id="a_node6"><a xlink:href="Battery_8hpp.html" target="_top" xlink:title="libbsn/resource/Battery.hpp">
<polygon fill="#ffffff" stroke="#000000" points="915.5,-112.5 915.5,-131.5 1064.5,-131.5 1064.5,-112.5 915.5,-112.5"/>
<text text-anchor="middle" x="990" y="-119.5" font-family="Helvetica,sans-Serif" font-size="10.00" fill="#000000">libbsn/resource/Battery.hpp</text>
</a>
</g>
</g>
<!-- Node1&#45;&gt;Node5 -->
<g id="edge5" class="edge">
<title>Node1&#45;&gt;Node5</title>
<path fill="none" stroke="#191970" d="M978.982,-291.4016C981.143,-258.1761 986.3095,-178.7418 988.7203,-141.6748"/>
<polygon fill="#191970" stroke="#191970" points="992.2172,-141.8356 989.3737,-131.6295 985.2319,-141.3812 992.2172,-141.8356"/>
</g>
<!-- Node9 -->
<g id="node10" class="node">
<title>Node9</title>
<g id="a_node10"><a xlink:href="Range_8hpp.html" target="_top" xlink:title="libbsn/range/Range.hpp">
<polygon fill="#ffffff" stroke="#000000" points="476.5,-112.5 476.5,-131.5 607.5,-131.5 607.5,-112.5 476.5,-112.5"/>
<text text-anchor="middle" x="542" y="-119.5" font-family="Helvetica,sans-Serif" font-size="10.00" fill="#000000">libbsn/range/Range.hpp</text>
</a>
</g>
</g>
<!-- Node1&#45;&gt;Node9 -->
<g id="edge10" class="edge">
<title>Node1&#45;&gt;Node9</title>
<path fill="none" stroke="#191970" d="M909.9464,-302.5815C843.2113,-297.1509 739.3474,-284.4192 654,-255 605.4748,-238.2734 582.1176,-241.2686 553,-199 541.5474,-182.3748 539.7196,-158.9074 540.181,-142.2591"/>
<polygon fill="#191970" stroke="#191970" points="543.6916,-142.1764 540.776,-131.9907 536.7033,-141.7715 543.6916,-142.1764"/>
</g>
<!-- Node11 -->
<g id="node12" class="node">
<title>Node11</title>
<g id="a_node12"><a xlink:href="Markov_8hpp.html" target="_top" xlink:title="libbsn/generator/Markov.hpp">
<polygon fill="#ffffff" stroke="#000000" points="562.5,-174 562.5,-193 717.5,-193 717.5,-174 562.5,-174"/>
<text text-anchor="middle" x="640" y="-181" font-family="Helvetica,sans-Serif" font-size="10.00" fill="#000000">libbsn/generator/Markov.hpp</text>
</a>
</g>
</g>
<!-- Node1&#45;&gt;Node11 -->
<g id="edge16" class="edge">
<title>Node1&#45;&gt;Node11</title>
<path fill="none" stroke="#191970" d="M909.7264,-302.2052C831.7251,-296.0664 710.1877,-282.36 674,-255 657.2711,-242.3519 648.4056,-219.3819 643.9728,-202.8868"/>
<polygon fill="#191970" stroke="#191970" points="647.3778,-202.0764 641.6618,-193.1557 640.5672,-203.6939 647.3778,-202.0764"/>
</g>
<!-- Node15 -->
<g id="node16" class="node">
<title>Node15</title>
<g id="a_node16"><a xlink:href="DataGenerator_8hpp.html" target="_top" xlink:title="libbsn/generator/DataGenerator.hpp">
<polygon fill="#ffffff" stroke="#000000" points="683.5,-235.5 683.5,-254.5 874.5,-254.5 874.5,-235.5 683.5,-235.5"/>
<text text-anchor="middle" x="779" y="-242.5" font-family="Helvetica,sans-Serif" font-size="10.00" fill="#000000">libbsn/generator/DataGenerator.hpp</text>
</a>
</g>
</g>
<!-- Node1&#45;&gt;Node15 -->
<g id="edge24" class="edge">
<title>Node1&#45;&gt;Node15</title>
<path fill="none" stroke="#191970" d="M929.3191,-291.4554C895.6786,-281.059 851.4438,-267.3884 819.6825,-257.5727"/>
<polygon fill="#191970" stroke="#191970" points="820.4255,-254.1391 809.8379,-254.5303 818.3586,-260.827 820.4255,-254.1391"/>
</g>
<!-- Node16 -->
<g id="node17" class="node">
<title>Node16</title>
<g id="a_node17"><a xlink:href="MovingAverage_8hpp.html" target="_top" xlink:title="libbsn/filters/MovingAverage.hpp">
<polygon fill="#ffffff" stroke="#000000" points="0,-112.5 0,-131.5 176,-131.5 176,-112.5 0,-112.5"/>
<text text-anchor="middle" x="88" y="-119.5" font-family="Helvetica,sans-Serif" font-size="10.00" fill="#000000">libbsn/filters/MovingAverage.hpp</text>
</a>
</g>
</g>
<!-- Node1&#45;&gt;Node16 -->
<g id="edge28" class="edge">
<title>Node1&#45;&gt;Node16</title>
<path fill="none" stroke="#191970" d="M909.8012,-303.8748C810.0061,-299.1012 618.6981,-286.41 459,-255 373.4553,-238.1748 353.079,-228.3942 271,-199 216.1256,-179.3483 153.8977,-152.0612 117.9744,-135.8004"/>
<polygon fill="#191970" stroke="#191970" points="119.1194,-132.4763 108.5676,-131.522 116.2213,-138.8482 119.1194,-132.4763"/>
</g>
<!-- Node18 -->
<g id="node19" class="node">
<title>Node18</title>
<g id="a_node19"><a xlink:href="utils_8hpp.html" target="_top" xlink:title="libbsn/utils/utils.hpp">
<polygon fill="#ffffff" stroke="#000000" points="832.5,-174 832.5,-193 947.5,-193 947.5,-174 832.5,-174"/>
<text text-anchor="middle" x="890" y="-181" font-family="Helvetica,sans-Serif" font-size="10.00" fill="#000000">libbsn/utils/utils.hpp</text>
</a>
</g>
</g>
<!-- Node1&#45;&gt;Node18 -->
<g id="edge33" class="edge">
<title>Node1&#45;&gt;Node18</title>
<path fill="none" stroke="#191970" d="M967.2095,-291.4178C950.9309,-268.6648 920.1533,-225.6461 902.7772,-201.3591"/>
<polygon fill="#191970" stroke="#191970" points="905.4972,-199.1456 896.832,-193.0493 899.8042,-203.2187 905.4972,-199.1456"/>
</g>
<!-- Node19 -->
<g id="node20" class="node">
<title>Node19</title>
<g id="a_node20"><a xlink:href="SensorConfiguration_8hpp.html" target="_top" xlink:title="libbsn/configuration\l/SensorConfiguration.hpp">
<polygon fill="#ffffff" stroke="#000000" points="280.5,-168.5 280.5,-198.5 419.5,-198.5 419.5,-168.5 280.5,-168.5"/>
<text text-anchor="start" x="288.5" y="-186.5" font-family="Helvetica,sans-Serif" font-size="10.00" fill="#000000">libbsn/configuration</text>
<text text-anchor="middle" x="350" y="-175.5" font-family="Helvetica,sans-Serif" font-size="10.00" fill="#000000">/SensorConfiguration.hpp</text>
</a>
</g>
</g>
<!-- Node1&#45;&gt;Node19 -->
<g id="edge36" class="edge">
<title>Node1&#45;&gt;Node19</title>
<path fill="none" stroke="#191970" d="M909.7071,-301.2297C800.5917,-292.4035 591.9099,-273.749 520,-255 472.706,-242.669 421.3691,-219.6215 387.6263,-203.0219"/>
<polygon fill="#191970" stroke="#191970" points="389.1055,-199.8486 378.5937,-198.5252 385.9859,-206.1151 389.1055,-199.8486"/>
</g>
<!-- Node21 -->
<g id="node22" class="node">
<title>Node21</title>
<g id="a_node22"><a xlink:href="Sensor_8hpp.html" target="_top" xlink:title="component/Sensor.hpp">
<polygon fill="#ffffff" stroke="#000000" points="1028,-235.5 1028,-254.5 1156,-254.5 1156,-235.5 1028,-235.5"/>
<text text-anchor="middle" x="1092" y="-242.5" font-family="Helvetica,sans-Serif" font-size="10.00" fill="#000000">component/Sensor.hpp</text>
</a>
</g>
</g>
<!-- Node1&#45;&gt;Node21 -->
<g id="edge43" class="edge">
<title>Node1&#45;&gt;Node21</title>
<path fill="none" stroke="#191970" d="M1005.8875,-291.4554C1023.9076,-281.734 1047.2341,-269.15 1065.0632,-259.5317"/>
<polygon fill="#191970" stroke="#191970" points="1067.1948,-262.3586 1074.334,-254.5303 1063.8713,-256.1979 1067.1948,-262.3586"/>
</g>
<!-- Node33 -->
<g id="node34" class="node">
<title>Node33</title>
<polygon fill="#ffffff" stroke="#bfbfbf" points="2299,-235.5 2299,-254.5 2425,-254.5 2425,-235.5 2299,-235.5"/>
<text text-anchor="middle" x="2362" y="-242.5" font-family="Helvetica,sans-Serif" font-size="10.00" fill="#000000">services/PatientData.h</text>
</g>
<!-- Node1&#45;&gt;Node33 -->
<g id="edge67" class="edge">
<title>Node1&#45;&gt;Node33</title>
<path fill="none" stroke="#191970" d="M1046.1233,-304.7168C1276.2619,-298.5548 2024.6866,-277.3577 2288.5122,-255.0294"/>
<polygon fill="#191970" stroke="#191970" points="2289.1645,-258.486 2298.8242,-254.1339 2288.5589,-251.5123 2289.1645,-258.486"/>
</g>
<!-- Node34 -->
<g id="node35" class="node">
<title>Node34</title>
<polygon fill="#ffffff" stroke="#bfbfbf" points="2443,-235.5 2443,-254.5 2577,-254.5 2577,-235.5 2443,-235.5"/>
<text text-anchor="middle" x="2510" y="-242.5" font-family="Helvetica,sans-Serif" font-size="10.00" fill="#000000">messages/SensorData.h</text>
</g>
<!-- Node1&#45;&gt;Node34 -->
<g id="edge68" class="edge">
<title>Node1&#45;&gt;Node34</title>
<path fill="none" stroke="#191970" d="M1046.1284,-304.9552C1292.6898,-299.231 2138.9401,-278.3915 2432.6862,-255.0147"/>
<polygon fill="#191970" stroke="#191970" points="2433.2181,-258.483 2442.9007,-254.1821 2432.6493,-251.5062 2433.2181,-258.483"/>
</g>
<!-- Node5&#45;&gt;Node2 -->
<g id="edge7" class="edge">
<title>Node5&#45;&gt;Node2</title>
<path fill="none" stroke="#191970" d="M987.6314,-112.2014C984.9144,-98.9479 981.7068,-74.8042 989,-56 993.3858,-44.692 1001.9902,-34.463 1010.2749,-26.5381"/>
<polygon fill="#191970" stroke="#191970" points="1012.8301,-28.9494 1017.972,-19.6859 1008.1756,-23.721 1012.8301,-28.9494"/>
</g>
<!-- Node6 -->
<g id="node7" class="node">
<title>Node6</title>
<polygon fill="#ffffff" stroke="#bfbfbf" points="420,-56.5 420,-75.5 476,-75.5 476,-56.5 420,-56.5"/>
<text text-anchor="middle" x="448" y="-63.5" font-family="Helvetica,sans-Serif" font-size="10.00" fill="#000000">sstream</text>
</g>
<!-- Node5&#45;&gt;Node6 -->
<g id="edge6" class="edge">
<title>Node5&#45;&gt;Node6</title>
<path fill="none" stroke="#191970" d="M915.4902,-114.3016C798.3827,-102.2019 575.4161,-79.1648 486.2482,-69.9518"/>
<polygon fill="#191970" stroke="#191970" points="486.3603,-66.4449 476.0535,-68.8985 485.6408,-73.4078 486.3603,-66.4449"/>
</g>
<!-- Node7 -->
<g id="node8" class="node">
<title>Node7</title>
<polygon fill="#ffffff" stroke="#bfbfbf" points="647.5,-56.5 647.5,-75.5 700.5,-75.5 700.5,-56.5 647.5,-56.5"/>
<text text-anchor="middle" x="674" y="-63.5" font-family="Helvetica,sans-Serif" font-size="10.00" fill="#000000">stdint.h</text>
</g>
<!-- Node5&#45;&gt;Node7 -->
<g id="edge8" class="edge">
<title>Node5&#45;&gt;Node7</title>
<path fill="none" stroke="#191970" d="M936.0367,-112.4369C871.7827,-101.0501 766.2058,-82.3403 710.7106,-72.5057"/>
<polygon fill="#191970" stroke="#191970" points="711.0867,-69.0179 700.6293,-70.7191 709.8651,-75.9105 711.0867,-69.0179"/>
</g>
<!-- Node8 -->
<g id="node9" class="node">
<title>Node8</title>
<polygon fill="#ffffff" stroke="#bfbfbf" points="998.5,-56.5 998.5,-75.5 1063.5,-75.5 1063.5,-56.5 998.5,-56.5"/>
<text text-anchor="middle" x="1031" y="-63.5" font-family="Helvetica,sans-Serif" font-size="10.00" fill="#000000">stdexcept</text>
</g>
<!-- Node5&#45;&gt;Node8 -->
<g id="edge9" class="edge">
<title>Node5&#45;&gt;Node8</title>
<path fill="none" stroke="#191970" d="M997.1417,-112.2455C1002.8444,-104.4564 1010.99,-93.3308 1017.8625,-83.9439"/>
<polygon fill="#191970" stroke="#191970" points="1020.8568,-85.7789 1023.9402,-75.6427 1015.2087,-81.6437 1020.8568,-85.7789"/>
</g>
<!-- Node9&#45;&gt;Node2 -->
<g id="edge11" class="edge">
<title>Node9&#45;&gt;Node2</title>
<path fill="none" stroke="#191970" d="M541.5016,-112.1385C541.3519,-97.4182 543.4805,-69.941 560,-56 593.4713,-27.7531 897.952,-14.648 998.756,-11.0576"/>
<polygon fill="#191970" stroke="#191970" points="999.0688,-14.5489 1008.9408,-10.7027 998.825,-7.5531 999.0688,-14.5489"/>
</g>
<!-- Node9&#45;&gt;Node6 -->
<g id="edge15" class="edge">
<title>Node9&#45;&gt;Node6</title>
<path fill="none" stroke="#191970" d="M525.6264,-112.2455C511.0692,-103.5731 489.569,-90.7645 472.8848,-80.825"/>
<polygon fill="#191970" stroke="#191970" points="474.5683,-77.7539 464.1859,-75.6427 470.9856,-83.7676 474.5683,-77.7539"/>
</g>
<!-- Node9&#45;&gt;Node7 -->
<g id="edge14" class="edge">
<title>Node9&#45;&gt;Node7</title>
<path fill="none" stroke="#191970" d="M564.6916,-112.3733C586.0711,-103.3032 618.3057,-89.6279 642.2362,-79.4755"/>
<polygon fill="#191970" stroke="#191970" points="643.7656,-82.6287 651.6045,-75.5011 641.0317,-76.1846 643.7656,-82.6287"/>
</g>
<!-- Node9&#45;&gt;Node8 -->
<g id="edge12" class="edge">
<title>Node9&#45;&gt;Node8</title>
<path fill="none" stroke="#191970" d="M607.6948,-114.4767C709.4628,-102.8223 902.4096,-80.7261 988.1184,-70.9108"/>
<polygon fill="#191970" stroke="#191970" points="988.732,-74.3635 998.2688,-69.7484 987.9355,-67.4089 988.732,-74.3635"/>
</g>
<!-- Node10 -->
<g id="node11" class="node">
<title>Node10</title>
<polygon fill="#ffffff" stroke="#bfbfbf" points="569,-56.5 569,-75.5 629,-75.5 629,-56.5 569,-56.5"/>
<text text-anchor="middle" x="599" y="-63.5" font-family="Helvetica,sans-Serif" font-size="10.00" fill="#000000">iostream</text>
</g>
<!-- Node9&#45;&gt;Node10 -->
<g id="edge13" class="edge">
<title>Node9&#45;&gt;Node10</title>
<path fill="none" stroke="#191970" d="M551.9286,-112.2455C560.1838,-104.1352 572.1209,-92.4075 581.9082,-82.7919"/>
<polygon fill="#191970" stroke="#191970" points="584.5046,-85.1476 589.1851,-75.6427 579.5989,-80.1542 584.5046,-85.1476"/>
</g>
<!-- Node11&#45;&gt;Node6 -->
<g id="edge22" class="edge">
<title>Node11&#45;&gt;Node6</title>
<path fill="none" stroke="#191970" d="M588.8766,-173.9222C544.2961,-164.5895 484.1505,-149.3061 467,-132 454.9611,-119.8518 450.4482,-100.597 448.8071,-86.013"/>
<polygon fill="#191970" stroke="#191970" points="452.2911,-85.6684 448.0349,-75.9661 445.3116,-86.205 452.2911,-85.6684"/>
</g>
<!-- Node11&#45;&gt;Node7 -->
<g id="edge21" class="edge">
<title>Node11&#45;&gt;Node7</title>
<path fill="none" stroke="#191970" d="M642.7824,-173.8845C648.361,-154.6053 661.0087,-110.8963 668.3794,-85.4241"/>
<polygon fill="#191970" stroke="#191970" points="671.7616,-86.3272 671.1792,-75.7484 665.0375,-84.3814 671.7616,-86.3272"/>
</g>
<!-- Node11&#45;&gt;Node9 -->
<g id="edge23" class="edge">
<title>Node11&#45;&gt;Node9</title>
<path fill="none" stroke="#191970" d="M624.6875,-173.8906C608.9376,-164.0067 584.1877,-148.4749 565.8663,-136.9773"/>
<polygon fill="#191970" stroke="#191970" points="567.5357,-133.8929 557.205,-131.5419 563.8148,-139.8221 567.5357,-133.8929"/>
</g>
<!-- Node11&#45;&gt;Node10 -->
<g id="edge17" class="edge">
<title>Node11&#45;&gt;Node10</title>
<path fill="none" stroke="#191970" d="M636.8317,-173.7537C632.325,-159.9621 623.7489,-133.9812 616,-112 612.8951,-103.1924 609.33,-93.4875 606.269,-85.2711"/>
<polygon fill="#191970" stroke="#191970" points="609.521,-83.9749 602.734,-75.8394 602.9663,-86.4317 609.521,-83.9749"/>
</g>
<!-- Node12 -->
<g id="node13" class="node">
<title>Node12</title>
<polygon fill="#ffffff" stroke="#bfbfbf" points="378,-112.5 378,-131.5 420,-131.5 420,-112.5 378,-112.5"/>
<text text-anchor="middle" x="399" y="-119.5" font-family="Helvetica,sans-Serif" font-size="10.00" fill="#000000">array</text>
</g>
<!-- Node11&#45;&gt;Node12 -->
<g id="edge18" class="edge">
<title>Node11&#45;&gt;Node12</title>
<path fill="none" stroke="#191970" d="M600.0221,-173.9235C558.4432,-163.8656 491.5101,-147.3999 434,-132 432.7295,-131.6598 431.4343,-131.3088 430.1267,-130.951"/>
<polygon fill="#191970" stroke="#191970" points="430.6405,-127.4607 420.0677,-128.1422 428.7579,-134.2028 430.6405,-127.4607"/>
</g>
<!-- Node13 -->
<g id="node14" class="node">
<title>Node13</title>
<polygon fill="#ffffff" stroke="#bfbfbf" points="702,-112.5 702,-131.5 756,-131.5 756,-112.5 702,-112.5"/>
<text text-anchor="middle" x="729" y="-119.5" font-family="Helvetica,sans-Serif" font-size="10.00" fill="#000000">random</text>
</g>
<!-- Node11&#45;&gt;Node13 -->
<g id="edge19" class="edge">
<title>Node11&#45;&gt;Node13</title>
<path fill="none" stroke="#191970" d="M653.9063,-173.8906C668.0138,-164.1421 690.0724,-148.8994 706.6385,-137.4521"/>
<polygon fill="#191970" stroke="#191970" points="708.9542,-140.1063 715.1914,-131.5419 704.9747,-134.3474 708.9542,-140.1063"/>
</g>
<!-- Node14 -->
<g id="node15" class="node">
<title>Node14</title>
<polygon fill="#ffffff" stroke="#bfbfbf" points="812.5,-112.5 812.5,-131.5 859.5,-131.5 859.5,-112.5 812.5,-112.5"/>
<text text-anchor="middle" x="836" y="-119.5" font-family="Helvetica,sans-Serif" font-size="10.00" fill="#000000">vector</text>
</g>
<!-- Node11&#45;&gt;Node14 -->
<g id="edge20" class="edge">
<title>Node11&#45;&gt;Node14</title>
<path fill="none" stroke="#191970" d="M670.625,-173.8906C706.4475,-162.6504 765.5489,-144.1058 802.5465,-132.4969"/>
<polygon fill="#191970" stroke="#191970" points="803.8644,-135.7517 812.3578,-129.4183 801.7686,-129.0728 803.8644,-135.7517"/>
</g>
<!-- Node15&#45;&gt;Node7 -->
<g id="edge27" class="edge">
<title>Node15&#45;&gt;Node7</title>
<path fill="none" stroke="#191970" d="M780.8894,-235.2474C784.884,-211.6951 791.7613,-150.798 765,-112 752.1882,-93.4257 729.5745,-81.944 710.096,-75.0968"/>
<polygon fill="#191970" stroke="#191970" points="711.146,-71.7579 700.5542,-72.0113 708.9922,-78.4184 711.146,-71.7579"/>
</g>
<!-- Node15&#45;&gt;Node11 -->
<g id="edge25" class="edge">
<title>Node15&#45;&gt;Node11</title>
<path fill="none" stroke="#191970" d="M757.2813,-235.3906C734.126,-225.1457 697.2559,-208.8326 671.0409,-197.2339"/>
<polygon fill="#191970" stroke="#191970" points="672.1273,-193.8874 661.5662,-193.0419 669.295,-200.2888 672.1273,-193.8874"/>
</g>
<!-- Node15&#45;&gt;Node13 -->
<g id="edge26" class="edge">
<title>Node15&#45;&gt;Node13</title>
<path fill="none" stroke="#191970" d="M775.0766,-235.3484C766.8252,-215.0499 747.5462,-167.6235 736.7228,-140.9981"/>
<polygon fill="#191970" stroke="#191970" points="739.9134,-139.5526 732.9052,-131.6068 733.4287,-142.1887 739.9134,-139.5526"/>
</g>
<!-- Node16&#45;&gt;Node2 -->
<g id="edge30" class="edge">
<title>Node16&#45;&gt;Node2</title>
<path fill="none" stroke="#191970" d="M87.5815,-112.0225C87.5639,-97.1506 89.9918,-69.4781 107,-56 142.6473,-27.7513 838.8052,-13.4759 998.5329,-10.5649"/>
<polygon fill="#191970" stroke="#191970" points="998.7436,-14.0617 1008.6789,-10.3822 998.6175,-7.0629 998.7436,-14.0617"/>
</g>
<!-- Node16&#45;&gt;Node6 -->
<g id="edge32" class="edge">
<title>Node16&#45;&gt;Node6</title>
<path fill="none" stroke="#191970" d="M149.4772,-112.4369C224.0837,-100.8314 347.5924,-81.619 409.7563,-71.949"/>
<polygon fill="#191970" stroke="#191970" points="410.5646,-75.3655 419.9078,-70.3699 409.4886,-68.4486 410.5646,-75.3655"/>
</g>
<!-- Node16&#45;&gt;Node7 -->
<g id="edge31" class="edge">
<title>Node16&#45;&gt;Node7</title>
<path fill="none" stroke="#191970" d="M176.1517,-116.6475C304.0054,-108.5518 535.7739,-92.5422 637.3923,-75.7254"/>
<polygon fill="#191970" stroke="#191970" points="638.1377,-79.1485 647.3921,-73.9902 636.9409,-72.2515 638.1377,-79.1485"/>
</g>
<!-- Node17 -->
<g id="node18" class="node">
<title>Node17</title>
<polygon fill="#ffffff" stroke="#bfbfbf" points="116,-56.5 116,-75.5 148,-75.5 148,-56.5 116,-56.5"/>
<text text-anchor="middle" x="132" y="-63.5" font-family="Helvetica,sans-Serif" font-size="10.00" fill="#000000">list</text>
</g>
<!-- Node16&#45;&gt;Node17 -->
<g id="edge29" class="edge">
<title>Node16&#45;&gt;Node17</title>
<path fill="none" stroke="#191970" d="M95.6642,-112.2455C101.8473,-104.3761 110.7063,-93.101 118.1289,-83.6542"/>
<polygon fill="#191970" stroke="#191970" points="120.9975,-85.6683 124.4236,-75.6427 115.4932,-81.3435 120.9975,-85.6683"/>
</g>
<!-- Node18&#45;&gt;Node2 -->
<g id="edge35" class="edge">
<title>Node18&#45;&gt;Node2</title>
<path fill="none" stroke="#191970" d="M890.1884,-173.9684C890.8802,-159.5257 893.8351,-131.697 906,-112 930.3038,-72.6482 975.2627,-41.6238 1004.1182,-24.557"/>
<polygon fill="#191970" stroke="#191970" points="1005.956,-27.5376 1012.8744,-19.5134 1002.4621,-21.4719 1005.956,-27.5376"/>
</g>
<!-- Node18&#45;&gt;Node14 -->
<g id="edge34" class="edge">
<title>Node18&#45;&gt;Node14</title>
<path fill="none" stroke="#191970" d="M881.5625,-173.8906C873.4469,-164.6478 860.9945,-150.466 851.1576,-139.2628"/>
<polygon fill="#191970" stroke="#191970" points="853.7846,-136.95 844.5565,-131.7449 848.5245,-141.5686 853.7846,-136.95"/>
</g>
<!-- Node19&#45;&gt;Node2 -->
<g id="edge37" class="edge">
<title>Node19&#45;&gt;Node2</title>
<path fill="none" stroke="#191970" d="M299.4016,-168.3729C267.2152,-156.0095 234.5971,-136.58 252,-112 295.2927,-50.8528 337.6679,-71.3503 411,-56 525.1259,-32.1105 888.2282,-15.78 998.7619,-11.2654"/>
<polygon fill="#191970" stroke="#191970" points="999.0949,-14.7549 1008.9454,-10.8539 998.8122,-7.7606 999.0949,-14.7549"/>
</g>
<!-- Node19&#45;&gt;Node6 -->
<g id="edge41" class="edge">
<title>Node19&#45;&gt;Node6</title>
<path fill="none" stroke="#191970" d="M306.1828,-168.3876C275.4779,-155.3768 242.9041,-135.0868 261,-112 279.1481,-88.8467 360.7141,-75.7881 409.931,-69.8868"/>
<polygon fill="#191970" stroke="#191970" points="410.3753,-73.3589 419.9079,-68.7351 409.5725,-66.4051 410.3753,-73.3589"/>
</g>
<!-- Node19&#45;&gt;Node9 -->
<g id="edge42" class="edge">
<title>Node19&#45;&gt;Node9</title>
<path fill="none" stroke="#191970" d="M396.9685,-168.4554C429.2852,-158.104 471.7351,-144.5067 502.3499,-134.7004"/>
<polygon fill="#191970" stroke="#191970" points="503.7911,-137.914 512.2468,-131.5303 501.6557,-131.2477 503.7911,-137.914"/>
</g>
<!-- Node19&#45;&gt;Node10 -->
<g id="edge39" class="edge">
<title>Node19&#45;&gt;Node10</title>
<path fill="none" stroke="#191970" d="M349.6407,-168.32C350.1265,-152.0191 353.5549,-126.5112 369,-112 395.9468,-86.6827 500.3983,-74.1367 558.8372,-68.9826"/>
<polygon fill="#191970" stroke="#191970" points="559.1712,-72.4669 568.8391,-68.133 558.5787,-65.492 559.1712,-72.4669"/>
</g>
<!-- Node19&#45;&gt;Node12 -->
<g id="edge40" class="edge">
<title>Node19&#45;&gt;Node12</title>
<path fill="none" stroke="#191970" d="M362.1124,-168.2977C368.9849,-159.672 377.6223,-148.8312 384.811,-139.8087"/>
<polygon fill="#191970" stroke="#191970" points="387.6604,-141.849 391.1545,-131.8469 382.1856,-137.487 387.6604,-141.849"/>
</g>
<!-- Node20 -->
<g id="node21" class="node">
<title>Node20</title>
<polygon fill="#ffffff" stroke="#bfbfbf" points="270.5,-112.5 270.5,-131.5 321.5,-131.5 321.5,-112.5 270.5,-112.5"/>
<text text-anchor="middle" x="296" y="-119.5" font-family="Helvetica,sans-Serif" font-size="10.00" fill="#000000">math.h</text>
</g>
<!-- Node19&#45;&gt;Node20 -->
<g id="edge38" class="edge">
<title>Node19&#45;&gt;Node20</title>
<path fill="none" stroke="#191970" d="M336.6517,-168.2977C328.9998,-159.5831 319.3627,-148.6075 311.3924,-139.5302"/>
<polygon fill="#191970" stroke="#191970" points="313.8742,-137.052 304.6461,-131.8469 308.6141,-141.6707 313.8742,-137.052"/>
</g>
<!-- Node21&#45;&gt;Node2 -->
<g id="edge45" class="edge">
<title>Node21&#45;&gt;Node2</title>
<path fill="none" stroke="#191970" d="M1092.9755,-235.4347C1095.4935,-206.7762 1100.1793,-119.6632 1072,-56 1067.1287,-44.9948 1058.621,-34.7786 1050.6136,-26.7834"/>
<polygon fill="#191970" stroke="#191970" points="1052.6169,-23.8641 1042.9262,-19.5814 1047.831,-28.9726 1052.6169,-23.8641"/>
</g>
<!-- Node21&#45;&gt;Node5 -->
<g id="edge65" class="edge">
<title>Node21&#45;&gt;Node5</title>
<path fill="none" stroke="#191970" d="M1084.4786,-235.4227C1072.9265,-220.7672 1050.0471,-191.9548 1030,-168 1021.9705,-158.4053 1012.8268,-147.8625 1005.3103,-139.2934"/>
<polygon fill="#191970" stroke="#191970" points="1007.9275,-136.9694 998.6919,-131.7777 1002.6741,-141.5957 1007.9275,-136.9694"/>
</g>
<!-- Node21&#45;&gt;Node14 -->
<g id="edge46" class="edge">
<title>Node21&#45;&gt;Node14</title>
<path fill="none" stroke="#191970" d="M1076.8962,-235.4571C1052.2072,-220.0868 1001.4014,-189.4084 956,-168 927.4437,-154.5347 893.7925,-141.9008 869.4037,-133.2933"/>
<polygon fill="#191970" stroke="#191970" points="870.4829,-129.9629 859.888,-129.9732 868.1768,-136.5722 870.4829,-129.9629"/>
</g>
<!-- Node21&#45;&gt;Node18 -->
<g id="edge66" class="edge">
<title>Node21&#45;&gt;Node18</title>
<path fill="none" stroke="#191970" d="M1060.4375,-235.3906C1025.6015,-224.7846 969.405,-207.6753 931.1412,-196.0257"/>
<polygon fill="#191970" stroke="#191970" points="931.9267,-192.6063 921.3409,-193.0419 929.8879,-199.3028 931.9267,-192.6063"/>
</g>
<!-- Node22 -->
<g id="node23" class="node">
<title>Node22</title>
<polygon fill="#ffffff" stroke="#bfbfbf" points="1120,-174 1120,-193 1170,-193 1170,-174 1120,-174"/>
<text text-anchor="middle" x="1145" y="-181" font-family="Helvetica,sans-Serif" font-size="10.00" fill="#000000">stdio.h</text>
</g>
<!-- Node21&#45;&gt;Node22 -->
<g id="edge44" class="edge">
<title>Node21&#45;&gt;Node22</title>
<path fill="none" stroke="#191970" d="M1100.2813,-235.3906C1108.1693,-226.2376 1120.2314,-212.2409 1129.8412,-201.09"/>
<polygon fill="#191970" stroke="#191970" points="1132.7251,-203.1049 1136.602,-193.2449 1127.4225,-198.5352 1132.7251,-203.1049"/>
</g>
<!-- Node23 -->
<g id="node24" class="node">
<title>Node23</title>
<g id="a_node24"><a xlink:href="Component_8hpp.html" target="_top" xlink:title="archlib/target_system\l/Component.hpp">
<polygon fill="#ffffff" stroke="#000000" points="1386.5,-168.5 1386.5,-198.5 1509.5,-198.5 1509.5,-168.5 1386.5,-168.5"/>
<text text-anchor="start" x="1394.5" y="-186.5" font-family="Helvetica,sans-Serif" font-size="10.00" fill="#000000">archlib/target_system</text>
<text text-anchor="middle" x="1448" y="-175.5" font-family="Helvetica,sans-Serif" font-size="10.00" fill="#000000">/Component.hpp</text>
</a>
</g>
</g>
<!-- Node21&#45;&gt;Node23 -->
<g id="edge47" class="edge">
<title>Node21&#45;&gt;Node23</title>
<path fill="none" stroke="#191970" d="M1147.2344,-235.4581C1208.8152,-224.8198 1308.6179,-207.5787 1376.2092,-195.9021"/>
<polygon fill="#191970" stroke="#191970" points="1377.0961,-199.3008 1386.3543,-194.1495 1375.9044,-192.4029 1377.0961,-199.3008"/>
</g>
<!-- Node28 -->
<g id="node29" class="node">
<title>Node28</title>
<polygon fill="#ffffff" stroke="#bfbfbf" points="1955.5,-112.5 1955.5,-131.5 2120.5,-131.5 2120.5,-112.5 1955.5,-112.5"/>
<text text-anchor="middle" x="2038" y="-119.5" font-family="Helvetica,sans-Serif" font-size="10.00" fill="#000000">archlib/AdaptationCommand.h</text>
</g>
<!-- Node21&#45;&gt;Node28 -->
<g id="edge63" class="edge">
<title>Node21&#45;&gt;Node28</title>
<path fill="none" stroke="#191970" d="M1156.1157,-238.8994C1239.731,-230.7585 1390.4988,-215.4473 1519,-199 1680.6036,-178.3158 1869.7333,-148.9482 1969.0429,-133.1273"/>
<polygon fill="#191970" stroke="#191970" points="1969.6287,-136.5782 1978.9522,-131.5461 1968.5256,-129.6657 1969.6287,-136.5782"/>
</g>
<!-- Node32 -->
<g id="node33" class="node">
<title>Node32</title>
<polygon fill="#ffffff" stroke="#bfbfbf" points="1188.5,-174 1188.5,-193 1305.5,-193 1305.5,-174 1188.5,-174"/>
<text text-anchor="middle" x="1247" y="-181" font-family="Helvetica,sans-Serif" font-size="10.00" fill="#000000">archlib/Uncertainty.h</text>
</g>
<!-- Node21&#45;&gt;Node32 -->
<g id="edge64" class="edge">
<title>Node21&#45;&gt;Node32</title>
<path fill="none" stroke="#191970" d="M1116.2188,-235.3906C1142.3806,-225.0103 1184.2429,-208.4004 1213.5388,-196.7766"/>
<polygon fill="#191970" stroke="#191970" points="1214.9471,-199.9833 1222.9513,-193.0419 1212.3654,-193.4767 1214.9471,-199.9833"/>
</g>
<!-- Node23&#45;&gt;Node2 -->
<g id="edge48" class="edge">
<title>Node23&#45;&gt;Node2</title>
<path fill="none" stroke="#191970" d="M1386.2906,-175.7371C1304.4663,-165.0085 1168.1151,-145.4523 1149,-132 1117.2621,-109.6644 1132.9541,-83.9222 1106,-56 1093.4684,-43.0183 1076.5331,-32.2228 1061.9262,-24.3599"/>
<polygon fill="#191970" stroke="#191970" points="1063.2257,-21.0922 1052.7333,-19.6228 1060.0193,-27.3147 1063.2257,-21.0922"/>
</g>
<!-- Node23&#45;&gt;Node4 -->
<g id="edge50" class="edge">
<title>Node23&#45;&gt;Node4</title>
<path fill="none" stroke="#191970" d="M1509.6357,-168.9089C1511.4408,-168.5882 1513.2318,-168.2842 1515,-168 1558.294,-161.0423 1878.4418,-164.3896 1908,-132 1933.3481,-104.2238 1923.5378,-56.2969 1915.1432,-29.528"/>
<polygon fill="#191970" stroke="#191970" points="1918.3656,-28.1307 1911.8497,-19.7764 1911.7336,-30.3706 1918.3656,-28.1307"/>
</g>
<!-- Node24 -->
<g id="node25" class="node">
<title>Node24</title>
<polygon fill="#ffffff" stroke="#bfbfbf" points="1158.5,-112.5 1158.5,-131.5 1213.5,-131.5 1213.5,-112.5 1158.5,-112.5"/>
<text text-anchor="middle" x="1186" y="-119.5" font-family="Helvetica,sans-Serif" font-size="10.00" fill="#000000">signal.h</text>
</g>
<!-- Node23&#45;&gt;Node24 -->
<g id="edge49" class="edge">
<title>Node23&#45;&gt;Node24</title>
<path fill="none" stroke="#191970" d="M1386.2495,-170.0458C1343.2551,-160.5214 1284.3633,-147.1655 1223.6138,-132.0863"/>
<polygon fill="#191970" stroke="#191970" points="1224.3998,-128.6752 1213.85,-129.6517 1222.7061,-135.4672 1224.3998,-128.6752"/>
</g>
<!-- Node25 -->
<g id="node26" class="node">
<title>Node25</title>
<polygon fill="#ffffff" stroke="#bfbfbf" points="1231.5,-112.5 1231.5,-131.5 1320.5,-131.5 1320.5,-112.5 1231.5,-112.5"/>
<text text-anchor="middle" x="1276" y="-119.5" font-family="Helvetica,sans-Serif" font-size="10.00" fill="#000000">archlib/Event.h</text>
</g>
<!-- Node23&#45;&gt;Node25 -->
<g id="edge51" class="edge">
<title>Node23&#45;&gt;Node25</title>
<path fill="none" stroke="#191970" d="M1405.9241,-168.4554C1377.2254,-158.194 1339.6063,-144.7429 1312.2377,-134.9571"/>
<polygon fill="#191970" stroke="#191970" points="1313.2485,-131.6015 1302.6539,-131.5303 1310.8917,-138.1929 1313.2485,-131.6015"/>
</g>
<!-- Node26 -->
<g id="node27" class="node">
<title>Node26</title>
<polygon fill="#ffffff" stroke="#bfbfbf" points="1339,-112.5 1339,-131.5 1431,-131.5 1431,-112.5 1339,-112.5"/>
<text text-anchor="middle" x="1385" y="-119.5" font-family="Helvetica,sans-Serif" font-size="10.00" fill="#000000">archlib/Status.h</text>
</g>
<!-- Node23&#45;&gt;Node26 -->
<g id="edge52" class="edge">
<title>Node23&#45;&gt;Node26</title>
<path fill="none" stroke="#191970" d="M1432.427,-168.2977C1423.3175,-159.4052 1411.7966,-148.1586 1402.3909,-138.9769"/>
<polygon fill="#191970" stroke="#191970" points="1404.6878,-136.3278 1395.0871,-131.8469 1399.798,-141.3368 1404.6878,-136.3278"/>
</g>
<!-- Node27 -->
<g id="node28" class="node">
<title>Node27</title>
<polygon fill="#ffffff" stroke="#bfbfbf" points="1449,-112.5 1449,-131.5 1575,-131.5 1575,-112.5 1449,-112.5"/>
<text text-anchor="middle" x="1512" y="-119.5" font-family="Helvetica,sans-Serif" font-size="10.00" fill="#000000">archlib/EnergyStatus.h</text>
</g>
<!-- Node23&#45;&gt;Node27 -->
<g id="edge53" class="edge">
<title>Node23&#45;&gt;Node27</title>
<path fill="none" stroke="#191970" d="M1463.8202,-168.2977C1473.0742,-159.4052 1484.7781,-148.1586 1494.333,-138.9769"/>
<polygon fill="#191970" stroke="#191970" points="1496.9674,-141.2995 1501.7528,-131.8469 1492.1172,-136.2521 1496.9674,-141.2995"/>
</g>
<!-- Node23&#45;&gt;Node28 -->
<g id="edge54" class="edge">
<title>Node23&#45;&gt;Node28</title>
<path fill="none" stroke="#191970" d="M1509.7477,-177.0636C1613.5072,-166.248 1823.398,-144.3695 1945.0505,-131.6888"/>
<polygon fill="#191970" stroke="#191970" points="1945.5136,-135.1596 1955.0968,-130.6416 1944.7878,-128.1973 1945.5136,-135.1596"/>
</g>
<!-- Node29 -->
<g id="node30" class="node">
<title>Node29</title>
<polygon fill="#ffffff" stroke="#bfbfbf" points="1593,-112.5 1593,-131.5 1731,-131.5 1731,-112.5 1593,-112.5"/>
<text text-anchor="middle" x="1662" y="-119.5" font-family="Helvetica,sans-Serif" font-size="10.00" fill="#000000">archlib/EffectorRegister.h</text>
</g>
<!-- Node23&#45;&gt;Node29 -->
<g id="edge55" class="edge">
<title>Node23&#45;&gt;Node29</title>
<path fill="none" stroke="#191970" d="M1500.3503,-168.4554C1536.8398,-157.9689 1584.9201,-144.1515 1619.1351,-134.3187"/>
<polygon fill="#191970" stroke="#191970" points="1620.1933,-137.6563 1628.8376,-131.5303 1618.2599,-130.9286 1620.1933,-137.6563"/>
</g>
<!-- Node30 -->
<g id="node31" class="node">
<title>Node30</title>
<g id="a_node31"><a xlink:href="ROSComponent_8hpp.html" target="_top" xlink:title="archlib/ROSComponent.hpp">
<polygon fill="#ffffff" stroke="#000000" points="1749,-112.5 1749,-131.5 1899,-131.5 1899,-112.5 1749,-112.5"/>
<text text-anchor="middle" x="1824" y="-119.5" font-family="Helvetica,sans-Serif" font-size="10.00" fill="#000000">archlib/ROSComponent.hpp</text>
</a>
</g>
</g>
<!-- Node23&#45;&gt;Node30 -->
<g id="edge56" class="edge">
<title>Node23&#45;&gt;Node30</title>
<path fill="none" stroke="#191970" d="M1509.6677,-173.4134C1577.2822,-162.3541 1685.4739,-144.6579 1755.6352,-133.182"/>
<polygon fill="#191970" stroke="#191970" points="1756.3977,-136.6039 1765.7016,-131.5355 1755.2677,-129.6957 1756.3977,-136.6039"/>
</g>
<!-- Node30&#45;&gt;Node2 -->
<g id="edge57" class="edge">
<title>Node30&#45;&gt;Node2</title>
<path fill="none" stroke="#191970" d="M1756.7313,-112.4993C1593.7177,-89.4759 1182.258,-31.3631 1063.5345,-14.595"/>
<polygon fill="#191970" stroke="#191970" points="1063.679,-11.0808 1053.2878,-13.1478 1062.7,-18.012 1063.679,-11.0808"/>
</g>
<!-- Node30&#45;&gt;Node4 -->
<g id="edge59" class="edge">
<title>Node30&#45;&gt;Node4</title>
<path fill="none" stroke="#191970" d="M1831.1618,-112.4509C1845.234,-93.688 1876.6839,-51.7548 1894.6815,-27.758"/>
<polygon fill="#191970" stroke="#191970" points="1897.6563,-29.6249 1900.8563,-19.5249 1892.0563,-25.4249 1897.6563,-29.6249"/>
</g>
<!-- Node30&#45;&gt;Node8 -->
<g id="edge58" class="edge">
<title>Node30&#45;&gt;Node8</title>
<path fill="none" stroke="#191970" d="M1748.9153,-112.8589C1745.9055,-112.5566 1742.9249,-112.2688 1740,-112 1487.7348,-88.8176 1183.9156,-73.2256 1073.618,-67.9655"/>
<polygon fill="#191970" stroke="#191970" points="1073.7108,-64.466 1063.5564,-67.4888 1073.3795,-71.4582 1073.7108,-64.466"/>
</g>
<!-- Node31 -->
<g id="node32" class="node">
<title>Node31</title>
<g id="a_node32"><a xlink:href="ROSComponentDescriptor_8hpp.html" target="_top" xlink:title="archlib/ROSComponentDescriptor.hpp">
<polygon fill="#ffffff" stroke="#000000" points="1623,-56.5 1623,-75.5 1823,-75.5 1823,-56.5 1623,-56.5"/>
<text text-anchor="middle" x="1723" y="-63.5" font-family="Helvetica,sans-Serif" font-size="10.00" fill="#000000">archlib/ROSComponentDescriptor.hpp</text>
</a>
</g>
</g>
<!-- Node30&#45;&gt;Node31 -->
<g id="edge60" class="edge">
<title>Node30&#45;&gt;Node31</title>
<path fill="none" stroke="#191970" d="M1806.4071,-112.2455C1790.621,-103.4928 1767.2361,-90.527 1749.2413,-80.5496"/>
<polygon fill="#191970" stroke="#191970" points="1750.8341,-77.4308 1740.3913,-75.6427 1747.4397,-83.5528 1750.8341,-77.4308"/>
</g>
<!-- Node31&#45;&gt;Node2 -->
<g id="edge61" class="edge">
<title>Node31&#45;&gt;Node2</title>
<path fill="none" stroke="#191970" d="M1622.747,-57.887C1463.8906,-45.0316 1162.1939,-20.6168 1063.2873,-12.6128"/>
<polygon fill="#191970" stroke="#191970" points="1063.287,-9.1015 1053.0373,-11.7834 1062.7223,-16.0787 1063.287,-9.1015"/>
</g>
<!-- Node31&#45;&gt;Node4 -->
<g id="edge62" class="edge">
<title>Node31&#45;&gt;Node4</title>
<path fill="none" stroke="#191970" d="M1754.8026,-56.3733C1786.3958,-46.8099 1834.9024,-32.1268 1868.8469,-21.8517"/>
<polygon fill="#191970" stroke="#191970" points="1869.8861,-25.1941 1878.4432,-18.9469 1867.8581,-18.4943 1869.8861,-25.1941"/>
</g>
</g>
</svg>
