<?xml version="1.0" encoding="UTF-8" standalone="no"?>
<!DOCTYPE svg PUBLIC "-//W3C//DTD SVG 1.1//EN"
 "http://www.w3.org/Graphics/SVG/1.1/DTD/svg11.dtd">
<!-- Generated by graphviz version 2.40.1 (20161225.0304)
 -->
<!-- Title: src/sa&#45;bsn/target_system/components/component/src/g4t1/G4T1.cpp Pages: 1 -->
<svg width="1771pt" height="397pt"
 viewBox="0.00 0.00 1771.00 397.00" xmlns="http://www.w3.org/2000/svg" xmlns:xlink="http://www.w3.org/1999/xlink">
<g id="graph0" class="graph" transform="scale(1 1) rotate(0) translate(4 393)">
<title>src/sa&#45;bsn/target_system/components/component/src/g4t1/G4T1.cpp</title>
<polygon fill="#ffffff" stroke="transparent" points="-4,4 -4,-393 1767,-393 1767,4 -4,4"/>
<!-- Node0 -->
<g id="node1" class="node">
<title>Node0</title>
<polygon fill="#bfbfbf" stroke="#000000" points="616.5,-347.5 616.5,-388.5 771.5,-388.5 771.5,-347.5 616.5,-347.5"/>
<text text-anchor="start" x="624.5" y="-376.5" font-family="Helvetica,sans-Serif" font-size="10.00" fill="#000000">src/sa&#45;bsn/target_system</text>
<text text-anchor="start" x="624.5" y="-365.5" font-family="Helvetica,sans-Serif" font-size="10.00" fill="#000000">/components/component/src</text>
<text text-anchor="middle" x="694" y="-354.5" font-family="Helvetica,sans-Serif" font-size="10.00" fill="#000000">/g4t1/G4T1.cpp</text>
</g>
<!-- Node1 -->
<g id="node2" class="node">
<title>Node1</title>
<g id="a_node2"><a xlink:href="G4T1_8hpp.html" target="_top" xlink:title="component/g4t1/G4T1.hpp">
<polygon fill="#ffffff" stroke="#000000" points="621,-291.5 621,-310.5 767,-310.5 767,-291.5 621,-291.5"/>
<text text-anchor="middle" x="694" y="-298.5" font-family="Helvetica,sans-Serif" font-size="10.00" fill="#000000">component/g4t1/G4T1.hpp</text>
</a>
</g>
</g>
<!-- Node0&#45;&gt;Node1 -->
<g id="edge1" class="edge">
<title>Node0&#45;&gt;Node1</title>
<path fill="none" stroke="#191970" d="M694,-347.168C694,-338.8226 694,-329.2471 694,-320.9879"/>
<polygon fill="#191970" stroke="#191970" points="697.5001,-320.7804 694,-310.7805 690.5001,-320.7805 697.5001,-320.7804"/>
</g>
<!-- Node2 -->
<g id="node3" class="node">
<title>Node2</title>
<polygon fill="#ffffff" stroke="#bfbfbf" points="268.5,-235.5 268.5,-254.5 323.5,-254.5 323.5,-235.5 268.5,-235.5"/>
<text text-anchor="middle" x="296" y="-242.5" font-family="Helvetica,sans-Serif" font-size="10.00" fill="#000000">fstream</text>
</g>
<!-- Node1&#45;&gt;Node2 -->
<g id="edge2" class="edge">
<title>Node1&#45;&gt;Node2</title>
<path fill="none" stroke="#191970" d="M620.9252,-294.6574C549.8816,-287.8175 438.8287,-275.3454 333.6188,-254.8874"/>
<polygon fill="#191970" stroke="#191970" points="334.2721,-251.4489 323.7838,-252.948 332.9177,-258.3166 334.2721,-251.4489"/>
</g>
<!-- Node3 -->
<g id="node4" class="node">
<title>Node3</title>
<polygon fill="#ffffff" stroke="#bfbfbf" points="342,-235.5 342,-254.5 392,-254.5 392,-235.5 342,-235.5"/>
<text text-anchor="middle" x="367" y="-242.5" font-family="Helvetica,sans-Serif" font-size="10.00" fill="#000000">chrono</text>
</g>
<!-- Node1&#45;&gt;Node3 -->
<g id="edge3" class="edge">
<title>Node1&#45;&gt;Node3</title>
<path fill="none" stroke="#191970" d="M620.9552,-292.2221C563.8184,-284.7392 482.2516,-272.7061 402.3909,-255.0871"/>
<polygon fill="#191970" stroke="#191970" points="402.6785,-251.5649 392.1554,-252.7957 401.1492,-258.3958 402.6785,-251.5649"/>
</g>
<!-- Node4 -->
<g id="node5" class="node">
<title>Node4</title>
<polygon fill="#ffffff" stroke="#bfbfbf" points="410,-235.5 410,-254.5 468,-254.5 468,-235.5 410,-235.5"/>
<text text-anchor="middle" x="439" y="-242.5" font-family="Helvetica,sans-Serif" font-size="10.00" fill="#000000">memory</text>
</g>
<!-- Node1&#45;&gt;Node4 -->
<g id="edge4" class="edge">
<title>Node1&#45;&gt;Node4</title>
<path fill="none" stroke="#191970" d="M645.5852,-291.4361C603.6613,-282.9967 541.1724,-270.0419 477.7774,-255.1045"/>
<polygon fill="#191970" stroke="#191970" points="478.5475,-251.6902 468.0098,-252.7888 476.9326,-258.5014 478.5475,-251.6902"/>
</g>
<!-- Node5 -->
<g id="node6" class="node">
<title>Node5</title>
<polygon fill="#ffffff" stroke="#bfbfbf" points="486,-235.5 486,-254.5 524,-254.5 524,-235.5 486,-235.5"/>
<text text-anchor="middle" x="505" y="-242.5" font-family="Helvetica,sans-Serif" font-size="10.00" fill="#000000">map</text>
</g>
<!-- Node1&#45;&gt;Node5 -->
<g id="edge5" class="edge">
<title>Node1&#45;&gt;Node5</title>
<path fill="none" stroke="#191970" d="M658.8851,-291.4715C626.3623,-282.5124 576.7185,-268.4959 534,-255 533.9016,-254.9689 533.803,-254.9377 533.7043,-254.9064"/>
<polygon fill="#191970" stroke="#191970" points="534.8895,-251.6119 524.2966,-251.8108 532.7015,-258.2612 534.8895,-251.6119"/>
</g>
<!-- Node6 -->
<g id="node7" class="node">
<title>Node6</title>
<polygon fill="#ffffff" stroke="#bfbfbf" points="542.5,-235.5 542.5,-254.5 627.5,-254.5 627.5,-235.5 542.5,-235.5"/>
<text text-anchor="middle" x="585" y="-242.5" font-family="Helvetica,sans-Serif" font-size="10.00" fill="#000000">ros/package.h</text>
</g>
<!-- Node1&#45;&gt;Node6 -->
<g id="edge6" class="edge">
<title>Node1&#45;&gt;Node6</title>
<path fill="none" stroke="#191970" d="M675.0136,-291.2455C657.8208,-282.4125 632.2762,-269.2887 612.7868,-259.2758"/>
<polygon fill="#191970" stroke="#191970" points="614.263,-256.0993 603.7688,-254.6427 611.0641,-262.3257 614.263,-256.0993"/>
</g>
<!-- Node7 -->
<g id="node8" class="node">
<title>Node7</title>
<polygon fill="#ffffff" stroke="#bfbfbf" points="1285.5,-.5 1285.5,-19.5 1344.5,-19.5 1344.5,-.5 1285.5,-.5"/>
<text text-anchor="middle" x="1315" y="-7.5" font-family="Helvetica,sans-Serif" font-size="10.00" fill="#000000">ros/ros.h</text>
</g>
<!-- Node1&#45;&gt;Node7 -->
<g id="edge7" class="edge">
<title>Node1&#45;&gt;Node7</title>
<path fill="none" stroke="#191970" d="M767.3041,-298.798C977.4474,-291.5192 1567,-263.9312 1567,-183.5 1567,-183.5 1567,-183.5 1567,-122 1567,-76.1397 1425.8722,-36.1952 1354.8432,-18.9955"/>
<polygon fill="#191970" stroke="#191970" points="1355.4363,-15.5389 1344.8973,-16.6249 1353.8133,-22.3482 1355.4363,-15.5389"/>
</g>
<!-- Node8 -->
<g id="node9" class="node">
<title>Node8</title>
<g id="a_node9"><a xlink:href="Processor_8hpp.html" target="_top" xlink:title="libbsn/processor/Processor.hpp">
<polygon fill="#ffffff" stroke="#000000" points="8.5,-174 8.5,-193 175.5,-193 175.5,-174 8.5,-174"/>
<text text-anchor="middle" x="92" y="-181" font-family="Helvetica,sans-Serif" font-size="10.00" fill="#000000">libbsn/processor/Processor.hpp</text>
</a>
</g>
</g>
<!-- Node1&#45;&gt;Node8 -->
<g id="edge8" class="edge">
<title>Node1&#45;&gt;Node8</title>
<path fill="none" stroke="#191970" d="M688.9071,-291.2618C680.4251,-276.1766 661.8513,-247.5883 637,-235 546.9143,-189.3674 284.2198,-211.4005 184,-199 174.2346,-197.7917 163.9231,-196.284 153.8746,-194.6871"/>
<polygon fill="#191970" stroke="#191970" points="154.3767,-191.2228 143.9438,-193.0682 153.2503,-198.1316 154.3767,-191.2228"/>
</g>
<!-- Node14 -->
<g id="node15" class="node">
<title>Node14</title>
<g id="a_node15"><a xlink:href="utils_8hpp.html" target="_top" xlink:title="libbsn/utils/utils.hpp">
<polygon fill="#ffffff" stroke="#000000" points="193.5,-174 193.5,-193 308.5,-193 308.5,-174 193.5,-174"/>
<text text-anchor="middle" x="251" y="-181" font-family="Helvetica,sans-Serif" font-size="10.00" fill="#000000">libbsn/utils/utils.hpp</text>
</a>
</g>
</g>
<!-- Node1&#45;&gt;Node14 -->
<g id="edge14" class="edge">
<title>Node1&#45;&gt;Node14</title>
<path fill="none" stroke="#191970" d="M693.5308,-291.063C692.2494,-276.244 687.5032,-248.6397 670,-235 607.9779,-186.6681 395.5671,-211.8866 318,-199 311.6621,-197.9471 305.0283,-196.6519 298.5029,-195.2629"/>
<polygon fill="#191970" stroke="#191970" points="298.9166,-191.7697 288.3963,-193.0242 297.4027,-198.6041 298.9166,-191.7697"/>
</g>
<!-- Node15 -->
<g id="node16" class="node">
<title>Node15</title>
<g id="a_node16"><a xlink:href="CentralHub_8hpp.html" target="_top" xlink:title="component/CentralHub.hpp">
<polygon fill="#ffffff" stroke="#000000" points="722,-235.5 722,-254.5 872,-254.5 872,-235.5 722,-235.5"/>
<text text-anchor="middle" x="797" y="-242.5" font-family="Helvetica,sans-Serif" font-size="10.00" fill="#000000">component/CentralHub.hpp</text>
</a>
</g>
</g>
<!-- Node1&#45;&gt;Node15 -->
<g id="edge17" class="edge">
<title>Node1&#45;&gt;Node15</title>
<path fill="none" stroke="#191970" d="M711.9412,-291.2455C728.04,-282.4928 751.8879,-269.527 770.2391,-259.5496"/>
<polygon fill="#191970" stroke="#191970" points="772.1507,-262.4942 779.2644,-254.6427 768.8071,-256.3444 772.1507,-262.4942"/>
</g>
<!-- Node18 -->
<g id="node19" class="node">
<title>Node18</title>
<g id="a_node19"><a xlink:href="Component_8hpp.html" target="_top" xlink:title="archlib/target_system\l/Component.hpp">
<polygon fill="#ffffff" stroke="#000000" points="838.5,-168.5 838.5,-198.5 961.5,-198.5 961.5,-168.5 838.5,-168.5"/>
<text text-anchor="start" x="846.5" y="-186.5" font-family="Helvetica,sans-Serif" font-size="10.00" fill="#000000">archlib/target_system</text>
<text text-anchor="middle" x="900" y="-175.5" font-family="Helvetica,sans-Serif" font-size="10.00" fill="#000000">/Component.hpp</text>
</a>
</g>
</g>
<!-- Node1&#45;&gt;Node18 -->
<g id="edge45" class="edge">
<title>Node1&#45;&gt;Node18</title>
<path fill="none" stroke="#191970" d="M763.1219,-291.4879C809.1596,-283.7892 864.1795,-271.5116 881,-255 893.1698,-243.0537 897.8268,-224.2661 899.4905,-208.9472"/>
<polygon fill="#191970" stroke="#191970" points="903.0115,-208.7782 900.2374,-198.5531 896.0295,-208.2764 903.0115,-208.7782"/>
</g>
<!-- Node23 -->
<g id="node24" class="node">
<title>Node23</title>
<polygon fill="#ffffff" stroke="#bfbfbf" points="1373.5,-112.5 1373.5,-131.5 1538.5,-131.5 1538.5,-112.5 1373.5,-112.5"/>
<text text-anchor="middle" x="1456" y="-119.5" font-family="Helvetica,sans-Serif" font-size="10.00" fill="#000000">archlib/AdaptationCommand.h</text>
</g>
<!-- Node1&#45;&gt;Node23 -->
<g id="edge46" class="edge">
<title>Node1&#45;&gt;Node23</title>
<path fill="none" stroke="#191970" d="M751.8372,-291.4754C802.4488,-282.8646 877.8551,-269.3668 943,-255 1118.4449,-216.308 1324.7133,-159.2607 1412.7064,-134.3713"/>
<polygon fill="#191970" stroke="#191970" points="1413.9263,-137.6635 1422.5929,-131.5693 1412.0175,-130.9288 1413.9263,-137.6635"/>
</g>
<!-- Node28 -->
<g id="node29" class="node">
<title>Node28</title>
<polygon fill="#ffffff" stroke="#bfbfbf" points="1018,-174 1018,-193 1152,-193 1152,-174 1018,-174"/>
<text text-anchor="middle" x="1085" y="-181" font-family="Helvetica,sans-Serif" font-size="10.00" fill="#000000">messages/SensorData.h</text>
</g>
<!-- Node1&#45;&gt;Node28 -->
<g id="edge47" class="edge">
<title>Node1&#45;&gt;Node28</title>
<path fill="none" stroke="#191970" d="M747.3238,-291.4652C789.4723,-283.3756 849.5677,-270.6088 901,-255 956.0064,-238.3065 1017.9209,-212.7943 1054.0778,-197.1856"/>
<polygon fill="#191970" stroke="#191970" points="1055.79,-200.2578 1063.5657,-193.0614 1052.9994,-193.8381 1055.79,-200.2578"/>
</g>
<!-- Node31 -->
<g id="node32" class="node">
<title>Node31</title>
<polygon fill="#ffffff" stroke="#bfbfbf" points="1595,-235.5 1595,-254.5 1763,-254.5 1763,-235.5 1595,-235.5"/>
<text text-anchor="middle" x="1679" y="-242.5" font-family="Helvetica,sans-Serif" font-size="10.00" fill="#000000">messages/TargetSystemData.h</text>
</g>
<!-- Node1&#45;&gt;Node31 -->
<g id="edge48" class="edge">
<title>Node1&#45;&gt;Node31</title>
<path fill="none" stroke="#191970" d="M767.0928,-298.4442C918.8846,-292.8645 1279.2734,-278.2035 1581,-255 1582.2709,-254.9023 1583.5509,-254.8017 1584.8383,-254.6987"/>
<polygon fill="#191970" stroke="#191970" points="1585.1546,-258.1845 1594.8279,-253.8629 1584.5709,-251.2089 1585.1546,-258.1845"/>
</g>
<!-- Node9 -->
<g id="node10" class="node">
<title>Node9</title>
<polygon fill="#ffffff" stroke="#bfbfbf" points="174.5,-112.5 174.5,-131.5 221.5,-131.5 221.5,-112.5 174.5,-112.5"/>
<text text-anchor="middle" x="198" y="-119.5" font-family="Helvetica,sans-Serif" font-size="10.00" fill="#000000">vector</text>
</g>
<!-- Node8&#45;&gt;Node9 -->
<g id="edge9" class="edge">
<title>Node8&#45;&gt;Node9</title>
<path fill="none" stroke="#191970" d="M108.5625,-173.8906C125.7537,-163.9165 152.8582,-148.1908 172.7266,-136.6633"/>
<polygon fill="#191970" stroke="#191970" points="174.6606,-139.5877 181.5538,-131.5419 171.1477,-133.533 174.6606,-139.5877"/>
</g>
<!-- Node10 -->
<g id="node11" class="node">
<title>Node10</title>
<polygon fill="#ffffff" stroke="#bfbfbf" points="78,-112.5 78,-131.5 110,-131.5 110,-112.5 78,-112.5"/>
<text text-anchor="middle" x="94" y="-119.5" font-family="Helvetica,sans-Serif" font-size="10.00" fill="#000000">list</text>
</g>
<!-- Node8&#45;&gt;Node10 -->
<g id="edge10" class="edge">
<title>Node8&#45;&gt;Node10</title>
<path fill="none" stroke="#191970" d="M92.3125,-173.8906C92.5897,-165.3657 93.0036,-152.6392 93.3521,-141.9235"/>
<polygon fill="#191970" stroke="#191970" points="96.8561,-141.8534 93.6831,-131.7449 89.8598,-141.6258 96.8561,-141.8534"/>
</g>
<!-- Node11 -->
<g id="node12" class="node">
<title>Node11</title>
<polygon fill="#ffffff" stroke="#bfbfbf" points="489,-.5 489,-19.5 533,-19.5 533,-.5 489,-.5"/>
<text text-anchor="middle" x="511" y="-7.5" font-family="Helvetica,sans-Serif" font-size="10.00" fill="#000000">string</text>
</g>
<!-- Node8&#45;&gt;Node11 -->
<g id="edge11" class="edge">
<title>Node8&#45;&gt;Node11</title>
<path fill="none" stroke="#191970" d="M99.5761,-173.9288C111.883,-158.9274 137.6133,-129.7607 165,-112 267.3201,-45.6441 414.1823,-21.2187 478.6158,-13.3282"/>
<polygon fill="#191970" stroke="#191970" points="479.4206,-16.758 488.9463,-12.1199 478.6073,-9.8054 479.4206,-16.758"/>
</g>
<!-- Node12 -->
<g id="node13" class="node">
<title>Node12</title>
<polygon fill="#ffffff" stroke="#bfbfbf" points="0,-112.5 0,-131.5 60,-131.5 60,-112.5 0,-112.5"/>
<text text-anchor="middle" x="30" y="-119.5" font-family="Helvetica,sans-Serif" font-size="10.00" fill="#000000">iostream</text>
</g>
<!-- Node8&#45;&gt;Node12 -->
<g id="edge12" class="edge">
<title>Node8&#45;&gt;Node12</title>
<path fill="none" stroke="#191970" d="M82.3125,-173.8906C72.9041,-164.5581 58.4193,-150.1902 47.0751,-138.9374"/>
<polygon fill="#191970" stroke="#191970" points="49.3886,-136.3024 39.8241,-131.7449 44.4589,-141.2722 49.3886,-136.3024"/>
</g>
<!-- Node13 -->
<g id="node14" class="node">
<title>Node13</title>
<polygon fill="#ffffff" stroke="#bfbfbf" points="279.5,-112.5 279.5,-131.5 332.5,-131.5 332.5,-112.5 279.5,-112.5"/>
<text text-anchor="middle" x="306" y="-119.5" font-family="Helvetica,sans-Serif" font-size="10.00" fill="#000000">stdint.h</text>
</g>
<!-- Node8&#45;&gt;Node13 -->
<g id="edge13" class="edge">
<title>Node8&#45;&gt;Node13</title>
<path fill="none" stroke="#191970" d="M125.4375,-173.8906C164.559,-162.6478 229.1093,-144.0971 269.5027,-132.4887"/>
<polygon fill="#191970" stroke="#191970" points="270.5773,-135.8216 279.2215,-129.6957 268.6438,-129.0939 270.5773,-135.8216"/>
</g>
<!-- Node14&#45;&gt;Node9 -->
<g id="edge15" class="edge">
<title>Node14&#45;&gt;Node9</title>
<path fill="none" stroke="#191970" d="M242.7188,-173.8906C234.8307,-164.7376 222.7686,-150.7409 213.1588,-139.59"/>
<polygon fill="#191970" stroke="#191970" points="215.5775,-137.0352 206.398,-131.7449 210.2749,-141.6049 215.5775,-137.0352"/>
</g>
<!-- Node14&#45;&gt;Node11 -->
<g id="edge16" class="edge">
<title>Node14&#45;&gt;Node11</title>
<path fill="none" stroke="#191970" d="M250.988,-173.9501C251.4726,-158.9779 254.5121,-129.8505 270,-112 325.2938,-48.2715 427.1862,-23.3271 478.9736,-14.4333"/>
<polygon fill="#191970" stroke="#191970" points="479.6223,-17.8739 488.932,-12.8162 478.5003,-10.9644 479.6223,-17.8739"/>
</g>
<!-- Node15&#45;&gt;Node11 -->
<g id="edge19" class="edge">
<title>Node15&#45;&gt;Node11</title>
<path fill="none" stroke="#191970" d="M752.4741,-235.4698C697.5984,-221.5816 604.6793,-190.7758 548,-132 520.8445,-103.84 513.5493,-56.4084 511.6349,-29.7403"/>
<polygon fill="#191970" stroke="#191970" points="515.1271,-29.4994 511.1017,-19.6991 508.137,-29.8706 515.1271,-29.4994"/>
</g>
<!-- Node15&#45;&gt;Node14 -->
<g id="edge44" class="edge">
<title>Node15&#45;&gt;Node14</title>
<path fill="none" stroke="#191970" d="M721.7484,-236.4386C717.0972,-235.9423 712.4857,-235.459 708,-235 534.8339,-217.2811 489.8553,-226.6802 318,-199 311.5796,-197.9659 304.8583,-196.6701 298.2546,-195.2709"/>
<polygon fill="#191970" stroke="#191970" points="298.5545,-191.7527 288.0345,-193.0097 297.0423,-198.5874 298.5545,-191.7527"/>
</g>
<!-- Node16 -->
<g id="node17" class="node">
<title>Node16</title>
<polygon fill="#ffffff" stroke="#bfbfbf" points="770,-174 770,-193 820,-193 820,-174 770,-174"/>
<text text-anchor="middle" x="795" y="-181" font-family="Helvetica,sans-Serif" font-size="10.00" fill="#000000">stdio.h</text>
</g>
<!-- Node15&#45;&gt;Node16 -->
<g id="edge18" class="edge">
<title>Node15&#45;&gt;Node16</title>
<path fill="none" stroke="#191970" d="M796.6875,-235.3906C796.4103,-226.8657 795.9964,-214.1392 795.6479,-203.4235"/>
<polygon fill="#191970" stroke="#191970" points="799.1402,-203.1258 795.3169,-193.2449 792.1439,-203.3534 799.1402,-203.1258"/>
</g>
<!-- Node17 -->
<g id="node18" class="node">
<title>Node17</title>
<polygon fill="#ffffff" stroke="#bfbfbf" points="327,-174 327,-193 383,-193 383,-174 327,-174"/>
<text text-anchor="middle" x="355" y="-181" font-family="Helvetica,sans-Serif" font-size="10.00" fill="#000000">numeric</text>
</g>
<!-- Node15&#45;&gt;Node17 -->
<g id="edge20" class="edge">
<title>Node15&#45;&gt;Node17</title>
<path fill="none" stroke="#191970" d="M721.7519,-236.5201C605.1716,-223.3731 393.9821,-199.5165 392,-199 389.5233,-198.3546 386.9951,-197.5751 384.4814,-196.7133"/>
<polygon fill="#191970" stroke="#191970" points="385.5874,-193.3892 374.9967,-193.091 383.0899,-199.9285 385.5874,-193.3892"/>
</g>
<!-- Node15&#45;&gt;Node18 -->
<g id="edge21" class="edge">
<title>Node15&#45;&gt;Node18</title>
<path fill="none" stroke="#191970" d="M813.0938,-235.3906C827.1626,-226.9903 848.0641,-214.5103 865.8433,-203.8945"/>
<polygon fill="#191970" stroke="#191970" points="868.0117,-206.6763 874.8034,-198.5446 864.4231,-200.6661 868.0117,-206.6763"/>
</g>
<!-- Node15&#45;&gt;Node23 -->
<g id="edge37" class="edge">
<title>Node15&#45;&gt;Node23</title>
<path fill="none" stroke="#191970" d="M858.0873,-235.4577C892.5458,-228.4821 935.645,-217.0203 971,-199 990.419,-189.1022 988.869,-176.355 1009,-168 1153.4311,-108.0568 1203.4463,-148.0181 1359,-132 1360.4735,-131.8483 1361.9597,-131.6952 1363.4558,-131.5411"/>
<polygon fill="#191970" stroke="#191970" points="1363.8595,-135.0182 1373.4482,-130.5118 1363.1421,-128.055 1363.8595,-135.0182"/>
</g>
<!-- Node15&#45;&gt;Node28 -->
<g id="edge38" class="edge">
<title>Node15&#45;&gt;Node28</title>
<path fill="none" stroke="#191970" d="M841.684,-235.4581C892.5525,-224.5956 975.6595,-206.8488 1030.3451,-195.1711"/>
<polygon fill="#191970" stroke="#191970" points="1031.1626,-198.5755 1040.2112,-193.0643 1029.7007,-191.7299 1031.1626,-198.5755"/>
</g>
<!-- Node29 -->
<g id="node30" class="node">
<title>Node29</title>
<g id="a_node30"><a xlink:href="Battery_8hpp.html" target="_top" xlink:title="libbsn/resource/Battery.hpp">
<polygon fill="#ffffff" stroke="#000000" points="400.5,-174 400.5,-193 549.5,-193 549.5,-174 400.5,-174"/>
<text text-anchor="middle" x="475" y="-181" font-family="Helvetica,sans-Serif" font-size="10.00" fill="#000000">libbsn/resource/Battery.hpp</text>
</a>
</g>
</g>
<!-- Node15&#45;&gt;Node29 -->
<g id="edge39" class="edge">
<title>Node15&#45;&gt;Node29</title>
<path fill="none" stroke="#191970" d="M747.0408,-235.4581C689.7294,-224.512 595.8166,-206.5752 534.7014,-194.9026"/>
<polygon fill="#191970" stroke="#191970" points="535.2906,-191.4519 524.8115,-193.0137 533.9773,-198.3276 535.2906,-191.4519"/>
</g>
<!-- Node18&#45;&gt;Node7 -->
<g id="edge24" class="edge">
<title>Node18&#45;&gt;Node7</title>
<path fill="none" stroke="#191970" d="M961.639,-168.9291C963.4431,-168.6025 965.2331,-168.2918 967,-168 1046.1067,-154.9378 1272.2084,-191.4555 1326,-132 1351.4434,-103.8776 1336.1017,-55.7353 1324.4499,-29.1108"/>
<polygon fill="#191970" stroke="#191970" points="1327.489,-27.3444 1320.109,-19.7428 1321.1378,-30.2875 1327.489,-27.3444"/>
</g>
<!-- Node18&#45;&gt;Node11 -->
<g id="edge22" class="edge">
<title>Node18&#45;&gt;Node11</title>
<path fill="none" stroke="#191970" d="M838.4847,-169.7636C835.2815,-169.1445 832.1054,-168.5523 829,-168 771.3554,-157.7484 615.1226,-166.7486 568,-132 550.4955,-119.092 528.3256,-60.501 517.5188,-29.451"/>
<polygon fill="#191970" stroke="#191970" points="520.7442,-28.0661 514.1964,-19.7369 514.1209,-30.3315 520.7442,-28.0661"/>
</g>
<!-- Node19 -->
<g id="node20" class="node">
<title>Node19</title>
<polygon fill="#ffffff" stroke="#bfbfbf" points="987.5,-112.5 987.5,-131.5 1042.5,-131.5 1042.5,-112.5 987.5,-112.5"/>
<text text-anchor="middle" x="1015" y="-119.5" font-family="Helvetica,sans-Serif" font-size="10.00" fill="#000000">signal.h</text>
</g>
<!-- Node18&#45;&gt;Node19 -->
<g id="edge23" class="edge">
<title>Node18&#45;&gt;Node19</title>
<path fill="none" stroke="#191970" d="M928.1322,-168.4554C946.4786,-158.644 970.2777,-145.9167 988.3251,-136.2653"/>
<polygon fill="#191970" stroke="#191970" points="990.0114,-139.3326 997.1791,-131.5303 986.7103,-133.1598 990.0114,-139.3326"/>
</g>
<!-- Node20 -->
<g id="node21" class="node">
<title>Node20</title>
<polygon fill="#ffffff" stroke="#bfbfbf" points="1227.5,-112.5 1227.5,-131.5 1316.5,-131.5 1316.5,-112.5 1227.5,-112.5"/>
<text text-anchor="middle" x="1272" y="-119.5" font-family="Helvetica,sans-Serif" font-size="10.00" fill="#000000">archlib/Event.h</text>
</g>
<!-- Node18&#45;&gt;Node20 -->
<g id="edge25" class="edge">
<title>Node18&#45;&gt;Node20</title>
<path fill="none" stroke="#191970" d="M961.7486,-170.6156C966.565,-169.6996 971.3582,-168.8166 976,-168 1080.3774,-149.6385 1109.6384,-150.081 1217.5042,-132.2"/>
<polygon fill="#191970" stroke="#191970" points="1218.2041,-135.6316 1227.4897,-130.5299 1217.0493,-128.7275 1218.2041,-135.6316"/>
</g>
<!-- Node21 -->
<g id="node22" class="node">
<title>Node21</title>
<polygon fill="#ffffff" stroke="#bfbfbf" points="577,-112.5 577,-131.5 669,-131.5 669,-112.5 577,-112.5"/>
<text text-anchor="middle" x="623" y="-119.5" font-family="Helvetica,sans-Serif" font-size="10.00" fill="#000000">archlib/Status.h</text>
</g>
<!-- Node18&#45;&gt;Node21 -->
<g id="edge26" class="edge">
<title>Node18&#45;&gt;Node21</title>
<path fill="none" stroke="#191970" d="M838.1806,-169.7747C789.4563,-158.9569 722.2432,-144.0341 675.9668,-133.7598"/>
<polygon fill="#191970" stroke="#191970" points="676.6549,-130.3274 666.1339,-131.5767 675.1376,-137.161 676.6549,-130.3274"/>
</g>
<!-- Node22 -->
<g id="node23" class="node">
<title>Node22</title>
<polygon fill="#ffffff" stroke="#bfbfbf" points="687,-112.5 687,-131.5 813,-131.5 813,-112.5 687,-112.5"/>
<text text-anchor="middle" x="750" y="-119.5" font-family="Helvetica,sans-Serif" font-size="10.00" fill="#000000">archlib/EnergyStatus.h</text>
</g>
<!-- Node18&#45;&gt;Node22 -->
<g id="edge27" class="edge">
<title>Node18&#45;&gt;Node22</title>
<path fill="none" stroke="#191970" d="M863.3059,-168.4554C838.6073,-158.329 806.3326,-145.0964 782.5494,-135.3453"/>
<polygon fill="#191970" stroke="#191970" points="783.825,-132.0855 773.2447,-131.5303 781.1694,-138.5623 783.825,-132.0855"/>
</g>
<!-- Node18&#45;&gt;Node23 -->
<g id="edge28" class="edge">
<title>Node18&#45;&gt;Node23</title>
<path fill="none" stroke="#191970" d="M961.7036,-170.3381C966.5302,-169.4853 971.338,-168.6925 976,-168 1145.1172,-142.8807 1188.8516,-148.7667 1359,-132 1360.4742,-131.8547 1361.9609,-131.7077 1363.4576,-131.5592"/>
<polygon fill="#191970" stroke="#191970" points="1363.8504,-135.0375 1373.4531,-130.5611 1363.1548,-128.0721 1363.8504,-135.0375"/>
</g>
<!-- Node24 -->
<g id="node25" class="node">
<title>Node24</title>
<polygon fill="#ffffff" stroke="#bfbfbf" points="831,-112.5 831,-131.5 969,-131.5 969,-112.5 831,-112.5"/>
<text text-anchor="middle" x="900" y="-119.5" font-family="Helvetica,sans-Serif" font-size="10.00" fill="#000000">archlib/EffectorRegister.h</text>
</g>
<!-- Node18&#45;&gt;Node24 -->
<g id="edge29" class="edge">
<title>Node18&#45;&gt;Node24</title>
<path fill="none" stroke="#191970" d="M900,-168.2977C900,-160.3834 900,-150.6043 900,-142.0759"/>
<polygon fill="#191970" stroke="#191970" points="903.5001,-141.8469 900,-131.8469 896.5001,-141.847 903.5001,-141.8469"/>
</g>
<!-- Node25 -->
<g id="node26" class="node">
<title>Node25</title>
<g id="a_node26"><a xlink:href="ROSComponent_8hpp.html" target="_top" xlink:title="archlib/ROSComponent.hpp">
<polygon fill="#ffffff" stroke="#000000" points="1060,-112.5 1060,-131.5 1210,-131.5 1210,-112.5 1060,-112.5"/>
<text text-anchor="middle" x="1135" y="-119.5" font-family="Helvetica,sans-Serif" font-size="10.00" fill="#000000">archlib/ROSComponent.hpp</text>
</a>
</g>
</g>
<!-- Node18&#45;&gt;Node25 -->
<g id="edge30" class="edge">
<title>Node18&#45;&gt;Node25</title>
<path fill="none" stroke="#191970" d="M957.4875,-168.4554C997.9017,-157.8789 1051.2636,-143.914 1088.8929,-134.0663"/>
<polygon fill="#191970" stroke="#191970" points="1089.7953,-137.4481 1098.5833,-131.5303 1088.023,-130.6762 1089.7953,-137.4481"/>
</g>
<!-- Node25&#45;&gt;Node7 -->
<g id="edge33" class="edge">
<title>Node25&#45;&gt;Node7</title>
<path fill="none" stroke="#191970" d="M1165.5481,-112.3487C1188.2167,-104.4358 1219.3375,-91.952 1244,-76 1265.263,-62.2469 1286.0591,-41.8599 1299.5913,-27.3887"/>
<polygon fill="#191970" stroke="#191970" points="1302.5046,-29.3893 1306.6681,-19.6468 1297.3378,-24.6664 1302.5046,-29.3893"/>
</g>
<!-- Node25&#45;&gt;Node11 -->
<g id="edge31" class="edge">
<title>Node25&#45;&gt;Node11</title>
<path fill="none" stroke="#191970" d="M1082.0673,-112.4993C956.5848,-89.9768 644.0169,-33.8748 543.0205,-15.7473"/>
<polygon fill="#191970" stroke="#191970" points="543.5716,-12.2903 533.1105,-13.9686 542.3349,-19.1802 543.5716,-12.2903"/>
</g>
<!-- Node26 -->
<g id="node27" class="node">
<title>Node26</title>
<polygon fill="#ffffff" stroke="#bfbfbf" points="661.5,-56.5 661.5,-75.5 726.5,-75.5 726.5,-56.5 661.5,-56.5"/>
<text text-anchor="middle" x="694" y="-63.5" font-family="Helvetica,sans-Serif" font-size="10.00" fill="#000000">stdexcept</text>
</g>
<!-- Node25&#45;&gt;Node26 -->
<g id="edge32" class="edge">
<title>Node25&#45;&gt;Node26</title>
<path fill="none" stroke="#191970" d="M1059.9406,-112.4686C966.8311,-100.6452 811.2674,-80.8911 736.5703,-71.4058"/>
<polygon fill="#191970" stroke="#191970" points="736.9431,-67.9251 726.5818,-70.1374 736.0612,-74.8693 736.9431,-67.9251"/>
</g>
<!-- Node27 -->
<g id="node28" class="node">
<title>Node27</title>
<g id="a_node28"><a xlink:href="ROSComponentDescriptor_8hpp.html" target="_top" xlink:title="archlib/ROSComponentDescriptor.hpp">
<polygon fill="#ffffff" stroke="#000000" points="1035,-56.5 1035,-75.5 1235,-75.5 1235,-56.5 1035,-56.5"/>
<text text-anchor="middle" x="1135" y="-63.5" font-family="Helvetica,sans-Serif" font-size="10.00" fill="#000000">archlib/ROSComponentDescriptor.hpp</text>
</a>
</g>
</g>
<!-- Node25&#45;&gt;Node27 -->
<g id="edge34" class="edge">
<title>Node25&#45;&gt;Node27</title>
<path fill="none" stroke="#191970" d="M1135,-112.2455C1135,-104.9382 1135,-94.6944 1135,-85.7046"/>
<polygon fill="#191970" stroke="#191970" points="1138.5001,-85.6426 1135,-75.6427 1131.5001,-85.6427 1138.5001,-85.6426"/>
</g>
<!-- Node27&#45;&gt;Node7 -->
<g id="edge36" class="edge">
<title>Node27&#45;&gt;Node7</title>
<path fill="none" stroke="#191970" d="M1165.9431,-56.3733C1196.2772,-46.936 1242.6366,-32.5131 1275.5917,-22.2604"/>
<polygon fill="#191970" stroke="#191970" points="1276.8474,-25.5352 1285.3562,-19.2225 1274.7679,-18.8512 1276.8474,-25.5352"/>
</g>
<!-- Node27&#45;&gt;Node11 -->
<g id="edge35" class="edge">
<title>Node27&#45;&gt;Node11</title>
<path fill="none" stroke="#191970" d="M1034.7436,-57.0026C890.9003,-44.0936 633.3644,-20.9814 543.2223,-12.8917"/>
<polygon fill="#191970" stroke="#191970" points="543.351,-9.3893 533.0781,-11.9814 542.7252,-16.3613 543.351,-9.3893"/>
</g>
<!-- Node29&#45;&gt;Node11 -->
<g id="edge41" class="edge">
<title>Node29&#45;&gt;Node11</title>
<path fill="none" stroke="#191970" d="M440.3444,-173.914C407.5186,-162.8234 365.2704,-142.1369 380,-112 400.5895,-69.8736 447.9076,-40.099 479.6719,-23.9884"/>
<polygon fill="#191970" stroke="#191970" points="481.5418,-26.9699 488.9836,-19.4287 478.4633,-20.6831 481.5418,-26.9699"/>
</g>
<!-- Node29&#45;&gt;Node13 -->
<g id="edge42" class="edge">
<title>Node29&#45;&gt;Node13</title>
<path fill="none" stroke="#191970" d="M448.5938,-173.8906C419.8209,-163.42 373.6304,-146.6111 341.6534,-134.9745"/>
<polygon fill="#191970" stroke="#191970" points="342.8149,-131.6726 332.2208,-131.5419 340.421,-138.2506 342.8149,-131.6726"/>
</g>
<!-- Node29&#45;&gt;Node26 -->
<g id="edge43" class="edge">
<title>Node29&#45;&gt;Node26</title>
<path fill="none" stroke="#191970" d="M485.139,-173.9988C501.4854,-159.0934 535.1633,-130.0558 568,-112 594.4813,-97.4389 626.4933,-85.8197 651.6236,-77.9017"/>
<polygon fill="#191970" stroke="#191970" points="652.7084,-81.2299 661.2385,-74.9459 650.6515,-74.539 652.7084,-81.2299"/>
</g>
<!-- Node30 -->
<g id="node31" class="node">
<title>Node30</title>
<polygon fill="#ffffff" stroke="#bfbfbf" points="389,-112.5 389,-131.5 445,-131.5 445,-112.5 389,-112.5"/>
<text text-anchor="middle" x="417" y="-119.5" font-family="Helvetica,sans-Serif" font-size="10.00" fill="#000000">sstream</text>
</g>
<!-- Node29&#45;&gt;Node30 -->
<g id="edge40" class="edge">
<title>Node29&#45;&gt;Node30</title>
<path fill="none" stroke="#191970" d="M465.9375,-173.8906C457.2207,-164.6478 443.846,-150.466 433.2804,-139.2628"/>
<polygon fill="#191970" stroke="#191970" points="435.5976,-136.6186 426.1903,-131.7449 430.505,-141.4213 435.5976,-136.6186"/>
</g>
</g>
</svg>
