<?xml version="1.0" encoding="UTF-8" standalone="no"?>
<!DOCTYPE svg PUBLIC "-//W3C//DTD SVG 1.1//EN"
 "http://www.w3.org/Graphics/SVG/1.1/DTD/svg11.dtd">
<!-- Generated by graphviz version 2.40.1 (20161225.0304)
 -->
<!-- Title: TEST_F Pages: 1 -->
<svg width="235pt" height="137pt"
 viewBox="0.00 0.00 235.00 137.00" xmlns="http://www.w3.org/2000/svg" xmlns:xlink="http://www.w3.org/1999/xlink">
<g id="graph0" class="graph" transform="scale(1 1) rotate(0) translate(4 133)">
<title>TEST_F</title>
<polygon fill="#ffffff" stroke="transparent" points="-4,4 -4,-133 231,-133 231,4 -4,4"/>
<!-- Node42 -->
<g id="node1" class="node">
<title>Node42</title>
<polygon fill="#bfbfbf" stroke="#000000" points="0,-55 0,-74 51,-74 51,-55 0,-55"/>
<text text-anchor="middle" x="25.5" y="-62" font-family="Helvetica,sans-Serif" font-size="10.00" fill="#000000">TEST_F</text>
</g>
<!-- Node43 -->
<g id="node2" class="node">
<title>Node43</title>
<g id="a_node2"><a xlink:href="classbsn_1_1goalmodel_1_1Task.html#a8df193e5fcbf36a3b514ca283d763322" target="_top" xlink:title="bsn::goalmodel::Task\l::addChild">
<polygon fill="#ffffff" stroke="#000000" points="97.5,-98.5 97.5,-128.5 216.5,-128.5 216.5,-98.5 97.5,-98.5"/>
<text text-anchor="start" x="105.5" y="-116.5" font-family="Helvetica,sans-Serif" font-size="10.00" fill="#000000">bsn::goalmodel::Task</text>
<text text-anchor="middle" x="157" y="-105.5" font-family="Helvetica,sans-Serif" font-size="10.00" fill="#000000">::addChild</text>
</a>
</g>
</g>
<!-- Node42&#45;&gt;Node43 -->
<g id="edge1" class="edge">
<title>Node42&#45;&gt;Node43</title>
<path fill="none" stroke="#191970" d="M48.1622,-74.0649C59.7244,-78.8549 74.0472,-84.6511 87,-89.5 91.839,-91.3115 96.8853,-93.1462 101.9543,-94.952"/>
<polygon fill="#191970" stroke="#191970" points="101.087,-98.3571 111.6818,-98.3756 103.4109,-91.7541 101.087,-98.3571"/>
</g>
<!-- Node44 -->
<g id="node3" class="node">
<title>Node44</title>
<g id="a_node3"><a xlink:href="classbsn_1_1goalmodel_1_1Node.html#a331301404b90ce9d959957a36fa93f0d" target="_top" xlink:title="bsn::goalmodel::Node\l::addChild">
<polygon fill="#ffffff" stroke="#000000" points="95.5,-49.5 95.5,-79.5 218.5,-79.5 218.5,-49.5 95.5,-49.5"/>
<text text-anchor="start" x="103.5" y="-67.5" font-family="Helvetica,sans-Serif" font-size="10.00" fill="#000000">bsn::goalmodel::Node</text>
<text text-anchor="middle" x="157" y="-56.5" font-family="Helvetica,sans-Serif" font-size="10.00" fill="#000000">::addChild</text>
</a>
</g>
</g>
<!-- Node42&#45;&gt;Node44 -->
<g id="edge2" class="edge">
<title>Node42&#45;&gt;Node44</title>
<path fill="none" stroke="#191970" d="M51.1667,-64.5C61.0936,-64.5 72.9918,-64.5 85.1706,-64.5"/>
<polygon fill="#191970" stroke="#191970" points="85.4296,-68.0001 95.4296,-64.5 85.4296,-61.0001 85.4296,-68.0001"/>
</g>
<!-- Node45 -->
<g id="node4" class="node">
<title>Node45</title>
<g id="a_node4"><a xlink:href="classbsn_1_1goalmodel_1_1GoalTree.html#a3a07b0ec72560e4b4a70dc747c867ec7" target="_top" xlink:title="bsn::goalmodel::GoalTree\l::addRootGoal">
<polygon fill="#ffffff" stroke="#000000" points="87,-.5 87,-30.5 227,-30.5 227,-.5 87,-.5"/>
<text text-anchor="start" x="95" y="-18.5" font-family="Helvetica,sans-Serif" font-size="10.00" fill="#000000">bsn::goalmodel::GoalTree</text>
<text text-anchor="middle" x="157" y="-7.5" font-family="Helvetica,sans-Serif" font-size="10.00" fill="#000000">::addRootGoal</text>
</a>
</g>
</g>
<!-- Node42&#45;&gt;Node45 -->
<g id="edge3" class="edge">
<title>Node42&#45;&gt;Node45</title>
<path fill="none" stroke="#191970" d="M49.3873,-54.9922C60.7508,-50.5169 74.5457,-45.153 87,-40.5 92.7911,-38.3364 98.8662,-36.1071 104.916,-33.9125"/>
<polygon fill="#191970" stroke="#191970" points="106.1388,-37.1922 114.3579,-30.5066 103.7635,-30.6075 106.1388,-37.1922"/>
</g>
</g>
</svg>
