<?xml version="1.0" encoding="UTF-8" standalone="no"?>
<!DOCTYPE svg PUBLIC "-//W3C//DTD SVG 1.1//EN"
 "http://www.w3.org/Graphics/SVG/1.1/DTD/svg11.dtd">
<!-- Generated by graphviz version 2.40.1 (20161225.0304)
 -->
<!-- Title: src/libbsn/test/unit/goalmodel/GoalTest.cpp Pages: 1 -->
<svg width="766pt" height="207pt"
 viewBox="0.00 0.00 765.50 207.00" xmlns="http://www.w3.org/2000/svg" xmlns:xlink="http://www.w3.org/1999/xlink">
<g id="graph0" class="graph" transform="scale(1 1) rotate(0) translate(4 203)">
<title>src/libbsn/test/unit/goalmodel/GoalTest.cpp</title>
<polygon fill="#ffffff" stroke="transparent" points="-4,4 -4,-203 761.5,-203 761.5,4 -4,4"/>
<!-- Node0 -->
<g id="node1" class="node">
<title>Node0</title>
<polygon fill="#bfbfbf" stroke="#000000" points="229.5,-168.5 229.5,-198.5 366.5,-198.5 366.5,-168.5 229.5,-168.5"/>
<text text-anchor="start" x="237.5" y="-186.5" font-family="Helvetica,sans-Serif" font-size="10.00" fill="#000000">src/libbsn/test/unit</text>
<text text-anchor="middle" x="298" y="-175.5" font-family="Helvetica,sans-Serif" font-size="10.00" fill="#000000">/goalmodel/GoalTest.cpp</text>
</g>
<!-- Node1 -->
<g id="node2" class="node">
<title>Node1</title>
<polygon fill="#ffffff" stroke="#bfbfbf" points="0,-112.5 0,-131.5 78,-131.5 78,-112.5 0,-112.5"/>
<text text-anchor="middle" x="39" y="-119.5" font-family="Helvetica,sans-Serif" font-size="10.00" fill="#000000">gtest/gtest.h</text>
</g>
<!-- Node0&#45;&gt;Node1 -->
<g id="edge1" class="edge">
<title>Node0&#45;&gt;Node1</title>
<path fill="none" stroke="#191970" d="M234.6415,-168.4554C189.5389,-157.7457 129.8045,-143.5617 88.2572,-133.6962"/>
<polygon fill="#191970" stroke="#191970" points="88.9076,-130.2534 78.3695,-131.3484 87.2904,-137.064 88.9076,-130.2534"/>
</g>
<!-- Node2 -->
<g id="node3" class="node">
<title>Node2</title>
<polygon fill="#ffffff" stroke="#bfbfbf" points="257,-.5 257,-19.5 315,-19.5 315,-.5 257,-.5"/>
<text text-anchor="middle" x="286" y="-7.5" font-family="Helvetica,sans-Serif" font-size="10.00" fill="#000000">memory</text>
</g>
<!-- Node0&#45;&gt;Node2 -->
<g id="edge2" class="edge">
<title>Node0&#45;&gt;Node2</title>
<path fill="none" stroke="#191970" d="M249.6912,-168.4155C208.3192,-152.6391 151.3746,-123.4405 125,-76 120.6808,-68.231 119.6472,-63.0964 125,-56 139.6359,-36.5967 203.8409,-22.9156 246.6162,-15.7596"/>
<polygon fill="#191970" stroke="#191970" points="247.4083,-19.177 256.7201,-14.1231 246.2891,-12.2671 247.4083,-19.177"/>
</g>
<!-- Node3 -->
<g id="node4" class="node">
<title>Node3</title>
<g id="a_node4"><a xlink:href="Context_8hpp.html" target="_top" xlink:title="libbsn/goalmodel/Context.hpp">
<polygon fill="#ffffff" stroke="#000000" points="316.5,-56.5 316.5,-75.5 479.5,-75.5 479.5,-56.5 316.5,-56.5"/>
<text text-anchor="middle" x="398" y="-63.5" font-family="Helvetica,sans-Serif" font-size="10.00" fill="#000000">libbsn/goalmodel/Context.hpp</text>
</a>
</g>
</g>
<!-- Node0&#45;&gt;Node3 -->
<g id="edge3" class="edge">
<title>Node0&#45;&gt;Node3</title>
<path fill="none" stroke="#191970" d="M311.0733,-168.1389C329.6633,-146.2957 363.6405,-106.3724 383.1554,-83.4424"/>
<polygon fill="#191970" stroke="#191970" points="386.0484,-85.4433 389.8643,-75.5595 380.7177,-80.9065 386.0484,-85.4433"/>
</g>
<!-- Node5 -->
<g id="node6" class="node">
<title>Node5</title>
<g id="a_node6"><a xlink:href="Property_8hpp.html" target="_top" xlink:title="libbsn/goalmodel/Property.hpp">
<polygon fill="#ffffff" stroke="#000000" points="134,-56.5 134,-75.5 298,-75.5 298,-56.5 134,-56.5"/>
<text text-anchor="middle" x="216" y="-63.5" font-family="Helvetica,sans-Serif" font-size="10.00" fill="#000000">libbsn/goalmodel/Property.hpp</text>
</a>
</g>
</g>
<!-- Node0&#45;&gt;Node5 -->
<g id="edge5" class="edge">
<title>Node0&#45;&gt;Node5</title>
<path fill="none" stroke="#191970" d="M287.2799,-168.1389C272.1704,-146.4881 244.6647,-107.0745 228.5983,-84.0525"/>
<polygon fill="#191970" stroke="#191970" points="231.2644,-81.757 222.6713,-75.5595 225.5241,-85.763 231.2644,-81.757"/>
</g>
<!-- Node6 -->
<g id="node7" class="node">
<title>Node6</title>
<g id="a_node7"><a xlink:href="Goal_8hpp.html" target="_top" xlink:title="libbsn/goalmodel/Goal.hpp">
<polygon fill="#ffffff" stroke="#000000" points="602.5,-112.5 602.5,-131.5 749.5,-131.5 749.5,-112.5 602.5,-112.5"/>
<text text-anchor="middle" x="676" y="-119.5" font-family="Helvetica,sans-Serif" font-size="10.00" fill="#000000">libbsn/goalmodel/Goal.hpp</text>
</a>
</g>
</g>
<!-- Node0&#45;&gt;Node6 -->
<g id="edge7" class="edge">
<title>Node0&#45;&gt;Node6</title>
<path fill="none" stroke="#191970" d="M366.8915,-172.2915C435.1501,-161.1859 539.0973,-144.2739 607.2919,-133.1787"/>
<polygon fill="#191970" stroke="#191970" points="608.1937,-136.5781 617.5018,-131.5176 607.0695,-129.6689 608.1937,-136.5781"/>
</g>
<!-- Node9 -->
<g id="node10" class="node">
<title>Node9</title>
<g id="a_node10"><a xlink:href="Node_8hpp.html" target="_top" xlink:title="libbsn/goalmodel/Node.hpp">
<polygon fill="#ffffff" stroke="#000000" points="498,-56.5 498,-75.5 648,-75.5 648,-56.5 498,-56.5"/>
<text text-anchor="middle" x="573" y="-63.5" font-family="Helvetica,sans-Serif" font-size="10.00" fill="#000000">libbsn/goalmodel/Node.hpp</text>
</a>
</g>
</g>
<!-- Node0&#45;&gt;Node9 -->
<g id="edge16" class="edge">
<title>Node0&#45;&gt;Node9</title>
<path fill="none" stroke="#191970" d="M333.1083,-168.4992C386.9765,-145.4828 489.2157,-101.7988 541.0921,-79.6334"/>
<polygon fill="#191970" stroke="#191970" points="542.6477,-82.7749 550.4682,-75.6272 539.8972,-76.3378 542.6477,-82.7749"/>
</g>
<!-- Node4 -->
<g id="node5" class="node">
<title>Node4</title>
<polygon fill="#ffffff" stroke="#bfbfbf" points="444,-.5 444,-19.5 488,-19.5 488,-.5 444,-.5"/>
<text text-anchor="middle" x="466" y="-7.5" font-family="Helvetica,sans-Serif" font-size="10.00" fill="#000000">string</text>
</g>
<!-- Node3&#45;&gt;Node4 -->
<g id="edge4" class="edge">
<title>Node3&#45;&gt;Node4</title>
<path fill="none" stroke="#191970" d="M409.8447,-56.2455C419.888,-47.9746 434.4995,-35.9416 446.3004,-26.2232"/>
<polygon fill="#191970" stroke="#191970" points="448.7967,-28.7015 454.291,-19.6427 444.3467,-23.298 448.7967,-28.7015"/>
</g>
<!-- Node5&#45;&gt;Node4 -->
<g id="edge6" class="edge">
<title>Node5&#45;&gt;Node4</title>
<path fill="none" stroke="#191970" d="M258.6925,-56.4369C308.3992,-45.3026 389.3645,-27.1663 433.9787,-17.1728"/>
<polygon fill="#191970" stroke="#191970" points="434.9799,-20.5353 443.973,-14.934 433.4498,-13.7046 434.9799,-20.5353"/>
</g>
<!-- Node6&#45;&gt;Node4 -->
<g id="edge8" class="edge">
<title>Node6&#45;&gt;Node4</title>
<path fill="none" stroke="#191970" d="M676.0852,-112.405C675.6674,-98.0327 672.6786,-71.004 657,-56 634.4441,-34.4146 546.4748,-20.1775 498.1818,-13.8174"/>
<polygon fill="#191970" stroke="#191970" points="498.5969,-10.3421 488.2336,-12.5448 497.7087,-17.2855 498.5969,-10.3421"/>
</g>
<!-- Node7 -->
<g id="node8" class="node">
<title>Node7</title>
<polygon fill="#ffffff" stroke="#bfbfbf" points="575.5,-.5 575.5,-19.5 622.5,-19.5 622.5,-.5 575.5,-.5"/>
<text text-anchor="middle" x="599" y="-7.5" font-family="Helvetica,sans-Serif" font-size="10.00" fill="#000000">vector</text>
</g>
<!-- Node6&#45;&gt;Node7 -->
<g id="edge9" class="edge">
<title>Node6&#45;&gt;Node7</title>
<path fill="none" stroke="#191970" d="M682.149,-112.2986C689.8874,-98.7307 700.9224,-73.7598 690,-56 677.4878,-35.6552 652.8874,-23.978 632.4162,-17.4833"/>
<polygon fill="#191970" stroke="#191970" points="633.348,-14.1094 622.7694,-14.6959 631.4049,-20.8343 633.348,-14.1094"/>
</g>
<!-- Node8 -->
<g id="node9" class="node">
<title>Node8</title>
<polygon fill="#ffffff" stroke="#bfbfbf" points="692.5,-.5 692.5,-19.5 757.5,-19.5 757.5,-.5 692.5,-.5"/>
<text text-anchor="middle" x="725" y="-7.5" font-family="Helvetica,sans-Serif" font-size="10.00" fill="#000000">stdexcept</text>
</g>
<!-- Node6&#45;&gt;Node8 -->
<g id="edge10" class="edge">
<title>Node6&#45;&gt;Node8</title>
<path fill="none" stroke="#191970" d="M693.0567,-112.377C705.3089,-104.4014 720.8708,-91.8248 728,-76 734.5429,-61.4766 733.1041,-43.2877 730.418,-29.6842"/>
<polygon fill="#191970" stroke="#191970" points="733.8176,-28.8509 728.1251,-19.9153 727.0028,-30.4505 733.8176,-28.8509"/>
</g>
<!-- Node6&#45;&gt;Node9 -->
<g id="edge11" class="edge">
<title>Node6&#45;&gt;Node9</title>
<path fill="none" stroke="#191970" d="M658.0588,-112.2455C641.96,-103.4928 618.1121,-90.527 599.7609,-80.5496"/>
<polygon fill="#191970" stroke="#191970" points="601.1929,-77.3444 590.7356,-75.6427 597.8493,-83.4942 601.1929,-77.3444"/>
</g>
<!-- Node9&#45;&gt;Node2 -->
<g id="edge15" class="edge">
<title>Node9&#45;&gt;Node2</title>
<path fill="none" stroke="#191970" d="M523.989,-56.4369C467.8215,-45.4774 376.8872,-27.7341 325.2032,-17.6494"/>
<polygon fill="#191970" stroke="#191970" points="325.5894,-14.1588 315.1042,-15.6789 324.2488,-21.0293 325.5894,-14.1588"/>
</g>
<!-- Node9&#45;&gt;Node4 -->
<g id="edge12" class="edge">
<title>Node9&#45;&gt;Node4</title>
<path fill="none" stroke="#191970" d="M554.362,-56.2455C537.5614,-47.4527 512.6366,-34.4079 493.5382,-24.4125"/>
<polygon fill="#191970" stroke="#191970" points="494.9073,-21.1787 484.4244,-19.6427 491.6614,-27.3807 494.9073,-21.1787"/>
</g>
<!-- Node9&#45;&gt;Node7 -->
<g id="edge13" class="edge">
<title>Node9&#45;&gt;Node7</title>
<path fill="none" stroke="#191970" d="M577.5289,-56.2455C581.0334,-48.6973 585.9927,-38.0158 590.2623,-28.8197"/>
<polygon fill="#191970" stroke="#191970" points="593.4864,-30.1867 594.523,-19.6427 587.1373,-27.2389 593.4864,-30.1867"/>
</g>
<!-- Node9&#45;&gt;Node8 -->
<g id="edge14" class="edge">
<title>Node9&#45;&gt;Node8</title>
<path fill="none" stroke="#191970" d="M599.1297,-56.3733C624.0768,-47.1822 661.8592,-33.2624 689.5206,-23.0713"/>
<polygon fill="#191970" stroke="#191970" points="691.0378,-26.2424 699.2112,-19.5011 688.6178,-19.674 691.0378,-26.2424"/>
</g>
</g>
</svg>
