<?xml version="1.0" encoding="UTF-8" standalone="no"?>
<!DOCTYPE svg PUBLIC "-//W3C//DTD SVG 1.1//EN"
 "http://www.w3.org/Graphics/SVG/1.1/DTD/svg11.dtd">
<!-- Generated by graphviz version 2.40.1 (20161225.0304)
 -->
<!-- Title: src/libbsn/src/goalmodel/GoalTree.cpp Pages: 1 -->
<svg width="1045pt" height="375pt"
 viewBox="0.00 0.00 1045.00 375.00" xmlns="http://www.w3.org/2000/svg" xmlns:xlink="http://www.w3.org/1999/xlink">
<g id="graph0" class="graph" transform="scale(1 1) rotate(0) translate(4 371)">
<title>src/libbsn/src/goalmodel/GoalTree.cpp</title>
<polygon fill="#ffffff" stroke="transparent" points="-4,4 -4,-371 1041,-371 1041,4 -4,4"/>
<!-- Node0 -->
<g id="node1" class="node">
<title>Node0</title>
<polygon fill="#bfbfbf" stroke="#000000" points="881.5,-336.5 881.5,-366.5 1016.5,-366.5 1016.5,-336.5 881.5,-336.5"/>
<text text-anchor="start" x="889.5" y="-354.5" font-family="Helvetica,sans-Serif" font-size="10.00" fill="#000000">src/libbsn/src/goalmodel</text>
<text text-anchor="middle" x="949" y="-343.5" font-family="Helvetica,sans-Serif" font-size="10.00" fill="#000000">/GoalTree.cpp</text>
</g>
<!-- Node1 -->
<g id="node2" class="node">
<title>Node1</title>
<g id="a_node2"><a xlink:href="GoalTree_8hpp.html" target="_top" xlink:title="libbsn/goalmodel/GoalTree.hpp">
<polygon fill="#ffffff" stroke="#000000" points="327.5,-280.5 327.5,-299.5 494.5,-299.5 494.5,-280.5 327.5,-280.5"/>
<text text-anchor="middle" x="411" y="-287.5" font-family="Helvetica,sans-Serif" font-size="10.00" fill="#000000">libbsn/goalmodel/GoalTree.hpp</text>
</a>
</g>
</g>
<!-- Node0&#45;&gt;Node1 -->
<g id="edge1" class="edge">
<title>Node0&#45;&gt;Node1</title>
<path fill="none" stroke="#191970" d="M881.4067,-343.7733C786.1272,-332.8816 611.9684,-312.9732 504.3828,-300.6748"/>
<polygon fill="#191970" stroke="#191970" points="504.5168,-297.1674 494.184,-299.5089 503.7217,-304.1221 504.5168,-297.1674"/>
</g>
<!-- Node6 -->
<g id="node7" class="node">
<title>Node6</title>
<polygon fill="#ffffff" stroke="#bfbfbf" points="791,-.5 791,-19.5 849,-19.5 849,-.5 791,-.5"/>
<text text-anchor="middle" x="820" y="-7.5" font-family="Helvetica,sans-Serif" font-size="10.00" fill="#000000">memory</text>
</g>
<!-- Node0&#45;&gt;Node6 -->
<g id="edge33" class="edge">
<title>Node0&#45;&gt;Node6</title>
<path fill="none" stroke="#191970" d="M949,-336.2899C949,-313.892 949,-270.7188 949,-234 949,-234 949,-234 949,-122 949,-72.6478 894.4985,-40.1337 856.3468,-23.4194"/>
<polygon fill="#191970" stroke="#191970" points="857.6177,-20.157 847.0426,-19.5097 854.9059,-26.6104 857.6177,-20.157"/>
</g>
<!-- Node13 -->
<g id="node14" class="node">
<title>Node13</title>
<polygon fill="#ffffff" stroke="#bfbfbf" points="977,-280.5 977,-299.5 1037,-299.5 1037,-280.5 977,-280.5"/>
<text text-anchor="middle" x="1007" y="-287.5" font-family="Helvetica,sans-Serif" font-size="10.00" fill="#000000">iostream</text>
</g>
<!-- Node0&#45;&gt;Node13 -->
<g id="edge32" class="edge">
<title>Node0&#45;&gt;Node13</title>
<path fill="none" stroke="#191970" d="M963.3371,-336.2977C971.6397,-327.4941 982.1182,-316.3833 990.7289,-307.2529"/>
<polygon fill="#191970" stroke="#191970" points="993.3987,-309.5234 997.7135,-299.8469 988.3061,-304.7206 993.3987,-309.5234"/>
</g>
<!-- Node2 -->
<g id="node3" class="node">
<title>Node2</title>
<polygon fill="#ffffff" stroke="#bfbfbf" points="560,-.5 560,-19.5 604,-19.5 604,-.5 560,-.5"/>
<text text-anchor="middle" x="582" y="-7.5" font-family="Helvetica,sans-Serif" font-size="10.00" fill="#000000">string</text>
</g>
<!-- Node1&#45;&gt;Node2 -->
<g id="edge2" class="edge">
<title>Node1&#45;&gt;Node2</title>
<path fill="none" stroke="#191970" d="M494.6647,-286.7345C627.8004,-279.2296 873,-254.9607 873,-178 873,-178 873,-178 873,-122 873,-67.0669 690.1021,-28.8409 614.3054,-15.3578"/>
<polygon fill="#191970" stroke="#191970" points="614.804,-11.892 604.3511,-13.6203 613.6003,-18.7878 614.804,-11.892"/>
</g>
<!-- Node3 -->
<g id="node4" class="node">
<title>Node3</title>
<polygon fill="#ffffff" stroke="#bfbfbf" points="368,-224.5 368,-243.5 406,-243.5 406,-224.5 368,-224.5"/>
<text text-anchor="middle" x="387" y="-231.5" font-family="Helvetica,sans-Serif" font-size="10.00" fill="#000000">map</text>
</g>
<!-- Node1&#45;&gt;Node3 -->
<g id="edge3" class="edge">
<title>Node1&#45;&gt;Node3</title>
<path fill="none" stroke="#191970" d="M406.8195,-280.2455C403.619,-272.7776 399.104,-262.2427 395.1916,-253.1137"/>
<polygon fill="#191970" stroke="#191970" points="398.2888,-251.4554 391.1326,-243.6427 391.8548,-254.2129 398.2888,-251.4554"/>
</g>
<!-- Node4 -->
<g id="node5" class="node">
<title>Node4</title>
<polygon fill="#ffffff" stroke="#bfbfbf" points="195.5,-.5 195.5,-19.5 260.5,-19.5 260.5,-.5 195.5,-.5"/>
<text text-anchor="middle" x="228" y="-7.5" font-family="Helvetica,sans-Serif" font-size="10.00" fill="#000000">stdexcept</text>
</g>
<!-- Node1&#45;&gt;Node4 -->
<g id="edge4" class="edge">
<title>Node1&#45;&gt;Node4</title>
<path fill="none" stroke="#191970" d="M359.6029,-280.4549C289.9386,-264.2258 169.9836,-223.6335 133,-132 115.1074,-87.668 168.0817,-45.9759 201.9848,-24.7043"/>
<polygon fill="#191970" stroke="#191970" points="203.8203,-27.6845 210.5526,-19.5036 200.1881,-21.7006 203.8203,-27.6845"/>
</g>
<!-- Node5 -->
<g id="node6" class="node">
<title>Node5</title>
<polygon fill="#ffffff" stroke="#bfbfbf" points="90.5,-.5 90.5,-19.5 137.5,-19.5 137.5,-.5 90.5,-.5"/>
<text text-anchor="middle" x="114" y="-7.5" font-family="Helvetica,sans-Serif" font-size="10.00" fill="#000000">vector</text>
</g>
<!-- Node1&#45;&gt;Node5 -->
<g id="edge5" class="edge">
<title>Node1&#45;&gt;Node5</title>
<path fill="none" stroke="#191970" d="M327.3326,-284.1612C207.1623,-273.4386 0,-245.2076 0,-178 0,-178 0,-178 0,-122 0,-75.4628 48.9383,-41.828 82.6864,-24.1659"/>
<polygon fill="#191970" stroke="#191970" points="84.3862,-27.2289 91.749,-19.6105 81.2424,-20.9746 84.3862,-27.2289"/>
</g>
<!-- Node1&#45;&gt;Node6 -->
<g id="edge6" class="edge">
<title>Node1&#45;&gt;Node6</title>
<path fill="none" stroke="#191970" d="M494.8081,-286.2467C598.8086,-280.6431 769.5802,-268.0705 828,-244 871.576,-226.0455 911,-225.13 911,-178 911,-178 911,-178 911,-122 911,-79.6829 871.3856,-44.4504 844.4312,-25.3755"/>
<polygon fill="#191970" stroke="#191970" points="846.088,-22.2695 835.851,-19.5391 842.1509,-28.0574 846.088,-22.2695"/>
</g>
<!-- Node7 -->
<g id="node8" class="node">
<title>Node7</title>
<g id="a_node8"><a xlink:href="Node_8hpp.html" target="_top" xlink:title="libbsn/goalmodel/Node.hpp">
<polygon fill="#ffffff" stroke="#000000" points="294,-56.5 294,-75.5 444,-75.5 444,-56.5 294,-56.5"/>
<text text-anchor="middle" x="369" y="-63.5" font-family="Helvetica,sans-Serif" font-size="10.00" fill="#000000">libbsn/goalmodel/Node.hpp</text>
</a>
</g>
</g>
<!-- Node1&#45;&gt;Node7 -->
<g id="edge7" class="edge">
<title>Node1&#45;&gt;Node7</title>
<path fill="none" stroke="#191970" d="M412.8815,-280.3677C416.6048,-259.5692 423.8223,-209.0221 415,-168 408.3613,-137.1312 391.6091,-104.3424 380.2621,-84.5155"/>
<polygon fill="#191970" stroke="#191970" points="383.1341,-82.4946 375.0486,-75.648 377.0997,-86.0424 383.1341,-82.4946"/>
</g>
<!-- Node8 -->
<g id="node9" class="node">
<title>Node8</title>
<g id="a_node9"><a xlink:href="Goal_8hpp.html" target="_top" xlink:title="libbsn/goalmodel/Goal.hpp">
<polygon fill="#ffffff" stroke="#000000" points="142.5,-112.5 142.5,-131.5 289.5,-131.5 289.5,-112.5 142.5,-112.5"/>
<text text-anchor="middle" x="216" y="-119.5" font-family="Helvetica,sans-Serif" font-size="10.00" fill="#000000">libbsn/goalmodel/Goal.hpp</text>
</a>
</g>
</g>
<!-- Node1&#45;&gt;Node8 -->
<g id="edge12" class="edge">
<title>Node1&#45;&gt;Node8</title>
<path fill="none" stroke="#191970" d="M388.8155,-280.402C355.3795,-265.0232 291.6665,-232.0547 251,-188 238.5217,-174.482 229.1262,-155.6819 223.2282,-141.6032"/>
<polygon fill="#191970" stroke="#191970" points="226.3342,-139.9392 219.4065,-131.9231 219.8232,-142.5097 226.3342,-139.9392"/>
</g>
<!-- Node9 -->
<g id="node10" class="node">
<title>Node9</title>
<g id="a_node10"><a xlink:href="Task_8hpp.html" target="_top" xlink:title="libbsn/goalmodel/Task.hpp">
<polygon fill="#ffffff" stroke="#000000" points="260,-168.5 260,-187.5 406,-187.5 406,-168.5 260,-168.5"/>
<text text-anchor="middle" x="333" y="-175.5" font-family="Helvetica,sans-Serif" font-size="10.00" fill="#000000">libbsn/goalmodel/Task.hpp</text>
</a>
</g>
</g>
<!-- Node1&#45;&gt;Node9 -->
<g id="edge17" class="edge">
<title>Node1&#45;&gt;Node9</title>
<path fill="none" stroke="#191970" d="M396.9712,-280.4885C385.4411,-272.0571 369.3708,-258.8096 359,-244 349.078,-229.8313 342.2171,-211.343 338.0449,-197.5399"/>
<polygon fill="#191970" stroke="#191970" points="341.3403,-196.3288 335.2682,-187.6466 334.6007,-198.2204 341.3403,-196.3288"/>
</g>
<!-- Node10 -->
<g id="node11" class="node">
<title>Node10</title>
<g id="a_node11"><a xlink:href="LeafTask_8hpp.html" target="_top" xlink:title="libbsn/goalmodel/LeafTask.hpp">
<polygon fill="#ffffff" stroke="#000000" points="479.5,-224.5 479.5,-243.5 646.5,-243.5 646.5,-224.5 479.5,-224.5"/>
<text text-anchor="middle" x="563" y="-231.5" font-family="Helvetica,sans-Serif" font-size="10.00" fill="#000000">libbsn/goalmodel/LeafTask.hpp</text>
</a>
</g>
</g>
<!-- Node1&#45;&gt;Node10 -->
<g id="edge24" class="edge">
<title>Node1&#45;&gt;Node10</title>
<path fill="none" stroke="#191970" d="M437.1297,-280.3733C462.0768,-271.1822 499.8592,-257.2624 527.5206,-247.0713"/>
<polygon fill="#191970" stroke="#191970" points="529.0378,-250.2424 537.2112,-243.5011 526.6178,-243.674 529.0378,-250.2424"/>
</g>
<!-- Node7&#45;&gt;Node2 -->
<g id="edge8" class="edge">
<title>Node7&#45;&gt;Node2</title>
<path fill="none" stroke="#191970" d="M405.616,-56.3733C446.3431,-45.6657 511.482,-28.5399 550.1672,-18.3692"/>
<polygon fill="#191970" stroke="#191970" points="551.0868,-21.7465 559.8681,-15.8187 549.3068,-14.9765 551.0868,-21.7465"/>
</g>
<!-- Node7&#45;&gt;Node4 -->
<g id="edge10" class="edge">
<title>Node7&#45;&gt;Node4</title>
<path fill="none" stroke="#191970" d="M344.7612,-56.3733C321.7211,-47.2226 286.8786,-33.3844 261.2499,-23.2057"/>
<polygon fill="#191970" stroke="#191970" points="262.5082,-19.9395 251.9225,-19.5011 259.9244,-26.4452 262.5082,-19.9395"/>
</g>
<!-- Node7&#45;&gt;Node5 -->
<g id="edge9" class="edge">
<title>Node7&#45;&gt;Node5</title>
<path fill="none" stroke="#191970" d="M325.4537,-56.4369C275.1737,-45.395 193.5372,-27.467 147.8027,-17.4233"/>
<polygon fill="#191970" stroke="#191970" points="148.3185,-13.9533 137.8005,-15.2268 146.817,-20.7904 148.3185,-13.9533"/>
</g>
<!-- Node7&#45;&gt;Node6 -->
<g id="edge11" class="edge">
<title>Node7&#45;&gt;Node6</title>
<path fill="none" stroke="#191970" d="M444.2333,-56.6584C541.1741,-44.6214 706.1107,-24.1415 780.9748,-14.8457"/>
<polygon fill="#191970" stroke="#191970" points="781.4317,-18.3159 790.9241,-13.6103 780.569,-11.3693 781.4317,-18.3159"/>
</g>
<!-- Node8&#45;&gt;Node2 -->
<g id="edge13" class="edge">
<title>Node8&#45;&gt;Node2</title>
<path fill="none" stroke="#191970" d="M222.8131,-112.4777C233.9688,-97.6883 257.6477,-69.4979 285,-56 331.1906,-33.2057 482.7921,-18.2098 549.7356,-12.5418"/>
<polygon fill="#191970" stroke="#191970" points="550.0476,-16.028 559.7236,-11.7124 549.4682,-9.052 550.0476,-16.028"/>
</g>
<!-- Node8&#45;&gt;Node4 -->
<g id="edge15" class="edge">
<title>Node8&#45;&gt;Node4</title>
<path fill="none" stroke="#191970" d="M214.6122,-112.096C213.0432,-99.1295 211.0642,-75.7294 214,-56 215.3327,-47.0439 218.0494,-37.419 220.7381,-29.3"/>
<polygon fill="#191970" stroke="#191970" points="224.1067,-30.272 224.1376,-19.6772 217.5064,-27.9402 224.1067,-30.272"/>
</g>
<!-- Node8&#45;&gt;Node5 -->
<g id="edge14" class="edge">
<title>Node8&#45;&gt;Node5</title>
<path fill="none" stroke="#191970" d="M207.3035,-112.4509C190.0653,-93.5227 151.3521,-51.014 129.5986,-27.1279"/>
<polygon fill="#191970" stroke="#191970" points="131.9955,-24.5617 122.6745,-19.5249 126.8201,-29.275 131.9955,-24.5617"/>
</g>
<!-- Node8&#45;&gt;Node7 -->
<g id="edge16" class="edge">
<title>Node8&#45;&gt;Node7</title>
<path fill="none" stroke="#191970" d="M242.3016,-112.3733C267.4128,-103.1822 305.4438,-89.2624 333.2872,-79.0713"/>
<polygon fill="#191970" stroke="#191970" points="334.8538,-82.2251 343.0416,-75.5011 332.4478,-75.6516 334.8538,-82.2251"/>
</g>
<!-- Node9&#45;&gt;Node2 -->
<g id="edge18" class="edge">
<title>Node9&#45;&gt;Node2</title>
<path fill="none" stroke="#191970" d="M343.9583,-168.3492C368.917,-146.6421 432.3773,-92.9809 491,-56 510.0755,-43.9666 532.7035,-32.5172 550.6231,-24.051"/>
<polygon fill="#191970" stroke="#191970" points="552.4508,-27.061 560.0416,-19.6698 549.4984,-20.7141 552.4508,-27.061"/>
</g>
<!-- Node9&#45;&gt;Node4 -->
<g id="edge20" class="edge">
<title>Node9&#45;&gt;Node4</title>
<path fill="none" stroke="#191970" d="M328.3466,-168.4127C321.9333,-155.3987 309.8246,-131.5255 298,-112 279.5725,-81.5714 255.6874,-47.8191 241.1208,-27.7817"/>
<polygon fill="#191970" stroke="#191970" points="243.866,-25.6062 235.1369,-19.6017 238.2163,-29.7392 243.866,-25.6062"/>
</g>
<!-- Node9&#45;&gt;Node5 -->
<g id="edge19" class="edge">
<title>Node9&#45;&gt;Node5</title>
<path fill="none" stroke="#191970" d="M259.8571,-169.8112C210.0965,-162.6865 150.2662,-150.5484 133,-132 107.1849,-104.2678 107.9596,-56.6733 110.9133,-29.8633"/>
<polygon fill="#191970" stroke="#191970" points="114.4076,-30.1353 112.2414,-19.7643 107.4673,-29.2226 114.4076,-30.1353"/>
</g>
<!-- Node9&#45;&gt;Node6 -->
<g id="edge22" class="edge">
<title>Node9&#45;&gt;Node6</title>
<path fill="none" stroke="#191970" d="M370.5039,-168.4693C433.7215,-152.0237 565.1575,-116.1902 673,-76 715.1573,-60.289 762.3599,-38.2712 791.632,-24.0706"/>
<polygon fill="#191970" stroke="#191970" points="793.3884,-27.108 800.8384,-19.5749 790.3168,-20.8179 793.3884,-27.108"/>
</g>
<!-- Node9&#45;&gt;Node7 -->
<g id="edge21" class="edge">
<title>Node9&#45;&gt;Node7</title>
<path fill="none" stroke="#191970" d="M336.0693,-168.4509C341.9674,-150.1013 354.9887,-109.5908 362.7741,-85.3693"/>
<polygon fill="#191970" stroke="#191970" points="366.2104,-86.1162 365.9384,-75.5249 359.5462,-83.9741 366.2104,-86.1162"/>
</g>
<!-- Node9&#45;&gt;Node8 -->
<g id="edge23" class="edge">
<title>Node9&#45;&gt;Node8</title>
<path fill="none" stroke="#191970" d="M312.887,-168.3733C294.1897,-159.4241 266.1256,-145.9917 245.0066,-135.8835"/>
<polygon fill="#191970" stroke="#191970" points="246.3817,-132.6614 235.8506,-131.5011 243.3595,-138.9755 246.3817,-132.6614"/>
</g>
<!-- Node10&#45;&gt;Node2 -->
<g id="edge25" class="edge">
<title>Node10&#45;&gt;Node2</title>
<path fill="none" stroke="#191970" d="M572.9199,-224.4742C595.9834,-201.5503 652.7843,-140.4182 673,-76 675.6615,-67.5189 677.6566,-63.5716 673,-56 660.169,-35.1369 634.626,-23.3886 613.8598,-16.9969"/>
<polygon fill="#191970" stroke="#191970" points="614.6991,-13.5973 604.1259,-14.2729 612.8127,-20.3384 614.6991,-13.5973"/>
</g>
<!-- Node10&#45;&gt;Node5 -->
<g id="edge26" class="edge">
<title>Node10&#45;&gt;Node5</title>
<path fill="none" stroke="#191970" d="M479.4193,-226.6545C366.3134,-214.74 173.8966,-186.803 133,-132 110.5531,-101.9203 109.9232,-55.9171 111.7674,-29.8427"/>
<polygon fill="#191970" stroke="#191970" points="115.2703,-29.9672 112.6859,-19.6925 108.2988,-29.3363 115.2703,-29.9672"/>
</g>
<!-- Node10&#45;&gt;Node9 -->
<g id="edge31" class="edge">
<title>Node10&#45;&gt;Node9</title>
<path fill="none" stroke="#191970" d="M523.7229,-224.4369C484.5256,-214.8932 424.2,-200.2052 381.9165,-189.9101"/>
<polygon fill="#191970" stroke="#191970" points="382.6592,-186.4888 372.1151,-187.5237 381.0032,-193.2901 382.6592,-186.4888"/>
</g>
<!-- Node11 -->
<g id="node12" class="node">
<title>Node11</title>
<g id="a_node12"><a xlink:href="Context_8hpp.html" target="_top" xlink:title="libbsn/goalmodel/Context.hpp">
<polygon fill="#ffffff" stroke="#000000" points="681.5,-112.5 681.5,-131.5 844.5,-131.5 844.5,-112.5 681.5,-112.5"/>
<text text-anchor="middle" x="763" y="-119.5" font-family="Helvetica,sans-Serif" font-size="10.00" fill="#000000">libbsn/goalmodel/Context.hpp</text>
</a>
</g>
</g>
<!-- Node10&#45;&gt;Node11 -->
<g id="edge27" class="edge">
<title>Node10&#45;&gt;Node11</title>
<path fill="none" stroke="#191970" d="M580.0519,-224.4509C615.1069,-204.8201 695.4538,-159.8259 737.0228,-136.5472"/>
<polygon fill="#191970" stroke="#191970" points="738.9763,-139.4647 745.9913,-131.5249 735.5561,-133.3572 738.9763,-139.4647"/>
</g>
<!-- Node12 -->
<g id="node13" class="node">
<title>Node12</title>
<g id="a_node13"><a xlink:href="Property_8hpp.html" target="_top" xlink:title="libbsn/goalmodel/Property.hpp">
<polygon fill="#ffffff" stroke="#000000" points="500,-56.5 500,-75.5 664,-75.5 664,-56.5 500,-56.5"/>
<text text-anchor="middle" x="582" y="-63.5" font-family="Helvetica,sans-Serif" font-size="10.00" fill="#000000">libbsn/goalmodel/Property.hpp</text>
</a>
</g>
</g>
<!-- Node10&#45;&gt;Node12 -->
<g id="edge29" class="edge">
<title>Node10&#45;&gt;Node12</title>
<path fill="none" stroke="#191970" d="M564.076,-224.4862C567.0794,-197.9293 575.6028,-122.5651 579.7194,-86.1655"/>
<polygon fill="#191970" stroke="#191970" points="583.2425,-86.1579 580.8885,-75.8279 576.2868,-85.3712 583.2425,-86.1579"/>
</g>
<!-- Node11&#45;&gt;Node2 -->
<g id="edge28" class="edge">
<title>Node11&#45;&gt;Node2</title>
<path fill="none" stroke="#191970" d="M756.8308,-112.1122C747.4719,-97.8569 728.3864,-71.541 706,-56 677.8591,-36.4641 640.4025,-24.0752 614.0464,-17.1381"/>
<polygon fill="#191970" stroke="#191970" points="614.7367,-13.7028 604.1852,-14.6598 613.0305,-20.4917 614.7367,-13.7028"/>
</g>
<!-- Node12&#45;&gt;Node2 -->
<g id="edge30" class="edge">
<title>Node12&#45;&gt;Node2</title>
<path fill="none" stroke="#191970" d="M582,-56.2455C582,-48.9382 582,-38.6944 582,-29.7046"/>
<polygon fill="#191970" stroke="#191970" points="585.5001,-29.6426 582,-19.6427 578.5001,-29.6427 585.5001,-29.6426"/>
</g>
</g>
</svg>
