<?xml version="1.0" encoding="UTF-8" standalone="no"?>
<!DOCTYPE svg PUBLIC "-//W3C//DTD SVG 1.1//EN"
 "http://www.w3.org/Graphics/SVG/1.1/DTD/svg11.dtd">
<!-- Generated by graphviz version 2.40.1 (20161225.0304)
 -->
<!-- Title: TEST_F Pages: 1 -->
<svg width="235pt" height="186pt"
 viewBox="0.00 0.00 235.00 186.00" xmlns="http://www.w3.org/2000/svg" xmlns:xlink="http://www.w3.org/1999/xlink">
<g id="graph0" class="graph" transform="scale(1 1) rotate(0) translate(4 182)">
<title>TEST_F</title>
<polygon fill="#ffffff" stroke="transparent" points="-4,4 -4,-182 231,-182 231,4 -4,4"/>
<!-- Node54 -->
<g id="node1" class="node">
<title>Node54</title>
<polygon fill="#bfbfbf" stroke="#000000" points="0,-79 0,-98 51,-98 51,-79 0,-79"/>
<text text-anchor="middle" x="25.5" y="-86" font-family="Helvetica,sans-Serif" font-size="10.00" fill="#000000">TEST_F</text>
</g>
<!-- Node55 -->
<g id="node2" class="node">
<title>Node55</title>
<g id="a_node2"><a xlink:href="classbsn_1_1goalmodel_1_1Task.html#a8df193e5fcbf36a3b514ca283d763322" target="_top" xlink:title="bsn::goalmodel::Task\l::addChild">
<polygon fill="#ffffff" stroke="#000000" points="97.5,-147.5 97.5,-177.5 216.5,-177.5 216.5,-147.5 97.5,-147.5"/>
<text text-anchor="start" x="105.5" y="-165.5" font-family="Helvetica,sans-Serif" font-size="10.00" fill="#000000">bsn::goalmodel::Task</text>
<text text-anchor="middle" x="157" y="-154.5" font-family="Helvetica,sans-Serif" font-size="10.00" fill="#000000">::addChild</text>
</a>
</g>
</g>
<!-- Node54&#45;&gt;Node55 -->
<g id="edge1" class="edge">
<title>Node54&#45;&gt;Node55</title>
<path fill="none" stroke="#191970" d="M35.1389,-98.1874C46.6159,-109.2571 66.7843,-127.286 87,-138.5 90.0702,-140.2031 93.2826,-141.8161 96.5718,-143.3387"/>
<polygon fill="#191970" stroke="#191970" points="95.4216,-146.654 105.9908,-147.3908 98.1879,-140.2238 95.4216,-146.654"/>
</g>
<!-- Node56 -->
<g id="node3" class="node">
<title>Node56</title>
<g id="a_node3"><a xlink:href="classbsn_1_1goalmodel_1_1Node.html#a331301404b90ce9d959957a36fa93f0d" target="_top" xlink:title="bsn::goalmodel::Node\l::addChild">
<polygon fill="#ffffff" stroke="#000000" points="95.5,-98.5 95.5,-128.5 218.5,-128.5 218.5,-98.5 95.5,-98.5"/>
<text text-anchor="start" x="103.5" y="-116.5" font-family="Helvetica,sans-Serif" font-size="10.00" fill="#000000">bsn::goalmodel::Node</text>
<text text-anchor="middle" x="157" y="-105.5" font-family="Helvetica,sans-Serif" font-size="10.00" fill="#000000">::addChild</text>
</a>
</g>
</g>
<!-- Node54&#45;&gt;Node56 -->
<g id="edge2" class="edge">
<title>Node54&#45;&gt;Node56</title>
<path fill="none" stroke="#191970" d="M51.1667,-93.3796C61.1929,-95.2857 73.23,-97.5741 85.536,-99.9137"/>
<polygon fill="#191970" stroke="#191970" points="84.9518,-103.3652 95.4296,-101.7946 86.2593,-96.4884 84.9518,-103.3652"/>
</g>
<!-- Node57 -->
<g id="node4" class="node">
<title>Node57</title>
<g id="a_node4"><a xlink:href="classbsn_1_1goalmodel_1_1GoalTree.html#a3a07b0ec72560e4b4a70dc747c867ec7" target="_top" xlink:title="bsn::goalmodel::GoalTree\l::addRootGoal">
<polygon fill="#ffffff" stroke="#000000" points="87,-49.5 87,-79.5 227,-79.5 227,-49.5 87,-49.5"/>
<text text-anchor="start" x="95" y="-67.5" font-family="Helvetica,sans-Serif" font-size="10.00" fill="#000000">bsn::goalmodel::GoalTree</text>
<text text-anchor="middle" x="157" y="-56.5" font-family="Helvetica,sans-Serif" font-size="10.00" fill="#000000">::addRootGoal</text>
</a>
</g>
</g>
<!-- Node54&#45;&gt;Node57 -->
<g id="edge3" class="edge">
<title>Node54&#45;&gt;Node57</title>
<path fill="none" stroke="#191970" d="M51.1667,-83.8156C58.7964,-82.4231 67.5906,-80.8181 76.7817,-79.1406"/>
<polygon fill="#191970" stroke="#191970" points="77.6653,-82.5372 86.8744,-77.2986 76.4084,-75.651 77.6653,-82.5372"/>
</g>
<!-- Node58 -->
<g id="node5" class="node">
<title>Node58</title>
<g id="a_node5"><a xlink:href="classbsn_1_1goalmodel_1_1GoalTree.html#a7a3da90e5130f5badab8f7a535ec9a16" target="_top" xlink:title="bsn::goalmodel::GoalTree\l::getLeafTasks">
<polygon fill="#ffffff" stroke="#000000" points="87,-.5 87,-30.5 227,-30.5 227,-.5 87,-.5"/>
<text text-anchor="start" x="95" y="-18.5" font-family="Helvetica,sans-Serif" font-size="10.00" fill="#000000">bsn::goalmodel::GoalTree</text>
<text text-anchor="middle" x="157" y="-7.5" font-family="Helvetica,sans-Serif" font-size="10.00" fill="#000000">::getLeafTasks</text>
</a>
</g>
</g>
<!-- Node54&#45;&gt;Node58 -->
<g id="edge4" class="edge">
<title>Node54&#45;&gt;Node58</title>
<path fill="none" stroke="#191970" d="M35.6544,-78.8913C47.2895,-68.3015 67.3001,-51.3358 87,-40.5 90.7525,-38.436 94.7085,-36.4869 98.7522,-34.6578"/>
<polygon fill="#191970" stroke="#191970" points="100.4537,-37.7379 108.292,-30.6096 97.7193,-31.294 100.4537,-37.7379"/>
</g>
</g>
</svg>
