<?xml version="1.0" encoding="UTF-8" standalone="no"?>
<!DOCTYPE svg PUBLIC "-//W3C//DTD SVG 1.1//EN"
 "http://www.w3.org/Graphics/SVG/1.1/DTD/svg11.dtd">
<!-- Generated by graphviz version 2.40.1 (20161225.0304)
 -->
<!-- Title: src/libbsn/include/libbsn/goalmodel/GoalTree.hpp Pages: 1 -->
<svg width="882pt" height="319pt"
 viewBox="0.00 0.00 881.80 319.00" xmlns="http://www.w3.org/2000/svg" xmlns:xlink="http://www.w3.org/1999/xlink">
<g id="graph0" class="graph" transform="scale(1 1) rotate(0) translate(4 315)">
<title>src/libbsn/include/libbsn/goalmodel/GoalTree.hpp</title>
<polygon fill="#ffffff" stroke="transparent" points="-4,4 -4,-315 877.8006,-315 877.8006,4 -4,4"/>
<!-- Node0 -->
<g id="node1" class="node">
<title>Node0</title>
<polygon fill="#bfbfbf" stroke="#000000" points="162.8006,-280.5 162.8006,-310.5 332.8006,-310.5 332.8006,-280.5 162.8006,-280.5"/>
<text text-anchor="start" x="170.8006" y="-298.5" font-family="Helvetica,sans-Serif" font-size="10.00" fill="#000000">src/libbsn/include</text>
<text text-anchor="middle" x="247.8006" y="-287.5" font-family="Helvetica,sans-Serif" font-size="10.00" fill="#000000">/libbsn/goalmodel/GoalTree.hpp</text>
</g>
<!-- Node1 -->
<g id="node2" class="node">
<title>Node1</title>
<polygon fill="#ffffff" stroke="#bfbfbf" points="593.8006,-.5 593.8006,-19.5 637.8006,-19.5 637.8006,-.5 593.8006,-.5"/>
<text text-anchor="middle" x="615.8006" y="-7.5" font-family="Helvetica,sans-Serif" font-size="10.00" fill="#000000">string</text>
</g>
<!-- Node0&#45;&gt;Node1 -->
<g id="edge1" class="edge">
<title>Node0&#45;&gt;Node1</title>
<path fill="none" stroke="#191970" d="M332.9994,-290.952C456.152,-283.6774 677.508,-267.7788 753.8006,-244 811.9113,-225.8882 873.8006,-238.8678 873.8006,-178 873.8006,-178 873.8006,-178 873.8006,-122 873.8006,-88.1521 863.2052,-75.8662 835.8006,-56 806.1086,-34.4756 701.4115,-19.76 647.8625,-13.4589"/>
<polygon fill="#191970" stroke="#191970" points="648.2061,-9.9754 637.872,-12.3113 647.4072,-16.9297 648.2061,-9.9754"/>
</g>
<!-- Node2 -->
<g id="node3" class="node">
<title>Node2</title>
<polygon fill="#ffffff" stroke="#bfbfbf" points="28.8006,-224.5 28.8006,-243.5 66.8006,-243.5 66.8006,-224.5 28.8006,-224.5"/>
<text text-anchor="middle" x="47.8006" y="-231.5" font-family="Helvetica,sans-Serif" font-size="10.00" fill="#000000">map</text>
</g>
<!-- Node0&#45;&gt;Node2 -->
<g id="edge2" class="edge">
<title>Node0&#45;&gt;Node2</title>
<path fill="none" stroke="#191970" d="M198.8751,-280.4554C160.4741,-268.6471 108.3374,-252.6151 76.4344,-242.8049"/>
<polygon fill="#191970" stroke="#191970" points="77.4174,-239.4455 66.8303,-239.8516 75.3599,-246.1363 77.4174,-239.4455"/>
</g>
<!-- Node3 -->
<g id="node4" class="node">
<title>Node3</title>
<polygon fill="#ffffff" stroke="#bfbfbf" points="165.3006,-.5 165.3006,-19.5 230.3006,-19.5 230.3006,-.5 165.3006,-.5"/>
<text text-anchor="middle" x="197.8006" y="-7.5" font-family="Helvetica,sans-Serif" font-size="10.00" fill="#000000">stdexcept</text>
</g>
<!-- Node0&#45;&gt;Node3 -->
<g id="edge3" class="edge">
<title>Node0&#45;&gt;Node3</title>
<path fill="none" stroke="#191970" d="M220.9625,-280.2855C207.0744,-271.2646 190.7773,-258.7217 179.8006,-244 163.9117,-222.6901 163.7767,-214.1114 158.8006,-188 147.8169,-130.3639 135.9123,-110.8292 156.8006,-56 161.0281,-44.9034 169.2977,-34.7814 177.3094,-26.8751"/>
<polygon fill="#191970" stroke="#191970" points="180.071,-29.0916 185.0758,-19.7534 175.34,-23.9323 180.071,-29.0916"/>
</g>
<!-- Node4 -->
<g id="node5" class="node">
<title>Node4</title>
<polygon fill="#ffffff" stroke="#bfbfbf" points="402.3006,-.5 402.3006,-19.5 449.3006,-19.5 449.3006,-.5 402.3006,-.5"/>
<text text-anchor="middle" x="425.8006" y="-7.5" font-family="Helvetica,sans-Serif" font-size="10.00" fill="#000000">vector</text>
</g>
<!-- Node0&#45;&gt;Node4 -->
<g id="edge4" class="edge">
<title>Node0&#45;&gt;Node4</title>
<path fill="none" stroke="#191970" d="M324.1388,-280.439C410.6558,-261.1299 539.8006,-224.5164 539.8006,-178 539.8006,-178 539.8006,-178 539.8006,-122 539.8006,-75.4628 490.8623,-41.828 457.1142,-24.1659"/>
<polygon fill="#191970" stroke="#191970" points="458.5583,-20.9746 448.0516,-19.6105 455.4144,-27.2289 458.5583,-20.9746"/>
</g>
<!-- Node5 -->
<g id="node6" class="node">
<title>Node5</title>
<polygon fill="#ffffff" stroke="#bfbfbf" points="38.8006,-.5 38.8006,-19.5 96.8006,-19.5 96.8006,-.5 38.8006,-.5"/>
<text text-anchor="middle" x="67.8006" y="-7.5" font-family="Helvetica,sans-Serif" font-size="10.00" fill="#000000">memory</text>
</g>
<!-- Node0&#45;&gt;Node5 -->
<g id="edge5" class="edge">
<title>Node0&#45;&gt;Node5</title>
<path fill="none" stroke="#191970" d="M162.5119,-285.3681C106.7139,-277.0686 40.4624,-263.4939 19.8006,-244 -2.4019,-223.0524 .8006,-208.5246 .8006,-178 .8006,-178 .8006,-178 .8006,-122 .8006,-83.7946 29.8675,-47.3286 49.7109,-26.8854"/>
<polygon fill="#191970" stroke="#191970" points="52.3976,-29.1503 57.0359,-19.6248 47.4697,-24.1788 52.3976,-29.1503"/>
</g>
<!-- Node6 -->
<g id="node7" class="node">
<title>Node6</title>
<g id="a_node7"><a xlink:href="Node_8hpp.html" target="_top" xlink:title="libbsn/goalmodel/Node.hpp">
<polygon fill="#ffffff" stroke="#000000" points="171.8006,-56.5 171.8006,-75.5 321.8006,-75.5 321.8006,-56.5 171.8006,-56.5"/>
<text text-anchor="middle" x="246.8006" y="-63.5" font-family="Helvetica,sans-Serif" font-size="10.00" fill="#000000">libbsn/goalmodel/Node.hpp</text>
</a>
</g>
</g>
<!-- Node0&#45;&gt;Node6 -->
<g id="edge6" class="edge">
<title>Node0&#45;&gt;Node6</title>
<path fill="none" stroke="#191970" d="M230.9328,-280.3929C210.9193,-261.217 178.6484,-226.0271 165.8006,-188 151.4934,-145.6534 195.0413,-103.9301 223.7263,-81.9467"/>
<polygon fill="#191970" stroke="#191970" points="226.1093,-84.5377 232.0708,-75.7792 221.9486,-78.9084 226.1093,-84.5377"/>
</g>
<!-- Node7 -->
<g id="node8" class="node">
<title>Node7</title>
<g id="a_node8"><a xlink:href="Goal_8hpp.html" target="_top" xlink:title="libbsn/goalmodel/Goal.hpp">
<polygon fill="#ffffff" stroke="#000000" points="275.3006,-112.5 275.3006,-131.5 422.3006,-131.5 422.3006,-112.5 275.3006,-112.5"/>
<text text-anchor="middle" x="348.8006" y="-119.5" font-family="Helvetica,sans-Serif" font-size="10.00" fill="#000000">libbsn/goalmodel/Goal.hpp</text>
</a>
</g>
</g>
<!-- Node0&#45;&gt;Node7 -->
<g id="edge11" class="edge">
<title>Node0&#45;&gt;Node7</title>
<path fill="none" stroke="#191970" d="M262.3167,-280.3676C280.5222,-260.6177 311.5558,-224.2789 329.8006,-188 337.1667,-173.3529 342.1013,-155.3998 345.0913,-141.9177"/>
<polygon fill="#191970" stroke="#191970" points="348.5827,-142.3133 347.1562,-131.8149 341.7245,-140.9115 348.5827,-142.3133"/>
</g>
<!-- Node8 -->
<g id="node9" class="node">
<title>Node8</title>
<g id="a_node9"><a xlink:href="Task_8hpp.html" target="_top" xlink:title="libbsn/goalmodel/Task.hpp">
<polygon fill="#ffffff" stroke="#000000" points="174.8006,-168.5 174.8006,-187.5 320.8006,-187.5 320.8006,-168.5 174.8006,-168.5"/>
<text text-anchor="middle" x="247.8006" y="-175.5" font-family="Helvetica,sans-Serif" font-size="10.00" fill="#000000">libbsn/goalmodel/Task.hpp</text>
</a>
</g>
</g>
<!-- Node0&#45;&gt;Node8 -->
<g id="edge16" class="edge">
<title>Node0&#45;&gt;Node8</title>
<path fill="none" stroke="#191970" d="M247.8006,-280.1389C247.8006,-258.9692 247.8006,-220.8174 247.8006,-197.6112"/>
<polygon fill="#191970" stroke="#191970" points="251.3007,-197.5594 247.8006,-187.5595 244.3007,-197.5595 251.3007,-197.5594"/>
</g>
<!-- Node9 -->
<g id="node10" class="node">
<title>Node9</title>
<g id="a_node10"><a xlink:href="LeafTask_8hpp.html" target="_top" xlink:title="libbsn/goalmodel/LeafTask.hpp">
<polygon fill="#ffffff" stroke="#000000" points="577.3006,-224.5 577.3006,-243.5 744.3006,-243.5 744.3006,-224.5 577.3006,-224.5"/>
<text text-anchor="middle" x="660.8006" y="-231.5" font-family="Helvetica,sans-Serif" font-size="10.00" fill="#000000">libbsn/goalmodel/LeafTask.hpp</text>
</a>
</g>
</g>
<!-- Node0&#45;&gt;Node9 -->
<g id="edge23" class="edge">
<title>Node0&#45;&gt;Node9</title>
<path fill="none" stroke="#191970" d="M332.8737,-282.8317C407.5952,-271.7049 515.2148,-255.6792 586.5259,-245.0603"/>
<polygon fill="#191970" stroke="#191970" points="587.4001,-248.4688 596.7756,-243.534 586.3691,-241.5451 587.4001,-248.4688"/>
</g>
<!-- Node6&#45;&gt;Node1 -->
<g id="edge7" class="edge">
<title>Node6&#45;&gt;Node1</title>
<path fill="none" stroke="#191970" d="M309.8147,-56.4369C389.0411,-44.4134 522.0687,-24.2249 583.2367,-14.942"/>
<polygon fill="#191970" stroke="#191970" points="584.0886,-18.3528 593.4502,-13.3919 583.0382,-11.4321 584.0886,-18.3528"/>
</g>
<!-- Node6&#45;&gt;Node3 -->
<g id="edge9" class="edge">
<title>Node6&#45;&gt;Node3</title>
<path fill="none" stroke="#191970" d="M238.2655,-56.2455C231.3095,-48.2958 221.3124,-36.8706 212.9955,-27.3656"/>
<polygon fill="#191970" stroke="#191970" points="215.4571,-24.8637 206.238,-19.6427 210.189,-29.4732 215.4571,-24.8637"/>
</g>
<!-- Node6&#45;&gt;Node4 -->
<g id="edge8" class="edge">
<title>Node6&#45;&gt;Node4</title>
<path fill="none" stroke="#191970" d="M277.5718,-56.3733C309.6398,-46.3408 359.7173,-30.6741 392.645,-20.3727"/>
<polygon fill="#191970" stroke="#191970" points="393.7757,-23.6863 402.2745,-17.3601 391.6856,-17.0056 393.7757,-23.6863"/>
</g>
<!-- Node6&#45;&gt;Node5 -->
<g id="edge10" class="edge">
<title>Node6&#45;&gt;Node5</title>
<path fill="none" stroke="#191970" d="M216.0294,-56.3733C185.7733,-46.9076 139.485,-32.4264 106.6951,-22.1681"/>
<polygon fill="#191970" stroke="#191970" points="107.5739,-18.7758 96.985,-19.1303 105.4838,-25.4565 107.5739,-18.7758"/>
</g>
<!-- Node7&#45;&gt;Node1 -->
<g id="edge12" class="edge">
<title>Node7&#45;&gt;Node1</title>
<path fill="none" stroke="#191970" d="M367.4215,-112.4382C393.8451,-99.036 443.8956,-74.2608 487.8006,-56 519.9448,-42.6307 557.5176,-29.4039 583.6056,-20.5894"/>
<polygon fill="#191970" stroke="#191970" points="584.9796,-23.8203 593.3479,-17.3224 582.754,-17.1835 584.9796,-23.8203"/>
</g>
<!-- Node7&#45;&gt;Node3 -->
<g id="edge14" class="edge">
<title>Node7&#45;&gt;Node3</title>
<path fill="none" stroke="#191970" d="M348.8447,-112.1311C348.3707,-97.8994 345.4046,-71.6126 330.8006,-56 307.3605,-30.941 269.611,-19.5325 240.307,-14.339"/>
<polygon fill="#191970" stroke="#191970" points="240.7576,-10.8667 230.3313,-12.749 239.6557,-17.7794 240.7576,-10.8667"/>
</g>
<!-- Node7&#45;&gt;Node4 -->
<g id="edge13" class="edge">
<title>Node7&#45;&gt;Node4</title>
<path fill="none" stroke="#191970" d="M355.3656,-112.4509C368.2083,-93.7707 396.8405,-52.1238 413.3733,-28.0761"/>
<polygon fill="#191970" stroke="#191970" points="416.4711,-29.7482 419.2523,-19.5249 410.7028,-25.7825 416.4711,-29.7482"/>
</g>
<!-- Node7&#45;&gt;Node6 -->
<g id="edge15" class="edge">
<title>Node7&#45;&gt;Node6</title>
<path fill="none" stroke="#191970" d="M331.0336,-112.2455C315.0911,-103.4928 291.4747,-90.527 273.3017,-80.5496"/>
<polygon fill="#191970" stroke="#191970" points="274.8143,-77.3873 264.3641,-75.6427 271.4454,-83.5233 274.8143,-77.3873"/>
</g>
<!-- Node8&#45;&gt;Node1 -->
<g id="edge17" class="edge">
<title>Node8&#45;&gt;Node1</title>
<path fill="none" stroke="#191970" d="M321.1819,-168.7143C360.5793,-161.9175 409.2399,-150.5455 449.8006,-132 509.8978,-104.5219 569.715,-53.1588 598.3525,-26.7005"/>
<polygon fill="#191970" stroke="#191970" points="600.9851,-29.0303 605.8919,-19.6402 596.2003,-23.9208 600.9851,-29.0303"/>
</g>
<!-- Node8&#45;&gt;Node3 -->
<g id="edge19" class="edge">
<title>Node8&#45;&gt;Node3</title>
<path fill="none" stroke="#191970" d="M238.1966,-168.2891C217.64,-147.2384 170.6086,-97.5659 162.8006,-76 156.5117,-58.6295 168.0562,-40.1567 179.5362,-27.1857"/>
<polygon fill="#191970" stroke="#191970" points="182.139,-29.5281 186.5157,-19.8795 177.0773,-24.6927 182.139,-29.5281"/>
</g>
<!-- Node8&#45;&gt;Node4 -->
<g id="edge18" class="edge">
<title>Node8&#45;&gt;Node4</title>
<path fill="none" stroke="#191970" d="M321.1154,-168.9464C366.1996,-161.7023 417.9198,-149.7783 431.8006,-132 454.8557,-102.4716 443.2339,-55.5996 433.8157,-29.3826"/>
<polygon fill="#191970" stroke="#191970" points="436.9968,-27.9028 430.1448,-19.8218 430.4619,-30.4119 436.9968,-27.9028"/>
</g>
<!-- Node8&#45;&gt;Node5 -->
<g id="edge21" class="edge">
<title>Node8&#45;&gt;Node5</title>
<path fill="none" stroke="#191970" d="M233.2436,-168.4497C220.11,-159.5863 200.5008,-145.7285 184.8006,-132 145.4745,-97.6127 104.2677,-52.0586 82.8108,-27.4945"/>
<polygon fill="#191970" stroke="#191970" points="85.2764,-24.9955 76.0803,-19.734 79.9881,-29.5819 85.2764,-24.9955"/>
</g>
<!-- Node8&#45;&gt;Node6 -->
<g id="edge20" class="edge">
<title>Node8&#45;&gt;Node6</title>
<path fill="none" stroke="#191970" d="M247.7154,-168.4509C247.5523,-150.184 247.1931,-109.9553 246.9765,-85.6976"/>
<polygon fill="#191970" stroke="#191970" points="250.4749,-85.4932 246.8857,-75.5249 243.4752,-85.5558 250.4749,-85.4932"/>
</g>
<!-- Node8&#45;&gt;Node7 -->
<g id="edge22" class="edge">
<title>Node8&#45;&gt;Node7</title>
<path fill="none" stroke="#191970" d="M265.3935,-168.2455C281.1796,-159.4928 304.5645,-146.527 322.5593,-136.5496"/>
<polygon fill="#191970" stroke="#191970" points="324.3609,-139.5528 331.4094,-131.6427 320.9665,-133.4308 324.3609,-139.5528"/>
</g>
<!-- Node9&#45;&gt;Node1 -->
<g id="edge24" class="edge">
<title>Node9&#45;&gt;Node1</title>
<path fill="none" stroke="#191970" d="M690.9323,-224.3707C711.1798,-216.8151 737.5742,-204.7572 756.8006,-188 805.3813,-145.6585 856.9655,-106.3952 816.8006,-56 796.0749,-29.9952 699.5699,-17.508 648.1909,-12.6143"/>
<polygon fill="#191970" stroke="#191970" points="648.2317,-9.1037 637.9557,-11.6832 647.5974,-16.0749 648.2317,-9.1037"/>
</g>
<!-- Node9&#45;&gt;Node4 -->
<g id="edge25" class="edge">
<title>Node9&#45;&gt;Node4</title>
<path fill="none" stroke="#191970" d="M654.8031,-224.493C643.4948,-206.5229 618.314,-166.2958 597.8006,-132 577.7658,-98.5043 583.7654,-81.0094 553.8006,-56 526.6334,-33.3255 487.4114,-21.4346 459.5569,-15.4722"/>
<polygon fill="#191970" stroke="#191970" points="459.9778,-11.9874 449.4868,-13.4672 458.6108,-18.8526 459.9778,-11.9874"/>
</g>
<!-- Node9&#45;&gt;Node8 -->
<g id="edge30" class="edge">
<title>Node9&#45;&gt;Node8</title>
<path fill="none" stroke="#191970" d="M590.2727,-224.4369C517.512,-214.571 404.208,-199.2078 328.0623,-188.8829"/>
<polygon fill="#191970" stroke="#191970" points="328.4173,-185.3991 318.0377,-187.5237 327.4767,-192.3357 328.4173,-185.3991"/>
</g>
<!-- Node10 -->
<g id="node11" class="node">
<title>Node10</title>
<g id="a_node11"><a xlink:href="Context_8hpp.html" target="_top" xlink:title="libbsn/goalmodel/Context.hpp">
<polygon fill="#ffffff" stroke="#000000" points="606.3006,-112.5 606.3006,-131.5 769.3006,-131.5 769.3006,-112.5 606.3006,-112.5"/>
<text text-anchor="middle" x="687.8006" y="-119.5" font-family="Helvetica,sans-Serif" font-size="10.00" fill="#000000">libbsn/goalmodel/Context.hpp</text>
</a>
</g>
</g>
<!-- Node9&#45;&gt;Node10 -->
<g id="edge26" class="edge">
<title>Node9&#45;&gt;Node10</title>
<path fill="none" stroke="#191970" d="M663.1026,-224.4509C667.5262,-206.1013 677.2921,-165.5908 683.1312,-141.3693"/>
<polygon fill="#191970" stroke="#191970" points="686.5633,-142.0667 685.5045,-131.5249 679.7583,-140.4261 686.5633,-142.0667"/>
</g>
<!-- Node11 -->
<g id="node12" class="node">
<title>Node11</title>
<g id="a_node12"><a xlink:href="Property_8hpp.html" target="_top" xlink:title="libbsn/goalmodel/Property.hpp">
<polygon fill="#ffffff" stroke="#000000" points="643.8006,-56.5 643.8006,-75.5 807.8006,-75.5 807.8006,-56.5 643.8006,-56.5"/>
<text text-anchor="middle" x="725.8006" y="-63.5" font-family="Helvetica,sans-Serif" font-size="10.00" fill="#000000">libbsn/goalmodel/Property.hpp</text>
</a>
</g>
</g>
<!-- Node9&#45;&gt;Node11 -->
<g id="edge28" class="edge">
<title>Node9&#45;&gt;Node11</title>
<path fill="none" stroke="#191970" d="M680.0007,-224.3423C707.8675,-209.1051 758.4133,-176.5714 778.8006,-132 787.731,-112.4762 769.2079,-93.7416 751.6572,-81.2537"/>
<polygon fill="#191970" stroke="#191970" points="753.5069,-78.2805 743.244,-75.6491 749.6259,-84.1061 753.5069,-78.2805"/>
</g>
<!-- Node10&#45;&gt;Node1 -->
<g id="edge27" class="edge">
<title>Node10&#45;&gt;Node1</title>
<path fill="none" stroke="#191970" d="M672.6415,-112.4621C660.7012,-104.1988 644.503,-91.1991 634.8006,-76 625.7895,-61.8838 620.947,-43.3904 618.4113,-29.572"/>
<polygon fill="#191970" stroke="#191970" points="621.8631,-28.9918 616.8368,-19.6651 614.9499,-30.0906 621.8631,-28.9918"/>
</g>
<!-- Node11&#45;&gt;Node1 -->
<g id="edge29" class="edge">
<title>Node11&#45;&gt;Node1</title>
<path fill="none" stroke="#191970" d="M706.6401,-56.2455C689.2895,-47.4125 663.5106,-34.2887 643.8423,-24.2758"/>
<polygon fill="#191970" stroke="#191970" points="645.2412,-21.0605 634.7416,-19.6427 642.0653,-27.2986 645.2412,-21.0605"/>
</g>
</g>
</svg>
