<?xml version="1.0" encoding="UTF-8" standalone="no"?>
<!DOCTYPE svg PUBLIC "-//W3C//DTD SVG 1.1//EN"
 "http://www.w3.org/Graphics/SVG/1.1/DTD/svg11.dtd">
<!-- Generated by graphviz version 2.40.1 (20161225.0304)
 -->
<!-- Title: src/libbsn/src/goalmodel/Goal.cpp Pages: 1 -->
<svg width="293pt" height="207pt"
 viewBox="0.00 0.00 292.50 207.00" xmlns="http://www.w3.org/2000/svg" xmlns:xlink="http://www.w3.org/1999/xlink">
<g id="graph0" class="graph" transform="scale(1 1) rotate(0) translate(4 203)">
<title>src/libbsn/src/goalmodel/Goal.cpp</title>
<polygon fill="#ffffff" stroke="transparent" points="-4,4 -4,-203 288.5,-203 288.5,4 -4,4"/>
<!-- Node0 -->
<g id="node1" class="node">
<title>Node0</title>
<polygon fill="#bfbfbf" stroke="#000000" points="41.5,-168.5 41.5,-198.5 176.5,-198.5 176.5,-168.5 41.5,-168.5"/>
<text text-anchor="start" x="49.5" y="-186.5" font-family="Helvetica,sans-Serif" font-size="10.00" fill="#000000">src/libbsn/src/goalmodel</text>
<text text-anchor="middle" x="109" y="-175.5" font-family="Helvetica,sans-Serif" font-size="10.00" fill="#000000">/Goal.cpp</text>
</g>
<!-- Node1 -->
<g id="node2" class="node">
<title>Node1</title>
<g id="a_node2"><a xlink:href="Goal_8hpp.html" target="_top" xlink:title="libbsn/goalmodel/Goal.hpp">
<polygon fill="#ffffff" stroke="#000000" points="35.5,-112.5 35.5,-131.5 182.5,-131.5 182.5,-112.5 35.5,-112.5"/>
<text text-anchor="middle" x="109" y="-119.5" font-family="Helvetica,sans-Serif" font-size="10.00" fill="#000000">libbsn/goalmodel/Goal.hpp</text>
</a>
</g>
</g>
<!-- Node0&#45;&gt;Node1 -->
<g id="edge1" class="edge">
<title>Node0&#45;&gt;Node1</title>
<path fill="none" stroke="#191970" d="M109,-168.2977C109,-160.3834 109,-150.6043 109,-142.0759"/>
<polygon fill="#191970" stroke="#191970" points="112.5001,-141.8469 109,-131.8469 105.5001,-141.847 112.5001,-141.8469"/>
</g>
<!-- Node2 -->
<g id="node3" class="node">
<title>Node2</title>
<polygon fill="#ffffff" stroke="#bfbfbf" points="0,-.5 0,-19.5 44,-19.5 44,-.5 0,-.5"/>
<text text-anchor="middle" x="22" y="-7.5" font-family="Helvetica,sans-Serif" font-size="10.00" fill="#000000">string</text>
</g>
<!-- Node1&#45;&gt;Node2 -->
<g id="edge2" class="edge">
<title>Node1&#45;&gt;Node2</title>
<path fill="none" stroke="#191970" d="M100.416,-112.3054C92.3663,-103.1149 80.0916,-88.8427 70,-76 57.4819,-60.0693 43.9716,-41.3424 34.4835,-27.914"/>
<polygon fill="#191970" stroke="#191970" points="37.2305,-25.7355 28.6191,-19.5634 31.502,-29.7585 37.2305,-25.7355"/>
</g>
<!-- Node3 -->
<g id="node4" class="node">
<title>Node3</title>
<polygon fill="#ffffff" stroke="#bfbfbf" points="65.5,-.5 65.5,-19.5 112.5,-19.5 112.5,-.5 65.5,-.5"/>
<text text-anchor="middle" x="89" y="-7.5" font-family="Helvetica,sans-Serif" font-size="10.00" fill="#000000">vector</text>
</g>
<!-- Node1&#45;&gt;Node3 -->
<g id="edge3" class="edge">
<title>Node1&#45;&gt;Node3</title>
<path fill="none" stroke="#191970" d="M99.6382,-112.3788C91.8766,-103.6808 81.425,-90.1096 77,-76 72.1601,-60.5675 76.1027,-42.4558 80.7235,-29.1134"/>
<polygon fill="#191970" stroke="#191970" points="84.0689,-30.1668 84.4198,-19.5777 77.5421,-27.6367 84.0689,-30.1668"/>
</g>
<!-- Node4 -->
<g id="node5" class="node">
<title>Node4</title>
<polygon fill="#ffffff" stroke="#bfbfbf" points="219.5,-.5 219.5,-19.5 284.5,-19.5 284.5,-.5 219.5,-.5"/>
<text text-anchor="middle" x="252" y="-7.5" font-family="Helvetica,sans-Serif" font-size="10.00" fill="#000000">stdexcept</text>
</g>
<!-- Node1&#45;&gt;Node4 -->
<g id="edge4" class="edge">
<title>Node1&#45;&gt;Node4</title>
<path fill="none" stroke="#191970" d="M153.2821,-112.4618C188.3341,-103.9659 233.2771,-90.6413 245,-76 255.2288,-63.2248 256.2623,-44.3095 255.1551,-29.9996"/>
<polygon fill="#191970" stroke="#191970" points="258.5896,-29.2376 253.943,-19.7161 251.6377,-30.0571 258.5896,-29.2376"/>
</g>
<!-- Node5 -->
<g id="node6" class="node">
<title>Node5</title>
<g id="a_node6"><a xlink:href="Node_8hpp.html" target="_top" xlink:title="libbsn/goalmodel/Node.hpp">
<polygon fill="#ffffff" stroke="#000000" points="86,-56.5 86,-75.5 236,-75.5 236,-56.5 86,-56.5"/>
<text text-anchor="middle" x="161" y="-63.5" font-family="Helvetica,sans-Serif" font-size="10.00" fill="#000000">libbsn/goalmodel/Node.hpp</text>
</a>
</g>
</g>
<!-- Node1&#45;&gt;Node5 -->
<g id="edge5" class="edge">
<title>Node1&#45;&gt;Node5</title>
<path fill="none" stroke="#191970" d="M118.0577,-112.2455C125.5142,-104.2155 136.2634,-92.6394 145.1417,-83.0781"/>
<polygon fill="#191970" stroke="#191970" points="147.8063,-85.3522 152.0461,-75.6427 142.6768,-80.589 147.8063,-85.3522"/>
</g>
<!-- Node5&#45;&gt;Node2 -->
<g id="edge6" class="edge">
<title>Node5&#45;&gt;Node2</title>
<path fill="none" stroke="#191970" d="M137.105,-56.3733C114.0806,-47.0972 79.1004,-33.0045 53.7454,-22.7895"/>
<polygon fill="#191970" stroke="#191970" points="54.791,-19.4374 44.2075,-18.9469 52.1751,-25.9303 54.791,-19.4374"/>
</g>
<!-- Node5&#45;&gt;Node3 -->
<g id="edge7" class="edge">
<title>Node5&#45;&gt;Node3</title>
<path fill="none" stroke="#191970" d="M148.4586,-56.2455C137.7213,-47.8943 122.0527,-35.7076 109.4953,-25.9408"/>
<polygon fill="#191970" stroke="#191970" points="111.4401,-23.0194 101.3977,-19.6427 107.1425,-28.5449 111.4401,-23.0194"/>
</g>
<!-- Node5&#45;&gt;Node4 -->
<g id="edge8" class="edge">
<title>Node5&#45;&gt;Node4</title>
<path fill="none" stroke="#191970" d="M176.851,-56.2455C190.8132,-47.6534 211.3728,-35.0014 227.4596,-25.1018"/>
<polygon fill="#191970" stroke="#191970" points="229.6484,-27.8645 236.3307,-19.6427 225.9797,-21.9029 229.6484,-27.8645"/>
</g>
<!-- Node6 -->
<g id="node7" class="node">
<title>Node6</title>
<polygon fill="#ffffff" stroke="#bfbfbf" points="132,-.5 132,-19.5 190,-19.5 190,-.5 132,-.5"/>
<text text-anchor="middle" x="161" y="-7.5" font-family="Helvetica,sans-Serif" font-size="10.00" fill="#000000">memory</text>
</g>
<!-- Node5&#45;&gt;Node6 -->
<g id="edge9" class="edge">
<title>Node5&#45;&gt;Node6</title>
<path fill="none" stroke="#191970" d="M161,-56.2455C161,-48.9382 161,-38.6944 161,-29.7046"/>
<polygon fill="#191970" stroke="#191970" points="164.5001,-29.6426 161,-19.6427 157.5001,-29.6427 164.5001,-29.6426"/>
</g>
</g>
</svg>
