<?xml version="1.0" encoding="UTF-8" standalone="no"?>
<!DOCTYPE svg PUBLIC "-//W3C//DTD SVG 1.1//EN"
 "http://www.w3.org/Graphics/SVG/1.1/DTD/svg11.dtd">
<!-- Generated by graphviz version 2.40.1 (20161225.0304)
 -->
<!-- Title: src/libbsn/include/libbsn/goalmodel/Goal.hpp Pages: 1 -->
<svg width="293pt" height="151pt"
 viewBox="0.00 0.00 292.50 151.00" xmlns="http://www.w3.org/2000/svg" xmlns:xlink="http://www.w3.org/1999/xlink">
<g id="graph0" class="graph" transform="scale(1 1) rotate(0) translate(4 147)">
<title>src/libbsn/include/libbsn/goalmodel/Goal.hpp</title>
<polygon fill="#ffffff" stroke="transparent" points="-4,4 -4,-147 288.5,-147 288.5,4 -4,4"/>
<!-- Node0 -->
<g id="node1" class="node">
<title>Node0</title>
<polygon fill="#bfbfbf" stroke="#000000" points="34,-112.5 34,-142.5 184,-142.5 184,-112.5 34,-112.5"/>
<text text-anchor="start" x="42" y="-130.5" font-family="Helvetica,sans-Serif" font-size="10.00" fill="#000000">src/libbsn/include</text>
<text text-anchor="middle" x="109" y="-119.5" font-family="Helvetica,sans-Serif" font-size="10.00" fill="#000000">/libbsn/goalmodel/Goal.hpp</text>
</g>
<!-- Node1 -->
<g id="node2" class="node">
<title>Node1</title>
<polygon fill="#ffffff" stroke="#bfbfbf" points="0,-.5 0,-19.5 44,-19.5 44,-.5 0,-.5"/>
<text text-anchor="middle" x="22" y="-7.5" font-family="Helvetica,sans-Serif" font-size="10.00" fill="#000000">string</text>
</g>
<!-- Node0&#45;&gt;Node1 -->
<g id="edge1" class="edge">
<title>Node0&#45;&gt;Node1</title>
<path fill="none" stroke="#191970" d="M97.6263,-112.1389C81.5242,-90.3919 52.1529,-50.7238 35.1399,-27.7465"/>
<polygon fill="#191970" stroke="#191970" points="37.8416,-25.5135 29.0781,-19.5595 32.2159,-29.679 37.8416,-25.5135"/>
</g>
<!-- Node2 -->
<g id="node3" class="node">
<title>Node2</title>
<polygon fill="#ffffff" stroke="#bfbfbf" points="65.5,-.5 65.5,-19.5 112.5,-19.5 112.5,-.5 65.5,-.5"/>
<text text-anchor="middle" x="89" y="-7.5" font-family="Helvetica,sans-Serif" font-size="10.00" fill="#000000">vector</text>
</g>
<!-- Node0&#45;&gt;Node2 -->
<g id="edge2" class="edge">
<title>Node0&#45;&gt;Node2</title>
<path fill="none" stroke="#191970" d="M96.4336,-112.3612C89.2017,-102.6361 80.8131,-89.3614 77,-76 72.5616,-60.4473 76.4701,-42.3458 80.9756,-29.0379"/>
<polygon fill="#191970" stroke="#191970" points="84.3065,-30.1247 84.5689,-19.5331 77.7587,-27.6493 84.3065,-30.1247"/>
</g>
<!-- Node3 -->
<g id="node4" class="node">
<title>Node3</title>
<polygon fill="#ffffff" stroke="#bfbfbf" points="219.5,-.5 219.5,-19.5 284.5,-19.5 284.5,-.5 219.5,-.5"/>
<text text-anchor="middle" x="252" y="-7.5" font-family="Helvetica,sans-Serif" font-size="10.00" fill="#000000">stdexcept</text>
</g>
<!-- Node0&#45;&gt;Node3 -->
<g id="edge3" class="edge">
<title>Node0&#45;&gt;Node3</title>
<path fill="none" stroke="#191970" d="M184.2609,-114.8989C207.1278,-107.3528 230.1155,-95.2883 245,-76 254.9983,-63.0435 256.057,-44.1481 255.018,-29.8919"/>
<polygon fill="#191970" stroke="#191970" points="258.4625,-29.2011 253.8658,-19.6554 251.5064,-29.9841 258.4625,-29.2011"/>
</g>
<!-- Node4 -->
<g id="node5" class="node">
<title>Node4</title>
<g id="a_node5"><a xlink:href="Node_8hpp.html" target="_top" xlink:title="libbsn/goalmodel/Node.hpp">
<polygon fill="#ffffff" stroke="#000000" points="86,-56.5 86,-75.5 236,-75.5 236,-56.5 86,-56.5"/>
<text text-anchor="middle" x="161" y="-63.5" font-family="Helvetica,sans-Serif" font-size="10.00" fill="#000000">libbsn/goalmodel/Node.hpp</text>
</a>
</g>
</g>
<!-- Node0&#45;&gt;Node4 -->
<g id="edge4" class="edge">
<title>Node0&#45;&gt;Node4</title>
<path fill="none" stroke="#191970" d="M121.8539,-112.2977C129.2224,-103.5831 138.5026,-92.6075 146.1777,-83.5302"/>
<polygon fill="#191970" stroke="#191970" points="148.8902,-85.743 152.6741,-75.8469 143.5448,-81.2233 148.8902,-85.743"/>
</g>
<!-- Node4&#45;&gt;Node1 -->
<g id="edge5" class="edge">
<title>Node4&#45;&gt;Node1</title>
<path fill="none" stroke="#191970" d="M137.105,-56.3733C114.0806,-47.0972 79.1004,-33.0045 53.7454,-22.7895"/>
<polygon fill="#191970" stroke="#191970" points="54.791,-19.4374 44.2075,-18.9469 52.1751,-25.9303 54.791,-19.4374"/>
</g>
<!-- Node4&#45;&gt;Node2 -->
<g id="edge6" class="edge">
<title>Node4&#45;&gt;Node2</title>
<path fill="none" stroke="#191970" d="M148.4586,-56.2455C137.7213,-47.8943 122.0527,-35.7076 109.4953,-25.9408"/>
<polygon fill="#191970" stroke="#191970" points="111.4401,-23.0194 101.3977,-19.6427 107.1425,-28.5449 111.4401,-23.0194"/>
</g>
<!-- Node4&#45;&gt;Node3 -->
<g id="edge7" class="edge">
<title>Node4&#45;&gt;Node3</title>
<path fill="none" stroke="#191970" d="M176.851,-56.2455C190.8132,-47.6534 211.3728,-35.0014 227.4596,-25.1018"/>
<polygon fill="#191970" stroke="#191970" points="229.6484,-27.8645 236.3307,-19.6427 225.9797,-21.9029 229.6484,-27.8645"/>
</g>
<!-- Node5 -->
<g id="node6" class="node">
<title>Node5</title>
<polygon fill="#ffffff" stroke="#bfbfbf" points="132,-.5 132,-19.5 190,-19.5 190,-.5 132,-.5"/>
<text text-anchor="middle" x="161" y="-7.5" font-family="Helvetica,sans-Serif" font-size="10.00" fill="#000000">memory</text>
</g>
<!-- Node4&#45;&gt;Node5 -->
<g id="edge8" class="edge">
<title>Node4&#45;&gt;Node5</title>
<path fill="none" stroke="#191970" d="M161,-56.2455C161,-48.9382 161,-38.6944 161,-29.7046"/>
<polygon fill="#191970" stroke="#191970" points="164.5001,-29.6426 161,-19.6427 157.5001,-29.6427 164.5001,-29.6426"/>
</g>
</g>
</svg>
