<?xml version="1.0" encoding="UTF-8" standalone="no"?>
<!DOCTYPE svg PUBLIC "-//W3C//DTD SVG 1.1//EN"
 "http://www.w3.org/Graphics/SVG/1.1/DTD/svg11.dtd">
<!-- Generated by graphviz version 2.40.1 (20161225.0304)
 -->
<!-- Title: src/libbsn/include/libbsn/goalmodel/Goal.hpp Pages: 1 -->
<svg width="1649pt" height="474pt"
 viewBox="0.00 0.00 1648.50 474.00" xmlns="http://www.w3.org/2000/svg" xmlns:xlink="http://www.w3.org/1999/xlink">
<g id="graph0" class="graph" transform="scale(1 1) rotate(0) translate(4 470)">
<title>src/libbsn/include/libbsn/goalmodel/Goal.hpp</title>
<polygon fill="#ffffff" stroke="transparent" points="-4,4 -4,-470 1644.5,-470 1644.5,4 -4,4"/>
<!-- Node6 -->
<g id="node1" class="node">
<title>Node6</title>
<polygon fill="#bfbfbf" stroke="#000000" points="1103,-435.5 1103,-465.5 1253,-465.5 1253,-435.5 1103,-435.5"/>
<text text-anchor="start" x="1111" y="-453.5" font-family="Helvetica,sans-Serif" font-size="10.00" fill="#000000">src/libbsn/include</text>
<text text-anchor="middle" x="1178" y="-442.5" font-family="Helvetica,sans-Serif" font-size="10.00" fill="#000000">/libbsn/goalmodel/Goal.hpp</text>
</g>
<!-- Node7 -->
<g id="node2" class="node">
<title>Node7</title>
<g id="a_node2"><a xlink:href="GoalTree_8hpp.html" target="_top" xlink:title="src/libbsn/include\l/libbsn/goalmodel/GoalTree.hpp">
<polygon fill="#ffffff" stroke="#000000" points="413,-234.5 413,-264.5 583,-264.5 583,-234.5 413,-234.5"/>
<text text-anchor="start" x="421" y="-252.5" font-family="Helvetica,sans-Serif" font-size="10.00" fill="#000000">src/libbsn/include</text>
<text text-anchor="middle" x="498" y="-241.5" font-family="Helvetica,sans-Serif" font-size="10.00" fill="#000000">/libbsn/goalmodel/GoalTree.hpp</text>
</a>
</g>
</g>
<!-- Node6&#45;&gt;Node7 -->
<g id="edge1" class="edge">
<title>Node6&#45;&gt;Node7</title>
<path fill="none" stroke="#191970" d="M1092.6049,-441.4698C1020.9354,-433.0658 916.1146,-418.8432 826,-399 723.6857,-376.4704 692.7248,-380.7639 600,-332 565.5297,-313.8721 531.599,-283.1519 512.867,-264.7503"/>
<polygon fill="#191970" stroke="#191970" points="1092.5962,-444.9922 1102.9329,-442.6675 1093.4026,-438.0387 1092.5962,-444.9922"/>
</g>
<!-- Node9 -->
<g id="node4" class="node">
<title>Node9</title>
<g id="a_node4"><a xlink:href="GoalTreeTest_8cpp.html" target="_top" xlink:title="src/libbsn/test/unit\l/goalmodel/GoalTreeTest.cpp">
<polygon fill="#ffffff" stroke="#000000" points="299.5,-162 299.5,-192 456.5,-192 456.5,-162 299.5,-162"/>
<text text-anchor="start" x="307.5" y="-180" font-family="Helvetica,sans-Serif" font-size="10.00" fill="#000000">src/libbsn/test/unit</text>
<text text-anchor="middle" x="378" y="-169" font-family="Helvetica,sans-Serif" font-size="10.00" fill="#000000">/goalmodel/GoalTreeTest.cpp</text>
</a>
</g>
</g>
<!-- Node6&#45;&gt;Node9 -->
<g id="edge38" class="edge">
<title>Node6&#45;&gt;Node9</title>
<path fill="none" stroke="#191970" d="M1092.5903,-444.7518C971.5941,-436.0783 756.5823,-418.5655 681,-399 534.1097,-360.9755 450.6245,-391.6079 367,-265 352.4047,-242.9027 362.3874,-210.7741 370.51,-192.0687"/>
<polygon fill="#191970" stroke="#191970" points="1092.7012,-448.2685 1102.9246,-445.4875 1093.1984,-441.2861 1092.7012,-448.2685"/>
</g>
<!-- Node10 -->
<g id="node5" class="node">
<title>Node10</title>
<g id="a_node5"><a xlink:href="DataAccess_8hpp.html" target="_top" xlink:title="src/sa&#45;bsn/knowledge\l_repository/data_access\l/include/data_access/DataAccess.hpp">
<polygon fill="#ffffff" stroke="#000000" points="43.5,-156.5 43.5,-197.5 242.5,-197.5 242.5,-156.5 43.5,-156.5"/>
<text text-anchor="start" x="51.5" y="-185.5" font-family="Helvetica,sans-Serif" font-size="10.00" fill="#000000">src/sa&#45;bsn/knowledge</text>
<text text-anchor="start" x="51.5" y="-174.5" font-family="Helvetica,sans-Serif" font-size="10.00" fill="#000000">_repository/data_access</text>
<text text-anchor="middle" x="143" y="-163.5" font-family="Helvetica,sans-Serif" font-size="10.00" fill="#000000">/include/data_access/DataAccess.hpp</text>
</a>
</g>
</g>
<!-- Node6&#45;&gt;Node10 -->
<g id="edge40" class="edge">
<title>Node6&#45;&gt;Node10</title>
<path fill="none" stroke="#191970" d="M1092.3884,-448.5019C937.4127,-444.1244 616.5525,-431.3621 510,-399 367.1406,-355.6108 222.9366,-244.0103 167.1252,-197.6604"/>
<polygon fill="#191970" stroke="#191970" points="1092.7106,-452.012 1102.8037,-448.7905 1092.9045,-445.0147 1092.7106,-452.012"/>
</g>
<!-- Node13 -->
<g id="node8" class="node">
<title>Node13</title>
<g id="a_node8"><a xlink:href="CostEngine_8hpp.html" target="_top" xlink:title="src/sa&#45;bsn/system_manager\l/adaptation_engine/include\l/engine/CostEngine.hpp">
<polygon fill="#ffffff" stroke="#000000" points="1010,-78.5 1010,-119.5 1164,-119.5 1164,-78.5 1010,-78.5"/>
<text text-anchor="start" x="1018" y="-107.5" font-family="Helvetica,sans-Serif" font-size="10.00" fill="#000000">src/sa&#45;bsn/system_manager</text>
<text text-anchor="start" x="1018" y="-96.5" font-family="Helvetica,sans-Serif" font-size="10.00" fill="#000000">/adaptation_engine/include</text>
<text text-anchor="middle" x="1087" y="-85.5" font-family="Helvetica,sans-Serif" font-size="10.00" fill="#000000">/engine/CostEngine.hpp</text>
</a>
</g>
</g>
<!-- Node6&#45;&gt;Node13 -->
<g id="edge41" class="edge">
<title>Node6&#45;&gt;Node13</title>
<path fill="none" stroke="#191970" d="M1223.7395,-431.0631C1265.9071,-409.7153 1322,-371.0633 1322,-316.5 1322,-316.5 1322,-316.5 1322,-249.5 1322,-173.073 1232.7668,-133.6891 1164.2733,-114.7161"/>
<polygon fill="#191970" stroke="#191970" points="1222.1533,-427.9427 1214.7099,-435.4823 1225.2305,-434.2301 1222.1533,-427.9427"/>
</g>
<!-- Node16 -->
<g id="node11" class="node">
<title>Node16</title>
<g id="a_node11"><a xlink:href="Engine_8hpp.html" target="_top" xlink:title="src/sa&#45;bsn/system_manager\l/adaptation_engine/include\l/engine/Engine.hpp">
<polygon fill="#ffffff" stroke="#000000" points="872,-156.5 872,-197.5 1026,-197.5 1026,-156.5 872,-156.5"/>
<text text-anchor="start" x="880" y="-185.5" font-family="Helvetica,sans-Serif" font-size="10.00" fill="#000000">src/sa&#45;bsn/system_manager</text>
<text text-anchor="start" x="880" y="-174.5" font-family="Helvetica,sans-Serif" font-size="10.00" fill="#000000">/adaptation_engine/include</text>
<text text-anchor="middle" x="949" y="-163.5" font-family="Helvetica,sans-Serif" font-size="10.00" fill="#000000">/engine/Engine.hpp</text>
</a>
</g>
</g>
<!-- Node6&#45;&gt;Node16 -->
<g id="edge42" class="edge">
<title>Node6&#45;&gt;Node16</title>
<path fill="none" stroke="#191970" d="M1194.6987,-427.0087C1223.1477,-383.854 1273.6221,-291.1512 1227,-234 1202.0466,-203.4111 1099.4003,-188.7828 1026.1069,-182.1194"/>
<polygon fill="#191970" stroke="#191970" points="1191.7039,-425.1895 1189.0052,-435.4348 1197.504,-429.1086 1191.7039,-425.1895"/>
</g>
<!-- Node17 -->
<g id="node12" class="node">
<title>Node17</title>
<g id="a_node12"><a xlink:href="ReliabilityEngine_8hpp.html" target="_top" xlink:title="src/sa&#45;bsn/system_manager\l/adaptation_engine/include\l/engine/ReliabilityEngine.hpp">
<polygon fill="#ffffff" stroke="#000000" points="406,-78.5 406,-119.5 564,-119.5 564,-78.5 406,-78.5"/>
<text text-anchor="start" x="414" y="-107.5" font-family="Helvetica,sans-Serif" font-size="10.00" fill="#000000">src/sa&#45;bsn/system_manager</text>
<text text-anchor="start" x="414" y="-96.5" font-family="Helvetica,sans-Serif" font-size="10.00" fill="#000000">/adaptation_engine/include</text>
<text text-anchor="middle" x="485" y="-85.5" font-family="Helvetica,sans-Serif" font-size="10.00" fill="#000000">/engine/ReliabilityEngine.hpp</text>
</a>
</g>
</g>
<!-- Node6&#45;&gt;Node17 -->
<g id="edge43" class="edge">
<title>Node6&#45;&gt;Node17</title>
<path fill="none" stroke="#191970" d="M1092.4993,-449.6166C823.9365,-445.7214 15,-424.9847 15,-316.5 15,-316.5 15,-316.5 15,-249.5 15,-207.0951 2.9156,-184.8433 34,-156 40.7615,-149.726 278.2915,-122.2036 405.8438,-107.8231"/>
<polygon fill="#191970" stroke="#191970" points="1092.5401,-453.1174 1102.5884,-449.7587 1092.6387,-446.1181 1092.5401,-453.1174"/>
</g>
<!-- Node21 -->
<g id="node16" class="node">
<title>Node21</title>
<g id="a_node16"><a xlink:href="Task_8hpp.html" target="_top" xlink:title="src/libbsn/include\l/libbsn/goalmodel/Task.hpp">
<polygon fill="#ffffff" stroke="#000000" points="834.5,-368.5 834.5,-398.5 983.5,-398.5 983.5,-368.5 834.5,-368.5"/>
<text text-anchor="start" x="842.5" y="-386.5" font-family="Helvetica,sans-Serif" font-size="10.00" fill="#000000">src/libbsn/include</text>
<text text-anchor="middle" x="909" y="-375.5" font-family="Helvetica,sans-Serif" font-size="10.00" fill="#000000">/libbsn/goalmodel/Task.hpp</text>
</a>
</g>
</g>
<!-- Node6&#45;&gt;Node21 -->
<g id="edge17" class="edge">
<title>Node6&#45;&gt;Node21</title>
<path fill="none" stroke="#191970" d="M1107.8291,-433.0225C1064.9442,-422.3411 1010.6461,-408.8171 969.6322,-398.6017"/>
<polygon fill="#191970" stroke="#191970" points="1107.0817,-436.4432 1117.6311,-435.4639 1108.7735,-429.6507 1107.0817,-436.4432"/>
</g>
<!-- Node25 -->
<g id="node20" class="node">
<title>Node25</title>
<g id="a_node20"><a xlink:href="TaskTest_8cpp.html" target="_top" xlink:title="src/libbsn/test/unit\l/goalmodel/TaskTest.cpp">
<polygon fill="#ffffff" stroke="#000000" points="1082,-234.5 1082,-264.5 1218,-264.5 1218,-234.5 1082,-234.5"/>
<text text-anchor="start" x="1090" y="-252.5" font-family="Helvetica,sans-Serif" font-size="10.00" fill="#000000">src/libbsn/test/unit</text>
<text text-anchor="middle" x="1150" y="-241.5" font-family="Helvetica,sans-Serif" font-size="10.00" fill="#000000">/goalmodel/TaskTest.cpp</text>
</a>
</g>
</g>
<!-- Node6&#45;&gt;Node25 -->
<g id="edge39" class="edge">
<title>Node6&#45;&gt;Node25</title>
<path fill="none" stroke="#191970" d="M1185.6653,-425.3989C1193.6191,-395.0805 1203.0849,-342.9299 1189,-301 1184.3573,-287.1789 1174.3728,-274.1144 1165.6689,-264.6021"/>
<polygon fill="#191970" stroke="#191970" points="1182.2581,-424.588 1182.9561,-435.1598 1189.0031,-426.4601 1182.2581,-424.588"/>
</g>
<!-- Node27 -->
<g id="node22" class="node">
<title>Node27</title>
<g id="a_node22"><a xlink:href="Goal_8cpp.html" target="_top" xlink:title="src/libbsn/src/goalmodel\l/Goal.cpp">
<polygon fill="#ffffff" stroke="#000000" points="1350.5,-368.5 1350.5,-398.5 1485.5,-398.5 1485.5,-368.5 1350.5,-368.5"/>
<text text-anchor="start" x="1358.5" y="-386.5" font-family="Helvetica,sans-Serif" font-size="10.00" fill="#000000">src/libbsn/src/goalmodel</text>
<text text-anchor="middle" x="1418" y="-375.5" font-family="Helvetica,sans-Serif" font-size="10.00" fill="#000000">/Goal.cpp</text>
</a>
</g>
</g>
<!-- Node6&#45;&gt;Node27 -->
<g id="edge36" class="edge">
<title>Node6&#45;&gt;Node27</title>
<path fill="none" stroke="#191970" d="M1241.8177,-432.6842C1279.8862,-422.0568 1327.6972,-408.7095 1363.9044,-398.6017"/>
<polygon fill="#191970" stroke="#191970" points="1240.5513,-429.4039 1231.8607,-435.4639 1242.4335,-436.1461 1240.5513,-429.4039"/>
</g>
<!-- Node28 -->
<g id="node23" class="node">
<title>Node28</title>
<g id="a_node23"><a xlink:href="GoalTest_8cpp.html" target="_top" xlink:title="src/libbsn/test/unit\l/goalmodel/GoalTest.cpp">
<polygon fill="#ffffff" stroke="#000000" points="1503.5,-368.5 1503.5,-398.5 1640.5,-398.5 1640.5,-368.5 1503.5,-368.5"/>
<text text-anchor="start" x="1511.5" y="-386.5" font-family="Helvetica,sans-Serif" font-size="10.00" fill="#000000">src/libbsn/test/unit</text>
<text text-anchor="middle" x="1572" y="-375.5" font-family="Helvetica,sans-Serif" font-size="10.00" fill="#000000">/goalmodel/GoalTest.cpp</text>
</a>
</g>
</g>
<!-- Node6&#45;&gt;Node28 -->
<g id="edge37" class="edge">
<title>Node6&#45;&gt;Node28</title>
<path fill="none" stroke="#191970" d="M1263.1047,-437.5626C1327.0137,-427.6317 1416.6328,-413.2482 1495,-399 1497.6833,-398.5121 1500.4172,-398.0059 1503.1776,-397.4872"/>
<polygon fill="#191970" stroke="#191970" points="1262.4199,-434.1268 1253.0741,-439.1175 1263.4922,-441.0442 1262.4199,-434.1268"/>
</g>
<!-- Node8 -->
<g id="node3" class="node">
<title>Node8</title>
<g id="a_node3"><a xlink:href="GoalTree_8cpp.html" target="_top" xlink:title="src/libbsn/src/goalmodel\l/GoalTree.cpp">
<polygon fill="#ffffff" stroke="#000000" points="513.5,-162 513.5,-192 648.5,-192 648.5,-162 513.5,-162"/>
<text text-anchor="start" x="521.5" y="-180" font-family="Helvetica,sans-Serif" font-size="10.00" fill="#000000">src/libbsn/src/goalmodel</text>
<text text-anchor="middle" x="581" y="-169" font-family="Helvetica,sans-Serif" font-size="10.00" fill="#000000">/GoalTree.cpp</text>
</a>
</g>
</g>
<!-- Node7&#45;&gt;Node8 -->
<g id="edge2" class="edge">
<title>Node7&#45;&gt;Node8</title>
<path fill="none" stroke="#191970" d="M523.0055,-227.6579C536.1923,-216.1393 552.0329,-202.3026 563.8244,-192.0028"/>
<polygon fill="#191970" stroke="#191970" points="520.4265,-225.2633 515.1977,-234.478 525.0316,-230.5353 520.4265,-225.2633"/>
</g>
<!-- Node7&#45;&gt;Node9 -->
<g id="edge3" class="edge">
<title>Node7&#45;&gt;Node9</title>
<path fill="none" stroke="#191970" d="M464.5188,-229.2718C444.9559,-217.4525 420.6843,-202.7884 402.8322,-192.0028"/>
<polygon fill="#191970" stroke="#191970" points="462.7668,-232.3025 473.1359,-234.478 466.3867,-226.311 462.7668,-232.3025"/>
</g>
<!-- Node7&#45;&gt;Node10 -->
<g id="edge4" class="edge">
<title>Node7&#45;&gt;Node10</title>
<path fill="none" stroke="#191970" d="M414.3688,-232.4204C362.9717,-221.9238 296.8327,-208.4165 242.7175,-197.3648"/>
<polygon fill="#191970" stroke="#191970" points="413.9456,-235.9061 424.4438,-234.478 415.3464,-229.0477 413.9456,-235.9061"/>
</g>
<!-- Node7&#45;&gt;Node13 -->
<g id="edge7" class="edge">
<title>Node7&#45;&gt;Node13</title>
<path fill="none" stroke="#191970" d="M566.5017,-231.9176C639.8462,-213.1002 759.6385,-182.3896 863,-156 911.7956,-143.5418 966.5825,-129.5997 1009.7594,-118.6226"/>
<polygon fill="#191970" stroke="#191970" points="565.2837,-228.6166 556.4673,-234.4921 567.0234,-235.397 565.2837,-228.6166"/>
</g>
<!-- Node7&#45;&gt;Node16 -->
<g id="edge10" class="edge">
<title>Node7&#45;&gt;Node16</title>
<path fill="none" stroke="#191970" d="M593.0198,-234.2252C675.9068,-220.9008 794.6499,-201.8124 871.794,-189.4112"/>
<polygon fill="#191970" stroke="#191970" points="592.4123,-230.7778 583.0946,-235.8207 593.5234,-237.6891 592.4123,-230.7778"/>
</g>
<!-- Node7&#45;&gt;Node17 -->
<g id="edge16" class="edge">
<title>Node7&#45;&gt;Node17</title>
<path fill="none" stroke="#191970" d="M495.7918,-223.9356C493.2483,-194.4899 489.1196,-146.6924 486.775,-119.5494"/>
<polygon fill="#191970" stroke="#191970" points="492.3343,-224.5794 496.6819,-234.241 499.3083,-223.9769 492.3343,-224.5794"/>
</g>
<!-- Node11 -->
<g id="node6" class="node">
<title>Node11</title>
<g id="a_node6"><a xlink:href="data__access_8cpp.html" target="_top" xlink:title="src/sa&#45;bsn/knowledge\l_repository/data_access\l/apps/data_access.cpp">
<polygon fill="#ffffff" stroke="#000000" points="152,-78.5 152,-119.5 286,-119.5 286,-78.5 152,-78.5"/>
<text text-anchor="start" x="160" y="-107.5" font-family="Helvetica,sans-Serif" font-size="10.00" fill="#000000">src/sa&#45;bsn/knowledge</text>
<text text-anchor="start" x="160" y="-96.5" font-family="Helvetica,sans-Serif" font-size="10.00" fill="#000000">_repository/data_access</text>
<text text-anchor="middle" x="219" y="-85.5" font-family="Helvetica,sans-Serif" font-size="10.00" fill="#000000">/apps/data_access.cpp</text>
</a>
</g>
</g>
<!-- Node10&#45;&gt;Node11 -->
<g id="edge5" class="edge">
<title>Node10&#45;&gt;Node11</title>
<path fill="none" stroke="#191970" d="M170.6125,-148.6609C179.9493,-139.0783 190.1924,-128.5657 198.8407,-119.6898"/>
<polygon fill="#191970" stroke="#191970" points="167.8385,-146.4926 163.3666,-156.0974 172.8521,-151.3776 167.8385,-146.4926"/>
</g>
<!-- Node12 -->
<g id="node7" class="node">
<title>Node12</title>
<g id="a_node7"><a xlink:href="DataAccess_8cpp.html" target="_top" xlink:title="src/sa&#45;bsn/knowledge\l_repository/data_access\l/src/DataAccess.cpp">
<polygon fill="#ffffff" stroke="#000000" points="0,-78.5 0,-119.5 134,-119.5 134,-78.5 0,-78.5"/>
<text text-anchor="start" x="8" y="-107.5" font-family="Helvetica,sans-Serif" font-size="10.00" fill="#000000">src/sa&#45;bsn/knowledge</text>
<text text-anchor="start" x="8" y="-96.5" font-family="Helvetica,sans-Serif" font-size="10.00" fill="#000000">_repository/data_access</text>
<text text-anchor="middle" x="67" y="-85.5" font-family="Helvetica,sans-Serif" font-size="10.00" fill="#000000">/src/DataAccess.cpp</text>
</a>
</g>
</g>
<!-- Node10&#45;&gt;Node12 -->
<g id="edge6" class="edge">
<title>Node10&#45;&gt;Node12</title>
<path fill="none" stroke="#191970" d="M115.3875,-148.6609C106.0507,-139.0783 95.8076,-128.5657 87.1593,-119.6898"/>
<polygon fill="#191970" stroke="#191970" points="113.1479,-151.3776 122.6334,-156.0974 118.1615,-146.4926 113.1479,-151.3776"/>
</g>
<!-- Node14 -->
<g id="node9" class="node">
<title>Node14</title>
<g id="a_node9"><a xlink:href="cost__engine_8cpp.html" target="_top" xlink:title="src/sa&#45;bsn/system_manager\l/adaptation_engine/apps\l/cost_engine.cpp">
<polygon fill="#ffffff" stroke="#000000" points="924,-.5 924,-41.5 1078,-41.5 1078,-.5 924,-.5"/>
<text text-anchor="start" x="932" y="-29.5" font-family="Helvetica,sans-Serif" font-size="10.00" fill="#000000">src/sa&#45;bsn/system_manager</text>
<text text-anchor="start" x="932" y="-18.5" font-family="Helvetica,sans-Serif" font-size="10.00" fill="#000000">/adaptation_engine/apps</text>
<text text-anchor="middle" x="1001" y="-7.5" font-family="Helvetica,sans-Serif" font-size="10.00" fill="#000000">/cost_engine.cpp</text>
</a>
</g>
</g>
<!-- Node13&#45;&gt;Node14 -->
<g id="edge8" class="edge">
<title>Node13&#45;&gt;Node14</title>
<path fill="none" stroke="#191970" d="M1056.3807,-71.229C1045.6487,-61.4953 1033.7918,-50.7414 1023.8118,-41.6898"/>
<polygon fill="#191970" stroke="#191970" points="1054.195,-73.9718 1063.9536,-78.0974 1058.8977,-68.7867 1054.195,-73.9718"/>
</g>
<!-- Node15 -->
<g id="node10" class="node">
<title>Node15</title>
<g id="a_node10"><a xlink:href="CostEngine_8cpp.html" target="_top" xlink:title="src/sa&#45;bsn/system_manager\l/adaptation_engine/src\l/CostEngine.cpp">
<polygon fill="#ffffff" stroke="#000000" points="1096,-.5 1096,-41.5 1250,-41.5 1250,-.5 1096,-.5"/>
<text text-anchor="start" x="1104" y="-29.5" font-family="Helvetica,sans-Serif" font-size="10.00" fill="#000000">src/sa&#45;bsn/system_manager</text>
<text text-anchor="start" x="1104" y="-18.5" font-family="Helvetica,sans-Serif" font-size="10.00" fill="#000000">/adaptation_engine/src</text>
<text text-anchor="middle" x="1173" y="-7.5" font-family="Helvetica,sans-Serif" font-size="10.00" fill="#000000">/CostEngine.cpp</text>
</a>
</g>
</g>
<!-- Node13&#45;&gt;Node15 -->
<g id="edge9" class="edge">
<title>Node13&#45;&gt;Node15</title>
<path fill="none" stroke="#191970" d="M1117.6193,-71.229C1128.3513,-61.4953 1140.2082,-50.7414 1150.1882,-41.6898"/>
<polygon fill="#191970" stroke="#191970" points="1115.1023,-68.7867 1110.0464,-78.0974 1119.805,-73.9718 1115.1023,-68.7867"/>
</g>
<!-- Node16&#45;&gt;Node13 -->
<g id="edge11" class="edge">
<title>Node16&#45;&gt;Node13</title>
<path fill="none" stroke="#191970" d="M994.3635,-151.3597C1012.6422,-141.0283 1033.4379,-129.2742 1050.6886,-119.5239"/>
<polygon fill="#191970" stroke="#191970" points="992.6026,-148.3346 985.6192,-156.3022 996.047,-154.4286 992.6026,-148.3346"/>
</g>
<!-- Node16&#45;&gt;Node17 -->
<g id="edge12" class="edge">
<title>Node16&#45;&gt;Node17</title>
<path fill="none" stroke="#191970" d="M861.9104,-162.3599C776.3729,-147.9808 647.0035,-126.2333 564.2686,-112.3253"/>
<polygon fill="#191970" stroke="#191970" points="861.4171,-165.826 871.859,-164.0323 862.5776,-158.9229 861.4171,-165.826"/>
</g>
<!-- Node20 -->
<g id="node15" class="node">
<title>Node20</title>
<g id="a_node15"><a xlink:href="Engine_8cpp.html" target="_top" xlink:title="src/sa&#45;bsn/system_manager\l/adaptation_engine/src\l/Engine.cpp">
<polygon fill="#ffffff" stroke="#000000" points="838,-78.5 838,-119.5 992,-119.5 992,-78.5 838,-78.5"/>
<text text-anchor="start" x="846" y="-107.5" font-family="Helvetica,sans-Serif" font-size="10.00" fill="#000000">src/sa&#45;bsn/system_manager</text>
<text text-anchor="start" x="846" y="-96.5" font-family="Helvetica,sans-Serif" font-size="10.00" fill="#000000">/adaptation_engine/src</text>
<text text-anchor="middle" x="915" y="-85.5" font-family="Helvetica,sans-Serif" font-size="10.00" fill="#000000">/Engine.cpp</text>
</a>
</g>
</g>
<!-- Node16&#45;&gt;Node20 -->
<g id="edge15" class="edge">
<title>Node16&#45;&gt;Node20</title>
<path fill="none" stroke="#191970" d="M935.7731,-146.6559C931.8383,-137.629 927.6195,-127.9505 924.0186,-119.6898"/>
<polygon fill="#191970" stroke="#191970" points="932.6843,-148.329 939.8886,-156.0974 939.1012,-145.5319 932.6843,-148.329"/>
</g>
<!-- Node18 -->
<g id="node13" class="node">
<title>Node18</title>
<g id="a_node13"><a xlink:href="reli__engine_8cpp.html" target="_top" xlink:title="src/sa&#45;bsn/system_manager\l/adaptation_engine/apps\l/reli_engine.cpp">
<polygon fill="#ffffff" stroke="#000000" points="322,-.5 322,-41.5 476,-41.5 476,-.5 322,-.5"/>
<text text-anchor="start" x="330" y="-29.5" font-family="Helvetica,sans-Serif" font-size="10.00" fill="#000000">src/sa&#45;bsn/system_manager</text>
<text text-anchor="start" x="330" y="-18.5" font-family="Helvetica,sans-Serif" font-size="10.00" fill="#000000">/adaptation_engine/apps</text>
<text text-anchor="middle" x="399" y="-7.5" font-family="Helvetica,sans-Serif" font-size="10.00" fill="#000000">/reli_engine.cpp</text>
</a>
</g>
</g>
<!-- Node17&#45;&gt;Node18 -->
<g id="edge13" class="edge">
<title>Node17&#45;&gt;Node18</title>
<path fill="none" stroke="#191970" d="M454.3807,-71.229C443.6487,-61.4953 431.7918,-50.7414 421.8118,-41.6898"/>
<polygon fill="#191970" stroke="#191970" points="452.195,-73.9718 461.9536,-78.0974 456.8977,-68.7867 452.195,-73.9718"/>
</g>
<!-- Node19 -->
<g id="node14" class="node">
<title>Node19</title>
<g id="a_node14"><a xlink:href="ReliabilityEngine_8cpp.html" target="_top" xlink:title="src/sa&#45;bsn/system_manager\l/adaptation_engine/src\l/ReliabilityEngine.cpp">
<polygon fill="#ffffff" stroke="#000000" points="494,-.5 494,-41.5 648,-41.5 648,-.5 494,-.5"/>
<text text-anchor="start" x="502" y="-29.5" font-family="Helvetica,sans-Serif" font-size="10.00" fill="#000000">src/sa&#45;bsn/system_manager</text>
<text text-anchor="start" x="502" y="-18.5" font-family="Helvetica,sans-Serif" font-size="10.00" fill="#000000">/adaptation_engine/src</text>
<text text-anchor="middle" x="571" y="-7.5" font-family="Helvetica,sans-Serif" font-size="10.00" fill="#000000">/ReliabilityEngine.cpp</text>
</a>
</g>
</g>
<!-- Node17&#45;&gt;Node19 -->
<g id="edge14" class="edge">
<title>Node17&#45;&gt;Node19</title>
<path fill="none" stroke="#191970" d="M515.6193,-71.229C526.3513,-61.4953 538.2082,-50.7414 548.1882,-41.6898"/>
<polygon fill="#191970" stroke="#191970" points="513.1023,-68.7867 508.0464,-78.0974 517.805,-73.9718 513.1023,-68.7867"/>
</g>
<!-- Node21&#45;&gt;Node7 -->
<g id="edge18" class="edge">
<title>Node21&#45;&gt;Node7</title>
<path fill="none" stroke="#191970" d="M824.4461,-368.7773C780.735,-360.0933 726.8677,-347.7086 680,-332 623.7521,-313.1475 561.4427,-282.6707 526.2664,-264.5106"/>
<polygon fill="#191970" stroke="#191970" points="823.9815,-372.2527 834.4677,-370.739 825.3263,-365.3831 823.9815,-372.2527"/>
</g>
<!-- Node21&#45;&gt;Node9 -->
<g id="edge30" class="edge">
<title>Node21&#45;&gt;Node9</title>
<path fill="none" stroke="#191970" d="M824.1413,-377.3246C688.8736,-365.4867 434.1608,-334.3535 381,-265 364.9114,-244.0109 369.1975,-211.202 373.668,-192.1338"/>
<polygon fill="#191970" stroke="#191970" points="824.2017,-380.8426 834.4645,-378.2109 824.8005,-373.8682 824.2017,-380.8426"/>
</g>
<!-- Node21&#45;&gt;Node10 -->
<g id="edge32" class="edge">
<title>Node21&#45;&gt;Node10</title>
<path fill="none" stroke="#191970" d="M824.2402,-380.7206C658.9456,-374.7335 305.4117,-358.9359 257,-332 202.1224,-301.4666 166.3653,-232.1866 151.2414,-197.5359"/>
<polygon fill="#191970" stroke="#191970" points="824.2515,-384.2232 834.3705,-381.0838 824.5023,-377.2277 824.2515,-384.2232"/>
</g>
<!-- Node21&#45;&gt;Node13 -->
<g id="edge33" class="edge">
<title>Node21&#45;&gt;Node13</title>
<path fill="none" stroke="#191970" d="M993.9064,-375.8031C1064.5155,-367.9858 1158.2434,-353.8824 1189,-332 1227.0644,-304.9183 1245.2687,-276.995 1227,-234 1205.543,-183.5014 1154.9165,-142.7171 1120.7977,-119.6618"/>
<polygon fill="#191970" stroke="#191970" points="993.2321,-372.3555 983.6667,-376.911 993.9852,-379.3149 993.2321,-372.3555"/>
</g>
<!-- Node21&#45;&gt;Node16 -->
<g id="edge34" class="edge">
<title>Node21&#45;&gt;Node16</title>
<path fill="none" stroke="#191970" d="M927.3562,-360.1632C944.0214,-337.3769 967.4122,-300.9718 977,-265 980.5484,-251.687 980.1183,-247.4203 977,-234 974.0306,-221.2203 967.7716,-208.0052 961.9229,-197.5209"/>
<polygon fill="#191970" stroke="#191970" points="924.531,-358.0969 921.3412,-368.2002 930.1352,-362.2913 924.531,-358.0969"/>
</g>
<!-- Node21&#45;&gt;Node17 -->
<g id="edge35" class="edge">
<title>Node21&#45;&gt;Node17</title>
<path fill="none" stroke="#191970" d="M824.0314,-380.9143C705.6545,-376.2064 497.9801,-363.6146 430,-332 351.9018,-295.6799 323.8298,-277.2087 290,-198 282.6682,-180.8335 278.8044,-170.9366 290,-156 304.3584,-136.8437 358.3211,-121.9757 405.8484,-112.2347"/>
<polygon fill="#191970" stroke="#191970" points="824.0207,-384.4164 834.1487,-381.3061 824.2917,-377.4216 824.0207,-384.4164"/>
</g>
<!-- Node22 -->
<g id="node17" class="node">
<title>Node22</title>
<g id="a_node17"><a xlink:href="LeafTask_8hpp.html" target="_top" xlink:title="src/libbsn/include\l/libbsn/goalmodel/LeafTask.hpp">
<polygon fill="#ffffff" stroke="#000000" points="689,-301.5 689,-331.5 859,-331.5 859,-301.5 689,-301.5"/>
<text text-anchor="start" x="697" y="-319.5" font-family="Helvetica,sans-Serif" font-size="10.00" fill="#000000">src/libbsn/include</text>
<text text-anchor="middle" x="774" y="-308.5" font-family="Helvetica,sans-Serif" font-size="10.00" fill="#000000">/libbsn/goalmodel/LeafTask.hpp</text>
</a>
</g>
</g>
<!-- Node21&#45;&gt;Node22 -->
<g id="edge19" class="edge">
<title>Node21&#45;&gt;Node22</title>
<path fill="none" stroke="#191970" d="M869.534,-363.9132C848.8445,-353.645 823.8818,-341.2561 804.6626,-331.7177"/>
<polygon fill="#191970" stroke="#191970" points="868.1899,-367.1534 878.7034,-368.4639 871.3018,-360.8831 868.1899,-367.1534"/>
</g>
<!-- Node21&#45;&gt;Node25 -->
<g id="edge31" class="edge">
<title>Node21&#45;&gt;Node25</title>
<path fill="none" stroke="#191970" d="M942.8619,-363.1064C958.022,-353.8184 976.0401,-342.5607 992,-332 1011.9496,-318.7993 1015.2289,-312.8663 1036,-301 1060.4201,-287.0491 1089.3058,-274.034 1111.8902,-264.578"/>
<polygon fill="#191970" stroke="#191970" points="941.0176,-360.1316 934.3032,-368.3272 944.663,-366.1075 941.0176,-360.1316"/>
</g>
<!-- Node26 -->
<g id="node21" class="node">
<title>Node26</title>
<g id="a_node21"><a xlink:href="Task_8cpp.html" target="_top" xlink:title="src/libbsn/src/goalmodel\l/Task.cpp">
<polygon fill="#ffffff" stroke="#000000" points="1044.5,-301.5 1044.5,-331.5 1179.5,-331.5 1179.5,-301.5 1044.5,-301.5"/>
<text text-anchor="start" x="1052.5" y="-319.5" font-family="Helvetica,sans-Serif" font-size="10.00" fill="#000000">src/libbsn/src/goalmodel</text>
<text text-anchor="middle" x="1112" y="-308.5" font-family="Helvetica,sans-Serif" font-size="10.00" fill="#000000">/Task.cpp</text>
</a>
</g>
</g>
<!-- Node21&#45;&gt;Node26 -->
<g id="edge29" class="edge">
<title>Node21&#45;&gt;Node26</title>
<path fill="none" stroke="#191970" d="M964.2163,-365.2759C996.2096,-354.7165 1036.0099,-341.5805 1066.2441,-331.6017"/>
<polygon fill="#191970" stroke="#191970" points="962.9563,-362.006 954.5572,-368.4639 965.1503,-368.6533 962.9563,-362.006"/>
</g>
<!-- Node22&#45;&gt;Node7 -->
<g id="edge20" class="edge">
<title>Node22&#45;&gt;Node7</title>
<path fill="none" stroke="#191970" d="M702.2808,-299.0899C658.2369,-288.3981 602.3797,-274.8386 560.2099,-264.6017"/>
<polygon fill="#191970" stroke="#191970" points="701.5168,-302.506 712.0602,-301.4639 703.1681,-295.7036 701.5168,-302.506"/>
</g>
<!-- Node22&#45;&gt;Node9 -->
<g id="edge22" class="edge">
<title>Node22&#45;&gt;Node9</title>
<path fill="none" stroke="#191970" d="M678.7112,-308.5916C576.0522,-299.2372 424.5407,-282.6878 404,-265 382.7537,-246.7046 378.432,-211.9716 377.8058,-192.0502"/>
<polygon fill="#191970" stroke="#191970" points="678.5234,-312.0888 688.7976,-309.5019 679.1527,-305.1171 678.5234,-312.0888"/>
</g>
<!-- Node22&#45;&gt;Node10 -->
<g id="edge25" class="edge">
<title>Node22&#45;&gt;Node10</title>
<path fill="none" stroke="#191970" d="M678.5606,-310.0029C598.2832,-303.1131 480.9392,-289.6931 381,-265 312.3584,-248.04 236.2362,-217.756 188.9944,-197.5216"/>
<polygon fill="#191970" stroke="#191970" points="678.3952,-313.5013 688.6533,-310.8515 678.9817,-306.5259 678.3952,-313.5013"/>
</g>
<!-- Node22&#45;&gt;Node13 -->
<g id="edge26" class="edge">
<title>Node22&#45;&gt;Node13</title>
<path fill="none" stroke="#191970" d="M869.0001,-304.7364C904.7805,-297.2346 944.6152,-284.9831 977,-265 1032.902,-230.5055 1066.4171,-155.774 1079.9827,-119.5333"/>
<polygon fill="#191970" stroke="#191970" points="868.146,-301.3378 859.0253,-306.7288 869.5172,-308.2022 868.146,-301.3378"/>
</g>
<!-- Node22&#45;&gt;Node16 -->
<g id="edge27" class="edge">
<title>Node22&#45;&gt;Node16</title>
<path fill="none" stroke="#191970" d="M869.0504,-300.9383C908.2719,-292.4001 947.3106,-280.388 959,-265 973.6027,-245.777 966.5331,-217.0342 958.8814,-197.6782"/>
<polygon fill="#191970" stroke="#191970" points="868.1562,-297.5498 859.0914,-303.0342 869.5978,-304.3997 868.1562,-297.5498"/>
</g>
<!-- Node22&#45;&gt;Node17 -->
<g id="edge28" class="edge">
<title>Node22&#45;&gt;Node17</title>
<path fill="none" stroke="#191970" d="M700.5366,-298.6354C669.7143,-289.517 638.9333,-277.6823 630,-265 622.0658,-253.7361 625.6431,-247.0707 630,-234 636.3246,-215.0263 650.6754,-216.9737 657,-198 662.9029,-180.2912 667.9278,-171.1337 657,-156 645.3978,-139.9324 603.5498,-125.8732 564.0398,-115.7377"/>
<polygon fill="#191970" stroke="#191970" points="699.9402,-302.1054 710.5176,-301.4981 701.8702,-295.3767 699.9402,-302.1054"/>
</g>
<!-- Node23 -->
<g id="node18" class="node">
<title>Node23</title>
<g id="a_node18"><a xlink:href="LeafTask_8cpp.html" target="_top" xlink:title="src/libbsn/src/goalmodel\l/LeafTask.cpp">
<polygon fill="#ffffff" stroke="#000000" points="639.5,-234.5 639.5,-264.5 774.5,-264.5 774.5,-234.5 639.5,-234.5"/>
<text text-anchor="start" x="647.5" y="-252.5" font-family="Helvetica,sans-Serif" font-size="10.00" fill="#000000">src/libbsn/src/goalmodel</text>
<text text-anchor="middle" x="707" y="-241.5" font-family="Helvetica,sans-Serif" font-size="10.00" fill="#000000">/LeafTask.cpp</text>
</a>
</g>
</g>
<!-- Node22&#45;&gt;Node23 -->
<g id="edge21" class="edge">
<title>Node22&#45;&gt;Node23</title>
<path fill="none" stroke="#191970" d="M751.7113,-294.2113C742.0009,-284.5009 730.8698,-273.3698 722.1432,-264.6432"/>
<polygon fill="#191970" stroke="#191970" points="749.2507,-296.7004 758.7967,-301.2967 754.2004,-291.7507 749.2507,-296.7004"/>
</g>
<!-- Node24 -->
<g id="node19" class="node">
<title>Node24</title>
<g id="a_node19"><a xlink:href="LeafTaskTest_8cpp.html" target="_top" xlink:title="src/libbsn/test/unit\l/goalmodel/LeafTaskTest.cpp">
<polygon fill="#ffffff" stroke="#000000" points="792.5,-234.5 792.5,-264.5 949.5,-264.5 949.5,-234.5 792.5,-234.5"/>
<text text-anchor="start" x="800.5" y="-252.5" font-family="Helvetica,sans-Serif" font-size="10.00" fill="#000000">src/libbsn/test/unit</text>
<text text-anchor="middle" x="871" y="-241.5" font-family="Helvetica,sans-Serif" font-size="10.00" fill="#000000">/goalmodel/LeafTaskTest.cpp</text>
</a>
</g>
</g>
<!-- Node22&#45;&gt;Node24 -->
<g id="edge23" class="edge">
<title>Node22&#45;&gt;Node24</title>
<path fill="none" stroke="#191970" d="M804.6246,-295.3469C819.0578,-285.3776 835.9467,-273.7121 849.0763,-264.6432"/>
<polygon fill="#191970" stroke="#191970" points="802.2497,-292.7335 796.0108,-301.2967 806.228,-298.4932 802.2497,-292.7335"/>
</g>
<!-- Node22&#45;&gt;Node25 -->
<g id="edge24" class="edge">
<title>Node22&#45;&gt;Node25</title>
<path fill="none" stroke="#191970" d="M869.4595,-300.1117C927.0061,-290.1493 1001.7519,-277.063 1068,-265 1072.4187,-264.1954 1076.9696,-263.3584 1081.5561,-262.5086"/>
<polygon fill="#191970" stroke="#191970" points="868.5426,-296.7183 859.2855,-301.8715 869.7358,-303.6158 868.5426,-296.7183"/>
</g>
</g>
</svg>
