<?xml version="1.0" encoding="UTF-8" standalone="no"?>
<!DOCTYPE svg PUBLIC "-//W3C//DTD SVG 1.1//EN"
 "http://www.w3.org/Graphics/SVG/1.1/DTD/svg11.dtd">
<!-- Generated by graphviz version 2.40.1 (20161225.0304)
 -->
<!-- Title: Graphical Class Hierarchy Pages: 1 -->
<svg width="501pt" height="468pt"
 viewBox="0.00 0.00 501.00 468.00" xmlns="http://www.w3.org/2000/svg" xmlns:xlink="http://www.w3.org/1999/xlink">
<g id="graph0" class="graph" transform="scale(1 1) rotate(0) translate(4 464)">
<title>Graphical Class Hierarchy</title>
<polygon fill="#ffffff" stroke="transparent" points="-4,4 -4,-464 497,-464 497,4 -4,4"/>
<!-- Node0 -->
<g id="node1" class="node">
<title>Node0</title>
<g id="a_node1"><a xlink:href="classarch_1_1ROSComponent.html" target="_top" xlink:title="arch::ROSComponent">
<polygon fill="#ffffff" stroke="#000000" points="0,-152.5 0,-171.5 120,-171.5 120,-152.5 0,-152.5"/>
<text text-anchor="middle" x="60" y="-159.5" font-family="Helvetica,sans-Serif" font-size="10.00" fill="#000000">arch::ROSComponent</text>
</a>
</g>
</g>
<!-- Node1 -->
<g id="node2" class="node">
<title>Node1</title>
<g id="a_node2"><a xlink:href="classarch_1_1target__system_1_1Component.html" target="_top" xlink:title="arch::target_system\l::Component">
<polygon fill="#ffffff" stroke="#000000" points="156,-327 156,-357 270,-357 270,-327 156,-327"/>
<text text-anchor="start" x="164" y="-345" font-family="Helvetica,sans-Serif" font-size="10.00" fill="#000000">arch::target_system</text>
<text text-anchor="middle" x="213" y="-334" font-family="Helvetica,sans-Serif" font-size="10.00" fill="#000000">::Component</text>
</a>
</g>
</g>
<!-- Node0&#45;&gt;Node1 -->
<g id="edge1" class="edge">
<title>Node0&#45;&gt;Node1</title>
<path fill="none" stroke="#191970" d="M67.3507,-181.5182C80.4817,-213.9811 110.8872,-279.3158 156,-318 159.9124,-321.3549 164.3616,-324.2955 169.0087,-326.8591"/>
<polygon fill="#191970" stroke="#191970" points="70.4713,-179.8886 63.5635,-171.8553 63.9539,-182.4429 70.4713,-179.8886"/>
</g>
<!-- Node11 -->
<g id="node12" class="node">
<title>Node11</title>
<g id="a_node12"><a xlink:href="classarch_1_1target__system_1_1Effector.html" target="_top" xlink:title="arch::target_system\l::Effector">
<polygon fill="#ffffff" stroke="#000000" points="156,-278 156,-308 270,-308 270,-278 156,-278"/>
<text text-anchor="start" x="164" y="-296" font-family="Helvetica,sans-Serif" font-size="10.00" fill="#000000">arch::target_system</text>
<text text-anchor="middle" x="213" y="-285" font-family="Helvetica,sans-Serif" font-size="10.00" fill="#000000">::Effector</text>
</a>
</g>
</g>
<!-- Node0&#45;&gt;Node11 -->
<g id="edge11" class="edge">
<title>Node0&#45;&gt;Node11</title>
<path fill="none" stroke="#191970" d="M72.1251,-179.8272C88.7033,-203.0565 120.4705,-243.6873 156,-269 160.6348,-272.302 165.7936,-275.2655 171.0608,-277.889"/>
<polygon fill="#191970" stroke="#191970" points="74.9519,-177.7621 66.3528,-171.573 69.2155,-181.7738 74.9519,-177.7621"/>
</g>
<!-- Node13 -->
<g id="node14" class="node">
<title>Node13</title>
<g id="a_node14"><a xlink:href="classarch_1_1target__system_1_1Probe.html" target="_top" xlink:title="arch::target_system\l::Probe">
<polygon fill="#ffffff" stroke="#000000" points="156,-229 156,-259 270,-259 270,-229 156,-229"/>
<text text-anchor="start" x="164" y="-247" font-family="Helvetica,sans-Serif" font-size="10.00" fill="#000000">arch::target_system</text>
<text text-anchor="middle" x="213" y="-236" font-family="Helvetica,sans-Serif" font-size="10.00" fill="#000000">::Probe</text>
</a>
</g>
</g>
<!-- Node0&#45;&gt;Node13 -->
<g id="edge13" class="edge">
<title>Node0&#45;&gt;Node13</title>
<path fill="none" stroke="#191970" d="M83.6253,-177.1311C102.7817,-189.1288 130.6637,-205.984 156,-219 162.632,-222.4071 169.8299,-225.7937 176.8067,-228.9234"/>
<polygon fill="#191970" stroke="#191970" points="85.2963,-174.047 74.9716,-171.6697 81.5603,-179.9667 85.2963,-174.047"/>
</g>
<!-- Node14 -->
<g id="node15" class="node">
<title>Node14</title>
<g id="a_node15"><a xlink:href="classDataAccess.html" target="_top" xlink:title="DataAccess">
<polygon fill="#ffffff" stroke="#000000" points="176,-190.5 176,-209.5 250,-209.5 250,-190.5 176,-190.5"/>
<text text-anchor="middle" x="213" y="-197.5" font-family="Helvetica,sans-Serif" font-size="10.00" fill="#000000">DataAccess</text>
</a>
</g>
</g>
<!-- Node0&#45;&gt;Node14 -->
<g id="edge14" class="edge">
<title>Node0&#45;&gt;Node14</title>
<path fill="none" stroke="#191970" d="M108.3743,-174.0145C130.2429,-179.4459 155.6739,-185.7622 175.9874,-190.8073"/>
<polygon fill="#191970" stroke="#191970" points="109.1572,-170.6027 98.6084,-171.589 107.4698,-177.3963 109.1572,-170.6027"/>
</g>
<!-- Node15 -->
<g id="node16" class="node">
<title>Node15</title>
<g id="a_node16"><a xlink:href="classEnactor.html" target="_top" xlink:title="Enactor">
<polygon fill="#ffffff" stroke="#000000" points="186.5,-152.5 186.5,-171.5 239.5,-171.5 239.5,-152.5 186.5,-152.5"/>
<text text-anchor="middle" x="213" y="-159.5" font-family="Helvetica,sans-Serif" font-size="10.00" fill="#000000">Enactor</text>
</a>
</g>
</g>
<!-- Node0&#45;&gt;Node15 -->
<g id="edge15" class="edge">
<title>Node0&#45;&gt;Node15</title>
<path fill="none" stroke="#191970" d="M130.0801,-162C150.0594,-162 170.6268,-162 186.2797,-162"/>
<polygon fill="#191970" stroke="#191970" points="130.0306,-158.5001 120.0305,-162 130.0305,-165.5001 130.0306,-158.5001"/>
</g>
<!-- Node17 -->
<g id="node18" class="node">
<title>Node17</title>
<g id="a_node18"><a xlink:href="classEngine.html" target="_top" xlink:title="Engine">
<polygon fill="#ffffff" stroke="#000000" points="188,-114.5 188,-133.5 238,-133.5 238,-114.5 188,-114.5"/>
<text text-anchor="middle" x="213" y="-121.5" font-family="Helvetica,sans-Serif" font-size="10.00" fill="#000000">Engine</text>
</a>
</g>
</g>
<!-- Node0&#45;&gt;Node17 -->
<g id="edge17" class="edge">
<title>Node0&#45;&gt;Node17</title>
<path fill="none" stroke="#191970" d="M108.4316,-149.9712C134.8053,-143.4209 166.3463,-135.5872 187.8423,-130.2483"/>
<polygon fill="#191970" stroke="#191970" points="107.4698,-146.6037 98.6084,-152.411 109.1572,-153.3973 107.4698,-146.6037"/>
</g>
<!-- Node20 -->
<g id="node21" class="node">
<title>Node20</title>
<g id="a_node21"><a xlink:href="classInjector.html" target="_top" xlink:title="Injector">
<polygon fill="#ffffff" stroke="#000000" points="186.5,-76.5 186.5,-95.5 239.5,-95.5 239.5,-76.5 186.5,-76.5"/>
<text text-anchor="middle" x="213" y="-83.5" font-family="Helvetica,sans-Serif" font-size="10.00" fill="#000000">Injector</text>
</a>
</g>
</g>
<!-- Node0&#45;&gt;Node20 -->
<g id="edge20" class="edge">
<title>Node0&#45;&gt;Node20</title>
<path fill="none" stroke="#191970" d="M82.6531,-146.6619C101.6462,-134.2706 129.7915,-116.9811 156,-105 165.6766,-100.5764 176.691,-96.6616 186.441,-93.5523"/>
<polygon fill="#191970" stroke="#191970" points="80.5254,-143.8727 74.113,-152.3067 84.3853,-149.7124 80.5254,-143.8727"/>
</g>
<!-- Node21 -->
<g id="node22" class="node">
<title>Node21</title>
<g id="a_node22"><a xlink:href="classLogger.html" target="_top" xlink:title="Logger">
<polygon fill="#ffffff" stroke="#000000" points="188,-38.5 188,-57.5 238,-57.5 238,-38.5 188,-38.5"/>
<text text-anchor="middle" x="213" y="-45.5" font-family="Helvetica,sans-Serif" font-size="10.00" fill="#000000">Logger</text>
</a>
</g>
</g>
<!-- Node0&#45;&gt;Node21 -->
<g id="edge21" class="edge">
<title>Node0&#45;&gt;Node21</title>
<path fill="none" stroke="#191970" d="M73.5361,-144.338C90.618,-123.1712 121.9124,-87.9442 156,-67 165.6875,-61.0478 177.4589,-56.7198 187.7836,-53.7119"/>
<polygon fill="#191970" stroke="#191970" points="70.5685,-142.4485 67.1187,-152.466 76.0625,-146.7862 70.5685,-142.4485"/>
</g>
<!-- Node22 -->
<g id="node23" class="node">
<title>Node22</title>
<g id="a_node23"><a xlink:href="classPatientModule.html" target="_top" xlink:title="PatientModule">
<polygon fill="#ffffff" stroke="#000000" points="170,-.5 170,-19.5 256,-19.5 256,-.5 170,-.5"/>
<text text-anchor="middle" x="213" y="-7.5" font-family="Helvetica,sans-Serif" font-size="10.00" fill="#000000">PatientModule</text>
</a>
</g>
</g>
<!-- Node0&#45;&gt;Node22 -->
<g id="edge22" class="edge">
<title>Node0&#45;&gt;Node22</title>
<path fill="none" stroke="#191970" d="M68.8209,-143.0518C83.1362,-114.3088 114.1011,-59.7852 156,-29 161.2117,-25.1707 167.2424,-22.0817 173.3895,-19.5992"/>
<polygon fill="#191970" stroke="#191970" points="65.5113,-141.8565 64.3108,-152.3832 71.8138,-144.9028 65.5113,-141.8565"/>
</g>
<!-- Node2 -->
<g id="node3" class="node">
<title>Node2</title>
<g id="a_node3"><a xlink:href="classCentralHub.html" target="_top" xlink:title="CentralHub">
<polygon fill="#ffffff" stroke="#000000" points="319.5,-402.5 319.5,-421.5 390.5,-421.5 390.5,-402.5 319.5,-402.5"/>
<text text-anchor="middle" x="355" y="-409.5" font-family="Helvetica,sans-Serif" font-size="10.00" fill="#000000">CentralHub</text>
</a>
</g>
</g>
<!-- Node1&#45;&gt;Node2 -->
<g id="edge2" class="edge">
<title>Node1&#45;&gt;Node2</title>
<path fill="none" stroke="#191970" d="M252.665,-361.5532C279.6705,-374.8657 314.242,-391.9081 335.4941,-402.3844"/>
<polygon fill="#191970" stroke="#191970" points="253.9795,-358.2991 243.4626,-357.0168 250.8844,-364.5776 253.9795,-358.2991"/>
</g>
<!-- Node4 -->
<g id="node5" class="node">
<title>Node4</title>
<g id="a_node5"><a xlink:href="classSensor.html" target="_top" xlink:title="Sensor">
<polygon fill="#ffffff" stroke="#000000" points="330,-326.5 330,-345.5 380,-345.5 380,-326.5 330,-326.5"/>
<text text-anchor="middle" x="355" y="-333.5" font-family="Helvetica,sans-Serif" font-size="10.00" fill="#000000">Sensor</text>
</a>
</g>
</g>
<!-- Node1&#45;&gt;Node4 -->
<g id="edge4" class="edge">
<title>Node1&#45;&gt;Node4</title>
<path fill="none" stroke="#191970" d="M280.5974,-339.1438C298.1153,-338.4036 315.91,-337.6517 329.7028,-337.0689"/>
<polygon fill="#191970" stroke="#191970" points="280.1908,-335.6577 270.3475,-339.5769 280.4864,-342.6515 280.1908,-335.6577"/>
</g>
<!-- Node3 -->
<g id="node4" class="node">
<title>Node3</title>
<g id="a_node4"><a xlink:href="classG4T1.html" target="_top" xlink:title="G4T1">
<polygon fill="#ffffff" stroke="#000000" points="445.5,-440.5 445.5,-459.5 487.5,-459.5 487.5,-440.5 445.5,-440.5"/>
<text text-anchor="middle" x="466.5" y="-447.5" font-family="Helvetica,sans-Serif" font-size="10.00" fill="#000000">G4T1</text>
</a>
</g>
</g>
<!-- Node2&#45;&gt;Node3 -->
<g id="edge3" class="edge">
<title>Node2&#45;&gt;Node3</title>
<path fill="none" stroke="#191970" d="M393.0816,-424.9785C410.5836,-430.9433 430.6766,-437.7911 445.413,-442.8134"/>
<polygon fill="#191970" stroke="#191970" points="393.7306,-421.5021 383.1362,-421.589 391.4725,-428.1278 393.7306,-421.5021"/>
</g>
<!-- Node5 -->
<g id="node6" class="node">
<title>Node5</title>
<g id="a_node6"><a xlink:href="classG3T1__1.html" target="_top" xlink:title="G3T1_1">
<polygon fill="#ffffff" stroke="#000000" points="440,-402.5 440,-421.5 493,-421.5 493,-402.5 440,-402.5"/>
<text text-anchor="middle" x="466.5" y="-409.5" font-family="Helvetica,sans-Serif" font-size="10.00" fill="#000000">G3T1_1</text>
</a>
</g>
</g>
<!-- Node4&#45;&gt;Node5 -->
<g id="edge5" class="edge">
<title>Node4&#45;&gt;Node5</title>
<path fill="none" stroke="#191970" d="M377.3869,-351.2592C399.8086,-366.5422 433.6193,-389.588 452.4931,-402.4527"/>
<polygon fill="#191970" stroke="#191970" points="379.3559,-348.3656 369.1216,-345.6255 375.4133,-354.1498 379.3559,-348.3656"/>
</g>
<!-- Node6 -->
<g id="node7" class="node">
<title>Node6</title>
<g id="a_node7"><a xlink:href="classG3T1__2.html" target="_top" xlink:title="G3T1_2">
<polygon fill="#ffffff" stroke="#000000" points="440,-364.5 440,-383.5 493,-383.5 493,-364.5 440,-364.5"/>
<text text-anchor="middle" x="466.5" y="-371.5" font-family="Helvetica,sans-Serif" font-size="10.00" fill="#000000">G3T1_2</text>
</a>
</g>
</g>
<!-- Node4&#45;&gt;Node6 -->
<g id="edge6" class="edge">
<title>Node4&#45;&gt;Node6</title>
<path fill="none" stroke="#191970" d="M389.6349,-347.8038C405.7401,-353.2926 424.6039,-359.7215 439.6134,-364.8368"/>
<polygon fill="#191970" stroke="#191970" points="390.6173,-344.441 380.0228,-344.5279 388.3591,-351.0668 390.6173,-344.441"/>
</g>
<!-- Node7 -->
<g id="node8" class="node">
<title>Node7</title>
<g id="a_node8"><a xlink:href="classG3T1__3.html" target="_top" xlink:title="G3T1_3">
<polygon fill="#ffffff" stroke="#000000" points="440,-326.5 440,-345.5 493,-345.5 493,-326.5 440,-326.5"/>
<text text-anchor="middle" x="466.5" y="-333.5" font-family="Helvetica,sans-Serif" font-size="10.00" fill="#000000">G3T1_3</text>
</a>
</g>
</g>
<!-- Node4&#45;&gt;Node7 -->
<g id="edge7" class="edge">
<title>Node4&#45;&gt;Node7</title>
<path fill="none" stroke="#191970" d="M390.0915,-336C406.0957,-336 424.7455,-336 439.6134,-336"/>
<polygon fill="#191970" stroke="#191970" points="390.0228,-332.5001 380.0228,-336 390.0227,-339.5001 390.0228,-332.5001"/>
</g>
<!-- Node8 -->
<g id="node9" class="node">
<title>Node8</title>
<g id="a_node9"><a xlink:href="classG3T1__4.html" target="_top" xlink:title="G3T1_4">
<polygon fill="#ffffff" stroke="#000000" points="440,-288.5 440,-307.5 493,-307.5 493,-288.5 440,-288.5"/>
<text text-anchor="middle" x="466.5" y="-295.5" font-family="Helvetica,sans-Serif" font-size="10.00" fill="#000000">G3T1_4</text>
</a>
</g>
</g>
<!-- Node4&#45;&gt;Node8 -->
<g id="edge8" class="edge">
<title>Node4&#45;&gt;Node8</title>
<path fill="none" stroke="#191970" d="M389.6349,-324.1962C405.7401,-318.7074 424.6039,-312.2785 439.6134,-307.1632"/>
<polygon fill="#191970" stroke="#191970" points="388.3591,-320.9332 380.0228,-327.4721 390.6173,-327.559 388.3591,-320.9332"/>
</g>
<!-- Node9 -->
<g id="node10" class="node">
<title>Node9</title>
<g id="a_node10"><a xlink:href="classG3T1__5.html" target="_top" xlink:title="G3T1_5">
<polygon fill="#ffffff" stroke="#000000" points="440,-250.5 440,-269.5 493,-269.5 493,-250.5 440,-250.5"/>
<text text-anchor="middle" x="466.5" y="-257.5" font-family="Helvetica,sans-Serif" font-size="10.00" fill="#000000">G3T1_5</text>
</a>
</g>
</g>
<!-- Node4&#45;&gt;Node9 -->
<g id="edge9" class="edge">
<title>Node4&#45;&gt;Node9</title>
<path fill="none" stroke="#191970" d="M387.5443,-321.6972C393.1915,-318.7595 398.8869,-315.4883 404,-312 421.9299,-299.7677 423.1499,-292.6816 440,-279 443.9553,-275.7885 448.4048,-272.4867 452.5122,-269.5551"/>
<polygon fill="#191970" stroke="#191970" points="385.6187,-318.7442 378.1972,-326.3055 388.7141,-325.0226 385.6187,-318.7442"/>
</g>
<!-- Node10 -->
<g id="node11" class="node">
<title>Node10</title>
<g id="a_node11"><a xlink:href="classG3T1__6.html" target="_top" xlink:title="G3T1_6">
<polygon fill="#ffffff" stroke="#000000" points="440,-212.5 440,-231.5 493,-231.5 493,-212.5 440,-212.5"/>
<text text-anchor="middle" x="466.5" y="-219.5" font-family="Helvetica,sans-Serif" font-size="10.00" fill="#000000">G3T1_6</text>
</a>
</g>
</g>
<!-- Node4&#45;&gt;Node10 -->
<g id="edge10" class="edge">
<title>Node4&#45;&gt;Node10</title>
<path fill="none" stroke="#191970" d="M389.2064,-322.8511C394.5573,-319.82 399.7227,-316.2186 404,-312 429.1897,-287.1559 416.9645,-267.8536 440,-241 443.0224,-237.4767 446.8274,-234.2611 450.6037,-231.5176"/>
<polygon fill="#191970" stroke="#191970" points="387.5004,-319.7915 380.15,-327.422 390.6545,-326.0407 387.5004,-319.7915"/>
</g>
<!-- Node12 -->
<g id="node13" class="node">
<title>Node12</title>
<g id="a_node13"><a xlink:href="classParamAdapter.html" target="_top" xlink:title="ParamAdapter">
<polygon fill="#ffffff" stroke="#000000" points="312,-283.5 312,-302.5 398,-302.5 398,-283.5 312,-283.5"/>
<text text-anchor="middle" x="355" y="-290.5" font-family="Helvetica,sans-Serif" font-size="10.00" fill="#000000">ParamAdapter</text>
</a>
</g>
</g>
<!-- Node11&#45;&gt;Node12 -->
<g id="edge12" class="edge">
<title>Node11&#45;&gt;Node12</title>
<path fill="none" stroke="#191970" d="M280.5095,-293C291.175,-293 301.9459,-293 311.8562,-293"/>
<polygon fill="#191970" stroke="#191970" points="280.3476,-289.5001 270.3475,-293 280.3475,-296.5001 280.3476,-289.5001"/>
</g>
<!-- Node16 -->
<g id="node17" class="node">
<title>Node16</title>
<g id="a_node17"><a xlink:href="classController.html" target="_top" xlink:title="Controller">
<polygon fill="#ffffff" stroke="#000000" points="322.5,-152.5 322.5,-171.5 387.5,-171.5 387.5,-152.5 322.5,-152.5"/>
<text text-anchor="middle" x="355" y="-159.5" font-family="Helvetica,sans-Serif" font-size="10.00" fill="#000000">Controller</text>
</a>
</g>
</g>
<!-- Node15&#45;&gt;Node16 -->
<g id="edge16" class="edge">
<title>Node15&#45;&gt;Node16</title>
<path fill="none" stroke="#191970" d="M249.8826,-162C272.3491,-162 300.7945,-162 322.4279,-162"/>
<polygon fill="#191970" stroke="#191970" points="249.7091,-158.5001 239.7091,-162 249.7091,-165.5001 249.7091,-158.5001"/>
</g>
<!-- Node18 -->
<g id="node19" class="node">
<title>Node18</title>
<g id="a_node19"><a xlink:href="classCostEngine.html" target="_top" xlink:title="CostEngine">
<polygon fill="#ffffff" stroke="#000000" points="319.5,-114.5 319.5,-133.5 390.5,-133.5 390.5,-114.5 319.5,-114.5"/>
<text text-anchor="middle" x="355" y="-121.5" font-family="Helvetica,sans-Serif" font-size="10.00" fill="#000000">CostEngine</text>
</a>
</g>
</g>
<!-- Node17&#45;&gt;Node18 -->
<g id="edge18" class="edge">
<title>Node17&#45;&gt;Node18</title>
<path fill="none" stroke="#191970" d="M248.1551,-124C269.8134,-124 297.5042,-124 319.2684,-124"/>
<polygon fill="#191970" stroke="#191970" points="248.0599,-120.5001 238.0599,-124 248.0598,-127.5001 248.0599,-120.5001"/>
</g>
<!-- Node19 -->
<g id="node20" class="node">
<title>Node19</title>
<g id="a_node20"><a xlink:href="classReliabilityEngine.html" target="_top" xlink:title="ReliabilityEngine">
<polygon fill="#ffffff" stroke="#000000" points="306,-76.5 306,-95.5 404,-95.5 404,-76.5 306,-76.5"/>
<text text-anchor="middle" x="355" y="-83.5" font-family="Helvetica,sans-Serif" font-size="10.00" fill="#000000">ReliabilityEngine</text>
</a>
</g>
</g>
<!-- Node17&#45;&gt;Node19 -->
<g id="edge19" class="edge">
<title>Node17&#45;&gt;Node19</title>
<path fill="none" stroke="#191970" d="M247.8602,-114.6712C269.5616,-108.8638 297.4053,-101.4127 319.2684,-95.562"/>
<polygon fill="#191970" stroke="#191970" points="246.8152,-111.3276 238.0599,-117.2938 248.6248,-118.0897 246.8152,-111.3276"/>
</g>
</g>
</svg>
