<?xml version="1.0" encoding="UTF-8" standalone="no"?>
<!DOCTYPE svg PUBLIC "-//W3C//DTD SVG 1.1//EN"
 "http://www.w3.org/Graphics/SVG/1.1/DTD/svg11.dtd">
<!-- Generated by graphviz version 2.40.1 (20161225.0304)
 -->
<!-- Title: Graphical Class Hierarchy Pages: 1 -->
<svg width="299pt" height="916pt"
 viewBox="0.00 0.00 299.00 916.00" xmlns="http://www.w3.org/2000/svg" xmlns:xlink="http://www.w3.org/1999/xlink">
<g id="graph0" class="graph" transform="scale(1 1) rotate(0) translate(4 912)">
<title>Graphical Class Hierarchy</title>
<polygon fill="#ffffff" stroke="transparent" points="-4,4 -4,-912 295,-912 295,4 -4,4"/>
<!-- Node57 -->
<g id="node1" class="node">
<title>Node57</title>
<polygon fill="#ffffff" stroke="#bfbfbf" points="0,-471 0,-490 59,-490 59,-471 0,-471"/>
<text text-anchor="middle" x="29.5" y="-478" font-family="Helvetica,sans-Serif" font-size="10.00" fill="#000000">Message</text>
</g>
<!-- Node0 -->
<g id="node2" class="node">
<title>Node0</title>
<g id="a_node2"><a xlink:href="classarchlib_1_1msg_1_1__AdaptationCommand_1_1AdaptationCommand.html" target="_top" xlink:title="archlib.msg._AdaptationCommand.\lAdaptationCommand">
<polygon fill="#ffffff" stroke="#000000" points="99,-877.5 99,-907.5 287,-907.5 287,-877.5 99,-877.5"/>
<text text-anchor="start" x="107" y="-895.5" font-family="Helvetica,sans-Serif" font-size="10.00" fill="#000000">archlib.msg._AdaptationCommand.</text>
<text text-anchor="middle" x="193" y="-884.5" font-family="Helvetica,sans-Serif" font-size="10.00" fill="#000000">AdaptationCommand</text>
</a>
</g>
</g>
<!-- Node57&#45;&gt;Node0 -->
<g id="edge1" class="edge">
<title>Node57&#45;&gt;Node0</title>
<path fill="none" stroke="#191970" d="M30.0701,-500.5964C32.5169,-572.2895 44.4419,-814.1132 95,-868.5 98.1008,-871.8357 101.5827,-874.7413 105.3362,-877.2699"/>
<polygon fill="#191970" stroke="#191970" points="33.5579,-500.1512 29.7445,-490.2664 26.5614,-500.3717 33.5579,-500.1512"/>
</g>
<!-- Node59 -->
<g id="node3" class="node">
<title>Node59</title>
<g id="a_node3"><a xlink:href="classarchlib_1_1msg_1_1__EnergyStatus_1_1EnergyStatus.html" target="_top" xlink:title="archlib.msg._EnergyStatus.\lEnergyStatus">
<polygon fill="#ffffff" stroke="#000000" points="118.5,-828.5 118.5,-858.5 267.5,-858.5 267.5,-828.5 118.5,-828.5"/>
<text text-anchor="start" x="126.5" y="-846.5" font-family="Helvetica,sans-Serif" font-size="10.00" fill="#000000">archlib.msg._EnergyStatus.</text>
<text text-anchor="middle" x="193" y="-835.5" font-family="Helvetica,sans-Serif" font-size="10.00" fill="#000000">EnergyStatus</text>
</a>
</g>
</g>
<!-- Node57&#45;&gt;Node59 -->
<g id="edge2" class="edge">
<title>Node57&#45;&gt;Node59</title>
<path fill="none" stroke="#191970" d="M30.6313,-500.4865C34.7361,-565.865 50.9888,-771.8423 95,-818.5 101.5061,-825.3974 109.628,-830.4973 118.3944,-834.2511"/>
<polygon fill="#191970" stroke="#191970" points="34.1126,-500.0682 30.02,-490.2957 27.1252,-500.4874 34.1126,-500.0682"/>
</g>
<!-- Node60 -->
<g id="node4" class="node">
<title>Node60</title>
<g id="a_node4"><a xlink:href="classarchlib_1_1msg_1_1__Event_1_1Event.html" target="_top" xlink:title="archlib.msg._Event.Event">
<polygon fill="#ffffff" stroke="#000000" points="123,-790 123,-809 263,-809 263,-790 123,-790"/>
<text text-anchor="middle" x="193" y="-797" font-family="Helvetica,sans-Serif" font-size="10.00" fill="#000000">archlib.msg._Event.Event</text>
</a>
</g>
</g>
<!-- Node57&#45;&gt;Node60 -->
<g id="edge3" class="edge">
<title>Node57&#45;&gt;Node60</title>
<path fill="none" stroke="#191970" d="M31.0343,-500.2703C36.1302,-560.6522 54.5159,-740.9547 95,-780.5 102.6865,-788.0083 112.398,-792.9941 122.7028,-796.239"/>
<polygon fill="#191970" stroke="#191970" points="34.5112,-499.8433 30.2123,-490.1598 27.5343,-500.4106 34.5112,-499.8433"/>
</g>
<!-- Node61 -->
<g id="node5" class="node">
<title>Node61</title>
<g id="a_node5"><a xlink:href="classarchlib_1_1msg_1_1__Exception_1_1Exception.html" target="_top" xlink:title="archlib.msg._Exception.Exception">
<polygon fill="#ffffff" stroke="#000000" points="102.5,-752 102.5,-771 283.5,-771 283.5,-752 102.5,-752"/>
<text text-anchor="middle" x="193" y="-759" font-family="Helvetica,sans-Serif" font-size="10.00" fill="#000000">archlib.msg._Exception.Exception</text>
</a>
</g>
</g>
<!-- Node57&#45;&gt;Node61 -->
<g id="edge4" class="edge">
<title>Node57&#45;&gt;Node61</title>
<path fill="none" stroke="#191970" d="M31.7052,-500.2435C38.2608,-555.3119 59.4195,-708.7732 95,-742.5 98.8992,-746.196 103.291,-749.2755 107.9991,-751.8336"/>
<polygon fill="#191970" stroke="#191970" points="35.1537,-499.5961 30.528,-490.0644 28.2001,-500.4003 35.1537,-499.5961"/>
</g>
<!-- Node62 -->
<g id="node6" class="node">
<title>Node62</title>
<g id="a_node6"><a xlink:href="classarchlib_1_1msg_1_1__Persist_1_1Persist.html" target="_top" xlink:title="archlib.msg._Persist.Persist">
<polygon fill="#ffffff" stroke="#000000" points="117.5,-714 117.5,-733 268.5,-733 268.5,-714 117.5,-714"/>
<text text-anchor="middle" x="193" y="-721" font-family="Helvetica,sans-Serif" font-size="10.00" fill="#000000">archlib.msg._Persist.Persist</text>
</a>
</g>
</g>
<!-- Node57&#45;&gt;Node62 -->
<g id="edge5" class="edge">
<title>Node57&#45;&gt;Node62</title>
<path fill="none" stroke="#191970" d="M32.6043,-500.2768C40.7596,-549.6794 64.2963,-676.5261 95,-704.5 101.4055,-710.336 109.0472,-714.617 117.1979,-717.728"/>
<polygon fill="#191970" stroke="#191970" points="36.0307,-499.54 30.9823,-490.2253 29.1201,-500.6552 36.0307,-499.54"/>
</g>
<!-- Node63 -->
<g id="node7" class="node">
<title>Node63</title>
<g id="a_node7"><a xlink:href="classarchlib_1_1msg_1_1__Status_1_1Status.html" target="_top" xlink:title="archlib.msg._Status.Status">
<polygon fill="#ffffff" stroke="#000000" points="120,-676 120,-695 266,-695 266,-676 120,-676"/>
<text text-anchor="middle" x="193" y="-683" font-family="Helvetica,sans-Serif" font-size="10.00" fill="#000000">archlib.msg._Status.Status</text>
</a>
</g>
</g>
<!-- Node57&#45;&gt;Node63 -->
<g id="edge6" class="edge">
<title>Node57&#45;&gt;Node63</title>
<path fill="none" stroke="#191970" d="M33.8664,-500.3411C43.7771,-543.5706 69.1275,-644.1782 95,-666.5 102.2171,-672.7266 110.8565,-677.1547 119.9741,-680.2697"/>
<polygon fill="#191970" stroke="#191970" points="37.2497,-499.433 31.6391,-490.4457 30.4205,-500.9702 37.2497,-499.433"/>
</g>
<!-- Node64 -->
<g id="node8" class="node">
<title>Node64</title>
<g id="a_node8"><a xlink:href="classarchlib_1_1msg_1_1__Strategy_1_1Strategy.html" target="_top" xlink:title="archlib.msg._Strategy.Strategy">
<polygon fill="#ffffff" stroke="#000000" points="110,-638 110,-657 276,-657 276,-638 110,-638"/>
<text text-anchor="middle" x="193" y="-645" font-family="Helvetica,sans-Serif" font-size="10.00" fill="#000000">archlib.msg._Strategy.Strategy</text>
</a>
</g>
</g>
<!-- Node57&#45;&gt;Node64 -->
<g id="edge7" class="edge">
<title>Node57&#45;&gt;Node64</title>
<path fill="none" stroke="#191970" d="M32.3399,-500.3074C38.0598,-532.5175 54.1132,-595.9191 95,-628.5 99.7438,-632.2801 105.0223,-635.3818 110.6006,-637.9198"/>
<polygon fill="#191970" stroke="#191970" points="35.7759,-499.6296 30.724,-490.3168 28.8657,-500.7474 35.7759,-499.6296"/>
</g>
<!-- Node65 -->
<g id="node9" class="node">
<title>Node65</title>
<g id="a_node9"><a xlink:href="classarchlib_1_1msg_1_1__Uncertainty_1_1Uncertainty.html" target="_top" xlink:title="archlib.msg._Uncertainty.\lUncertainty">
<polygon fill="#ffffff" stroke="#000000" points="123,-588.5 123,-618.5 263,-618.5 263,-588.5 123,-588.5"/>
<text text-anchor="start" x="131" y="-606.5" font-family="Helvetica,sans-Serif" font-size="10.00" fill="#000000">archlib.msg._Uncertainty.</text>
<text text-anchor="middle" x="193" y="-595.5" font-family="Helvetica,sans-Serif" font-size="10.00" fill="#000000">Uncertainty</text>
</a>
</g>
</g>
<!-- Node57&#45;&gt;Node65 -->
<g id="edge8" class="edge">
<title>Node57&#45;&gt;Node65</title>
<path fill="none" stroke="#191970" d="M36.9976,-499.6581C46.8506,-522.267 66.3376,-559.329 95,-579.5 103.3801,-585.3975 113.0477,-589.8529 122.9769,-593.2173"/>
<polygon fill="#191970" stroke="#191970" points="40.1086,-498.0232 33.043,-490.1283 33.6432,-500.7062 40.1086,-498.0232"/>
</g>
<!-- Node66 -->
<g id="node10" class="node">
<title>Node66</title>
<g id="a_node10"><a xlink:href="classarchlib_1_1srv_1_1__DataAccessRequest_1_1DataAccessRequestRequest.html" target="_top" xlink:title="archlib.srv._DataAccessRequest.\lDataAccessRequestRequest">
<polygon fill="#ffffff" stroke="#000000" points="106,-539.5 106,-569.5 280,-569.5 280,-539.5 106,-539.5"/>
<text text-anchor="start" x="114" y="-557.5" font-family="Helvetica,sans-Serif" font-size="10.00" fill="#000000">archlib.srv._DataAccessRequest.</text>
<text text-anchor="middle" x="193" y="-546.5" font-family="Helvetica,sans-Serif" font-size="10.00" fill="#000000">DataAccessRequestRequest</text>
</a>
</g>
</g>
<!-- Node57&#45;&gt;Node66 -->
<g id="edge9" class="edge">
<title>Node57&#45;&gt;Node66</title>
<path fill="none" stroke="#191970" d="M47.0338,-497.1175C59.5155,-508.0933 77.1734,-521.9747 95,-530.5 102.1902,-533.9386 109.9202,-536.913 117.7711,-539.4796"/>
<polygon fill="#191970" stroke="#191970" points="49.0393,-494.2112 39.2812,-490.0845 44.336,-499.3957 49.0393,-494.2112"/>
</g>
<!-- Node67 -->
<g id="node11" class="node">
<title>Node67</title>
<g id="a_node11"><a xlink:href="classarchlib_1_1srv_1_1__DataAccessRequest_1_1DataAccessRequestResponse.html" target="_top" xlink:title="archlib.srv._DataAccessRequest.\lDataAccessRequestResponse">
<polygon fill="#ffffff" stroke="#000000" points="106,-490.5 106,-520.5 280,-520.5 280,-490.5 106,-490.5"/>
<text text-anchor="start" x="114" y="-508.5" font-family="Helvetica,sans-Serif" font-size="10.00" fill="#000000">archlib.srv._DataAccessRequest.</text>
<text text-anchor="middle" x="193" y="-497.5" font-family="Helvetica,sans-Serif" font-size="10.00" fill="#000000">DataAccessRequestResponse</text>
</a>
</g>
</g>
<!-- Node57&#45;&gt;Node67 -->
<g id="edge10" class="edge">
<title>Node57&#45;&gt;Node67</title>
<path fill="none" stroke="#191970" d="M69.3224,-486.589C80.4741,-488.2942 93.0531,-490.2176 105.8096,-492.1681"/>
<polygon fill="#191970" stroke="#191970" points="69.5228,-483.0791 59.1086,-485.0273 68.4647,-489.9987 69.5228,-483.0791"/>
</g>
<!-- Node68 -->
<g id="node12" class="node">
<title>Node68</title>
<g id="a_node12"><a xlink:href="classarchlib_1_1srv_1_1__EffectorRegister_1_1EffectorRegisterRequest.html" target="_top" xlink:title="archlib.srv._EffectorRegister.\lEffectorRegisterRequest">
<polygon fill="#ffffff" stroke="#000000" points="115.5,-441.5 115.5,-471.5 270.5,-471.5 270.5,-441.5 115.5,-441.5"/>
<text text-anchor="start" x="123.5" y="-459.5" font-family="Helvetica,sans-Serif" font-size="10.00" fill="#000000">archlib.srv._EffectorRegister.</text>
<text text-anchor="middle" x="193" y="-448.5" font-family="Helvetica,sans-Serif" font-size="10.00" fill="#000000">EffectorRegisterRequest</text>
</a>
</g>
</g>
<!-- Node57&#45;&gt;Node68 -->
<g id="edge11" class="edge">
<title>Node57&#45;&gt;Node68</title>
<path fill="none" stroke="#191970" d="M69.2677,-474.6625C83.172,-472.6215 99.3002,-470.2541 115.2266,-467.9163"/>
<polygon fill="#191970" stroke="#191970" points="68.4942,-471.2385 59.1086,-476.1538 69.5109,-478.1643 68.4942,-471.2385"/>
</g>
<!-- Node69 -->
<g id="node13" class="node">
<title>Node69</title>
<g id="a_node13"><a xlink:href="classarchlib_1_1srv_1_1__EffectorRegister_1_1EffectorRegisterResponse.html" target="_top" xlink:title="archlib.srv._EffectorRegister.\lEffectorRegisterResponse">
<polygon fill="#ffffff" stroke="#000000" points="115.5,-392.5 115.5,-422.5 270.5,-422.5 270.5,-392.5 115.5,-392.5"/>
<text text-anchor="start" x="123.5" y="-410.5" font-family="Helvetica,sans-Serif" font-size="10.00" fill="#000000">archlib.srv._EffectorRegister.</text>
<text text-anchor="middle" x="193" y="-399.5" font-family="Helvetica,sans-Serif" font-size="10.00" fill="#000000">EffectorRegisterResponse</text>
</a>
</g>
</g>
<!-- Node57&#45;&gt;Node69 -->
<g id="edge12" class="edge">
<title>Node57&#45;&gt;Node69</title>
<path fill="none" stroke="#191970" d="M47.617,-464.2578C60.1316,-453.8169 77.5981,-440.7158 95,-432.5 103.0978,-428.6768 111.8586,-425.3848 120.6968,-422.5639"/>
<polygon fill="#191970" stroke="#191970" points="45.1103,-461.797 39.8057,-470.9683 49.6718,-467.1067 45.1103,-461.797"/>
</g>
<!-- Node70 -->
<g id="node14" class="node">
<title>Node70</title>
<g id="a_node14"><a xlink:href="classarchlib_1_1srv_1_1__EngineRequest_1_1EngineRequestRequest.html" target="_top" xlink:title="archlib.srv._EngineRequest.\lEngineRequestRequest">
<polygon fill="#ffffff" stroke="#000000" points="118,-343.5 118,-373.5 268,-373.5 268,-343.5 118,-343.5"/>
<text text-anchor="start" x="126" y="-361.5" font-family="Helvetica,sans-Serif" font-size="10.00" fill="#000000">archlib.srv._EngineRequest.</text>
<text text-anchor="middle" x="193" y="-350.5" font-family="Helvetica,sans-Serif" font-size="10.00" fill="#000000">EngineRequestRequest</text>
</a>
</g>
</g>
<!-- Node57&#45;&gt;Node70 -->
<g id="edge13" class="edge">
<title>Node57&#45;&gt;Node70</title>
<path fill="none" stroke="#191970" d="M37.2867,-461.4342C47.3207,-439.2945 66.8842,-403.29 95,-383.5 101.9639,-378.5983 109.8066,-374.6566 117.9451,-371.487"/>
<polygon fill="#191970" stroke="#191970" points="33.9975,-460.2226 33.2404,-470.7903 40.4224,-463.0013 33.9975,-460.2226"/>
</g>
<!-- Node71 -->
<g id="node15" class="node">
<title>Node71</title>
<g id="a_node15"><a xlink:href="classarchlib_1_1srv_1_1__EngineRequest_1_1EngineRequestResponse.html" target="_top" xlink:title="archlib.srv._EngineRequest.\lEngineRequestResponse">
<polygon fill="#ffffff" stroke="#000000" points="118,-294.5 118,-324.5 268,-324.5 268,-294.5 118,-294.5"/>
<text text-anchor="start" x="126" y="-312.5" font-family="Helvetica,sans-Serif" font-size="10.00" fill="#000000">archlib.srv._EngineRequest.</text>
<text text-anchor="middle" x="193" y="-301.5" font-family="Helvetica,sans-Serif" font-size="10.00" fill="#000000">EngineRequestResponse</text>
</a>
</g>
</g>
<!-- Node57&#45;&gt;Node71 -->
<g id="edge14" class="edge">
<title>Node57&#45;&gt;Node71</title>
<path fill="none" stroke="#191970" d="M32.7195,-460.8015C38.9339,-429.2652 55.6187,-367.6319 95,-334.5 101.7181,-328.848 109.5503,-324.4501 117.8052,-321.0321"/>
<polygon fill="#191970" stroke="#191970" points="29.2198,-460.4861 30.8811,-470.9499 36.1077,-461.7339 29.2198,-460.4861"/>
</g>
<!-- Node72 -->
<g id="node16" class="node">
<title>Node72</title>
<g id="a_node16"><a xlink:href="classmessages_1_1msg_1_1__CommandControl_1_1CommandControl.html" target="_top" xlink:title="messages.msg._CommandControl.\lCommandControl">
<polygon fill="#ffffff" stroke="#000000" points="99.5,-245.5 99.5,-275.5 286.5,-275.5 286.5,-245.5 99.5,-245.5"/>
<text text-anchor="start" x="107.5" y="-263.5" font-family="Helvetica,sans-Serif" font-size="10.00" fill="#000000">messages.msg._CommandControl.</text>
<text text-anchor="middle" x="193" y="-252.5" font-family="Helvetica,sans-Serif" font-size="10.00" fill="#000000">CommandControl</text>
</a>
</g>
</g>
<!-- Node57&#45;&gt;Node72 -->
<g id="edge15" class="edge">
<title>Node57&#45;&gt;Node72</title>
<path fill="none" stroke="#191970" d="M33.633,-460.7258C43.3266,-416.1713 68.7001,-309.9155 95,-285.5 99.1179,-281.6772 103.7376,-278.4194 108.6692,-275.6452"/>
<polygon fill="#191970" stroke="#191970" points="30.1823,-460.1259 31.5154,-470.6365 37.0278,-461.5886 30.1823,-460.1259"/>
</g>
<!-- Node73 -->
<g id="node17" class="node">
<title>Node73</title>
<g id="a_node17"><a xlink:href="classmessages_1_1msg_1_1__ReconfigurationCommand_1_1ReconfigurationCommand.html" target="_top" xlink:title="messages.msg._Reconfiguration\lCommand.ReconfigurationCommand">
<polygon fill="#ffffff" stroke="#000000" points="95,-196.5 95,-226.5 291,-226.5 291,-196.5 95,-196.5"/>
<text text-anchor="start" x="103" y="-214.5" font-family="Helvetica,sans-Serif" font-size="10.00" fill="#000000">messages.msg._Reconfiguration</text>
<text text-anchor="middle" x="193" y="-203.5" font-family="Helvetica,sans-Serif" font-size="10.00" fill="#000000">Command.ReconfigurationCommand</text>
</a>
</g>
</g>
<!-- Node57&#45;&gt;Node73 -->
<g id="edge16" class="edge">
<title>Node57&#45;&gt;Node73</title>
<path fill="none" stroke="#191970" d="M32.1986,-460.8298C39.7457,-408.6364 62.6552,-268.4435 95,-236.5 98.8729,-232.6752 103.2449,-229.4101 107.9382,-226.6252"/>
<polygon fill="#191970" stroke="#191970" points="28.7206,-460.4289 30.7878,-470.8201 35.6518,-461.4078 28.7206,-460.4289"/>
</g>
<!-- Node74 -->
<g id="node18" class="node">
<title>Node74</title>
<g id="a_node18"><a xlink:href="classmessages_1_1msg_1_1__SensorData_1_1SensorData.html" target="_top" xlink:title="messages.msg._SensorData.\lSensorData">
<polygon fill="#ffffff" stroke="#000000" points="114,-147.5 114,-177.5 272,-177.5 272,-147.5 114,-147.5"/>
<text text-anchor="start" x="122" y="-165.5" font-family="Helvetica,sans-Serif" font-size="10.00" fill="#000000">messages.msg._SensorData.</text>
<text text-anchor="middle" x="193" y="-154.5" font-family="Helvetica,sans-Serif" font-size="10.00" fill="#000000">SensorData</text>
</a>
</g>
</g>
<!-- Node57&#45;&gt;Node74 -->
<g id="edge17" class="edge">
<title>Node57&#45;&gt;Node74</title>
<path fill="none" stroke="#191970" d="M31.2769,-460.5243C36.9631,-401.0867 56.6267,-227.0359 95,-187.5 100.3809,-181.9561 106.8071,-177.5794 113.7604,-174.1324"/>
<polygon fill="#191970" stroke="#191970" points="27.7616,-460.5298 30.3247,-470.8099 34.7317,-461.1751 27.7616,-460.5298"/>
</g>
<!-- Node75 -->
<g id="node19" class="node">
<title>Node75</title>
<g id="a_node19"><a xlink:href="classmessages_1_1msg_1_1__TargetSystemData_1_1TargetSystemData.html" target="_top" xlink:title="messages.msg._TargetSystem\lData.TargetSystemData">
<polygon fill="#ffffff" stroke="#000000" points="110.5,-98.5 110.5,-128.5 275.5,-128.5 275.5,-98.5 110.5,-98.5"/>
<text text-anchor="start" x="118.5" y="-116.5" font-family="Helvetica,sans-Serif" font-size="10.00" fill="#000000">messages.msg._TargetSystem</text>
<text text-anchor="middle" x="193" y="-105.5" font-family="Helvetica,sans-Serif" font-size="10.00" fill="#000000">Data.TargetSystemData</text>
</a>
</g>
</g>
<!-- Node57&#45;&gt;Node75 -->
<g id="edge18" class="edge">
<title>Node57&#45;&gt;Node75</title>
<path fill="none" stroke="#191970" d="M30.5699,-460.7133C34.5204,-395.0509 50.4406,-185.8424 95,-138.5 99.4527,-133.7692 104.6655,-129.8836 110.3256,-126.6978"/>
<polygon fill="#191970" stroke="#191970" points="27.0628,-460.738 29.9841,-470.9221 34.0513,-461.1391 27.0628,-460.738"/>
</g>
<!-- Node76 -->
<g id="node20" class="node">
<title>Node76</title>
<g id="a_node20"><a xlink:href="classservices_1_1srv_1_1__PatientData_1_1PatientDataRequest.html" target="_top" xlink:title="services.srv._PatientData.\lPatientDataRequest">
<polygon fill="#ffffff" stroke="#000000" points="121.5,-49.5 121.5,-79.5 264.5,-79.5 264.5,-49.5 121.5,-49.5"/>
<text text-anchor="start" x="129.5" y="-67.5" font-family="Helvetica,sans-Serif" font-size="10.00" fill="#000000">services.srv._PatientData.</text>
<text text-anchor="middle" x="193" y="-56.5" font-family="Helvetica,sans-Serif" font-size="10.00" fill="#000000">PatientDataRequest</text>
</a>
</g>
</g>
<!-- Node57&#45;&gt;Node76 -->
<g id="edge19" class="edge">
<title>Node57&#45;&gt;Node76</title>
<path fill="none" stroke="#191970" d="M30.0645,-460.2662C32.4922,-388.0805 44.3601,-144.5716 95,-89.5 102.131,-81.7449 111.3026,-76.2518 121.1666,-72.3863"/>
<polygon fill="#191970" stroke="#191970" points="26.5537,-460.5633 29.7418,-470.6671 33.5503,-460.7805 26.5537,-460.5633"/>
</g>
<!-- Node77 -->
<g id="node21" class="node">
<title>Node77</title>
<g id="a_node21"><a xlink:href="classservices_1_1srv_1_1__PatientData_1_1PatientDataResponse.html" target="_top" xlink:title="services.srv._PatientData.\lPatientDataResponse">
<polygon fill="#ffffff" stroke="#000000" points="121.5,-.5 121.5,-30.5 264.5,-30.5 264.5,-.5 121.5,-.5"/>
<text text-anchor="start" x="129.5" y="-18.5" font-family="Helvetica,sans-Serif" font-size="10.00" fill="#000000">services.srv._PatientData.</text>
<text text-anchor="middle" x="193" y="-7.5" font-family="Helvetica,sans-Serif" font-size="10.00" fill="#000000">PatientDataResponse</text>
</a>
</g>
</g>
<!-- Node57&#45;&gt;Node77 -->
<g id="edge20" class="edge">
<title>Node57&#45;&gt;Node77</title>
<path fill="none" stroke="#191970" d="M31.1769,-460.5224C38.2143,-378.7339 66.3273,-72.2572 95,-40.5 102.0601,-32.6804 111.1941,-27.1529 121.042,-23.2727"/>
<polygon fill="#191970" stroke="#191970" points="27.6545,-460.6391 30.294,-470.8998 34.6293,-461.2326 27.6545,-460.6391"/>
</g>
</g>
</svg>
