<?xml version="1.0" encoding="UTF-8" standalone="no"?>
<!DOCTYPE svg PUBLIC "-//W3C//DTD SVG 1.1//EN"
 "http://www.w3.org/Graphics/SVG/1.1/DTD/svg11.dtd">
<!-- Generated by graphviz version 2.40.1 (20161225.0304)
 -->
<!-- Title: src/sa&#45;bsn/simulation/injector/include/Injector.hpp Pages: 1 -->
<svg width="302pt" height="106pt"
 viewBox="0.00 0.00 301.50 106.00" xmlns="http://www.w3.org/2000/svg" xmlns:xlink="http://www.w3.org/1999/xlink">
<g id="graph0" class="graph" transform="scale(1 1) rotate(0) translate(4 102)">
<title>src/sa&#45;bsn/simulation/injector/include/Injector.hpp</title>
<polygon fill="#ffffff" stroke="transparent" points="-4,4 -4,-102 297.5,-102 297.5,4 -4,4"/>
<!-- Node12 -->
<g id="node1" class="node">
<title>Node12</title>
<polygon fill="#bfbfbf" stroke="#000000" points="71.5,-67.5 71.5,-97.5 226.5,-97.5 226.5,-67.5 71.5,-67.5"/>
<text text-anchor="start" x="79.5" y="-85.5" font-family="Helvetica,sans-Serif" font-size="10.00" fill="#000000">src/sa&#45;bsn/simulation</text>
<text text-anchor="middle" x="149" y="-74.5" font-family="Helvetica,sans-Serif" font-size="10.00" fill="#000000">/injector/include/Injector.hpp</text>
</g>
<!-- Node13 -->
<g id="node2" class="node">
<title>Node13</title>
<g id="a_node2"><a xlink:href="injector_8cpp.html" target="_top" xlink:title="src/sa&#45;bsn/simulation\l/injector/apps/injector.cpp">
<polygon fill="#ffffff" stroke="#000000" points="0,-.5 0,-30.5 142,-30.5 142,-.5 0,-.5"/>
<text text-anchor="start" x="8" y="-18.5" font-family="Helvetica,sans-Serif" font-size="10.00" fill="#000000">src/sa&#45;bsn/simulation</text>
<text text-anchor="middle" x="71" y="-7.5" font-family="Helvetica,sans-Serif" font-size="10.00" fill="#000000">/injector/apps/injector.cpp</text>
</a>
</g>
</g>
<!-- Node12&#45;&gt;Node13 -->
<g id="edge1" class="edge">
<title>Node12&#45;&gt;Node13</title>
<path fill="none" stroke="#191970" d="M123.384,-60.4965C112.0016,-50.7193 98.8884,-39.4554 88.6294,-30.6432"/>
<polygon fill="#191970" stroke="#191970" points="121.4343,-63.4357 131.3006,-67.2967 125.9955,-58.1257 121.4343,-63.4357"/>
</g>
<!-- Node14 -->
<g id="node3" class="node">
<title>Node14</title>
<g id="a_node3"><a xlink:href="Injector_8cpp.html" target="_top" xlink:title="src/sa&#45;bsn/simulation\l/injector/src/Injector.cpp">
<polygon fill="#ffffff" stroke="#000000" points="160.5,-.5 160.5,-30.5 293.5,-30.5 293.5,-.5 160.5,-.5"/>
<text text-anchor="start" x="168.5" y="-18.5" font-family="Helvetica,sans-Serif" font-size="10.00" fill="#000000">src/sa&#45;bsn/simulation</text>
<text text-anchor="middle" x="227" y="-7.5" font-family="Helvetica,sans-Serif" font-size="10.00" fill="#000000">/injector/src/Injector.cpp</text>
</a>
</g>
</g>
<!-- Node12&#45;&gt;Node14 -->
<g id="edge2" class="edge">
<title>Node12&#45;&gt;Node14</title>
<path fill="none" stroke="#191970" d="M174.616,-60.4965C185.9984,-50.7193 199.1116,-39.4554 209.3706,-30.6432"/>
<polygon fill="#191970" stroke="#191970" points="172.0045,-58.1257 166.6994,-67.2967 176.5657,-63.4357 172.0045,-58.1257"/>
</g>
</g>
</svg>
