<?xml version="1.0" encoding="UTF-8" standalone="no"?>
<!DOCTYPE svg PUBLIC "-//W3C//DTD SVG 1.1//EN"
 "http://www.w3.org/Graphics/SVG/1.1/DTD/svg11.dtd">
<!-- Generated by graphviz version 2.40.1 (20161225.0304)
 -->
<!-- Title: src/sa&#45;bsn/simulation/injector/apps/injector.cpp Pages: 1 -->
<svg width="864pt" height="263pt"
 viewBox="0.00 0.00 864.00 263.00" xmlns="http://www.w3.org/2000/svg" xmlns:xlink="http://www.w3.org/1999/xlink">
<g id="graph0" class="graph" transform="scale(1 1) rotate(0) translate(4 259)">
<title>src/sa&#45;bsn/simulation/injector/apps/injector.cpp</title>
<polygon fill="#ffffff" stroke="transparent" points="-4,4 -4,-259 860,-259 860,4 -4,4"/>
<!-- Node0 -->
<g id="node1" class="node">
<title>Node0</title>
<polygon fill="#bfbfbf" stroke="#000000" points="448.5,-224.5 448.5,-254.5 590.5,-254.5 590.5,-224.5 448.5,-224.5"/>
<text text-anchor="start" x="456.5" y="-242.5" font-family="Helvetica,sans-Serif" font-size="10.00" fill="#000000">src/sa&#45;bsn/simulation</text>
<text text-anchor="middle" x="519.5" y="-231.5" font-family="Helvetica,sans-Serif" font-size="10.00" fill="#000000">/injector/apps/injector.cpp</text>
</g>
<!-- Node1 -->
<g id="node2" class="node">
<title>Node1</title>
<g id="a_node2"><a xlink:href="Injector_8hpp.html" target="_top" xlink:title="Injector.hpp">
<polygon fill="#ffffff" stroke="#000000" points="482.5,-168.5 482.5,-187.5 556.5,-187.5 556.5,-168.5 482.5,-168.5"/>
<text text-anchor="middle" x="519.5" y="-175.5" font-family="Helvetica,sans-Serif" font-size="10.00" fill="#000000">Injector.hpp</text>
</a>
</g>
</g>
<!-- Node0&#45;&gt;Node1 -->
<g id="edge1" class="edge">
<title>Node0&#45;&gt;Node1</title>
<path fill="none" stroke="#191970" d="M519.5,-224.2977C519.5,-216.3834 519.5,-206.6043 519.5,-198.0759"/>
<polygon fill="#191970" stroke="#191970" points="523.0001,-197.8469 519.5,-187.8469 516.0001,-197.847 523.0001,-197.8469"/>
</g>
<!-- Node2 -->
<g id="node3" class="node">
<title>Node2</title>
<polygon fill="#ffffff" stroke="#bfbfbf" points="0,-.5 0,-19.5 59,-19.5 59,-.5 0,-.5"/>
<text text-anchor="middle" x="29.5" y="-7.5" font-family="Helvetica,sans-Serif" font-size="10.00" fill="#000000">ros/ros.h</text>
</g>
<!-- Node1&#45;&gt;Node2 -->
<g id="edge2" class="edge">
<title>Node1&#45;&gt;Node2</title>
<path fill="none" stroke="#191970" d="M482.3047,-176.5382C416.94,-173.232 277.6645,-162.8828 164.5,-132 103.4149,-115.3298 69.964,-127.7654 33.5,-76 24.1107,-62.6707 23.9087,-43.8161 25.5897,-29.6702"/>
<polygon fill="#191970" stroke="#191970" points="29.0882,-29.956 27.2021,-19.5304 22.175,-28.8567 29.0882,-29.956"/>
</g>
<!-- Node3 -->
<g id="node4" class="node">
<title>Node3</title>
<polygon fill="#ffffff" stroke="#bfbfbf" points="513,-112.5 513,-131.5 598,-131.5 598,-112.5 513,-112.5"/>
<text text-anchor="middle" x="555.5" y="-119.5" font-family="Helvetica,sans-Serif" font-size="10.00" fill="#000000">ros/package.h</text>
</g>
<!-- Node1&#45;&gt;Node3 -->
<g id="edge3" class="edge">
<title>Node1&#45;&gt;Node3</title>
<path fill="none" stroke="#191970" d="M525.7707,-168.2455C530.7264,-160.5367 537.783,-149.5598 543.7776,-140.2348"/>
<polygon fill="#191970" stroke="#191970" points="546.8376,-141.9471 549.3011,-131.6427 540.9494,-138.1618 546.8376,-141.9471"/>
</g>
<!-- Node4 -->
<g id="node5" class="node">
<title>Node4</title>
<polygon fill="#ffffff" stroke="#bfbfbf" points="616.5,-112.5 616.5,-131.5 664.5,-131.5 664.5,-112.5 616.5,-112.5"/>
<text text-anchor="middle" x="640.5" y="-119.5" font-family="Helvetica,sans-Serif" font-size="10.00" fill="#000000">time.h</text>
</g>
<!-- Node1&#45;&gt;Node4 -->
<g id="edge4" class="edge">
<title>Node1&#45;&gt;Node4</title>
<path fill="none" stroke="#191970" d="M540.3006,-168.3733C559.7243,-159.3838 588.9224,-145.8706 610.7964,-135.7471"/>
<polygon fill="#191970" stroke="#191970" points="612.3656,-138.8776 619.9708,-131.5011 609.4255,-132.5249 612.3656,-138.8776"/>
</g>
<!-- Node5 -->
<g id="node6" class="node">
<title>Node5</title>
<polygon fill="#ffffff" stroke="#bfbfbf" points="682.5,-112.5 682.5,-131.5 720.5,-131.5 720.5,-112.5 682.5,-112.5"/>
<text text-anchor="middle" x="701.5" y="-119.5" font-family="Helvetica,sans-Serif" font-size="10.00" fill="#000000">map</text>
</g>
<!-- Node1&#45;&gt;Node5 -->
<g id="edge5" class="edge">
<title>Node1&#45;&gt;Node5</title>
<path fill="none" stroke="#191970" d="M553.3058,-168.4581C582.5963,-160.0678 626.3085,-147.2538 672.6539,-132.169"/>
<polygon fill="#191970" stroke="#191970" points="673.853,-135.4593 682.2662,-129.0197 671.6735,-128.8072 673.853,-135.4593"/>
</g>
<!-- Node6 -->
<g id="node7" class="node">
<title>Node6</title>
<polygon fill="#ffffff" stroke="#bfbfbf" points="453,-56.5 453,-75.5 500,-75.5 500,-56.5 453,-56.5"/>
<text text-anchor="middle" x="476.5" y="-63.5" font-family="Helvetica,sans-Serif" font-size="10.00" fill="#000000">vector</text>
</g>
<!-- Node1&#45;&gt;Node6 -->
<g id="edge6" class="edge">
<title>Node1&#45;&gt;Node6</title>
<path fill="none" stroke="#191970" d="M515.8338,-168.4509C508.7572,-150.0186 493.0955,-109.2254 483.8112,-85.043"/>
<polygon fill="#191970" stroke="#191970" points="487.0086,-83.606 480.1569,-75.5249 480.4737,-86.115 487.0086,-83.606"/>
</g>
<!-- Node7 -->
<g id="node8" class="node">
<title>Node7</title>
<polygon fill="#ffffff" stroke="#bfbfbf" points="739,-112.5 739,-131.5 856,-131.5 856,-112.5 739,-112.5"/>
<text text-anchor="middle" x="797.5" y="-119.5" font-family="Helvetica,sans-Serif" font-size="10.00" fill="#000000">archlib/Uncertainty.h</text>
</g>
<!-- Node1&#45;&gt;Node7 -->
<g id="edge7" class="edge">
<title>Node1&#45;&gt;Node7</title>
<path fill="none" stroke="#191970" d="M556.7039,-170.5057C603.7821,-161.0223 685.3475,-144.5919 740.3511,-133.512"/>
<polygon fill="#191970" stroke="#191970" points="741.1861,-136.9142 750.2981,-131.5083 739.8038,-130.052 741.1861,-136.9142"/>
</g>
<!-- Node8 -->
<g id="node9" class="node">
<title>Node8</title>
<g id="a_node9"><a xlink:href="ROSComponent_8hpp.html" target="_top" xlink:title="archlib/ROSComponent.hpp">
<polygon fill="#ffffff" stroke="#000000" points="173.5,-112.5 173.5,-131.5 323.5,-131.5 323.5,-112.5 173.5,-112.5"/>
<text text-anchor="middle" x="248.5" y="-119.5" font-family="Helvetica,sans-Serif" font-size="10.00" fill="#000000">archlib/ROSComponent.hpp</text>
</a>
</g>
</g>
<!-- Node1&#45;&gt;Node8 -->
<g id="edge8" class="edge">
<title>Node1&#45;&gt;Node8</title>
<path fill="none" stroke="#191970" d="M482.3868,-170.3309C436.4928,-160.8472 357.9275,-144.6123 304.6435,-133.6016"/>
<polygon fill="#191970" stroke="#191970" points="305.1732,-130.1372 294.6718,-131.541 303.7566,-136.9924 305.1732,-130.1372"/>
</g>
<!-- Node12 -->
<g id="node13" class="node">
<title>Node12</title>
<g id="a_node13"><a xlink:href="utils_8hpp.html" target="_top" xlink:title="libbsn/utils/utils.hpp">
<polygon fill="#ffffff" stroke="#000000" points="341,-112.5 341,-131.5 456,-131.5 456,-112.5 341,-112.5"/>
<text text-anchor="middle" x="398.5" y="-119.5" font-family="Helvetica,sans-Serif" font-size="10.00" fill="#000000">libbsn/utils/utils.hpp</text>
</a>
</g>
</g>
<!-- Node1&#45;&gt;Node12 -->
<g id="edge15" class="edge">
<title>Node1&#45;&gt;Node12</title>
<path fill="none" stroke="#191970" d="M498.6994,-168.3733C479.2757,-159.3838 450.0776,-145.8706 428.2036,-135.7471"/>
<polygon fill="#191970" stroke="#191970" points="429.5745,-132.5249 419.0292,-131.5011 426.6344,-138.8776 429.5745,-132.5249"/>
</g>
<!-- Node8&#45;&gt;Node2 -->
<g id="edge11" class="edge">
<title>Node8&#45;&gt;Node2</title>
<path fill="none" stroke="#191970" d="M173.4123,-112.749C124.5165,-105.2568 66.5747,-93.1201 48.5,-76 35.9449,-64.108 31.5173,-44.5073 30.0379,-29.7491"/>
<polygon fill="#191970" stroke="#191970" points="33.5212,-29.3737 29.3955,-19.6152 26.5353,-29.8167 33.5212,-29.3737"/>
</g>
<!-- Node9 -->
<g id="node10" class="node">
<title>Node9</title>
<polygon fill="#ffffff" stroke="#bfbfbf" points="263.5,-.5 263.5,-19.5 307.5,-19.5 307.5,-.5 263.5,-.5"/>
<text text-anchor="middle" x="285.5" y="-7.5" font-family="Helvetica,sans-Serif" font-size="10.00" fill="#000000">string</text>
</g>
<!-- Node8&#45;&gt;Node9 -->
<g id="edge9" class="edge">
<title>Node8&#45;&gt;Node9</title>
<path fill="none" stroke="#191970" d="M252.629,-112.2267C256.4623,-102.9806 262.2074,-88.6708 266.5,-76 271.7008,-60.6483 276.7357,-42.9904 280.3144,-29.8043"/>
<polygon fill="#191970" stroke="#191970" points="283.7531,-30.4928 282.9497,-19.9284 276.9897,-28.688 283.7531,-30.4928"/>
</g>
<!-- Node10 -->
<g id="node11" class="node">
<title>Node10</title>
<polygon fill="#ffffff" stroke="#bfbfbf" points="314,-56.5 314,-75.5 379,-75.5 379,-56.5 314,-56.5"/>
<text text-anchor="middle" x="346.5" y="-63.5" font-family="Helvetica,sans-Serif" font-size="10.00" fill="#000000">stdexcept</text>
</g>
<!-- Node8&#45;&gt;Node10 -->
<g id="edge10" class="edge">
<title>Node8&#45;&gt;Node10</title>
<path fill="none" stroke="#191970" d="M265.5703,-112.2455C280.747,-103.5731 303.1621,-90.7645 320.5563,-80.825"/>
<polygon fill="#191970" stroke="#191970" points="322.6794,-83.643 329.6253,-75.6427 319.2064,-77.5653 322.6794,-83.643"/>
</g>
<!-- Node11 -->
<g id="node12" class="node">
<title>Node11</title>
<g id="a_node12"><a xlink:href="ROSComponentDescriptor_8hpp.html" target="_top" xlink:title="archlib/ROSComponentDescriptor.hpp">
<polygon fill="#ffffff" stroke="#000000" points="57.5,-56.5 57.5,-75.5 257.5,-75.5 257.5,-56.5 57.5,-56.5"/>
<text text-anchor="middle" x="157.5" y="-63.5" font-family="Helvetica,sans-Serif" font-size="10.00" fill="#000000">archlib/ROSComponentDescriptor.hpp</text>
</a>
</g>
</g>
<!-- Node8&#45;&gt;Node11 -->
<g id="edge12" class="edge">
<title>Node8&#45;&gt;Node11</title>
<path fill="none" stroke="#191970" d="M232.649,-112.2455C218.6868,-103.6534 198.1272,-91.0014 182.0404,-81.1018"/>
<polygon fill="#191970" stroke="#191970" points="183.5203,-77.9029 173.1693,-75.6427 179.8516,-83.8645 183.5203,-77.9029"/>
</g>
<!-- Node11&#45;&gt;Node2 -->
<g id="edge14" class="edge">
<title>Node11&#45;&gt;Node2</title>
<path fill="none" stroke="#191970" d="M135.496,-56.3733C114.8565,-47.3435 83.7842,-33.7494 60.6111,-23.6111"/>
<polygon fill="#191970" stroke="#191970" points="61.7813,-20.3028 51.2169,-19.5011 58.9755,-26.7159 61.7813,-20.3028"/>
</g>
<!-- Node11&#45;&gt;Node9 -->
<g id="edge13" class="edge">
<title>Node11&#45;&gt;Node9</title>
<path fill="none" stroke="#191970" d="M179.504,-56.3733C200.1435,-47.3435 231.2158,-33.7494 254.3889,-23.6111"/>
<polygon fill="#191970" stroke="#191970" points="256.0245,-26.7159 263.7831,-19.5011 253.2187,-20.3028 256.0245,-26.7159"/>
</g>
<!-- Node12&#45;&gt;Node6 -->
<g id="edge16" class="edge">
<title>Node12&#45;&gt;Node6</title>
<path fill="none" stroke="#191970" d="M412.0866,-112.2455C423.8305,-103.814 441.0199,-91.4729 454.6882,-81.6598"/>
<polygon fill="#191970" stroke="#191970" points="456.9871,-84.3179 463.0691,-75.6427 452.9046,-78.6316 456.9871,-84.3179"/>
</g>
<!-- Node12&#45;&gt;Node9 -->
<g id="edge17" class="edge">
<title>Node12&#45;&gt;Node9</title>
<path fill="none" stroke="#191970" d="M399.5399,-112.3837C400.5122,-98.4665 400.2561,-72.5677 387.5,-56 370.4666,-33.8768 340.4071,-22.0954 317.3179,-16.0167"/>
<polygon fill="#191970" stroke="#191970" points="318.1313,-12.6126 307.5902,-13.6777 316.4948,-19.4187 318.1313,-12.6126"/>
</g>
</g>
</svg>
