<?xml version="1.0" encoding="UTF-8" standalone="no"?>
<!DOCTYPE svg PUBLIC "-//W3C//DTD SVG 1.1//EN"
 "http://www.w3.org/Graphics/SVG/1.1/DTD/svg11.dtd">
<!-- Generated by graphviz version 2.40.1 (20161225.0304)
 -->
<!-- Title: TEST_F Pages: 1 -->
<svg width="235pt" height="235pt"
 viewBox="0.00 0.00 235.00 235.00" xmlns="http://www.w3.org/2000/svg" xmlns:xlink="http://www.w3.org/1999/xlink">
<g id="graph0" class="graph" transform="scale(1 1) rotate(0) translate(4 231)">
<title>TEST_F</title>
<polygon fill="#ffffff" stroke="transparent" points="-4,4 -4,-231 231,-231 231,4 -4,4"/>
<!-- Node8 -->
<g id="node1" class="node">
<title>Node8</title>
<polygon fill="#bfbfbf" stroke="#000000" points="0,-104 0,-123 51,-123 51,-104 0,-104"/>
<text text-anchor="middle" x="25.5" y="-111" font-family="Helvetica,sans-Serif" font-size="10.00" fill="#000000">TEST_F</text>
</g>
<!-- Node9 -->
<g id="node2" class="node">
<title>Node9</title>
<g id="a_node2"><a xlink:href="classbsn_1_1goalmodel_1_1Node.html#ae0ad7ddec09e54734821a25e84677553" target="_top" xlink:title="bsn::goalmodel::Node\l::getID">
<polygon fill="#ffffff" stroke="#000000" points="95.5,-196.5 95.5,-226.5 218.5,-226.5 218.5,-196.5 95.5,-196.5"/>
<text text-anchor="start" x="103.5" y="-214.5" font-family="Helvetica,sans-Serif" font-size="10.00" fill="#000000">bsn::goalmodel::Node</text>
<text text-anchor="middle" x="157" y="-203.5" font-family="Helvetica,sans-Serif" font-size="10.00" fill="#000000">::getID</text>
</a>
</g>
</g>
<!-- Node8&#45;&gt;Node9 -->
<g id="edge1" class="edge">
<title>Node8&#45;&gt;Node9</title>
<path fill="none" stroke="#191970" d="M31.0432,-123.1155C40.5475,-138.7877 61.4236,-169.8576 87,-187.5 89.2522,-189.0536 91.6141,-190.5147 94.052,-191.8881"/>
<polygon fill="#191970" stroke="#191970" points="92.6468,-195.0995 103.1506,-196.4854 95.8037,-188.8518 92.6468,-195.0995"/>
</g>
<!-- Node10 -->
<g id="node3" class="node">
<title>Node10</title>
<g id="a_node3"><a xlink:href="classbsn_1_1goalmodel_1_1Node.html#a6e9b650e57a8951f241d88267a4521e7" target="_top" xlink:title="bsn::goalmodel::Node\l::getDescription">
<polygon fill="#ffffff" stroke="#000000" points="95.5,-147.5 95.5,-177.5 218.5,-177.5 218.5,-147.5 95.5,-147.5"/>
<text text-anchor="start" x="103.5" y="-165.5" font-family="Helvetica,sans-Serif" font-size="10.00" fill="#000000">bsn::goalmodel::Node</text>
<text text-anchor="middle" x="157" y="-154.5" font-family="Helvetica,sans-Serif" font-size="10.00" fill="#000000">::getDescription</text>
</a>
</g>
</g>
<!-- Node8&#45;&gt;Node10 -->
<g id="edge2" class="edge">
<title>Node8&#45;&gt;Node10</title>
<path fill="none" stroke="#191970" d="M48.1622,-123.0649C59.7244,-127.8549 74.0472,-133.6511 87,-138.5 91.839,-140.3115 96.8853,-142.1462 101.9543,-143.952"/>
<polygon fill="#191970" stroke="#191970" points="101.087,-147.3571 111.6818,-147.3756 103.4109,-140.7541 101.087,-147.3571"/>
</g>
<!-- Node11 -->
<g id="node4" class="node">
<title>Node11</title>
<g id="a_node4"><a xlink:href="classbsn_1_1goalmodel_1_1LeafTask.html#a165ec6f4b6bb2edc66201376fec30e12" target="_top" xlink:title="bsn::goalmodel::LeafTask\l::getCost">
<polygon fill="#ffffff" stroke="#000000" points="87,-98.5 87,-128.5 227,-128.5 227,-98.5 87,-98.5"/>
<text text-anchor="start" x="95" y="-116.5" font-family="Helvetica,sans-Serif" font-size="10.00" fill="#000000">bsn::goalmodel::LeafTask</text>
<text text-anchor="middle" x="157" y="-105.5" font-family="Helvetica,sans-Serif" font-size="10.00" fill="#000000">::getCost</text>
</a>
</g>
</g>
<!-- Node8&#45;&gt;Node11 -->
<g id="edge3" class="edge">
<title>Node8&#45;&gt;Node11</title>
<path fill="none" stroke="#191970" d="M51.1667,-113.5C58.7964,-113.5 67.5906,-113.5 76.7817,-113.5"/>
<polygon fill="#191970" stroke="#191970" points="76.8744,-117.0001 86.8744,-113.5 76.8743,-110.0001 76.8744,-117.0001"/>
</g>
<!-- Node12 -->
<g id="node5" class="node">
<title>Node12</title>
<g id="a_node5"><a xlink:href="classbsn_1_1goalmodel_1_1LeafTask.html#ae57e36bae78eae6a0deff6f6087cab39" target="_top" xlink:title="bsn::goalmodel::LeafTask\l::getReliability">
<polygon fill="#ffffff" stroke="#000000" points="87,-49.5 87,-79.5 227,-79.5 227,-49.5 87,-49.5"/>
<text text-anchor="start" x="95" y="-67.5" font-family="Helvetica,sans-Serif" font-size="10.00" fill="#000000">bsn::goalmodel::LeafTask</text>
<text text-anchor="middle" x="157" y="-56.5" font-family="Helvetica,sans-Serif" font-size="10.00" fill="#000000">::getReliability</text>
</a>
</g>
</g>
<!-- Node8&#45;&gt;Node12 -->
<g id="edge4" class="edge">
<title>Node8&#45;&gt;Node12</title>
<path fill="none" stroke="#191970" d="M49.3873,-103.9922C60.7508,-99.5169 74.5457,-94.153 87,-89.5 92.7911,-87.3364 98.8662,-85.1071 104.916,-82.9125"/>
<polygon fill="#191970" stroke="#191970" points="106.1388,-86.1922 114.3579,-79.5066 103.7635,-79.6075 106.1388,-86.1922"/>
</g>
<!-- Node13 -->
<g id="node6" class="node">
<title>Node13</title>
<g id="a_node6"><a xlink:href="classbsn_1_1goalmodel_1_1LeafTask.html#a7449c8d90f8210827cd3ebade39ab3da" target="_top" xlink:title="bsn::goalmodel::LeafTask\l::getFrequency">
<polygon fill="#ffffff" stroke="#000000" points="87,-.5 87,-30.5 227,-30.5 227,-.5 87,-.5"/>
<text text-anchor="start" x="95" y="-18.5" font-family="Helvetica,sans-Serif" font-size="10.00" fill="#000000">bsn::goalmodel::LeafTask</text>
<text text-anchor="middle" x="157" y="-7.5" font-family="Helvetica,sans-Serif" font-size="10.00" fill="#000000">::getFrequency</text>
</a>
</g>
</g>
<!-- Node8&#45;&gt;Node13 -->
<g id="edge5" class="edge">
<title>Node8&#45;&gt;Node13</title>
<path fill="none" stroke="#191970" d="M31.414,-103.5514C41.1399,-87.9933 61.9526,-57.8892 87,-40.5 89.8422,-38.5268 92.857,-36.6926 95.9769,-34.9901"/>
<polygon fill="#191970" stroke="#191970" points="97.5782,-38.1029 104.9921,-30.5343 94.4765,-31.8276 97.5782,-38.1029"/>
</g>
</g>
</svg>
