<?xml version="1.0" encoding="UTF-8" standalone="no"?>
<!DOCTYPE svg PUBLIC "-//W3C//DTD SVG 1.1//EN"
 "http://www.w3.org/Graphics/SVG/1.1/DTD/svg11.dtd">
<!-- Generated by graphviz version 2.40.1 (20161225.0304)
 -->
<!-- Title: src/libbsn/src/goalmodel/LeafTask.cpp Pages: 1 -->
<svg width="892pt" height="319pt"
 viewBox="0.00 0.00 891.50 319.00" xmlns="http://www.w3.org/2000/svg" xmlns:xlink="http://www.w3.org/1999/xlink">
<g id="graph0" class="graph" transform="scale(1 1) rotate(0) translate(4 315)">
<title>src/libbsn/src/goalmodel/LeafTask.cpp</title>
<polygon fill="#ffffff" stroke="transparent" points="-4,4 -4,-315 887.5,-315 887.5,4 -4,4"/>
<!-- Node0 -->
<g id="node1" class="node">
<title>Node0</title>
<polygon fill="#bfbfbf" stroke="#000000" points="555,-280.5 555,-310.5 690,-310.5 690,-280.5 555,-280.5"/>
<text text-anchor="start" x="563" y="-298.5" font-family="Helvetica,sans-Serif" font-size="10.00" fill="#000000">src/libbsn/src/goalmodel</text>
<text text-anchor="middle" x="622.5" y="-287.5" font-family="Helvetica,sans-Serif" font-size="10.00" fill="#000000">/LeafTask.cpp</text>
</g>
<!-- Node1 -->
<g id="node2" class="node">
<title>Node1</title>
<g id="a_node2"><a xlink:href="LeafTask_8hpp.html" target="_top" xlink:title="libbsn/goalmodel/LeafTask.hpp">
<polygon fill="#ffffff" stroke="#000000" points="379,-224.5 379,-243.5 546,-243.5 546,-224.5 379,-224.5"/>
<text text-anchor="middle" x="462.5" y="-231.5" font-family="Helvetica,sans-Serif" font-size="10.00" fill="#000000">libbsn/goalmodel/LeafTask.hpp</text>
</a>
</g>
</g>
<!-- Node0&#45;&gt;Node1 -->
<g id="edge1" class="edge">
<title>Node0&#45;&gt;Node1</title>
<path fill="none" stroke="#191970" d="M583.3596,-280.4554C556.8974,-270.284 522.2819,-256.9787 496.8817,-247.2155"/>
<polygon fill="#191970" stroke="#191970" points="497.8843,-243.8512 487.2943,-243.5303 495.3728,-250.3852 497.8843,-243.8512"/>
</g>
<!-- Node9 -->
<g id="node10" class="node">
<title>Node9</title>
<polygon fill="#ffffff" stroke="#bfbfbf" points="778.5,-.5 778.5,-19.5 836.5,-19.5 836.5,-.5 778.5,-.5"/>
<text text-anchor="middle" x="807.5" y="-7.5" font-family="Helvetica,sans-Serif" font-size="10.00" fill="#000000">memory</text>
</g>
<!-- Node0&#45;&gt;Node9 -->
<g id="edge23" class="edge">
<title>Node0&#45;&gt;Node9</title>
<path fill="none" stroke="#191970" d="M685.3481,-280.4513C762.5778,-260.0893 883.5,-221.2947 883.5,-178 883.5,-178 883.5,-178 883.5,-122 883.5,-82.2361 850.2929,-46.1042 827.7792,-26.177"/>
<polygon fill="#191970" stroke="#191970" points="829.9317,-23.4128 820.0499,-19.5918 825.3921,-28.7412 829.9317,-23.4128"/>
</g>
<!-- Node2 -->
<g id="node3" class="node">
<title>Node2</title>
<polygon fill="#ffffff" stroke="#bfbfbf" points="334.5,-.5 334.5,-19.5 378.5,-19.5 378.5,-.5 334.5,-.5"/>
<text text-anchor="middle" x="356.5" y="-7.5" font-family="Helvetica,sans-Serif" font-size="10.00" fill="#000000">string</text>
</g>
<!-- Node1&#45;&gt;Node2 -->
<g id="edge2" class="edge">
<title>Node1&#45;&gt;Node2</title>
<path fill="none" stroke="#191970" d="M428.5536,-224.4585C371.3744,-206.3367 257.5007,-160.9436 210.5,-76 185.4168,-30.6674 274.1133,-16.3626 324.3066,-11.9329"/>
<polygon fill="#191970" stroke="#191970" points="324.6879,-15.4137 334.3781,-11.1299 324.1315,-8.4358 324.6879,-15.4137"/>
</g>
<!-- Node3 -->
<g id="node4" class="node">
<title>Node3</title>
<polygon fill="#ffffff" stroke="#bfbfbf" points="678,-.5 678,-19.5 725,-19.5 725,-.5 678,-.5"/>
<text text-anchor="middle" x="701.5" y="-7.5" font-family="Helvetica,sans-Serif" font-size="10.00" fill="#000000">vector</text>
</g>
<!-- Node1&#45;&gt;Node3 -->
<g id="edge3" class="edge">
<title>Node1&#45;&gt;Node3</title>
<path fill="none" stroke="#191970" d="M519.1949,-224.4509C554.7862,-217.2106 601.0591,-205.4773 639.5,-188 679.6748,-169.7343 689.2692,-162.1468 721.5,-132 750.0047,-105.3384 783.3083,-90.7307 765.5,-56 758.567,-42.4789 745.6064,-32.0326 733.1519,-24.5377"/>
<polygon fill="#191970" stroke="#191970" points="734.7072,-21.3979 724.266,-19.6001 731.3072,-27.5168 734.7072,-21.3979"/>
</g>
<!-- Node4 -->
<g id="node5" class="node">
<title>Node4</title>
<g id="a_node5"><a xlink:href="Context_8hpp.html" target="_top" xlink:title="libbsn/goalmodel/Context.hpp">
<polygon fill="#ffffff" stroke="#000000" points="0,-112.5 0,-131.5 163,-131.5 163,-112.5 0,-112.5"/>
<text text-anchor="middle" x="81.5" y="-119.5" font-family="Helvetica,sans-Serif" font-size="10.00" fill="#000000">libbsn/goalmodel/Context.hpp</text>
</a>
</g>
</g>
<!-- Node1&#45;&gt;Node4 -->
<g id="edge4" class="edge">
<title>Node1&#45;&gt;Node4</title>
<path fill="none" stroke="#191970" d="M378.8468,-224.6216C308.2489,-215.9525 213.148,-202.2861 177.5,-188 147.9749,-176.1677 118.4962,-153.9654 100.1494,-138.5995"/>
<polygon fill="#191970" stroke="#191970" points="101.954,-135.5361 92.0855,-131.6808 97.3958,-140.8487 101.954,-135.5361"/>
</g>
<!-- Node5 -->
<g id="node6" class="node">
<title>Node5</title>
<g id="a_node6"><a xlink:href="Property_8hpp.html" target="_top" xlink:title="libbsn/goalmodel/Property.hpp">
<polygon fill="#ffffff" stroke="#000000" points="219.5,-56.5 219.5,-75.5 383.5,-75.5 383.5,-56.5 219.5,-56.5"/>
<text text-anchor="middle" x="301.5" y="-63.5" font-family="Helvetica,sans-Serif" font-size="10.00" fill="#000000">libbsn/goalmodel/Property.hpp</text>
</a>
</g>
</g>
<!-- Node1&#45;&gt;Node5 -->
<g id="edge6" class="edge">
<title>Node1&#45;&gt;Node5</title>
<path fill="none" stroke="#191970" d="M453.3826,-224.4862C427.2712,-197.2396 351.9248,-118.6172 318.1842,-83.4096"/>
<polygon fill="#191970" stroke="#191970" points="320.3644,-80.6261 310.9184,-75.8279 315.3105,-85.4695 320.3644,-80.6261"/>
</g>
<!-- Node6 -->
<g id="node7" class="node">
<title>Node6</title>
<g id="a_node7"><a xlink:href="Task_8hpp.html" target="_top" xlink:title="libbsn/goalmodel/Task.hpp">
<polygon fill="#ffffff" stroke="#000000" points="484.5,-168.5 484.5,-187.5 630.5,-187.5 630.5,-168.5 484.5,-168.5"/>
<text text-anchor="middle" x="557.5" y="-175.5" font-family="Helvetica,sans-Serif" font-size="10.00" fill="#000000">libbsn/goalmodel/Task.hpp</text>
</a>
</g>
</g>
<!-- Node1&#45;&gt;Node6 -->
<g id="edge8" class="edge">
<title>Node1&#45;&gt;Node6</title>
<path fill="none" stroke="#191970" d="M479.0477,-224.2455C493.7599,-215.5731 515.4888,-202.7645 532.3505,-192.825"/>
<polygon fill="#191970" stroke="#191970" points="534.3046,-195.736 541.1419,-187.6427 530.7498,-189.7057 534.3046,-195.736"/>
</g>
<!-- Node4&#45;&gt;Node2 -->
<g id="edge5" class="edge">
<title>Node4&#45;&gt;Node2</title>
<path fill="none" stroke="#191970" d="M92.5279,-112.4646C109.6075,-98.1702 143.9934,-71.2419 177.5,-56 226.2786,-33.8111 287.5975,-20.9955 324.3329,-14.7671"/>
<polygon fill="#191970" stroke="#191970" points="325.1528,-18.1796 334.4573,-13.1125 324.0237,-11.2713 325.1528,-18.1796"/>
</g>
<!-- Node5&#45;&gt;Node2 -->
<g id="edge7" class="edge">
<title>Node5&#45;&gt;Node2</title>
<path fill="none" stroke="#191970" d="M311.0803,-56.2455C319.0458,-48.1352 330.5641,-36.4075 340.0079,-26.7919"/>
<polygon fill="#191970" stroke="#191970" points="342.5195,-29.2297 347.0295,-19.6427 337.5253,-24.3247 342.5195,-29.2297"/>
</g>
<!-- Node6&#45;&gt;Node2 -->
<g id="edge9" class="edge">
<title>Node6&#45;&gt;Node2</title>
<path fill="none" stroke="#191970" d="M531.5056,-168.3367C511.9559,-160.3401 485.1058,-147.7547 464.5,-132 443.3314,-115.815 394.826,-57.3752 370.686,-27.6413"/>
<polygon fill="#191970" stroke="#191970" points="373.3087,-25.3183 364.2992,-19.7434 367.8657,-29.7199 373.3087,-25.3183"/>
</g>
<!-- Node6&#45;&gt;Node3 -->
<g id="edge10" class="edge">
<title>Node6&#45;&gt;Node3</title>
<path fill="none" stroke="#191970" d="M604.83,-168.4364C651.7443,-156.0952 720.7757,-129.5038 750.5,-76 760.8039,-57.453 742.6136,-38.1885 725.5499,-25.2952"/>
<polygon fill="#191970" stroke="#191970" points="727.5746,-22.4404 717.3934,-19.5087 723.5242,-28.1495 727.5746,-22.4404"/>
</g>
<!-- Node7 -->
<g id="node8" class="node">
<title>Node7</title>
<polygon fill="#ffffff" stroke="#bfbfbf" points="493,-.5 493,-19.5 558,-19.5 558,-.5 493,-.5"/>
<text text-anchor="middle" x="525.5" y="-7.5" font-family="Helvetica,sans-Serif" font-size="10.00" fill="#000000">stdexcept</text>
</g>
<!-- Node6&#45;&gt;Node7 -->
<g id="edge11" class="edge">
<title>Node6&#45;&gt;Node7</title>
<path fill="none" stroke="#191970" d="M523.6035,-168.4632C505.6299,-161.4893 485.1198,-150.0275 474.5,-132 453.6673,-96.6359 486.809,-51.1619 508.6955,-26.9484"/>
<polygon fill="#191970" stroke="#191970" points="511.3026,-29.2849 515.5922,-19.5972 506.1976,-24.4954 511.3026,-29.2849"/>
</g>
<!-- Node8 -->
<g id="node9" class="node">
<title>Node8</title>
<g id="a_node9"><a xlink:href="Node_8hpp.html" target="_top" xlink:title="libbsn/goalmodel/Node.hpp">
<polygon fill="#ffffff" stroke="#000000" points="591.5,-56.5 591.5,-75.5 741.5,-75.5 741.5,-56.5 591.5,-56.5"/>
<text text-anchor="middle" x="666.5" y="-63.5" font-family="Helvetica,sans-Serif" font-size="10.00" fill="#000000">libbsn/goalmodel/Node.hpp</text>
</a>
</g>
</g>
<!-- Node6&#45;&gt;Node8 -->
<g id="edge12" class="edge">
<title>Node6&#45;&gt;Node8</title>
<path fill="none" stroke="#191970" d="M584.1953,-168.4467C601.9175,-160.925 624.5801,-148.8764 639.5,-132 651.2617,-118.696 658.3195,-99.5805 662.2522,-85.3426"/>
<polygon fill="#191970" stroke="#191970" points="665.6625,-86.1315 664.6765,-75.5826 658.869,-84.4439 665.6625,-86.1315"/>
</g>
<!-- Node6&#45;&gt;Node9 -->
<g id="edge17" class="edge">
<title>Node6&#45;&gt;Node9</title>
<path fill="none" stroke="#191970" d="M627.4351,-168.4439C658.1969,-161.8041 693.5951,-150.6493 721.5,-132 760.2825,-106.081 787.0449,-56.2938 799.5165,-29.0183"/>
<polygon fill="#191970" stroke="#191970" points="802.7648,-30.3262 803.5919,-19.7637 796.3585,-27.505 802.7648,-30.3262"/>
</g>
<!-- Node10 -->
<g id="node11" class="node">
<title>Node10</title>
<g id="a_node11"><a xlink:href="Goal_8hpp.html" target="_top" xlink:title="libbsn/goalmodel/Goal.hpp">
<polygon fill="#ffffff" stroke="#000000" points="484,-112.5 484,-131.5 631,-131.5 631,-112.5 484,-112.5"/>
<text text-anchor="middle" x="557.5" y="-119.5" font-family="Helvetica,sans-Serif" font-size="10.00" fill="#000000">libbsn/goalmodel/Goal.hpp</text>
</a>
</g>
</g>
<!-- Node6&#45;&gt;Node10 -->
<g id="edge18" class="edge">
<title>Node6&#45;&gt;Node10</title>
<path fill="none" stroke="#191970" d="M557.5,-168.2455C557.5,-160.9382 557.5,-150.6944 557.5,-141.7046"/>
<polygon fill="#191970" stroke="#191970" points="561.0001,-141.6426 557.5,-131.6427 554.0001,-141.6427 561.0001,-141.6426"/>
</g>
<!-- Node8&#45;&gt;Node2 -->
<g id="edge13" class="edge">
<title>Node8&#45;&gt;Node2</title>
<path fill="none" stroke="#191970" d="M613.5613,-56.4369C549.0372,-44.7809 442.0353,-25.4515 388.736,-15.8233"/>
<polygon fill="#191970" stroke="#191970" points="389.2837,-12.3656 378.8207,-14.0321 388.0392,-19.2541 389.2837,-12.3656"/>
</g>
<!-- Node8&#45;&gt;Node3 -->
<g id="edge14" class="edge">
<title>Node8&#45;&gt;Node3</title>
<path fill="none" stroke="#191970" d="M672.5965,-56.2455C677.4145,-48.5367 684.2751,-37.5598 690.1032,-28.2348"/>
<polygon fill="#191970" stroke="#191970" points="693.1413,-29.9777 695.4733,-19.6427 687.2053,-26.2677 693.1413,-29.9777"/>
</g>
<!-- Node8&#45;&gt;Node7 -->
<g id="edge15" class="edge">
<title>Node8&#45;&gt;Node7</title>
<path fill="none" stroke="#191970" d="M642.2612,-56.3733C619.2211,-47.2226 584.3786,-33.3844 558.7499,-23.2057"/>
<polygon fill="#191970" stroke="#191970" points="560.0082,-19.9395 549.4225,-19.5011 557.4244,-26.4452 560.0082,-19.9395"/>
</g>
<!-- Node8&#45;&gt;Node9 -->
<g id="edge16" class="edge">
<title>Node8&#45;&gt;Node9</title>
<path fill="none" stroke="#191970" d="M690.7388,-56.3733C713.7789,-47.2226 748.6214,-33.3844 774.2501,-23.2057"/>
<polygon fill="#191970" stroke="#191970" points="775.5756,-26.4452 783.5775,-19.5011 772.9918,-19.9395 775.5756,-26.4452"/>
</g>
<!-- Node10&#45;&gt;Node2 -->
<g id="edge19" class="edge">
<title>Node10&#45;&gt;Node2</title>
<path fill="none" stroke="#191970" d="M540.3629,-112.4509C505.0584,-92.7788 424.0438,-47.6363 382.3437,-24.4005"/>
<polygon fill="#191970" stroke="#191970" points="384.0328,-21.335 373.5938,-19.5249 380.6256,-27.4498 384.0328,-21.335"/>
</g>
<!-- Node10&#45;&gt;Node3 -->
<g id="edge20" class="edge">
<title>Node10&#45;&gt;Node3</title>
<path fill="none" stroke="#191970" d="M558.6924,-112.1405C560.9121,-97.9204 566.9576,-71.648 582.5,-56 605.5122,-32.8313 641.4863,-21.092 667.8608,-15.3018"/>
<polygon fill="#191970" stroke="#191970" points="668.6924,-18.7046 677.8036,-13.2976 667.3091,-11.8426 668.6924,-18.7046"/>
</g>
<!-- Node10&#45;&gt;Node7 -->
<g id="edge21" class="edge">
<title>Node10&#45;&gt;Node7</title>
<path fill="none" stroke="#191970" d="M554.7717,-112.4509C549.5289,-94.1013 537.9545,-53.5908 531.0341,-29.3693"/>
<polygon fill="#191970" stroke="#191970" points="534.334,-28.1786 528.2214,-19.5249 527.6033,-30.1017 534.334,-28.1786"/>
</g>
<!-- Node10&#45;&gt;Node8 -->
<g id="edge22" class="edge">
<title>Node10&#45;&gt;Node8</title>
<path fill="none" stroke="#191970" d="M576.4864,-112.2455C593.6792,-103.4125 619.2238,-90.2887 638.7132,-80.2758"/>
<polygon fill="#191970" stroke="#191970" points="640.4359,-83.3257 647.7312,-75.6427 637.237,-77.0993 640.4359,-83.3257"/>
</g>
</g>
</svg>
