<?xml version="1.0" encoding="UTF-8" standalone="no"?>
<!DOCTYPE svg PUBLIC "-//W3C//DTD SVG 1.1//EN"
 "http://www.w3.org/Graphics/SVG/1.1/DTD/svg11.dtd">
<!-- Generated by graphviz version 2.40.1 (20161225.0304)
 -->
<!-- Title: TEST_F Pages: 1 -->
<svg width="235pt" height="284pt"
 viewBox="0.00 0.00 235.00 284.00" xmlns="http://www.w3.org/2000/svg" xmlns:xlink="http://www.w3.org/1999/xlink">
<g id="graph0" class="graph" transform="scale(1 1) rotate(0) translate(4 280)">
<title>TEST_F</title>
<polygon fill="#ffffff" stroke="transparent" points="-4,4 -4,-280 231,-280 231,4 -4,4"/>
<!-- Node0 -->
<g id="node1" class="node">
<title>Node0</title>
<polygon fill="#bfbfbf" stroke="#000000" points="0,-128 0,-147 51,-147 51,-128 0,-128"/>
<text text-anchor="middle" x="25.5" y="-135" font-family="Helvetica,sans-Serif" font-size="10.00" fill="#000000">TEST_F</text>
</g>
<!-- Node1 -->
<g id="node2" class="node">
<title>Node1</title>
<g id="a_node2"><a xlink:href="classbsn_1_1goalmodel_1_1Node.html#ae0ad7ddec09e54734821a25e84677553" target="_top" xlink:title="bsn::goalmodel::Node\l::getID">
<polygon fill="#ffffff" stroke="#000000" points="95.5,-245.5 95.5,-275.5 218.5,-275.5 218.5,-245.5 95.5,-245.5"/>
<text text-anchor="start" x="103.5" y="-263.5" font-family="Helvetica,sans-Serif" font-size="10.00" fill="#000000">bsn::goalmodel::Node</text>
<text text-anchor="middle" x="157" y="-252.5" font-family="Helvetica,sans-Serif" font-size="10.00" fill="#000000">::getID</text>
</a>
</g>
</g>
<!-- Node0&#45;&gt;Node1 -->
<g id="edge1" class="edge">
<title>Node0&#45;&gt;Node1</title>
<path fill="none" stroke="#191970" d="M28.9393,-147.1937C36.4089,-166.8859 55.9793,-211.7916 87,-236.5 88.7554,-237.8982 90.5973,-239.2174 92.5055,-240.4618"/>
<polygon fill="#191970" stroke="#191970" points="90.8169,-243.528 101.2356,-245.452 94.2907,-237.4507 90.8169,-243.528"/>
</g>
<!-- Node2 -->
<g id="node3" class="node">
<title>Node2</title>
<g id="a_node3"><a xlink:href="classbsn_1_1goalmodel_1_1Node.html#a6e9b650e57a8951f241d88267a4521e7" target="_top" xlink:title="bsn::goalmodel::Node\l::getDescription">
<polygon fill="#ffffff" stroke="#000000" points="95.5,-196.5 95.5,-226.5 218.5,-226.5 218.5,-196.5 95.5,-196.5"/>
<text text-anchor="start" x="103.5" y="-214.5" font-family="Helvetica,sans-Serif" font-size="10.00" fill="#000000">bsn::goalmodel::Node</text>
<text text-anchor="middle" x="157" y="-203.5" font-family="Helvetica,sans-Serif" font-size="10.00" fill="#000000">::getDescription</text>
</a>
</g>
</g>
<!-- Node0&#45;&gt;Node2 -->
<g id="edge2" class="edge">
<title>Node0&#45;&gt;Node2</title>
<path fill="none" stroke="#191970" d="M35.1389,-147.1874C46.6159,-158.2571 66.7843,-176.286 87,-187.5 90.0702,-189.2031 93.2826,-190.8161 96.5718,-192.3387"/>
<polygon fill="#191970" stroke="#191970" points="95.4216,-195.654 105.9908,-196.3908 98.1879,-189.2238 95.4216,-195.654"/>
</g>
<!-- Node3 -->
<g id="node4" class="node">
<title>Node3</title>
<g id="a_node4"><a xlink:href="classbsn_1_1goalmodel_1_1LeafTask.html#a05a6edfe1d551224522d1864fbac4155" target="_top" xlink:title="bsn::goalmodel::LeafTask\l::getContext">
<polygon fill="#ffffff" stroke="#000000" points="87,-147.5 87,-177.5 227,-177.5 227,-147.5 87,-147.5"/>
<text text-anchor="start" x="95" y="-165.5" font-family="Helvetica,sans-Serif" font-size="10.00" fill="#000000">bsn::goalmodel::LeafTask</text>
<text text-anchor="middle" x="157" y="-154.5" font-family="Helvetica,sans-Serif" font-size="10.00" fill="#000000">::getContext</text>
</a>
</g>
</g>
<!-- Node0&#45;&gt;Node3 -->
<g id="edge3" class="edge">
<title>Node0&#45;&gt;Node3</title>
<path fill="none" stroke="#191970" d="M51.1667,-142.3796C58.7964,-143.8301 67.5906,-145.502 76.7817,-147.2494"/>
<polygon fill="#191970" stroke="#191970" points="76.3966,-150.7388 86.8744,-149.1681 77.7041,-143.862 76.3966,-150.7388"/>
</g>
<!-- Node4 -->
<g id="node5" class="node">
<title>Node4</title>
<g id="a_node5"><a xlink:href="classbsn_1_1goalmodel_1_1LeafTask.html#a165ec6f4b6bb2edc66201376fec30e12" target="_top" xlink:title="bsn::goalmodel::LeafTask\l::getCost">
<polygon fill="#ffffff" stroke="#000000" points="87,-98.5 87,-128.5 227,-128.5 227,-98.5 87,-98.5"/>
<text text-anchor="start" x="95" y="-116.5" font-family="Helvetica,sans-Serif" font-size="10.00" fill="#000000">bsn::goalmodel::LeafTask</text>
<text text-anchor="middle" x="157" y="-105.5" font-family="Helvetica,sans-Serif" font-size="10.00" fill="#000000">::getCost</text>
</a>
</g>
</g>
<!-- Node0&#45;&gt;Node4 -->
<g id="edge4" class="edge">
<title>Node0&#45;&gt;Node4</title>
<path fill="none" stroke="#191970" d="M51.1667,-132.8156C58.7964,-131.4231 67.5906,-129.8181 76.7817,-128.1406"/>
<polygon fill="#191970" stroke="#191970" points="77.6653,-131.5372 86.8744,-126.2986 76.4084,-124.651 77.6653,-131.5372"/>
</g>
<!-- Node5 -->
<g id="node6" class="node">
<title>Node5</title>
<g id="a_node6"><a xlink:href="classbsn_1_1goalmodel_1_1LeafTask.html#ae57e36bae78eae6a0deff6f6087cab39" target="_top" xlink:title="bsn::goalmodel::LeafTask\l::getReliability">
<polygon fill="#ffffff" stroke="#000000" points="87,-49.5 87,-79.5 227,-79.5 227,-49.5 87,-49.5"/>
<text text-anchor="start" x="95" y="-67.5" font-family="Helvetica,sans-Serif" font-size="10.00" fill="#000000">bsn::goalmodel::LeafTask</text>
<text text-anchor="middle" x="157" y="-56.5" font-family="Helvetica,sans-Serif" font-size="10.00" fill="#000000">::getReliability</text>
</a>
</g>
</g>
<!-- Node0&#45;&gt;Node5 -->
<g id="edge5" class="edge">
<title>Node0&#45;&gt;Node5</title>
<path fill="none" stroke="#191970" d="M35.6544,-127.8913C47.2895,-117.3015 67.3001,-100.3358 87,-89.5 90.7525,-87.436 94.7085,-85.4869 98.7522,-83.6578"/>
<polygon fill="#191970" stroke="#191970" points="100.4537,-86.7379 108.292,-79.6096 97.7193,-80.294 100.4537,-86.7379"/>
</g>
<!-- Node6 -->
<g id="node7" class="node">
<title>Node6</title>
<g id="a_node7"><a xlink:href="classbsn_1_1goalmodel_1_1LeafTask.html#a7449c8d90f8210827cd3ebade39ab3da" target="_top" xlink:title="bsn::goalmodel::LeafTask\l::getFrequency">
<polygon fill="#ffffff" stroke="#000000" points="87,-.5 87,-30.5 227,-30.5 227,-.5 87,-.5"/>
<text text-anchor="start" x="95" y="-18.5" font-family="Helvetica,sans-Serif" font-size="10.00" fill="#000000">bsn::goalmodel::LeafTask</text>
<text text-anchor="middle" x="157" y="-7.5" font-family="Helvetica,sans-Serif" font-size="10.00" fill="#000000">::getFrequency</text>
</a>
</g>
</g>
<!-- Node0&#45;&gt;Node6 -->
<g id="edge6" class="edge">
<title>Node0&#45;&gt;Node6</title>
<path fill="none" stroke="#191970" d="M29.1382,-127.7378C36.8431,-108.3513 56.629,-64.7788 87,-40.5 89.2679,-38.687 91.6779,-36.9996 94.1875,-35.4296"/>
<polygon fill="#191970" stroke="#191970" points="95.9848,-38.4353 103.042,-30.5329 92.5971,-32.3096 95.9848,-38.4353"/>
</g>
</g>
</svg>
