<?xml version="1.0" encoding="UTF-8" standalone="no"?>
<!DOCTYPE svg PUBLIC "-//W3C//DTD SVG 1.1//EN"
 "http://www.w3.org/Graphics/SVG/1.1/DTD/svg11.dtd">
<!-- Generated by graphviz version 2.40.1 (20161225.0304)
 -->
<!-- Title: src/libbsn/include/libbsn/goalmodel/LeafTask.hpp Pages: 1 -->
<svg width="1295pt" height="340pt"
 viewBox="0.00 0.00 1294.50 340.00" xmlns="http://www.w3.org/2000/svg" xmlns:xlink="http://www.w3.org/1999/xlink">
<g id="graph0" class="graph" transform="scale(1 1) rotate(0) translate(4 336)">
<title>src/libbsn/include/libbsn/goalmodel/LeafTask.hpp</title>
<polygon fill="#ffffff" stroke="transparent" points="-4,4 -4,-336 1290.5,-336 1290.5,4 -4,4"/>
<!-- Node10 -->
<g id="node1" class="node">
<title>Node10</title>
<polygon fill="#bfbfbf" stroke="#000000" points="618.5,-301.5 618.5,-331.5 788.5,-331.5 788.5,-301.5 618.5,-301.5"/>
<text text-anchor="start" x="626.5" y="-319.5" font-family="Helvetica,sans-Serif" font-size="10.00" fill="#000000">src/libbsn/include</text>
<text text-anchor="middle" x="703.5" y="-308.5" font-family="Helvetica,sans-Serif" font-size="10.00" fill="#000000">/libbsn/goalmodel/LeafTask.hpp</text>
</g>
<!-- Node11 -->
<g id="node2" class="node">
<title>Node11</title>
<g id="a_node2"><a xlink:href="GoalTree_8hpp.html" target="_top" xlink:title="src/libbsn/include\l/libbsn/goalmodel/GoalTree.hpp">
<polygon fill="#ffffff" stroke="#000000" points="505.5,-234.5 505.5,-264.5 675.5,-264.5 675.5,-234.5 505.5,-234.5"/>
<text text-anchor="start" x="513.5" y="-252.5" font-family="Helvetica,sans-Serif" font-size="10.00" fill="#000000">src/libbsn/include</text>
<text text-anchor="middle" x="590.5" y="-241.5" font-family="Helvetica,sans-Serif" font-size="10.00" fill="#000000">/libbsn/goalmodel/GoalTree.hpp</text>
</a>
</g>
</g>
<!-- Node10&#45;&gt;Node11 -->
<g id="edge1" class="edge">
<title>Node10&#45;&gt;Node11</title>
<path fill="none" stroke="#191970" d="M669.526,-296.3561C652.3962,-286.1995 631.963,-274.0843 616.1657,-264.7177"/>
<polygon fill="#191970" stroke="#191970" points="667.7538,-299.3743 678.1406,-301.4639 671.324,-293.3531 667.7538,-299.3743"/>
</g>
<!-- Node13 -->
<g id="node4" class="node">
<title>Node13</title>
<g id="a_node4"><a xlink:href="GoalTreeTest_8cpp.html" target="_top" xlink:title="src/libbsn/test/unit\l/goalmodel/GoalTreeTest.cpp">
<polygon fill="#ffffff" stroke="#000000" points="0,-162 0,-192 157,-192 157,-162 0,-162"/>
<text text-anchor="start" x="8" y="-180" font-family="Helvetica,sans-Serif" font-size="10.00" fill="#000000">src/libbsn/test/unit</text>
<text text-anchor="middle" x="78.5" y="-169" font-family="Helvetica,sans-Serif" font-size="10.00" fill="#000000">/goalmodel/GoalTreeTest.cpp</text>
</a>
</g>
</g>
<!-- Node10&#45;&gt;Node13 -->
<g id="edge18" class="edge">
<title>Node10&#45;&gt;Node13</title>
<path fill="none" stroke="#191970" d="M607.9922,-308.2641C532.9343,-300.5728 426.1241,-286.9257 334.5,-265 254.5135,-245.8592 164.2547,-211.765 115.1454,-192.1061"/>
<polygon fill="#191970" stroke="#191970" points="608.0669,-311.7893 618.3676,-309.3101 608.7691,-304.8246 608.0669,-311.7893"/>
</g>
<!-- Node14 -->
<g id="node5" class="node">
<title>Node14</title>
<g id="a_node5"><a xlink:href="DataAccess_8hpp.html" target="_top" xlink:title="src/sa&#45;bsn/knowledge\l_repository/data_access\l/include/data_access/DataAccess.hpp">
<polygon fill="#ffffff" stroke="#000000" points="175,-156.5 175,-197.5 374,-197.5 374,-156.5 175,-156.5"/>
<text text-anchor="start" x="183" y="-185.5" font-family="Helvetica,sans-Serif" font-size="10.00" fill="#000000">src/sa&#45;bsn/knowledge</text>
<text text-anchor="start" x="183" y="-174.5" font-family="Helvetica,sans-Serif" font-size="10.00" fill="#000000">_repository/data_access</text>
<text text-anchor="middle" x="274.5" y="-163.5" font-family="Helvetica,sans-Serif" font-size="10.00" fill="#000000">/include/data_access/DataAccess.hpp</text>
</a>
</g>
</g>
<!-- Node10&#45;&gt;Node14 -->
<g id="edge21" class="edge">
<title>Node10&#45;&gt;Node14</title>
<path fill="none" stroke="#191970" d="M608.0564,-306.1111C530.1854,-296.678 426.9888,-281.7158 388.5,-265 351.5779,-248.9646 316.0072,-218.2927 294.6917,-197.7366"/>
<polygon fill="#191970" stroke="#191970" points="608.0385,-309.6339 618.3838,-307.3479 608.871,-302.6836 608.0385,-309.6339"/>
</g>
<!-- Node17 -->
<g id="node8" class="node">
<title>Node17</title>
<g id="a_node8"><a xlink:href="CostEngine_8hpp.html" target="_top" xlink:title="src/sa&#45;bsn/system_manager\l/adaptation_engine/include\l/engine/CostEngine.hpp">
<polygon fill="#ffffff" stroke="#000000" points="419.5,-78.5 419.5,-119.5 573.5,-119.5 573.5,-78.5 419.5,-78.5"/>
<text text-anchor="start" x="427.5" y="-107.5" font-family="Helvetica,sans-Serif" font-size="10.00" fill="#000000">src/sa&#45;bsn/system_manager</text>
<text text-anchor="start" x="427.5" y="-96.5" font-family="Helvetica,sans-Serif" font-size="10.00" fill="#000000">/adaptation_engine/include</text>
<text text-anchor="middle" x="496.5" y="-85.5" font-family="Helvetica,sans-Serif" font-size="10.00" fill="#000000">/engine/CostEngine.hpp</text>
</a>
</g>
</g>
<!-- Node10&#45;&gt;Node17 -->
<g id="edge22" class="edge">
<title>Node10&#45;&gt;Node17</title>
<path fill="none" stroke="#191970" d="M608.1651,-302.8342C571.7862,-295.0843 530.837,-283.16 496.5,-265 456.9885,-244.1033 439.7599,-238.7971 421.5,-198 413.8742,-180.9621 413.2052,-172.7225 421.5,-156 428.9854,-140.9093 442.5884,-128.7348 456.1745,-119.5726"/>
<polygon fill="#191970" stroke="#191970" points="607.7961,-306.3312 618.2953,-304.911 609.202,-299.4739 607.7961,-306.3312"/>
</g>
<!-- Node20 -->
<g id="node11" class="node">
<title>Node20</title>
<g id="a_node11"><a xlink:href="Engine_8hpp.html" target="_top" xlink:title="src/sa&#45;bsn/system_manager\l/adaptation_engine/include\l/engine/Engine.hpp">
<polygon fill="#ffffff" stroke="#000000" points="622.5,-156.5 622.5,-197.5 776.5,-197.5 776.5,-156.5 622.5,-156.5"/>
<text text-anchor="start" x="630.5" y="-185.5" font-family="Helvetica,sans-Serif" font-size="10.00" fill="#000000">src/sa&#45;bsn/system_manager</text>
<text text-anchor="start" x="630.5" y="-174.5" font-family="Helvetica,sans-Serif" font-size="10.00" fill="#000000">/adaptation_engine/include</text>
<text text-anchor="middle" x="699.5" y="-163.5" font-family="Helvetica,sans-Serif" font-size="10.00" fill="#000000">/engine/Engine.hpp</text>
</a>
</g>
</g>
<!-- Node10&#45;&gt;Node20 -->
<g id="edge23" class="edge">
<title>Node10&#45;&gt;Node20</title>
<path fill="none" stroke="#191970" d="M702.7731,-291.1507C702.0036,-264.3121 700.8036,-222.4622 700.0903,-197.586"/>
<polygon fill="#191970" stroke="#191970" points="699.279,-291.41 703.0643,-301.3055 706.2762,-291.2093 699.279,-291.41"/>
</g>
<!-- Node21 -->
<g id="node12" class="node">
<title>Node21</title>
<g id="a_node12"><a xlink:href="ReliabilityEngine_8hpp.html" target="_top" xlink:title="src/sa&#45;bsn/system_manager\l/adaptation_engine/include\l/engine/ReliabilityEngine.hpp">
<polygon fill="#ffffff" stroke="#000000" points="763.5,-78.5 763.5,-119.5 921.5,-119.5 921.5,-78.5 763.5,-78.5"/>
<text text-anchor="start" x="771.5" y="-107.5" font-family="Helvetica,sans-Serif" font-size="10.00" fill="#000000">src/sa&#45;bsn/system_manager</text>
<text text-anchor="start" x="771.5" y="-96.5" font-family="Helvetica,sans-Serif" font-size="10.00" fill="#000000">/adaptation_engine/include</text>
<text text-anchor="middle" x="842.5" y="-85.5" font-family="Helvetica,sans-Serif" font-size="10.00" fill="#000000">/engine/ReliabilityEngine.hpp</text>
</a>
</g>
</g>
<!-- Node10&#45;&gt;Node21 -->
<g id="edge24" class="edge">
<title>Node10&#45;&gt;Node21</title>
<path fill="none" stroke="#191970" d="M730.9179,-294.9024C756.7345,-273.1231 794.6159,-237.1939 816.5,-198 830.3612,-173.175 837.0521,-140.7094 840.1211,-119.8512"/>
<polygon fill="#191970" stroke="#191970" points="728.4654,-292.389 722.9954,-301.4626 732.9299,-297.7805 728.4654,-292.389"/>
</g>
<!-- Node25 -->
<g id="node16" class="node">
<title>Node25</title>
<g id="a_node16"><a xlink:href="LeafTask_8cpp.html" target="_top" xlink:title="src/libbsn/src/goalmodel\l/LeafTask.cpp">
<polygon fill="#ffffff" stroke="#000000" points="822,-234.5 822,-264.5 957,-264.5 957,-234.5 822,-234.5"/>
<text text-anchor="start" x="830" y="-252.5" font-family="Helvetica,sans-Serif" font-size="10.00" fill="#000000">src/libbsn/src/goalmodel</text>
<text text-anchor="middle" x="889.5" y="-241.5" font-family="Helvetica,sans-Serif" font-size="10.00" fill="#000000">/LeafTask.cpp</text>
</a>
</g>
</g>
<!-- Node10&#45;&gt;Node25 -->
<g id="edge17" class="edge">
<title>Node10&#45;&gt;Node25</title>
<path fill="none" stroke="#191970" d="M754.852,-298.0023C784.0345,-287.4903 820.1124,-274.4945 847.5759,-264.6017"/>
<polygon fill="#191970" stroke="#191970" points="753.4641,-294.782 745.242,-301.4639 755.8364,-301.3677 753.4641,-294.782"/>
</g>
<!-- Node26 -->
<g id="node17" class="node">
<title>Node26</title>
<g id="a_node17"><a xlink:href="LeafTaskTest_8cpp.html" target="_top" xlink:title="src/libbsn/test/unit\l/goalmodel/LeafTaskTest.cpp">
<polygon fill="#ffffff" stroke="#000000" points="975,-234.5 975,-264.5 1132,-264.5 1132,-234.5 975,-234.5"/>
<text text-anchor="start" x="983" y="-252.5" font-family="Helvetica,sans-Serif" font-size="10.00" fill="#000000">src/libbsn/test/unit</text>
<text text-anchor="middle" x="1053.5" y="-241.5" font-family="Helvetica,sans-Serif" font-size="10.00" fill="#000000">/goalmodel/LeafTaskTest.cpp</text>
</a>
</g>
</g>
<!-- Node10&#45;&gt;Node26 -->
<g id="edge19" class="edge">
<title>Node10&#45;&gt;Node26</title>
<path fill="none" stroke="#191970" d="M792.0118,-299.5563C848.3337,-288.7747 920.622,-274.9366 974.9131,-264.5438"/>
<polygon fill="#191970" stroke="#191970" points="791.2104,-296.1461 782.0468,-301.4639 792.5266,-303.0212 791.2104,-296.1461"/>
</g>
<!-- Node27 -->
<g id="node18" class="node">
<title>Node27</title>
<g id="a_node18"><a xlink:href="TaskTest_8cpp.html" target="_top" xlink:title="src/libbsn/test/unit\l/goalmodel/TaskTest.cpp">
<polygon fill="#ffffff" stroke="#000000" points="1150.5,-234.5 1150.5,-264.5 1286.5,-264.5 1286.5,-234.5 1150.5,-234.5"/>
<text text-anchor="start" x="1158.5" y="-252.5" font-family="Helvetica,sans-Serif" font-size="10.00" fill="#000000">src/libbsn/test/unit</text>
<text text-anchor="middle" x="1218.5" y="-241.5" font-family="Helvetica,sans-Serif" font-size="10.00" fill="#000000">/goalmodel/TaskTest.cpp</text>
</a>
</g>
</g>
<!-- Node10&#45;&gt;Node27 -->
<g id="edge20" class="edge">
<title>Node10&#45;&gt;Node27</title>
<path fill="none" stroke="#191970" d="M798.6349,-307.5747C887.5648,-298.6969 1023.9156,-283.7156 1141.5,-265 1144.328,-264.5499 1147.2102,-264.0693 1150.1186,-263.5663"/>
<polygon fill="#191970" stroke="#191970" points="798.1734,-304.1032 788.568,-308.5738 798.8648,-311.069 798.1734,-304.1032"/>
</g>
<!-- Node12 -->
<g id="node3" class="node">
<title>Node12</title>
<g id="a_node3"><a xlink:href="GoalTree_8cpp.html" target="_top" xlink:title="src/libbsn/src/goalmodel\l/GoalTree.cpp">
<polygon fill="#ffffff" stroke="#000000" points="431,-162 431,-192 566,-192 566,-162 431,-162"/>
<text text-anchor="start" x="439" y="-180" font-family="Helvetica,sans-Serif" font-size="10.00" fill="#000000">src/libbsn/src/goalmodel</text>
<text text-anchor="middle" x="498.5" y="-169" font-family="Helvetica,sans-Serif" font-size="10.00" fill="#000000">/GoalTree.cpp</text>
</a>
</g>
</g>
<!-- Node11&#45;&gt;Node12 -->
<g id="edge2" class="edge">
<title>Node11&#45;&gt;Node12</title>
<path fill="none" stroke="#191970" d="M563.196,-227.9833C548.4981,-216.4007 530.7314,-202.3998 517.538,-192.0028"/>
<polygon fill="#191970" stroke="#191970" points="561.4169,-231.0374 571.4375,-234.478 565.7496,-225.5394 561.4169,-231.0374"/>
</g>
<!-- Node11&#45;&gt;Node13 -->
<g id="edge3" class="edge">
<title>Node11&#45;&gt;Node13</title>
<path fill="none" stroke="#191970" d="M495.3417,-241.1632C408.8958,-232.8333 278.068,-218.335 165.5,-198 156.1728,-196.3151 146.3509,-194.2408 136.7997,-192.0584"/>
<polygon fill="#191970" stroke="#191970" points="495.1098,-244.6569 505.3973,-242.1236 495.7754,-237.6886 495.1098,-244.6569"/>
</g>
<!-- Node11&#45;&gt;Node14 -->
<g id="edge4" class="edge">
<title>Node11&#45;&gt;Node14</title>
<path fill="none" stroke="#191970" d="M515.2359,-232.2321C469.7925,-221.806 411.6294,-208.4617 363.8583,-197.5015"/>
<polygon fill="#191970" stroke="#191970" points="514.4951,-235.653 525.0246,-234.478 516.0605,-228.8303 514.4951,-235.653"/>
</g>
<!-- Node11&#45;&gt;Node17 -->
<g id="edge7" class="edge">
<title>Node11&#45;&gt;Node17</title>
<path fill="none" stroke="#191970" d="M591.1995,-224.1994C590.6231,-204.284 587.2322,-176.554 574.5,-156 565.3145,-141.1715 550.7191,-128.9839 536.6254,-119.7388"/>
<polygon fill="#191970" stroke="#191970" points="587.7006,-224.3895 591.2715,-234.3643 594.7004,-224.3397 587.7006,-224.3895"/>
</g>
<!-- Node11&#45;&gt;Node20 -->
<g id="edge10" class="edge">
<title>Node11&#45;&gt;Node20</title>
<path fill="none" stroke="#191970" d="M621.4223,-228.9324C636.2205,-219.0896 653.8917,-207.3358 668.677,-197.5015"/>
<polygon fill="#191970" stroke="#191970" points="619.4729,-226.0255 613.0849,-234.478 623.3496,-231.854 619.4729,-226.0255"/>
</g>
<!-- Node11&#45;&gt;Node21 -->
<g id="edge16" class="edge">
<title>Node11&#45;&gt;Node21</title>
<path fill="none" stroke="#191970" d="M682.1263,-232.3443C724.3139,-223.0525 768.7007,-210.8586 785.5,-198 811.6431,-177.9895 827.8487,-142.3034 836.0121,-119.6849"/>
<polygon fill="#191970" stroke="#191970" points="681.3576,-228.9296 672.3218,-234.4618 682.8354,-235.7718 681.3576,-228.9296"/>
</g>
<!-- Node15 -->
<g id="node6" class="node">
<title>Node15</title>
<g id="a_node6"><a xlink:href="data__access_8cpp.html" target="_top" xlink:title="src/sa&#45;bsn/knowledge\l_repository/data_access\l/apps/data_access.cpp">
<polygon fill="#ffffff" stroke="#000000" points="85.5,-78.5 85.5,-119.5 219.5,-119.5 219.5,-78.5 85.5,-78.5"/>
<text text-anchor="start" x="93.5" y="-107.5" font-family="Helvetica,sans-Serif" font-size="10.00" fill="#000000">src/sa&#45;bsn/knowledge</text>
<text text-anchor="start" x="93.5" y="-96.5" font-family="Helvetica,sans-Serif" font-size="10.00" fill="#000000">_repository/data_access</text>
<text text-anchor="middle" x="152.5" y="-85.5" font-family="Helvetica,sans-Serif" font-size="10.00" fill="#000000">/apps/data_access.cpp</text>
</a>
</g>
</g>
<!-- Node14&#45;&gt;Node15 -->
<g id="edge5" class="edge">
<title>Node14&#45;&gt;Node15</title>
<path fill="none" stroke="#191970" d="M233.5124,-150.7948C217.5691,-140.6016 199.5747,-129.0969 184.6014,-119.5239"/>
<polygon fill="#191970" stroke="#191970" points="231.816,-153.8644 242.1265,-156.3022 235.5866,-147.9667 231.816,-153.8644"/>
</g>
<!-- Node16 -->
<g id="node7" class="node">
<title>Node16</title>
<g id="a_node7"><a xlink:href="DataAccess_8cpp.html" target="_top" xlink:title="src/sa&#45;bsn/knowledge\l_repository/data_access\l/src/DataAccess.cpp">
<polygon fill="#ffffff" stroke="#000000" points="237.5,-78.5 237.5,-119.5 371.5,-119.5 371.5,-78.5 237.5,-78.5"/>
<text text-anchor="start" x="245.5" y="-107.5" font-family="Helvetica,sans-Serif" font-size="10.00" fill="#000000">src/sa&#45;bsn/knowledge</text>
<text text-anchor="start" x="245.5" y="-96.5" font-family="Helvetica,sans-Serif" font-size="10.00" fill="#000000">_repository/data_access</text>
<text text-anchor="middle" x="304.5" y="-85.5" font-family="Helvetica,sans-Serif" font-size="10.00" fill="#000000">/src/DataAccess.cpp</text>
</a>
</g>
</g>
<!-- Node14&#45;&gt;Node16 -->
<g id="edge6" class="edge">
<title>Node14&#45;&gt;Node16</title>
<path fill="none" stroke="#191970" d="M286.1708,-146.6559C289.6427,-137.629 293.3652,-127.9505 296.5424,-119.6898"/>
<polygon fill="#191970" stroke="#191970" points="282.8626,-145.5075 282.5394,-156.0974 289.396,-148.0204 282.8626,-145.5075"/>
</g>
<!-- Node18 -->
<g id="node9" class="node">
<title>Node18</title>
<g id="a_node9"><a xlink:href="cost__engine_8cpp.html" target="_top" xlink:title="src/sa&#45;bsn/system_manager\l/adaptation_engine/apps\l/cost_engine.cpp">
<polygon fill="#ffffff" stroke="#000000" points="248.5,-.5 248.5,-41.5 402.5,-41.5 402.5,-.5 248.5,-.5"/>
<text text-anchor="start" x="256.5" y="-29.5" font-family="Helvetica,sans-Serif" font-size="10.00" fill="#000000">src/sa&#45;bsn/system_manager</text>
<text text-anchor="start" x="256.5" y="-18.5" font-family="Helvetica,sans-Serif" font-size="10.00" fill="#000000">/adaptation_engine/apps</text>
<text text-anchor="middle" x="325.5" y="-7.5" font-family="Helvetica,sans-Serif" font-size="10.00" fill="#000000">/cost_engine.cpp</text>
</a>
</g>
</g>
<!-- Node17&#45;&gt;Node18 -->
<g id="edge8" class="edge">
<title>Node17&#45;&gt;Node18</title>
<path fill="none" stroke="#191970" d="M441.828,-74.0619C418.8126,-63.5637 392.3562,-51.4958 370.4946,-41.5239"/>
<polygon fill="#191970" stroke="#191970" points="440.5733,-77.3365 451.1241,-78.3022 443.4784,-70.9677 440.5733,-77.3365"/>
</g>
<!-- Node19 -->
<g id="node10" class="node">
<title>Node19</title>
<g id="a_node10"><a xlink:href="CostEngine_8cpp.html" target="_top" xlink:title="src/sa&#45;bsn/system_manager\l/adaptation_engine/src\l/CostEngine.cpp">
<polygon fill="#ffffff" stroke="#000000" points="420.5,-.5 420.5,-41.5 574.5,-41.5 574.5,-.5 420.5,-.5"/>
<text text-anchor="start" x="428.5" y="-29.5" font-family="Helvetica,sans-Serif" font-size="10.00" fill="#000000">src/sa&#45;bsn/system_manager</text>
<text text-anchor="start" x="428.5" y="-18.5" font-family="Helvetica,sans-Serif" font-size="10.00" fill="#000000">/adaptation_engine/src</text>
<text text-anchor="middle" x="497.5" y="-7.5" font-family="Helvetica,sans-Serif" font-size="10.00" fill="#000000">/CostEngine.cpp</text>
</a>
</g>
</g>
<!-- Node17&#45;&gt;Node19 -->
<g id="edge9" class="edge">
<title>Node17&#45;&gt;Node19</title>
<path fill="none" stroke="#191970" d="M496.8964,-68.0789C497.01,-59.2178 497.1311,-49.7747 497.2347,-41.6898"/>
<polygon fill="#191970" stroke="#191970" points="493.3966,-68.0534 496.768,-78.0974 500.396,-68.1432 493.3966,-68.0534"/>
</g>
<!-- Node20&#45;&gt;Node17 -->
<g id="edge11" class="edge">
<title>Node20&#45;&gt;Node17</title>
<path fill="none" stroke="#191970" d="M636.3137,-152.7215C608.6438,-142.0897 576.5217,-129.7473 550.0495,-119.5757"/>
<polygon fill="#191970" stroke="#191970" points="635.3086,-156.0847 645.8986,-156.4044 637.8193,-149.5505 635.3086,-156.0847"/>
</g>
<!-- Node20&#45;&gt;Node21 -->
<g id="edge12" class="edge">
<title>Node20&#45;&gt;Node21</title>
<path fill="none" stroke="#191970" d="M746.249,-151.5005C765.2521,-141.1352 786.916,-129.3185 804.8729,-119.5239"/>
<polygon fill="#191970" stroke="#191970" points="744.5489,-148.441 737.4459,-156.3022 747.9009,-154.5863 744.5489,-148.441"/>
</g>
<!-- Node24 -->
<g id="node15" class="node">
<title>Node24</title>
<g id="a_node15"><a xlink:href="Engine_8cpp.html" target="_top" xlink:title="src/sa&#45;bsn/system_manager\l/adaptation_engine/src\l/Engine.cpp">
<polygon fill="#ffffff" stroke="#000000" points="591.5,-78.5 591.5,-119.5 745.5,-119.5 745.5,-78.5 591.5,-78.5"/>
<text text-anchor="start" x="599.5" y="-107.5" font-family="Helvetica,sans-Serif" font-size="10.00" fill="#000000">src/sa&#45;bsn/system_manager</text>
<text text-anchor="start" x="599.5" y="-96.5" font-family="Helvetica,sans-Serif" font-size="10.00" fill="#000000">/adaptation_engine/src</text>
<text text-anchor="middle" x="668.5" y="-85.5" font-family="Helvetica,sans-Serif" font-size="10.00" fill="#000000">/Engine.cpp</text>
</a>
</g>
</g>
<!-- Node20&#45;&gt;Node24 -->
<g id="edge15" class="edge">
<title>Node20&#45;&gt;Node24</title>
<path fill="none" stroke="#191970" d="M687.4402,-146.6559C683.8525,-137.629 680.006,-127.9505 676.7229,-119.6898"/>
<polygon fill="#191970" stroke="#191970" points="684.2466,-148.0972 691.1926,-156.0974 690.7517,-145.5118 684.2466,-148.0972"/>
</g>
<!-- Node22 -->
<g id="node13" class="node">
<title>Node22</title>
<g id="a_node13"><a xlink:href="reli__engine_8cpp.html" target="_top" xlink:title="src/sa&#45;bsn/system_manager\l/adaptation_engine/apps\l/reli_engine.cpp">
<polygon fill="#ffffff" stroke="#000000" points="679.5,-.5 679.5,-41.5 833.5,-41.5 833.5,-.5 679.5,-.5"/>
<text text-anchor="start" x="687.5" y="-29.5" font-family="Helvetica,sans-Serif" font-size="10.00" fill="#000000">src/sa&#45;bsn/system_manager</text>
<text text-anchor="start" x="687.5" y="-18.5" font-family="Helvetica,sans-Serif" font-size="10.00" fill="#000000">/adaptation_engine/apps</text>
<text text-anchor="middle" x="756.5" y="-7.5" font-family="Helvetica,sans-Serif" font-size="10.00" fill="#000000">/reli_engine.cpp</text>
</a>
</g>
</g>
<!-- Node21&#45;&gt;Node22 -->
<g id="edge13" class="edge">
<title>Node21&#45;&gt;Node22</title>
<path fill="none" stroke="#191970" d="M811.8807,-71.229C801.1487,-61.4953 789.2918,-50.7414 779.3118,-41.6898"/>
<polygon fill="#191970" stroke="#191970" points="809.695,-73.9718 819.4536,-78.0974 814.3977,-68.7867 809.695,-73.9718"/>
</g>
<!-- Node23 -->
<g id="node14" class="node">
<title>Node23</title>
<g id="a_node14"><a xlink:href="ReliabilityEngine_8cpp.html" target="_top" xlink:title="src/sa&#45;bsn/system_manager\l/adaptation_engine/src\l/ReliabilityEngine.cpp">
<polygon fill="#ffffff" stroke="#000000" points="851.5,-.5 851.5,-41.5 1005.5,-41.5 1005.5,-.5 851.5,-.5"/>
<text text-anchor="start" x="859.5" y="-29.5" font-family="Helvetica,sans-Serif" font-size="10.00" fill="#000000">src/sa&#45;bsn/system_manager</text>
<text text-anchor="start" x="859.5" y="-18.5" font-family="Helvetica,sans-Serif" font-size="10.00" fill="#000000">/adaptation_engine/src</text>
<text text-anchor="middle" x="928.5" y="-7.5" font-family="Helvetica,sans-Serif" font-size="10.00" fill="#000000">/ReliabilityEngine.cpp</text>
</a>
</g>
</g>
<!-- Node21&#45;&gt;Node23 -->
<g id="edge14" class="edge">
<title>Node21&#45;&gt;Node23</title>
<path fill="none" stroke="#191970" d="M873.1193,-71.229C883.8513,-61.4953 895.7082,-50.7414 905.6882,-41.6898"/>
<polygon fill="#191970" stroke="#191970" points="870.6023,-68.7867 865.5464,-78.0974 875.305,-73.9718 870.6023,-68.7867"/>
</g>
</g>
</svg>
