<?xml version="1.0" encoding="UTF-8" standalone="no"?>
<!DOCTYPE svg PUBLIC "-//W3C//DTD SVG 1.1//EN"
 "http://www.w3.org/Graphics/SVG/1.1/DTD/svg11.dtd">
<!-- Generated by graphviz version 2.40.1 (20161225.0304)
 -->
<!-- Title: src/libbsn/include/libbsn/goalmodel/LeafTask.hpp Pages: 1 -->
<svg width="649pt" height="263pt"
 viewBox="0.00 0.00 648.95 263.00" xmlns="http://www.w3.org/2000/svg" xmlns:xlink="http://www.w3.org/1999/xlink">
<g id="graph0" class="graph" transform="scale(1 1) rotate(0) translate(4 259)">
<title>src/libbsn/include/libbsn/goalmodel/LeafTask.hpp</title>
<polygon fill="#ffffff" stroke="transparent" points="-4,4 -4,-259 644.9485,-259 644.9485,4 -4,4"/>
<!-- Node0 -->
<g id="node1" class="node">
<title>Node0</title>
<polygon fill="#bfbfbf" stroke="#000000" points="118.4485,-224.5 118.4485,-254.5 288.4485,-254.5 288.4485,-224.5 118.4485,-224.5"/>
<text text-anchor="start" x="126.4485" y="-242.5" font-family="Helvetica,sans-Serif" font-size="10.00" fill="#000000">src/libbsn/include</text>
<text text-anchor="middle" x="203.4485" y="-231.5" font-family="Helvetica,sans-Serif" font-size="10.00" fill="#000000">/libbsn/goalmodel/LeafTask.hpp</text>
</g>
<!-- Node1 -->
<g id="node2" class="node">
<title>Node1</title>
<polygon fill="#ffffff" stroke="#bfbfbf" points="184.4485,-.5 184.4485,-19.5 228.4485,-19.5 228.4485,-.5 184.4485,-.5"/>
<text text-anchor="middle" x="206.4485" y="-7.5" font-family="Helvetica,sans-Serif" font-size="10.00" fill="#000000">string</text>
</g>
<!-- Node0&#45;&gt;Node1 -->
<g id="edge1" class="edge">
<title>Node0&#45;&gt;Node1</title>
<path fill="none" stroke="#191970" d="M126.3829,-224.4685C63.3344,-207.5443 -13.0937,-173.9254 2.4485,-112 9.322,-84.614 10.2947,-73.5054 32.4485,-56 54.3508,-38.6934 130.4415,-23.1368 174.4093,-15.3181"/>
<polygon fill="#191970" stroke="#191970" points="175.07,-18.7558 184.32,-13.59 173.8674,-11.8599 175.07,-18.7558"/>
</g>
<!-- Node2 -->
<g id="node3" class="node">
<title>Node2</title>
<polygon fill="#ffffff" stroke="#bfbfbf" points="593.9485,-.5 593.9485,-19.5 640.9485,-19.5 640.9485,-.5 593.9485,-.5"/>
<text text-anchor="middle" x="617.4485" y="-7.5" font-family="Helvetica,sans-Serif" font-size="10.00" fill="#000000">vector</text>
</g>
<!-- Node0&#45;&gt;Node2 -->
<g id="edge2" class="edge">
<title>Node0&#45;&gt;Node2</title>
<path fill="none" stroke="#191970" d="M285.3954,-224.4325C382.7228,-205.1638 537.5617,-169.7461 582.4485,-132 604.7335,-113.2602 608.3906,-103.9799 616.4485,-76 620.8092,-60.8584 620.774,-42.9421 619.8071,-29.5998"/>
<polygon fill="#191970" stroke="#191970" points="623.2897,-29.2501 618.8518,-19.6295 616.3216,-29.9178 623.2897,-29.2501"/>
</g>
<!-- Node3 -->
<g id="node4" class="node">
<title>Node3</title>
<g id="a_node4"><a xlink:href="Context_8hpp.html" target="_top" xlink:title="libbsn/goalmodel/Context.hpp">
<polygon fill="#ffffff" stroke="#000000" points="11.9485,-112.5 11.9485,-131.5 174.9485,-131.5 174.9485,-112.5 11.9485,-112.5"/>
<text text-anchor="middle" x="93.4485" y="-119.5" font-family="Helvetica,sans-Serif" font-size="10.00" fill="#000000">libbsn/goalmodel/Context.hpp</text>
</a>
</g>
</g>
<!-- Node0&#45;&gt;Node3 -->
<g id="edge3" class="edge">
<title>Node0&#45;&gt;Node3</title>
<path fill="none" stroke="#191970" d="M189.068,-224.1389C168.5289,-202.1994 130.9143,-162.0203 109.4949,-139.1404"/>
<polygon fill="#191970" stroke="#191970" points="111.7872,-136.4677 102.3978,-131.5595 106.677,-141.2517 111.7872,-136.4677"/>
</g>
<!-- Node4 -->
<g id="node5" class="node">
<title>Node4</title>
<g id="a_node5"><a xlink:href="Property_8hpp.html" target="_top" xlink:title="libbsn/goalmodel/Property.hpp">
<polygon fill="#ffffff" stroke="#000000" points="49.4485,-56.5 49.4485,-75.5 213.4485,-75.5 213.4485,-56.5 49.4485,-56.5"/>
<text text-anchor="middle" x="131.4485" y="-63.5" font-family="Helvetica,sans-Serif" font-size="10.00" fill="#000000">libbsn/goalmodel/Property.hpp</text>
</a>
</g>
</g>
<!-- Node0&#45;&gt;Node4 -->
<g id="edge5" class="edge">
<title>Node0&#45;&gt;Node4</title>
<path fill="none" stroke="#191970" d="M204.2706,-224.3133C204.9545,-199.2958 203.4679,-148.5521 183.4485,-112 176.8444,-99.9419 165.8022,-89.497 155.5879,-81.6215"/>
<polygon fill="#191970" stroke="#191970" points="157.4699,-78.6631 147.3181,-75.6314 153.3636,-84.3322 157.4699,-78.6631"/>
</g>
<!-- Node5 -->
<g id="node6" class="node">
<title>Node5</title>
<g id="a_node6"><a xlink:href="Task_8hpp.html" target="_top" xlink:title="libbsn/goalmodel/Task.hpp">
<polygon fill="#ffffff" stroke="#000000" points="284.4485,-168.5 284.4485,-187.5 430.4485,-187.5 430.4485,-168.5 284.4485,-168.5"/>
<text text-anchor="middle" x="357.4485" y="-175.5" font-family="Helvetica,sans-Serif" font-size="10.00" fill="#000000">libbsn/goalmodel/Task.hpp</text>
</a>
</g>
</g>
<!-- Node0&#45;&gt;Node5 -->
<g id="edge7" class="edge">
<title>Node0&#45;&gt;Node5</title>
<path fill="none" stroke="#191970" d="M241.1212,-224.4554C266.4784,-214.329 299.6137,-201.0964 324.0311,-191.3453"/>
<polygon fill="#191970" stroke="#191970" points="325.5952,-194.4895 333.584,-187.5303 322.9991,-187.9887 325.5952,-194.4895"/>
</g>
<!-- Node3&#45;&gt;Node1 -->
<g id="edge4" class="edge">
<title>Node3&#45;&gt;Node1</title>
<path fill="none" stroke="#191970" d="M75.8541,-112.2877C55.0166,-99.5286 24.969,-76.3524 40.4485,-56 56.5881,-34.7798 130.7699,-20.8046 174.3144,-14.276"/>
<polygon fill="#191970" stroke="#191970" points="175.0161,-17.711 184.4108,-12.8131 174.0123,-10.7833 175.0161,-17.711"/>
</g>
<!-- Node4&#45;&gt;Node1 -->
<g id="edge6" class="edge">
<title>Node4&#45;&gt;Node1</title>
<path fill="none" stroke="#191970" d="M144.5125,-56.2455C155.8047,-47.814 172.333,-35.4729 185.4756,-25.6598"/>
<polygon fill="#191970" stroke="#191970" points="187.6154,-28.4301 193.5342,-19.6427 183.4274,-22.8211 187.6154,-28.4301"/>
</g>
<!-- Node5&#45;&gt;Node1 -->
<g id="edge8" class="edge">
<title>Node5&#45;&gt;Node1</title>
<path fill="none" stroke="#191970" d="M348.8975,-168.4862C324.4079,-141.2396 253.7414,-62.6172 222.0965,-27.4096"/>
<polygon fill="#191970" stroke="#191970" points="224.5698,-24.9256 215.2819,-19.8279 219.3636,-29.6049 224.5698,-24.9256"/>
</g>
<!-- Node5&#45;&gt;Node2 -->
<g id="edge9" class="edge">
<title>Node5&#45;&gt;Node2</title>
<path fill="none" stroke="#191970" d="M429.6906,-168.4595C479.5592,-160.6218 540.3651,-148.1836 560.4485,-132 592.927,-105.8282 607.8208,-56.8777 613.8652,-29.6119"/>
<polygon fill="#191970" stroke="#191970" points="617.3191,-30.1903 615.8824,-19.6933 610.4596,-28.7951 617.3191,-30.1903"/>
</g>
<!-- Node6 -->
<g id="node7" class="node">
<title>Node6</title>
<polygon fill="#ffffff" stroke="#bfbfbf" points="490.9485,-.5 490.9485,-19.5 555.9485,-19.5 555.9485,-.5 490.9485,-.5"/>
<text text-anchor="middle" x="523.4485" y="-7.5" font-family="Helvetica,sans-Serif" font-size="10.00" fill="#000000">stdexcept</text>
</g>
<!-- Node5&#45;&gt;Node6 -->
<g id="edge10" class="edge">
<title>Node5&#45;&gt;Node6</title>
<path fill="none" stroke="#191970" d="M430.6612,-169.0784C476.1044,-161.8655 528.4343,-149.9255 542.4485,-132 565.9797,-101.9014 547.5359,-54.5779 534.1584,-28.6032"/>
<polygon fill="#191970" stroke="#191970" points="537.2168,-26.9008 529.3774,-19.7738 531.0613,-30.2339 537.2168,-26.9008"/>
</g>
<!-- Node7 -->
<g id="node8" class="node">
<title>Node7</title>
<g id="a_node8"><a xlink:href="Node_8hpp.html" target="_top" xlink:title="libbsn/goalmodel/Node.hpp">
<polygon fill="#ffffff" stroke="#000000" points="345.4485,-56.5 345.4485,-75.5 495.4485,-75.5 495.4485,-56.5 345.4485,-56.5"/>
<text text-anchor="middle" x="420.4485" y="-63.5" font-family="Helvetica,sans-Serif" font-size="10.00" fill="#000000">libbsn/goalmodel/Node.hpp</text>
</a>
</g>
</g>
<!-- Node5&#45;&gt;Node7 -->
<g id="edge11" class="edge">
<title>Node5&#45;&gt;Node7</title>
<path fill="none" stroke="#191970" d="M358.9227,-168.4945C361.293,-155.1593 366.8043,-130.4632 377.4485,-112 383.655,-101.2343 392.8278,-90.9597 401.1089,-82.8627"/>
<polygon fill="#191970" stroke="#191970" points="403.729,-85.2048 408.6494,-75.8218 398.9516,-80.0885 403.729,-85.2048"/>
</g>
<!-- Node8 -->
<g id="node9" class="node">
<title>Node8</title>
<polygon fill="#ffffff" stroke="#bfbfbf" points="285.4485,-.5 285.4485,-19.5 343.4485,-19.5 343.4485,-.5 285.4485,-.5"/>
<text text-anchor="middle" x="314.4485" y="-7.5" font-family="Helvetica,sans-Serif" font-size="10.00" fill="#000000">memory</text>
</g>
<!-- Node5&#45;&gt;Node8 -->
<g id="edge16" class="edge">
<title>Node5&#45;&gt;Node8</title>
<path fill="none" stroke="#191970" d="M355.0135,-168.4862C348.1867,-141.8144 328.7593,-65.9117 319.4895,-29.695"/>
<polygon fill="#191970" stroke="#191970" points="322.8344,-28.6477 316.964,-19.8279 316.053,-30.3835 322.8344,-28.6477"/>
</g>
<!-- Node9 -->
<g id="node10" class="node">
<title>Node9</title>
<g id="a_node10"><a xlink:href="Goal_8hpp.html" target="_top" xlink:title="libbsn/goalmodel/Goal.hpp">
<polygon fill="#ffffff" stroke="#000000" points="385.9485,-112.5 385.9485,-131.5 532.9485,-131.5 532.9485,-112.5 385.9485,-112.5"/>
<text text-anchor="middle" x="459.4485" y="-119.5" font-family="Helvetica,sans-Serif" font-size="10.00" fill="#000000">libbsn/goalmodel/Goal.hpp</text>
</a>
</g>
</g>
<!-- Node5&#45;&gt;Node9 -->
<g id="edge17" class="edge">
<title>Node5&#45;&gt;Node9</title>
<path fill="none" stroke="#191970" d="M375.2156,-168.2455C391.158,-159.4928 414.7744,-146.527 432.9474,-136.5496"/>
<polygon fill="#191970" stroke="#191970" points="434.8037,-139.5233 441.8851,-131.6427 431.4349,-133.3873 434.8037,-139.5233"/>
</g>
<!-- Node7&#45;&gt;Node1 -->
<g id="edge12" class="edge">
<title>Node7&#45;&gt;Node1</title>
<path fill="none" stroke="#191970" d="M383.6606,-56.3733C342.7424,-45.6657 277.2976,-28.5399 238.4308,-18.3692"/>
<polygon fill="#191970" stroke="#191970" points="239.2446,-14.9644 228.6843,-15.8187 237.4725,-21.7364 239.2446,-14.9644"/>
</g>
<!-- Node7&#45;&gt;Node2 -->
<g id="edge13" class="edge">
<title>Node7&#45;&gt;Node2</title>
<path fill="none" stroke="#191970" d="M454.314,-56.3733C490.5598,-46.0699 547.7112,-29.8238 583.8528,-19.55"/>
<polygon fill="#191970" stroke="#191970" points="585.2394,-22.7946 593.9012,-16.6936 583.3253,-16.0614 585.2394,-22.7946"/>
</g>
<!-- Node7&#45;&gt;Node6 -->
<g id="edge14" class="edge">
<title>Node7&#45;&gt;Node6</title>
<path fill="none" stroke="#191970" d="M438.3898,-56.2455C454.4885,-47.4928 478.3364,-34.527 496.6876,-24.5496"/>
<polygon fill="#191970" stroke="#191970" points="498.5992,-27.4942 505.7129,-19.6427 495.2556,-21.3444 498.5992,-27.4942"/>
</g>
<!-- Node7&#45;&gt;Node8 -->
<g id="edge15" class="edge">
<title>Node7&#45;&gt;Node8</title>
<path fill="none" stroke="#191970" d="M401.9847,-56.2455C385.3411,-47.4527 360.6492,-34.4079 341.7294,-24.4125"/>
<polygon fill="#191970" stroke="#191970" points="343.1776,-21.2193 332.7007,-19.6427 339.9077,-27.4086 343.1776,-21.2193"/>
</g>
<!-- Node9&#45;&gt;Node1 -->
<g id="edge18" class="edge">
<title>Node9&#45;&gt;Node1</title>
<path fill="none" stroke="#191970" d="M431.2472,-112.4646C406.0829,-103.718 368.386,-90.0267 336.4485,-76 299.7091,-59.8643 258.6191,-38.403 232.656,-24.3998"/>
<polygon fill="#191970" stroke="#191970" points="234.27,-21.2935 223.8111,-19.6018 230.9323,-27.4466 234.27,-21.2935"/>
</g>
<!-- Node9&#45;&gt;Node2 -->
<g id="edge19" class="edge">
<title>Node9&#45;&gt;Node2</title>
<path fill="none" stroke="#191970" d="M472.9195,-112.4509C500.2049,-93.1094 562.224,-49.1465 595.455,-25.5904"/>
<polygon fill="#191970" stroke="#191970" points="597.8775,-28.1633 604.0116,-19.5249 593.8293,-22.4526 597.8775,-28.1633"/>
</g>
<!-- Node9&#45;&gt;Node6 -->
<g id="edge20" class="edge">
<title>Node9&#45;&gt;Node6</title>
<path fill="none" stroke="#191970" d="M471.8672,-112.3196C482.0151,-103.7851 496.0151,-90.4813 504.4485,-76 512.7931,-61.6713 517.6784,-43.4344 520.4004,-29.7634"/>
<polygon fill="#191970" stroke="#191970" points="523.9134,-29.996 522.2065,-19.5396 517.0202,-28.7782 523.9134,-29.996"/>
</g>
<!-- Node9&#45;&gt;Node7 -->
<g id="edge21" class="edge">
<title>Node9&#45;&gt;Node7</title>
<path fill="none" stroke="#191970" d="M452.6552,-112.2455C447.2307,-104.4564 439.4825,-93.3308 432.9452,-83.9439"/>
<polygon fill="#191970" stroke="#191970" points="435.7511,-81.8485 427.164,-75.6427 430.0068,-85.849 435.7511,-81.8485"/>
</g>
</g>
</svg>
