<?xml version="1.0" encoding="UTF-8" standalone="no"?>
<!DOCTYPE svg PUBLIC "-//W3C//DTD SVG 1.1//EN"
 "http://www.w3.org/Graphics/SVG/1.1/DTD/svg11.dtd">
<!-- Generated by graphviz version 2.40.1 (20161225.0304)
 -->
<!-- Title: src/sa&#45;bsn/logging_infrastructure/logger/include/Logger.hpp Pages: 1 -->
<svg width="1210pt" height="218pt"
 viewBox="0.00 0.00 1209.96 218.00" xmlns="http://www.w3.org/2000/svg" xmlns:xlink="http://www.w3.org/1999/xlink">
<g id="graph0" class="graph" transform="scale(1 1) rotate(0) translate(4 214)">
<title>src/sa&#45;bsn/logging_infrastructure/logger/include/Logger.hpp</title>
<polygon fill="#ffffff" stroke="transparent" points="-4,4 -4,-214 1205.9576,-214 1205.9576,4 -4,4"/>
<!-- Node0 -->
<g id="node1" class="node">
<title>Node0</title>
<polygon fill="#bfbfbf" stroke="#000000" points="525.5,-168.5 525.5,-209.5 647.5,-209.5 647.5,-168.5 525.5,-168.5"/>
<text text-anchor="start" x="533.5" y="-197.5" font-family="Helvetica,sans-Serif" font-size="10.00" fill="#000000">src/sa&#45;bsn/logging</text>
<text text-anchor="start" x="533.5" y="-186.5" font-family="Helvetica,sans-Serif" font-size="10.00" fill="#000000">_infrastructure/logger</text>
<text text-anchor="middle" x="586.5" y="-175.5" font-family="Helvetica,sans-Serif" font-size="10.00" fill="#000000">/include/Logger.hpp</text>
</g>
<!-- Node1 -->
<g id="node2" class="node">
<title>Node1</title>
<polygon fill="#ffffff" stroke="#bfbfbf" points="0,-112.5 0,-131.5 55,-131.5 55,-112.5 0,-112.5"/>
<text text-anchor="middle" x="27.5" y="-119.5" font-family="Helvetica,sans-Serif" font-size="10.00" fill="#000000">fstream</text>
</g>
<!-- Node0&#45;&gt;Node1 -->
<g id="edge1" class="edge">
<title>Node0&#45;&gt;Node1</title>
<path fill="none" stroke="#191970" d="M525.3689,-185.4116C429.2887,-179.0946 237.0602,-163.7228 65.2549,-131.8759"/>
<polygon fill="#191970" stroke="#191970" points="65.7473,-128.4073 55.2733,-130.0025 64.456,-135.2871 65.7473,-128.4073"/>
</g>
<!-- Node2 -->
<g id="node3" class="node">
<title>Node2</title>
<polygon fill="#ffffff" stroke="#bfbfbf" points="73.5,-112.5 73.5,-131.5 123.5,-131.5 123.5,-112.5 73.5,-112.5"/>
<text text-anchor="middle" x="98.5" y="-119.5" font-family="Helvetica,sans-Serif" font-size="10.00" fill="#000000">chrono</text>
</g>
<!-- Node0&#45;&gt;Node2 -->
<g id="edge2" class="edge">
<title>Node0&#45;&gt;Node2</title>
<path fill="none" stroke="#191970" d="M525.4023,-184.4758C439.7072,-177.4365 278.9366,-161.6994 133.6271,-131.9562"/>
<polygon fill="#191970" stroke="#191970" points="134.1388,-128.488 123.6363,-129.8838 132.717,-135.342 134.1388,-128.488"/>
</g>
<!-- Node3 -->
<g id="node4" class="node">
<title>Node3</title>
<polygon fill="#ffffff" stroke="#bfbfbf" points="399,-.5 399,-19.5 458,-19.5 458,-.5 399,-.5"/>
<text text-anchor="middle" x="428.5" y="-7.5" font-family="Helvetica,sans-Serif" font-size="10.00" fill="#000000">ros/ros.h</text>
</g>
<!-- Node0&#45;&gt;Node3 -->
<g id="edge3" class="edge">
<title>Node0&#45;&gt;Node3</title>
<path fill="none" stroke="#191970" d="M647.6294,-187.8654C795.0923,-184.4973 1160.9304,-172.14 1197.5,-132 1203.4864,-125.4292 1203.3576,-118.6859 1197.5,-112 1148.857,-56.479 619.5296,-21.2455 468.5093,-12.2713"/>
<polygon fill="#191970" stroke="#191970" points="468.4898,-8.7641 458.3015,-11.6706 468.0786,-15.7521 468.4898,-8.7641"/>
</g>
<!-- Node4 -->
<g id="node5" class="node">
<title>Node4</title>
<polygon fill="#ffffff" stroke="#bfbfbf" points="310,-112.5 310,-131.5 395,-131.5 395,-112.5 310,-112.5"/>
<text text-anchor="middle" x="352.5" y="-119.5" font-family="Helvetica,sans-Serif" font-size="10.00" fill="#000000">ros/package.h</text>
</g>
<!-- Node0&#45;&gt;Node4 -->
<g id="edge4" class="edge">
<title>Node0&#45;&gt;Node4</title>
<path fill="none" stroke="#191970" d="M525.3249,-171.4841C484.6022,-159.8241 432.0946,-144.7899 395.6947,-134.3677"/>
<polygon fill="#191970" stroke="#191970" points="396.4555,-130.945 385.8784,-131.5571 394.5286,-137.6746 396.4555,-130.945"/>
</g>
<!-- Node5 -->
<g id="node6" class="node">
<title>Node5</title>
<polygon fill="#ffffff" stroke="#bfbfbf" points="413.5,-112.5 413.5,-131.5 505.5,-131.5 505.5,-112.5 413.5,-112.5"/>
<text text-anchor="middle" x="459.5" y="-119.5" font-family="Helvetica,sans-Serif" font-size="10.00" fill="#000000">archlib/Status.h</text>
</g>
<!-- Node0&#45;&gt;Node5 -->
<g id="edge5" class="edge">
<title>Node0&#45;&gt;Node5</title>
<path fill="none" stroke="#191970" d="M547.3595,-168.3511C527.8044,-158.0346 504.6164,-145.8015 486.9734,-136.4939"/>
<polygon fill="#191970" stroke="#191970" points="488.2784,-133.2251 477.8006,-131.6546 485.0121,-139.4164 488.2784,-133.2251"/>
</g>
<!-- Node6 -->
<g id="node7" class="node">
<title>Node6</title>
<polygon fill="#ffffff" stroke="#bfbfbf" points="523.5,-112.5 523.5,-131.5 649.5,-131.5 649.5,-112.5 523.5,-112.5"/>
<text text-anchor="middle" x="586.5" y="-119.5" font-family="Helvetica,sans-Serif" font-size="10.00" fill="#000000">archlib/EnergyStatus.h</text>
</g>
<!-- Node0&#45;&gt;Node6 -->
<g id="edge6" class="edge">
<title>Node0&#45;&gt;Node6</title>
<path fill="none" stroke="#191970" d="M586.5,-168.168C586.5,-159.8226 586.5,-150.2471 586.5,-141.9879"/>
<polygon fill="#191970" stroke="#191970" points="590.0001,-141.7804 586.5,-131.7805 583.0001,-141.7805 590.0001,-141.7804"/>
</g>
<!-- Node7 -->
<g id="node8" class="node">
<title>Node7</title>
<polygon fill="#ffffff" stroke="#bfbfbf" points="668,-112.5 668,-131.5 757,-131.5 757,-112.5 668,-112.5"/>
<text text-anchor="middle" x="712.5" y="-119.5" font-family="Helvetica,sans-Serif" font-size="10.00" fill="#000000">archlib/Event.h</text>
</g>
<!-- Node0&#45;&gt;Node7 -->
<g id="edge7" class="edge">
<title>Node0&#45;&gt;Node7</title>
<path fill="none" stroke="#191970" d="M625.3323,-168.3511C644.7335,-158.0346 667.7389,-145.8015 685.2429,-136.4939"/>
<polygon fill="#191970" stroke="#191970" points="687.1574,-139.4399 694.3435,-131.6546 683.8709,-133.2594 687.1574,-139.4399"/>
</g>
<!-- Node8 -->
<g id="node9" class="node">
<title>Node8</title>
<polygon fill="#ffffff" stroke="#bfbfbf" points="775,-112.5 775,-131.5 940,-131.5 940,-112.5 775,-112.5"/>
<text text-anchor="middle" x="857.5" y="-119.5" font-family="Helvetica,sans-Serif" font-size="10.00" fill="#000000">archlib/AdaptationCommand.h</text>
</g>
<!-- Node0&#45;&gt;Node8 -->
<g id="edge8" class="edge">
<title>Node0&#45;&gt;Node8</title>
<path fill="none" stroke="#191970" d="M647.6556,-173.8804C696.4207,-161.824 763.7925,-145.1675 808.9149,-134.0118"/>
<polygon fill="#191970" stroke="#191970" points="809.8857,-137.3773 818.7533,-131.5794 808.2056,-130.5819 809.8857,-137.3773"/>
</g>
<!-- Node9 -->
<g id="node10" class="node">
<title>Node9</title>
<polygon fill="#ffffff" stroke="#bfbfbf" points="958,-112.5 958,-131.5 1075,-131.5 1075,-112.5 958,-112.5"/>
<text text-anchor="middle" x="1016.5" y="-119.5" font-family="Helvetica,sans-Serif" font-size="10.00" fill="#000000">archlib/Uncertainty.h</text>
</g>
<!-- Node0&#45;&gt;Node9 -->
<g id="edge9" class="edge">
<title>Node0&#45;&gt;Node9</title>
<path fill="none" stroke="#191970" d="M647.6519,-179.4717C727.0024,-167.1078 865.0667,-145.5954 947.9033,-132.6883"/>
<polygon fill="#191970" stroke="#191970" points="948.63,-136.1174 957.9719,-131.1195 947.5523,-129.2009 948.63,-136.1174"/>
</g>
<!-- Node10 -->
<g id="node11" class="node">
<title>Node10</title>
<polygon fill="#ffffff" stroke="#bfbfbf" points="1093,-112.5 1093,-131.5 1188,-131.5 1188,-112.5 1093,-112.5"/>
<text text-anchor="middle" x="1140.5" y="-119.5" font-family="Helvetica,sans-Serif" font-size="10.00" fill="#000000">archlib/Persist.h</text>
</g>
<!-- Node0&#45;&gt;Node10 -->
<g id="edge10" class="edge">
<title>Node0&#45;&gt;Node10</title>
<path fill="none" stroke="#191970" d="M647.6069,-183.2526C739.7565,-174.3102 919.9873,-155.7504 1082.6793,-132.2"/>
<polygon fill="#191970" stroke="#191970" points="1083.4835,-135.6199 1092.8742,-130.7143 1082.474,-128.6931 1083.4835,-135.6199"/>
</g>
<!-- Node11 -->
<g id="node12" class="node">
<title>Node11</title>
<g id="a_node12"><a xlink:href="ROSComponent_8hpp.html" target="_top" xlink:title="archlib/ROSComponent.hpp">
<polygon fill="#ffffff" stroke="#000000" points="141.5,-112.5 141.5,-131.5 291.5,-131.5 291.5,-112.5 141.5,-112.5"/>
<text text-anchor="middle" x="216.5" y="-119.5" font-family="Helvetica,sans-Serif" font-size="10.00" fill="#000000">archlib/ROSComponent.hpp</text>
</a>
</g>
</g>
<!-- Node0&#45;&gt;Node11 -->
<g id="edge11" class="edge">
<title>Node0&#45;&gt;Node11</title>
<path fill="none" stroke="#191970" d="M525.402,-177.9363C457.3635,-165.6158 347.9446,-145.8021 279.2463,-133.3622"/>
<polygon fill="#191970" stroke="#191970" points="279.4632,-129.8446 268.9995,-131.5067 278.2158,-136.7326 279.4632,-129.8446"/>
</g>
<!-- Node11&#45;&gt;Node3 -->
<g id="edge14" class="edge">
<title>Node11&#45;&gt;Node3</title>
<path fill="none" stroke="#191970" d="M288.727,-112.4809C335.9741,-104.8466 392.0601,-92.6502 409.5,-76 422.008,-64.0584 426.4418,-44.4643 427.9355,-29.7212"/>
<polygon fill="#191970" stroke="#191970" points="431.4373,-29.8046 428.5897,-19.5996 424.4519,-29.3531 431.4373,-29.8046"/>
</g>
<!-- Node12 -->
<g id="node13" class="node">
<title>Node12</title>
<polygon fill="#ffffff" stroke="#bfbfbf" points="130.5,-.5 130.5,-19.5 174.5,-19.5 174.5,-.5 130.5,-.5"/>
<text text-anchor="middle" x="152.5" y="-7.5" font-family="Helvetica,sans-Serif" font-size="10.00" fill="#000000">string</text>
</g>
<!-- Node11&#45;&gt;Node12 -->
<g id="edge12" class="edge">
<title>Node11&#45;&gt;Node12</title>
<path fill="none" stroke="#191970" d="M162.482,-112.4617C141.6724,-105.8668 119.9332,-94.742 107.5,-76 96.0752,-58.778 113.2007,-39.2414 129.5084,-25.921"/>
<polygon fill="#191970" stroke="#191970" points="131.9945,-28.4256 137.8062,-19.567 127.7387,-22.8679 131.9945,-28.4256"/>
</g>
<!-- Node13 -->
<g id="node14" class="node">
<title>Node13</title>
<polygon fill="#ffffff" stroke="#bfbfbf" points="335,-56.5 335,-75.5 400,-75.5 400,-56.5 335,-56.5"/>
<text text-anchor="middle" x="367.5" y="-63.5" font-family="Helvetica,sans-Serif" font-size="10.00" fill="#000000">stdexcept</text>
</g>
<!-- Node11&#45;&gt;Node13 -->
<g id="edge13" class="edge">
<title>Node11&#45;&gt;Node13</title>
<path fill="none" stroke="#191970" d="M242.4578,-112.3733C267.2407,-103.1822 304.7746,-89.2624 332.254,-79.0713"/>
<polygon fill="#191970" stroke="#191970" points="333.7219,-82.26 341.8809,-75.5011 331.2879,-75.6968 333.7219,-82.26"/>
</g>
<!-- Node14 -->
<g id="node15" class="node">
<title>Node14</title>
<g id="a_node15"><a xlink:href="ROSComponentDescriptor_8hpp.html" target="_top" xlink:title="archlib/ROSComponentDescriptor.hpp">
<polygon fill="#ffffff" stroke="#000000" points="116.5,-56.5 116.5,-75.5 316.5,-75.5 316.5,-56.5 116.5,-56.5"/>
<text text-anchor="middle" x="216.5" y="-63.5" font-family="Helvetica,sans-Serif" font-size="10.00" fill="#000000">archlib/ROSComponentDescriptor.hpp</text>
</a>
</g>
</g>
<!-- Node11&#45;&gt;Node14 -->
<g id="edge15" class="edge">
<title>Node11&#45;&gt;Node14</title>
<path fill="none" stroke="#191970" d="M216.5,-112.2455C216.5,-104.9382 216.5,-94.6944 216.5,-85.7046"/>
<polygon fill="#191970" stroke="#191970" points="220.0001,-85.6426 216.5,-75.6427 213.0001,-85.6427 220.0001,-85.6426"/>
</g>
<!-- Node14&#45;&gt;Node3 -->
<g id="edge17" class="edge">
<title>Node14&#45;&gt;Node3</title>
<path fill="none" stroke="#191970" d="M252.9441,-56.3733C290.7631,-46.3833 349.7314,-30.8068 388.7351,-20.5039"/>
<polygon fill="#191970" stroke="#191970" points="389.9092,-23.8139 398.6837,-17.876 388.1215,-17.046 389.9092,-23.8139"/>
</g>
<!-- Node14&#45;&gt;Node12 -->
<g id="edge16" class="edge">
<title>Node14&#45;&gt;Node12</title>
<path fill="none" stroke="#191970" d="M205.3521,-56.2455C195.9913,-48.0549 182.4142,-36.1749 171.3651,-26.5069"/>
<polygon fill="#191970" stroke="#191970" points="173.3508,-23.5937 163.5202,-19.6427 168.7412,-28.8618 173.3508,-23.5937"/>
</g>
</g>
</svg>
