<?xml version="1.0" encoding="UTF-8" standalone="no"?>
<!DOCTYPE svg PUBLIC "-//W3C//DTD SVG 1.1//EN"
 "http://www.w3.org/Graphics/SVG/1.1/DTD/svg11.dtd">
<!-- Generated by graphviz version 2.40.1 (20161225.0304)
 -->
<!-- Title: main Pages: 1 -->
<svg width="433pt" height="186pt"
 viewBox="0.00 0.00 433.00 186.00" xmlns="http://www.w3.org/2000/svg" xmlns:xlink="http://www.w3.org/1999/xlink">
<g id="graph0" class="graph" transform="scale(1 1) rotate(0) translate(4 182)">
<title>main</title>
<polygon fill="#ffffff" stroke="transparent" points="-4,4 -4,-182 429,-182 429,4 -4,4"/>
<!-- Node0 -->
<g id="node1" class="node">
<title>Node0</title>
<polygon fill="#bfbfbf" stroke="#000000" points="0,-79 0,-98 41,-98 41,-79 0,-79"/>
<text text-anchor="middle" x="20.5" y="-86" font-family="Helvetica,sans-Serif" font-size="10.00" fill="#000000">main</text>
</g>
<!-- Node1 -->
<g id="node2" class="node">
<title>Node1</title>
<g id="a_node2"><a xlink:href="classarch_1_1ROSComponent.html#acb85f671d782a1c628fcbf9b36abf21d" target="_top" xlink:title="arch::ROSComponent::run">
<polygon fill="#ffffff" stroke="#000000" points="77,-79 77,-98 219,-98 219,-79 77,-79"/>
<text text-anchor="middle" x="148" y="-86" font-family="Helvetica,sans-Serif" font-size="10.00" fill="#000000">arch::ROSComponent::run</text>
</a>
</g>
</g>
<!-- Node0&#45;&gt;Node1 -->
<g id="edge1" class="edge">
<title>Node0&#45;&gt;Node1</title>
<path fill="none" stroke="#191970" d="M41.2688,-88.5C48.5755,-88.5 57.2922,-88.5 66.5497,-88.5"/>
<polygon fill="#191970" stroke="#191970" points="66.7663,-92.0001 76.7662,-88.5 66.7662,-85.0001 66.7663,-92.0001"/>
</g>
<!-- Node2 -->
<g id="node3" class="node">
<title>Node2</title>
<g id="a_node3"><a xlink:href="classarch_1_1ROSComponent.html#ab134ea71604829a9e520a03bcae4bb8d" target="_top" xlink:title="arch::ROSComponent\l::setUp">
<polygon fill="#ffffff" stroke="#000000" points="280,-147.5 280,-177.5 400,-177.5 400,-147.5 280,-147.5"/>
<text text-anchor="start" x="288" y="-165.5" font-family="Helvetica,sans-Serif" font-size="10.00" fill="#000000">arch::ROSComponent</text>
<text text-anchor="middle" x="340" y="-154.5" font-family="Helvetica,sans-Serif" font-size="10.00" fill="#000000">::setUp</text>
</a>
</g>
</g>
<!-- Node1&#45;&gt;Node2 -->
<g id="edge2" class="edge">
<title>Node1&#45;&gt;Node2</title>
<path fill="none" stroke="#191970" d="M166.1685,-98.0985C187.1509,-108.9205 222.9065,-126.5603 255,-138.5 260.5241,-140.5551 266.3055,-142.5342 272.1426,-144.4136"/>
<polygon fill="#191970" stroke="#191970" points="271.3943,-147.8463 281.9827,-147.4785 273.4759,-141.163 271.3943,-147.8463"/>
</g>
<!-- Node3 -->
<g id="node4" class="node">
<title>Node3</title>
<g id="a_node4"><a xlink:href="classarch_1_1ROSComponentDescriptor.html#a4b73f46f37241865a08e75ab202e28eb" target="_top" xlink:title="arch::ROSComponentDescriptor\l::getFreq">
<polygon fill="#ffffff" stroke="#000000" points="255,-98.5 255,-128.5 425,-128.5 425,-98.5 255,-98.5"/>
<text text-anchor="start" x="263" y="-116.5" font-family="Helvetica,sans-Serif" font-size="10.00" fill="#000000">arch::ROSComponentDescriptor</text>
<text text-anchor="middle" x="340" y="-105.5" font-family="Helvetica,sans-Serif" font-size="10.00" fill="#000000">::getFreq</text>
</a>
</g>
</g>
<!-- Node1&#45;&gt;Node3 -->
<g id="edge3" class="edge">
<title>Node1&#45;&gt;Node3</title>
<path fill="none" stroke="#191970" d="M219.2209,-97.7736C227.5818,-98.8622 236.2119,-99.9859 244.8331,-101.1085"/>
<polygon fill="#191970" stroke="#191970" points="244.5646,-104.603 254.9328,-102.4235 245.4684,-97.6616 244.5646,-104.603"/>
</g>
<!-- Node4 -->
<g id="node5" class="node">
<title>Node4</title>
<g id="a_node5"><a xlink:href="classarch_1_1ROSComponent.html#ad59a3de60bed73bf6d37f0da4775a2d9" target="_top" xlink:title="arch::ROSComponent\l::body">
<polygon fill="#ffffff" stroke="#000000" points="280,-49.5 280,-79.5 400,-79.5 400,-49.5 280,-49.5"/>
<text text-anchor="start" x="288" y="-67.5" font-family="Helvetica,sans-Serif" font-size="10.00" fill="#000000">arch::ROSComponent</text>
<text text-anchor="middle" x="340" y="-56.5" font-family="Helvetica,sans-Serif" font-size="10.00" fill="#000000">::body</text>
</a>
</g>
</g>
<!-- Node1&#45;&gt;Node4 -->
<g id="edge4" class="edge">
<title>Node1&#45;&gt;Node4</title>
<path fill="none" stroke="#191970" d="M219.2209,-79.5974C235.7476,-77.5315 253.3262,-75.3342 269.8083,-73.274"/>
<polygon fill="#191970" stroke="#191970" points="270.4212,-76.7247 279.9099,-72.0113 269.5529,-69.7787 270.4212,-76.7247"/>
</g>
<!-- Node5 -->
<g id="node6" class="node">
<title>Node5</title>
<g id="a_node6"><a xlink:href="classarch_1_1ROSComponent.html#a0069d6f5e45a9daf0bdbefd773973bba" target="_top" xlink:title="arch::ROSComponent\l::tearDown">
<polygon fill="#ffffff" stroke="#000000" points="280,-.5 280,-30.5 400,-30.5 400,-.5 280,-.5"/>
<text text-anchor="start" x="288" y="-18.5" font-family="Helvetica,sans-Serif" font-size="10.00" fill="#000000">arch::ROSComponent</text>
<text text-anchor="middle" x="340" y="-7.5" font-family="Helvetica,sans-Serif" font-size="10.00" fill="#000000">::tearDown</text>
</a>
</g>
</g>
<!-- Node1&#45;&gt;Node5 -->
<g id="edge5" class="edge">
<title>Node1&#45;&gt;Node5</title>
<path fill="none" stroke="#191970" d="M167.3893,-78.8411C188.5749,-68.5157 223.6786,-52.0707 255,-40.5 261.3983,-38.1363 268.1304,-35.8414 274.8886,-33.6624"/>
<polygon fill="#191970" stroke="#191970" points="276.2813,-36.8936 284.7732,-30.5581 274.1839,-30.2152 276.2813,-36.8936"/>
</g>
</g>
</svg>
