<?xml version="1.0" encoding="UTF-8" standalone="no"?>
<!DOCTYPE svg PUBLIC "-//W3C//DTD SVG 1.1//EN"
 "http://www.w3.org/Graphics/SVG/1.1/DTD/svg11.dtd">
<!-- Generated by graphviz version 2.40.1 (20161225.0304)
 -->
<!-- Title: src/libbsn/include/libbsn/generator/Markov.hpp Pages: 1 -->
<svg width="2464pt" height="262pt"
 viewBox="0.00 0.00 2463.50 262.00" xmlns="http://www.w3.org/2000/svg" xmlns:xlink="http://www.w3.org/1999/xlink">
<g id="graph0" class="graph" transform="scale(1 1) rotate(0) translate(4 258)">
<title>src/libbsn/include/libbsn/generator/Markov.hpp</title>
<polygon fill="#ffffff" stroke="transparent" points="-4,4 -4,-258 2459.5,-258 2459.5,4 -4,4"/>
<!-- Node10 -->
<g id="node1" class="node">
<title>Node10</title>
<polygon fill="#bfbfbf" stroke="#000000" points="1205,-223.5 1205,-253.5 1363,-253.5 1363,-223.5 1205,-223.5"/>
<text text-anchor="start" x="1213" y="-241.5" font-family="Helvetica,sans-Serif" font-size="10.00" fill="#000000">src/libbsn/include</text>
<text text-anchor="middle" x="1284" y="-230.5" font-family="Helvetica,sans-Serif" font-size="10.00" fill="#000000">/libbsn/generator/Markov.hpp</text>
</g>
<!-- Node11 -->
<g id="node2" class="node">
<title>Node11</title>
<g id="a_node2"><a xlink:href="DataGenerator_8hpp.html" target="_top" xlink:title="src/libbsn/include\l/libbsn/generator/DataGenerator.hpp">
<polygon fill="#ffffff" stroke="#000000" points="1039,-156.5 1039,-186.5 1233,-186.5 1233,-156.5 1039,-156.5"/>
<text text-anchor="start" x="1047" y="-174.5" font-family="Helvetica,sans-Serif" font-size="10.00" fill="#000000">src/libbsn/include</text>
<text text-anchor="middle" x="1136" y="-163.5" font-family="Helvetica,sans-Serif" font-size="10.00" fill="#000000">/libbsn/generator/DataGenerator.hpp</text>
</a>
</g>
</g>
<!-- Node10&#45;&gt;Node11 -->
<g id="edge1" class="edge">
<title>Node10&#45;&gt;Node11</title>
<path fill="none" stroke="#191970" d="M1241.6173,-219.3132C1218.6739,-208.9267 1190.7366,-196.2794 1169.359,-186.6017"/>
<polygon fill="#191970" stroke="#191970" points="1240.2325,-222.5282 1250.7859,-223.4639 1243.1194,-216.1512 1240.2325,-222.5282"/>
</g>
<!-- Node13 -->
<g id="node4" class="node">
<title>Node13</title>
<g id="a_node4"><a xlink:href="DataGeneratorTest_8cpp.html" target="_top" xlink:title="src/libbsn/test/unit\l/generator/DataGeneratorTest.cpp">
<polygon fill="#ffffff" stroke="#000000" points="268,-84 268,-114 450,-114 450,-84 268,-84"/>
<text text-anchor="start" x="276" y="-102" font-family="Helvetica,sans-Serif" font-size="10.00" fill="#000000">src/libbsn/test/unit</text>
<text text-anchor="middle" x="359" y="-91" font-family="Helvetica,sans-Serif" font-size="10.00" fill="#000000">/generator/DataGeneratorTest.cpp</text>
</a>
</g>
</g>
<!-- Node10&#45;&gt;Node13 -->
<g id="edge26" class="edge">
<title>Node10&#45;&gt;Node13</title>
<path fill="none" stroke="#191970" d="M1194.7682,-232.2416C1093.5728,-224.4858 923.8132,-209.4809 779,-187 635.4137,-164.7096 601.2133,-149.8203 459,-120 449.798,-118.0705 440.1201,-116.0398 430.5576,-114.0325"/>
<polygon fill="#191970" stroke="#191970" points="1194.7115,-235.7473 1204.9479,-233.015 1195.2419,-228.7674 1194.7115,-235.7473"/>
</g>
<!-- Node17 -->
<g id="node8" class="node">
<title>Node17</title>
<g id="a_node8"><a xlink:href="G3T1__1_8hpp.html" target="_top" xlink:title="src/sa&#45;bsn/target_system\l/components/component/include\l/component/g3t1_1/G3T1_1.hpp">
<polygon fill="#ffffff" stroke="#000000" points="468,-78.5 468,-119.5 644,-119.5 644,-78.5 468,-78.5"/>
<text text-anchor="start" x="476" y="-107.5" font-family="Helvetica,sans-Serif" font-size="10.00" fill="#000000">src/sa&#45;bsn/target_system</text>
<text text-anchor="start" x="476" y="-96.5" font-family="Helvetica,sans-Serif" font-size="10.00" fill="#000000">/components/component/include</text>
<text text-anchor="middle" x="556" y="-85.5" font-family="Helvetica,sans-Serif" font-size="10.00" fill="#000000">/component/g3t1_1/G3T1_1.hpp</text>
</a>
</g>
</g>
<!-- Node10&#45;&gt;Node17 -->
<g id="edge27" class="edge">
<title>Node10&#45;&gt;Node17</title>
<path fill="none" stroke="#191970" d="M1194.7062,-227.9372C1122.0546,-218.7957 1017.0206,-204.334 926,-187 824.0042,-167.5759 707.7061,-138.8111 633.1607,-119.5097"/>
<polygon fill="#191970" stroke="#191970" points="1194.3809,-231.4237 1204.738,-229.1915 1195.2495,-224.4778 1194.3809,-231.4237"/>
</g>
<!-- Node20 -->
<g id="node11" class="node">
<title>Node20</title>
<g id="a_node11"><a xlink:href="G3T1__2_8hpp.html" target="_top" xlink:title="src/sa&#45;bsn/target_system\l/components/component/include\l/component/g3t1_2/G3T1_2.hpp">
<polygon fill="#ffffff" stroke="#000000" points="662,-78.5 662,-119.5 838,-119.5 838,-78.5 662,-78.5"/>
<text text-anchor="start" x="670" y="-107.5" font-family="Helvetica,sans-Serif" font-size="10.00" fill="#000000">src/sa&#45;bsn/target_system</text>
<text text-anchor="start" x="670" y="-96.5" font-family="Helvetica,sans-Serif" font-size="10.00" fill="#000000">/components/component/include</text>
<text text-anchor="middle" x="750" y="-85.5" font-family="Helvetica,sans-Serif" font-size="10.00" fill="#000000">/component/g3t1_2/G3T1_2.hpp</text>
</a>
</g>
</g>
<!-- Node10&#45;&gt;Node20 -->
<g id="edge28" class="edge">
<title>Node10&#45;&gt;Node20</title>
<path fill="none" stroke="#191970" d="M1194.9219,-222.7984C1145.9629,-213.5782 1084.3154,-201.0008 1030,-187 952.779,-167.0948 865.3306,-138.6393 809.0185,-119.5265"/>
<polygon fill="#191970" stroke="#191970" points="1194.3805,-226.2577 1204.8535,-224.6556 1195.6673,-219.377 1194.3805,-226.2577"/>
</g>
<!-- Node23 -->
<g id="node14" class="node">
<title>Node23</title>
<g id="a_node14"><a xlink:href="G3T1__3_8hpp.html" target="_top" xlink:title="src/sa&#45;bsn/target_system\l/components/component/include\l/component/g3t1_3/G3T1_3.hpp">
<polygon fill="#ffffff" stroke="#000000" points="1208,-78.5 1208,-119.5 1384,-119.5 1384,-78.5 1208,-78.5"/>
<text text-anchor="start" x="1216" y="-107.5" font-family="Helvetica,sans-Serif" font-size="10.00" fill="#000000">src/sa&#45;bsn/target_system</text>
<text text-anchor="start" x="1216" y="-96.5" font-family="Helvetica,sans-Serif" font-size="10.00" fill="#000000">/components/component/include</text>
<text text-anchor="middle" x="1296" y="-85.5" font-family="Helvetica,sans-Serif" font-size="10.00" fill="#000000">/component/g3t1_3/G3T1_3.hpp</text>
</a>
</g>
</g>
<!-- Node10&#45;&gt;Node23 -->
<g id="edge29" class="edge">
<title>Node10&#45;&gt;Node23</title>
<path fill="none" stroke="#191970" d="M1286.1806,-213.1507C1288.4893,-186.3121 1292.0893,-144.4622 1294.2292,-119.586"/>
<polygon fill="#191970" stroke="#191970" points="1282.6771,-213.0423 1285.3071,-223.3055 1289.6513,-213.6423 1282.6771,-213.0423"/>
</g>
<!-- Node26 -->
<g id="node17" class="node">
<title>Node26</title>
<g id="a_node17"><a xlink:href="G3T1__4_8hpp.html" target="_top" xlink:title="src/sa&#45;bsn/target_system\l/components/component/include\l/component/g3t1_4/G3T1_4.hpp">
<polygon fill="#ffffff" stroke="#000000" points="1402,-78.5 1402,-119.5 1578,-119.5 1578,-78.5 1402,-78.5"/>
<text text-anchor="start" x="1410" y="-107.5" font-family="Helvetica,sans-Serif" font-size="10.00" fill="#000000">src/sa&#45;bsn/target_system</text>
<text text-anchor="start" x="1410" y="-96.5" font-family="Helvetica,sans-Serif" font-size="10.00" fill="#000000">/components/component/include</text>
<text text-anchor="middle" x="1490" y="-85.5" font-family="Helvetica,sans-Serif" font-size="10.00" fill="#000000">/component/g3t1_4/G3T1_4.hpp</text>
</a>
</g>
</g>
<!-- Node10&#45;&gt;Node26 -->
<g id="edge30" class="edge">
<title>Node10&#45;&gt;Node26</title>
<path fill="none" stroke="#191970" d="M1297.0703,-214.5376C1308.0507,-196.3381 1325.2559,-171.8227 1346,-156 1366.5231,-140.3458 1391.9038,-128.4166 1415.613,-119.6201"/>
<polygon fill="#191970" stroke="#191970" points="1293.9175,-212.9966 1291.9099,-223.3995 1299.9666,-216.5192 1293.9175,-212.9966"/>
</g>
<!-- Node29 -->
<g id="node20" class="node">
<title>Node29</title>
<g id="a_node20"><a xlink:href="G3T1__5_8hpp.html" target="_top" xlink:title="src/sa&#45;bsn/target_system\l/components/component/include\l/component/g3t1_5/G3T1_5.hpp">
<polygon fill="#ffffff" stroke="#000000" points="1677,-78.5 1677,-119.5 1853,-119.5 1853,-78.5 1677,-78.5"/>
<text text-anchor="start" x="1685" y="-107.5" font-family="Helvetica,sans-Serif" font-size="10.00" fill="#000000">src/sa&#45;bsn/target_system</text>
<text text-anchor="start" x="1685" y="-96.5" font-family="Helvetica,sans-Serif" font-size="10.00" fill="#000000">/components/component/include</text>
<text text-anchor="middle" x="1765" y="-85.5" font-family="Helvetica,sans-Serif" font-size="10.00" fill="#000000">/component/g3t1_5/G3T1_5.hpp</text>
</a>
</g>
</g>
<!-- Node10&#45;&gt;Node29 -->
<g id="edge31" class="edge">
<title>Node10&#45;&gt;Node29</title>
<path fill="none" stroke="#191970" d="M1309.896,-216.9955C1339.1603,-192.7144 1382.9077,-156.4867 1384,-156 1410.2315,-144.3124 1572.7556,-122.6512 1676.8883,-109.6596"/>
<polygon fill="#191970" stroke="#191970" points="1307.5334,-214.408 1302.0735,-223.4877 1312.0039,-219.7945 1307.5334,-214.408"/>
</g>
<!-- Node32 -->
<g id="node23" class="node">
<title>Node32</title>
<g id="a_node23"><a xlink:href="G3T1__6_8hpp.html" target="_top" xlink:title="src/sa&#45;bsn/target_system\l/components/component/include\l/component/g3t1_6/G3T1_6.hpp">
<polygon fill="#ffffff" stroke="#000000" points="1992,-78.5 1992,-119.5 2168,-119.5 2168,-78.5 1992,-78.5"/>
<text text-anchor="start" x="2000" y="-107.5" font-family="Helvetica,sans-Serif" font-size="10.00" fill="#000000">src/sa&#45;bsn/target_system</text>
<text text-anchor="start" x="2000" y="-96.5" font-family="Helvetica,sans-Serif" font-size="10.00" fill="#000000">/components/component/include</text>
<text text-anchor="middle" x="2080" y="-85.5" font-family="Helvetica,sans-Serif" font-size="10.00" fill="#000000">/component/g3t1_6/G3T1_6.hpp</text>
</a>
</g>
</g>
<!-- Node10&#45;&gt;Node32 -->
<g id="edge32" class="edge">
<title>Node10&#45;&gt;Node32</title>
<path fill="none" stroke="#191970" d="M1326.3217,-218.6199C1343.7671,-209.7714 1363.8661,-198.7093 1381,-187 1398.4327,-175.0866 1397.5179,-164.141 1417,-156 1508.5411,-117.7477 1763.1753,-128.7568 1862,-120 1904.7976,-116.2077 1952.288,-111.6717 1991.9896,-107.7874"/>
<polygon fill="#191970" stroke="#191970" points="1324.3262,-215.7038 1316.9385,-223.298 1327.4496,-221.9684 1324.3262,-215.7038"/>
</g>
<!-- Node35 -->
<g id="node26" class="node">
<title>Node35</title>
<g id="a_node26"><a xlink:href="Markov_8cpp.html" target="_top" xlink:title="src/libbsn/src/generator\l/Markov.cpp">
<polygon fill="#ffffff" stroke="#000000" points="1426.5,-156.5 1426.5,-186.5 1557.5,-186.5 1557.5,-156.5 1426.5,-156.5"/>
<text text-anchor="start" x="1434.5" y="-174.5" font-family="Helvetica,sans-Serif" font-size="10.00" fill="#000000">src/libbsn/src/generator</text>
<text text-anchor="middle" x="1492" y="-163.5" font-family="Helvetica,sans-Serif" font-size="10.00" fill="#000000">/Markov.cpp</text>
</a>
</g>
</g>
<!-- Node10&#45;&gt;Node35 -->
<g id="edge25" class="edge">
<title>Node10&#45;&gt;Node35</title>
<path fill="none" stroke="#191970" d="M1340.5763,-220.2759C1373.3577,-209.7165 1414.1382,-196.5805 1445.1171,-186.6017"/>
<polygon fill="#191970" stroke="#191970" points="1339.1245,-217.0664 1330.6793,-223.4639 1341.2708,-223.7292 1339.1245,-217.0664"/>
</g>
<!-- Node12 -->
<g id="node3" class="node">
<title>Node12</title>
<g id="a_node3"><a xlink:href="DataGenerator_8cpp.html" target="_top" xlink:title="src/libbsn/src/generator\l/DataGenerator.cpp">
<polygon fill="#ffffff" stroke="#000000" points="1058.5,-84 1058.5,-114 1189.5,-114 1189.5,-84 1058.5,-84"/>
<text text-anchor="start" x="1066.5" y="-102" font-family="Helvetica,sans-Serif" font-size="10.00" fill="#000000">src/libbsn/src/generator</text>
<text text-anchor="middle" x="1124" y="-91" font-family="Helvetica,sans-Serif" font-size="10.00" fill="#000000">/DataGenerator.cpp</text>
</a>
</g>
</g>
<!-- Node11&#45;&gt;Node12 -->
<g id="edge2" class="edge">
<title>Node11&#45;&gt;Node12</title>
<path fill="none" stroke="#191970" d="M1131.8357,-146.3409C1130.0513,-135.5601 1128.0272,-123.3309 1126.4832,-114.0028"/>
<polygon fill="#191970" stroke="#191970" points="1128.4275,-147.1837 1133.5136,-156.478 1135.3336,-146.0406 1128.4275,-147.1837"/>
</g>
<!-- Node11&#45;&gt;Node13 -->
<g id="edge3" class="edge">
<title>Node11&#45;&gt;Node13</title>
<path fill="none" stroke="#191970" d="M1028.6156,-167.6777C894.7059,-161.914 659.0295,-148.4861 459,-120 447.7599,-118.3993 435.8899,-116.2865 424.4074,-114.0176"/>
<polygon fill="#191970" stroke="#191970" points="1028.7325,-171.1857 1038.8718,-168.1127 1029.0291,-164.192 1028.7325,-171.1857"/>
</g>
<!-- Node14 -->
<g id="node5" class="node">
<title>Node14</title>
<g id="a_node5"><a xlink:href="PatientModule_8hpp.html" target="_top" xlink:title="src/sa&#45;bsn/environment\l/patient/include/PatientModule.hpp">
<polygon fill="#ffffff" stroke="#000000" points="855.5,-84 855.5,-114 1040.5,-114 1040.5,-84 855.5,-84"/>
<text text-anchor="start" x="863.5" y="-102" font-family="Helvetica,sans-Serif" font-size="10.00" fill="#000000">src/sa&#45;bsn/environment</text>
<text text-anchor="middle" x="948" y="-91" font-family="Helvetica,sans-Serif" font-size="10.00" fill="#000000">/patient/include/PatientModule.hpp</text>
</a>
</g>
</g>
<!-- Node11&#45;&gt;Node14 -->
<g id="edge4" class="edge">
<title>Node11&#45;&gt;Node14</title>
<path fill="none" stroke="#191970" d="M1087.6414,-152.8511C1056.3436,-140.7814 1016.1319,-125.2743 986.9038,-114.0028"/>
<polygon fill="#191970" stroke="#191970" points="1086.4567,-156.1454 1097.0463,-156.478 1088.9754,-149.6142 1086.4567,-156.1454"/>
</g>
<!-- Node11&#45;&gt;Node17 -->
<g id="edge7" class="edge">
<title>Node11&#45;&gt;Node17</title>
<path fill="none" stroke="#191970" d="M1028.6869,-163.3706C930.5177,-155.1494 781.4558,-140.6925 653,-120 650.1081,-119.5342 647.1726,-119.0376 644.2119,-118.5164"/>
<polygon fill="#191970" stroke="#191970" points="1028.6595,-166.8803 1038.9149,-164.22 1029.2389,-159.9043 1028.6595,-166.8803"/>
</g>
<!-- Node11&#45;&gt;Node20 -->
<g id="edge10" class="edge">
<title>Node11&#45;&gt;Node20</title>
<path fill="none" stroke="#191970" d="M1036.0991,-154.7636C980.1054,-145.1311 909.0528,-132.49 846,-120 843.406,-119.4862 840.7742,-118.9576 838.1186,-118.4179"/>
<polygon fill="#191970" stroke="#191970" points="1035.5691,-158.2237 1046.0171,-156.4654 1036.753,-151.3246 1035.5691,-158.2237"/>
</g>
<!-- Node11&#45;&gt;Node23 -->
<g id="edge13" class="edge">
<title>Node11&#45;&gt;Node23</title>
<path fill="none" stroke="#191970" d="M1178.3739,-152.2993C1200.6792,-142.1923 1228.0379,-129.7953 1250.7553,-119.5015"/>
<polygon fill="#191970" stroke="#191970" points="1176.8161,-149.1626 1169.1521,-156.478 1179.7052,-155.5386 1176.8161,-149.1626"/>
</g>
<!-- Node11&#45;&gt;Node26 -->
<g id="edge16" class="edge">
<title>Node11&#45;&gt;Node26</title>
<path fill="none" stroke="#191970" d="M1222.6328,-154.4856C1272.4973,-144.6059 1336.32,-131.8138 1393,-120 1395.9519,-119.3847 1398.9535,-118.7555 1401.9842,-118.117"/>
<polygon fill="#191970" stroke="#191970" points="1221.6625,-151.1097 1212.5325,-156.4848 1223.0218,-157.9764 1221.6625,-151.1097"/>
</g>
<!-- Node11&#45;&gt;Node29 -->
<g id="edge19" class="edge">
<title>Node11&#45;&gt;Node29</title>
<path fill="none" stroke="#191970" d="M1243.3167,-159.3596C1334.7012,-148.9942 1469.4816,-133.642 1587,-120 1616.2095,-116.6093 1648.1093,-112.8603 1676.733,-109.4796"/>
<polygon fill="#191970" stroke="#191970" points="1242.7675,-155.8993 1233.2256,-160.5039 1243.5563,-162.8548 1242.7675,-155.8993"/>
</g>
<!-- Node11&#45;&gt;Node32 -->
<g id="edge22" class="edge">
<title>Node11&#45;&gt;Node32</title>
<path fill="none" stroke="#191970" d="M1243.2348,-164.7415C1384.9521,-155.6154 1642.3489,-138.3672 1862,-120 1904.7212,-116.4277 1952.0983,-111.9285 1991.7431,-108.0119"/>
<polygon fill="#191970" stroke="#191970" points="1242.988,-161.25 1233.2331,-165.3844 1243.4371,-168.2356 1242.988,-161.25"/>
</g>
<!-- Node15 -->
<g id="node6" class="node">
<title>Node15</title>
<g id="a_node6"><a xlink:href="patient_8cpp.html" target="_top" xlink:title="src/sa&#45;bsn/environment\l/patient/apps/patient.cpp">
<polygon fill="#ffffff" stroke="#000000" points="712,-6 712,-36 850,-36 850,-6 712,-6"/>
<text text-anchor="start" x="720" y="-24" font-family="Helvetica,sans-Serif" font-size="10.00" fill="#000000">src/sa&#45;bsn/environment</text>
<text text-anchor="middle" x="781" y="-13" font-family="Helvetica,sans-Serif" font-size="10.00" fill="#000000">/patient/apps/patient.cpp</text>
</a>
</g>
</g>
<!-- Node14&#45;&gt;Node15 -->
<g id="edge5" class="edge">
<title>Node14&#45;&gt;Node15</title>
<path fill="none" stroke="#191970" d="M906.4176,-79.5783C877.6503,-66.1421 839.9206,-48.5198 813.3849,-36.1259"/>
<polygon fill="#191970" stroke="#191970" points="905.2591,-82.9001 915.8007,-83.9608 908.2214,-76.5578 905.2591,-82.9001"/>
</g>
<!-- Node16 -->
<g id="node7" class="node">
<title>Node16</title>
<g id="a_node7"><a xlink:href="PatientModule_8cpp.html" target="_top" xlink:title="src/sa&#45;bsn/environment\l/patient/src/PatientModule.cpp">
<polygon fill="#ffffff" stroke="#000000" points="868,-6 868,-36 1032,-36 1032,-6 868,-6"/>
<text text-anchor="start" x="876" y="-24" font-family="Helvetica,sans-Serif" font-size="10.00" fill="#000000">src/sa&#45;bsn/environment</text>
<text text-anchor="middle" x="950" y="-13" font-family="Helvetica,sans-Serif" font-size="10.00" fill="#000000">/patient/src/PatientModule.cpp</text>
</a>
</g>
</g>
<!-- Node14&#45;&gt;Node16 -->
<g id="edge6" class="edge">
<title>Node14&#45;&gt;Node16</title>
<path fill="none" stroke="#191970" d="M948.6465,-73.7875C948.9636,-61.4187 949.3352,-46.9264 949.6087,-36.2592"/>
<polygon fill="#191970" stroke="#191970" points="945.1432,-73.8744 948.3856,-83.9608 952.1409,-74.0538 945.1432,-73.8744"/>
</g>
<!-- Node18 -->
<g id="node9" class="node">
<title>Node18</title>
<g id="a_node9"><a xlink:href="g3t1__1_8cpp.html" target="_top" xlink:title="src/sa&#45;bsn/target_system\l/components/component/apps\l/g3t1_1.cpp">
<polygon fill="#ffffff" stroke="#000000" points="0,-.5 0,-41.5 164,-41.5 164,-.5 0,-.5"/>
<text text-anchor="start" x="8" y="-29.5" font-family="Helvetica,sans-Serif" font-size="10.00" fill="#000000">src/sa&#45;bsn/target_system</text>
<text text-anchor="start" x="8" y="-18.5" font-family="Helvetica,sans-Serif" font-size="10.00" fill="#000000">/components/component/apps</text>
<text text-anchor="middle" x="82" y="-7.5" font-family="Helvetica,sans-Serif" font-size="10.00" fill="#000000">/g3t1_1.cpp</text>
</a>
</g>
</g>
<!-- Node17&#45;&gt;Node18 -->
<g id="edge8" class="edge">
<title>Node17&#45;&gt;Node18</title>
<path fill="none" stroke="#191970" d="M457.6815,-77.8527C330.9506,-56.8121 295.9322,-63.8632 173,-42 170.1266,-41.489 167.2074,-40.946 164.263,-40.3781"/>
<polygon fill="#191970" stroke="#191970" points="457.3334,-81.3433 467.7762,-79.5554 458.4976,-74.4408 457.3334,-81.3433"/>
</g>
<!-- Node19 -->
<g id="node10" class="node">
<title>Node19</title>
<g id="a_node10"><a xlink:href="G3T1__1_8cpp.html" target="_top" xlink:title="src/sa&#45;bsn/target_system\l/components/component/src\l/g3t1_1/G3T1_1.cpp">
<polygon fill="#ffffff" stroke="#000000" points="182.5,-.5 182.5,-41.5 337.5,-41.5 337.5,-.5 182.5,-.5"/>
<text text-anchor="start" x="190.5" y="-29.5" font-family="Helvetica,sans-Serif" font-size="10.00" fill="#000000">src/sa&#45;bsn/target_system</text>
<text text-anchor="start" x="190.5" y="-18.5" font-family="Helvetica,sans-Serif" font-size="10.00" fill="#000000">/components/component/src</text>
<text text-anchor="middle" x="260" y="-7.5" font-family="Helvetica,sans-Serif" font-size="10.00" fill="#000000">/g3t1_1/G3T1_1.cpp</text>
</a>
</g>
</g>
<!-- Node17&#45;&gt;Node19 -->
<g id="edge9" class="edge">
<title>Node17&#45;&gt;Node19</title>
<path fill="none" stroke="#191970" d="M468.0309,-75.8189C426.5947,-64.8999 377.5994,-51.989 337.5688,-41.4404"/>
<polygon fill="#191970" stroke="#191970" points="467.2805,-79.2406 477.8423,-78.4044 469.0643,-72.4717 467.2805,-79.2406"/>
</g>
<!-- Node21 -->
<g id="node12" class="node">
<title>Node21</title>
<g id="a_node12"><a xlink:href="g3t1__2_8cpp.html" target="_top" xlink:title="src/sa&#45;bsn/target_system\l/components/component/apps\l/g3t1_2.cpp">
<polygon fill="#ffffff" stroke="#000000" points="356,-.5 356,-41.5 520,-41.5 520,-.5 356,-.5"/>
<text text-anchor="start" x="364" y="-29.5" font-family="Helvetica,sans-Serif" font-size="10.00" fill="#000000">src/sa&#45;bsn/target_system</text>
<text text-anchor="start" x="364" y="-18.5" font-family="Helvetica,sans-Serif" font-size="10.00" fill="#000000">/components/component/apps</text>
<text text-anchor="middle" x="438" y="-7.5" font-family="Helvetica,sans-Serif" font-size="10.00" fill="#000000">/g3t1_2.cpp</text>
</a>
</g>
</g>
<!-- Node20&#45;&gt;Node21 -->
<g id="edge11" class="edge">
<title>Node20&#45;&gt;Node21</title>
<path fill="none" stroke="#191970" d="M657.8479,-75.962C614.1444,-65.0361 562.3611,-52.0903 520.0321,-41.508"/>
<polygon fill="#191970" stroke="#191970" points="657.0672,-79.3745 667.6176,-78.4044 658.765,-72.5835 657.0672,-79.3745"/>
</g>
<!-- Node22 -->
<g id="node13" class="node">
<title>Node22</title>
<g id="a_node13"><a xlink:href="G3T1__2_8cpp.html" target="_top" xlink:title="src/sa&#45;bsn/target_system\l/components/component/src\l/g3t1_2/G3T1_2.cpp">
<polygon fill="#ffffff" stroke="#000000" points="538.5,-.5 538.5,-41.5 693.5,-41.5 693.5,-.5 538.5,-.5"/>
<text text-anchor="start" x="546.5" y="-29.5" font-family="Helvetica,sans-Serif" font-size="10.00" fill="#000000">src/sa&#45;bsn/target_system</text>
<text text-anchor="start" x="546.5" y="-18.5" font-family="Helvetica,sans-Serif" font-size="10.00" fill="#000000">/components/component/src</text>
<text text-anchor="middle" x="616" y="-7.5" font-family="Helvetica,sans-Serif" font-size="10.00" fill="#000000">/g3t1_2/G3T1_2.cpp</text>
</a>
</g>
</g>
<!-- Node20&#45;&gt;Node22 -->
<g id="edge12" class="edge">
<title>Node20&#45;&gt;Node22</title>
<path fill="none" stroke="#191970" d="M705.4667,-73.0776C687.8357,-62.8148 667.8573,-51.1856 651.2589,-41.5239"/>
<polygon fill="#191970" stroke="#191970" points="704.039,-76.2963 714.4423,-78.3022 707.5605,-70.2466 704.039,-76.2963"/>
</g>
<!-- Node24 -->
<g id="node15" class="node">
<title>Node24</title>
<g id="a_node15"><a xlink:href="g3t1__3_8cpp.html" target="_top" xlink:title="src/sa&#45;bsn/target_system\l/components/component/apps\l/g3t1_3.cpp">
<polygon fill="#ffffff" stroke="#000000" points="1050,-.5 1050,-41.5 1214,-41.5 1214,-.5 1050,-.5"/>
<text text-anchor="start" x="1058" y="-29.5" font-family="Helvetica,sans-Serif" font-size="10.00" fill="#000000">src/sa&#45;bsn/target_system</text>
<text text-anchor="start" x="1058" y="-18.5" font-family="Helvetica,sans-Serif" font-size="10.00" fill="#000000">/components/component/apps</text>
<text text-anchor="middle" x="1132" y="-7.5" font-family="Helvetica,sans-Serif" font-size="10.00" fill="#000000">/g3t1_3.cpp</text>
</a>
</g>
</g>
<!-- Node23&#45;&gt;Node24 -->
<g id="edge14" class="edge">
<title>Node23&#45;&gt;Node24</title>
<path fill="none" stroke="#191970" d="M1243.2716,-73.9218C1221.2674,-63.4564 1196.0262,-51.4515 1175.1527,-41.5239"/>
<polygon fill="#191970" stroke="#191970" points="1241.9476,-77.1678 1252.4816,-78.3022 1244.9542,-70.8464 1241.9476,-77.1678"/>
</g>
<!-- Node25 -->
<g id="node16" class="node">
<title>Node25</title>
<g id="a_node16"><a xlink:href="G3T1__3_8cpp.html" target="_top" xlink:title="src/sa&#45;bsn/target_system\l/components/component/src\l/g3t1_3/G3T1_3.cpp">
<polygon fill="#ffffff" stroke="#000000" points="1232.5,-.5 1232.5,-41.5 1387.5,-41.5 1387.5,-.5 1232.5,-.5"/>
<text text-anchor="start" x="1240.5" y="-29.5" font-family="Helvetica,sans-Serif" font-size="10.00" fill="#000000">src/sa&#45;bsn/target_system</text>
<text text-anchor="start" x="1240.5" y="-18.5" font-family="Helvetica,sans-Serif" font-size="10.00" fill="#000000">/components/component/src</text>
<text text-anchor="middle" x="1310" y="-7.5" font-family="Helvetica,sans-Serif" font-size="10.00" fill="#000000">/g3t1_3/G3T1_3.cpp</text>
</a>
</g>
</g>
<!-- Node23&#45;&gt;Node25 -->
<g id="edge15" class="edge">
<title>Node23&#45;&gt;Node25</title>
<path fill="none" stroke="#191970" d="M1301.5499,-68.0789C1303.1404,-59.2178 1304.8353,-49.7747 1306.2864,-41.6898"/>
<polygon fill="#191970" stroke="#191970" points="1298.0735,-67.6364 1299.7517,-78.0974 1304.9634,-68.8731 1298.0735,-67.6364"/>
</g>
<!-- Node27 -->
<g id="node18" class="node">
<title>Node27</title>
<g id="a_node18"><a xlink:href="g3t1__4_8cpp.html" target="_top" xlink:title="src/sa&#45;bsn/target_system\l/components/component/apps\l/g3t1_4.cpp">
<polygon fill="#ffffff" stroke="#000000" points="1406,-.5 1406,-41.5 1570,-41.5 1570,-.5 1406,-.5"/>
<text text-anchor="start" x="1414" y="-29.5" font-family="Helvetica,sans-Serif" font-size="10.00" fill="#000000">src/sa&#45;bsn/target_system</text>
<text text-anchor="start" x="1414" y="-18.5" font-family="Helvetica,sans-Serif" font-size="10.00" fill="#000000">/components/component/apps</text>
<text text-anchor="middle" x="1488" y="-7.5" font-family="Helvetica,sans-Serif" font-size="10.00" fill="#000000">/g3t1_4.cpp</text>
</a>
</g>
</g>
<!-- Node26&#45;&gt;Node27 -->
<g id="edge17" class="edge">
<title>Node26&#45;&gt;Node27</title>
<path fill="none" stroke="#191970" d="M1489.2072,-68.0789C1488.9799,-59.2178 1488.7378,-49.7747 1488.5305,-41.6898"/>
<polygon fill="#191970" stroke="#191970" points="1485.7088,-68.1905 1489.464,-78.0974 1492.7065,-68.011 1485.7088,-68.1905"/>
</g>
<!-- Node28 -->
<g id="node19" class="node">
<title>Node28</title>
<g id="a_node19"><a xlink:href="G3T1__4_8cpp.html" target="_top" xlink:title="src/sa&#45;bsn/target_system\l/components/component/src\l/g3t1_4/G3T1_4.cpp">
<polygon fill="#ffffff" stroke="#000000" points="1588.5,-.5 1588.5,-41.5 1743.5,-41.5 1743.5,-.5 1588.5,-.5"/>
<text text-anchor="start" x="1596.5" y="-29.5" font-family="Helvetica,sans-Serif" font-size="10.00" fill="#000000">src/sa&#45;bsn/target_system</text>
<text text-anchor="start" x="1596.5" y="-18.5" font-family="Helvetica,sans-Serif" font-size="10.00" fill="#000000">/components/component/src</text>
<text text-anchor="middle" x="1666" y="-7.5" font-family="Helvetica,sans-Serif" font-size="10.00" fill="#000000">/g3t1_4/G3T1_4.cpp</text>
</a>
</g>
</g>
<!-- Node26&#45;&gt;Node28 -->
<g id="edge18" class="edge">
<title>Node26&#45;&gt;Node28</title>
<path fill="none" stroke="#191970" d="M1545.9549,-74.2018C1569.7168,-63.671 1597.089,-51.5401 1619.6898,-41.5239"/>
<polygon fill="#191970" stroke="#191970" points="1544.427,-71.0506 1536.7027,-78.3022 1547.2632,-77.4503 1544.427,-71.0506"/>
</g>
<!-- Node30 -->
<g id="node21" class="node">
<title>Node30</title>
<g id="a_node21"><a xlink:href="g3t1__5_8cpp.html" target="_top" xlink:title="src/sa&#45;bsn/target_system\l/components/component/apps\l/g3t1_5.cpp">
<polygon fill="#ffffff" stroke="#000000" points="1762,-.5 1762,-41.5 1926,-41.5 1926,-.5 1762,-.5"/>
<text text-anchor="start" x="1770" y="-29.5" font-family="Helvetica,sans-Serif" font-size="10.00" fill="#000000">src/sa&#45;bsn/target_system</text>
<text text-anchor="start" x="1770" y="-18.5" font-family="Helvetica,sans-Serif" font-size="10.00" fill="#000000">/components/component/apps</text>
<text text-anchor="middle" x="1844" y="-7.5" font-family="Helvetica,sans-Serif" font-size="10.00" fill="#000000">/g3t1_5.cpp</text>
</a>
</g>
</g>
<!-- Node29&#45;&gt;Node30 -->
<g id="edge20" class="edge">
<title>Node29&#45;&gt;Node30</title>
<path fill="none" stroke="#191970" d="M1793.4145,-70.9452C1803.1969,-61.2866 1813.9663,-50.6535 1823.0449,-41.6898"/>
<polygon fill="#191970" stroke="#191970" points="1790.8275,-68.5809 1786.1706,-78.0974 1795.7456,-73.5621 1790.8275,-68.5809"/>
</g>
<!-- Node31 -->
<g id="node22" class="node">
<title>Node31</title>
<g id="a_node22"><a xlink:href="G3T1__5_8cpp.html" target="_top" xlink:title="src/sa&#45;bsn/target_system\l/components/component/src\l/g3t1_5/G3T1_5.cpp">
<polygon fill="#ffffff" stroke="#000000" points="1944.5,-.5 1944.5,-41.5 2099.5,-41.5 2099.5,-.5 1944.5,-.5"/>
<text text-anchor="start" x="1952.5" y="-29.5" font-family="Helvetica,sans-Serif" font-size="10.00" fill="#000000">src/sa&#45;bsn/target_system</text>
<text text-anchor="start" x="1952.5" y="-18.5" font-family="Helvetica,sans-Serif" font-size="10.00" fill="#000000">/components/component/src</text>
<text text-anchor="middle" x="2022" y="-7.5" font-family="Helvetica,sans-Serif" font-size="10.00" fill="#000000">/g3t1_5/G3T1_5.cpp</text>
</a>
</g>
</g>
<!-- Node29&#45;&gt;Node31 -->
<g id="edge21" class="edge">
<title>Node29&#45;&gt;Node31</title>
<path fill="none" stroke="#191970" d="M1842.7081,-75.4154C1878.2456,-64.6297 1919.96,-51.9693 1954.2058,-41.5757"/>
<polygon fill="#191970" stroke="#191970" points="1841.4124,-72.151 1832.8599,-78.4044 1843.4454,-78.8493 1841.4124,-72.151"/>
</g>
<!-- Node33 -->
<g id="node24" class="node">
<title>Node33</title>
<g id="a_node24"><a xlink:href="g3t1__6_8cpp.html" target="_top" xlink:title="src/sa&#45;bsn/target_system\l/components/component/apps\l/g3t1_6.cpp">
<polygon fill="#ffffff" stroke="#000000" points="2118,-.5 2118,-41.5 2282,-41.5 2282,-.5 2118,-.5"/>
<text text-anchor="start" x="2126" y="-29.5" font-family="Helvetica,sans-Serif" font-size="10.00" fill="#000000">src/sa&#45;bsn/target_system</text>
<text text-anchor="start" x="2126" y="-18.5" font-family="Helvetica,sans-Serif" font-size="10.00" fill="#000000">/components/component/apps</text>
<text text-anchor="middle" x="2200" y="-7.5" font-family="Helvetica,sans-Serif" font-size="10.00" fill="#000000">/g3t1_6.cpp</text>
</a>
</g>
</g>
<!-- Node32&#45;&gt;Node33 -->
<g id="edge23" class="edge">
<title>Node32&#45;&gt;Node33</title>
<path fill="none" stroke="#191970" d="M2120.3157,-72.7948C2135.9976,-62.6016 2153.697,-51.0969 2168.4248,-41.5239"/>
<polygon fill="#191970" stroke="#191970" points="2118.3197,-69.9177 2111.8427,-78.3022 2122.1347,-75.7868 2118.3197,-69.9177"/>
</g>
<!-- Node34 -->
<g id="node25" class="node">
<title>Node34</title>
<g id="a_node25"><a xlink:href="G3T1__6_8cpp.html" target="_top" xlink:title="src/sa&#45;bsn/target_system\l/components/component/src\l/g3t1_6/G3T1_6.cpp">
<polygon fill="#ffffff" stroke="#000000" points="2300.5,-.5 2300.5,-41.5 2455.5,-41.5 2455.5,-.5 2300.5,-.5"/>
<text text-anchor="start" x="2308.5" y="-29.5" font-family="Helvetica,sans-Serif" font-size="10.00" fill="#000000">src/sa&#45;bsn/target_system</text>
<text text-anchor="start" x="2308.5" y="-18.5" font-family="Helvetica,sans-Serif" font-size="10.00" fill="#000000">/components/component/src</text>
<text text-anchor="middle" x="2378" y="-7.5" font-family="Helvetica,sans-Serif" font-size="10.00" fill="#000000">/g3t1_6/G3T1_6.cpp</text>
</a>
</g>
</g>
<!-- Node32&#45;&gt;Node34 -->
<g id="edge24" class="edge">
<title>Node32&#45;&gt;Node34</title>
<path fill="none" stroke="#191970" d="M2168.6032,-75.8086C2210.4891,-64.8451 2260.0401,-51.8754 2300.4228,-41.3055"/>
<polygon fill="#191970" stroke="#191970" points="2167.4736,-72.4862 2158.6858,-78.4044 2169.2462,-79.2581 2167.4736,-72.4862"/>
</g>
</g>
</svg>
