<?xml version="1.0" encoding="UTF-8" standalone="no"?>
<!DOCTYPE svg PUBLIC "-//W3C//DTD SVG 1.1//EN"
 "http://www.w3.org/Graphics/SVG/1.1/DTD/svg11.dtd">
<!-- Generated by graphviz version 2.40.1 (20161225.0304)
 -->
<!-- Title: src/libbsn/include/libbsn/generator/Markov.hpp Pages: 1 -->
<svg width="500pt" height="151pt"
 viewBox="0.00 0.00 499.50 151.00" xmlns="http://www.w3.org/2000/svg" xmlns:xlink="http://www.w3.org/1999/xlink">
<g id="graph0" class="graph" transform="scale(1 1) rotate(0) translate(4 147)">
<title>src/libbsn/include/libbsn/generator/Markov.hpp</title>
<polygon fill="#ffffff" stroke="transparent" points="-4,4 -4,-147 495.5,-147 495.5,4 -4,4"/>
<!-- Node0 -->
<g id="node1" class="node">
<title>Node0</title>
<polygon fill="#bfbfbf" stroke="#000000" points="205,-112.5 205,-142.5 363,-142.5 363,-112.5 205,-112.5"/>
<text text-anchor="start" x="213" y="-130.5" font-family="Helvetica,sans-Serif" font-size="10.00" fill="#000000">src/libbsn/include</text>
<text text-anchor="middle" x="284" y="-119.5" font-family="Helvetica,sans-Serif" font-size="10.00" fill="#000000">/libbsn/generator/Markov.hpp</text>
</g>
<!-- Node1 -->
<g id="node2" class="node">
<title>Node1</title>
<polygon fill="#ffffff" stroke="#bfbfbf" points="0,-.5 0,-19.5 60,-19.5 60,-.5 0,-.5"/>
<text text-anchor="middle" x="30" y="-7.5" font-family="Helvetica,sans-Serif" font-size="10.00" fill="#000000">iostream</text>
</g>
<!-- Node0&#45;&gt;Node1 -->
<g id="edge1" class="edge">
<title>Node0&#45;&gt;Node1</title>
<path fill="none" stroke="#191970" d="M204.712,-113.5253C171.5841,-105.5808 133.5452,-93.5976 102,-76 79.2594,-63.3141 57.8935,-42.0991 44.4357,-27.1522"/>
<polygon fill="#191970" stroke="#191970" points="47.0341,-24.8068 37.8142,-19.5872 41.7668,-29.4171 47.0341,-24.8068"/>
</g>
<!-- Node2 -->
<g id="node3" class="node">
<title>Node2</title>
<polygon fill="#ffffff" stroke="#bfbfbf" points="312,-56.5 312,-75.5 354,-75.5 354,-56.5 312,-56.5"/>
<text text-anchor="middle" x="333" y="-63.5" font-family="Helvetica,sans-Serif" font-size="10.00" fill="#000000">array</text>
</g>
<!-- Node0&#45;&gt;Node2 -->
<g id="edge2" class="edge">
<title>Node0&#45;&gt;Node2</title>
<path fill="none" stroke="#191970" d="M296.1124,-112.2977C302.9849,-103.672 311.6223,-92.8312 318.811,-83.8087"/>
<polygon fill="#191970" stroke="#191970" points="321.6604,-85.849 325.1545,-75.8469 316.1856,-81.487 321.6604,-85.849"/>
</g>
<!-- Node3 -->
<g id="node4" class="node">
<title>Node3</title>
<polygon fill="#ffffff" stroke="#bfbfbf" points="372,-56.5 372,-75.5 426,-75.5 426,-56.5 372,-56.5"/>
<text text-anchor="middle" x="399" y="-63.5" font-family="Helvetica,sans-Serif" font-size="10.00" fill="#000000">random</text>
</g>
<!-- Node0&#45;&gt;Node3 -->
<g id="edge3" class="edge">
<title>Node0&#45;&gt;Node3</title>
<path fill="none" stroke="#191970" d="M312.1322,-112.4554C330.4786,-102.644 354.2777,-89.9167 372.3251,-80.2653"/>
<polygon fill="#191970" stroke="#191970" points="374.0114,-83.3326 381.1791,-75.5303 370.7103,-77.1598 374.0114,-83.3326"/>
</g>
<!-- Node4 -->
<g id="node5" class="node">
<title>Node4</title>
<polygon fill="#ffffff" stroke="#bfbfbf" points="444.5,-56.5 444.5,-75.5 491.5,-75.5 491.5,-56.5 444.5,-56.5"/>
<text text-anchor="middle" x="468" y="-63.5" font-family="Helvetica,sans-Serif" font-size="10.00" fill="#000000">vector</text>
</g>
<!-- Node0&#45;&gt;Node4 -->
<g id="edge4" class="edge">
<title>Node0&#45;&gt;Node4</title>
<path fill="none" stroke="#191970" d="M329.0115,-112.4554C361.6552,-101.5446 405.0879,-87.0277 434.6557,-77.145"/>
<polygon fill="#191970" stroke="#191970" points="436.1208,-80.3457 444.4955,-73.8561 433.9017,-73.7067 436.1208,-80.3457"/>
</g>
<!-- Node5 -->
<g id="node6" class="node">
<title>Node5</title>
<polygon fill="#ffffff" stroke="#bfbfbf" points="78.5,-.5 78.5,-19.5 131.5,-19.5 131.5,-.5 78.5,-.5"/>
<text text-anchor="middle" x="105" y="-7.5" font-family="Helvetica,sans-Serif" font-size="10.00" fill="#000000">stdint.h</text>
</g>
<!-- Node0&#45;&gt;Node5 -->
<g id="edge5" class="edge">
<title>Node0&#45;&gt;Node5</title>
<path fill="none" stroke="#191970" d="M208.2823,-112.4409C169.8824,-103.261 128.712,-90.5159 116,-76 105.1302,-63.5878 102.9358,-44.6327 103.1363,-30.2155"/>
<polygon fill="#191970" stroke="#191970" points="106.6521,-30.0102 103.6905,-19.8378 99.6621,-29.6368 106.6521,-30.0102"/>
</g>
<!-- Node6 -->
<g id="node7" class="node">
<title>Node6</title>
<polygon fill="#ffffff" stroke="#bfbfbf" points="295,-.5 295,-19.5 351,-19.5 351,-.5 295,-.5"/>
<text text-anchor="middle" x="323" y="-7.5" font-family="Helvetica,sans-Serif" font-size="10.00" fill="#000000">sstream</text>
</g>
<!-- Node0&#45;&gt;Node6 -->
<g id="edge6" class="edge">
<title>Node0&#45;&gt;Node6</title>
<path fill="none" stroke="#191970" d="M287.3529,-112.236C290.7273,-97.6219 296.3717,-75.0446 303,-56 306.1746,-46.8786 310.3523,-37.027 314.0681,-28.7897"/>
<polygon fill="#191970" stroke="#191970" points="317.2508,-30.2458 318.273,-19.7004 310.8977,-27.3067 317.2508,-30.2458"/>
</g>
<!-- Node7 -->
<g id="node8" class="node">
<title>Node7</title>
<g id="a_node8"><a xlink:href="Range_8hpp.html" target="_top" xlink:title="libbsn/range/Range.hpp">
<polygon fill="#ffffff" stroke="#000000" points="124.5,-56.5 124.5,-75.5 255.5,-75.5 255.5,-56.5 124.5,-56.5"/>
<text text-anchor="middle" x="190" y="-63.5" font-family="Helvetica,sans-Serif" font-size="10.00" fill="#000000">libbsn/range/Range.hpp</text>
</a>
</g>
</g>
<!-- Node0&#45;&gt;Node7 -->
<g id="edge7" class="edge">
<title>Node0&#45;&gt;Node7</title>
<path fill="none" stroke="#191970" d="M260.764,-112.2977C246.2666,-102.8127 227.6756,-90.6495 213.1874,-81.1705"/>
<polygon fill="#191970" stroke="#191970" points="215.0543,-78.2094 204.7699,-75.6633 211.2218,-84.0671 215.0543,-78.2094"/>
</g>
<!-- Node7&#45;&gt;Node1 -->
<g id="edge10" class="edge">
<title>Node7&#45;&gt;Node1</title>
<path fill="none" stroke="#191970" d="M162.495,-56.3733C136.1198,-47.1419 96.1149,-33.1402 66.9642,-22.9375"/>
<polygon fill="#191970" stroke="#191970" points="67.7409,-19.5012 57.1461,-19.5011 65.4284,-26.1082 67.7409,-19.5012"/>
</g>
<!-- Node7&#45;&gt;Node5 -->
<g id="edge11" class="edge">
<title>Node7&#45;&gt;Node5</title>
<path fill="none" stroke="#191970" d="M175.1941,-56.2455C162.2744,-47.7337 143.3069,-35.2375 128.3448,-25.3801"/>
<polygon fill="#191970" stroke="#191970" points="129.9124,-22.2216 119.6362,-19.6427 126.0613,-28.067 129.9124,-22.2216"/>
</g>
<!-- Node7&#45;&gt;Node6 -->
<g id="edge12" class="edge">
<title>Node7&#45;&gt;Node6</title>
<path fill="none" stroke="#191970" d="M212.8635,-56.3733C234.405,-47.3032 266.8838,-33.6279 290.9956,-23.4755"/>
<polygon fill="#191970" stroke="#191970" points="292.5767,-26.6075 300.4348,-19.5011 289.8603,-20.156 292.5767,-26.6075"/>
</g>
<!-- Node8 -->
<g id="node9" class="node">
<title>Node8</title>
<polygon fill="#ffffff" stroke="#bfbfbf" points="233,-.5 233,-19.5 277,-19.5 277,-.5 233,-.5"/>
<text text-anchor="middle" x="255" y="-7.5" font-family="Helvetica,sans-Serif" font-size="10.00" fill="#000000">string</text>
</g>
<!-- Node7&#45;&gt;Node8 -->
<g id="edge8" class="edge">
<title>Node7&#45;&gt;Node8</title>
<path fill="none" stroke="#191970" d="M201.3221,-56.2455C210.9223,-47.9746 224.8892,-35.9416 236.1695,-26.2232"/>
<polygon fill="#191970" stroke="#191970" points="238.516,-28.8214 243.8076,-19.6427 233.947,-23.5182 238.516,-28.8214"/>
</g>
<!-- Node9 -->
<g id="node10" class="node">
<title>Node9</title>
<polygon fill="#ffffff" stroke="#bfbfbf" points="149.5,-.5 149.5,-19.5 214.5,-19.5 214.5,-.5 149.5,-.5"/>
<text text-anchor="middle" x="182" y="-7.5" font-family="Helvetica,sans-Serif" font-size="10.00" fill="#000000">stdexcept</text>
</g>
<!-- Node7&#45;&gt;Node9 -->
<g id="edge9" class="edge">
<title>Node7&#45;&gt;Node9</title>
<path fill="none" stroke="#191970" d="M188.6065,-56.2455C187.5626,-48.9382 186.0992,-38.6944 184.8149,-29.7046"/>
<polygon fill="#191970" stroke="#191970" points="188.2566,-29.0472 183.3775,-19.6427 181.327,-30.0372 188.2566,-29.0472"/>
</g>
</g>
</svg>
