<?xml version="1.0" encoding="UTF-8" standalone="no"?>
<!DOCTYPE svg PUBLIC "-//W3C//DTD SVG 1.1//EN"
 "http://www.w3.org/Graphics/SVG/1.1/DTD/svg11.dtd">
<!-- Generated by graphviz version 2.40.1 (20161225.0304)
 -->
<!-- Title: src/libbsn/src/generator/Markov.cpp Pages: 1 -->
<svg width="500pt" height="207pt"
 viewBox="0.00 0.00 499.50 207.00" xmlns="http://www.w3.org/2000/svg" xmlns:xlink="http://www.w3.org/1999/xlink">
<g id="graph0" class="graph" transform="scale(1 1) rotate(0) translate(4 203)">
<title>src/libbsn/src/generator/Markov.cpp</title>
<polygon fill="#ffffff" stroke="transparent" points="-4,4 -4,-203 495.5,-203 495.5,4 -4,4"/>
<!-- Node0 -->
<g id="node1" class="node">
<title>Node0</title>
<polygon fill="#bfbfbf" stroke="#000000" points="218.5,-168.5 218.5,-198.5 349.5,-198.5 349.5,-168.5 218.5,-168.5"/>
<text text-anchor="start" x="226.5" y="-186.5" font-family="Helvetica,sans-Serif" font-size="10.00" fill="#000000">src/libbsn/src/generator</text>
<text text-anchor="middle" x="284" y="-175.5" font-family="Helvetica,sans-Serif" font-size="10.00" fill="#000000">/Markov.cpp</text>
</g>
<!-- Node1 -->
<g id="node2" class="node">
<title>Node1</title>
<g id="a_node2"><a xlink:href="Markov_8hpp.html" target="_top" xlink:title="libbsn/generator/Markov.hpp">
<polygon fill="#ffffff" stroke="#000000" points="206.5,-112.5 206.5,-131.5 361.5,-131.5 361.5,-112.5 206.5,-112.5"/>
<text text-anchor="middle" x="284" y="-119.5" font-family="Helvetica,sans-Serif" font-size="10.00" fill="#000000">libbsn/generator/Markov.hpp</text>
</a>
</g>
</g>
<!-- Node0&#45;&gt;Node1 -->
<g id="edge1" class="edge">
<title>Node0&#45;&gt;Node1</title>
<path fill="none" stroke="#191970" d="M284,-168.2977C284,-160.3834 284,-150.6043 284,-142.0759"/>
<polygon fill="#191970" stroke="#191970" points="287.5001,-141.8469 284,-131.8469 280.5001,-141.847 287.5001,-141.8469"/>
</g>
<!-- Node2 -->
<g id="node3" class="node">
<title>Node2</title>
<polygon fill="#ffffff" stroke="#bfbfbf" points="0,-.5 0,-19.5 60,-19.5 60,-.5 0,-.5"/>
<text text-anchor="middle" x="30" y="-7.5" font-family="Helvetica,sans-Serif" font-size="10.00" fill="#000000">iostream</text>
</g>
<!-- Node1&#45;&gt;Node2 -->
<g id="edge2" class="edge">
<title>Node1&#45;&gt;Node2</title>
<path fill="none" stroke="#191970" d="M213.1833,-112.4847C178.2096,-105.7436 136.2758,-94.4922 102,-76 79.0828,-63.6359 57.7522,-42.3567 44.3509,-27.3068"/>
<polygon fill="#191970" stroke="#191970" points="46.9488,-24.9601 37.7618,-19.6828 41.6526,-29.5374 46.9488,-24.9601"/>
</g>
<!-- Node3 -->
<g id="node4" class="node">
<title>Node3</title>
<polygon fill="#ffffff" stroke="#bfbfbf" points="312,-56.5 312,-75.5 354,-75.5 354,-56.5 312,-56.5"/>
<text text-anchor="middle" x="333" y="-63.5" font-family="Helvetica,sans-Serif" font-size="10.00" fill="#000000">array</text>
</g>
<!-- Node1&#45;&gt;Node3 -->
<g id="edge3" class="edge">
<title>Node1&#45;&gt;Node3</title>
<path fill="none" stroke="#191970" d="M292.5351,-112.2455C299.4912,-104.2958 309.4883,-92.8706 317.8051,-83.3656"/>
<polygon fill="#191970" stroke="#191970" points="320.6116,-85.4732 324.5627,-75.6427 315.3436,-80.8637 320.6116,-85.4732"/>
</g>
<!-- Node4 -->
<g id="node5" class="node">
<title>Node4</title>
<polygon fill="#ffffff" stroke="#bfbfbf" points="372,-56.5 372,-75.5 426,-75.5 426,-56.5 372,-56.5"/>
<text text-anchor="middle" x="399" y="-63.5" font-family="Helvetica,sans-Serif" font-size="10.00" fill="#000000">random</text>
</g>
<!-- Node1&#45;&gt;Node4 -->
<g id="edge4" class="edge">
<title>Node1&#45;&gt;Node4</title>
<path fill="none" stroke="#191970" d="M303.7692,-112.3733C322.1469,-103.4241 349.7312,-89.9917 370.4893,-79.8835"/>
<polygon fill="#191970" stroke="#191970" points="372.0304,-83.026 379.4888,-75.5011 368.9657,-76.7325 372.0304,-83.026"/>
</g>
<!-- Node5 -->
<g id="node6" class="node">
<title>Node5</title>
<polygon fill="#ffffff" stroke="#bfbfbf" points="444.5,-56.5 444.5,-75.5 491.5,-75.5 491.5,-56.5 444.5,-56.5"/>
<text text-anchor="middle" x="468" y="-63.5" font-family="Helvetica,sans-Serif" font-size="10.00" fill="#000000">vector</text>
</g>
<!-- Node1&#45;&gt;Node5 -->
<g id="edge5" class="edge">
<title>Node1&#45;&gt;Node5</title>
<path fill="none" stroke="#191970" d="M315.6307,-112.3733C348.7806,-102.2842 400.653,-86.4969 434.4902,-76.1986"/>
<polygon fill="#191970" stroke="#191970" points="435.8241,-79.4512 444.3718,-73.1912 433.7859,-72.7545 435.8241,-79.4512"/>
</g>
<!-- Node6 -->
<g id="node7" class="node">
<title>Node6</title>
<polygon fill="#ffffff" stroke="#bfbfbf" points="78.5,-.5 78.5,-19.5 131.5,-19.5 131.5,-.5 78.5,-.5"/>
<text text-anchor="middle" x="105" y="-7.5" font-family="Helvetica,sans-Serif" font-size="10.00" fill="#000000">stdint.h</text>
</g>
<!-- Node1&#45;&gt;Node6 -->
<g id="edge6" class="edge">
<title>Node1&#45;&gt;Node6</title>
<path fill="none" stroke="#191970" d="M223.6067,-112.4881C181.5665,-104.6089 130.5394,-92.1053 116,-76 104.8346,-63.6321 102.7279,-44.4037 103.0339,-29.8856"/>
<polygon fill="#191970" stroke="#191970" points="106.5282,-30.0834 103.6281,-19.8932 99.5406,-29.6678 106.5282,-30.0834"/>
</g>
<!-- Node7 -->
<g id="node8" class="node">
<title>Node7</title>
<polygon fill="#ffffff" stroke="#bfbfbf" points="295,-.5 295,-19.5 351,-19.5 351,-.5 295,-.5"/>
<text text-anchor="middle" x="323" y="-7.5" font-family="Helvetica,sans-Serif" font-size="10.00" fill="#000000">sstream</text>
</g>
<!-- Node1&#45;&gt;Node7 -->
<g id="edge7" class="edge">
<title>Node1&#45;&gt;Node7</title>
<path fill="none" stroke="#191970" d="M286.3262,-112.4778C289.5811,-99.5376 295.8985,-75.7476 303,-56 306.2683,-46.9118 310.4584,-37.0645 314.1583,-28.8216"/>
<polygon fill="#191970" stroke="#191970" points="317.3444,-30.2703 318.3333,-19.7217 310.9821,-27.3513 317.3444,-30.2703"/>
</g>
<!-- Node8 -->
<g id="node9" class="node">
<title>Node8</title>
<g id="a_node9"><a xlink:href="Range_8hpp.html" target="_top" xlink:title="libbsn/range/Range.hpp">
<polygon fill="#ffffff" stroke="#000000" points="124.5,-56.5 124.5,-75.5 255.5,-75.5 255.5,-56.5 124.5,-56.5"/>
<text text-anchor="middle" x="190" y="-63.5" font-family="Helvetica,sans-Serif" font-size="10.00" fill="#000000">libbsn/range/Range.hpp</text>
</a>
</g>
</g>
<!-- Node1&#45;&gt;Node8 -->
<g id="edge8" class="edge">
<title>Node1&#45;&gt;Node8</title>
<path fill="none" stroke="#191970" d="M267.6264,-112.2455C253.0692,-103.5731 231.569,-90.7645 214.8848,-80.825"/>
<polygon fill="#191970" stroke="#191970" points="216.5683,-77.7539 206.1859,-75.6427 212.9856,-83.7676 216.5683,-77.7539"/>
</g>
<!-- Node8&#45;&gt;Node2 -->
<g id="edge11" class="edge">
<title>Node8&#45;&gt;Node2</title>
<path fill="none" stroke="#191970" d="M162.495,-56.3733C136.1198,-47.1419 96.1149,-33.1402 66.9642,-22.9375"/>
<polygon fill="#191970" stroke="#191970" points="67.7409,-19.5012 57.1461,-19.5011 65.4284,-26.1082 67.7409,-19.5012"/>
</g>
<!-- Node8&#45;&gt;Node6 -->
<g id="edge12" class="edge">
<title>Node8&#45;&gt;Node6</title>
<path fill="none" stroke="#191970" d="M175.1941,-56.2455C162.2744,-47.7337 143.3069,-35.2375 128.3448,-25.3801"/>
<polygon fill="#191970" stroke="#191970" points="129.9124,-22.2216 119.6362,-19.6427 126.0613,-28.067 129.9124,-22.2216"/>
</g>
<!-- Node8&#45;&gt;Node7 -->
<g id="edge13" class="edge">
<title>Node8&#45;&gt;Node7</title>
<path fill="none" stroke="#191970" d="M212.8635,-56.3733C234.405,-47.3032 266.8838,-33.6279 290.9956,-23.4755"/>
<polygon fill="#191970" stroke="#191970" points="292.5767,-26.6075 300.4348,-19.5011 289.8603,-20.156 292.5767,-26.6075"/>
</g>
<!-- Node9 -->
<g id="node10" class="node">
<title>Node9</title>
<polygon fill="#ffffff" stroke="#bfbfbf" points="233,-.5 233,-19.5 277,-19.5 277,-.5 233,-.5"/>
<text text-anchor="middle" x="255" y="-7.5" font-family="Helvetica,sans-Serif" font-size="10.00" fill="#000000">string</text>
</g>
<!-- Node8&#45;&gt;Node9 -->
<g id="edge9" class="edge">
<title>Node8&#45;&gt;Node9</title>
<path fill="none" stroke="#191970" d="M201.3221,-56.2455C210.9223,-47.9746 224.8892,-35.9416 236.1695,-26.2232"/>
<polygon fill="#191970" stroke="#191970" points="238.516,-28.8214 243.8076,-19.6427 233.947,-23.5182 238.516,-28.8214"/>
</g>
<!-- Node10 -->
<g id="node11" class="node">
<title>Node10</title>
<polygon fill="#ffffff" stroke="#bfbfbf" points="149.5,-.5 149.5,-19.5 214.5,-19.5 214.5,-.5 149.5,-.5"/>
<text text-anchor="middle" x="182" y="-7.5" font-family="Helvetica,sans-Serif" font-size="10.00" fill="#000000">stdexcept</text>
</g>
<!-- Node8&#45;&gt;Node10 -->
<g id="edge10" class="edge">
<title>Node8&#45;&gt;Node10</title>
<path fill="none" stroke="#191970" d="M188.6065,-56.2455C187.5626,-48.9382 186.0992,-38.6944 184.8149,-29.7046"/>
<polygon fill="#191970" stroke="#191970" points="188.2566,-29.0472 183.3775,-19.6427 181.327,-30.0372 188.2566,-29.0472"/>
</g>
</g>
</svg>
