<?xml version="1.0" encoding="UTF-8" standalone="no"?>
<!DOCTYPE svg PUBLIC "-//W3C//DTD SVG 1.1//EN"
 "http://www.w3.org/Graphics/SVG/1.1/DTD/svg11.dtd">
<!-- Generated by graphviz version 2.40.1 (20161225.0304)
 -->
<!-- Title: src/libbsn/include/libbsn/filters/MovingAverage.hpp Pages: 1 -->
<svg width="2126pt" height="195pt"
 viewBox="0.00 0.00 2125.50 195.00" xmlns="http://www.w3.org/2000/svg" xmlns:xlink="http://www.w3.org/1999/xlink">
<g id="graph0" class="graph" transform="scale(1 1) rotate(0) translate(4 191)">
<title>src/libbsn/include/libbsn/filters/MovingAverage.hpp</title>
<polygon fill="#ffffff" stroke="transparent" points="-4,4 -4,-191 2121.5,-191 2121.5,4 -4,4"/>
<!-- Node5 -->
<g id="node1" class="node">
<title>Node5</title>
<polygon fill="#bfbfbf" stroke="#000000" points="623.5,-156.5 623.5,-186.5 802.5,-186.5 802.5,-156.5 623.5,-156.5"/>
<text text-anchor="start" x="631.5" y="-174.5" font-family="Helvetica,sans-Serif" font-size="10.00" fill="#000000">src/libbsn/include</text>
<text text-anchor="middle" x="713" y="-163.5" font-family="Helvetica,sans-Serif" font-size="10.00" fill="#000000">/libbsn/filters/MovingAverage.hpp</text>
</g>
<!-- Node6 -->
<g id="node2" class="node">
<title>Node6</title>
<g id="a_node2"><a xlink:href="MovingAverage_8cpp.html" target="_top" xlink:title="src/libbsn/src/filters\l/MovingAverage.cpp">
<polygon fill="#ffffff" stroke="#000000" points="63.5,-84 63.5,-114 178.5,-114 178.5,-84 63.5,-84"/>
<text text-anchor="start" x="71.5" y="-102" font-family="Helvetica,sans-Serif" font-size="10.00" fill="#000000">src/libbsn/src/filters</text>
<text text-anchor="middle" x="121" y="-91" font-family="Helvetica,sans-Serif" font-size="10.00" fill="#000000">/MovingAverage.cpp</text>
</a>
</g>
</g>
<!-- Node5&#45;&gt;Node6 -->
<g id="edge1" class="edge">
<title>Node5&#45;&gt;Node6</title>
<path fill="none" stroke="#191970" d="M613.1683,-167.9756C506.6684,-162.7669 333.4896,-150.126 187,-120 179.4622,-118.4498 171.5682,-116.3622 163.9674,-114.1028"/>
<polygon fill="#191970" stroke="#191970" points="613.1081,-171.4766 623.2634,-168.4568 613.4414,-164.4846 613.1081,-171.4766"/>
</g>
<!-- Node7 -->
<g id="node3" class="node">
<title>Node7</title>
<g id="a_node3"><a xlink:href="FiltersTest_8cpp.html" target="_top" xlink:title="src/libbsn/test/unit\l/filters/FiltersTest.cpp">
<polygon fill="#ffffff" stroke="#000000" points="196.5,-84 196.5,-114 315.5,-114 315.5,-84 196.5,-84"/>
<text text-anchor="start" x="204.5" y="-102" font-family="Helvetica,sans-Serif" font-size="10.00" fill="#000000">src/libbsn/test/unit</text>
<text text-anchor="middle" x="256" y="-91" font-family="Helvetica,sans-Serif" font-size="10.00" fill="#000000">/filters/FiltersTest.cpp</text>
</a>
</g>
</g>
<!-- Node5&#45;&gt;Node7 -->
<g id="edge2" class="edge">
<title>Node5&#45;&gt;Node7</title>
<path fill="none" stroke="#191970" d="M612.8804,-162.752C534.0683,-154.7769 421.7591,-140.9981 325,-120 317.4132,-118.3535 309.454,-116.2728 301.7479,-114.0648"/>
<polygon fill="#191970" stroke="#191970" points="612.9906,-166.2803 623.2889,-163.7912 613.6862,-159.315 612.9906,-166.2803"/>
</g>
<!-- Node8 -->
<g id="node4" class="node">
<title>Node8</title>
<g id="a_node4"><a xlink:href="G3T1__1_8hpp.html" target="_top" xlink:title="src/sa&#45;bsn/target_system\l/components/component/include\l/component/g3t1_1/G3T1_1.hpp">
<polygon fill="#ffffff" stroke="#000000" points="334,-78.5 334,-119.5 510,-119.5 510,-78.5 334,-78.5"/>
<text text-anchor="start" x="342" y="-107.5" font-family="Helvetica,sans-Serif" font-size="10.00" fill="#000000">src/sa&#45;bsn/target_system</text>
<text text-anchor="start" x="342" y="-96.5" font-family="Helvetica,sans-Serif" font-size="10.00" fill="#000000">/components/component/include</text>
<text text-anchor="middle" x="422" y="-85.5" font-family="Helvetica,sans-Serif" font-size="10.00" fill="#000000">/component/g3t1_1/G3T1_1.hpp</text>
</a>
</g>
</g>
<!-- Node5&#45;&gt;Node8 -->
<g id="edge3" class="edge">
<title>Node5&#45;&gt;Node8</title>
<path fill="none" stroke="#191970" d="M642.8994,-154.0351C601.1688,-143.6383 548.0039,-130.3927 504.2888,-119.5015"/>
<polygon fill="#191970" stroke="#191970" points="642.1551,-157.4566 652.7046,-156.478 643.8474,-150.6642 642.1551,-157.4566"/>
</g>
<!-- Node11 -->
<g id="node7" class="node">
<title>Node11</title>
<g id="a_node7"><a xlink:href="G3T1__2_8hpp.html" target="_top" xlink:title="src/sa&#45;bsn/target_system\l/components/component/include\l/component/g3t1_2/G3T1_2.hpp">
<polygon fill="#ffffff" stroke="#000000" points="528,-78.5 528,-119.5 704,-119.5 704,-78.5 528,-78.5"/>
<text text-anchor="start" x="536" y="-107.5" font-family="Helvetica,sans-Serif" font-size="10.00" fill="#000000">src/sa&#45;bsn/target_system</text>
<text text-anchor="start" x="536" y="-96.5" font-family="Helvetica,sans-Serif" font-size="10.00" fill="#000000">/components/component/include</text>
<text text-anchor="middle" x="616" y="-85.5" font-family="Helvetica,sans-Serif" font-size="10.00" fill="#000000">/component/g3t1_2/G3T1_2.hpp</text>
</a>
</g>
</g>
<!-- Node5&#45;&gt;Node11 -->
<g id="edge6" class="edge">
<title>Node5&#45;&gt;Node11</title>
<path fill="none" stroke="#191970" d="M684.7409,-150.3785C671.726,-140.6509 656.3412,-129.152 643.4296,-119.5015"/>
<polygon fill="#191970" stroke="#191970" points="682.7962,-153.2946 692.9015,-156.478 686.987,-147.6877 682.7962,-153.2946"/>
</g>
<!-- Node14 -->
<g id="node10" class="node">
<title>Node14</title>
<g id="a_node10"><a xlink:href="G3T1__3_8hpp.html" target="_top" xlink:title="src/sa&#45;bsn/target_system\l/components/component/include\l/component/g3t1_3/G3T1_3.hpp">
<polygon fill="#ffffff" stroke="#000000" points="722,-78.5 722,-119.5 898,-119.5 898,-78.5 722,-78.5"/>
<text text-anchor="start" x="730" y="-107.5" font-family="Helvetica,sans-Serif" font-size="10.00" fill="#000000">src/sa&#45;bsn/target_system</text>
<text text-anchor="start" x="730" y="-96.5" font-family="Helvetica,sans-Serif" font-size="10.00" fill="#000000">/components/component/include</text>
<text text-anchor="middle" x="810" y="-85.5" font-family="Helvetica,sans-Serif" font-size="10.00" fill="#000000">/component/g3t1_3/G3T1_3.hpp</text>
</a>
</g>
</g>
<!-- Node5&#45;&gt;Node14 -->
<g id="edge9" class="edge">
<title>Node5&#45;&gt;Node14</title>
<path fill="none" stroke="#191970" d="M741.2591,-150.3785C754.274,-140.6509 769.6588,-129.152 782.5704,-119.5015"/>
<polygon fill="#191970" stroke="#191970" points="739.013,-147.6877 733.0985,-156.478 743.2038,-153.2946 739.013,-147.6877"/>
</g>
<!-- Node17 -->
<g id="node13" class="node">
<title>Node17</title>
<g id="a_node13"><a xlink:href="G3T1__4_8hpp.html" target="_top" xlink:title="src/sa&#45;bsn/target_system\l/components/component/include\l/component/g3t1_4/G3T1_4.hpp">
<polygon fill="#ffffff" stroke="#000000" points="1062,-78.5 1062,-119.5 1238,-119.5 1238,-78.5 1062,-78.5"/>
<text text-anchor="start" x="1070" y="-107.5" font-family="Helvetica,sans-Serif" font-size="10.00" fill="#000000">src/sa&#45;bsn/target_system</text>
<text text-anchor="start" x="1070" y="-96.5" font-family="Helvetica,sans-Serif" font-size="10.00" fill="#000000">/components/component/include</text>
<text text-anchor="middle" x="1150" y="-85.5" font-family="Helvetica,sans-Serif" font-size="10.00" fill="#000000">/component/g3t1_4/G3T1_4.hpp</text>
</a>
</g>
</g>
<!-- Node5&#45;&gt;Node17 -->
<g id="edge12" class="edge">
<title>Node5&#45;&gt;Node17</title>
<path fill="none" stroke="#191970" d="M812.6974,-154.9598C887.7778,-142.5037 989.7486,-125.5863 1061.8595,-113.6228"/>
<polygon fill="#191970" stroke="#191970" points="812.0446,-151.5202 802.7523,-156.6097 813.1903,-158.4258 812.0446,-151.5202"/>
</g>
<!-- Node20 -->
<g id="node16" class="node">
<title>Node20</title>
<g id="a_node16"><a xlink:href="G3T1__5_8hpp.html" target="_top" xlink:title="src/sa&#45;bsn/target_system\l/components/component/include\l/component/g3t1_5/G3T1_5.hpp">
<polygon fill="#ffffff" stroke="#000000" points="1418,-78.5 1418,-119.5 1594,-119.5 1594,-78.5 1418,-78.5"/>
<text text-anchor="start" x="1426" y="-107.5" font-family="Helvetica,sans-Serif" font-size="10.00" fill="#000000">src/sa&#45;bsn/target_system</text>
<text text-anchor="start" x="1426" y="-96.5" font-family="Helvetica,sans-Serif" font-size="10.00" fill="#000000">/components/component/include</text>
<text text-anchor="middle" x="1506" y="-85.5" font-family="Helvetica,sans-Serif" font-size="10.00" fill="#000000">/component/g3t1_5/G3T1_5.hpp</text>
</a>
</g>
</g>
<!-- Node5&#45;&gt;Node20 -->
<g id="edge15" class="edge">
<title>Node5&#45;&gt;Node20</title>
<path fill="none" stroke="#191970" d="M812.8969,-162.3669C969.2331,-148.0739 1269.1781,-120.6514 1417.9094,-107.0537"/>
<polygon fill="#191970" stroke="#191970" points="812.4499,-158.8931 802.8101,-163.2891 813.0872,-165.864 812.4499,-158.8931"/>
</g>
<!-- Node23 -->
<g id="node19" class="node">
<title>Node23</title>
<g id="a_node19"><a xlink:href="G3T1__6_8hpp.html" target="_top" xlink:title="src/sa&#45;bsn/target_system\l/components/component/include\l/component/g3t1_6/G3T1_6.hpp">
<polygon fill="#ffffff" stroke="#000000" points="1774,-78.5 1774,-119.5 1950,-119.5 1950,-78.5 1774,-78.5"/>
<text text-anchor="start" x="1782" y="-107.5" font-family="Helvetica,sans-Serif" font-size="10.00" fill="#000000">src/sa&#45;bsn/target_system</text>
<text text-anchor="start" x="1782" y="-96.5" font-family="Helvetica,sans-Serif" font-size="10.00" fill="#000000">/components/component/include</text>
<text text-anchor="middle" x="1862" y="-85.5" font-family="Helvetica,sans-Serif" font-size="10.00" fill="#000000">/component/g3t1_6/G3T1_6.hpp</text>
</a>
</g>
</g>
<!-- Node5&#45;&gt;Node23 -->
<g id="edge18" class="edge">
<title>Node5&#45;&gt;Node23</title>
<path fill="none" stroke="#191970" d="M812.8488,-166.4761C977.5316,-158.0207 1316.4118,-139.9075 1603,-120 1659.9306,-116.0454 1723.839,-110.8714 1773.9283,-106.6487"/>
<polygon fill="#191970" stroke="#191970" points="812.5437,-162.987 802.736,-166.9944 812.902,-169.9779 812.5437,-162.987"/>
</g>
<!-- Node9 -->
<g id="node5" class="node">
<title>Node9</title>
<g id="a_node5"><a xlink:href="g3t1__1_8cpp.html" target="_top" xlink:title="src/sa&#45;bsn/target_system\l/components/component/apps\l/g3t1_1.cpp">
<polygon fill="#ffffff" stroke="#000000" points="0,-.5 0,-41.5 164,-41.5 164,-.5 0,-.5"/>
<text text-anchor="start" x="8" y="-29.5" font-family="Helvetica,sans-Serif" font-size="10.00" fill="#000000">src/sa&#45;bsn/target_system</text>
<text text-anchor="start" x="8" y="-18.5" font-family="Helvetica,sans-Serif" font-size="10.00" fill="#000000">/components/component/apps</text>
<text text-anchor="middle" x="82" y="-7.5" font-family="Helvetica,sans-Serif" font-size="10.00" fill="#000000">/g3t1_1.cpp</text>
</a>
</g>
</g>
<!-- Node8&#45;&gt;Node9 -->
<g id="edge4" class="edge">
<title>Node8&#45;&gt;Node9</title>
<path fill="none" stroke="#191970" d="M323.9015,-76.5856C278.0545,-66.0994 222.7284,-53.4297 173,-42 170.1557,-41.3463 167.2614,-40.6806 164.3384,-40.008"/>
<polygon fill="#191970" stroke="#191970" points="323.3059,-80.0397 333.8345,-78.8573 324.8665,-73.2159 323.3059,-80.0397"/>
</g>
<!-- Node10 -->
<g id="node6" class="node">
<title>Node10</title>
<g id="a_node6"><a xlink:href="G3T1__1_8cpp.html" target="_top" xlink:title="src/sa&#45;bsn/target_system\l/components/component/src\l/g3t1_1/G3T1_1.cpp">
<polygon fill="#ffffff" stroke="#000000" points="182.5,-.5 182.5,-41.5 337.5,-41.5 337.5,-.5 182.5,-.5"/>
<text text-anchor="start" x="190.5" y="-29.5" font-family="Helvetica,sans-Serif" font-size="10.00" fill="#000000">src/sa&#45;bsn/target_system</text>
<text text-anchor="start" x="190.5" y="-18.5" font-family="Helvetica,sans-Serif" font-size="10.00" fill="#000000">/components/component/src</text>
<text text-anchor="middle" x="260" y="-7.5" font-family="Helvetica,sans-Serif" font-size="10.00" fill="#000000">/g3t1_1/G3T1_1.cpp</text>
</a>
</g>
</g>
<!-- Node8&#45;&gt;Node10 -->
<g id="edge5" class="edge">
<title>Node8&#45;&gt;Node10</title>
<path fill="none" stroke="#191970" d="M369.9146,-73.9218C348.1787,-63.4564 323.2454,-51.4515 302.6265,-41.5239"/>
<polygon fill="#191970" stroke="#191970" points="368.4839,-77.1175 379.0123,-78.3022 371.5206,-70.8105 368.4839,-77.1175"/>
</g>
<!-- Node12 -->
<g id="node8" class="node">
<title>Node12</title>
<g id="a_node8"><a xlink:href="g3t1__2_8cpp.html" target="_top" xlink:title="src/sa&#45;bsn/target_system\l/components/component/apps\l/g3t1_2.cpp">
<polygon fill="#ffffff" stroke="#000000" points="356,-.5 356,-41.5 520,-41.5 520,-.5 356,-.5"/>
<text text-anchor="start" x="364" y="-29.5" font-family="Helvetica,sans-Serif" font-size="10.00" fill="#000000">src/sa&#45;bsn/target_system</text>
<text text-anchor="start" x="364" y="-18.5" font-family="Helvetica,sans-Serif" font-size="10.00" fill="#000000">/components/component/apps</text>
<text text-anchor="middle" x="438" y="-7.5" font-family="Helvetica,sans-Serif" font-size="10.00" fill="#000000">/g3t1_2.cpp</text>
</a>
</g>
</g>
<!-- Node11&#45;&gt;Node12 -->
<g id="edge7" class="edge">
<title>Node11&#45;&gt;Node12</title>
<path fill="none" stroke="#191970" d="M559.4092,-74.2018C535.3773,-63.671 507.6941,-51.5401 484.8365,-41.5239"/>
<polygon fill="#191970" stroke="#191970" points="558.2026,-77.4943 568.7666,-78.3022 561.0121,-71.0828 558.2026,-77.4943"/>
</g>
<!-- Node13 -->
<g id="node9" class="node">
<title>Node13</title>
<g id="a_node9"><a xlink:href="G3T1__2_8cpp.html" target="_top" xlink:title="src/sa&#45;bsn/target_system\l/components/component/src\l/g3t1_2/G3T1_2.cpp">
<polygon fill="#ffffff" stroke="#000000" points="538.5,-.5 538.5,-41.5 693.5,-41.5 693.5,-.5 538.5,-.5"/>
<text text-anchor="start" x="546.5" y="-29.5" font-family="Helvetica,sans-Serif" font-size="10.00" fill="#000000">src/sa&#45;bsn/target_system</text>
<text text-anchor="start" x="546.5" y="-18.5" font-family="Helvetica,sans-Serif" font-size="10.00" fill="#000000">/components/component/src</text>
<text text-anchor="middle" x="616" y="-7.5" font-family="Helvetica,sans-Serif" font-size="10.00" fill="#000000">/g3t1_2/G3T1_2.cpp</text>
</a>
</g>
</g>
<!-- Node11&#45;&gt;Node13 -->
<g id="edge8" class="edge">
<title>Node11&#45;&gt;Node13</title>
<path fill="none" stroke="#191970" d="M616,-68.0789C616,-59.2178 616,-49.7747 616,-41.6898"/>
<polygon fill="#191970" stroke="#191970" points="612.5001,-68.0974 616,-78.0974 619.5001,-68.0975 612.5001,-68.0974"/>
</g>
<!-- Node15 -->
<g id="node11" class="node">
<title>Node15</title>
<g id="a_node11"><a xlink:href="g3t1__3_8cpp.html" target="_top" xlink:title="src/sa&#45;bsn/target_system\l/components/component/apps\l/g3t1_3.cpp">
<polygon fill="#ffffff" stroke="#000000" points="712,-.5 712,-41.5 876,-41.5 876,-.5 712,-.5"/>
<text text-anchor="start" x="720" y="-29.5" font-family="Helvetica,sans-Serif" font-size="10.00" fill="#000000">src/sa&#45;bsn/target_system</text>
<text text-anchor="start" x="720" y="-18.5" font-family="Helvetica,sans-Serif" font-size="10.00" fill="#000000">/components/component/apps</text>
<text text-anchor="middle" x="794" y="-7.5" font-family="Helvetica,sans-Serif" font-size="10.00" fill="#000000">/g3t1_3.cpp</text>
</a>
</g>
</g>
<!-- Node14&#45;&gt;Node15 -->
<g id="edge10" class="edge">
<title>Node14&#45;&gt;Node15</title>
<path fill="none" stroke="#191970" d="M803.6572,-68.0789C801.8395,-59.2178 799.9025,-49.7747 798.2441,-41.6898"/>
<polygon fill="#191970" stroke="#191970" points="800.2742,-69.0047 805.7123,-78.0974 807.1314,-67.5981 800.2742,-69.0047"/>
</g>
<!-- Node16 -->
<g id="node12" class="node">
<title>Node16</title>
<g id="a_node12"><a xlink:href="G3T1__3_8cpp.html" target="_top" xlink:title="src/sa&#45;bsn/target_system\l/components/component/src\l/g3t1_3/G3T1_3.cpp">
<polygon fill="#ffffff" stroke="#000000" points="894.5,-.5 894.5,-41.5 1049.5,-41.5 1049.5,-.5 894.5,-.5"/>
<text text-anchor="start" x="902.5" y="-29.5" font-family="Helvetica,sans-Serif" font-size="10.00" fill="#000000">src/sa&#45;bsn/target_system</text>
<text text-anchor="start" x="902.5" y="-18.5" font-family="Helvetica,sans-Serif" font-size="10.00" fill="#000000">/components/component/src</text>
<text text-anchor="middle" x="972" y="-7.5" font-family="Helvetica,sans-Serif" font-size="10.00" fill="#000000">/g3t1_3/G3T1_3.cpp</text>
</a>
</g>
</g>
<!-- Node14&#45;&gt;Node16 -->
<g id="edge11" class="edge">
<title>Node14&#45;&gt;Node16</title>
<path fill="none" stroke="#191970" d="M862.0854,-73.9218C883.8213,-63.4564 908.7546,-51.4515 929.3735,-41.5239"/>
<polygon fill="#191970" stroke="#191970" points="860.4794,-70.8105 852.9877,-78.3022 863.5161,-77.1175 860.4794,-70.8105"/>
</g>
<!-- Node18 -->
<g id="node14" class="node">
<title>Node18</title>
<g id="a_node14"><a xlink:href="g3t1__4_8cpp.html" target="_top" xlink:title="src/sa&#45;bsn/target_system\l/components/component/apps\l/g3t1_4.cpp">
<polygon fill="#ffffff" stroke="#000000" points="1068,-.5 1068,-41.5 1232,-41.5 1232,-.5 1068,-.5"/>
<text text-anchor="start" x="1076" y="-29.5" font-family="Helvetica,sans-Serif" font-size="10.00" fill="#000000">src/sa&#45;bsn/target_system</text>
<text text-anchor="start" x="1076" y="-18.5" font-family="Helvetica,sans-Serif" font-size="10.00" fill="#000000">/components/component/apps</text>
<text text-anchor="middle" x="1150" y="-7.5" font-family="Helvetica,sans-Serif" font-size="10.00" fill="#000000">/g3t1_4.cpp</text>
</a>
</g>
</g>
<!-- Node17&#45;&gt;Node18 -->
<g id="edge13" class="edge">
<title>Node17&#45;&gt;Node18</title>
<path fill="none" stroke="#191970" d="M1150,-68.0789C1150,-59.2178 1150,-49.7747 1150,-41.6898"/>
<polygon fill="#191970" stroke="#191970" points="1146.5001,-68.0974 1150,-78.0974 1153.5001,-68.0975 1146.5001,-68.0974"/>
</g>
<!-- Node19 -->
<g id="node15" class="node">
<title>Node19</title>
<g id="a_node15"><a xlink:href="G3T1__4_8cpp.html" target="_top" xlink:title="src/sa&#45;bsn/target_system\l/components/component/src\l/g3t1_4/G3T1_4.cpp">
<polygon fill="#ffffff" stroke="#000000" points="1250.5,-.5 1250.5,-41.5 1405.5,-41.5 1405.5,-.5 1250.5,-.5"/>
<text text-anchor="start" x="1258.5" y="-29.5" font-family="Helvetica,sans-Serif" font-size="10.00" fill="#000000">src/sa&#45;bsn/target_system</text>
<text text-anchor="start" x="1258.5" y="-18.5" font-family="Helvetica,sans-Serif" font-size="10.00" fill="#000000">/components/component/src</text>
<text text-anchor="middle" x="1328" y="-7.5" font-family="Helvetica,sans-Serif" font-size="10.00" fill="#000000">/g3t1_4/G3T1_4.cpp</text>
</a>
</g>
</g>
<!-- Node17&#45;&gt;Node19 -->
<g id="edge14" class="edge">
<title>Node17&#45;&gt;Node19</title>
<path fill="none" stroke="#191970" d="M1206.5908,-74.2018C1230.6227,-63.671 1258.3059,-51.5401 1281.1635,-41.5239"/>
<polygon fill="#191970" stroke="#191970" points="1204.9879,-71.0828 1197.2334,-78.3022 1207.7974,-77.4943 1204.9879,-71.0828"/>
</g>
<!-- Node21 -->
<g id="node17" class="node">
<title>Node21</title>
<g id="a_node17"><a xlink:href="g3t1__5_8cpp.html" target="_top" xlink:title="src/sa&#45;bsn/target_system\l/components/component/apps\l/g3t1_5.cpp">
<polygon fill="#ffffff" stroke="#000000" points="1424,-.5 1424,-41.5 1588,-41.5 1588,-.5 1424,-.5"/>
<text text-anchor="start" x="1432" y="-29.5" font-family="Helvetica,sans-Serif" font-size="10.00" fill="#000000">src/sa&#45;bsn/target_system</text>
<text text-anchor="start" x="1432" y="-18.5" font-family="Helvetica,sans-Serif" font-size="10.00" fill="#000000">/components/component/apps</text>
<text text-anchor="middle" x="1506" y="-7.5" font-family="Helvetica,sans-Serif" font-size="10.00" fill="#000000">/g3t1_5.cpp</text>
</a>
</g>
</g>
<!-- Node20&#45;&gt;Node21 -->
<g id="edge16" class="edge">
<title>Node20&#45;&gt;Node21</title>
<path fill="none" stroke="#191970" d="M1506,-68.0789C1506,-59.2178 1506,-49.7747 1506,-41.6898"/>
<polygon fill="#191970" stroke="#191970" points="1502.5001,-68.0974 1506,-78.0974 1509.5001,-68.0975 1502.5001,-68.0974"/>
</g>
<!-- Node22 -->
<g id="node18" class="node">
<title>Node22</title>
<g id="a_node18"><a xlink:href="G3T1__5_8cpp.html" target="_top" xlink:title="src/sa&#45;bsn/target_system\l/components/component/src\l/g3t1_5/G3T1_5.cpp">
<polygon fill="#ffffff" stroke="#000000" points="1606.5,-.5 1606.5,-41.5 1761.5,-41.5 1761.5,-.5 1606.5,-.5"/>
<text text-anchor="start" x="1614.5" y="-29.5" font-family="Helvetica,sans-Serif" font-size="10.00" fill="#000000">src/sa&#45;bsn/target_system</text>
<text text-anchor="start" x="1614.5" y="-18.5" font-family="Helvetica,sans-Serif" font-size="10.00" fill="#000000">/components/component/src</text>
<text text-anchor="middle" x="1684" y="-7.5" font-family="Helvetica,sans-Serif" font-size="10.00" fill="#000000">/g3t1_5/G3T1_5.cpp</text>
</a>
</g>
</g>
<!-- Node20&#45;&gt;Node22 -->
<g id="edge17" class="edge">
<title>Node20&#45;&gt;Node22</title>
<path fill="none" stroke="#191970" d="M1562.5908,-74.2018C1586.6227,-63.671 1614.3059,-51.5401 1637.1635,-41.5239"/>
<polygon fill="#191970" stroke="#191970" points="1560.9879,-71.0828 1553.2334,-78.3022 1563.7974,-77.4943 1560.9879,-71.0828"/>
</g>
<!-- Node24 -->
<g id="node20" class="node">
<title>Node24</title>
<g id="a_node20"><a xlink:href="g3t1__6_8cpp.html" target="_top" xlink:title="src/sa&#45;bsn/target_system\l/components/component/apps\l/g3t1_6.cpp">
<polygon fill="#ffffff" stroke="#000000" points="1780,-.5 1780,-41.5 1944,-41.5 1944,-.5 1780,-.5"/>
<text text-anchor="start" x="1788" y="-29.5" font-family="Helvetica,sans-Serif" font-size="10.00" fill="#000000">src/sa&#45;bsn/target_system</text>
<text text-anchor="start" x="1788" y="-18.5" font-family="Helvetica,sans-Serif" font-size="10.00" fill="#000000">/components/component/apps</text>
<text text-anchor="middle" x="1862" y="-7.5" font-family="Helvetica,sans-Serif" font-size="10.00" fill="#000000">/g3t1_6.cpp</text>
</a>
</g>
</g>
<!-- Node23&#45;&gt;Node24 -->
<g id="edge19" class="edge">
<title>Node23&#45;&gt;Node24</title>
<path fill="none" stroke="#191970" d="M1862,-68.0789C1862,-59.2178 1862,-49.7747 1862,-41.6898"/>
<polygon fill="#191970" stroke="#191970" points="1858.5001,-68.0974 1862,-78.0974 1865.5001,-68.0975 1858.5001,-68.0974"/>
</g>
<!-- Node25 -->
<g id="node21" class="node">
<title>Node25</title>
<g id="a_node21"><a xlink:href="G3T1__6_8cpp.html" target="_top" xlink:title="src/sa&#45;bsn/target_system\l/components/component/src\l/g3t1_6/G3T1_6.cpp">
<polygon fill="#ffffff" stroke="#000000" points="1962.5,-.5 1962.5,-41.5 2117.5,-41.5 2117.5,-.5 1962.5,-.5"/>
<text text-anchor="start" x="1970.5" y="-29.5" font-family="Helvetica,sans-Serif" font-size="10.00" fill="#000000">src/sa&#45;bsn/target_system</text>
<text text-anchor="start" x="1970.5" y="-18.5" font-family="Helvetica,sans-Serif" font-size="10.00" fill="#000000">/components/component/src</text>
<text text-anchor="middle" x="2040" y="-7.5" font-family="Helvetica,sans-Serif" font-size="10.00" fill="#000000">/g3t1_6/G3T1_6.cpp</text>
</a>
</g>
</g>
<!-- Node23&#45;&gt;Node25 -->
<g id="edge20" class="edge">
<title>Node23&#45;&gt;Node25</title>
<path fill="none" stroke="#191970" d="M1918.5908,-74.2018C1942.6227,-63.671 1970.3059,-51.5401 1993.1635,-41.5239"/>
<polygon fill="#191970" stroke="#191970" points="1916.9879,-71.0828 1909.2334,-78.3022 1919.7974,-77.4943 1916.9879,-71.0828"/>
</g>
</g>
</svg>
