<?xml version="1.0" encoding="UTF-8" standalone="no"?>
<!DOCTYPE svg PUBLIC "-//W3C//DTD SVG 1.1//EN"
 "http://www.w3.org/Graphics/SVG/1.1/DTD/svg11.dtd">
<!-- Generated by graphviz version 2.40.1 (20161225.0304)
 -->
<!-- Title: src/libbsn/src/filters/MovingAverage.cpp Pages: 1 -->
<svg width="279pt" height="151pt"
 viewBox="0.00 0.00 279.00 151.00" xmlns="http://www.w3.org/2000/svg" xmlns:xlink="http://www.w3.org/1999/xlink">
<g id="graph0" class="graph" transform="scale(1 1) rotate(0) translate(4 147)">
<title>src/libbsn/src/filters/MovingAverage.cpp</title>
<polygon fill="#ffffff" stroke="transparent" points="-4,4 -4,-147 275,-147 275,4 -4,4"/>
<!-- Node0 -->
<g id="node1" class="node">
<title>Node0</title>
<polygon fill="#bfbfbf" stroke="#000000" points="115.5,-112.5 115.5,-142.5 230.5,-142.5 230.5,-112.5 115.5,-112.5"/>
<text text-anchor="start" x="123.5" y="-130.5" font-family="Helvetica,sans-Serif" font-size="10.00" fill="#000000">src/libbsn/src/filters</text>
<text text-anchor="middle" x="173" y="-119.5" font-family="Helvetica,sans-Serif" font-size="10.00" fill="#000000">/MovingAverage.cpp</text>
</g>
<!-- Node1 -->
<g id="node2" class="node">
<title>Node1</title>
<g id="a_node2"><a xlink:href="MovingAverage_8hpp.html" target="_top" xlink:title="libbsn/filters/MovingAverage.hpp">
<polygon fill="#ffffff" stroke="#000000" points="17,-56.5 17,-75.5 193,-75.5 193,-56.5 17,-56.5"/>
<text text-anchor="middle" x="105" y="-63.5" font-family="Helvetica,sans-Serif" font-size="10.00" fill="#000000">libbsn/filters/MovingAverage.hpp</text>
</a>
</g>
</g>
<!-- Node0&#45;&gt;Node1 -->
<g id="edge1" class="edge">
<title>Node0&#45;&gt;Node1</title>
<path fill="none" stroke="#191970" d="M156.191,-112.2977C146.2603,-103.3163 133.6743,-91.9334 123.4673,-82.702"/>
<polygon fill="#191970" stroke="#191970" points="125.652,-79.9588 115.8877,-75.8469 120.9566,-85.1505 125.652,-79.9588"/>
</g>
<!-- Node6 -->
<g id="node7" class="node">
<title>Node6</title>
<polygon fill="#ffffff" stroke="#bfbfbf" points="211,-56.5 211,-75.5 271,-75.5 271,-56.5 211,-56.5"/>
<text text-anchor="middle" x="241" y="-63.5" font-family="Helvetica,sans-Serif" font-size="10.00" fill="#000000">iostream</text>
</g>
<!-- Node0&#45;&gt;Node6 -->
<g id="edge6" class="edge">
<title>Node0&#45;&gt;Node6</title>
<path fill="none" stroke="#191970" d="M189.809,-112.2977C199.7397,-103.3163 212.3257,-91.9334 222.5327,-82.702"/>
<polygon fill="#191970" stroke="#191970" points="225.0434,-85.1505 230.1123,-75.8469 220.348,-79.9588 225.0434,-85.1505"/>
</g>
<!-- Node2 -->
<g id="node3" class="node">
<title>Node2</title>
<polygon fill="#ffffff" stroke="#bfbfbf" points="0,-.5 0,-19.5 32,-19.5 32,-.5 0,-.5"/>
<text text-anchor="middle" x="16" y="-7.5" font-family="Helvetica,sans-Serif" font-size="10.00" fill="#000000">list</text>
</g>
<!-- Node1&#45;&gt;Node2 -->
<g id="edge2" class="edge">
<title>Node1&#45;&gt;Node2</title>
<path fill="none" stroke="#191970" d="M89.4974,-56.2455C75.842,-47.6534 55.7343,-35.0014 40.0011,-25.1018"/>
<polygon fill="#191970" stroke="#191970" points="41.6529,-22.006 31.325,-19.6427 37.9249,-27.9307 41.6529,-22.006"/>
</g>
<!-- Node3 -->
<g id="node4" class="node">
<title>Node3</title>
<polygon fill="#ffffff" stroke="#bfbfbf" points="50,-.5 50,-19.5 94,-19.5 94,-.5 50,-.5"/>
<text text-anchor="middle" x="72" y="-7.5" font-family="Helvetica,sans-Serif" font-size="10.00" fill="#000000">string</text>
</g>
<!-- Node1&#45;&gt;Node3 -->
<g id="edge3" class="edge">
<title>Node1&#45;&gt;Node3</title>
<path fill="none" stroke="#191970" d="M99.2518,-56.2455C94.7565,-48.617 88.3752,-37.7881 82.9175,-28.5267"/>
<polygon fill="#191970" stroke="#191970" points="85.7747,-26.4811 77.6823,-19.6427 79.7439,-30.035 85.7747,-26.4811"/>
</g>
<!-- Node4 -->
<g id="node5" class="node">
<title>Node4</title>
<polygon fill="#ffffff" stroke="#bfbfbf" points="112.5,-.5 112.5,-19.5 165.5,-19.5 165.5,-.5 112.5,-.5"/>
<text text-anchor="middle" x="139" y="-7.5" font-family="Helvetica,sans-Serif" font-size="10.00" fill="#000000">stdint.h</text>
</g>
<!-- Node1&#45;&gt;Node4 -->
<g id="edge4" class="edge">
<title>Node1&#45;&gt;Node4</title>
<path fill="none" stroke="#191970" d="M110.9223,-56.2455C115.6027,-48.5367 122.2673,-37.5598 127.9289,-28.2348"/>
<polygon fill="#191970" stroke="#191970" points="130.9475,-30.007 133.1455,-19.6427 124.9639,-26.3741 130.9475,-30.007"/>
</g>
<!-- Node5 -->
<g id="node6" class="node">
<title>Node5</title>
<polygon fill="#ffffff" stroke="#bfbfbf" points="184,-.5 184,-19.5 240,-19.5 240,-.5 184,-.5"/>
<text text-anchor="middle" x="212" y="-7.5" font-family="Helvetica,sans-Serif" font-size="10.00" fill="#000000">sstream</text>
</g>
<!-- Node1&#45;&gt;Node5 -->
<g id="edge5" class="edge">
<title>Node1&#45;&gt;Node5</title>
<path fill="none" stroke="#191970" d="M123.638,-56.2455C140.4386,-47.4527 165.3634,-34.4079 184.4618,-24.4125"/>
<polygon fill="#191970" stroke="#191970" points="186.3386,-27.3807 193.5756,-19.6427 183.0927,-21.1787 186.3386,-27.3807"/>
</g>
</g>
</svg>
