<?xml version="1.0" encoding="UTF-8" standalone="no"?>
<!DOCTYPE svg PUBLIC "-//W3C//DTD SVG 1.1//EN"
 "http://www.w3.org/Graphics/SVG/1.1/DTD/svg11.dtd">
<!-- Generated by graphviz version 2.40.1 (20161225.0304)
 -->
<!-- Title: bsn::processor::data_fuse Pages: 1 -->
<svg width="271pt" height="66pt"
 viewBox="0.00 0.00 271.00 66.00" xmlns="http://www.w3.org/2000/svg" xmlns:xlink="http://www.w3.org/1999/xlink">
<g id="graph0" class="graph" transform="scale(1 1) rotate(0) translate(4 62)">
<title>bsn::processor::data_fuse</title>
<polygon fill="#ffffff" stroke="transparent" points="-4,4 -4,-62 267,-62 267,4 -4,4"/>
<!-- Node1 -->
<g id="node1" class="node">
<title>Node1</title>
<polygon fill="#bfbfbf" stroke="#000000" points="0,-19.5 0,-38.5 141,-38.5 141,-19.5 0,-19.5"/>
<text text-anchor="middle" x="70.5" y="-26.5" font-family="Helvetica,sans-Serif" font-size="10.00" fill="#000000">bsn::processor::data_fuse</text>
</g>
<!-- Node2 -->
<g id="node2" class="node">
<title>Node2</title>
<g id="a_node2"><a xlink:href="ProcessorTest_8cpp.html#a5eac3aa0809d8a3d4d880e264ed0926a" target="_top" xlink:title="TEST_F">
<polygon fill="#ffffff" stroke="#000000" points="194.5,-38.5 194.5,-57.5 245.5,-57.5 245.5,-38.5 194.5,-38.5"/>
<text text-anchor="middle" x="220" y="-45.5" font-family="Helvetica,sans-Serif" font-size="10.00" fill="#000000">TEST_F</text>
</a>
</g>
</g>
<!-- Node1&#45;&gt;Node2 -->
<g id="edge1" class="edge">
<title>Node1&#45;&gt;Node2</title>
<path fill="none" stroke="#191970" d="M151.5664,-39.3027C167.1373,-41.2817 182.34,-43.2138 194.446,-44.7523"/>
<polygon fill="#191970" stroke="#191970" points="151.6712,-35.788 141.3097,-37.9992 150.7886,-42.7321 151.6712,-35.788"/>
</g>
<!-- Node3 -->
<g id="node3" class="node">
<title>Node3</title>
<g id="a_node3"><a xlink:href="classG4T1.html#a7d7a425b2d7fbbc0aa531cbb6ee5ddd9" target="_top" xlink:title="G4T1::process">
<polygon fill="#ffffff" stroke="#000000" points="177,-.5 177,-19.5 263,-19.5 263,-.5 177,-.5"/>
<text text-anchor="middle" x="220" y="-7.5" font-family="Helvetica,sans-Serif" font-size="10.00" fill="#000000">G4T1::process</text>
</a>
</g>
</g>
<!-- Node1&#45;&gt;Node3 -->
<g id="edge2" class="edge">
<title>Node1&#45;&gt;Node3</title>
<path fill="none" stroke="#191970" d="M151.5028,-18.7053C160.1656,-17.6044 168.7157,-16.5177 176.6831,-15.5052"/>
<polygon fill="#191970" stroke="#191970" points="150.7886,-15.2679 141.3097,-20.0008 151.6712,-22.212 150.7886,-15.2679"/>
</g>
</g>
</svg>
