<?xml version="1.0" encoding="UTF-8" standalone="no"?>
<!DOCTYPE svg PUBLIC "-//W3C//DTD SVG 1.1//EN"
 "http://www.w3.org/Graphics/SVG/1.1/DTD/svg11.dtd">
<!-- Generated by graphviz version 2.40.1 (20161225.0304)
 -->
<!-- Title: bsn::generator::probabilityGenerator Pages: 1 -->
<svg width="442pt" height="88pt"
 viewBox="0.00 0.00 442.00 88.00" xmlns="http://www.w3.org/2000/svg" xmlns:xlink="http://www.w3.org/1999/xlink">
<g id="graph0" class="graph" transform="scale(1 1) rotate(0) translate(4 84)">
<title>bsn::generator::probabilityGenerator</title>
<polygon fill="#ffffff" stroke="transparent" points="-4,4 -4,-84 438,-84 438,4 -4,4"/>
<!-- Node1 -->
<g id="node1" class="node">
<title>Node1</title>
<polygon fill="#bfbfbf" stroke="#000000" points="0,-24.5 0,-54.5 146,-54.5 146,-24.5 0,-24.5"/>
<text text-anchor="start" x="8" y="-42.5" font-family="Helvetica,sans-Serif" font-size="10.00" fill="#000000">bsn::generator::probability</text>
<text text-anchor="middle" x="73" y="-31.5" font-family="Helvetica,sans-Serif" font-size="10.00" fill="#000000">Generator</text>
</g>
<!-- Node2 -->
<g id="node2" class="node">
<title>Node2</title>
<g id="a_node2"><a xlink:href="classbsn_1_1generator_1_1DataGenerator.html#a1cd2d028c552461ae2084c3d90a8a6bb" target="_top" xlink:title="bsn::generator::DataGenerator\l::operator=">
<polygon fill="#ffffff" stroke="#000000" points="182,-49.5 182,-79.5 347,-79.5 347,-49.5 182,-49.5"/>
<text text-anchor="start" x="190" y="-67.5" font-family="Helvetica,sans-Serif" font-size="10.00" fill="#000000">bsn::generator::DataGenerator</text>
<text text-anchor="middle" x="264.5" y="-56.5" font-family="Helvetica,sans-Serif" font-size="10.00" fill="#000000">::operator=</text>
</a>
</g>
</g>
<!-- Node1&#45;&gt;Node2 -->
<g id="edge1" class="edge">
<title>Node1&#45;&gt;Node2</title>
<path fill="none" stroke="#191970" d="M156.3895,-50.3864C164.7958,-51.4838 173.3313,-52.5981 181.731,-53.6947"/>
<polygon fill="#191970" stroke="#191970" points="156.5866,-46.8825 146.2176,-49.0584 155.6804,-53.8236 156.5866,-46.8825"/>
</g>
<!-- Node3 -->
<g id="node3" class="node">
<title>Node3</title>
<g id="a_node3"><a xlink:href="classbsn_1_1generator_1_1DataGenerator.html#aee4859b45a43ce3f9cde9750a3b6abd2" target="_top" xlink:title="bsn::generator::DataGenerator\l::nextState">
<polygon fill="#ffffff" stroke="#000000" points="182,-.5 182,-30.5 347,-30.5 347,-.5 182,-.5"/>
<text text-anchor="start" x="190" y="-18.5" font-family="Helvetica,sans-Serif" font-size="10.00" fill="#000000">bsn::generator::DataGenerator</text>
<text text-anchor="middle" x="264.5" y="-7.5" font-family="Helvetica,sans-Serif" font-size="10.00" fill="#000000">::nextState</text>
</a>
</g>
</g>
<!-- Node1&#45;&gt;Node3 -->
<g id="edge2" class="edge">
<title>Node1&#45;&gt;Node3</title>
<path fill="none" stroke="#191970" d="M156.3895,-29.0491C164.7958,-27.9956 173.3313,-26.9258 181.731,-25.8731"/>
<polygon fill="#191970" stroke="#191970" points="155.7048,-25.6074 146.2176,-30.3239 156.5753,-32.5531 155.7048,-25.6074"/>
</g>
<!-- Node4 -->
<g id="node4" class="node">
<title>Node4</title>
<g id="a_node4"><a xlink:href="DataGeneratorTest_8cpp.html#a198eb29e95012f167dd321867248e6df" target="_top" xlink:title="TEST_F">
<polygon fill="#ffffff" stroke="#000000" points="383,-6 383,-25 434,-25 434,-6 383,-6"/>
<text text-anchor="middle" x="408.5" y="-13" font-family="Helvetica,sans-Serif" font-size="10.00" fill="#000000">TEST_F</text>
</a>
</g>
</g>
<!-- Node3&#45;&gt;Node4 -->
<g id="edge3" class="edge">
<title>Node3&#45;&gt;Node4</title>
<path fill="none" stroke="#191970" d="M357.1987,-15.5C366.4353,-15.5 375.1753,-15.5 382.7362,-15.5"/>
<polygon fill="#191970" stroke="#191970" points="357.0134,-12.0001 347.0133,-15.5 357.0133,-19.0001 357.0134,-12.0001"/>
</g>
</g>
</svg>
