<?xml version="1.0" encoding="UTF-8" standalone="no"?>
<!DOCTYPE svg PUBLIC "-//W3C//DTD SVG 1.1//EN"
 "http://www.w3.org/Graphics/SVG/1.1/DTD/svg11.dtd">
<!-- Generated by graphviz version 2.40.1 (20161225.0304)
 -->
<!-- Title: _setup_util.assignment Pages: 1 -->
<svg width="437pt" height="127pt"
 viewBox="0.00 0.00 437.00 127.00" xmlns="http://www.w3.org/2000/svg" xmlns:xlink="http://www.w3.org/1999/xlink">
<g id="graph0" class="graph" transform="scale(1 1) rotate(0) translate(4 123)">
<title>_setup_util.assignment</title>
<polygon fill="#ffffff" stroke="transparent" points="-4,4 -4,-123 433,-123 433,4 -4,4"/>
<!-- Node1 -->
<g id="node1" class="node">
<title>Node1</title>
<polygon fill="#bfbfbf" stroke="#000000" points="0,-50 0,-69 130,-69 130,-50 0,-50"/>
<text text-anchor="middle" x="65" y="-57" font-family="Helvetica,sans-Serif" font-size="10.00" fill="#000000">_setup_util.assignment</text>
</g>
<!-- Node2 -->
<g id="node2" class="node">
<title>Node2</title>
<g id="a_node2"><a xlink:href="namespace__setup__util.html#af3030db6102b5aa35cd354a2fb6cca03" target="_top" xlink:title="_setup_util.rollback\l_env_variables">
<polygon fill="#ffffff" stroke="#000000" points="167,-88.5 167,-118.5 279,-118.5 279,-88.5 167,-88.5"/>
<text text-anchor="start" x="175" y="-106.5" font-family="Helvetica,sans-Serif" font-size="10.00" fill="#000000">_setup_util.rollback</text>
<text text-anchor="middle" x="223" y="-95.5" font-family="Helvetica,sans-Serif" font-size="10.00" fill="#000000">_env_variables</text>
</a>
</g>
</g>
<!-- Node1&#45;&gt;Node2 -->
<g id="edge1" class="edge">
<title>Node1&#45;&gt;Node2</title>
<path fill="none" stroke="#191970" d="M108.9534,-71.7402C127.53,-76.9134 149.3493,-82.9897 168.9016,-88.4346"/>
<polygon fill="#191970" stroke="#191970" points="109.8561,-68.3584 99.2836,-69.0473 107.9781,-75.1018 109.8561,-68.3584"/>
</g>
<!-- Node3 -->
<g id="node3" class="node">
<title>Node3</title>
<g id="a_node3"><a xlink:href="namespace__setup__util.html#ae78d86b2c4279f5b8b1acaa146c35802" target="_top" xlink:title="_setup_util.prepend">
<polygon fill="#ffffff" stroke="#000000" points="166.5,-50 166.5,-69 279.5,-69 279.5,-50 166.5,-50"/>
<text text-anchor="middle" x="223" y="-57" font-family="Helvetica,sans-Serif" font-size="10.00" fill="#000000">_setup_util.prepend</text>
</a>
</g>
</g>
<!-- Node1&#45;&gt;Node3 -->
<g id="edge2" class="edge">
<title>Node1&#45;&gt;Node3</title>
<path fill="none" stroke="#191970" d="M140.2956,-59.5C148.9599,-59.5 157.6838,-59.5 166.0491,-59.5"/>
<polygon fill="#191970" stroke="#191970" points="140.1769,-56.0001 130.1768,-59.5 140.1768,-63.0001 140.1769,-56.0001"/>
</g>
<!-- Node5 -->
<g id="node5" class="node">
<title>Node5</title>
<g id="a_node5"><a xlink:href="namespace__setup__util.html#a73de35ca77f260af6691470342ab49ce" target="_top" xlink:title="_setup_util.find_env\l_hooks">
<polygon fill="#ffffff" stroke="#000000" points="166,-.5 166,-30.5 280,-30.5 280,-.5 166,-.5"/>
<text text-anchor="start" x="174" y="-18.5" font-family="Helvetica,sans-Serif" font-size="10.00" fill="#000000">_setup_util.find_env</text>
<text text-anchor="middle" x="223" y="-7.5" font-family="Helvetica,sans-Serif" font-size="10.00" fill="#000000">_hooks</text>
</a>
</g>
</g>
<!-- Node1&#45;&gt;Node5 -->
<g id="edge4" class="edge">
<title>Node1&#45;&gt;Node5</title>
<path fill="none" stroke="#191970" d="M108.9534,-47.2598C127.53,-42.0866 149.3493,-36.0103 168.9016,-30.5654"/>
<polygon fill="#191970" stroke="#191970" points="107.9781,-43.8982 99.2836,-49.9527 109.8561,-50.6416 107.9781,-43.8982"/>
</g>
<!-- Node4 -->
<g id="node4" class="node">
<title>Node4</title>
<g id="a_node4"><a xlink:href="namespace__setup__util.html#a832417d18b85bd1d276a87547e86f860" target="_top" xlink:title="_setup_util.prepend\l_env_variables">
<polygon fill="#ffffff" stroke="#000000" points="316,-44.5 316,-74.5 429,-74.5 429,-44.5 316,-44.5"/>
<text text-anchor="start" x="324" y="-62.5" font-family="Helvetica,sans-Serif" font-size="10.00" fill="#000000">_setup_util.prepend</text>
<text text-anchor="middle" x="372.5" y="-51.5" font-family="Helvetica,sans-Serif" font-size="10.00" fill="#000000">_env_variables</text>
</a>
</g>
</g>
<!-- Node3&#45;&gt;Node4 -->
<g id="edge3" class="edge">
<title>Node3&#45;&gt;Node4</title>
<path fill="none" stroke="#191970" d="M289.6928,-59.5C298.4421,-59.5 307.3403,-59.5 315.9005,-59.5"/>
<polygon fill="#191970" stroke="#191970" points="289.5196,-56.0001 279.5195,-59.5 289.5195,-63.0001 289.5196,-56.0001"/>
</g>
</g>
</svg>
