<?xml version="1.0" encoding="UTF-8" standalone="no"?>
<!DOCTYPE svg PUBLIC "-//W3C//DTD SVG 1.1//EN"
 "http://www.w3.org/Graphics/SVG/1.1/DTD/svg11.dtd">
<!-- Generated by graphviz version 2.40.1 (20161225.0304)
 -->
<!-- Title: _setup_util.comment Pages: 1 -->
<svg width="277pt" height="137pt"
 viewBox="0.00 0.00 277.00 137.00" xmlns="http://www.w3.org/2000/svg" xmlns:xlink="http://www.w3.org/1999/xlink">
<g id="graph0" class="graph" transform="scale(1 1) rotate(0) translate(4 133)">
<title>_setup_util.comment</title>
<polygon fill="#ffffff" stroke="transparent" points="-4,4 -4,-133 273,-133 273,4 -4,4"/>
<!-- Node7 -->
<g id="node1" class="node">
<title>Node7</title>
<polygon fill="#bfbfbf" stroke="#000000" points="0,-55 0,-74 119,-74 119,-55 0,-55"/>
<text text-anchor="middle" x="59.5" y="-62" font-family="Helvetica,sans-Serif" font-size="10.00" fill="#000000">_setup_util.comment</text>
</g>
<!-- Node8 -->
<g id="node2" class="node">
<title>Node8</title>
<g id="a_node2"><a xlink:href="namespace__setup__util.html#af3030db6102b5aa35cd354a2fb6cca03" target="_top" xlink:title="_setup_util.rollback\l_env_variables">
<polygon fill="#ffffff" stroke="#000000" points="156,-98.5 156,-128.5 268,-128.5 268,-98.5 156,-98.5"/>
<text text-anchor="start" x="164" y="-116.5" font-family="Helvetica,sans-Serif" font-size="10.00" fill="#000000">_setup_util.rollback</text>
<text text-anchor="middle" x="212" y="-105.5" font-family="Helvetica,sans-Serif" font-size="10.00" fill="#000000">_env_variables</text>
</a>
</g>
</g>
<!-- Node7&#45;&gt;Node8 -->
<g id="edge1" class="edge">
<title>Node7&#45;&gt;Node8</title>
<path fill="none" stroke="#191970" d="M98.8118,-77.1313C119.0826,-83.6446 143.9458,-91.6334 165.2013,-98.463"/>
<polygon fill="#191970" stroke="#191970" points="99.8569,-73.791 89.2656,-74.064 97.7155,-80.4554 99.8569,-73.791"/>
</g>
<!-- Node9 -->
<g id="node3" class="node">
<title>Node9</title>
<g id="a_node3"><a xlink:href="namespace__setup__util.html#a832417d18b85bd1d276a87547e86f860" target="_top" xlink:title="_setup_util.prepend\l_env_variables">
<polygon fill="#ffffff" stroke="#000000" points="155.5,-49.5 155.5,-79.5 268.5,-79.5 268.5,-49.5 155.5,-49.5"/>
<text text-anchor="start" x="163.5" y="-67.5" font-family="Helvetica,sans-Serif" font-size="10.00" fill="#000000">_setup_util.prepend</text>
<text text-anchor="middle" x="212" y="-56.5" font-family="Helvetica,sans-Serif" font-size="10.00" fill="#000000">_env_variables</text>
</a>
</g>
</g>
<!-- Node7&#45;&gt;Node9 -->
<g id="edge2" class="edge">
<title>Node7&#45;&gt;Node9</title>
<path fill="none" stroke="#191970" d="M129.4367,-64.5C138.1084,-64.5 146.8898,-64.5 155.3281,-64.5"/>
<polygon fill="#191970" stroke="#191970" points="129.3344,-61.0001 119.3343,-64.5 129.3343,-68.0001 129.3344,-61.0001"/>
</g>
<!-- Node10 -->
<g id="node4" class="node">
<title>Node10</title>
<g id="a_node4"><a xlink:href="namespace__setup__util.html#a73de35ca77f260af6691470342ab49ce" target="_top" xlink:title="_setup_util.find_env\l_hooks">
<polygon fill="#ffffff" stroke="#000000" points="155,-.5 155,-30.5 269,-30.5 269,-.5 155,-.5"/>
<text text-anchor="start" x="163" y="-18.5" font-family="Helvetica,sans-Serif" font-size="10.00" fill="#000000">_setup_util.find_env</text>
<text text-anchor="middle" x="212" y="-7.5" font-family="Helvetica,sans-Serif" font-size="10.00" fill="#000000">_hooks</text>
</a>
</g>
</g>
<!-- Node7&#45;&gt;Node10 -->
<g id="edge3" class="edge">
<title>Node7&#45;&gt;Node10</title>
<path fill="none" stroke="#191970" d="M98.8118,-51.8687C119.0826,-45.3554 143.9458,-37.3666 165.2013,-30.537"/>
<polygon fill="#191970" stroke="#191970" points="97.7155,-48.5446 89.2656,-54.936 99.8569,-55.209 97.7155,-48.5446"/>
</g>
</g>
</svg>
