<?xml version="1.0" encoding="UTF-8" standalone="no"?>
<!DOCTYPE svg PUBLIC "-//W3C//DTD SVG 1.1//EN"
 "http://www.w3.org/Graphics/SVG/1.1/DTD/svg11.dtd">
<!-- Generated by graphviz version 2.40.1 (20161225.0304)
 -->
<!-- Title: _setup_util.prepend_env_variables Pages: 1 -->
<svg width="442pt" height="66pt"
 viewBox="0.00 0.00 442.00 66.00" xmlns="http://www.w3.org/2000/svg" xmlns:xlink="http://www.w3.org/1999/xlink">
<g id="graph0" class="graph" transform="scale(1 1) rotate(0) translate(4 62)">
<title>_setup_util.prepend_env_variables</title>
<polygon fill="#ffffff" stroke="transparent" points="-4,4 -4,-62 438,-62 438,4 -4,4"/>
<!-- Node19 -->
<g id="node1" class="node">
<title>Node19</title>
<polygon fill="#bfbfbf" stroke="#000000" points="0,-14 0,-44 113,-44 113,-14 0,-14"/>
<text text-anchor="start" x="8" y="-32" font-family="Helvetica,sans-Serif" font-size="10.00" fill="#000000">_setup_util.prepend</text>
<text text-anchor="middle" x="56.5" y="-21" font-family="Helvetica,sans-Serif" font-size="10.00" fill="#000000">_env_variables</text>
</g>
<!-- Node20 -->
<g id="node2" class="node">
<title>Node20</title>
<g id="a_node2"><a xlink:href="namespace__setup__util.html#abe8c95c4cfe8b1374dacd5f91d984353" target="_top" xlink:title="_setup_util.comment">
<polygon fill="#ffffff" stroke="#000000" points="149,-38.5 149,-57.5 268,-57.5 268,-38.5 149,-38.5"/>
<text text-anchor="middle" x="208.5" y="-45.5" font-family="Helvetica,sans-Serif" font-size="10.00" fill="#000000">_setup_util.comment</text>
</a>
</g>
</g>
<!-- Node19&#45;&gt;Node20 -->
<g id="edge1" class="edge">
<title>Node19&#45;&gt;Node20</title>
<path fill="none" stroke="#191970" d="M113.0992,-36.0749C121.4712,-37.1214 130.1798,-38.21 138.7804,-39.2851"/>
<polygon fill="#191970" stroke="#191970" points="138.4436,-42.7701 148.8005,-40.5376 139.3119,-35.8242 138.4436,-42.7701"/>
</g>
<!-- Node21 -->
<g id="node3" class="node">
<title>Node21</title>
<g id="a_node3"><a xlink:href="namespace__setup__util.html#ae78d86b2c4279f5b8b1acaa146c35802" target="_top" xlink:title="_setup_util.prepend">
<polygon fill="#ffffff" stroke="#000000" points="152,-.5 152,-19.5 265,-19.5 265,-.5 152,-.5"/>
<text text-anchor="middle" x="208.5" y="-7.5" font-family="Helvetica,sans-Serif" font-size="10.00" fill="#000000">_setup_util.prepend</text>
</a>
</g>
</g>
<!-- Node19&#45;&gt;Node21 -->
<g id="edge2" class="edge">
<title>Node19&#45;&gt;Node21</title>
<path fill="none" stroke="#191970" d="M113.0992,-21.9251C122.397,-20.7629 132.11,-19.5487 141.6292,-18.3589"/>
<polygon fill="#191970" stroke="#191970" points="142.3649,-21.7942 151.8535,-17.0808 141.4966,-14.8483 142.3649,-21.7942"/>
</g>
<!-- Node22 -->
<g id="node4" class="node">
<title>Node22</title>
<g id="a_node4"><a xlink:href="namespace__setup__util.html#ad56c24837fa4eddc63c03fbc7035628f" target="_top" xlink:title="_setup_util.assignment">
<polygon fill="#ffffff" stroke="#000000" points="304,-.5 304,-19.5 434,-19.5 434,-.5 304,-.5"/>
<text text-anchor="middle" x="369" y="-7.5" font-family="Helvetica,sans-Serif" font-size="10.00" fill="#000000">_setup_util.assignment</text>
</a>
</g>
</g>
<!-- Node21&#45;&gt;Node22 -->
<g id="edge3" class="edge">
<title>Node21&#45;&gt;Node22</title>
<path fill="none" stroke="#191970" d="M265.0863,-10C274.397,-10 284.1745,-10 293.8526,-10"/>
<polygon fill="#191970" stroke="#191970" points="293.8785,-13.5001 303.8785,-10 293.8785,-6.5001 293.8785,-13.5001"/>
</g>
</g>
</svg>
