<?xml version="1.0" encoding="UTF-8" standalone="no"?>
<!DOCTYPE svg PUBLIC "-//W3C//DTD SVG 1.1//EN"
 "http://www.w3.org/Graphics/SVG/1.1/DTD/svg11.dtd">
<!-- Generated by graphviz version 2.40.1 (20161225.0304)
 -->
<!-- Title: _setup_util.find_env_hooks Pages: 1 -->
<svg width="288pt" height="66pt"
 viewBox="0.00 0.00 288.00 66.00" xmlns="http://www.w3.org/2000/svg" xmlns:xlink="http://www.w3.org/1999/xlink">
<g id="graph0" class="graph" transform="scale(1 1) rotate(0) translate(4 62)">
<title>_setup_util.find_env_hooks</title>
<polygon fill="#ffffff" stroke="transparent" points="-4,4 -4,-62 284,-62 284,4 -4,4"/>
<!-- Node11 -->
<g id="node1" class="node">
<title>Node11</title>
<polygon fill="#bfbfbf" stroke="#000000" points="0,-14 0,-44 114,-44 114,-14 0,-14"/>
<text text-anchor="start" x="8" y="-32" font-family="Helvetica,sans-Serif" font-size="10.00" fill="#000000">_setup_util.find_env</text>
<text text-anchor="middle" x="57" y="-21" font-family="Helvetica,sans-Serif" font-size="10.00" fill="#000000">_hooks</text>
</g>
<!-- Node12 -->
<g id="node2" class="node">
<title>Node12</title>
<g id="a_node2"><a xlink:href="namespace__setup__util.html#abe8c95c4cfe8b1374dacd5f91d984353" target="_top" xlink:title="_setup_util.comment">
<polygon fill="#ffffff" stroke="#000000" points="155.5,-38.5 155.5,-57.5 274.5,-57.5 274.5,-38.5 155.5,-38.5"/>
<text text-anchor="middle" x="215" y="-45.5" font-family="Helvetica,sans-Serif" font-size="10.00" fill="#000000">_setup_util.comment</text>
</a>
</g>
</g>
<!-- Node11&#45;&gt;Node12 -->
<g id="edge1" class="edge">
<title>Node11&#45;&gt;Node12</title>
<path fill="none" stroke="#191970" d="M114.0416,-35.8594C124.2234,-37.0838 134.9338,-38.3718 145.4196,-39.6327"/>
<polygon fill="#191970" stroke="#191970" points="145.0332,-43.1114 155.3796,-40.8305 145.869,-36.1615 145.0332,-43.1114"/>
</g>
<!-- Node13 -->
<g id="node3" class="node">
<title>Node13</title>
<g id="a_node3"><a xlink:href="namespace__setup__util.html#ad56c24837fa4eddc63c03fbc7035628f" target="_top" xlink:title="_setup_util.assignment">
<polygon fill="#ffffff" stroke="#000000" points="150,-.5 150,-19.5 280,-19.5 280,-.5 150,-.5"/>
<text text-anchor="middle" x="215" y="-7.5" font-family="Helvetica,sans-Serif" font-size="10.00" fill="#000000">_setup_util.assignment</text>
</a>
</g>
</g>
<!-- Node11&#45;&gt;Node13 -->
<g id="edge2" class="edge">
<title>Node11&#45;&gt;Node13</title>
<path fill="none" stroke="#191970" d="M114.0416,-22.1406C122.4279,-21.1321 131.1728,-20.0805 139.8555,-19.0364"/>
<polygon fill="#191970" stroke="#191970" points="140.4838,-22.4861 149.9943,-17.8171 139.6479,-15.5362 140.4838,-22.4861"/>
</g>
</g>
</svg>
