<?xml version="1.0" encoding="UTF-8" standalone="no"?>
<!DOCTYPE svg PUBLIC "-//W3C//DTD SVG 1.1//EN"
 "http://www.w3.org/Graphics/SVG/1.1/DTD/svg11.dtd">
<!-- Generated by graphviz version 2.40.1 (20161225.0304)
 -->
<!-- Title: bsn::utils::split Pages: 1 -->
<svg width="743pt" height="762pt"
 viewBox="0.00 0.00 743.00 762.00" xmlns="http://www.w3.org/2000/svg" xmlns:xlink="http://www.w3.org/1999/xlink">
<g id="graph0" class="graph" transform="scale(1 1) rotate(0) translate(4 758)">
<title>bsn::utils::split</title>
<polygon fill="#ffffff" stroke="transparent" points="-4,4 -4,-758 739,-758 739,4 -4,4"/>
<!-- Node1 -->
<g id="node1" class="node">
<title>Node1</title>
<polygon fill="#bfbfbf" stroke="#000000" points="0,-361.5 0,-380.5 88,-380.5 88,-361.5 0,-361.5"/>
<text text-anchor="middle" x="44" y="-368.5" font-family="Helvetica,sans-Serif" font-size="10.00" fill="#000000">bsn::utils::split</text>
</g>
<!-- Node2 -->
<g id="node2" class="node">
<title>Node2</title>
<g id="a_node2"><a xlink:href="classPatientModule.html#a274d7a866de69b39ac08cbf8720b445c" target="_top" xlink:title="PatientModule::setUp">
<polygon fill="#ffffff" stroke="#000000" points="137,-734.5 137,-753.5 257,-753.5 257,-734.5 137,-734.5"/>
<text text-anchor="middle" x="197" y="-741.5" font-family="Helvetica,sans-Serif" font-size="10.00" fill="#000000">PatientModule::setUp</text>
</a>
</g>
</g>
<!-- Node1&#45;&gt;Node2 -->
<g id="edge1" class="edge">
<title>Node1&#45;&gt;Node2</title>
<path fill="none" stroke="#191970" d="M45.7819,-390.6425C52.2545,-457.6963 76.6664,-676.1089 124,-725 127.7347,-728.8576 132.1456,-731.9669 136.9203,-734.4687"/>
<polygon fill="#191970" stroke="#191970" points="49.2573,-390.2158 44.8377,-380.5868 42.288,-390.8703 49.2573,-390.2158"/>
</g>
<!-- Node3 -->
<g id="node3" class="node">
<title>Node3</title>
<g id="a_node3"><a xlink:href="classDataAccess.html#a8bf4ba9143c8a274736aedbdacde9991" target="_top" xlink:title="DataAccess::processQuery">
<polygon fill="#ffffff" stroke="#000000" points="124,-696.5 124,-715.5 270,-715.5 270,-696.5 124,-696.5"/>
<text text-anchor="middle" x="197" y="-703.5" font-family="Helvetica,sans-Serif" font-size="10.00" fill="#000000">DataAccess::processQuery</text>
</a>
</g>
</g>
<!-- Node1&#45;&gt;Node3 -->
<g id="edge2" class="edge">
<title>Node1&#45;&gt;Node3</title>
<path fill="none" stroke="#191970" d="M46.3924,-390.9307C54.2906,-453.4676 81.4792,-644.1947 124,-687 127.784,-690.8093 132.2284,-693.8858 137.0245,-696.3665"/>
<polygon fill="#191970" stroke="#191970" points="49.8419,-390.3057 45.1428,-380.81 42.8947,-391.1636 49.8419,-390.3057"/>
</g>
<!-- Node5 -->
<g id="node5" class="node">
<title>Node5</title>
<g id="a_node5"><a xlink:href="classAnalyzer_1_1Analyzer.html#ace65f914d5702497483b294f0373b2f4" target="_top" xlink:title="Analyzer.Analyzer.run">
<polygon fill="#ffffff" stroke="#000000" points="136,-658.5 136,-677.5 258,-677.5 258,-658.5 136,-658.5"/>
<text text-anchor="middle" x="197" y="-665.5" font-family="Helvetica,sans-Serif" font-size="10.00" fill="#000000">Analyzer.Analyzer.run</text>
</a>
</g>
</g>
<!-- Node1&#45;&gt;Node5 -->
<g id="edge4" class="edge">
<title>Node1&#45;&gt;Node5</title>
<path fill="none" stroke="#191970" d="M47.0962,-390.729C56.4557,-447.9261 86.1484,-612.1042 124,-649 127.9387,-652.8392 132.5499,-655.9301 137.5069,-658.4149"/>
<polygon fill="#191970" stroke="#191970" points="50.4962,-389.8261 45.4553,-380.5073 43.5847,-390.9357 50.4962,-389.8261"/>
</g>
<!-- Node6 -->
<g id="node6" class="node">
<title>Node6</title>
<g id="a_node6"><a xlink:href="classInjector.html#ac7658d4d7db234ed9237fd186392c2b8" target="_top" xlink:title="Injector::setUp">
<polygon fill="#ffffff" stroke="#000000" points="153,-620.5 153,-639.5 241,-639.5 241,-620.5 153,-620.5"/>
<text text-anchor="middle" x="197" y="-627.5" font-family="Helvetica,sans-Serif" font-size="10.00" fill="#000000">Injector::setUp</text>
</a>
</g>
</g>
<!-- Node1&#45;&gt;Node6 -->
<g id="edge5" class="edge">
<title>Node1&#45;&gt;Node6</title>
<path fill="none" stroke="#191970" d="M44.9872,-390.7475C48.2893,-435.4481 62.5654,-545.2061 124,-606 131.8707,-613.7886 142.3114,-619.0497 152.8282,-622.6033"/>
<polygon fill="#191970" stroke="#191970" points="48.4716,-390.3886 44.3504,-380.6282 41.4854,-390.8283 48.4716,-390.3886"/>
</g>
<!-- Node7 -->
<g id="node7" class="node">
<title>Node7</title>
<g id="a_node7"><a xlink:href="classCostEngine.html#a0f1a60c2da68544287595ac66d070fe2" target="_top" xlink:title="CostEngine::monitor">
<polygon fill="#ffffff" stroke="#000000" points="619,-563.5 619,-582.5 735,-582.5 735,-563.5 619,-563.5"/>
<text text-anchor="middle" x="677" y="-570.5" font-family="Helvetica,sans-Serif" font-size="10.00" fill="#000000">CostEngine::monitor</text>
</a>
</g>
</g>
<!-- Node1&#45;&gt;Node7 -->
<g id="edge6" class="edge">
<title>Node1&#45;&gt;Node7</title>
<path fill="none" stroke="#191970" d="M44.953,-391.034C48.173,-433.2811 62.2715,-531.0537 124,-573 203.011,-626.6903 493.3422,-596.909 618.7133,-580.9852"/>
<polygon fill="#191970" stroke="#191970" points="48.4364,-390.6595 44.3134,-380.8999 41.4503,-391.1005 48.4364,-390.6595"/>
</g>
<!-- Node8 -->
<g id="node8" class="node">
<title>Node8</title>
<g id="a_node8"><a xlink:href="classCostEngine.html#af1d8ce6fb8bfdb627e60879e98e929df" target="_top" xlink:title="CostEngine::execute">
<polygon fill="#ffffff" stroke="#000000" points="139,-544.5 139,-563.5 255,-563.5 255,-544.5 139,-544.5"/>
<text text-anchor="middle" x="197" y="-551.5" font-family="Helvetica,sans-Serif" font-size="10.00" fill="#000000">CostEngine::execute</text>
</a>
</g>
</g>
<!-- Node1&#45;&gt;Node8 -->
<g id="edge7" class="edge">
<title>Node1&#45;&gt;Node8</title>
<path fill="none" stroke="#191970" d="M47.9861,-390.7582C56.0286,-425.3914 77.542,-496.9843 124,-535 128.7635,-538.8979 134.2385,-542.005 140.0032,-544.4802"/>
<polygon fill="#191970" stroke="#191970" points="51.3867,-389.9247 45.8337,-380.9017 44.5478,-391.4182 51.3867,-389.9247"/>
</g>
<!-- Node11 -->
<g id="node11" class="node">
<title>Node11</title>
<g id="a_node11"><a xlink:href="classEngine.html#aea9c523a0feb05871f020d4fd4f417e4" target="_top" xlink:title="Engine::receiveException">
<polygon fill="#ffffff" stroke="#000000" points="127,-506.5 127,-525.5 267,-525.5 267,-506.5 127,-506.5"/>
<text text-anchor="middle" x="197" y="-513.5" font-family="Helvetica,sans-Serif" font-size="10.00" fill="#000000">Engine::receiveException</text>
</a>
</g>
</g>
<!-- Node1&#45;&gt;Node11 -->
<g id="edge11" class="edge">
<title>Node1&#45;&gt;Node11</title>
<path fill="none" stroke="#191970" d="M51.7672,-390.1303C63.5215,-416.7474 88.3068,-464.7459 124,-492 132.2706,-498.3151 142.2782,-503.01 152.1966,-506.4857"/>
<polygon fill="#191970" stroke="#191970" points="54.9159,-388.5908 47.7801,-380.7593 48.4746,-391.3314 54.9159,-388.5908"/>
</g>
<!-- Node13 -->
<g id="node13" class="node">
<title>Node13</title>
<g id="a_node13"><a xlink:href="classReliabilityEngine.html#afe74f85b5bb905500dec2f93586e0045" target="_top" xlink:title="ReliabilityEngine::\lmonitor">
<polygon fill="#ffffff" stroke="#000000" points="625,-441 625,-471 729,-471 729,-441 625,-441"/>
<text text-anchor="start" x="633" y="-459" font-family="Helvetica,sans-Serif" font-size="10.00" fill="#000000">ReliabilityEngine::</text>
<text text-anchor="middle" x="677" y="-448" font-family="Helvetica,sans-Serif" font-size="10.00" fill="#000000">monitor</text>
</a>
</g>
</g>
<!-- Node1&#45;&gt;Node13 -->
<g id="edge13" class="edge">
<title>Node1&#45;&gt;Node13</title>
<path fill="none" stroke="#191970" d="M54.1584,-389.3252C67.1637,-410.6658 91.906,-444.8026 124,-459 212.5693,-498.1804 504.9951,-473.7425 624.9559,-461.6256"/>
<polygon fill="#191970" stroke="#191970" points="57.0913,-387.4069 49.0247,-380.538 51.0472,-390.9381 57.0913,-387.4069"/>
</g>
<!-- Node14 -->
<g id="node14" class="node">
<title>Node14</title>
<g id="a_node14"><a xlink:href="classReliabilityEngine.html#a7837ed9e42d0b47872fe862cf0a4b63f" target="_top" xlink:title="ReliabilityEngine::\lexecute">
<polygon fill="#ffffff" stroke="#000000" points="145,-419 145,-449 249,-449 249,-419 145,-419"/>
<text text-anchor="start" x="153" y="-437" font-family="Helvetica,sans-Serif" font-size="10.00" fill="#000000">ReliabilityEngine::</text>
<text text-anchor="middle" x="197" y="-426" font-family="Helvetica,sans-Serif" font-size="10.00" fill="#000000">execute</text>
</a>
</g>
</g>
<!-- Node1&#45;&gt;Node14 -->
<g id="edge14" class="edge">
<title>Node1&#45;&gt;Node14</title>
<path fill="none" stroke="#191970" d="M71.8388,-385.1793C87.0615,-392.6888 106.3604,-401.8172 124,-409 132.4368,-412.4355 141.5422,-415.8097 150.3657,-418.913"/>
<polygon fill="#191970" stroke="#191970" points="72.9934,-381.8441 62.4823,-380.5149 69.8703,-388.1088 72.9934,-381.8441"/>
</g>
<!-- Node17 -->
<g id="node17" class="node">
<title>Node17</title>
<g id="a_node17"><a xlink:href="classEnactor.html#a9e10c68a47e83737f8b45b9c504cdc97" target="_top" xlink:title="Enactor::receiveStatus">
<polygon fill="#ffffff" stroke="#000000" points="134,-380.5 134,-399.5 260,-399.5 260,-380.5 134,-380.5"/>
<text text-anchor="middle" x="197" y="-387.5" font-family="Helvetica,sans-Serif" font-size="10.00" fill="#000000">Enactor::receiveStatus</text>
</a>
</g>
</g>
<!-- Node1&#45;&gt;Node17 -->
<g id="edge18" class="edge">
<title>Node1&#45;&gt;Node17</title>
<path fill="none" stroke="#191970" d="M98.5113,-377.7694C109.935,-379.188 122.0736,-380.6954 133.7838,-382.1496"/>
<polygon fill="#191970" stroke="#191970" points="98.6091,-374.2547 88.2539,-376.4956 97.7464,-381.2014 98.6091,-374.2547"/>
</g>
<!-- Node19 -->
<g id="node19" class="node">
<title>Node19</title>
<g id="a_node19"><a xlink:href="classEnactor.html#aee03d216ab1a7ed1b841cefac05541c5" target="_top" xlink:title="Enactor::receiveStrategy">
<polygon fill="#ffffff" stroke="#000000" points="128.5,-342.5 128.5,-361.5 265.5,-361.5 265.5,-342.5 128.5,-342.5"/>
<text text-anchor="middle" x="197" y="-349.5" font-family="Helvetica,sans-Serif" font-size="10.00" fill="#000000">Enactor::receiveStrategy</text>
</a>
</g>
</g>
<!-- Node1&#45;&gt;Node19 -->
<g id="edge20" class="edge">
<title>Node1&#45;&gt;Node19</title>
<path fill="none" stroke="#191970" d="M98.1987,-364.2694C107.9546,-363.0579 118.2407,-361.7806 128.3425,-360.5261"/>
<polygon fill="#191970" stroke="#191970" points="97.7464,-360.7986 88.2539,-365.5044 98.6091,-367.7453 97.7464,-360.7986"/>
</g>
<!-- Node20 -->
<g id="node20" class="node">
<title>Node20</title>
<g id="a_node20"><a xlink:href="classCentralHub.html#a72336916ee15e722ee0b9f2c7c3747b6" target="_top" xlink:title="CentralHub::reconfigure">
<polygon fill="#ffffff" stroke="#000000" points="131,-304.5 131,-323.5 263,-323.5 263,-304.5 131,-304.5"/>
<text text-anchor="middle" x="197" y="-311.5" font-family="Helvetica,sans-Serif" font-size="10.00" fill="#000000">CentralHub::reconfigure</text>
</a>
</g>
</g>
<!-- Node1&#45;&gt;Node20 -->
<g id="edge22" class="edge">
<title>Node1&#45;&gt;Node20</title>
<path fill="none" stroke="#191970" d="M70.5978,-356.81C85.9104,-349.0387 105.6927,-339.6627 124,-333 133.845,-329.4171 144.6657,-326.218 154.891,-323.5128"/>
<polygon fill="#191970" stroke="#191970" points="68.9769,-353.7079 61.6942,-361.4029 72.186,-359.9289 68.9769,-353.7079"/>
</g>
<!-- Node23 -->
<g id="node23" class="node">
<title>Node23</title>
<g id="a_node23"><a xlink:href="classG3T1__1.html#afc0406d8cf445068c7f9ffea7293e99c" target="_top" xlink:title="G3T1_1::setUp">
<polygon fill="#ffffff" stroke="#000000" points="153,-266.5 153,-285.5 241,-285.5 241,-266.5 153,-266.5"/>
<text text-anchor="middle" x="197" y="-273.5" font-family="Helvetica,sans-Serif" font-size="10.00" fill="#000000">G3T1_1::setUp</text>
</a>
</g>
</g>
<!-- Node1&#45;&gt;Node23 -->
<g id="edge25" class="edge">
<title>Node1&#45;&gt;Node23</title>
<path fill="none" stroke="#191970" d="M57.9836,-353.2646C72.6267,-335.8841 97.1916,-309.8969 124,-295 132.8144,-290.102 142.9306,-286.4316 152.7681,-283.6933"/>
<polygon fill="#191970" stroke="#191970" points="54.8971,-351.5096 51.2713,-361.4647 60.3138,-355.9435 54.8971,-351.5096"/>
</g>
<!-- Node24 -->
<g id="node24" class="node">
<title>Node24</title>
<g id="a_node24"><a xlink:href="classG3T1__2.html#adf0bd406c544363148fdedc04638c327" target="_top" xlink:title="G3T1_2::setUp">
<polygon fill="#ffffff" stroke="#000000" points="153,-228.5 153,-247.5 241,-247.5 241,-228.5 153,-228.5"/>
<text text-anchor="middle" x="197" y="-235.5" font-family="Helvetica,sans-Serif" font-size="10.00" fill="#000000">G3T1_2::setUp</text>
</a>
</g>
</g>
<!-- Node1&#45;&gt;Node24 -->
<g id="edge26" class="edge">
<title>Node1&#45;&gt;Node24</title>
<path fill="none" stroke="#191970" d="M52.1781,-351.9559C64.1532,-326.3847 88.9103,-281.356 124,-257 132.499,-251.1008 142.7043,-247.0331 152.7535,-244.2284"/>
<polygon fill="#191970" stroke="#191970" points="48.8794,-350.7573 47.9627,-361.3124 55.2616,-353.6327 48.8794,-350.7573"/>
</g>
<!-- Node25 -->
<g id="node25" class="node">
<title>Node25</title>
<g id="a_node25"><a xlink:href="classG3T1__3.html#a9dc06dbfd79fe9186c2583d3427bd349" target="_top" xlink:title="G3T1_3::setUp">
<polygon fill="#ffffff" stroke="#000000" points="153,-190.5 153,-209.5 241,-209.5 241,-190.5 153,-190.5"/>
<text text-anchor="middle" x="197" y="-197.5" font-family="Helvetica,sans-Serif" font-size="10.00" fill="#000000">G3T1_3::setUp</text>
</a>
</g>
</g>
<!-- Node1&#45;&gt;Node25 -->
<g id="edge27" class="edge">
<title>Node1&#45;&gt;Node25</title>
<path fill="none" stroke="#191970" d="M48.786,-351.3546C57.7702,-318.7533 80.3168,-253.6418 124,-219 132.3114,-212.4089 142.6715,-208.0866 152.9517,-205.2572"/>
<polygon fill="#191970" stroke="#191970" points="45.2961,-350.8676 46.1614,-361.427 52.0699,-352.6327 45.2961,-350.8676"/>
</g>
<!-- Node26 -->
<g id="node26" class="node">
<title>Node26</title>
<g id="a_node26"><a xlink:href="classG3T1__4.html#a0c30d795add04bf4e459650f28ab8de5" target="_top" xlink:title="G3T1_4::setUp">
<polygon fill="#ffffff" stroke="#000000" points="153,-152.5 153,-171.5 241,-171.5 241,-152.5 153,-152.5"/>
<text text-anchor="middle" x="197" y="-159.5" font-family="Helvetica,sans-Serif" font-size="10.00" fill="#000000">G3T1_4::setUp</text>
</a>
</g>
</g>
<!-- Node1&#45;&gt;Node26 -->
<g id="edge28" class="edge">
<title>Node1&#45;&gt;Node26</title>
<path fill="none" stroke="#191970" d="M46.4943,-351.4231C52.4781,-312.8075 71.2908,-226.6221 124,-181 132.1195,-173.9722 142.5273,-169.4971 152.9244,-166.6606"/>
<polygon fill="#191970" stroke="#191970" points="43.0207,-350.9899 45.077,-361.3833 49.9509,-351.9761 43.0207,-350.9899"/>
</g>
<!-- Node27 -->
<g id="node27" class="node">
<title>Node27</title>
<g id="a_node27"><a xlink:href="classG3T1__5.html#a3978c48f730a640b8af43d100144ed71" target="_top" xlink:title="G3T1_5::setUp">
<polygon fill="#ffffff" stroke="#000000" points="153,-114.5 153,-133.5 241,-133.5 241,-114.5 153,-114.5"/>
<text text-anchor="middle" x="197" y="-121.5" font-family="Helvetica,sans-Serif" font-size="10.00" fill="#000000">G3T1_5::setUp</text>
</a>
</g>
</g>
<!-- Node1&#45;&gt;Node27 -->
<g id="edge29" class="edge">
<title>Node1&#45;&gt;Node27</title>
<path fill="none" stroke="#191970" d="M44.9662,-350.9487C48.2181,-306.6141 62.3857,-199.711 124,-143 131.9012,-135.7276 142.2305,-131.1646 152.6218,-128.3216"/>
<polygon fill="#191970" stroke="#191970" points="41.4667,-350.8324 44.341,-361.0298 48.4533,-351.2657 41.4667,-350.8324"/>
</g>
<!-- Node28 -->
<g id="node28" class="node">
<title>Node28</title>
<g id="a_node28"><a xlink:href="classG3T1__6.html#a18cb80842d7823ae9929b29af6ab89e8" target="_top" xlink:title="G3T1_6::setUp">
<polygon fill="#ffffff" stroke="#000000" points="153,-76.5 153,-95.5 241,-95.5 241,-76.5 153,-76.5"/>
<text text-anchor="middle" x="197" y="-83.5" font-family="Helvetica,sans-Serif" font-size="10.00" fill="#000000">G3T1_6::setUp</text>
</a>
</g>
</g>
<!-- Node1&#45;&gt;Node28 -->
<g id="edge30" class="edge">
<title>Node1&#45;&gt;Node28</title>
<path fill="none" stroke="#191970" d="M47.3495,-351.3777C57.1876,-295.9668 87.6062,-140.0533 124,-105 131.8288,-97.4596 142.2547,-92.8114 152.7707,-89.9727"/>
<polygon fill="#191970" stroke="#191970" points="43.8846,-350.8739 45.614,-361.3266 50.7805,-352.0769 43.8846,-350.8739"/>
</g>
<!-- Node29 -->
<g id="node29" class="node">
<title>Node29</title>
<g id="a_node29"><a xlink:href="classSensor.html#a476760a7dd4be51136bf165e183526cf" target="_top" xlink:title="Sensor::reconfigure">
<polygon fill="#ffffff" stroke="#000000" points="142,-38.5 142,-57.5 252,-57.5 252,-38.5 142,-38.5"/>
<text text-anchor="middle" x="197" y="-45.5" font-family="Helvetica,sans-Serif" font-size="10.00" fill="#000000">Sensor::reconfigure</text>
</a>
</g>
</g>
<!-- Node1&#45;&gt;Node29 -->
<g id="edge31" class="edge">
<title>Node1&#45;&gt;Node29</title>
<path fill="none" stroke="#191970" d="M46.6099,-351.0393C54.973,-290.0654 82.9782,-107.9113 124,-67 129.0072,-62.0063 135.1501,-58.2739 141.7268,-55.4929"/>
<polygon fill="#191970" stroke="#191970" points="43.1011,-350.8714 45.2394,-361.2482 50.0389,-351.8028 43.1011,-350.8714"/>
</g>
<!-- Node32 -->
<g id="node32" class="node">
<title>Node32</title>
<g id="a_node32"><a xlink:href="classSensor.html#a941f539d5f022334095705710338469c" target="_top" xlink:title="Sensor::injectUncertainty">
<polygon fill="#ffffff" stroke="#000000" points="127,-.5 127,-19.5 267,-19.5 267,-.5 127,-.5"/>
<text text-anchor="middle" x="197" y="-7.5" font-family="Helvetica,sans-Serif" font-size="10.00" fill="#000000">Sensor::injectUncertainty</text>
</a>
</g>
</g>
<!-- Node1&#45;&gt;Node32 -->
<g id="edge34" class="edge">
<title>Node1&#45;&gt;Node32</title>
<path fill="none" stroke="#191970" d="M45.9682,-351.1826C52.8913,-285.4231 78.2093,-75.9425 124,-29 127.7492,-25.1565 132.17,-22.0567 136.951,-19.5611"/>
<polygon fill="#191970" stroke="#191970" points="42.4582,-351.102 44.9197,-361.4069 49.4217,-351.8162 42.4582,-351.102"/>
</g>
<!-- Node4 -->
<g id="node4" class="node">
<title>Node4</title>
<g id="a_node4"><a xlink:href="classDataAccess.html#a79a37674517514869067d9afbf0417c1" target="_top" xlink:title="DataAccess::setUp">
<polygon fill="#ffffff" stroke="#000000" points="314.5,-696.5 314.5,-715.5 422.5,-715.5 422.5,-696.5 314.5,-696.5"/>
<text text-anchor="middle" x="368.5" y="-703.5" font-family="Helvetica,sans-Serif" font-size="10.00" fill="#000000">DataAccess::setUp</text>
</a>
</g>
</g>
<!-- Node3&#45;&gt;Node4 -->
<g id="edge3" class="edge">
<title>Node3&#45;&gt;Node4</title>
<path fill="none" stroke="#191970" d="M280.3727,-706C291.9569,-706 303.599,-706 314.4524,-706"/>
<polygon fill="#191970" stroke="#191970" points="280.2289,-702.5001 270.2289,-706 280.2289,-709.5001 280.2289,-702.5001"/>
</g>
<!-- Node9 -->
<g id="node9" class="node">
<title>Node9</title>
<g id="a_node9"><a xlink:href="classCostEngine.html#aca556d9a4dd63201a41c04498b4f2e3d" target="_top" xlink:title="CostEngine::plan">
<polygon fill="#ffffff" stroke="#000000" points="319.5,-544.5 319.5,-563.5 417.5,-563.5 417.5,-544.5 319.5,-544.5"/>
<text text-anchor="middle" x="368.5" y="-551.5" font-family="Helvetica,sans-Serif" font-size="10.00" fill="#000000">CostEngine::plan</text>
</a>
</g>
</g>
<!-- Node8&#45;&gt;Node9 -->
<g id="edge8" class="edge">
<title>Node8&#45;&gt;Node9</title>
<path fill="none" stroke="#191970" d="M265.2657,-554C283.3492,-554 302.5162,-554 319.3622,-554"/>
<polygon fill="#191970" stroke="#191970" points="265.0621,-550.5001 255.0621,-554 265.062,-557.5001 265.0621,-550.5001"/>
</g>
<!-- Node10 -->
<g id="node10" class="node">
<title>Node10</title>
<g id="a_node10"><a xlink:href="classCostEngine.html#ac10858408b67774d09aa0cae6b2baa59" target="_top" xlink:title="CostEngine::analyze">
<polygon fill="#ffffff" stroke="#000000" points="467,-544.5 467,-563.5 583,-563.5 583,-544.5 467,-544.5"/>
<text text-anchor="middle" x="525" y="-551.5" font-family="Helvetica,sans-Serif" font-size="10.00" fill="#000000">CostEngine::analyze</text>
</a>
</g>
</g>
<!-- Node9&#45;&gt;Node10 -->
<g id="edge9" class="edge">
<title>Node9&#45;&gt;Node10</title>
<path fill="none" stroke="#191970" d="M427.6709,-554C440.4726,-554 453.9998,-554 466.7651,-554"/>
<polygon fill="#191970" stroke="#191970" points="427.5882,-550.5001 417.5882,-554 427.5882,-557.5001 427.5882,-550.5001"/>
</g>
<!-- Node10&#45;&gt;Node7 -->
<g id="edge10" class="edge">
<title>Node10&#45;&gt;Node7</title>
<path fill="none" stroke="#191970" d="M593.264,-562.533C601.7979,-563.5997 610.4632,-564.6829 618.8236,-565.728"/>
<polygon fill="#191970" stroke="#191970" points="593.6894,-559.059 583.3325,-561.2916 592.8211,-566.005 593.6894,-559.059"/>
</g>
<!-- Node12 -->
<g id="node12" class="node">
<title>Node12</title>
<g id="a_node12"><a xlink:href="classEngine.html#ae164dcb3bf318cb307ab7266974c2064" target="_top" xlink:title="Engine::body">
<polygon fill="#ffffff" stroke="#000000" points="328.5,-506.5 328.5,-525.5 408.5,-525.5 408.5,-506.5 328.5,-506.5"/>
<text text-anchor="middle" x="368.5" y="-513.5" font-family="Helvetica,sans-Serif" font-size="10.00" fill="#000000">Engine::body</text>
</a>
</g>
</g>
<!-- Node11&#45;&gt;Node12 -->
<g id="edge12" class="edge">
<title>Node11&#45;&gt;Node12</title>
<path fill="none" stroke="#191970" d="M277.5275,-516C295.0777,-516 312.9206,-516 328.1012,-516"/>
<polygon fill="#191970" stroke="#191970" points="277.2505,-512.5001 267.2504,-516 277.2504,-519.5001 277.2505,-512.5001"/>
</g>
<!-- Node15 -->
<g id="node15" class="node">
<title>Node15</title>
<g id="a_node15"><a xlink:href="classReliabilityEngine.html#ac7179c4014de0c259d7794f544a2d1c7" target="_top" xlink:title="ReliabilityEngine::plan">
<polygon fill="#ffffff" stroke="#000000" points="306,-424.5 306,-443.5 431,-443.5 431,-424.5 306,-424.5"/>
<text text-anchor="middle" x="368.5" y="-431.5" font-family="Helvetica,sans-Serif" font-size="10.00" fill="#000000">ReliabilityEngine::plan</text>
</a>
</g>
</g>
<!-- Node14&#45;&gt;Node15 -->
<g id="edge15" class="edge">
<title>Node14&#45;&gt;Node15</title>
<path fill="none" stroke="#191970" d="M259.6318,-434C274.7033,-434 290.8044,-434 305.8756,-434"/>
<polygon fill="#191970" stroke="#191970" points="259.3876,-430.5001 249.3875,-434 259.3875,-437.5001 259.3876,-430.5001"/>
</g>
<!-- Node16 -->
<g id="node16" class="node">
<title>Node16</title>
<g id="a_node16"><a xlink:href="classReliabilityEngine.html#a2fb81703ab556e8418389e4483ceaaed" target="_top" xlink:title="ReliabilityEngine::\lanalyze">
<polygon fill="#ffffff" stroke="#000000" points="473,-419 473,-449 577,-449 577,-419 473,-419"/>
<text text-anchor="start" x="481" y="-437" font-family="Helvetica,sans-Serif" font-size="10.00" fill="#000000">ReliabilityEngine::</text>
<text text-anchor="middle" x="525" y="-426" font-family="Helvetica,sans-Serif" font-size="10.00" fill="#000000">analyze</text>
</a>
</g>
</g>
<!-- Node15&#45;&gt;Node16 -->
<g id="edge16" class="edge">
<title>Node15&#45;&gt;Node16</title>
<path fill="none" stroke="#191970" d="M441.3539,-434C451.9586,-434 462.6961,-434 472.7824,-434"/>
<polygon fill="#191970" stroke="#191970" points="441.2528,-430.5001 431.2528,-434 441.2528,-437.5001 441.2528,-430.5001"/>
</g>
<!-- Node16&#45;&gt;Node13 -->
<g id="edge17" class="edge">
<title>Node16&#45;&gt;Node13</title>
<path fill="none" stroke="#191970" d="M587.5735,-443.0567C599.9659,-444.8503 612.8501,-446.7152 624.8514,-448.4522"/>
<polygon fill="#191970" stroke="#191970" points="587.708,-439.5398 577.3098,-441.5712 586.7053,-446.4676 587.708,-439.5398"/>
</g>
<!-- Node18 -->
<g id="node18" class="node">
<title>Node18</title>
<g id="a_node18"><a xlink:href="classEnactor.html#abd25ade60e175a09b8a71f2d0c87c7d1" target="_top" xlink:title="Enactor::body">
<polygon fill="#ffffff" stroke="#000000" points="327,-361.5 327,-380.5 410,-380.5 410,-361.5 327,-361.5"/>
<text text-anchor="middle" x="368.5" y="-368.5" font-family="Helvetica,sans-Serif" font-size="10.00" fill="#000000">Enactor::body</text>
</a>
</g>
</g>
<!-- Node17&#45;&gt;Node18 -->
<g id="edge19" class="edge">
<title>Node17&#45;&gt;Node18</title>
<path fill="none" stroke="#191970" d="M270.3945,-381.8688C289.749,-379.7246 309.9612,-377.4853 326.9752,-375.6004"/>
<polygon fill="#191970" stroke="#191970" points="269.9268,-378.3991 260.373,-382.9791 270.6976,-385.3566 269.9268,-378.3991"/>
</g>
<!-- Node19&#45;&gt;Node18 -->
<g id="edge21" class="edge">
<title>Node19&#45;&gt;Node18</title>
<path fill="none" stroke="#191970" d="M276.0383,-360.7564C293.5945,-362.7014 311.5284,-364.6883 326.8718,-366.3881"/>
<polygon fill="#191970" stroke="#191970" points="276.0921,-357.2411 265.7674,-359.6185 275.3212,-364.1985 276.0921,-357.2411"/>
</g>
<!-- Node21 -->
<g id="node21" class="node">
<title>Node21</title>
<g id="a_node21"><a xlink:href="classCentralHub.html#a388e947318a28cf7cac762ac8b1cf3d4" target="_top" xlink:title="CentralHub::run">
<polygon fill="#ffffff" stroke="#000000" points="322,-304.5 322,-323.5 415,-323.5 415,-304.5 322,-304.5"/>
<text text-anchor="middle" x="368.5" y="-311.5" font-family="Helvetica,sans-Serif" font-size="10.00" fill="#000000">CentralHub::run</text>
</a>
</g>
</g>
<!-- Node20&#45;&gt;Node21 -->
<g id="edge23" class="edge">
<title>Node20&#45;&gt;Node21</title>
<path fill="none" stroke="#191970" d="M273.4706,-314C289.926,-314 306.8426,-314 321.7581,-314"/>
<polygon fill="#191970" stroke="#191970" points="273.3064,-310.5001 263.3064,-314 273.3063,-317.5001 273.3064,-310.5001"/>
</g>
<!-- Node22 -->
<g id="node22" class="node">
<title>Node22</title>
<g id="a_node22"><a xlink:href="g4t1_8cpp.html#af19ddca125f05a2090dd132045573ee4" target="_top" xlink:title="main">
<polygon fill="#ffffff" stroke="#000000" points="504.5,-304.5 504.5,-323.5 545.5,-323.5 545.5,-304.5 504.5,-304.5"/>
<text text-anchor="middle" x="525" y="-311.5" font-family="Helvetica,sans-Serif" font-size="10.00" fill="#000000">main</text>
</a>
</g>
</g>
<!-- Node21&#45;&gt;Node22 -->
<g id="edge24" class="edge">
<title>Node21&#45;&gt;Node22</title>
<path fill="none" stroke="#191970" d="M425.3876,-314C452.982,-314 484.4146,-314 504.4637,-314"/>
<polygon fill="#191970" stroke="#191970" points="425.0315,-310.5001 415.0314,-314 425.0314,-317.5001 425.0315,-310.5001"/>
</g>
<!-- Node30 -->
<g id="node30" class="node">
<title>Node30</title>
<g id="a_node30"><a xlink:href="classSensor.html#a1a664cdb090cb4295bbdedcffb1c8499" target="_top" xlink:title="Sensor::run">
<polygon fill="#ffffff" stroke="#000000" points="333,-19.5 333,-38.5 404,-38.5 404,-19.5 333,-19.5"/>
<text text-anchor="middle" x="368.5" y="-26.5" font-family="Helvetica,sans-Serif" font-size="10.00" fill="#000000">Sensor::run</text>
</a>
</g>
</g>
<!-- Node29&#45;&gt;Node30 -->
<g id="edge32" class="edge">
<title>Node29&#45;&gt;Node30</title>
<path fill="none" stroke="#191970" d="M262.3074,-40.7648C286.2508,-38.1122 312.4523,-35.2094 332.8382,-32.9509"/>
<polygon fill="#191970" stroke="#191970" points="261.7615,-37.3038 252.2077,-41.8837 262.5323,-44.2612 261.7615,-37.3038"/>
</g>
<!-- Node31 -->
<g id="node31" class="node">
<title>Node31</title>
<g id="a_node31"><a xlink:href="g3t1__1_8cpp.html#a3c04138a5bfe5d72780bb7e82a18e627" target="_top" xlink:title="main">
<polygon fill="#ffffff" stroke="#000000" points="504.5,-19.5 504.5,-38.5 545.5,-38.5 545.5,-19.5 504.5,-19.5"/>
<text text-anchor="middle" x="525" y="-26.5" font-family="Helvetica,sans-Serif" font-size="10.00" fill="#000000">main</text>
</a>
</g>
</g>
<!-- Node30&#45;&gt;Node31 -->
<g id="edge33" class="edge">
<title>Node30&#45;&gt;Node31</title>
<path fill="none" stroke="#191970" d="M414.2228,-29C444.1013,-29 481.6768,-29 504.4901,-29"/>
<polygon fill="#191970" stroke="#191970" points="414.0123,-25.5001 404.0123,-29 414.0122,-32.5001 414.0123,-25.5001"/>
</g>
<!-- Node32&#45;&gt;Node30 -->
<g id="edge35" class="edge">
<title>Node32&#45;&gt;Node30</title>
<path fill="none" stroke="#191970" d="M277.3782,-18.9049C296.8507,-21.0622 316.6942,-23.2606 332.8707,-25.0527"/>
<polygon fill="#191970" stroke="#191970" points="277.5751,-15.4054 267.2504,-17.7828 276.8042,-22.3628 277.5751,-15.4054"/>
</g>
</g>
</svg>
