<?xml version="1.0" encoding="UTF-8" standalone="no"?>
<!DOCTYPE svg PUBLIC "-//W3C//DTD SVG 1.1//EN"
 "http://www.w3.org/Graphics/SVG/1.1/DTD/svg11.dtd">
<!-- Generated by graphviz version 2.40.1 (20161225.0304)
 -->
<!-- Title: src/libbsn/include/libbsn/goalmodel/Node.hpp Pages: 1 -->
<svg width="1862pt" height="541pt"
 viewBox="0.00 0.00 1862.00 541.00" xmlns="http://www.w3.org/2000/svg" xmlns:xlink="http://www.w3.org/1999/xlink">
<g id="graph0" class="graph" transform="scale(1 1) rotate(0) translate(4 537)">
<title>src/libbsn/include/libbsn/goalmodel/Node.hpp</title>
<polygon fill="#ffffff" stroke="transparent" points="-4,4 -4,-537 1858,-537 1858,4 -4,4"/>
<!-- Node5 -->
<g id="node1" class="node">
<title>Node5</title>
<polygon fill="#bfbfbf" stroke="#000000" points="1064.5,-502.5 1064.5,-532.5 1217.5,-532.5 1217.5,-502.5 1064.5,-502.5"/>
<text text-anchor="start" x="1072.5" y="-520.5" font-family="Helvetica,sans-Serif" font-size="10.00" fill="#000000">src/libbsn/include</text>
<text text-anchor="middle" x="1141" y="-509.5" font-family="Helvetica,sans-Serif" font-size="10.00" fill="#000000">/libbsn/goalmodel/Node.hpp</text>
</g>
<!-- Node6 -->
<g id="node2" class="node">
<title>Node6</title>
<g id="a_node2"><a xlink:href="Goal_8hpp.html" target="_top" xlink:title="src/libbsn/include\l/libbsn/goalmodel/Goal.hpp">
<polygon fill="#ffffff" stroke="#000000" points="1066,-435.5 1066,-465.5 1216,-465.5 1216,-435.5 1066,-435.5"/>
<text text-anchor="start" x="1074" y="-453.5" font-family="Helvetica,sans-Serif" font-size="10.00" fill="#000000">src/libbsn/include</text>
<text text-anchor="middle" x="1141" y="-442.5" font-family="Helvetica,sans-Serif" font-size="10.00" fill="#000000">/libbsn/goalmodel/Goal.hpp</text>
</a>
</g>
</g>
<!-- Node5&#45;&gt;Node6 -->
<g id="edge1" class="edge">
<title>Node5&#45;&gt;Node6</title>
<path fill="none" stroke="#191970" d="M1141,-492.0249C1141,-483.128 1141,-473.4287 1141,-465.6432"/>
<polygon fill="#191970" stroke="#191970" points="1137.5001,-492.2966 1141,-502.2967 1144.5001,-492.2967 1137.5001,-492.2966"/>
</g>
<!-- Node7 -->
<g id="node3" class="node">
<title>Node7</title>
<g id="a_node3"><a xlink:href="GoalTree_8hpp.html" target="_top" xlink:title="src/libbsn/include\l/libbsn/goalmodel/GoalTree.hpp">
<polygon fill="#ffffff" stroke="#000000" points="277,-234.5 277,-264.5 447,-264.5 447,-234.5 277,-234.5"/>
<text text-anchor="start" x="285" y="-252.5" font-family="Helvetica,sans-Serif" font-size="10.00" fill="#000000">src/libbsn/include</text>
<text text-anchor="middle" x="362" y="-241.5" font-family="Helvetica,sans-Serif" font-size="10.00" fill="#000000">/libbsn/goalmodel/GoalTree.hpp</text>
</a>
</g>
</g>
<!-- Node5&#45;&gt;Node7 -->
<g id="edge45" class="edge">
<title>Node5&#45;&gt;Node7</title>
<path fill="none" stroke="#191970" d="M1054.1023,-505.7877C938.4062,-488.8741 728.2311,-453.5269 555,-399 483.8022,-376.5895 454.5972,-383.949 401,-332 381.547,-313.1452 370.6809,-282.6692 365.6097,-264.5099"/>
<polygon fill="#191970" stroke="#191970" points="1053.9172,-509.2974 1064.316,-507.2687 1054.9218,-502.3698 1053.9172,-509.2974"/>
</g>
<!-- Node10 -->
<g id="node6" class="node">
<title>Node10</title>
<g id="a_node6"><a xlink:href="DataAccess_8hpp.html" target="_top" xlink:title="src/sa&#45;bsn/knowledge\l_repository/data_access\l/include/data_access/DataAccess.hpp">
<polygon fill="#ffffff" stroke="#000000" points="690.5,-156.5 690.5,-197.5 889.5,-197.5 889.5,-156.5 690.5,-156.5"/>
<text text-anchor="start" x="698.5" y="-185.5" font-family="Helvetica,sans-Serif" font-size="10.00" fill="#000000">src/sa&#45;bsn/knowledge</text>
<text text-anchor="start" x="698.5" y="-174.5" font-family="Helvetica,sans-Serif" font-size="10.00" fill="#000000">_repository/data_access</text>
<text text-anchor="middle" x="790" y="-163.5" font-family="Helvetica,sans-Serif" font-size="10.00" fill="#000000">/include/data_access/DataAccess.hpp</text>
</a>
</g>
</g>
<!-- Node5&#45;&gt;Node10 -->
<g id="edge51" class="edge">
<title>Node5&#45;&gt;Node10</title>
<path fill="none" stroke="#191970" d="M1102.461,-497.3275C1087.5381,-488.6544 1070.7698,-477.7972 1057,-466 954.2755,-377.9911 956.6303,-328.6597 860,-234 846.7893,-221.0587 830.8848,-207.9373 817.5766,-197.5513"/>
<polygon fill="#191970" stroke="#191970" points="1101.0452,-500.5481 1111.4708,-502.4343 1104.4969,-494.4583 1101.0452,-500.5481"/>
</g>
<!-- Node13 -->
<g id="node9" class="node">
<title>Node13</title>
<g id="a_node9"><a xlink:href="CostEngine_8hpp.html" target="_top" xlink:title="src/sa&#45;bsn/system_manager\l/adaptation_engine/include\l/engine/CostEngine.hpp">
<polygon fill="#ffffff" stroke="#000000" points="172,-78.5 172,-119.5 326,-119.5 326,-78.5 172,-78.5"/>
<text text-anchor="start" x="180" y="-107.5" font-family="Helvetica,sans-Serif" font-size="10.00" fill="#000000">src/sa&#45;bsn/system_manager</text>
<text text-anchor="start" x="180" y="-96.5" font-family="Helvetica,sans-Serif" font-size="10.00" fill="#000000">/adaptation_engine/include</text>
<text text-anchor="middle" x="249" y="-85.5" font-family="Helvetica,sans-Serif" font-size="10.00" fill="#000000">/engine/CostEngine.hpp</text>
</a>
</g>
</g>
<!-- Node5&#45;&gt;Node13 -->
<g id="edge52" class="edge">
<title>Node5&#45;&gt;Node13</title>
<path fill="none" stroke="#191970" d="M1054.0882,-514.285C816.9728,-505.3521 173.6272,-479.9721 130,-466 65.1872,-445.243 1,-451.5555 1,-383.5 1,-383.5 1,-383.5 1,-249.5 1,-203.1876 11.409,-185.6331 47,-156 52.1106,-151.7449 117.0937,-133.8037 171.995,-119.171"/>
<polygon fill="#191970" stroke="#191970" points="1054.2661,-517.7941 1064.3905,-514.6724 1054.5292,-510.799 1054.2661,-517.7941"/>
</g>
<!-- Node16 -->
<g id="node12" class="node">
<title>Node16</title>
<g id="a_node12"><a xlink:href="Engine_8hpp.html" target="_top" xlink:title="src/sa&#45;bsn/system_manager\l/adaptation_engine/include\l/engine/Engine.hpp">
<polygon fill="#ffffff" stroke="#000000" points="67,-156.5 67,-197.5 221,-197.5 221,-156.5 67,-156.5"/>
<text text-anchor="start" x="75" y="-185.5" font-family="Helvetica,sans-Serif" font-size="10.00" fill="#000000">src/sa&#45;bsn/system_manager</text>
<text text-anchor="start" x="75" y="-174.5" font-family="Helvetica,sans-Serif" font-size="10.00" fill="#000000">/adaptation_engine/include</text>
<text text-anchor="middle" x="144" y="-163.5" font-family="Helvetica,sans-Serif" font-size="10.00" fill="#000000">/engine/Engine.hpp</text>
</a>
</g>
</g>
<!-- Node5&#45;&gt;Node16 -->
<g id="edge53" class="edge">
<title>Node5&#45;&gt;Node16</title>
<path fill="none" stroke="#191970" d="M1054.2293,-516.0314C794.163,-510.4897 39,-485.6071 39,-383.5 39,-383.5 39,-383.5 39,-316.5 39,-265.8781 83.683,-221.9374 114.7516,-197.5033"/>
<polygon fill="#191970" stroke="#191970" points="1054.3136,-519.5338 1064.3844,-516.2433 1054.4596,-512.5353 1054.3136,-519.5338"/>
</g>
<!-- Node17 -->
<g id="node13" class="node">
<title>Node17</title>
<g id="a_node13"><a xlink:href="ReliabilityEngine_8hpp.html" target="_top" xlink:title="src/sa&#45;bsn/system_manager\l/adaptation_engine/include\l/engine/ReliabilityEngine.hpp">
<polygon fill="#ffffff" stroke="#000000" points="1008,-78.5 1008,-119.5 1166,-119.5 1166,-78.5 1008,-78.5"/>
<text text-anchor="start" x="1016" y="-107.5" font-family="Helvetica,sans-Serif" font-size="10.00" fill="#000000">src/sa&#45;bsn/system_manager</text>
<text text-anchor="start" x="1016" y="-96.5" font-family="Helvetica,sans-Serif" font-size="10.00" fill="#000000">/adaptation_engine/include</text>
<text text-anchor="middle" x="1087" y="-85.5" font-family="Helvetica,sans-Serif" font-size="10.00" fill="#000000">/engine/ReliabilityEngine.hpp</text>
</a>
</g>
</g>
<!-- Node5&#45;&gt;Node17 -->
<g id="edge54" class="edge">
<title>Node5&#45;&gt;Node17</title>
<path fill="none" stroke="#191970" d="M1228.006,-505.5108C1343.2193,-487.1478 1532,-447.3218 1532,-383.5 1532,-383.5 1532,-383.5 1532,-249.5 1532,-173.1435 1293.9196,-127.9689 1166.0443,-109.2121"/>
<polygon fill="#191970" stroke="#191970" points="1227.1191,-502.107 1217.7825,-507.1148 1228.2042,-509.0224 1227.1191,-502.107"/>
</g>
<!-- Node21 -->
<g id="node17" class="node">
<title>Node21</title>
<g id="a_node17"><a xlink:href="Task_8hpp.html" target="_top" xlink:title="src/libbsn/include\l/libbsn/goalmodel/Task.hpp">
<polygon fill="#ffffff" stroke="#000000" points="805.5,-368.5 805.5,-398.5 954.5,-398.5 954.5,-368.5 805.5,-368.5"/>
<text text-anchor="start" x="813.5" y="-386.5" font-family="Helvetica,sans-Serif" font-size="10.00" fill="#000000">src/libbsn/include</text>
<text text-anchor="middle" x="880" y="-375.5" font-family="Helvetica,sans-Serif" font-size="10.00" fill="#000000">/libbsn/goalmodel/Task.hpp</text>
</a>
</g>
</g>
<!-- Node5&#45;&gt;Node21 -->
<g id="edge46" class="edge">
<title>Node5&#45;&gt;Node21</title>
<path fill="none" stroke="#191970" d="M1065.178,-499.6847C1037.4263,-491.5241 1006.3827,-480.4025 980,-466 946.2192,-447.5589 912.9492,-416.9439 894.58,-398.6467"/>
<polygon fill="#191970" stroke="#191970" points="1064.2669,-503.0644 1074.8438,-502.4483 1066.1912,-496.3341 1064.2669,-503.0644"/>
</g>
<!-- Node25 -->
<g id="node21" class="node">
<title>Node25</title>
<g id="a_node21"><a xlink:href="TaskTest_8cpp.html" target="_top" xlink:title="src/libbsn/test/unit\l/goalmodel/TaskTest.cpp">
<polygon fill="#ffffff" stroke="#000000" points="1098,-234.5 1098,-264.5 1234,-264.5 1234,-234.5 1098,-234.5"/>
<text text-anchor="start" x="1106" y="-252.5" font-family="Helvetica,sans-Serif" font-size="10.00" fill="#000000">src/libbsn/test/unit</text>
<text text-anchor="middle" x="1166" y="-241.5" font-family="Helvetica,sans-Serif" font-size="10.00" fill="#000000">/goalmodel/TaskTest.cpp</text>
</a>
</g>
</g>
<!-- Node5&#45;&gt;Node25 -->
<g id="edge50" class="edge">
<title>Node5&#45;&gt;Node25</title>
<path fill="none" stroke="#191970" d="M1221.3881,-500.1575C1310.3475,-479.1446 1445.1494,-441.2644 1475,-399 1539.463,-307.7292 1343.7373,-269.9578 1234.378,-256.279"/>
<polygon fill="#191970" stroke="#191970" points="1220.5257,-496.7647 1211.5847,-502.4489 1222.1189,-503.5809 1220.5257,-496.7647"/>
</g>
<!-- Node28 -->
<g id="node24" class="node">
<title>Node28</title>
<g id="a_node24"><a xlink:href="GoalTest_8cpp.html" target="_top" xlink:title="src/libbsn/test/unit\l/goalmodel/GoalTest.cpp">
<polygon fill="#ffffff" stroke="#000000" points="1328.5,-368.5 1328.5,-398.5 1465.5,-398.5 1465.5,-368.5 1328.5,-368.5"/>
<text text-anchor="start" x="1336.5" y="-386.5" font-family="Helvetica,sans-Serif" font-size="10.00" fill="#000000">src/libbsn/test/unit</text>
<text text-anchor="middle" x="1397" y="-375.5" font-family="Helvetica,sans-Serif" font-size="10.00" fill="#000000">/goalmodel/GoalTest.cpp</text>
</a>
</g>
</g>
<!-- Node5&#45;&gt;Node28 -->
<g id="edge48" class="edge">
<title>Node5&#45;&gt;Node28</title>
<path fill="none" stroke="#191970" d="M1179.0347,-497.5912C1230.6932,-470.5512 1321.8957,-422.8124 1368.2367,-398.5558"/>
<polygon fill="#191970" stroke="#191970" points="1177.1054,-494.6506 1169.8688,-502.389 1180.3516,-500.8523 1177.1054,-494.6506"/>
</g>
<!-- Node29 -->
<g id="node25" class="node">
<title>Node29</title>
<g id="a_node25"><a xlink:href="Node_8cpp.html" target="_top" xlink:title="src/libbsn/src/goalmodel\l/Node.cpp">
<polygon fill="#ffffff" stroke="#000000" points="1560.5,-435.5 1560.5,-465.5 1695.5,-465.5 1695.5,-435.5 1560.5,-435.5"/>
<text text-anchor="start" x="1568.5" y="-453.5" font-family="Helvetica,sans-Serif" font-size="10.00" fill="#000000">src/libbsn/src/goalmodel</text>
<text text-anchor="middle" x="1628" y="-442.5" font-family="Helvetica,sans-Serif" font-size="10.00" fill="#000000">/Node.cpp</text>
</a>
</g>
</g>
<!-- Node5&#45;&gt;Node29 -->
<g id="edge47" class="edge">
<title>Node5&#45;&gt;Node29</title>
<path fill="none" stroke="#191970" d="M1227.7501,-508.003C1309.9035,-498.6466 1436.6196,-483.2761 1546,-466 1550.7226,-465.2541 1555.5902,-464.4429 1560.487,-463.5957"/>
<polygon fill="#191970" stroke="#191970" points="1227.2494,-504.5373 1217.7076,-509.1421 1228.0384,-511.4927 1227.2494,-504.5373"/>
</g>
<!-- Node30 -->
<g id="node26" class="node">
<title>Node30</title>
<g id="a_node26"><a xlink:href="NodeTest_8cpp.html" target="_top" xlink:title="src/libbsn/test/unit\l/goalmodel/NodeTest.cpp">
<polygon fill="#ffffff" stroke="#000000" points="1714,-435.5 1714,-465.5 1854,-465.5 1854,-435.5 1714,-435.5"/>
<text text-anchor="start" x="1722" y="-453.5" font-family="Helvetica,sans-Serif" font-size="10.00" fill="#000000">src/libbsn/test/unit</text>
<text text-anchor="middle" x="1784" y="-442.5" font-family="Helvetica,sans-Serif" font-size="10.00" fill="#000000">/goalmodel/NodeTest.cpp</text>
</a>
</g>
</g>
<!-- Node5&#45;&gt;Node30 -->
<g id="edge49" class="edge">
<title>Node5&#45;&gt;Node30</title>
<path fill="none" stroke="#191970" d="M1228.0659,-512.3338C1339.1404,-505.1051 1536.9994,-490.0864 1705,-466 1707.9054,-465.5834 1710.8658,-465.1309 1713.8525,-464.6512"/>
<polygon fill="#191970" stroke="#191970" points="1227.6745,-508.8517 1217.9205,-512.988 1228.125,-515.8371 1227.6745,-508.8517"/>
</g>
<!-- Node6&#45;&gt;Node7 -->
<g id="edge2" class="edge">
<title>Node6&#45;&gt;Node7</title>
<path fill="none" stroke="#191970" d="M1055.4093,-442.7209C893.4274,-426.903 548.8784,-387.7073 444,-332 413.1461,-315.6116 386.5454,-283.697 372.5398,-264.7251"/>
<polygon fill="#191970" stroke="#191970" points="1055.5193,-446.2478 1065.8103,-443.7289 1056.1946,-439.2805 1055.5193,-446.2478"/>
</g>
<!-- Node9 -->
<g id="node5" class="node">
<title>Node9</title>
<g id="a_node5"><a xlink:href="GoalTreeTest_8cpp.html" target="_top" xlink:title="src/libbsn/test/unit\l/goalmodel/GoalTreeTest.cpp">
<polygon fill="#ffffff" stroke="#000000" points="946.5,-162 946.5,-192 1103.5,-192 1103.5,-162 946.5,-162"/>
<text text-anchor="start" x="954.5" y="-180" font-family="Helvetica,sans-Serif" font-size="10.00" fill="#000000">src/libbsn/test/unit</text>
<text text-anchor="middle" x="1025" y="-169" font-family="Helvetica,sans-Serif" font-size="10.00" fill="#000000">/goalmodel/GoalTreeTest.cpp</text>
</a>
</g>
</g>
<!-- Node6&#45;&gt;Node9 -->
<g id="edge39" class="edge">
<title>Node6&#45;&gt;Node9</title>
<path fill="none" stroke="#191970" d="M1190.1514,-431.1367C1206.6961,-422.965 1224.3913,-412.235 1238,-399 1291.9475,-346.534 1322.9517,-292.8095 1276,-234 1254.6367,-207.2413 1168.9023,-192.0933 1103.5218,-184.2442"/>
<polygon fill="#191970" stroke="#191970" points="1188.6544,-427.9729 1181.1115,-435.413 1191.6478,-434.3007 1188.6544,-427.9729"/>
</g>
<!-- Node6&#45;&gt;Node10 -->
<g id="edge41" class="edge">
<title>Node6&#45;&gt;Node10</title>
<path fill="none" stroke="#191970" d="M1166.2314,-428.4516C1211.3264,-386.4674 1296.2647,-293.8985 1243,-234 1197.5014,-182.8348 1004.8956,-206.8422 937,-198 921.6616,-196.0024 905.4381,-193.7877 889.587,-191.5673"/>
<polygon fill="#191970" stroke="#191970" points="1163.5968,-426.118 1158.5782,-435.4488 1168.3202,-431.2842 1163.5968,-426.118"/>
</g>
<!-- Node6&#45;&gt;Node13 -->
<g id="edge42" class="edge">
<title>Node6&#45;&gt;Node13</title>
<path fill="none" stroke="#191970" d="M1055.6476,-445.6093C916.7984,-437.214 648.1488,-419.0198 555,-399 378.2761,-361.018 334.8893,-341.2513 171,-265 118.0626,-240.3703 86.8995,-248.7327 58,-198 48.7606,-181.7803 46.8465,-170.9681 58,-156 61.7024,-151.0313 121.067,-133.7755 172.6407,-119.5394"/>
<polygon fill="#191970" stroke="#191970" points="1055.6311,-449.1146 1065.8231,-446.2211 1056.0512,-442.1272 1055.6311,-449.1146"/>
</g>
<!-- Node6&#45;&gt;Node16 -->
<g id="edge43" class="edge">
<title>Node6&#45;&gt;Node16</title>
<path fill="none" stroke="#191970" d="M1055.6476,-445.6093C916.7984,-437.214 648.1488,-419.0198 555,-399 378.2761,-361.018 296.3618,-395.2244 171,-265 153.4887,-246.8095 147.3081,-217.5519 145.1422,-197.8173"/>
<polygon fill="#191970" stroke="#191970" points="1055.6311,-449.1146 1065.8231,-446.2211 1056.0512,-442.1272 1055.6311,-449.1146"/>
</g>
<!-- Node6&#45;&gt;Node17 -->
<g id="edge44" class="edge">
<title>Node6&#45;&gt;Node17</title>
<path fill="none" stroke="#191970" d="M1206.3209,-431.869C1226.5823,-423.962 1248.0257,-413.2084 1265,-399 1292.1322,-376.2889 1298.0419,-365.9527 1308,-332 1311.8776,-318.7791 1309.0197,-314.74 1308,-301 1305.7717,-270.9749 1314.3708,-259.2679 1298,-234 1261.7029,-177.9763 1193.0729,-140.6005 1143.9341,-119.652"/>
<polygon fill="#191970" stroke="#191970" points="1204.9547,-428.6429 1196.8059,-435.4139 1207.3986,-435.2025 1204.9547,-428.6429"/>
</g>
<!-- Node6&#45;&gt;Node21 -->
<g id="edge18" class="edge">
<title>Node6&#45;&gt;Node21</title>
<path fill="none" stroke="#191970" d="M1072.653,-432.955C1031.0847,-422.2842 978.5394,-408.7955 938.829,-398.6017"/>
<polygon fill="#191970" stroke="#191970" points="1071.8703,-436.3675 1082.4265,-435.4639 1073.6108,-429.5873 1071.8703,-436.3675"/>
</g>
<!-- Node6&#45;&gt;Node25 -->
<g id="edge40" class="edge">
<title>Node6&#45;&gt;Node25</title>
<path fill="none" stroke="#191970" d="M1155.9765,-426.609C1160.44,-418.2056 1164.7412,-408.4861 1167,-399 1178.4233,-351.0259 1172.3393,-291.9125 1168.443,-264.6208"/>
<polygon fill="#191970" stroke="#191970" points="1152.8495,-425.0283 1150.9684,-435.4548 1158.941,-428.4771 1152.8495,-425.0283"/>
</g>
<!-- Node27 -->
<g id="node23" class="node">
<title>Node27</title>
<g id="a_node23"><a xlink:href="Goal_8cpp.html" target="_top" xlink:title="src/libbsn/src/goalmodel\l/Goal.cpp">
<polygon fill="#ffffff" stroke="#000000" points="1022.5,-368.5 1022.5,-398.5 1157.5,-398.5 1157.5,-368.5 1022.5,-368.5"/>
<text text-anchor="start" x="1030.5" y="-386.5" font-family="Helvetica,sans-Serif" font-size="10.00" fill="#000000">src/libbsn/src/goalmodel</text>
<text text-anchor="middle" x="1090" y="-375.5" font-family="Helvetica,sans-Serif" font-size="10.00" fill="#000000">/Goal.cpp</text>
</a>
</g>
</g>
<!-- Node6&#45;&gt;Node27 -->
<g id="edge37" class="edge">
<title>Node6&#45;&gt;Node27</title>
<path fill="none" stroke="#191970" d="M1123.1596,-427.0626C1115.9807,-417.6315 1107.9091,-407.0276 1101.5269,-398.6432"/>
<polygon fill="#191970" stroke="#191970" points="1120.5854,-429.4595 1129.4273,-435.2967 1126.1554,-425.2197 1120.5854,-429.4595"/>
</g>
<!-- Node6&#45;&gt;Node28 -->
<g id="edge38" class="edge">
<title>Node6&#45;&gt;Node28</title>
<path fill="none" stroke="#191970" d="M1208.2959,-432.8874C1249.027,-422.2273 1300.4305,-408.774 1339.298,-398.6017"/>
<polygon fill="#191970" stroke="#191970" points="1207.2394,-429.546 1198.4514,-435.4639 1209.0118,-436.3179 1207.2394,-429.546"/>
</g>
<!-- Node8 -->
<g id="node4" class="node">
<title>Node8</title>
<g id="a_node4"><a xlink:href="GoalTree_8cpp.html" target="_top" xlink:title="src/libbsn/src/goalmodel\l/GoalTree.cpp">
<polygon fill="#ffffff" stroke="#000000" points="315.5,-162 315.5,-192 450.5,-192 450.5,-162 315.5,-162"/>
<text text-anchor="start" x="323.5" y="-180" font-family="Helvetica,sans-Serif" font-size="10.00" fill="#000000">src/libbsn/src/goalmodel</text>
<text text-anchor="middle" x="383" y="-169" font-family="Helvetica,sans-Serif" font-size="10.00" fill="#000000">/GoalTree.cpp</text>
</a>
</g>
</g>
<!-- Node7&#45;&gt;Node8 -->
<g id="edge3" class="edge">
<title>Node7&#45;&gt;Node8</title>
<path fill="none" stroke="#191970" d="M369.19,-224.6774C372.3363,-213.8151 375.9243,-201.4281 378.6544,-192.0028"/>
<polygon fill="#191970" stroke="#191970" points="365.7717,-223.899 366.3512,-234.478 372.4953,-225.8466 365.7717,-223.899"/>
</g>
<!-- Node7&#45;&gt;Node9 -->
<g id="edge4" class="edge">
<title>Node7&#45;&gt;Node9</title>
<path fill="none" stroke="#191970" d="M457.4499,-237.9708C469.743,-236.5804 482.1653,-235.2219 494,-234 673.3138,-215.4865 719.1705,-220.7203 898,-198 913.6297,-196.0142 930.2825,-193.5296 946.2096,-190.9714"/>
<polygon fill="#191970" stroke="#191970" points="456.7084,-234.5327 447.1698,-239.1441 457.5022,-241.4875 456.7084,-234.5327"/>
</g>
<!-- Node7&#45;&gt;Node10 -->
<g id="edge5" class="edge">
<title>Node7&#45;&gt;Node10</title>
<path fill="none" stroke="#191970" d="M457.1151,-233.3882C526.4309,-221.6466 620.1219,-205.7761 690.4487,-193.8632"/>
<polygon fill="#191970" stroke="#191970" points="456.3457,-229.9686 447.0708,-235.0897 457.5149,-236.8703 456.3457,-229.9686"/>
</g>
<!-- Node7&#45;&gt;Node13 -->
<g id="edge8" class="edge">
<title>Node7&#45;&gt;Node13</title>
<path fill="none" stroke="#191970" d="M335.1138,-227.7776C325.3015,-219.1087 314.5299,-208.6607 306,-198 286.175,-173.2227 268.8656,-140.7452 258.6715,-119.8713"/>
<polygon fill="#191970" stroke="#191970" points="332.8531,-230.4497 342.7162,-234.3186 337.4185,-225.1434 332.8531,-230.4497"/>
</g>
<!-- Node7&#45;&gt;Node16 -->
<g id="edge11" class="edge">
<title>Node7&#45;&gt;Node16</title>
<path fill="none" stroke="#191970" d="M307.0942,-231.24C276.2106,-220.9691 237.5656,-208.117 205.6459,-197.5015"/>
<polygon fill="#191970" stroke="#191970" points="306.2367,-234.6433 316.8303,-234.478 308.4458,-228.001 306.2367,-234.6433"/>
</g>
<!-- Node7&#45;&gt;Node17 -->
<g id="edge17" class="edge">
<title>Node7&#45;&gt;Node17</title>
<path fill="none" stroke="#191970" d="M415.5565,-231.1972C478.4425,-210.3171 586.2142,-176.4309 681,-156 741.621,-142.9332 907.8182,-121.2463 1007.7818,-108.728"/>
<polygon fill="#191970" stroke="#191970" points="414.2365,-227.9479 405.858,-234.4326 416.4517,-234.5881 414.2365,-227.9479"/>
</g>
<!-- Node11 -->
<g id="node7" class="node">
<title>Node11</title>
<g id="a_node7"><a xlink:href="data__access_8cpp.html" target="_top" xlink:title="src/sa&#45;bsn/knowledge\l_repository/data_access\l/apps/data_access.cpp">
<polygon fill="#ffffff" stroke="#000000" points="767,-78.5 767,-119.5 901,-119.5 901,-78.5 767,-78.5"/>
<text text-anchor="start" x="775" y="-107.5" font-family="Helvetica,sans-Serif" font-size="10.00" fill="#000000">src/sa&#45;bsn/knowledge</text>
<text text-anchor="start" x="775" y="-96.5" font-family="Helvetica,sans-Serif" font-size="10.00" fill="#000000">_repository/data_access</text>
<text text-anchor="middle" x="834" y="-85.5" font-family="Helvetica,sans-Serif" font-size="10.00" fill="#000000">/apps/data_access.cpp</text>
</a>
</g>
</g>
<!-- Node10&#45;&gt;Node11 -->
<g id="edge6" class="edge">
<title>Node10&#45;&gt;Node11</title>
<path fill="none" stroke="#191970" d="M806.7927,-147.2312C811.9766,-138.0415 817.5698,-128.1263 822.3288,-119.6898"/>
<polygon fill="#191970" stroke="#191970" points="803.656,-145.668 801.7912,-156.0974 809.7529,-149.1073 803.656,-145.668"/>
</g>
<!-- Node12 -->
<g id="node8" class="node">
<title>Node12</title>
<g id="a_node8"><a xlink:href="DataAccess_8cpp.html" target="_top" xlink:title="src/sa&#45;bsn/knowledge\l_repository/data_access\l/src/DataAccess.cpp">
<polygon fill="#ffffff" stroke="#000000" points="615,-78.5 615,-119.5 749,-119.5 749,-78.5 615,-78.5"/>
<text text-anchor="start" x="623" y="-107.5" font-family="Helvetica,sans-Serif" font-size="10.00" fill="#000000">src/sa&#45;bsn/knowledge</text>
<text text-anchor="start" x="623" y="-96.5" font-family="Helvetica,sans-Serif" font-size="10.00" fill="#000000">_repository/data_access</text>
<text text-anchor="middle" x="682" y="-85.5" font-family="Helvetica,sans-Serif" font-size="10.00" fill="#000000">/src/DataAccess.cpp</text>
</a>
</g>
</g>
<!-- Node10&#45;&gt;Node12 -->
<g id="edge7" class="edge">
<title>Node10&#45;&gt;Node12</title>
<path fill="none" stroke="#191970" d="M752.93,-150.2272C739.0131,-140.1761 723.4272,-128.9196 710.4176,-119.5239"/>
<polygon fill="#191970" stroke="#191970" points="751.1855,-153.2847 761.3415,-156.3022 755.2839,-147.6099 751.1855,-153.2847"/>
</g>
<!-- Node14 -->
<g id="node10" class="node">
<title>Node14</title>
<g id="a_node10"><a xlink:href="cost__engine_8cpp.html" target="_top" xlink:title="src/sa&#45;bsn/system_manager\l/adaptation_engine/apps\l/cost_engine.cpp">
<polygon fill="#ffffff" stroke="#000000" points="86,-.5 86,-41.5 240,-41.5 240,-.5 86,-.5"/>
<text text-anchor="start" x="94" y="-29.5" font-family="Helvetica,sans-Serif" font-size="10.00" fill="#000000">src/sa&#45;bsn/system_manager</text>
<text text-anchor="start" x="94" y="-18.5" font-family="Helvetica,sans-Serif" font-size="10.00" fill="#000000">/adaptation_engine/apps</text>
<text text-anchor="middle" x="163" y="-7.5" font-family="Helvetica,sans-Serif" font-size="10.00" fill="#000000">/cost_engine.cpp</text>
</a>
</g>
</g>
<!-- Node13&#45;&gt;Node14 -->
<g id="edge9" class="edge">
<title>Node13&#45;&gt;Node14</title>
<path fill="none" stroke="#191970" d="M218.3807,-71.229C207.6487,-61.4953 195.7918,-50.7414 185.8118,-41.6898"/>
<polygon fill="#191970" stroke="#191970" points="216.195,-73.9718 225.9536,-78.0974 220.8977,-68.7867 216.195,-73.9718"/>
</g>
<!-- Node15 -->
<g id="node11" class="node">
<title>Node15</title>
<g id="a_node11"><a xlink:href="CostEngine_8cpp.html" target="_top" xlink:title="src/sa&#45;bsn/system_manager\l/adaptation_engine/src\l/CostEngine.cpp">
<polygon fill="#ffffff" stroke="#000000" points="258,-.5 258,-41.5 412,-41.5 412,-.5 258,-.5"/>
<text text-anchor="start" x="266" y="-29.5" font-family="Helvetica,sans-Serif" font-size="10.00" fill="#000000">src/sa&#45;bsn/system_manager</text>
<text text-anchor="start" x="266" y="-18.5" font-family="Helvetica,sans-Serif" font-size="10.00" fill="#000000">/adaptation_engine/src</text>
<text text-anchor="middle" x="335" y="-7.5" font-family="Helvetica,sans-Serif" font-size="10.00" fill="#000000">/CostEngine.cpp</text>
</a>
</g>
</g>
<!-- Node13&#45;&gt;Node15 -->
<g id="edge10" class="edge">
<title>Node13&#45;&gt;Node15</title>
<path fill="none" stroke="#191970" d="M279.6193,-71.229C290.3513,-61.4953 302.2082,-50.7414 312.1882,-41.6898"/>
<polygon fill="#191970" stroke="#191970" points="277.1023,-68.7867 272.0464,-78.0974 281.805,-73.9718 277.1023,-68.7867"/>
</g>
<!-- Node16&#45;&gt;Node13 -->
<g id="edge12" class="edge">
<title>Node16&#45;&gt;Node13</title>
<path fill="none" stroke="#191970" d="M180.0403,-150.2272C193.5706,-140.1761 208.7236,-128.9196 221.3717,-119.5239"/>
<polygon fill="#191970" stroke="#191970" points="177.8027,-147.5293 171.8624,-156.3022 181.977,-153.1485 177.8027,-147.5293"/>
</g>
<!-- Node16&#45;&gt;Node17 -->
<g id="edge13" class="edge">
<title>Node16&#45;&gt;Node17</title>
<path fill="none" stroke="#191970" d="M231.524,-164.5258C255.6211,-161.3994 281.7889,-158.288 306,-156 573.728,-130.6993 642.139,-143.852 910,-120 942.0556,-117.1456 977.278,-113.1445 1007.8037,-109.3996"/>
<polygon fill="#191970" stroke="#191970" points="230.794,-161.0916 221.3351,-165.8643 231.7058,-168.0319 230.794,-161.0916"/>
</g>
<!-- Node20 -->
<g id="node16" class="node">
<title>Node20</title>
<g id="a_node16"><a xlink:href="Engine_8cpp.html" target="_top" xlink:title="src/sa&#45;bsn/system_manager\l/adaptation_engine/src\l/Engine.cpp">
<polygon fill="#ffffff" stroke="#000000" points="0,-78.5 0,-119.5 154,-119.5 154,-78.5 0,-78.5"/>
<text text-anchor="start" x="8" y="-107.5" font-family="Helvetica,sans-Serif" font-size="10.00" fill="#000000">src/sa&#45;bsn/system_manager</text>
<text text-anchor="start" x="8" y="-96.5" font-family="Helvetica,sans-Serif" font-size="10.00" fill="#000000">/adaptation_engine/src</text>
<text text-anchor="middle" x="77" y="-85.5" font-family="Helvetica,sans-Serif" font-size="10.00" fill="#000000">/Engine.cpp</text>
</a>
</g>
</g>
<!-- Node16&#45;&gt;Node20 -->
<g id="edge16" class="edge">
<title>Node16&#45;&gt;Node20</title>
<path fill="none" stroke="#191970" d="M119.4127,-148.376C111.2476,-138.8703 102.3207,-128.4778 94.772,-119.6898"/>
<polygon fill="#191970" stroke="#191970" points="116.8743,-150.7923 126.0452,-156.0974 122.1843,-146.2311 116.8743,-150.7923"/>
</g>
<!-- Node18 -->
<g id="node14" class="node">
<title>Node18</title>
<g id="a_node14"><a xlink:href="reli__engine_8cpp.html" target="_top" xlink:title="src/sa&#45;bsn/system_manager\l/adaptation_engine/apps\l/reli_engine.cpp">
<polygon fill="#ffffff" stroke="#000000" points="924,-.5 924,-41.5 1078,-41.5 1078,-.5 924,-.5"/>
<text text-anchor="start" x="932" y="-29.5" font-family="Helvetica,sans-Serif" font-size="10.00" fill="#000000">src/sa&#45;bsn/system_manager</text>
<text text-anchor="start" x="932" y="-18.5" font-family="Helvetica,sans-Serif" font-size="10.00" fill="#000000">/adaptation_engine/apps</text>
<text text-anchor="middle" x="1001" y="-7.5" font-family="Helvetica,sans-Serif" font-size="10.00" fill="#000000">/reli_engine.cpp</text>
</a>
</g>
</g>
<!-- Node17&#45;&gt;Node18 -->
<g id="edge14" class="edge">
<title>Node17&#45;&gt;Node18</title>
<path fill="none" stroke="#191970" d="M1056.3807,-71.229C1045.6487,-61.4953 1033.7918,-50.7414 1023.8118,-41.6898"/>
<polygon fill="#191970" stroke="#191970" points="1054.195,-73.9718 1063.9536,-78.0974 1058.8977,-68.7867 1054.195,-73.9718"/>
</g>
<!-- Node19 -->
<g id="node15" class="node">
<title>Node19</title>
<g id="a_node15"><a xlink:href="ReliabilityEngine_8cpp.html" target="_top" xlink:title="src/sa&#45;bsn/system_manager\l/adaptation_engine/src\l/ReliabilityEngine.cpp">
<polygon fill="#ffffff" stroke="#000000" points="1096,-.5 1096,-41.5 1250,-41.5 1250,-.5 1096,-.5"/>
<text text-anchor="start" x="1104" y="-29.5" font-family="Helvetica,sans-Serif" font-size="10.00" fill="#000000">src/sa&#45;bsn/system_manager</text>
<text text-anchor="start" x="1104" y="-18.5" font-family="Helvetica,sans-Serif" font-size="10.00" fill="#000000">/adaptation_engine/src</text>
<text text-anchor="middle" x="1173" y="-7.5" font-family="Helvetica,sans-Serif" font-size="10.00" fill="#000000">/ReliabilityEngine.cpp</text>
</a>
</g>
</g>
<!-- Node17&#45;&gt;Node19 -->
<g id="edge15" class="edge">
<title>Node17&#45;&gt;Node19</title>
<path fill="none" stroke="#191970" d="M1117.6193,-71.229C1128.3513,-61.4953 1140.2082,-50.7414 1150.1882,-41.6898"/>
<polygon fill="#191970" stroke="#191970" points="1115.1023,-68.7867 1110.0464,-78.0974 1119.805,-73.9718 1115.1023,-68.7867"/>
</g>
<!-- Node21&#45;&gt;Node7 -->
<g id="edge19" class="edge">
<title>Node21&#45;&gt;Node7</title>
<path fill="none" stroke="#191970" d="M795.1448,-379.5771C720.7985,-374.2285 610.618,-361.6271 519,-332 468.1692,-315.5626 414.1241,-283.5113 384.5694,-264.5604"/>
<polygon fill="#191970" stroke="#191970" points="795.1745,-383.0874 805.3919,-380.2847 795.6568,-376.104 795.1745,-383.0874"/>
</g>
<!-- Node21&#45;&gt;Node9 -->
<g id="edge31" class="edge">
<title>Node21&#45;&gt;Node9</title>
<path fill="none" stroke="#191970" d="M897.2899,-360.2166C914.843,-336.4535 942.6815,-298.4201 966,-265 983.6824,-239.6576 1003.5658,-209.6786 1015.1463,-192.0627"/>
<polygon fill="#191970" stroke="#191970" points="894.4501,-358.1702 891.3157,-368.2908 900.0773,-362.3338 894.4501,-358.1702"/>
</g>
<!-- Node21&#45;&gt;Node10 -->
<g id="edge33" class="edge">
<title>Node21&#45;&gt;Node10</title>
<path fill="none" stroke="#191970" d="M876.6852,-358.1889C871.8069,-327.2531 860.6986,-274.081 838,-234 830.541,-220.8289 819.8738,-207.791 810.489,-197.5157"/>
<polygon fill="#191970" stroke="#191970" points="873.2324,-358.7667 878.1596,-368.1461 880.1569,-357.7412 873.2324,-358.7667"/>
</g>
<!-- Node21&#45;&gt;Node13 -->
<g id="edge34" class="edge">
<title>Node21&#45;&gt;Node13</title>
<path fill="none" stroke="#191970" d="M795.0754,-380.3041C642.4156,-372.5375 331.567,-346.8193 268,-265 234.8092,-222.2789 239.8945,-153.7018 245.1019,-119.6152"/>
<polygon fill="#191970" stroke="#191970" points="795.1824,-383.8136 805.343,-380.8115 795.5279,-376.8221 795.1824,-383.8136"/>
</g>
<!-- Node21&#45;&gt;Node16 -->
<g id="edge35" class="edge">
<title>Node21&#45;&gt;Node16</title>
<path fill="none" stroke="#191970" d="M795.4387,-379.7267C639.4012,-372.2685 317.8727,-354.404 272,-332 212.8881,-303.1301 171.4288,-232.7379 153.6751,-197.6241"/>
<polygon fill="#191970" stroke="#191970" points="795.3179,-383.2248 805.4726,-380.2029 795.6498,-376.2327 795.3179,-383.2248"/>
</g>
<!-- Node21&#45;&gt;Node17 -->
<g id="edge36" class="edge">
<title>Node21&#45;&gt;Node17</title>
<path fill="none" stroke="#191970" d="M912.6765,-362.6966C971.5842,-324.4109 1091.4829,-242.634 1113,-198 1125.3469,-172.3882 1112.1039,-140.1193 1100.4354,-119.5192"/>
<polygon fill="#191970" stroke="#191970" points="910.6045,-359.8685 904.1083,-368.238 914.4059,-365.7463 910.6045,-359.8685"/>
</g>
<!-- Node22 -->
<g id="node18" class="node">
<title>Node22</title>
<g id="a_node18"><a xlink:href="LeafTask_8hpp.html" target="_top" xlink:title="src/libbsn/include\l/libbsn/goalmodel/LeafTask.hpp">
<polygon fill="#ffffff" stroke="#000000" points="682,-301.5 682,-331.5 852,-331.5 852,-301.5 682,-301.5"/>
<text text-anchor="start" x="690" y="-319.5" font-family="Helvetica,sans-Serif" font-size="10.00" fill="#000000">src/libbsn/include</text>
<text text-anchor="middle" x="767" y="-308.5" font-family="Helvetica,sans-Serif" font-size="10.00" fill="#000000">/libbsn/goalmodel/LeafTask.hpp</text>
</a>
</g>
</g>
<!-- Node21&#45;&gt;Node22 -->
<g id="edge20" class="edge">
<title>Node21&#45;&gt;Node22</title>
<path fill="none" stroke="#191970" d="M846.026,-363.3561C828.8962,-353.1995 808.463,-341.0843 792.6657,-331.7177"/>
<polygon fill="#191970" stroke="#191970" points="844.2538,-366.3743 854.6406,-368.4639 847.824,-360.3531 844.2538,-366.3743"/>
</g>
<!-- Node21&#45;&gt;Node25 -->
<g id="edge32" class="edge">
<title>Node21&#45;&gt;Node25</title>
<path fill="none" stroke="#191970" d="M929.7831,-364.7887C953.6761,-355.4747 982.5706,-343.72 1008,-332 1054.933,-310.3693 1107.8704,-281.8518 1139.0059,-264.6377"/>
<polygon fill="#191970" stroke="#191970" points="928.2763,-361.6188 920.2143,-368.493 930.8035,-368.1468 928.2763,-361.6188"/>
</g>
<!-- Node26 -->
<g id="node22" class="node">
<title>Node26</title>
<g id="a_node22"><a xlink:href="Task_8cpp.html" target="_top" xlink:title="src/libbsn/src/goalmodel\l/Task.cpp">
<polygon fill="#ffffff" stroke="#000000" points="528.5,-301.5 528.5,-331.5 663.5,-331.5 663.5,-301.5 528.5,-301.5"/>
<text text-anchor="start" x="536.5" y="-319.5" font-family="Helvetica,sans-Serif" font-size="10.00" fill="#000000">src/libbsn/src/goalmodel</text>
<text text-anchor="middle" x="596" y="-308.5" font-family="Helvetica,sans-Serif" font-size="10.00" fill="#000000">/Task.cpp</text>
</a>
</g>
</g>
<!-- Node21&#45;&gt;Node26 -->
<g id="edge30" class="edge">
<title>Node21&#45;&gt;Node26</title>
<path fill="none" stroke="#191970" d="M806.4875,-366.1573C761.123,-355.4551 703.4964,-341.8601 660.0131,-331.6017"/>
<polygon fill="#191970" stroke="#191970" points="805.7284,-369.5742 816.2649,-368.4639 807.3357,-362.7612 805.7284,-369.5742"/>
</g>
<!-- Node22&#45;&gt;Node7 -->
<g id="edge21" class="edge">
<title>Node22&#45;&gt;Node7</title>
<path fill="none" stroke="#191970" d="M671.7359,-300.7403C603.6918,-289.4836 512.944,-274.471 447.2784,-263.6078"/>
<polygon fill="#191970" stroke="#191970" points="671.1676,-304.1937 681.6048,-302.3729 672.3102,-297.2876 671.1676,-304.1937"/>
</g>
<!-- Node22&#45;&gt;Node9 -->
<g id="edge23" class="edge">
<title>Node22&#45;&gt;Node9</title>
<path fill="none" stroke="#191970" d="M849.7566,-298.6318C877.0684,-290.6957 906.8671,-279.7312 932,-265 965.3679,-245.442 996.34,-211.8168 1012.7579,-192.2824"/>
<polygon fill="#191970" stroke="#191970" points="848.5027,-295.3484 839.8202,-301.4201 850.3939,-302.0881 848.5027,-295.3484"/>
</g>
<!-- Node22&#45;&gt;Node10 -->
<g id="edge26" class="edge">
<title>Node22&#45;&gt;Node10</title>
<path fill="none" stroke="#191970" d="M798.4896,-295.0191C807.857,-286.8285 816.9588,-276.6265 822,-265 831.8298,-242.3294 818.7054,-215.5567 806.4196,-197.5454"/>
<polygon fill="#191970" stroke="#191970" points="796.1836,-292.3833 790.6419,-301.4133 800.6052,-297.8101 796.1836,-292.3833"/>
</g>
<!-- Node22&#45;&gt;Node13 -->
<g id="edge27" class="edge">
<title>Node22&#45;&gt;Node13</title>
<path fill="none" stroke="#191970" d="M671.7351,-300.8922C595.7358,-288.0677 500.8665,-271.0623 494,-265 455.8577,-231.325 495.7899,-191.1474 459,-156 439.7084,-137.5697 377.7737,-122.1247 326.1263,-111.9814"/>
<polygon fill="#191970" stroke="#191970" points="671.4059,-304.3859 681.848,-302.593 672.5669,-297.4829 671.4059,-304.3859"/>
</g>
<!-- Node22&#45;&gt;Node16 -->
<g id="edge28" class="edge">
<title>Node22&#45;&gt;Node16</title>
<path fill="none" stroke="#191970" d="M671.7487,-301.0775C491.0861,-280.2 434.0937,-326.2004 268,-265 227.6249,-250.123 188.394,-218.5148 165.2188,-197.5128"/>
<polygon fill="#191970" stroke="#191970" points="671.4997,-304.5728 681.8477,-302.2988 672.3402,-297.6234 671.4997,-304.5728"/>
</g>
<!-- Node22&#45;&gt;Node17 -->
<g id="edge29" class="edge">
<title>Node22&#45;&gt;Node17</title>
<path fill="none" stroke="#191970" d="M798.7355,-295.5807C811.4018,-286.7026 825.8354,-275.897 838,-265 844.0932,-259.5417 930.2405,-160.6075 937,-156 959.6741,-140.5446 987.1065,-128.544 1012.2787,-119.6278"/>
<polygon fill="#191970" stroke="#191970" points="796.5454,-292.8393 790.2985,-301.3966 800.5183,-298.6027 796.5454,-292.8393"/>
</g>
<!-- Node23 -->
<g id="node19" class="node">
<title>Node23</title>
<g id="a_node19"><a xlink:href="LeafTask_8cpp.html" target="_top" xlink:title="src/libbsn/src/goalmodel\l/LeafTask.cpp">
<polygon fill="#ffffff" stroke="#000000" points="503.5,-234.5 503.5,-264.5 638.5,-264.5 638.5,-234.5 503.5,-234.5"/>
<text text-anchor="start" x="511.5" y="-252.5" font-family="Helvetica,sans-Serif" font-size="10.00" fill="#000000">src/libbsn/src/goalmodel</text>
<text text-anchor="middle" x="571" y="-241.5" font-family="Helvetica,sans-Serif" font-size="10.00" fill="#000000">/LeafTask.cpp</text>
</a>
</g>
</g>
<!-- Node22&#45;&gt;Node23 -->
<g id="edge22" class="edge">
<title>Node22&#45;&gt;Node23</title>
<path fill="none" stroke="#191970" d="M713.2879,-298.1392C682.4665,-287.6033 644.244,-274.5375 615.1781,-264.6017"/>
<polygon fill="#191970" stroke="#191970" points="712.4192,-301.5411 723.0138,-301.4639 714.6835,-294.9174 712.4192,-301.5411"/>
</g>
<!-- Node24 -->
<g id="node20" class="node">
<title>Node24</title>
<g id="a_node20"><a xlink:href="LeafTaskTest_8cpp.html" target="_top" xlink:title="src/libbsn/test/unit\l/goalmodel/LeafTaskTest.cpp">
<polygon fill="#ffffff" stroke="#000000" points="656.5,-234.5 656.5,-264.5 813.5,-264.5 813.5,-234.5 656.5,-234.5"/>
<text text-anchor="start" x="664.5" y="-252.5" font-family="Helvetica,sans-Serif" font-size="10.00" fill="#000000">src/libbsn/test/unit</text>
<text text-anchor="middle" x="735" y="-241.5" font-family="Helvetica,sans-Serif" font-size="10.00" fill="#000000">/goalmodel/LeafTaskTest.cpp</text>
</a>
</g>
</g>
<!-- Node22&#45;&gt;Node24 -->
<g id="edge24" class="edge">
<title>Node22&#45;&gt;Node24</title>
<path fill="none" stroke="#191970" d="M755.3908,-292.1932C750.9925,-282.9844 746.1145,-272.771 742.2326,-264.6432"/>
<polygon fill="#191970" stroke="#191970" points="752.2706,-293.7815 759.7387,-301.2967 758.5871,-290.7646 752.2706,-293.7815"/>
</g>
<!-- Node22&#45;&gt;Node25 -->
<g id="edge25" class="edge">
<title>Node22&#45;&gt;Node25</title>
<path fill="none" stroke="#191970" d="M862.1741,-300.5184C934.7756,-288.3272 1033.0271,-271.8288 1097.8977,-260.9357"/>
<polygon fill="#191970" stroke="#191970" points="861.3884,-297.1012 852.1061,-302.209 862.5477,-304.0046 861.3884,-297.1012"/>
</g>
</g>
</svg>
