<?xml version="1.0" encoding="UTF-8" standalone="no"?>
<!DOCTYPE svg PUBLIC "-//W3C//DTD SVG 1.1//EN"
 "http://www.w3.org/Graphics/SVG/1.1/DTD/svg11.dtd">
<!-- Generated by graphviz version 2.40.1 (20161225.0304)
 -->
<!-- Title: src/libbsn/src/goalmodel/Node.cpp Pages: 1 -->
<svg width="336pt" height="151pt"
 viewBox="0.00 0.00 336.00 151.00" xmlns="http://www.w3.org/2000/svg" xmlns:xlink="http://www.w3.org/1999/xlink">
<g id="graph0" class="graph" transform="scale(1 1) rotate(0) translate(4 147)">
<title>src/libbsn/src/goalmodel/Node.cpp</title>
<polygon fill="#ffffff" stroke="transparent" points="-4,4 -4,-147 332,-147 332,4 -4,4"/>
<!-- Node0 -->
<g id="node1" class="node">
<title>Node0</title>
<polygon fill="#bfbfbf" stroke="#000000" points="172.5,-112.5 172.5,-142.5 307.5,-142.5 307.5,-112.5 172.5,-112.5"/>
<text text-anchor="start" x="180.5" y="-130.5" font-family="Helvetica,sans-Serif" font-size="10.00" fill="#000000">src/libbsn/src/goalmodel</text>
<text text-anchor="middle" x="240" y="-119.5" font-family="Helvetica,sans-Serif" font-size="10.00" fill="#000000">/Node.cpp</text>
</g>
<!-- Node1 -->
<g id="node2" class="node">
<title>Node1</title>
<g id="a_node2"><a xlink:href="Node_8hpp.html" target="_top" xlink:title="libbsn/goalmodel/Node.hpp">
<polygon fill="#ffffff" stroke="#000000" points="62,-56.5 62,-75.5 212,-75.5 212,-56.5 62,-56.5"/>
<text text-anchor="middle" x="137" y="-63.5" font-family="Helvetica,sans-Serif" font-size="10.00" fill="#000000">libbsn/goalmodel/Node.hpp</text>
</a>
</g>
</g>
<!-- Node0&#45;&gt;Node1 -->
<g id="edge1" class="edge">
<title>Node0&#45;&gt;Node1</title>
<path fill="none" stroke="#191970" d="M214.8034,-112.4554C198.6728,-102.8241 177.8362,-90.3828 161.7864,-80.7996"/>
<polygon fill="#191970" stroke="#191970" points="163.3416,-77.6518 152.9613,-75.5303 159.753,-83.662 163.3416,-77.6518"/>
</g>
<!-- Node5 -->
<g id="node6" class="node">
<title>Node5</title>
<polygon fill="#ffffff" stroke="#bfbfbf" points="211,-.5 211,-19.5 269,-19.5 269,-.5 211,-.5"/>
<text text-anchor="middle" x="240" y="-7.5" font-family="Helvetica,sans-Serif" font-size="10.00" fill="#000000">memory</text>
</g>
<!-- Node0&#45;&gt;Node5 -->
<g id="edge7" class="edge">
<title>Node0&#45;&gt;Node5</title>
<path fill="none" stroke="#191970" d="M240,-112.1389C240,-90.9692 240,-52.8174 240,-29.6112"/>
<polygon fill="#191970" stroke="#191970" points="243.5001,-29.5594 240,-19.5595 236.5001,-29.5595 243.5001,-29.5594"/>
</g>
<!-- Node6 -->
<g id="node7" class="node">
<title>Node6</title>
<polygon fill="#ffffff" stroke="#bfbfbf" points="268,-56.5 268,-75.5 328,-75.5 328,-56.5 268,-56.5"/>
<text text-anchor="middle" x="298" y="-63.5" font-family="Helvetica,sans-Serif" font-size="10.00" fill="#000000">iostream</text>
</g>
<!-- Node0&#45;&gt;Node6 -->
<g id="edge6" class="edge">
<title>Node0&#45;&gt;Node6</title>
<path fill="none" stroke="#191970" d="M254.3371,-112.2977C262.6397,-103.4941 273.1182,-92.3833 281.7289,-83.2529"/>
<polygon fill="#191970" stroke="#191970" points="284.3987,-85.5234 288.7135,-75.8469 279.3061,-80.7206 284.3987,-85.5234"/>
</g>
<!-- Node2 -->
<g id="node3" class="node">
<title>Node2</title>
<polygon fill="#ffffff" stroke="#bfbfbf" points="0,-.5 0,-19.5 44,-19.5 44,-.5 0,-.5"/>
<text text-anchor="middle" x="22" y="-7.5" font-family="Helvetica,sans-Serif" font-size="10.00" fill="#000000">string</text>
</g>
<!-- Node1&#45;&gt;Node2 -->
<g id="edge2" class="edge">
<title>Node1&#45;&gt;Node2</title>
<path fill="none" stroke="#191970" d="M117.2308,-56.3733C98.8531,-47.4241 71.2688,-33.9917 50.5107,-23.8835"/>
<polygon fill="#191970" stroke="#191970" points="52.0343,-20.7325 41.5112,-19.5011 48.9696,-27.026 52.0343,-20.7325"/>
</g>
<!-- Node3 -->
<g id="node4" class="node">
<title>Node3</title>
<polygon fill="#ffffff" stroke="#bfbfbf" points="62.5,-.5 62.5,-19.5 109.5,-19.5 109.5,-.5 62.5,-.5"/>
<text text-anchor="middle" x="86" y="-7.5" font-family="Helvetica,sans-Serif" font-size="10.00" fill="#000000">vector</text>
</g>
<!-- Node1&#45;&gt;Node3 -->
<g id="edge3" class="edge">
<title>Node1&#45;&gt;Node3</title>
<path fill="none" stroke="#191970" d="M128.1165,-56.2455C120.8034,-48.2155 110.2609,-36.6394 101.5533,-27.0781"/>
<polygon fill="#191970" stroke="#191970" points="104.1028,-24.6795 94.7817,-19.6427 98.9273,-29.3928 104.1028,-24.6795"/>
</g>
<!-- Node4 -->
<g id="node5" class="node">
<title>Node4</title>
<polygon fill="#ffffff" stroke="#bfbfbf" points="127.5,-.5 127.5,-19.5 192.5,-19.5 192.5,-.5 127.5,-.5"/>
<text text-anchor="middle" x="160" y="-7.5" font-family="Helvetica,sans-Serif" font-size="10.00" fill="#000000">stdexcept</text>
</g>
<!-- Node1&#45;&gt;Node4 -->
<g id="edge4" class="edge">
<title>Node1&#45;&gt;Node4</title>
<path fill="none" stroke="#191970" d="M141.0063,-56.2455C144.0735,-48.7776 148.4003,-38.2427 152.1497,-29.1137"/>
<polygon fill="#191970" stroke="#191970" points="155.4779,-30.2226 156.0396,-19.6427 149.0028,-27.5631 155.4779,-30.2226"/>
</g>
<!-- Node1&#45;&gt;Node5 -->
<g id="edge5" class="edge">
<title>Node1&#45;&gt;Node5</title>
<path fill="none" stroke="#191970" d="M154.9412,-56.2455C171.04,-47.4928 194.8879,-34.527 213.2391,-24.5496"/>
<polygon fill="#191970" stroke="#191970" points="215.1507,-27.4942 222.2644,-19.6427 211.8071,-21.3444 215.1507,-27.4942"/>
</g>
</g>
</svg>
