<?xml version="1.0" encoding="UTF-8" standalone="no"?>
<!DOCTYPE svg PUBLIC "-//W3C//DTD SVG 1.1//EN"
 "http://www.w3.org/Graphics/SVG/1.1/DTD/svg11.dtd">
<!-- Generated by graphviz version 2.40.1 (20161225.0304)
 -->
<!-- Title: src/libbsn/test/unit/goalmodel/NodeTest.cpp Pages: 1 -->
<svg width="354pt" height="151pt"
 viewBox="0.00 0.00 353.50 151.00" xmlns="http://www.w3.org/2000/svg" xmlns:xlink="http://www.w3.org/1999/xlink">
<g id="graph0" class="graph" transform="scale(1 1) rotate(0) translate(4 147)">
<title>src/libbsn/test/unit/goalmodel/NodeTest.cpp</title>
<polygon fill="#ffffff" stroke="transparent" points="-4,4 -4,-147 349.5,-147 349.5,4 -4,4"/>
<!-- Node0 -->
<g id="node1" class="node">
<title>Node0</title>
<polygon fill="#bfbfbf" stroke="#000000" points="36,-112.5 36,-142.5 176,-142.5 176,-112.5 36,-112.5"/>
<text text-anchor="start" x="44" y="-130.5" font-family="Helvetica,sans-Serif" font-size="10.00" fill="#000000">src/libbsn/test/unit</text>
<text text-anchor="middle" x="106" y="-119.5" font-family="Helvetica,sans-Serif" font-size="10.00" fill="#000000">/goalmodel/NodeTest.cpp</text>
</g>
<!-- Node1 -->
<g id="node2" class="node">
<title>Node1</title>
<polygon fill="#ffffff" stroke="#bfbfbf" points="0,-56.5 0,-75.5 78,-75.5 78,-56.5 0,-56.5"/>
<text text-anchor="middle" x="39" y="-63.5" font-family="Helvetica,sans-Serif" font-size="10.00" fill="#000000">gtest/gtest.h</text>
</g>
<!-- Node0&#45;&gt;Node1 -->
<g id="edge1" class="edge">
<title>Node0&#45;&gt;Node1</title>
<path fill="none" stroke="#191970" d="M89.4382,-112.2977C79.6535,-103.3163 67.2526,-91.9334 57.1957,-82.702"/>
<polygon fill="#191970" stroke="#191970" points="59.4613,-80.0307 49.7275,-75.8469 54.7278,-85.1876 59.4613,-80.0307"/>
</g>
<!-- Node2 -->
<g id="node3" class="node">
<title>Node2</title>
<polygon fill="#ffffff" stroke="#bfbfbf" points="77,-.5 77,-19.5 135,-19.5 135,-.5 77,-.5"/>
<text text-anchor="middle" x="106" y="-7.5" font-family="Helvetica,sans-Serif" font-size="10.00" fill="#000000">memory</text>
</g>
<!-- Node0&#45;&gt;Node2 -->
<g id="edge2" class="edge">
<title>Node0&#45;&gt;Node2</title>
<path fill="none" stroke="#191970" d="M106,-112.1389C106,-90.9692 106,-52.8174 106,-29.6112"/>
<polygon fill="#191970" stroke="#191970" points="109.5001,-29.5594 106,-19.5595 102.5001,-29.5595 109.5001,-29.5594"/>
</g>
<!-- Node3 -->
<g id="node4" class="node">
<title>Node3</title>
<g id="a_node4"><a xlink:href="Node_8hpp.html" target="_top" xlink:title="libbsn/goalmodel/Node.hpp">
<polygon fill="#ffffff" stroke="#000000" points="134,-56.5 134,-75.5 284,-75.5 284,-56.5 134,-56.5"/>
<text text-anchor="middle" x="209" y="-63.5" font-family="Helvetica,sans-Serif" font-size="10.00" fill="#000000">libbsn/goalmodel/Node.hpp</text>
</a>
</g>
</g>
<!-- Node0&#45;&gt;Node3 -->
<g id="edge3" class="edge">
<title>Node0&#45;&gt;Node3</title>
<path fill="none" stroke="#191970" d="M131.1966,-112.4554C147.3272,-102.8241 168.1638,-90.3828 184.2136,-80.7996"/>
<polygon fill="#191970" stroke="#191970" points="186.247,-83.662 193.0387,-75.5303 182.6584,-77.6518 186.247,-83.662"/>
</g>
<!-- Node3&#45;&gt;Node2 -->
<g id="edge7" class="edge">
<title>Node3&#45;&gt;Node2</title>
<path fill="none" stroke="#191970" d="M191.0588,-56.2455C174.96,-47.4928 151.1121,-34.527 132.7609,-24.5496"/>
<polygon fill="#191970" stroke="#191970" points="134.1929,-21.3444 123.7356,-19.6427 130.8493,-27.4942 134.1929,-21.3444"/>
</g>
<!-- Node4 -->
<g id="node5" class="node">
<title>Node4</title>
<polygon fill="#ffffff" stroke="#bfbfbf" points="153,-.5 153,-19.5 197,-19.5 197,-.5 153,-.5"/>
<text text-anchor="middle" x="175" y="-7.5" font-family="Helvetica,sans-Serif" font-size="10.00" fill="#000000">string</text>
</g>
<!-- Node3&#45;&gt;Node4 -->
<g id="edge4" class="edge">
<title>Node3&#45;&gt;Node4</title>
<path fill="none" stroke="#191970" d="M203.0777,-56.2455C198.3973,-48.5367 191.7327,-37.5598 186.0711,-28.2348"/>
<polygon fill="#191970" stroke="#191970" points="189.0361,-26.3741 180.8545,-19.6427 183.0525,-30.007 189.0361,-26.3741"/>
</g>
<!-- Node5 -->
<g id="node6" class="node">
<title>Node5</title>
<polygon fill="#ffffff" stroke="#bfbfbf" points="215.5,-.5 215.5,-19.5 262.5,-19.5 262.5,-.5 215.5,-.5"/>
<text text-anchor="middle" x="239" y="-7.5" font-family="Helvetica,sans-Serif" font-size="10.00" fill="#000000">vector</text>
</g>
<!-- Node3&#45;&gt;Node5 -->
<g id="edge5" class="edge">
<title>Node3&#45;&gt;Node5</title>
<path fill="none" stroke="#191970" d="M214.2256,-56.2455C218.3123,-48.617 224.1135,-37.7881 229.075,-28.5267"/>
<polygon fill="#191970" stroke="#191970" points="232.1972,-30.1103 233.8343,-19.6427 226.0268,-26.8047 232.1972,-30.1103"/>
</g>
<!-- Node6 -->
<g id="node7" class="node">
<title>Node6</title>
<polygon fill="#ffffff" stroke="#bfbfbf" points="280.5,-.5 280.5,-19.5 345.5,-19.5 345.5,-.5 280.5,-.5"/>
<text text-anchor="middle" x="313" y="-7.5" font-family="Helvetica,sans-Serif" font-size="10.00" fill="#000000">stdexcept</text>
</g>
<!-- Node3&#45;&gt;Node6 -->
<g id="edge6" class="edge">
<title>Node3&#45;&gt;Node6</title>
<path fill="none" stroke="#191970" d="M227.1154,-56.2455C243.445,-47.4527 267.671,-34.4079 286.2339,-24.4125"/>
<polygon fill="#191970" stroke="#191970" points="287.9468,-27.4654 295.0922,-19.6427 284.6281,-21.3021 287.9468,-27.4654"/>
</g>
</g>
</svg>
