<?xml version="1.0" encoding="UTF-8" standalone="no"?>
<!DOCTYPE svg PUBLIC "-//W3C//DTD SVG 1.1//EN"
 "http://www.w3.org/Graphics/SVG/1.1/DTD/svg11.dtd">
<!-- Generated by graphviz version 2.40.1 (20161225.0304)
 -->
<!-- Title: src/sa&#45;bsn/target_system/effectors/param_adapter/include/param_adapter/ParamAdapter.hpp Pages: 1 -->
<svg width="306pt" height="128pt"
 viewBox="0.00 0.00 306.00 128.00" xmlns="http://www.w3.org/2000/svg" xmlns:xlink="http://www.w3.org/1999/xlink">
<g id="graph0" class="graph" transform="scale(1 1) rotate(0) translate(4 124)">
<title>src/sa&#45;bsn/target_system/effectors/param_adapter/include/param_adapter/ParamAdapter.hpp</title>
<polygon fill="#ffffff" stroke="transparent" points="-4,4 -4,-124 302,-124 302,4 -4,4"/>
<!-- Node9 -->
<g id="node1" class="node">
<title>Node9</title>
<polygon fill="#bfbfbf" stroke="#000000" points="37,-78.5 37,-119.5 261,-119.5 261,-78.5 37,-78.5"/>
<text text-anchor="start" x="45" y="-107.5" font-family="Helvetica,sans-Serif" font-size="10.00" fill="#000000">src/sa&#45;bsn/target_system</text>
<text text-anchor="start" x="45" y="-96.5" font-family="Helvetica,sans-Serif" font-size="10.00" fill="#000000">/effectors/param_adapter</text>
<text text-anchor="middle" x="149" y="-85.5" font-family="Helvetica,sans-Serif" font-size="10.00" fill="#000000">/include/param_adapter/ParamAdapter.hpp</text>
</g>
<!-- Node10 -->
<g id="node2" class="node">
<title>Node10</title>
<g id="a_node2"><a xlink:href="param__adapter_8cpp.html" target="_top" xlink:title="src/sa&#45;bsn/target_system\l/effectors/param_adapter\l/apps/param_adapter.cpp">
<polygon fill="#ffffff" stroke="#000000" points="0,-.5 0,-41.5 140,-41.5 140,-.5 0,-.5"/>
<text text-anchor="start" x="8" y="-29.5" font-family="Helvetica,sans-Serif" font-size="10.00" fill="#000000">src/sa&#45;bsn/target_system</text>
<text text-anchor="start" x="8" y="-18.5" font-family="Helvetica,sans-Serif" font-size="10.00" fill="#000000">/effectors/param_adapter</text>
<text text-anchor="middle" x="70" y="-7.5" font-family="Helvetica,sans-Serif" font-size="10.00" fill="#000000">/apps/param_adapter.cpp</text>
</a>
</g>
</g>
<!-- Node9&#45;&gt;Node10 -->
<g id="edge1" class="edge">
<title>Node9&#45;&gt;Node10</title>
<path fill="none" stroke="#191970" d="M120.5855,-70.9452C110.8031,-61.2866 100.0337,-50.6535 90.9551,-41.6898"/>
<polygon fill="#191970" stroke="#191970" points="118.2544,-73.5621 127.8294,-78.0974 123.1725,-68.5809 118.2544,-73.5621"/>
</g>
<!-- Node11 -->
<g id="node3" class="node">
<title>Node11</title>
<g id="a_node3"><a xlink:href="ParamAdapter_8cpp.html" target="_top" xlink:title="src/sa&#45;bsn/target_system\l/effectors/param_adapter\l/src/ParamAdapter.cpp">
<polygon fill="#ffffff" stroke="#000000" points="158,-.5 158,-41.5 298,-41.5 298,-.5 158,-.5"/>
<text text-anchor="start" x="166" y="-29.5" font-family="Helvetica,sans-Serif" font-size="10.00" fill="#000000">src/sa&#45;bsn/target_system</text>
<text text-anchor="start" x="166" y="-18.5" font-family="Helvetica,sans-Serif" font-size="10.00" fill="#000000">/effectors/param_adapter</text>
<text text-anchor="middle" x="228" y="-7.5" font-family="Helvetica,sans-Serif" font-size="10.00" fill="#000000">/src/ParamAdapter.cpp</text>
</a>
</g>
</g>
<!-- Node9&#45;&gt;Node11 -->
<g id="edge2" class="edge">
<title>Node9&#45;&gt;Node11</title>
<path fill="none" stroke="#191970" d="M177.4145,-70.9452C187.1969,-61.2866 197.9663,-50.6535 207.0449,-41.6898"/>
<polygon fill="#191970" stroke="#191970" points="174.8275,-68.5809 170.1706,-78.0974 179.7456,-73.5621 174.8275,-68.5809"/>
</g>
</g>
</svg>
