<?xml version="1.0" encoding="UTF-8" standalone="no"?>
<!DOCTYPE svg PUBLIC "-//W3C//DTD SVG 1.1//EN"
 "http://www.w3.org/Graphics/SVG/1.1/DTD/svg11.dtd">
<!-- Generated by graphviz version 2.40.1 (20161225.0304)
 -->
<!-- Title: src/sa&#45;bsn/environment/patient/include/PatientModule.hpp Pages: 1 -->
<svg width="1034pt" height="263pt"
 viewBox="0.00 0.00 1034.00 263.00" xmlns="http://www.w3.org/2000/svg" xmlns:xlink="http://www.w3.org/1999/xlink">
<g id="graph0" class="graph" transform="scale(1 1) rotate(0) translate(4 259)">
<title>src/sa&#45;bsn/environment/patient/include/PatientModule.hpp</title>
<polygon fill="#ffffff" stroke="transparent" points="-4,4 -4,-259 1030,-259 1030,4 -4,4"/>
<!-- Node0 -->
<g id="node1" class="node">
<title>Node0</title>
<polygon fill="#bfbfbf" stroke="#000000" points="426,-224.5 426,-254.5 611,-254.5 611,-224.5 426,-224.5"/>
<text text-anchor="start" x="434" y="-242.5" font-family="Helvetica,sans-Serif" font-size="10.00" fill="#000000">src/sa&#45;bsn/environment</text>
<text text-anchor="middle" x="518.5" y="-231.5" font-family="Helvetica,sans-Serif" font-size="10.00" fill="#000000">/patient/include/PatientModule.hpp</text>
</g>
<!-- Node1 -->
<g id="node2" class="node">
<title>Node1</title>
<polygon fill="#ffffff" stroke="#bfbfbf" points="0,-.5 0,-19.5 59,-19.5 59,-.5 0,-.5"/>
<text text-anchor="middle" x="29.5" y="-7.5" font-family="Helvetica,sans-Serif" font-size="10.00" fill="#000000">ros/ros.h</text>
</g>
<!-- Node0&#45;&gt;Node1 -->
<g id="edge1" class="edge">
<title>Node0&#45;&gt;Node1</title>
<path fill="none" stroke="#191970" d="M427.6191,-224.4517C381.026,-215.7195 323.6759,-203.39 273.5,-188 210.6124,-168.7111 195.9293,-160.197 136.5,-132 89.4238,-109.6641 61.472,-119.9617 33.5,-76 24.8447,-62.397 24.4827,-43.8537 25.9192,-29.8857"/>
<polygon fill="#191970" stroke="#191970" points="29.4043,-30.2367 27.3328,-19.8463 22.4726,-29.2606 29.4043,-30.2367"/>
</g>
<!-- Node2 -->
<g id="node3" class="node">
<title>Node2</title>
<g id="a_node3"><a xlink:href="DataGenerator_8hpp.html" target="_top" xlink:title="libbsn/generator/DataGenerator.hpp">
<polygon fill="#ffffff" stroke="#000000" points="591,-168.5 591,-187.5 782,-187.5 782,-168.5 591,-168.5"/>
<text text-anchor="middle" x="686.5" y="-175.5" font-family="Helvetica,sans-Serif" font-size="10.00" fill="#000000">libbsn/generator/DataGenerator.hpp</text>
</a>
</g>
</g>
<!-- Node0&#45;&gt;Node2 -->
<g id="edge2" class="edge">
<title>Node0&#45;&gt;Node2</title>
<path fill="none" stroke="#191970" d="M559.5974,-224.4554C587.5057,-214.239 624.0508,-200.8609 650.7527,-191.0861"/>
<polygon fill="#191970" stroke="#191970" points="652.2786,-194.2547 660.466,-187.5303 649.8722,-187.6813 652.2786,-194.2547"/>
</g>
<!-- Node10 -->
<g id="node11" class="node">
<title>Node10</title>
<g id="a_node11"><a xlink:href="Range_8hpp.html" target="_top" xlink:title="libbsn/range/Range.hpp">
<polygon fill="#ffffff" stroke="#000000" points="493,-56.5 493,-75.5 624,-75.5 624,-56.5 493,-56.5"/>
<text text-anchor="middle" x="558.5" y="-63.5" font-family="Helvetica,sans-Serif" font-size="10.00" fill="#000000">libbsn/range/Range.hpp</text>
</a>
</g>
</g>
<!-- Node0&#45;&gt;Node10 -->
<g id="edge21" class="edge">
<title>Node0&#45;&gt;Node10</title>
<path fill="none" stroke="#191970" d="M521.9798,-224.4065C529.2175,-193.0126 545.89,-120.6961 553.9599,-85.6925"/>
<polygon fill="#191970" stroke="#191970" points="557.4188,-86.2687 556.2549,-75.738 550.5978,-84.6961 557.4188,-86.2687"/>
</g>
<!-- Node11 -->
<g id="node12" class="node">
<title>Node11</title>
<polygon fill="#ffffff" stroke="#bfbfbf" points="301.5,-.5 301.5,-19.5 345.5,-19.5 345.5,-.5 301.5,-.5"/>
<text text-anchor="middle" x="323.5" y="-7.5" font-family="Helvetica,sans-Serif" font-size="10.00" fill="#000000">string</text>
</g>
<!-- Node0&#45;&gt;Node11 -->
<g id="edge22" class="edge">
<title>Node0&#45;&gt;Node11</title>
<path fill="none" stroke="#191970" d="M494.0539,-224.3702C465.2058,-205.5575 417.1671,-171.1113 385.5,-132 359.3365,-99.6862 339.9708,-54.5407 330.3352,-29.2072"/>
<polygon fill="#191970" stroke="#191970" points="333.5567,-27.8271 326.81,-19.6581 326.9899,-30.2514 333.5567,-27.8271"/>
</g>
<!-- Node13 -->
<g id="node14" class="node">
<title>Node13</title>
<g id="a_node14"><a xlink:href="utils_8hpp.html" target="_top" xlink:title="libbsn/utils/utils.hpp">
<polygon fill="#ffffff" stroke="#000000" points="394,-112.5 394,-131.5 509,-131.5 509,-112.5 394,-112.5"/>
<text text-anchor="middle" x="451.5" y="-119.5" font-family="Helvetica,sans-Serif" font-size="10.00" fill="#000000">libbsn/utils/utils.hpp</text>
</a>
</g>
</g>
<!-- Node0&#45;&gt;Node13 -->
<g id="edge18" class="edge">
<title>Node0&#45;&gt;Node13</title>
<path fill="none" stroke="#191970" d="M509.7409,-224.1389C497.4502,-202.5843 475.1208,-163.4245 461.9693,-140.3604"/>
<polygon fill="#191970" stroke="#191970" points="464.9449,-138.5128 456.9509,-131.5595 458.864,-141.9802 464.9449,-138.5128"/>
</g>
<!-- Node14 -->
<g id="node15" class="node">
<title>Node14</title>
<polygon fill="#ffffff" stroke="#bfbfbf" points="800.5,-168.5 800.5,-187.5 926.5,-187.5 926.5,-168.5 800.5,-168.5"/>
<text text-anchor="middle" x="863.5" y="-175.5" font-family="Helvetica,sans-Serif" font-size="10.00" fill="#000000">services/PatientData.h</text>
</g>
<!-- Node0&#45;&gt;Node14 -->
<g id="edge23" class="edge">
<title>Node0&#45;&gt;Node14</title>
<path fill="none" stroke="#191970" d="M602.8965,-224.4554C663.7428,-213.6089 744.5805,-199.1987 799.9963,-189.3202"/>
<polygon fill="#191970" stroke="#191970" points="800.8067,-192.731 810.0372,-187.5303 799.5782,-185.8397 800.8067,-192.731"/>
</g>
<!-- Node15 -->
<g id="node16" class="node">
<title>Node15</title>
<polygon fill="#ffffff" stroke="#bfbfbf" points="945,-168.5 945,-187.5 1026,-187.5 1026,-168.5 945,-168.5"/>
<text text-anchor="middle" x="985.5" y="-175.5" font-family="Helvetica,sans-Serif" font-size="10.00" fill="#000000">ros/console.h</text>
</g>
<!-- Node0&#45;&gt;Node15 -->
<g id="edge24" class="edge">
<title>Node0&#45;&gt;Node15</title>
<path fill="none" stroke="#191970" d="M611.1176,-230.0631C693.4916,-221.2083 817.42,-206.7584 934.9876,-187.9798"/>
<polygon fill="#191970" stroke="#191970" points="935.5704,-191.4311 944.8868,-186.3858 934.4576,-184.5201 935.5704,-191.4311"/>
</g>
<!-- Node16 -->
<g id="node17" class="node">
<title>Node16</title>
<g id="a_node17"><a xlink:href="ROSComponent_8hpp.html" target="_top" xlink:title="archlib/ROSComponent.hpp">
<polygon fill="#ffffff" stroke="#000000" points="145.5,-112.5 145.5,-131.5 295.5,-131.5 295.5,-112.5 145.5,-112.5"/>
<text text-anchor="middle" x="220.5" y="-119.5" font-family="Helvetica,sans-Serif" font-size="10.00" fill="#000000">archlib/ROSComponent.hpp</text>
</a>
</g>
</g>
<!-- Node0&#45;&gt;Node16 -->
<g id="edge25" class="edge">
<title>Node0&#45;&gt;Node16</title>
<path fill="none" stroke="#191970" d="M425.8036,-224.8843C388.5246,-216.9262 345.8491,-205.1055 309.5,-188 282.2768,-175.1891 255.0968,-153.396 238.069,-138.3783"/>
<polygon fill="#191970" stroke="#191970" points="240.3412,-135.7144 230.5697,-131.6193 235.6547,-140.9141 240.3412,-135.7144"/>
</g>
<!-- Node3 -->
<g id="node4" class="node">
<title>Node3</title>
<g id="a_node4"><a xlink:href="Markov_8hpp.html" target="_top" xlink:title="libbsn/generator/Markov.hpp">
<polygon fill="#ffffff" stroke="#000000" points="619,-112.5 619,-131.5 774,-131.5 774,-112.5 619,-112.5"/>
<text text-anchor="middle" x="696.5" y="-119.5" font-family="Helvetica,sans-Serif" font-size="10.00" fill="#000000">libbsn/generator/Markov.hpp</text>
</a>
</g>
</g>
<!-- Node2&#45;&gt;Node3 -->
<g id="edge3" class="edge">
<title>Node2&#45;&gt;Node3</title>
<path fill="none" stroke="#191970" d="M688.2419,-168.2455C689.5467,-160.9382 691.376,-150.6944 692.9813,-141.7046"/>
<polygon fill="#191970" stroke="#191970" points="696.4656,-142.1022 694.7781,-131.6427 689.5746,-140.8717 696.4656,-142.1022"/>
</g>
<!-- Node6 -->
<g id="node7" class="node">
<title>Node6</title>
<polygon fill="#ffffff" stroke="#bfbfbf" points="816.5,-56.5 816.5,-75.5 870.5,-75.5 870.5,-56.5 816.5,-56.5"/>
<text text-anchor="middle" x="843.5" y="-63.5" font-family="Helvetica,sans-Serif" font-size="10.00" fill="#000000">random</text>
</g>
<!-- Node2&#45;&gt;Node6 -->
<g id="edge16" class="edge">
<title>Node2&#45;&gt;Node6</title>
<path fill="none" stroke="#191970" d="M713.573,-168.4676C733.9429,-160.5395 761.9392,-147.9827 783.5,-132 802.0437,-118.2538 819.335,-98.1388 830.5453,-83.7324"/>
<polygon fill="#191970" stroke="#191970" points="833.4505,-85.6935 836.6962,-75.608 827.8695,-81.4681 833.4505,-85.6935"/>
</g>
<!-- Node8 -->
<g id="node9" class="node">
<title>Node8</title>
<polygon fill="#ffffff" stroke="#bfbfbf" points="762,-.5 762,-19.5 815,-19.5 815,-.5 762,-.5"/>
<text text-anchor="middle" x="788.5" y="-7.5" font-family="Helvetica,sans-Serif" font-size="10.00" fill="#000000">stdint.h</text>
</g>
<!-- Node2&#45;&gt;Node8 -->
<g id="edge17" class="edge">
<title>Node2&#45;&gt;Node8</title>
<path fill="none" stroke="#191970" d="M737.2258,-168.48C784.9859,-156.3686 853.0253,-130.1313 879.5,-76 892.9627,-48.4736 855.682,-29.8857 824.8369,-19.6263"/>
<polygon fill="#191970" stroke="#191970" points="825.7097,-16.2321 815.1209,-16.5872 823.62,-22.913 825.7097,-16.2321"/>
</g>
<!-- Node4 -->
<g id="node5" class="node">
<title>Node4</title>
<polygon fill="#ffffff" stroke="#bfbfbf" points="548.5,-.5 548.5,-19.5 608.5,-19.5 608.5,-.5 548.5,-.5"/>
<text text-anchor="middle" x="578.5" y="-7.5" font-family="Helvetica,sans-Serif" font-size="10.00" fill="#000000">iostream</text>
</g>
<!-- Node3&#45;&gt;Node4 -->
<g id="edge4" class="edge">
<title>Node3&#45;&gt;Node4</title>
<path fill="none" stroke="#191970" d="M687.85,-112.2753C675.9959,-99.1055 653.8498,-75.0563 633.5,-56 622.4589,-45.6607 609.5075,-34.7726 598.9469,-26.1862"/>
<polygon fill="#191970" stroke="#191970" points="601.0569,-23.3917 591.0722,-19.848 596.6678,-28.8447 601.0569,-23.3917"/>
</g>
<!-- Node5 -->
<g id="node6" class="node">
<title>Node5</title>
<polygon fill="#ffffff" stroke="#bfbfbf" points="680.5,-56.5 680.5,-75.5 722.5,-75.5 722.5,-56.5 680.5,-56.5"/>
<text text-anchor="middle" x="701.5" y="-63.5" font-family="Helvetica,sans-Serif" font-size="10.00" fill="#000000">array</text>
</g>
<!-- Node3&#45;&gt;Node5 -->
<g id="edge5" class="edge">
<title>Node3&#45;&gt;Node5</title>
<path fill="none" stroke="#191970" d="M697.3709,-112.2455C698.0234,-104.9382 698.938,-94.6944 699.7407,-85.7046"/>
<polygon fill="#191970" stroke="#191970" points="703.2358,-85.9143 700.639,-75.6427 696.2635,-85.2918 703.2358,-85.9143"/>
</g>
<!-- Node3&#45;&gt;Node6 -->
<g id="edge6" class="edge">
<title>Node3&#45;&gt;Node6</title>
<path fill="none" stroke="#191970" d="M721.7702,-112.3733C745.8966,-103.1822 782.4362,-89.2624 809.1877,-79.0713"/>
<polygon fill="#191970" stroke="#191970" points="810.4607,-82.3318 818.5596,-75.5011 807.9687,-75.7904 810.4607,-82.3318"/>
</g>
<!-- Node7 -->
<g id="node8" class="node">
<title>Node7</title>
<polygon fill="#ffffff" stroke="#bfbfbf" points="428,-56.5 428,-75.5 475,-75.5 475,-56.5 428,-56.5"/>
<text text-anchor="middle" x="451.5" y="-63.5" font-family="Helvetica,sans-Serif" font-size="10.00" fill="#000000">vector</text>
</g>
<!-- Node3&#45;&gt;Node7 -->
<g id="edge7" class="edge">
<title>Node3&#45;&gt;Node7</title>
<path fill="none" stroke="#191970" d="M646.9713,-112.4286C606.0263,-104.2507 546.1848,-91.6911 485.0487,-75.9872"/>
<polygon fill="#191970" stroke="#191970" points="485.7868,-72.5628 475.2284,-73.44 484.0293,-79.3386 485.7868,-72.5628"/>
</g>
<!-- Node3&#45;&gt;Node8 -->
<g id="edge8" class="edge">
<title>Node3&#45;&gt;Node8</title>
<path fill="none" stroke="#191970" d="M708.8537,-112.2002C719.5233,-103.3876 734.9926,-89.7487 746.5,-76 758.8457,-61.2497 770.3859,-42.6201 778.2333,-28.9179"/>
<polygon fill="#191970" stroke="#191970" points="781.4291,-30.3739 783.2536,-19.9374 775.319,-26.9583 781.4291,-30.3739"/>
</g>
<!-- Node9 -->
<g id="node10" class="node">
<title>Node9</title>
<polygon fill="#ffffff" stroke="#bfbfbf" points="647.5,-.5 647.5,-19.5 703.5,-19.5 703.5,-.5 647.5,-.5"/>
<text text-anchor="middle" x="675.5" y="-7.5" font-family="Helvetica,sans-Serif" font-size="10.00" fill="#000000">sstream</text>
</g>
<!-- Node3&#45;&gt;Node9 -->
<g id="edge9" class="edge">
<title>Node3&#45;&gt;Node9</title>
<path fill="none" stroke="#191970" d="M707.941,-112.3033C721.5092,-99.561 741.1443,-76.4029 731.5,-56 725.4754,-43.2547 713.9968,-32.8542 702.9926,-25.1874"/>
<polygon fill="#191970" stroke="#191970" points="704.6828,-22.1127 694.3824,-19.6324 700.8879,-27.9948 704.6828,-22.1127"/>
</g>
<!-- Node3&#45;&gt;Node10 -->
<g id="edge10" class="edge">
<title>Node3&#45;&gt;Node10</title>
<path fill="none" stroke="#191970" d="M672.777,-112.3733C650.3263,-103.2629 616.4261,-89.5062 591.3745,-79.3404"/>
<polygon fill="#191970" stroke="#191970" points="592.4957,-76.0182 581.9135,-75.5011 589.8635,-82.5045 592.4957,-76.0182"/>
</g>
<!-- Node10&#45;&gt;Node4 -->
<g id="edge13" class="edge">
<title>Node10&#45;&gt;Node4</title>
<path fill="none" stroke="#191970" d="M561.9837,-56.2455C564.6508,-48.7776 568.4133,-38.2427 571.6737,-29.1137"/>
<polygon fill="#191970" stroke="#191970" points="574.9889,-30.2373 575.0562,-19.6427 568.3967,-27.8829 574.9889,-30.2373"/>
</g>
<!-- Node10&#45;&gt;Node8 -->
<g id="edge14" class="edge">
<title>Node10&#45;&gt;Node8</title>
<path fill="none" stroke="#191970" d="M597.7771,-56.4369C641.0402,-45.9032 710.0421,-29.1028 752.1153,-18.8589"/>
<polygon fill="#191970" stroke="#191970" points="753.0555,-22.2323 761.9437,-16.4659 751.3995,-15.431 753.0555,-22.2323"/>
</g>
<!-- Node10&#45;&gt;Node9 -->
<g id="edge15" class="edge">
<title>Node10&#45;&gt;Node9</title>
<path fill="none" stroke="#191970" d="M578.613,-56.3733C597.3103,-47.4241 625.3744,-33.9917 646.4934,-23.8835"/>
<polygon fill="#191970" stroke="#191970" points="648.1405,-26.9755 655.6494,-19.5011 645.1183,-20.6614 648.1405,-26.9755"/>
</g>
<!-- Node10&#45;&gt;Node11 -->
<g id="edge11" class="edge">
<title>Node10&#45;&gt;Node11</title>
<path fill="none" stroke="#191970" d="M518.3691,-56.4369C472.3488,-45.4704 397.8244,-27.7114 355.5189,-17.63"/>
<polygon fill="#191970" stroke="#191970" points="356.2845,-14.2145 345.7455,-15.3011 354.6618,-21.0239 356.2845,-14.2145"/>
</g>
<!-- Node12 -->
<g id="node13" class="node">
<title>Node12</title>
<polygon fill="#ffffff" stroke="#bfbfbf" points="425,-.5 425,-19.5 490,-19.5 490,-.5 425,-.5"/>
<text text-anchor="middle" x="457.5" y="-7.5" font-family="Helvetica,sans-Serif" font-size="10.00" fill="#000000">stdexcept</text>
</g>
<!-- Node10&#45;&gt;Node12 -->
<g id="edge12" class="edge">
<title>Node10&#45;&gt;Node12</title>
<path fill="none" stroke="#191970" d="M540.9071,-56.2455C525.121,-47.4928 501.7361,-34.527 483.7413,-24.5496"/>
<polygon fill="#191970" stroke="#191970" points="485.3341,-21.4308 474.8913,-19.6427 481.9397,-27.5528 485.3341,-21.4308"/>
</g>
<!-- Node13&#45;&gt;Node7 -->
<g id="edge19" class="edge">
<title>Node13&#45;&gt;Node7</title>
<path fill="none" stroke="#191970" d="M451.5,-112.2455C451.5,-104.9382 451.5,-94.6944 451.5,-85.7046"/>
<polygon fill="#191970" stroke="#191970" points="455.0001,-85.6426 451.5,-75.6427 448.0001,-85.6427 455.0001,-85.6426"/>
</g>
<!-- Node13&#45;&gt;Node11 -->
<g id="edge20" class="edge">
<title>Node13&#45;&gt;Node11</title>
<path fill="none" stroke="#191970" d="M440.5868,-112.4509C418.6711,-93.2747 369.0957,-49.8962 342.0129,-26.1988"/>
<polygon fill="#191970" stroke="#191970" points="344.2162,-23.4759 334.3856,-19.5249 339.6066,-28.744 344.2162,-23.4759"/>
</g>
<!-- Node16&#45;&gt;Node1 -->
<g id="edge28" class="edge">
<title>Node16&#45;&gt;Node1</title>
<path fill="none" stroke="#191970" d="M160.9985,-112.4904C117.9182,-104.4557 64.5512,-91.7495 48.5,-76 36.1565,-63.8885 31.7008,-44.317 30.1572,-29.6254"/>
<polygon fill="#191970" stroke="#191970" points="33.6419,-29.2817 29.4621,-19.5462 26.6585,-29.7633 33.6419,-29.2817"/>
</g>
<!-- Node16&#45;&gt;Node11 -->
<g id="edge26" class="edge">
<title>Node16&#45;&gt;Node11</title>
<path fill="none" stroke="#191970" d="M230.5826,-112.3339C240.0472,-103.1635 254.5049,-88.9049 266.5,-76 281.3816,-59.9897 297.607,-41.0462 308.9273,-27.5701"/>
<polygon fill="#191970" stroke="#191970" points="311.8691,-29.5079 315.5946,-19.5897 306.4972,-25.0198 311.8691,-29.5079"/>
</g>
<!-- Node16&#45;&gt;Node12 -->
<g id="edge27" class="edge">
<title>Node16&#45;&gt;Node12</title>
<path fill="none" stroke="#191970" d="M240.7065,-112.4509C282.6839,-92.6135 379.4681,-46.8758 428.2572,-23.8194"/>
<polygon fill="#191970" stroke="#191970" points="429.7988,-26.9621 437.3447,-19.5249 426.8079,-20.6332 429.7988,-26.9621"/>
</g>
<!-- Node17 -->
<g id="node18" class="node">
<title>Node17</title>
<g id="a_node18"><a xlink:href="ROSComponentDescriptor_8hpp.html" target="_top" xlink:title="archlib/ROSComponentDescriptor.hpp">
<polygon fill="#ffffff" stroke="#000000" points="57.5,-56.5 57.5,-75.5 257.5,-75.5 257.5,-56.5 57.5,-56.5"/>
<text text-anchor="middle" x="157.5" y="-63.5" font-family="Helvetica,sans-Serif" font-size="10.00" fill="#000000">archlib/ROSComponentDescriptor.hpp</text>
</a>
</g>
</g>
<!-- Node16&#45;&gt;Node17 -->
<g id="edge29" class="edge">
<title>Node16&#45;&gt;Node17</title>
<path fill="none" stroke="#191970" d="M209.5262,-112.2455C200.3118,-104.0549 186.9468,-92.1749 176.0703,-82.5069"/>
<polygon fill="#191970" stroke="#191970" points="178.1474,-79.6704 168.348,-75.6427 173.4968,-84.9023 178.1474,-79.6704"/>
</g>
<!-- Node17&#45;&gt;Node1 -->
<g id="edge31" class="edge">
<title>Node17&#45;&gt;Node1</title>
<path fill="none" stroke="#191970" d="M135.496,-56.3733C114.8565,-47.3435 83.7842,-33.7494 60.6111,-23.6111"/>
<polygon fill="#191970" stroke="#191970" points="61.7813,-20.3028 51.2169,-19.5011 58.9755,-26.7159 61.7813,-20.3028"/>
</g>
<!-- Node17&#45;&gt;Node11 -->
<g id="edge30" class="edge">
<title>Node17&#45;&gt;Node11</title>
<path fill="none" stroke="#191970" d="M186.0364,-56.3733C215.4357,-46.4554 261.1574,-31.0313 291.6999,-20.7278"/>
<polygon fill="#191970" stroke="#191970" points="293.0738,-23.9581 301.4304,-17.4452 290.8362,-17.3254 293.0738,-23.9581"/>
</g>
</g>
</svg>
