<?xml version="1.0" encoding="UTF-8" standalone="no"?>
<!DOCTYPE svg PUBLIC "-//W3C//DTD SVG 1.1//EN"
 "http://www.w3.org/Graphics/SVG/1.1/DTD/svg11.dtd">
<!-- Generated by graphviz version 2.40.1 (20161225.0304)
 -->
<!-- Title: src/sa&#45;bsn/environment/patient/include/PatientModule.hpp Pages: 1 -->
<svg width="328pt" height="106pt"
 viewBox="0.00 0.00 328.00 106.00" xmlns="http://www.w3.org/2000/svg" xmlns:xlink="http://www.w3.org/1999/xlink">
<g id="graph0" class="graph" transform="scale(1 1) rotate(0) translate(4 102)">
<title>src/sa&#45;bsn/environment/patient/include/PatientModule.hpp</title>
<polygon fill="#ffffff" stroke="transparent" points="-4,4 -4,-102 324,-102 324,4 -4,4"/>
<!-- Node18 -->
<g id="node1" class="node">
<title>Node18</title>
<polygon fill="#bfbfbf" stroke="#000000" points="60.5,-67.5 60.5,-97.5 245.5,-97.5 245.5,-67.5 60.5,-67.5"/>
<text text-anchor="start" x="68.5" y="-85.5" font-family="Helvetica,sans-Serif" font-size="10.00" fill="#000000">src/sa&#45;bsn/environment</text>
<text text-anchor="middle" x="153" y="-74.5" font-family="Helvetica,sans-Serif" font-size="10.00" fill="#000000">/patient/include/PatientModule.hpp</text>
</g>
<!-- Node19 -->
<g id="node2" class="node">
<title>Node19</title>
<g id="a_node2"><a xlink:href="patient_8cpp.html" target="_top" xlink:title="src/sa&#45;bsn/environment\l/patient/apps/patient.cpp">
<polygon fill="#ffffff" stroke="#000000" points="0,-.5 0,-30.5 138,-30.5 138,-.5 0,-.5"/>
<text text-anchor="start" x="8" y="-18.5" font-family="Helvetica,sans-Serif" font-size="10.00" fill="#000000">src/sa&#45;bsn/environment</text>
<text text-anchor="middle" x="69" y="-7.5" font-family="Helvetica,sans-Serif" font-size="10.00" fill="#000000">/patient/apps/patient.cpp</text>
</a>
</g>
</g>
<!-- Node18&#45;&gt;Node19 -->
<g id="edge1" class="edge">
<title>Node18&#45;&gt;Node19</title>
<path fill="none" stroke="#191970" d="M125.77,-60.7808C113.4301,-50.9383 99.1409,-39.541 87.9855,-30.6432"/>
<polygon fill="#191970" stroke="#191970" points="123.9388,-63.7973 133.9391,-67.2967 128.3038,-58.3248 123.9388,-63.7973"/>
</g>
<!-- Node20 -->
<g id="node3" class="node">
<title>Node20</title>
<g id="a_node3"><a xlink:href="PatientModule_8cpp.html" target="_top" xlink:title="src/sa&#45;bsn/environment\l/patient/src/PatientModule.cpp">
<polygon fill="#ffffff" stroke="#000000" points="156,-.5 156,-30.5 320,-30.5 320,-.5 156,-.5"/>
<text text-anchor="start" x="164" y="-18.5" font-family="Helvetica,sans-Serif" font-size="10.00" fill="#000000">src/sa&#45;bsn/environment</text>
<text text-anchor="middle" x="238" y="-7.5" font-family="Helvetica,sans-Serif" font-size="10.00" fill="#000000">/patient/src/PatientModule.cpp</text>
</a>
</g>
</g>
<!-- Node18&#45;&gt;Node20 -->
<g id="edge2" class="edge">
<title>Node18&#45;&gt;Node20</title>
<path fill="none" stroke="#191970" d="M180.1945,-61.0643C192.7626,-51.1577 207.3917,-39.6265 218.7885,-30.6432"/>
<polygon fill="#191970" stroke="#191970" points="177.9747,-58.3574 172.2878,-67.2967 182.3081,-63.8549 177.9747,-58.3574"/>
</g>
</g>
</svg>
