<?xml version="1.0" encoding="UTF-8" standalone="no"?>
<!DOCTYPE svg PUBLIC "-//W3C//DTD SVG 1.1//EN"
 "http://www.w3.org/Graphics/SVG/1.1/DTD/svg11.dtd">
<!-- Generated by graphviz version 2.40.1 (20161225.0304)
 -->
<!-- Title: src/archlib/include/archlib/target_system/Probe.hpp Pages: 1 -->
<svg width="570pt" height="218pt"
 viewBox="0.00 0.00 569.82 218.00" xmlns="http://www.w3.org/2000/svg" xmlns:xlink="http://www.w3.org/1999/xlink">
<g id="graph0" class="graph" transform="scale(1 1) rotate(0) translate(4 214)">
<title>src/archlib/include/archlib/target_system/Probe.hpp</title>
<polygon fill="#ffffff" stroke="transparent" points="-4,4 -4,-214 565.8194,-214 565.8194,4 -4,4"/>
<!-- Node0 -->
<g id="node1" class="node">
<title>Node0</title>
<polygon fill="#bfbfbf" stroke="#000000" points="295.928,-168.5 295.928,-209.5 421.928,-209.5 421.928,-168.5 295.928,-168.5"/>
<text text-anchor="start" x="303.928" y="-197.5" font-family="Helvetica,sans-Serif" font-size="10.00" fill="#000000">src/archlib/include</text>
<text text-anchor="start" x="303.928" y="-186.5" font-family="Helvetica,sans-Serif" font-size="10.00" fill="#000000">/archlib/target_system</text>
<text text-anchor="middle" x="358.928" y="-175.5" font-family="Helvetica,sans-Serif" font-size="10.00" fill="#000000">/Probe.hpp</text>
</g>
<!-- Node1 -->
<g id="node2" class="node">
<title>Node1</title>
<polygon fill="#ffffff" stroke="#bfbfbf" points="295.428,-.5 295.428,-19.5 354.428,-19.5 354.428,-.5 295.428,-.5"/>
<text text-anchor="middle" x="324.928" y="-7.5" font-family="Helvetica,sans-Serif" font-size="10.00" fill="#000000">ros/ros.h</text>
</g>
<!-- Node0&#45;&gt;Node1 -->
<g id="edge1" class="edge">
<title>Node0&#45;&gt;Node1</title>
<path fill="none" stroke="#191970" d="M422.1211,-179.3131C473.9731,-169.9211 541.4335,-153.8824 557.928,-132 563.2785,-124.9018 562.7925,-119.4397 557.928,-112 514.9071,-46.2042 419.0416,-22.5917 364.6344,-14.3118"/>
<polygon fill="#191970" stroke="#191970" points="365.0496,-10.8357 354.6568,-12.8947 364.0652,-17.7662 365.0496,-10.8357"/>
</g>
<!-- Node2 -->
<g id="node3" class="node">
<title>Node2</title>
<polygon fill="#ffffff" stroke="#bfbfbf" points="205.428,-112.5 205.428,-131.5 294.428,-131.5 294.428,-112.5 205.428,-112.5"/>
<text text-anchor="middle" x="249.928" y="-119.5" font-family="Helvetica,sans-Serif" font-size="10.00" fill="#000000">archlib/Event.h</text>
</g>
<!-- Node0&#45;&gt;Node2 -->
<g id="edge2" class="edge">
<title>Node0&#45;&gt;Node2</title>
<path fill="none" stroke="#191970" d="M325.335,-168.3511C308.8622,-158.2256 289.3859,-146.254 274.3537,-137.0139"/>
<polygon fill="#191970" stroke="#191970" points="275.9869,-133.9095 265.6348,-131.6546 272.3213,-139.873 275.9869,-133.9095"/>
</g>
<!-- Node3 -->
<g id="node4" class="node">
<title>Node3</title>
<polygon fill="#ffffff" stroke="#bfbfbf" points="312.928,-112.5 312.928,-131.5 404.928,-131.5 404.928,-112.5 312.928,-112.5"/>
<text text-anchor="middle" x="358.928" y="-119.5" font-family="Helvetica,sans-Serif" font-size="10.00" fill="#000000">archlib/Status.h</text>
</g>
<!-- Node0&#45;&gt;Node3 -->
<g id="edge3" class="edge">
<title>Node0&#45;&gt;Node3</title>
<path fill="none" stroke="#191970" d="M358.928,-168.168C358.928,-159.8226 358.928,-150.2471 358.928,-141.9879"/>
<polygon fill="#191970" stroke="#191970" points="362.4281,-141.7804 358.928,-131.7805 355.4281,-141.7805 362.4281,-141.7804"/>
</g>
<!-- Node4 -->
<g id="node5" class="node">
<title>Node4</title>
<polygon fill="#ffffff" stroke="#bfbfbf" points="422.928,-112.5 422.928,-131.5 548.928,-131.5 548.928,-112.5 422.928,-112.5"/>
<text text-anchor="middle" x="485.928" y="-119.5" font-family="Helvetica,sans-Serif" font-size="10.00" fill="#000000">archlib/EnergyStatus.h</text>
</g>
<!-- Node0&#45;&gt;Node4 -->
<g id="edge4" class="edge">
<title>Node0&#45;&gt;Node4</title>
<path fill="none" stroke="#191970" d="M398.0685,-168.3511C417.6236,-158.0346 440.8117,-145.8015 458.4546,-136.4939"/>
<polygon fill="#191970" stroke="#191970" points="460.4159,-139.4164 467.6274,-131.6546 457.1496,-133.2251 460.4159,-139.4164"/>
</g>
<!-- Node5 -->
<g id="node6" class="node">
<title>Node5</title>
<g id="a_node6"><a xlink:href="ROSComponent_8hpp.html" target="_top" xlink:title="archlib/ROSComponent.hpp">
<polygon fill="#ffffff" stroke="#000000" points="37.928,-112.5 37.928,-131.5 187.928,-131.5 187.928,-112.5 37.928,-112.5"/>
<text text-anchor="middle" x="112.928" y="-119.5" font-family="Helvetica,sans-Serif" font-size="10.00" fill="#000000">archlib/ROSComponent.hpp</text>
</a>
</g>
</g>
<!-- Node0&#45;&gt;Node5 -->
<g id="edge5" class="edge">
<title>Node0&#45;&gt;Node5</title>
<path fill="none" stroke="#191970" d="M295.8963,-171.8328C252.7725,-160.0877 196.6278,-144.7963 157.9661,-134.2665"/>
<polygon fill="#191970" stroke="#191970" points="158.6104,-130.8145 148.0421,-131.5636 156.7708,-137.5685 158.6104,-130.8145"/>
</g>
<!-- Node5&#45;&gt;Node1 -->
<g id="edge8" class="edge">
<title>Node5&#45;&gt;Node1</title>
<path fill="none" stroke="#191970" d="M185.155,-112.4809C232.4021,-104.8466 288.4881,-92.6502 305.928,-76 318.436,-64.0584 322.8698,-44.4643 324.3635,-29.7212"/>
<polygon fill="#191970" stroke="#191970" points="327.8653,-29.8046 325.0177,-19.5996 320.8799,-29.3531 327.8653,-29.8046"/>
</g>
<!-- Node6 -->
<g id="node7" class="node">
<title>Node6</title>
<polygon fill="#ffffff" stroke="#bfbfbf" points="26.928,-.5 26.928,-19.5 70.928,-19.5 70.928,-.5 26.928,-.5"/>
<text text-anchor="middle" x="48.928" y="-7.5" font-family="Helvetica,sans-Serif" font-size="10.00" fill="#000000">string</text>
</g>
<!-- Node5&#45;&gt;Node6 -->
<g id="edge6" class="edge">
<title>Node5&#45;&gt;Node6</title>
<path fill="none" stroke="#191970" d="M58.91,-112.4617C38.1004,-105.8668 16.3612,-94.742 3.928,-76 -7.4968,-58.778 9.6287,-39.2414 25.9364,-25.921"/>
<polygon fill="#191970" stroke="#191970" points="28.4225,-28.4256 34.2342,-19.567 24.1667,-22.8679 28.4225,-28.4256"/>
</g>
<!-- Node7 -->
<g id="node8" class="node">
<title>Node7</title>
<polygon fill="#ffffff" stroke="#bfbfbf" points="231.428,-56.5 231.428,-75.5 296.428,-75.5 296.428,-56.5 231.428,-56.5"/>
<text text-anchor="middle" x="263.928" y="-63.5" font-family="Helvetica,sans-Serif" font-size="10.00" fill="#000000">stdexcept</text>
</g>
<!-- Node5&#45;&gt;Node7 -->
<g id="edge7" class="edge">
<title>Node5&#45;&gt;Node7</title>
<path fill="none" stroke="#191970" d="M138.8858,-112.3733C163.6687,-103.1822 201.2026,-89.2624 228.6821,-79.0713"/>
<polygon fill="#191970" stroke="#191970" points="230.15,-82.26 238.3089,-75.5011 227.7159,-75.6968 230.15,-82.26"/>
</g>
<!-- Node8 -->
<g id="node9" class="node">
<title>Node8</title>
<g id="a_node9"><a xlink:href="ROSComponentDescriptor_8hpp.html" target="_top" xlink:title="archlib/ROSComponentDescriptor.hpp">
<polygon fill="#ffffff" stroke="#000000" points="12.928,-56.5 12.928,-75.5 212.928,-75.5 212.928,-56.5 12.928,-56.5"/>
<text text-anchor="middle" x="112.928" y="-63.5" font-family="Helvetica,sans-Serif" font-size="10.00" fill="#000000">archlib/ROSComponentDescriptor.hpp</text>
</a>
</g>
</g>
<!-- Node5&#45;&gt;Node8 -->
<g id="edge9" class="edge">
<title>Node5&#45;&gt;Node8</title>
<path fill="none" stroke="#191970" d="M112.928,-112.2455C112.928,-104.9382 112.928,-94.6944 112.928,-85.7046"/>
<polygon fill="#191970" stroke="#191970" points="116.4281,-85.6426 112.928,-75.6427 109.4281,-85.6427 116.4281,-85.6426"/>
</g>
<!-- Node8&#45;&gt;Node1 -->
<g id="edge11" class="edge">
<title>Node8&#45;&gt;Node1</title>
<path fill="none" stroke="#191970" d="M149.3721,-56.3733C187.1911,-46.3833 246.1595,-30.8068 285.1631,-20.5039"/>
<polygon fill="#191970" stroke="#191970" points="286.3373,-23.8139 295.1117,-17.876 284.5495,-17.046 286.3373,-23.8139"/>
</g>
<!-- Node8&#45;&gt;Node6 -->
<g id="edge10" class="edge">
<title>Node8&#45;&gt;Node6</title>
<path fill="none" stroke="#191970" d="M101.7801,-56.2455C92.4193,-48.0549 78.8422,-36.1749 67.7931,-26.5069"/>
<polygon fill="#191970" stroke="#191970" points="69.7788,-23.5937 59.9482,-19.6427 65.1692,-28.8618 69.7788,-23.5937"/>
</g>
</g>
</svg>
