<?xml version="1.0" encoding="UTF-8" standalone="no"?>
<!DOCTYPE svg PUBLIC "-//W3C//DTD SVG 1.1//EN"
 "http://www.w3.org/Graphics/SVG/1.1/DTD/svg11.dtd">
<!-- Generated by graphviz version 2.40.1 (20161225.0304)
 -->
<!-- Title: src/archlib/include/archlib/target_system/Probe.hpp Pages: 1 -->
<svg width="282pt" height="128pt"
 viewBox="0.00 0.00 282.00 128.00" xmlns="http://www.w3.org/2000/svg" xmlns:xlink="http://www.w3.org/1999/xlink">
<g id="graph0" class="graph" transform="scale(1 1) rotate(0) translate(4 124)">
<title>src/archlib/include/archlib/target_system/Probe.hpp</title>
<polygon fill="#ffffff" stroke="transparent" points="-4,4 -4,-124 278,-124 278,4 -4,4"/>
<!-- Node9 -->
<g id="node1" class="node">
<title>Node9</title>
<polygon fill="#bfbfbf" stroke="#000000" points="68,-78.5 68,-119.5 194,-119.5 194,-78.5 68,-78.5"/>
<text text-anchor="start" x="76" y="-107.5" font-family="Helvetica,sans-Serif" font-size="10.00" fill="#000000">src/archlib/include</text>
<text text-anchor="start" x="76" y="-96.5" font-family="Helvetica,sans-Serif" font-size="10.00" fill="#000000">/archlib/target_system</text>
<text text-anchor="middle" x="131" y="-85.5" font-family="Helvetica,sans-Serif" font-size="10.00" fill="#000000">/Probe.hpp</text>
</g>
<!-- Node10 -->
<g id="node2" class="node">
<title>Node10</title>
<g id="a_node2"><a xlink:href="Probe_8cpp.html" target="_top" xlink:title="src/archlib/src/target\l_system/Probe.cpp">
<polygon fill="#ffffff" stroke="#000000" points="0,-6 0,-36 116,-36 116,-6 0,-6"/>
<text text-anchor="start" x="8" y="-24" font-family="Helvetica,sans-Serif" font-size="10.00" fill="#000000">src/archlib/src/target</text>
<text text-anchor="middle" x="58" y="-13" font-family="Helvetica,sans-Serif" font-size="10.00" fill="#000000">_system/Probe.cpp</text>
</a>
</g>
</g>
<!-- Node9&#45;&gt;Node10 -->
<g id="edge1" class="edge">
<title>Node9&#45;&gt;Node10</title>
<path fill="none" stroke="#191970" d="M104.5137,-70.6996C93.6267,-59.0669 81.4516,-46.0578 72.2892,-36.2679"/>
<polygon fill="#191970" stroke="#191970" points="102.0487,-73.1878 111.4373,-78.0974 107.1596,-68.4046 102.0487,-73.1878"/>
</g>
<!-- Node11 -->
<g id="node3" class="node">
<title>Node11</title>
<g id="a_node3"><a xlink:href="collector_8cpp.html" target="_top" xlink:title="src/sa&#45;bsn/target_system\l/probes/collector/apps\l/collector.cpp">
<polygon fill="#ffffff" stroke="#000000" points="134,-.5 134,-41.5 274,-41.5 274,-.5 134,-.5"/>
<text text-anchor="start" x="142" y="-29.5" font-family="Helvetica,sans-Serif" font-size="10.00" fill="#000000">src/sa&#45;bsn/target_system</text>
<text text-anchor="start" x="142" y="-18.5" font-family="Helvetica,sans-Serif" font-size="10.00" fill="#000000">/probes/collector/apps</text>
<text text-anchor="middle" x="204" y="-7.5" font-family="Helvetica,sans-Serif" font-size="10.00" fill="#000000">/collector.cpp</text>
</a>
</g>
</g>
<!-- Node9&#45;&gt;Node11 -->
<g id="edge2" class="edge">
<title>Node9&#45;&gt;Node11</title>
<path fill="none" stroke="#191970" d="M157.5225,-70.6609C166.4908,-61.0783 176.3296,-50.5657 184.6365,-41.6898"/>
<polygon fill="#191970" stroke="#191970" points="154.8404,-68.4046 150.5627,-78.0974 159.9513,-73.1878 154.8404,-68.4046"/>
</g>
</g>
</svg>
