<?xml version="1.0" encoding="UTF-8" standalone="no"?>
<!DOCTYPE svg PUBLIC "-//W3C//DTD SVG 1.1//EN"
 "http://www.w3.org/Graphics/SVG/1.1/DTD/svg11.dtd">
<!-- Generated by graphviz version 2.40.1 (20161225.0304)
 -->
<!-- Title: src/libbsn/include/libbsn/processor/Processor.hpp Pages: 1 -->
<svg width="587pt" height="195pt"
 viewBox="0.00 0.00 587.00 195.00" xmlns="http://www.w3.org/2000/svg" xmlns:xlink="http://www.w3.org/1999/xlink">
<g id="graph0" class="graph" transform="scale(1 1) rotate(0) translate(4 191)">
<title>src/libbsn/include/libbsn/processor/Processor.hpp</title>
<polygon fill="#ffffff" stroke="transparent" points="-4,4 -4,-191 583,-191 583,4 -4,4"/>
<!-- Node6 -->
<g id="node1" class="node">
<title>Node6</title>
<polygon fill="#bfbfbf" stroke="#000000" points="142.5,-156.5 142.5,-186.5 312.5,-186.5 312.5,-156.5 142.5,-156.5"/>
<text text-anchor="start" x="150.5" y="-174.5" font-family="Helvetica,sans-Serif" font-size="10.00" fill="#000000">src/libbsn/include</text>
<text text-anchor="middle" x="227.5" y="-163.5" font-family="Helvetica,sans-Serif" font-size="10.00" fill="#000000">/libbsn/processor/Processor.hpp</text>
</g>
<!-- Node7 -->
<g id="node2" class="node">
<title>Node7</title>
<g id="a_node2"><a xlink:href="Processor_8cpp.html" target="_top" xlink:title="src/libbsn/src/processor\l/Processor.cpp">
<polygon fill="#ffffff" stroke="#000000" points="0,-84 0,-114 131,-114 131,-84 0,-84"/>
<text text-anchor="start" x="8" y="-102" font-family="Helvetica,sans-Serif" font-size="10.00" fill="#000000">src/libbsn/src/processor</text>
<text text-anchor="middle" x="65.5" y="-91" font-family="Helvetica,sans-Serif" font-size="10.00" fill="#000000">/Processor.cpp</text>
</a>
</g>
</g>
<!-- Node6&#45;&gt;Node7 -->
<g id="edge1" class="edge">
<title>Node6&#45;&gt;Node7</title>
<path fill="none" stroke="#191970" d="M184.7792,-152.3811C157.9654,-140.3811 123.8837,-125.1285 99.0235,-114.0028"/>
<polygon fill="#191970" stroke="#191970" points="183.3761,-155.5877 193.9335,-156.478 186.2356,-149.1983 183.3761,-155.5877"/>
</g>
<!-- Node8 -->
<g id="node3" class="node">
<title>Node8</title>
<g id="a_node3"><a xlink:href="ProcessorTest_8cpp.html" target="_top" xlink:title="src/libbsn/test/unit\l/processor/ProcessorTest.cpp">
<polygon fill="#ffffff" stroke="#000000" points="149,-84 149,-114 306,-114 306,-84 149,-84"/>
<text text-anchor="start" x="157" y="-102" font-family="Helvetica,sans-Serif" font-size="10.00" fill="#000000">src/libbsn/test/unit</text>
<text text-anchor="middle" x="227.5" y="-91" font-family="Helvetica,sans-Serif" font-size="10.00" fill="#000000">/processor/ProcessorTest.cpp</text>
</a>
</g>
</g>
<!-- Node6&#45;&gt;Node8 -->
<g id="edge2" class="edge">
<title>Node6&#45;&gt;Node8</title>
<path fill="none" stroke="#191970" d="M227.5,-146.3409C227.5,-135.5601 227.5,-123.3309 227.5,-114.0028"/>
<polygon fill="#191970" stroke="#191970" points="224.0001,-146.4779 227.5,-156.478 231.0001,-146.478 224.0001,-146.4779"/>
</g>
<!-- Node9 -->
<g id="node4" class="node">
<title>Node9</title>
<g id="a_node4"><a xlink:href="G4T1_8hpp.html" target="_top" xlink:title="src/sa&#45;bsn/target_system\l/components/component/include\l/component/g4t1/G4T1.hpp">
<polygon fill="#ffffff" stroke="#000000" points="324.5,-78.5 324.5,-119.5 500.5,-119.5 500.5,-78.5 324.5,-78.5"/>
<text text-anchor="start" x="332.5" y="-107.5" font-family="Helvetica,sans-Serif" font-size="10.00" fill="#000000">src/sa&#45;bsn/target_system</text>
<text text-anchor="start" x="332.5" y="-96.5" font-family="Helvetica,sans-Serif" font-size="10.00" fill="#000000">/components/component/include</text>
<text text-anchor="middle" x="412.5" y="-85.5" font-family="Helvetica,sans-Serif" font-size="10.00" fill="#000000">/component/g4t1/G4T1.hpp</text>
</a>
</g>
</g>
<!-- Node6&#45;&gt;Node9 -->
<g id="edge3" class="edge">
<title>Node6&#45;&gt;Node9</title>
<path fill="none" stroke="#191970" d="M275.4617,-152.7042C301.437,-142.5247 333.567,-129.9332 360.1858,-119.5015"/>
<polygon fill="#191970" stroke="#191970" points="273.8656,-149.5705 265.8321,-156.478 276.4198,-156.0879 273.8656,-149.5705"/>
</g>
<!-- Node10 -->
<g id="node5" class="node">
<title>Node10</title>
<g id="a_node5"><a xlink:href="g4t1_8cpp.html" target="_top" xlink:title="src/sa&#45;bsn/target_system\l/components/component/apps\l/g4t1.cpp">
<polygon fill="#ffffff" stroke="#000000" points="241.5,-.5 241.5,-41.5 405.5,-41.5 405.5,-.5 241.5,-.5"/>
<text text-anchor="start" x="249.5" y="-29.5" font-family="Helvetica,sans-Serif" font-size="10.00" fill="#000000">src/sa&#45;bsn/target_system</text>
<text text-anchor="start" x="249.5" y="-18.5" font-family="Helvetica,sans-Serif" font-size="10.00" fill="#000000">/components/component/apps</text>
<text text-anchor="middle" x="323.5" y="-7.5" font-family="Helvetica,sans-Serif" font-size="10.00" fill="#000000">/g4t1.cpp</text>
</a>
</g>
</g>
<!-- Node9&#45;&gt;Node10 -->
<g id="edge4" class="edge">
<title>Node9&#45;&gt;Node10</title>
<path fill="none" stroke="#191970" d="M380.8126,-71.229C369.7062,-61.4953 357.4357,-50.7414 347.1076,-41.6898"/>
<polygon fill="#191970" stroke="#191970" points="378.8222,-74.1386 388.6496,-78.0974 383.436,-68.8742 378.8222,-74.1386"/>
</g>
<!-- Node11 -->
<g id="node6" class="node">
<title>Node11</title>
<g id="a_node6"><a xlink:href="G4T1_8cpp.html" target="_top" xlink:title="src/sa&#45;bsn/target_system\l/components/component/src\l/g4t1/G4T1.cpp">
<polygon fill="#ffffff" stroke="#000000" points="424,-.5 424,-41.5 579,-41.5 579,-.5 424,-.5"/>
<text text-anchor="start" x="432" y="-29.5" font-family="Helvetica,sans-Serif" font-size="10.00" fill="#000000">src/sa&#45;bsn/target_system</text>
<text text-anchor="start" x="432" y="-18.5" font-family="Helvetica,sans-Serif" font-size="10.00" fill="#000000">/components/component/src</text>
<text text-anchor="middle" x="501.5" y="-7.5" font-family="Helvetica,sans-Serif" font-size="10.00" fill="#000000">/g4t1/G4T1.cpp</text>
</a>
</g>
</g>
<!-- Node9&#45;&gt;Node11 -->
<g id="edge5" class="edge">
<title>Node9&#45;&gt;Node11</title>
<path fill="none" stroke="#191970" d="M444.1874,-71.229C455.2938,-61.4953 467.5643,-50.7414 477.8924,-41.6898"/>
<polygon fill="#191970" stroke="#191970" points="441.564,-68.8742 436.3504,-78.0974 446.1778,-74.1386 441.564,-68.8742"/>
</g>
</g>
</svg>
