<?xml version="1.0" encoding="UTF-8" standalone="no"?>
<!DOCTYPE svg PUBLIC "-//W3C//DTD SVG 1.1//EN"
 "http://www.w3.org/Graphics/SVG/1.1/DTD/svg11.dtd">
<!-- Generated by graphviz version 2.40.1 (20161225.0304)
 -->
<!-- Title: src/libbsn/include/libbsn/processor/Processor.hpp Pages: 1 -->
<svg width="317pt" height="95pt"
 viewBox="0.00 0.00 317.00 95.00" xmlns="http://www.w3.org/2000/svg" xmlns:xlink="http://www.w3.org/1999/xlink">
<g id="graph0" class="graph" transform="scale(1 1) rotate(0) translate(4 91)">
<title>src/libbsn/include/libbsn/processor/Processor.hpp</title>
<polygon fill="#ffffff" stroke="transparent" points="-4,4 -4,-91 313,-91 313,4 -4,4"/>
<!-- Node0 -->
<g id="node1" class="node">
<title>Node0</title>
<polygon fill="#bfbfbf" stroke="#000000" points="52.5,-56.5 52.5,-86.5 222.5,-86.5 222.5,-56.5 52.5,-56.5"/>
<text text-anchor="start" x="60.5" y="-74.5" font-family="Helvetica,sans-Serif" font-size="10.00" fill="#000000">src/libbsn/include</text>
<text text-anchor="middle" x="137.5" y="-63.5" font-family="Helvetica,sans-Serif" font-size="10.00" fill="#000000">/libbsn/processor/Processor.hpp</text>
</g>
<!-- Node1 -->
<g id="node2" class="node">
<title>Node1</title>
<polygon fill="#ffffff" stroke="#bfbfbf" points="0,-.5 0,-19.5 47,-19.5 47,-.5 0,-.5"/>
<text text-anchor="middle" x="23.5" y="-7.5" font-family="Helvetica,sans-Serif" font-size="10.00" fill="#000000">vector</text>
</g>
<!-- Node0&#45;&gt;Node1 -->
<g id="edge1" class="edge">
<title>Node0&#45;&gt;Node1</title>
<path fill="none" stroke="#191970" d="M109.6125,-56.4554C91.5924,-46.734 68.2659,-34.15 50.4368,-24.5317"/>
<polygon fill="#191970" stroke="#191970" points="51.6287,-21.1979 41.166,-19.5303 48.3052,-27.3586 51.6287,-21.1979"/>
</g>
<!-- Node2 -->
<g id="node3" class="node">
<title>Node2</title>
<polygon fill="#ffffff" stroke="#bfbfbf" points="65.5,-.5 65.5,-19.5 97.5,-19.5 97.5,-.5 65.5,-.5"/>
<text text-anchor="middle" x="81.5" y="-7.5" font-family="Helvetica,sans-Serif" font-size="10.00" fill="#000000">list</text>
</g>
<!-- Node0&#45;&gt;Node2 -->
<g id="edge2" class="edge">
<title>Node0&#45;&gt;Node2</title>
<path fill="none" stroke="#191970" d="M123.6573,-56.2977C115.641,-47.4941 105.5238,-36.3833 97.21,-27.2529"/>
<polygon fill="#191970" stroke="#191970" points="99.7869,-24.8845 90.4663,-19.8469 94.6112,-29.5974 99.7869,-24.8845"/>
</g>
<!-- Node3 -->
<g id="node4" class="node">
<title>Node3</title>
<polygon fill="#ffffff" stroke="#bfbfbf" points="115.5,-.5 115.5,-19.5 159.5,-19.5 159.5,-.5 115.5,-.5"/>
<text text-anchor="middle" x="137.5" y="-7.5" font-family="Helvetica,sans-Serif" font-size="10.00" fill="#000000">string</text>
</g>
<!-- Node0&#45;&gt;Node3 -->
<g id="edge3" class="edge">
<title>Node0&#45;&gt;Node3</title>
<path fill="none" stroke="#191970" d="M137.5,-56.2977C137.5,-48.3834 137.5,-38.6043 137.5,-30.0759"/>
<polygon fill="#191970" stroke="#191970" points="141.0001,-29.8469 137.5,-19.8469 134.0001,-29.847 141.0001,-29.8469"/>
</g>
<!-- Node4 -->
<g id="node5" class="node">
<title>Node4</title>
<polygon fill="#ffffff" stroke="#bfbfbf" points="177.5,-.5 177.5,-19.5 237.5,-19.5 237.5,-.5 177.5,-.5"/>
<text text-anchor="middle" x="207.5" y="-7.5" font-family="Helvetica,sans-Serif" font-size="10.00" fill="#000000">iostream</text>
</g>
<!-- Node0&#45;&gt;Node4 -->
<g id="edge4" class="edge">
<title>Node0&#45;&gt;Node4</title>
<path fill="none" stroke="#191970" d="M154.8034,-56.2977C165.0262,-47.3163 177.9823,-35.9334 188.4896,-26.702"/>
<polygon fill="#191970" stroke="#191970" points="191.0897,-29.0766 196.2921,-19.8469 186.4695,-23.8178 191.0897,-29.0766"/>
</g>
<!-- Node5 -->
<g id="node6" class="node">
<title>Node5</title>
<polygon fill="#ffffff" stroke="#bfbfbf" points="256,-.5 256,-19.5 309,-19.5 309,-.5 256,-.5"/>
<text text-anchor="middle" x="282.5" y="-7.5" font-family="Helvetica,sans-Serif" font-size="10.00" fill="#000000">stdint.h</text>
</g>
<!-- Node0&#45;&gt;Node5 -->
<g id="edge5" class="edge">
<title>Node0&#45;&gt;Node5</title>
<path fill="none" stroke="#191970" d="M172.971,-56.4554C196.7402,-46.374 227.768,-33.2139 250.7285,-23.4755"/>
<polygon fill="#191970" stroke="#191970" points="252.1906,-26.6572 260.0301,-19.5303 249.4573,-20.2129 252.1906,-26.6572"/>
</g>
</g>
</svg>
