<?xml version="1.0" encoding="UTF-8" standalone="no"?>
<!DOCTYPE svg PUBLIC "-//W3C//DTD SVG 1.1//EN"
 "http://www.w3.org/Graphics/SVG/1.1/DTD/svg11.dtd">
<!-- Generated by graphviz version 2.40.1 (20161225.0304)
 -->
<!-- Title: src/libbsn/test/unit/processor/ProcessorTest.cpp Pages: 1 -->
<svg width="399pt" height="151pt"
 viewBox="0.00 0.00 398.50 151.00" xmlns="http://www.w3.org/2000/svg" xmlns:xlink="http://www.w3.org/1999/xlink">
<g id="graph0" class="graph" transform="scale(1 1) rotate(0) translate(4 147)">
<title>src/libbsn/test/unit/processor/ProcessorTest.cpp</title>
<polygon fill="#ffffff" stroke="transparent" points="-4,4 -4,-147 394.5,-147 394.5,4 -4,4"/>
<!-- Node0 -->
<g id="node1" class="node">
<title>Node0</title>
<polygon fill="#bfbfbf" stroke="#000000" points="27.5,-112.5 27.5,-142.5 184.5,-142.5 184.5,-112.5 27.5,-112.5"/>
<text text-anchor="start" x="35.5" y="-130.5" font-family="Helvetica,sans-Serif" font-size="10.00" fill="#000000">src/libbsn/test/unit</text>
<text text-anchor="middle" x="106" y="-119.5" font-family="Helvetica,sans-Serif" font-size="10.00" fill="#000000">/processor/ProcessorTest.cpp</text>
</g>
<!-- Node1 -->
<g id="node2" class="node">
<title>Node1</title>
<polygon fill="#ffffff" stroke="#bfbfbf" points="0,-56.5 0,-75.5 78,-75.5 78,-56.5 0,-56.5"/>
<text text-anchor="middle" x="39" y="-63.5" font-family="Helvetica,sans-Serif" font-size="10.00" fill="#000000">gtest/gtest.h</text>
</g>
<!-- Node0&#45;&gt;Node1 -->
<g id="edge1" class="edge">
<title>Node0&#45;&gt;Node1</title>
<path fill="none" stroke="#191970" d="M89.4382,-112.2977C79.6535,-103.3163 67.2526,-91.9334 57.1957,-82.702"/>
<polygon fill="#191970" stroke="#191970" points="59.4613,-80.0307 49.7275,-75.8469 54.7278,-85.1876 59.4613,-80.0307"/>
</g>
<!-- Node2 -->
<g id="node3" class="node">
<title>Node2</title>
<polygon fill="#ffffff" stroke="#bfbfbf" points="81.5,-.5 81.5,-19.5 128.5,-19.5 128.5,-.5 81.5,-.5"/>
<text text-anchor="middle" x="105" y="-7.5" font-family="Helvetica,sans-Serif" font-size="10.00" fill="#000000">vector</text>
</g>
<!-- Node0&#45;&gt;Node2 -->
<g id="edge2" class="edge">
<title>Node0&#45;&gt;Node2</title>
<path fill="none" stroke="#191970" d="M105.8693,-112.1389C105.6891,-90.9692 105.3644,-52.8174 105.1669,-29.6112"/>
<polygon fill="#191970" stroke="#191970" points="108.6664,-29.5293 105.0814,-19.5595 101.6667,-29.5889 108.6664,-29.5293"/>
</g>
<!-- Node3 -->
<g id="node4" class="node">
<title>Node3</title>
<g id="a_node4"><a xlink:href="Processor_8hpp.html" target="_top" xlink:title="libbsn/processor/Processor.hpp">
<polygon fill="#ffffff" stroke="#000000" points="134.5,-56.5 134.5,-75.5 301.5,-75.5 301.5,-56.5 134.5,-56.5"/>
<text text-anchor="middle" x="218" y="-63.5" font-family="Helvetica,sans-Serif" font-size="10.00" fill="#000000">libbsn/processor/Processor.hpp</text>
</a>
</g>
</g>
<!-- Node0&#45;&gt;Node3 -->
<g id="edge3" class="edge">
<title>Node0&#45;&gt;Node3</title>
<path fill="none" stroke="#191970" d="M133.3983,-112.4554C151.1022,-102.734 174.0195,-90.15 191.5358,-80.5317"/>
<polygon fill="#191970" stroke="#191970" points="193.5631,-83.4115 200.644,-75.5303 190.1939,-77.2756 193.5631,-83.4115"/>
</g>
<!-- Node3&#45;&gt;Node2 -->
<g id="edge4" class="edge">
<title>Node3&#45;&gt;Node2</title>
<path fill="none" stroke="#191970" d="M198.5746,-56.3733C180.5979,-47.4644 153.6559,-34.1127 133.291,-24.0203"/>
<polygon fill="#191970" stroke="#191970" points="134.6861,-20.8055 124.1719,-19.5011 131.5778,-27.0776 134.6861,-20.8055"/>
</g>
<!-- Node4 -->
<g id="node5" class="node">
<title>Node4</title>
<polygon fill="#ffffff" stroke="#bfbfbf" points="147,-.5 147,-19.5 179,-19.5 179,-.5 147,-.5"/>
<text text-anchor="middle" x="163" y="-7.5" font-family="Helvetica,sans-Serif" font-size="10.00" fill="#000000">list</text>
</g>
<!-- Node3&#45;&gt;Node4 -->
<g id="edge5" class="edge">
<title>Node3&#45;&gt;Node4</title>
<path fill="none" stroke="#191970" d="M208.4197,-56.2455C200.4542,-48.1352 188.9359,-36.4075 179.4921,-26.7919"/>
<polygon fill="#191970" stroke="#191970" points="181.9747,-24.3247 172.4705,-19.6427 176.9805,-29.2297 181.9747,-24.3247"/>
</g>
<!-- Node5 -->
<g id="node6" class="node">
<title>Node5</title>
<polygon fill="#ffffff" stroke="#bfbfbf" points="197,-.5 197,-19.5 241,-19.5 241,-.5 197,-.5"/>
<text text-anchor="middle" x="219" y="-7.5" font-family="Helvetica,sans-Serif" font-size="10.00" fill="#000000">string</text>
</g>
<!-- Node3&#45;&gt;Node5 -->
<g id="edge6" class="edge">
<title>Node3&#45;&gt;Node5</title>
<path fill="none" stroke="#191970" d="M218.1742,-56.2455C218.3047,-48.9382 218.4876,-38.6944 218.6481,-29.7046"/>
<polygon fill="#191970" stroke="#191970" points="222.1486,-29.7036 218.8278,-19.6427 215.1497,-29.5786 222.1486,-29.7036"/>
</g>
<!-- Node6 -->
<g id="node7" class="node">
<title>Node6</title>
<polygon fill="#ffffff" stroke="#bfbfbf" points="259,-.5 259,-19.5 319,-19.5 319,-.5 259,-.5"/>
<text text-anchor="middle" x="289" y="-7.5" font-family="Helvetica,sans-Serif" font-size="10.00" fill="#000000">iostream</text>
</g>
<!-- Node3&#45;&gt;Node6 -->
<g id="edge7" class="edge">
<title>Node3&#45;&gt;Node6</title>
<path fill="none" stroke="#191970" d="M230.3673,-56.2455C240.9554,-47.8943 256.4064,-35.7076 268.7893,-25.9408"/>
<polygon fill="#191970" stroke="#191970" points="271.0903,-28.5837 276.7745,-19.6427 266.7553,-23.0875 271.0903,-28.5837"/>
</g>
<!-- Node7 -->
<g id="node8" class="node">
<title>Node7</title>
<polygon fill="#ffffff" stroke="#bfbfbf" points="337.5,-.5 337.5,-19.5 390.5,-19.5 390.5,-.5 337.5,-.5"/>
<text text-anchor="middle" x="364" y="-7.5" font-family="Helvetica,sans-Serif" font-size="10.00" fill="#000000">stdint.h</text>
</g>
<!-- Node3&#45;&gt;Node7 -->
<g id="edge8" class="edge">
<title>Node3&#45;&gt;Node7</title>
<path fill="none" stroke="#191970" d="M243.0983,-56.3733C266.9555,-47.2226 303.0335,-33.3844 329.571,-23.2057"/>
<polygon fill="#191970" stroke="#191970" points="331.1459,-26.3503 339.2292,-19.5011 328.639,-19.8145 331.1459,-26.3503"/>
</g>
</g>
</svg>
