<?xml version="1.0" encoding="UTF-8" standalone="no"?>
<!DOCTYPE svg PUBLIC "-//W3C//DTD SVG 1.1//EN"
 "http://www.w3.org/Graphics/SVG/1.1/DTD/svg11.dtd">
<!-- Generated by graphviz version 2.40.1 (20161225.0304)
 -->
<!-- Title: TEST_F Pages: 1 -->
<svg width="234pt" height="88pt"
 viewBox="0.00 0.00 234.00 88.00" xmlns="http://www.w3.org/2000/svg" xmlns:xlink="http://www.w3.org/1999/xlink">
<g id="graph0" class="graph" transform="scale(1 1) rotate(0) translate(4 84)">
<title>TEST_F</title>
<polygon fill="#ffffff" stroke="transparent" points="-4,4 -4,-84 230,-84 230,4 -4,4"/>
<!-- Node0 -->
<g id="node1" class="node">
<title>Node0</title>
<polygon fill="#bfbfbf" stroke="#000000" points="0,-30 0,-49 51,-49 51,-30 0,-30"/>
<text text-anchor="middle" x="25.5" y="-37" font-family="Helvetica,sans-Serif" font-size="10.00" fill="#000000">TEST_F</text>
</g>
<!-- Node1 -->
<g id="node2" class="node">
<title>Node1</title>
<g id="a_node2"><a xlink:href="classbsn_1_1goalmodel_1_1Property.html#a6093b47a372aee1ee4e61a6c33ad8a5f" target="_top" xlink:title="bsn::goalmodel::Property\l::getID">
<polygon fill="#ffffff" stroke="#000000" points="87,-49.5 87,-79.5 226,-79.5 226,-49.5 87,-49.5"/>
<text text-anchor="start" x="95" y="-67.5" font-family="Helvetica,sans-Serif" font-size="10.00" fill="#000000">bsn::goalmodel::Property</text>
<text text-anchor="middle" x="156.5" y="-56.5" font-family="Helvetica,sans-Serif" font-size="10.00" fill="#000000">::getID</text>
</a>
</g>
</g>
<!-- Node0&#45;&gt;Node1 -->
<g id="edge1" class="edge">
<title>Node0&#45;&gt;Node1</title>
<path fill="none" stroke="#191970" d="M51.0691,-44.3796C58.8059,-45.8561 67.7447,-47.562 77.079,-49.3433"/>
<polygon fill="#191970" stroke="#191970" points="76.4367,-52.7838 86.9156,-51.2205 77.749,-45.9079 76.4367,-52.7838"/>
</g>
<!-- Node2 -->
<g id="node3" class="node">
<title>Node2</title>
<g id="a_node3"><a xlink:href="classbsn_1_1goalmodel_1_1Property.html#a333f562fecf724207a06034e1baa9ca7" target="_top" xlink:title="bsn::goalmodel::Property\l::getValue">
<polygon fill="#ffffff" stroke="#000000" points="87,-.5 87,-30.5 226,-30.5 226,-.5 87,-.5"/>
<text text-anchor="start" x="95" y="-18.5" font-family="Helvetica,sans-Serif" font-size="10.00" fill="#000000">bsn::goalmodel::Property</text>
<text text-anchor="middle" x="156.5" y="-7.5" font-family="Helvetica,sans-Serif" font-size="10.00" fill="#000000">::getValue</text>
</a>
</g>
</g>
<!-- Node0&#45;&gt;Node2 -->
<g id="edge2" class="edge">
<title>Node0&#45;&gt;Node2</title>
<path fill="none" stroke="#191970" d="M51.0691,-34.8156C58.8059,-33.3981 67.7447,-31.7605 77.079,-30.0504"/>
<polygon fill="#191970" stroke="#191970" points="77.7101,-33.4931 86.9156,-28.2483 76.4486,-26.6077 77.7101,-33.4931"/>
</g>
</g>
</svg>
