<?xml version="1.0" encoding="UTF-8" standalone="no"?>
<!DOCTYPE svg PUBLIC "-//W3C//DTD SVG 1.1//EN"
 "http://www.w3.org/Graphics/SVG/1.1/DTD/svg11.dtd">
<!-- Generated by graphviz version 2.40.1 (20161225.0304)
 -->
<!-- Title: src/libbsn/test/unit/goalmodel/PropertyTest.cpp Pages: 1 -->
<svg width="268pt" height="151pt"
 viewBox="0.00 0.00 268.00 151.00" xmlns="http://www.w3.org/2000/svg" xmlns:xlink="http://www.w3.org/1999/xlink">
<g id="graph0" class="graph" transform="scale(1 1) rotate(0) translate(4 147)">
<title>src/libbsn/test/unit/goalmodel/PropertyTest.cpp</title>
<polygon fill="#ffffff" stroke="transparent" points="-4,4 -4,-147 264,-147 264,4 -4,4"/>
<!-- Node0 -->
<g id="node1" class="node">
<title>Node0</title>
<polygon fill="#bfbfbf" stroke="#000000" points="30.5,-112.5 30.5,-142.5 185.5,-142.5 185.5,-112.5 30.5,-112.5"/>
<text text-anchor="start" x="38.5" y="-130.5" font-family="Helvetica,sans-Serif" font-size="10.00" fill="#000000">src/libbsn/test/unit</text>
<text text-anchor="middle" x="108" y="-119.5" font-family="Helvetica,sans-Serif" font-size="10.00" fill="#000000">/goalmodel/PropertyTest.cpp</text>
</g>
<!-- Node1 -->
<g id="node2" class="node">
<title>Node1</title>
<polygon fill="#ffffff" stroke="#bfbfbf" points="0,-56.5 0,-75.5 78,-75.5 78,-56.5 0,-56.5"/>
<text text-anchor="middle" x="39" y="-63.5" font-family="Helvetica,sans-Serif" font-size="10.00" fill="#000000">gtest/gtest.h</text>
</g>
<!-- Node0&#45;&gt;Node1 -->
<g id="edge1" class="edge">
<title>Node0&#45;&gt;Node1</title>
<path fill="none" stroke="#191970" d="M90.9438,-112.2977C80.8671,-103.3163 68.096,-91.9334 57.7389,-82.702"/>
<polygon fill="#191970" stroke="#191970" points="59.8417,-79.8879 50.0478,-75.8469 55.1841,-85.1135 59.8417,-79.8879"/>
</g>
<!-- Node2 -->
<g id="node3" class="node">
<title>Node2</title>
<g id="a_node3"><a xlink:href="Property_8hpp.html" target="_top" xlink:title="libbsn/goalmodel/Property.hpp">
<polygon fill="#ffffff" stroke="#000000" points="96,-56.5 96,-75.5 260,-75.5 260,-56.5 96,-56.5"/>
<text text-anchor="middle" x="178" y="-63.5" font-family="Helvetica,sans-Serif" font-size="10.00" fill="#000000">libbsn/goalmodel/Property.hpp</text>
</a>
</g>
</g>
<!-- Node0&#45;&gt;Node2 -->
<g id="edge2" class="edge">
<title>Node0&#45;&gt;Node2</title>
<path fill="none" stroke="#191970" d="M125.3034,-112.2977C135.5262,-103.3163 148.4823,-91.9334 158.9896,-82.702"/>
<polygon fill="#191970" stroke="#191970" points="161.5897,-85.0766 166.7921,-75.8469 156.9695,-79.8178 161.5897,-85.0766"/>
</g>
<!-- Node3 -->
<g id="node4" class="node">
<title>Node3</title>
<polygon fill="#ffffff" stroke="#bfbfbf" points="156,-.5 156,-19.5 200,-19.5 200,-.5 156,-.5"/>
<text text-anchor="middle" x="178" y="-7.5" font-family="Helvetica,sans-Serif" font-size="10.00" fill="#000000">string</text>
</g>
<!-- Node2&#45;&gt;Node3 -->
<g id="edge3" class="edge">
<title>Node2&#45;&gt;Node3</title>
<path fill="none" stroke="#191970" d="M178,-56.2455C178,-48.9382 178,-38.6944 178,-29.7046"/>
<polygon fill="#191970" stroke="#191970" points="181.5001,-29.6426 178,-19.6427 174.5001,-29.6427 181.5001,-29.6426"/>
</g>
</g>
</svg>
