<?xml version="1.0" encoding="UTF-8" standalone="no"?>
<!DOCTYPE svg PUBLIC "-//W3C//DTD SVG 1.1//EN"
 "http://www.w3.org/Graphics/SVG/1.1/DTD/svg11.dtd">
<!-- Generated by graphviz version 2.40.1 (20161225.0304)
 -->
<!-- Title: src/libbsn/src/goalmodel/Property.cpp Pages: 1 -->
<svg width="172pt" height="151pt"
 viewBox="0.00 0.00 172.00 151.00" xmlns="http://www.w3.org/2000/svg" xmlns:xlink="http://www.w3.org/1999/xlink">
<g id="graph0" class="graph" transform="scale(1 1) rotate(0) translate(4 147)">
<title>src/libbsn/src/goalmodel/Property.cpp</title>
<polygon fill="#ffffff" stroke="transparent" points="-4,4 -4,-147 168,-147 168,4 -4,4"/>
<!-- Node0 -->
<g id="node1" class="node">
<title>Node0</title>
<polygon fill="#bfbfbf" stroke="#000000" points="14.5,-112.5 14.5,-142.5 149.5,-142.5 149.5,-112.5 14.5,-112.5"/>
<text text-anchor="start" x="22.5" y="-130.5" font-family="Helvetica,sans-Serif" font-size="10.00" fill="#000000">src/libbsn/src/goalmodel</text>
<text text-anchor="middle" x="82" y="-119.5" font-family="Helvetica,sans-Serif" font-size="10.00" fill="#000000">/Property.cpp</text>
</g>
<!-- Node1 -->
<g id="node2" class="node">
<title>Node1</title>
<g id="a_node2"><a xlink:href="Property_8hpp.html" target="_top" xlink:title="libbsn/goalmodel/Property.hpp">
<polygon fill="#ffffff" stroke="#000000" points="0,-56.5 0,-75.5 164,-75.5 164,-56.5 0,-56.5"/>
<text text-anchor="middle" x="82" y="-63.5" font-family="Helvetica,sans-Serif" font-size="10.00" fill="#000000">libbsn/goalmodel/Property.hpp</text>
</a>
</g>
</g>
<!-- Node0&#45;&gt;Node1 -->
<g id="edge1" class="edge">
<title>Node0&#45;&gt;Node1</title>
<path fill="none" stroke="#191970" d="M82,-112.2977C82,-104.3834 82,-94.6043 82,-86.0759"/>
<polygon fill="#191970" stroke="#191970" points="85.5001,-85.8469 82,-75.8469 78.5001,-85.847 85.5001,-85.8469"/>
</g>
<!-- Node2 -->
<g id="node3" class="node">
<title>Node2</title>
<polygon fill="#ffffff" stroke="#bfbfbf" points="60,-.5 60,-19.5 104,-19.5 104,-.5 60,-.5"/>
<text text-anchor="middle" x="82" y="-7.5" font-family="Helvetica,sans-Serif" font-size="10.00" fill="#000000">string</text>
</g>
<!-- Node1&#45;&gt;Node2 -->
<g id="edge2" class="edge">
<title>Node1&#45;&gt;Node2</title>
<path fill="none" stroke="#191970" d="M82,-56.2455C82,-48.9382 82,-38.6944 82,-29.7046"/>
<polygon fill="#191970" stroke="#191970" points="85.5001,-29.6426 82,-19.6427 78.5001,-29.6427 85.5001,-29.6426"/>
</g>
</g>
</svg>
