<?xml version="1.0" encoding="UTF-8" standalone="no"?>
<!DOCTYPE svg PUBLIC "-//W3C//DTD SVG 1.1//EN"
 "http://www.w3.org/Graphics/SVG/1.1/DTD/svg11.dtd">
<!-- Generated by graphviz version 2.40.1 (20161225.0304)
 -->
<!-- Title: src/libbsn/include/libbsn/range/Range.hpp Pages: 1 -->
<svg width="360pt" height="95pt"
 viewBox="0.00 0.00 360.00 95.00" xmlns="http://www.w3.org/2000/svg" xmlns:xlink="http://www.w3.org/1999/xlink">
<g id="graph0" class="graph" transform="scale(1 1) rotate(0) translate(4 91)">
<title>src/libbsn/include/libbsn/range/Range.hpp</title>
<polygon fill="#ffffff" stroke="transparent" points="-4,4 -4,-91 356,-91 356,4 -4,4"/>
<!-- Node0 -->
<g id="node1" class="node">
<title>Node0</title>
<polygon fill="#bfbfbf" stroke="#000000" points="109,-56.5 109,-86.5 243,-86.5 243,-56.5 109,-56.5"/>
<text text-anchor="start" x="117" y="-74.5" font-family="Helvetica,sans-Serif" font-size="10.00" fill="#000000">src/libbsn/include</text>
<text text-anchor="middle" x="176" y="-63.5" font-family="Helvetica,sans-Serif" font-size="10.00" fill="#000000">/libbsn/range/Range.hpp</text>
</g>
<!-- Node1 -->
<g id="node2" class="node">
<title>Node1</title>
<polygon fill="#ffffff" stroke="#bfbfbf" points="0,-.5 0,-19.5 44,-19.5 44,-.5 0,-.5"/>
<text text-anchor="middle" x="22" y="-7.5" font-family="Helvetica,sans-Serif" font-size="10.00" fill="#000000">string</text>
</g>
<!-- Node0&#45;&gt;Node1 -->
<g id="edge1" class="edge">
<title>Node0&#45;&gt;Node1</title>
<path fill="none" stroke="#191970" d="M138.3274,-56.4554C112.3441,-46.079 78.1938,-32.441 53.6249,-22.6294"/>
<polygon fill="#191970" stroke="#191970" points="54.6468,-19.2688 44.0619,-18.8104 52.0507,-25.7696 54.6468,-19.2688"/>
</g>
<!-- Node2 -->
<g id="node3" class="node">
<title>Node2</title>
<polygon fill="#ffffff" stroke="#bfbfbf" points="62.5,-.5 62.5,-19.5 127.5,-19.5 127.5,-.5 62.5,-.5"/>
<text text-anchor="middle" x="95" y="-7.5" font-family="Helvetica,sans-Serif" font-size="10.00" fill="#000000">stdexcept</text>
</g>
<!-- Node0&#45;&gt;Node2 -->
<g id="edge2" class="edge">
<title>Node0&#45;&gt;Node2</title>
<path fill="none" stroke="#191970" d="M155.9775,-56.2977C143.914,-47.1384 128.5612,-35.4816 116.2789,-26.1562"/>
<polygon fill="#191970" stroke="#191970" points="118.0501,-23.1065 107.9691,-19.8469 113.8171,-28.6816 118.0501,-23.1065"/>
</g>
<!-- Node3 -->
<g id="node4" class="node">
<title>Node3</title>
<polygon fill="#ffffff" stroke="#bfbfbf" points="146,-.5 146,-19.5 206,-19.5 206,-.5 146,-.5"/>
<text text-anchor="middle" x="176" y="-7.5" font-family="Helvetica,sans-Serif" font-size="10.00" fill="#000000">iostream</text>
</g>
<!-- Node0&#45;&gt;Node3 -->
<g id="edge3" class="edge">
<title>Node0&#45;&gt;Node3</title>
<path fill="none" stroke="#191970" d="M176,-56.2977C176,-48.3834 176,-38.6043 176,-30.0759"/>
<polygon fill="#191970" stroke="#191970" points="179.5001,-29.8469 176,-19.8469 172.5001,-29.847 179.5001,-29.8469"/>
</g>
<!-- Node4 -->
<g id="node5" class="node">
<title>Node4</title>
<polygon fill="#ffffff" stroke="#bfbfbf" points="224.5,-.5 224.5,-19.5 277.5,-19.5 277.5,-.5 224.5,-.5"/>
<text text-anchor="middle" x="251" y="-7.5" font-family="Helvetica,sans-Serif" font-size="10.00" fill="#000000">stdint.h</text>
</g>
<!-- Node0&#45;&gt;Node4 -->
<g id="edge4" class="edge">
<title>Node0&#45;&gt;Node4</title>
<path fill="none" stroke="#191970" d="M194.5393,-56.2977C205.6008,-47.2274 219.6491,-35.7077 230.9653,-26.4285"/>
<polygon fill="#191970" stroke="#191970" points="233.4781,-28.8942 238.9916,-19.8469 229.0396,-23.4813 233.4781,-28.8942"/>
</g>
<!-- Node5 -->
<g id="node6" class="node">
<title>Node5</title>
<polygon fill="#ffffff" stroke="#bfbfbf" points="296,-.5 296,-19.5 352,-19.5 352,-.5 296,-.5"/>
<text text-anchor="middle" x="324" y="-7.5" font-family="Helvetica,sans-Serif" font-size="10.00" fill="#000000">sstream</text>
</g>
<!-- Node0&#45;&gt;Node5 -->
<g id="edge5" class="edge">
<title>Node0&#45;&gt;Node5</title>
<path fill="none" stroke="#191970" d="M212.2049,-56.4554C236.4658,-46.374 268.1356,-33.2139 291.5712,-23.4755"/>
<polygon fill="#191970" stroke="#191970" points="293.1739,-26.5997 301.0653,-19.5303 290.4877,-20.1356 293.1739,-26.5997"/>
</g>
</g>
</svg>
