<?xml version="1.0" encoding="UTF-8" standalone="no"?>
<!DOCTYPE svg PUBLIC "-//W3C//DTD SVG 1.1//EN"
 "http://www.w3.org/Graphics/SVG/1.1/DTD/svg11.dtd">
<!-- Generated by graphviz version 2.40.1 (20161225.0304)
 -->
<!-- Title: src/libbsn/test/unit/range/RangeTest.cpp Pages: 1 -->
<svg width="411pt" height="151pt"
 viewBox="0.00 0.00 411.00 151.00" xmlns="http://www.w3.org/2000/svg" xmlns:xlink="http://www.w3.org/1999/xlink">
<g id="graph0" class="graph" transform="scale(1 1) rotate(0) translate(4 147)">
<title>src/libbsn/test/unit/range/RangeTest.cpp</title>
<polygon fill="#ffffff" stroke="transparent" points="-4,4 -4,-147 407,-147 407,4 -4,4"/>
<!-- Node0 -->
<g id="node1" class="node">
<title>Node0</title>
<polygon fill="#bfbfbf" stroke="#000000" points="59.5,-112.5 59.5,-142.5 180.5,-142.5 180.5,-112.5 59.5,-112.5"/>
<text text-anchor="start" x="67.5" y="-130.5" font-family="Helvetica,sans-Serif" font-size="10.00" fill="#000000">src/libbsn/test/unit</text>
<text text-anchor="middle" x="120" y="-119.5" font-family="Helvetica,sans-Serif" font-size="10.00" fill="#000000">/range/RangeTest.cpp</text>
</g>
<!-- Node1 -->
<g id="node2" class="node">
<title>Node1</title>
<polygon fill="#ffffff" stroke="#bfbfbf" points="0,-56.5 0,-75.5 78,-75.5 78,-56.5 0,-56.5"/>
<text text-anchor="middle" x="39" y="-63.5" font-family="Helvetica,sans-Serif" font-size="10.00" fill="#000000">gtest/gtest.h</text>
</g>
<!-- Node0&#45;&gt;Node1 -->
<g id="edge1" class="edge">
<title>Node0&#45;&gt;Node1</title>
<path fill="none" stroke="#191970" d="M99.9775,-112.2977C87.914,-103.1384 72.5612,-91.4816 60.2789,-82.1562"/>
<polygon fill="#191970" stroke="#191970" points="62.0501,-79.1065 51.9691,-75.8469 57.8171,-84.6816 62.0501,-79.1065"/>
</g>
<!-- Node2 -->
<g id="node3" class="node">
<title>Node2</title>
<polygon fill="#ffffff" stroke="#bfbfbf" points="96.5,-56.5 96.5,-75.5 143.5,-75.5 143.5,-56.5 96.5,-56.5"/>
<text text-anchor="middle" x="120" y="-63.5" font-family="Helvetica,sans-Serif" font-size="10.00" fill="#000000">vector</text>
</g>
<!-- Node0&#45;&gt;Node2 -->
<g id="edge2" class="edge">
<title>Node0&#45;&gt;Node2</title>
<path fill="none" stroke="#191970" d="M120,-112.2977C120,-104.3834 120,-94.6043 120,-86.0759"/>
<polygon fill="#191970" stroke="#191970" points="123.5001,-85.8469 120,-75.8469 116.5001,-85.847 123.5001,-85.8469"/>
</g>
<!-- Node3 -->
<g id="node4" class="node">
<title>Node3</title>
<g id="a_node4"><a xlink:href="Range_8hpp.html" target="_top" xlink:title="libbsn/range/Range.hpp">
<polygon fill="#ffffff" stroke="#000000" points="161.5,-56.5 161.5,-75.5 292.5,-75.5 292.5,-56.5 161.5,-56.5"/>
<text text-anchor="middle" x="227" y="-63.5" font-family="Helvetica,sans-Serif" font-size="10.00" fill="#000000">libbsn/range/Range.hpp</text>
</a>
</g>
</g>
<!-- Node0&#45;&gt;Node3 -->
<g id="edge3" class="edge">
<title>Node0&#45;&gt;Node3</title>
<path fill="none" stroke="#191970" d="M146.1751,-112.4554C163.0887,-102.734 184.9829,-90.15 201.7172,-80.5317"/>
<polygon fill="#191970" stroke="#191970" points="203.493,-83.548 210.4188,-75.5303 200.0047,-77.4791 203.493,-83.548"/>
</g>
<!-- Node4 -->
<g id="node5" class="node">
<title>Node4</title>
<polygon fill="#ffffff" stroke="#bfbfbf" points="51,-.5 51,-19.5 95,-19.5 95,-.5 51,-.5"/>
<text text-anchor="middle" x="73" y="-7.5" font-family="Helvetica,sans-Serif" font-size="10.00" fill="#000000">string</text>
</g>
<!-- Node3&#45;&gt;Node4 -->
<g id="edge4" class="edge">
<title>Node3&#45;&gt;Node4</title>
<path fill="none" stroke="#191970" d="M200.5265,-56.3733C173.9095,-46.6944 132.8709,-31.7712 104.5733,-21.4812"/>
<polygon fill="#191970" stroke="#191970" points="105.734,-18.1791 95.14,-18.0509 103.3418,-24.7577 105.734,-18.1791"/>
</g>
<!-- Node5 -->
<g id="node6" class="node">
<title>Node5</title>
<polygon fill="#ffffff" stroke="#bfbfbf" points="113.5,-.5 113.5,-19.5 178.5,-19.5 178.5,-.5 113.5,-.5"/>
<text text-anchor="middle" x="146" y="-7.5" font-family="Helvetica,sans-Serif" font-size="10.00" fill="#000000">stdexcept</text>
</g>
<!-- Node3&#45;&gt;Node5 -->
<g id="edge5" class="edge">
<title>Node3&#45;&gt;Node5</title>
<path fill="none" stroke="#191970" d="M212.8909,-56.2455C200.5791,-47.7337 182.5042,-35.2375 168.2462,-25.3801"/>
<polygon fill="#191970" stroke="#191970" points="170.1634,-22.4506 159.9474,-19.6427 166.1826,-28.2085 170.1634,-22.4506"/>
</g>
<!-- Node6 -->
<g id="node7" class="node">
<title>Node6</title>
<polygon fill="#ffffff" stroke="#bfbfbf" points="197,-.5 197,-19.5 257,-19.5 257,-.5 197,-.5"/>
<text text-anchor="middle" x="227" y="-7.5" font-family="Helvetica,sans-Serif" font-size="10.00" fill="#000000">iostream</text>
</g>
<!-- Node3&#45;&gt;Node6 -->
<g id="edge6" class="edge">
<title>Node3&#45;&gt;Node6</title>
<path fill="none" stroke="#191970" d="M227,-56.2455C227,-48.9382 227,-38.6944 227,-29.7046"/>
<polygon fill="#191970" stroke="#191970" points="230.5001,-29.6426 227,-19.6427 223.5001,-29.6427 230.5001,-29.6426"/>
</g>
<!-- Node7 -->
<g id="node8" class="node">
<title>Node7</title>
<polygon fill="#ffffff" stroke="#bfbfbf" points="275.5,-.5 275.5,-19.5 328.5,-19.5 328.5,-.5 275.5,-.5"/>
<text text-anchor="middle" x="302" y="-7.5" font-family="Helvetica,sans-Serif" font-size="10.00" fill="#000000">stdint.h</text>
</g>
<!-- Node3&#45;&gt;Node7 -->
<g id="edge7" class="edge">
<title>Node3&#45;&gt;Node7</title>
<path fill="none" stroke="#191970" d="M240.064,-56.2455C251.3562,-47.814 267.8845,-35.4729 281.0271,-25.6598"/>
<polygon fill="#191970" stroke="#191970" points="283.1669,-28.4301 289.0857,-19.6427 278.9789,-22.8211 283.1669,-28.4301"/>
</g>
<!-- Node8 -->
<g id="node9" class="node">
<title>Node8</title>
<polygon fill="#ffffff" stroke="#bfbfbf" points="347,-.5 347,-19.5 403,-19.5 403,-.5 347,-.5"/>
<text text-anchor="middle" x="375" y="-7.5" font-family="Helvetica,sans-Serif" font-size="10.00" fill="#000000">sstream</text>
</g>
<!-- Node3&#45;&gt;Node8 -->
<g id="edge8" class="edge">
<title>Node3&#45;&gt;Node8</title>
<path fill="none" stroke="#191970" d="M252.4421,-56.3733C276.7326,-47.1822 313.5208,-33.2624 340.4543,-23.0713"/>
<polygon fill="#191970" stroke="#191970" points="341.7757,-26.3136 349.8899,-19.5011 339.2984,-19.7666 341.7757,-26.3136"/>
</g>
</g>
</svg>
