<?xml version="1.0" encoding="UTF-8" standalone="no"?>
<!DOCTYPE svg PUBLIC "-//W3C//DTD SVG 1.1//EN"
 "http://www.w3.org/Graphics/SVG/1.1/DTD/svg11.dtd">
<!-- Generated by graphviz version 2.40.1 (20161225.0304)
 -->
<!-- Title: src/libbsn/include/libbsn/range/Range.hpp Pages: 1 -->
<svg width="2485pt" height="340pt"
 viewBox="0.00 0.00 2485.00 340.00" xmlns="http://www.w3.org/2000/svg" xmlns:xlink="http://www.w3.org/1999/xlink">
<g id="graph0" class="graph" transform="scale(1 1) rotate(0) translate(4 336)">
<title>src/libbsn/include/libbsn/range/Range.hpp</title>
<polygon fill="#ffffff" stroke="transparent" points="-4,4 -4,-336 2481,-336 2481,4 -4,4"/>
<!-- Node6 -->
<g id="node1" class="node">
<title>Node6</title>
<polygon fill="#bfbfbf" stroke="#000000" points="1592,-301.5 1592,-331.5 1726,-331.5 1726,-301.5 1592,-301.5"/>
<text text-anchor="start" x="1600" y="-319.5" font-family="Helvetica,sans-Serif" font-size="10.00" fill="#000000">src/libbsn/include</text>
<text text-anchor="middle" x="1659" y="-308.5" font-family="Helvetica,sans-Serif" font-size="10.00" fill="#000000">/libbsn/range/Range.hpp</text>
</g>
<!-- Node7 -->
<g id="node2" class="node">
<title>Node7</title>
<g id="a_node2"><a xlink:href="SensorConfiguration_8hpp.html" target="_top" xlink:title="src/libbsn/include\l/libbsn/configuration\l/SensorConfiguration.hpp">
<polygon fill="#ffffff" stroke="#000000" points="901.5,-156.5 901.5,-197.5 1040.5,-197.5 1040.5,-156.5 901.5,-156.5"/>
<text text-anchor="start" x="909.5" y="-185.5" font-family="Helvetica,sans-Serif" font-size="10.00" fill="#000000">src/libbsn/include</text>
<text text-anchor="start" x="909.5" y="-174.5" font-family="Helvetica,sans-Serif" font-size="10.00" fill="#000000">/libbsn/configuration</text>
<text text-anchor="middle" x="971" y="-163.5" font-family="Helvetica,sans-Serif" font-size="10.00" fill="#000000">/SensorConfiguration.hpp</text>
</a>
</g>
</g>
<!-- Node6&#45;&gt;Node7 -->
<g id="edge1" class="edge">
<title>Node6&#45;&gt;Node7</title>
<path fill="none" stroke="#191970" d="M1581.533,-312.9557C1429.2006,-305.5419 1101.3881,-287.2283 1055,-265 1023.9536,-250.1231 998.3883,-218.5149 983.9109,-197.5129"/>
<polygon fill="#191970" stroke="#191970" points="1581.5927,-316.4626 1591.75,-313.4494 1581.9306,-309.4707 1581.5927,-316.4626"/>
</g>
<!-- Node10 -->
<g id="node5" class="node">
<title>Node10</title>
<g id="a_node5"><a xlink:href="G3T1__1_8hpp.html" target="_top" xlink:title="src/sa&#45;bsn/target_system\l/components/component/include\l/component/g3t1_1/G3T1_1.hpp">
<polygon fill="#ffffff" stroke="#000000" points="1213,-78.5 1213,-119.5 1389,-119.5 1389,-78.5 1213,-78.5"/>
<text text-anchor="start" x="1221" y="-107.5" font-family="Helvetica,sans-Serif" font-size="10.00" fill="#000000">src/sa&#45;bsn/target_system</text>
<text text-anchor="start" x="1221" y="-96.5" font-family="Helvetica,sans-Serif" font-size="10.00" fill="#000000">/components/component/include</text>
<text text-anchor="middle" x="1301" y="-85.5" font-family="Helvetica,sans-Serif" font-size="10.00" fill="#000000">/component/g3t1_1/G3T1_1.hpp</text>
</a>
</g>
</g>
<!-- Node6&#45;&gt;Node10 -->
<g id="edge48" class="edge">
<title>Node6&#45;&gt;Node10</title>
<path fill="none" stroke="#191970" d="M1581.5333,-310.6347C1453.7634,-299.0364 1208.4874,-267.9721 1164,-198 1153.9848,-182.2475 1153.6416,-171.5289 1164,-156 1175.5792,-138.6409 1193.5464,-126.5605 1212.7,-118.1561"/>
<polygon fill="#191970" stroke="#191970" points="1581.3782,-314.1346 1591.649,-311.5345 1581.9985,-307.1621 1581.3782,-314.1346"/>
</g>
<!-- Node13 -->
<g id="node8" class="node">
<title>Node13</title>
<g id="a_node8"><a xlink:href="G3T1__2_8hpp.html" target="_top" xlink:title="src/sa&#45;bsn/target_system\l/components/component/include\l/component/g3t1_2/G3T1_2.hpp">
<polygon fill="#ffffff" stroke="#000000" points="1019,-78.5 1019,-119.5 1195,-119.5 1195,-78.5 1019,-78.5"/>
<text text-anchor="start" x="1027" y="-107.5" font-family="Helvetica,sans-Serif" font-size="10.00" fill="#000000">src/sa&#45;bsn/target_system</text>
<text text-anchor="start" x="1027" y="-96.5" font-family="Helvetica,sans-Serif" font-size="10.00" fill="#000000">/components/component/include</text>
<text text-anchor="middle" x="1107" y="-85.5" font-family="Helvetica,sans-Serif" font-size="10.00" fill="#000000">/component/g3t1_2/G3T1_2.hpp</text>
</a>
</g>
</g>
<!-- Node6&#45;&gt;Node13 -->
<g id="edge49" class="edge">
<title>Node6&#45;&gt;Node13</title>
<path fill="none" stroke="#191970" d="M1581.5441,-313.0488C1470.5869,-307.1982 1272.5445,-293.1238 1207,-265 1164.3798,-246.7126 1150.704,-237.8627 1127,-198 1112.571,-173.735 1108.3805,-140.8341 1107.2574,-119.7569"/>
<polygon fill="#191970" stroke="#191970" points="1581.5071,-316.5514 1591.6746,-313.5728 1581.8688,-309.5608 1581.5071,-316.5514"/>
</g>
<!-- Node16 -->
<g id="node11" class="node">
<title>Node16</title>
<g id="a_node11"><a xlink:href="G3T1__3_8hpp.html" target="_top" xlink:title="src/sa&#45;bsn/target_system\l/components/component/include\l/component/g3t1_3/G3T1_3.hpp">
<polygon fill="#ffffff" stroke="#000000" points="295,-78.5 295,-119.5 471,-119.5 471,-78.5 295,-78.5"/>
<text text-anchor="start" x="303" y="-107.5" font-family="Helvetica,sans-Serif" font-size="10.00" fill="#000000">src/sa&#45;bsn/target_system</text>
<text text-anchor="start" x="303" y="-96.5" font-family="Helvetica,sans-Serif" font-size="10.00" fill="#000000">/components/component/include</text>
<text text-anchor="middle" x="383" y="-85.5" font-family="Helvetica,sans-Serif" font-size="10.00" fill="#000000">/component/g3t1_3/G3T1_3.hpp</text>
</a>
</g>
</g>
<!-- Node6&#45;&gt;Node16 -->
<g id="edge50" class="edge">
<title>Node6&#45;&gt;Node16</title>
<path fill="none" stroke="#191970" d="M1581.7764,-314.0324C1410.9381,-308.1542 1005.483,-291.7817 871,-265 703.8052,-231.7039 515.2156,-156.04 429.656,-119.5011"/>
<polygon fill="#191970" stroke="#191970" points="1581.8347,-317.5363 1591.9482,-314.3795 1582.0735,-310.5404 1581.8347,-317.5363"/>
</g>
<!-- Node19 -->
<g id="node14" class="node">
<title>Node19</title>
<g id="a_node14"><a xlink:href="G3T1__4_8hpp.html" target="_top" xlink:title="src/sa&#45;bsn/target_system\l/components/component/include\l/component/g3t1_4/G3T1_4.hpp">
<polygon fill="#ffffff" stroke="#000000" points="489,-78.5 489,-119.5 665,-119.5 665,-78.5 489,-78.5"/>
<text text-anchor="start" x="497" y="-107.5" font-family="Helvetica,sans-Serif" font-size="10.00" fill="#000000">src/sa&#45;bsn/target_system</text>
<text text-anchor="start" x="497" y="-96.5" font-family="Helvetica,sans-Serif" font-size="10.00" fill="#000000">/components/component/include</text>
<text text-anchor="middle" x="577" y="-85.5" font-family="Helvetica,sans-Serif" font-size="10.00" fill="#000000">/component/g3t1_4/G3T1_4.hpp</text>
</a>
</g>
</g>
<!-- Node6&#45;&gt;Node19 -->
<g id="edge51" class="edge">
<title>Node6&#45;&gt;Node19</title>
<path fill="none" stroke="#191970" d="M1581.4956,-315.2264C1459.4499,-312.1253 1215.4173,-301.4845 1012,-265 904.2577,-245.6756 877.0706,-237.54 775,-198 716.4058,-175.3018 651.892,-141.2147 612.9206,-119.5449"/>
<polygon fill="#191970" stroke="#191970" points="1581.7697,-318.734 1591.8521,-315.4788 1581.9403,-311.7361 1581.7697,-318.734"/>
</g>
<!-- Node22 -->
<g id="node17" class="node">
<title>Node22</title>
<g id="a_node17"><a xlink:href="G3T1__5_8hpp.html" target="_top" xlink:title="src/sa&#45;bsn/target_system\l/components/component/include\l/component/g3t1_5/G3T1_5.hpp">
<polygon fill="#ffffff" stroke="#000000" points="1407,-78.5 1407,-119.5 1583,-119.5 1583,-78.5 1407,-78.5"/>
<text text-anchor="start" x="1415" y="-107.5" font-family="Helvetica,sans-Serif" font-size="10.00" fill="#000000">src/sa&#45;bsn/target_system</text>
<text text-anchor="start" x="1415" y="-96.5" font-family="Helvetica,sans-Serif" font-size="10.00" fill="#000000">/components/component/include</text>
<text text-anchor="middle" x="1495" y="-85.5" font-family="Helvetica,sans-Serif" font-size="10.00" fill="#000000">/component/g3t1_5/G3T1_5.hpp</text>
</a>
</g>
</g>
<!-- Node6&#45;&gt;Node22 -->
<g id="edge52" class="edge">
<title>Node6&#45;&gt;Node22</title>
<path fill="none" stroke="#191970" d="M1651.6295,-291.2402C1640.7755,-257.4112 1617.8188,-196.9171 1582,-156 1569.2736,-141.4622 1551.987,-129.1193 1536.1754,-119.6762"/>
<polygon fill="#191970" stroke="#191970" points="1648.4224,-292.7149 1654.7292,-301.2281 1655.1079,-290.6401 1648.4224,-292.7149"/>
</g>
<!-- Node25 -->
<g id="node20" class="node">
<title>Node25</title>
<g id="a_node20"><a xlink:href="G3T1__6_8hpp.html" target="_top" xlink:title="src/sa&#45;bsn/target_system\l/components/component/include\l/component/g3t1_6/G3T1_6.hpp">
<polygon fill="#ffffff" stroke="#000000" points="1601,-78.5 1601,-119.5 1777,-119.5 1777,-78.5 1601,-78.5"/>
<text text-anchor="start" x="1609" y="-107.5" font-family="Helvetica,sans-Serif" font-size="10.00" fill="#000000">src/sa&#45;bsn/target_system</text>
<text text-anchor="start" x="1609" y="-96.5" font-family="Helvetica,sans-Serif" font-size="10.00" fill="#000000">/components/component/include</text>
<text text-anchor="middle" x="1689" y="-85.5" font-family="Helvetica,sans-Serif" font-size="10.00" fill="#000000">/component/g3t1_6/G3T1_6.hpp</text>
</a>
</g>
</g>
<!-- Node6&#45;&gt;Node25 -->
<g id="edge53" class="edge">
<title>Node6&#45;&gt;Node25</title>
<path fill="none" stroke="#191970" d="M1666.6462,-291.7284C1668.9984,-283.3147 1671.3895,-273.8126 1673,-265 1682.4732,-213.1641 1686.5636,-151.1306 1688.1368,-119.5988"/>
<polygon fill="#191970" stroke="#191970" points="1663.2851,-290.7522 1663.8513,-301.3319 1670.0063,-292.7083 1663.2851,-290.7522"/>
</g>
<!-- Node28 -->
<g id="node23" class="node">
<title>Node28</title>
<g id="a_node23"><a xlink:href="Markov_8hpp.html" target="_top" xlink:title="src/libbsn/include\l/libbsn/generator/Markov.hpp">
<polygon fill="#ffffff" stroke="#000000" points="1316,-234.5 1316,-264.5 1474,-264.5 1474,-234.5 1316,-234.5"/>
<text text-anchor="start" x="1324" y="-252.5" font-family="Helvetica,sans-Serif" font-size="10.00" fill="#000000">src/libbsn/include</text>
<text text-anchor="middle" x="1395" y="-241.5" font-family="Helvetica,sans-Serif" font-size="10.00" fill="#000000">/libbsn/generator/Markov.hpp</text>
</a>
</g>
</g>
<!-- Node6&#45;&gt;Node28 -->
<g id="edge22" class="edge">
<title>Node6&#45;&gt;Node28</title>
<path fill="none" stroke="#191970" d="M1589.8674,-298.955C1547.8213,-288.2842 1494.672,-274.7955 1454.5052,-264.6017"/>
<polygon fill="#191970" stroke="#191970" points="1589.1995,-302.3964 1599.7532,-301.4639 1590.9215,-295.6115 1589.1995,-302.3964"/>
</g>
<!-- Node30 -->
<g id="node25" class="node">
<title>Node30</title>
<g id="a_node25"><a xlink:href="DataGenerator_8cpp.html" target="_top" xlink:title="src/libbsn/src/generator\l/DataGenerator.cpp">
<polygon fill="#ffffff" stroke="#000000" points="1995.5,-84 1995.5,-114 2126.5,-114 2126.5,-84 1995.5,-84"/>
<text text-anchor="start" x="2003.5" y="-102" font-family="Helvetica,sans-Serif" font-size="10.00" fill="#000000">src/libbsn/src/generator</text>
<text text-anchor="middle" x="2061" y="-91" font-family="Helvetica,sans-Serif" font-size="10.00" fill="#000000">/DataGenerator.cpp</text>
</a>
</g>
</g>
<!-- Node6&#45;&gt;Node30 -->
<g id="edge43" class="edge">
<title>Node6&#45;&gt;Node30</title>
<path fill="none" stroke="#191970" d="M1686.6759,-295.1606C1698.121,-286.0982 1711.4005,-275.2705 1723,-265 1726.2503,-262.1221 1831.1963,-158.0925 1835,-156 1895.4489,-122.746 1919.2133,-137.3044 1986,-120 1993.1992,-118.1347 2000.7668,-116.1016 2008.2122,-114.0588"/>
<polygon fill="#191970" stroke="#191970" points="1684.4174,-292.484 1678.7166,-301.4144 1688.7422,-297.9883 1684.4174,-292.484"/>
</g>
<!-- Node31 -->
<g id="node26" class="node">
<title>Node31</title>
<g id="a_node26"><a xlink:href="DataGeneratorTest_8cpp.html" target="_top" xlink:title="src/libbsn/test/unit\l/generator/DataGeneratorTest.cpp">
<polygon fill="#ffffff" stroke="#000000" points="1795,-84 1795,-114 1977,-114 1977,-84 1795,-84"/>
<text text-anchor="start" x="1803" y="-102" font-family="Helvetica,sans-Serif" font-size="10.00" fill="#000000">src/libbsn/test/unit</text>
<text text-anchor="middle" x="1886" y="-91" font-family="Helvetica,sans-Serif" font-size="10.00" fill="#000000">/generator/DataGeneratorTest.cpp</text>
</a>
</g>
</g>
<!-- Node6&#45;&gt;Node31 -->
<g id="edge45" class="edge">
<title>Node6&#45;&gt;Node31</title>
<path fill="none" stroke="#191970" d="M1675.8372,-292.8733C1700.1419,-259.7912 1747.5897,-198.9125 1797,-156 1815.8406,-139.6371 1839.7812,-124.5729 1858.0858,-114.0455"/>
<polygon fill="#191970" stroke="#191970" points="1672.9456,-290.8985 1669.891,-301.0435 1678.6053,-295.0177 1672.9456,-290.8985"/>
</g>
<!-- Node32 -->
<g id="node27" class="node">
<title>Node32</title>
<g id="a_node27"><a xlink:href="PatientModule_8hpp.html" target="_top" xlink:title="src/sa&#45;bsn/environment\l/patient/include/PatientModule.hpp">
<polygon fill="#ffffff" stroke="#000000" points="2144.5,-84 2144.5,-114 2329.5,-114 2329.5,-84 2144.5,-84"/>
<text text-anchor="start" x="2152.5" y="-102" font-family="Helvetica,sans-Serif" font-size="10.00" fill="#000000">src/sa&#45;bsn/environment</text>
<text text-anchor="middle" x="2237" y="-91" font-family="Helvetica,sans-Serif" font-size="10.00" fill="#000000">/patient/include/PatientModule.hpp</text>
</a>
</g>
</g>
<!-- Node6&#45;&gt;Node32 -->
<g id="edge47" class="edge">
<title>Node6&#45;&gt;Node32</title>
<path fill="none" stroke="#191970" d="M1705.7344,-297.6618C1748.0048,-280.7162 1812.0154,-255.2868 1868,-234 1985.9592,-189.1489 2126.1341,-138.6203 2194.814,-114.0427"/>
<polygon fill="#191970" stroke="#191970" points="1704.2434,-294.4888 1696.2663,-301.4613 1706.8504,-300.9852 1704.2434,-294.4888"/>
</g>
<!-- Node36 -->
<g id="node31" class="node">
<title>Node36</title>
<g id="a_node31"><a xlink:href="Range_8cpp.html" target="_top" xlink:title="src/libbsn/src/range\l/Range.cpp">
<polygon fill="#ffffff" stroke="#000000" points="1877.5,-234.5 1877.5,-264.5 1988.5,-264.5 1988.5,-234.5 1877.5,-234.5"/>
<text text-anchor="start" x="1885.5" y="-252.5" font-family="Helvetica,sans-Serif" font-size="10.00" fill="#000000">src/libbsn/src/range</text>
<text text-anchor="middle" x="1933" y="-241.5" font-family="Helvetica,sans-Serif" font-size="10.00" fill="#000000">/Range.cpp</text>
</a>
</g>
</g>
<!-- Node6&#45;&gt;Node36 -->
<g id="edge44" class="edge">
<title>Node6&#45;&gt;Node36</title>
<path fill="none" stroke="#191970" d="M1730.3639,-299.0497C1776.21,-287.8392 1834.897,-273.4887 1877.3018,-263.1196"/>
<polygon fill="#191970" stroke="#191970" points="1729.3734,-295.6887 1720.4909,-301.4639 1731.0361,-302.4884 1729.3734,-295.6887"/>
</g>
<!-- Node37 -->
<g id="node32" class="node">
<title>Node37</title>
<g id="a_node32"><a xlink:href="RangeTest_8cpp.html" target="_top" xlink:title="src/libbsn/test/unit\l/range/RangeTest.cpp">
<polygon fill="#ffffff" stroke="#000000" points="2006.5,-234.5 2006.5,-264.5 2127.5,-264.5 2127.5,-234.5 2006.5,-234.5"/>
<text text-anchor="start" x="2014.5" y="-252.5" font-family="Helvetica,sans-Serif" font-size="10.00" fill="#000000">src/libbsn/test/unit</text>
<text text-anchor="middle" x="2067" y="-241.5" font-family="Helvetica,sans-Serif" font-size="10.00" fill="#000000">/range/RangeTest.cpp</text>
</a>
</g>
</g>
<!-- Node6&#45;&gt;Node37 -->
<g id="edge46" class="edge">
<title>Node6&#45;&gt;Node37</title>
<path fill="none" stroke="#191970" d="M1736.5374,-306.1846C1805.206,-296.6927 1908.0602,-281.6035 1997,-265 2000.0589,-264.4289 2003.188,-263.8216 2006.3443,-263.1905"/>
<polygon fill="#191970" stroke="#191970" points="1735.6685,-302.7711 1726.2389,-307.6016 1736.6227,-309.7058 1735.6685,-302.7711"/>
</g>
<!-- Node8 -->
<g id="node3" class="node">
<title>Node8</title>
<g id="a_node3"><a xlink:href="SensorConfiguration_8cpp.html" target="_top" xlink:title="src/libbsn/src/configuration\l/SensorConfiguration.cpp">
<polygon fill="#ffffff" stroke="#000000" points="683.5,-84 683.5,-114 830.5,-114 830.5,-84 683.5,-84"/>
<text text-anchor="start" x="691.5" y="-102" font-family="Helvetica,sans-Serif" font-size="10.00" fill="#000000">src/libbsn/src/configuration</text>
<text text-anchor="middle" x="757" y="-91" font-family="Helvetica,sans-Serif" font-size="10.00" fill="#000000">/SensorConfiguration.cpp</text>
</a>
</g>
</g>
<!-- Node7&#45;&gt;Node8 -->
<g id="edge2" class="edge">
<title>Node7&#45;&gt;Node8</title>
<path fill="none" stroke="#191970" d="M904.8655,-152.8949C870.0349,-140.1996 828.4056,-125.0263 798.2054,-114.0188"/>
<polygon fill="#191970" stroke="#191970" points="903.9001,-156.2682 914.4941,-156.4044 906.2973,-149.6915 903.9001,-156.2682"/>
</g>
<!-- Node9 -->
<g id="node4" class="node">
<title>Node9</title>
<g id="a_node4"><a xlink:href="ConfigurationTest_8cpp.html" target="_top" xlink:title="src/libbsn/test/unit\l/configuration/Configuration\lTest.cpp">
<polygon fill="#ffffff" stroke="#000000" points="849,-78.5 849,-119.5 1001,-119.5 1001,-78.5 849,-78.5"/>
<text text-anchor="start" x="857" y="-107.5" font-family="Helvetica,sans-Serif" font-size="10.00" fill="#000000">src/libbsn/test/unit</text>
<text text-anchor="start" x="857" y="-96.5" font-family="Helvetica,sans-Serif" font-size="10.00" fill="#000000">/configuration/Configuration</text>
<text text-anchor="middle" x="925" y="-85.5" font-family="Helvetica,sans-Serif" font-size="10.00" fill="#000000">Test.cpp</text>
</a>
</g>
</g>
<!-- Node7&#45;&gt;Node9 -->
<g id="edge3" class="edge">
<title>Node7&#45;&gt;Node9</title>
<path fill="none" stroke="#191970" d="M953.444,-147.2312C948.0245,-138.0415 942.177,-128.1263 937.2017,-119.6898"/>
<polygon fill="#191970" stroke="#191970" points="950.5782,-149.2617 958.6728,-156.0974 956.6077,-145.7058 950.5782,-149.2617"/>
</g>
<!-- Node7&#45;&gt;Node10 -->
<g id="edge4" class="edge">
<title>Node7&#45;&gt;Node10</title>
<path fill="none" stroke="#191970" d="M1050.5805,-158.1901C1099.9747,-146.5151 1163.4705,-131.507 1214.1645,-119.5248"/>
<polygon fill="#191970" stroke="#191970" points="1049.508,-154.847 1040.5813,-160.5535 1051.1182,-161.6593 1049.508,-154.847"/>
</g>
<!-- Node7&#45;&gt;Node13 -->
<g id="edge7" class="edge">
<title>Node7&#45;&gt;Node13</title>
<path fill="none" stroke="#191970" d="M1016.198,-151.0776C1034.0922,-140.8148 1054.3688,-129.1856 1071.2148,-119.5239"/>
<polygon fill="#191970" stroke="#191970" points="1014.0217,-148.2909 1007.0884,-156.3022 1017.5043,-154.3631 1014.0217,-148.2909"/>
</g>
<!-- Node7&#45;&gt;Node16 -->
<g id="edge10" class="edge">
<title>Node7&#45;&gt;Node16</title>
<path fill="none" stroke="#191970" d="M891.2131,-168.1702C762.5281,-153.8639 519.5132,-126.5547 480,-120 477.1103,-119.5206 474.1767,-119.0123 471.2176,-118.4811"/>
<polygon fill="#191970" stroke="#191970" points="891.0847,-171.6774 901.41,-169.3032 891.8577,-164.7202 891.0847,-171.6774"/>
</g>
<!-- Node7&#45;&gt;Node19 -->
<g id="edge13" class="edge">
<title>Node7&#45;&gt;Node19</title>
<path fill="none" stroke="#191970" d="M891.3908,-161.3159C882.1572,-159.5145 872.873,-157.7113 864,-156 779.6084,-139.7238 758.2297,-137.0943 674,-120 671.0449,-119.4003 668.0406,-118.7844 665.0075,-118.1574"/>
<polygon fill="#191970" stroke="#191970" points="890.8829,-164.7828 901.3685,-163.2655 892.2253,-157.9127 890.8829,-164.7828"/>
</g>
<!-- Node7&#45;&gt;Node22 -->
<g id="edge16" class="edge">
<title>Node7&#45;&gt;Node22</title>
<path fill="none" stroke="#191970" d="M1050.7382,-168.2993C1136.7336,-158.4632 1277.5248,-141.047 1398,-120 1400.8855,-119.4959 1403.8155,-118.9662 1406.7713,-118.4164"/>
<polygon fill="#191970" stroke="#191970" points="1050.3261,-164.8236 1040.7859,-169.4318 1051.1175,-171.7787 1050.3261,-164.8236"/>
</g>
<!-- Node7&#45;&gt;Node25 -->
<g id="edge19" class="edge">
<title>Node7&#45;&gt;Node25</title>
<path fill="none" stroke="#191970" d="M1050.7339,-167.8813C1085.501,-164.0198 1126.7475,-159.5928 1164,-156 1354.0123,-137.6741 1403.2087,-148.2549 1592,-120 1594.8969,-119.5664 1597.8368,-119.0979 1600.8012,-118.6008"/>
<polygon fill="#191970" stroke="#191970" points="1050.1881,-164.4204 1040.6375,-169.007 1050.9638,-171.3773 1050.1881,-164.4204"/>
</g>
<!-- Node11 -->
<g id="node6" class="node">
<title>Node11</title>
<g id="a_node6"><a xlink:href="g3t1__1_8cpp.html" target="_top" xlink:title="src/sa&#45;bsn/target_system\l/components/component/apps\l/g3t1_1.cpp">
<polygon fill="#ffffff" stroke="#000000" points="1068,-.5 1068,-41.5 1232,-41.5 1232,-.5 1068,-.5"/>
<text text-anchor="start" x="1076" y="-29.5" font-family="Helvetica,sans-Serif" font-size="10.00" fill="#000000">src/sa&#45;bsn/target_system</text>
<text text-anchor="start" x="1076" y="-18.5" font-family="Helvetica,sans-Serif" font-size="10.00" fill="#000000">/components/component/apps</text>
<text text-anchor="middle" x="1150" y="-7.5" font-family="Helvetica,sans-Serif" font-size="10.00" fill="#000000">/g3t1_1.cpp</text>
</a>
</g>
</g>
<!-- Node10&#45;&gt;Node11 -->
<g id="edge5" class="edge">
<title>Node10&#45;&gt;Node11</title>
<path fill="none" stroke="#191970" d="M1251.9079,-73.6411C1231.7766,-63.2422 1208.7793,-51.3628 1189.7321,-41.5239"/>
<polygon fill="#191970" stroke="#191970" points="1250.4402,-76.8224 1260.9312,-78.3022 1253.6529,-70.6031 1250.4402,-76.8224"/>
</g>
<!-- Node12 -->
<g id="node7" class="node">
<title>Node12</title>
<g id="a_node7"><a xlink:href="G3T1__1_8cpp.html" target="_top" xlink:title="src/sa&#45;bsn/target_system\l/components/component/src\l/g3t1_1/G3T1_1.cpp">
<polygon fill="#ffffff" stroke="#000000" points="1250.5,-.5 1250.5,-41.5 1405.5,-41.5 1405.5,-.5 1250.5,-.5"/>
<text text-anchor="start" x="1258.5" y="-29.5" font-family="Helvetica,sans-Serif" font-size="10.00" fill="#000000">src/sa&#45;bsn/target_system</text>
<text text-anchor="start" x="1258.5" y="-18.5" font-family="Helvetica,sans-Serif" font-size="10.00" fill="#000000">/components/component/src</text>
<text text-anchor="middle" x="1328" y="-7.5" font-family="Helvetica,sans-Serif" font-size="10.00" fill="#000000">/g3t1_1/G3T1_1.cpp</text>
</a>
</g>
</g>
<!-- Node10&#45;&gt;Node12 -->
<g id="edge6" class="edge">
<title>Node10&#45;&gt;Node12</title>
<path fill="none" stroke="#191970" d="M1311.6035,-68.3676C1314.6997,-59.4232 1318.0091,-49.8626 1320.8381,-41.6898"/>
<polygon fill="#191970" stroke="#191970" points="1308.1992,-67.5027 1308.2355,-78.0974 1314.8141,-69.7925 1308.1992,-67.5027"/>
</g>
<!-- Node14 -->
<g id="node9" class="node">
<title>Node14</title>
<g id="a_node9"><a xlink:href="g3t1__2_8cpp.html" target="_top" xlink:title="src/sa&#45;bsn/target_system\l/components/component/apps\l/g3t1_2.cpp">
<polygon fill="#ffffff" stroke="#000000" points="712,-.5 712,-41.5 876,-41.5 876,-.5 712,-.5"/>
<text text-anchor="start" x="720" y="-29.5" font-family="Helvetica,sans-Serif" font-size="10.00" fill="#000000">src/sa&#45;bsn/target_system</text>
<text text-anchor="start" x="720" y="-18.5" font-family="Helvetica,sans-Serif" font-size="10.00" fill="#000000">/components/component/apps</text>
<text text-anchor="middle" x="794" y="-7.5" font-family="Helvetica,sans-Serif" font-size="10.00" fill="#000000">/g3t1_2.cpp</text>
</a>
</g>
</g>
<!-- Node13&#45;&gt;Node14 -->
<g id="edge8" class="edge">
<title>Node13&#45;&gt;Node14</title>
<path fill="none" stroke="#191970" d="M1014.5328,-75.9571C970.6,-65.0089 918.532,-52.0335 876.0238,-41.4404"/>
<polygon fill="#191970" stroke="#191970" points="1013.8039,-79.3824 1024.3535,-78.4044 1015.4966,-72.5901 1013.8039,-79.3824"/>
</g>
<!-- Node15 -->
<g id="node10" class="node">
<title>Node15</title>
<g id="a_node10"><a xlink:href="G3T1__2_8cpp.html" target="_top" xlink:title="src/sa&#45;bsn/target_system\l/components/component/src\l/g3t1_2/G3T1_2.cpp">
<polygon fill="#ffffff" stroke="#000000" points="894.5,-.5 894.5,-41.5 1049.5,-41.5 1049.5,-.5 894.5,-.5"/>
<text text-anchor="start" x="902.5" y="-29.5" font-family="Helvetica,sans-Serif" font-size="10.00" fill="#000000">src/sa&#45;bsn/target_system</text>
<text text-anchor="start" x="902.5" y="-18.5" font-family="Helvetica,sans-Serif" font-size="10.00" fill="#000000">/components/component/src</text>
<text text-anchor="middle" x="972" y="-7.5" font-family="Helvetica,sans-Serif" font-size="10.00" fill="#000000">/g3t1_2/G3T1_2.cpp</text>
</a>
</g>
</g>
<!-- Node13&#45;&gt;Node15 -->
<g id="edge9" class="edge">
<title>Node13&#45;&gt;Node15</title>
<path fill="none" stroke="#191970" d="M1062.1343,-73.0776C1044.3718,-62.8148 1024.2442,-51.1856 1007.5221,-41.5239"/>
<polygon fill="#191970" stroke="#191970" points="1060.7673,-76.3299 1071.1769,-78.3022 1064.2692,-70.2689 1060.7673,-76.3299"/>
</g>
<!-- Node17 -->
<g id="node12" class="node">
<title>Node17</title>
<g id="a_node12"><a xlink:href="g3t1__3_8cpp.html" target="_top" xlink:title="src/sa&#45;bsn/target_system\l/components/component/apps\l/g3t1_3.cpp">
<polygon fill="#ffffff" stroke="#000000" points="0,-.5 0,-41.5 164,-41.5 164,-.5 0,-.5"/>
<text text-anchor="start" x="8" y="-29.5" font-family="Helvetica,sans-Serif" font-size="10.00" fill="#000000">src/sa&#45;bsn/target_system</text>
<text text-anchor="start" x="8" y="-18.5" font-family="Helvetica,sans-Serif" font-size="10.00" fill="#000000">/components/component/apps</text>
<text text-anchor="middle" x="82" y="-7.5" font-family="Helvetica,sans-Serif" font-size="10.00" fill="#000000">/g3t1_3.cpp</text>
</a>
</g>
</g>
<!-- Node16&#45;&gt;Node17 -->
<g id="edge11" class="edge">
<title>Node16&#45;&gt;Node17</title>
<path fill="none" stroke="#191970" d="M293.831,-75.8931C251.7243,-64.9817 201.8908,-52.0681 161.1399,-41.508"/>
<polygon fill="#191970" stroke="#191970" points="292.9638,-79.2839 303.5221,-78.4044 294.7198,-72.5077 292.9638,-79.2839"/>
</g>
<!-- Node18 -->
<g id="node13" class="node">
<title>Node18</title>
<g id="a_node13"><a xlink:href="G3T1__3_8cpp.html" target="_top" xlink:title="src/sa&#45;bsn/target_system\l/components/component/src\l/g3t1_3/G3T1_3.cpp">
<polygon fill="#ffffff" stroke="#000000" points="182.5,-.5 182.5,-41.5 337.5,-41.5 337.5,-.5 182.5,-.5"/>
<text text-anchor="start" x="190.5" y="-29.5" font-family="Helvetica,sans-Serif" font-size="10.00" fill="#000000">src/sa&#45;bsn/target_system</text>
<text text-anchor="start" x="190.5" y="-18.5" font-family="Helvetica,sans-Serif" font-size="10.00" fill="#000000">/components/component/src</text>
<text text-anchor="middle" x="260" y="-7.5" font-family="Helvetica,sans-Serif" font-size="10.00" fill="#000000">/g3t1_3/G3T1_3.cpp</text>
</a>
</g>
</g>
<!-- Node16&#45;&gt;Node18 -->
<g id="edge12" class="edge">
<title>Node16&#45;&gt;Node18</title>
<path fill="none" stroke="#191970" d="M341.6764,-72.7948C325.6025,-62.6016 307.4605,-51.0969 292.3645,-41.5239"/>
<polygon fill="#191970" stroke="#191970" points="340.0417,-75.9025 350.3612,-78.3022 343.7905,-69.991 340.0417,-75.9025"/>
</g>
<!-- Node20 -->
<g id="node15" class="node">
<title>Node20</title>
<g id="a_node15"><a xlink:href="g3t1__4_8cpp.html" target="_top" xlink:title="src/sa&#45;bsn/target_system\l/components/component/apps\l/g3t1_4.cpp">
<polygon fill="#ffffff" stroke="#000000" points="356,-.5 356,-41.5 520,-41.5 520,-.5 356,-.5"/>
<text text-anchor="start" x="364" y="-29.5" font-family="Helvetica,sans-Serif" font-size="10.00" fill="#000000">src/sa&#45;bsn/target_system</text>
<text text-anchor="start" x="364" y="-18.5" font-family="Helvetica,sans-Serif" font-size="10.00" fill="#000000">/components/component/apps</text>
<text text-anchor="middle" x="438" y="-7.5" font-family="Helvetica,sans-Serif" font-size="10.00" fill="#000000">/g3t1_4.cpp</text>
</a>
</g>
</g>
<!-- Node19&#45;&gt;Node20 -->
<g id="edge14" class="edge">
<title>Node19&#45;&gt;Node20</title>
<path fill="none" stroke="#191970" d="M531.3077,-73.3597C512.8967,-63.0283 491.9502,-51.2742 474.5746,-41.5239"/>
<polygon fill="#191970" stroke="#191970" points="529.6819,-76.4608 540.1155,-78.3022 533.1075,-70.3562 529.6819,-76.4608"/>
</g>
<!-- Node21 -->
<g id="node16" class="node">
<title>Node21</title>
<g id="a_node16"><a xlink:href="G3T1__4_8cpp.html" target="_top" xlink:title="src/sa&#45;bsn/target_system\l/components/component/src\l/g3t1_4/G3T1_4.cpp">
<polygon fill="#ffffff" stroke="#000000" points="538.5,-.5 538.5,-41.5 693.5,-41.5 693.5,-.5 538.5,-.5"/>
<text text-anchor="start" x="546.5" y="-29.5" font-family="Helvetica,sans-Serif" font-size="10.00" fill="#000000">src/sa&#45;bsn/target_system</text>
<text text-anchor="start" x="546.5" y="-18.5" font-family="Helvetica,sans-Serif" font-size="10.00" fill="#000000">/components/component/src</text>
<text text-anchor="middle" x="616" y="-7.5" font-family="Helvetica,sans-Serif" font-size="10.00" fill="#000000">/g3t1_4/G3T1_4.cpp</text>
</a>
</g>
</g>
<!-- Node19&#45;&gt;Node21 -->
<g id="edge15" class="edge">
<title>Node19&#45;&gt;Node21</title>
<path fill="none" stroke="#191970" d="M592.0281,-68.9438C596.5825,-59.8351 601.4808,-50.0384 605.6551,-41.6898"/>
<polygon fill="#191970" stroke="#191970" points="588.793,-67.5879 587.4513,-78.0974 595.054,-70.7184 588.793,-67.5879"/>
</g>
<!-- Node23 -->
<g id="node18" class="node">
<title>Node23</title>
<g id="a_node18"><a xlink:href="g3t1__5_8cpp.html" target="_top" xlink:title="src/sa&#45;bsn/target_system\l/components/component/apps\l/g3t1_5.cpp">
<polygon fill="#ffffff" stroke="#000000" points="1424,-.5 1424,-41.5 1588,-41.5 1588,-.5 1424,-.5"/>
<text text-anchor="start" x="1432" y="-29.5" font-family="Helvetica,sans-Serif" font-size="10.00" fill="#000000">src/sa&#45;bsn/target_system</text>
<text text-anchor="start" x="1432" y="-18.5" font-family="Helvetica,sans-Serif" font-size="10.00" fill="#000000">/components/component/apps</text>
<text text-anchor="middle" x="1506" y="-7.5" font-family="Helvetica,sans-Serif" font-size="10.00" fill="#000000">/g3t1_5.cpp</text>
</a>
</g>
</g>
<!-- Node22&#45;&gt;Node23 -->
<g id="edge17" class="edge">
<title>Node22&#45;&gt;Node23</title>
<path fill="none" stroke="#191970" d="M1499.3607,-68.0789C1500.6103,-59.2178 1501.942,-49.7747 1503.0822,-41.6898"/>
<polygon fill="#191970" stroke="#191970" points="1495.8786,-67.7066 1497.9478,-78.0974 1502.81,-68.6842 1495.8786,-67.7066"/>
</g>
<!-- Node24 -->
<g id="node19" class="node">
<title>Node24</title>
<g id="a_node19"><a xlink:href="G3T1__5_8cpp.html" target="_top" xlink:title="src/sa&#45;bsn/target_system\l/components/component/src\l/g3t1_5/G3T1_5.cpp">
<polygon fill="#ffffff" stroke="#000000" points="1606.5,-.5 1606.5,-41.5 1761.5,-41.5 1761.5,-.5 1606.5,-.5"/>
<text text-anchor="start" x="1614.5" y="-29.5" font-family="Helvetica,sans-Serif" font-size="10.00" fill="#000000">src/sa&#45;bsn/target_system</text>
<text text-anchor="start" x="1614.5" y="-18.5" font-family="Helvetica,sans-Serif" font-size="10.00" fill="#000000">/components/component/src</text>
<text text-anchor="middle" x="1684" y="-7.5" font-family="Helvetica,sans-Serif" font-size="10.00" fill="#000000">/g3t1_5/G3T1_5.cpp</text>
</a>
</g>
</g>
<!-- Node22&#45;&gt;Node24 -->
<g id="edge18" class="edge">
<title>Node22&#45;&gt;Node24</title>
<path fill="none" stroke="#191970" d="M1554.4114,-74.481C1580.0843,-63.8858 1609.7842,-51.6288 1634.2691,-41.5239"/>
<polygon fill="#191970" stroke="#191970" points="1553.0608,-71.252 1545.1523,-78.3022 1555.7313,-77.7226 1553.0608,-71.252"/>
</g>
<!-- Node26 -->
<g id="node21" class="node">
<title>Node26</title>
<g id="a_node21"><a xlink:href="g3t1__6_8cpp.html" target="_top" xlink:title="src/sa&#45;bsn/target_system\l/components/component/apps\l/g3t1_6.cpp">
<polygon fill="#ffffff" stroke="#000000" points="1780,-.5 1780,-41.5 1944,-41.5 1944,-.5 1780,-.5"/>
<text text-anchor="start" x="1788" y="-29.5" font-family="Helvetica,sans-Serif" font-size="10.00" fill="#000000">src/sa&#45;bsn/target_system</text>
<text text-anchor="start" x="1788" y="-18.5" font-family="Helvetica,sans-Serif" font-size="10.00" fill="#000000">/components/component/apps</text>
<text text-anchor="middle" x="1862" y="-7.5" font-family="Helvetica,sans-Serif" font-size="10.00" fill="#000000">/g3t1_6.cpp</text>
</a>
</g>
</g>
<!-- Node25&#45;&gt;Node26 -->
<g id="edge20" class="edge">
<title>Node25&#45;&gt;Node26</title>
<path fill="none" stroke="#191970" d="M1744.3114,-74.0619C1767.596,-63.5637 1794.3619,-51.4958 1816.4791,-41.5239"/>
<polygon fill="#191970" stroke="#191970" points="1742.5843,-71.0012 1734.9066,-78.3022 1745.4615,-77.3826 1742.5843,-71.0012"/>
</g>
<!-- Node27 -->
<g id="node22" class="node">
<title>Node27</title>
<g id="a_node22"><a xlink:href="G3T1__6_8cpp.html" target="_top" xlink:title="src/sa&#45;bsn/target_system\l/components/component/src\l/g3t1_6/G3T1_6.cpp">
<polygon fill="#ffffff" stroke="#000000" points="1962.5,-.5 1962.5,-41.5 2117.5,-41.5 2117.5,-.5 1962.5,-.5"/>
<text text-anchor="start" x="1970.5" y="-29.5" font-family="Helvetica,sans-Serif" font-size="10.00" fill="#000000">src/sa&#45;bsn/target_system</text>
<text text-anchor="start" x="1970.5" y="-18.5" font-family="Helvetica,sans-Serif" font-size="10.00" fill="#000000">/components/component/src</text>
<text text-anchor="middle" x="2040" y="-7.5" font-family="Helvetica,sans-Serif" font-size="10.00" fill="#000000">/g3t1_6/G3T1_6.cpp</text>
</a>
</g>
</g>
<!-- Node25&#45;&gt;Node27 -->
<g id="edge21" class="edge">
<title>Node25&#45;&gt;Node27</title>
<path fill="none" stroke="#191970" d="M1786.9468,-77.8008C1861.8474,-61.693 1882.0156,-58.2155 1953,-42 1956.0295,-41.3079 1959.1167,-40.5958 1962.2341,-39.871"/>
<polygon fill="#191970" stroke="#191970" points="1786.0656,-74.4103 1777.0277,-79.9389 1787.5407,-81.2531 1786.0656,-74.4103"/>
</g>
<!-- Node28&#45;&gt;Node10 -->
<g id="edge37" class="edge">
<title>Node28&#45;&gt;Node10</title>
<path fill="none" stroke="#191970" d="M1374.0699,-226.6449C1366.6553,-217.9969 1358.5382,-207.8566 1352,-198 1335.007,-172.3825 1319.4488,-140.3967 1310.0984,-119.8355"/>
<polygon fill="#191970" stroke="#191970" points="1371.6642,-229.2101 1380.889,-234.4211 1376.9273,-224.5948 1371.6642,-229.2101"/>
</g>
<!-- Node28&#45;&gt;Node13 -->
<g id="edge38" class="edge">
<title>Node28&#45;&gt;Node13</title>
<path fill="none" stroke="#191970" d="M1305.7633,-237.1693C1250.7732,-228.1487 1186.596,-214.6096 1164,-198 1137.4732,-178.501 1121.3815,-142.6631 1113.3456,-119.8746"/>
<polygon fill="#191970" stroke="#191970" points="1305.4833,-240.6691 1315.9121,-238.8008 1306.5944,-233.7579 1305.4833,-240.6691"/>
</g>
<!-- Node28&#45;&gt;Node16 -->
<g id="edge39" class="edge">
<title>Node28&#45;&gt;Node16</title>
<path fill="none" stroke="#191970" d="M1305.4641,-246.5484C1185.0798,-241.5489 964.6908,-228.7663 779,-198 662.2457,-178.6555 529.3005,-142.4198 450.9736,-119.5628"/>
<polygon fill="#191970" stroke="#191970" points="1305.598,-250.0566 1315.732,-246.966 1305.8825,-243.0624 1305.598,-250.0566"/>
</g>
<!-- Node28&#45;&gt;Node19 -->
<g id="edge40" class="edge">
<title>Node28&#45;&gt;Node19</title>
<path fill="none" stroke="#191970" d="M1305.357,-247.1643C1203.8725,-242.9484 1034.1644,-231.1286 892,-198 839.819,-185.8403 829.9354,-172.6222 779,-156 738.6433,-142.83 693.1841,-129.8423 655.6241,-119.5984"/>
<polygon fill="#191970" stroke="#191970" points="1305.4359,-250.6702 1315.5677,-247.5723 1305.7155,-243.6757 1305.4359,-250.6702"/>
</g>
<!-- Node28&#45;&gt;Node22 -->
<g id="edge41" class="edge">
<title>Node28&#45;&gt;Node22</title>
<path fill="none" stroke="#191970" d="M1484.3116,-232.3595C1519.3409,-223.6632 1553.6541,-211.9684 1564,-198 1575.1102,-182.9997 1571.9538,-172.8873 1564,-156 1557.0483,-141.2403 1544.1914,-128.9992 1531.4429,-119.6936"/>
<polygon fill="#191970" stroke="#191970" points="1483.338,-228.9937 1474.4318,-234.7321 1484.9727,-235.8001 1483.338,-228.9937"/>
</g>
<!-- Node28&#45;&gt;Node25 -->
<g id="edge42" class="edge">
<title>Node28&#45;&gt;Node25</title>
<path fill="none" stroke="#191970" d="M1484.0549,-234.1287C1516.2336,-226.2543 1551.9981,-214.6898 1582,-198 1618.7129,-177.5769 1652.8042,-142.0134 1672.237,-119.532"/>
<polygon fill="#191970" stroke="#191970" points="1483.1227,-230.7524 1474.1938,-236.4556 1484.7304,-237.5653 1483.1227,-230.7524"/>
</g>
<!-- Node29 -->
<g id="node24" class="node">
<title>Node29</title>
<g id="a_node24"><a xlink:href="DataGenerator_8hpp.html" target="_top" xlink:title="src/libbsn/include\l/libbsn/generator/DataGenerator.hpp">
<polygon fill="#ffffff" stroke="#000000" points="1361,-162 1361,-192 1555,-192 1555,-162 1361,-162"/>
<text text-anchor="start" x="1369" y="-180" font-family="Helvetica,sans-Serif" font-size="10.00" fill="#000000">src/libbsn/include</text>
<text text-anchor="middle" x="1458" y="-169" font-family="Helvetica,sans-Serif" font-size="10.00" fill="#000000">/libbsn/generator/DataGenerator.hpp</text>
</a>
</g>
</g>
<!-- Node28&#45;&gt;Node29 -->
<g id="edge23" class="edge">
<title>Node28&#45;&gt;Node29</title>
<path fill="none" stroke="#191970" d="M1414.8346,-226.6745C1424.6674,-215.3589 1436.2662,-202.0111 1444.9631,-192.0028"/>
<polygon fill="#191970" stroke="#191970" points="1411.971,-224.6339 1408.0536,-234.478 1417.2548,-229.2254 1411.971,-224.6339"/>
</g>
<!-- Node28&#45;&gt;Node31 -->
<g id="edge36" class="edge">
<title>Node28&#45;&gt;Node31</title>
<path fill="none" stroke="#191970" d="M1483.8167,-232.4098C1526.295,-223.4826 1577.6547,-211.5852 1623,-198 1706.1886,-173.0772 1800.8429,-134.9502 1850.8001,-114.0302"/>
<polygon fill="#191970" stroke="#191970" points="1482.8563,-229.0346 1473.7793,-234.4989 1484.2827,-235.8877 1482.8563,-229.0346"/>
</g>
<!-- Node35 -->
<g id="node30" class="node">
<title>Node35</title>
<g id="a_node30"><a xlink:href="Markov_8cpp.html" target="_top" xlink:title="src/libbsn/src/generator\l/Markov.cpp">
<polygon fill="#ffffff" stroke="#000000" points="1173.5,-162 1173.5,-192 1304.5,-192 1304.5,-162 1173.5,-162"/>
<text text-anchor="start" x="1181.5" y="-180" font-family="Helvetica,sans-Serif" font-size="10.00" fill="#000000">src/libbsn/src/generator</text>
<text text-anchor="middle" x="1239" y="-169" font-family="Helvetica,sans-Serif" font-size="10.00" fill="#000000">/Markov.cpp</text>
</a>
</g>
</g>
<!-- Node28&#45;&gt;Node35 -->
<g id="edge35" class="edge">
<title>Node28&#45;&gt;Node35</title>
<path fill="none" stroke="#191970" d="M1353.5228,-230.2237C1327.7543,-218.248 1295.1168,-203.0799 1271.2819,-192.0028"/>
<polygon fill="#191970" stroke="#191970" points="1352.1331,-233.4373 1362.6767,-234.478 1355.0833,-227.0894 1352.1331,-233.4373"/>
</g>
<!-- Node29&#45;&gt;Node10 -->
<g id="edge29" class="edge">
<title>Node29&#45;&gt;Node10</title>
<path fill="none" stroke="#191970" d="M1418.5145,-157.383C1395.3061,-145.8527 1365.997,-131.2915 1342.4553,-119.5956"/>
<polygon fill="#191970" stroke="#191970" points="1417.2159,-160.6459 1427.7288,-161.9608 1420.3304,-154.377 1417.2159,-160.6459"/>
</g>
<!-- Node29&#45;&gt;Node13 -->
<g id="edge30" class="edge">
<title>Node29&#45;&gt;Node13</title>
<path fill="none" stroke="#191970" d="M1380.3196,-159.7377C1325.5336,-147.563 1252.0611,-131.2358 1195.0908,-118.5757"/>
<polygon fill="#191970" stroke="#191970" points="1379.8025,-163.2081 1390.3237,-161.9608 1381.3211,-156.3748 1379.8025,-163.2081"/>
</g>
<!-- Node29&#45;&gt;Node16 -->
<g id="edge31" class="edge">
<title>Node29&#45;&gt;Node16</title>
<path fill="none" stroke="#191970" d="M1353.8446,-160.6312C1340.1326,-158.8535 1326.2462,-157.2423 1313,-156 944.0511,-121.3991 847.5269,-167.3758 480,-120 477.0949,-119.6255 474.1478,-119.2082 471.1772,-118.7553"/>
<polygon fill="#191970" stroke="#191970" points="1353.4128,-164.1045 1363.7866,-161.9521 1354.3347,-157.1654 1353.4128,-164.1045"/>
</g>
<!-- Node29&#45;&gt;Node19 -->
<g id="edge32" class="edge">
<title>Node29&#45;&gt;Node19</title>
<path fill="none" stroke="#191970" d="M1352.4889,-160.62C1339.2159,-158.8835 1325.8068,-157.2856 1313,-156 1029.9722,-127.5873 955.8721,-158.2114 674,-120 671.0974,-119.6065 668.1525,-119.1727 665.1838,-118.7056"/>
<polygon fill="#191970" stroke="#191970" points="1352.2244,-164.1157 1362.6001,-161.972 1353.1522,-157.1774 1352.2244,-164.1157"/>
</g>
<!-- Node29&#45;&gt;Node22 -->
<g id="edge33" class="edge">
<title>Node29&#45;&gt;Node22</title>
<path fill="none" stroke="#191970" d="M1469.486,-152.7862C1474.5329,-142.1468 1480.3973,-129.784 1485.2303,-119.5956"/>
<polygon fill="#191970" stroke="#191970" points="1466.2576,-151.4257 1465.134,-161.9608 1472.5821,-154.4259 1466.2576,-151.4257"/>
</g>
<!-- Node29&#45;&gt;Node25 -->
<g id="edge34" class="edge">
<title>Node29&#45;&gt;Node25</title>
<path fill="none" stroke="#191970" d="M1512.043,-158.7517C1546.7804,-147.0222 1591.982,-131.7593 1628.0053,-119.5956"/>
<polygon fill="#191970" stroke="#191970" points="1510.8939,-155.4455 1502.5391,-161.9608 1513.1333,-162.0776 1510.8939,-155.4455"/>
</g>
<!-- Node29&#45;&gt;Node30 -->
<g id="edge24" class="edge">
<title>Node29&#45;&gt;Node30</title>
<path fill="none" stroke="#191970" d="M1565.2413,-170.6441C1672.4688,-163.0679 1841.7235,-147.7881 1986,-120 1994.3649,-118.3889 2003.1548,-116.299 2011.654,-114.0634"/>
<polygon fill="#191970" stroke="#191970" points="1564.7935,-167.1667 1555.061,-171.3534 1565.2801,-174.1498 1564.7935,-167.1667"/>
</g>
<!-- Node29&#45;&gt;Node31 -->
<g id="edge25" class="edge">
<title>Node29&#45;&gt;Node31</title>
<path fill="none" stroke="#191970" d="M1559.9246,-160.2301C1624.7583,-149.3299 1710.4327,-134.496 1786,-120 1795.6693,-118.1451 1805.8461,-116.1075 1815.856,-114.0536"/>
<polygon fill="#191970" stroke="#191970" points="1558.9859,-156.8386 1549.7029,-161.9451 1560.1442,-163.7421 1558.9859,-156.8386"/>
</g>
<!-- Node29&#45;&gt;Node32 -->
<g id="edge26" class="edge">
<title>Node29&#45;&gt;Node32</title>
<path fill="none" stroke="#191970" d="M1565.3614,-171.9143C1699.2477,-164.6647 1934.9003,-148.9173 2135,-120 2146.2731,-118.3709 2158.1751,-116.2718 2169.7137,-114.0327"/>
<polygon fill="#191970" stroke="#191970" points="1564.9054,-168.4336 1555.107,-172.4637 1565.28,-175.4236 1564.9054,-168.4336"/>
</g>
<!-- Node33 -->
<g id="node28" class="node">
<title>Node33</title>
<g id="a_node28"><a xlink:href="patient_8cpp.html" target="_top" xlink:title="src/sa&#45;bsn/environment\l/patient/apps/patient.cpp">
<polygon fill="#ffffff" stroke="#000000" points="2157,-6 2157,-36 2295,-36 2295,-6 2157,-6"/>
<text text-anchor="start" x="2165" y="-24" font-family="Helvetica,sans-Serif" font-size="10.00" fill="#000000">src/sa&#45;bsn/environment</text>
<text text-anchor="middle" x="2226" y="-13" font-family="Helvetica,sans-Serif" font-size="10.00" fill="#000000">/patient/apps/patient.cpp</text>
</a>
</g>
</g>
<!-- Node32&#45;&gt;Node33 -->
<g id="edge27" class="edge">
<title>Node32&#45;&gt;Node33</title>
<path fill="none" stroke="#191970" d="M2233.4444,-73.7875C2231.7001,-61.4187 2229.6563,-46.9264 2228.1519,-36.2592"/>
<polygon fill="#191970" stroke="#191970" points="2230.0169,-74.5476 2234.8791,-83.9608 2236.9483,-73.57 2230.0169,-74.5476"/>
</g>
<!-- Node34 -->
<g id="node29" class="node">
<title>Node34</title>
<g id="a_node29"><a xlink:href="PatientModule_8cpp.html" target="_top" xlink:title="src/sa&#45;bsn/environment\l/patient/src/PatientModule.cpp">
<polygon fill="#ffffff" stroke="#000000" points="2313,-6 2313,-36 2477,-36 2477,-6 2313,-6"/>
<text text-anchor="start" x="2321" y="-24" font-family="Helvetica,sans-Serif" font-size="10.00" fill="#000000">src/sa&#45;bsn/environment</text>
<text text-anchor="middle" x="2395" y="-13" font-family="Helvetica,sans-Serif" font-size="10.00" fill="#000000">/patient/src/PatientModule.cpp</text>
</a>
</g>
</g>
<!-- Node32&#45;&gt;Node34 -->
<g id="edge28" class="edge">
<title>Node32&#45;&gt;Node34</title>
<path fill="none" stroke="#191970" d="M2276.6969,-79.4028C2303.8686,-65.9889 2339.3639,-48.4659 2364.3604,-36.1259"/>
<polygon fill="#191970" stroke="#191970" points="2274.8815,-76.3957 2267.464,-83.9608 2277.9802,-82.6725 2274.8815,-76.3957"/>
</g>
</g>
</svg>
