<?xml version="1.0" encoding="UTF-8" standalone="no"?>
<!DOCTYPE svg PUBLIC "-//W3C//DTD SVG 1.1//EN"
 "http://www.w3.org/Graphics/SVG/1.1/DTD/svg11.dtd">
<!-- Generated by graphviz version 2.40.1 (20161225.0304)
 -->
<!-- Title: src/sa&#45;bsn/system_manager/adaptation_engine/include/engine/ReliabilityEngine.hpp Pages: 1 -->
<svg width="2400pt" height="442pt"
 viewBox="0.00 0.00 2400.03 442.00" xmlns="http://www.w3.org/2000/svg" xmlns:xlink="http://www.w3.org/1999/xlink">
<g id="graph0" class="graph" transform="scale(1 1) rotate(0) translate(4 438)">
<title>src/sa&#45;bsn/system_manager/adaptation_engine/include/engine/ReliabilityEngine.hpp</title>
<polygon fill="#ffffff" stroke="transparent" points="-4,4 -4,-438 2396.0273,-438 2396.0273,4 -4,4"/>
<!-- Node0 -->
<g id="node1" class="node">
<title>Node0</title>
<polygon fill="#bfbfbf" stroke="#000000" points="988.0273,-392.5 988.0273,-433.5 1146.0273,-433.5 1146.0273,-392.5 988.0273,-392.5"/>
<text text-anchor="start" x="996.0273" y="-421.5" font-family="Helvetica,sans-Serif" font-size="10.00" fill="#000000">src/sa&#45;bsn/system_manager</text>
<text text-anchor="start" x="996.0273" y="-410.5" font-family="Helvetica,sans-Serif" font-size="10.00" fill="#000000">/adaptation_engine/include</text>
<text text-anchor="middle" x="1067.0273" y="-399.5" font-family="Helvetica,sans-Serif" font-size="10.00" fill="#000000">/engine/ReliabilityEngine.hpp</text>
</g>
<!-- Node1 -->
<g id="node2" class="node">
<title>Node1</title>
<polygon fill="#ffffff" stroke="#bfbfbf" points="340.5273,-280.5 340.5273,-299.5 395.5273,-299.5 395.5273,-280.5 340.5273,-280.5"/>
<text text-anchor="middle" x="368.0273" y="-287.5" font-family="Helvetica,sans-Serif" font-size="10.00" fill="#000000">fstream</text>
</g>
<!-- Node0&#45;&gt;Node1 -->
<g id="edge1" class="edge">
<title>Node0&#45;&gt;Node1</title>
<path fill="none" stroke="#191970" d="M987.6991,-408.602C889.6319,-402.0749 718.0451,-387.0852 574.0273,-356 512.0976,-342.6329 442.3299,-318.2213 401.9492,-303.1268"/>
<polygon fill="#191970" stroke="#191970" points="402.9305,-299.7563 392.3387,-299.5023 400.4603,-306.306 402.9305,-299.7563"/>
</g>
<!-- Node2 -->
<g id="node3" class="node">
<title>Node2</title>
<polygon fill="#ffffff" stroke="#bfbfbf" points="414.0273,-280.5 414.0273,-299.5 470.0273,-299.5 470.0273,-280.5 414.0273,-280.5"/>
<text text-anchor="middle" x="442.0273" y="-287.5" font-family="Helvetica,sans-Serif" font-size="10.00" fill="#000000">sstream</text>
</g>
<!-- Node0&#45;&gt;Node2 -->
<g id="edge2" class="edge">
<title>Node0&#45;&gt;Node2</title>
<path fill="none" stroke="#191970" d="M987.7132,-406.5828C902.3242,-398.6793 762.8736,-382.8854 645.0273,-356 584.4068,-342.1701 516.0498,-318.1184 476.1364,-303.1842"/>
<polygon fill="#191970" stroke="#191970" points="477.2155,-299.8505 466.6237,-299.5955 474.7447,-306.4 477.2155,-299.8505"/>
</g>
<!-- Node3 -->
<g id="node4" class="node">
<title>Node3</title>
<polygon fill="#ffffff" stroke="#bfbfbf" points="1076.0273,-.5 1076.0273,-19.5 1120.0273,-19.5 1120.0273,-.5 1076.0273,-.5"/>
<text text-anchor="middle" x="1098.0273" y="-7.5" font-family="Helvetica,sans-Serif" font-size="10.00" fill="#000000">string</text>
</g>
<!-- Node0&#45;&gt;Node3 -->
<g id="edge3" class="edge">
<title>Node0&#45;&gt;Node3</title>
<path fill="none" stroke="#191970" d="M1146.2655,-411.0971C1395.3055,-404.8541 2152.061,-383.7931 2259.0273,-356 2322.8957,-339.4051 2392.0273,-355.9891 2392.0273,-290 2392.0273,-290 2392.0273,-290 2392.0273,-122 2392.0273,34.1139 2202.0422,-74.4915 2047.0273,-56 1863.6678,-34.1273 1275.1299,-15.3279 1130.4052,-10.9568"/>
<polygon fill="#191970" stroke="#191970" points="1130.4877,-7.4578 1120.3871,-10.656 1130.2775,-14.4547 1130.4877,-7.4578"/>
</g>
<!-- Node4 -->
<g id="node5" class="node">
<title>Node4</title>
<polygon fill="#ffffff" stroke="#bfbfbf" points="497.0273,-224.5 497.0273,-243.5 535.0273,-243.5 535.0273,-224.5 497.0273,-224.5"/>
<text text-anchor="middle" x="516.0273" y="-231.5" font-family="Helvetica,sans-Serif" font-size="10.00" fill="#000000">map</text>
</g>
<!-- Node0&#45;&gt;Node4 -->
<g id="edge4" class="edge">
<title>Node0&#45;&gt;Node4</title>
<path fill="none" stroke="#191970" d="M987.8347,-409.43C816.9592,-401.3106 424.5561,-380.2724 369.0273,-356 329.3408,-338.6525 280.6598,-313.5704 308.0273,-280 358.2013,-218.4537 406.0611,-263.5346 483.0273,-244 484.3002,-243.6769 485.5973,-243.3358 486.905,-242.9821"/>
<polygon fill="#191970" stroke="#191970" points="488.2658,-246.2331 496.9153,-240.1146 486.3381,-239.5037 488.2658,-246.2331"/>
</g>
<!-- Node5 -->
<g id="node6" class="node">
<title>Node5</title>
<polygon fill="#ffffff" stroke="#bfbfbf" points="488.0273,-280.5 488.0273,-299.5 520.0273,-299.5 520.0273,-280.5 488.0273,-280.5"/>
<text text-anchor="middle" x="504.0273" y="-287.5" font-family="Helvetica,sans-Serif" font-size="10.00" fill="#000000">set</text>
</g>
<!-- Node0&#45;&gt;Node5 -->
<g id="edge5" class="edge">
<title>Node0&#45;&gt;Node5</title>
<path fill="none" stroke="#191970" d="M987.7043,-401.4775C920.3959,-391.1905 821.4357,-374.8633 736.0273,-356 646.0529,-336.1283 621.065,-330.5592 529.7151,-299.9747"/>
<polygon fill="#191970" stroke="#191970" points="530.6571,-296.5991 520.0632,-296.7335 528.4287,-303.2349 530.6571,-296.5991"/>
</g>
<!-- Node6 -->
<g id="node7" class="node">
<title>Node6</title>
<polygon fill="#ffffff" stroke="#bfbfbf" points="538.0273,-280.5 538.0273,-299.5 602.0273,-299.5 602.0273,-280.5 538.0273,-280.5"/>
<text text-anchor="middle" x="570.0273" y="-287.5" font-family="Helvetica,sans-Serif" font-size="10.00" fill="#000000">algorithm</text>
</g>
<!-- Node0&#45;&gt;Node6 -->
<g id="edge6" class="edge">
<title>Node0&#45;&gt;Node6</title>
<path fill="none" stroke="#191970" d="M987.8699,-396.1845C937.6484,-385.2818 871.3695,-370.4617 813.0273,-356 742.1182,-338.4233 660.2365,-315.6697 611.9242,-301.9879"/>
<polygon fill="#191970" stroke="#191970" points="612.7161,-298.5745 602.1404,-299.2112 610.8049,-305.3086 612.7161,-298.5745"/>
</g>
<!-- Node7 -->
<g id="node8" class="node">
<title>Node7</title>
<polygon fill="#ffffff" stroke="#bfbfbf" points="2047.5273,-168.5 2047.5273,-187.5 2106.5273,-187.5 2106.5273,-168.5 2047.5273,-168.5"/>
<text text-anchor="middle" x="2077.0273" y="-175.5" font-family="Helvetica,sans-Serif" font-size="10.00" fill="#000000">ros/ros.h</text>
</g>
<!-- Node0&#45;&gt;Node7 -->
<g id="edge7" class="edge">
<title>Node0&#45;&gt;Node7</title>
<path fill="none" stroke="#191970" d="M1146.4137,-412.3483C1368.6596,-409.9903 1993.8647,-399.5629 2194.0273,-356 2259.9132,-341.6607 2297.1567,-355.7888 2335.0273,-300 2390.6581,-218.0476 2202.0721,-189.6921 2116.7655,-181.201"/>
<polygon fill="#191970" stroke="#191970" points="2116.9419,-177.7021 2106.6555,-180.2397 2116.2793,-184.6706 2116.9419,-177.7021"/>
</g>
<!-- Node8 -->
<g id="node9" class="node">
<title>Node8</title>
<polygon fill="#ffffff" stroke="#bfbfbf" points="620.5273,-280.5 620.5273,-299.5 705.5273,-299.5 705.5273,-280.5 620.5273,-280.5"/>
<text text-anchor="middle" x="663.0273" y="-287.5" font-family="Helvetica,sans-Serif" font-size="10.00" fill="#000000">ros/package.h</text>
</g>
<!-- Node0&#45;&gt;Node8 -->
<g id="edge8" class="edge">
<title>Node0&#45;&gt;Node8</title>
<path fill="none" stroke="#191970" d="M999.4067,-392.4126C915.0523,-366.7304 773.4794,-323.6277 704.0023,-302.4751"/>
<polygon fill="#191970" stroke="#191970" points="704.876,-299.0825 694.2902,-299.5182 702.8372,-305.779 704.876,-299.0825"/>
</g>
<!-- Node9 -->
<g id="node10" class="node">
<title>Node9</title>
<g id="a_node10"><a xlink:href="Node_8hpp.html" target="_top" xlink:title="libbsn/goalmodel/Node.hpp">
<polygon fill="#ffffff" stroke="#000000" points="482.0273,-56.5 482.0273,-75.5 632.0273,-75.5 632.0273,-56.5 482.0273,-56.5"/>
<text text-anchor="middle" x="557.0273" y="-63.5" font-family="Helvetica,sans-Serif" font-size="10.00" fill="#000000">libbsn/goalmodel/Node.hpp</text>
</a>
</g>
</g>
<!-- Node0&#45;&gt;Node9 -->
<g id="edge9" class="edge">
<title>Node0&#45;&gt;Node9</title>
<path fill="none" stroke="#191970" d="M987.9086,-411.791C766.3747,-407.9445 150.6699,-393.9303 68.0273,-356 36.6035,-341.5775 26.9678,-332.0624 14.0273,-300 -25.696,-201.5786 353.0511,-109.4791 500.1381,-77.7063"/>
<polygon fill="#191970" stroke="#191970" points="501.275,-81.0422 510.3191,-75.5237 499.8076,-74.1977 501.275,-81.0422"/>
</g>
<!-- Node13 -->
<g id="node14" class="node">
<title>Node13</title>
<g id="a_node14"><a xlink:href="Goal_8hpp.html" target="_top" xlink:title="libbsn/goalmodel/Goal.hpp">
<polygon fill="#ffffff" stroke="#000000" points="446.5273,-112.5 446.5273,-131.5 593.5273,-131.5 593.5273,-112.5 446.5273,-112.5"/>
<text text-anchor="middle" x="520.0273" y="-119.5" font-family="Helvetica,sans-Serif" font-size="10.00" fill="#000000">libbsn/goalmodel/Goal.hpp</text>
</a>
</g>
</g>
<!-- Node0&#45;&gt;Node13 -->
<g id="edge14" class="edge">
<title>Node0&#45;&gt;Node13</title>
<path fill="none" stroke="#191970" d="M987.7996,-410.8926C800.3238,-405.4236 333.7899,-388.8599 181.0273,-356 111.8643,-341.1228 72.3018,-358.1618 32.0273,-300 -22.1165,-221.8092 -25.4718,-304.9895 177.0273,-244 291.9671,-209.3819 425.1521,-158.9793 486.2452,-135.2677"/>
<polygon fill="#191970" stroke="#191970" points="487.7132,-138.4521 495.7625,-131.5631 485.174,-131.9289 487.7132,-138.4521"/>
</g>
<!-- Node14 -->
<g id="node15" class="node">
<title>Node14</title>
<g id="a_node15"><a xlink:href="Task_8hpp.html" target="_top" xlink:title="libbsn/goalmodel/Task.hpp">
<polygon fill="#ffffff" stroke="#000000" points="676.0273,-168.5 676.0273,-187.5 822.0273,-187.5 822.0273,-168.5 676.0273,-168.5"/>
<text text-anchor="middle" x="749.0273" y="-175.5" font-family="Helvetica,sans-Serif" font-size="10.00" fill="#000000">libbsn/goalmodel/Task.hpp</text>
</a>
</g>
</g>
<!-- Node0&#45;&gt;Node14 -->
<g id="edge19" class="edge">
<title>Node0&#45;&gt;Node14</title>
<path fill="none" stroke="#191970" d="M987.9434,-411.2289C808.1818,-406.5926 380.2206,-391.8841 326.0273,-356 302.6578,-340.5259 303.6601,-327.2321 297.0273,-300 294.9237,-291.3636 291.6989,-287.1149 297.0273,-280 303.6557,-271.1491 477.2602,-226.5191 488.0273,-224 549.7687,-209.5549 620.6732,-197.3315 672.9826,-189.124"/>
<polygon fill="#191970" stroke="#191970" points="673.8451,-192.532 683.1884,-187.5365 672.7692,-185.6151 673.8451,-192.532"/>
</g>
<!-- Node15 -->
<g id="node16" class="node">
<title>Node15</title>
<g id="a_node16"><a xlink:href="Property_8hpp.html" target="_top" xlink:title="libbsn/goalmodel/Property.hpp">
<polygon fill="#ffffff" stroke="#000000" points="1308.0273,-168.5 1308.0273,-187.5 1472.0273,-187.5 1472.0273,-168.5 1308.0273,-168.5"/>
<text text-anchor="middle" x="1390.0273" y="-175.5" font-family="Helvetica,sans-Serif" font-size="10.00" fill="#000000">libbsn/goalmodel/Property.hpp</text>
</a>
</g>
</g>
<!-- Node0&#45;&gt;Node15 -->
<g id="edge26" class="edge">
<title>Node0&#45;&gt;Node15</title>
<path fill="none" stroke="#191970" d="M1146.346,-411.5145C1380.7203,-406.7415 2055.7963,-390.0805 2088.0273,-356 2111.2365,-331.4589 2110.0471,-305.6138 2088.0273,-280 2068.4041,-257.1741 1667.1273,-209.2362 1482.0661,-188.2297"/>
<polygon fill="#191970" stroke="#191970" points="1482.4051,-184.7458 1472.0747,-187.0979 1481.6171,-191.7013 1482.4051,-184.7458"/>
</g>
<!-- Node16 -->
<g id="node17" class="node">
<title>Node16</title>
<g id="a_node17"><a xlink:href="LeafTask_8hpp.html" target="_top" xlink:title="libbsn/goalmodel/LeafTask.hpp">
<polygon fill="#ffffff" stroke="#000000" points="1049.5273,-224.5 1049.5273,-243.5 1216.5273,-243.5 1216.5273,-224.5 1049.5273,-224.5"/>
<text text-anchor="middle" x="1133.0273" y="-231.5" font-family="Helvetica,sans-Serif" font-size="10.00" fill="#000000">libbsn/goalmodel/LeafTask.hpp</text>
</a>
</g>
</g>
<!-- Node0&#45;&gt;Node16 -->
<g id="edge28" class="edge">
<title>Node0&#45;&gt;Node16</title>
<path fill="none" stroke="#191970" d="M1146.0599,-411.3323C1373.8019,-406.1446 2017.2202,-388.649 2048.0273,-356 2071.2087,-331.4325 2071.3044,-304.4768 2048.0273,-280 2020.0615,-250.593 1455.0135,-238.8366 1227.1101,-235.2789"/>
<polygon fill="#191970" stroke="#191970" points="1226.8968,-231.7753 1216.844,-235.1207 1226.7888,-238.7745 1226.8968,-231.7753"/>
</g>
<!-- Node17 -->
<g id="node18" class="node">
<title>Node17</title>
<g id="a_node18"><a xlink:href="Context_8hpp.html" target="_top" xlink:title="libbsn/goalmodel/Context.hpp">
<polygon fill="#ffffff" stroke="#000000" points="1126.5273,-168.5 1126.5273,-187.5 1289.5273,-187.5 1289.5273,-168.5 1126.5273,-168.5"/>
<text text-anchor="middle" x="1208.0273" y="-175.5" font-family="Helvetica,sans-Serif" font-size="10.00" fill="#000000">libbsn/goalmodel/Context.hpp</text>
</a>
</g>
</g>
<!-- Node0&#45;&gt;Node17 -->
<g id="edge35" class="edge">
<title>Node0&#45;&gt;Node17</title>
<path fill="none" stroke="#191970" d="M1146.4317,-411.4202C1377.7089,-406.4347 2036.519,-389.3535 2068.0273,-356 2091.2229,-331.446 2090.4611,-305.2519 2068.0273,-280 2061.6686,-272.8426 1520.5781,-212.457 1300.0341,-188.1127"/>
<polygon fill="#191970" stroke="#191970" points="1300.1013,-184.5989 1289.7777,-186.981 1299.3335,-191.5567 1300.1013,-184.5989"/>
</g>
<!-- Node18 -->
<g id="node19" class="node">
<title>Node18</title>
<g id="a_node19"><a xlink:href="GoalTree_8hpp.html" target="_top" xlink:title="libbsn/goalmodel/GoalTree.hpp">
<polygon fill="#ffffff" stroke="#000000" points="41.5273,-280.5 41.5273,-299.5 208.5273,-299.5 208.5273,-280.5 41.5273,-280.5"/>
<text text-anchor="middle" x="125.0273" y="-287.5" font-family="Helvetica,sans-Serif" font-size="10.00" fill="#000000">libbsn/goalmodel/GoalTree.hpp</text>
</a>
</g>
</g>
<!-- Node0&#45;&gt;Node18 -->
<g id="edge36" class="edge">
<title>Node0&#45;&gt;Node18</title>
<path fill="none" stroke="#191970" d="M987.9022,-410.0284C791.6565,-402.3223 293.2142,-380.5748 222.0273,-356 191.1384,-345.3367 160.8699,-322.1184 142.5751,-306.2688"/>
<polygon fill="#191970" stroke="#191970" points="144.8504,-303.6084 135.0527,-299.5766 140.1977,-308.8383 144.8504,-303.6084"/>
</g>
<!-- Node19 -->
<g id="node20" class="node">
<title>Node19</title>
<g id="a_node20"><a xlink:href="Formula_8hpp.html" target="_top" xlink:title="libbsn/model/Formula.hpp">
<polygon fill="#ffffff" stroke="#000000" points="800.5273,-280.5 800.5273,-299.5 943.5273,-299.5 943.5273,-280.5 800.5273,-280.5"/>
<text text-anchor="middle" x="872.0273" y="-287.5" font-family="Helvetica,sans-Serif" font-size="10.00" fill="#000000">libbsn/model/Formula.hpp</text>
</a>
</g>
</g>
<!-- Node0&#45;&gt;Node19 -->
<g id="edge46" class="edge">
<title>Node0&#45;&gt;Node19</title>
<path fill="none" stroke="#191970" d="M1034.3886,-392.4126C995.1748,-367.6777 930.343,-326.7838 895.6545,-304.9034"/>
<polygon fill="#191970" stroke="#191970" points="897.4423,-301.8929 887.117,-299.5182 893.7077,-307.8135 897.4423,-301.8929"/>
</g>
<!-- Node21 -->
<g id="node22" class="node">
<title>Node21</title>
<polygon fill="#ffffff" stroke="#bfbfbf" points="553.0273,-224.5 553.0273,-243.5 645.0273,-243.5 645.0273,-224.5 553.0273,-224.5"/>
<text text-anchor="middle" x="599.0273" y="-231.5" font-family="Helvetica,sans-Serif" font-size="10.00" fill="#000000">lepton/Lepton.h</text>
</g>
<!-- Node0&#45;&gt;Node21 -->
<g id="edge54" class="edge">
<title>Node0&#45;&gt;Node21</title>
<path fill="none" stroke="#191970" d="M987.635,-410.7697C876.524,-406.3645 668.8518,-393.4411 496.0273,-356 420.3412,-339.6032 376.1371,-362.9471 331.0273,-300 253.2979,-191.535 -4.7459,-338.9962 542.6453,-244.2177"/>
<polygon fill="#191970" stroke="#191970" points="543.5707,-247.6092 552.8212,-242.4441 542.3687,-240.7132 543.5707,-247.6092"/>
</g>
<!-- Node22 -->
<g id="node23" class="node">
<title>Node22</title>
<g id="a_node23"><a xlink:href="utils_8hpp.html" target="_top" xlink:title="libbsn/utils/utils.hpp">
<polygon fill="#ffffff" stroke="#000000" points="916.5273,-112.5 916.5273,-131.5 1031.5273,-131.5 1031.5273,-112.5 916.5273,-112.5"/>
<text text-anchor="middle" x="974.0273" y="-119.5" font-family="Helvetica,sans-Serif" font-size="10.00" fill="#000000">libbsn/utils/utils.hpp</text>
</a>
</g>
</g>
<!-- Node0&#45;&gt;Node22 -->
<g id="edge51" class="edge">
<title>Node0&#45;&gt;Node22</title>
<path fill="none" stroke="#191970" d="M1146.1908,-404.0596C1243.7696,-392.9946 1414.6529,-373.4719 1561.0273,-356 1764.1706,-331.7519 2156.997,-427.3085 2015.0273,-280 1939.7993,-201.9432 1132.1109,-301.2077 1040.0273,-244 1030.337,-237.9798 998.8307,-174.028 983.1144,-141.2054"/>
<polygon fill="#191970" stroke="#191970" points="986.0737,-139.2791 978.6142,-131.7554 979.7538,-142.2888 986.0737,-139.2791"/>
</g>
<!-- Node23 -->
<g id="node24" class="node">
<title>Node23</title>
<polygon fill="#ffffff" stroke="#bfbfbf" points="1304.0273,-280.5 1304.0273,-299.5 1462.0273,-299.5 1462.0273,-280.5 1304.0273,-280.5"/>
<text text-anchor="middle" x="1383.0273" y="-287.5" font-family="Helvetica,sans-Serif" font-size="10.00" fill="#000000">archlib/DataAccessRequest.h</text>
</g>
<!-- Node0&#45;&gt;Node23 -->
<g id="edge55" class="edge">
<title>Node0&#45;&gt;Node23</title>
<path fill="none" stroke="#191970" d="M1119.9185,-392.4126C1185.0875,-367.0462 1293.9178,-324.685 1348.9476,-303.2652"/>
<polygon fill="#191970" stroke="#191970" points="1350.5247,-306.4072 1358.5741,-299.5182 1347.9856,-299.8839 1350.5247,-306.4072"/>
</g>
<!-- Node24 -->
<g id="node25" class="node">
<title>Node24</title>
<polygon fill="#ffffff" stroke="#bfbfbf" points="1480.5273,-280.5 1480.5273,-299.5 1581.5273,-299.5 1581.5273,-280.5 1480.5273,-280.5"/>
<text text-anchor="middle" x="1531.0273" y="-287.5" font-family="Helvetica,sans-Serif" font-size="10.00" fill="#000000">archlib/Strategy.h</text>
</g>
<!-- Node0&#45;&gt;Node24 -->
<g id="edge56" class="edge">
<title>Node0&#45;&gt;Node24</title>
<path fill="none" stroke="#191970" d="M1144.4292,-392.4818C1241.8522,-366.6563 1406.0253,-323.1363 1485.3733,-302.1022"/>
<polygon fill="#191970" stroke="#191970" points="1486.3077,-305.4755 1495.077,-299.5299 1484.514,-298.7092 1486.3077,-305.4755"/>
</g>
<!-- Node25 -->
<g id="node26" class="node">
<title>Node25</title>
<polygon fill="#ffffff" stroke="#bfbfbf" points="1600.0273,-280.5 1600.0273,-299.5 1710.0273,-299.5 1710.0273,-280.5 1600.0273,-280.5"/>
<text text-anchor="middle" x="1655.0273" y="-287.5" font-family="Helvetica,sans-Serif" font-size="10.00" fill="#000000">archlib/Exception.h</text>
</g>
<!-- Node0&#45;&gt;Node25 -->
<g id="edge57" class="edge">
<title>Node0&#45;&gt;Node25</title>
<path fill="none" stroke="#191970" d="M1146.3275,-396.4117C1267.2213,-371.1227 1494.6111,-323.5564 1599.4721,-301.6212"/>
<polygon fill="#191970" stroke="#191970" points="1600.46,-304.9904 1609.5315,-299.517 1599.0267,-298.1387 1600.46,-304.9904"/>
</g>
<!-- Node26 -->
<g id="node27" class="node">
<title>Node26</title>
<polygon fill="#ffffff" stroke="#bfbfbf" points="1728.0273,-280.5 1728.0273,-299.5 1854.0273,-299.5 1854.0273,-280.5 1728.0273,-280.5"/>
<text text-anchor="middle" x="1791.0273" y="-287.5" font-family="Helvetica,sans-Serif" font-size="10.00" fill="#000000">archlib/EnergyStatus.h</text>
</g>
<!-- Node0&#45;&gt;Node26 -->
<g id="edge58" class="edge">
<title>Node0&#45;&gt;Node26</title>
<path fill="none" stroke="#191970" d="M1146.2323,-399.5439C1289.9871,-375.1215 1591.3015,-323.9313 1724.8623,-301.2407"/>
<polygon fill="#191970" stroke="#191970" points="1725.6811,-304.6519 1734.9536,-299.5263 1724.5086,-297.7507 1725.6811,-304.6519"/>
</g>
<!-- Node27 -->
<g id="node28" class="node">
<title>Node27</title>
<g id="a_node28"><a xlink:href="ROSComponent_8hpp.html" target="_top" xlink:title="archlib/ROSComponent.hpp">
<polygon fill="#ffffff" stroke="#000000" points="2176.0273,-280.5 2176.0273,-299.5 2326.0273,-299.5 2326.0273,-280.5 2176.0273,-280.5"/>
<text text-anchor="middle" x="2251.0273" y="-287.5" font-family="Helvetica,sans-Serif" font-size="10.00" fill="#000000">archlib/ROSComponent.hpp</text>
</a>
</g>
</g>
<!-- Node0&#45;&gt;Node27 -->
<g id="edge59" class="edge">
<title>Node0&#45;&gt;Node27</title>
<path fill="none" stroke="#191970" d="M1146.1984,-411.518C1381.6937,-406.7419 2067.3061,-390.0452 2162.0273,-356 2190.652,-345.7115 2217.8707,-322.9524 2234.4993,-307.0535"/>
<polygon fill="#191970" stroke="#191970" points="2237.1072,-309.3974 2241.7715,-299.8844 2232.1929,-304.4124 2237.1072,-309.3974"/>
</g>
<!-- Node29 -->
<g id="node30" class="node">
<title>Node29</title>
<polygon fill="#ffffff" stroke="#bfbfbf" points="1872.0273,-280.5 1872.0273,-299.5 2006.0273,-299.5 2006.0273,-280.5 1872.0273,-280.5"/>
<text text-anchor="middle" x="1939.0273" y="-287.5" font-family="Helvetica,sans-Serif" font-size="10.00" fill="#000000">archlib/EngineRequest.h</text>
</g>
<!-- Node0&#45;&gt;Node29 -->
<g id="edge66" class="edge">
<title>Node0&#45;&gt;Node29</title>
<path fill="none" stroke="#191970" d="M1146.2093,-402.0395C1228.6072,-390.6163 1361.3761,-372.1608 1476.0273,-356 1612.2241,-336.8022 1770.9071,-314.112 1862.6808,-300.9575"/>
<polygon fill="#191970" stroke="#191970" points="1863.3129,-304.4028 1872.715,-299.5191 1862.3195,-297.4736 1863.3129,-304.4028"/>
</g>
<!-- Node30 -->
<g id="node31" class="node">
<title>Node30</title>
<g id="a_node31"><a xlink:href="Engine_8hpp.html" target="_top" xlink:title="engine/Engine.hpp">
<polygon fill="#ffffff" stroke="#000000" points="1013.5273,-336.5 1013.5273,-355.5 1120.5273,-355.5 1120.5273,-336.5 1013.5273,-336.5"/>
<text text-anchor="middle" x="1067.0273" y="-343.5" font-family="Helvetica,sans-Serif" font-size="10.00" fill="#000000">engine/Engine.hpp</text>
</a>
</g>
</g>
<!-- Node0&#45;&gt;Node30 -->
<g id="edge67" class="edge">
<title>Node0&#45;&gt;Node30</title>
<path fill="none" stroke="#191970" d="M1067.0273,-392.168C1067.0273,-383.8226 1067.0273,-374.2471 1067.0273,-365.9879"/>
<polygon fill="#191970" stroke="#191970" points="1070.5273,-365.7804 1067.0273,-355.7805 1063.5273,-365.7805 1070.5273,-365.7804"/>
</g>
<!-- Node9&#45;&gt;Node3 -->
<g id="edge10" class="edge">
<title>Node9&#45;&gt;Node3</title>
<path fill="none" stroke="#191970" d="M632.251,-58.2134C752.1141,-45.8062 981.5134,-22.0606 1065.8717,-13.3285"/>
<polygon fill="#191970" stroke="#191970" points="1066.2933,-16.8036 1075.8798,-12.2925 1065.5725,-9.8408 1066.2933,-16.8036"/>
</g>
<!-- Node10 -->
<g id="node11" class="node">
<title>Node10</title>
<polygon fill="#ffffff" stroke="#bfbfbf" points="712.5273,-.5 712.5273,-19.5 759.5273,-19.5 759.5273,-.5 712.5273,-.5"/>
<text text-anchor="middle" x="736.0273" y="-7.5" font-family="Helvetica,sans-Serif" font-size="10.00" fill="#000000">vector</text>
</g>
<!-- Node9&#45;&gt;Node10 -->
<g id="edge11" class="edge">
<title>Node9&#45;&gt;Node10</title>
<path fill="none" stroke="#191970" d="M587.7984,-56.3733C619.8664,-46.3408 669.9439,-30.6741 702.8716,-20.3727"/>
<polygon fill="#191970" stroke="#191970" points="704.0023,-23.6863 712.5011,-17.3601 701.9122,-17.0056 704.0023,-23.6863"/>
</g>
<!-- Node11 -->
<g id="node12" class="node">
<title>Node11</title>
<polygon fill="#ffffff" stroke="#bfbfbf" points="472.5273,-.5 472.5273,-19.5 537.5273,-19.5 537.5273,-.5 472.5273,-.5"/>
<text text-anchor="middle" x="505.0273" y="-7.5" font-family="Helvetica,sans-Serif" font-size="10.00" fill="#000000">stdexcept</text>
</g>
<!-- Node9&#45;&gt;Node11 -->
<g id="edge12" class="edge">
<title>Node9&#45;&gt;Node11</title>
<path fill="none" stroke="#191970" d="M547.9695,-56.2455C540.5131,-48.2155 529.7638,-36.6394 520.8855,-27.0781"/>
<polygon fill="#191970" stroke="#191970" points="523.3505,-24.589 513.9812,-19.6427 518.2209,-29.3522 523.3505,-24.589"/>
</g>
<!-- Node12 -->
<g id="node13" class="node">
<title>Node12</title>
<polygon fill="#ffffff" stroke="#bfbfbf" points="252.0273,-.5 252.0273,-19.5 310.0273,-19.5 310.0273,-.5 252.0273,-.5"/>
<text text-anchor="middle" x="281.0273" y="-7.5" font-family="Helvetica,sans-Serif" font-size="10.00" fill="#000000">memory</text>
</g>
<!-- Node9&#45;&gt;Node12 -->
<g id="edge13" class="edge">
<title>Node9&#45;&gt;Node12</title>
<path fill="none" stroke="#191970" d="M509.8948,-56.4369C456.424,-45.5877 370.1889,-28.0908 320.241,-17.9564"/>
<polygon fill="#191970" stroke="#191970" points="320.6546,-14.4691 310.1583,-15.9106 319.2626,-21.3293 320.6546,-14.4691"/>
</g>
<!-- Node13&#45;&gt;Node3 -->
<g id="edge15" class="edge">
<title>Node13&#45;&gt;Node3</title>
<path fill="none" stroke="#191970" d="M569.3072,-112.4509C684.6927,-90.0925 969.8728,-34.8327 1065.8875,-16.2278"/>
<polygon fill="#191970" stroke="#191970" points="1066.7175,-19.6321 1075.869,-14.2936 1065.3858,-12.76 1066.7175,-19.6321"/>
</g>
<!-- Node13&#45;&gt;Node9 -->
<g id="edge18" class="edge">
<title>Node13&#45;&gt;Node9</title>
<path fill="none" stroke="#191970" d="M526.4722,-112.2455C531.5655,-104.5367 538.8181,-93.5598 544.9793,-84.2348"/>
<polygon fill="#191970" stroke="#191970" points="548.0638,-85.9155 550.6562,-75.6427 542.2234,-82.0566 548.0638,-85.9155"/>
</g>
<!-- Node13&#45;&gt;Node10 -->
<g id="edge16" class="edge">
<title>Node13&#45;&gt;Node10</title>
<path fill="none" stroke="#191970" d="M551.2621,-112.4639C576.2452,-104.289 611.8044,-91.4088 641.0273,-76 668.6315,-61.4446 697.7265,-40.2421 716.332,-25.8248"/>
<polygon fill="#191970" stroke="#191970" points="718.6326,-28.4684 724.3348,-19.5389 714.3087,-22.9635 718.6326,-28.4684"/>
</g>
<!-- Node13&#45;&gt;Node11 -->
<g id="edge17" class="edge">
<title>Node13&#45;&gt;Node11</title>
<path fill="none" stroke="#191970" d="M505.0308,-112.3308C493.8675,-104.1671 479.4891,-91.3661 473.0273,-76 465.9814,-59.2452 476.7403,-40.6566 487.64,-27.4875"/>
<polygon fill="#191970" stroke="#191970" points="490.5633,-29.4703 494.6372,-19.69 485.3534,-24.7951 490.5633,-29.4703"/>
</g>
<!-- Node14&#45;&gt;Node3 -->
<g id="edge20" class="edge">
<title>Node14&#45;&gt;Node3</title>
<path fill="none" stroke="#191970" d="M760.3367,-168.2873C776.465,-154.706 807.3072,-129.7193 836.0273,-112 884.0692,-82.3598 897.583,-76.8846 950.0273,-56 989.0476,-40.4611 1035.5082,-26.7694 1065.8281,-18.4494"/>
<polygon fill="#191970" stroke="#191970" points="1067.1043,-21.7299 1075.8409,-15.7364 1065.2736,-14.9735 1067.1043,-21.7299"/>
</g>
<!-- Node14&#45;&gt;Node9 -->
<g id="edge23" class="edge">
<title>Node14&#45;&gt;Node9</title>
<path fill="none" stroke="#191970" d="M723.7177,-168.4973C702.3909,-160.0713 671.3874,-146.8268 646.0273,-132 620.4818,-117.0649 593.5012,-96.2479 576.0339,-82.0104"/>
<polygon fill="#191970" stroke="#191970" points="578.2117,-79.2698 568.2712,-75.6042 573.7562,-84.6687 578.2117,-79.2698"/>
</g>
<!-- Node14&#45;&gt;Node10 -->
<g id="edge21" class="edge">
<title>Node14&#45;&gt;Node10</title>
<path fill="none" stroke="#191970" d="M748.2911,-168.4862C746.2361,-141.9293 740.4043,-66.5651 737.5877,-30.1655"/>
<polygon fill="#191970" stroke="#191970" points="741.0489,-29.528 736.7877,-19.8279 734.0698,-30.0681 741.0489,-29.528"/>
</g>
<!-- Node14&#45;&gt;Node11 -->
<g id="edge22" class="edge">
<title>Node14&#45;&gt;Node11</title>
<path fill="none" stroke="#191970" d="M742.9923,-168.2243C728.3521,-145.2946 688.629,-87.6089 641.0273,-56 612.6403,-37.1502 575.787,-25.3145 547.6054,-18.3772"/>
<polygon fill="#191970" stroke="#191970" points="548.1821,-14.9175 537.6468,-16.039 546.582,-21.7322 548.1821,-14.9175"/>
</g>
<!-- Node14&#45;&gt;Node12 -->
<g id="edge24" class="edge">
<title>Node14&#45;&gt;Node12</title>
<path fill="none" stroke="#191970" d="M675.942,-171.5812C597.5819,-163.933 478.7945,-149.9076 437.0273,-132 378.6067,-106.9523 323.2069,-54.4557 296.9327,-27.2186"/>
<polygon fill="#191970" stroke="#191970" points="299.1629,-24.4838 289.7427,-19.635 294.0831,-29.3 299.1629,-24.4838"/>
</g>
<!-- Node14&#45;&gt;Node13 -->
<g id="edge25" class="edge">
<title>Node14&#45;&gt;Node13</title>
<path fill="none" stroke="#191970" d="M709.9209,-168.4369C670.894,-158.8932 610.8308,-144.2052 568.7311,-133.9101"/>
<polygon fill="#191970" stroke="#191970" points="569.5175,-130.4993 558.9723,-131.5237 567.8546,-137.299 569.5175,-130.4993"/>
</g>
<!-- Node15&#45;&gt;Node3 -->
<g id="edge27" class="edge">
<title>Node15&#45;&gt;Node3</title>
<path fill="none" stroke="#191970" d="M1373.4914,-168.4862C1324.9208,-140.5415 1182.4202,-58.5549 1123.7348,-24.7906"/>
<polygon fill="#191970" stroke="#191970" points="1125.1569,-21.5709 1114.7436,-19.6177 1121.666,-27.6384 1125.1569,-21.5709"/>
</g>
<!-- Node16&#45;&gt;Node3 -->
<g id="edge29" class="edge">
<title>Node16&#45;&gt;Node3</title>
<path fill="none" stroke="#191970" d="M1128.9312,-224.3184C1125.2229,-215.137 1119.9127,-200.871 1117.0273,-188 1104.3777,-131.5754 1100.079,-63.1422 1098.6743,-29.9625"/>
<polygon fill="#191970" stroke="#191970" points="1102.1645,-29.6347 1098.2892,-19.7741 1095.1695,-29.8992 1102.1645,-29.6347"/>
</g>
<!-- Node16&#45;&gt;Node10 -->
<g id="edge30" class="edge">
<title>Node16&#45;&gt;Node10</title>
<path fill="none" stroke="#191970" d="M1128.1969,-224.1869C1116.3817,-201.1763 1083.7624,-143.3286 1040.0273,-112 954.4278,-50.683 829.3675,-24.2926 769.8847,-14.6906"/>
<polygon fill="#191970" stroke="#191970" points="770.3213,-11.2165 759.9023,-13.1386 769.2459,-18.1334 770.3213,-11.2165"/>
</g>
<!-- Node16&#45;&gt;Node14 -->
<g id="edge34" class="edge">
<title>Node16&#45;&gt;Node14</title>
<path fill="none" stroke="#191970" d="M1067.4516,-224.4369C1000.0762,-214.6113 895.3113,-199.3331 824.5218,-189.0096"/>
<polygon fill="#191970" stroke="#191970" points="824.7329,-185.5035 814.3324,-187.5237 823.7226,-192.4302 824.7329,-185.5035"/>
</g>
<!-- Node16&#45;&gt;Node15 -->
<g id="edge33" class="edge">
<title>Node16&#45;&gt;Node15</title>
<path fill="none" stroke="#191970" d="M1176.9151,-224.4369C1220.9911,-214.8328 1288.9753,-200.0191 1336.2631,-189.7152"/>
<polygon fill="#191970" stroke="#191970" points="1337.2949,-193.0725 1346.3204,-187.5237 1335.8045,-186.233 1337.2949,-193.0725"/>
</g>
<!-- Node16&#45;&gt;Node17 -->
<g id="edge31" class="edge">
<title>Node16&#45;&gt;Node17</title>
<path fill="none" stroke="#191970" d="M1146.0913,-224.2455C1157.3835,-215.814 1173.9117,-203.4729 1187.0544,-193.6598"/>
<polygon fill="#191970" stroke="#191970" points="1189.1942,-196.4301 1195.113,-187.6427 1185.0061,-190.8211 1189.1942,-196.4301"/>
</g>
<!-- Node17&#45;&gt;Node3 -->
<g id="edge32" class="edge">
<title>Node17&#45;&gt;Node3</title>
<path fill="none" stroke="#191970" d="M1201.798,-168.4862C1184.1085,-141.4695 1133.3454,-63.9405 1110.016,-28.3102"/>
<polygon fill="#191970" stroke="#191970" points="1112.8682,-26.2768 1104.4622,-19.8279 1107.0119,-30.1114 1112.8682,-26.2768"/>
</g>
<!-- Node18&#45;&gt;Node3 -->
<g id="edge37" class="edge">
<title>Node18&#45;&gt;Node3</title>
<path fill="none" stroke="#191970" d="M193.1135,-280.4612C250.4043,-272.0602 334.3733,-258.8702 407.0273,-244 443.3553,-236.5647 451.5017,-230.3949 488.0273,-224 563.5199,-210.7828 763.7507,-224.7109 831.0273,-188 869.0474,-167.2535 859.9208,-141.0711 892.0273,-112 908.9326,-96.6929 957.7112,-66.3614 978.0273,-56 1006.8511,-41.2995 1041.5268,-28.4927 1066.1748,-20.1514"/>
<polygon fill="#191970" stroke="#191970" points="1067.367,-23.4435 1075.7501,-16.9648 1065.1565,-16.8017 1067.367,-23.4435"/>
</g>
<!-- Node18&#45;&gt;Node4 -->
<g id="edge38" class="edge">
<title>Node18&#45;&gt;Node4</title>
<path fill="none" stroke="#191970" d="M191.7983,-280.4369C278.0116,-268.0892 424.3491,-247.1304 486.5956,-238.2153"/>
<polygon fill="#191970" stroke="#191970" points="487.4642,-241.6267 496.867,-236.7442 486.4718,-234.6974 487.4642,-241.6267"/>
</g>
<!-- Node18&#45;&gt;Node9 -->
<g id="edge42" class="edge">
<title>Node18&#45;&gt;Node9</title>
<path fill="none" stroke="#191970" d="M144.5271,-280.4832C162.8847,-271.4183 191.0629,-257.2311 215.0273,-244 315.5187,-188.5171 333.7267,-162.0587 437.0273,-112 463.38,-99.2297 494.2536,-87.4625 518.0855,-79.0267"/>
<polygon fill="#191970" stroke="#191970" points="519.5475,-82.2234 527.8344,-75.622 517.2395,-75.6149 519.5475,-82.2234"/>
</g>
<!-- Node18&#45;&gt;Node10 -->
<g id="edge40" class="edge">
<title>Node18&#45;&gt;Node10</title>
<path fill="none" stroke="#191970" d="M135.4374,-280.4101C175.4683,-244.136 324.6745,-114.4252 473.0273,-56 551.3422,-25.1575 650.8792,-14.9252 702.1301,-11.5826"/>
<polygon fill="#191970" stroke="#191970" points="702.5373,-15.0645 712.3085,-10.969 702.116,-8.0772 702.5373,-15.0645"/>
</g>
<!-- Node18&#45;&gt;Node11 -->
<g id="edge39" class="edge">
<title>Node18&#45;&gt;Node11</title>
<path fill="none" stroke="#191970" d="M125.0273,-280.4116C125.0273,-261.0538 125.0273,-215.9167 125.0273,-178 125.0273,-178 125.0273,-178 125.0273,-122 125.0273,-52.3344 362.9852,-22.791 462.294,-13.4948"/>
<polygon fill="#191970" stroke="#191970" points="462.6587,-16.9762 472.2998,-12.583 462.0234,-10.005 462.6587,-16.9762"/>
</g>
<!-- Node18&#45;&gt;Node12 -->
<g id="edge41" class="edge">
<title>Node18&#45;&gt;Node12</title>
<path fill="none" stroke="#191970" d="M119.4202,-280.4834C108.8499,-261.6141 87.0273,-217.8343 87.0273,-178 87.0273,-178 87.0273,-178 87.0273,-122 87.0273,-90.7875 88.044,-77.1186 111.0273,-56 129.9944,-38.5717 197.6367,-24.1582 241.6645,-16.3409"/>
<polygon fill="#191970" stroke="#191970" points="242.5061,-19.7472 251.7609,-14.5898 241.3099,-12.8502 242.5061,-19.7472"/>
</g>
<!-- Node18&#45;&gt;Node13 -->
<g id="edge43" class="edge">
<title>Node18&#45;&gt;Node13</title>
<path fill="none" stroke="#191970" d="M196.5324,-280.42C237.0643,-273.4323 288.0982,-261.9708 331.0273,-244 365.9327,-229.388 456.2885,-166.9931 498.1471,-137.5271"/>
<polygon fill="#191970" stroke="#191970" points="500.3858,-140.231 506.5369,-131.6046 496.3489,-134.5123 500.3858,-140.231"/>
</g>
<!-- Node18&#45;&gt;Node14 -->
<g id="edge44" class="edge">
<title>Node18&#45;&gt;Node14</title>
<path fill="none" stroke="#191970" d="M196.9666,-280.4714C246.0633,-272.9912 312.2392,-260.9812 369.0273,-244 391.1696,-237.3788 394.7304,-230.0805 417.0273,-224 499.928,-201.3923 597.6576,-189.5604 665.5243,-183.5951"/>
<polygon fill="#191970" stroke="#191970" points="666.0685,-187.0615 675.7339,-182.7222 665.4721,-180.0869 666.0685,-187.0615"/>
</g>
<!-- Node18&#45;&gt;Node16 -->
<g id="edge45" class="edge">
<title>Node18&#45;&gt;Node16</title>
<path fill="none" stroke="#191970" d="M208.8039,-285.3457C395.2662,-274.9867 843.4683,-250.0866 1039.0681,-239.22"/>
<polygon fill="#191970" stroke="#191970" points="1039.5315,-242.6997 1049.3219,-238.6503 1039.1431,-235.7105 1039.5315,-242.6997"/>
</g>
<!-- Node19&#45;&gt;Node3 -->
<g id="edge49" class="edge">
<title>Node19&#45;&gt;Node3</title>
<path fill="none" stroke="#191970" d="M871.1741,-280.3455C869.152,-251.5509 866.9248,-164.9892 907.0273,-112 928.378,-83.7883 946.7448,-92.5275 978.0273,-76 1010.6914,-58.7425 1047.9098,-38.121 1072.1218,-24.5761"/>
<polygon fill="#191970" stroke="#191970" points="1074.0229,-27.5229 1081.0351,-19.5806 1070.6005,-21.4165 1074.0229,-27.5229"/>
</g>
<!-- Node19&#45;&gt;Node11 -->
<g id="edge48" class="edge">
<title>Node19&#45;&gt;Node11</title>
<path fill="none" stroke="#191970" d="M839.0123,-280.4021C741.6849,-251.7863 461.1845,-166.8864 437.0273,-132 412.0245,-95.8926 456.4391,-49.8089 484.5603,-25.9394"/>
<polygon fill="#191970" stroke="#191970" points="486.8282,-28.6059 492.3293,-19.5511 482.3823,-23.1991 486.8282,-28.6059"/>
</g>
<!-- Node20 -->
<g id="node21" class="node">
<title>Node20</title>
<polygon fill="#ffffff" stroke="#bfbfbf" points="744.0273,-224.5 744.0273,-243.5 804.0273,-243.5 804.0273,-224.5 744.0273,-224.5"/>
<text text-anchor="middle" x="774.0273" y="-231.5" font-family="Helvetica,sans-Serif" font-size="10.00" fill="#000000">iostream</text>
</g>
<!-- Node19&#45;&gt;Node20 -->
<g id="edge47" class="edge">
<title>Node19&#45;&gt;Node20</title>
<path fill="none" stroke="#191970" d="M854.957,-280.2455C839.7802,-271.5731 817.3651,-258.7645 799.971,-248.825"/>
<polygon fill="#191970" stroke="#191970" points="801.3209,-245.5653 790.9019,-243.6427 797.8479,-251.643 801.3209,-245.5653"/>
</g>
<!-- Node19&#45;&gt;Node21 -->
<g id="edge50" class="edge">
<title>Node19&#45;&gt;Node21</title>
<path fill="none" stroke="#191970" d="M825.4071,-280.4369C778.3908,-270.7925 705.7643,-255.8948 655.5079,-245.5858"/>
<polygon fill="#191970" stroke="#191970" points="655.9545,-242.1046 645.4551,-243.5237 654.5478,-248.9618 655.9545,-242.1046"/>
</g>
<!-- Node22&#45;&gt;Node3 -->
<g id="edge53" class="edge">
<title>Node22&#45;&gt;Node3</title>
<path fill="none" stroke="#191970" d="M984.5994,-112.4509C1005.7387,-93.3574 1053.4429,-50.2697 1079.7524,-26.5063"/>
<polygon fill="#191970" stroke="#191970" points="1082.4068,-28.8251 1087.4818,-19.5249 1077.7148,-23.6304 1082.4068,-28.8251"/>
</g>
<!-- Node22&#45;&gt;Node10 -->
<g id="edge52" class="edge">
<title>Node22&#45;&gt;Node10</title>
<path fill="none" stroke="#191970" d="M952.9152,-112.3993C932.647,-103.1562 901.1896,-88.7418 874.0273,-76 836.389,-58.344 793.18,-37.6019 765.2873,-24.1501"/>
<polygon fill="#191970" stroke="#191970" points="766.6216,-20.9078 756.0943,-19.7131 763.5788,-27.2119 766.6216,-20.9078"/>
</g>
<!-- Node27&#45;&gt;Node3 -->
<g id="edge60" class="edge">
<title>Node27&#45;&gt;Node3</title>
<path fill="none" stroke="#191970" d="M2263.7296,-280.3768C2274.1076,-271.8772 2288.4214,-258.5924 2297.0273,-244 2312.5334,-217.7072 2316.0273,-208.5246 2316.0273,-178 2316.0273,-178 2316.0273,-178 2316.0273,-122 2316.0273,-60.6492 1323.1824,-18.7838 1130.2786,-11.2286"/>
<polygon fill="#191970" stroke="#191970" points="1130.3361,-7.7283 1120.2077,-10.837 1130.0641,-14.723 1130.3361,-7.7283"/>
</g>
<!-- Node27&#45;&gt;Node7 -->
<g id="edge62" class="edge">
<title>Node27&#45;&gt;Node7</title>
<path fill="none" stroke="#191970" d="M2183.9852,-280.4285C2141.5716,-272.8674 2092.3178,-260.7797 2079.0273,-244 2068.8178,-231.1103 2069.4213,-211.9449 2071.9258,-197.583"/>
<polygon fill="#191970" stroke="#191970" points="2075.3657,-198.2346 2074.0639,-187.7201 2068.5246,-196.7515 2075.3657,-198.2346"/>
</g>
<!-- Node27&#45;&gt;Node11 -->
<g id="edge61" class="edge">
<title>Node27&#45;&gt;Node11</title>
<path fill="none" stroke="#191970" d="M2196.7295,-280.4822C2122.0551,-267.446 1983.4384,-243.4385 1865.0273,-224 1346.382,-138.8585 715.2918,-42.0897 547.6006,-16.4883"/>
<polygon fill="#191970" stroke="#191970" points="548.096,-13.0235 537.6824,-14.9746 547.0398,-19.9434 548.096,-13.0235"/>
</g>
<!-- Node28 -->
<g id="node29" class="node">
<title>Node28</title>
<g id="a_node29"><a xlink:href="ROSComponentDescriptor_8hpp.html" target="_top" xlink:title="archlib/ROSComponentDescriptor.hpp">
<polygon fill="#ffffff" stroke="#000000" points="2088.0273,-224.5 2088.0273,-243.5 2288.0273,-243.5 2288.0273,-224.5 2088.0273,-224.5"/>
<text text-anchor="middle" x="2188.0273" y="-231.5" font-family="Helvetica,sans-Serif" font-size="10.00" fill="#000000">archlib/ROSComponentDescriptor.hpp</text>
</a>
</g>
</g>
<!-- Node27&#45;&gt;Node28 -->
<g id="edge63" class="edge">
<title>Node27&#45;&gt;Node28</title>
<path fill="none" stroke="#191970" d="M2240.0535,-280.2455C2230.839,-272.0549 2217.474,-260.1749 2206.5975,-250.5069"/>
<polygon fill="#191970" stroke="#191970" points="2208.6747,-247.6704 2198.8753,-243.6427 2204.0241,-252.9023 2208.6747,-247.6704"/>
</g>
<!-- Node28&#45;&gt;Node3 -->
<g id="edge64" class="edge">
<title>Node28&#45;&gt;Node3</title>
<path fill="none" stroke="#191970" d="M2180.3579,-224.1406C2168.3339,-209.4229 2143.5569,-181.9491 2116.0273,-168 1936.2713,-76.9186 1284.2009,-23.7621 1130.5968,-12.3365"/>
<polygon fill="#191970" stroke="#191970" points="1130.6423,-8.8305 1120.4121,-11.586 1130.1278,-15.8115 1130.6423,-8.8305"/>
</g>
<!-- Node28&#45;&gt;Node7 -->
<g id="edge65" class="edge">
<title>Node28&#45;&gt;Node7</title>
<path fill="none" stroke="#191970" d="M2168.9457,-224.3733C2151.2871,-215.4644 2124.822,-202.1127 2104.8175,-192.0203"/>
<polygon fill="#191970" stroke="#191970" points="2106.3645,-188.8806 2095.8598,-187.5011 2103.2115,-195.1303 2106.3645,-188.8806"/>
</g>
<!-- Node30&#45;&gt;Node1 -->
<g id="edge68" class="edge">
<title>Node30&#45;&gt;Node1</title>
<path fill="none" stroke="#191970" d="M1013.0391,-343.6059C880.2579,-337.5053 539.516,-320.5076 405.801,-299.752"/>
<polygon fill="#191970" stroke="#191970" points="406.2113,-296.2728 395.7792,-298.1223 405.0877,-303.1821 406.2113,-296.2728"/>
</g>
<!-- Node30&#45;&gt;Node2 -->
<g id="edge69" class="edge">
<title>Node30&#45;&gt;Node2</title>
<path fill="none" stroke="#191970" d="M1013.5079,-345.1336C911.3626,-342.7611 681.58,-333.9659 480.0655,-299.8851"/>
<polygon fill="#191970" stroke="#191970" points="480.6361,-296.4319 470.1882,-298.1902 479.4522,-303.3311 480.6361,-296.4319"/>
</g>
<!-- Node30&#45;&gt;Node3 -->
<g id="edge70" class="edge">
<title>Node30&#45;&gt;Node3</title>
<path fill="none" stroke="#191970" d="M1106.4116,-336.484C1137.1718,-328.4458 1180.6537,-315.738 1217.0273,-300 1233.4702,-292.8855 1235.8992,-287.8022 1252.0273,-280 1301.3958,-256.117 1450.3154,-233.4361 1481.0273,-188 1569.554,-57.0309 1237.3281,-20.4117 1130.253,-12.115"/>
<polygon fill="#191970" stroke="#191970" points="1130.2754,-8.6071 1120.0439,-11.3577 1129.7575,-15.588 1130.2754,-8.6071"/>
</g>
<!-- Node30&#45;&gt;Node4 -->
<g id="edge71" class="edge">
<title>Node30&#45;&gt;Node4</title>
<path fill="none" stroke="#191970" d="M1013.2339,-340.786C935.4909,-332.8193 795.8101,-316.7666 748.0273,-300 731.4845,-294.1953 730.3712,-286.343 714.0273,-280 644.9813,-253.2035 620.3631,-264.0395 545.1347,-243.9783"/>
<polygon fill="#191970" stroke="#191970" points="545.7682,-240.5221 535.197,-241.2293 543.9019,-247.2688 545.7682,-240.5221"/>
</g>
<!-- Node30&#45;&gt;Node5 -->
<g id="edge72" class="edge">
<title>Node30&#45;&gt;Node5</title>
<path fill="none" stroke="#191970" d="M1013.2725,-343.4208C899.5851,-337.6486 637.1011,-322.5648 530.071,-299.5266"/>
<polygon fill="#191970" stroke="#191970" points="530.7372,-296.0887 520.2087,-297.2723 529.1774,-302.9127 530.7372,-296.0887"/>
</g>
<!-- Node30&#45;&gt;Node6 -->
<g id="edge73" class="edge">
<title>Node30&#45;&gt;Node6</title>
<path fill="none" stroke="#191970" d="M1013.3485,-343.0046C929.6041,-337.8013 762.695,-325.3049 612.0652,-299.9728"/>
<polygon fill="#191970" stroke="#191970" points="612.614,-296.516 602.168,-298.2856 611.4376,-303.4164 612.614,-296.516"/>
</g>
<!-- Node30&#45;&gt;Node7 -->
<g id="edge74" class="edge">
<title>Node30&#45;&gt;Node7</title>
<path fill="none" stroke="#191970" d="M1116.0777,-336.487C1153.8042,-328.5302 1206.9337,-315.9274 1252.0273,-300 1271.9011,-292.9804 1274.7857,-285.876 1295.0273,-280 1571.0761,-199.8649 1920.2953,-182.5658 2037.0098,-178.9352"/>
<polygon fill="#191970" stroke="#191970" points="2037.359,-182.4265 2047.2517,-178.6336 2037.153,-175.4295 2037.359,-182.4265"/>
</g>
<!-- Node30&#45;&gt;Node8 -->
<g id="edge75" class="edge">
<title>Node30&#45;&gt;Node8</title>
<path fill="none" stroke="#191970" d="M1013.4276,-339.6012C945.1687,-331.2901 823.6353,-315.9487 720.0273,-300 718.5688,-299.7755 717.09,-299.5438 715.5982,-299.3066"/>
<polygon fill="#191970" stroke="#191970" points="716.0708,-295.8374 705.6367,-297.676 714.94,-302.7455 716.0708,-295.8374"/>
</g>
<!-- Node30&#45;&gt;Node9 -->
<g id="edge76" class="edge">
<title>Node30&#45;&gt;Node9</title>
<path fill="none" stroke="#191970" d="M1060.8989,-336.1487C1052.0091,-322.4027 1034.4602,-297.2215 1015.0273,-280 888.5336,-167.9011 693.173,-103.3558 604.1387,-78.2549"/>
<polygon fill="#191970" stroke="#191970" points="604.9005,-74.8341 594.3285,-75.5281 603.0258,-81.5784 604.9005,-74.8341"/>
</g>
<!-- Node30&#45;&gt;Node13 -->
<g id="edge77" class="edge">
<title>Node30&#45;&gt;Node13</title>
<path fill="none" stroke="#191970" d="M1049.9177,-336.3833C1033.4941,-327.1286 1008.0092,-312.7061 986.0273,-300 970.8488,-291.2265 967.757,-287.7415 952.0273,-280 892.2695,-250.5897 876.4072,-244.468 813.0273,-224 749.429,-203.4615 730.2127,-209.7753 667.0273,-188 624.255,-173.2596 576.8602,-150.8045 547.7519,-136.264"/>
<polygon fill="#191970" stroke="#191970" points="549.1198,-133.0341 538.6146,-131.6589 545.9693,-139.285 549.1198,-133.0341"/>
</g>
<!-- Node30&#45;&gt;Node14 -->
<g id="edge78" class="edge">
<title>Node30&#45;&gt;Node14</title>
<path fill="none" stroke="#191970" d="M1057.2314,-336.4792C1042.6499,-322.6809 1013.9473,-296.9289 986.0273,-280 920.2287,-240.1041 836.0209,-207.8227 787.7368,-190.9008"/>
<polygon fill="#191970" stroke="#191970" points="788.5931,-187.4934 777.9983,-187.5257 786.3008,-194.1074 788.5931,-187.4934"/>
</g>
<!-- Node30&#45;&gt;Node15 -->
<g id="edge79" class="edge">
<title>Node30&#45;&gt;Node15</title>
<path fill="none" stroke="#191970" d="M1095.5491,-336.4353C1119.6357,-327.9714 1154.777,-314.7061 1184.0273,-300 1241.1022,-271.3044 1250.8788,-256.2435 1306.0273,-224 1324.7452,-213.0562 1346.1903,-201.3255 1362.727,-192.4494"/>
<polygon fill="#191970" stroke="#191970" points="1364.6684,-195.3804 1371.8387,-187.5806 1361.3694,-189.2065 1364.6684,-195.3804"/>
</g>
<!-- Node30&#45;&gt;Node16 -->
<g id="edge80" class="edge">
<title>Node30&#45;&gt;Node16</title>
<path fill="none" stroke="#191970" d="M1074.5731,-336.4357C1081.5839,-327.3373 1092.1051,-313.1274 1100.0273,-300 1109.3106,-284.617 1118.3268,-266.2798 1124.5823,-252.8425"/>
<polygon fill="#191970" stroke="#191970" points="1127.8093,-254.2018 1128.7864,-243.6521 1121.4437,-251.2898 1127.8093,-254.2018"/>
</g>
<!-- Node30&#45;&gt;Node17 -->
<g id="edge81" class="edge">
<title>Node30&#45;&gt;Node17</title>
<path fill="none" stroke="#191970" d="M1086.4742,-336.4479C1125.236,-316.9618 1209.7216,-272.0988 1225.0273,-244 1233.0432,-229.284 1226.987,-210.6508 1219.9754,-196.9385"/>
<polygon fill="#191970" stroke="#191970" points="1222.8598,-194.929 1214.8885,-187.9499 1216.7677,-198.3767 1222.8598,-194.929"/>
</g>
<!-- Node30&#45;&gt;Node18 -->
<g id="edge82" class="edge">
<title>Node30&#45;&gt;Node18</title>
<path fill="none" stroke="#191970" d="M1013.3405,-342.8084C859.2862,-333.6502 414.3572,-307.2001 218.949,-295.5835"/>
<polygon fill="#191970" stroke="#191970" points="218.8928,-292.074 208.7027,-294.9743 218.4773,-299.0617 218.8928,-292.074"/>
</g>
<!-- Node30&#45;&gt;Node19 -->
<g id="edge83" class="edge">
<title>Node30&#45;&gt;Node19</title>
<path fill="none" stroke="#191970" d="M1033.5056,-336.3733C1000.6589,-326.9404 950.4677,-312.5265 914.7695,-302.2747"/>
<polygon fill="#191970" stroke="#191970" points="915.6891,-298.8974 905.1115,-299.5011 913.7569,-305.6255 915.6891,-298.8974"/>
</g>
<!-- Node30&#45;&gt;Node21 -->
<g id="edge85" class="edge">
<title>Node30&#45;&gt;Node21</title>
<path fill="none" stroke="#191970" d="M1013.386,-341.3899C957.0381,-335.5511 866.3183,-323.311 791.0273,-300 770.893,-293.7662 767.6978,-287.5707 748.0273,-280 713.8638,-266.8514 674.2218,-254.7596 644.4195,-246.2764"/>
<polygon fill="#191970" stroke="#191970" points="645.2864,-242.8844 634.712,-243.5415 643.3881,-249.6221 645.2864,-242.8844"/>
</g>
<!-- Node30&#45;&gt;Node22 -->
<g id="edge84" class="edge">
<title>Node30&#45;&gt;Node22</title>
<path fill="none" stroke="#191970" d="M1068.7935,-336.2698C1070.7371,-322.6676 1072.3535,-297.6563 1062.0273,-280 1047.4653,-255.1012 1024.9576,-267.353 1008.0273,-244 985.4305,-212.8311 977.8391,-167.2286 975.2977,-141.5163"/>
<polygon fill="#191970" stroke="#191970" points="978.7832,-141.1959 974.4689,-131.5193 971.8071,-141.7743 978.7832,-141.1959"/>
</g>
<!-- Node30&#45;&gt;Node23 -->
<g id="edge86" class="edge">
<title>Node30&#45;&gt;Node23</title>
<path fill="none" stroke="#191970" d="M1120.6323,-336.5004C1175.4495,-326.7859 1260.6121,-311.6938 1318.953,-301.3549"/>
<polygon fill="#191970" stroke="#191970" points="1319.9234,-304.7376 1329.1592,-299.5462 1318.7018,-297.845 1319.9234,-304.7376"/>
</g>
<!-- Node30&#45;&gt;Node24 -->
<g id="edge87" class="edge">
<title>Node30&#45;&gt;Node24</title>
<path fill="none" stroke="#191970" d="M1120.7262,-340.7792C1196.2635,-333.2377 1338.4376,-318.3223 1470.0529,-300.0743"/>
<polygon fill="#191970" stroke="#191970" points="1470.8966,-303.4905 1480.3166,-298.6413 1469.9287,-296.5577 1470.8966,-303.4905"/>
</g>
<!-- Node30&#45;&gt;Node25 -->
<g id="edge88" class="edge">
<title>Node30&#45;&gt;Node25</title>
<path fill="none" stroke="#191970" d="M1120.6023,-342.4412C1213.6786,-336.0062 1411.4816,-321.2175 1589.6588,-299.9673"/>
<polygon fill="#191970" stroke="#191970" points="1590.2317,-303.4237 1599.7425,-298.7552 1589.3962,-296.4738 1590.2317,-303.4237"/>
</g>
<!-- Node30&#45;&gt;Node26 -->
<g id="edge89" class="edge">
<title>Node30&#45;&gt;Node26</title>
<path fill="none" stroke="#191970" d="M1120.804,-343.4383C1230.8356,-337.9296 1489.8066,-323.5957 1717.6982,-300.0769"/>
<polygon fill="#191970" stroke="#191970" points="1718.2564,-303.5378 1727.8406,-299.0219 1717.5321,-296.5754 1718.2564,-303.5378"/>
</g>
<!-- Node30&#45;&gt;Node27 -->
<g id="edge90" class="edge">
<title>Node30&#45;&gt;Node27</title>
<path fill="none" stroke="#191970" d="M1120.589,-343.4667C1307.9957,-334.6028 1935.3238,-304.9319 2165.4495,-294.0476"/>
<polygon fill="#191970" stroke="#191970" points="2165.9521,-297.5278 2175.7756,-293.5592 2165.6214,-290.5356 2165.9521,-297.5278"/>
</g>
<!-- Node30&#45;&gt;Node29 -->
<g id="edge91" class="edge">
<title>Node30&#45;&gt;Node29</title>
<path fill="none" stroke="#191970" d="M1120.7025,-344.2535C1247.6481,-339.8309 1576.4792,-326.6683 1861.79,-300.0528"/>
<polygon fill="#191970" stroke="#191970" points="1862.2922,-303.5211 1871.9206,-299.1003 1861.6369,-296.5518 1862.2922,-303.5211"/>
</g>
</g>
</svg>
