<?xml version="1.0" encoding="UTF-8" standalone="no"?>
<!DOCTYPE svg PUBLIC "-//W3C//DTD SVG 1.1//EN"
 "http://www.w3.org/Graphics/SVG/1.1/DTD/svg11.dtd">
<!-- Generated by graphviz version 2.40.1 (20161225.0304)
 -->
<!-- Title: src/sa&#45;bsn/system_manager/adaptation_engine/src/ReliabilityEngine.cpp Pages: 1 -->
<svg width="2399pt" height="498pt"
 viewBox="0.00 0.00 2399.35 498.00" xmlns="http://www.w3.org/2000/svg" xmlns:xlink="http://www.w3.org/1999/xlink">
<g id="graph0" class="graph" transform="scale(1 1) rotate(0) translate(4 494)">
<title>src/sa&#45;bsn/system_manager/adaptation_engine/src/ReliabilityEngine.cpp</title>
<polygon fill="#ffffff" stroke="transparent" points="-4,4 -4,-494 2395.3456,-494 2395.3456,4 -4,4"/>
<!-- Node0 -->
<g id="node1" class="node">
<title>Node0</title>
<polygon fill="#bfbfbf" stroke="#000000" points="989.3456,-448.5 989.3456,-489.5 1143.3456,-489.5 1143.3456,-448.5 989.3456,-448.5"/>
<text text-anchor="start" x="997.3456" y="-477.5" font-family="Helvetica,sans-Serif" font-size="10.00" fill="#000000">src/sa&#45;bsn/system_manager</text>
<text text-anchor="start" x="997.3456" y="-466.5" font-family="Helvetica,sans-Serif" font-size="10.00" fill="#000000">/adaptation_engine/src</text>
<text text-anchor="middle" x="1066.3456" y="-455.5" font-family="Helvetica,sans-Serif" font-size="10.00" fill="#000000">/ReliabilityEngine.cpp</text>
</g>
<!-- Node1 -->
<g id="node2" class="node">
<title>Node1</title>
<g id="a_node2"><a xlink:href="ReliabilityEngine_8hpp.html" target="_top" xlink:title="engine/ReliabilityEngine.hpp">
<polygon fill="#ffffff" stroke="#000000" points="988.8456,-392.5 988.8456,-411.5 1143.8456,-411.5 1143.8456,-392.5 988.8456,-392.5"/>
<text text-anchor="middle" x="1066.3456" y="-399.5" font-family="Helvetica,sans-Serif" font-size="10.00" fill="#000000">engine/ReliabilityEngine.hpp</text>
</a>
</g>
</g>
<!-- Node0&#45;&gt;Node1 -->
<g id="edge1" class="edge">
<title>Node0&#45;&gt;Node1</title>
<path fill="none" stroke="#191970" d="M1066.3456,-448.168C1066.3456,-439.8226 1066.3456,-430.2471 1066.3456,-421.9879"/>
<polygon fill="#191970" stroke="#191970" points="1069.8457,-421.7804 1066.3456,-411.7805 1062.8457,-421.7805 1069.8457,-421.7804"/>
</g>
<!-- Node2 -->
<g id="node3" class="node">
<title>Node2</title>
<polygon fill="#ffffff" stroke="#bfbfbf" points="339.8456,-280.5 339.8456,-299.5 394.8456,-299.5 394.8456,-280.5 339.8456,-280.5"/>
<text text-anchor="middle" x="367.3456" y="-287.5" font-family="Helvetica,sans-Serif" font-size="10.00" fill="#000000">fstream</text>
</g>
<!-- Node1&#45;&gt;Node2 -->
<g id="edge2" class="edge">
<title>Node1&#45;&gt;Node2</title>
<path fill="none" stroke="#191970" d="M988.6901,-399.4196C892.6761,-395.1286 724.6342,-384.0158 583.3456,-356 518.0049,-343.0437 444.266,-318.2191 402.0484,-302.9832"/>
<polygon fill="#191970" stroke="#191970" points="403.1172,-299.6476 392.5232,-299.5148 400.7221,-306.2251 403.1172,-299.6476"/>
</g>
<!-- Node3 -->
<g id="node4" class="node">
<title>Node3</title>
<polygon fill="#ffffff" stroke="#bfbfbf" points="413.3456,-280.5 413.3456,-299.5 469.3456,-299.5 469.3456,-280.5 413.3456,-280.5"/>
<text text-anchor="middle" x="441.3456" y="-287.5" font-family="Helvetica,sans-Serif" font-size="10.00" fill="#000000">sstream</text>
</g>
<!-- Node1&#45;&gt;Node3 -->
<g id="edge3" class="edge">
<title>Node1&#45;&gt;Node3</title>
<path fill="none" stroke="#191970" d="M988.5271,-396.8303C908.0485,-390.5877 779.0301,-378.0701 669.3456,-356 600.8019,-342.208 522.9642,-317.7067 478.2603,-302.7498"/>
<polygon fill="#191970" stroke="#191970" points="479.2984,-299.4063 468.7043,-299.5288 477.0625,-306.0397 479.2984,-299.4063"/>
</g>
<!-- Node4 -->
<g id="node5" class="node">
<title>Node4</title>
<polygon fill="#ffffff" stroke="#bfbfbf" points="1075.3456,-.5 1075.3456,-19.5 1119.3456,-19.5 1119.3456,-.5 1075.3456,-.5"/>
<text text-anchor="middle" x="1097.3456" y="-7.5" font-family="Helvetica,sans-Serif" font-size="10.00" fill="#000000">string</text>
</g>
<!-- Node1&#45;&gt;Node4 -->
<g id="edge4" class="edge">
<title>Node1&#45;&gt;Node4</title>
<path fill="none" stroke="#191970" d="M1144.2686,-400.8886C1391.934,-397.0928 2151.1069,-383.3372 2258.3456,-356 2322.2898,-339.6994 2391.3456,-355.9891 2391.3456,-290 2391.3456,-290 2391.3456,-290 2391.3456,-122 2391.3456,34.1139 2201.3605,-74.4915 2046.3456,-56 1862.9861,-34.1273 1274.4482,-15.3279 1129.7235,-10.9568"/>
<polygon fill="#191970" stroke="#191970" points="1129.806,-7.4578 1119.7054,-10.656 1129.5958,-14.4547 1129.806,-7.4578"/>
</g>
<!-- Node5 -->
<g id="node6" class="node">
<title>Node5</title>
<polygon fill="#ffffff" stroke="#bfbfbf" points="496.3456,-224.5 496.3456,-243.5 534.3456,-243.5 534.3456,-224.5 496.3456,-224.5"/>
<text text-anchor="middle" x="515.3456" y="-231.5" font-family="Helvetica,sans-Serif" font-size="10.00" fill="#000000">map</text>
</g>
<!-- Node1&#45;&gt;Node5 -->
<g id="edge5" class="edge">
<title>Node1&#45;&gt;Node5</title>
<path fill="none" stroke="#191970" d="M988.6461,-399.8256C818.3979,-394.6397 423.1548,-380.1451 367.3456,-356 327.8481,-338.912 280.153,-313.3559 307.3456,-280 357.5197,-218.4537 405.3795,-263.5346 482.3456,-244 483.6185,-243.6769 484.9156,-243.3358 486.2233,-242.9821"/>
<polygon fill="#191970" stroke="#191970" points="487.5841,-246.2331 496.2337,-240.1146 485.6564,-239.5037 487.5841,-246.2331"/>
</g>
<!-- Node6 -->
<g id="node7" class="node">
<title>Node6</title>
<polygon fill="#ffffff" stroke="#bfbfbf" points="487.3456,-280.5 487.3456,-299.5 519.3456,-299.5 519.3456,-280.5 487.3456,-280.5"/>
<text text-anchor="middle" x="503.3456" y="-287.5" font-family="Helvetica,sans-Serif" font-size="10.00" fill="#000000">set</text>
</g>
<!-- Node1&#45;&gt;Node6 -->
<g id="edge6" class="edge">
<title>Node1&#45;&gt;Node6</title>
<path fill="none" stroke="#191970" d="M988.6578,-393.4798C884.758,-380.7212 695.3529,-352.675 529.2633,-299.9598"/>
<polygon fill="#191970" stroke="#191970" points="529.9575,-296.5067 519.3662,-296.7801 527.8163,-303.1712 529.9575,-296.5067"/>
</g>
<!-- Node7 -->
<g id="node8" class="node">
<title>Node7</title>
<polygon fill="#ffffff" stroke="#bfbfbf" points="537.3456,-280.5 537.3456,-299.5 601.3456,-299.5 601.3456,-280.5 537.3456,-280.5"/>
<text text-anchor="middle" x="569.3456" y="-287.5" font-family="Helvetica,sans-Serif" font-size="10.00" fill="#000000">algorithm</text>
</g>
<!-- Node1&#45;&gt;Node7 -->
<g id="edge7" class="edge">
<title>Node1&#45;&gt;Node7</title>
<path fill="none" stroke="#191970" d="M1015.0503,-392.4252C968.3471,-383.5453 897.5468,-369.6771 836.3456,-356 756.6161,-338.1823 664.1973,-314.7006 611.6635,-301.0845"/>
<polygon fill="#191970" stroke="#191970" points="612.2629,-297.6242 601.7041,-298.4975 610.5029,-304.3993 612.2629,-297.6242"/>
</g>
<!-- Node8 -->
<g id="node9" class="node">
<title>Node8</title>
<polygon fill="#ffffff" stroke="#bfbfbf" points="2046.8456,-168.5 2046.8456,-187.5 2105.8456,-187.5 2105.8456,-168.5 2046.8456,-168.5"/>
<text text-anchor="middle" x="2076.3456" y="-175.5" font-family="Helvetica,sans-Serif" font-size="10.00" fill="#000000">ros/ros.h</text>
</g>
<!-- Node1&#45;&gt;Node8 -->
<g id="edge8" class="edge">
<title>Node1&#45;&gt;Node8</title>
<path fill="none" stroke="#191970" d="M1144.0938,-400.3402C1382.2274,-395.0455 2091.5878,-377.6278 2193.3456,-356 2259.3005,-341.9818 2296.4751,-355.7888 2334.3456,-300 2389.9765,-218.0476 2201.3904,-189.6921 2116.0838,-181.201"/>
<polygon fill="#191970" stroke="#191970" points="2116.2603,-177.7021 2105.9739,-180.2397 2115.5976,-184.6706 2116.2603,-177.7021"/>
</g>
<!-- Node9 -->
<g id="node10" class="node">
<title>Node9</title>
<polygon fill="#ffffff" stroke="#bfbfbf" points="619.8456,-280.5 619.8456,-299.5 704.8456,-299.5 704.8456,-280.5 619.8456,-280.5"/>
<text text-anchor="middle" x="662.3456" y="-287.5" font-family="Helvetica,sans-Serif" font-size="10.00" fill="#000000">ros/package.h</text>
</g>
<!-- Node1&#45;&gt;Node9 -->
<g id="edge9" class="edge">
<title>Node1&#45;&gt;Node9</title>
<path fill="none" stroke="#191970" d="M1031.9008,-392.4509C958.7044,-372.1589 787.7513,-324.7659 706.6072,-302.2706"/>
<polygon fill="#191970" stroke="#191970" points="707.2748,-298.8237 696.7032,-299.5249 705.4047,-305.5693 707.2748,-298.8237"/>
</g>
<!-- Node10 -->
<g id="node11" class="node">
<title>Node10</title>
<g id="a_node11"><a xlink:href="Node_8hpp.html" target="_top" xlink:title="libbsn/goalmodel/Node.hpp">
<polygon fill="#ffffff" stroke="#000000" points="481.3456,-56.5 481.3456,-75.5 631.3456,-75.5 631.3456,-56.5 481.3456,-56.5"/>
<text text-anchor="middle" x="556.3456" y="-63.5" font-family="Helvetica,sans-Serif" font-size="10.00" fill="#000000">libbsn/goalmodel/Node.hpp</text>
</a>
</g>
</g>
<!-- Node1&#45;&gt;Node10 -->
<g id="edge10" class="edge">
<title>Node1&#45;&gt;Node10</title>
<path fill="none" stroke="#191970" d="M988.823,-401.7146C768.6946,-400.4463 150.3461,-393.5442 67.3456,-356 35.8432,-341.7503 26.2861,-332.0624 13.3456,-300 -26.3776,-201.5786 352.3694,-109.4791 499.4565,-77.7063"/>
<polygon fill="#191970" stroke="#191970" points="500.5933,-81.0422 509.6374,-75.5237 499.1259,-74.1977 500.5933,-81.0422"/>
</g>
<!-- Node14 -->
<g id="node15" class="node">
<title>Node14</title>
<g id="a_node15"><a xlink:href="Goal_8hpp.html" target="_top" xlink:title="libbsn/goalmodel/Goal.hpp">
<polygon fill="#ffffff" stroke="#000000" points="445.8456,-112.5 445.8456,-131.5 592.8456,-131.5 592.8456,-112.5 445.8456,-112.5"/>
<text text-anchor="middle" x="519.3456" y="-119.5" font-family="Helvetica,sans-Serif" font-size="10.00" fill="#000000">libbsn/goalmodel/Goal.hpp</text>
</a>
</g>
</g>
<!-- Node1&#45;&gt;Node14 -->
<g id="edge15" class="edge">
<title>Node1&#45;&gt;Node14</title>
<path fill="none" stroke="#191970" d="M988.5792,-401.1008C801.6212,-398.436 331.0812,-388.6031 177.3456,-356 109.3592,-341.582 70.7174,-357.2702 31.3456,-300 -22.4755,-221.712 -23.743,-304.2635 176.3456,-244 291.2854,-209.3819 424.4705,-158.9793 485.5635,-135.2677"/>
<polygon fill="#191970" stroke="#191970" points="487.0315,-138.4521 495.0808,-131.5631 484.4923,-131.9289 487.0315,-138.4521"/>
</g>
<!-- Node15 -->
<g id="node16" class="node">
<title>Node15</title>
<g id="a_node16"><a xlink:href="Task_8hpp.html" target="_top" xlink:title="libbsn/goalmodel/Task.hpp">
<polygon fill="#ffffff" stroke="#000000" points="675.3456,-168.5 675.3456,-187.5 821.3456,-187.5 821.3456,-168.5 675.3456,-168.5"/>
<text text-anchor="middle" x="748.3456" y="-175.5" font-family="Helvetica,sans-Serif" font-size="10.00" fill="#000000">libbsn/goalmodel/Task.hpp</text>
</a>
</g>
</g>
<!-- Node1&#45;&gt;Node15 -->
<g id="edge20" class="edge">
<title>Node1&#45;&gt;Node15</title>
<path fill="none" stroke="#191970" d="M988.6231,-401.4665C809.7141,-399.6315 379.8816,-391.5343 325.3456,-356 301.8624,-340.699 302.9784,-327.2321 296.3456,-300 294.242,-291.3636 291.0173,-287.1149 296.3456,-280 302.974,-271.1491 476.5786,-226.5191 487.3456,-224 549.087,-209.5549 619.9915,-197.3315 672.301,-189.124"/>
<polygon fill="#191970" stroke="#191970" points="673.1635,-192.532 682.5067,-187.5365 672.0876,-185.6151 673.1635,-192.532"/>
</g>
<!-- Node16 -->
<g id="node17" class="node">
<title>Node16</title>
<g id="a_node17"><a xlink:href="Property_8hpp.html" target="_top" xlink:title="libbsn/goalmodel/Property.hpp">
<polygon fill="#ffffff" stroke="#000000" points="1307.3456,-168.5 1307.3456,-187.5 1471.3456,-187.5 1471.3456,-168.5 1307.3456,-168.5"/>
<text text-anchor="middle" x="1389.3456" y="-175.5" font-family="Helvetica,sans-Serif" font-size="10.00" fill="#000000">libbsn/goalmodel/Property.hpp</text>
</a>
</g>
</g>
<!-- Node1&#45;&gt;Node16 -->
<g id="edge27" class="edge">
<title>Node1&#45;&gt;Node16</title>
<path fill="none" stroke="#191970" d="M1143.9938,-401.3988C1376.7842,-399.2191 2054.8729,-389.9686 2087.3456,-356 2110.6864,-331.5839 2109.3654,-305.6138 2087.3456,-280 2067.7224,-257.1741 1666.4456,-209.2362 1481.3844,-188.2297"/>
<polygon fill="#191970" stroke="#191970" points="1481.7234,-184.7458 1471.393,-187.0979 1480.9355,-191.7013 1481.7234,-184.7458"/>
</g>
<!-- Node17 -->
<g id="node18" class="node">
<title>Node17</title>
<g id="a_node18"><a xlink:href="LeafTask_8hpp.html" target="_top" xlink:title="libbsn/goalmodel/LeafTask.hpp">
<polygon fill="#ffffff" stroke="#000000" points="1048.8456,-224.5 1048.8456,-243.5 1215.8456,-243.5 1215.8456,-224.5 1048.8456,-224.5"/>
<text text-anchor="middle" x="1132.3456" y="-231.5" font-family="Helvetica,sans-Serif" font-size="10.00" fill="#000000">libbsn/goalmodel/LeafTask.hpp</text>
</a>
</g>
</g>
<!-- Node1&#45;&gt;Node17 -->
<g id="edge29" class="edge">
<title>Node1&#45;&gt;Node17</title>
<path fill="none" stroke="#191970" d="M1144.1498,-401.2469C1370.7679,-398.6753 2016.3195,-388.515 2047.3456,-356 2070.664,-331.5625 2070.6227,-304.4768 2047.3456,-280 2019.3799,-250.593 1454.3319,-238.8366 1226.4284,-235.2789"/>
<polygon fill="#191970" stroke="#191970" points="1226.2151,-231.7753 1216.1623,-235.1207 1226.1071,-238.7745 1226.2151,-231.7753"/>
</g>
<!-- Node18 -->
<g id="node19" class="node">
<title>Node18</title>
<g id="a_node19"><a xlink:href="Context_8hpp.html" target="_top" xlink:title="libbsn/goalmodel/Context.hpp">
<polygon fill="#ffffff" stroke="#000000" points="1125.8456,-168.5 1125.8456,-187.5 1288.8456,-187.5 1288.8456,-168.5 1125.8456,-168.5"/>
<text text-anchor="middle" x="1207.3456" y="-175.5" font-family="Helvetica,sans-Serif" font-size="10.00" fill="#000000">libbsn/goalmodel/Context.hpp</text>
</a>
</g>
</g>
<!-- Node1&#45;&gt;Node18 -->
<g id="edge36" class="edge">
<title>Node1&#45;&gt;Node18</title>
<path fill="none" stroke="#191970" d="M1144.0971,-401.3241C1373.8421,-398.9493 2035.5978,-389.2403 2067.3456,-356 2090.6754,-331.5734 2089.7795,-305.2519 2067.3456,-280 2060.987,-272.8426 1519.8965,-212.457 1299.3524,-188.1127"/>
<polygon fill="#191970" stroke="#191970" points="1299.4196,-184.5989 1289.096,-186.981 1298.6518,-191.5567 1299.4196,-184.5989"/>
</g>
<!-- Node19 -->
<g id="node20" class="node">
<title>Node19</title>
<g id="a_node20"><a xlink:href="GoalTree_8hpp.html" target="_top" xlink:title="libbsn/goalmodel/GoalTree.hpp">
<polygon fill="#ffffff" stroke="#000000" points="40.8456,-280.5 40.8456,-299.5 207.8456,-299.5 207.8456,-280.5 40.8456,-280.5"/>
<text text-anchor="middle" x="124.3456" y="-287.5" font-family="Helvetica,sans-Serif" font-size="10.00" fill="#000000">libbsn/goalmodel/GoalTree.hpp</text>
</a>
</g>
</g>
<!-- Node1&#45;&gt;Node19 -->
<g id="edge37" class="edge">
<title>Node1&#45;&gt;Node19</title>
<path fill="none" stroke="#191970" d="M988.6639,-400.1483C793.4505,-395.158 292.808,-380.1524 221.3456,-356 190.3882,-345.5372 160.1371,-322.2681 141.8648,-306.3526"/>
<polygon fill="#191970" stroke="#191970" points="144.1386,-303.6906 134.3528,-299.6299 139.4705,-308.9068 144.1386,-303.6906"/>
</g>
<!-- Node20 -->
<g id="node21" class="node">
<title>Node20</title>
<g id="a_node21"><a xlink:href="Formula_8hpp.html" target="_top" xlink:title="libbsn/model/Formula.hpp">
<polygon fill="#ffffff" stroke="#000000" points="799.8456,-280.5 799.8456,-299.5 942.8456,-299.5 942.8456,-280.5 799.8456,-280.5"/>
<text text-anchor="middle" x="871.3456" y="-287.5" font-family="Helvetica,sans-Serif" font-size="10.00" fill="#000000">libbsn/model/Formula.hpp</text>
</a>
</g>
</g>
<!-- Node1&#45;&gt;Node20 -->
<g id="edge47" class="edge">
<title>Node1&#45;&gt;Node20</title>
<path fill="none" stroke="#191970" d="M1049.72,-392.4509C1015.5414,-372.8201 937.2032,-327.8259 896.6733,-304.5472"/>
<polygon fill="#191970" stroke="#191970" points="898.3438,-301.4705 887.9291,-299.5249 894.8574,-307.5405 898.3438,-301.4705"/>
</g>
<!-- Node22 -->
<g id="node23" class="node">
<title>Node22</title>
<polygon fill="#ffffff" stroke="#bfbfbf" points="552.3456,-224.5 552.3456,-243.5 644.3456,-243.5 644.3456,-224.5 552.3456,-224.5"/>
<text text-anchor="middle" x="598.3456" y="-231.5" font-family="Helvetica,sans-Serif" font-size="10.00" fill="#000000">lepton/Lepton.h</text>
</g>
<!-- Node1&#45;&gt;Node22 -->
<g id="edge55" class="edge">
<title>Node1&#45;&gt;Node22</title>
<path fill="none" stroke="#191970" d="M988.7101,-397.9431C856.326,-390.6464 592.3942,-374.3482 501.3456,-356 422.95,-340.2017 377.2767,-364.7528 330.3456,-300 251.8134,-191.6458 -13.9785,-340.5463 542.2191,-244.1738"/>
<polygon fill="#191970" stroke="#191970" points="542.8894,-247.6098 552.1395,-242.4441 541.6869,-240.7138 542.8894,-247.6098"/>
</g>
<!-- Node23 -->
<g id="node24" class="node">
<title>Node23</title>
<g id="a_node24"><a xlink:href="utils_8hpp.html" target="_top" xlink:title="libbsn/utils/utils.hpp">
<polygon fill="#ffffff" stroke="#000000" points="915.8456,-112.5 915.8456,-131.5 1030.8456,-131.5 1030.8456,-112.5 915.8456,-112.5"/>
<text text-anchor="middle" x="973.3456" y="-119.5" font-family="Helvetica,sans-Serif" font-size="10.00" fill="#000000">libbsn/utils/utils.hpp</text>
</a>
</g>
</g>
<!-- Node1&#45;&gt;Node23 -->
<g id="edge52" class="edge">
<title>Node1&#45;&gt;Node23</title>
<path fill="none" stroke="#191970" d="M1144.0625,-395.0393C1238.5183,-386.4561 1402.7237,-371.1383 1543.3456,-356 1754.1685,-333.3044 2161.4891,-432.6767 2014.3456,-280 1939.1177,-201.9432 1131.4292,-301.2077 1039.3456,-244 1029.6553,-237.9798 998.1491,-174.028 982.4327,-141.2054"/>
<polygon fill="#191970" stroke="#191970" points="985.3921,-139.2791 977.9325,-131.7554 979.0721,-142.2888 985.3921,-139.2791"/>
</g>
<!-- Node24 -->
<g id="node25" class="node">
<title>Node24</title>
<polygon fill="#ffffff" stroke="#bfbfbf" points="1303.3456,-280.5 1303.3456,-299.5 1461.3456,-299.5 1461.3456,-280.5 1303.3456,-280.5"/>
<text text-anchor="middle" x="1382.3456" y="-287.5" font-family="Helvetica,sans-Serif" font-size="10.00" fill="#000000">archlib/DataAccessRequest.h</text>
</g>
<!-- Node1&#45;&gt;Node24 -->
<g id="edge56" class="edge">
<title>Node1&#45;&gt;Node24</title>
<path fill="none" stroke="#191970" d="M1093.2876,-392.4509C1149.9571,-372.3655 1281.5406,-325.7284 1345.7644,-302.9655"/>
<polygon fill="#191970" stroke="#191970" points="1347.2156,-306.1646 1355.4718,-299.5249 1344.877,-299.5667 1347.2156,-306.1646"/>
</g>
<!-- Node25 -->
<g id="node26" class="node">
<title>Node25</title>
<polygon fill="#ffffff" stroke="#bfbfbf" points="1479.8456,-280.5 1479.8456,-299.5 1580.8456,-299.5 1580.8456,-280.5 1479.8456,-280.5"/>
<text text-anchor="middle" x="1530.3456" y="-287.5" font-family="Helvetica,sans-Serif" font-size="10.00" fill="#000000">archlib/Strategy.h</text>
</g>
<!-- Node1&#45;&gt;Node25 -->
<g id="edge57" class="edge">
<title>Node1&#45;&gt;Node25</title>
<path fill="none" stroke="#191970" d="M1105.906,-392.4509C1190.4011,-372.0556 1388.3176,-324.2826 1480.9259,-301.9289"/>
<polygon fill="#191970" stroke="#191970" points="1481.9858,-305.2737 1490.8853,-299.5249 1480.3432,-298.4691 1481.9858,-305.2737"/>
</g>
<!-- Node26 -->
<g id="node27" class="node">
<title>Node26</title>
<polygon fill="#ffffff" stroke="#bfbfbf" points="1599.3456,-280.5 1599.3456,-299.5 1709.3456,-299.5 1709.3456,-280.5 1599.3456,-280.5"/>
<text text-anchor="middle" x="1654.3456" y="-287.5" font-family="Helvetica,sans-Serif" font-size="10.00" fill="#000000">archlib/Exception.h</text>
</g>
<!-- Node1&#45;&gt;Node26 -->
<g id="edge58" class="edge">
<title>Node1&#45;&gt;Node26</title>
<path fill="none" stroke="#191970" d="M1117.7183,-392.4831C1167.4965,-383.2405 1245.1166,-368.7725 1312.3456,-356 1411.6568,-337.1323 1527.0999,-314.7627 1595.2591,-301.5102"/>
<polygon fill="#191970" stroke="#191970" points="1596.2257,-304.8878 1605.3736,-299.543 1594.8893,-298.0166 1596.2257,-304.8878"/>
</g>
<!-- Node27 -->
<g id="node28" class="node">
<title>Node27</title>
<polygon fill="#ffffff" stroke="#bfbfbf" points="1727.3456,-280.5 1727.3456,-299.5 1853.3456,-299.5 1853.3456,-280.5 1727.3456,-280.5"/>
<text text-anchor="middle" x="1790.3456" y="-287.5" font-family="Helvetica,sans-Serif" font-size="10.00" fill="#000000">archlib/EnergyStatus.h</text>
</g>
<!-- Node1&#45;&gt;Node27 -->
<g id="edge59" class="edge">
<title>Node1&#45;&gt;Node27</title>
<path fill="none" stroke="#191970" d="M1132.7231,-392.4582C1195.91,-383.3171 1293.6543,-369.0263 1378.3456,-356 1499.5325,-337.3604 1640.5746,-314.5168 1722.2393,-301.1767"/>
<polygon fill="#191970" stroke="#191970" points="1723.0812,-304.5857 1732.3856,-299.5183 1721.952,-297.6773 1723.0812,-304.5857"/>
</g>
<!-- Node28 -->
<g id="node29" class="node">
<title>Node28</title>
<g id="a_node29"><a xlink:href="ROSComponent_8hpp.html" target="_top" xlink:title="archlib/ROSComponent.hpp">
<polygon fill="#ffffff" stroke="#000000" points="2175.3456,-280.5 2175.3456,-299.5 2325.3456,-299.5 2325.3456,-280.5 2175.3456,-280.5"/>
<text text-anchor="middle" x="2250.3456" y="-287.5" font-family="Helvetica,sans-Serif" font-size="10.00" fill="#000000">archlib/ROSComponent.hpp</text>
</a>
</g>
</g>
<!-- Node1&#45;&gt;Node28 -->
<g id="edge60" class="edge">
<title>Node1&#45;&gt;Node28</title>
<path fill="none" stroke="#191970" d="M1144.2572,-401.3672C1378.5359,-399.0967 2066.3316,-389.6137 2161.3456,-356 2190.0215,-345.8551 2217.2282,-323.0622 2233.8401,-307.1165"/>
<polygon fill="#191970" stroke="#191970" points="2236.4606,-309.4472 2241.104,-299.9241 2231.5354,-304.4731 2236.4606,-309.4472"/>
</g>
<!-- Node30 -->
<g id="node31" class="node">
<title>Node30</title>
<polygon fill="#ffffff" stroke="#bfbfbf" points="1871.3456,-280.5 1871.3456,-299.5 2005.3456,-299.5 2005.3456,-280.5 1871.3456,-280.5"/>
<text text-anchor="middle" x="1938.3456" y="-287.5" font-family="Helvetica,sans-Serif" font-size="10.00" fill="#000000">archlib/EngineRequest.h</text>
</g>
<!-- Node1&#45;&gt;Node30 -->
<g id="edge67" class="edge">
<title>Node1&#45;&gt;Node30</title>
<path fill="none" stroke="#191970" d="M1143.8923,-393.2483C1222.4408,-384.2851 1347.4101,-369.7551 1455.3456,-356 1598.9232,-337.7027 1766.2221,-314.3977 1861.473,-300.9414"/>
<polygon fill="#191970" stroke="#191970" points="1862.1819,-304.376 1871.5934,-299.5104 1861.2019,-297.445 1862.1819,-304.376"/>
</g>
<!-- Node31 -->
<g id="node32" class="node">
<title>Node31</title>
<g id="a_node32"><a xlink:href="Engine_8hpp.html" target="_top" xlink:title="engine/Engine.hpp">
<polygon fill="#ffffff" stroke="#000000" points="1012.8456,-336.5 1012.8456,-355.5 1119.8456,-355.5 1119.8456,-336.5 1012.8456,-336.5"/>
<text text-anchor="middle" x="1066.3456" y="-343.5" font-family="Helvetica,sans-Serif" font-size="10.00" fill="#000000">engine/Engine.hpp</text>
</a>
</g>
</g>
<!-- Node1&#45;&gt;Node31 -->
<g id="edge68" class="edge">
<title>Node1&#45;&gt;Node31</title>
<path fill="none" stroke="#191970" d="M1066.3456,-392.2455C1066.3456,-384.9382 1066.3456,-374.6944 1066.3456,-365.7046"/>
<polygon fill="#191970" stroke="#191970" points="1069.8457,-365.6426 1066.3456,-355.6427 1062.8457,-365.6427 1069.8457,-365.6426"/>
</g>
<!-- Node10&#45;&gt;Node4 -->
<g id="edge11" class="edge">
<title>Node10&#45;&gt;Node4</title>
<path fill="none" stroke="#191970" d="M631.5693,-58.2134C751.4324,-45.8062 980.8318,-22.0606 1065.19,-13.3285"/>
<polygon fill="#191970" stroke="#191970" points="1065.6116,-16.8036 1075.1981,-12.2925 1064.8909,-9.8408 1065.6116,-16.8036"/>
</g>
<!-- Node11 -->
<g id="node12" class="node">
<title>Node11</title>
<polygon fill="#ffffff" stroke="#bfbfbf" points="711.8456,-.5 711.8456,-19.5 758.8456,-19.5 758.8456,-.5 711.8456,-.5"/>
<text text-anchor="middle" x="735.3456" y="-7.5" font-family="Helvetica,sans-Serif" font-size="10.00" fill="#000000">vector</text>
</g>
<!-- Node10&#45;&gt;Node11 -->
<g id="edge12" class="edge">
<title>Node10&#45;&gt;Node11</title>
<path fill="none" stroke="#191970" d="M587.1168,-56.3733C619.1847,-46.3408 669.2622,-30.6741 702.19,-20.3727"/>
<polygon fill="#191970" stroke="#191970" points="703.3206,-23.6863 711.8194,-17.3601 701.2305,-17.0056 703.3206,-23.6863"/>
</g>
<!-- Node12 -->
<g id="node13" class="node">
<title>Node12</title>
<polygon fill="#ffffff" stroke="#bfbfbf" points="471.8456,-.5 471.8456,-19.5 536.8456,-19.5 536.8456,-.5 471.8456,-.5"/>
<text text-anchor="middle" x="504.3456" y="-7.5" font-family="Helvetica,sans-Serif" font-size="10.00" fill="#000000">stdexcept</text>
</g>
<!-- Node10&#45;&gt;Node12 -->
<g id="edge13" class="edge">
<title>Node10&#45;&gt;Node12</title>
<path fill="none" stroke="#191970" d="M547.2879,-56.2455C539.8314,-48.2155 529.0822,-36.6394 520.2039,-27.0781"/>
<polygon fill="#191970" stroke="#191970" points="522.6688,-24.589 513.2995,-19.6427 517.5393,-29.3522 522.6688,-24.589"/>
</g>
<!-- Node13 -->
<g id="node14" class="node">
<title>Node13</title>
<polygon fill="#ffffff" stroke="#bfbfbf" points="251.3456,-.5 251.3456,-19.5 309.3456,-19.5 309.3456,-.5 251.3456,-.5"/>
<text text-anchor="middle" x="280.3456" y="-7.5" font-family="Helvetica,sans-Serif" font-size="10.00" fill="#000000">memory</text>
</g>
<!-- Node10&#45;&gt;Node13 -->
<g id="edge14" class="edge">
<title>Node10&#45;&gt;Node13</title>
<path fill="none" stroke="#191970" d="M509.2131,-56.4369C455.7423,-45.5877 369.5073,-28.0908 319.5593,-17.9564"/>
<polygon fill="#191970" stroke="#191970" points="319.9729,-14.4691 309.4766,-15.9106 318.5809,-21.3293 319.9729,-14.4691"/>
</g>
<!-- Node14&#45;&gt;Node4 -->
<g id="edge16" class="edge">
<title>Node14&#45;&gt;Node4</title>
<path fill="none" stroke="#191970" d="M568.6255,-112.4509C684.011,-90.0925 969.1912,-34.8327 1065.2058,-16.2278"/>
<polygon fill="#191970" stroke="#191970" points="1066.0358,-19.6321 1075.1874,-14.2936 1064.7041,-12.76 1066.0358,-19.6321"/>
</g>
<!-- Node14&#45;&gt;Node10 -->
<g id="edge19" class="edge">
<title>Node14&#45;&gt;Node10</title>
<path fill="none" stroke="#191970" d="M525.7905,-112.2455C530.8838,-104.5367 538.1364,-93.5598 544.2976,-84.2348"/>
<polygon fill="#191970" stroke="#191970" points="547.3821,-85.9155 549.9745,-75.6427 541.5417,-82.0566 547.3821,-85.9155"/>
</g>
<!-- Node14&#45;&gt;Node11 -->
<g id="edge17" class="edge">
<title>Node14&#45;&gt;Node11</title>
<path fill="none" stroke="#191970" d="M550.5804,-112.4639C575.5635,-104.289 611.1228,-91.4088 640.3456,-76 667.9498,-61.4446 697.0449,-40.2421 715.6503,-25.8248"/>
<polygon fill="#191970" stroke="#191970" points="717.9509,-28.4684 723.6531,-19.5389 713.627,-22.9635 717.9509,-28.4684"/>
</g>
<!-- Node14&#45;&gt;Node12 -->
<g id="edge18" class="edge">
<title>Node14&#45;&gt;Node12</title>
<path fill="none" stroke="#191970" d="M504.3491,-112.3308C493.1858,-104.1671 478.8074,-91.3661 472.3456,-76 465.2998,-59.2452 476.0586,-40.6566 486.9583,-27.4875"/>
<polygon fill="#191970" stroke="#191970" points="489.8817,-29.4703 493.9555,-19.69 484.6717,-24.7951 489.8817,-29.4703"/>
</g>
<!-- Node15&#45;&gt;Node4 -->
<g id="edge21" class="edge">
<title>Node15&#45;&gt;Node4</title>
<path fill="none" stroke="#191970" d="M759.6551,-168.2873C775.7833,-154.706 806.6255,-129.7193 835.3456,-112 883.3875,-82.3598 896.9013,-76.8846 949.3456,-56 988.366,-40.4611 1034.8265,-26.7694 1065.1465,-18.4494"/>
<polygon fill="#191970" stroke="#191970" points="1066.4226,-21.7299 1075.1592,-15.7364 1064.5919,-14.9735 1066.4226,-21.7299"/>
</g>
<!-- Node15&#45;&gt;Node10 -->
<g id="edge24" class="edge">
<title>Node15&#45;&gt;Node10</title>
<path fill="none" stroke="#191970" d="M723.036,-168.4973C701.7092,-160.0713 670.7057,-146.8268 645.3456,-132 619.8002,-117.0649 592.8195,-96.2479 575.3522,-82.0104"/>
<polygon fill="#191970" stroke="#191970" points="577.5301,-79.2698 567.5895,-75.6042 573.0745,-84.6687 577.5301,-79.2698"/>
</g>
<!-- Node15&#45;&gt;Node11 -->
<g id="edge22" class="edge">
<title>Node15&#45;&gt;Node11</title>
<path fill="none" stroke="#191970" d="M747.6094,-168.4862C745.5544,-141.9293 739.7227,-66.5651 736.906,-30.1655"/>
<polygon fill="#191970" stroke="#191970" points="740.3672,-29.528 736.1061,-19.8279 733.3881,-30.0681 740.3672,-29.528"/>
</g>
<!-- Node15&#45;&gt;Node12 -->
<g id="edge23" class="edge">
<title>Node15&#45;&gt;Node12</title>
<path fill="none" stroke="#191970" d="M742.3107,-168.2243C727.6705,-145.2946 687.9473,-87.6089 640.3456,-56 611.9586,-37.1502 575.1053,-25.3145 546.9237,-18.3772"/>
<polygon fill="#191970" stroke="#191970" points="547.5004,-14.9175 536.9651,-16.039 545.9004,-21.7322 547.5004,-14.9175"/>
</g>
<!-- Node15&#45;&gt;Node13 -->
<g id="edge25" class="edge">
<title>Node15&#45;&gt;Node13</title>
<path fill="none" stroke="#191970" d="M675.2603,-171.5812C596.9002,-163.933 478.1129,-149.9076 436.3456,-132 377.925,-106.9523 322.5252,-54.4557 296.2511,-27.2186"/>
<polygon fill="#191970" stroke="#191970" points="298.4812,-24.4838 289.061,-19.635 293.4014,-29.3 298.4812,-24.4838"/>
</g>
<!-- Node15&#45;&gt;Node14 -->
<g id="edge26" class="edge">
<title>Node15&#45;&gt;Node14</title>
<path fill="none" stroke="#191970" d="M709.2393,-168.4369C670.2124,-158.8932 610.1491,-144.2052 568.0494,-133.9101"/>
<polygon fill="#191970" stroke="#191970" points="568.8358,-130.4993 558.2906,-131.5237 567.1729,-137.299 568.8358,-130.4993"/>
</g>
<!-- Node16&#45;&gt;Node4 -->
<g id="edge28" class="edge">
<title>Node16&#45;&gt;Node4</title>
<path fill="none" stroke="#191970" d="M1372.8098,-168.4862C1324.2391,-140.5415 1181.7386,-58.5549 1123.0531,-24.7906"/>
<polygon fill="#191970" stroke="#191970" points="1124.4752,-21.5709 1114.062,-19.6177 1120.9843,-27.6384 1124.4752,-21.5709"/>
</g>
<!-- Node17&#45;&gt;Node4 -->
<g id="edge30" class="edge">
<title>Node17&#45;&gt;Node4</title>
<path fill="none" stroke="#191970" d="M1128.2496,-224.3184C1124.5413,-215.137 1119.2311,-200.871 1116.3456,-188 1103.6961,-131.5754 1099.3974,-63.1422 1097.9927,-29.9625"/>
<polygon fill="#191970" stroke="#191970" points="1101.4829,-29.6347 1097.6076,-19.7741 1094.4879,-29.8992 1101.4829,-29.6347"/>
</g>
<!-- Node17&#45;&gt;Node11 -->
<g id="edge31" class="edge">
<title>Node17&#45;&gt;Node11</title>
<path fill="none" stroke="#191970" d="M1127.5152,-224.1869C1115.7,-201.1763 1083.0808,-143.3286 1039.3456,-112 953.7461,-50.683 828.6858,-24.2926 769.203,-14.6906"/>
<polygon fill="#191970" stroke="#191970" points="769.6397,-11.2165 759.2206,-13.1386 768.5642,-18.1334 769.6397,-11.2165"/>
</g>
<!-- Node17&#45;&gt;Node15 -->
<g id="edge35" class="edge">
<title>Node17&#45;&gt;Node15</title>
<path fill="none" stroke="#191970" d="M1066.7699,-224.4369C999.3945,-214.6113 894.6297,-199.3331 823.8401,-189.0096"/>
<polygon fill="#191970" stroke="#191970" points="824.0512,-185.5035 813.6508,-187.5237 823.041,-192.4302 824.0512,-185.5035"/>
</g>
<!-- Node17&#45;&gt;Node16 -->
<g id="edge34" class="edge">
<title>Node17&#45;&gt;Node16</title>
<path fill="none" stroke="#191970" d="M1176.2334,-224.4369C1220.3094,-214.8328 1288.2937,-200.0191 1335.5814,-189.7152"/>
<polygon fill="#191970" stroke="#191970" points="1336.6132,-193.0725 1345.6387,-187.5237 1335.1228,-186.233 1336.6132,-193.0725"/>
</g>
<!-- Node17&#45;&gt;Node18 -->
<g id="edge32" class="edge">
<title>Node17&#45;&gt;Node18</title>
<path fill="none" stroke="#191970" d="M1145.4096,-224.2455C1156.7018,-215.814 1173.2301,-203.4729 1186.3727,-193.6598"/>
<polygon fill="#191970" stroke="#191970" points="1188.5125,-196.4301 1194.4313,-187.6427 1184.3244,-190.8211 1188.5125,-196.4301"/>
</g>
<!-- Node18&#45;&gt;Node4 -->
<g id="edge33" class="edge">
<title>Node18&#45;&gt;Node4</title>
<path fill="none" stroke="#191970" d="M1201.1163,-168.4862C1183.4268,-141.4695 1132.6638,-63.9405 1109.3344,-28.3102"/>
<polygon fill="#191970" stroke="#191970" points="1112.1866,-26.2768 1103.7805,-19.8279 1106.3302,-30.1114 1112.1866,-26.2768"/>
</g>
<!-- Node19&#45;&gt;Node4 -->
<g id="edge38" class="edge">
<title>Node19&#45;&gt;Node4</title>
<path fill="none" stroke="#191970" d="M192.4319,-280.4612C249.7226,-272.0602 333.6917,-258.8702 406.3456,-244 442.6736,-236.5647 450.82,-230.3949 487.3456,-224 562.8382,-210.7828 763.069,-224.7109 830.3456,-188 868.3658,-167.2535 859.2391,-141.0711 891.3456,-112 908.251,-96.6929 957.0296,-66.3614 977.3456,-56 1006.1694,-41.2995 1040.8452,-28.4927 1065.4932,-20.1514"/>
<polygon fill="#191970" stroke="#191970" points="1066.6853,-23.4435 1075.0684,-16.9648 1064.4748,-16.8017 1066.6853,-23.4435"/>
</g>
<!-- Node19&#45;&gt;Node5 -->
<g id="edge39" class="edge">
<title>Node19&#45;&gt;Node5</title>
<path fill="none" stroke="#191970" d="M191.1166,-280.4369C277.3299,-268.0892 423.6675,-247.1304 485.9139,-238.2153"/>
<polygon fill="#191970" stroke="#191970" points="486.7826,-241.6267 496.1853,-236.7442 485.7901,-234.6974 486.7826,-241.6267"/>
</g>
<!-- Node19&#45;&gt;Node10 -->
<g id="edge43" class="edge">
<title>Node19&#45;&gt;Node10</title>
<path fill="none" stroke="#191970" d="M143.8455,-280.4832C162.203,-271.4183 190.3813,-257.2311 214.3456,-244 314.837,-188.5171 333.045,-162.0587 436.3456,-112 462.6983,-99.2297 493.572,-87.4625 517.4039,-79.0267"/>
<polygon fill="#191970" stroke="#191970" points="518.8659,-82.2234 527.1527,-75.622 516.5579,-75.6149 518.8659,-82.2234"/>
</g>
<!-- Node19&#45;&gt;Node11 -->
<g id="edge41" class="edge">
<title>Node19&#45;&gt;Node11</title>
<path fill="none" stroke="#191970" d="M134.7557,-280.4101C174.7867,-244.136 323.9929,-114.4252 472.3456,-56 550.6605,-25.1575 650.1976,-14.9252 701.4484,-11.5826"/>
<polygon fill="#191970" stroke="#191970" points="701.8556,-15.0645 711.6269,-10.969 701.4343,-8.0772 701.8556,-15.0645"/>
</g>
<!-- Node19&#45;&gt;Node12 -->
<g id="edge40" class="edge">
<title>Node19&#45;&gt;Node12</title>
<path fill="none" stroke="#191970" d="M124.3456,-280.4116C124.3456,-261.0538 124.3456,-215.9167 124.3456,-178 124.3456,-178 124.3456,-178 124.3456,-122 124.3456,-52.3344 362.3036,-22.791 461.6123,-13.4948"/>
<polygon fill="#191970" stroke="#191970" points="461.977,-16.9762 471.6181,-12.583 461.3417,-10.005 461.977,-16.9762"/>
</g>
<!-- Node19&#45;&gt;Node13 -->
<g id="edge42" class="edge">
<title>Node19&#45;&gt;Node13</title>
<path fill="none" stroke="#191970" d="M118.7386,-280.4834C108.1682,-261.6141 86.3456,-217.8343 86.3456,-178 86.3456,-178 86.3456,-178 86.3456,-122 86.3456,-90.7875 87.3624,-77.1186 110.3456,-56 129.3127,-38.5717 196.9551,-24.1582 240.9828,-16.3409"/>
<polygon fill="#191970" stroke="#191970" points="241.8245,-19.7472 251.0792,-14.5898 240.6282,-12.8502 241.8245,-19.7472"/>
</g>
<!-- Node19&#45;&gt;Node14 -->
<g id="edge44" class="edge">
<title>Node19&#45;&gt;Node14</title>
<path fill="none" stroke="#191970" d="M195.8507,-280.42C236.3827,-273.4323 287.4165,-261.9708 330.3456,-244 365.251,-229.388 455.6068,-166.9931 497.4655,-137.5271"/>
<polygon fill="#191970" stroke="#191970" points="499.7041,-140.231 505.8552,-131.6046 495.6672,-134.5123 499.7041,-140.231"/>
</g>
<!-- Node19&#45;&gt;Node15 -->
<g id="edge45" class="edge">
<title>Node19&#45;&gt;Node15</title>
<path fill="none" stroke="#191970" d="M196.285,-280.4714C245.3816,-272.9912 311.5576,-260.9812 368.3456,-244 390.4879,-237.3788 394.0487,-230.0805 416.3456,-224 499.2463,-201.3923 596.9759,-189.5604 664.8426,-183.5951"/>
<polygon fill="#191970" stroke="#191970" points="665.3868,-187.0615 675.0523,-182.7222 664.7904,-180.0869 665.3868,-187.0615"/>
</g>
<!-- Node19&#45;&gt;Node17 -->
<g id="edge46" class="edge">
<title>Node19&#45;&gt;Node17</title>
<path fill="none" stroke="#191970" d="M208.1222,-285.3457C394.5845,-274.9867 842.7867,-250.0866 1038.3864,-239.22"/>
<polygon fill="#191970" stroke="#191970" points="1038.8498,-242.6997 1048.6402,-238.6503 1038.4614,-235.7105 1038.8498,-242.6997"/>
</g>
<!-- Node20&#45;&gt;Node4 -->
<g id="edge50" class="edge">
<title>Node20&#45;&gt;Node4</title>
<path fill="none" stroke="#191970" d="M870.4924,-280.3455C868.4703,-251.5509 866.2432,-164.9892 906.3456,-112 927.6963,-83.7883 946.0631,-92.5275 977.3456,-76 1010.0097,-58.7425 1047.2281,-38.121 1071.4401,-24.5761"/>
<polygon fill="#191970" stroke="#191970" points="1073.3412,-27.5229 1080.3534,-19.5806 1069.9188,-21.4165 1073.3412,-27.5229"/>
</g>
<!-- Node20&#45;&gt;Node12 -->
<g id="edge49" class="edge">
<title>Node20&#45;&gt;Node12</title>
<path fill="none" stroke="#191970" d="M838.3307,-280.4021C741.0033,-251.7863 460.5029,-166.8864 436.3456,-132 411.3428,-95.8926 455.7574,-49.8089 483.8787,-25.9394"/>
<polygon fill="#191970" stroke="#191970" points="486.1466,-28.6059 491.6477,-19.5511 481.7006,-23.1991 486.1466,-28.6059"/>
</g>
<!-- Node21 -->
<g id="node22" class="node">
<title>Node21</title>
<polygon fill="#ffffff" stroke="#bfbfbf" points="743.3456,-224.5 743.3456,-243.5 803.3456,-243.5 803.3456,-224.5 743.3456,-224.5"/>
<text text-anchor="middle" x="773.3456" y="-231.5" font-family="Helvetica,sans-Serif" font-size="10.00" fill="#000000">iostream</text>
</g>
<!-- Node20&#45;&gt;Node21 -->
<g id="edge48" class="edge">
<title>Node20&#45;&gt;Node21</title>
<path fill="none" stroke="#191970" d="M854.2753,-280.2455C839.0985,-271.5731 816.6835,-258.7645 799.2893,-248.825"/>
<polygon fill="#191970" stroke="#191970" points="800.6392,-245.5653 790.2203,-243.6427 797.1662,-251.643 800.6392,-245.5653"/>
</g>
<!-- Node20&#45;&gt;Node22 -->
<g id="edge51" class="edge">
<title>Node20&#45;&gt;Node22</title>
<path fill="none" stroke="#191970" d="M824.7254,-280.4369C777.7091,-270.7925 705.0827,-255.8948 654.8263,-245.5858"/>
<polygon fill="#191970" stroke="#191970" points="655.2728,-242.1046 644.7735,-243.5237 653.8662,-248.9618 655.2728,-242.1046"/>
</g>
<!-- Node23&#45;&gt;Node4 -->
<g id="edge54" class="edge">
<title>Node23&#45;&gt;Node4</title>
<path fill="none" stroke="#191970" d="M983.9178,-112.4509C1005.057,-93.3574 1052.7612,-50.2697 1079.0707,-26.5063"/>
<polygon fill="#191970" stroke="#191970" points="1081.7251,-28.8251 1086.8002,-19.5249 1077.0331,-23.6304 1081.7251,-28.8251"/>
</g>
<!-- Node23&#45;&gt;Node11 -->
<g id="edge53" class="edge">
<title>Node23&#45;&gt;Node11</title>
<path fill="none" stroke="#191970" d="M952.2335,-112.3993C931.9654,-103.1562 900.5079,-88.7418 873.3456,-76 835.7073,-58.344 792.4984,-37.6019 764.6056,-24.1501"/>
<polygon fill="#191970" stroke="#191970" points="765.9399,-20.9078 755.4126,-19.7131 762.8971,-27.2119 765.9399,-20.9078"/>
</g>
<!-- Node28&#45;&gt;Node4 -->
<g id="edge61" class="edge">
<title>Node28&#45;&gt;Node4</title>
<path fill="none" stroke="#191970" d="M2263.0479,-280.3768C2273.426,-271.8772 2287.7397,-258.5924 2296.3456,-244 2311.8518,-217.7072 2315.3456,-208.5246 2315.3456,-178 2315.3456,-178 2315.3456,-178 2315.3456,-122 2315.3456,-60.6492 1322.5007,-18.7838 1129.597,-11.2286"/>
<polygon fill="#191970" stroke="#191970" points="1129.6545,-7.7283 1119.526,-10.837 1129.3824,-14.723 1129.6545,-7.7283"/>
</g>
<!-- Node28&#45;&gt;Node8 -->
<g id="edge63" class="edge">
<title>Node28&#45;&gt;Node8</title>
<path fill="none" stroke="#191970" d="M2183.3035,-280.4285C2140.89,-272.8674 2091.6362,-260.7797 2078.3456,-244 2068.1362,-231.1103 2068.7396,-211.9449 2071.2441,-197.583"/>
<polygon fill="#191970" stroke="#191970" points="2074.684,-198.2346 2073.3822,-187.7201 2067.8429,-196.7515 2074.684,-198.2346"/>
</g>
<!-- Node28&#45;&gt;Node12 -->
<g id="edge62" class="edge">
<title>Node28&#45;&gt;Node12</title>
<path fill="none" stroke="#191970" d="M2196.0479,-280.4822C2121.3734,-267.446 1982.7567,-243.4385 1864.3456,-224 1345.7003,-138.8585 714.6101,-42.0897 546.9189,-16.4883"/>
<polygon fill="#191970" stroke="#191970" points="547.4143,-13.0235 537.0007,-14.9746 546.3581,-19.9434 547.4143,-13.0235"/>
</g>
<!-- Node29 -->
<g id="node30" class="node">
<title>Node29</title>
<g id="a_node30"><a xlink:href="ROSComponentDescriptor_8hpp.html" target="_top" xlink:title="archlib/ROSComponentDescriptor.hpp">
<polygon fill="#ffffff" stroke="#000000" points="2087.3456,-224.5 2087.3456,-243.5 2287.3456,-243.5 2287.3456,-224.5 2087.3456,-224.5"/>
<text text-anchor="middle" x="2187.3456" y="-231.5" font-family="Helvetica,sans-Serif" font-size="10.00" fill="#000000">archlib/ROSComponentDescriptor.hpp</text>
</a>
</g>
</g>
<!-- Node28&#45;&gt;Node29 -->
<g id="edge64" class="edge">
<title>Node28&#45;&gt;Node29</title>
<path fill="none" stroke="#191970" d="M2239.3718,-280.2455C2230.1574,-272.0549 2216.7924,-260.1749 2205.9159,-250.5069"/>
<polygon fill="#191970" stroke="#191970" points="2207.993,-247.6704 2198.1936,-243.6427 2203.3424,-252.9023 2207.993,-247.6704"/>
</g>
<!-- Node29&#45;&gt;Node4 -->
<g id="edge65" class="edge">
<title>Node29&#45;&gt;Node4</title>
<path fill="none" stroke="#191970" d="M2179.6762,-224.1406C2167.6523,-209.4229 2142.8752,-181.9491 2115.3456,-168 1935.5897,-76.9186 1283.5192,-23.7621 1129.9152,-12.3365"/>
<polygon fill="#191970" stroke="#191970" points="1129.9606,-8.8305 1119.7304,-11.586 1129.4462,-15.8115 1129.9606,-8.8305"/>
</g>
<!-- Node29&#45;&gt;Node8 -->
<g id="edge66" class="edge">
<title>Node29&#45;&gt;Node8</title>
<path fill="none" stroke="#191970" d="M2168.264,-224.3733C2150.6054,-215.4644 2124.1403,-202.1127 2104.1358,-192.0203"/>
<polygon fill="#191970" stroke="#191970" points="2105.6828,-188.8806 2095.1782,-187.5011 2102.5298,-195.1303 2105.6828,-188.8806"/>
</g>
<!-- Node31&#45;&gt;Node2 -->
<g id="edge69" class="edge">
<title>Node31&#45;&gt;Node2</title>
<path fill="none" stroke="#191970" d="M1012.3574,-343.6059C879.5762,-337.5053 538.8343,-320.5076 405.1193,-299.752"/>
<polygon fill="#191970" stroke="#191970" points="405.5297,-296.2728 395.0975,-298.1223 404.406,-303.1821 405.5297,-296.2728"/>
</g>
<!-- Node31&#45;&gt;Node3 -->
<g id="edge70" class="edge">
<title>Node31&#45;&gt;Node3</title>
<path fill="none" stroke="#191970" d="M1012.8262,-345.1336C910.6809,-342.7611 680.8983,-333.9659 479.3838,-299.8851"/>
<polygon fill="#191970" stroke="#191970" points="479.9545,-296.4319 469.5066,-298.1902 478.7706,-303.3311 479.9545,-296.4319"/>
</g>
<!-- Node31&#45;&gt;Node4 -->
<g id="edge71" class="edge">
<title>Node31&#45;&gt;Node4</title>
<path fill="none" stroke="#191970" d="M1105.7299,-336.484C1136.4901,-328.4458 1179.972,-315.738 1216.3456,-300 1232.7886,-292.8855 1235.2176,-287.8022 1251.3456,-280 1300.7142,-256.117 1449.6337,-233.4361 1480.3456,-188 1568.8723,-57.0309 1236.6465,-20.4117 1129.5713,-12.115"/>
<polygon fill="#191970" stroke="#191970" points="1129.5937,-8.6071 1119.3622,-11.3577 1129.0759,-15.588 1129.5937,-8.6071"/>
</g>
<!-- Node31&#45;&gt;Node5 -->
<g id="edge72" class="edge">
<title>Node31&#45;&gt;Node5</title>
<path fill="none" stroke="#191970" d="M1012.5523,-340.786C934.8093,-332.8193 795.1284,-316.7666 747.3456,-300 730.8028,-294.1953 729.6895,-286.343 713.3456,-280 644.2997,-253.2035 619.6814,-264.0395 544.4531,-243.9783"/>
<polygon fill="#191970" stroke="#191970" points="545.0866,-240.5221 534.5154,-241.2293 543.2203,-247.2688 545.0866,-240.5221"/>
</g>
<!-- Node31&#45;&gt;Node6 -->
<g id="edge73" class="edge">
<title>Node31&#45;&gt;Node6</title>
<path fill="none" stroke="#191970" d="M1012.5908,-343.4208C898.9034,-337.6486 636.4194,-322.5648 529.3893,-299.5266"/>
<polygon fill="#191970" stroke="#191970" points="530.0556,-296.0887 519.527,-297.2723 528.4957,-302.9127 530.0556,-296.0887"/>
</g>
<!-- Node31&#45;&gt;Node7 -->
<g id="edge74" class="edge">
<title>Node31&#45;&gt;Node7</title>
<path fill="none" stroke="#191970" d="M1012.6669,-343.0046C928.9224,-337.8013 762.0134,-325.3049 611.3835,-299.9728"/>
<polygon fill="#191970" stroke="#191970" points="611.9324,-296.516 601.4864,-298.2856 610.756,-303.4164 611.9324,-296.516"/>
</g>
<!-- Node31&#45;&gt;Node8 -->
<g id="edge75" class="edge">
<title>Node31&#45;&gt;Node8</title>
<path fill="none" stroke="#191970" d="M1115.396,-336.487C1153.1225,-328.5302 1206.252,-315.9274 1251.3456,-300 1271.2195,-292.9804 1274.104,-285.876 1294.3456,-280 1570.3945,-199.8649 1919.6136,-182.5658 2036.3281,-178.9352"/>
<polygon fill="#191970" stroke="#191970" points="2036.6774,-182.4265 2046.57,-178.6336 2036.4713,-175.4295 2036.6774,-182.4265"/>
</g>
<!-- Node31&#45;&gt;Node9 -->
<g id="edge76" class="edge">
<title>Node31&#45;&gt;Node9</title>
<path fill="none" stroke="#191970" d="M1012.7459,-339.6012C944.4871,-331.2901 822.9537,-315.9487 719.3456,-300 717.8871,-299.7755 716.4084,-299.5438 714.9165,-299.3066"/>
<polygon fill="#191970" stroke="#191970" points="715.3891,-295.8374 704.9551,-297.676 714.2583,-302.7455 715.3891,-295.8374"/>
</g>
<!-- Node31&#45;&gt;Node10 -->
<g id="edge77" class="edge">
<title>Node31&#45;&gt;Node10</title>
<path fill="none" stroke="#191970" d="M1060.2172,-336.1487C1051.3274,-322.4027 1033.7785,-297.2215 1014.3456,-280 887.8519,-167.9011 692.4913,-103.3558 603.457,-78.2549"/>
<polygon fill="#191970" stroke="#191970" points="604.2189,-74.8341 593.6468,-75.5281 602.3442,-81.5784 604.2189,-74.8341"/>
</g>
<!-- Node31&#45;&gt;Node14 -->
<g id="edge78" class="edge">
<title>Node31&#45;&gt;Node14</title>
<path fill="none" stroke="#191970" d="M1049.236,-336.3833C1032.8125,-327.1286 1007.3275,-312.7061 985.3456,-300 970.1672,-291.2265 967.0754,-287.7415 951.3456,-280 891.5878,-250.5897 875.7255,-244.468 812.3456,-224 748.7473,-203.4615 729.531,-209.7753 666.3456,-188 623.5733,-173.2596 576.1785,-150.8045 547.0703,-136.264"/>
<polygon fill="#191970" stroke="#191970" points="548.4381,-133.0341 537.9329,-131.6589 545.2877,-139.285 548.4381,-133.0341"/>
</g>
<!-- Node31&#45;&gt;Node15 -->
<g id="edge79" class="edge">
<title>Node31&#45;&gt;Node15</title>
<path fill="none" stroke="#191970" d="M1056.5497,-336.4792C1041.9683,-322.6809 1013.2656,-296.9289 985.3456,-280 919.547,-240.1041 835.3392,-207.8227 787.0551,-190.9008"/>
<polygon fill="#191970" stroke="#191970" points="787.9114,-187.4934 777.3166,-187.5257 785.6191,-194.1074 787.9114,-187.4934"/>
</g>
<!-- Node31&#45;&gt;Node16 -->
<g id="edge80" class="edge">
<title>Node31&#45;&gt;Node16</title>
<path fill="none" stroke="#191970" d="M1094.8674,-336.4353C1118.954,-327.9714 1154.0954,-314.7061 1183.3456,-300 1240.4205,-271.3044 1250.1972,-256.2435 1305.3456,-224 1324.0635,-213.0562 1345.5086,-201.3255 1362.0454,-192.4494"/>
<polygon fill="#191970" stroke="#191970" points="1363.9867,-195.3804 1371.1571,-187.5806 1360.6877,-189.2065 1363.9867,-195.3804"/>
</g>
<!-- Node31&#45;&gt;Node17 -->
<g id="edge81" class="edge">
<title>Node31&#45;&gt;Node17</title>
<path fill="none" stroke="#191970" d="M1073.8914,-336.4357C1080.9023,-327.3373 1091.4234,-313.1274 1099.3456,-300 1108.629,-284.617 1117.6452,-266.2798 1123.9006,-252.8425"/>
<polygon fill="#191970" stroke="#191970" points="1127.1276,-254.2018 1128.1048,-243.6521 1120.762,-251.2898 1127.1276,-254.2018"/>
</g>
<!-- Node31&#45;&gt;Node18 -->
<g id="edge82" class="edge">
<title>Node31&#45;&gt;Node18</title>
<path fill="none" stroke="#191970" d="M1085.7925,-336.4479C1124.5544,-316.9618 1209.0399,-272.0988 1224.3456,-244 1232.3615,-229.284 1226.3053,-210.6508 1219.2937,-196.9385"/>
<polygon fill="#191970" stroke="#191970" points="1222.1782,-194.929 1214.2069,-187.9499 1216.0861,-198.3767 1222.1782,-194.929"/>
</g>
<!-- Node31&#45;&gt;Node19 -->
<g id="edge83" class="edge">
<title>Node31&#45;&gt;Node19</title>
<path fill="none" stroke="#191970" d="M1012.6589,-342.8084C858.6045,-333.6502 413.6755,-307.2001 218.2674,-295.5835"/>
<polygon fill="#191970" stroke="#191970" points="218.2111,-292.074 208.021,-294.9743 217.7956,-299.0617 218.2111,-292.074"/>
</g>
<!-- Node31&#45;&gt;Node20 -->
<g id="edge84" class="edge">
<title>Node31&#45;&gt;Node20</title>
<path fill="none" stroke="#191970" d="M1032.8239,-336.3733C999.9772,-326.9404 949.7861,-312.5265 914.0878,-302.2747"/>
<polygon fill="#191970" stroke="#191970" points="915.0075,-298.8974 904.4299,-299.5011 913.0753,-305.6255 915.0075,-298.8974"/>
</g>
<!-- Node31&#45;&gt;Node22 -->
<g id="edge86" class="edge">
<title>Node31&#45;&gt;Node22</title>
<path fill="none" stroke="#191970" d="M1012.7043,-341.3899C956.3565,-335.5511 865.6367,-323.311 790.3456,-300 770.2114,-293.7662 767.0162,-287.5707 747.3456,-280 713.1821,-266.8514 673.5402,-254.7596 643.7378,-246.2764"/>
<polygon fill="#191970" stroke="#191970" points="644.6047,-242.8844 634.0303,-243.5415 642.7065,-249.6221 644.6047,-242.8844"/>
</g>
<!-- Node31&#45;&gt;Node23 -->
<g id="edge85" class="edge">
<title>Node31&#45;&gt;Node23</title>
<path fill="none" stroke="#191970" d="M1068.1118,-336.2698C1070.0554,-322.6676 1071.6718,-297.6563 1061.3456,-280 1046.7836,-255.1012 1024.276,-267.353 1007.3456,-244 984.7489,-212.8311 977.1574,-167.2286 974.616,-141.5163"/>
<polygon fill="#191970" stroke="#191970" points="978.1015,-141.1959 973.7873,-131.5193 971.1255,-141.7743 978.1015,-141.1959"/>
</g>
<!-- Node31&#45;&gt;Node24 -->
<g id="edge87" class="edge">
<title>Node31&#45;&gt;Node24</title>
<path fill="none" stroke="#191970" d="M1119.9507,-336.5004C1174.7679,-326.7859 1259.9305,-311.6938 1318.2714,-301.3549"/>
<polygon fill="#191970" stroke="#191970" points="1319.2417,-304.7376 1328.4775,-299.5462 1318.0202,-297.845 1319.2417,-304.7376"/>
</g>
<!-- Node31&#45;&gt;Node25 -->
<g id="edge88" class="edge">
<title>Node31&#45;&gt;Node25</title>
<path fill="none" stroke="#191970" d="M1120.0445,-340.7792C1195.5819,-333.2377 1337.756,-318.3223 1469.3712,-300.0743"/>
<polygon fill="#191970" stroke="#191970" points="1470.215,-303.4905 1479.6349,-298.6413 1469.247,-296.5577 1470.215,-303.4905"/>
</g>
<!-- Node31&#45;&gt;Node26 -->
<g id="edge89" class="edge">
<title>Node31&#45;&gt;Node26</title>
<path fill="none" stroke="#191970" d="M1119.9206,-342.4412C1212.9969,-336.0062 1410.7999,-321.2175 1588.9771,-299.9673"/>
<polygon fill="#191970" stroke="#191970" points="1589.5501,-303.4237 1599.0608,-298.7552 1588.7146,-296.4738 1589.5501,-303.4237"/>
</g>
<!-- Node31&#45;&gt;Node27 -->
<g id="edge90" class="edge">
<title>Node31&#45;&gt;Node27</title>
<path fill="none" stroke="#191970" d="M1120.1223,-343.4383C1230.1539,-337.9296 1489.1249,-323.5957 1717.0165,-300.0769"/>
<polygon fill="#191970" stroke="#191970" points="1717.5747,-303.5378 1727.1589,-299.0219 1716.8505,-296.5754 1717.5747,-303.5378"/>
</g>
<!-- Node31&#45;&gt;Node28 -->
<g id="edge91" class="edge">
<title>Node31&#45;&gt;Node28</title>
<path fill="none" stroke="#191970" d="M1119.9074,-343.4667C1307.3141,-334.6028 1934.6422,-304.9319 2164.7678,-294.0476"/>
<polygon fill="#191970" stroke="#191970" points="2165.2705,-297.5278 2175.0939,-293.5592 2164.9397,-290.5356 2165.2705,-297.5278"/>
</g>
<!-- Node31&#45;&gt;Node30 -->
<g id="edge92" class="edge">
<title>Node31&#45;&gt;Node30</title>
<path fill="none" stroke="#191970" d="M1120.0208,-344.2535C1246.9664,-339.8309 1575.7975,-326.6683 1861.1083,-300.0528"/>
<polygon fill="#191970" stroke="#191970" points="1861.6105,-303.5211 1871.239,-299.1003 1860.9552,-296.5518 1861.6105,-303.5211"/>
</g>
</g>
</svg>
