<?xml version="1.0" encoding="UTF-8" standalone="no"?>
<!DOCTYPE svg PUBLIC "-//W3C//DTD SVG 1.1//EN"
 "http://www.w3.org/Graphics/SVG/1.1/DTD/svg11.dtd">
<!-- Generated by graphviz version 2.40.1 (20161225.0304)
 -->
<!-- Title: src/libbsn/test/unit/resource/ResourcesTest.cpp Pages: 1 -->
<svg width="322pt" height="151pt"
 viewBox="0.00 0.00 321.50 151.00" xmlns="http://www.w3.org/2000/svg" xmlns:xlink="http://www.w3.org/1999/xlink">
<g id="graph0" class="graph" transform="scale(1 1) rotate(0) translate(4 147)">
<title>src/libbsn/test/unit/resource/ResourcesTest.cpp</title>
<polygon fill="#ffffff" stroke="transparent" points="-4,4 -4,-147 317.5,-147 317.5,4 -4,4"/>
<!-- Node0 -->
<g id="node1" class="node">
<title>Node0</title>
<polygon fill="#bfbfbf" stroke="#000000" points="28,-112.5 28,-142.5 182,-142.5 182,-112.5 28,-112.5"/>
<text text-anchor="start" x="36" y="-130.5" font-family="Helvetica,sans-Serif" font-size="10.00" fill="#000000">src/libbsn/test/unit</text>
<text text-anchor="middle" x="105" y="-119.5" font-family="Helvetica,sans-Serif" font-size="10.00" fill="#000000">/resource/ResourcesTest.cpp</text>
</g>
<!-- Node1 -->
<g id="node2" class="node">
<title>Node1</title>
<polygon fill="#ffffff" stroke="#bfbfbf" points="0,-56.5 0,-75.5 78,-75.5 78,-56.5 0,-56.5"/>
<text text-anchor="middle" x="39" y="-63.5" font-family="Helvetica,sans-Serif" font-size="10.00" fill="#000000">gtest/gtest.h</text>
</g>
<!-- Node0&#45;&gt;Node1 -->
<g id="edge1" class="edge">
<title>Node0&#45;&gt;Node1</title>
<path fill="none" stroke="#191970" d="M88.6854,-112.2977C79.0467,-103.3163 66.8309,-91.9334 56.9241,-82.702"/>
<polygon fill="#191970" stroke="#191970" points="59.2696,-80.1036 49.5674,-75.8469 54.4975,-85.2249 59.2696,-80.1036"/>
</g>
<!-- Node2 -->
<g id="node3" class="node">
<title>Node2</title>
<g id="a_node3"><a xlink:href="Battery_8hpp.html" target="_top" xlink:title="libbsn/resource/Battery.hpp">
<polygon fill="#ffffff" stroke="#000000" points="96.5,-56.5 96.5,-75.5 245.5,-75.5 245.5,-56.5 96.5,-56.5"/>
<text text-anchor="middle" x="171" y="-63.5" font-family="Helvetica,sans-Serif" font-size="10.00" fill="#000000">libbsn/resource/Battery.hpp</text>
</a>
</g>
</g>
<!-- Node0&#45;&gt;Node2 -->
<g id="edge2" class="edge">
<title>Node0&#45;&gt;Node2</title>
<path fill="none" stroke="#191970" d="M121.3146,-112.2977C130.9533,-103.3163 143.1691,-91.9334 153.0759,-82.702"/>
<polygon fill="#191970" stroke="#191970" points="155.5025,-85.2249 160.4326,-75.8469 150.7304,-80.1036 155.5025,-85.2249"/>
</g>
<!-- Node3 -->
<g id="node4" class="node">
<title>Node3</title>
<polygon fill="#ffffff" stroke="#bfbfbf" points="41,-.5 41,-19.5 97,-19.5 97,-.5 41,-.5"/>
<text text-anchor="middle" x="69" y="-7.5" font-family="Helvetica,sans-Serif" font-size="10.00" fill="#000000">sstream</text>
</g>
<!-- Node2&#45;&gt;Node3 -->
<g id="edge3" class="edge">
<title>Node2&#45;&gt;Node3</title>
<path fill="none" stroke="#191970" d="M153.233,-56.2455C137.2905,-47.4928 113.6741,-34.527 95.5011,-24.5496"/>
<polygon fill="#191970" stroke="#191970" points="97.0137,-21.3873 86.5634,-19.6427 93.6448,-27.5233 97.0137,-21.3873"/>
</g>
<!-- Node4 -->
<g id="node5" class="node">
<title>Node4</title>
<polygon fill="#ffffff" stroke="#bfbfbf" points="115,-.5 115,-19.5 159,-19.5 159,-.5 115,-.5"/>
<text text-anchor="middle" x="137" y="-7.5" font-family="Helvetica,sans-Serif" font-size="10.00" fill="#000000">string</text>
</g>
<!-- Node2&#45;&gt;Node4 -->
<g id="edge4" class="edge">
<title>Node2&#45;&gt;Node4</title>
<path fill="none" stroke="#191970" d="M165.0777,-56.2455C160.3973,-48.5367 153.7327,-37.5598 148.0711,-28.2348"/>
<polygon fill="#191970" stroke="#191970" points="151.0361,-26.3741 142.8545,-19.6427 145.0525,-30.007 151.0361,-26.3741"/>
</g>
<!-- Node5 -->
<g id="node6" class="node">
<title>Node5</title>
<polygon fill="#ffffff" stroke="#bfbfbf" points="177.5,-.5 177.5,-19.5 230.5,-19.5 230.5,-.5 177.5,-.5"/>
<text text-anchor="middle" x="204" y="-7.5" font-family="Helvetica,sans-Serif" font-size="10.00" fill="#000000">stdint.h</text>
</g>
<!-- Node2&#45;&gt;Node5 -->
<g id="edge5" class="edge">
<title>Node2&#45;&gt;Node5</title>
<path fill="none" stroke="#191970" d="M176.7482,-56.2455C181.2435,-48.617 187.6248,-37.7881 193.0825,-28.5267"/>
<polygon fill="#191970" stroke="#191970" points="196.2561,-30.035 198.3177,-19.6427 190.2253,-26.4811 196.2561,-30.035"/>
</g>
<!-- Node6 -->
<g id="node7" class="node">
<title>Node6</title>
<polygon fill="#ffffff" stroke="#bfbfbf" points="248.5,-.5 248.5,-19.5 313.5,-19.5 313.5,-.5 248.5,-.5"/>
<text text-anchor="middle" x="281" y="-7.5" font-family="Helvetica,sans-Serif" font-size="10.00" fill="#000000">stdexcept</text>
</g>
<!-- Node2&#45;&gt;Node6 -->
<g id="edge6" class="edge">
<title>Node2&#45;&gt;Node6</title>
<path fill="none" stroke="#191970" d="M190.1605,-56.2455C207.5111,-47.4125 233.2901,-34.2887 252.9583,-24.2758"/>
<polygon fill="#191970" stroke="#191970" points="254.7353,-27.2986 262.059,-19.6427 251.5595,-21.0605 254.7353,-27.2986"/>
</g>
</g>
</svg>
