<?xml version="1.0" encoding="UTF-8" standalone="no"?>
<!DOCTYPE svg PUBLIC "-//W3C//DTD SVG 1.1//EN"
 "http://www.w3.org/Graphics/SVG/1.1/DTD/svg11.dtd">
<!-- Generated by graphviz version 2.40.1 (20161225.0304)
 -->
<!-- Title: src/archlib/src/ROSComponentDescriptor.cpp Pages: 1 -->
<svg width="208pt" height="151pt"
 viewBox="0.00 0.00 208.00 151.00" xmlns="http://www.w3.org/2000/svg" xmlns:xlink="http://www.w3.org/1999/xlink">
<g id="graph0" class="graph" transform="scale(1 1) rotate(0) translate(4 147)">
<title>src/archlib/src/ROSComponentDescriptor.cpp</title>
<polygon fill="#ffffff" stroke="transparent" points="-4,4 -4,-147 204,-147 204,4 -4,4"/>
<!-- Node0 -->
<g id="node1" class="node">
<title>Node0</title>
<polygon fill="#bfbfbf" stroke="#000000" points="18,-112.5 18,-142.5 182,-142.5 182,-112.5 18,-112.5"/>
<text text-anchor="start" x="26" y="-130.5" font-family="Helvetica,sans-Serif" font-size="10.00" fill="#000000">src/archlib/src/ROSComponent</text>
<text text-anchor="middle" x="100" y="-119.5" font-family="Helvetica,sans-Serif" font-size="10.00" fill="#000000">Descriptor.cpp</text>
</g>
<!-- Node1 -->
<g id="node2" class="node">
<title>Node1</title>
<g id="a_node2"><a xlink:href="ROSComponentDescriptor_8hpp.html" target="_top" xlink:title="archlib/ROSComponentDescriptor.hpp">
<polygon fill="#ffffff" stroke="#000000" points="0,-56.5 0,-75.5 200,-75.5 200,-56.5 0,-56.5"/>
<text text-anchor="middle" x="100" y="-63.5" font-family="Helvetica,sans-Serif" font-size="10.00" fill="#000000">archlib/ROSComponentDescriptor.hpp</text>
</a>
</g>
</g>
<!-- Node0&#45;&gt;Node1 -->
<g id="edge1" class="edge">
<title>Node0&#45;&gt;Node1</title>
<path fill="none" stroke="#191970" d="M100,-112.2977C100,-104.3834 100,-94.6043 100,-86.0759"/>
<polygon fill="#191970" stroke="#191970" points="103.5001,-85.8469 100,-75.8469 96.5001,-85.847 103.5001,-85.8469"/>
</g>
<!-- Node2 -->
<g id="node3" class="node">
<title>Node2</title>
<polygon fill="#ffffff" stroke="#bfbfbf" points="43,-.5 43,-19.5 87,-19.5 87,-.5 43,-.5"/>
<text text-anchor="middle" x="65" y="-7.5" font-family="Helvetica,sans-Serif" font-size="10.00" fill="#000000">string</text>
</g>
<!-- Node1&#45;&gt;Node2 -->
<g id="edge2" class="edge">
<title>Node1&#45;&gt;Node2</title>
<path fill="none" stroke="#191970" d="M93.9035,-56.2455C89.0855,-48.5367 82.2249,-37.5598 76.3968,-28.2348"/>
<polygon fill="#191970" stroke="#191970" points="79.2947,-26.2677 71.0267,-19.6427 73.3587,-29.9777 79.2947,-26.2677"/>
</g>
<!-- Node3 -->
<g id="node4" class="node">
<title>Node3</title>
<polygon fill="#ffffff" stroke="#bfbfbf" points="105.5,-.5 105.5,-19.5 164.5,-19.5 164.5,-.5 105.5,-.5"/>
<text text-anchor="middle" x="135" y="-7.5" font-family="Helvetica,sans-Serif" font-size="10.00" fill="#000000">ros/ros.h</text>
</g>
<!-- Node1&#45;&gt;Node3 -->
<g id="edge3" class="edge">
<title>Node1&#45;&gt;Node3</title>
<path fill="none" stroke="#191970" d="M106.0965,-56.2455C110.9145,-48.5367 117.7751,-37.5598 123.6032,-28.2348"/>
<polygon fill="#191970" stroke="#191970" points="126.6413,-29.9777 128.9733,-19.6427 120.7053,-26.2677 126.6413,-29.9777"/>
</g>
</g>
</svg>
