<?xml version="1.0" encoding="UTF-8" standalone="no"?>
<!DOCTYPE svg PUBLIC "-//W3C//DTD SVG 1.1//EN"
 "http://www.w3.org/Graphics/SVG/1.1/DTD/svg11.dtd">
<!-- Generated by graphviz version 2.40.1 (20161225.0304)
 -->
<!-- Title: src/archlib/src/ROSComponent.cpp Pages: 1 -->
<svg width="320pt" height="196pt"
 viewBox="0.00 0.00 319.67 196.00" xmlns="http://www.w3.org/2000/svg" xmlns:xlink="http://www.w3.org/1999/xlink">
<g id="graph0" class="graph" transform="scale(1 1) rotate(0) translate(4 192)">
<title>src/archlib/src/ROSComponent.cpp</title>
<polygon fill="#ffffff" stroke="transparent" points="-4,4 -4,-192 315.6675,-192 315.6675,4 -4,4"/>
<!-- Node0 -->
<g id="node1" class="node">
<title>Node0</title>
<polygon fill="#bfbfbf" stroke="#000000" points="30.1437,-168.5 30.1437,-187.5 214.1437,-187.5 214.1437,-168.5 30.1437,-168.5"/>
<text text-anchor="middle" x="122.1437" y="-175.5" font-family="Helvetica,sans-Serif" font-size="10.00" fill="#000000">src/archlib/src/ROSComponent.cpp</text>
</g>
<!-- Node1 -->
<g id="node2" class="node">
<title>Node1</title>
<g id="a_node2"><a xlink:href="ROSComponent_8hpp.html" target="_top" xlink:title="archlib/ROSComponent.hpp">
<polygon fill="#ffffff" stroke="#000000" points="47.1437,-112.5 47.1437,-131.5 197.1437,-131.5 197.1437,-112.5 47.1437,-112.5"/>
<text text-anchor="middle" x="122.1437" y="-119.5" font-family="Helvetica,sans-Serif" font-size="10.00" fill="#000000">archlib/ROSComponent.hpp</text>
</a>
</g>
</g>
<!-- Node0&#45;&gt;Node1 -->
<g id="edge1" class="edge">
<title>Node0&#45;&gt;Node1</title>
<path fill="none" stroke="#191970" d="M122.1437,-168.2455C122.1437,-160.9382 122.1437,-150.6944 122.1437,-141.7046"/>
<polygon fill="#191970" stroke="#191970" points="125.6438,-141.6426 122.1437,-131.6427 118.6438,-141.6427 125.6438,-141.6426"/>
</g>
<!-- Node2 -->
<g id="node3" class="node">
<title>Node2</title>
<polygon fill="#ffffff" stroke="#bfbfbf" points="99.1437,-.5 99.1437,-19.5 143.1437,-19.5 143.1437,-.5 99.1437,-.5"/>
<text text-anchor="middle" x="121.1437" y="-7.5" font-family="Helvetica,sans-Serif" font-size="10.00" fill="#000000">string</text>
</g>
<!-- Node1&#45;&gt;Node2 -->
<g id="edge2" class="edge">
<title>Node1&#45;&gt;Node2</title>
<path fill="none" stroke="#191970" d="M85.4303,-112.44C54.7621,-103.6241 14.576,-89.8435 5.1437,-76 -18.0691,-41.9312 47.0164,-23.3382 88.8768,-15.1658"/>
<polygon fill="#191970" stroke="#191970" points="89.7508,-18.5638 98.951,-13.3096 88.4823,-11.6797 89.7508,-18.5638"/>
</g>
<!-- Node3 -->
<g id="node4" class="node">
<title>Node3</title>
<polygon fill="#ffffff" stroke="#bfbfbf" points="14.6437,-56.5 14.6437,-75.5 79.6437,-75.5 79.6437,-56.5 14.6437,-56.5"/>
<text text-anchor="middle" x="47.1437" y="-63.5" font-family="Helvetica,sans-Serif" font-size="10.00" fill="#000000">stdexcept</text>
</g>
<!-- Node1&#45;&gt;Node3 -->
<g id="edge3" class="edge">
<title>Node1&#45;&gt;Node3</title>
<path fill="none" stroke="#191970" d="M109.0797,-112.2455C97.7875,-103.814 81.2592,-91.4729 68.1166,-81.6598"/>
<polygon fill="#191970" stroke="#191970" points="70.1649,-78.8211 60.058,-75.6427 65.9768,-84.4301 70.1649,-78.8211"/>
</g>
<!-- Node4 -->
<g id="node5" class="node">
<title>Node4</title>
<polygon fill="#ffffff" stroke="#bfbfbf" points="232.6437,-.5 232.6437,-19.5 291.6437,-19.5 291.6437,-.5 232.6437,-.5"/>
<text text-anchor="middle" x="262.1437" y="-7.5" font-family="Helvetica,sans-Serif" font-size="10.00" fill="#000000">ros/ros.h</text>
</g>
<!-- Node1&#45;&gt;Node4 -->
<g id="edge4" class="edge">
<title>Node1&#45;&gt;Node4</title>
<path fill="none" stroke="#191970" d="M197.3436,-112.7607C242.3139,-105.5169 293.3334,-93.6648 307.1437,-76 320.063,-59.475 302.0082,-39.4381 285.0699,-25.8074"/>
<polygon fill="#191970" stroke="#191970" points="287.0673,-22.9296 276.985,-19.6741 282.8366,-28.5064 287.0673,-22.9296"/>
</g>
<!-- Node5 -->
<g id="node6" class="node">
<title>Node5</title>
<g id="a_node6"><a xlink:href="ROSComponentDescriptor_8hpp.html" target="_top" xlink:title="archlib/ROSComponentDescriptor.hpp">
<polygon fill="#ffffff" stroke="#000000" points="98.1437,-56.5 98.1437,-75.5 298.1437,-75.5 298.1437,-56.5 98.1437,-56.5"/>
<text text-anchor="middle" x="198.1437" y="-63.5" font-family="Helvetica,sans-Serif" font-size="10.00" fill="#000000">archlib/ROSComponentDescriptor.hpp</text>
</a>
</g>
</g>
<!-- Node1&#45;&gt;Node5 -->
<g id="edge5" class="edge">
<title>Node1&#45;&gt;Node5</title>
<path fill="none" stroke="#191970" d="M135.3819,-112.2455C146.8247,-103.814 163.5734,-91.4729 176.8912,-81.6598"/>
<polygon fill="#191970" stroke="#191970" points="179.0829,-84.3924 185.0573,-75.6427 174.9305,-78.757 179.0829,-84.3924"/>
</g>
<!-- Node5&#45;&gt;Node2 -->
<g id="edge6" class="edge">
<title>Node5&#45;&gt;Node2</title>
<path fill="none" stroke="#191970" d="M184.7314,-56.2455C173.138,-47.814 156.169,-35.4729 142.6759,-25.6598"/>
<polygon fill="#191970" stroke="#191970" points="144.5484,-22.6938 134.4024,-19.6427 140.4312,-28.355 144.5484,-22.6938"/>
</g>
<!-- Node5&#45;&gt;Node4 -->
<g id="edge7" class="edge">
<title>Node5&#45;&gt;Node4</title>
<path fill="none" stroke="#191970" d="M209.2917,-56.2455C218.6524,-48.0549 232.2295,-36.1749 243.2787,-26.5069"/>
<polygon fill="#191970" stroke="#191970" points="245.9025,-28.8618 251.1235,-19.6427 241.293,-23.5937 245.9025,-28.8618"/>
</g>
</g>
</svg>
