<?xml version="1.0" encoding="UTF-8" standalone="no"?>
<!DOCTYPE svg PUBLIC "-//W3C//DTD SVG 1.1//EN"
 "http://www.w3.org/Graphics/SVG/1.1/DTD/svg11.dtd">
<!-- Generated by graphviz version 2.40.1 (20161225.0304)
 -->
<!-- Title: src/archlib/include/archlib/ROSComponentDescriptor.hpp Pages: 1 -->
<svg width="211pt" height="95pt"
 viewBox="0.00 0.00 211.00 95.00" xmlns="http://www.w3.org/2000/svg" xmlns:xlink="http://www.w3.org/1999/xlink">
<g id="graph0" class="graph" transform="scale(1 1) rotate(0) translate(4 91)">
<title>src/archlib/include/archlib/ROSComponentDescriptor.hpp</title>
<polygon fill="#ffffff" stroke="transparent" points="-4,4 -4,-91 207,-91 207,4 -4,4"/>
<!-- Node0 -->
<g id="node1" class="node">
<title>Node0</title>
<polygon fill="#bfbfbf" stroke="#000000" points="0,-56.5 0,-86.5 203,-86.5 203,-56.5 0,-56.5"/>
<text text-anchor="start" x="8" y="-74.5" font-family="Helvetica,sans-Serif" font-size="10.00" fill="#000000">src/archlib/include</text>
<text text-anchor="middle" x="101.5" y="-63.5" font-family="Helvetica,sans-Serif" font-size="10.00" fill="#000000">/archlib/ROSComponentDescriptor.hpp</text>
</g>
<!-- Node1 -->
<g id="node2" class="node">
<title>Node1</title>
<polygon fill="#ffffff" stroke="#bfbfbf" points="44.5,-.5 44.5,-19.5 88.5,-19.5 88.5,-.5 44.5,-.5"/>
<text text-anchor="middle" x="66.5" y="-7.5" font-family="Helvetica,sans-Serif" font-size="10.00" fill="#000000">string</text>
</g>
<!-- Node0&#45;&gt;Node1 -->
<g id="edge1" class="edge">
<title>Node0&#45;&gt;Node1</title>
<path fill="none" stroke="#191970" d="M92.8483,-56.2977C88.0912,-47.9388 82.1502,-37.4997 77.1143,-28.6509"/>
<polygon fill="#191970" stroke="#191970" points="80.0921,-26.8069 72.1039,-19.8469 74.0083,-30.2692 80.0921,-26.8069"/>
</g>
<!-- Node2 -->
<g id="node3" class="node">
<title>Node2</title>
<polygon fill="#ffffff" stroke="#bfbfbf" points="107,-.5 107,-19.5 166,-19.5 166,-.5 107,-.5"/>
<text text-anchor="middle" x="136.5" y="-7.5" font-family="Helvetica,sans-Serif" font-size="10.00" fill="#000000">ros/ros.h</text>
</g>
<!-- Node0&#45;&gt;Node2 -->
<g id="edge2" class="edge">
<title>Node0&#45;&gt;Node2</title>
<path fill="none" stroke="#191970" d="M110.1517,-56.2977C114.9088,-47.9388 120.8498,-37.4997 125.8857,-28.6509"/>
<polygon fill="#191970" stroke="#191970" points="128.9917,-30.2692 130.8961,-19.8469 122.9079,-26.8069 128.9917,-30.2692"/>
</g>
</g>
</svg>
