<?xml version="1.0" encoding="UTF-8" standalone="no"?>
<!DOCTYPE svg PUBLIC "-//W3C//DTD SVG 1.1//EN"
 "http://www.w3.org/Graphics/SVG/1.1/DTD/svg11.dtd">
<!-- Generated by graphviz version 2.40.1 (20161225.0304)
 -->
<!-- Title: src/sa&#45;bsn/target_system/components/component/src/Sensor.cpp Pages: 1 -->
<svg width="1452pt" height="341pt"
 viewBox="0.00 0.00 1451.50 341.00" xmlns="http://www.w3.org/2000/svg" xmlns:xlink="http://www.w3.org/1999/xlink">
<g id="graph0" class="graph" transform="scale(1 1) rotate(0) translate(4 337)">
<title>src/sa&#45;bsn/target_system/components/component/src/Sensor.cpp</title>
<polygon fill="#ffffff" stroke="transparent" points="-4,4 -4,-337 1447.5,-337 1447.5,4 -4,4"/>
<!-- Node0 -->
<g id="node1" class="node">
<title>Node0</title>
<polygon fill="#bfbfbf" stroke="#000000" points="1033.5,-291.5 1033.5,-332.5 1188.5,-332.5 1188.5,-291.5 1033.5,-291.5"/>
<text text-anchor="start" x="1041.5" y="-320.5" font-family="Helvetica,sans-Serif" font-size="10.00" fill="#000000">src/sa&#45;bsn/target_system</text>
<text text-anchor="start" x="1041.5" y="-309.5" font-family="Helvetica,sans-Serif" font-size="10.00" fill="#000000">/components/component/src</text>
<text text-anchor="middle" x="1111" y="-298.5" font-family="Helvetica,sans-Serif" font-size="10.00" fill="#000000">/Sensor.cpp</text>
</g>
<!-- Node1 -->
<g id="node2" class="node">
<title>Node1</title>
<g id="a_node2"><a xlink:href="Sensor_8hpp.html" target="_top" xlink:title="component/Sensor.hpp">
<polygon fill="#ffffff" stroke="#000000" points="1047,-235.5 1047,-254.5 1175,-254.5 1175,-235.5 1047,-235.5"/>
<text text-anchor="middle" x="1111" y="-242.5" font-family="Helvetica,sans-Serif" font-size="10.00" fill="#000000">component/Sensor.hpp</text>
</a>
</g>
</g>
<!-- Node0&#45;&gt;Node1 -->
<g id="edge1" class="edge">
<title>Node0&#45;&gt;Node1</title>
<path fill="none" stroke="#191970" d="M1111,-291.168C1111,-282.8226 1111,-273.2471 1111,-264.9879"/>
<polygon fill="#191970" stroke="#191970" points="1114.5001,-264.7804 1111,-254.7805 1107.5001,-264.7805 1114.5001,-264.7804"/>
</g>
<!-- Node2 -->
<g id="node3" class="node">
<title>Node2</title>
<polygon fill="#ffffff" stroke="#bfbfbf" points="493,-174 493,-193 543,-193 543,-174 493,-174"/>
<text text-anchor="middle" x="518" y="-181" font-family="Helvetica,sans-Serif" font-size="10.00" fill="#000000">stdio.h</text>
</g>
<!-- Node1&#45;&gt;Node2 -->
<g id="edge2" class="edge">
<title>Node1&#45;&gt;Node2</title>
<path fill="none" stroke="#191970" d="M1046.5582,-242.4873C920.1242,-237.0995 643.874,-222.9414 552,-199 549.8068,-198.4285 547.5789,-197.7242 545.3667,-196.9342"/>
<polygon fill="#191970" stroke="#191970" points="546.5052,-193.6183 535.9247,-193.0664 543.8517,-200.0959 546.5052,-193.6183"/>
</g>
<!-- Node3 -->
<g id="node4" class="node">
<title>Node3</title>
<polygon fill="#ffffff" stroke="#bfbfbf" points="833,-.5 833,-19.5 877,-19.5 877,-.5 833,-.5"/>
<text text-anchor="middle" x="855" y="-7.5" font-family="Helvetica,sans-Serif" font-size="10.00" fill="#000000">string</text>
</g>
<!-- Node1&#45;&gt;Node3 -->
<g id="edge3" class="edge">
<title>Node1&#45;&gt;Node3</title>
<path fill="none" stroke="#191970" d="M1115.1818,-235.2443C1121.7028,-220.3558 1135.0052,-191.2434 1149,-168 1159.1805,-151.0917 1168.9277,-150.7792 1175,-132 1185.8579,-98.4212 1179.719,-77.8423 1152,-56 1111.348,-23.9666 955.3406,-13.9566 887.1801,-11.0735"/>
<polygon fill="#191970" stroke="#191970" points="887.1573,-7.5699 877.0261,-10.6697 886.8791,-14.5644 887.1573,-7.5699"/>
</g>
<!-- Node4 -->
<g id="node5" class="node">
<title>Node4</title>
<polygon fill="#ffffff" stroke="#bfbfbf" points="1396.5,-112.5 1396.5,-131.5 1443.5,-131.5 1443.5,-112.5 1396.5,-112.5"/>
<text text-anchor="middle" x="1420" y="-119.5" font-family="Helvetica,sans-Serif" font-size="10.00" fill="#000000">vector</text>
</g>
<!-- Node1&#45;&gt;Node4 -->
<g id="edge4" class="edge">
<title>Node1&#45;&gt;Node4</title>
<path fill="none" stroke="#191970" d="M1175.0682,-239.7628C1260.2966,-232.1448 1402.1362,-216.9414 1418,-199 1431.588,-183.6324 1429.6099,-159.0345 1425.8417,-141.7858"/>
<polygon fill="#191970" stroke="#191970" points="1429.1256,-140.5012 1423.2525,-131.6832 1422.3448,-142.2391 1429.1256,-140.5012"/>
</g>
<!-- Node5 -->
<g id="node6" class="node">
<title>Node5</title>
<g id="a_node6"><a xlink:href="Component_8hpp.html" target="_top" xlink:title="archlib/target_system\l/Component.hpp">
<polygon fill="#ffffff" stroke="#000000" points="561.5,-168.5 561.5,-198.5 684.5,-198.5 684.5,-168.5 561.5,-168.5"/>
<text text-anchor="start" x="569.5" y="-186.5" font-family="Helvetica,sans-Serif" font-size="10.00" fill="#000000">archlib/target_system</text>
<text text-anchor="middle" x="623" y="-175.5" font-family="Helvetica,sans-Serif" font-size="10.00" fill="#000000">/Component.hpp</text>
</a>
</g>
</g>
<!-- Node1&#45;&gt;Node5 -->
<g id="edge5" class="edge">
<title>Node1&#45;&gt;Node5</title>
<path fill="none" stroke="#191970" d="M1046.9518,-236.9284C956.0109,-225.4676 789.9764,-204.5431 694.9168,-192.5633"/>
<polygon fill="#191970" stroke="#191970" points="695.1746,-189.0682 684.8154,-191.2903 694.2993,-196.0132 695.1746,-189.0682"/>
</g>
<!-- Node11 -->
<g id="node12" class="node">
<title>Node11</title>
<polygon fill="#ffffff" stroke="#bfbfbf" points="834.5,-112.5 834.5,-131.5 999.5,-131.5 999.5,-112.5 834.5,-112.5"/>
<text text-anchor="middle" x="917" y="-119.5" font-family="Helvetica,sans-Serif" font-size="10.00" fill="#000000">archlib/AdaptationCommand.h</text>
</g>
<!-- Node1&#45;&gt;Node11 -->
<g id="edge21" class="edge">
<title>Node1&#45;&gt;Node11</title>
<path fill="none" stroke="#191970" d="M1095.7771,-235.3484C1062.1325,-214.017 981.2356,-162.7267 940.8186,-137.1015"/>
<polygon fill="#191970" stroke="#191970" points="942.4719,-134.0055 932.1521,-131.6068 938.7236,-139.9174 942.4719,-134.0055"/>
</g>
<!-- Node16 -->
<g id="node17" class="node">
<title>Node16</title>
<polygon fill="#ffffff" stroke="#bfbfbf" points="1158.5,-174 1158.5,-193 1275.5,-193 1275.5,-174 1158.5,-174"/>
<text text-anchor="middle" x="1217" y="-181" font-family="Helvetica,sans-Serif" font-size="10.00" fill="#000000">archlib/Uncertainty.h</text>
</g>
<!-- Node1&#45;&gt;Node16 -->
<g id="edge22" class="edge">
<title>Node1&#45;&gt;Node16</title>
<path fill="none" stroke="#191970" d="M1127.5625,-235.3906C1144.7537,-225.4165 1171.8582,-209.6908 1191.7266,-198.1633"/>
<polygon fill="#191970" stroke="#191970" points="1193.6606,-201.0877 1200.5538,-193.0419 1190.1477,-195.033 1193.6606,-201.0877"/>
</g>
<!-- Node17 -->
<g id="node18" class="node">
<title>Node17</title>
<g id="a_node18"><a xlink:href="Battery_8hpp.html" target="_top" xlink:title="libbsn/resource/Battery.hpp">
<polygon fill="#ffffff" stroke="#000000" points="1017.5,-112.5 1017.5,-131.5 1166.5,-131.5 1166.5,-112.5 1017.5,-112.5"/>
<text text-anchor="middle" x="1092" y="-119.5" font-family="Helvetica,sans-Serif" font-size="10.00" fill="#000000">libbsn/resource/Battery.hpp</text>
</a>
</g>
</g>
<!-- Node1&#45;&gt;Node17 -->
<g id="edge23" class="edge">
<title>Node1&#45;&gt;Node17</title>
<path fill="none" stroke="#191970" d="M1109.5091,-235.3484C1106.4013,-215.2295 1099.1769,-168.4608 1095.0446,-141.7098"/>
<polygon fill="#191970" stroke="#191970" points="1098.4696,-140.9552 1093.484,-131.6068 1091.5517,-142.0239 1098.4696,-140.9552"/>
</g>
<!-- Node20 -->
<g id="node21" class="node">
<title>Node20</title>
<g id="a_node21"><a xlink:href="utils_8hpp.html" target="_top" xlink:title="libbsn/utils/utils.hpp">
<polygon fill="#ffffff" stroke="#000000" points="1293.5,-174 1293.5,-193 1408.5,-193 1408.5,-174 1293.5,-174"/>
<text text-anchor="middle" x="1351" y="-181" font-family="Helvetica,sans-Serif" font-size="10.00" fill="#000000">libbsn/utils/utils.hpp</text>
</a>
</g>
</g>
<!-- Node1&#45;&gt;Node20 -->
<g id="edge28" class="edge">
<title>Node1&#45;&gt;Node20</title>
<path fill="none" stroke="#191970" d="M1148.2367,-235.4581C1190.0994,-224.7308 1258.1628,-207.2895 1303.7415,-195.61"/>
<polygon fill="#191970" stroke="#191970" points="1304.8578,-198.9371 1313.676,-193.0643 1303.1201,-192.1562 1304.8578,-198.9371"/>
</g>
<!-- Node5&#45;&gt;Node3 -->
<g id="edge6" class="edge">
<title>Node5&#45;&gt;Node3</title>
<path fill="none" stroke="#191970" d="M684.7592,-175.4296C717.9738,-168.4847 757.9552,-155.6459 787,-132 820.5509,-104.6856 840.3653,-56.1851 849.2937,-29.2971"/>
<polygon fill="#191970" stroke="#191970" points="852.7053,-30.1157 852.3716,-19.5261 846.0287,-28.0125 852.7053,-30.1157"/>
</g>
<!-- Node6 -->
<g id="node7" class="node">
<title>Node6</title>
<polygon fill="#ffffff" stroke="#bfbfbf" points="505.5,-112.5 505.5,-131.5 560.5,-131.5 560.5,-112.5 505.5,-112.5"/>
<text text-anchor="middle" x="533" y="-119.5" font-family="Helvetica,sans-Serif" font-size="10.00" fill="#000000">signal.h</text>
</g>
<!-- Node5&#45;&gt;Node6 -->
<g id="edge7" class="edge">
<title>Node5&#45;&gt;Node6</title>
<path fill="none" stroke="#191970" d="M600.7528,-168.2977C587.0033,-158.9022 569.4079,-146.8787 555.5943,-137.4395"/>
<polygon fill="#191970" stroke="#191970" points="557.3725,-134.4155 547.1414,-131.6633 553.4232,-140.195 557.3725,-134.4155"/>
</g>
<!-- Node7 -->
<g id="node8" class="node">
<title>Node7</title>
<polygon fill="#ffffff" stroke="#bfbfbf" points="351.5,-.5 351.5,-19.5 410.5,-19.5 410.5,-.5 351.5,-.5"/>
<text text-anchor="middle" x="381" y="-7.5" font-family="Helvetica,sans-Serif" font-size="10.00" fill="#000000">ros/ros.h</text>
</g>
<!-- Node5&#45;&gt;Node7 -->
<g id="edge8" class="edge">
<title>Node5&#45;&gt;Node7</title>
<path fill="none" stroke="#191970" d="M561.4687,-169.8507C558.2696,-169.2089 555.0989,-168.5879 552,-168 502.6826,-158.6433 361.5436,-170.2186 329,-132 301.9267,-100.2056 339.3164,-52.2254 363.4168,-26.953"/>
<polygon fill="#191970" stroke="#191970" points="366.1445,-29.1718 370.6761,-19.5949 361.1614,-24.2556 366.1445,-29.1718"/>
</g>
<!-- Node8 -->
<g id="node9" class="node">
<title>Node8</title>
<polygon fill="#ffffff" stroke="#bfbfbf" points="578.5,-112.5 578.5,-131.5 667.5,-131.5 667.5,-112.5 578.5,-112.5"/>
<text text-anchor="middle" x="623" y="-119.5" font-family="Helvetica,sans-Serif" font-size="10.00" fill="#000000">archlib/Event.h</text>
</g>
<!-- Node5&#45;&gt;Node8 -->
<g id="edge9" class="edge">
<title>Node5&#45;&gt;Node8</title>
<path fill="none" stroke="#191970" d="M623,-168.2977C623,-160.3834 623,-150.6043 623,-142.0759"/>
<polygon fill="#191970" stroke="#191970" points="626.5001,-141.8469 623,-131.8469 619.5001,-141.847 626.5001,-141.8469"/>
</g>
<!-- Node9 -->
<g id="node10" class="node">
<title>Node9</title>
<polygon fill="#ffffff" stroke="#bfbfbf" points="686,-112.5 686,-131.5 778,-131.5 778,-112.5 686,-112.5"/>
<text text-anchor="middle" x="732" y="-119.5" font-family="Helvetica,sans-Serif" font-size="10.00" fill="#000000">archlib/Status.h</text>
</g>
<!-- Node5&#45;&gt;Node9 -->
<g id="edge10" class="edge">
<title>Node5&#45;&gt;Node9</title>
<path fill="none" stroke="#191970" d="M649.6644,-168.4554C666.8941,-158.734 689.1975,-146.15 706.2446,-136.5317"/>
<polygon fill="#191970" stroke="#191970" points="708.1194,-139.4926 715.1089,-131.5303 704.6796,-133.3961 708.1194,-139.4926"/>
</g>
<!-- Node10 -->
<g id="node11" class="node">
<title>Node10</title>
<polygon fill="#ffffff" stroke="#bfbfbf" points="0,-112.5 0,-131.5 126,-131.5 126,-112.5 0,-112.5"/>
<text text-anchor="middle" x="63" y="-119.5" font-family="Helvetica,sans-Serif" font-size="10.00" fill="#000000">archlib/EnergyStatus.h</text>
</g>
<!-- Node5&#45;&gt;Node10 -->
<g id="edge11" class="edge">
<title>Node5&#45;&gt;Node10</title>
<path fill="none" stroke="#191970" d="M561.1313,-169.5019C558.0502,-168.9592 554.9938,-168.4541 552,-168 371.3138,-140.5944 321.5932,-152.3685 136.2722,-132.0856"/>
<polygon fill="#191970" stroke="#191970" points="136.5181,-128.5915 126.1927,-130.9657 135.745,-135.5487 136.5181,-128.5915"/>
</g>
<!-- Node5&#45;&gt;Node11 -->
<g id="edge12" class="edge">
<title>Node5&#45;&gt;Node11</title>
<path fill="none" stroke="#191970" d="M684.632,-170.6076C736.7734,-159.7005 810.8437,-144.2062 861.2436,-133.6633"/>
<polygon fill="#191970" stroke="#191970" points="862.2368,-137.0314 871.3083,-131.558 860.8035,-130.1797 862.2368,-137.0314"/>
</g>
<!-- Node12 -->
<g id="node13" class="node">
<title>Node12</title>
<polygon fill="#ffffff" stroke="#bfbfbf" points="144,-112.5 144,-131.5 282,-131.5 282,-112.5 144,-112.5"/>
<text text-anchor="middle" x="213" y="-119.5" font-family="Helvetica,sans-Serif" font-size="10.00" fill="#000000">archlib/EffectorRegister.h</text>
</g>
<!-- Node5&#45;&gt;Node12 -->
<g id="edge13" class="edge">
<title>Node5&#45;&gt;Node12</title>
<path fill="none" stroke="#191970" d="M561.4862,-169.7553C558.2826,-169.1384 555.1061,-168.5489 552,-168 503.6657,-159.4589 376.4354,-142.772 292.332,-132.0179"/>
<polygon fill="#191970" stroke="#191970" points="292.6603,-128.5315 282.2975,-130.7368 291.7737,-135.4752 292.6603,-128.5315"/>
</g>
<!-- Node13 -->
<g id="node14" class="node">
<title>Node13</title>
<g id="a_node14"><a xlink:href="ROSComponent_8hpp.html" target="_top" xlink:title="archlib/ROSComponent.hpp">
<polygon fill="#ffffff" stroke="#000000" points="338,-112.5 338,-131.5 488,-131.5 488,-112.5 338,-112.5"/>
<text text-anchor="middle" x="413" y="-119.5" font-family="Helvetica,sans-Serif" font-size="10.00" fill="#000000">archlib/ROSComponent.hpp</text>
</a>
</g>
</g>
<!-- Node5&#45;&gt;Node13 -->
<g id="edge14" class="edge">
<title>Node5&#45;&gt;Node13</title>
<path fill="none" stroke="#191970" d="M571.6282,-168.4554C535.9745,-158.0139 489.0439,-144.27 455.4968,-134.4455"/>
<polygon fill="#191970" stroke="#191970" points="456.1232,-130.982 445.5425,-131.5303 454.1558,-137.6998 456.1232,-130.982"/>
</g>
<!-- Node13&#45;&gt;Node3 -->
<g id="edge15" class="edge">
<title>Node13&#45;&gt;Node3</title>
<path fill="none" stroke="#191970" d="M458.7532,-112.4306C500.4025,-103.5543 563.5215,-89.6884 618,-76 638.0198,-70.9698 762.9508,-35.9008 822.9312,-19.0286"/>
<polygon fill="#191970" stroke="#191970" points="823.9778,-22.3701 832.656,-16.2924 822.0818,-15.6317 823.9778,-22.3701"/>
</g>
<!-- Node13&#45;&gt;Node7 -->
<g id="edge17" class="edge">
<title>Node13&#45;&gt;Node7</title>
<path fill="none" stroke="#191970" d="M410.2717,-112.4509C405.0289,-94.1013 393.4545,-53.5908 386.5341,-29.3693"/>
<polygon fill="#191970" stroke="#191970" points="389.834,-28.1786 383.7214,-19.5249 383.1033,-30.1017 389.834,-28.1786"/>
</g>
<!-- Node14 -->
<g id="node15" class="node">
<title>Node14</title>
<polygon fill="#ffffff" stroke="#bfbfbf" points="700.5,-56.5 700.5,-75.5 765.5,-75.5 765.5,-56.5 700.5,-56.5"/>
<text text-anchor="middle" x="733" y="-63.5" font-family="Helvetica,sans-Serif" font-size="10.00" fill="#000000">stdexcept</text>
</g>
<!-- Node13&#45;&gt;Node14 -->
<g id="edge16" class="edge">
<title>Node13&#45;&gt;Node14</title>
<path fill="none" stroke="#191970" d="M467.6464,-112.4369C530.4963,-101.4381 632.3888,-83.607 689.9063,-73.5414"/>
<polygon fill="#191970" stroke="#191970" points="690.8633,-76.9272 700.1102,-71.7557 689.6566,-70.032 690.8633,-76.9272"/>
</g>
<!-- Node15 -->
<g id="node16" class="node">
<title>Node15</title>
<g id="a_node16"><a xlink:href="ROSComponentDescriptor_8hpp.html" target="_top" xlink:title="archlib/ROSComponentDescriptor.hpp">
<polygon fill="#ffffff" stroke="#000000" points="409,-56.5 409,-75.5 609,-75.5 609,-56.5 409,-56.5"/>
<text text-anchor="middle" x="509" y="-63.5" font-family="Helvetica,sans-Serif" font-size="10.00" fill="#000000">archlib/ROSComponentDescriptor.hpp</text>
</a>
</g>
</g>
<!-- Node13&#45;&gt;Node15 -->
<g id="edge18" class="edge">
<title>Node13&#45;&gt;Node15</title>
<path fill="none" stroke="#191970" d="M429.7219,-112.2455C444.5889,-103.5731 466.5466,-90.7645 483.5858,-80.825"/>
<polygon fill="#191970" stroke="#191970" points="485.5955,-83.7047 492.4697,-75.6427 482.0683,-77.6582 485.5955,-83.7047"/>
</g>
<!-- Node15&#45;&gt;Node3 -->
<g id="edge19" class="edge">
<title>Node15&#45;&gt;Node3</title>
<path fill="none" stroke="#191970" d="M568.0864,-56.4369C641.6757,-44.5265 764.7678,-24.604 822.8292,-15.2068"/>
<polygon fill="#191970" stroke="#191970" points="823.5748,-18.6318 832.8871,-13.579 822.4564,-11.7217 823.5748,-18.6318"/>
</g>
<!-- Node15&#45;&gt;Node7 -->
<g id="edge20" class="edge">
<title>Node15&#45;&gt;Node7</title>
<path fill="none" stroke="#191970" d="M486.996,-56.3733C466.3565,-47.3435 435.2842,-33.7494 412.1111,-23.6111"/>
<polygon fill="#191970" stroke="#191970" points="413.2813,-20.3028 402.7169,-19.5011 410.4755,-26.7159 413.2813,-20.3028"/>
</g>
<!-- Node17&#45;&gt;Node3 -->
<g id="edge25" class="edge">
<title>Node17&#45;&gt;Node3</title>
<path fill="none" stroke="#191970" d="M1071.7935,-112.4509C1029.8161,-92.6135 933.0319,-46.8758 884.2428,-23.8194"/>
<polygon fill="#191970" stroke="#191970" points="885.6921,-20.6332 875.1553,-19.5249 882.7012,-26.9621 885.6921,-20.6332"/>
</g>
<!-- Node17&#45;&gt;Node14 -->
<g id="edge27" class="edge">
<title>Node17&#45;&gt;Node14</title>
<path fill="none" stroke="#191970" d="M1030.6936,-112.4369C958.0376,-101.1034 838.8738,-82.5151 775.5945,-72.6443"/>
<polygon fill="#191970" stroke="#191970" points="775.9834,-69.1627 765.5635,-71.0795 774.9045,-76.0791 775.9834,-69.1627"/>
</g>
<!-- Node18 -->
<g id="node19" class="node">
<title>Node18</title>
<polygon fill="#ffffff" stroke="#bfbfbf" points="1087,-56.5 1087,-75.5 1143,-75.5 1143,-56.5 1087,-56.5"/>
<text text-anchor="middle" x="1115" y="-63.5" font-family="Helvetica,sans-Serif" font-size="10.00" fill="#000000">sstream</text>
</g>
<!-- Node17&#45;&gt;Node18 -->
<g id="edge24" class="edge">
<title>Node17&#45;&gt;Node18</title>
<path fill="none" stroke="#191970" d="M1096.0063,-112.2455C1099.0735,-104.7776 1103.4003,-94.2427 1107.1497,-85.1137"/>
<polygon fill="#191970" stroke="#191970" points="1110.4779,-86.2226 1111.0396,-75.6427 1104.0028,-83.5631 1110.4779,-86.2226"/>
</g>
<!-- Node19 -->
<g id="node20" class="node">
<title>Node19</title>
<polygon fill="#ffffff" stroke="#bfbfbf" points="1015.5,-56.5 1015.5,-75.5 1068.5,-75.5 1068.5,-56.5 1015.5,-56.5"/>
<text text-anchor="middle" x="1042" y="-63.5" font-family="Helvetica,sans-Serif" font-size="10.00" fill="#000000">stdint.h</text>
</g>
<!-- Node17&#45;&gt;Node19 -->
<g id="edge26" class="edge">
<title>Node17&#45;&gt;Node19</title>
<path fill="none" stroke="#191970" d="M1083.2907,-112.2455C1076.1927,-104.2958 1065.9916,-92.8706 1057.505,-83.3656"/>
<polygon fill="#191970" stroke="#191970" points="1059.8805,-80.771 1050.6095,-75.6427 1054.6589,-85.4331 1059.8805,-80.771"/>
</g>
<!-- Node20&#45;&gt;Node3 -->
<g id="edge30" class="edge">
<title>Node20&#45;&gt;Node3</title>
<path fill="none" stroke="#191970" d="M1343.6184,-173.7115C1324.4063,-149.057 1270.0108,-84.3547 1208,-56 1151.2146,-30.0346 964.1506,-16.4003 887.8452,-11.8076"/>
<polygon fill="#191970" stroke="#191970" points="887.6074,-8.2877 877.4193,-11.1952 887.1969,-15.2757 887.6074,-8.2877"/>
</g>
<!-- Node20&#45;&gt;Node4 -->
<g id="edge29" class="edge">
<title>Node20&#45;&gt;Node4</title>
<path fill="none" stroke="#191970" d="M1361.7813,-173.8906C1372.3526,-164.4683 1388.6825,-149.9134 1401.3603,-138.6137"/>
<polygon fill="#191970" stroke="#191970" points="1403.9304,-141.0114 1409.0667,-131.7449 1399.2728,-135.7858 1403.9304,-141.0114"/>
</g>
</g>
</svg>
