<?xml version="1.0" encoding="UTF-8" standalone="no"?>
<!DOCTYPE svg PUBLIC "-//W3C//DTD SVG 1.1//EN"
 "http://www.w3.org/Graphics/SVG/1.1/DTD/svg11.dtd">
<!-- Generated by graphviz version 2.40.1 (20161225.0304)
 -->
<!-- Title: src/libbsn/include/libbsn/configuration/SensorConfiguration.hpp Pages: 1 -->
<svg width="2127pt" height="206pt"
 viewBox="0.00 0.00 2127.00 206.00" xmlns="http://www.w3.org/2000/svg" xmlns:xlink="http://www.w3.org/1999/xlink">
<g id="graph0" class="graph" transform="scale(1 1) rotate(0) translate(4 202)">
<title>src/libbsn/include/libbsn/configuration/SensorConfiguration.hpp</title>
<polygon fill="#ffffff" stroke="transparent" points="-4,4 -4,-202 2123,-202 2123,4 -4,4"/>
<!-- Node9 -->
<g id="node1" class="node">
<title>Node9</title>
<polygon fill="#bfbfbf" stroke="#000000" points="645,-156.5 645,-197.5 784,-197.5 784,-156.5 645,-156.5"/>
<text text-anchor="start" x="653" y="-185.5" font-family="Helvetica,sans-Serif" font-size="10.00" fill="#000000">src/libbsn/include</text>
<text text-anchor="start" x="653" y="-174.5" font-family="Helvetica,sans-Serif" font-size="10.00" fill="#000000">/libbsn/configuration</text>
<text text-anchor="middle" x="714.5" y="-163.5" font-family="Helvetica,sans-Serif" font-size="10.00" fill="#000000">/SensorConfiguration.hpp</text>
</g>
<!-- Node10 -->
<g id="node2" class="node">
<title>Node10</title>
<g id="a_node2"><a xlink:href="SensorConfiguration_8cpp.html" target="_top" xlink:title="src/libbsn/src/configuration\l/SensorConfiguration.cpp">
<polygon fill="#ffffff" stroke="#000000" points="0,-84 0,-114 147,-114 147,-84 0,-84"/>
<text text-anchor="start" x="8" y="-102" font-family="Helvetica,sans-Serif" font-size="10.00" fill="#000000">src/libbsn/src/configuration</text>
<text text-anchor="middle" x="73.5" y="-91" font-family="Helvetica,sans-Serif" font-size="10.00" fill="#000000">/SensorConfiguration.cpp</text>
</a>
</g>
</g>
<!-- Node9&#45;&gt;Node10 -->
<g id="edge1" class="edge">
<title>Node9&#45;&gt;Node10</title>
<path fill="none" stroke="#191970" d="M634.6573,-172.5206C525.887,-165.5833 325.3428,-149.8188 156.5,-120 147.2785,-118.3714 137.5691,-116.2726 128.1703,-114.0336"/>
<polygon fill="#191970" stroke="#191970" points="634.6928,-176.0297 644.8929,-173.1646 635.1324,-169.0435 634.6928,-176.0297"/>
</g>
<!-- Node11 -->
<g id="node3" class="node">
<title>Node11</title>
<g id="a_node3"><a xlink:href="ConfigurationTest_8cpp.html" target="_top" xlink:title="src/libbsn/test/unit\l/configuration/Configuration\lTest.cpp">
<polygon fill="#ffffff" stroke="#000000" points="165.5,-78.5 165.5,-119.5 317.5,-119.5 317.5,-78.5 165.5,-78.5"/>
<text text-anchor="start" x="173.5" y="-107.5" font-family="Helvetica,sans-Serif" font-size="10.00" fill="#000000">src/libbsn/test/unit</text>
<text text-anchor="start" x="173.5" y="-96.5" font-family="Helvetica,sans-Serif" font-size="10.00" fill="#000000">/configuration/Configuration</text>
<text text-anchor="middle" x="241.5" y="-85.5" font-family="Helvetica,sans-Serif" font-size="10.00" fill="#000000">Test.cpp</text>
</a>
</g>
</g>
<!-- Node9&#45;&gt;Node11 -->
<g id="edge2" class="edge">
<title>Node9&#45;&gt;Node11</title>
<path fill="none" stroke="#191970" d="M634.4401,-167.5278C555.7176,-157.6762 432.3138,-140.7933 326.5,-120 323.6661,-119.4431 320.7846,-118.8532 317.8782,-118.2383"/>
<polygon fill="#191970" stroke="#191970" points="634.4122,-171.0512 644.7677,-168.8119 635.276,-164.1047 634.4122,-171.0512"/>
</g>
<!-- Node12 -->
<g id="node4" class="node">
<title>Node12</title>
<g id="a_node4"><a xlink:href="G3T1__1_8hpp.html" target="_top" xlink:title="src/sa&#45;bsn/target_system\l/components/component/include\l/component/g3t1_1/G3T1_1.hpp">
<polygon fill="#ffffff" stroke="#000000" points="335.5,-78.5 335.5,-119.5 511.5,-119.5 511.5,-78.5 335.5,-78.5"/>
<text text-anchor="start" x="343.5" y="-107.5" font-family="Helvetica,sans-Serif" font-size="10.00" fill="#000000">src/sa&#45;bsn/target_system</text>
<text text-anchor="start" x="343.5" y="-96.5" font-family="Helvetica,sans-Serif" font-size="10.00" fill="#000000">/components/component/include</text>
<text text-anchor="middle" x="423.5" y="-85.5" font-family="Helvetica,sans-Serif" font-size="10.00" fill="#000000">/component/g3t1_1/G3T1_1.hpp</text>
</a>
</g>
</g>
<!-- Node9&#45;&gt;Node12 -->
<g id="edge3" class="edge">
<title>Node9&#45;&gt;Node12</title>
<path fill="none" stroke="#191970" d="M634.8843,-155.6597C592.8778,-144.4002 541.5835,-130.6513 500.0438,-119.5169"/>
<polygon fill="#191970" stroke="#191970" points="634.233,-159.1086 644.7982,-158.3171 636.0454,-152.3473 634.233,-159.1086"/>
</g>
<!-- Node15 -->
<g id="node7" class="node">
<title>Node15</title>
<g id="a_node7"><a xlink:href="G3T1__2_8hpp.html" target="_top" xlink:title="src/sa&#45;bsn/target_system\l/components/component/include\l/component/g3t1_2/G3T1_2.hpp">
<polygon fill="#ffffff" stroke="#000000" points="529.5,-78.5 529.5,-119.5 705.5,-119.5 705.5,-78.5 529.5,-78.5"/>
<text text-anchor="start" x="537.5" y="-107.5" font-family="Helvetica,sans-Serif" font-size="10.00" fill="#000000">src/sa&#45;bsn/target_system</text>
<text text-anchor="start" x="537.5" y="-96.5" font-family="Helvetica,sans-Serif" font-size="10.00" fill="#000000">/components/component/include</text>
<text text-anchor="middle" x="617.5" y="-85.5" font-family="Helvetica,sans-Serif" font-size="10.00" fill="#000000">/component/g3t1_2/G3T1_2.hpp</text>
</a>
</g>
</g>
<!-- Node9&#45;&gt;Node15 -->
<g id="edge6" class="edge">
<title>Node9&#45;&gt;Node15</title>
<path fill="none" stroke="#191970" d="M680.8515,-149.9424C668.4423,-139.9639 654.5975,-128.831 643.0233,-119.5239"/>
<polygon fill="#191970" stroke="#191970" points="678.7741,-152.7632 688.7604,-156.3022 683.1607,-147.3081 678.7741,-152.7632"/>
</g>
<!-- Node18 -->
<g id="node10" class="node">
<title>Node18</title>
<g id="a_node10"><a xlink:href="G3T1__3_8hpp.html" target="_top" xlink:title="src/sa&#45;bsn/target_system\l/components/component/include\l/component/g3t1_3/G3T1_3.hpp">
<polygon fill="#ffffff" stroke="#000000" points="723.5,-78.5 723.5,-119.5 899.5,-119.5 899.5,-78.5 723.5,-78.5"/>
<text text-anchor="start" x="731.5" y="-107.5" font-family="Helvetica,sans-Serif" font-size="10.00" fill="#000000">src/sa&#45;bsn/target_system</text>
<text text-anchor="start" x="731.5" y="-96.5" font-family="Helvetica,sans-Serif" font-size="10.00" fill="#000000">/components/component/include</text>
<text text-anchor="middle" x="811.5" y="-85.5" font-family="Helvetica,sans-Serif" font-size="10.00" fill="#000000">/component/g3t1_3/G3T1_3.hpp</text>
</a>
</g>
</g>
<!-- Node9&#45;&gt;Node18 -->
<g id="edge9" class="edge">
<title>Node9&#45;&gt;Node18</title>
<path fill="none" stroke="#191970" d="M748.1485,-149.9424C760.5577,-139.9639 774.4025,-128.831 785.9767,-119.5239"/>
<polygon fill="#191970" stroke="#191970" points="745.8393,-147.3081 740.2396,-156.3022 750.2259,-152.7632 745.8393,-147.3081"/>
</g>
<!-- Node21 -->
<g id="node13" class="node">
<title>Node21</title>
<g id="a_node13"><a xlink:href="G3T1__4_8hpp.html" target="_top" xlink:title="src/sa&#45;bsn/target_system\l/components/component/include\l/component/g3t1_4/G3T1_4.hpp">
<polygon fill="#ffffff" stroke="#000000" points="1063.5,-78.5 1063.5,-119.5 1239.5,-119.5 1239.5,-78.5 1063.5,-78.5"/>
<text text-anchor="start" x="1071.5" y="-107.5" font-family="Helvetica,sans-Serif" font-size="10.00" fill="#000000">src/sa&#45;bsn/target_system</text>
<text text-anchor="start" x="1071.5" y="-96.5" font-family="Helvetica,sans-Serif" font-size="10.00" fill="#000000">/components/component/include</text>
<text text-anchor="middle" x="1151.5" y="-85.5" font-family="Helvetica,sans-Serif" font-size="10.00" fill="#000000">/component/g3t1_4/G3T1_4.hpp</text>
</a>
</g>
</g>
<!-- Node9&#45;&gt;Node21 -->
<g id="edge12" class="edge">
<title>Node9&#45;&gt;Node21</title>
<path fill="none" stroke="#191970" d="M794.2252,-162.7699C870.2183,-149.2059 984.4204,-128.822 1063.1508,-114.7694"/>
<polygon fill="#191970" stroke="#191970" points="793.4566,-159.3517 784.2272,-164.5544 794.6866,-166.2428 793.4566,-159.3517"/>
</g>
<!-- Node24 -->
<g id="node16" class="node">
<title>Node24</title>
<g id="a_node16"><a xlink:href="G3T1__5_8hpp.html" target="_top" xlink:title="src/sa&#45;bsn/target_system\l/components/component/include\l/component/g3t1_5/G3T1_5.hpp">
<polygon fill="#ffffff" stroke="#000000" points="1419.5,-78.5 1419.5,-119.5 1595.5,-119.5 1595.5,-78.5 1419.5,-78.5"/>
<text text-anchor="start" x="1427.5" y="-107.5" font-family="Helvetica,sans-Serif" font-size="10.00" fill="#000000">src/sa&#45;bsn/target_system</text>
<text text-anchor="start" x="1427.5" y="-96.5" font-family="Helvetica,sans-Serif" font-size="10.00" fill="#000000">/components/component/include</text>
<text text-anchor="middle" x="1507.5" y="-85.5" font-family="Helvetica,sans-Serif" font-size="10.00" fill="#000000">/component/g3t1_5/G3T1_5.hpp</text>
</a>
</g>
</g>
<!-- Node9&#45;&gt;Node24 -->
<g id="edge15" class="edge">
<title>Node9&#45;&gt;Node24</title>
<path fill="none" stroke="#191970" d="M794.186,-169.162C943.3608,-154.4891 1263.7076,-122.9796 1419.2086,-107.6844"/>
<polygon fill="#191970" stroke="#191970" points="793.7878,-165.6842 784.1784,-170.1464 794.4731,-172.6506 793.7878,-165.6842"/>
</g>
<!-- Node27 -->
<g id="node19" class="node">
<title>Node27</title>
<g id="a_node19"><a xlink:href="G3T1__6_8hpp.html" target="_top" xlink:title="src/sa&#45;bsn/target_system\l/components/component/include\l/component/g3t1_6/G3T1_6.hpp">
<polygon fill="#ffffff" stroke="#000000" points="1775.5,-78.5 1775.5,-119.5 1951.5,-119.5 1951.5,-78.5 1775.5,-78.5"/>
<text text-anchor="start" x="1783.5" y="-107.5" font-family="Helvetica,sans-Serif" font-size="10.00" fill="#000000">src/sa&#45;bsn/target_system</text>
<text text-anchor="start" x="1783.5" y="-96.5" font-family="Helvetica,sans-Serif" font-size="10.00" fill="#000000">/components/component/include</text>
<text text-anchor="middle" x="1863.5" y="-85.5" font-family="Helvetica,sans-Serif" font-size="10.00" fill="#000000">/component/g3t1_6/G3T1_6.hpp</text>
</a>
</g>
</g>
<!-- Node9&#45;&gt;Node27 -->
<g id="edge18" class="edge">
<title>Node9&#45;&gt;Node27</title>
<path fill="none" stroke="#191970" d="M794.4782,-172.3335C950.3734,-163.1365 1305.7959,-141.6733 1604.5,-120 1661.4181,-115.8701 1725.3264,-110.6941 1775.4187,-106.5142"/>
<polygon fill="#191970" stroke="#191970" points="793.8281,-168.8656 784.0513,-172.9479 794.2399,-175.8535 793.8281,-168.8656"/>
</g>
<!-- Node13 -->
<g id="node5" class="node">
<title>Node13</title>
<g id="a_node5"><a xlink:href="g3t1__1_8cpp.html" target="_top" xlink:title="src/sa&#45;bsn/target_system\l/components/component/apps\l/g3t1_1.cpp">
<polygon fill="#ffffff" stroke="#000000" points="1.5,-.5 1.5,-41.5 165.5,-41.5 165.5,-.5 1.5,-.5"/>
<text text-anchor="start" x="9.5" y="-29.5" font-family="Helvetica,sans-Serif" font-size="10.00" fill="#000000">src/sa&#45;bsn/target_system</text>
<text text-anchor="start" x="9.5" y="-18.5" font-family="Helvetica,sans-Serif" font-size="10.00" fill="#000000">/components/component/apps</text>
<text text-anchor="middle" x="83.5" y="-7.5" font-family="Helvetica,sans-Serif" font-size="10.00" fill="#000000">/g3t1_1.cpp</text>
</a>
</g>
</g>
<!-- Node12&#45;&gt;Node13 -->
<g id="edge4" class="edge">
<title>Node12&#45;&gt;Node13</title>
<path fill="none" stroke="#191970" d="M325.4015,-76.5856C279.5545,-66.0994 224.2284,-53.4297 174.5,-42 171.6557,-41.3463 168.7614,-40.6806 165.8384,-40.008"/>
<polygon fill="#191970" stroke="#191970" points="324.8059,-80.0397 335.3345,-78.8573 326.3665,-73.2159 324.8059,-80.0397"/>
</g>
<!-- Node14 -->
<g id="node6" class="node">
<title>Node14</title>
<g id="a_node6"><a xlink:href="G3T1__1_8cpp.html" target="_top" xlink:title="src/sa&#45;bsn/target_system\l/components/component/src\l/g3t1_1/G3T1_1.cpp">
<polygon fill="#ffffff" stroke="#000000" points="184,-.5 184,-41.5 339,-41.5 339,-.5 184,-.5"/>
<text text-anchor="start" x="192" y="-29.5" font-family="Helvetica,sans-Serif" font-size="10.00" fill="#000000">src/sa&#45;bsn/target_system</text>
<text text-anchor="start" x="192" y="-18.5" font-family="Helvetica,sans-Serif" font-size="10.00" fill="#000000">/components/component/src</text>
<text text-anchor="middle" x="261.5" y="-7.5" font-family="Helvetica,sans-Serif" font-size="10.00" fill="#000000">/g3t1_1/G3T1_1.cpp</text>
</a>
</g>
</g>
<!-- Node12&#45;&gt;Node14 -->
<g id="edge5" class="edge">
<title>Node12&#45;&gt;Node14</title>
<path fill="none" stroke="#191970" d="M371.4146,-73.9218C349.6787,-63.4564 324.7454,-51.4515 304.1265,-41.5239"/>
<polygon fill="#191970" stroke="#191970" points="369.9839,-77.1175 380.5123,-78.3022 373.0206,-70.8105 369.9839,-77.1175"/>
</g>
<!-- Node16 -->
<g id="node8" class="node">
<title>Node16</title>
<g id="a_node8"><a xlink:href="g3t1__2_8cpp.html" target="_top" xlink:title="src/sa&#45;bsn/target_system\l/components/component/apps\l/g3t1_2.cpp">
<polygon fill="#ffffff" stroke="#000000" points="357.5,-.5 357.5,-41.5 521.5,-41.5 521.5,-.5 357.5,-.5"/>
<text text-anchor="start" x="365.5" y="-29.5" font-family="Helvetica,sans-Serif" font-size="10.00" fill="#000000">src/sa&#45;bsn/target_system</text>
<text text-anchor="start" x="365.5" y="-18.5" font-family="Helvetica,sans-Serif" font-size="10.00" fill="#000000">/components/component/apps</text>
<text text-anchor="middle" x="439.5" y="-7.5" font-family="Helvetica,sans-Serif" font-size="10.00" fill="#000000">/g3t1_2.cpp</text>
</a>
</g>
</g>
<!-- Node15&#45;&gt;Node16 -->
<g id="edge7" class="edge">
<title>Node15&#45;&gt;Node16</title>
<path fill="none" stroke="#191970" d="M560.9092,-74.2018C536.8773,-63.671 509.1941,-51.5401 486.3365,-41.5239"/>
<polygon fill="#191970" stroke="#191970" points="559.7026,-77.4943 570.2666,-78.3022 562.5121,-71.0828 559.7026,-77.4943"/>
</g>
<!-- Node17 -->
<g id="node9" class="node">
<title>Node17</title>
<g id="a_node9"><a xlink:href="G3T1__2_8cpp.html" target="_top" xlink:title="src/sa&#45;bsn/target_system\l/components/component/src\l/g3t1_2/G3T1_2.cpp">
<polygon fill="#ffffff" stroke="#000000" points="540,-.5 540,-41.5 695,-41.5 695,-.5 540,-.5"/>
<text text-anchor="start" x="548" y="-29.5" font-family="Helvetica,sans-Serif" font-size="10.00" fill="#000000">src/sa&#45;bsn/target_system</text>
<text text-anchor="start" x="548" y="-18.5" font-family="Helvetica,sans-Serif" font-size="10.00" fill="#000000">/components/component/src</text>
<text text-anchor="middle" x="617.5" y="-7.5" font-family="Helvetica,sans-Serif" font-size="10.00" fill="#000000">/g3t1_2/G3T1_2.cpp</text>
</a>
</g>
</g>
<!-- Node15&#45;&gt;Node17 -->
<g id="edge8" class="edge">
<title>Node15&#45;&gt;Node17</title>
<path fill="none" stroke="#191970" d="M617.5,-68.0789C617.5,-59.2178 617.5,-49.7747 617.5,-41.6898"/>
<polygon fill="#191970" stroke="#191970" points="614.0001,-68.0974 617.5,-78.0974 621.0001,-68.0975 614.0001,-68.0974"/>
</g>
<!-- Node19 -->
<g id="node11" class="node">
<title>Node19</title>
<g id="a_node11"><a xlink:href="g3t1__3_8cpp.html" target="_top" xlink:title="src/sa&#45;bsn/target_system\l/components/component/apps\l/g3t1_3.cpp">
<polygon fill="#ffffff" stroke="#000000" points="713.5,-.5 713.5,-41.5 877.5,-41.5 877.5,-.5 713.5,-.5"/>
<text text-anchor="start" x="721.5" y="-29.5" font-family="Helvetica,sans-Serif" font-size="10.00" fill="#000000">src/sa&#45;bsn/target_system</text>
<text text-anchor="start" x="721.5" y="-18.5" font-family="Helvetica,sans-Serif" font-size="10.00" fill="#000000">/components/component/apps</text>
<text text-anchor="middle" x="795.5" y="-7.5" font-family="Helvetica,sans-Serif" font-size="10.00" fill="#000000">/g3t1_3.cpp</text>
</a>
</g>
</g>
<!-- Node18&#45;&gt;Node19 -->
<g id="edge10" class="edge">
<title>Node18&#45;&gt;Node19</title>
<path fill="none" stroke="#191970" d="M805.1572,-68.0789C803.3395,-59.2178 801.4025,-49.7747 799.7441,-41.6898"/>
<polygon fill="#191970" stroke="#191970" points="801.7742,-69.0047 807.2123,-78.0974 808.6314,-67.5981 801.7742,-69.0047"/>
</g>
<!-- Node20 -->
<g id="node12" class="node">
<title>Node20</title>
<g id="a_node12"><a xlink:href="G3T1__3_8cpp.html" target="_top" xlink:title="src/sa&#45;bsn/target_system\l/components/component/src\l/g3t1_3/G3T1_3.cpp">
<polygon fill="#ffffff" stroke="#000000" points="896,-.5 896,-41.5 1051,-41.5 1051,-.5 896,-.5"/>
<text text-anchor="start" x="904" y="-29.5" font-family="Helvetica,sans-Serif" font-size="10.00" fill="#000000">src/sa&#45;bsn/target_system</text>
<text text-anchor="start" x="904" y="-18.5" font-family="Helvetica,sans-Serif" font-size="10.00" fill="#000000">/components/component/src</text>
<text text-anchor="middle" x="973.5" y="-7.5" font-family="Helvetica,sans-Serif" font-size="10.00" fill="#000000">/g3t1_3/G3T1_3.cpp</text>
</a>
</g>
</g>
<!-- Node18&#45;&gt;Node20 -->
<g id="edge11" class="edge">
<title>Node18&#45;&gt;Node20</title>
<path fill="none" stroke="#191970" d="M863.5854,-73.9218C885.3213,-63.4564 910.2546,-51.4515 930.8735,-41.5239"/>
<polygon fill="#191970" stroke="#191970" points="861.9794,-70.8105 854.4877,-78.3022 865.0161,-77.1175 861.9794,-70.8105"/>
</g>
<!-- Node22 -->
<g id="node14" class="node">
<title>Node22</title>
<g id="a_node14"><a xlink:href="g3t1__4_8cpp.html" target="_top" xlink:title="src/sa&#45;bsn/target_system\l/components/component/apps\l/g3t1_4.cpp">
<polygon fill="#ffffff" stroke="#000000" points="1069.5,-.5 1069.5,-41.5 1233.5,-41.5 1233.5,-.5 1069.5,-.5"/>
<text text-anchor="start" x="1077.5" y="-29.5" font-family="Helvetica,sans-Serif" font-size="10.00" fill="#000000">src/sa&#45;bsn/target_system</text>
<text text-anchor="start" x="1077.5" y="-18.5" font-family="Helvetica,sans-Serif" font-size="10.00" fill="#000000">/components/component/apps</text>
<text text-anchor="middle" x="1151.5" y="-7.5" font-family="Helvetica,sans-Serif" font-size="10.00" fill="#000000">/g3t1_4.cpp</text>
</a>
</g>
</g>
<!-- Node21&#45;&gt;Node22 -->
<g id="edge13" class="edge">
<title>Node21&#45;&gt;Node22</title>
<path fill="none" stroke="#191970" d="M1151.5,-68.0789C1151.5,-59.2178 1151.5,-49.7747 1151.5,-41.6898"/>
<polygon fill="#191970" stroke="#191970" points="1148.0001,-68.0974 1151.5,-78.0974 1155.0001,-68.0975 1148.0001,-68.0974"/>
</g>
<!-- Node23 -->
<g id="node15" class="node">
<title>Node23</title>
<g id="a_node15"><a xlink:href="G3T1__4_8cpp.html" target="_top" xlink:title="src/sa&#45;bsn/target_system\l/components/component/src\l/g3t1_4/G3T1_4.cpp">
<polygon fill="#ffffff" stroke="#000000" points="1252,-.5 1252,-41.5 1407,-41.5 1407,-.5 1252,-.5"/>
<text text-anchor="start" x="1260" y="-29.5" font-family="Helvetica,sans-Serif" font-size="10.00" fill="#000000">src/sa&#45;bsn/target_system</text>
<text text-anchor="start" x="1260" y="-18.5" font-family="Helvetica,sans-Serif" font-size="10.00" fill="#000000">/components/component/src</text>
<text text-anchor="middle" x="1329.5" y="-7.5" font-family="Helvetica,sans-Serif" font-size="10.00" fill="#000000">/g3t1_4/G3T1_4.cpp</text>
</a>
</g>
</g>
<!-- Node21&#45;&gt;Node23 -->
<g id="edge14" class="edge">
<title>Node21&#45;&gt;Node23</title>
<path fill="none" stroke="#191970" d="M1208.0908,-74.2018C1232.1227,-63.671 1259.8059,-51.5401 1282.6635,-41.5239"/>
<polygon fill="#191970" stroke="#191970" points="1206.4879,-71.0828 1198.7334,-78.3022 1209.2974,-77.4943 1206.4879,-71.0828"/>
</g>
<!-- Node25 -->
<g id="node17" class="node">
<title>Node25</title>
<g id="a_node17"><a xlink:href="g3t1__5_8cpp.html" target="_top" xlink:title="src/sa&#45;bsn/target_system\l/components/component/apps\l/g3t1_5.cpp">
<polygon fill="#ffffff" stroke="#000000" points="1425.5,-.5 1425.5,-41.5 1589.5,-41.5 1589.5,-.5 1425.5,-.5"/>
<text text-anchor="start" x="1433.5" y="-29.5" font-family="Helvetica,sans-Serif" font-size="10.00" fill="#000000">src/sa&#45;bsn/target_system</text>
<text text-anchor="start" x="1433.5" y="-18.5" font-family="Helvetica,sans-Serif" font-size="10.00" fill="#000000">/components/component/apps</text>
<text text-anchor="middle" x="1507.5" y="-7.5" font-family="Helvetica,sans-Serif" font-size="10.00" fill="#000000">/g3t1_5.cpp</text>
</a>
</g>
</g>
<!-- Node24&#45;&gt;Node25 -->
<g id="edge16" class="edge">
<title>Node24&#45;&gt;Node25</title>
<path fill="none" stroke="#191970" d="M1507.5,-68.0789C1507.5,-59.2178 1507.5,-49.7747 1507.5,-41.6898"/>
<polygon fill="#191970" stroke="#191970" points="1504.0001,-68.0974 1507.5,-78.0974 1511.0001,-68.0975 1504.0001,-68.0974"/>
</g>
<!-- Node26 -->
<g id="node18" class="node">
<title>Node26</title>
<g id="a_node18"><a xlink:href="G3T1__5_8cpp.html" target="_top" xlink:title="src/sa&#45;bsn/target_system\l/components/component/src\l/g3t1_5/G3T1_5.cpp">
<polygon fill="#ffffff" stroke="#000000" points="1608,-.5 1608,-41.5 1763,-41.5 1763,-.5 1608,-.5"/>
<text text-anchor="start" x="1616" y="-29.5" font-family="Helvetica,sans-Serif" font-size="10.00" fill="#000000">src/sa&#45;bsn/target_system</text>
<text text-anchor="start" x="1616" y="-18.5" font-family="Helvetica,sans-Serif" font-size="10.00" fill="#000000">/components/component/src</text>
<text text-anchor="middle" x="1685.5" y="-7.5" font-family="Helvetica,sans-Serif" font-size="10.00" fill="#000000">/g3t1_5/G3T1_5.cpp</text>
</a>
</g>
</g>
<!-- Node24&#45;&gt;Node26 -->
<g id="edge17" class="edge">
<title>Node24&#45;&gt;Node26</title>
<path fill="none" stroke="#191970" d="M1564.0908,-74.2018C1588.1227,-63.671 1615.8059,-51.5401 1638.6635,-41.5239"/>
<polygon fill="#191970" stroke="#191970" points="1562.4879,-71.0828 1554.7334,-78.3022 1565.2974,-77.4943 1562.4879,-71.0828"/>
</g>
<!-- Node28 -->
<g id="node20" class="node">
<title>Node28</title>
<g id="a_node20"><a xlink:href="g3t1__6_8cpp.html" target="_top" xlink:title="src/sa&#45;bsn/target_system\l/components/component/apps\l/g3t1_6.cpp">
<polygon fill="#ffffff" stroke="#000000" points="1781.5,-.5 1781.5,-41.5 1945.5,-41.5 1945.5,-.5 1781.5,-.5"/>
<text text-anchor="start" x="1789.5" y="-29.5" font-family="Helvetica,sans-Serif" font-size="10.00" fill="#000000">src/sa&#45;bsn/target_system</text>
<text text-anchor="start" x="1789.5" y="-18.5" font-family="Helvetica,sans-Serif" font-size="10.00" fill="#000000">/components/component/apps</text>
<text text-anchor="middle" x="1863.5" y="-7.5" font-family="Helvetica,sans-Serif" font-size="10.00" fill="#000000">/g3t1_6.cpp</text>
</a>
</g>
</g>
<!-- Node27&#45;&gt;Node28 -->
<g id="edge19" class="edge">
<title>Node27&#45;&gt;Node28</title>
<path fill="none" stroke="#191970" d="M1863.5,-68.0789C1863.5,-59.2178 1863.5,-49.7747 1863.5,-41.6898"/>
<polygon fill="#191970" stroke="#191970" points="1860.0001,-68.0974 1863.5,-78.0974 1867.0001,-68.0975 1860.0001,-68.0974"/>
</g>
<!-- Node29 -->
<g id="node21" class="node">
<title>Node29</title>
<g id="a_node21"><a xlink:href="G3T1__6_8cpp.html" target="_top" xlink:title="src/sa&#45;bsn/target_system\l/components/component/src\l/g3t1_6/G3T1_6.cpp">
<polygon fill="#ffffff" stroke="#000000" points="1964,-.5 1964,-41.5 2119,-41.5 2119,-.5 1964,-.5"/>
<text text-anchor="start" x="1972" y="-29.5" font-family="Helvetica,sans-Serif" font-size="10.00" fill="#000000">src/sa&#45;bsn/target_system</text>
<text text-anchor="start" x="1972" y="-18.5" font-family="Helvetica,sans-Serif" font-size="10.00" fill="#000000">/components/component/src</text>
<text text-anchor="middle" x="2041.5" y="-7.5" font-family="Helvetica,sans-Serif" font-size="10.00" fill="#000000">/g3t1_6/G3T1_6.cpp</text>
</a>
</g>
</g>
<!-- Node27&#45;&gt;Node29 -->
<g id="edge20" class="edge">
<title>Node27&#45;&gt;Node29</title>
<path fill="none" stroke="#191970" d="M1920.0908,-74.2018C1944.1227,-63.671 1971.8059,-51.5401 1994.6635,-41.5239"/>
<polygon fill="#191970" stroke="#191970" points="1918.4879,-71.0828 1910.7334,-78.3022 1921.2974,-77.4943 1918.4879,-71.0828"/>
</g>
</g>
</svg>
