<?xml version="1.0" encoding="UTF-8" standalone="no"?>
<!DOCTYPE svg PUBLIC "-//W3C//DTD SVG 1.1//EN"
 "http://www.w3.org/Graphics/SVG/1.1/DTD/svg11.dtd">
<!-- Generated by graphviz version 2.40.1 (20161225.0304)
 -->
<!-- Title: src/libbsn/include/libbsn/configuration/SensorConfiguration.hpp Pages: 1 -->
<svg width="418pt" height="162pt"
 viewBox="0.00 0.00 418.00 162.00" xmlns="http://www.w3.org/2000/svg" xmlns:xlink="http://www.w3.org/1999/xlink">
<g id="graph0" class="graph" transform="scale(1 1) rotate(0) translate(4 158)">
<title>src/libbsn/include/libbsn/configuration/SensorConfiguration.hpp</title>
<polygon fill="#ffffff" stroke="transparent" points="-4,4 -4,-158 414,-158 414,4 -4,4"/>
<!-- Node0 -->
<g id="node1" class="node">
<title>Node0</title>
<polygon fill="#bfbfbf" stroke="#000000" points="153.5,-112.5 153.5,-153.5 292.5,-153.5 292.5,-112.5 153.5,-112.5"/>
<text text-anchor="start" x="161.5" y="-141.5" font-family="Helvetica,sans-Serif" font-size="10.00" fill="#000000">src/libbsn/include</text>
<text text-anchor="start" x="161.5" y="-130.5" font-family="Helvetica,sans-Serif" font-size="10.00" fill="#000000">/libbsn/configuration</text>
<text text-anchor="middle" x="223" y="-119.5" font-family="Helvetica,sans-Serif" font-size="10.00" fill="#000000">/SensorConfiguration.hpp</text>
</g>
<!-- Node1 -->
<g id="node2" class="node">
<title>Node1</title>
<polygon fill="#ffffff" stroke="#bfbfbf" points="0,-.5 0,-19.5 44,-19.5 44,-.5 0,-.5"/>
<text text-anchor="middle" x="22" y="-7.5" font-family="Helvetica,sans-Serif" font-size="10.00" fill="#000000">string</text>
</g>
<!-- Node0&#45;&gt;Node1 -->
<g id="edge1" class="edge">
<title>Node0&#45;&gt;Node1</title>
<path fill="none" stroke="#191970" d="M161.4946,-112.4493C137.8155,-103.1289 111.162,-90.8398 89,-76 68.5858,-62.3306 49.0226,-41.9289 36.3626,-27.4314"/>
<polygon fill="#191970" stroke="#191970" points="38.9018,-25.0149 29.752,-19.6733 33.5737,-29.5549 38.9018,-25.0149"/>
</g>
<!-- Node2 -->
<g id="node3" class="node">
<title>Node2</title>
<polygon fill="#ffffff" stroke="#bfbfbf" points="298.5,-56.5 298.5,-75.5 349.5,-75.5 349.5,-56.5 298.5,-56.5"/>
<text text-anchor="middle" x="324" y="-63.5" font-family="Helvetica,sans-Serif" font-size="10.00" fill="#000000">math.h</text>
</g>
<!-- Node0&#45;&gt;Node2 -->
<g id="edge2" class="edge">
<title>Node0&#45;&gt;Node2</title>
<path fill="none" stroke="#191970" d="M254.1275,-112.3511C269.2472,-102.3212 287.0978,-90.4797 300.9717,-81.2762"/>
<polygon fill="#191970" stroke="#191970" points="303.0476,-84.0992 309.446,-75.6546 299.178,-78.266 303.0476,-84.0992"/>
</g>
<!-- Node3 -->
<g id="node4" class="node">
<title>Node3</title>
<polygon fill="#ffffff" stroke="#bfbfbf" points="62,-.5 62,-19.5 122,-19.5 122,-.5 62,-.5"/>
<text text-anchor="middle" x="92" y="-7.5" font-family="Helvetica,sans-Serif" font-size="10.00" fill="#000000">iostream</text>
</g>
<!-- Node0&#45;&gt;Node3 -->
<g id="edge3" class="edge">
<title>Node0&#45;&gt;Node3</title>
<path fill="none" stroke="#191970" d="M153.3671,-113.8835C133.9837,-105.3088 114.7661,-93.1296 102,-76 92.1639,-62.8019 90.164,-43.933 90.3328,-29.7482"/>
<polygon fill="#191970" stroke="#191970" points="93.8376,-29.7318 90.8248,-19.5744 86.8458,-29.3936 93.8376,-29.7318"/>
</g>
<!-- Node4 -->
<g id="node5" class="node">
<title>Node4</title>
<polygon fill="#ffffff" stroke="#bfbfbf" points="368,-56.5 368,-75.5 410,-75.5 410,-56.5 368,-56.5"/>
<text text-anchor="middle" x="389" y="-63.5" font-family="Helvetica,sans-Serif" font-size="10.00" fill="#000000">array</text>
</g>
<!-- Node0&#45;&gt;Node4 -->
<g id="edge4" class="edge">
<title>Node0&#45;&gt;Node4</title>
<path fill="none" stroke="#191970" d="M274.16,-112.3511C301.6672,-101.2488 334.6738,-87.9268 358.228,-78.42"/>
<polygon fill="#191970" stroke="#191970" points="359.7372,-81.5853 367.7004,-74.5968 357.1172,-75.0941 359.7372,-81.5853"/>
</g>
<!-- Node5 -->
<g id="node6" class="node">
<title>Node5</title>
<polygon fill="#ffffff" stroke="#bfbfbf" points="295,-.5 295,-19.5 351,-19.5 351,-.5 295,-.5"/>
<text text-anchor="middle" x="323" y="-7.5" font-family="Helvetica,sans-Serif" font-size="10.00" fill="#000000">sstream</text>
</g>
<!-- Node0&#45;&gt;Node5 -->
<g id="edge5" class="edge">
<title>Node0&#45;&gt;Node5</title>
<path fill="none" stroke="#191970" d="M239.7378,-112.4126C259.0772,-88.625 290.5672,-49.8924 308.7732,-27.499"/>
<polygon fill="#191970" stroke="#191970" points="311.6691,-29.4853 315.2617,-19.5182 306.2376,-25.0695 311.6691,-29.4853"/>
</g>
<!-- Node6 -->
<g id="node7" class="node">
<title>Node6</title>
<g id="a_node7"><a xlink:href="Range_8hpp.html" target="_top" xlink:title="libbsn/range/Range.hpp">
<polygon fill="#ffffff" stroke="#000000" points="110.5,-56.5 110.5,-75.5 241.5,-75.5 241.5,-56.5 110.5,-56.5"/>
<text text-anchor="middle" x="176" y="-63.5" font-family="Helvetica,sans-Serif" font-size="10.00" fill="#000000">libbsn/range/Range.hpp</text>
</a>
</g>
</g>
<!-- Node0&#45;&gt;Node6 -->
<g id="edge6" class="edge">
<title>Node0&#45;&gt;Node6</title>
<path fill="none" stroke="#191970" d="M208.3865,-112.168C202.0666,-103.1587 194.741,-92.7159 188.6572,-84.0432"/>
<polygon fill="#191970" stroke="#191970" points="191.4691,-81.9571 182.8609,-75.7805 185.7385,-85.9771 191.4691,-81.9571"/>
</g>
<!-- Node6&#45;&gt;Node1 -->
<g id="edge7" class="edge">
<title>Node6&#45;&gt;Node1</title>
<path fill="none" stroke="#191970" d="M149.5265,-56.3733C122.9095,-46.6944 81.8709,-31.7712 53.5733,-21.4812"/>
<polygon fill="#191970" stroke="#191970" points="54.734,-18.1791 44.14,-18.0509 52.3418,-24.7577 54.734,-18.1791"/>
</g>
<!-- Node6&#45;&gt;Node3 -->
<g id="edge9" class="edge">
<title>Node6&#45;&gt;Node3</title>
<path fill="none" stroke="#191970" d="M161.3683,-56.2455C148.6006,-47.7337 129.8562,-35.2375 115.0701,-25.3801"/>
<polygon fill="#191970" stroke="#191970" points="116.726,-22.2775 106.464,-19.6427 112.8431,-28.1019 116.726,-22.2775"/>
</g>
<!-- Node6&#45;&gt;Node5 -->
<g id="edge11" class="edge">
<title>Node6&#45;&gt;Node5</title>
<path fill="none" stroke="#191970" d="M201.2702,-56.3733C225.3966,-47.1822 261.9362,-33.2624 288.6877,-23.0713"/>
<polygon fill="#191970" stroke="#191970" points="289.9607,-26.3318 298.0596,-19.5011 287.4687,-19.7904 289.9607,-26.3318"/>
</g>
<!-- Node7 -->
<g id="node8" class="node">
<title>Node7</title>
<polygon fill="#ffffff" stroke="#bfbfbf" points="211.5,-.5 211.5,-19.5 276.5,-19.5 276.5,-.5 211.5,-.5"/>
<text text-anchor="middle" x="244" y="-7.5" font-family="Helvetica,sans-Serif" font-size="10.00" fill="#000000">stdexcept</text>
</g>
<!-- Node6&#45;&gt;Node7 -->
<g id="edge8" class="edge">
<title>Node6&#45;&gt;Node7</title>
<path fill="none" stroke="#191970" d="M187.8447,-56.2455C197.888,-47.9746 212.4995,-35.9416 224.3004,-26.2232"/>
<polygon fill="#191970" stroke="#191970" points="226.7967,-28.7015 232.291,-19.6427 222.3467,-23.298 226.7967,-28.7015"/>
</g>
<!-- Node8 -->
<g id="node9" class="node">
<title>Node8</title>
<polygon fill="#ffffff" stroke="#bfbfbf" points="140.5,-.5 140.5,-19.5 193.5,-19.5 193.5,-.5 140.5,-.5"/>
<text text-anchor="middle" x="167" y="-7.5" font-family="Helvetica,sans-Serif" font-size="10.00" fill="#000000">stdint.h</text>
</g>
<!-- Node6&#45;&gt;Node8 -->
<g id="edge10" class="edge">
<title>Node6&#45;&gt;Node8</title>
<path fill="none" stroke="#191970" d="M174.4323,-56.2455C173.2579,-48.9382 171.6116,-38.6944 170.1668,-29.7046"/>
<polygon fill="#191970" stroke="#191970" points="173.5922,-28.9606 168.5497,-19.6427 166.6809,-30.0714 173.5922,-28.9606"/>
</g>
</g>
</svg>
