<?xml version="1.0" encoding="UTF-8" standalone="no"?>
<!DOCTYPE svg PUBLIC "-//W3C//DTD SVG 1.1//EN"
 "http://www.w3.org/Graphics/SVG/1.1/DTD/svg11.dtd">
<!-- Generated by graphviz version 2.40.1 (20161225.0304)
 -->
<!-- Title: src/libbsn/include/libbsn/goalmodel/Task.hpp Pages: 1 -->
<svg width="1449pt" height="407pt"
 viewBox="0.00 0.00 1448.50 407.00" xmlns="http://www.w3.org/2000/svg" xmlns:xlink="http://www.w3.org/1999/xlink">
<g id="graph0" class="graph" transform="scale(1 1) rotate(0) translate(4 403)">
<title>src/libbsn/include/libbsn/goalmodel/Task.hpp</title>
<polygon fill="#ffffff" stroke="transparent" points="-4,4 -4,-403 1444.5,-403 1444.5,4 -4,4"/>
<!-- Node7 -->
<g id="node1" class="node">
<title>Node7</title>
<polygon fill="#bfbfbf" stroke="#000000" points="605.5,-368.5 605.5,-398.5 754.5,-398.5 754.5,-368.5 605.5,-368.5"/>
<text text-anchor="start" x="613.5" y="-386.5" font-family="Helvetica,sans-Serif" font-size="10.00" fill="#000000">src/libbsn/include</text>
<text text-anchor="middle" x="680" y="-375.5" font-family="Helvetica,sans-Serif" font-size="10.00" fill="#000000">/libbsn/goalmodel/Task.hpp</text>
</g>
<!-- Node8 -->
<g id="node2" class="node">
<title>Node8</title>
<g id="a_node2"><a xlink:href="GoalTree_8hpp.html" target="_top" xlink:title="src/libbsn/include\l/libbsn/goalmodel/GoalTree.hpp">
<polygon fill="#ffffff" stroke="#000000" points="444,-234.5 444,-264.5 614,-264.5 614,-234.5 444,-234.5"/>
<text text-anchor="start" x="452" y="-252.5" font-family="Helvetica,sans-Serif" font-size="10.00" fill="#000000">src/libbsn/include</text>
<text text-anchor="middle" x="529" y="-241.5" font-family="Helvetica,sans-Serif" font-size="10.00" fill="#000000">/libbsn/goalmodel/GoalTree.hpp</text>
</a>
</g>
</g>
<!-- Node7&#45;&gt;Node8 -->
<g id="edge1" class="edge">
<title>Node7&#45;&gt;Node8</title>
<path fill="none" stroke="#191970" d="M634.173,-363.8064C617.8774,-355.4638 600.0946,-344.7078 586,-332 564.1489,-312.2988 546.3071,-282.6553 536.7039,-264.7824"/>
<polygon fill="#191970" stroke="#191970" points="633.0401,-367.1503 643.5566,-368.4361 636.1373,-360.8727 633.0401,-367.1503"/>
</g>
<!-- Node10 -->
<g id="node4" class="node">
<title>Node10</title>
<g id="a_node4"><a xlink:href="GoalTreeTest_8cpp.html" target="_top" xlink:title="src/libbsn/test/unit\l/goalmodel/GoalTreeTest.cpp">
<polygon fill="#ffffff" stroke="#000000" points="299.5,-162 299.5,-192 456.5,-192 456.5,-162 299.5,-162"/>
<text text-anchor="start" x="307.5" y="-180" font-family="Helvetica,sans-Serif" font-size="10.00" fill="#000000">src/libbsn/test/unit</text>
<text text-anchor="middle" x="378" y="-169" font-family="Helvetica,sans-Serif" font-size="10.00" fill="#000000">/goalmodel/GoalTreeTest.cpp</text>
</a>
</g>
</g>
<!-- Node7&#45;&gt;Node10 -->
<g id="edge28" class="edge">
<title>Node7&#45;&gt;Node10</title>
<path fill="none" stroke="#191970" d="M595.6784,-368.1979C533.5384,-352.6012 451.5342,-322.2414 402,-265 384.0731,-244.2838 379.4152,-211.379 378.2793,-192.2199"/>
<polygon fill="#191970" stroke="#191970" points="594.9294,-371.6177 605.4729,-370.5762 596.5811,-364.8153 594.9294,-371.6177"/>
</g>
<!-- Node11 -->
<g id="node5" class="node">
<title>Node11</title>
<g id="a_node5"><a xlink:href="DataAccess_8hpp.html" target="_top" xlink:title="src/sa&#45;bsn/knowledge\l_repository/data_access\l/include/data_access/DataAccess.hpp">
<polygon fill="#ffffff" stroke="#000000" points="43.5,-156.5 43.5,-197.5 242.5,-197.5 242.5,-156.5 43.5,-156.5"/>
<text text-anchor="start" x="51.5" y="-185.5" font-family="Helvetica,sans-Serif" font-size="10.00" fill="#000000">src/sa&#45;bsn/knowledge</text>
<text text-anchor="start" x="51.5" y="-174.5" font-family="Helvetica,sans-Serif" font-size="10.00" fill="#000000">_repository/data_access</text>
<text text-anchor="middle" x="143" y="-163.5" font-family="Helvetica,sans-Serif" font-size="10.00" fill="#000000">/include/data_access/DataAccess.hpp</text>
</a>
</g>
</g>
<!-- Node7&#45;&gt;Node11 -->
<g id="edge30" class="edge">
<title>Node7&#45;&gt;Node11</title>
<path fill="none" stroke="#191970" d="M595.3962,-381.0581C488.7705,-376.649 312.6878,-364.5463 257,-332 202.9251,-300.3963 166.9071,-231.9386 151.5035,-197.5658"/>
<polygon fill="#191970" stroke="#191970" points="595.3599,-384.5593 605.4916,-381.4612 595.6393,-377.5649 595.3599,-384.5593"/>
</g>
<!-- Node14 -->
<g id="node8" class="node">
<title>Node14</title>
<g id="a_node8"><a xlink:href="CostEngine_8hpp.html" target="_top" xlink:title="src/sa&#45;bsn/system_manager\l/adaptation_engine/include\l/engine/CostEngine.hpp">
<polygon fill="#ffffff" stroke="#000000" points="561,-78.5 561,-119.5 715,-119.5 715,-78.5 561,-78.5"/>
<text text-anchor="start" x="569" y="-107.5" font-family="Helvetica,sans-Serif" font-size="10.00" fill="#000000">src/sa&#45;bsn/system_manager</text>
<text text-anchor="start" x="569" y="-96.5" font-family="Helvetica,sans-Serif" font-size="10.00" fill="#000000">/adaptation_engine/include</text>
<text text-anchor="middle" x="638" y="-85.5" font-family="Helvetica,sans-Serif" font-size="10.00" fill="#000000">/engine/CostEngine.hpp</text>
</a>
</g>
</g>
<!-- Node7&#45;&gt;Node14 -->
<g id="edge31" class="edge">
<title>Node7&#45;&gt;Node14</title>
<path fill="none" stroke="#191970" d="M595.2579,-375.7681C548.162,-368.9201 489.6335,-356.0659 442,-332 361.6177,-291.3885 327.0615,-280.0796 290,-198 282.3182,-180.9872 277.9144,-170.2262 290,-156 307.3414,-135.5871 463.5944,-116.4463 560.7372,-106.3774"/>
<polygon fill="#191970" stroke="#191970" points="595.0451,-379.272 605.4314,-377.1805 596.0078,-372.3385 595.0451,-379.272"/>
</g>
<!-- Node17 -->
<g id="node11" class="node">
<title>Node17</title>
<g id="a_node11"><a xlink:href="Engine_8hpp.html" target="_top" xlink:title="src/sa&#45;bsn/system_manager\l/adaptation_engine/include\l/engine/Engine.hpp">
<polygon fill="#ffffff" stroke="#000000" points="719,-156.5 719,-197.5 873,-197.5 873,-156.5 719,-156.5"/>
<text text-anchor="start" x="727" y="-185.5" font-family="Helvetica,sans-Serif" font-size="10.00" fill="#000000">src/sa&#45;bsn/system_manager</text>
<text text-anchor="start" x="727" y="-174.5" font-family="Helvetica,sans-Serif" font-size="10.00" fill="#000000">/adaptation_engine/include</text>
<text text-anchor="middle" x="796" y="-163.5" font-family="Helvetica,sans-Serif" font-size="10.00" fill="#000000">/engine/Engine.hpp</text>
</a>
</g>
</g>
<!-- Node7&#45;&gt;Node17 -->
<g id="edge32" class="edge">
<title>Node7&#45;&gt;Node17</title>
<path fill="none" stroke="#191970" d="M764.7307,-377.5714C902.1873,-365.9891 1164.0875,-335.088 1220,-265 1228.5921,-254.2295 1229.0702,-244.3711 1220,-234 1197.5692,-208.352 989.4448,-190.1863 873.3609,-181.9543"/>
<polygon fill="#191970" stroke="#191970" points="764.3276,-374.0927 754.6501,-378.405 764.9045,-381.0689 764.3276,-374.0927"/>
</g>
<!-- Node18 -->
<g id="node12" class="node">
<title>Node18</title>
<g id="a_node12"><a xlink:href="ReliabilityEngine_8hpp.html" target="_top" xlink:title="src/sa&#45;bsn/system_manager\l/adaptation_engine/include\l/engine/ReliabilityEngine.hpp">
<polygon fill="#ffffff" stroke="#000000" points="943,-78.5 943,-119.5 1101,-119.5 1101,-78.5 943,-78.5"/>
<text text-anchor="start" x="951" y="-107.5" font-family="Helvetica,sans-Serif" font-size="10.00" fill="#000000">src/sa&#45;bsn/system_manager</text>
<text text-anchor="start" x="951" y="-96.5" font-family="Helvetica,sans-Serif" font-size="10.00" fill="#000000">/adaptation_engine/include</text>
<text text-anchor="middle" x="1022" y="-85.5" font-family="Helvetica,sans-Serif" font-size="10.00" fill="#000000">/engine/ReliabilityEngine.hpp</text>
</a>
</g>
</g>
<!-- Node7&#45;&gt;Node18 -->
<g id="edge33" class="edge">
<title>Node7&#45;&gt;Node18</title>
<path fill="none" stroke="#191970" d="M765.0556,-378.6711C877.7023,-371.4572 1069.8448,-356.0802 1136,-332 1186.6187,-313.575 1211.5278,-312.4647 1237,-265 1274.4626,-195.1927 1170.1627,-145.5172 1094.0299,-119.6141"/>
<polygon fill="#191970" stroke="#191970" points="764.5036,-375.1989 754.7443,-379.3228 764.9452,-382.1849 764.5036,-375.1989"/>
</g>
<!-- Node22 -->
<g id="node16" class="node">
<title>Node22</title>
<g id="a_node16"><a xlink:href="LeafTask_8hpp.html" target="_top" xlink:title="src/libbsn/include\l/libbsn/goalmodel/LeafTask.hpp">
<polygon fill="#ffffff" stroke="#000000" points="595,-301.5 595,-331.5 765,-331.5 765,-301.5 595,-301.5"/>
<text text-anchor="start" x="603" y="-319.5" font-family="Helvetica,sans-Serif" font-size="10.00" fill="#000000">src/libbsn/include</text>
<text text-anchor="middle" x="680" y="-308.5" font-family="Helvetica,sans-Serif" font-size="10.00" fill="#000000">/libbsn/goalmodel/LeafTask.hpp</text>
</a>
</g>
</g>
<!-- Node7&#45;&gt;Node22 -->
<g id="edge17" class="edge">
<title>Node7&#45;&gt;Node22</title>
<path fill="none" stroke="#191970" d="M680,-358.0249C680,-349.128 680,-339.4287 680,-331.6432"/>
<polygon fill="#191970" stroke="#191970" points="676.5001,-358.2966 680,-368.2967 683.5001,-358.2967 676.5001,-358.2966"/>
</g>
<!-- Node25 -->
<g id="node19" class="node">
<title>Node25</title>
<g id="a_node19"><a xlink:href="TaskTest_8cpp.html" target="_top" xlink:title="src/libbsn/test/unit\l/goalmodel/TaskTest.cpp">
<polygon fill="#ffffff" stroke="#000000" points="1075,-234.5 1075,-264.5 1211,-264.5 1211,-234.5 1075,-234.5"/>
<text text-anchor="start" x="1083" y="-252.5" font-family="Helvetica,sans-Serif" font-size="10.00" fill="#000000">src/libbsn/test/unit</text>
<text text-anchor="middle" x="1143" y="-241.5" font-family="Helvetica,sans-Serif" font-size="10.00" fill="#000000">/goalmodel/TaskTest.cpp</text>
</a>
</g>
</g>
<!-- Node7&#45;&gt;Node25 -->
<g id="edge29" class="edge">
<title>Node7&#45;&gt;Node25</title>
<path fill="none" stroke="#191970" d="M741.9465,-365.5716C833.955,-338.9428 1005.0801,-289.4163 1090.9788,-264.5558"/>
<polygon fill="#191970" stroke="#191970" points="740.8447,-362.2468 732.212,-368.389 742.7908,-368.9709 740.8447,-362.2468"/>
</g>
<!-- Node26 -->
<g id="node20" class="node">
<title>Node26</title>
<g id="a_node20"><a xlink:href="Task_8cpp.html" target="_top" xlink:title="src/libbsn/src/goalmodel\l/Task.cpp">
<polygon fill="#ffffff" stroke="#000000" points="1305.5,-301.5 1305.5,-331.5 1440.5,-331.5 1440.5,-301.5 1305.5,-301.5"/>
<text text-anchor="start" x="1313.5" y="-319.5" font-family="Helvetica,sans-Serif" font-size="10.00" fill="#000000">src/libbsn/src/goalmodel</text>
<text text-anchor="middle" x="1373" y="-308.5" font-family="Helvetica,sans-Serif" font-size="10.00" fill="#000000">/Task.cpp</text>
</a>
</g>
</g>
<!-- Node7&#45;&gt;Node26 -->
<g id="edge27" class="edge">
<title>Node7&#45;&gt;Node26</title>
<path fill="none" stroke="#191970" d="M764.6442,-379.121C882.8635,-372.3789 1103.9552,-357.4922 1291,-332 1295.5938,-331.3739 1300.3203,-330.6622 1305.0747,-329.896"/>
<polygon fill="#191970" stroke="#191970" points="764.3597,-375.6314 754.573,-379.6898 764.7545,-382.6203 764.3597,-375.6314"/>
</g>
<!-- Node9 -->
<g id="node3" class="node">
<title>Node9</title>
<g id="a_node3"><a xlink:href="GoalTree_8cpp.html" target="_top" xlink:title="src/libbsn/src/goalmodel\l/GoalTree.cpp">
<polygon fill="#ffffff" stroke="#000000" points="474.5,-162 474.5,-192 609.5,-192 609.5,-162 474.5,-162"/>
<text text-anchor="start" x="482.5" y="-180" font-family="Helvetica,sans-Serif" font-size="10.00" fill="#000000">src/libbsn/src/goalmodel</text>
<text text-anchor="middle" x="542" y="-169" font-family="Helvetica,sans-Serif" font-size="10.00" fill="#000000">/GoalTree.cpp</text>
</a>
</g>
</g>
<!-- Node8&#45;&gt;Node9 -->
<g id="edge2" class="edge">
<title>Node8&#45;&gt;Node9</title>
<path fill="none" stroke="#191970" d="M533.5113,-224.3409C535.4444,-213.5601 537.6372,-201.3309 539.3098,-192.0028"/>
<polygon fill="#191970" stroke="#191970" points="530.0136,-224.0172 531.6936,-234.478 536.9037,-225.2527 530.0136,-224.0172"/>
</g>
<!-- Node8&#45;&gt;Node10 -->
<g id="edge3" class="edge">
<title>Node8&#45;&gt;Node10</title>
<path fill="none" stroke="#191970" d="M488.5236,-230.066C463.6326,-218.115 432.217,-203.0313 409.2472,-192.0028"/>
<polygon fill="#191970" stroke="#191970" points="487.183,-233.3048 497.7127,-234.478 490.2128,-226.9944 487.183,-233.3048"/>
</g>
<!-- Node8&#45;&gt;Node11 -->
<g id="edge4" class="edge">
<title>Node8&#45;&gt;Node11</title>
<path fill="none" stroke="#191970" d="M439.0083,-232.5974C380.2378,-221.5589 303.4423,-207.1349 242.8006,-195.7449"/>
<polygon fill="#191970" stroke="#191970" points="438.5463,-236.0718 449.0206,-234.478 439.8385,-229.1921 438.5463,-236.0718"/>
</g>
<!-- Node8&#45;&gt;Node14 -->
<g id="edge7" class="edge">
<title>Node8&#45;&gt;Node14</title>
<path fill="none" stroke="#191970" d="M579.6353,-229.7893C593.9998,-221.9129 608.3421,-211.449 618,-198 634.6715,-174.7843 638.2211,-140.9967 638.5999,-119.5117"/>
<polygon fill="#191970" stroke="#191970" points="578.0267,-226.6808 570.7301,-234.3627 581.2246,-232.9076 578.0267,-226.6808"/>
</g>
<!-- Node8&#45;&gt;Node17 -->
<g id="edge10" class="edge">
<title>Node8&#45;&gt;Node17</title>
<path fill="none" stroke="#191970" d="M594.2907,-231.7712C632.4307,-221.4149 680.7266,-208.3008 720.4979,-197.5015"/>
<polygon fill="#191970" stroke="#191970" points="593.0559,-228.4797 584.3226,-234.478 594.8903,-235.2351 593.0559,-228.4797"/>
</g>
<!-- Node8&#45;&gt;Node18 -->
<g id="edge16" class="edge">
<title>Node8&#45;&gt;Node18</title>
<path fill="none" stroke="#191970" d="M624.3521,-240.646C712.5072,-231.5487 836.5217,-216.1745 882,-198 928.1638,-179.5516 973.6756,-143.0429 999.7409,-119.8877"/>
<polygon fill="#191970" stroke="#191970" points="623.9188,-237.172 614.3261,-241.6697 624.6299,-244.1358 623.9188,-237.172"/>
</g>
<!-- Node12 -->
<g id="node6" class="node">
<title>Node12</title>
<g id="a_node6"><a xlink:href="data__access_8cpp.html" target="_top" xlink:title="src/sa&#45;bsn/knowledge\l_repository/data_access\l/apps/data_access.cpp">
<polygon fill="#ffffff" stroke="#000000" points="152,-78.5 152,-119.5 286,-119.5 286,-78.5 152,-78.5"/>
<text text-anchor="start" x="160" y="-107.5" font-family="Helvetica,sans-Serif" font-size="10.00" fill="#000000">src/sa&#45;bsn/knowledge</text>
<text text-anchor="start" x="160" y="-96.5" font-family="Helvetica,sans-Serif" font-size="10.00" fill="#000000">_repository/data_access</text>
<text text-anchor="middle" x="219" y="-85.5" font-family="Helvetica,sans-Serif" font-size="10.00" fill="#000000">/apps/data_access.cpp</text>
</a>
</g>
</g>
<!-- Node11&#45;&gt;Node12 -->
<g id="edge5" class="edge">
<title>Node11&#45;&gt;Node12</title>
<path fill="none" stroke="#191970" d="M170.6125,-148.6609C179.9493,-139.0783 190.1924,-128.5657 198.8407,-119.6898"/>
<polygon fill="#191970" stroke="#191970" points="167.8385,-146.4926 163.3666,-156.0974 172.8521,-151.3776 167.8385,-146.4926"/>
</g>
<!-- Node13 -->
<g id="node7" class="node">
<title>Node13</title>
<g id="a_node7"><a xlink:href="DataAccess_8cpp.html" target="_top" xlink:title="src/sa&#45;bsn/knowledge\l_repository/data_access\l/src/DataAccess.cpp">
<polygon fill="#ffffff" stroke="#000000" points="0,-78.5 0,-119.5 134,-119.5 134,-78.5 0,-78.5"/>
<text text-anchor="start" x="8" y="-107.5" font-family="Helvetica,sans-Serif" font-size="10.00" fill="#000000">src/sa&#45;bsn/knowledge</text>
<text text-anchor="start" x="8" y="-96.5" font-family="Helvetica,sans-Serif" font-size="10.00" fill="#000000">_repository/data_access</text>
<text text-anchor="middle" x="67" y="-85.5" font-family="Helvetica,sans-Serif" font-size="10.00" fill="#000000">/src/DataAccess.cpp</text>
</a>
</g>
</g>
<!-- Node11&#45;&gt;Node13 -->
<g id="edge6" class="edge">
<title>Node11&#45;&gt;Node13</title>
<path fill="none" stroke="#191970" d="M115.3875,-148.6609C106.0507,-139.0783 95.8076,-128.5657 87.1593,-119.6898"/>
<polygon fill="#191970" stroke="#191970" points="113.1479,-151.3776 122.6334,-156.0974 118.1615,-146.4926 113.1479,-151.3776"/>
</g>
<!-- Node15 -->
<g id="node9" class="node">
<title>Node15</title>
<g id="a_node9"><a xlink:href="cost__engine_8cpp.html" target="_top" xlink:title="src/sa&#45;bsn/system_manager\l/adaptation_engine/apps\l/cost_engine.cpp">
<polygon fill="#ffffff" stroke="#000000" points="396,-.5 396,-41.5 550,-41.5 550,-.5 396,-.5"/>
<text text-anchor="start" x="404" y="-29.5" font-family="Helvetica,sans-Serif" font-size="10.00" fill="#000000">src/sa&#45;bsn/system_manager</text>
<text text-anchor="start" x="404" y="-18.5" font-family="Helvetica,sans-Serif" font-size="10.00" fill="#000000">/adaptation_engine/apps</text>
<text text-anchor="middle" x="473" y="-7.5" font-family="Helvetica,sans-Serif" font-size="10.00" fill="#000000">/cost_engine.cpp</text>
</a>
</g>
</g>
<!-- Node14&#45;&gt;Node15 -->
<g id="edge8" class="edge">
<title>Node14&#45;&gt;Node15</title>
<path fill="none" stroke="#191970" d="M584.95,-73.9218C562.8117,-63.4564 537.4166,-51.4515 516.4159,-41.5239"/>
<polygon fill="#191970" stroke="#191970" points="583.6796,-77.1926 594.2162,-78.3022 586.6713,-70.8641 583.6796,-77.1926"/>
</g>
<!-- Node16 -->
<g id="node10" class="node">
<title>Node16</title>
<g id="a_node10"><a xlink:href="CostEngine_8cpp.html" target="_top" xlink:title="src/sa&#45;bsn/system_manager\l/adaptation_engine/src\l/CostEngine.cpp">
<polygon fill="#ffffff" stroke="#000000" points="568,-.5 568,-41.5 722,-41.5 722,-.5 568,-.5"/>
<text text-anchor="start" x="576" y="-29.5" font-family="Helvetica,sans-Serif" font-size="10.00" fill="#000000">src/sa&#45;bsn/system_manager</text>
<text text-anchor="start" x="576" y="-18.5" font-family="Helvetica,sans-Serif" font-size="10.00" fill="#000000">/adaptation_engine/src</text>
<text text-anchor="middle" x="645" y="-7.5" font-family="Helvetica,sans-Serif" font-size="10.00" fill="#000000">/CostEngine.cpp</text>
</a>
</g>
</g>
<!-- Node14&#45;&gt;Node16 -->
<g id="edge9" class="edge">
<title>Node14&#45;&gt;Node16</title>
<path fill="none" stroke="#191970" d="M640.775,-68.0789C641.5702,-59.2178 642.4177,-49.7747 643.1432,-41.6898"/>
<polygon fill="#191970" stroke="#191970" points="637.2838,-67.8246 639.8759,-78.0974 644.2558,-68.4503 637.2838,-67.8246"/>
</g>
<!-- Node17&#45;&gt;Node14 -->
<g id="edge11" class="edge">
<title>Node17&#45;&gt;Node14</title>
<path fill="none" stroke="#191970" d="M744.9165,-151.7816C723.7844,-141.3493 699.594,-129.4072 679.574,-119.5239"/>
<polygon fill="#191970" stroke="#191970" points="743.5575,-155.0139 754.0737,-156.3022 746.6562,-148.7371 743.5575,-155.0139"/>
</g>
<!-- Node17&#45;&gt;Node18 -->
<g id="edge12" class="edge">
<title>Node17&#45;&gt;Node18</title>
<path fill="none" stroke="#191970" d="M865.1373,-153.1385C896.2122,-142.4135 932.5257,-129.8805 962.3833,-119.5757"/>
<polygon fill="#191970" stroke="#191970" points="863.9854,-149.8333 855.6745,-156.4044 866.2692,-156.4503 863.9854,-149.8333"/>
</g>
<!-- Node21 -->
<g id="node15" class="node">
<title>Node21</title>
<g id="a_node15"><a xlink:href="Engine_8cpp.html" target="_top" xlink:title="src/sa&#45;bsn/system_manager\l/adaptation_engine/src\l/Engine.cpp">
<polygon fill="#ffffff" stroke="#000000" points="733,-78.5 733,-119.5 887,-119.5 887,-78.5 733,-78.5"/>
<text text-anchor="start" x="741" y="-107.5" font-family="Helvetica,sans-Serif" font-size="10.00" fill="#000000">src/sa&#45;bsn/system_manager</text>
<text text-anchor="start" x="741" y="-96.5" font-family="Helvetica,sans-Serif" font-size="10.00" fill="#000000">/adaptation_engine/src</text>
<text text-anchor="middle" x="810" y="-85.5" font-family="Helvetica,sans-Serif" font-size="10.00" fill="#000000">/Engine.cpp</text>
</a>
</g>
</g>
<!-- Node17&#45;&gt;Node21 -->
<g id="edge15" class="edge">
<title>Node17&#45;&gt;Node21</title>
<path fill="none" stroke="#191970" d="M801.5499,-146.0789C803.1404,-137.2178 804.8353,-127.7747 806.2864,-119.6898"/>
<polygon fill="#191970" stroke="#191970" points="798.0735,-145.6364 799.7517,-156.0974 804.9634,-146.8731 798.0735,-145.6364"/>
</g>
<!-- Node19 -->
<g id="node13" class="node">
<title>Node19</title>
<g id="a_node13"><a xlink:href="reli__engine_8cpp.html" target="_top" xlink:title="src/sa&#45;bsn/system_manager\l/adaptation_engine/apps\l/reli_engine.cpp">
<polygon fill="#ffffff" stroke="#000000" points="859,-.5 859,-41.5 1013,-41.5 1013,-.5 859,-.5"/>
<text text-anchor="start" x="867" y="-29.5" font-family="Helvetica,sans-Serif" font-size="10.00" fill="#000000">src/sa&#45;bsn/system_manager</text>
<text text-anchor="start" x="867" y="-18.5" font-family="Helvetica,sans-Serif" font-size="10.00" fill="#000000">/adaptation_engine/apps</text>
<text text-anchor="middle" x="936" y="-7.5" font-family="Helvetica,sans-Serif" font-size="10.00" fill="#000000">/reli_engine.cpp</text>
</a>
</g>
</g>
<!-- Node18&#45;&gt;Node19 -->
<g id="edge13" class="edge">
<title>Node18&#45;&gt;Node19</title>
<path fill="none" stroke="#191970" d="M991.3807,-71.229C980.6487,-61.4953 968.7918,-50.7414 958.8118,-41.6898"/>
<polygon fill="#191970" stroke="#191970" points="989.195,-73.9718 998.9536,-78.0974 993.8977,-68.7867 989.195,-73.9718"/>
</g>
<!-- Node20 -->
<g id="node14" class="node">
<title>Node20</title>
<g id="a_node14"><a xlink:href="ReliabilityEngine_8cpp.html" target="_top" xlink:title="src/sa&#45;bsn/system_manager\l/adaptation_engine/src\l/ReliabilityEngine.cpp">
<polygon fill="#ffffff" stroke="#000000" points="1031,-.5 1031,-41.5 1185,-41.5 1185,-.5 1031,-.5"/>
<text text-anchor="start" x="1039" y="-29.5" font-family="Helvetica,sans-Serif" font-size="10.00" fill="#000000">src/sa&#45;bsn/system_manager</text>
<text text-anchor="start" x="1039" y="-18.5" font-family="Helvetica,sans-Serif" font-size="10.00" fill="#000000">/adaptation_engine/src</text>
<text text-anchor="middle" x="1108" y="-7.5" font-family="Helvetica,sans-Serif" font-size="10.00" fill="#000000">/ReliabilityEngine.cpp</text>
</a>
</g>
</g>
<!-- Node18&#45;&gt;Node20 -->
<g id="edge14" class="edge">
<title>Node18&#45;&gt;Node20</title>
<path fill="none" stroke="#191970" d="M1052.6193,-71.229C1063.3513,-61.4953 1075.2082,-50.7414 1085.1882,-41.6898"/>
<polygon fill="#191970" stroke="#191970" points="1050.1023,-68.7867 1045.0464,-78.0974 1054.805,-73.9718 1050.1023,-68.7867"/>
</g>
<!-- Node22&#45;&gt;Node8 -->
<g id="edge18" class="edge">
<title>Node22&#45;&gt;Node8</title>
<path fill="none" stroke="#191970" d="M636.7582,-297.3132C613.3497,-286.9267 584.8461,-274.2794 563.0351,-264.6017"/>
<polygon fill="#191970" stroke="#191970" points="635.5525,-300.6073 646.1127,-301.4639 638.3916,-294.2089 635.5525,-300.6073"/>
</g>
<!-- Node22&#45;&gt;Node10 -->
<g id="edge20" class="edge">
<title>Node22&#45;&gt;Node10</title>
<path fill="none" stroke="#191970" d="M584.8888,-304.1653C526.8785,-295.1946 459.3466,-281.7138 435,-265 408.588,-246.8683 391.5511,-212.0739 383.4823,-192.0981"/>
<polygon fill="#191970" stroke="#191970" points="584.439,-307.6371 594.8509,-305.6767 585.4891,-300.7162 584.439,-307.6371"/>
</g>
<!-- Node22&#45;&gt;Node11 -->
<g id="edge23" class="edge">
<title>Node22&#45;&gt;Node11</title>
<path fill="none" stroke="#191970" d="M584.831,-302.3627C530.7931,-293.4666 462.1358,-280.6986 402,-265 329.6288,-246.1074 248.2732,-217.1524 196.3816,-197.6675"/>
<polygon fill="#191970" stroke="#191970" points="584.3128,-305.8243 594.7456,-303.9785 585.4388,-298.9154 584.3128,-305.8243"/>
</g>
<!-- Node22&#45;&gt;Node14 -->
<g id="edge24" class="edge">
<title>Node22&#45;&gt;Node14</title>
<path fill="none" stroke="#191970" d="M675.1063,-291.1575C666.7014,-247.6325 649.6842,-159.5073 641.966,-119.5384"/>
<polygon fill="#191970" stroke="#191970" points="671.714,-292.0508 677.0466,-301.2058 678.5871,-290.7236 671.714,-292.0508"/>
</g>
<!-- Node22&#45;&gt;Node17 -->
<g id="edge25" class="edge">
<title>Node22&#45;&gt;Node17</title>
<path fill="none" stroke="#191970" d="M680.6723,-291.2357C682.2901,-273.6936 686.8324,-250.5855 699,-234 710.3806,-218.4873 727.3638,-206.4735 743.9533,-197.5628"/>
<polygon fill="#191970" stroke="#191970" points="677.1723,-291.1205 680.0008,-301.3308 684.1569,-291.5851 677.1723,-291.1205"/>
</g>
<!-- Node22&#45;&gt;Node18 -->
<g id="edge26" class="edge">
<title>Node22&#45;&gt;Node18</title>
<path fill="none" stroke="#191970" d="M775.1523,-308.7231C872.1438,-299.8091 1010.648,-283.958 1027,-265 1062.3096,-224.0632 1043.2139,-154.0431 1030.4667,-119.5024"/>
<polygon fill="#191970" stroke="#191970" points="774.6606,-305.2533 765.0181,-309.6433 775.2937,-312.2246 774.6606,-305.2533"/>
</g>
<!-- Node23 -->
<g id="node17" class="node">
<title>Node23</title>
<g id="a_node17"><a xlink:href="LeafTask_8cpp.html" target="_top" xlink:title="src/libbsn/src/goalmodel\l/LeafTask.cpp">
<polygon fill="#ffffff" stroke="#000000" points="708.5,-234.5 708.5,-264.5 843.5,-264.5 843.5,-234.5 708.5,-234.5"/>
<text text-anchor="start" x="716.5" y="-252.5" font-family="Helvetica,sans-Serif" font-size="10.00" fill="#000000">src/libbsn/src/goalmodel</text>
<text text-anchor="middle" x="776" y="-241.5" font-family="Helvetica,sans-Serif" font-size="10.00" fill="#000000">/LeafTask.cpp</text>
</a>
</g>
</g>
<!-- Node22&#45;&gt;Node23 -->
<g id="edge19" class="edge">
<title>Node22&#45;&gt;Node23</title>
<path fill="none" stroke="#191970" d="M710.3089,-295.3469C724.5933,-285.3776 741.3081,-273.7121 754.3023,-264.6432"/>
<polygon fill="#191970" stroke="#191970" points="707.9811,-292.7033 701.7839,-301.2967 711.9874,-298.4436 707.9811,-292.7033"/>
</g>
<!-- Node24 -->
<g id="node18" class="node">
<title>Node24</title>
<g id="a_node18"><a xlink:href="LeafTaskTest_8cpp.html" target="_top" xlink:title="src/libbsn/test/unit\l/goalmodel/LeafTaskTest.cpp">
<polygon fill="#ffffff" stroke="#000000" points="861.5,-234.5 861.5,-264.5 1018.5,-264.5 1018.5,-234.5 861.5,-234.5"/>
<text text-anchor="start" x="869.5" y="-252.5" font-family="Helvetica,sans-Serif" font-size="10.00" fill="#000000">src/libbsn/test/unit</text>
<text text-anchor="middle" x="940" y="-241.5" font-family="Helvetica,sans-Serif" font-size="10.00" fill="#000000">/goalmodel/LeafTaskTest.cpp</text>
</a>
</g>
</g>
<!-- Node22&#45;&gt;Node24 -->
<g id="edge21" class="edge">
<title>Node22&#45;&gt;Node24</title>
<path fill="none" stroke="#191970" d="M748.0851,-298.955C789.4942,-288.2842 841.8382,-274.7955 881.3964,-264.6017"/>
<polygon fill="#191970" stroke="#191970" points="747.1593,-295.5791 738.3491,-301.4639 748.9061,-302.3577 747.1593,-295.5791"/>
</g>
<!-- Node22&#45;&gt;Node25 -->
<g id="edge22" class="edge">
<title>Node22&#45;&gt;Node25</title>
<path fill="none" stroke="#191970" d="M775.4924,-305.0023C852.6776,-295.3698 964.0492,-280.7044 1061,-265 1065.4336,-264.2818 1069.9958,-263.5103 1074.5905,-262.7089"/>
<polygon fill="#191970" stroke="#191970" points="774.7988,-301.5615 765.3072,-306.2689 775.6627,-308.508 774.7988,-301.5615"/>
</g>
</g>
</svg>
