<?xml version="1.0" encoding="UTF-8" standalone="no"?>
<!DOCTYPE svg PUBLIC "-//W3C//DTD SVG 1.1//EN"
 "http://www.w3.org/Graphics/SVG/1.1/DTD/svg11.dtd">
<!-- Generated by graphviz version 2.40.1 (20161225.0304)
 -->
<!-- Title: src/libbsn/include/libbsn/goalmodel/Task.hpp Pages: 1 -->
<svg width="362pt" height="207pt"
 viewBox="0.00 0.00 362.00 207.00" xmlns="http://www.w3.org/2000/svg" xmlns:xlink="http://www.w3.org/1999/xlink">
<g id="graph0" class="graph" transform="scale(1 1) rotate(0) translate(4 203)">
<title>src/libbsn/include/libbsn/goalmodel/Task.hpp</title>
<polygon fill="#ffffff" stroke="transparent" points="-4,4 -4,-203 358,-203 358,4 -4,4"/>
<!-- Node0 -->
<g id="node1" class="node">
<title>Node0</title>
<polygon fill="#bfbfbf" stroke="#000000" points="92.5,-168.5 92.5,-198.5 241.5,-198.5 241.5,-168.5 92.5,-168.5"/>
<text text-anchor="start" x="100.5" y="-186.5" font-family="Helvetica,sans-Serif" font-size="10.00" fill="#000000">src/libbsn/include</text>
<text text-anchor="middle" x="167" y="-175.5" font-family="Helvetica,sans-Serif" font-size="10.00" fill="#000000">/libbsn/goalmodel/Task.hpp</text>
</g>
<!-- Node1 -->
<g id="node2" class="node">
<title>Node1</title>
<polygon fill="#ffffff" stroke="#bfbfbf" points="0,-.5 0,-19.5 44,-19.5 44,-.5 0,-.5"/>
<text text-anchor="middle" x="22" y="-7.5" font-family="Helvetica,sans-Serif" font-size="10.00" fill="#000000">string</text>
</g>
<!-- Node0&#45;&gt;Node1 -->
<g id="edge1" class="edge">
<title>Node0&#45;&gt;Node1</title>
<path fill="none" stroke="#191970" d="M102.6871,-168.4444C68.679,-159.0429 31.938,-146.076 22,-132 .5148,-101.569 8.5508,-55.3687 15.6858,-29.4295"/>
<polygon fill="#191970" stroke="#191970" points="19.096,-30.2414 18.5999,-19.6582 12.3879,-28.2409 19.096,-30.2414"/>
</g>
<!-- Node2 -->
<g id="node3" class="node">
<title>Node2</title>
<polygon fill="#ffffff" stroke="#bfbfbf" points="195.5,-.5 195.5,-19.5 242.5,-19.5 242.5,-.5 195.5,-.5"/>
<text text-anchor="middle" x="219" y="-7.5" font-family="Helvetica,sans-Serif" font-size="10.00" fill="#000000">vector</text>
</g>
<!-- Node0&#45;&gt;Node2 -->
<g id="edge2" class="edge">
<title>Node0&#45;&gt;Node2</title>
<path fill="none" stroke="#191970" d="M199.9486,-168.4118C232.9336,-151.2746 281.7507,-119.8822 303,-76 315.7256,-49.7201 281.0291,-30.8019 252.4257,-20.1301"/>
<polygon fill="#191970" stroke="#191970" points="253.245,-16.7084 242.6502,-16.7007 250.9278,-23.3137 253.245,-16.7084"/>
</g>
<!-- Node3 -->
<g id="node4" class="node">
<title>Node3</title>
<polygon fill="#ffffff" stroke="#bfbfbf" points="62.5,-.5 62.5,-19.5 127.5,-19.5 127.5,-.5 62.5,-.5"/>
<text text-anchor="middle" x="95" y="-7.5" font-family="Helvetica,sans-Serif" font-size="10.00" fill="#000000">stdexcept</text>
</g>
<!-- Node0&#45;&gt;Node3 -->
<g id="edge3" class="edge">
<title>Node0&#45;&gt;Node3</title>
<path fill="none" stroke="#191970" d="M109.6954,-168.4995C77.6495,-158.8266 42.3141,-145.558 33,-132 8.7381,-96.6834 49.4287,-50.5801 75.5985,-26.4146"/>
<polygon fill="#191970" stroke="#191970" points="78.0393,-28.9274 83.166,-19.6555 73.3762,-23.7066 78.0393,-28.9274"/>
</g>
<!-- Node4 -->
<g id="node5" class="node">
<title>Node4</title>
<g id="a_node5"><a xlink:href="Node_8hpp.html" target="_top" xlink:title="libbsn/goalmodel/Node.hpp">
<polygon fill="#ffffff" stroke="#000000" points="144,-56.5 144,-75.5 294,-75.5 294,-56.5 144,-56.5"/>
<text text-anchor="middle" x="219" y="-63.5" font-family="Helvetica,sans-Serif" font-size="10.00" fill="#000000">libbsn/goalmodel/Node.hpp</text>
</a>
</g>
</g>
<!-- Node0&#45;&gt;Node4 -->
<g id="edge4" class="edge">
<title>Node0&#45;&gt;Node4</title>
<path fill="none" stroke="#191970" d="M177.4829,-168.2396C184.0114,-158.2534 192.2348,-144.7403 198,-132 204.8163,-116.937 210.3687,-99.0148 214.0484,-85.6504"/>
<polygon fill="#191970" stroke="#191970" points="217.5175,-86.2211 216.6855,-75.659 210.7493,-84.4346 217.5175,-86.2211"/>
</g>
<!-- Node5 -->
<g id="node6" class="node">
<title>Node5</title>
<polygon fill="#ffffff" stroke="#bfbfbf" points="296,-.5 296,-19.5 354,-19.5 354,-.5 296,-.5"/>
<text text-anchor="middle" x="325" y="-7.5" font-family="Helvetica,sans-Serif" font-size="10.00" fill="#000000">memory</text>
</g>
<!-- Node0&#45;&gt;Node5 -->
<g id="edge9" class="edge">
<title>Node0&#45;&gt;Node5</title>
<path fill="none" stroke="#191970" d="M215.6351,-168.4717C237.2696,-160.1293 262.0713,-148.1261 281,-132 303.7075,-112.6546 307.9178,-104.0754 318,-76 323.3548,-61.0888 324.9768,-43.1553 325.331,-29.7479"/>
<polygon fill="#191970" stroke="#191970" points="328.831,-29.7345 325.3845,-19.7159 321.8311,-29.6971 328.831,-29.7345"/>
</g>
<!-- Node6 -->
<g id="node7" class="node">
<title>Node6</title>
<g id="a_node7"><a xlink:href="Goal_8hpp.html" target="_top" xlink:title="libbsn/goalmodel/Goal.hpp">
<polygon fill="#ffffff" stroke="#000000" points="42.5,-112.5 42.5,-131.5 189.5,-131.5 189.5,-112.5 42.5,-112.5"/>
<text text-anchor="middle" x="116" y="-119.5" font-family="Helvetica,sans-Serif" font-size="10.00" fill="#000000">libbsn/goalmodel/Goal.hpp</text>
</a>
</g>
</g>
<!-- Node0&#45;&gt;Node6 -->
<g id="edge10" class="edge">
<title>Node0&#45;&gt;Node6</title>
<path fill="none" stroke="#191970" d="M154.3933,-168.2977C147.2402,-159.672 138.2503,-148.8312 130.7682,-139.8087"/>
<polygon fill="#191970" stroke="#191970" points="133.2433,-137.3103 124.1657,-131.8469 127.855,-141.7787 133.2433,-137.3103"/>
</g>
<!-- Node4&#45;&gt;Node1 -->
<g id="edge5" class="edge">
<title>Node4&#45;&gt;Node1</title>
<path fill="none" stroke="#191970" d="M182.9322,-56.4707C151.2637,-48.0003 103.7374,-35.0396 53.9642,-20.2112"/>
<polygon fill="#191970" stroke="#191970" points="54.9001,-16.838 44.3163,-17.3216 52.8916,-23.5436 54.9001,-16.838"/>
</g>
<!-- Node4&#45;&gt;Node2 -->
<g id="edge6" class="edge">
<title>Node4&#45;&gt;Node2</title>
<path fill="none" stroke="#191970" d="M219,-56.2455C219,-48.9382 219,-38.6944 219,-29.7046"/>
<polygon fill="#191970" stroke="#191970" points="222.5001,-29.6426 219,-19.6427 215.5001,-29.6427 222.5001,-29.6426"/>
</g>
<!-- Node4&#45;&gt;Node3 -->
<g id="edge7" class="edge">
<title>Node4&#45;&gt;Node3</title>
<path fill="none" stroke="#191970" d="M197.6836,-56.3733C177.7784,-47.3838 147.8564,-33.8706 125.44,-23.7471"/>
<polygon fill="#191970" stroke="#191970" points="126.5925,-20.4272 116.0382,-19.5011 123.7113,-26.8068 126.5925,-20.4272"/>
</g>
<!-- Node4&#45;&gt;Node5 -->
<g id="edge8" class="edge">
<title>Node4&#45;&gt;Node5</title>
<path fill="none" stroke="#191970" d="M237.4638,-56.2455C254.1074,-47.4527 278.7993,-34.4079 297.7192,-24.4125"/>
<polygon fill="#191970" stroke="#191970" points="299.5408,-27.4086 306.7478,-19.6427 296.2709,-21.2193 299.5408,-27.4086"/>
</g>
<!-- Node6&#45;&gt;Node1 -->
<g id="edge11" class="edge">
<title>Node6&#45;&gt;Node1</title>
<path fill="none" stroke="#191970" d="M107.9856,-112.4509C92.1688,-93.6054 56.7337,-51.3849 36.6387,-27.4419"/>
<polygon fill="#191970" stroke="#191970" points="39.1038,-24.9346 29.9941,-19.5249 33.7419,-29.4347 39.1038,-24.9346"/>
</g>
<!-- Node6&#45;&gt;Node2 -->
<g id="edge12" class="edge">
<title>Node6&#45;&gt;Node2</title>
<path fill="none" stroke="#191970" d="M116.4831,-112.4333C117.6429,-98.578 121.5874,-72.7555 135,-56 148.0629,-39.6814 168.5539,-28.2968 186.0268,-20.9357"/>
<polygon fill="#191970" stroke="#191970" points="187.3397,-24.1804 195.3572,-17.2544 184.7705,-17.6689 187.3397,-24.1804"/>
</g>
<!-- Node6&#45;&gt;Node3 -->
<g id="edge13" class="edge">
<title>Node6&#45;&gt;Node3</title>
<path fill="none" stroke="#191970" d="M112.4478,-112.2683C109.2255,-103.0515 104.5942,-88.7615 102,-76 98.9108,-60.8039 97.1351,-43.3454 96.1456,-30.2026"/>
<polygon fill="#191970" stroke="#191970" points="99.6185,-29.6761 95.4651,-19.9293 92.6338,-30.1387 99.6185,-29.6761"/>
</g>
<!-- Node6&#45;&gt;Node4 -->
<g id="edge14" class="edge">
<title>Node6&#45;&gt;Node4</title>
<path fill="none" stroke="#191970" d="M133.9412,-112.2455C150.04,-103.4928 173.8879,-90.527 192.2391,-80.5496"/>
<polygon fill="#191970" stroke="#191970" points="194.1507,-83.4942 201.2644,-75.6427 190.8071,-77.3444 194.1507,-83.4942"/>
</g>
</g>
</svg>
