<?xml version="1.0" encoding="UTF-8" standalone="no"?>
<!DOCTYPE svg PUBLIC "-//W3C//DTD SVG 1.1//EN"
 "http://www.w3.org/Graphics/SVG/1.1/DTD/svg11.dtd">
<!-- Generated by graphviz version 2.40.1 (20161225.0304)
 -->
<!-- Title: src/libbsn/test/unit/goalmodel/TaskTest.cpp Pages: 1 -->
<svg width="948pt" height="319pt"
 viewBox="0.00 0.00 947.50 319.00" xmlns="http://www.w3.org/2000/svg" xmlns:xlink="http://www.w3.org/1999/xlink">
<g id="graph0" class="graph" transform="scale(1 1) rotate(0) translate(4 315)">
<title>src/libbsn/test/unit/goalmodel/TaskTest.cpp</title>
<polygon fill="#ffffff" stroke="transparent" points="-4,4 -4,-315 943.5,-315 943.5,4 -4,4"/>
<!-- Node0 -->
<g id="node1" class="node">
<title>Node0</title>
<polygon fill="#bfbfbf" stroke="#000000" points="335,-280.5 335,-310.5 471,-310.5 471,-280.5 335,-280.5"/>
<text text-anchor="start" x="343" y="-298.5" font-family="Helvetica,sans-Serif" font-size="10.00" fill="#000000">src/libbsn/test/unit</text>
<text text-anchor="middle" x="403" y="-287.5" font-family="Helvetica,sans-Serif" font-size="10.00" fill="#000000">/goalmodel/TaskTest.cpp</text>
</g>
<!-- Node1 -->
<g id="node2" class="node">
<title>Node1</title>
<polygon fill="#ffffff" stroke="#bfbfbf" points="0,-224.5 0,-243.5 78,-243.5 78,-224.5 0,-224.5"/>
<text text-anchor="middle" x="39" y="-231.5" font-family="Helvetica,sans-Serif" font-size="10.00" fill="#000000">gtest/gtest.h</text>
</g>
<!-- Node0&#45;&gt;Node1 -->
<g id="edge1" class="edge">
<title>Node0&#45;&gt;Node1</title>
<path fill="none" stroke="#191970" d="M334.9765,-284.685C271.9198,-274.553 175.5289,-258.7942 92,-244 90.7293,-243.7749 89.4419,-243.5451 88.1431,-243.3118"/>
<polygon fill="#191970" stroke="#191970" points="88.5222,-239.8232 78.0564,-241.4716 87.2658,-246.7096 88.5222,-239.8232"/>
</g>
<!-- Node2 -->
<g id="node3" class="node">
<title>Node2</title>
<polygon fill="#ffffff" stroke="#bfbfbf" points="115,-.5 115,-19.5 173,-19.5 173,-.5 115,-.5"/>
<text text-anchor="middle" x="144" y="-7.5" font-family="Helvetica,sans-Serif" font-size="10.00" fill="#000000">memory</text>
</g>
<!-- Node0&#45;&gt;Node2 -->
<g id="edge2" class="edge">
<title>Node0&#45;&gt;Node2</title>
<path fill="none" stroke="#191970" d="M334.8622,-282.7011C247.1776,-264.2467 106,-226.9356 106,-178 106,-178 106,-178 106,-122 106,-87.6118 122.2634,-50.2832 133.511,-28.5791"/>
<polygon fill="#191970" stroke="#191970" points="136.7317,-29.9804 138.393,-19.5166 130.569,-26.6605 136.7317,-29.9804"/>
</g>
<!-- Node3 -->
<g id="node4" class="node">
<title>Node3</title>
<g id="a_node4"><a xlink:href="Context_8hpp.html" target="_top" xlink:title="libbsn/goalmodel/Context.hpp">
<polygon fill="#ffffff" stroke="#000000" points="776.5,-168.5 776.5,-187.5 939.5,-187.5 939.5,-168.5 776.5,-168.5"/>
<text text-anchor="middle" x="858" y="-175.5" font-family="Helvetica,sans-Serif" font-size="10.00" fill="#000000">libbsn/goalmodel/Context.hpp</text>
</a>
</g>
</g>
<!-- Node0&#45;&gt;Node3 -->
<g id="edge3" class="edge">
<title>Node0&#45;&gt;Node3</title>
<path fill="none" stroke="#191970" d="M471.1384,-285.0044C525.0269,-276.0464 601.9285,-261.7986 668,-244 723.8678,-228.9501 787.0105,-205.7333 824.6069,-191.2262"/>
<polygon fill="#191970" stroke="#191970" points="825.9964,-194.4413 834.0505,-187.5578 823.4617,-187.9163 825.9964,-194.4413"/>
</g>
<!-- Node5 -->
<g id="node6" class="node">
<title>Node5</title>
<g id="a_node6"><a xlink:href="Property_8hpp.html" target="_top" xlink:title="libbsn/goalmodel/Property.hpp">
<polygon fill="#ffffff" stroke="#000000" points="594,-168.5 594,-187.5 758,-187.5 758,-168.5 594,-168.5"/>
<text text-anchor="middle" x="676" y="-175.5" font-family="Helvetica,sans-Serif" font-size="10.00" fill="#000000">libbsn/goalmodel/Property.hpp</text>
</a>
</g>
</g>
<!-- Node0&#45;&gt;Node5 -->
<g id="edge5" class="edge">
<title>Node0&#45;&gt;Node5</title>
<path fill="none" stroke="#191970" d="M471.2254,-288.12C533.7333,-280.1321 620.4568,-265.5702 647,-244 661.2248,-232.4402 668.6652,-212.5064 672.4281,-197.563"/>
<polygon fill="#191970" stroke="#191970" points="675.856,-198.2707 674.5626,-187.7551 669.0161,-196.782 675.856,-198.2707"/>
</g>
<!-- Node6 -->
<g id="node7" class="node">
<title>Node6</title>
<g id="a_node7"><a xlink:href="Task_8hpp.html" target="_top" xlink:title="libbsn/goalmodel/Task.hpp">
<polygon fill="#ffffff" stroke="#000000" points="255,-168.5 255,-187.5 401,-187.5 401,-168.5 255,-168.5"/>
<text text-anchor="middle" x="328" y="-175.5" font-family="Helvetica,sans-Serif" font-size="10.00" fill="#000000">libbsn/goalmodel/Task.hpp</text>
</a>
</g>
</g>
<!-- Node0&#45;&gt;Node6 -->
<g id="edge7" class="edge">
<title>Node0&#45;&gt;Node6</title>
<path fill="none" stroke="#191970" d="M393.1951,-280.1389C379.3754,-258.4881 354.2178,-219.0745 339.5228,-196.0525"/>
<polygon fill="#191970" stroke="#191970" points="342.4324,-194.1056 334.1018,-187.5595 336.532,-197.8719 342.4324,-194.1056"/>
</g>
<!-- Node9 -->
<g id="node10" class="node">
<title>Node9</title>
<g id="a_node10"><a xlink:href="Node_8hpp.html" target="_top" xlink:title="libbsn/goalmodel/Node.hpp">
<polygon fill="#ffffff" stroke="#000000" points="210,-56.5 210,-75.5 360,-75.5 360,-56.5 210,-56.5"/>
<text text-anchor="middle" x="285" y="-63.5" font-family="Helvetica,sans-Serif" font-size="10.00" fill="#000000">libbsn/goalmodel/Node.hpp</text>
</a>
</g>
</g>
<!-- Node0&#45;&gt;Node9 -->
<g id="edge28" class="edge">
<title>Node0&#45;&gt;Node9</title>
<path fill="none" stroke="#191970" d="M361.9344,-280.4432C324.0997,-264.1068 270.2656,-234.0237 246,-188 227.6194,-153.1381 253.3824,-108.0717 270.9759,-83.6401"/>
<polygon fill="#191970" stroke="#191970" points="273.7851,-85.7278 276.9912,-75.6297 268.1876,-81.5245 273.7851,-85.7278"/>
</g>
<!-- Node10 -->
<g id="node11" class="node">
<title>Node10</title>
<g id="a_node11"><a xlink:href="Goal_8hpp.html" target="_top" xlink:title="libbsn/goalmodel/Goal.hpp">
<polygon fill="#ffffff" stroke="#000000" points="352.5,-112.5 352.5,-131.5 499.5,-131.5 499.5,-112.5 352.5,-112.5"/>
<text text-anchor="middle" x="426" y="-119.5" font-family="Helvetica,sans-Serif" font-size="10.00" fill="#000000">libbsn/goalmodel/Goal.hpp</text>
</a>
</g>
</g>
<!-- Node0&#45;&gt;Node10 -->
<g id="edge29" class="edge">
<title>Node0&#45;&gt;Node10</title>
<path fill="none" stroke="#191970" d="M405.0009,-280.4065C409.1626,-249.0126 418.7492,-176.6961 423.3895,-141.6925"/>
<polygon fill="#191970" stroke="#191970" points="426.8645,-142.1113 424.7091,-131.738 419.9252,-141.1913 426.8645,-142.1113"/>
</g>
<!-- Node11 -->
<g id="node12" class="node">
<title>Node11</title>
<g id="a_node12"><a xlink:href="LeafTask_8hpp.html" target="_top" xlink:title="libbsn/goalmodel/LeafTask.hpp">
<polygon fill="#ffffff" stroke="#000000" points="470.5,-224.5 470.5,-243.5 637.5,-243.5 637.5,-224.5 470.5,-224.5"/>
<text text-anchor="middle" x="554" y="-231.5" font-family="Helvetica,sans-Serif" font-size="10.00" fill="#000000">libbsn/goalmodel/LeafTask.hpp</text>
</a>
</g>
</g>
<!-- Node0&#45;&gt;Node11 -->
<g id="edge22" class="edge">
<title>Node0&#45;&gt;Node11</title>
<path fill="none" stroke="#191970" d="M439.9388,-280.4554C464.802,-270.329 497.2918,-257.0964 521.2336,-247.3453"/>
<polygon fill="#191970" stroke="#191970" points="522.6593,-250.5438 530.6004,-243.5303 520.0188,-244.0609 522.6593,-250.5438"/>
</g>
<!-- Node4 -->
<g id="node5" class="node">
<title>Node4</title>
<polygon fill="#ffffff" stroke="#bfbfbf" points="575,-.5 575,-19.5 619,-19.5 619,-.5 575,-.5"/>
<text text-anchor="middle" x="597" y="-7.5" font-family="Helvetica,sans-Serif" font-size="10.00" fill="#000000">string</text>
</g>
<!-- Node3&#45;&gt;Node4 -->
<g id="edge4" class="edge">
<title>Node3&#45;&gt;Node4</title>
<path fill="none" stroke="#191970" d="M843.2197,-168.4862C799.9846,-140.6567 673.4825,-59.2301 620.6311,-25.2108"/>
<polygon fill="#191970" stroke="#191970" points="622.2447,-22.0871 611.9417,-19.6177 618.456,-27.9732 622.2447,-22.0871"/>
</g>
<!-- Node5&#45;&gt;Node4 -->
<g id="edge6" class="edge">
<title>Node5&#45;&gt;Node4</title>
<path fill="none" stroke="#191970" d="M673.3355,-168.4553C667.262,-147.4057 651.2567,-95.715 630,-56 624.7547,-46.1999 617.7035,-36.0812 611.4656,-27.8379"/>
<polygon fill="#191970" stroke="#191970" points="614.0519,-25.4629 605.1401,-19.733 608.5336,-29.7697 614.0519,-25.4629"/>
</g>
<!-- Node6&#45;&gt;Node2 -->
<g id="edge16" class="edge">
<title>Node6&#45;&gt;Node2</title>
<path fill="none" stroke="#191970" d="M294.7235,-168.4955C273.1294,-161.1134 245.3307,-149.2064 225,-132 190.3927,-102.711 164.6951,-55.0274 152.2874,-28.7886"/>
<polygon fill="#191970" stroke="#191970" points="155.4084,-27.1977 148.059,-19.5664 149.0453,-30.1152 155.4084,-27.1977"/>
</g>
<!-- Node6&#45;&gt;Node4 -->
<g id="edge8" class="edge">
<title>Node6&#45;&gt;Node4</title>
<path fill="none" stroke="#191970" d="M382.3642,-168.428C427.846,-159.6575 488.4925,-145.9515 509,-132 547.8674,-105.5579 575.5841,-55.9832 588.6148,-28.88"/>
<polygon fill="#191970" stroke="#191970" points="591.846,-30.2318 592.8825,-19.6878 585.4969,-27.2841 591.846,-30.2318"/>
</g>
<!-- Node7 -->
<g id="node8" class="node">
<title>Node7</title>
<polygon fill="#ffffff" stroke="#bfbfbf" points="402.5,-.5 402.5,-19.5 449.5,-19.5 449.5,-.5 402.5,-.5"/>
<text text-anchor="middle" x="426" y="-7.5" font-family="Helvetica,sans-Serif" font-size="10.00" fill="#000000">vector</text>
</g>
<!-- Node6&#45;&gt;Node7 -->
<g id="edge9" class="edge">
<title>Node6&#45;&gt;Node7</title>
<path fill="none" stroke="#191970" d="M329.0258,-168.1466C330.7091,-154.8309 334.8346,-130.6169 344,-112 352.9773,-93.7652 389.4553,-51.201 410.6118,-27.2185"/>
<polygon fill="#191970" stroke="#191970" points="413.3688,-29.3847 417.3859,-19.5809 408.1319,-24.7398 413.3688,-29.3847"/>
</g>
<!-- Node8 -->
<g id="node9" class="node">
<title>Node8</title>
<polygon fill="#ffffff" stroke="#bfbfbf" points="252.5,-.5 252.5,-19.5 317.5,-19.5 317.5,-.5 252.5,-.5"/>
<text text-anchor="middle" x="285" y="-7.5" font-family="Helvetica,sans-Serif" font-size="10.00" fill="#000000">stdexcept</text>
</g>
<!-- Node6&#45;&gt;Node8 -->
<g id="edge10" class="edge">
<title>Node6&#45;&gt;Node8</title>
<path fill="none" stroke="#191970" d="M306.6344,-168.3807C276.5544,-153.5038 222.9455,-121.7726 201,-76 189.5743,-52.1689 216.8959,-34.4185 243.3684,-23.3633"/>
<polygon fill="#191970" stroke="#191970" points="244.9703,-26.4951 253.0097,-19.5944 242.4217,-19.9755 244.9703,-26.4951"/>
</g>
<!-- Node6&#45;&gt;Node9 -->
<g id="edge11" class="edge">
<title>Node6&#45;&gt;Node9</title>
<path fill="none" stroke="#191970" d="M324.2466,-168.497C320.5841,-159.2035 314.8687,-144.6448 310,-132 303.9553,-116.3008 297.2035,-98.4571 292.2417,-85.2849"/>
<polygon fill="#191970" stroke="#191970" points="295.4904,-83.9803 288.6939,-75.8528 288.9386,-86.4448 295.4904,-83.9803"/>
</g>
<!-- Node6&#45;&gt;Node10 -->
<g id="edge17" class="edge">
<title>Node6&#45;&gt;Node10</title>
<path fill="none" stroke="#191970" d="M345.0703,-168.2455C360.247,-159.5731 382.6621,-146.7645 400.0563,-136.825"/>
<polygon fill="#191970" stroke="#191970" points="402.1794,-139.643 409.1253,-131.6427 398.7064,-133.5653 402.1794,-139.643"/>
</g>
<!-- Node9&#45;&gt;Node2 -->
<g id="edge15" class="edge">
<title>Node9&#45;&gt;Node2</title>
<path fill="none" stroke="#191970" d="M260.7612,-56.3733C237.7211,-47.2226 202.8786,-33.3844 177.2499,-23.2057"/>
<polygon fill="#191970" stroke="#191970" points="178.5082,-19.9395 167.9225,-19.5011 175.9244,-26.4452 178.5082,-19.9395"/>
</g>
<!-- Node9&#45;&gt;Node4 -->
<g id="edge12" class="edge">
<title>Node9&#45;&gt;Node4</title>
<path fill="none" stroke="#191970" d="M338.2802,-56.4369C403.3838,-44.7516 511.4543,-25.3544 564.9593,-15.7509"/>
<polygon fill="#191970" stroke="#191970" points="565.6795,-19.1776 574.9039,-13.966 564.4428,-12.2877 565.6795,-19.1776"/>
</g>
<!-- Node9&#45;&gt;Node7 -->
<g id="edge13" class="edge">
<title>Node9&#45;&gt;Node7</title>
<path fill="none" stroke="#191970" d="M309.2388,-56.3733C332.2789,-47.2226 367.1214,-33.3844 392.7501,-23.2057"/>
<polygon fill="#191970" stroke="#191970" points="394.0756,-26.4452 402.0775,-19.5011 391.4918,-19.9395 394.0756,-26.4452"/>
</g>
<!-- Node9&#45;&gt;Node8 -->
<g id="edge14" class="edge">
<title>Node9&#45;&gt;Node8</title>
<path fill="none" stroke="#191970" d="M285,-56.2455C285,-48.9382 285,-38.6944 285,-29.7046"/>
<polygon fill="#191970" stroke="#191970" points="288.5001,-29.6426 285,-19.6427 281.5001,-29.6427 288.5001,-29.6426"/>
</g>
<!-- Node10&#45;&gt;Node4 -->
<g id="edge18" class="edge">
<title>Node10&#45;&gt;Node4</title>
<path fill="none" stroke="#191970" d="M440.5794,-112.4509C470.2359,-93.0268 537.806,-48.7703 573.6562,-25.2895"/>
<polygon fill="#191970" stroke="#191970" points="576.0098,-27.9319 582.4575,-19.5249 572.1744,-22.0761 576.0098,-27.9319"/>
</g>
<!-- Node10&#45;&gt;Node7 -->
<g id="edge19" class="edge">
<title>Node10&#45;&gt;Node7</title>
<path fill="none" stroke="#191970" d="M429.8624,-112.3228C433.3038,-103.1446 438.0833,-88.8807 440,-76 442.3436,-60.2507 438.2507,-42.6175 433.8962,-29.5419"/>
<polygon fill="#191970" stroke="#191970" points="437.0421,-27.9548 430.3123,-19.7718 430.4703,-30.3654 437.0421,-27.9548"/>
</g>
<!-- Node10&#45;&gt;Node8 -->
<g id="edge20" class="edge">
<title>Node10&#45;&gt;Node8</title>
<path fill="none" stroke="#191970" d="M419.1872,-112.0702C409.3295,-98.231 389.9597,-72.9398 369,-56 353.1095,-43.1572 333.1197,-32.0448 316.6274,-23.9608"/>
<polygon fill="#191970" stroke="#191970" points="317.9124,-20.6963 307.3786,-19.5608 314.9052,-27.0174 317.9124,-20.6963"/>
</g>
<!-- Node10&#45;&gt;Node9 -->
<g id="edge21" class="edge">
<title>Node10&#45;&gt;Node9</title>
<path fill="none" stroke="#191970" d="M401.7612,-112.3733C378.7211,-103.2226 343.8786,-89.3844 318.2499,-79.2057"/>
<polygon fill="#191970" stroke="#191970" points="319.5082,-75.9395 308.9225,-75.5011 316.9244,-82.4452 319.5082,-75.9395"/>
</g>
<!-- Node11&#45;&gt;Node3 -->
<g id="edge25" class="edge">
<title>Node11&#45;&gt;Node3</title>
<path fill="none" stroke="#191970" d="M605.914,-224.4369C658.5971,-214.7321 740.1568,-199.708 796.1543,-189.3926"/>
<polygon fill="#191970" stroke="#191970" points="797.0996,-192.7775 806.3001,-187.5237 795.8314,-185.8933 797.0996,-192.7775"/>
</g>
<!-- Node11&#45;&gt;Node4 -->
<g id="edge23" class="edge">
<title>Node11&#45;&gt;Node4</title>
<path fill="none" stroke="#191970" d="M555.8477,-224.375C562.3671,-190.4133 584.3789,-75.7472 593.2492,-29.5392"/>
<polygon fill="#191970" stroke="#191970" points="596.7112,-30.0697 595.1592,-19.5891 589.8367,-28.75 596.7112,-30.0697"/>
</g>
<!-- Node11&#45;&gt;Node5 -->
<g id="edge26" class="edge">
<title>Node11&#45;&gt;Node5</title>
<path fill="none" stroke="#191970" d="M574.9725,-224.3733C594.5567,-215.3838 623.9961,-201.8706 646.051,-191.7471"/>
<polygon fill="#191970" stroke="#191970" points="647.6729,-194.8538 655.3011,-187.5011 644.7527,-188.4919 647.6729,-194.8538"/>
</g>
<!-- Node11&#45;&gt;Node6 -->
<g id="edge27" class="edge">
<title>Node11&#45;&gt;Node6</title>
<path fill="none" stroke="#191970" d="M515.406,-224.4369C476.9716,-214.9133 417.864,-200.2672 376.329,-189.9753"/>
<polygon fill="#191970" stroke="#191970" points="376.9831,-186.5316 366.4348,-187.5237 375.2994,-193.3261 376.9831,-186.5316"/>
</g>
<!-- Node11&#45;&gt;Node7 -->
<g id="edge24" class="edge">
<title>Node11&#45;&gt;Node7</title>
<path fill="none" stroke="#191970" d="M551.6103,-224.353C546.1012,-203.0992 531.2527,-151.0268 509,-112 490.2985,-79.2014 461.1224,-46.2126 442.8091,-26.9666"/>
<polygon fill="#191970" stroke="#191970" points="445.1548,-24.3573 435.6879,-19.6003 440.122,-29.2226 445.1548,-24.3573"/>
</g>
</g>
</svg>
