<?xml version="1.0" encoding="UTF-8" standalone="no"?>
<!DOCTYPE svg PUBLIC "-//W3C//DTD SVG 1.1//EN"
 "http://www.w3.org/Graphics/SVG/1.1/DTD/svg11.dtd">
<!-- Generated by graphviz version 2.40.1 (20161225.0304)
 -->
<!-- Title: src/libbsn/include/libbsn/time/TimeData.hpp Pages: 1 -->
<svg width="494pt" height="95pt"
 viewBox="0.00 0.00 494.00 95.00" xmlns="http://www.w3.org/2000/svg" xmlns:xlink="http://www.w3.org/1999/xlink">
<g id="graph0" class="graph" transform="scale(1 1) rotate(0) translate(4 91)">
<title>src/libbsn/include/libbsn/time/TimeData.hpp</title>
<polygon fill="#ffffff" stroke="transparent" points="-4,4 -4,-91 490,-91 490,4 -4,4"/>
<!-- Node0 -->
<g id="node1" class="node">
<title>Node0</title>
<polygon fill="#bfbfbf" stroke="#000000" points="173,-56.5 173,-86.5 319,-86.5 319,-56.5 173,-56.5"/>
<text text-anchor="start" x="181" y="-74.5" font-family="Helvetica,sans-Serif" font-size="10.00" fill="#000000">src/libbsn/include</text>
<text text-anchor="middle" x="246" y="-63.5" font-family="Helvetica,sans-Serif" font-size="10.00" fill="#000000">/libbsn/time/TimeData.hpp</text>
</g>
<!-- Node1 -->
<g id="node2" class="node">
<title>Node1</title>
<polygon fill="#ffffff" stroke="#bfbfbf" points="0,-.5 0,-19.5 50,-19.5 50,-.5 0,-.5"/>
<text text-anchor="middle" x="25" y="-7.5" font-family="Helvetica,sans-Serif" font-size="10.00" fill="#000000">stdio.h</text>
</g>
<!-- Node0&#45;&gt;Node1 -->
<g id="edge1" class="edge">
<title>Node0&#45;&gt;Node1</title>
<path fill="none" stroke="#191970" d="M190.2884,-56.428C155.3956,-46.9258 109.2488,-34.2462 60.1035,-20.2843"/>
<polygon fill="#191970" stroke="#191970" points="60.8131,-16.8473 50.2369,-17.4754 58.8964,-23.5798 60.8131,-16.8473"/>
</g>
<!-- Node2 -->
<g id="node3" class="node">
<title>Node2</title>
<polygon fill="#ffffff" stroke="#bfbfbf" points="68,-.5 68,-19.5 136,-19.5 136,-.5 68,-.5"/>
<text text-anchor="middle" x="102" y="-7.5" font-family="Helvetica,sans-Serif" font-size="10.00" fill="#000000">sys/time.h</text>
</g>
<!-- Node0&#45;&gt;Node2 -->
<g id="edge2" class="edge">
<title>Node0&#45;&gt;Node2</title>
<path fill="none" stroke="#191970" d="M210.7736,-56.4554C187.1684,-46.374 156.3546,-33.2139 133.5524,-23.4755"/>
<polygon fill="#191970" stroke="#191970" points="134.886,-20.2393 124.3149,-19.5303 132.1366,-26.6767 134.886,-20.2393"/>
</g>
<!-- Node3 -->
<g id="node4" class="node">
<title>Node3</title>
<polygon fill="#ffffff" stroke="#bfbfbf" points="154,-.5 154,-19.5 202,-19.5 202,-.5 154,-.5"/>
<text text-anchor="middle" x="178" y="-7.5" font-family="Helvetica,sans-Serif" font-size="10.00" fill="#000000">time.h</text>
</g>
<!-- Node0&#45;&gt;Node3 -->
<g id="edge3" class="edge">
<title>Node0&#45;&gt;Node3</title>
<path fill="none" stroke="#191970" d="M229.191,-56.2977C219.2603,-47.3163 206.6743,-35.9334 196.4673,-26.702"/>
<polygon fill="#191970" stroke="#191970" points="198.652,-23.9588 188.8877,-19.8469 193.9566,-29.1505 198.652,-23.9588"/>
</g>
<!-- Node4 -->
<g id="node5" class="node">
<title>Node4</title>
<polygon fill="#ffffff" stroke="#bfbfbf" points="220.5,-.5 220.5,-19.5 271.5,-19.5 271.5,-.5 220.5,-.5"/>
<text text-anchor="middle" x="246" y="-7.5" font-family="Helvetica,sans-Serif" font-size="10.00" fill="#000000">math.h</text>
</g>
<!-- Node0&#45;&gt;Node4 -->
<g id="edge4" class="edge">
<title>Node0&#45;&gt;Node4</title>
<path fill="none" stroke="#191970" d="M246,-56.2977C246,-48.3834 246,-38.6043 246,-30.0759"/>
<polygon fill="#191970" stroke="#191970" points="249.5001,-29.8469 246,-19.8469 242.5001,-29.847 249.5001,-29.8469"/>
</g>
<!-- Node5 -->
<g id="node6" class="node">
<title>Node5</title>
<polygon fill="#ffffff" stroke="#bfbfbf" points="290,-.5 290,-19.5 334,-19.5 334,-.5 290,-.5"/>
<text text-anchor="middle" x="312" y="-7.5" font-family="Helvetica,sans-Serif" font-size="10.00" fill="#000000">string</text>
</g>
<!-- Node0&#45;&gt;Node5 -->
<g id="edge5" class="edge">
<title>Node0&#45;&gt;Node5</title>
<path fill="none" stroke="#191970" d="M262.3146,-56.2977C271.9533,-47.3163 284.1691,-35.9334 294.0759,-26.702"/>
<polygon fill="#191970" stroke="#191970" points="296.5025,-29.2249 301.4326,-19.8469 291.7304,-24.1036 296.5025,-29.2249"/>
</g>
<!-- Node6 -->
<g id="node7" class="node">
<title>Node6</title>
<polygon fill="#ffffff" stroke="#bfbfbf" points="352,-.5 352,-19.5 412,-19.5 412,-.5 352,-.5"/>
<text text-anchor="middle" x="382" y="-7.5" font-family="Helvetica,sans-Serif" font-size="10.00" fill="#000000">iostream</text>
</g>
<!-- Node0&#45;&gt;Node6 -->
<g id="edge6" class="edge">
<title>Node0&#45;&gt;Node6</title>
<path fill="none" stroke="#191970" d="M279.2693,-56.4554C301.3641,-46.464 330.146,-33.4487 351.6219,-23.7372"/>
<polygon fill="#191970" stroke="#191970" points="353.2553,-26.8398 360.9248,-19.5303 350.371,-20.4616 353.2553,-26.8398"/>
</g>
<!-- Node7 -->
<g id="node8" class="node">
<title>Node7</title>
<polygon fill="#ffffff" stroke="#bfbfbf" points="430,-.5 430,-19.5 486,-19.5 486,-.5 430,-.5"/>
<text text-anchor="middle" x="458" y="-7.5" font-family="Helvetica,sans-Serif" font-size="10.00" fill="#000000">unistd.h</text>
</g>
<!-- Node0&#45;&gt;Node7 -->
<g id="edge7" class="edge">
<title>Node0&#45;&gt;Node7</title>
<path fill="none" stroke="#191970" d="M297.861,-56.4554C335.5207,-45.5305 385.6431,-30.9903 419.7129,-21.1069"/>
<polygon fill="#191970" stroke="#191970" points="421.1104,-24.3458 429.7393,-18.1983 419.1601,-17.623 421.1104,-24.3458"/>
</g>
</g>
</svg>
