<?xml version="1.0" encoding="UTF-8" standalone="no"?>
<!DOCTYPE svg PUBLIC "-//W3C//DTD SVG 1.1//EN"
 "http://www.w3.org/Graphics/SVG/1.1/DTD/svg11.dtd">
<!-- Generated by graphviz version 2.40.1 (20161225.0304)
 -->
<!-- Title: src/libbsn/src/time/TimeData.cpp Pages: 1 -->
<svg width="494pt" height="151pt"
 viewBox="0.00 0.00 494.00 151.00" xmlns="http://www.w3.org/2000/svg" xmlns:xlink="http://www.w3.org/1999/xlink">
<g id="graph0" class="graph" transform="scale(1 1) rotate(0) translate(4 147)">
<title>src/libbsn/src/time/TimeData.cpp</title>
<polygon fill="#ffffff" stroke="transparent" points="-4,4 -4,-147 490,-147 490,4 -4,4"/>
<!-- Node0 -->
<g id="node1" class="node">
<title>Node0</title>
<polygon fill="#bfbfbf" stroke="#000000" points="193,-112.5 193,-142.5 299,-142.5 299,-112.5 193,-112.5"/>
<text text-anchor="start" x="201" y="-130.5" font-family="Helvetica,sans-Serif" font-size="10.00" fill="#000000">src/libbsn/src/time</text>
<text text-anchor="middle" x="246" y="-119.5" font-family="Helvetica,sans-Serif" font-size="10.00" fill="#000000">/TimeData.cpp</text>
</g>
<!-- Node1 -->
<g id="node2" class="node">
<title>Node1</title>
<g id="a_node2"><a xlink:href="TimeData_8hpp.html" target="_top" xlink:title="libbsn/time/TimeData.hpp">
<polygon fill="#ffffff" stroke="#000000" points="174.5,-56.5 174.5,-75.5 317.5,-75.5 317.5,-56.5 174.5,-56.5"/>
<text text-anchor="middle" x="246" y="-63.5" font-family="Helvetica,sans-Serif" font-size="10.00" fill="#000000">libbsn/time/TimeData.hpp</text>
</a>
</g>
</g>
<!-- Node0&#45;&gt;Node1 -->
<g id="edge1" class="edge">
<title>Node0&#45;&gt;Node1</title>
<path fill="none" stroke="#191970" d="M246,-112.2977C246,-104.3834 246,-94.6043 246,-86.0759"/>
<polygon fill="#191970" stroke="#191970" points="249.5001,-85.8469 246,-75.8469 242.5001,-85.847 249.5001,-85.8469"/>
</g>
<!-- Node2 -->
<g id="node3" class="node">
<title>Node2</title>
<polygon fill="#ffffff" stroke="#bfbfbf" points="0,-.5 0,-19.5 50,-19.5 50,-.5 0,-.5"/>
<text text-anchor="middle" x="25" y="-7.5" font-family="Helvetica,sans-Serif" font-size="10.00" fill="#000000">stdio.h</text>
</g>
<!-- Node1&#45;&gt;Node2 -->
<g id="edge2" class="edge">
<title>Node1&#45;&gt;Node2</title>
<path fill="none" stroke="#191970" d="M205.0079,-56.4752C169.1814,-48.0259 115.537,-35.0751 60.1981,-20.2442"/>
<polygon fill="#191970" stroke="#191970" points="60.7817,-16.7766 50.2154,-17.553 58.9596,-23.5353 60.7817,-16.7766"/>
</g>
<!-- Node3 -->
<g id="node4" class="node">
<title>Node3</title>
<polygon fill="#ffffff" stroke="#bfbfbf" points="68,-.5 68,-19.5 136,-19.5 136,-.5 68,-.5"/>
<text text-anchor="middle" x="102" y="-7.5" font-family="Helvetica,sans-Serif" font-size="10.00" fill="#000000">sys/time.h</text>
</g>
<!-- Node1&#45;&gt;Node3 -->
<g id="edge3" class="edge">
<title>Node1&#45;&gt;Node3</title>
<path fill="none" stroke="#191970" d="M221.2455,-56.3733C197.7151,-47.2226 162.1313,-33.3844 135.9574,-23.2057"/>
<polygon fill="#191970" stroke="#191970" points="137.0201,-19.8636 126.4315,-19.5011 134.4829,-26.3877 137.0201,-19.8636"/>
</g>
<!-- Node4 -->
<g id="node5" class="node">
<title>Node4</title>
<polygon fill="#ffffff" stroke="#bfbfbf" points="154,-.5 154,-19.5 202,-19.5 202,-.5 154,-.5"/>
<text text-anchor="middle" x="178" y="-7.5" font-family="Helvetica,sans-Serif" font-size="10.00" fill="#000000">time.h</text>
</g>
<!-- Node1&#45;&gt;Node4 -->
<g id="edge4" class="edge">
<title>Node1&#45;&gt;Node4</title>
<path fill="none" stroke="#191970" d="M234.1553,-56.2455C224.112,-47.9746 209.5005,-35.9416 197.6996,-26.2232"/>
<polygon fill="#191970" stroke="#191970" points="199.6533,-23.298 189.709,-19.6427 195.2033,-28.7015 199.6533,-23.298"/>
</g>
<!-- Node5 -->
<g id="node6" class="node">
<title>Node5</title>
<polygon fill="#ffffff" stroke="#bfbfbf" points="220.5,-.5 220.5,-19.5 271.5,-19.5 271.5,-.5 220.5,-.5"/>
<text text-anchor="middle" x="246" y="-7.5" font-family="Helvetica,sans-Serif" font-size="10.00" fill="#000000">math.h</text>
</g>
<!-- Node1&#45;&gt;Node5 -->
<g id="edge5" class="edge">
<title>Node1&#45;&gt;Node5</title>
<path fill="none" stroke="#191970" d="M246,-56.2455C246,-48.9382 246,-38.6944 246,-29.7046"/>
<polygon fill="#191970" stroke="#191970" points="249.5001,-29.6426 246,-19.6427 242.5001,-29.6427 249.5001,-29.6426"/>
</g>
<!-- Node6 -->
<g id="node7" class="node">
<title>Node6</title>
<polygon fill="#ffffff" stroke="#bfbfbf" points="290,-.5 290,-19.5 334,-19.5 334,-.5 290,-.5"/>
<text text-anchor="middle" x="312" y="-7.5" font-family="Helvetica,sans-Serif" font-size="10.00" fill="#000000">string</text>
</g>
<!-- Node1&#45;&gt;Node6 -->
<g id="edge6" class="edge">
<title>Node1&#45;&gt;Node6</title>
<path fill="none" stroke="#191970" d="M257.4963,-56.2455C267.2442,-47.9746 281.4259,-35.9416 292.8798,-26.2232"/>
<polygon fill="#191970" stroke="#191970" points="295.2747,-28.7813 300.6354,-19.6427 290.7459,-23.4437 295.2747,-28.7813"/>
</g>
<!-- Node7 -->
<g id="node8" class="node">
<title>Node7</title>
<polygon fill="#ffffff" stroke="#bfbfbf" points="352,-.5 352,-19.5 412,-19.5 412,-.5 352,-.5"/>
<text text-anchor="middle" x="382" y="-7.5" font-family="Helvetica,sans-Serif" font-size="10.00" fill="#000000">iostream</text>
</g>
<!-- Node1&#45;&gt;Node7 -->
<g id="edge7" class="edge">
<title>Node1&#45;&gt;Node7</title>
<path fill="none" stroke="#191970" d="M269.3792,-56.3733C291.5045,-47.2629 324.9134,-33.5062 349.6019,-23.3404"/>
<polygon fill="#191970" stroke="#191970" points="351.0117,-26.5451 358.9258,-19.5011 348.3464,-20.0723 351.0117,-26.5451"/>
</g>
<!-- Node8 -->
<g id="node9" class="node">
<title>Node8</title>
<polygon fill="#ffffff" stroke="#bfbfbf" points="430,-.5 430,-19.5 486,-19.5 486,-.5 430,-.5"/>
<text text-anchor="middle" x="458" y="-7.5" font-family="Helvetica,sans-Serif" font-size="10.00" fill="#000000">unistd.h</text>
</g>
<!-- Node1&#45;&gt;Node8 -->
<g id="edge8" class="edge">
<title>Node1&#45;&gt;Node8</title>
<path fill="none" stroke="#191970" d="M282.5535,-56.4703C315.8954,-47.7604 366.789,-34.422 419.8037,-20.3074"/>
<polygon fill="#191970" stroke="#191970" points="420.9622,-23.6209 429.7237,-17.6638 419.1596,-16.857 420.9622,-23.6209"/>
</g>
</g>
</svg>
