<?xml version="1.0" encoding="UTF-8" standalone="no"?>
<!DOCTYPE svg PUBLIC "-//W3C//DTD SVG 1.1//EN"
 "http://www.w3.org/Graphics/SVG/1.1/DTD/svg11.dtd">
<!-- Generated by graphviz version 2.40.1 (20161225.0304)
 -->
<!-- Title: src/libbsn/include/libbsn/utils/utils.hpp Pages: 1 -->
<svg width="126pt" height="95pt"
 viewBox="0.00 0.00 126.00 95.00" xmlns="http://www.w3.org/2000/svg" xmlns:xlink="http://www.w3.org/1999/xlink">
<g id="graph0" class="graph" transform="scale(1 1) rotate(0) translate(4 91)">
<title>src/libbsn/include/libbsn/utils/utils.hpp</title>
<polygon fill="#ffffff" stroke="transparent" points="-4,4 -4,-91 122,-91 122,4 -4,4"/>
<!-- Node0 -->
<g id="node1" class="node">
<title>Node0</title>
<polygon fill="#bfbfbf" stroke="#000000" points="0,-56.5 0,-86.5 118,-86.5 118,-56.5 0,-56.5"/>
<text text-anchor="start" x="8" y="-74.5" font-family="Helvetica,sans-Serif" font-size="10.00" fill="#000000">src/libbsn/include</text>
<text text-anchor="middle" x="59" y="-63.5" font-family="Helvetica,sans-Serif" font-size="10.00" fill="#000000">/libbsn/utils/utils.hpp</text>
</g>
<!-- Node1 -->
<g id="node2" class="node">
<title>Node1</title>
<polygon fill="#ffffff" stroke="#bfbfbf" points="3.5,-.5 3.5,-19.5 50.5,-19.5 50.5,-.5 3.5,-.5"/>
<text text-anchor="middle" x="27" y="-7.5" font-family="Helvetica,sans-Serif" font-size="10.00" fill="#000000">vector</text>
</g>
<!-- Node0&#45;&gt;Node1 -->
<g id="edge1" class="edge">
<title>Node0&#45;&gt;Node1</title>
<path fill="none" stroke="#191970" d="M51.0899,-56.2977C46.7868,-48.0277 41.4242,-37.7215 36.8518,-28.9339"/>
<polygon fill="#191970" stroke="#191970" points="39.8443,-27.1024 32.1236,-19.8469 33.6346,-30.3335 39.8443,-27.1024"/>
</g>
<!-- Node2 -->
<g id="node3" class="node">
<title>Node2</title>
<polygon fill="#ffffff" stroke="#bfbfbf" points="69,-.5 69,-19.5 113,-19.5 113,-.5 69,-.5"/>
<text text-anchor="middle" x="91" y="-7.5" font-family="Helvetica,sans-Serif" font-size="10.00" fill="#000000">string</text>
</g>
<!-- Node0&#45;&gt;Node2 -->
<g id="edge2" class="edge">
<title>Node0&#45;&gt;Node2</title>
<path fill="none" stroke="#191970" d="M66.9101,-56.2977C71.2132,-48.0277 76.5758,-37.7215 81.1482,-28.9339"/>
<polygon fill="#191970" stroke="#191970" points="84.3654,-30.3335 85.8764,-19.8469 78.1557,-27.1024 84.3654,-30.3335"/>
</g>
</g>
</svg>
