<?xml version="1.0" encoding="UTF-8" standalone="no"?>
<!DOCTYPE svg PUBLIC "-//W3C//DTD SVG 1.1//EN"
 "http://www.w3.org/Graphics/SVG/1.1/DTD/svg11.dtd">
<!-- Generated by graphviz version 2.40.1 (20161225.0304)
 -->
<!-- Title: libbsn/include/resource/Battery.hpp Pages: 1 -->
<svg width="246pt" height="106pt"
 viewBox="0.00 0.00 246.00 106.00" xmlns="http://www.w3.org/2000/svg" xmlns:xlink="http://www.w3.org/1999/xlink">
<g id="graph0" class="graph" transform="scale(1 1) rotate(0) translate(4 102)">
<title>libbsn/include/resource/Battery.hpp</title>
<polygon fill="#ffffff" stroke="transparent" points="-4,4 -4,-102 242,-102 242,4 -4,4"/>
<!-- Node1 -->
<g id="node1" class="node">
<title>Node1</title>
<g id="a_node1"><a xlink:title=" ">
<polygon fill="#bfbfbf" stroke="#000000" points="55.5,-67.5 55.5,-97.5 171.5,-97.5 171.5,-67.5 55.5,-67.5"/>
<text text-anchor="start" x="63.5" y="-85.5" font-family="Helvetica,sans-Serif" font-size="10.00" fill="#000000">libbsn/include/resource</text>
<text text-anchor="middle" x="113.5" y="-74.5" font-family="Helvetica,sans-Serif" font-size="10.00" fill="#000000">/Battery.hpp</text>
</a>
</g>
</g>
<!-- Node2 -->
<g id="node2" class="node">
<title>Node2</title>
<g id="a_node2"><a xlink:href="Battery_8cpp.html" target="_top" xlink:title=" ">
<polygon fill="#ffffff" stroke="#000000" points="0,-.5 0,-30.5 99,-30.5 99,-.5 0,-.5"/>
<text text-anchor="start" x="8" y="-18.5" font-family="Helvetica,sans-Serif" font-size="10.00" fill="#000000">libbsn/src/resource</text>
<text text-anchor="middle" x="49.5" y="-7.5" font-family="Helvetica,sans-Serif" font-size="10.00" fill="#000000">/Battery.cpp</text>
</a>
</g>
</g>
<!-- Node1&#45;&gt;Node2 -->
<g id="edge1" class="edge">
<title>Node1&#45;&gt;Node2</title>
<path fill="none" stroke="#191970" d="M91.9361,-59.9253C82.7254,-50.2828 72.2193,-39.2843 63.9651,-30.6432"/>
<polygon fill="#191970" stroke="#191970" points="89.5392,-62.4831 98.9774,-67.2967 94.601,-57.648 89.5392,-62.4831"/>
</g>
<!-- Node3 -->
<g id="node3" class="node">
<title>Node3</title>
<g id="a_node3"><a xlink:href="ResourcesTest_8cpp.html" target="_top" xlink:title=" ">
<polygon fill="#ffffff" stroke="#000000" points="117,-.5 117,-30.5 238,-30.5 238,-.5 117,-.5"/>
<text text-anchor="start" x="125" y="-18.5" font-family="Helvetica,sans-Serif" font-size="10.00" fill="#000000">libbsn/test/unit/resource</text>
<text text-anchor="middle" x="177.5" y="-7.5" font-family="Helvetica,sans-Serif" font-size="10.00" fill="#000000">/ResourcesTest.cpp</text>
</a>
</g>
</g>
<!-- Node1&#45;&gt;Node3 -->
<g id="edge2" class="edge">
<title>Node1&#45;&gt;Node3</title>
<path fill="none" stroke="#191970" d="M135.0639,-59.9253C144.2746,-50.2828 154.7807,-39.2843 163.0349,-30.6432"/>
<polygon fill="#191970" stroke="#191970" points="132.399,-57.648 128.0226,-67.2967 137.4608,-62.4831 132.399,-57.648"/>
</g>
</g>
</svg>
