<?xml version="1.0" encoding="UTF-8" standalone="no"?>
<!DOCTYPE svg PUBLIC "-//W3C//DTD SVG 1.1//EN"
 "http://www.w3.org/Graphics/SVG/1.1/DTD/svg11.dtd">
<!-- Generated by graphviz version 2.40.1 (20161225.0304)
 -->
<!-- Title: src/target_system/components/component/src/CentralHub.cpp Pages: 1 -->
<svg width="1230pt" height="330pt"
 viewBox="0.00 0.00 1229.58 330.00" xmlns="http://www.w3.org/2000/svg" xmlns:xlink="http://www.w3.org/1999/xlink">
<g id="graph0" class="graph" transform="scale(1 1) rotate(0) translate(4 326)">
<title>src/target_system/components/component/src/CentralHub.cpp</title>
<polygon fill="#ffffff" stroke="transparent" points="-4,4 -4,-326 1225.5825,-326 1225.5825,4 -4,4"/>
<!-- Node1 -->
<g id="node1" class="node">
<title>Node1</title>
<g id="a_node1"><a xlink:title=" ">
<polygon fill="#bfbfbf" stroke="#000000" points="715.5825,-291.5 715.5825,-321.5 870.5825,-321.5 870.5825,-291.5 715.5825,-291.5"/>
<text text-anchor="start" x="723.5825" y="-309.5" font-family="Helvetica,sans-Serif" font-size="10.00" fill="#000000">src/target_system/components</text>
<text text-anchor="middle" x="793.0825" y="-298.5" font-family="Helvetica,sans-Serif" font-size="10.00" fill="#000000">/component/src/CentralHub.cpp</text>
</a>
</g>
</g>
<!-- Node2 -->
<g id="node2" class="node">
<title>Node2</title>
<g id="a_node2"><a xlink:href="CentralHub_8hpp.html" target="_top" xlink:title=" ">
<polygon fill="#ffffff" stroke="#000000" points="725.0825,-235.5 725.0825,-254.5 861.0825,-254.5 861.0825,-235.5 725.0825,-235.5"/>
<text text-anchor="middle" x="793.0825" y="-242.5" font-family="Helvetica,sans-Serif" font-size="10.00" fill="#000000">component/CentralHub.hpp</text>
</a>
</g>
</g>
<!-- Node1&#45;&gt;Node2 -->
<g id="edge1" class="edge">
<title>Node1&#45;&gt;Node2</title>
<path fill="none" stroke="#191970" d="M793.0825,-291.2977C793.0825,-283.3834 793.0825,-273.6043 793.0825,-265.0759"/>
<polygon fill="#191970" stroke="#191970" points="796.5826,-264.8469 793.0825,-254.8469 789.5826,-264.847 796.5826,-264.8469"/>
</g>
<!-- Node3 -->
<g id="node3" class="node">
<title>Node3</title>
<g id="a_node3"><a xlink:title=" ">
<polygon fill="#ffffff" stroke="#bfbfbf" points="375.0825,-174 375.0825,-193 421.0825,-193 421.0825,-174 375.0825,-174"/>
<text text-anchor="middle" x="398.0825" y="-181" font-family="Helvetica,sans-Serif" font-size="10.00" fill="#000000">stdio.h</text>
</a>
</g>
</g>
<!-- Node2&#45;&gt;Node3 -->
<g id="edge2" class="edge">
<title>Node2&#45;&gt;Node3</title>
<path fill="none" stroke="#191970" d="M724.9718,-239.027C635.5814,-230.7296 483.7492,-214.9307 430.0825,-199 428.2184,-198.4467 426.3286,-197.7948 424.4475,-197.0771"/>
<polygon fill="#191970" stroke="#191970" points="425.8421,-193.8669 415.2757,-193.0904 423.0516,-200.2867 425.8421,-193.8669"/>
</g>
<!-- Node4 -->
<g id="node4" class="node">
<title>Node4</title>
<g id="a_node4"><a xlink:title=" ">
<polygon fill="#ffffff" stroke="#bfbfbf" points="462.5825,-.5 462.5825,-19.5 503.5825,-19.5 503.5825,-.5 462.5825,-.5"/>
<text text-anchor="middle" x="483.0825" y="-7.5" font-family="Helvetica,sans-Serif" font-size="10.00" fill="#000000">string</text>
</a>
</g>
</g>
<!-- Node2&#45;&gt;Node4 -->
<g id="edge3" class="edge">
<title>Node2&#45;&gt;Node4</title>
<path fill="none" stroke="#191970" d="M796.5009,-235.49C804.3016,-211.9586 820.6988,-150.1594 793.0825,-112 759.5123,-65.6136 585.7034,-28.8905 514.0331,-15.488"/>
<polygon fill="#191970" stroke="#191970" points="514.3044,-11.9791 503.8358,-13.6101 513.0366,-18.8634 514.3044,-11.9791"/>
</g>
<!-- Node5 -->
<g id="node5" class="node">
<title>Node5</title>
<g id="a_node5"><a xlink:title=" ">
<polygon fill="#ffffff" stroke="#bfbfbf" points="694.5825,-174 694.5825,-193 745.5825,-193 745.5825,-174 694.5825,-174"/>
<text text-anchor="middle" x="720.0825" y="-181" font-family="Helvetica,sans-Serif" font-size="10.00" fill="#000000">numeric</text>
</a>
</g>
</g>
<!-- Node2&#45;&gt;Node5 -->
<g id="edge4" class="edge">
<title>Node2&#45;&gt;Node5</title>
<path fill="none" stroke="#191970" d="M781.6763,-235.3906C770.3856,-225.8786 752.8859,-211.1357 739.4206,-199.7917"/>
<polygon fill="#191970" stroke="#191970" points="741.5524,-197.0111 731.6496,-193.2449 737.0423,-202.3646 741.5524,-197.0111"/>
</g>
<!-- Node6 -->
<g id="node6" class="node">
<title>Node6</title>
<g id="a_node6"><a xlink:href="Component_8hpp.html" target="_top" xlink:title=" ">
<polygon fill="#ffffff" stroke="#000000" points="439.0825,-168.5 439.0825,-198.5 549.0825,-198.5 549.0825,-168.5 439.0825,-168.5"/>
<text text-anchor="start" x="447.0825" y="-186.5" font-family="Helvetica,sans-Serif" font-size="10.00" fill="#000000">archlib/target_system</text>
<text text-anchor="middle" x="494.0825" y="-175.5" font-family="Helvetica,sans-Serif" font-size="10.00" fill="#000000">/Component.hpp</text>
</a>
</g>
</g>
<!-- Node2&#45;&gt;Node6 -->
<g id="edge5" class="edge">
<title>Node2&#45;&gt;Node6</title>
<path fill="none" stroke="#191970" d="M746.6918,-235.4581C696.4015,-225.1141 615.7604,-208.5274 559.1504,-196.8835"/>
<polygon fill="#191970" stroke="#191970" points="559.7253,-193.4286 549.2252,-194.8421 558.315,-200.285 559.7253,-193.4286"/>
</g>
<!-- Node11 -->
<g id="node11" class="node">
<title>Node11</title>
<g id="a_node11"><a xlink:title=" ">
<polygon fill="#ffffff" stroke="#bfbfbf" points="636.0825,-112.5 636.0825,-131.5 784.0825,-131.5 784.0825,-112.5 636.0825,-112.5"/>
<text text-anchor="middle" x="710.0825" y="-119.5" font-family="Helvetica,sans-Serif" font-size="10.00" fill="#000000">archlib/AdaptationCommand.h</text>
</a>
</g>
</g>
<!-- Node2&#45;&gt;Node11 -->
<g id="edge20" class="edge">
<title>Node2&#45;&gt;Node11</title>
<path fill="none" stroke="#191970" d="M789.5188,-235.4648C783.6333,-220.3677 770.9401,-190.3811 755.0825,-168 747.5661,-157.3915 737.5842,-146.922 728.9315,-138.6575"/>
<polygon fill="#191970" stroke="#191970" points="731.1834,-135.9726 721.4678,-131.7467 726.4276,-141.109 731.1834,-135.9726"/>
</g>
<!-- Node16 -->
<g id="node16" class="node">
<title>Node16</title>
<g id="a_node16"><a xlink:title=" ">
<polygon fill="#ffffff" stroke="#bfbfbf" points="840.5825,-174 840.5825,-193 965.5825,-193 965.5825,-174 840.5825,-174"/>
<text text-anchor="middle" x="903.0825" y="-181" font-family="Helvetica,sans-Serif" font-size="10.00" fill="#000000">messages/SensorData.h</text>
</a>
</g>
</g>
<!-- Node2&#45;&gt;Node16 -->
<g id="edge21" class="edge">
<title>Node2&#45;&gt;Node16</title>
<path fill="none" stroke="#191970" d="M810.27,-235.3906C828.1907,-225.3713 856.492,-209.5483 877.1349,-198.0071"/>
<polygon fill="#191970" stroke="#191970" points="878.9953,-200.9769 886.0157,-193.0419 875.5792,-194.867 878.9953,-200.9769"/>
</g>
<!-- Node17 -->
<g id="node17" class="node">
<title>Node17</title>
<g id="a_node17"><a xlink:title=" ">
<polygon fill="#ffffff" stroke="#bfbfbf" points="984.0825,-174 984.0825,-193 1110.0825,-193 1110.0825,-174 984.0825,-174"/>
<text text-anchor="middle" x="1047.0825" y="-181" font-family="Helvetica,sans-Serif" font-size="10.00" fill="#000000">bsn/resource/Battery.hpp</text>
</a>
</g>
</g>
<!-- Node2&#45;&gt;Node17 -->
<g id="edge22" class="edge">
<title>Node2&#45;&gt;Node17</title>
<path fill="none" stroke="#191970" d="M832.4913,-235.4581C876.9822,-224.6857 949.4357,-207.1428 997.674,-195.4631"/>
<polygon fill="#191970" stroke="#191970" points="998.6858,-198.8193 1007.5813,-193.0643 997.0384,-192.0159 998.6858,-198.8193"/>
</g>
<!-- Node18 -->
<g id="node18" class="node">
<title>Node18</title>
<g id="a_node18"><a xlink:title=" ">
<polygon fill="#ffffff" stroke="#bfbfbf" points="1128.5825,-174 1128.5825,-193 1221.5825,-193 1221.5825,-174 1128.5825,-174"/>
<text text-anchor="middle" x="1175.0825" y="-181" font-family="Helvetica,sans-Serif" font-size="10.00" fill="#000000">bsn/utils/utils.hpp</text>
</a>
</g>
</g>
<!-- Node2&#45;&gt;Node18 -->
<g id="edge23" class="edge">
<title>Node2&#45;&gt;Node18</title>
<path fill="none" stroke="#191970" d="M861.2708,-237.9889C927.5359,-230.5627 1030.8058,-217.364 1119.0825,-199 1123.7738,-198.0241 1128.6521,-196.8767 1133.4865,-195.6551"/>
<polygon fill="#191970" stroke="#191970" points="1134.4971,-199.0083 1143.2743,-193.0744 1132.7124,-192.2396 1134.4971,-199.0083"/>
</g>
<!-- Node6&#45;&gt;Node4 -->
<g id="edge6" class="edge">
<title>Node6&#45;&gt;Node4</title>
<path fill="none" stroke="#191970" d="M504.7073,-168.064C510.8175,-158.2271 517.8964,-144.9392 521.0825,-132 530.2665,-94.7033 509.6445,-52.0494 495.3337,-28.3461"/>
<polygon fill="#191970" stroke="#191970" points="498.169,-26.2807 489.8724,-19.6915 492.2491,-30.0163 498.169,-26.2807"/>
</g>
<!-- Node7 -->
<g id="node7" class="node">
<title>Node7</title>
<g id="a_node7"><a xlink:title=" ">
<polygon fill="#ffffff" stroke="#bfbfbf" points="568.0825,-112.5 568.0825,-131.5 618.0825,-131.5 618.0825,-112.5 568.0825,-112.5"/>
<text text-anchor="middle" x="593.0825" y="-119.5" font-family="Helvetica,sans-Serif" font-size="10.00" fill="#000000">signal.h</text>
</a>
</g>
</g>
<!-- Node6&#45;&gt;Node7 -->
<g id="edge7" class="edge">
<title>Node6&#45;&gt;Node7</title>
<path fill="none" stroke="#191970" d="M518.3006,-168.4554C533.6599,-158.9141 553.4582,-146.6151 568.825,-137.0691"/>
<polygon fill="#191970" stroke="#191970" points="571.0935,-139.7802 577.741,-131.5303 567.3997,-133.8341 571.0935,-139.7802"/>
</g>
<!-- Node8 -->
<g id="node8" class="node">
<title>Node8</title>
<g id="a_node8"><a xlink:title=" ">
<polygon fill="#ffffff" stroke="#bfbfbf" points="6.5825,-.5 6.5825,-19.5 61.5825,-19.5 61.5825,-.5 6.5825,-.5"/>
<text text-anchor="middle" x="34.0825" y="-7.5" font-family="Helvetica,sans-Serif" font-size="10.00" fill="#000000">ros/ros.h</text>
</a>
</g>
</g>
<!-- Node6&#45;&gt;Node8 -->
<g id="edge8" class="edge">
<title>Node6&#45;&gt;Node8</title>
<path fill="none" stroke="#191970" d="M439.0327,-169.6072C436.0139,-169.0206 433.0161,-168.479 430.0825,-168 384.1848,-160.5052 44.521,-166.2695 13.0825,-132 -13.0559,-103.5078 7.915,-54.8098 22.6912,-28.377"/>
<polygon fill="#191970" stroke="#191970" points="25.7247,-30.1229 27.756,-19.7246 19.6836,-26.5866 25.7247,-30.1229"/>
</g>
<!-- Node9 -->
<g id="node9" class="node">
<title>Node9</title>
<g id="a_node9"><a xlink:title=" ">
<polygon fill="#ffffff" stroke="#bfbfbf" points="180.0825,-112.5 180.0825,-131.5 262.0825,-131.5 262.0825,-112.5 180.0825,-112.5"/>
<text text-anchor="middle" x="221.0825" y="-119.5" font-family="Helvetica,sans-Serif" font-size="10.00" fill="#000000">archlib/Event.h</text>
</a>
</g>
</g>
<!-- Node6&#45;&gt;Node9 -->
<g id="edge9" class="edge">
<title>Node6&#45;&gt;Node9</title>
<path fill="none" stroke="#191970" d="M438.9419,-170.068C435.9465,-169.3626 432.9786,-168.6693 430.0825,-168 376.2952,-155.569 314.5367,-142.0715 272.1807,-132.9335"/>
<polygon fill="#191970" stroke="#191970" points="272.8948,-129.5071 262.382,-130.8226 271.4206,-136.3501 272.8948,-129.5071"/>
</g>
<!-- Node10 -->
<g id="node10" class="node">
<title>Node10</title>
<g id="a_node10"><a xlink:title=" ">
<polygon fill="#ffffff" stroke="#bfbfbf" points="280.5825,-112.5 280.5825,-131.5 365.5825,-131.5 365.5825,-112.5 280.5825,-112.5"/>
<text text-anchor="middle" x="323.0825" y="-119.5" font-family="Helvetica,sans-Serif" font-size="10.00" fill="#000000">archlib/Status.h</text>
</a>
</g>
</g>
<!-- Node6&#45;&gt;Node10 -->
<g id="edge10" class="edge">
<title>Node6&#45;&gt;Node10</title>
<path fill="none" stroke="#191970" d="M452.2512,-168.4554C423.7194,-158.194 386.319,-144.7429 359.1096,-134.9571"/>
<polygon fill="#191970" stroke="#191970" points="360.1759,-131.6212 349.5815,-131.5303 357.8069,-138.2081 360.1759,-131.6212"/>
</g>
<!-- Node6&#45;&gt;Node11 -->
<g id="edge11" class="edge">
<title>Node6&#45;&gt;Node11</title>
<path fill="none" stroke="#191970" d="M546.9221,-168.4554C583.7526,-157.9689 632.2823,-144.1515 666.817,-134.3187"/>
<polygon fill="#191970" stroke="#191970" points="667.9509,-137.635 676.6102,-131.5303 666.034,-130.9026 667.9509,-137.635"/>
</g>
<!-- Node12 -->
<g id="node12" class="node">
<title>Node12</title>
<g id="a_node12"><a xlink:title=" ">
<polygon fill="#ffffff" stroke="#bfbfbf" points="384.0825,-112.5 384.0825,-131.5 512.0825,-131.5 512.0825,-112.5 384.0825,-112.5"/>
<text text-anchor="middle" x="448.0825" y="-119.5" font-family="Helvetica,sans-Serif" font-size="10.00" fill="#000000">archlib/EffectorRegister.h</text>
</a>
</g>
</g>
<!-- Node6&#45;&gt;Node12 -->
<g id="edge12" class="edge">
<title>Node6&#45;&gt;Node12</title>
<path fill="none" stroke="#191970" d="M482.7117,-168.2977C476.3265,-159.7609 468.3184,-149.0545 461.612,-140.0883"/>
<polygon fill="#191970" stroke="#191970" points="464.2401,-137.7584 455.4477,-131.8469 458.6346,-141.9511 464.2401,-137.7584"/>
</g>
<!-- Node13 -->
<g id="node13" class="node">
<title>Node13</title>
<g id="a_node13"><a xlink:href="ROSComponent_8hpp.html" target="_top" xlink:title=" ">
<polygon fill="#ffffff" stroke="#000000" points="22.5825,-112.5 22.5825,-131.5 161.5825,-131.5 161.5825,-112.5 22.5825,-112.5"/>
<text text-anchor="middle" x="92.0825" y="-119.5" font-family="Helvetica,sans-Serif" font-size="10.00" fill="#000000">archlib/ROSComponent.hpp</text>
</a>
</g>
</g>
<!-- Node6&#45;&gt;Node13 -->
<g id="edge13" class="edge">
<title>Node6&#45;&gt;Node13</title>
<path fill="none" stroke="#191970" d="M439.0021,-169.7814C435.9912,-169.1499 433.0034,-168.551 430.0825,-168 405.2967,-163.3247 263.8109,-144.5002 171.9255,-132.4291"/>
<polygon fill="#191970" stroke="#191970" points="172.1803,-128.9326 161.8098,-131.1011 171.2691,-135.873 172.1803,-128.9326"/>
</g>
<!-- Node13&#45;&gt;Node4 -->
<g id="edge14" class="edge">
<title>Node13&#45;&gt;Node4</title>
<path fill="none" stroke="#191970" d="M161.6601,-112.9769C210.3545,-105.6353 276.5463,-93.5851 333.0825,-76 377.5052,-62.1828 426.3764,-39.0899 455.8897,-24.2079"/>
<polygon fill="#191970" stroke="#191970" points="457.8028,-27.1612 465.1221,-19.501 454.6233,-20.9249 457.8028,-27.1612"/>
</g>
<!-- Node13&#45;&gt;Node8 -->
<g id="edge16" class="edge">
<title>Node13&#45;&gt;Node8</title>
<path fill="none" stroke="#191970" d="M81.7232,-112.3388C72.9371,-103.6151 60.5971,-90.0286 53.0825,-76 45.3411,-61.5477 40.4344,-43.5803 37.5506,-30.043"/>
<polygon fill="#191970" stroke="#191970" points="40.9218,-29.0413 35.5862,-19.888 34.0492,-30.3708 40.9218,-29.0413"/>
</g>
<!-- Node14 -->
<g id="node14" class="node">
<title>Node14</title>
<g id="a_node14"><a xlink:title=" ">
<polygon fill="#ffffff" stroke="#bfbfbf" points="62.5825,-56.5 62.5825,-75.5 121.5825,-75.5 121.5825,-56.5 62.5825,-56.5"/>
<text text-anchor="middle" x="92.0825" y="-63.5" font-family="Helvetica,sans-Serif" font-size="10.00" fill="#000000">stdexcept</text>
</a>
</g>
</g>
<!-- Node13&#45;&gt;Node14 -->
<g id="edge15" class="edge">
<title>Node13&#45;&gt;Node14</title>
<path fill="none" stroke="#191970" d="M92.0825,-112.2455C92.0825,-104.9382 92.0825,-94.6944 92.0825,-85.7046"/>
<polygon fill="#191970" stroke="#191970" points="95.5826,-85.6426 92.0825,-75.6427 88.5826,-85.6427 95.5826,-85.6426"/>
</g>
<!-- Node15 -->
<g id="node15" class="node">
<title>Node15</title>
<g id="a_node15"><a xlink:href="ROSComponentDescriptor_8hpp.html" target="_top" xlink:title=" ">
<polygon fill="#ffffff" stroke="#000000" points="140.0825,-56.5 140.0825,-75.5 324.0825,-75.5 324.0825,-56.5 140.0825,-56.5"/>
<text text-anchor="middle" x="232.0825" y="-63.5" font-family="Helvetica,sans-Serif" font-size="10.00" fill="#000000">archlib/ROSComponentDescriptor.hpp</text>
</a>
</g>
</g>
<!-- Node13&#45;&gt;Node15 -->
<g id="edge17" class="edge">
<title>Node13&#45;&gt;Node15</title>
<path fill="none" stroke="#191970" d="M116.1494,-112.3733C138.9254,-103.2629 173.3169,-89.5062 198.7316,-79.3404"/>
<polygon fill="#191970" stroke="#191970" points="200.3448,-82.4648 208.3297,-75.5011 197.7451,-75.9654 200.3448,-82.4648"/>
</g>
<!-- Node15&#45;&gt;Node4 -->
<g id="edge18" class="edge">
<title>Node15&#45;&gt;Node4</title>
<path fill="none" stroke="#191970" d="M274.9458,-56.4369C325.4995,-45.158 408.2572,-26.6941 452.6597,-16.7876"/>
<polygon fill="#191970" stroke="#191970" points="453.5651,-20.1717 462.5629,-14.5781 452.0407,-13.3397 453.5651,-20.1717"/>
</g>
<!-- Node15&#45;&gt;Node8 -->
<g id="edge19" class="edge">
<title>Node15&#45;&gt;Node8</title>
<path fill="none" stroke="#191970" d="M198.0451,-56.3733C162.7729,-46.3973 107.8029,-30.8502 71.3739,-20.5471"/>
<polygon fill="#191970" stroke="#191970" points="72.1976,-17.1428 61.6225,-17.7891 70.2925,-23.8786 72.1976,-17.1428"/>
</g>
</g>
</svg>
