<?xml version="1.0" encoding="UTF-8" standalone="no"?>
<!DOCTYPE svg PUBLIC "-//W3C//DTD SVG 1.1//EN"
 "http://www.w3.org/Graphics/SVG/1.1/DTD/svg11.dtd">
<!-- Generated by graphviz version 2.40.1 (20161225.0304)
 -->
<!-- Title: src/target_system/components/component/include/component/CentralHub.hpp Pages: 1 -->
<svg width="419pt" height="195pt"
 viewBox="0.00 0.00 418.50 195.00" xmlns="http://www.w3.org/2000/svg" xmlns:xlink="http://www.w3.org/1999/xlink">
<g id="graph0" class="graph" transform="scale(1 1) rotate(0) translate(4 191)">
<title>src/target_system/components/component/include/component/CentralHub.hpp</title>
<polygon fill="#ffffff" stroke="transparent" points="-4,4 -4,-191 414.5,-191 414.5,4 -4,4"/>
<!-- Node1 -->
<g id="node1" class="node">
<title>Node1</title>
<g id="a_node1"><a xlink:title=" ">
<polygon fill="#bfbfbf" stroke="#000000" points="171,-145.5 171,-186.5 323,-186.5 323,-145.5 171,-145.5"/>
<text text-anchor="start" x="179" y="-174.5" font-family="Helvetica,sans-Serif" font-size="10.00" fill="#000000">src/target_system/components</text>
<text text-anchor="start" x="179" y="-163.5" font-family="Helvetica,sans-Serif" font-size="10.00" fill="#000000">/component/include/component</text>
<text text-anchor="middle" x="247" y="-152.5" font-family="Helvetica,sans-Serif" font-size="10.00" fill="#000000">/CentralHub.hpp</text>
</a>
</g>
</g>
<!-- Node2 -->
<g id="node2" class="node">
<title>Node2</title>
<g id="a_node2"><a xlink:href="G4T1_8hpp.html" target="_top" xlink:title=" ">
<polygon fill="#ffffff" stroke="#000000" points="85,-67.5 85,-108.5 237,-108.5 237,-67.5 85,-67.5"/>
<text text-anchor="start" x="93" y="-96.5" font-family="Helvetica,sans-Serif" font-size="10.00" fill="#000000">src/target_system/components</text>
<text text-anchor="start" x="93" y="-85.5" font-family="Helvetica,sans-Serif" font-size="10.00" fill="#000000">/component/include/component</text>
<text text-anchor="middle" x="161" y="-74.5" font-family="Helvetica,sans-Serif" font-size="10.00" fill="#000000">/g4t1/G4T1.hpp</text>
</a>
</g>
</g>
<!-- Node1&#45;&gt;Node2 -->
<g id="edge1" class="edge">
<title>Node1&#45;&gt;Node2</title>
<path fill="none" stroke="#191970" d="M216.3807,-138.229C205.6487,-128.4953 193.7918,-117.7414 183.8118,-108.6898"/>
<polygon fill="#191970" stroke="#191970" points="214.195,-140.9718 223.9536,-145.0974 218.8977,-135.7867 214.195,-140.9718"/>
</g>
<!-- Node5 -->
<g id="node5" class="node">
<title>Node5</title>
<g id="a_node5"><a xlink:href="CentralHub_8cpp.html" target="_top" xlink:title=" ">
<polygon fill="#ffffff" stroke="#000000" points="255.5,-73 255.5,-103 410.5,-103 410.5,-73 255.5,-73"/>
<text text-anchor="start" x="263.5" y="-91" font-family="Helvetica,sans-Serif" font-size="10.00" fill="#000000">src/target_system/components</text>
<text text-anchor="middle" x="333" y="-80" font-family="Helvetica,sans-Serif" font-size="10.00" fill="#000000">/component/src/CentralHub.cpp</text>
</a>
</g>
</g>
<!-- Node1&#45;&gt;Node5 -->
<g id="edge4" class="edge">
<title>Node1&#45;&gt;Node5</title>
<path fill="none" stroke="#191970" d="M277.5243,-138.3152C290.6272,-126.4312 305.422,-113.0126 316.4358,-103.0233"/>
<polygon fill="#191970" stroke="#191970" points="275.1023,-135.7867 270.0464,-145.0974 279.805,-140.9718 275.1023,-135.7867"/>
</g>
<!-- Node3 -->
<g id="node3" class="node">
<title>Node3</title>
<g id="a_node3"><a xlink:href="g4t1_8cpp.html" target="_top" xlink:title=" ">
<polygon fill="#ffffff" stroke="#000000" points="0,-.5 0,-30.5 152,-30.5 152,-.5 0,-.5"/>
<text text-anchor="start" x="8" y="-18.5" font-family="Helvetica,sans-Serif" font-size="10.00" fill="#000000">src/target_system/components</text>
<text text-anchor="middle" x="76" y="-7.5" font-family="Helvetica,sans-Serif" font-size="10.00" fill="#000000">/component/apps/g4t1.cpp</text>
</a>
</g>
</g>
<!-- Node2&#45;&gt;Node3 -->
<g id="edge2" class="edge">
<title>Node2&#45;&gt;Node3</title>
<path fill="none" stroke="#191970" d="M129.1981,-60.8749C117.1901,-50.6327 103.9633,-39.351 93.7024,-30.5991"/>
<polygon fill="#191970" stroke="#191970" points="126.9901,-63.5918 136.8698,-67.4183 131.5327,-58.2659 126.9901,-63.5918"/>
</g>
<!-- Node4 -->
<g id="node4" class="node">
<title>Node4</title>
<g id="a_node4"><a xlink:href="G4T1_8cpp.html" target="_top" xlink:title=" ">
<polygon fill="#ffffff" stroke="#000000" points="170,-.5 170,-30.5 322,-30.5 322,-.5 170,-.5"/>
<text text-anchor="start" x="178" y="-18.5" font-family="Helvetica,sans-Serif" font-size="10.00" fill="#000000">src/target_system/components</text>
<text text-anchor="middle" x="246" y="-7.5" font-family="Helvetica,sans-Serif" font-size="10.00" fill="#000000">/component/src/g4t1/G4T1.cpp</text>
</a>
</g>
</g>
<!-- Node2&#45;&gt;Node4 -->
<g id="edge3" class="edge">
<title>Node2&#45;&gt;Node4</title>
<path fill="none" stroke="#191970" d="M192.8019,-60.8749C204.8099,-50.6327 218.0367,-39.351 228.2976,-30.5991"/>
<polygon fill="#191970" stroke="#191970" points="190.4673,-58.2659 185.1302,-67.4183 195.0099,-63.5918 190.4673,-58.2659"/>
</g>
</g>
</svg>
