<?xml version="1.0" encoding="UTF-8" standalone="no"?>
<!DOCTYPE svg PUBLIC "-//W3C//DTD SVG 1.1//EN"
 "http://www.w3.org/Graphics/SVG/1.1/DTD/svg11.dtd">
<!-- Generated by graphviz version 2.40.1 (20161225.0304)
 -->
<!-- Title: bsn::filters::MovingAverage::getRange Pages: 1 -->
<svg width="316pt" height="230pt"
 viewBox="0.00 0.00 316.00 229.50" xmlns="http://www.w3.org/2000/svg" xmlns:xlink="http://www.w3.org/1999/xlink">
<g id="graph0" class="graph" transform="scale(1 1) rotate(0) translate(4 225.5)">
<title>bsn::filters::MovingAverage::getRange</title>
<polygon fill="#ffffff" stroke="transparent" points="-4,4 -4,-225.5 312,-225.5 312,4 -4,4"/>
<!-- Node1 -->
<g id="node1" class="node">
<title>Node1</title>
<g id="a_node1"><a xlink:title=" ">
<polygon fill="#bfbfbf" stroke="#000000" points="172,-90 172,-120 308,-120 308,-90 172,-90"/>
<text text-anchor="start" x="180" y="-108" font-family="Helvetica,sans-Serif" font-size="10.00" fill="#000000">bsn::filters::MovingAverage</text>
<text text-anchor="middle" x="240" y="-97" font-family="Helvetica,sans-Serif" font-size="10.00" fill="#000000">::getRange</text>
</a>
</g>
</g>
<!-- Node2 -->
<g id="node2" class="node">
<title>Node2</title>
<g id="a_node2"><a xlink:href="classbsn_1_1filters_1_1MovingAverage.html#a658186a97a8e095fe567d00119d0ad36" target="_top" xlink:title=" ">
<polygon fill="#ffffff" stroke="#000000" points="0,-191 0,-221 136,-221 136,-191 0,-191"/>
<text text-anchor="start" x="8" y="-209" font-family="Helvetica,sans-Serif" font-size="10.00" fill="#000000">bsn::filters::MovingAverage</text>
<text text-anchor="middle" x="68" y="-198" font-family="Helvetica,sans-Serif" font-size="10.00" fill="#000000">::operator=</text>
</a>
</g>
</g>
<!-- Node1&#45;&gt;Node2 -->
<g id="edge1" class="edge">
<title>Node1&#45;&gt;Node2</title>
<path fill="none" stroke="#191970" d="M214.7962,-126.5337C194.5196,-143.065 164.7618,-165.5961 136,-181 129.2363,-184.6224 121.835,-187.938 114.484,-190.8872"/>
<polygon fill="#191970" stroke="#191970" points="217.1308,-129.1449 222.6099,-120.0768 212.6717,-123.7489 217.1308,-129.1449"/>
</g>
<!-- Node3 -->
<g id="node3" class="node">
<title>Node3</title>
<g id="a_node3"><a xlink:href="classG3T1__1.html#aff514b4de85780777a8326e353148fe1" target="_top" xlink:title=" ">
<polygon fill="#ffffff" stroke="#000000" points="22,-152.5 22,-171.5 114,-171.5 114,-152.5 22,-152.5"/>
<text text-anchor="middle" x="68" y="-159.5" font-family="Helvetica,sans-Serif" font-size="10.00" fill="#000000">G3T1_1::process</text>
</a>
</g>
</g>
<!-- Node1&#45;&gt;Node3 -->
<g id="edge2" class="edge">
<title>Node1&#45;&gt;Node3</title>
<path fill="none" stroke="#191970" d="M191.3657,-123.6586C173.9967,-130.0857 154.2186,-137.1362 136,-143 125.7319,-146.3049 114.488,-149.5828 104.1525,-152.4617"/>
<polygon fill="#191970" stroke="#191970" points="192.5944,-126.9359 200.7421,-120.1635 190.1494,-120.3767 192.5944,-126.9359"/>
</g>
<!-- Node4 -->
<g id="node4" class="node">
<title>Node4</title>
<g id="a_node4"><a xlink:href="classG3T1__2.html#a971571b3baee620f4fc36b31579db6ca" target="_top" xlink:title=" ">
<polygon fill="#ffffff" stroke="#000000" points="22,-114.5 22,-133.5 114,-133.5 114,-114.5 22,-114.5"/>
<text text-anchor="middle" x="68" y="-121.5" font-family="Helvetica,sans-Serif" font-size="10.00" fill="#000000">G3T1_2::process</text>
</a>
</g>
</g>
<!-- Node1&#45;&gt;Node4 -->
<g id="edge3" class="edge">
<title>Node1&#45;&gt;Node4</title>
<path fill="none" stroke="#191970" d="M161.4879,-113.6728C145.2569,-115.4658 128.6675,-117.2984 114.0558,-118.9124"/>
<polygon fill="#191970" stroke="#191970" points="161.9716,-117.1408 171.5268,-112.5639 161.203,-110.1831 161.9716,-117.1408"/>
</g>
<!-- Node5 -->
<g id="node5" class="node">
<title>Node5</title>
<g id="a_node5"><a xlink:href="classG3T1__3.html#a82334e4d79cb9a4b4a757a96c60fe4ce" target="_top" xlink:title=" ">
<polygon fill="#ffffff" stroke="#000000" points="22,-76.5 22,-95.5 114,-95.5 114,-76.5 22,-76.5"/>
<text text-anchor="middle" x="68" y="-83.5" font-family="Helvetica,sans-Serif" font-size="10.00" fill="#000000">G3T1_3::process</text>
</a>
</g>
</g>
<!-- Node1&#45;&gt;Node5 -->
<g id="edge4" class="edge">
<title>Node1&#45;&gt;Node5</title>
<path fill="none" stroke="#191970" d="M161.4879,-96.3272C145.2569,-94.5342 128.6675,-92.7016 114.0558,-91.0876"/>
<polygon fill="#191970" stroke="#191970" points="161.203,-99.8169 171.5268,-97.4361 161.9716,-92.8592 161.203,-99.8169"/>
</g>
<!-- Node6 -->
<g id="node6" class="node">
<title>Node6</title>
<g id="a_node6"><a xlink:href="classG3T1__4.html#ab743af6fc3e6ad0f64ef2520b811bb63" target="_top" xlink:title=" ">
<polygon fill="#ffffff" stroke="#000000" points="22,-38.5 22,-57.5 114,-57.5 114,-38.5 22,-38.5"/>
<text text-anchor="middle" x="68" y="-45.5" font-family="Helvetica,sans-Serif" font-size="10.00" fill="#000000">G3T1_4::process</text>
</a>
</g>
</g>
<!-- Node1&#45;&gt;Node6 -->
<g id="edge5" class="edge">
<title>Node1&#45;&gt;Node6</title>
<path fill="none" stroke="#191970" d="M191.3657,-86.3414C173.9967,-79.9143 154.2186,-72.8638 136,-67 125.7319,-63.6951 114.488,-60.4172 104.1525,-57.5383"/>
<polygon fill="#191970" stroke="#191970" points="190.1494,-89.6233 200.7421,-89.8365 192.5944,-83.0641 190.1494,-89.6233"/>
</g>
<!-- Node7 -->
<g id="node7" class="node">
<title>Node7</title>
<g id="a_node7"><a xlink:href="classG3T1__5.html#acef5ff056ed22c930ae583f87cf1f03a" target="_top" xlink:title=" ">
<polygon fill="#ffffff" stroke="#000000" points="22,-.5 22,-19.5 114,-19.5 114,-.5 22,-.5"/>
<text text-anchor="middle" x="68" y="-7.5" font-family="Helvetica,sans-Serif" font-size="10.00" fill="#000000">G3T1_5::process</text>
</a>
</g>
</g>
<!-- Node1&#45;&gt;Node7 -->
<g id="edge6" class="edge">
<title>Node1&#45;&gt;Node7</title>
<path fill="none" stroke="#191970" d="M215.4868,-83.127C195.3863,-66.2108 165.5306,-43.3295 136,-29 128.2804,-25.2541 119.6983,-22.1362 111.3024,-19.5829"/>
<polygon fill="#191970" stroke="#191970" points="213.3404,-85.8969 223.2131,-89.7414 217.8927,-80.5793 213.3404,-85.8969"/>
</g>
</g>
</svg>
