<?xml version="1.0" encoding="UTF-8" standalone="no"?>
<!DOCTYPE svg PUBLIC "-//W3C//DTD SVG 1.1//EN"
 "http://www.w3.org/Graphics/SVG/1.1/DTD/svg11.dtd">
<!-- Generated by graphviz version 2.40.1 (20161225.0304)
 -->
<!-- Title: bsn::configuration::SensorConfiguration::evaluateNumber Pages: 1 -->
<svg width="419pt" height="192pt"
 viewBox="0.00 0.00 419.00 192.00" xmlns="http://www.w3.org/2000/svg" xmlns:xlink="http://www.w3.org/1999/xlink">
<g id="graph0" class="graph" transform="scale(1 1) rotate(0) translate(4 188)">
<title>bsn::configuration::SensorConfiguration::evaluateNumber</title>
<polygon fill="#ffffff" stroke="transparent" points="-4,4 -4,-188 415,-188 415,4 -4,4"/>
<!-- Node1 -->
<g id="node1" class="node">
<title>Node1</title>
<g id="a_node1"><a xlink:title=" ">
<polygon fill="#bfbfbf" stroke="#000000" points="0,-50 0,-91 111,-91 111,-50 0,-50"/>
<text text-anchor="start" x="8" y="-79" font-family="Helvetica,sans-Serif" font-size="10.00" fill="#000000">bsn::configuration</text>
<text text-anchor="start" x="8" y="-68" font-family="Helvetica,sans-Serif" font-size="10.00" fill="#000000">::SensorConfiguration</text>
<text text-anchor="middle" x="55.5" y="-57" font-family="Helvetica,sans-Serif" font-size="10.00" fill="#000000">::evaluateNumber</text>
</a>
</g>
</g>
<!-- Node2 -->
<g id="node2" class="node">
<title>Node2</title>
<g id="a_node2"><a xlink:href="classbsn_1_1configuration_1_1SensorConfiguration.html#aeb452f9154ebbc75bd54564fa0f94430" target="_top" xlink:title=" ">
<polygon fill="#ffffff" stroke="#000000" points="147,-110 147,-151 272,-151 272,-110 147,-110"/>
<text text-anchor="start" x="155" y="-139" font-family="Helvetica,sans-Serif" font-size="10.00" fill="#000000">bsn::configuration</text>
<text text-anchor="start" x="155" y="-128" font-family="Helvetica,sans-Serif" font-size="10.00" fill="#000000">::SensorConfiguration</text>
<text text-anchor="middle" x="209.5" y="-117" font-family="Helvetica,sans-Serif" font-size="10.00" fill="#000000">::convertRealPercentage</text>
</a>
</g>
</g>
<!-- Node1&#45;&gt;Node2 -->
<g id="edge1" class="edge">
<title>Node1&#45;&gt;Node2</title>
<path fill="none" stroke="#191970" d="M108.4981,-91.1486C120.9086,-95.9839 134.2433,-101.1792 147.0241,-106.1588"/>
<polygon fill="#191970" stroke="#191970" points="146.0768,-109.5459 156.6652,-109.915 148.6181,-103.0234 146.0768,-109.5459"/>
</g>
<!-- Node6 -->
<g id="node6" class="node">
<title>Node6</title>
<g id="a_node6"><a xlink:href="classbsn_1_1configuration_1_1SensorConfiguration.html#aab092b8b249eda7ee53a38ec45ba9421" target="_top" xlink:title=" ">
<polygon fill="#ffffff" stroke="#000000" points="154,-50 154,-91 265,-91 265,-50 154,-50"/>
<text text-anchor="start" x="162" y="-79" font-family="Helvetica,sans-Serif" font-size="10.00" fill="#000000">bsn::configuration</text>
<text text-anchor="start" x="162" y="-68" font-family="Helvetica,sans-Serif" font-size="10.00" fill="#000000">::SensorConfiguration</text>
<text text-anchor="middle" x="209.5" y="-57" font-family="Helvetica,sans-Serif" font-size="10.00" fill="#000000">::getDisplacement</text>
</a>
</g>
</g>
<!-- Node1&#45;&gt;Node6 -->
<g id="edge5" class="edge">
<title>Node1&#45;&gt;Node6</title>
<path fill="none" stroke="#191970" d="M111.0975,-70.5C121.6744,-70.5 132.8366,-70.5 143.6952,-70.5"/>
<polygon fill="#191970" stroke="#191970" points="143.9841,-74.0001 153.9841,-70.5 143.984,-67.0001 143.9841,-74.0001"/>
</g>
<!-- Node7 -->
<g id="node7" class="node">
<title>Node7</title>
<g id="a_node7"><a xlink:href="classbsn_1_1range_1_1Range.html#a803a947a39a06176384e00e2ad758ec9" target="_top" xlink:title=" ">
<polygon fill="#ffffff" stroke="#000000" points="158,-.5 158,-30.5 261,-30.5 261,-.5 158,-.5"/>
<text text-anchor="start" x="166" y="-18.5" font-family="Helvetica,sans-Serif" font-size="10.00" fill="#000000">bsn::range::Range::</text>
<text text-anchor="middle" x="209.5" y="-7.5" font-family="Helvetica,sans-Serif" font-size="10.00" fill="#000000">in_range</text>
</a>
</g>
</g>
<!-- Node1&#45;&gt;Node7 -->
<g id="edge8" class="edge">
<title>Node1&#45;&gt;Node7</title>
<path fill="none" stroke="#191970" d="M111.0975,-50.6437C126.2218,-45.2422 142.5428,-39.4133 157.4618,-34.0851"/>
<polygon fill="#191970" stroke="#191970" points="158.7964,-37.325 167.0367,-30.6655 156.442,-30.7328 158.7964,-37.325"/>
</g>
<!-- Node3 -->
<g id="node3" class="node">
<title>Node3</title>
<g id="a_node3"><a xlink:href="classbsn_1_1range_1_1Range.html#ab8b7c15c1b6dc5c0e2c57b968271ac3b" target="_top" xlink:title=" ">
<polygon fill="#ffffff" stroke="#000000" points="308,-153.5 308,-183.5 411,-183.5 411,-153.5 308,-153.5"/>
<text text-anchor="start" x="316" y="-171.5" font-family="Helvetica,sans-Serif" font-size="10.00" fill="#000000">bsn::range::Range::</text>
<text text-anchor="middle" x="359.5" y="-160.5" font-family="Helvetica,sans-Serif" font-size="10.00" fill="#000000">convert</text>
</a>
</g>
</g>
<!-- Node2&#45;&gt;Node3 -->
<g id="edge2" class="edge">
<title>Node2&#45;&gt;Node3</title>
<path fill="none" stroke="#191970" d="M272.2444,-146.3952C280.7843,-148.5587 289.5421,-150.7773 298.0586,-152.9348"/>
<polygon fill="#191970" stroke="#191970" points="297.3646,-156.3695 307.9179,-155.4325 299.0836,-149.5839 297.3646,-156.3695"/>
</g>
<!-- Node4 -->
<g id="node4" class="node">
<title>Node4</title>
<g id="a_node4"><a xlink:href="classbsn_1_1range_1_1Range.html#a0785d0aa7d5463bcdd3842089069a2e7" target="_top" xlink:title=" ">
<polygon fill="#ffffff" stroke="#000000" points="308,-55.5 308,-85.5 411,-85.5 411,-55.5 308,-55.5"/>
<text text-anchor="start" x="316" y="-73.5" font-family="Helvetica,sans-Serif" font-size="10.00" fill="#000000">bsn::range::Range::</text>
<text text-anchor="middle" x="359.5" y="-62.5" font-family="Helvetica,sans-Serif" font-size="10.00" fill="#000000">getLowerBound</text>
</a>
</g>
</g>
<!-- Node2&#45;&gt;Node4 -->
<g id="edge3" class="edge">
<title>Node2&#45;&gt;Node4</title>
<path fill="none" stroke="#191970" d="M261.1215,-109.8514C277.8402,-103.1639 296.281,-95.7876 312.6346,-89.2462"/>
<polygon fill="#191970" stroke="#191970" points="314.0085,-92.4663 321.9933,-85.5027 311.4087,-85.967 314.0085,-92.4663"/>
</g>
<!-- Node5 -->
<g id="node5" class="node">
<title>Node5</title>
<g id="a_node5"><a xlink:href="classbsn_1_1range_1_1Range.html#a540c2181ec15a65b189a7fb89659f388" target="_top" xlink:title=" ">
<polygon fill="#ffffff" stroke="#000000" points="308,-104.5 308,-134.5 411,-134.5 411,-104.5 308,-104.5"/>
<text text-anchor="start" x="316" y="-122.5" font-family="Helvetica,sans-Serif" font-size="10.00" fill="#000000">bsn::range::Range::</text>
<text text-anchor="middle" x="359.5" y="-111.5" font-family="Helvetica,sans-Serif" font-size="10.00" fill="#000000">getUpperBound</text>
</a>
</g>
</g>
<!-- Node2&#45;&gt;Node5 -->
<g id="edge4" class="edge">
<title>Node2&#45;&gt;Node5</title>
<path fill="none" stroke="#191970" d="M272.2444,-125.8987C280.6914,-125.2793 289.3517,-124.6442 297.7808,-124.0261"/>
<polygon fill="#191970" stroke="#191970" points="298.2007,-127.5048 307.9179,-123.2827 297.6886,-120.5235 298.2007,-127.5048"/>
</g>
<!-- Node6&#45;&gt;Node4 -->
<g id="edge6" class="edge">
<title>Node6&#45;&gt;Node4</title>
<path fill="none" stroke="#191970" d="M265.3545,-70.5C275.8327,-70.5 286.8453,-70.5 297.4971,-70.5"/>
<polygon fill="#191970" stroke="#191970" points="297.57,-74.0001 307.57,-70.5 297.5699,-67.0001 297.57,-74.0001"/>
</g>
<!-- Node6&#45;&gt;Node5 -->
<g id="edge7" class="edge">
<title>Node6&#45;&gt;Node5</title>
<path fill="none" stroke="#191970" d="M265.3545,-88.7458C277.8422,-92.8251 291.0889,-97.1524 303.5794,-101.2326"/>
<polygon fill="#191970" stroke="#191970" points="302.8129,-104.6642 313.4054,-104.4424 304.9865,-98.0102 302.8129,-104.6642"/>
</g>
</g>
</svg>
