<?xml version="1.0" encoding="UTF-8" standalone="no"?>
<!DOCTYPE svg PUBLIC "-//W3C//DTD SVG 1.1//EN"
 "http://www.w3.org/Graphics/SVG/1.1/DTD/svg11.dtd">
<!-- Generated by graphviz version 2.40.1 (20161225.0304)
 -->
<!-- Title: Enactor::apply_strategy Pages: 1 -->
<svg width="542pt" height="28pt"
 viewBox="0.00 0.00 542.00 28.00" xmlns="http://www.w3.org/2000/svg" xmlns:xlink="http://www.w3.org/1999/xlink">
<g id="graph0" class="graph" transform="scale(1 1) rotate(0) translate(4 24)">
<title>Enactor::apply_strategy</title>
<polygon fill="#ffffff" stroke="transparent" points="-4,4 -4,-24 538,-24 538,4 -4,4"/>
<!-- Node1 -->
<g id="node1" class="node">
<title>Node1</title>
<g id="a_node1"><a xlink:title=" ">
<polygon fill="#bfbfbf" stroke="#000000" points="414,-.5 414,-19.5 534,-19.5 534,-.5 414,-.5"/>
<text text-anchor="middle" x="474" y="-7.5" font-family="Helvetica,sans-Serif" font-size="10.00" fill="#000000">Enactor::apply_strategy</text>
</a>
</g>
</g>
<!-- Node2 -->
<g id="node2" class="node">
<title>Node2</title>
<g id="a_node2"><a xlink:href="classEnactor.html#a9e10c68a47e83737f8b45b9c504cdc97" target="_top" xlink:title=" ">
<polygon fill="#ffffff" stroke="#000000" points="262,-.5 262,-19.5 378,-19.5 378,-.5 262,-.5"/>
<text text-anchor="middle" x="320" y="-7.5" font-family="Helvetica,sans-Serif" font-size="10.00" fill="#000000">Enactor::receiveStatus</text>
</a>
</g>
</g>
<!-- Node1&#45;&gt;Node2 -->
<g id="edge1" class="edge">
<title>Node1&#45;&gt;Node2</title>
<path fill="none" stroke="#191970" d="M403.3875,-10C394.9697,-10 386.4494,-10 378.2328,-10"/>
<polygon fill="#191970" stroke="#191970" points="403.5772,-13.5001 413.5771,-10 403.5771,-6.5001 403.5772,-13.5001"/>
</g>
<!-- Node3 -->
<g id="node3" class="node">
<title>Node3</title>
<g id="a_node3"><a xlink:href="classEnactor.html#abd25ade60e175a09b8a71f2d0c87c7d1" target="_top" xlink:title=" ">
<polygon fill="#ffffff" stroke="#000000" points="149,-.5 149,-19.5 226,-19.5 226,-.5 149,-.5"/>
<text text-anchor="middle" x="187.5" y="-7.5" font-family="Helvetica,sans-Serif" font-size="10.00" fill="#000000">Enactor::body</text>
</a>
</g>
</g>
<!-- Node2&#45;&gt;Node3 -->
<g id="edge2" class="edge">
<title>Node2&#45;&gt;Node3</title>
<path fill="none" stroke="#191970" d="M251.6246,-10C242.8737,-10 234.1723,-10 226.1319,-10"/>
<polygon fill="#191970" stroke="#191970" points="251.8836,-13.5001 261.8836,-10 251.8835,-6.5001 251.8836,-13.5001"/>
</g>
<!-- Node4 -->
<g id="node4" class="node">
<title>Node4</title>
<g id="a_node4"><a xlink:href="classAnalyzer_1_1Analyzer.html#ace65f914d5702497483b294f0373b2f4" target="_top" xlink:title=" ">
<polygon fill="#ffffff" stroke="#000000" points="0,-.5 0,-19.5 113,-19.5 113,-.5 0,-.5"/>
<text text-anchor="middle" x="56.5" y="-7.5" font-family="Helvetica,sans-Serif" font-size="10.00" fill="#000000">Analyzer.Analyzer.run</text>
</a>
</g>
</g>
<!-- Node3&#45;&gt;Node4 -->
<g id="edge3" class="edge">
<title>Node3&#45;&gt;Node4</title>
<path fill="none" stroke="#191970" d="M138.6655,-10C130.3873,-10 121.7287,-10 113.268,-10"/>
<polygon fill="#191970" stroke="#191970" points="138.9042,-13.5001 148.9042,-10 138.9042,-6.5001 138.9042,-13.5001"/>
</g>
</g>
</svg>
