<?xml version="1.0" encoding="UTF-8" standalone="no"?>
<!DOCTYPE svg PUBLIC "-//W3C//DTD SVG 1.1//EN"
 "http://www.w3.org/Graphics/SVG/1.1/DTD/svg11.dtd">
<!-- Generated by graphviz version 2.40.1 (20161225.0304)
 -->
<!-- Title: bsn::resource::Battery::operator= Pages: 1 -->
<svg width="270pt" height="186pt"
 viewBox="0.00 0.00 270.00 186.00" xmlns="http://www.w3.org/2000/svg" xmlns:xlink="http://www.w3.org/1999/xlink">
<g id="graph0" class="graph" transform="scale(1 1) rotate(0) translate(4 182)">
<title>bsn::resource::Battery::operator=</title>
<polygon fill="#ffffff" stroke="transparent" points="-4,4 -4,-182 266,-182 266,4 -4,4"/>
<!-- Node1 -->
<g id="node1" class="node">
<title>Node1</title>
<g id="a_node1"><a xlink:title=" ">
<polygon fill="#bfbfbf" stroke="#000000" points="0,-73.5 0,-103.5 113,-103.5 113,-73.5 0,-73.5"/>
<text text-anchor="start" x="8" y="-91.5" font-family="Helvetica,sans-Serif" font-size="10.00" fill="#000000">bsn::resource::Battery</text>
<text text-anchor="middle" x="56.5" y="-80.5" font-family="Helvetica,sans-Serif" font-size="10.00" fill="#000000">::operator=</text>
</a>
</g>
</g>
<!-- Node2 -->
<g id="node2" class="node">
<title>Node2</title>
<g id="a_node2"><a xlink:href="classbsn_1_1resource_1_1Battery.html#ac0ac21b47793f078ac0de26fd039f17b" target="_top" xlink:title=" ">
<polygon fill="#ffffff" stroke="#000000" points="149,-147.5 149,-177.5 262,-177.5 262,-147.5 149,-147.5"/>
<text text-anchor="start" x="157" y="-165.5" font-family="Helvetica,sans-Serif" font-size="10.00" fill="#000000">bsn::resource::Battery</text>
<text text-anchor="middle" x="205.5" y="-154.5" font-family="Helvetica,sans-Serif" font-size="10.00" fill="#000000">::getCapacity</text>
</a>
</g>
</g>
<!-- Node1&#45;&gt;Node2 -->
<g id="edge1" class="edge">
<title>Node1&#45;&gt;Node2</title>
<path fill="none" stroke="#191970" d="M82.8729,-103.612C101.1949,-113.898 126.3009,-127.5738 149,-138.5 152.3159,-140.0961 155.7653,-141.6983 159.2518,-143.2759"/>
<polygon fill="#191970" stroke="#191970" points="157.9406,-146.5231 168.5013,-147.3734 160.7759,-140.123 157.9406,-146.5231"/>
</g>
<!-- Node3 -->
<g id="node3" class="node">
<title>Node3</title>
<g id="a_node3"><a xlink:href="classbsn_1_1resource_1_1Battery.html#a674c7c02100126e91f040bc93f143c7e" target="_top" xlink:title=" ">
<polygon fill="#ffffff" stroke="#000000" points="149,-98.5 149,-128.5 262,-128.5 262,-98.5 149,-98.5"/>
<text text-anchor="start" x="157" y="-116.5" font-family="Helvetica,sans-Serif" font-size="10.00" fill="#000000">bsn::resource::Battery</text>
<text text-anchor="middle" x="205.5" y="-105.5" font-family="Helvetica,sans-Serif" font-size="10.00" fill="#000000">::getCurrentLevel</text>
</a>
</g>
</g>
<!-- Node1&#45;&gt;Node3 -->
<g id="edge2" class="edge">
<title>Node1&#45;&gt;Node3</title>
<path fill="none" stroke="#191970" d="M113.2556,-98.0227C121.6493,-99.4311 130.3621,-100.893 138.9332,-102.3311"/>
<polygon fill="#191970" stroke="#191970" points="138.4609,-105.8007 148.9022,-104.0037 139.6193,-98.8972 138.4609,-105.8007"/>
</g>
<!-- Node4 -->
<g id="node4" class="node">
<title>Node4</title>
<g id="a_node4"><a xlink:href="classbsn_1_1resource_1_1Battery.html#ad5cd2177695d9bd27dd61d514b86470b" target="_top" xlink:title=" ">
<polygon fill="#ffffff" stroke="#000000" points="149,-49.5 149,-79.5 262,-79.5 262,-49.5 149,-49.5"/>
<text text-anchor="start" x="157" y="-67.5" font-family="Helvetica,sans-Serif" font-size="10.00" fill="#000000">bsn::resource::Battery</text>
<text text-anchor="middle" x="205.5" y="-56.5" font-family="Helvetica,sans-Serif" font-size="10.00" fill="#000000">::getId</text>
</a>
</g>
</g>
<!-- Node1&#45;&gt;Node4 -->
<g id="edge3" class="edge">
<title>Node1&#45;&gt;Node4</title>
<path fill="none" stroke="#191970" d="M113.2556,-79.3582C121.6493,-78.0062 130.3621,-76.6028 138.9332,-75.2222"/>
<polygon fill="#191970" stroke="#191970" points="139.5861,-78.6622 148.9022,-73.6164 138.4729,-71.7513 139.5861,-78.6622"/>
</g>
<!-- Node5 -->
<g id="node5" class="node">
<title>Node5</title>
<g id="a_node5"><a xlink:href="classbsn_1_1resource_1_1Battery.html#af42ddcb306bcc9f8c7bb4d23a1c96a2d" target="_top" xlink:title=" ">
<polygon fill="#ffffff" stroke="#000000" points="149,-.5 149,-30.5 262,-30.5 262,-.5 149,-.5"/>
<text text-anchor="start" x="157" y="-18.5" font-family="Helvetica,sans-Serif" font-size="10.00" fill="#000000">bsn::resource::Battery</text>
<text text-anchor="middle" x="205.5" y="-7.5" font-family="Helvetica,sans-Serif" font-size="10.00" fill="#000000">::getUnit</text>
</a>
</g>
</g>
<!-- Node1&#45;&gt;Node5 -->
<g id="edge4" class="edge">
<title>Node1&#45;&gt;Node5</title>
<path fill="none" stroke="#191970" d="M84.6096,-73.3358C102.8254,-63.6529 127.1447,-50.9934 149,-40.5 152.8618,-38.6458 156.8937,-36.7618 160.9488,-34.9022"/>
<polygon fill="#191970" stroke="#191970" points="162.7153,-37.9446 170.3832,-30.6334 159.8296,-31.567 162.7153,-37.9446"/>
</g>
</g>
</svg>
