<?xml version="1.0" encoding="UTF-8" standalone="no"?>
<!DOCTYPE svg PUBLIC "-//W3C//DTD SVG 1.1//EN"
 "http://www.w3.org/Graphics/SVG/1.1/DTD/svg11.dtd">
<!-- Generated by graphviz version 2.40.1 (20161225.0304)
 -->
<!-- Title: arch::target_system::Component::run Pages: 1 -->
<svg width="855pt" height="291pt"
 viewBox="0.00 0.00 855.00 291.00" xmlns="http://www.w3.org/2000/svg" xmlns:xlink="http://www.w3.org/1999/xlink">
<g id="graph0" class="graph" transform="scale(1 1) rotate(0) translate(4 287)">
<title>arch::target_system::Component::run</title>
<polygon fill="#ffffff" stroke="transparent" points="-4,4 -4,-287 851,-287 851,4 -4,4"/>
<!-- Node1 -->
<g id="node1" class="node">
<title>Node1</title>
<g id="a_node1"><a xlink:title=" ">
<polygon fill="#bfbfbf" stroke="#000000" points="0,-159.5 0,-189.5 104,-189.5 104,-159.5 0,-159.5"/>
<text text-anchor="start" x="8" y="-177.5" font-family="Helvetica,sans-Serif" font-size="10.00" fill="#000000">arch::target_system</text>
<text text-anchor="middle" x="52" y="-166.5" font-family="Helvetica,sans-Serif" font-size="10.00" fill="#000000">::Component::run</text>
</a>
</g>
</g>
<!-- Node2 -->
<g id="node2" class="node">
<title>Node2</title>
<g id="a_node2"><a xlink:href="classarch_1_1target__system_1_1Component.html#ac473539ffdccdef20318a6c4bfea0b22" target="_top" xlink:title=" ">
<polygon fill="#ffffff" stroke="#000000" points="167,-252.5 167,-282.5 271,-282.5 271,-252.5 167,-252.5"/>
<text text-anchor="start" x="175" y="-270.5" font-family="Helvetica,sans-Serif" font-size="10.00" fill="#000000">arch::target_system</text>
<text text-anchor="middle" x="219" y="-259.5" font-family="Helvetica,sans-Serif" font-size="10.00" fill="#000000">::Component::body</text>
</a>
</g>
</g>
<!-- Node1&#45;&gt;Node2 -->
<g id="edge1" class="edge">
<title>Node1&#45;&gt;Node2</title>
<path fill="none" stroke="#191970" d="M67.5971,-189.7033C84.273,-205.2042 112.1024,-228.978 140,-243.5 145.5071,-246.3667 151.412,-248.9504 157.4226,-251.2647"/>
<polygon fill="#191970" stroke="#191970" points="156.3184,-254.587 166.9128,-254.6818 158.6898,-248.0009 156.3184,-254.587"/>
</g>
<!-- Node3 -->
<g id="node3" class="node">
<title>Node3</title>
<g id="a_node3"><a xlink:href="classarch_1_1ROSComponentDescriptor.html#a4b73f46f37241865a08e75ab202e28eb" target="_top" xlink:title=" ">
<polygon fill="#ffffff" stroke="#000000" points="140,-203.5 140,-233.5 298,-233.5 298,-203.5 140,-203.5"/>
<text text-anchor="start" x="148" y="-221.5" font-family="Helvetica,sans-Serif" font-size="10.00" fill="#000000">arch::ROSComponentDescriptor</text>
<text text-anchor="middle" x="219" y="-210.5" font-family="Helvetica,sans-Serif" font-size="10.00" fill="#000000">::getFreq</text>
</a>
</g>
</g>
<!-- Node1&#45;&gt;Node3 -->
<g id="edge2" class="edge">
<title>Node1&#45;&gt;Node3</title>
<path fill="none" stroke="#191970" d="M104.3816,-188.3012C119.5117,-192.2875 136.2323,-196.693 152.1169,-200.8781"/>
<polygon fill="#191970" stroke="#191970" points="151.3158,-204.2864 161.8776,-203.4498 153.0993,-197.5174 151.3158,-204.2864"/>
</g>
<!-- Node4 -->
<g id="node4" class="node">
<title>Node4</title>
<g id="a_node4"><a xlink:href="classarch_1_1target__system_1_1Component.html#adc6ecb4090656eeac2289ec147a20f81" target="_top" xlink:title=" ">
<polygon fill="#ffffff" stroke="#000000" points="349,-186.5 349,-216.5 477,-216.5 477,-186.5 349,-186.5"/>
<text text-anchor="start" x="357" y="-204.5" font-family="Helvetica,sans-Serif" font-size="10.00" fill="#000000">arch::target_system</text>
<text text-anchor="middle" x="413" y="-193.5" font-family="Helvetica,sans-Serif" font-size="10.00" fill="#000000">::Component::sendStatus</text>
</a>
</g>
</g>
<!-- Node1&#45;&gt;Node4 -->
<g id="edge3" class="edge">
<title>Node1&#45;&gt;Node4</title>
<path fill="none" stroke="#191970" d="M104.107,-178.3972C165.7077,-183.0045 268.6741,-190.7055 338.6403,-195.9385"/>
<polygon fill="#191970" stroke="#191970" points="338.4816,-199.4363 348.7148,-196.692 339.0038,-192.4558 338.4816,-199.4363"/>
</g>
<!-- Node6 -->
<g id="node6" class="node">
<title>Node6</title>
<g id="a_node6"><a xlink:href="classarch_1_1target__system_1_1Component.html#a6a7bf2a65bcc78fc61167205509091a5" target="_top" xlink:title=" ">
<polygon fill="#ffffff" stroke="#000000" points="166.5,-115.5 166.5,-145.5 271.5,-145.5 271.5,-115.5 166.5,-115.5"/>
<text text-anchor="start" x="174.5" y="-133.5" font-family="Helvetica,sans-Serif" font-size="10.00" fill="#000000">arch::target_system</text>
<text text-anchor="middle" x="219" y="-122.5" font-family="Helvetica,sans-Serif" font-size="10.00" fill="#000000">::Component::setUp</text>
</a>
</g>
</g>
<!-- Node1&#45;&gt;Node6 -->
<g id="edge5" class="edge">
<title>Node1&#45;&gt;Node6</title>
<path fill="none" stroke="#191970" d="M104.3816,-160.6988C120.8538,-156.3589 139.2114,-151.5221 156.3228,-147.0138"/>
<polygon fill="#191970" stroke="#191970" points="157.4518,-150.3358 166.23,-144.4035 155.6683,-143.5668 157.4518,-150.3358"/>
</g>
<!-- Node12 -->
<g id="node12" class="node">
<title>Node12</title>
<g id="a_node12"><a xlink:href="classarch_1_1target__system_1_1Component.html#af8115ceb5653f47f04537fb0eb7dfff2" target="_top" xlink:title=" ">
<polygon fill="#ffffff" stroke="#000000" points="158.5,-66.5 158.5,-96.5 279.5,-96.5 279.5,-66.5 158.5,-66.5"/>
<text text-anchor="start" x="166.5" y="-84.5" font-family="Helvetica,sans-Serif" font-size="10.00" fill="#000000">arch::target_system</text>
<text text-anchor="middle" x="219" y="-73.5" font-family="Helvetica,sans-Serif" font-size="10.00" fill="#000000">::Component::tearDown</text>
</a>
</g>
</g>
<!-- Node1&#45;&gt;Node12 -->
<g id="edge14" class="edge">
<title>Node1&#45;&gt;Node12</title>
<path fill="none" stroke="#191970" d="M67.9833,-159.3123C84.7534,-144.094 112.4591,-120.9147 140,-106.5 144.2379,-104.2819 148.7076,-102.2183 153.2774,-100.3064"/>
<polygon fill="#191970" stroke="#191970" points="154.721,-103.5 162.756,-96.5943 152.1683,-96.982 154.721,-103.5"/>
</g>
<!-- Node5 -->
<g id="node5" class="node">
<title>Node5</title>
<g id="a_node5"><a xlink:href="classarch_1_1ROSComponentDescriptor.html#a462b00745d0de3f98d88f3eb1ba11e45" target="_top" xlink:title=" ">
<polygon fill="#ffffff" stroke="#000000" points="689,-161.5 689,-191.5 847,-191.5 847,-161.5 689,-161.5"/>
<text text-anchor="start" x="697" y="-179.5" font-family="Helvetica,sans-Serif" font-size="10.00" fill="#000000">arch::ROSComponentDescriptor</text>
<text text-anchor="middle" x="768" y="-168.5" font-family="Helvetica,sans-Serif" font-size="10.00" fill="#000000">::getName</text>
</a>
</g>
</g>
<!-- Node4&#45;&gt;Node5 -->
<g id="edge4" class="edge">
<title>Node4&#45;&gt;Node5</title>
<path fill="none" stroke="#191970" d="M477.2878,-196.9727C533.5958,-193.0073 615.991,-187.2049 678.6973,-182.7889"/>
<polygon fill="#191970" stroke="#191970" points="679.2495,-186.2588 688.9789,-182.0649 678.7577,-179.2761 679.2495,-186.2588"/>
</g>
<!-- Node6&#45;&gt;Node4 -->
<g id="edge10" class="edge">
<title>Node6&#45;&gt;Node4</title>
<path fill="none" stroke="#191970" d="M260.6539,-145.6204C272.7746,-150.2079 285.9841,-155.3906 298,-160.5 314.2833,-167.4239 317.4908,-171.1335 334,-177.5 339.0989,-179.4663 344.4313,-181.3792 349.8144,-183.2111"/>
<polygon fill="#191970" stroke="#191970" points="348.9263,-186.6036 359.5195,-186.4148 351.1207,-179.9564 348.9263,-186.6036"/>
</g>
<!-- Node7 -->
<g id="node7" class="node">
<title>Node7</title>
<g id="a_node7"><a xlink:href="classarch_1_1target__system_1_1Component.html#a766a2494155aaa42b3c8162cefb11b77" target="_top" xlink:title=" ">
<polygon fill="#ffffff" stroke="#000000" points="356.5,-137.5 356.5,-167.5 469.5,-167.5 469.5,-137.5 356.5,-137.5"/>
<text text-anchor="start" x="364.5" y="-155.5" font-family="Helvetica,sans-Serif" font-size="10.00" fill="#000000">arch::target_system</text>
<text text-anchor="middle" x="413" y="-144.5" font-family="Helvetica,sans-Serif" font-size="10.00" fill="#000000">::Component::activate</text>
</a>
</g>
</g>
<!-- Node6&#45;&gt;Node7 -->
<g id="edge6" class="edge">
<title>Node6&#45;&gt;Node7</title>
<path fill="none" stroke="#191970" d="M271.7551,-136.4825C294.6302,-139.0766 321.6834,-142.1445 345.9602,-144.8976"/>
<polygon fill="#191970" stroke="#191970" points="345.8436,-148.4067 356.1744,-146.0559 346.6325,-141.4513 345.8436,-148.4067"/>
</g>
<!-- Node9 -->
<g id="node9" class="node">
<title>Node9</title>
<g id="a_node9"><a xlink:href="classarch_1_1ROSComponent.html#aa5fa36ba1bff54a60c9a0e5498e504f7" target="_top" xlink:title=" ">
<polygon fill="#ffffff" stroke="#000000" points="534,-45.5 534,-75.5 647,-75.5 647,-45.5 534,-45.5"/>
<text text-anchor="start" x="542" y="-63.5" font-family="Helvetica,sans-Serif" font-size="10.00" fill="#000000">arch::ROSComponent</text>
<text text-anchor="middle" x="590.5" y="-52.5" font-family="Helvetica,sans-Serif" font-size="10.00" fill="#000000">::getRosNodeName</text>
</a>
</g>
</g>
<!-- Node6&#45;&gt;Node9 -->
<g id="edge9" class="edge">
<title>Node6&#45;&gt;Node9</title>
<path fill="none" stroke="#191970" d="M271.7289,-124.7587C327.0039,-118.2335 416.1902,-106.2694 492,-89.5 505.8661,-86.4328 520.6408,-82.4662 534.4158,-78.4571"/>
<polygon fill="#191970" stroke="#191970" points="535.6503,-81.7417 544.2422,-75.5425 533.6598,-75.0307 535.6503,-81.7417"/>
</g>
<!-- Node10 -->
<g id="node10" class="node">
<title>Node10</title>
<g id="a_node10"><a xlink:href="classarch_1_1ROSComponentDescriptor.html#a6ae1f0c4c644bce7bc7e99e408dc7ca0" target="_top" xlink:title=" ">
<polygon fill="#ffffff" stroke="#000000" points="334,-49.5 334,-79.5 492,-79.5 492,-49.5 334,-49.5"/>
<text text-anchor="start" x="342" y="-67.5" font-family="Helvetica,sans-Serif" font-size="10.00" fill="#000000">arch::ROSComponentDescriptor</text>
<text text-anchor="middle" x="413" y="-56.5" font-family="Helvetica,sans-Serif" font-size="10.00" fill="#000000">::setFreq</text>
</a>
</g>
</g>
<!-- Node6&#45;&gt;Node10 -->
<g id="edge11" class="edge">
<title>Node6&#45;&gt;Node10</title>
<path fill="none" stroke="#191970" d="M270.1271,-115.4189C279.4302,-112.5467 289.0273,-109.4989 298,-106.5 319.8406,-99.2003 343.7922,-90.5568 364.1561,-83.0142"/>
<polygon fill="#191970" stroke="#191970" points="365.387,-86.2908 373.5387,-79.5232 362.9459,-79.7302 365.387,-86.2908"/>
</g>
<!-- Node11 -->
<g id="node11" class="node">
<title>Node11</title>
<g id="a_node11"><a xlink:href="classarch_1_1target__system_1_1Component.html#a859fdc651315139921d2b2c5fa75be76" target="_top" xlink:title=" ">
<polygon fill="#ffffff" stroke="#000000" points="344.5,-.5 344.5,-30.5 481.5,-30.5 481.5,-.5 344.5,-.5"/>
<text text-anchor="start" x="352.5" y="-18.5" font-family="Helvetica,sans-Serif" font-size="10.00" fill="#000000">arch::target_system</text>
<text text-anchor="middle" x="413" y="-7.5" font-family="Helvetica,sans-Serif" font-size="10.00" fill="#000000">::Component::sigIntHandler</text>
</a>
</g>
</g>
<!-- Node6&#45;&gt;Node11 -->
<g id="edge12" class="edge">
<title>Node6&#45;&gt;Node11</title>
<path fill="none" stroke="#191970" d="M271.6289,-120.8239C281.0831,-117.4004 290.3489,-112.7678 298,-106.5 324.1498,-85.078 307.8502,-60.922 334,-39.5 335.5801,-38.2056 337.2291,-36.9809 338.9344,-35.8222"/>
<polygon fill="#191970" stroke="#191970" points="341.0296,-38.6503 347.8719,-30.5612 337.4786,-32.6178 341.0296,-38.6503"/>
</g>
<!-- Node8 -->
<g id="node8" class="node">
<title>Node8</title>
<g id="a_node8"><a xlink:href="classarch_1_1target__system_1_1Component.html#a9d793970d5fbdef5c31e5ab901b98030" target="_top" xlink:title=" ">
<polygon fill="#ffffff" stroke="#000000" points="528,-138.5 528,-168.5 653,-168.5 653,-138.5 528,-138.5"/>
<text text-anchor="start" x="536" y="-156.5" font-family="Helvetica,sans-Serif" font-size="10.00" fill="#000000">arch::target_system</text>
<text text-anchor="middle" x="590.5" y="-145.5" font-family="Helvetica,sans-Serif" font-size="10.00" fill="#000000">::Component::sendEvent</text>
</a>
</g>
</g>
<!-- Node7&#45;&gt;Node8 -->
<g id="edge7" class="edge">
<title>Node7&#45;&gt;Node8</title>
<path fill="none" stroke="#191970" d="M469.6501,-152.8192C484.8808,-152.905 501.5691,-152.999 517.551,-153.089"/>
<polygon fill="#191970" stroke="#191970" points="517.9093,-156.591 527.9289,-153.1475 517.9488,-149.5911 517.9093,-156.591"/>
</g>
<!-- Node8&#45;&gt;Node5 -->
<g id="edge8" class="edge">
<title>Node8&#45;&gt;Node5</title>
<path fill="none" stroke="#191970" d="M653.0799,-161.6089C661.4016,-162.6873 670.0605,-163.8092 678.726,-164.9321"/>
<polygon fill="#191970" stroke="#191970" points="678.515,-168.4339 688.8819,-166.2481 679.4146,-161.492 678.515,-168.4339"/>
</g>
<!-- Node11&#45;&gt;Node9 -->
<g id="edge13" class="edge">
<title>Node11&#45;&gt;Node9</title>
<path fill="none" stroke="#191970" d="M472.5987,-30.6095C489.1001,-34.793 507.114,-39.3599 523.9826,-43.6364"/>
<polygon fill="#191970" stroke="#191970" points="523.2086,-47.0509 533.7621,-46.1157 524.9289,-40.2655 523.2086,-47.0509"/>
</g>
</g>
</svg>
