<?xml version="1.0" encoding="UTF-8" standalone="no"?>
<!DOCTYPE svg PUBLIC "-//W3C//DTD SVG 1.1//EN"
 "http://www.w3.org/Graphics/SVG/1.1/DTD/svg11.dtd">
<!-- Generated by graphviz version 2.40.1 (20161225.0304)
 -->
<!-- Title: Lepton::ParsedExpression::createCompiledExpression Pages: 1 -->
<svg width="290pt" height="39pt"
 viewBox="0.00 0.00 290.00 39.00" xmlns="http://www.w3.org/2000/svg" xmlns:xlink="http://www.w3.org/1999/xlink">
<g id="graph0" class="graph" transform="scale(1 1) rotate(0) translate(4 35)">
<title>Lepton::ParsedExpression::createCompiledExpression</title>
<polygon fill="#ffffff" stroke="transparent" points="-4,4 -4,-35 286,-35 286,4 -4,4"/>
<!-- Node1 -->
<g id="node1" class="node">
<title>Node1</title>
<g id="a_node1"><a xlink:title=" ">
<polygon fill="#bfbfbf" stroke="#000000" points="142,-.5 142,-30.5 282,-30.5 282,-.5 142,-.5"/>
<text text-anchor="start" x="150" y="-18.5" font-family="Helvetica,sans-Serif" font-size="10.00" fill="#000000">Lepton::ParsedExpression</text>
<text text-anchor="middle" x="212" y="-7.5" font-family="Helvetica,sans-Serif" font-size="10.00" fill="#000000">::createCompiledExpression</text>
</a>
</g>
</g>
<!-- Node2 -->
<g id="node2" class="node">
<title>Node2</title>
<g id="a_node2"><a xlink:href="classbsn_1_1model_1_1Formula.html#a2a082f72ae62ff2049ddc4a33154b704" target="_top" xlink:title=" ">
<polygon fill="#ffffff" stroke="#000000" points="0,-.5 0,-30.5 106,-30.5 106,-.5 0,-.5"/>
<text text-anchor="start" x="8" y="-18.5" font-family="Helvetica,sans-Serif" font-size="10.00" fill="#000000">bsn::model::Formula</text>
<text text-anchor="middle" x="53" y="-7.5" font-family="Helvetica,sans-Serif" font-size="10.00" fill="#000000">::Formula</text>
</a>
</g>
</g>
<!-- Node1&#45;&gt;Node2 -->
<g id="edge1" class="edge">
<title>Node1&#45;&gt;Node2</title>
<path fill="none" stroke="#191970" d="M131.6466,-15.5C122.9839,-15.5 114.3347,-15.5 106.1105,-15.5"/>
<polygon fill="#191970" stroke="#191970" points="131.7975,-19.0001 141.7975,-15.5 131.7974,-12.0001 131.7975,-19.0001"/>
</g>
</g>
</svg>
