<?xml version="1.0" encoding="UTF-8" standalone="no"?>
<!DOCTYPE svg PUBLIC "-//W3C//DTD SVG 1.1//EN"
 "http://www.w3.org/Graphics/SVG/1.1/DTD/svg11.dtd">
<!-- Generated by graphviz version 2.40.1 (20161225.0304)
 -->
<!-- Title: arch::target_system::Component::activate Pages: 1 -->
<svg width="402pt" height="39pt"
 viewBox="0.00 0.00 402.00 39.00" xmlns="http://www.w3.org/2000/svg" xmlns:xlink="http://www.w3.org/1999/xlink">
<g id="graph0" class="graph" transform="scale(1 1) rotate(0) translate(4 35)">
<title>arch::target_system::Component::activate</title>
<polygon fill="#ffffff" stroke="transparent" points="-4,4 -4,-35 398,-35 398,4 -4,4"/>
<!-- Node1 -->
<g id="node1" class="node">
<title>Node1</title>
<g id="a_node1"><a xlink:title=" ">
<polygon fill="#bfbfbf" stroke="#000000" points="281,-.5 281,-30.5 394,-30.5 394,-.5 281,-.5"/>
<text text-anchor="start" x="289" y="-18.5" font-family="Helvetica,sans-Serif" font-size="10.00" fill="#000000">arch::target_system</text>
<text text-anchor="middle" x="337.5" y="-7.5" font-family="Helvetica,sans-Serif" font-size="10.00" fill="#000000">::Component::activate</text>
</a>
</g>
</g>
<!-- Node2 -->
<g id="node2" class="node">
<title>Node2</title>
<g id="a_node2"><a xlink:href="classarch_1_1target__system_1_1Component.html#a6a7bf2a65bcc78fc61167205509091a5" target="_top" xlink:title=" ">
<polygon fill="#ffffff" stroke="#000000" points="140,-.5 140,-30.5 245,-30.5 245,-.5 140,-.5"/>
<text text-anchor="start" x="148" y="-18.5" font-family="Helvetica,sans-Serif" font-size="10.00" fill="#000000">arch::target_system</text>
<text text-anchor="middle" x="192.5" y="-7.5" font-family="Helvetica,sans-Serif" font-size="10.00" fill="#000000">::Component::setUp</text>
</a>
</g>
</g>
<!-- Node1&#45;&gt;Node2 -->
<g id="edge1" class="edge">
<title>Node1&#45;&gt;Node2</title>
<path fill="none" stroke="#191970" d="M270.4536,-15.5C262.0637,-15.5 253.5759,-15.5 245.443,-15.5"/>
<polygon fill="#191970" stroke="#191970" points="270.6084,-19.0001 280.6083,-15.5 270.6083,-12.0001 270.6084,-19.0001"/>
</g>
<!-- Node3 -->
<g id="node3" class="node">
<title>Node3</title>
<g id="a_node3"><a xlink:href="classarch_1_1target__system_1_1Component.html#ac590323763a5ea9e7edf1a5e67f8a94f" target="_top" xlink:title=" ">
<polygon fill="#ffffff" stroke="#000000" points="0,-.5 0,-30.5 104,-30.5 104,-.5 0,-.5"/>
<text text-anchor="start" x="8" y="-18.5" font-family="Helvetica,sans-Serif" font-size="10.00" fill="#000000">arch::target_system</text>
<text text-anchor="middle" x="52" y="-7.5" font-family="Helvetica,sans-Serif" font-size="10.00" fill="#000000">::Component::run</text>
</a>
</g>
</g>
<!-- Node2&#45;&gt;Node3 -->
<g id="edge2" class="edge">
<title>Node2&#45;&gt;Node3</title>
<path fill="none" stroke="#191970" d="M129.5154,-15.5C121.0114,-15.5 112.3638,-15.5 104.0784,-15.5"/>
<polygon fill="#191970" stroke="#191970" points="129.7833,-19.0001 139.7833,-15.5 129.7832,-12.0001 129.7833,-19.0001"/>
</g>
</g>
</svg>
