<?xml version="1.0" encoding="UTF-8" standalone="no"?>
<!DOCTYPE svg PUBLIC "-//W3C//DTD SVG 1.1//EN"
 "http://www.w3.org/Graphics/SVG/1.1/DTD/svg11.dtd">
<!-- Generated by graphviz version 2.40.1 (20161225.0304)
 -->
<!-- Title: CentralHub Pages: 1 -->
<svg width="768pt" height="744pt"
 viewBox="0.00 0.00 768.00 744.00" xmlns="http://www.w3.org/2000/svg" xmlns:xlink="http://www.w3.org/1999/xlink">
<g id="graph0" class="graph" transform="scale(1 1) rotate(0) translate(4 740)">
<title>CentralHub</title>
<polygon fill="#ffffff" stroke="transparent" points="-4,4 -4,-740 764,-740 764,4 -4,4"/>
<!-- Node1 -->
<g id="node1" class="node">
<title>Node1</title>
<g id="a_node1"><a xlink:title=" ">
<polygon fill="#bfbfbf" stroke="#000000" points="404.5,-.5 404.5,-167.5 491.5,-167.5 491.5,-.5 404.5,-.5"/>
<text text-anchor="middle" x="448" y="-155.5" font-family="Helvetica,sans-Serif" font-size="10.00" fill="#000000">CentralHub</text>
<polyline fill="none" stroke="#000000" points="404.5,-148.5 491.5,-148.5 "/>
<text text-anchor="middle" x="448" y="-136.5" font-family="Helvetica,sans-Serif" font-size="10.00" fill="#000000"> </text>
<polyline fill="none" stroke="#000000" points="404.5,-129.5 491.5,-129.5 "/>
<text text-anchor="start" x="412.5" y="-117.5" font-family="Helvetica,sans-Serif" font-size="10.00" fill="#000000">+ CentralHub()</text>
<text text-anchor="start" x="412.5" y="-106.5" font-family="Helvetica,sans-Serif" font-size="10.00" fill="#000000">+ ~CentralHub()</text>
<text text-anchor="start" x="412.5" y="-95.5" font-family="Helvetica,sans-Serif" font-size="10.00" fill="#000000">+ setUp()</text>
<text text-anchor="start" x="412.5" y="-84.5" font-family="Helvetica,sans-Serif" font-size="10.00" fill="#000000">+ tearDown()</text>
<text text-anchor="start" x="412.5" y="-73.5" font-family="Helvetica,sans-Serif" font-size="10.00" fill="#000000">+ run()</text>
<text text-anchor="start" x="412.5" y="-62.5" font-family="Helvetica,sans-Serif" font-size="10.00" fill="#000000">+ body()</text>
<text text-anchor="start" x="412.5" y="-51.5" font-family="Helvetica,sans-Serif" font-size="10.00" fill="#000000">+ apply_noise()</text>
<text text-anchor="start" x="412.5" y="-40.5" font-family="Helvetica,sans-Serif" font-size="10.00" fill="#000000">+ reconfigure()</text>
<text text-anchor="start" x="412.5" y="-29.5" font-family="Helvetica,sans-Serif" font-size="10.00" fill="#000000">+ collect()</text>
<text text-anchor="start" x="412.5" y="-18.5" font-family="Helvetica,sans-Serif" font-size="10.00" fill="#000000">+ process()</text>
<text text-anchor="start" x="412.5" y="-7.5" font-family="Helvetica,sans-Serif" font-size="10.00" fill="#000000">+ transfer()</text>
</a>
</g>
</g>
<!-- Node2 -->
<g id="node2" class="node">
<title>Node2</title>
<g id="a_node2"><a xlink:href="classarch_1_1target__system_1_1Component.html" target="_top" xlink:title=" ">
<polygon fill="#ffffff" stroke="#000000" points="119,-215.5 119,-404.5 223,-404.5 223,-215.5 119,-215.5"/>
<text text-anchor="start" x="127" y="-392.5" font-family="Helvetica,sans-Serif" font-size="10.00" fill="#000000">arch::target_system</text>
<text text-anchor="middle" x="171" y="-381.5" font-family="Helvetica,sans-Serif" font-size="10.00" fill="#000000">::Component</text>
<polyline fill="none" stroke="#000000" points="119,-374.5 223,-374.5 "/>
<text text-anchor="middle" x="171" y="-362.5" font-family="Helvetica,sans-Serif" font-size="10.00" fill="#000000"> </text>
<polyline fill="none" stroke="#000000" points="119,-355.5 223,-355.5 "/>
<text text-anchor="start" x="127" y="-343.5" font-family="Helvetica,sans-Serif" font-size="10.00" fill="#000000">+ Component()</text>
<text text-anchor="start" x="127" y="-332.5" font-family="Helvetica,sans-Serif" font-size="10.00" fill="#000000">+ ~Component()</text>
<text text-anchor="start" x="127" y="-321.5" font-family="Helvetica,sans-Serif" font-size="10.00" fill="#000000">+ setUp()</text>
<text text-anchor="start" x="127" y="-310.5" font-family="Helvetica,sans-Serif" font-size="10.00" fill="#000000">+ tearDown()</text>
<text text-anchor="start" x="127" y="-299.5" font-family="Helvetica,sans-Serif" font-size="10.00" fill="#000000">+ run()</text>
<text text-anchor="start" x="127" y="-288.5" font-family="Helvetica,sans-Serif" font-size="10.00" fill="#000000">+ body()</text>
<text text-anchor="start" x="127" y="-277.5" font-family="Helvetica,sans-Serif" font-size="10.00" fill="#000000">+ sendEvent()</text>
<text text-anchor="start" x="127" y="-266.5" font-family="Helvetica,sans-Serif" font-size="10.00" fill="#000000">+ sendStatus()</text>
<text text-anchor="start" x="127" y="-255.5" font-family="Helvetica,sans-Serif" font-size="10.00" fill="#000000">+ reconfigure()</text>
<text text-anchor="start" x="127" y="-244.5" font-family="Helvetica,sans-Serif" font-size="10.00" fill="#000000"># activate()</text>
<text text-anchor="start" x="127" y="-233.5" font-family="Helvetica,sans-Serif" font-size="10.00" fill="#000000"># deactivate()</text>
<text text-anchor="start" x="127" y="-222.5" font-family="Helvetica,sans-Serif" font-size="10.00" fill="#000000"># sigIntHandler()</text>
</a>
</g>
</g>
<!-- Node2&#45;&gt;Node1 -->
<g id="edge1" class="edge">
<title>Node2&#45;&gt;Node1</title>
<path fill="none" stroke="#191970" d="M225.856,-206.9436C231.8036,-199.4316 238.192,-192.3319 245,-186 291.4985,-142.7529 359.8018,-113.5592 404.0923,-97.8476"/>
<polygon fill="none" stroke="#191970" points="222.8208,-205.1543 219.5762,-215.2401 228.4022,-209.379 222.8208,-205.1543"/>
</g>
<!-- Node3 -->
<g id="node3" class="node">
<title>Node3</title>
<g id="a_node3"><a xlink:href="classarch_1_1ROSComponent.html" target="_top" xlink:title=" ">
<polygon fill="#ffffff" stroke="#000000" points="22.5,-452.5 22.5,-575.5 135.5,-575.5 135.5,-452.5 22.5,-452.5"/>
<text text-anchor="middle" x="79" y="-563.5" font-family="Helvetica,sans-Serif" font-size="10.00" fill="#000000">arch::ROSComponent</text>
<polyline fill="none" stroke="#000000" points="22.5,-556.5 135.5,-556.5 "/>
<text text-anchor="middle" x="79" y="-544.5" font-family="Helvetica,sans-Serif" font-size="10.00" fill="#000000"> </text>
<polyline fill="none" stroke="#000000" points="22.5,-537.5 135.5,-537.5 "/>
<text text-anchor="start" x="30.5" y="-525.5" font-family="Helvetica,sans-Serif" font-size="10.00" fill="#000000">+ ROSComponent()</text>
<text text-anchor="start" x="30.5" y="-514.5" font-family="Helvetica,sans-Serif" font-size="10.00" fill="#000000">+ ~ROSComponent()</text>
<text text-anchor="start" x="30.5" y="-503.5" font-family="Helvetica,sans-Serif" font-size="10.00" fill="#000000">+ setUp()</text>
<text text-anchor="start" x="30.5" y="-492.5" font-family="Helvetica,sans-Serif" font-size="10.00" fill="#000000">+ tearDown()</text>
<text text-anchor="start" x="30.5" y="-481.5" font-family="Helvetica,sans-Serif" font-size="10.00" fill="#000000">+ run()</text>
<text text-anchor="start" x="30.5" y="-470.5" font-family="Helvetica,sans-Serif" font-size="10.00" fill="#000000">+ body()</text>
<text text-anchor="start" x="30.5" y="-459.5" font-family="Helvetica,sans-Serif" font-size="10.00" fill="#000000"># getRosNodeName()</text>
</a>
</g>
</g>
<!-- Node3&#45;&gt;Node2 -->
<g id="edge2" class="edge">
<title>Node3&#45;&gt;Node2</title>
<path fill="none" stroke="#191970" d="M111.049,-442.9348C116.6214,-430.5786 122.4955,-417.5534 128.2992,-404.6843"/>
<polygon fill="none" stroke="#191970" points="107.7733,-441.6849 106.8527,-452.2397 114.1544,-444.5627 107.7733,-441.6849"/>
</g>
<!-- Node4 -->
<g id="node4" class="node">
<title>Node4</title>
<g id="a_node4"><a xlink:href="classarch_1_1ROSComponentDescriptor.html" target="_top" xlink:title=" ">
<polygon fill="#ffffff" stroke="#000000" points="0,-623.5 0,-735.5 158,-735.5 158,-623.5 0,-623.5"/>
<text text-anchor="middle" x="79" y="-723.5" font-family="Helvetica,sans-Serif" font-size="10.00" fill="#000000">arch::ROSComponentDescriptor</text>
<polyline fill="none" stroke="#000000" points="0,-716.5 158,-716.5 "/>
<text text-anchor="middle" x="79" y="-704.5" font-family="Helvetica,sans-Serif" font-size="10.00" fill="#000000"> </text>
<polyline fill="none" stroke="#000000" points="0,-697.5 158,-697.5 "/>
<text text-anchor="start" x="8" y="-685.5" font-family="Helvetica,sans-Serif" font-size="10.00" fill="#000000">+ ROSComponentDescriptor()</text>
<text text-anchor="start" x="8" y="-674.5" font-family="Helvetica,sans-Serif" font-size="10.00" fill="#000000">+ ~ROSComponentDescriptor()</text>
<text text-anchor="start" x="8" y="-663.5" font-family="Helvetica,sans-Serif" font-size="10.00" fill="#000000">+ setName()</text>
<text text-anchor="start" x="8" y="-652.5" font-family="Helvetica,sans-Serif" font-size="10.00" fill="#000000">+ getName()</text>
<text text-anchor="start" x="8" y="-641.5" font-family="Helvetica,sans-Serif" font-size="10.00" fill="#000000">+ setFreq()</text>
<text text-anchor="start" x="8" y="-630.5" font-family="Helvetica,sans-Serif" font-size="10.00" fill="#000000">+ getFreq()</text>
</a>
</g>
</g>
<!-- Node4&#45;&gt;Node3 -->
<g id="edge3" class="edge">
<title>Node4&#45;&gt;Node3</title>
<path fill="none" stroke="#404040" d="M79,-623.4692C79,-612.0551 79,-599.8811 79,-587.9537"/>
<polygon fill="none" stroke="#404040" points="79.0001,-587.6555 75,-581.6555 79,-575.6555 83,-581.6555 79.0001,-587.6555"/>
<text text-anchor="middle" x="138" y="-597" font-family="Helvetica,sans-Serif" font-size="10.00" fill="#000000"> #rosComponentDescriptor</text>
</g>
<!-- Node5 -->
<g id="node5" class="node">
<title>Node5</title>
<g id="a_node5"><a xlink:title=" ">
<polygon fill="#ffffff" stroke="#bfbfbf" points="153.5,-485.5 153.5,-542.5 224.5,-542.5 224.5,-485.5 153.5,-485.5"/>
<text text-anchor="middle" x="189" y="-530.5" font-family="Helvetica,sans-Serif" font-size="10.00" fill="#000000">NodeHandle</text>
<polyline fill="none" stroke="#bfbfbf" points="153.5,-523.5 224.5,-523.5 "/>
<text text-anchor="middle" x="189" y="-511.5" font-family="Helvetica,sans-Serif" font-size="10.00" fill="#000000"> </text>
<polyline fill="none" stroke="#bfbfbf" points="153.5,-504.5 224.5,-504.5 "/>
<text text-anchor="middle" x="189" y="-492.5" font-family="Helvetica,sans-Serif" font-size="10.00" fill="#000000"> </text>
</a>
</g>
</g>
<!-- Node5&#45;&gt;Node2 -->
<g id="edge4" class="edge">
<title>Node5&#45;&gt;Node2</title>
<path fill="none" stroke="#404040" d="M186.4592,-485.2045C184.8446,-466.9054 182.6438,-441.9625 180.4092,-416.6377"/>
<polygon fill="none" stroke="#404040" points="180.402,-416.5552 175.8901,-410.93 179.3472,-404.6016 183.8591,-410.2268 180.402,-416.5552"/>
<text text-anchor="middle" x="200.5" y="-426" font-family="Helvetica,sans-Serif" font-size="10.00" fill="#000000"> #handle</text>
</g>
<!-- Node6 -->
<g id="node6" class="node">
<title>Node6</title>
<g id="a_node6"><a xlink:title=" ">
<polygon fill="#ffffff" stroke="#bfbfbf" points="355,-281.5 355,-338.5 453,-338.5 453,-281.5 355,-281.5"/>
<text text-anchor="middle" x="404" y="-326.5" font-family="Helvetica,sans-Serif" font-size="10.00" fill="#000000">std::array&lt; int, 5 &gt;</text>
<polyline fill="none" stroke="#bfbfbf" points="355,-319.5 453,-319.5 "/>
<text text-anchor="middle" x="404" y="-307.5" font-family="Helvetica,sans-Serif" font-size="10.00" fill="#000000"> </text>
<polyline fill="none" stroke="#bfbfbf" points="355,-300.5 453,-300.5 "/>
<text text-anchor="middle" x="404" y="-288.5" font-family="Helvetica,sans-Serif" font-size="10.00" fill="#000000"> </text>
</a>
</g>
</g>
<!-- Node6&#45;&gt;Node1 -->
<g id="edge5" class="edge">
<title>Node6&#45;&gt;Node1</title>
<path fill="none" stroke="#404040" d="M401.4495,-281.1027C399.9245,-255.7571 399.3903,-218.0521 406,-186 406.4518,-183.8093 406.9497,-181.6063 407.4887,-179.3964"/>
<polygon fill="none" stroke="#404040" points="407.5641,-179.1208 405.2907,-172.2774 410.7333,-167.5468 413.0067,-174.3902 407.5641,-179.1208"/>
<text text-anchor="middle" x="434.5" y="-189" font-family="Helvetica,sans-Serif" font-size="10.00" fill="#000000"> #buffer_size</text>
</g>
<!-- Node7 -->
<g id="node7" class="node">
<title>Node7</title>
<g id="a_node7"><a xlink:title=" ">
<polygon fill="#ffffff" stroke="#bfbfbf" points="289.5,-485.5 289.5,-542.5 318.5,-542.5 318.5,-485.5 289.5,-485.5"/>
<text text-anchor="middle" x="304" y="-530.5" font-family="Helvetica,sans-Serif" font-size="10.00" fill="#000000">int</text>
<polyline fill="none" stroke="#bfbfbf" points="289.5,-523.5 318.5,-523.5 "/>
<text text-anchor="middle" x="304" y="-511.5" font-family="Helvetica,sans-Serif" font-size="10.00" fill="#000000"> </text>
<polyline fill="none" stroke="#bfbfbf" points="289.5,-504.5 318.5,-504.5 "/>
<text text-anchor="middle" x="304" y="-492.5" font-family="Helvetica,sans-Serif" font-size="10.00" fill="#000000"> </text>
</a>
</g>
</g>
<!-- Node7&#45;&gt;Node1 -->
<g id="edge7" class="edge">
<title>Node7&#45;&gt;Node1</title>
<path fill="none" stroke="#404040" d="M290.4039,-485.359C266.1584,-429.8503 222.1059,-305.1623 268,-215 294.0479,-163.827 350.4858,-127.9293 393.2676,-106.812"/>
<polygon fill="none" stroke="#404040" points="393.2741,-106.809 396.962,-100.6122 404.1005,-101.633 400.4126,-107.8298 393.2741,-106.809"/>
<text text-anchor="middle" x="307" y="-313" font-family="Helvetica,sans-Serif" font-size="10.00" fill="#000000"> #max_size</text>
<text text-anchor="middle" x="307" y="-302" font-family="Helvetica,sans-Serif" font-size="10.00" fill="#000000">#total_buffer_size</text>
</g>
<!-- Node7&#45;&gt;Node6 -->
<g id="edge6" class="edge">
<title>Node7&#45;&gt;Node6</title>
<path fill="none" stroke="#404040" d="M318.1155,-485.2045C335.499,-449.742 365.1138,-389.3279 384.6193,-349.5366"/>
<polygon fill="none" stroke="#404040" points="384.6744,-349.4241 383.7237,-342.2759 389.9563,-338.6491 390.9071,-345.7972 384.6744,-349.4241"/>
<text text-anchor="middle" x="373.5" y="-426" font-family="Helvetica,sans-Serif" font-size="10.00" fill="#000000"> +elements</text>
</g>
<!-- Node8 -->
<g id="node8" class="node">
<title>Node8</title>
<g id="a_node8"><a xlink:title=" ">
<polygon fill="#ffffff" stroke="#bfbfbf" points="471.5,-281.5 471.5,-338.5 506.5,-338.5 506.5,-281.5 471.5,-281.5"/>
<text text-anchor="middle" x="489" y="-326.5" font-family="Helvetica,sans-Serif" font-size="10.00" fill="#000000">bool</text>
<polyline fill="none" stroke="#bfbfbf" points="471.5,-319.5 506.5,-319.5 "/>
<text text-anchor="middle" x="489" y="-307.5" font-family="Helvetica,sans-Serif" font-size="10.00" fill="#000000"> </text>
<polyline fill="none" stroke="#bfbfbf" points="471.5,-300.5 506.5,-300.5 "/>
<text text-anchor="middle" x="489" y="-288.5" font-family="Helvetica,sans-Serif" font-size="10.00" fill="#000000"> </text>
</a>
</g>
</g>
<!-- Node8&#45;&gt;Node1 -->
<g id="edge8" class="edge">
<title>Node8&#45;&gt;Node1</title>
<path fill="none" stroke="#404040" d="M484.0013,-281.422C479.5868,-256.2812 472.9457,-218.697 467,-186 466.6289,-183.9592 466.2527,-181.8955 465.8727,-179.8153"/>
<polygon fill="none" stroke="#404040" points="465.827,-179.5659 460.8104,-174.3858 463.6625,-167.7627 468.6791,-172.9427 465.827,-179.5659"/>
<text text-anchor="middle" x="486.5" y="-189" font-family="Helvetica,sans-Serif" font-size="10.00" fill="#000000"> #active</text>
</g>
<!-- Node9 -->
<g id="node9" class="node">
<title>Node9</title>
<g id="a_node9"><a xlink:href="classbsn_1_1resource_1_1Battery.html" target="_top" xlink:title=" ">
<polygon fill="#ffffff" stroke="#000000" points="524.5,-226.5 524.5,-393.5 637.5,-393.5 637.5,-226.5 524.5,-226.5"/>
<text text-anchor="middle" x="581" y="-381.5" font-family="Helvetica,sans-Serif" font-size="10.00" fill="#000000">bsn::resource::Battery</text>
<polyline fill="none" stroke="#000000" points="524.5,-374.5 637.5,-374.5 "/>
<text text-anchor="middle" x="581" y="-362.5" font-family="Helvetica,sans-Serif" font-size="10.00" fill="#000000"> </text>
<polyline fill="none" stroke="#000000" points="524.5,-355.5 637.5,-355.5 "/>
<text text-anchor="start" x="532.5" y="-343.5" font-family="Helvetica,sans-Serif" font-size="10.00" fill="#000000">+ Battery()</text>
<text text-anchor="start" x="532.5" y="-332.5" font-family="Helvetica,sans-Serif" font-size="10.00" fill="#000000">+ Battery()</text>
<text text-anchor="start" x="532.5" y="-321.5" font-family="Helvetica,sans-Serif" font-size="10.00" fill="#000000">+ ~Battery()</text>
<text text-anchor="start" x="532.5" y="-310.5" font-family="Helvetica,sans-Serif" font-size="10.00" fill="#000000">+ Battery()</text>
<text text-anchor="start" x="532.5" y="-299.5" font-family="Helvetica,sans-Serif" font-size="10.00" fill="#000000">+ operator=()</text>
<text text-anchor="start" x="532.5" y="-288.5" font-family="Helvetica,sans-Serif" font-size="10.00" fill="#000000">+ consume()</text>
<text text-anchor="start" x="532.5" y="-277.5" font-family="Helvetica,sans-Serif" font-size="10.00" fill="#000000">+ generate()</text>
<text text-anchor="start" x="532.5" y="-266.5" font-family="Helvetica,sans-Serif" font-size="10.00" fill="#000000">+ setId()</text>
<text text-anchor="start" x="532.5" y="-255.5" font-family="Helvetica,sans-Serif" font-size="10.00" fill="#000000">+ getId()</text>
<text text-anchor="start" x="532.5" y="-244.5" font-family="Helvetica,sans-Serif" font-size="10.00" fill="#000000">+ setCapacity()</text>
<text text-anchor="start" x="532.5" y="-233.5" font-family="Helvetica,sans-Serif" font-size="10.00" fill="#000000">and 6 more...</text>
</a>
</g>
</g>
<!-- Node9&#45;&gt;Node1 -->
<g id="edge9" class="edge">
<title>Node9&#45;&gt;Node1</title>
<path fill="none" stroke="#404040" d="M531.8536,-226.488C520.7401,-207.6034 508.9313,-187.5374 497.7915,-168.608"/>
<polygon fill="none" stroke="#404040" points="497.7664,-168.5654 491.2759,-165.4231 491.6801,-158.2234 498.1706,-161.3656 497.7664,-168.5654"/>
<text text-anchor="middle" x="534.5" y="-189" font-family="Helvetica,sans-Serif" font-size="10.00" fill="#000000"> #battery</text>
</g>
<!-- Node10 -->
<g id="node10" class="node">
<title>Node10</title>
<g id="a_node10"><a xlink:title=" ">
<polygon fill="#ffffff" stroke="#bfbfbf" points="656,-276 656,-344 760,-344 760,-276 656,-276"/>
<text text-anchor="start" x="664" y="-332" font-family="Helvetica,sans-Serif" font-size="10.00" fill="#000000">std::vector&lt; std::list</text>
<text text-anchor="middle" x="708" y="-321" font-family="Helvetica,sans-Serif" font-size="10.00" fill="#000000">&lt; double &gt; &gt;</text>
<polyline fill="none" stroke="#bfbfbf" points="656,-314 760,-314 "/>
<text text-anchor="middle" x="708" y="-302" font-family="Helvetica,sans-Serif" font-size="10.00" fill="#000000"> </text>
<polyline fill="none" stroke="#bfbfbf" points="656,-295 760,-295 "/>
<text text-anchor="middle" x="708" y="-283" font-family="Helvetica,sans-Serif" font-size="10.00" fill="#000000"> </text>
</a>
</g>
</g>
<!-- Node10&#45;&gt;Node1 -->
<g id="edge10" class="edge">
<title>Node10&#45;&gt;Node1</title>
<path fill="none" stroke="#404040" d="M690.3272,-275.9111C679.2696,-256.6315 663.7696,-232.8815 646,-215 603.504,-172.2365 544.9318,-135.5746 502.5267,-112.002"/>
<polygon fill="none" stroke="#404040" points="502.3658,-111.9139 495.1818,-112.5392 491.8416,-106.1483 499.0255,-105.523 502.3658,-111.9139"/>
<text text-anchor="middle" x="652" y="-189" font-family="Helvetica,sans-Serif" font-size="10.00" fill="#000000"> #data_buffer</text>
</g>
<!-- Node11 -->
<g id="node11" class="node">
<title>Node11</title>
<g id="a_node11"><a xlink:title=" ">
<polygon fill="#ffffff" stroke="#bfbfbf" points="660.5,-485.5 660.5,-542.5 755.5,-542.5 755.5,-485.5 660.5,-485.5"/>
<text text-anchor="middle" x="708" y="-530.5" font-family="Helvetica,sans-Serif" font-size="10.00" fill="#000000">std::list&lt; double &gt;</text>
<polyline fill="none" stroke="#bfbfbf" points="660.5,-523.5 755.5,-523.5 "/>
<text text-anchor="middle" x="708" y="-511.5" font-family="Helvetica,sans-Serif" font-size="10.00" fill="#000000"> </text>
<polyline fill="none" stroke="#bfbfbf" points="660.5,-504.5 755.5,-504.5 "/>
<text text-anchor="middle" x="708" y="-492.5" font-family="Helvetica,sans-Serif" font-size="10.00" fill="#000000"> </text>
</a>
</g>
</g>
<!-- Node11&#45;&gt;Node10 -->
<g id="edge11" class="edge">
<title>Node11&#45;&gt;Node10</title>
<path fill="none" stroke="#404040" d="M708,-485.2045C708,-451.7073 708,-395.9476 708,-356.3347"/>
<polygon fill="none" stroke="#404040" points="708.0001,-356.0894 704,-350.0894 708,-344.0894 712,-350.0893 708.0001,-356.0894"/>
<text text-anchor="middle" x="732.5" y="-426" font-family="Helvetica,sans-Serif" font-size="10.00" fill="#000000"> +elements</text>
</g>
<!-- Node12 -->
<g id="node12" class="node">
<title>Node12</title>
<g id="a_node12"><a xlink:title=" ">
<polygon fill="#ffffff" stroke="#bfbfbf" points="685.5,-651 685.5,-708 730.5,-708 730.5,-651 685.5,-651"/>
<text text-anchor="middle" x="708" y="-696" font-family="Helvetica,sans-Serif" font-size="10.00" fill="#000000">double</text>
<polyline fill="none" stroke="#bfbfbf" points="685.5,-689 730.5,-689 "/>
<text text-anchor="middle" x="708" y="-677" font-family="Helvetica,sans-Serif" font-size="10.00" fill="#000000"> </text>
<polyline fill="none" stroke="#bfbfbf" points="685.5,-670 730.5,-670 "/>
<text text-anchor="middle" x="708" y="-658" font-family="Helvetica,sans-Serif" font-size="10.00" fill="#000000"> </text>
</a>
</g>
</g>
<!-- Node12&#45;&gt;Node11 -->
<g id="edge12" class="edge">
<title>Node12&#45;&gt;Node11</title>
<path fill="none" stroke="#404040" d="M708,-650.6721C708,-624.1738 708,-584.6093 708,-554.8578"/>
<polygon fill="none" stroke="#404040" points="708.0001,-554.7747 704,-548.7747 708,-542.7747 712,-548.7747 708.0001,-554.7747"/>
<text text-anchor="middle" x="732.5" y="-597" font-family="Helvetica,sans-Serif" font-size="10.00" fill="#000000"> +elements</text>
</g>
</g>
</svg>
