<?xml version="1.0" encoding="UTF-8" standalone="no"?>
<!DOCTYPE svg PUBLIC "-//W3C//DTD SVG 1.1//EN"
 "http://www.w3.org/Graphics/SVG/1.1/DTD/svg11.dtd">
<!-- Generated by graphviz version 2.40.1 (20161225.0304)
 -->
<!-- Title: bsn::model::Formula::Formula Pages: 1 -->
<svg width="290pt" height="78pt"
 viewBox="0.00 0.00 290.00 77.50" xmlns="http://www.w3.org/2000/svg" xmlns:xlink="http://www.w3.org/1999/xlink">
<g id="graph0" class="graph" transform="scale(1 1) rotate(0) translate(4 73.5)">
<title>bsn::model::Formula::Formula</title>
<polygon fill="#ffffff" stroke="transparent" points="-4,4 -4,-73.5 286,-73.5 286,4 -4,4"/>
<!-- Node1 -->
<g id="node1" class="node">
<title>Node1</title>
<g id="a_node1"><a xlink:title=" ">
<polygon fill="#bfbfbf" stroke="#000000" points="0,-17 0,-47 106,-47 106,-17 0,-17"/>
<text text-anchor="start" x="8" y="-35" font-family="Helvetica,sans-Serif" font-size="10.00" fill="#000000">bsn::model::Formula</text>
<text text-anchor="middle" x="53" y="-24" font-family="Helvetica,sans-Serif" font-size="10.00" fill="#000000">::Formula</text>
</a>
</g>
</g>
<!-- Node2 -->
<g id="node2" class="node">
<title>Node2</title>
<g id="a_node2"><a xlink:href="classLepton_1_1ParsedExpression.html#a7248eef38508e2852e14a11fc54a10ee" target="_top" xlink:title=" ">
<polygon fill="#ffffff" stroke="#000000" points="142,-39 142,-69 282,-69 282,-39 142,-39"/>
<text text-anchor="start" x="150" y="-57" font-family="Helvetica,sans-Serif" font-size="10.00" fill="#000000">Lepton::ParsedExpression</text>
<text text-anchor="middle" x="212" y="-46" font-family="Helvetica,sans-Serif" font-size="10.00" fill="#000000">::createCompiledExpression</text>
</a>
</g>
</g>
<!-- Node1&#45;&gt;Node2 -->
<g id="edge1" class="edge">
<title>Node1&#45;&gt;Node2</title>
<path fill="none" stroke="#191970" d="M106.387,-39.3869C114.5573,-40.5174 123.1415,-41.7051 131.7377,-42.8945"/>
<polygon fill="#191970" stroke="#191970" points="131.4247,-46.3845 141.8101,-44.2882 132.3842,-39.4505 131.4247,-46.3845"/>
</g>
<!-- Node3 -->
<g id="node3" class="node">
<title>Node3</title>
<g id="a_node3"><a xlink:href="classLepton_1_1Parser.html#a735859524488572b39ff012c855c34a0" target="_top" xlink:title=" ">
<polygon fill="#ffffff" stroke="#000000" points="157,-.5 157,-19.5 267,-19.5 267,-.5 157,-.5"/>
<text text-anchor="middle" x="212" y="-7.5" font-family="Helvetica,sans-Serif" font-size="10.00" fill="#000000">Lepton::Parser::parse</text>
</a>
</g>
</g>
<!-- Node1&#45;&gt;Node3 -->
<g id="edge2" class="edge">
<title>Node1&#45;&gt;Node3</title>
<path fill="none" stroke="#191970" d="M106.387,-24.6131C119.3275,-22.8226 133.3065,-20.8884 146.7263,-19.0316"/>
<polygon fill="#191970" stroke="#191970" points="147.4273,-22.468 156.8532,-17.6304 146.4678,-15.5341 147.4273,-22.468"/>
</g>
</g>
</svg>
