<?xml version="1.0" encoding="UTF-8" standalone="no"?>
<!DOCTYPE svg PUBLIC "-//W3C//DTD SVG 1.1//EN"
 "http://www.w3.org/Graphics/SVG/1.1/DTD/svg11.dtd">
<!-- Generated by graphviz version 2.40.1 (20161225.0304)
 -->
<!-- Title: Lepton::ParsedExpression::evaluate Pages: 1 -->
<svg width="652pt" height="61pt"
 viewBox="0.00 0.00 652.00 61.00" xmlns="http://www.w3.org/2000/svg" xmlns:xlink="http://www.w3.org/1999/xlink">
<g id="graph0" class="graph" transform="scale(1 1) rotate(0) translate(4 57)">
<title>Lepton::ParsedExpression::evaluate</title>
<polygon fill="#ffffff" stroke="transparent" points="-4,4 -4,-57 648,-57 648,4 -4,4"/>
<!-- Node1 -->
<g id="node1" class="node">
<title>Node1</title>
<g id="a_node1"><a xlink:title=" ">
<polygon fill="#bfbfbf" stroke="#000000" points="0,-.5 0,-30.5 131,-30.5 131,-.5 0,-.5"/>
<text text-anchor="start" x="8" y="-18.5" font-family="Helvetica,sans-Serif" font-size="10.00" fill="#000000">Lepton::ParsedExpression</text>
<text text-anchor="middle" x="65.5" y="-7.5" font-family="Helvetica,sans-Serif" font-size="10.00" fill="#000000">::evaluate</text>
</a>
</g>
</g>
<!-- Node2 -->
<g id="node2" class="node">
<title>Node2</title>
<g id="a_node2"><a xlink:href="classLepton_1_1ParsedExpression.html#acd9d7fbbbe5fbde7d1206c9089861420" target="_top" xlink:title=" ">
<polygon fill="#ffffff" stroke="#000000" points="167,-22.5 167,-52.5 298,-52.5 298,-22.5 167,-22.5"/>
<text text-anchor="start" x="175" y="-40.5" font-family="Helvetica,sans-Serif" font-size="10.00" fill="#000000">Lepton::ParsedExpression</text>
<text text-anchor="middle" x="232.5" y="-29.5" font-family="Helvetica,sans-Serif" font-size="10.00" fill="#000000">::evaluate</text>
</a>
</g>
</g>
<!-- Node1&#45;&gt;Node2 -->
<g id="edge1" class="edge">
<title>Node1&#45;&gt;Node2</title>
<path fill="none" stroke="#191970" d="M131.0235,-24.1318C139.496,-25.248 148.2278,-26.3983 156.8471,-27.5337"/>
<polygon fill="#191970" stroke="#191970" points="156.5198,-31.0208 166.8913,-28.8569 157.4342,-24.0808 156.5198,-31.0208"/>
</g>
<!-- Node3 -->
<g id="node3" class="node">
<title>Node3</title>
<g id="a_node3"><a xlink:href="classLepton_1_1ParsedExpression.html#a5f3df57885604220c0e9bd28d3eac21d" target="_top" xlink:title=" ">
<polygon fill="#ffffff" stroke="#000000" points="334,-.5 334,-30.5 465,-30.5 465,-.5 334,-.5"/>
<text text-anchor="start" x="342" y="-18.5" font-family="Helvetica,sans-Serif" font-size="10.00" fill="#000000">Lepton::ParsedExpression</text>
<text text-anchor="middle" x="399.5" y="-7.5" font-family="Helvetica,sans-Serif" font-size="10.00" fill="#000000">::getRootNode</text>
</a>
</g>
</g>
<!-- Node1&#45;&gt;Node3 -->
<g id="edge4" class="edge">
<title>Node1&#45;&gt;Node3</title>
<path fill="none" stroke="#191970" d="M131.0173,-14.0196C142.9875,-13.803 155.3681,-13.6146 167,-13.5 225.2194,-12.9265 239.7806,-12.9265 298,-13.5 306.3604,-13.5824 315.1077,-13.7029 323.8113,-13.8446"/>
<polygon fill="#191970" stroke="#191970" points="323.9239,-17.3469 333.9827,-14.0196 324.0444,-10.348 323.9239,-17.3469"/>
</g>
<!-- Node2&#45;&gt;Node3 -->
<g id="edge2" class="edge">
<title>Node2&#45;&gt;Node3</title>
<path fill="none" stroke="#191970" d="M298.0235,-28.8682C306.496,-27.752 315.2278,-26.6017 323.8471,-25.4663"/>
<polygon fill="#191970" stroke="#191970" points="324.4342,-28.9192 333.8913,-24.1431 323.5198,-21.9792 324.4342,-28.9192"/>
</g>
<!-- Node4 -->
<g id="node4" class="node">
<title>Node4</title>
<g id="a_node4"><a xlink:href="classLepton_1_1ExpressionTreeNode.html#a779a783ff48104642ccbce6e01a822c4" target="_top" xlink:title=" ">
<polygon fill="#ffffff" stroke="#000000" points="501,-.5 501,-30.5 644,-30.5 644,-.5 501,-.5"/>
<text text-anchor="start" x="509" y="-18.5" font-family="Helvetica,sans-Serif" font-size="10.00" fill="#000000">Lepton::ExpressionTreeNode</text>
<text text-anchor="middle" x="572.5" y="-7.5" font-family="Helvetica,sans-Serif" font-size="10.00" fill="#000000">::getOperation</text>
</a>
</g>
</g>
<!-- Node3&#45;&gt;Node4 -->
<g id="edge3" class="edge">
<title>Node3&#45;&gt;Node4</title>
<path fill="none" stroke="#191970" d="M465.3974,-15.5C473.6116,-15.5 482.0889,-15.5 490.5092,-15.5"/>
<polygon fill="#191970" stroke="#191970" points="490.7302,-19.0001 500.7302,-15.5 490.7301,-12.0001 490.7302,-19.0001"/>
</g>
</g>
</svg>
