<?xml version="1.0" encoding="UTF-8" standalone="no"?>
<!DOCTYPE svg PUBLIC "-//W3C//DTD SVG 1.1//EN"
 "http://www.w3.org/Graphics/SVG/1.1/DTD/svg11.dtd">
<!-- Generated by graphviz version 2.40.1 (20161225.0304)
 -->
<!-- Title: arch::target_system::Component::body Pages: 1 -->
<svg width="261pt" height="78pt"
 viewBox="0.00 0.00 261.00 77.50" xmlns="http://www.w3.org/2000/svg" xmlns:xlink="http://www.w3.org/1999/xlink">
<g id="graph0" class="graph" transform="scale(1 1) rotate(0) translate(4 73.5)">
<title>arch::target_system::Component::body</title>
<polygon fill="#ffffff" stroke="transparent" points="-4,4 -4,-73.5 257,-73.5 257,4 -4,4"/>
<!-- Node1 -->
<g id="node1" class="node">
<title>Node1</title>
<g id="a_node1"><a xlink:title=" ">
<polygon fill="#bfbfbf" stroke="#000000" points="149,-17 149,-47 253,-47 253,-17 149,-17"/>
<text text-anchor="start" x="157" y="-35" font-family="Helvetica,sans-Serif" font-size="10.00" fill="#000000">arch::target_system</text>
<text text-anchor="middle" x="201" y="-24" font-family="Helvetica,sans-Serif" font-size="10.00" fill="#000000">::Component::body</text>
</a>
</g>
</g>
<!-- Node2 -->
<g id="node2" class="node">
<title>Node2</title>
<g id="a_node2"><a xlink:href="classarch_1_1target__system_1_1Component.html#ac590323763a5ea9e7edf1a5e67f8a94f" target="_top" xlink:title=" ">
<polygon fill="#ffffff" stroke="#000000" points="4.5,-39 4.5,-69 108.5,-69 108.5,-39 4.5,-39"/>
<text text-anchor="start" x="12.5" y="-57" font-family="Helvetica,sans-Serif" font-size="10.00" fill="#000000">arch::target_system</text>
<text text-anchor="middle" x="56.5" y="-46" font-family="Helvetica,sans-Serif" font-size="10.00" fill="#000000">::Component::run</text>
</a>
</g>
</g>
<!-- Node1&#45;&gt;Node2 -->
<g id="edge1" class="edge">
<title>Node1&#45;&gt;Node2</title>
<path fill="none" stroke="#191970" d="M138.8607,-41.4607C128.7698,-42.997 118.4105,-44.5742 108.5912,-46.0692"/>
<polygon fill="#191970" stroke="#191970" points="139.4729,-44.9079 148.8322,-39.9425 138.4193,-37.9876 139.4729,-44.9079"/>
</g>
<!-- Node3 -->
<g id="node3" class="node">
<title>Node3</title>
<g id="a_node3"><a xlink:href="classAnalyzer_1_1Analyzer.html#ace65f914d5702497483b294f0373b2f4" target="_top" xlink:title=" ">
<polygon fill="#ffffff" stroke="#000000" points="0,-.5 0,-19.5 113,-19.5 113,-.5 0,-.5"/>
<text text-anchor="middle" x="56.5" y="-7.5" font-family="Helvetica,sans-Serif" font-size="10.00" fill="#000000">Analyzer.Analyzer.run</text>
</a>
</g>
</g>
<!-- Node1&#45;&gt;Node3 -->
<g id="edge2" class="edge">
<title>Node1&#45;&gt;Node3</title>
<path fill="none" stroke="#191970" d="M138.7244,-22.5186C130.338,-21.2418 121.7688,-19.9371 113.4806,-18.6752"/>
<polygon fill="#191970" stroke="#191970" points="138.4193,-26.0124 148.8322,-24.0575 139.4729,-19.0921 138.4193,-26.0124"/>
</g>
</g>
</svg>
