<?xml version="1.0" encoding="UTF-8" standalone="no"?>
<!DOCTYPE svg PUBLIC "-//W3C//DTD SVG 1.1//EN"
 "http://www.w3.org/Graphics/SVG/1.1/DTD/svg11.dtd">
<!-- Generated by graphviz version 2.40.1 (20161225.0304)
 -->
<!-- Title: Engine::monitor Pages: 1 -->
<svg width="561pt" height="47pt"
 viewBox="0.00 0.00 561.00 47.00" xmlns="http://www.w3.org/2000/svg" xmlns:xlink="http://www.w3.org/1999/xlink">
<g id="graph0" class="graph" transform="scale(1 1) rotate(0) translate(4 43)">
<title>Engine::monitor</title>
<polygon fill="#ffffff" stroke="transparent" points="-4,4 -4,-43 557,-43 557,4 -4,4"/>
<!-- Node1 -->
<g id="node1" class="node">
<title>Node1</title>
<g id="a_node1"><a xlink:title=" ">
<polygon fill="#bfbfbf" stroke="#000000" points="0,-.5 0,-19.5 85,-19.5 85,-.5 0,-.5"/>
<text text-anchor="middle" x="42.5" y="-7.5" font-family="Helvetica,sans-Serif" font-size="10.00" fill="#000000">Engine::monitor</text>
</a>
</g>
</g>
<!-- Node2 -->
<g id="node2" class="node">
<title>Node2</title>
<g id="a_node2"><a xlink:href="classEngine.html#ac885ef7a80556ab1b21a043d7dc2b1c9" target="_top" xlink:title=" ">
<polygon fill="#ffffff" stroke="#000000" points="121,-19.5 121,-38.5 207,-38.5 207,-19.5 121,-19.5"/>
<text text-anchor="middle" x="164" y="-26.5" font-family="Helvetica,sans-Serif" font-size="10.00" fill="#000000">Engine::analyze</text>
</a>
</g>
</g>
<!-- Node1&#45;&gt;Node2 -->
<g id="edge1" class="edge">
<title>Node1&#45;&gt;Node2</title>
<path fill="none" stroke="#191970" d="M85.3364,-16.6987C93.4965,-17.9748 102.1302,-19.3249 110.5725,-20.6451"/>
<polygon fill="#191970" stroke="#191970" points="110.3099,-24.1465 120.7306,-22.2336 111.3914,-17.2305 110.3099,-24.1465"/>
</g>
<!-- Node5 -->
<g id="node5" class="node">
<title>Node5</title>
<g id="a_node5"><a xlink:href="namespacebsn_1_1utils.html#a4ab7be3d27380abe032f4ceec86b09b2" target="_top" xlink:title=" ">
<polygon fill="#ffffff" stroke="#000000" points="473,-.5 473,-19.5 553,-19.5 553,-.5 473,-.5"/>
<text text-anchor="middle" x="513" y="-7.5" font-family="Helvetica,sans-Serif" font-size="10.00" fill="#000000">bsn::utils::split</text>
</a>
</g>
</g>
<!-- Node1&#45;&gt;Node5 -->
<g id="edge5" class="edge">
<title>Node1&#45;&gt;Node5</title>
<path fill="none" stroke="#191970" d="M85.0836,-10C172.0788,-10 369.8175,-10 462.8488,-10"/>
<polygon fill="#191970" stroke="#191970" points="462.8585,-13.5001 472.8584,-10 462.8584,-6.5001 462.8585,-13.5001"/>
</g>
<!-- Node3 -->
<g id="node3" class="node">
<title>Node3</title>
<g id="a_node3"><a xlink:href="classEngine.html#ada990715b8c10f1ad972892efa58d106" target="_top" xlink:title=" ">
<polygon fill="#ffffff" stroke="#000000" points="243,-19.5 243,-38.5 314,-38.5 314,-19.5 243,-19.5"/>
<text text-anchor="middle" x="278.5" y="-26.5" font-family="Helvetica,sans-Serif" font-size="10.00" fill="#000000">Engine::plan</text>
</a>
</g>
</g>
<!-- Node2&#45;&gt;Node3 -->
<g id="edge2" class="edge">
<title>Node2&#45;&gt;Node3</title>
<path fill="none" stroke="#191970" d="M207.2875,-29C215.6618,-29 224.4605,-29 232.9059,-29"/>
<polygon fill="#191970" stroke="#191970" points="232.9799,-32.5001 242.9798,-29 232.9798,-25.5001 232.9799,-32.5001"/>
</g>
<!-- Node4 -->
<g id="node4" class="node">
<title>Node4</title>
<g id="a_node4"><a xlink:href="classEngine.html#a1ec215a11a8703c09f61e57e23ea41e8" target="_top" xlink:title=" ">
<polygon fill="#ffffff" stroke="#000000" points="350,-19.5 350,-38.5 437,-38.5 437,-19.5 350,-19.5"/>
<text text-anchor="middle" x="393.5" y="-26.5" font-family="Helvetica,sans-Serif" font-size="10.00" fill="#000000">Engine::execute</text>
</a>
</g>
</g>
<!-- Node3&#45;&gt;Node4 -->
<g id="edge3" class="edge">
<title>Node3&#45;&gt;Node4</title>
<path fill="none" stroke="#191970" d="M314.2563,-29C322.3127,-29 331.037,-29 339.6515,-29"/>
<polygon fill="#191970" stroke="#191970" points="339.6672,-32.5001 349.6672,-29 339.6671,-25.5001 339.6672,-32.5001"/>
</g>
<!-- Node4&#45;&gt;Node5 -->
<g id="edge4" class="edge">
<title>Node4&#45;&gt;Node5</title>
<path fill="none" stroke="#191970" d="M437.3188,-22.033C445.5589,-20.7228 454.2351,-19.3434 462.6556,-18.0045"/>
<polygon fill="#191970" stroke="#191970" points="463.4272,-21.4259 472.7536,-16.399 462.328,-14.5127 463.4272,-21.4259"/>
</g>
</g>
</svg>
