<?xml version="1.0" encoding="UTF-8" standalone="no"?>
<!DOCTYPE svg PUBLIC "-//W3C//DTD SVG 1.1//EN"
 "http://www.w3.org/Graphics/SVG/1.1/DTD/svg11.dtd">
<!-- Generated by graphviz version 2.40.1 (20161225.0304)
 -->
<!-- Title: bsn::resource::Battery::generate Pages: 1 -->
<svg width="535pt" height="39pt"
 viewBox="0.00 0.00 535.00 39.00" xmlns="http://www.w3.org/2000/svg" xmlns:xlink="http://www.w3.org/1999/xlink">
<g id="graph0" class="graph" transform="scale(1 1) rotate(0) translate(4 35)">
<title>bsn::resource::Battery::generate</title>
<polygon fill="#ffffff" stroke="transparent" points="-4,4 -4,-35 531,-35 531,4 -4,4"/>
<!-- Node1 -->
<g id="node1" class="node">
<title>Node1</title>
<g id="a_node1"><a xlink:title=" ">
<polygon fill="#bfbfbf" stroke="#000000" points="414,-.5 414,-30.5 527,-30.5 527,-.5 414,-.5"/>
<text text-anchor="start" x="422" y="-18.5" font-family="Helvetica,sans-Serif" font-size="10.00" fill="#000000">bsn::resource::Battery</text>
<text text-anchor="middle" x="470.5" y="-7.5" font-family="Helvetica,sans-Serif" font-size="10.00" fill="#000000">::generate</text>
</a>
</g>
</g>
<!-- Node2 -->
<g id="node2" class="node">
<title>Node2</title>
<g id="a_node2"><a xlink:href="classSensor.html#aa2c5c0b7c6f69e6e25cf56bab5fc822b" target="_top" xlink:title=" ">
<polygon fill="#ffffff" stroke="#000000" points="287,-6 287,-25 378,-25 378,-6 287,-6"/>
<text text-anchor="middle" x="332.5" y="-13" font-family="Helvetica,sans-Serif" font-size="10.00" fill="#000000">Sensor::recharge</text>
</a>
</g>
</g>
<!-- Node1&#45;&gt;Node2 -->
<g id="edge1" class="edge">
<title>Node1&#45;&gt;Node2</title>
<path fill="none" stroke="#191970" d="M403.8346,-15.5C395.1516,-15.5 386.4193,-15.5 378.1885,-15.5"/>
<polygon fill="#191970" stroke="#191970" points="403.972,-19.0001 413.9719,-15.5 403.9719,-12.0001 403.972,-19.0001"/>
</g>
<!-- Node3 -->
<g id="node3" class="node">
<title>Node3</title>
<g id="a_node3"><a xlink:href="classSensor.html#a043dabb8b92f70fc247d585b8d66e133" target="_top" xlink:title=" ">
<polygon fill="#ffffff" stroke="#000000" points="177,-6 177,-25 251,-25 251,-6 177,-6"/>
<text text-anchor="middle" x="214" y="-13" font-family="Helvetica,sans-Serif" font-size="10.00" fill="#000000">Sensor::body</text>
</a>
</g>
</g>
<!-- Node2&#45;&gt;Node3 -->
<g id="edge2" class="edge">
<title>Node2&#45;&gt;Node3</title>
<path fill="none" stroke="#191970" d="M276.6614,-15.5C268.0479,-15.5 259.338,-15.5 251.2629,-15.5"/>
<polygon fill="#191970" stroke="#191970" points="276.6848,-19.0001 286.6848,-15.5 276.6848,-12.0001 276.6848,-19.0001"/>
</g>
<!-- Node4 -->
<g id="node4" class="node">
<title>Node4</title>
<g id="a_node4"><a xlink:href="classSensor.html#a1a664cdb090cb4295bbdedcffb1c8499" target="_top" xlink:title=" ">
<polygon fill="#ffffff" stroke="#000000" points="74,-6 74,-25 141,-25 141,-6 74,-6"/>
<text text-anchor="middle" x="107.5" y="-13" font-family="Helvetica,sans-Serif" font-size="10.00" fill="#000000">Sensor::run</text>
</a>
</g>
</g>
<!-- Node3&#45;&gt;Node4 -->
<g id="edge3" class="edge">
<title>Node3&#45;&gt;Node4</title>
<path fill="none" stroke="#191970" d="M166.5473,-15.5C158.0524,-15.5 149.3583,-15.5 141.3436,-15.5"/>
<polygon fill="#191970" stroke="#191970" points="166.7515,-19.0001 176.7515,-15.5 166.7514,-12.0001 166.7515,-19.0001"/>
</g>
<!-- Node5 -->
<g id="node5" class="node">
<title>Node5</title>
<g id="a_node5"><a xlink:href="g3t1__1_8cpp.html#a3c04138a5bfe5d72780bb7e82a18e627" target="_top" xlink:title=" ">
<polygon fill="#ffffff" stroke="#000000" points="0,-6 0,-25 38,-25 38,-6 0,-6"/>
<text text-anchor="middle" x="19" y="-13" font-family="Helvetica,sans-Serif" font-size="10.00" fill="#000000">main</text>
</a>
</g>
</g>
<!-- Node4&#45;&gt;Node5 -->
<g id="edge4" class="edge">
<title>Node4&#45;&gt;Node5</title>
<path fill="none" stroke="#191970" d="M63.6813,-15.5C54.6482,-15.5 45.5912,-15.5 38.016,-15.5"/>
<polygon fill="#191970" stroke="#191970" points="63.7895,-19.0001 73.7895,-15.5 63.7894,-12.0001 63.7895,-19.0001"/>
</g>
</g>
</svg>
