<?xml version="1.0" encoding="UTF-8" standalone="no"?>
<!DOCTYPE svg PUBLIC "-//W3C//DTD SVG 1.1//EN"
 "http://www.w3.org/Graphics/SVG/1.1/DTD/svg11.dtd">
<!-- Generated by graphviz version 2.40.1 (20161225.0304)
 -->
<!-- Title: Engine::monitor Pages: 1 -->
<svg width="352pt" height="28pt"
 viewBox="0.00 0.00 352.00 28.00" xmlns="http://www.w3.org/2000/svg" xmlns:xlink="http://www.w3.org/1999/xlink">
<g id="graph0" class="graph" transform="scale(1 1) rotate(0) translate(4 24)">
<title>Engine::monitor</title>
<polygon fill="#ffffff" stroke="transparent" points="-4,4 -4,-24 348,-24 348,4 -4,4"/>
<!-- Node1 -->
<g id="node1" class="node">
<title>Node1</title>
<g id="a_node1"><a xlink:title=" ">
<polygon fill="#bfbfbf" stroke="#000000" points="259,-.5 259,-19.5 344,-19.5 344,-.5 259,-.5"/>
<text text-anchor="middle" x="301.5" y="-7.5" font-family="Helvetica,sans-Serif" font-size="10.00" fill="#000000">Engine::monitor</text>
</a>
</g>
</g>
<!-- Node2 -->
<g id="node2" class="node">
<title>Node2</title>
<g id="a_node2"><a xlink:href="classEngine.html#ae164dcb3bf318cb307ab7266974c2064" target="_top" xlink:title=" ">
<polygon fill="#ffffff" stroke="#000000" points="149,-.5 149,-19.5 223,-19.5 223,-.5 149,-.5"/>
<text text-anchor="middle" x="186" y="-7.5" font-family="Helvetica,sans-Serif" font-size="10.00" fill="#000000">Engine::body</text>
</a>
</g>
</g>
<!-- Node1&#45;&gt;Node2 -->
<g id="edge1" class="edge">
<title>Node1&#45;&gt;Node2</title>
<path fill="none" stroke="#191970" d="M248.7886,-10C240.1439,-10 231.3474,-10 223.1819,-10"/>
<polygon fill="#191970" stroke="#191970" points="248.8203,-13.5001 258.8202,-10 248.8202,-6.5001 248.8203,-13.5001"/>
</g>
<!-- Node3 -->
<g id="node3" class="node">
<title>Node3</title>
<g id="a_node3"><a xlink:href="classAnalyzer_1_1Analyzer.html#ace65f914d5702497483b294f0373b2f4" target="_top" xlink:title=" ">
<polygon fill="#ffffff" stroke="#000000" points="0,-.5 0,-19.5 113,-19.5 113,-.5 0,-.5"/>
<text text-anchor="middle" x="56.5" y="-7.5" font-family="Helvetica,sans-Serif" font-size="10.00" fill="#000000">Analyzer.Analyzer.run</text>
</a>
</g>
</g>
<!-- Node2&#45;&gt;Node3 -->
<g id="edge2" class="edge">
<title>Node2&#45;&gt;Node3</title>
<path fill="none" stroke="#191970" d="M138.7327,-10C130.5067,-10 121.8737,-10 113.4213,-10"/>
<polygon fill="#191970" stroke="#191970" points="138.8905,-13.5001 148.8905,-10 138.8905,-6.5001 138.8905,-13.5001"/>
</g>
</g>
</svg>
