<?xml version="1.0" encoding="UTF-8" standalone="no"?>
<!DOCTYPE svg PUBLIC "-//W3C//DTD SVG 1.1//EN"
 "http://www.w3.org/Graphics/SVG/1.1/DTD/svg11.dtd">
<!-- Generated by graphviz version 2.40.1 (20161225.0304)
 -->
<!-- Title: Sensor::body Pages: 1 -->
<svg width="440pt" height="382pt"
 viewBox="0.00 0.00 440.00 382.00" xmlns="http://www.w3.org/2000/svg" xmlns:xlink="http://www.w3.org/1999/xlink">
<g id="graph0" class="graph" transform="scale(1 1) rotate(0) translate(4 378)">
<title>Sensor::body</title>
<polygon fill="#ffffff" stroke="transparent" points="-4,4 -4,-378 436,-378 436,4 -4,4"/>
<!-- Node1 -->
<g id="node1" class="node">
<title>Node1</title>
<g id="a_node1"><a xlink:title=" ">
<polygon fill="#bfbfbf" stroke="#000000" points="0,-183.5 0,-202.5 74,-202.5 74,-183.5 0,-183.5"/>
<text text-anchor="middle" x="37" y="-190.5" font-family="Helvetica,sans-Serif" font-size="10.00" fill="#000000">Sensor::body</text>
</a>
</g>
</g>
<!-- Node2 -->
<g id="node2" class="node">
<title>Node2</title>
<g id="a_node2"><a xlink:href="classSensor.html#a865bbaf085db8217e4d0c02e12e8a2a1" target="_top" xlink:title=" ">
<polygon fill="#ffffff" stroke="#000000" points="121.5,-354.5 121.5,-373.5 226.5,-373.5 226.5,-354.5 121.5,-354.5"/>
<text text-anchor="middle" x="174" y="-361.5" font-family="Helvetica,sans-Serif" font-size="10.00" fill="#000000">Sensor::apply_noise</text>
</a>
</g>
</g>
<!-- Node1&#45;&gt;Node2 -->
<g id="edge1" class="edge">
<title>Node1&#45;&gt;Node2</title>
<path fill="none" stroke="#191970" d="M38.8491,-202.8616C44.4301,-229.8447 63.6574,-305.5024 110,-345 112.0068,-346.7104 114.1624,-348.2669 116.4244,-349.6832"/>
<polygon fill="#191970" stroke="#191970" points="115.1049,-352.943 125.5875,-354.481 118.352,-346.7417 115.1049,-352.943"/>
</g>
<!-- Node3 -->
<g id="node3" class="node">
<title>Node3</title>
<g id="a_node3"><a xlink:href="classSensor.html#ab89214185c2da031e0f78b0f4dc031e8" target="_top" xlink:title=" ">
<polygon fill="#ffffff" stroke="#000000" points="133,-316.5 133,-335.5 215,-335.5 215,-316.5 133,-316.5"/>
<text text-anchor="middle" x="174" y="-323.5" font-family="Helvetica,sans-Serif" font-size="10.00" fill="#000000">Sensor::collect</text>
</a>
</g>
</g>
<!-- Node1&#45;&gt;Node3 -->
<g id="edge2" class="edge">
<title>Node1&#45;&gt;Node3</title>
<path fill="none" stroke="#191970" d="M40.9608,-202.6204C50.0655,-223.6063 74.4669,-273.8647 110,-302 115.1285,-306.0608 121.0159,-309.4855 127.0975,-312.3599"/>
<polygon fill="#191970" stroke="#191970" points="126.1597,-315.7634 136.7331,-316.4361 128.8869,-309.3166 126.1597,-315.7634"/>
</g>
<!-- Node4 -->
<g id="node4" class="node">
<title>Node4</title>
<g id="a_node4"><a xlink:href="classbsn_1_1resource_1_1Battery.html#a674c7c02100126e91f040bc93f143c7e" target="_top" xlink:title=" ">
<polygon fill="#ffffff" stroke="#000000" points="296.5,-242 296.5,-272 409.5,-272 409.5,-242 296.5,-242"/>
<text text-anchor="start" x="304.5" y="-260" font-family="Helvetica,sans-Serif" font-size="10.00" fill="#000000">bsn::resource::Battery</text>
<text text-anchor="middle" x="353" y="-249" font-family="Helvetica,sans-Serif" font-size="10.00" fill="#000000">::getCurrentLevel</text>
</a>
</g>
</g>
<!-- Node1&#45;&gt;Node4 -->
<g id="edge3" class="edge">
<title>Node1&#45;&gt;Node4</title>
<path fill="none" stroke="#191970" d="M42.5112,-202.5617C53.0392,-219.7388 77.8524,-255.3033 110,-269 168.1063,-293.7566 241.2389,-285.498 292.0192,-274.3466"/>
<polygon fill="#191970" stroke="#191970" points="292.9024,-277.735 301.8661,-272.0867 291.3366,-270.9123 292.9024,-277.735"/>
</g>
<!-- Node5 -->
<g id="node5" class="node">
<title>Node5</title>
<g id="a_node5"><a xlink:href="classSensor.html#aeb95c3006f7155be956658f0b951b9db" target="_top" xlink:title=" ">
<polygon fill="#ffffff" stroke="#000000" points="129.5,-240.5 129.5,-259.5 218.5,-259.5 218.5,-240.5 129.5,-240.5"/>
<text text-anchor="middle" x="174" y="-247.5" font-family="Helvetica,sans-Serif" font-size="10.00" fill="#000000">Sensor::isActive</text>
</a>
</g>
</g>
<!-- Node1&#45;&gt;Node5 -->
<g id="edge4" class="edge">
<title>Node1&#45;&gt;Node5</title>
<path fill="none" stroke="#191970" d="M53.1005,-202.5245C67.6169,-210.8322 89.7338,-222.8049 110,-231 115.5757,-233.2547 121.5206,-235.3759 127.4559,-237.3253"/>
<polygon fill="#191970" stroke="#191970" points="126.7794,-240.7812 137.3687,-240.4367 128.8758,-234.1025 126.7794,-240.7812"/>
</g>
<!-- Node6 -->
<g id="node6" class="node">
<title>Node6</title>
<g id="a_node6"><a xlink:href="classSensor.html#a209530c83c3299a6587e1c87277dcd1e" target="_top" xlink:title=" ">
<polygon fill="#ffffff" stroke="#000000" points="130,-202.5 130,-221.5 218,-221.5 218,-202.5 130,-202.5"/>
<text text-anchor="middle" x="174" y="-209.5" font-family="Helvetica,sans-Serif" font-size="10.00" fill="#000000">Sensor::process</text>
</a>
</g>
</g>
<!-- Node1&#45;&gt;Node6 -->
<g id="edge5" class="edge">
<title>Node1&#45;&gt;Node6</title>
<path fill="none" stroke="#191970" d="M74.0742,-198.1417C87.9816,-200.0704 104.0954,-202.3052 119.2691,-204.4096"/>
<polygon fill="#191970" stroke="#191970" points="119.1991,-207.9333 129.5851,-205.8403 120.1607,-200.9997 119.1991,-207.9333"/>
</g>
<!-- Node7 -->
<g id="node7" class="node">
<title>Node7</title>
<g id="a_node7"><a xlink:href="classSensor.html#aa2c5c0b7c6f69e6e25cf56bab5fc822b" target="_top" xlink:title=" ">
<polygon fill="#ffffff" stroke="#000000" points="128.5,-164.5 128.5,-183.5 219.5,-183.5 219.5,-164.5 128.5,-164.5"/>
<text text-anchor="middle" x="174" y="-171.5" font-family="Helvetica,sans-Serif" font-size="10.00" fill="#000000">Sensor::recharge</text>
</a>
</g>
</g>
<!-- Node1&#45;&gt;Node7 -->
<g id="edge6" class="edge">
<title>Node1&#45;&gt;Node7</title>
<path fill="none" stroke="#191970" d="M74.0742,-187.8583C87.6596,-185.9742 103.3506,-183.7981 118.2139,-181.7368"/>
<polygon fill="#191970" stroke="#191970" points="118.9112,-185.1736 128.3356,-180.333 117.9496,-178.24 118.9112,-185.1736"/>
</g>
<!-- Node9 -->
<g id="node9" class="node">
<title>Node9</title>
<g id="a_node9"><a xlink:href="classarch_1_1target__system_1_1Component.html#adc6ecb4090656eeac2289ec147a20f81" target="_top" xlink:title=" ">
<polygon fill="#ffffff" stroke="#000000" points="110,-115 110,-145 238,-145 238,-115 110,-115"/>
<text text-anchor="start" x="118" y="-133" font-family="Helvetica,sans-Serif" font-size="10.00" fill="#000000">arch::target_system</text>
<text text-anchor="middle" x="174" y="-122" font-family="Helvetica,sans-Serif" font-size="10.00" fill="#000000">::Component::sendStatus</text>
</a>
</g>
</g>
<!-- Node1&#45;&gt;Node9 -->
<g id="edge9" class="edge">
<title>Node1&#45;&gt;Node9</title>
<path fill="none" stroke="#191970" d="M54.1452,-183.4071C68.7767,-175.3832 90.4852,-163.8597 110,-155 114.4499,-152.9797 119.1147,-150.9658 123.8115,-149.008"/>
<polygon fill="#191970" stroke="#191970" points="125.4997,-152.0995 133.4389,-145.0839 122.8575,-145.6173 125.4997,-152.0995"/>
</g>
<!-- Node11 -->
<g id="node11" class="node">
<title>Node11</title>
<g id="a_node11"><a xlink:href="classSensor.html#afa34e334fc608034f8aeb8cb3d34abc9" target="_top" xlink:title=" ">
<polygon fill="#ffffff" stroke="#000000" points="131,-76.5 131,-95.5 217,-95.5 217,-76.5 131,-76.5"/>
<text text-anchor="middle" x="174" y="-83.5" font-family="Helvetica,sans-Serif" font-size="10.00" fill="#000000">Sensor::transfer</text>
</a>
</g>
</g>
<!-- Node1&#45;&gt;Node11 -->
<g id="edge11" class="edge">
<title>Node1&#45;&gt;Node11</title>
<path fill="none" stroke="#191970" d="M42.278,-183.4693C52.7719,-165.4048 78.0268,-126.1055 110,-105 113.5367,-102.6654 117.3686,-100.6101 121.3394,-98.802"/>
<polygon fill="#191970" stroke="#191970" points="122.803,-101.9861 130.7826,-95.0164 120.1983,-95.4887 122.803,-101.9861"/>
</g>
<!-- Node12 -->
<g id="node12" class="node">
<title>Node12</title>
<g id="a_node12"><a xlink:href="classSensor.html#a7e0dadfc3dcde4c6c7b20d0c0ae09082" target="_top" xlink:title=" ">
<polygon fill="#ffffff" stroke="#000000" points="132.5,-38.5 132.5,-57.5 215.5,-57.5 215.5,-38.5 132.5,-38.5"/>
<text text-anchor="middle" x="174" y="-45.5" font-family="Helvetica,sans-Serif" font-size="10.00" fill="#000000">Sensor::turnOff</text>
</a>
</g>
</g>
<!-- Node1&#45;&gt;Node12 -->
<g id="edge12" class="edge">
<title>Node1&#45;&gt;Node12</title>
<path fill="none" stroke="#191970" d="M39.7972,-183.4657C47.1847,-159.9749 69.484,-98.9106 110,-67 113.8385,-63.9768 118.1483,-61.434 122.6701,-59.2955"/>
<polygon fill="#191970" stroke="#191970" points="124.2117,-62.4473 132.1663,-55.4491 121.5838,-55.9593 124.2117,-62.4473"/>
</g>
<!-- Node13 -->
<g id="node13" class="node">
<title>Node13</title>
<g id="a_node13"><a xlink:href="classSensor.html#ab687b1dd4e4ecb1d806bf947cedc9b76" target="_top" xlink:title=" ">
<polygon fill="#ffffff" stroke="#000000" points="132.5,-.5 132.5,-19.5 215.5,-19.5 215.5,-.5 132.5,-.5"/>
<text text-anchor="middle" x="174" y="-7.5" font-family="Helvetica,sans-Serif" font-size="10.00" fill="#000000">Sensor::turnOn</text>
</a>
</g>
</g>
<!-- Node1&#45;&gt;Node13 -->
<g id="edge13" class="edge">
<title>Node1&#45;&gt;Node13</title>
<path fill="none" stroke="#191970" d="M38.4592,-183.199C43.1994,-154.8718 60.809,-72.1697 110,-29 113.8752,-25.5991 118.3362,-22.8064 123.0623,-20.5133"/>
<polygon fill="#191970" stroke="#191970" points="124.4666,-23.7204 132.3933,-16.6906 121.8129,-17.2429 124.4666,-23.7204"/>
</g>
<!-- Node7&#45;&gt;Node4 -->
<g id="edge8" class="edge">
<title>Node7&#45;&gt;Node4</title>
<path fill="none" stroke="#191970" d="M211.3734,-183.5966C220.2344,-186.2808 229.56,-189.4494 238,-193 267.0618,-205.2259 298.206,-222.8664 320.7441,-236.5322"/>
<polygon fill="#191970" stroke="#191970" points="319.1878,-239.6836 329.5418,-241.9299 322.8485,-233.7171 319.1878,-239.6836"/>
</g>
<!-- Node8 -->
<g id="node8" class="node">
<title>Node8</title>
<g id="a_node8"><a xlink:href="classbsn_1_1resource_1_1Battery.html#aa7265cd180da80242067253f7f42272c" target="_top" xlink:title=" ">
<polygon fill="#ffffff" stroke="#000000" points="296.5,-161 296.5,-191 409.5,-191 409.5,-161 296.5,-161"/>
<text text-anchor="start" x="304.5" y="-179" font-family="Helvetica,sans-Serif" font-size="10.00" fill="#000000">bsn::resource::Battery</text>
<text text-anchor="middle" x="353" y="-168" font-family="Helvetica,sans-Serif" font-size="10.00" fill="#000000">::generate</text>
</a>
</g>
</g>
<!-- Node7&#45;&gt;Node8 -->
<g id="edge7" class="edge">
<title>Node7&#45;&gt;Node8</title>
<path fill="none" stroke="#191970" d="M219.6324,-174.5099C239.8427,-174.7357 264.018,-175.0058 286.2011,-175.2536"/>
<polygon fill="#191970" stroke="#191970" points="286.1932,-178.7537 296.2317,-175.3657 286.2715,-171.7541 286.1932,-178.7537"/>
</g>
<!-- Node10 -->
<g id="node10" class="node">
<title>Node10</title>
<g id="a_node10"><a xlink:href="classarch_1_1ROSComponentDescriptor.html#a462b00745d0de3f98d88f3eb1ba11e45" target="_top" xlink:title=" ">
<polygon fill="#ffffff" stroke="#000000" points="274,-112 274,-142 432,-142 432,-112 274,-112"/>
<text text-anchor="start" x="282" y="-130" font-family="Helvetica,sans-Serif" font-size="10.00" fill="#000000">arch::ROSComponentDescriptor</text>
<text text-anchor="middle" x="353" y="-119" font-family="Helvetica,sans-Serif" font-size="10.00" fill="#000000">::getName</text>
</a>
</g>
</g>
<!-- Node9&#45;&gt;Node10 -->
<g id="edge10" class="edge">
<title>Node9&#45;&gt;Node10</title>
<path fill="none" stroke="#191970" d="M238.1175,-128.9254C246.4093,-128.7864 255.018,-128.6422 263.6251,-128.4979"/>
<polygon fill="#191970" stroke="#191970" points="263.7694,-131.9961 273.7094,-128.3289 263.6521,-124.9971 263.7694,-131.9961"/>
</g>
</g>
</svg>
