<?xml version="1.0" encoding="UTF-8" standalone="no"?>
<!DOCTYPE svg PUBLIC "-//W3C//DTD SVG 1.1//EN"
 "http://www.w3.org/Graphics/SVG/1.1/DTD/svg11.dtd">
<!-- Generated by graphviz version 2.40.1 (20161225.0304)
 -->
<!-- Title: Enactor::setUp Pages: 1 -->
<svg width="285pt" height="78pt"
 viewBox="0.00 0.00 285.00 77.50" xmlns="http://www.w3.org/2000/svg" xmlns:xlink="http://www.w3.org/1999/xlink">
<g id="graph0" class="graph" transform="scale(1 1) rotate(0) translate(4 73.5)">
<title>Enactor::setUp</title>
<polygon fill="#ffffff" stroke="transparent" points="-4,4 -4,-73.5 281,-73.5 281,4 -4,4"/>
<!-- Node1 -->
<g id="node1" class="node">
<title>Node1</title>
<g id="a_node1"><a xlink:title=" ">
<polygon fill="#bfbfbf" stroke="#000000" points="0,-28 0,-47 83,-47 83,-28 0,-28"/>
<text text-anchor="middle" x="41.5" y="-35" font-family="Helvetica,sans-Serif" font-size="10.00" fill="#000000">Enactor::setUp</text>
</a>
</g>
</g>
<!-- Node2 -->
<g id="node2" class="node">
<title>Node2</title>
<g id="a_node2"><a xlink:href="classEnactor.html#ae20a77f2c965dc65370abe0b1015840a" target="_top" xlink:title=" ">
<polygon fill="#ffffff" stroke="#000000" points="151,-50 151,-69 245,-69 245,-50 151,-50"/>
<text text-anchor="middle" x="198" y="-57" font-family="Helvetica,sans-Serif" font-size="10.00" fill="#000000">Enactor::sendInfo</text>
</a>
</g>
</g>
<!-- Node1&#45;&gt;Node2 -->
<g id="edge1" class="edge">
<title>Node1&#45;&gt;Node2</title>
<path fill="none" stroke="#191970" d="M83.0282,-43.3378C100.6828,-45.8196 121.5627,-48.7548 140.6517,-51.4383"/>
<polygon fill="#191970" stroke="#191970" points="140.3515,-54.9304 150.7413,-52.8566 141.326,-47.9985 140.3515,-54.9304"/>
</g>
<!-- Node3 -->
<g id="node3" class="node">
<title>Node3</title>
<g id="a_node3"><a xlink:href="classarch_1_1ROSComponentDescriptor.html#a6ae1f0c4c644bce7bc7e99e408dc7ca0" target="_top" xlink:title=" ">
<polygon fill="#ffffff" stroke="#000000" points="119,-.5 119,-30.5 277,-30.5 277,-.5 119,-.5"/>
<text text-anchor="start" x="127" y="-18.5" font-family="Helvetica,sans-Serif" font-size="10.00" fill="#000000">arch::ROSComponentDescriptor</text>
<text text-anchor="middle" x="198" y="-7.5" font-family="Helvetica,sans-Serif" font-size="10.00" fill="#000000">::setFreq</text>
</a>
</g>
</g>
<!-- Node1&#45;&gt;Node3 -->
<g id="edge2" class="edge">
<title>Node1&#45;&gt;Node3</title>
<path fill="none" stroke="#191970" d="M83.0282,-31.6622C91.0551,-30.5338 99.7486,-29.3117 108.6374,-28.0622"/>
<polygon fill="#191970" stroke="#191970" points="109.3156,-31.5013 118.7309,-26.6433 108.3411,-24.5695 109.3156,-31.5013"/>
</g>
</g>
</svg>
