<?xml version="1.0" encoding="UTF-8" standalone="no"?>
<!DOCTYPE svg PUBLIC "-//W3C//DTD SVG 1.1//EN"
 "http://www.w3.org/Graphics/SVG/1.1/DTD/svg11.dtd">
<!-- Generated by graphviz version 2.40.1 (20161225.0304)
 -->
<!-- Title: DataGeneratorTest Pages: 1 -->
<svg width="122pt" height="182pt"
 viewBox="0.00 0.00 122.00 182.00" xmlns="http://www.w3.org/2000/svg" xmlns:xlink="http://www.w3.org/1999/xlink">
<g id="graph0" class="graph" transform="scale(1 1) rotate(0) translate(4 178)">
<title>DataGeneratorTest</title>
<polygon fill="#ffffff" stroke="transparent" points="-4,4 -4,-178 118,-178 118,4 -4,4"/>
<!-- Node1 -->
<g id="node1" class="node">
<title>Node1</title>
<g id="a_node1"><a xlink:title=" ">
<polygon fill="#bfbfbf" stroke="#000000" points="0,-.5 0,-79.5 114,-79.5 114,-.5 0,-.5"/>
<text text-anchor="middle" x="57" y="-67.5" font-family="Helvetica,sans-Serif" font-size="10.00" fill="#000000">DataGeneratorTest</text>
<polyline fill="none" stroke="#000000" points="0,-60.5 114,-60.5 "/>
<text text-anchor="start" x="8" y="-48.5" font-family="Helvetica,sans-Serif" font-size="10.00" fill="#000000"># transitions</text>
<text text-anchor="start" x="8" y="-37.5" font-family="Helvetica,sans-Serif" font-size="10.00" fill="#000000"># states</text>
<polyline fill="none" stroke="#000000" points="0,-30.5 114,-30.5 "/>
<text text-anchor="start" x="8" y="-18.5" font-family="Helvetica,sans-Serif" font-size="10.00" fill="#000000"># DataGeneratorTest()</text>
<text text-anchor="start" x="8" y="-7.5" font-family="Helvetica,sans-Serif" font-size="10.00" fill="#000000"># SetUp()</text>
</a>
</g>
</g>
<!-- Node2 -->
<g id="node2" class="node">
<title>Node2</title>
<g id="a_node2"><a xlink:title=" ">
<polygon fill="#ffffff" stroke="#bfbfbf" points="39,-116.5 39,-173.5 75,-173.5 75,-116.5 39,-116.5"/>
<text text-anchor="middle" x="57" y="-161.5" font-family="Helvetica,sans-Serif" font-size="10.00" fill="#000000">Test</text>
<polyline fill="none" stroke="#bfbfbf" points="39,-154.5 75,-154.5 "/>
<text text-anchor="middle" x="57" y="-142.5" font-family="Helvetica,sans-Serif" font-size="10.00" fill="#000000"> </text>
<polyline fill="none" stroke="#bfbfbf" points="39,-135.5 75,-135.5 "/>
<text text-anchor="middle" x="57" y="-123.5" font-family="Helvetica,sans-Serif" font-size="10.00" fill="#000000"> </text>
</a>
</g>
</g>
<!-- Node2&#45;&gt;Node1 -->
<g id="edge1" class="edge">
<title>Node2&#45;&gt;Node1</title>
<path fill="none" stroke="#191970" d="M57,-106.1156C57,-97.4889 57,-88.3353 57,-79.6773"/>
<polygon fill="none" stroke="#191970" points="53.5001,-106.3083 57,-116.3083 60.5001,-106.3083 53.5001,-106.3083"/>
</g>
</g>
</svg>
