<?xml version="1.0" encoding="UTF-8" standalone="no"?>
<!DOCTYPE svg PUBLIC "-//W3C//DTD SVG 1.1//EN"
 "http://www.w3.org/Graphics/SVG/1.1/DTD/svg11.dtd">
<!-- Generated by graphviz version 2.40.1 (20161225.0304)
 -->
<!-- Title: RangeTest Pages: 1 -->
<svg width="162pt" height="325pt"
 viewBox="0.00 0.00 161.50 325.00" xmlns="http://www.w3.org/2000/svg" xmlns:xlink="http://www.w3.org/1999/xlink">
<g id="graph0" class="graph" transform="scale(1 1) rotate(0) translate(4 321)">
<title>RangeTest</title>
<polygon fill="#ffffff" stroke="transparent" points="-4,4 -4,-321 157.5,-321 157.5,4 -4,4"/>
<!-- Node1 -->
<g id="node1" class="node">
<title>Node1</title>
<g id="a_node1"><a xlink:title=" ">
<polygon fill="#bfbfbf" stroke="#000000" points="21.5,-.5 21.5,-68.5 100.5,-68.5 100.5,-.5 21.5,-.5"/>
<text text-anchor="middle" x="61" y="-56.5" font-family="Helvetica,sans-Serif" font-size="10.00" fill="#000000">RangeTest</text>
<polyline fill="none" stroke="#000000" points="21.5,-49.5 100.5,-49.5 "/>
<text text-anchor="middle" x="61" y="-37.5" font-family="Helvetica,sans-Serif" font-size="10.00" fill="#000000"> </text>
<polyline fill="none" stroke="#000000" points="21.5,-30.5 100.5,-30.5 "/>
<text text-anchor="start" x="29.5" y="-18.5" font-family="Helvetica,sans-Serif" font-size="10.00" fill="#000000"># RangeTest()</text>
<text text-anchor="start" x="29.5" y="-7.5" font-family="Helvetica,sans-Serif" font-size="10.00" fill="#000000"># SetUp()</text>
</a>
</g>
</g>
<!-- Node2 -->
<g id="node2" class="node">
<title>Node2</title>
<g id="a_node2"><a xlink:title=" ">
<polygon fill="#ffffff" stroke="#bfbfbf" points="0,-193.5 0,-250.5 36,-250.5 36,-193.5 0,-193.5"/>
<text text-anchor="middle" x="18" y="-238.5" font-family="Helvetica,sans-Serif" font-size="10.00" fill="#000000">Test</text>
<polyline fill="none" stroke="#bfbfbf" points="0,-231.5 36,-231.5 "/>
<text text-anchor="middle" x="18" y="-219.5" font-family="Helvetica,sans-Serif" font-size="10.00" fill="#000000"> </text>
<polyline fill="none" stroke="#bfbfbf" points="0,-212.5 36,-212.5 "/>
<text text-anchor="middle" x="18" y="-200.5" font-family="Helvetica,sans-Serif" font-size="10.00" fill="#000000"> </text>
</a>
</g>
</g>
<!-- Node2&#45;&gt;Node1 -->
<g id="edge1" class="edge">
<title>Node2&#45;&gt;Node1</title>
<path fill="none" stroke="#191970" d="M26.9151,-183.1262C34.6697,-149.3122 45.7954,-100.7993 53.2019,-68.5032"/>
<polygon fill="none" stroke="#191970" points="23.4485,-182.5847 24.6245,-193.114 30.2713,-184.1494 23.4485,-182.5847"/>
</g>
<!-- Node3 -->
<g id="node3" class="node">
<title>Node3</title>
<g id="a_node3"><a xlink:href="classbsn_1_1range_1_1Range.html" target="_top" xlink:title=" ">
<polygon fill="#ffffff" stroke="#000000" points="54.5,-127.5 54.5,-316.5 153.5,-316.5 153.5,-127.5 54.5,-127.5"/>
<text text-anchor="middle" x="104" y="-304.5" font-family="Helvetica,sans-Serif" font-size="10.00" fill="#000000">bsn::range::Range</text>
<polyline fill="none" stroke="#000000" points="54.5,-297.5 153.5,-297.5 "/>
<text text-anchor="middle" x="104" y="-285.5" font-family="Helvetica,sans-Serif" font-size="10.00" fill="#000000"> </text>
<polyline fill="none" stroke="#000000" points="54.5,-278.5 153.5,-278.5 "/>
<text text-anchor="start" x="62.5" y="-266.5" font-family="Helvetica,sans-Serif" font-size="10.00" fill="#000000">+ Range()</text>
<text text-anchor="start" x="62.5" y="-255.5" font-family="Helvetica,sans-Serif" font-size="10.00" fill="#000000">+ Range()</text>
<text text-anchor="start" x="62.5" y="-244.5" font-family="Helvetica,sans-Serif" font-size="10.00" fill="#000000">+ ~Range()</text>
<text text-anchor="start" x="62.5" y="-233.5" font-family="Helvetica,sans-Serif" font-size="10.00" fill="#000000">+ Range()</text>
<text text-anchor="start" x="62.5" y="-222.5" font-family="Helvetica,sans-Serif" font-size="10.00" fill="#000000">+ operator=()</text>
<text text-anchor="start" x="62.5" y="-211.5" font-family="Helvetica,sans-Serif" font-size="10.00" fill="#000000">+ in_range()</text>
<text text-anchor="start" x="62.5" y="-200.5" font-family="Helvetica,sans-Serif" font-size="10.00" fill="#000000">+ convert()</text>
<text text-anchor="start" x="62.5" y="-189.5" font-family="Helvetica,sans-Serif" font-size="10.00" fill="#000000">+ to_print()</text>
<text text-anchor="start" x="62.5" y="-178.5" font-family="Helvetica,sans-Serif" font-size="10.00" fill="#000000">+ setLowerBound()</text>
<text text-anchor="start" x="62.5" y="-167.5" font-family="Helvetica,sans-Serif" font-size="10.00" fill="#000000">+ getLowerBound()</text>
<text text-anchor="start" x="62.5" y="-156.5" font-family="Helvetica,sans-Serif" font-size="10.00" fill="#000000">+ setUpperBound()</text>
<text text-anchor="start" x="62.5" y="-145.5" font-family="Helvetica,sans-Serif" font-size="10.00" fill="#000000">+ getUpperBound()</text>
<text text-anchor="start" x="62.5" y="-134.5" font-family="Helvetica,sans-Serif" font-size="10.00" fill="#000000">+ toString()</text>
</a>
</g>
</g>
<!-- Node3&#45;&gt;Node1 -->
<g id="edge2" class="edge">
<title>Node3&#45;&gt;Node1</title>
<path fill="none" stroke="#404040" d="M82.311,-127.426C78.5658,-111.0949 74.8281,-94.797 71.5528,-80.515"/>
<polygon fill="none" stroke="#404040" points="71.4873,-80.2293 66.2473,-75.2753 68.8049,-68.533 74.0449,-73.487 71.4873,-80.2293"/>
<text text-anchor="middle" x="85.5" y="-101" font-family="Helvetica,sans-Serif" font-size="10.00" fill="#000000"> #r1</text>
<text text-anchor="middle" x="85.5" y="-90" font-family="Helvetica,sans-Serif" font-size="10.00" fill="#000000">#r2</text>
</g>
</g>
</svg>
