<?xml version="1.0" encoding="UTF-8" standalone="no"?>
<!DOCTYPE svg PUBLIC "-//W3C//DTD SVG 1.1//EN"
 "http://www.w3.org/Graphics/SVG/1.1/DTD/svg11.dtd">
<!-- Generated by graphviz version 2.40.1 (20161225.0304)
 -->
<!-- Title: G3T1_2 Pages: 1 -->
<svg width="669pt" height="971pt"
 viewBox="0.00 0.00 668.50 971.00" xmlns="http://www.w3.org/2000/svg" xmlns:xlink="http://www.w3.org/1999/xlink">
<g id="graph0" class="graph" transform="scale(1 1) rotate(0) translate(4 967)">
<title>G3T1_2</title>
<polygon fill="#ffffff" stroke="transparent" points="-4,4 -4,-967 664.5,-967 664.5,4 -4,4"/>
<!-- Node1 -->
<g id="node1" class="node">
<title>Node1</title>
<g id="a_node1"><a xlink:title=" ">
<polygon fill="#bfbfbf" stroke="#000000" points="348,-.5 348,-123.5 422,-123.5 422,-.5 348,-.5"/>
<text text-anchor="middle" x="385" y="-111.5" font-family="Helvetica,sans-Serif" font-size="10.00" fill="#000000">G3T1_2</text>
<polyline fill="none" stroke="#000000" points="348,-104.5 422,-104.5 "/>
<text text-anchor="middle" x="385" y="-92.5" font-family="Helvetica,sans-Serif" font-size="10.00" fill="#000000"> </text>
<polyline fill="none" stroke="#000000" points="348,-85.5 422,-85.5 "/>
<text text-anchor="start" x="356" y="-73.5" font-family="Helvetica,sans-Serif" font-size="10.00" fill="#000000">+ G3T1_2()</text>
<text text-anchor="start" x="356" y="-62.5" font-family="Helvetica,sans-Serif" font-size="10.00" fill="#000000">+ ~G3T1_2()</text>
<text text-anchor="start" x="356" y="-51.5" font-family="Helvetica,sans-Serif" font-size="10.00" fill="#000000">+ setUp()</text>
<text text-anchor="start" x="356" y="-40.5" font-family="Helvetica,sans-Serif" font-size="10.00" fill="#000000">+ tearDown()</text>
<text text-anchor="start" x="356" y="-29.5" font-family="Helvetica,sans-Serif" font-size="10.00" fill="#000000">+ collect()</text>
<text text-anchor="start" x="356" y="-18.5" font-family="Helvetica,sans-Serif" font-size="10.00" fill="#000000">+ process()</text>
<text text-anchor="start" x="356" y="-7.5" font-family="Helvetica,sans-Serif" font-size="10.00" fill="#000000">+ transfer()</text>
</a>
</g>
</g>
<!-- Node2 -->
<g id="node2" class="node">
<title>Node2</title>
<g id="a_node2"><a xlink:href="classSensor.html" target="_top" xlink:title=" ">
<polygon fill="#ffffff" stroke="#000000" points="332.5,-161.5 332.5,-383.5 437.5,-383.5 437.5,-161.5 332.5,-161.5"/>
<text text-anchor="middle" x="385" y="-371.5" font-family="Helvetica,sans-Serif" font-size="10.00" fill="#000000">Sensor</text>
<polyline fill="none" stroke="#000000" points="332.5,-364.5 437.5,-364.5 "/>
<text text-anchor="middle" x="385" y="-352.5" font-family="Helvetica,sans-Serif" font-size="10.00" fill="#000000"> </text>
<polyline fill="none" stroke="#000000" points="332.5,-345.5 437.5,-345.5 "/>
<text text-anchor="start" x="340.5" y="-333.5" font-family="Helvetica,sans-Serif" font-size="10.00" fill="#000000">+ Sensor()</text>
<text text-anchor="start" x="340.5" y="-322.5" font-family="Helvetica,sans-Serif" font-size="10.00" fill="#000000">+ ~Sensor()</text>
<text text-anchor="start" x="340.5" y="-311.5" font-family="Helvetica,sans-Serif" font-size="10.00" fill="#000000">+ setUp()</text>
<text text-anchor="start" x="340.5" y="-300.5" font-family="Helvetica,sans-Serif" font-size="10.00" fill="#000000">+ tearDown()</text>
<text text-anchor="start" x="340.5" y="-289.5" font-family="Helvetica,sans-Serif" font-size="10.00" fill="#000000">+ run()</text>
<text text-anchor="start" x="340.5" y="-278.5" font-family="Helvetica,sans-Serif" font-size="10.00" fill="#000000">+ body()</text>
<text text-anchor="start" x="340.5" y="-267.5" font-family="Helvetica,sans-Serif" font-size="10.00" fill="#000000">+ apply_noise()</text>
<text text-anchor="start" x="340.5" y="-256.5" font-family="Helvetica,sans-Serif" font-size="10.00" fill="#000000">+ reconfigure()</text>
<text text-anchor="start" x="340.5" y="-245.5" font-family="Helvetica,sans-Serif" font-size="10.00" fill="#000000">+ injectUncertainty()</text>
<text text-anchor="start" x="340.5" y="-234.5" font-family="Helvetica,sans-Serif" font-size="10.00" fill="#000000">+ collect()</text>
<text text-anchor="start" x="340.5" y="-223.5" font-family="Helvetica,sans-Serif" font-size="10.00" fill="#000000">+ process()</text>
<text text-anchor="start" x="340.5" y="-212.5" font-family="Helvetica,sans-Serif" font-size="10.00" fill="#000000">+ transfer()</text>
<text text-anchor="start" x="340.5" y="-201.5" font-family="Helvetica,sans-Serif" font-size="10.00" fill="#000000"># isActive()</text>
<text text-anchor="start" x="340.5" y="-190.5" font-family="Helvetica,sans-Serif" font-size="10.00" fill="#000000"># turnOn()</text>
<text text-anchor="start" x="340.5" y="-179.5" font-family="Helvetica,sans-Serif" font-size="10.00" fill="#000000"># turnOff()</text>
<text text-anchor="start" x="340.5" y="-168.5" font-family="Helvetica,sans-Serif" font-size="10.00" fill="#000000"># recharge()</text>
</a>
</g>
</g>
<!-- Node2&#45;&gt;Node1 -->
<g id="edge1" class="edge">
<title>Node2&#45;&gt;Node1</title>
<path fill="none" stroke="#191970" d="M385,-151.1167C385,-141.6957 385,-132.4513 385,-123.6953"/>
<polygon fill="none" stroke="#191970" points="381.5001,-151.394 385,-161.394 388.5001,-151.3941 381.5001,-151.394"/>
</g>
<!-- Node3 -->
<g id="node3" class="node">
<title>Node3</title>
<g id="a_node3"><a xlink:href="classarch_1_1target__system_1_1Component.html" target="_top" xlink:title=" ">
<polygon fill="#ffffff" stroke="#000000" points="109,-442.5 109,-631.5 213,-631.5 213,-442.5 109,-442.5"/>
<text text-anchor="start" x="117" y="-619.5" font-family="Helvetica,sans-Serif" font-size="10.00" fill="#000000">arch::target_system</text>
<text text-anchor="middle" x="161" y="-608.5" font-family="Helvetica,sans-Serif" font-size="10.00" fill="#000000">::Component</text>
<polyline fill="none" stroke="#000000" points="109,-601.5 213,-601.5 "/>
<text text-anchor="middle" x="161" y="-589.5" font-family="Helvetica,sans-Serif" font-size="10.00" fill="#000000"> </text>
<polyline fill="none" stroke="#000000" points="109,-582.5 213,-582.5 "/>
<text text-anchor="start" x="117" y="-570.5" font-family="Helvetica,sans-Serif" font-size="10.00" fill="#000000">+ Component()</text>
<text text-anchor="start" x="117" y="-559.5" font-family="Helvetica,sans-Serif" font-size="10.00" fill="#000000">+ ~Component()</text>
<text text-anchor="start" x="117" y="-548.5" font-family="Helvetica,sans-Serif" font-size="10.00" fill="#000000">+ setUp()</text>
<text text-anchor="start" x="117" y="-537.5" font-family="Helvetica,sans-Serif" font-size="10.00" fill="#000000">+ tearDown()</text>
<text text-anchor="start" x="117" y="-526.5" font-family="Helvetica,sans-Serif" font-size="10.00" fill="#000000">+ run()</text>
<text text-anchor="start" x="117" y="-515.5" font-family="Helvetica,sans-Serif" font-size="10.00" fill="#000000">+ body()</text>
<text text-anchor="start" x="117" y="-504.5" font-family="Helvetica,sans-Serif" font-size="10.00" fill="#000000">+ sendEvent()</text>
<text text-anchor="start" x="117" y="-493.5" font-family="Helvetica,sans-Serif" font-size="10.00" fill="#000000">+ sendStatus()</text>
<text text-anchor="start" x="117" y="-482.5" font-family="Helvetica,sans-Serif" font-size="10.00" fill="#000000">+ reconfigure()</text>
<text text-anchor="start" x="117" y="-471.5" font-family="Helvetica,sans-Serif" font-size="10.00" fill="#000000"># activate()</text>
<text text-anchor="start" x="117" y="-460.5" font-family="Helvetica,sans-Serif" font-size="10.00" fill="#000000"># deactivate()</text>
<text text-anchor="start" x="117" y="-449.5" font-family="Helvetica,sans-Serif" font-size="10.00" fill="#000000"># sigIntHandler()</text>
</a>
</g>
</g>
<!-- Node3&#45;&gt;Node2 -->
<g id="edge2" class="edge">
<title>Node3&#45;&gt;Node2</title>
<path fill="none" stroke="#191970" d="M219.2882,-445.7481C220.1932,-444.4871 221.0975,-443.237 222,-442 254.6046,-397.3104 298.3595,-352.4426 332.3266,-320.1053"/>
<polygon fill="none" stroke="#191970" points="216.2221,-444.0226 213.3138,-454.2104 221.9406,-448.0598 216.2221,-444.0226"/>
</g>
<!-- Node4 -->
<g id="node4" class="node">
<title>Node4</title>
<g id="a_node4"><a xlink:href="classarch_1_1ROSComponent.html" target="_top" xlink:title=" ">
<polygon fill="#ffffff" stroke="#000000" points="22.5,-679.5 22.5,-802.5 135.5,-802.5 135.5,-679.5 22.5,-679.5"/>
<text text-anchor="middle" x="79" y="-790.5" font-family="Helvetica,sans-Serif" font-size="10.00" fill="#000000">arch::ROSComponent</text>
<polyline fill="none" stroke="#000000" points="22.5,-783.5 135.5,-783.5 "/>
<text text-anchor="middle" x="79" y="-771.5" font-family="Helvetica,sans-Serif" font-size="10.00" fill="#000000"> </text>
<polyline fill="none" stroke="#000000" points="22.5,-764.5 135.5,-764.5 "/>
<text text-anchor="start" x="30.5" y="-752.5" font-family="Helvetica,sans-Serif" font-size="10.00" fill="#000000">+ ROSComponent()</text>
<text text-anchor="start" x="30.5" y="-741.5" font-family="Helvetica,sans-Serif" font-size="10.00" fill="#000000">+ ~ROSComponent()</text>
<text text-anchor="start" x="30.5" y="-730.5" font-family="Helvetica,sans-Serif" font-size="10.00" fill="#000000">+ setUp()</text>
<text text-anchor="start" x="30.5" y="-719.5" font-family="Helvetica,sans-Serif" font-size="10.00" fill="#000000">+ tearDown()</text>
<text text-anchor="start" x="30.5" y="-708.5" font-family="Helvetica,sans-Serif" font-size="10.00" fill="#000000">+ run()</text>
<text text-anchor="start" x="30.5" y="-697.5" font-family="Helvetica,sans-Serif" font-size="10.00" fill="#000000">+ body()</text>
<text text-anchor="start" x="30.5" y="-686.5" font-family="Helvetica,sans-Serif" font-size="10.00" fill="#000000"># getRosNodeName()</text>
</a>
</g>
</g>
<!-- Node4&#45;&gt;Node3 -->
<g id="edge3" class="edge">
<title>Node4&#45;&gt;Node3</title>
<path fill="none" stroke="#191970" d="M107.5654,-669.9348C112.5321,-657.5786 117.7678,-644.5534 122.9406,-631.6843"/>
<polygon fill="none" stroke="#191970" points="104.3074,-668.6558 103.8252,-679.2397 110.8023,-671.2666 104.3074,-668.6558"/>
</g>
<!-- Node5 -->
<g id="node5" class="node">
<title>Node5</title>
<g id="a_node5"><a xlink:href="classarch_1_1ROSComponentDescriptor.html" target="_top" xlink:title=" ">
<polygon fill="#ffffff" stroke="#000000" points="0,-850.5 0,-962.5 158,-962.5 158,-850.5 0,-850.5"/>
<text text-anchor="middle" x="79" y="-950.5" font-family="Helvetica,sans-Serif" font-size="10.00" fill="#000000">arch::ROSComponentDescriptor</text>
<polyline fill="none" stroke="#000000" points="0,-943.5 158,-943.5 "/>
<text text-anchor="middle" x="79" y="-931.5" font-family="Helvetica,sans-Serif" font-size="10.00" fill="#000000"> </text>
<polyline fill="none" stroke="#000000" points="0,-924.5 158,-924.5 "/>
<text text-anchor="start" x="8" y="-912.5" font-family="Helvetica,sans-Serif" font-size="10.00" fill="#000000">+ ROSComponentDescriptor()</text>
<text text-anchor="start" x="8" y="-901.5" font-family="Helvetica,sans-Serif" font-size="10.00" fill="#000000">+ ~ROSComponentDescriptor()</text>
<text text-anchor="start" x="8" y="-890.5" font-family="Helvetica,sans-Serif" font-size="10.00" fill="#000000">+ setName()</text>
<text text-anchor="start" x="8" y="-879.5" font-family="Helvetica,sans-Serif" font-size="10.00" fill="#000000">+ getName()</text>
<text text-anchor="start" x="8" y="-868.5" font-family="Helvetica,sans-Serif" font-size="10.00" fill="#000000">+ setFreq()</text>
<text text-anchor="start" x="8" y="-857.5" font-family="Helvetica,sans-Serif" font-size="10.00" fill="#000000">+ getFreq()</text>
</a>
</g>
</g>
<!-- Node5&#45;&gt;Node4 -->
<g id="edge4" class="edge">
<title>Node5&#45;&gt;Node4</title>
<path fill="none" stroke="#404040" d="M79,-850.4692C79,-839.0551 79,-826.8811 79,-814.9537"/>
<polygon fill="none" stroke="#404040" points="79.0001,-814.6555 75,-808.6555 79,-802.6555 83,-808.6555 79.0001,-814.6555"/>
<text text-anchor="middle" x="138" y="-824" font-family="Helvetica,sans-Serif" font-size="10.00" fill="#000000"> #rosComponentDescriptor</text>
</g>
<!-- Node6 -->
<g id="node6" class="node">
<title>Node6</title>
<g id="a_node6"><a xlink:title=" ">
<polygon fill="#ffffff" stroke="#bfbfbf" points="153.5,-712.5 153.5,-769.5 224.5,-769.5 224.5,-712.5 153.5,-712.5"/>
<text text-anchor="middle" x="189" y="-757.5" font-family="Helvetica,sans-Serif" font-size="10.00" fill="#000000">NodeHandle</text>
<polyline fill="none" stroke="#bfbfbf" points="153.5,-750.5 224.5,-750.5 "/>
<text text-anchor="middle" x="189" y="-738.5" font-family="Helvetica,sans-Serif" font-size="10.00" fill="#000000"> </text>
<polyline fill="none" stroke="#bfbfbf" points="153.5,-731.5 224.5,-731.5 "/>
<text text-anchor="middle" x="189" y="-719.5" font-family="Helvetica,sans-Serif" font-size="10.00" fill="#000000"> </text>
</a>
</g>
</g>
<!-- Node6&#45;&gt;Node3 -->
<g id="edge5" class="edge">
<title>Node6&#45;&gt;Node3</title>
<path fill="none" stroke="#404040" d="M185.0477,-712.2045C182.536,-693.9054 179.1125,-668.9625 175.6365,-643.6377"/>
<polygon fill="none" stroke="#404040" points="175.6164,-643.4902 170.8376,-638.0898 173.9845,-631.6016 178.7633,-637.0019 175.6164,-643.4902"/>
<text text-anchor="middle" x="196.5" y="-653" font-family="Helvetica,sans-Serif" font-size="10.00" fill="#000000"> #handle</text>
</g>
<!-- Node7 -->
<g id="node7" class="node">
<title>Node7</title>
<g id="a_node7"><a xlink:title=" ">
<polygon fill="#ffffff" stroke="#bfbfbf" points="231.5,-508.5 231.5,-565.5 276.5,-565.5 276.5,-508.5 231.5,-508.5"/>
<text text-anchor="middle" x="254" y="-553.5" font-family="Helvetica,sans-Serif" font-size="10.00" fill="#000000">double</text>
<polyline fill="none" stroke="#bfbfbf" points="231.5,-546.5 276.5,-546.5 "/>
<text text-anchor="middle" x="254" y="-534.5" font-family="Helvetica,sans-Serif" font-size="10.00" fill="#000000"> </text>
<polyline fill="none" stroke="#bfbfbf" points="231.5,-527.5 276.5,-527.5 "/>
<text text-anchor="middle" x="254" y="-515.5" font-family="Helvetica,sans-Serif" font-size="10.00" fill="#000000"> </text>
</a>
</g>
</g>
<!-- Node7&#45;&gt;Node2 -->
<g id="edge6" class="edge">
<title>Node7&#45;&gt;Node2</title>
<path fill="none" stroke="#404040" d="M251.3525,-508.2823C249.9161,-480.0119 250.8844,-436.2231 266,-402 279.0688,-372.4112 301.6996,-345.1349 323.7405,-323.3241"/>
<polygon fill="none" stroke="#404040" points="323.8142,-323.2532 325.3657,-316.211 332.463,-314.9347 330.9115,-321.9769 323.8142,-323.2532"/>
<text text-anchor="middle" x="295.5" y="-416" font-family="Helvetica,sans-Serif" font-size="10.00" fill="#000000"> #data</text>
<text text-anchor="middle" x="295.5" y="-405" font-family="Helvetica,sans-Serif" font-size="10.00" fill="#000000">#noise_factor</text>
</g>
<!-- Node8 -->
<g id="node8" class="node">
<title>Node8</title>
<g id="a_node8"><a xlink:title=" ">
<polygon fill="#ffffff" stroke="#bfbfbf" points="321.5,-508.5 321.5,-565.5 350.5,-565.5 350.5,-508.5 321.5,-508.5"/>
<text text-anchor="middle" x="336" y="-553.5" font-family="Helvetica,sans-Serif" font-size="10.00" fill="#000000">int</text>
<polyline fill="none" stroke="#bfbfbf" points="321.5,-546.5 350.5,-546.5 "/>
<text text-anchor="middle" x="336" y="-534.5" font-family="Helvetica,sans-Serif" font-size="10.00" fill="#000000"> </text>
<polyline fill="none" stroke="#bfbfbf" points="321.5,-527.5 350.5,-527.5 "/>
<text text-anchor="middle" x="336" y="-515.5" font-family="Helvetica,sans-Serif" font-size="10.00" fill="#000000"> </text>
</a>
</g>
</g>
<!-- Node8&#45;&gt;Node2 -->
<g id="edge7" class="edge">
<title>Node8&#45;&gt;Node2</title>
<path fill="none" stroke="#404040" d="M331.8675,-508.2601C328.7264,-480.7252 326.0157,-438.1372 333,-402 333.4213,-399.8201 333.8791,-397.6304 334.3702,-395.4342"/>
<polygon fill="none" stroke="#404040" points="334.4047,-395.2951 331.9684,-388.508 337.2963,-383.6487 339.7326,-390.4358 334.4047,-395.2951"/>
<text text-anchor="middle" x="371" y="-416" font-family="Helvetica,sans-Serif" font-size="10.00" fill="#000000"> #buffer_size</text>
<text text-anchor="middle" x="371" y="-405" font-family="Helvetica,sans-Serif" font-size="10.00" fill="#000000">#replicate_collect</text>
</g>
<!-- Node9 -->
<g id="node9" class="node">
<title>Node9</title>
<g id="a_node9"><a xlink:title=" ">
<polygon fill="#ffffff" stroke="#bfbfbf" points="415.5,-508.5 415.5,-565.5 450.5,-565.5 450.5,-508.5 415.5,-508.5"/>
<text text-anchor="middle" x="433" y="-553.5" font-family="Helvetica,sans-Serif" font-size="10.00" fill="#000000">bool</text>
<polyline fill="none" stroke="#bfbfbf" points="415.5,-546.5 450.5,-546.5 "/>
<text text-anchor="middle" x="433" y="-534.5" font-family="Helvetica,sans-Serif" font-size="10.00" fill="#000000"> </text>
<polyline fill="none" stroke="#bfbfbf" points="415.5,-527.5 450.5,-527.5 "/>
<text text-anchor="middle" x="433" y="-515.5" font-family="Helvetica,sans-Serif" font-size="10.00" fill="#000000"> </text>
</a>
</g>
</g>
<!-- Node9&#45;&gt;Node2 -->
<g id="edge8" class="edge">
<title>Node9&#45;&gt;Node2</title>
<path fill="none" stroke="#404040" d="M429.3283,-508.4666C425.6733,-481.0812 419.6599,-438.5974 413,-402 412.6078,-399.8448 412.206,-397.6707 411.7959,-395.4822"/>
<polygon fill="none" stroke="#404040" points="411.79,-395.4505 406.7319,-390.3108 409.5307,-383.665 414.5888,-388.8047 411.79,-395.4505"/>
<text text-anchor="middle" x="433.5" y="-410.5" font-family="Helvetica,sans-Serif" font-size="10.00" fill="#000000"> #active</text>
</g>
<!-- Node10 -->
<g id="node10" class="node">
<title>Node10</title>
<g id="a_node10"><a xlink:title="STL class.">
<polygon fill="#ffffff" stroke="#bfbfbf" points="469,-508.5 469,-565.5 529,-565.5 529,-508.5 469,-508.5"/>
<text text-anchor="middle" x="499" y="-553.5" font-family="Helvetica,sans-Serif" font-size="10.00" fill="#000000">std::string</text>
<polyline fill="none" stroke="#bfbfbf" points="469,-546.5 529,-546.5 "/>
<text text-anchor="middle" x="499" y="-534.5" font-family="Helvetica,sans-Serif" font-size="10.00" fill="#000000"> </text>
<polyline fill="none" stroke="#bfbfbf" points="469,-527.5 529,-527.5 "/>
<text text-anchor="middle" x="499" y="-515.5" font-family="Helvetica,sans-Serif" font-size="10.00" fill="#000000"> </text>
</a>
</g>
</g>
<!-- Node10&#45;&gt;Node2 -->
<g id="edge9" class="edge">
<title>Node10&#45;&gt;Node2</title>
<path fill="none" stroke="#404040" d="M491.27,-508.2683C483.4353,-480.5559 470.3089,-437.6796 455,-402 451.3155,-393.4128 447.2556,-384.6369 443.0027,-375.9014"/>
<polygon fill="none" stroke="#404040" points="442.8643,-375.6226 436.6127,-372.0283 437.5261,-364.8753 443.7776,-368.4696 442.8643,-375.6226"/>
<text text-anchor="middle" x="477" y="-410.5" font-family="Helvetica,sans-Serif" font-size="10.00" fill="#000000"> #type</text>
</g>
<!-- Node11 -->
<g id="node11" class="node">
<title>Node11</title>
<g id="a_node11"><a xlink:title="STL class.">
<polygon fill="#ffffff" stroke="#bfbfbf" points="451.5,-707 451.5,-775 546.5,-775 546.5,-707 451.5,-707"/>
<text text-anchor="start" x="459.5" y="-763" font-family="Helvetica,sans-Serif" font-size="10.00" fill="#000000">std::basic_string&lt;</text>
<text text-anchor="middle" x="499" y="-752" font-family="Helvetica,sans-Serif" font-size="10.00" fill="#000000"> char &gt;</text>
<polyline fill="none" stroke="#bfbfbf" points="451.5,-745 546.5,-745 "/>
<text text-anchor="middle" x="499" y="-733" font-family="Helvetica,sans-Serif" font-size="10.00" fill="#000000"> </text>
<polyline fill="none" stroke="#bfbfbf" points="451.5,-726 546.5,-726 "/>
<text text-anchor="middle" x="499" y="-714" font-family="Helvetica,sans-Serif" font-size="10.00" fill="#000000"> </text>
</a>
</g>
</g>
<!-- Node11&#45;&gt;Node10 -->
<g id="edge10" class="edge">
<title>Node11&#45;&gt;Node10</title>
<path fill="none" stroke="#191970" d="M499,-696.6384C499,-656.8657 499,-599.6879 499,-565.6482"/>
<polygon fill="none" stroke="#191970" points="495.5001,-696.855 499,-706.855 502.5001,-696.855 495.5001,-696.855"/>
</g>
<!-- Node12 -->
<g id="node12" class="node">
<title>Node12</title>
<g id="a_node12"><a xlink:href="classbsn_1_1resource_1_1Battery.html" target="_top" xlink:title=" ">
<polygon fill="#ffffff" stroke="#000000" points="547.5,-453.5 547.5,-620.5 660.5,-620.5 660.5,-453.5 547.5,-453.5"/>
<text text-anchor="middle" x="604" y="-608.5" font-family="Helvetica,sans-Serif" font-size="10.00" fill="#000000">bsn::resource::Battery</text>
<polyline fill="none" stroke="#000000" points="547.5,-601.5 660.5,-601.5 "/>
<text text-anchor="middle" x="604" y="-589.5" font-family="Helvetica,sans-Serif" font-size="10.00" fill="#000000"> </text>
<polyline fill="none" stroke="#000000" points="547.5,-582.5 660.5,-582.5 "/>
<text text-anchor="start" x="555.5" y="-570.5" font-family="Helvetica,sans-Serif" font-size="10.00" fill="#000000">+ Battery()</text>
<text text-anchor="start" x="555.5" y="-559.5" font-family="Helvetica,sans-Serif" font-size="10.00" fill="#000000">+ Battery()</text>
<text text-anchor="start" x="555.5" y="-548.5" font-family="Helvetica,sans-Serif" font-size="10.00" fill="#000000">+ ~Battery()</text>
<text text-anchor="start" x="555.5" y="-537.5" font-family="Helvetica,sans-Serif" font-size="10.00" fill="#000000">+ Battery()</text>
<text text-anchor="start" x="555.5" y="-526.5" font-family="Helvetica,sans-Serif" font-size="10.00" fill="#000000">+ operator=()</text>
<text text-anchor="start" x="555.5" y="-515.5" font-family="Helvetica,sans-Serif" font-size="10.00" fill="#000000">+ consume()</text>
<text text-anchor="start" x="555.5" y="-504.5" font-family="Helvetica,sans-Serif" font-size="10.00" fill="#000000">+ generate()</text>
<text text-anchor="start" x="555.5" y="-493.5" font-family="Helvetica,sans-Serif" font-size="10.00" fill="#000000">+ setId()</text>
<text text-anchor="start" x="555.5" y="-482.5" font-family="Helvetica,sans-Serif" font-size="10.00" fill="#000000">+ getId()</text>
<text text-anchor="start" x="555.5" y="-471.5" font-family="Helvetica,sans-Serif" font-size="10.00" fill="#000000">+ setCapacity()</text>
<text text-anchor="start" x="555.5" y="-460.5" font-family="Helvetica,sans-Serif" font-size="10.00" fill="#000000">and 6 more...</text>
</a>
</g>
</g>
<!-- Node12&#45;&gt;Node2 -->
<g id="edge11" class="edge">
<title>Node12&#45;&gt;Node2</title>
<path fill="none" stroke="#404040" d="M547.3881,-454.1481C544.2612,-450.0039 541.1206,-445.933 538,-442 509.2943,-405.8215 475.0295,-367.4683 446.2102,-336.4121"/>
<polygon fill="none" stroke="#404040" points="446.0273,-336.2159 439.0103,-334.5541 437.8455,-327.4377 444.8625,-329.0995 446.0273,-336.2159"/>
<text text-anchor="middle" x="541.5" y="-410.5" font-family="Helvetica,sans-Serif" font-size="10.00" fill="#000000"> #battery</text>
</g>
</g>
</svg>
