<?xml version="1.0" encoding="UTF-8" standalone="no"?>
<!DOCTYPE svg PUBLIC "-//W3C//DTD SVG 1.1//EN"
 "http://www.w3.org/Graphics/SVG/1.1/DTD/svg11.dtd">
<!-- Generated by graphviz version 2.40.1 (20161225.0304)
 -->
<!-- Title: Lepton::Operation::operator!= Pages: 1 -->
<svg width="244pt" height="39pt"
 viewBox="0.00 0.00 244.00 39.00" xmlns="http://www.w3.org/2000/svg" xmlns:xlink="http://www.w3.org/1999/xlink">
<g id="graph0" class="graph" transform="scale(1 1) rotate(0) translate(4 35)">
<title>Lepton::Operation::operator!=</title>
<polygon fill="#ffffff" stroke="transparent" points="-4,4 -4,-35 240,-35 240,4 -4,4"/>
<!-- Node1 -->
<g id="node1" class="node">
<title>Node1</title>
<g id="a_node1"><a xlink:title=" ">
<polygon fill="#bfbfbf" stroke="#000000" points="0,-.5 0,-30.5 100,-30.5 100,-.5 0,-.5"/>
<text text-anchor="start" x="8" y="-18.5" font-family="Helvetica,sans-Serif" font-size="10.00" fill="#000000">Lepton::Operation::</text>
<text text-anchor="middle" x="50" y="-7.5" font-family="Helvetica,sans-Serif" font-size="10.00" fill="#000000">operator!=</text>
</a>
</g>
</g>
<!-- Node2 -->
<g id="node2" class="node">
<title>Node2</title>
<g id="a_node2"><a xlink:href="classLepton_1_1Operation.html#a2682fdf627f5c8080b24193caf77a1ea" target="_top" xlink:title=" ">
<polygon fill="#ffffff" stroke="#000000" points="136,-.5 136,-30.5 236,-30.5 236,-.5 136,-.5"/>
<text text-anchor="start" x="144" y="-18.5" font-family="Helvetica,sans-Serif" font-size="10.00" fill="#000000">Lepton::Operation::</text>
<text text-anchor="middle" x="186" y="-7.5" font-family="Helvetica,sans-Serif" font-size="10.00" fill="#000000">getId</text>
</a>
</g>
</g>
<!-- Node1&#45;&gt;Node2 -->
<g id="edge1" class="edge">
<title>Node1&#45;&gt;Node2</title>
<path fill="none" stroke="#191970" d="M100.255,-15.5C108.5393,-15.5 117.2014,-15.5 125.701,-15.5"/>
<polygon fill="#191970" stroke="#191970" points="125.9516,-19.0001 135.9516,-15.5 125.9515,-12.0001 125.9516,-19.0001"/>
</g>
</g>
</svg>
