<?xml version="1.0" encoding="UTF-8" standalone="no"?>
<!DOCTYPE svg PUBLIC "-//W3C//DTD SVG 1.1//EN"
 "http://www.w3.org/Graphics/SVG/1.1/DTD/svg11.dtd">
<!-- Generated by graphviz version 2.40.1 (20161225.0304)
 -->
<!-- Title: bsn::goalmodel::Node::operator= Pages: 1 -->
<svg width="268pt" height="137pt"
 viewBox="0.00 0.00 268.00 137.00" xmlns="http://www.w3.org/2000/svg" xmlns:xlink="http://www.w3.org/1999/xlink">
<g id="graph0" class="graph" transform="scale(1 1) rotate(0) translate(4 133)">
<title>bsn::goalmodel::Node::operator=</title>
<polygon fill="#ffffff" stroke="transparent" points="-4,4 -4,-133 264,-133 264,4 -4,4"/>
<!-- Node1 -->
<g id="node1" class="node">
<title>Node1</title>
<g id="a_node1"><a xlink:title=" ">
<polygon fill="#bfbfbf" stroke="#000000" points="0,-49.5 0,-79.5 112,-79.5 112,-49.5 0,-49.5"/>
<text text-anchor="start" x="8" y="-67.5" font-family="Helvetica,sans-Serif" font-size="10.00" fill="#000000">bsn::goalmodel::Node</text>
<text text-anchor="middle" x="56" y="-56.5" font-family="Helvetica,sans-Serif" font-size="10.00" fill="#000000">::operator=</text>
</a>
</g>
</g>
<!-- Node2 -->
<g id="node2" class="node">
<title>Node2</title>
<g id="a_node2"><a xlink:href="classbsn_1_1goalmodel_1_1Node.html#ac7e1c2bc59a420499d0dac0a1593282e" target="_top" xlink:title=" ">
<polygon fill="#ffffff" stroke="#000000" points="148,-98.5 148,-128.5 260,-128.5 260,-98.5 148,-98.5"/>
<text text-anchor="start" x="156" y="-116.5" font-family="Helvetica,sans-Serif" font-size="10.00" fill="#000000">bsn::goalmodel::Node</text>
<text text-anchor="middle" x="204" y="-105.5" font-family="Helvetica,sans-Serif" font-size="10.00" fill="#000000">::getChildren</text>
</a>
</g>
</g>
<!-- Node1&#45;&gt;Node2 -->
<g id="edge1" class="edge">
<title>Node1&#45;&gt;Node2</title>
<path fill="none" stroke="#191970" d="M101.6125,-79.6014C116.594,-84.5615 133.4051,-90.1274 149.0071,-95.2929"/>
<polygon fill="#191970" stroke="#191970" points="147.9448,-98.628 158.5381,-98.4484 150.1449,-91.9827 147.9448,-98.628"/>
</g>
<!-- Node3 -->
<g id="node3" class="node">
<title>Node3</title>
<g id="a_node3"><a xlink:href="classbsn_1_1goalmodel_1_1Node.html#a6e9b650e57a8951f241d88267a4521e7" target="_top" xlink:title=" ">
<polygon fill="#ffffff" stroke="#000000" points="148,-49.5 148,-79.5 260,-79.5 260,-49.5 148,-49.5"/>
<text text-anchor="start" x="156" y="-67.5" font-family="Helvetica,sans-Serif" font-size="10.00" fill="#000000">bsn::goalmodel::Node</text>
<text text-anchor="middle" x="204" y="-56.5" font-family="Helvetica,sans-Serif" font-size="10.00" fill="#000000">::getDescription</text>
</a>
</g>
</g>
<!-- Node1&#45;&gt;Node3 -->
<g id="edge2" class="edge">
<title>Node1&#45;&gt;Node3</title>
<path fill="none" stroke="#191970" d="M112.3747,-64.5C120.6214,-64.5 129.1782,-64.5 137.6023,-64.5"/>
<polygon fill="#191970" stroke="#191970" points="137.7821,-68.0001 147.7821,-64.5 137.7821,-61.0001 137.7821,-68.0001"/>
</g>
<!-- Node4 -->
<g id="node4" class="node">
<title>Node4</title>
<g id="a_node4"><a xlink:href="classbsn_1_1goalmodel_1_1Node.html#ae0ad7ddec09e54734821a25e84677553" target="_top" xlink:title=" ">
<polygon fill="#ffffff" stroke="#000000" points="148,-.5 148,-30.5 260,-30.5 260,-.5 148,-.5"/>
<text text-anchor="start" x="156" y="-18.5" font-family="Helvetica,sans-Serif" font-size="10.00" fill="#000000">bsn::goalmodel::Node</text>
<text text-anchor="middle" x="204" y="-7.5" font-family="Helvetica,sans-Serif" font-size="10.00" fill="#000000">::getID</text>
</a>
</g>
</g>
<!-- Node1&#45;&gt;Node4 -->
<g id="edge3" class="edge">
<title>Node1&#45;&gt;Node4</title>
<path fill="none" stroke="#191970" d="M101.6125,-49.3986C116.594,-44.4385 133.4051,-38.8726 149.0071,-33.7071"/>
<polygon fill="#191970" stroke="#191970" points="150.1449,-37.0173 158.5381,-30.5516 147.9448,-30.372 150.1449,-37.0173"/>
</g>
</g>
</svg>
