<?xml version="1.0" encoding="UTF-8" standalone="no"?>
<!DOCTYPE svg PUBLIC "-//W3C//DTD SVG 1.1//EN"
 "http://www.w3.org/Graphics/SVG/1.1/DTD/svg11.dtd">
<!-- Generated by graphviz version 2.40.1 (20161225.0304)
 -->
<!-- Title: Logger::body Pages: 1 -->
<svg width="251pt" height="154pt"
 viewBox="0.00 0.00 251.00 153.50" xmlns="http://www.w3.org/2000/svg" xmlns:xlink="http://www.w3.org/1999/xlink">
<g id="graph0" class="graph" transform="scale(1 1) rotate(0) translate(4 149.5)">
<title>Logger::body</title>
<polygon fill="#ffffff" stroke="transparent" points="-4,4 -4,-149.5 247,-149.5 247,4 -4,4"/>
<!-- Node1 -->
<g id="node1" class="node">
<title>Node1</title>
<g id="a_node1"><a xlink:title=" ">
<polygon fill="#bfbfbf" stroke="#000000" points="0,-57.5 0,-76.5 73,-76.5 73,-57.5 0,-57.5"/>
<text text-anchor="middle" x="36.5" y="-64.5" font-family="Helvetica,sans-Serif" font-size="10.00" fill="#000000">Logger::body</text>
</a>
</g>
</g>
<!-- Node2 -->
<g id="node2" class="node">
<title>Node2</title>
<g id="a_node2"><a xlink:href="classLogger.html#a91dc05b6320e8749822ea4b5d4bc816e" target="_top" xlink:title=" ">
<polygon fill="#ffffff" stroke="#000000" points="111,-115 111,-145 241,-145 241,-115 111,-115"/>
<text text-anchor="start" x="119" y="-133" font-family="Helvetica,sans-Serif" font-size="10.00" fill="#000000">Logger::receiveAdaptation</text>
<text text-anchor="middle" x="176" y="-122" font-family="Helvetica,sans-Serif" font-size="10.00" fill="#000000">Command</text>
</a>
</g>
</g>
<!-- Node1&#45;&gt;Node2 -->
<g id="edge1" class="edge">
<title>Node1&#45;&gt;Node2</title>
<path fill="none" stroke="#191970" d="M53.1959,-76.5185C67.7029,-84.6023 89.406,-96.251 109,-105 113.6976,-107.0975 118.6298,-109.1711 123.5977,-111.1734"/>
<polygon fill="#191970" stroke="#191970" points="122.5555,-114.5243 133.1428,-114.9237 125.1154,-108.0091 122.5555,-114.5243"/>
</g>
<!-- Node3 -->
<g id="node3" class="node">
<title>Node3</title>
<g id="a_node3"><a xlink:href="classLogger.html#ac5d3c71ae88d6e66f1a0f082a621f045" target="_top" xlink:title=" ">
<polygon fill="#ffffff" stroke="#000000" points="121.5,-76.5 121.5,-95.5 230.5,-95.5 230.5,-76.5 121.5,-76.5"/>
<text text-anchor="middle" x="176" y="-83.5" font-family="Helvetica,sans-Serif" font-size="10.00" fill="#000000">Logger::receiveEvent</text>
</a>
</g>
</g>
<!-- Node1&#45;&gt;Node3 -->
<g id="edge2" class="edge">
<title>Node1&#45;&gt;Node3</title>
<path fill="none" stroke="#191970" d="M73.152,-71.992C84.924,-73.5954 98.3335,-75.4218 111.4928,-77.2141"/>
<polygon fill="#191970" stroke="#191970" points="111.0948,-80.6921 121.4757,-78.5737 112.0395,-73.7561 111.0948,-80.6921"/>
</g>
<!-- Node4 -->
<g id="node4" class="node">
<title>Node4</title>
<g id="a_node4"><a xlink:href="classLogger.html#ae9034d8bf4e3fef539c6eca091cd8c43" target="_top" xlink:title=" ">
<polygon fill="#ffffff" stroke="#000000" points="120,-38.5 120,-57.5 232,-57.5 232,-38.5 120,-38.5"/>
<text text-anchor="middle" x="176" y="-45.5" font-family="Helvetica,sans-Serif" font-size="10.00" fill="#000000">Logger::receiveStatus</text>
</a>
</g>
</g>
<!-- Node1&#45;&gt;Node4 -->
<g id="edge3" class="edge">
<title>Node1&#45;&gt;Node4</title>
<path fill="none" stroke="#191970" d="M73.152,-62.008C84.4264,-60.4724 97.2028,-58.7322 109.8229,-57.0134"/>
<polygon fill="#191970" stroke="#191970" points="110.4426,-60.4614 119.8787,-55.6438 109.4978,-53.5254 110.4426,-60.4614"/>
</g>
<!-- Node5 -->
<g id="node5" class="node">
<title>Node5</title>
<g id="a_node5"><a xlink:href="classLogger.html#a5e58080a4857c3ceba7cac7c14e96585" target="_top" xlink:title=" ">
<polygon fill="#ffffff" stroke="#000000" points="109,-.5 109,-19.5 243,-19.5 243,-.5 109,-.5"/>
<text text-anchor="middle" x="176" y="-7.5" font-family="Helvetica,sans-Serif" font-size="10.00" fill="#000000">Logger::receiveUncertainty</text>
</a>
</g>
</g>
<!-- Node1&#45;&gt;Node5 -->
<g id="edge4" class="edge">
<title>Node1&#45;&gt;Node5</title>
<path fill="none" stroke="#191970" d="M52.4572,-57.4078C66.8526,-49.0557 88.8046,-37.0557 109,-29 114.8958,-26.6482 121.1913,-24.4619 127.4745,-22.4722"/>
<polygon fill="#191970" stroke="#191970" points="128.7174,-25.753 137.2787,-19.5117 126.6939,-19.0519 128.7174,-25.753"/>
</g>
</g>
</svg>
