<?xml version="1.0" encoding="UTF-8" standalone="no"?>
<!DOCTYPE svg PUBLIC "-//W3C//DTD SVG 1.1//EN"
 "http://www.w3.org/Graphics/SVG/1.1/DTD/svg11.dtd">
<!-- Generated by graphviz version 2.40.1 (20161225.0304)
 -->
<!-- Title: RangeTest::SetUp Pages: 1 -->
<svg width="245pt" height="88pt"
 viewBox="0.00 0.00 245.00 88.00" xmlns="http://www.w3.org/2000/svg" xmlns:xlink="http://www.w3.org/1999/xlink">
<g id="graph0" class="graph" transform="scale(1 1) rotate(0) translate(4 84)">
<title>RangeTest::SetUp</title>
<polygon fill="#ffffff" stroke="transparent" points="-4,4 -4,-84 241,-84 241,4 -4,4"/>
<!-- Node1 -->
<g id="node1" class="node">
<title>Node1</title>
<g id="a_node1"><a xlink:title=" ">
<polygon fill="#bfbfbf" stroke="#000000" points="0,-30 0,-49 98,-49 98,-30 0,-30"/>
<text text-anchor="middle" x="49" y="-37" font-family="Helvetica,sans-Serif" font-size="10.00" fill="#000000">RangeTest::SetUp</text>
</a>
</g>
</g>
<!-- Node2 -->
<g id="node2" class="node">
<title>Node2</title>
<g id="a_node2"><a xlink:href="classbsn_1_1range_1_1Range.html#a8eda775bde2030785c9d495039f4b0f0" target="_top" xlink:title=" ">
<polygon fill="#ffffff" stroke="#000000" points="134,-49.5 134,-79.5 237,-79.5 237,-49.5 134,-49.5"/>
<text text-anchor="start" x="142" y="-67.5" font-family="Helvetica,sans-Serif" font-size="10.00" fill="#000000">bsn::range::Range::</text>
<text text-anchor="middle" x="185.5" y="-56.5" font-family="Helvetica,sans-Serif" font-size="10.00" fill="#000000">setLowerBound</text>
</a>
</g>
</g>
<!-- Node1&#45;&gt;Node2 -->
<g id="edge1" class="edge">
<title>Node1&#45;&gt;Node2</title>
<path fill="none" stroke="#191970" d="M98.2796,-48.5256C106.6225,-50.0536 115.3762,-51.6568 123.9855,-53.2336"/>
<polygon fill="#191970" stroke="#191970" points="123.5255,-56.7075 133.9925,-55.0664 124.7867,-49.822 123.5255,-56.7075"/>
</g>
<!-- Node3 -->
<g id="node3" class="node">
<title>Node3</title>
<g id="a_node3"><a xlink:href="classbsn_1_1range_1_1Range.html#a1a39ab11d284a377b8015cac09bfd763" target="_top" xlink:title=" ">
<polygon fill="#ffffff" stroke="#000000" points="134,-.5 134,-30.5 237,-30.5 237,-.5 134,-.5"/>
<text text-anchor="start" x="142" y="-18.5" font-family="Helvetica,sans-Serif" font-size="10.00" fill="#000000">bsn::range::Range::</text>
<text text-anchor="middle" x="185.5" y="-7.5" font-family="Helvetica,sans-Serif" font-size="10.00" fill="#000000">setUpperBound</text>
</a>
</g>
</g>
<!-- Node1&#45;&gt;Node3 -->
<g id="edge2" class="edge">
<title>Node1&#45;&gt;Node3</title>
<path fill="none" stroke="#191970" d="M98.2796,-30.8354C106.6225,-29.3686 115.3762,-27.8295 123.9855,-26.3157"/>
<polygon fill="#191970" stroke="#191970" points="124.7497,-29.7352 133.9925,-24.5563 123.5374,-22.8409 124.7497,-29.7352"/>
</g>
</g>
</svg>
