<?xml version="1.0" encoding="UTF-8" standalone="no"?>
<!DOCTYPE svg PUBLIC "-//W3C//DTD SVG 1.1//EN"
 "http://www.w3.org/Graphics/SVG/1.1/DTD/svg11.dtd">
<!-- Generated by graphviz version 2.40.1 (20161225.0304)
 -->
<!-- Title: ConfigurationTest::SetUp Pages: 1 -->
<svg width="255pt" height="510pt"
 viewBox="0.00 0.00 255.00 509.50" xmlns="http://www.w3.org/2000/svg" xmlns:xlink="http://www.w3.org/1999/xlink">
<g id="graph0" class="graph" transform="scale(1 1) rotate(0) translate(4 505.5)">
<title>ConfigurationTest::SetUp</title>
<polygon fill="#ffffff" stroke="transparent" points="-4,4 -4,-505.5 251,-505.5 251,4 -4,4"/>
<!-- Node1 -->
<g id="node1" class="node">
<title>Node1</title>
<g id="a_node1"><a xlink:title=" ">
<polygon fill="#bfbfbf" stroke="#000000" points="0,-235.5 0,-265.5 100,-265.5 100,-235.5 0,-235.5"/>
<text text-anchor="start" x="8" y="-253.5" font-family="Helvetica,sans-Serif" font-size="10.00" fill="#000000">ConfigurationTest::</text>
<text text-anchor="middle" x="50" y="-242.5" font-family="Helvetica,sans-Serif" font-size="10.00" fill="#000000">SetUp</text>
</a>
</g>
</g>
<!-- Node2 -->
<g id="node2" class="node">
<title>Node2</title>
<g id="a_node2"><a xlink:href="classbsn_1_1configuration_1_1SensorConfiguration.html#ad877e9ac2d6a98476ef8ac47f7414390" target="_top" xlink:title=" ">
<polygon fill="#ffffff" stroke="#000000" points="136,-460 136,-501 247,-501 247,-460 136,-460"/>
<text text-anchor="start" x="144" y="-489" font-family="Helvetica,sans-Serif" font-size="10.00" fill="#000000">bsn::configuration</text>
<text text-anchor="start" x="144" y="-478" font-family="Helvetica,sans-Serif" font-size="10.00" fill="#000000">::SensorConfiguration</text>
<text text-anchor="middle" x="191.5" y="-467" font-family="Helvetica,sans-Serif" font-size="10.00" fill="#000000">::setHighPercentage</text>
</a>
</g>
</g>
<!-- Node1&#45;&gt;Node2 -->
<g id="edge1" class="edge">
<title>Node1&#45;&gt;Node2</title>
<path fill="none" stroke="#191970" d="M52.9313,-265.6528C60.6028,-301.7496 84.3539,-394.0142 136,-450.5 136.8938,-451.4776 137.8271,-452.4298 138.794,-453.3568"/>
<polygon fill="#191970" stroke="#191970" points="136.8404,-456.2836 146.7719,-459.9737 141.3092,-450.8957 136.8404,-456.2836"/>
</g>
<!-- Node3 -->
<g id="node3" class="node">
<title>Node3</title>
<g id="a_node3"><a xlink:href="classbsn_1_1configuration_1_1SensorConfiguration.html#a90b348d540e0ecadc78eee3535506b9c" target="_top" xlink:title=" ">
<polygon fill="#ffffff" stroke="#000000" points="136,-400 136,-441 247,-441 247,-400 136,-400"/>
<text text-anchor="start" x="144" y="-429" font-family="Helvetica,sans-Serif" font-size="10.00" fill="#000000">bsn::configuration</text>
<text text-anchor="start" x="144" y="-418" font-family="Helvetica,sans-Serif" font-size="10.00" fill="#000000">::SensorConfiguration</text>
<text text-anchor="middle" x="191.5" y="-407" font-family="Helvetica,sans-Serif" font-size="10.00" fill="#000000">::setHighRisk</text>
</a>
</g>
</g>
<!-- Node1&#45;&gt;Node3 -->
<g id="edge2" class="edge">
<title>Node1&#45;&gt;Node3</title>
<path fill="none" stroke="#191970" d="M56.1632,-265.7513C68.0305,-293.553 96.4243,-353.0547 136,-390.5 137.1188,-391.5586 138.2822,-392.5914 139.4819,-393.5981"/>
<polygon fill="#191970" stroke="#191970" points="137.7367,-396.664 147.8384,-399.8588 141.9339,-391.0618 137.7367,-396.664"/>
</g>
<!-- Node4 -->
<g id="node4" class="node">
<title>Node4</title>
<g id="a_node4"><a xlink:href="classbsn_1_1configuration_1_1SensorConfiguration.html#ae89e7fd872467dba154397389e432a5a" target="_top" xlink:title=" ">
<polygon fill="#ffffff" stroke="#000000" points="136,-340 136,-381 247,-381 247,-340 136,-340"/>
<text text-anchor="start" x="144" y="-369" font-family="Helvetica,sans-Serif" font-size="10.00" fill="#000000">bsn::configuration</text>
<text text-anchor="start" x="144" y="-358" font-family="Helvetica,sans-Serif" font-size="10.00" fill="#000000">::SensorConfiguration</text>
<text text-anchor="middle" x="191.5" y="-347" font-family="Helvetica,sans-Serif" font-size="10.00" fill="#000000">::setId</text>
</a>
</g>
</g>
<!-- Node1&#45;&gt;Node4 -->
<g id="edge3" class="edge">
<title>Node1&#45;&gt;Node4</title>
<path fill="none" stroke="#191970" d="M63.9235,-265.5857C80.1645,-282.6515 108.3318,-310.6466 136,-330.5 137.8438,-331.823 139.7526,-333.1284 141.704,-334.4103"/>
<polygon fill="#191970" stroke="#191970" points="140.1223,-337.5484 150.4614,-339.8625 143.822,-331.606 140.1223,-337.5484"/>
</g>
<!-- Node5 -->
<g id="node5" class="node">
<title>Node5</title>
<g id="a_node5"><a xlink:href="classbsn_1_1range_1_1Range.html#a8eda775bde2030785c9d495039f4b0f0" target="_top" xlink:title=" ">
<polygon fill="#ffffff" stroke="#000000" points="140,-290.5 140,-320.5 243,-320.5 243,-290.5 140,-290.5"/>
<text text-anchor="start" x="148" y="-308.5" font-family="Helvetica,sans-Serif" font-size="10.00" fill="#000000">bsn::range::Range::</text>
<text text-anchor="middle" x="191.5" y="-297.5" font-family="Helvetica,sans-Serif" font-size="10.00" fill="#000000">setLowerBound</text>
</a>
</g>
</g>
<!-- Node1&#45;&gt;Node5 -->
<g id="edge4" class="edge">
<title>Node1&#45;&gt;Node5</title>
<path fill="none" stroke="#191970" d="M88.6655,-265.529C105.5117,-272.077 125.4369,-279.8218 143.2412,-286.7422"/>
<polygon fill="#191970" stroke="#191970" points="142.2926,-290.1285 152.8813,-290.4892 144.8286,-283.604 142.2926,-290.1285"/>
</g>
<!-- Node6 -->
<g id="node6" class="node">
<title>Node6</title>
<g id="a_node6"><a xlink:href="classbsn_1_1configuration_1_1SensorConfiguration.html#a234427e4eafc20d2c17449b083735d9a" target="_top" xlink:title=" ">
<polygon fill="#ffffff" stroke="#000000" points="136,-230 136,-271 247,-271 247,-230 136,-230"/>
<text text-anchor="start" x="144" y="-259" font-family="Helvetica,sans-Serif" font-size="10.00" fill="#000000">bsn::configuration</text>
<text text-anchor="start" x="144" y="-248" font-family="Helvetica,sans-Serif" font-size="10.00" fill="#000000">::SensorConfiguration</text>
<text text-anchor="middle" x="191.5" y="-237" font-family="Helvetica,sans-Serif" font-size="10.00" fill="#000000">::setLowPercentage</text>
</a>
</g>
</g>
<!-- Node1&#45;&gt;Node6 -->
<g id="edge5" class="edge">
<title>Node1&#45;&gt;Node6</title>
<path fill="none" stroke="#191970" d="M100.286,-250.5C108.4183,-250.5 116.9452,-250.5 125.3838,-250.5"/>
<polygon fill="#191970" stroke="#191970" points="125.6009,-254.0001 135.6008,-250.5 125.6008,-247.0001 125.6009,-254.0001"/>
</g>
<!-- Node7 -->
<g id="node7" class="node">
<title>Node7</title>
<g id="a_node7"><a xlink:href="classbsn_1_1configuration_1_1SensorConfiguration.html#a62b42b1f5f7fecb9f4c198f1f8c2880c" target="_top" xlink:title=" ">
<polygon fill="#ffffff" stroke="#000000" points="136,-170 136,-211 247,-211 247,-170 136,-170"/>
<text text-anchor="start" x="144" y="-199" font-family="Helvetica,sans-Serif" font-size="10.00" fill="#000000">bsn::configuration</text>
<text text-anchor="start" x="144" y="-188" font-family="Helvetica,sans-Serif" font-size="10.00" fill="#000000">::SensorConfiguration</text>
<text text-anchor="middle" x="191.5" y="-177" font-family="Helvetica,sans-Serif" font-size="10.00" fill="#000000">::setLowRisk</text>
</a>
</g>
</g>
<!-- Node1&#45;&gt;Node7 -->
<g id="edge6" class="edge">
<title>Node1&#45;&gt;Node7</title>
<path fill="none" stroke="#191970" d="M85.7064,-235.3595C100.2156,-229.2072 117.3554,-221.9394 133.5664,-215.0655"/>
<polygon fill="#191970" stroke="#191970" points="135.1368,-218.2013 142.977,-211.0751 132.4041,-211.7567 135.1368,-218.2013"/>
</g>
<!-- Node8 -->
<g id="node8" class="node">
<title>Node8</title>
<g id="a_node8"><a xlink:href="classbsn_1_1configuration_1_1SensorConfiguration.html#a3d67705908e159fe7e22fe8da3c6459d" target="_top" xlink:title=" ">
<polygon fill="#ffffff" stroke="#000000" points="136,-110 136,-151 247,-151 247,-110 136,-110"/>
<text text-anchor="start" x="144" y="-139" font-family="Helvetica,sans-Serif" font-size="10.00" fill="#000000">bsn::configuration</text>
<text text-anchor="start" x="144" y="-128" font-family="Helvetica,sans-Serif" font-size="10.00" fill="#000000">::SensorConfiguration</text>
<text text-anchor="middle" x="191.5" y="-117" font-family="Helvetica,sans-Serif" font-size="10.00" fill="#000000">::setMediumRisk</text>
</a>
</g>
</g>
<!-- Node1&#45;&gt;Node8 -->
<g id="edge7" class="edge">
<title>Node1&#45;&gt;Node8</title>
<path fill="none" stroke="#191970" d="M61.8854,-235.4055C77.4523,-216.3087 106.2775,-183.1814 136,-160.5 137.7687,-159.1503 139.6061,-157.8259 141.4902,-156.5314"/>
<polygon fill="#191970" stroke="#191970" points="143.4713,-159.4186 149.9817,-151.06 139.6798,-153.5342 143.4713,-159.4186"/>
</g>
<!-- Node9 -->
<g id="node9" class="node">
<title>Node9</title>
<g id="a_node9"><a xlink:href="classbsn_1_1configuration_1_1SensorConfiguration.html#a00960001bdeb1905c03b8fb9c6cec556" target="_top" xlink:title=" ">
<polygon fill="#ffffff" stroke="#000000" points="136,-50 136,-91 247,-91 247,-50 136,-50"/>
<text text-anchor="start" x="144" y="-79" font-family="Helvetica,sans-Serif" font-size="10.00" fill="#000000">bsn::configuration</text>
<text text-anchor="start" x="144" y="-68" font-family="Helvetica,sans-Serif" font-size="10.00" fill="#000000">::SensorConfiguration</text>
<text text-anchor="middle" x="191.5" y="-57" font-family="Helvetica,sans-Serif" font-size="10.00" fill="#000000">::setMidPercentage</text>
</a>
</g>
</g>
<!-- Node1&#45;&gt;Node9 -->
<g id="edge8" class="edge">
<title>Node1&#45;&gt;Node9</title>
<path fill="none" stroke="#191970" d="M55.526,-235.0675C66.706,-205.6654 94.5243,-140.9504 136,-100.5 137.1027,-99.4246 138.2517,-98.3768 139.4386,-97.3568"/>
<polygon fill="#191970" stroke="#191970" points="141.9037,-99.8785 147.733,-91.0315 137.659,-94.3124 141.9037,-99.8785"/>
</g>
<!-- Node10 -->
<g id="node10" class="node">
<title>Node10</title>
<g id="a_node10"><a xlink:href="classbsn_1_1range_1_1Range.html#a1a39ab11d284a377b8015cac09bfd763" target="_top" xlink:title=" ">
<polygon fill="#ffffff" stroke="#000000" points="140,-.5 140,-30.5 243,-30.5 243,-.5 140,-.5"/>
<text text-anchor="start" x="148" y="-18.5" font-family="Helvetica,sans-Serif" font-size="10.00" fill="#000000">bsn::range::Range::</text>
<text text-anchor="middle" x="191.5" y="-7.5" font-family="Helvetica,sans-Serif" font-size="10.00" fill="#000000">setUpperBound</text>
</a>
</g>
</g>
<!-- Node1&#45;&gt;Node10 -->
<g id="edge9" class="edge">
<title>Node1&#45;&gt;Node10</title>
<path fill="none" stroke="#191970" d="M52.2447,-235.4583C58.599,-197.8203 80.0228,-98.4448 136,-40.5 137.3767,-39.0749 138.8495,-37.7244 140.3968,-36.4454"/>
<polygon fill="#191970" stroke="#191970" points="142.495,-39.2486 148.656,-30.6293 138.4647,-33.5253 142.495,-39.2486"/>
</g>
</g>
</svg>
