<?xml version="1.0" encoding="UTF-8" standalone="no"?>
<!DOCTYPE svg PUBLIC "-//W3C//DTD SVG 1.1//EN"
 "http://www.w3.org/Graphics/SVG/1.1/DTD/svg11.dtd">
<!-- Generated by graphviz version 2.40.1 (20161225.0304)
 -->
<!-- Title: Engine::analyze Pages: 1 -->
<svg width="440pt" height="28pt"
 viewBox="0.00 0.00 440.00 28.00" xmlns="http://www.w3.org/2000/svg" xmlns:xlink="http://www.w3.org/1999/xlink">
<g id="graph0" class="graph" transform="scale(1 1) rotate(0) translate(4 24)">
<title>Engine::analyze</title>
<polygon fill="#ffffff" stroke="transparent" points="-4,4 -4,-24 436,-24 436,4 -4,4"/>
<!-- Node1 -->
<g id="node1" class="node">
<title>Node1</title>
<g id="a_node1"><a xlink:title=" ">
<polygon fill="#bfbfbf" stroke="#000000" points="0,-.5 0,-19.5 86,-19.5 86,-.5 0,-.5"/>
<text text-anchor="middle" x="43" y="-7.5" font-family="Helvetica,sans-Serif" font-size="10.00" fill="#000000">Engine::analyze</text>
</a>
</g>
</g>
<!-- Node2 -->
<g id="node2" class="node">
<title>Node2</title>
<g id="a_node2"><a xlink:href="classEngine.html#ada990715b8c10f1ad972892efa58d106" target="_top" xlink:title=" ">
<polygon fill="#ffffff" stroke="#000000" points="122,-.5 122,-19.5 193,-19.5 193,-.5 122,-.5"/>
<text text-anchor="middle" x="157.5" y="-7.5" font-family="Helvetica,sans-Serif" font-size="10.00" fill="#000000">Engine::plan</text>
</a>
</g>
</g>
<!-- Node1&#45;&gt;Node2 -->
<g id="edge1" class="edge">
<title>Node1&#45;&gt;Node2</title>
<path fill="none" stroke="#191970" d="M86.2875,-10C94.6618,-10 103.4605,-10 111.9059,-10"/>
<polygon fill="#191970" stroke="#191970" points="111.9799,-13.5001 121.9798,-10 111.9798,-6.5001 111.9799,-13.5001"/>
</g>
<!-- Node3 -->
<g id="node3" class="node">
<title>Node3</title>
<g id="a_node3"><a xlink:href="classEngine.html#a1ec215a11a8703c09f61e57e23ea41e8" target="_top" xlink:title=" ">
<polygon fill="#ffffff" stroke="#000000" points="229,-.5 229,-19.5 316,-19.5 316,-.5 229,-.5"/>
<text text-anchor="middle" x="272.5" y="-7.5" font-family="Helvetica,sans-Serif" font-size="10.00" fill="#000000">Engine::execute</text>
</a>
</g>
</g>
<!-- Node2&#45;&gt;Node3 -->
<g id="edge2" class="edge">
<title>Node2&#45;&gt;Node3</title>
<path fill="none" stroke="#191970" d="M193.2563,-10C201.3127,-10 210.037,-10 218.6515,-10"/>
<polygon fill="#191970" stroke="#191970" points="218.6672,-13.5001 228.6672,-10 218.6671,-6.5001 218.6672,-13.5001"/>
</g>
<!-- Node4 -->
<g id="node4" class="node">
<title>Node4</title>
<g id="a_node4"><a xlink:href="namespacebsn_1_1utils.html#a4ab7be3d27380abe032f4ceec86b09b2" target="_top" xlink:title=" ">
<polygon fill="#ffffff" stroke="#000000" points="352,-.5 352,-19.5 432,-19.5 432,-.5 352,-.5"/>
<text text-anchor="middle" x="392" y="-7.5" font-family="Helvetica,sans-Serif" font-size="10.00" fill="#000000">bsn::utils::split</text>
</a>
</g>
</g>
<!-- Node3&#45;&gt;Node4 -->
<g id="edge3" class="edge">
<title>Node3&#45;&gt;Node4</title>
<path fill="none" stroke="#191970" d="M316.3188,-10C324.5589,-10 333.2351,-10 341.6556,-10"/>
<polygon fill="#191970" stroke="#191970" points="341.7536,-13.5001 351.7536,-10 341.7535,-6.5001 341.7536,-13.5001"/>
</g>
</g>
</svg>
