<?xml version="1.0" encoding="UTF-8" standalone="no"?>
<!DOCTYPE svg PUBLIC "-//W3C//DTD SVG 1.1//EN"
 "http://www.w3.org/Graphics/SVG/1.1/DTD/svg11.dtd">
<!-- Generated by graphviz version 2.40.1 (20161225.0304)
 -->
<!-- Title: CentralHub::setUp Pages: 1 -->
<svg width="302pt" height="28pt"
 viewBox="0.00 0.00 302.00 28.00" xmlns="http://www.w3.org/2000/svg" xmlns:xlink="http://www.w3.org/1999/xlink">
<g id="graph0" class="graph" transform="scale(1 1) rotate(0) translate(4 24)">
<title>CentralHub::setUp</title>
<polygon fill="#ffffff" stroke="transparent" points="-4,4 -4,-24 298,-24 298,4 -4,4"/>
<!-- Node1 -->
<g id="node1" class="node">
<title>Node1</title>
<g id="a_node1"><a xlink:title=" ">
<polygon fill="#bfbfbf" stroke="#000000" points="196,-.5 196,-19.5 294,-19.5 294,-.5 196,-.5"/>
<text text-anchor="middle" x="245" y="-7.5" font-family="Helvetica,sans-Serif" font-size="10.00" fill="#000000">CentralHub::setUp</text>
</a>
</g>
</g>
<!-- Node2 -->
<g id="node2" class="node">
<title>Node2</title>
<g id="a_node2"><a xlink:href="classCentralHub.html#a388e947318a28cf7cac762ac8b1cf3d4" target="_top" xlink:title=" ">
<polygon fill="#ffffff" stroke="#000000" points="74,-.5 74,-19.5 160,-19.5 160,-.5 74,-.5"/>
<text text-anchor="middle" x="117" y="-7.5" font-family="Helvetica,sans-Serif" font-size="10.00" fill="#000000">CentralHub::run</text>
</a>
</g>
</g>
<!-- Node1&#45;&gt;Node2 -->
<g id="edge1" class="edge">
<title>Node1&#45;&gt;Node2</title>
<path fill="none" stroke="#191970" d="M185.8741,-10C177.2742,-10 168.5562,-10 160.3461,-10"/>
<polygon fill="#191970" stroke="#191970" points="185.878,-13.5001 195.8779,-10 185.8779,-6.5001 185.878,-13.5001"/>
</g>
<!-- Node3 -->
<g id="node3" class="node">
<title>Node3</title>
<g id="a_node3"><a xlink:href="g4t1_8cpp.html#af19ddca125f05a2090dd132045573ee4" target="_top" xlink:title=" ">
<polygon fill="#ffffff" stroke="#000000" points="0,-.5 0,-19.5 38,-19.5 38,-.5 0,-.5"/>
<text text-anchor="middle" x="19" y="-7.5" font-family="Helvetica,sans-Serif" font-size="10.00" fill="#000000">main</text>
</a>
</g>
</g>
<!-- Node2&#45;&gt;Node3 -->
<g id="edge2" class="edge">
<title>Node2&#45;&gt;Node3</title>
<path fill="none" stroke="#191970" d="M63.716,-10C54.5032,-10 45.494,-10 38.0043,-10"/>
<polygon fill="#191970" stroke="#191970" points="63.7305,-13.5001 73.7305,-10 63.7305,-6.5001 63.7305,-13.5001"/>
</g>
</g>
</svg>
