<?xml version="1.0" encoding="UTF-8" standalone="no"?>
<!DOCTYPE svg PUBLIC "-//W3C//DTD SVG 1.1//EN"
 "http://www.w3.org/Graphics/SVG/1.1/DTD/svg11.dtd">
<!-- Generated by graphviz version 2.40.1 (20161225.0304)
 -->
<!-- Title: bsn::configuration::SensorConfiguration::getDisplacement Pages: 1 -->
<svg width="258pt" height="88pt"
 viewBox="0.00 0.00 258.00 88.00" xmlns="http://www.w3.org/2000/svg" xmlns:xlink="http://www.w3.org/1999/xlink">
<g id="graph0" class="graph" transform="scale(1 1) rotate(0) translate(4 84)">
<title>bsn::configuration::SensorConfiguration::getDisplacement</title>
<polygon fill="#ffffff" stroke="transparent" points="-4,4 -4,-84 254,-84 254,4 -4,4"/>
<!-- Node1 -->
<g id="node1" class="node">
<title>Node1</title>
<g id="a_node1"><a xlink:title=" ">
<polygon fill="#bfbfbf" stroke="#000000" points="0,-19 0,-60 111,-60 111,-19 0,-19"/>
<text text-anchor="start" x="8" y="-48" font-family="Helvetica,sans-Serif" font-size="10.00" fill="#000000">bsn::configuration</text>
<text text-anchor="start" x="8" y="-37" font-family="Helvetica,sans-Serif" font-size="10.00" fill="#000000">::SensorConfiguration</text>
<text text-anchor="middle" x="55.5" y="-26" font-family="Helvetica,sans-Serif" font-size="10.00" fill="#000000">::getDisplacement</text>
</a>
</g>
</g>
<!-- Node2 -->
<g id="node2" class="node">
<title>Node2</title>
<g id="a_node2"><a xlink:href="classbsn_1_1range_1_1Range.html#a0785d0aa7d5463bcdd3842089069a2e7" target="_top" xlink:title=" ">
<polygon fill="#ffffff" stroke="#000000" points="147,-49.5 147,-79.5 250,-79.5 250,-49.5 147,-49.5"/>
<text text-anchor="start" x="155" y="-67.5" font-family="Helvetica,sans-Serif" font-size="10.00" fill="#000000">bsn::range::Range::</text>
<text text-anchor="middle" x="198.5" y="-56.5" font-family="Helvetica,sans-Serif" font-size="10.00" fill="#000000">getLowerBound</text>
</a>
</g>
</g>
<!-- Node1&#45;&gt;Node2 -->
<g id="edge1" class="edge">
<title>Node1&#45;&gt;Node2</title>
<path fill="none" stroke="#191970" d="M111.197,-49.2372C119.6519,-50.7154 128.4171,-52.2477 136.987,-53.746"/>
<polygon fill="#191970" stroke="#191970" points="136.474,-57.2093 146.9274,-55.4838 137.6796,-50.3139 136.474,-57.2093"/>
</g>
<!-- Node3 -->
<g id="node3" class="node">
<title>Node3</title>
<g id="a_node3"><a xlink:href="classbsn_1_1range_1_1Range.html#a540c2181ec15a65b189a7fb89659f388" target="_top" xlink:title=" ">
<polygon fill="#ffffff" stroke="#000000" points="147,-.5 147,-30.5 250,-30.5 250,-.5 147,-.5"/>
<text text-anchor="start" x="155" y="-18.5" font-family="Helvetica,sans-Serif" font-size="10.00" fill="#000000">bsn::range::Range::</text>
<text text-anchor="middle" x="198.5" y="-7.5" font-family="Helvetica,sans-Serif" font-size="10.00" fill="#000000">getUpperBound</text>
</a>
</g>
</g>
<!-- Node1&#45;&gt;Node3 -->
<g id="edge2" class="edge">
<title>Node1&#45;&gt;Node3</title>
<path fill="none" stroke="#191970" d="M111.197,-30.1523C119.6519,-28.7333 128.4171,-27.2622 136.987,-25.8239"/>
<polygon fill="#191970" stroke="#191970" points="137.6447,-29.2625 146.9274,-24.1555 136.486,-22.3591 137.6447,-29.2625"/>
</g>
</g>
</svg>
