<?xml version="1.0" encoding="UTF-8" standalone="no"?>
<!DOCTYPE svg PUBLIC "-//W3C//DTD SVG 1.1//EN"
 "http://www.w3.org/Graphics/SVG/1.1/DTD/svg11.dtd">
<!-- Generated by graphviz version 2.40.1 (20161225.0304)
 -->
<!-- Title: bsn::goalmodel::LeafTask::operator= Pages: 1 -->
<svg width="302pt" height="284pt"
 viewBox="0.00 0.00 302.00 284.00" xmlns="http://www.w3.org/2000/svg" xmlns:xlink="http://www.w3.org/1999/xlink">
<g id="graph0" class="graph" transform="scale(1 1) rotate(0) translate(4 280)">
<title>bsn::goalmodel::LeafTask::operator=</title>
<polygon fill="#ffffff" stroke="transparent" points="-4,4 -4,-280 298,-280 298,4 -4,4"/>
<!-- Node1 -->
<g id="node1" class="node">
<title>Node1</title>
<g id="a_node1"><a xlink:title=" ">
<polygon fill="#bfbfbf" stroke="#000000" points="0,-122.5 0,-152.5 129,-152.5 129,-122.5 0,-122.5"/>
<text text-anchor="start" x="8" y="-140.5" font-family="Helvetica,sans-Serif" font-size="10.00" fill="#000000">bsn::goalmodel::LeafTask</text>
<text text-anchor="middle" x="64.5" y="-129.5" font-family="Helvetica,sans-Serif" font-size="10.00" fill="#000000">::operator=</text>
</a>
</g>
</g>
<!-- Node2 -->
<g id="node2" class="node">
<title>Node2</title>
<g id="a_node2"><a xlink:href="classbsn_1_1goalmodel_1_1LeafTask.html#a05a6edfe1d551224522d1864fbac4155" target="_top" xlink:title=" ">
<polygon fill="#ffffff" stroke="#000000" points="165,-245.5 165,-275.5 294,-275.5 294,-245.5 165,-245.5"/>
<text text-anchor="start" x="173" y="-263.5" font-family="Helvetica,sans-Serif" font-size="10.00" fill="#000000">bsn::goalmodel::LeafTask</text>
<text text-anchor="middle" x="229.5" y="-252.5" font-family="Helvetica,sans-Serif" font-size="10.00" fill="#000000">::getContext</text>
</a>
</g>
</g>
<!-- Node1&#45;&gt;Node2 -->
<g id="edge1" class="edge">
<title>Node1&#45;&gt;Node2</title>
<path fill="none" stroke="#191970" d="M76.2707,-152.5903C93.6199,-173.9323 128.0214,-212.9515 165,-236.5 167.4565,-238.0643 170.03,-239.5484 172.6759,-240.9532"/>
<polygon fill="#191970" stroke="#191970" points="171.3617,-244.2058 181.8861,-245.426 174.4197,-237.9091 171.3617,-244.2058"/>
</g>
<!-- Node3 -->
<g id="node3" class="node">
<title>Node3</title>
<g id="a_node3"><a xlink:href="classbsn_1_1goalmodel_1_1LeafTask.html#a165ec6f4b6bb2edc66201376fec30e12" target="_top" xlink:title=" ">
<polygon fill="#ffffff" stroke="#000000" points="165,-196.5 165,-226.5 294,-226.5 294,-196.5 165,-196.5"/>
<text text-anchor="start" x="173" y="-214.5" font-family="Helvetica,sans-Serif" font-size="10.00" fill="#000000">bsn::goalmodel::LeafTask</text>
<text text-anchor="middle" x="229.5" y="-203.5" font-family="Helvetica,sans-Serif" font-size="10.00" fill="#000000">::getCost</text>
</a>
</g>
</g>
<!-- Node1&#45;&gt;Node3 -->
<g id="edge2" class="edge">
<title>Node1&#45;&gt;Node3</title>
<path fill="none" stroke="#191970" d="M92.7136,-152.5357C112.6523,-162.9136 140.1453,-176.7287 165,-187.5 169.0562,-189.2578 173.2873,-191.0089 177.558,-192.7184"/>
<polygon fill="#191970" stroke="#191970" points="176.3301,-195.9963 186.918,-196.381 178.8809,-189.4776 176.3301,-195.9963"/>
</g>
<!-- Node4 -->
<g id="node4" class="node">
<title>Node4</title>
<g id="a_node4"><a xlink:href="classbsn_1_1goalmodel_1_1Node.html#a6e9b650e57a8951f241d88267a4521e7" target="_top" xlink:title=" ">
<polygon fill="#ffffff" stroke="#000000" points="173.5,-147.5 173.5,-177.5 285.5,-177.5 285.5,-147.5 173.5,-147.5"/>
<text text-anchor="start" x="181.5" y="-165.5" font-family="Helvetica,sans-Serif" font-size="10.00" fill="#000000">bsn::goalmodel::Node</text>
<text text-anchor="middle" x="229.5" y="-154.5" font-family="Helvetica,sans-Serif" font-size="10.00" fill="#000000">::getDescription</text>
</a>
</g>
</g>
<!-- Node1&#45;&gt;Node4 -->
<g id="edge3" class="edge">
<title>Node1&#45;&gt;Node4</title>
<path fill="none" stroke="#191970" d="M129.2388,-147.3089C140.3678,-148.9951 151.9494,-150.7499 163.1207,-152.4425"/>
<polygon fill="#191970" stroke="#191970" points="162.8285,-155.9381 173.24,-153.9758 163.8772,-149.0171 162.8285,-155.9381"/>
</g>
<!-- Node5 -->
<g id="node5" class="node">
<title>Node5</title>
<g id="a_node5"><a xlink:href="classbsn_1_1goalmodel_1_1LeafTask.html#a7449c8d90f8210827cd3ebade39ab3da" target="_top" xlink:title=" ">
<polygon fill="#ffffff" stroke="#000000" points="165,-98.5 165,-128.5 294,-128.5 294,-98.5 165,-98.5"/>
<text text-anchor="start" x="173" y="-116.5" font-family="Helvetica,sans-Serif" font-size="10.00" fill="#000000">bsn::goalmodel::LeafTask</text>
<text text-anchor="middle" x="229.5" y="-105.5" font-family="Helvetica,sans-Serif" font-size="10.00" fill="#000000">::getFrequency</text>
</a>
</g>
</g>
<!-- Node1&#45;&gt;Node5 -->
<g id="edge4" class="edge">
<title>Node1&#45;&gt;Node5</title>
<path fill="none" stroke="#191970" d="M129.2388,-128.0834C137.6748,-126.8564 146.3708,-125.5915 154.9511,-124.3435"/>
<polygon fill="#191970" stroke="#191970" points="155.5558,-127.7924 164.9479,-122.8894 154.5482,-120.8653 155.5558,-127.7924"/>
</g>
<!-- Node6 -->
<g id="node6" class="node">
<title>Node6</title>
<g id="a_node6"><a xlink:href="classbsn_1_1goalmodel_1_1Node.html#ae0ad7ddec09e54734821a25e84677553" target="_top" xlink:title=" ">
<polygon fill="#ffffff" stroke="#000000" points="173.5,-49.5 173.5,-79.5 285.5,-79.5 285.5,-49.5 173.5,-49.5"/>
<text text-anchor="start" x="181.5" y="-67.5" font-family="Helvetica,sans-Serif" font-size="10.00" fill="#000000">bsn::goalmodel::Node</text>
<text text-anchor="middle" x="229.5" y="-56.5" font-family="Helvetica,sans-Serif" font-size="10.00" fill="#000000">::getID</text>
</a>
</g>
</g>
<!-- Node1&#45;&gt;Node6 -->
<g id="edge5" class="edge">
<title>Node1&#45;&gt;Node6</title>
<path fill="none" stroke="#191970" d="M94.571,-122.403C114.3983,-112.6317 141.0359,-99.8493 165,-89.5 169.7702,-87.4399 174.7703,-85.3621 179.7864,-83.3313"/>
<polygon fill="#191970" stroke="#191970" points="181.4026,-86.455 189.3961,-79.5012 178.8109,-79.9525 181.4026,-86.455"/>
</g>
<!-- Node7 -->
<g id="node7" class="node">
<title>Node7</title>
<g id="a_node7"><a xlink:href="classbsn_1_1goalmodel_1_1LeafTask.html#ae57e36bae78eae6a0deff6f6087cab39" target="_top" xlink:title=" ">
<polygon fill="#ffffff" stroke="#000000" points="165,-.5 165,-30.5 294,-30.5 294,-.5 165,-.5"/>
<text text-anchor="start" x="173" y="-18.5" font-family="Helvetica,sans-Serif" font-size="10.00" fill="#000000">bsn::goalmodel::LeafTask</text>
<text text-anchor="middle" x="229.5" y="-7.5" font-family="Helvetica,sans-Serif" font-size="10.00" fill="#000000">::getReliability</text>
</a>
</g>
</g>
<!-- Node1&#45;&gt;Node7 -->
<g id="edge6" class="edge">
<title>Node1&#45;&gt;Node7</title>
<path fill="none" stroke="#191970" d="M76.6753,-122.4467C94.2498,-101.5611 128.6308,-63.7461 165,-40.5 167.9741,-38.5991 171.1154,-36.8051 174.3465,-35.1186"/>
<polygon fill="#191970" stroke="#191970" points="176.1337,-38.1426 183.625,-30.6505 173.0967,-31.8357 176.1337,-38.1426"/>
</g>
</g>
</svg>
