<?xml version="1.0" encoding="UTF-8" standalone="no"?>
<!DOCTYPE svg PUBLIC "-//W3C//DTD SVG 1.1//EN"
 "http://www.w3.org/Graphics/SVG/1.1/DTD/svg11.dtd">
<!-- Generated by graphviz version 2.40.1 (20161225.0304)
 -->
<!-- Title: bsn::goalmodel::LeafTask Pages: 1 -->
<svg width="339pt" height="850pt"
 viewBox="0.00 0.00 339.00 850.00" xmlns="http://www.w3.org/2000/svg" xmlns:xlink="http://www.w3.org/1999/xlink">
<g id="graph0" class="graph" transform="scale(1 1) rotate(0) translate(4 846)">
<title>bsn::goalmodel::LeafTask</title>
<polygon fill="#ffffff" stroke="transparent" points="-4,4 -4,-846 335,-846 335,4 -4,4"/>
<!-- Node1 -->
<g id="node1" class="node">
<title>Node1</title>
<g id="a_node1"><a xlink:title=" ">
<polygon fill="#bfbfbf" stroke="#000000" points="0,-.5 0,-211.5 129,-211.5 129,-.5 0,-.5"/>
<text text-anchor="middle" x="64.5" y="-199.5" font-family="Helvetica,sans-Serif" font-size="10.00" fill="#000000">bsn::goalmodel::LeafTask</text>
<polyline fill="none" stroke="#000000" points="0,-192.5 129,-192.5 "/>
<text text-anchor="middle" x="64.5" y="-180.5" font-family="Helvetica,sans-Serif" font-size="10.00" fill="#000000"> </text>
<polyline fill="none" stroke="#000000" points="0,-173.5 129,-173.5 "/>
<text text-anchor="start" x="8" y="-161.5" font-family="Helvetica,sans-Serif" font-size="10.00" fill="#000000">+ LeafTask()</text>
<text text-anchor="start" x="8" y="-150.5" font-family="Helvetica,sans-Serif" font-size="10.00" fill="#000000">+ LeafTask()</text>
<text text-anchor="start" x="8" y="-139.5" font-family="Helvetica,sans-Serif" font-size="10.00" fill="#000000">+ LeafTask()</text>
<text text-anchor="start" x="8" y="-128.5" font-family="Helvetica,sans-Serif" font-size="10.00" fill="#000000">+ ~LeafTask()</text>
<text text-anchor="start" x="8" y="-117.5" font-family="Helvetica,sans-Serif" font-size="10.00" fill="#000000">+ LeafTask()</text>
<text text-anchor="start" x="8" y="-106.5" font-family="Helvetica,sans-Serif" font-size="10.00" fill="#000000">+ operator=()</text>
<text text-anchor="start" x="8" y="-95.5" font-family="Helvetica,sans-Serif" font-size="10.00" fill="#000000">+ setContext()</text>
<text text-anchor="start" x="8" y="-84.5" font-family="Helvetica,sans-Serif" font-size="10.00" fill="#000000">+ getContext()</text>
<text text-anchor="start" x="8" y="-73.5" font-family="Helvetica,sans-Serif" font-size="10.00" fill="#000000">+ setCost()</text>
<text text-anchor="start" x="8" y="-62.5" font-family="Helvetica,sans-Serif" font-size="10.00" fill="#000000">+ getCost()</text>
<text text-anchor="start" x="8" y="-51.5" font-family="Helvetica,sans-Serif" font-size="10.00" fill="#000000">+ setReliability()</text>
<text text-anchor="start" x="8" y="-40.5" font-family="Helvetica,sans-Serif" font-size="10.00" fill="#000000">+ getReliability()</text>
<text text-anchor="start" x="8" y="-29.5" font-family="Helvetica,sans-Serif" font-size="10.00" fill="#000000">+ setFrequency()</text>
<text text-anchor="start" x="8" y="-18.5" font-family="Helvetica,sans-Serif" font-size="10.00" fill="#000000">+ getFrequency()</text>
<text text-anchor="start" x="8" y="-7.5" font-family="Helvetica,sans-Serif" font-size="10.00" fill="#000000">+ addChild()</text>
</a>
</g>
</g>
<!-- Node2 -->
<g id="node2" class="node">
<title>Node2</title>
<g id="a_node2"><a xlink:href="classbsn_1_1goalmodel_1_1Task.html" target="_top" xlink:title=" ">
<polygon fill="#ffffff" stroke="#000000" points="9.5,-259.5 9.5,-360.5 119.5,-360.5 119.5,-259.5 9.5,-259.5"/>
<text text-anchor="middle" x="64.5" y="-348.5" font-family="Helvetica,sans-Serif" font-size="10.00" fill="#000000">bsn::goalmodel::Task</text>
<polyline fill="none" stroke="#000000" points="9.5,-341.5 119.5,-341.5 "/>
<text text-anchor="middle" x="64.5" y="-329.5" font-family="Helvetica,sans-Serif" font-size="10.00" fill="#000000"> </text>
<polyline fill="none" stroke="#000000" points="9.5,-322.5 119.5,-322.5 "/>
<text text-anchor="start" x="17.5" y="-310.5" font-family="Helvetica,sans-Serif" font-size="10.00" fill="#000000">+ Task()</text>
<text text-anchor="start" x="17.5" y="-299.5" font-family="Helvetica,sans-Serif" font-size="10.00" fill="#000000">+ Task()</text>
<text text-anchor="start" x="17.5" y="-288.5" font-family="Helvetica,sans-Serif" font-size="10.00" fill="#000000">+ ~Task()</text>
<text text-anchor="start" x="17.5" y="-277.5" font-family="Helvetica,sans-Serif" font-size="10.00" fill="#000000">+ addChild()</text>
<text text-anchor="start" x="17.5" y="-266.5" font-family="Helvetica,sans-Serif" font-size="10.00" fill="#000000">+ addChild()</text>
</a>
</g>
</g>
<!-- Node2&#45;&gt;Node1 -->
<g id="edge1" class="edge">
<title>Node2&#45;&gt;Node1</title>
<path fill="none" stroke="#191970" d="M64.5,-249.1773C64.5,-237.3636 64.5,-224.6642 64.5,-211.8833"/>
<polygon fill="none" stroke="#191970" points="61.0001,-249.3109 64.5,-259.3109 68.0001,-249.311 61.0001,-249.3109"/>
</g>
<!-- Node3 -->
<g id="node3" class="node">
<title>Node3</title>
<g id="a_node3"><a xlink:href="classbsn_1_1goalmodel_1_1Node.html" target="_top" xlink:title=" ">
<polygon fill="#ffffff" stroke="#000000" points="135.5,-408.5 135.5,-619.5 247.5,-619.5 247.5,-408.5 135.5,-408.5"/>
<text text-anchor="middle" x="191.5" y="-607.5" font-family="Helvetica,sans-Serif" font-size="10.00" fill="#000000">bsn::goalmodel::Node</text>
<polyline fill="none" stroke="#000000" points="135.5,-600.5 247.5,-600.5 "/>
<text text-anchor="middle" x="191.5" y="-588.5" font-family="Helvetica,sans-Serif" font-size="10.00" fill="#000000"> </text>
<polyline fill="none" stroke="#000000" points="135.5,-581.5 247.5,-581.5 "/>
<text text-anchor="start" x="143.5" y="-569.5" font-family="Helvetica,sans-Serif" font-size="10.00" fill="#000000">+ Node()</text>
<text text-anchor="start" x="143.5" y="-558.5" font-family="Helvetica,sans-Serif" font-size="10.00" fill="#000000">+ Node()</text>
<text text-anchor="start" x="143.5" y="-547.5" font-family="Helvetica,sans-Serif" font-size="10.00" fill="#000000">+ ~Node()</text>
<text text-anchor="start" x="143.5" y="-536.5" font-family="Helvetica,sans-Serif" font-size="10.00" fill="#000000">+ Node()</text>
<text text-anchor="start" x="143.5" y="-525.5" font-family="Helvetica,sans-Serif" font-size="10.00" fill="#000000">+ operator=()</text>
<text text-anchor="start" x="143.5" y="-514.5" font-family="Helvetica,sans-Serif" font-size="10.00" fill="#000000">+ operator==()</text>
<text text-anchor="start" x="143.5" y="-503.5" font-family="Helvetica,sans-Serif" font-size="10.00" fill="#000000">+ setID()</text>
<text text-anchor="start" x="143.5" y="-492.5" font-family="Helvetica,sans-Serif" font-size="10.00" fill="#000000">+ getID()</text>
<text text-anchor="start" x="143.5" y="-481.5" font-family="Helvetica,sans-Serif" font-size="10.00" fill="#000000">+ setDescription()</text>
<text text-anchor="start" x="143.5" y="-470.5" font-family="Helvetica,sans-Serif" font-size="10.00" fill="#000000">+ getDescription()</text>
<text text-anchor="start" x="143.5" y="-459.5" font-family="Helvetica,sans-Serif" font-size="10.00" fill="#000000">+ hasChildren()</text>
<text text-anchor="start" x="143.5" y="-448.5" font-family="Helvetica,sans-Serif" font-size="10.00" fill="#000000">+ getChildren()</text>
<text text-anchor="start" x="143.5" y="-437.5" font-family="Helvetica,sans-Serif" font-size="10.00" fill="#000000">+ addChild()</text>
<text text-anchor="start" x="143.5" y="-426.5" font-family="Helvetica,sans-Serif" font-size="10.00" fill="#000000">+ removeChild()</text>
<text text-anchor="start" x="143.5" y="-415.5" font-family="Helvetica,sans-Serif" font-size="10.00" fill="#000000">+ getChild()</text>
</a>
</g>
</g>
<!-- Node3&#45;&gt;Node2 -->
<g id="edge2" class="edge">
<title>Node3&#45;&gt;Node2</title>
<path fill="none" stroke="#191970" d="M130.0336,-415.2665C118.2696,-396.3701 106.4125,-377.324 96.0794,-360.726"/>
<polygon fill="none" stroke="#191970" points="127.1699,-417.2892 135.4263,-423.9288 133.1125,-413.5897 127.1699,-417.2892"/>
</g>
<!-- Node5 -->
<g id="node5" class="node">
<title>Node5</title>
<g id="a_node5"><a xlink:title=" ">
<polygon fill="#ffffff" stroke="#bfbfbf" points="138,-276 138,-344 245,-344 245,-276 138,-276"/>
<text text-anchor="start" x="146" y="-332" font-family="Helvetica,sans-Serif" font-size="10.00" fill="#000000">std::shared_ptr&lt; bsn</text>
<text text-anchor="middle" x="191.5" y="-321" font-family="Helvetica,sans-Serif" font-size="10.00" fill="#000000">::goalmodel::Node &gt;</text>
<polyline fill="none" stroke="#bfbfbf" points="138,-314 245,-314 "/>
<text text-anchor="middle" x="191.5" y="-302" font-family="Helvetica,sans-Serif" font-size="10.00" fill="#000000"> </text>
<polyline fill="none" stroke="#bfbfbf" points="138,-295 245,-295 "/>
<text text-anchor="start" x="146" y="-283" font-family="Helvetica,sans-Serif" font-size="10.00" fill="#000000">+ operator&#45;&gt;()</text>
</a>
</g>
</g>
<!-- Node3&#45;&gt;Node5 -->
<g id="edge5" class="edge">
<title>Node3&#45;&gt;Node5</title>
<path fill="none" stroke="#404040" d="M191.5,-408.4147C191.5,-390.1857 191.5,-372.1096 191.5,-356.5191"/>
<polygon fill="none" stroke="#404040" points="191.5001,-356.0589 187.5,-350.0589 191.5,-344.0589 195.5,-350.0588 191.5001,-356.0589"/>
<text text-anchor="middle" x="202" y="-382" font-family="Helvetica,sans-Serif" font-size="10.00" fill="#000000"> +ptr</text>
</g>
<!-- Node4 -->
<g id="node4" class="node">
<title>Node4</title>
<g id="a_node4"><a xlink:title=" ">
<polygon fill="#ffffff" stroke="#bfbfbf" points="176,-72 176,-140 331,-140 331,-72 176,-72"/>
<text text-anchor="start" x="184" y="-128" font-family="Helvetica,sans-Serif" font-size="10.00" fill="#000000">std::vector&lt; std::shared</text>
<text text-anchor="middle" x="253.5" y="-117" font-family="Helvetica,sans-Serif" font-size="10.00" fill="#000000">_ptr&lt; bsn::goalmodel::Node &gt; &gt;</text>
<polyline fill="none" stroke="#bfbfbf" points="176,-110 331,-110 "/>
<text text-anchor="middle" x="253.5" y="-98" font-family="Helvetica,sans-Serif" font-size="10.00" fill="#000000"> </text>
<polyline fill="none" stroke="#bfbfbf" points="176,-91 331,-91 "/>
<text text-anchor="middle" x="253.5" y="-79" font-family="Helvetica,sans-Serif" font-size="10.00" fill="#000000"> </text>
</a>
</g>
</g>
<!-- Node4&#45;&gt;Node3 -->
<g id="edge3" class="edge">
<title>Node4&#45;&gt;Node3</title>
<path fill="none" stroke="#404040" d="M258.3983,-140.1234C261.711,-164.9821 265.7837,-199.5012 267.5,-230 270.7898,-288.4613 268.019,-304.2749 253.5,-361 250.4841,-372.783 246.7643,-384.8639 242.6569,-396.8201"/>
<polygon fill="none" stroke="#404040" points="242.6211,-396.9213 244.3858,-403.9132 238.6105,-408.2313 236.8458,-401.2394 242.6211,-396.9213"/>
<text text-anchor="middle" x="290" y="-307.5" font-family="Helvetica,sans-Serif" font-size="10.00" fill="#000000"> #children</text>
</g>
<!-- Node5&#45;&gt;Node4 -->
<g id="edge4" class="edge">
<title>Node5&#45;&gt;Node4</title>
<path fill="none" stroke="#404040" d="M201.8774,-275.855C212.2046,-241.8752 228.12,-189.5083 239.5486,-151.9046"/>
<polygon fill="none" stroke="#404040" points="239.5992,-151.7379 237.5168,-144.834 243.0887,-140.2564 245.1711,-147.1603 239.5992,-151.7379"/>
<text text-anchor="middle" x="240" y="-233" font-family="Helvetica,sans-Serif" font-size="10.00" fill="#000000"> +elements</text>
</g>
<!-- Node6 -->
<g id="node6" class="node">
<title>Node6</title>
<g id="a_node6"><a xlink:title="STL class.">
<polygon fill="#ffffff" stroke="#bfbfbf" points="161.5,-678.5 161.5,-735.5 221.5,-735.5 221.5,-678.5 161.5,-678.5"/>
<text text-anchor="middle" x="191.5" y="-723.5" font-family="Helvetica,sans-Serif" font-size="10.00" fill="#000000">std::string</text>
<polyline fill="none" stroke="#bfbfbf" points="161.5,-716.5 221.5,-716.5 "/>
<text text-anchor="middle" x="191.5" y="-704.5" font-family="Helvetica,sans-Serif" font-size="10.00" fill="#000000"> </text>
<polyline fill="none" stroke="#bfbfbf" points="161.5,-697.5 221.5,-697.5 "/>
<text text-anchor="middle" x="191.5" y="-685.5" font-family="Helvetica,sans-Serif" font-size="10.00" fill="#000000"> </text>
</a>
</g>
</g>
<!-- Node6&#45;&gt;Node3 -->
<g id="edge6" class="edge">
<title>Node6&#45;&gt;Node3</title>
<path fill="none" stroke="#404040" d="M191.5,-678.1059C191.5,-665.119 191.5,-648.8491 191.5,-631.6357"/>
<polygon fill="none" stroke="#404040" points="191.5001,-631.5967 187.5,-625.5967 191.5,-619.5967 195.5,-625.5967 191.5001,-631.5967"/>
<text text-anchor="middle" x="219.5" y="-652" font-family="Helvetica,sans-Serif" font-size="10.00" fill="#000000"> #description</text>
<text text-anchor="middle" x="219.5" y="-641" font-family="Helvetica,sans-Serif" font-size="10.00" fill="#000000">#id</text>
</g>
<!-- Node7 -->
<g id="node7" class="node">
<title>Node7</title>
<g id="a_node7"><a xlink:title="STL class.">
<polygon fill="#ffffff" stroke="#bfbfbf" points="144,-773.5 144,-841.5 239,-841.5 239,-773.5 144,-773.5"/>
<text text-anchor="start" x="152" y="-829.5" font-family="Helvetica,sans-Serif" font-size="10.00" fill="#000000">std::basic_string&lt;</text>
<text text-anchor="middle" x="191.5" y="-818.5" font-family="Helvetica,sans-Serif" font-size="10.00" fill="#000000"> char &gt;</text>
<polyline fill="none" stroke="#bfbfbf" points="144,-811.5 239,-811.5 "/>
<text text-anchor="middle" x="191.5" y="-799.5" font-family="Helvetica,sans-Serif" font-size="10.00" fill="#000000"> </text>
<polyline fill="none" stroke="#bfbfbf" points="144,-792.5 239,-792.5 "/>
<text text-anchor="middle" x="191.5" y="-780.5" font-family="Helvetica,sans-Serif" font-size="10.00" fill="#000000"> </text>
</a>
</g>
</g>
<!-- Node7&#45;&gt;Node6 -->
<g id="edge7" class="edge">
<title>Node7&#45;&gt;Node6</title>
<path fill="none" stroke="#191970" d="M191.5,-763.4301C191.5,-754.0073 191.5,-744.2901 191.5,-735.6312"/>
<polygon fill="none" stroke="#191970" points="188.0001,-763.4752 191.5,-773.4753 195.0001,-763.4753 188.0001,-763.4752"/>
</g>
</g>
</svg>
