<?xml version="1.0" encoding="UTF-8" standalone="no"?>
<!DOCTYPE svg PUBLIC "-//W3C//DTD SVG 1.1//EN"
 "http://www.w3.org/Graphics/SVG/1.1/DTD/svg11.dtd">
<!-- Generated by graphviz version 2.40.1 (20161225.0304)
 -->
<!-- Title: G3T1_5::transfer Pages: 1 -->
<svg width="547pt" height="192pt"
 viewBox="0.00 0.00 547.00 192.00" xmlns="http://www.w3.org/2000/svg" xmlns:xlink="http://www.w3.org/1999/xlink">
<g id="graph0" class="graph" transform="scale(1 1) rotate(0) translate(4 188)">
<title>G3T1_5::transfer</title>
<polygon fill="#ffffff" stroke="transparent" points="-4,4 -4,-188 543,-188 543,4 -4,4"/>
<!-- Node1 -->
<g id="node1" class="node">
<title>Node1</title>
<g id="a_node1"><a xlink:title=" ">
<polygon fill="#bfbfbf" stroke="#000000" points="0,-61 0,-80 90,-80 90,-61 0,-61"/>
<text text-anchor="middle" x="45" y="-68" font-family="Helvetica,sans-Serif" font-size="10.00" fill="#000000">G3T1_5::transfer</text>
</a>
</g>
</g>
<!-- Node2 -->
<g id="node2" class="node">
<title>Node2</title>
<g id="a_node2"><a xlink:href="classbsn_1_1resource_1_1Battery.html#aedd16b53e50acce84e3f77dfd6d38e74" target="_top" xlink:title=" ">
<polygon fill="#ffffff" stroke="#000000" points="126,-110.5 126,-140.5 239,-140.5 239,-110.5 126,-110.5"/>
<text text-anchor="start" x="134" y="-128.5" font-family="Helvetica,sans-Serif" font-size="10.00" fill="#000000">bsn::resource::Battery</text>
<text text-anchor="middle" x="182.5" y="-117.5" font-family="Helvetica,sans-Serif" font-size="10.00" fill="#000000">::consume</text>
</a>
</g>
</g>
<!-- Node1&#45;&gt;Node2 -->
<g id="edge1" class="edge">
<title>Node1&#45;&gt;Node2</title>
<path fill="none" stroke="#191970" d="M68.9507,-80.0803C87.263,-87.4052 113.0863,-97.7345 135.4808,-106.6923"/>
<polygon fill="#191970" stroke="#191970" points="134.252,-109.9703 144.8366,-110.4346 136.8517,-103.471 134.252,-109.9703"/>
</g>
<!-- Node3 -->
<g id="node3" class="node">
<title>Node3</title>
<g id="a_node3"><a xlink:href="classbsn_1_1configuration_1_1SensorConfiguration.html#a74040e24635beeffd7067a23c5bb91ab" target="_top" xlink:title=" ">
<polygon fill="#ffffff" stroke="#000000" points="127,-50 127,-91 238,-91 238,-50 127,-50"/>
<text text-anchor="start" x="135" y="-79" font-family="Helvetica,sans-Serif" font-size="10.00" fill="#000000">bsn::configuration</text>
<text text-anchor="start" x="135" y="-68" font-family="Helvetica,sans-Serif" font-size="10.00" fill="#000000">::SensorConfiguration</text>
<text text-anchor="middle" x="182.5" y="-57" font-family="Helvetica,sans-Serif" font-size="10.00" fill="#000000">::evaluateNumber</text>
</a>
</g>
</g>
<!-- Node1&#45;&gt;Node3 -->
<g id="edge2" class="edge">
<title>Node1&#45;&gt;Node3</title>
<path fill="none" stroke="#191970" d="M90.0226,-70.5C98.5585,-70.5 107.6506,-70.5 116.6753,-70.5"/>
<polygon fill="#191970" stroke="#191970" points="116.8027,-74.0001 126.8027,-70.5 116.8026,-67.0001 116.8027,-74.0001"/>
</g>
<!-- Node10 -->
<g id="node10" class="node">
<title>Node10</title>
<g id="a_node10"><a xlink:href="classbsn_1_1resource_1_1Battery.html#a674c7c02100126e91f040bc93f143c7e" target="_top" xlink:title=" ">
<polygon fill="#ffffff" stroke="#000000" points="126,-.5 126,-30.5 239,-30.5 239,-.5 126,-.5"/>
<text text-anchor="start" x="134" y="-18.5" font-family="Helvetica,sans-Serif" font-size="10.00" fill="#000000">bsn::resource::Battery</text>
<text text-anchor="middle" x="182.5" y="-7.5" font-family="Helvetica,sans-Serif" font-size="10.00" fill="#000000">::getCurrentLevel</text>
</a>
</g>
</g>
<!-- Node1&#45;&gt;Node10 -->
<g id="edge11" class="edge">
<title>Node1&#45;&gt;Node10</title>
<path fill="none" stroke="#191970" d="M68.9507,-60.9197C87.263,-53.5948 113.0863,-43.2655 135.4808,-34.3077"/>
<polygon fill="#191970" stroke="#191970" points="136.8517,-37.529 144.8366,-30.5654 134.252,-31.0297 136.8517,-37.529"/>
</g>
<!-- Node4 -->
<g id="node4" class="node">
<title>Node4</title>
<g id="a_node4"><a xlink:href="classbsn_1_1configuration_1_1SensorConfiguration.html#aeb452f9154ebbc75bd54564fa0f94430" target="_top" xlink:title=" ">
<polygon fill="#ffffff" stroke="#000000" points="275,-110 275,-151 400,-151 400,-110 275,-110"/>
<text text-anchor="start" x="283" y="-139" font-family="Helvetica,sans-Serif" font-size="10.00" fill="#000000">bsn::configuration</text>
<text text-anchor="start" x="283" y="-128" font-family="Helvetica,sans-Serif" font-size="10.00" fill="#000000">::SensorConfiguration</text>
<text text-anchor="middle" x="337.5" y="-117" font-family="Helvetica,sans-Serif" font-size="10.00" fill="#000000">::convertRealPercentage</text>
</a>
</g>
</g>
<!-- Node3&#45;&gt;Node4 -->
<g id="edge3" class="edge">
<title>Node3&#45;&gt;Node4</title>
<path fill="none" stroke="#191970" d="M235.8422,-91.1486C248.3333,-95.9839 261.7546,-101.1792 274.6184,-106.1588"/>
<polygon fill="#191970" stroke="#191970" points="273.733,-109.569 284.3221,-109.915 276.26,-103.041 273.733,-109.569"/>
</g>
<!-- Node8 -->
<g id="node8" class="node">
<title>Node8</title>
<g id="a_node8"><a xlink:href="classbsn_1_1configuration_1_1SensorConfiguration.html#aab092b8b249eda7ee53a38ec45ba9421" target="_top" xlink:title=" ">
<polygon fill="#ffffff" stroke="#000000" points="282,-50 282,-91 393,-91 393,-50 282,-50"/>
<text text-anchor="start" x="290" y="-79" font-family="Helvetica,sans-Serif" font-size="10.00" fill="#000000">bsn::configuration</text>
<text text-anchor="start" x="290" y="-68" font-family="Helvetica,sans-Serif" font-size="10.00" fill="#000000">::SensorConfiguration</text>
<text text-anchor="middle" x="337.5" y="-57" font-family="Helvetica,sans-Serif" font-size="10.00" fill="#000000">::getDisplacement</text>
</a>
</g>
</g>
<!-- Node3&#45;&gt;Node8 -->
<g id="edge7" class="edge">
<title>Node3&#45;&gt;Node8</title>
<path fill="none" stroke="#191970" d="M238.0208,-70.5C248.9279,-70.5 260.4683,-70.5 271.6752,-70.5"/>
<polygon fill="#191970" stroke="#191970" points="271.846,-74.0001 281.8459,-70.5 271.8459,-67.0001 271.846,-74.0001"/>
</g>
<!-- Node9 -->
<g id="node9" class="node">
<title>Node9</title>
<g id="a_node9"><a xlink:href="classbsn_1_1range_1_1Range.html#a803a947a39a06176384e00e2ad758ec9" target="_top" xlink:title=" ">
<polygon fill="#ffffff" stroke="#000000" points="286,-.5 286,-30.5 389,-30.5 389,-.5 286,-.5"/>
<text text-anchor="start" x="294" y="-18.5" font-family="Helvetica,sans-Serif" font-size="10.00" fill="#000000">bsn::range::Range::</text>
<text text-anchor="middle" x="337.5" y="-7.5" font-family="Helvetica,sans-Serif" font-size="10.00" fill="#000000">in_range</text>
</a>
</g>
</g>
<!-- Node3&#45;&gt;Node9 -->
<g id="edge10" class="edge">
<title>Node3&#45;&gt;Node9</title>
<path fill="none" stroke="#191970" d="M238.0208,-50.7991C253.4124,-45.3375 270.0649,-39.4286 285.2623,-34.036"/>
<polygon fill="#191970" stroke="#191970" points="286.7572,-37.2194 295.0111,-30.5767 284.4163,-30.6224 286.7572,-37.2194"/>
</g>
<!-- Node5 -->
<g id="node5" class="node">
<title>Node5</title>
<g id="a_node5"><a xlink:href="classbsn_1_1range_1_1Range.html#ab8b7c15c1b6dc5c0e2c57b968271ac3b" target="_top" xlink:title=" ">
<polygon fill="#ffffff" stroke="#000000" points="436,-153.5 436,-183.5 539,-183.5 539,-153.5 436,-153.5"/>
<text text-anchor="start" x="444" y="-171.5" font-family="Helvetica,sans-Serif" font-size="10.00" fill="#000000">bsn::range::Range::</text>
<text text-anchor="middle" x="487.5" y="-160.5" font-family="Helvetica,sans-Serif" font-size="10.00" fill="#000000">convert</text>
</a>
</g>
</g>
<!-- Node4&#45;&gt;Node5 -->
<g id="edge4" class="edge">
<title>Node4&#45;&gt;Node5</title>
<path fill="none" stroke="#191970" d="M400.2444,-146.3952C408.7843,-148.5587 417.5421,-150.7773 426.0586,-152.9348"/>
<polygon fill="#191970" stroke="#191970" points="425.3646,-156.3695 435.9179,-155.4325 427.0836,-149.5839 425.3646,-156.3695"/>
</g>
<!-- Node6 -->
<g id="node6" class="node">
<title>Node6</title>
<g id="a_node6"><a xlink:href="classbsn_1_1range_1_1Range.html#a0785d0aa7d5463bcdd3842089069a2e7" target="_top" xlink:title=" ">
<polygon fill="#ffffff" stroke="#000000" points="436,-55.5 436,-85.5 539,-85.5 539,-55.5 436,-55.5"/>
<text text-anchor="start" x="444" y="-73.5" font-family="Helvetica,sans-Serif" font-size="10.00" fill="#000000">bsn::range::Range::</text>
<text text-anchor="middle" x="487.5" y="-62.5" font-family="Helvetica,sans-Serif" font-size="10.00" fill="#000000">getLowerBound</text>
</a>
</g>
</g>
<!-- Node4&#45;&gt;Node6 -->
<g id="edge5" class="edge">
<title>Node4&#45;&gt;Node6</title>
<path fill="none" stroke="#191970" d="M389.1215,-109.8514C405.8402,-103.1639 424.281,-95.7876 440.6346,-89.2462"/>
<polygon fill="#191970" stroke="#191970" points="442.0085,-92.4663 449.9933,-85.5027 439.4087,-85.967 442.0085,-92.4663"/>
</g>
<!-- Node7 -->
<g id="node7" class="node">
<title>Node7</title>
<g id="a_node7"><a xlink:href="classbsn_1_1range_1_1Range.html#a540c2181ec15a65b189a7fb89659f388" target="_top" xlink:title=" ">
<polygon fill="#ffffff" stroke="#000000" points="436,-104.5 436,-134.5 539,-134.5 539,-104.5 436,-104.5"/>
<text text-anchor="start" x="444" y="-122.5" font-family="Helvetica,sans-Serif" font-size="10.00" fill="#000000">bsn::range::Range::</text>
<text text-anchor="middle" x="487.5" y="-111.5" font-family="Helvetica,sans-Serif" font-size="10.00" fill="#000000">getUpperBound</text>
</a>
</g>
</g>
<!-- Node4&#45;&gt;Node7 -->
<g id="edge6" class="edge">
<title>Node4&#45;&gt;Node7</title>
<path fill="none" stroke="#191970" d="M400.2444,-125.8987C408.6914,-125.2793 417.3517,-124.6442 425.7808,-124.0261"/>
<polygon fill="#191970" stroke="#191970" points="426.2007,-127.5048 435.9179,-123.2827 425.6886,-120.5235 426.2007,-127.5048"/>
</g>
<!-- Node8&#45;&gt;Node6 -->
<g id="edge8" class="edge">
<title>Node8&#45;&gt;Node6</title>
<path fill="none" stroke="#191970" d="M393.3545,-70.5C403.8327,-70.5 414.8453,-70.5 425.4971,-70.5"/>
<polygon fill="#191970" stroke="#191970" points="425.57,-74.0001 435.57,-70.5 425.5699,-67.0001 425.57,-74.0001"/>
</g>
<!-- Node8&#45;&gt;Node7 -->
<g id="edge9" class="edge">
<title>Node8&#45;&gt;Node7</title>
<path fill="none" stroke="#191970" d="M393.3545,-88.7458C405.8422,-92.8251 419.0889,-97.1524 431.5794,-101.2326"/>
<polygon fill="#191970" stroke="#191970" points="430.8129,-104.6642 441.4054,-104.4424 432.9865,-98.0102 430.8129,-104.6642"/>
</g>
</g>
</svg>
