<?xml version="1.0" encoding="UTF-8" standalone="no"?>
<!DOCTYPE svg PUBLIC "-//W3C//DTD SVG 1.1//EN"
 "http://www.w3.org/Graphics/SVG/1.1/DTD/svg11.dtd">
<!-- Generated by graphviz version 2.40.1 (20161225.0304)
 -->
<!-- Title: arch::target_system::Probe Pages: 1 -->
<svg width="142pt" height="303pt"
 viewBox="0.00 0.00 142.00 303.00" xmlns="http://www.w3.org/2000/svg" xmlns:xlink="http://www.w3.org/1999/xlink">
<g id="graph0" class="graph" transform="scale(1 1) rotate(0) translate(4 299)">
<title>arch::target_system::Probe</title>
<polygon fill="#ffffff" stroke="transparent" points="-4,4 -4,-299 138,-299 138,4 -4,4"/>
<!-- Node1 -->
<g id="node1" class="node">
<title>Node1</title>
<g id="a_node1"><a xlink:title=" ">
<polygon fill="#bfbfbf" stroke="#000000" points="15,-.5 15,-134.5 119,-134.5 119,-.5 15,-.5"/>
<text text-anchor="start" x="23" y="-122.5" font-family="Helvetica,sans-Serif" font-size="10.00" fill="#000000">arch::target_system</text>
<text text-anchor="middle" x="67" y="-111.5" font-family="Helvetica,sans-Serif" font-size="10.00" fill="#000000">::Probe</text>
<polyline fill="none" stroke="#000000" points="15,-104.5 119,-104.5 "/>
<text text-anchor="start" x="23" y="-92.5" font-family="Helvetica,sans-Serif" font-size="10.00" fill="#000000"># handle</text>
<polyline fill="none" stroke="#000000" points="15,-85.5 119,-85.5 "/>
<text text-anchor="start" x="23" y="-73.5" font-family="Helvetica,sans-Serif" font-size="10.00" fill="#000000">+ Probe()</text>
<text text-anchor="start" x="23" y="-62.5" font-family="Helvetica,sans-Serif" font-size="10.00" fill="#000000">+ ~Probe()</text>
<text text-anchor="start" x="23" y="-51.5" font-family="Helvetica,sans-Serif" font-size="10.00" fill="#000000">+ setUp()</text>
<text text-anchor="start" x="23" y="-40.5" font-family="Helvetica,sans-Serif" font-size="10.00" fill="#000000">+ tearDown()</text>
<text text-anchor="start" x="23" y="-29.5" font-family="Helvetica,sans-Serif" font-size="10.00" fill="#000000">+ body()</text>
<text text-anchor="start" x="23" y="-18.5" font-family="Helvetica,sans-Serif" font-size="10.00" fill="#000000">+ collectEvent()</text>
<text text-anchor="start" x="23" y="-7.5" font-family="Helvetica,sans-Serif" font-size="10.00" fill="#000000">+ collectStatus()</text>
</a>
</g>
</g>
<!-- Node2 -->
<g id="node2" class="node">
<title>Node2</title>
<g id="a_node2"><a xlink:href="classarch_1_1ROSComponent.html" target="_top" xlink:title=" ">
<polygon fill="#ffffff" stroke="#000000" points="0,-171.5 0,-294.5 134,-294.5 134,-171.5 0,-171.5"/>
<text text-anchor="middle" x="67" y="-282.5" font-family="Helvetica,sans-Serif" font-size="10.00" fill="#000000">arch::ROSComponent</text>
<polyline fill="none" stroke="#000000" points="0,-275.5 134,-275.5 "/>
<text text-anchor="start" x="8" y="-263.5" font-family="Helvetica,sans-Serif" font-size="10.00" fill="#000000"># rosComponentDescriptor</text>
<polyline fill="none" stroke="#000000" points="0,-256.5 134,-256.5 "/>
<text text-anchor="start" x="8" y="-244.5" font-family="Helvetica,sans-Serif" font-size="10.00" fill="#000000">+ ROSComponent()</text>
<text text-anchor="start" x="8" y="-233.5" font-family="Helvetica,sans-Serif" font-size="10.00" fill="#000000">+ ~ROSComponent()</text>
<text text-anchor="start" x="8" y="-222.5" font-family="Helvetica,sans-Serif" font-size="10.00" fill="#000000">+ setUp()</text>
<text text-anchor="start" x="8" y="-211.5" font-family="Helvetica,sans-Serif" font-size="10.00" fill="#000000">+ tearDown()</text>
<text text-anchor="start" x="8" y="-200.5" font-family="Helvetica,sans-Serif" font-size="10.00" fill="#000000">+ run()</text>
<text text-anchor="start" x="8" y="-189.5" font-family="Helvetica,sans-Serif" font-size="10.00" fill="#000000">+ body()</text>
<text text-anchor="start" x="8" y="-178.5" font-family="Helvetica,sans-Serif" font-size="10.00" fill="#000000"># getRosNodeName()</text>
</a>
</g>
</g>
<!-- Node2&#45;&gt;Node1 -->
<g id="edge1" class="edge">
<title>Node2&#45;&gt;Node1</title>
<path fill="none" stroke="#191970" d="M67,-161.1682C67,-152.3885 67,-143.4419 67,-134.7332"/>
<polygon fill="none" stroke="#191970" points="63.5001,-161.3739 67,-171.3739 70.5001,-161.3739 63.5001,-161.3739"/>
</g>
</g>
</svg>
