<?xml version="1.0" encoding="UTF-8" standalone="no"?>
<!DOCTYPE svg PUBLIC "-//W3C//DTD SVG 1.1//EN"
 "http://www.w3.org/Graphics/SVG/1.1/DTD/svg11.dtd">
<!-- Generated by graphviz version 2.40.1 (20161225.0304)
 -->
<!-- Title: Lepton::ExpressionTreeNode::getOperation Pages: 1 -->
<svg width="664pt" height="269pt"
 viewBox="0.00 0.00 664.00 269.00" xmlns="http://www.w3.org/2000/svg" xmlns:xlink="http://www.w3.org/1999/xlink">
<g id="graph0" class="graph" transform="scale(1 1) rotate(0) translate(4 265)">
<title>Lepton::ExpressionTreeNode::getOperation</title>
<polygon fill="#ffffff" stroke="transparent" points="-4,4 -4,-265 660,-265 660,4 -4,4"/>
<!-- Node1 -->
<g id="node1" class="node">
<title>Node1</title>
<g id="a_node1"><a xlink:title=" ">
<polygon fill="#bfbfbf" stroke="#000000" points="513,-66.5 513,-96.5 656,-96.5 656,-66.5 513,-66.5"/>
<text text-anchor="start" x="521" y="-84.5" font-family="Helvetica,sans-Serif" font-size="10.00" fill="#000000">Lepton::ExpressionTreeNode</text>
<text text-anchor="middle" x="584.5" y="-73.5" font-family="Helvetica,sans-Serif" font-size="10.00" fill="#000000">::getOperation</text>
</a>
</g>
</g>
<!-- Node2 -->
<g id="node2" class="node">
<title>Node2</title>
<g id="a_node2"><a xlink:href="classLepton_1_1ParsedExpression.html#a5f3df57885604220c0e9bd28d3eac21d" target="_top" xlink:title=" ">
<polygon fill="#ffffff" stroke="#000000" points="340,-137.5 340,-167.5 471,-167.5 471,-137.5 340,-137.5"/>
<text text-anchor="start" x="348" y="-155.5" font-family="Helvetica,sans-Serif" font-size="10.00" fill="#000000">Lepton::ParsedExpression</text>
<text text-anchor="middle" x="405.5" y="-144.5" font-family="Helvetica,sans-Serif" font-size="10.00" fill="#000000">::getRootNode</text>
</a>
</g>
</g>
<!-- Node1&#45;&gt;Node2 -->
<g id="edge1" class="edge">
<title>Node1&#45;&gt;Node2</title>
<path fill="none" stroke="#191970" d="M542.5607,-100.8625C522.834,-109.7045 498.8857,-120.0615 477,-128.5 469.0588,-131.5619 460.5408,-134.6161 452.2508,-137.4693"/>
<polygon fill="#191970" stroke="#191970" points="544.2024,-103.9616 551.8781,-96.6586 541.3235,-97.581 544.2024,-103.9616"/>
</g>
<!-- Node9 -->
<g id="node9" class="node">
<title>Node9</title>
<g id="a_node9"><a xlink:href="classLepton_1_1ExpressionTreeNode.html#a310d6d3162c2d7ccfbb64623b0899ba6" target="_top" xlink:title=" ">
<polygon fill="#ffffff" stroke="#000000" points="334,-88.5 334,-118.5 477,-118.5 477,-88.5 334,-88.5"/>
<text text-anchor="start" x="342" y="-106.5" font-family="Helvetica,sans-Serif" font-size="10.00" fill="#000000">Lepton::ExpressionTreeNode</text>
<text text-anchor="middle" x="405.5" y="-95.5" font-family="Helvetica,sans-Serif" font-size="10.00" fill="#000000">::operator!=</text>
</a>
</g>
</g>
<!-- Node1&#45;&gt;Node9 -->
<g id="edge8" class="edge">
<title>Node1&#45;&gt;Node9</title>
<path fill="none" stroke="#191970" d="M502.9572,-91.522C494.3619,-92.5784 485.6679,-93.647 477.1958,-94.6882"/>
<polygon fill="#191970" stroke="#191970" points="503.4844,-94.9836 512.9828,-90.2898 502.6305,-88.0359 503.4844,-94.9836"/>
</g>
<!-- Node10 -->
<g id="node10" class="node">
<title>Node10</title>
<g id="a_node10"><a xlink:href="namespaceLepton.html#af2c28a626fa44c7a59b719d95067c23f" target="_top" xlink:title=" ">
<polygon fill="#ffffff" stroke="#000000" points="356,-50 356,-69 455,-69 455,-50 356,-50"/>
<text text-anchor="middle" x="405.5" y="-57" font-family="Helvetica,sans-Serif" font-size="10.00" fill="#000000">Lepton::operator&lt;&lt;</text>
</a>
</g>
</g>
<!-- Node1&#45;&gt;Node10 -->
<g id="edge9" class="edge">
<title>Node1&#45;&gt;Node10</title>
<path fill="none" stroke="#191970" d="M502.9062,-71.4717C486.6183,-69.4698 469.9784,-67.4247 455.1669,-65.6043"/>
<polygon fill="#191970" stroke="#191970" points="502.6305,-74.9641 512.9828,-72.7102 503.4844,-68.0164 502.6305,-74.9641"/>
</g>
<!-- Node11 -->
<g id="node11" class="node">
<title>Node11</title>
<g id="a_node11"><a xlink:href="classLepton_1_1ExpressionTreeNode.html#a9e8086d628a0997e6e30eaf731fd7d9e" target="_top" xlink:title=" ">
<polygon fill="#ffffff" stroke="#000000" points="334,-.5 334,-30.5 477,-30.5 477,-.5 334,-.5"/>
<text text-anchor="start" x="342" y="-18.5" font-family="Helvetica,sans-Serif" font-size="10.00" fill="#000000">Lepton::ExpressionTreeNode</text>
<text text-anchor="middle" x="405.5" y="-7.5" font-family="Helvetica,sans-Serif" font-size="10.00" fill="#000000">::operator=</text>
</a>
</g>
</g>
<!-- Node1&#45;&gt;Node11 -->
<g id="edge10" class="edge">
<title>Node1&#45;&gt;Node11</title>
<path fill="none" stroke="#191970" d="M536.3871,-62.8206C517.8666,-55.7168 496.4909,-47.6228 477,-40.5 467.9836,-37.205 458.2954,-33.7564 449.0517,-30.5096"/>
<polygon fill="#191970" stroke="#191970" points="535.1969,-66.1128 545.7869,-66.4348 537.7092,-59.5791 535.1969,-66.1128"/>
</g>
<!-- Node3 -->
<g id="node3" class="node">
<title>Node3</title>
<g id="a_node3"><a xlink:href="classLepton_1_1ParsedExpression.html#a0ed0e7e8c6ad3d593e90f911160a724a" target="_top" xlink:title=" ">
<polygon fill="#ffffff" stroke="#000000" points="167,-230.5 167,-260.5 298,-260.5 298,-230.5 167,-230.5"/>
<text text-anchor="start" x="175" y="-248.5" font-family="Helvetica,sans-Serif" font-size="10.00" fill="#000000">Lepton::ParsedExpression</text>
<text text-anchor="middle" x="232.5" y="-237.5" font-family="Helvetica,sans-Serif" font-size="10.00" fill="#000000">::differentiate</text>
</a>
</g>
</g>
<!-- Node2&#45;&gt;Node3 -->
<g id="edge2" class="edge">
<title>Node2&#45;&gt;Node3</title>
<path fill="none" stroke="#191970" d="M376.6966,-173.4601C355.6147,-188.1765 325.9317,-207.629 298,-221.5 291.6003,-224.6781 284.6714,-227.6661 277.7971,-230.3828"/>
<polygon fill="#191970" stroke="#191970" points="378.7423,-176.3002 384.8935,-167.674 374.7054,-170.5815 378.7423,-176.3002"/>
</g>
<!-- Node4 -->
<g id="node4" class="node">
<title>Node4</title>
<g id="a_node4"><a xlink:href="classLepton_1_1ParsedExpression.html#acd9d7fbbbe5fbde7d1206c9089861420" target="_top" xlink:title=" ">
<polygon fill="#ffffff" stroke="#000000" points="167,-181.5 167,-211.5 298,-211.5 298,-181.5 167,-181.5"/>
<text text-anchor="start" x="175" y="-199.5" font-family="Helvetica,sans-Serif" font-size="10.00" fill="#000000">Lepton::ParsedExpression</text>
<text text-anchor="middle" x="232.5" y="-188.5" font-family="Helvetica,sans-Serif" font-size="10.00" fill="#000000">::evaluate</text>
</a>
</g>
</g>
<!-- Node2&#45;&gt;Node4 -->
<g id="edge3" class="edge">
<title>Node2&#45;&gt;Node4</title>
<path fill="none" stroke="#191970" d="M336.7503,-169.9855C321.8023,-173.7873 306.1153,-177.777 291.5803,-181.4738"/>
<polygon fill="#191970" stroke="#191970" points="337.6184,-173.3762 346.4471,-167.5192 335.8929,-166.5922 337.6184,-173.3762"/>
</g>
<!-- Node6 -->
<g id="node6" class="node">
<title>Node6</title>
<g id="a_node6"><a xlink:href="namespaceLepton.html#a7a609a2c523dac6931d3be280f70e111" target="_top" xlink:title=" ">
<polygon fill="#ffffff" stroke="#000000" points="183,-143 183,-162 282,-162 282,-143 183,-143"/>
<text text-anchor="middle" x="232.5" y="-150" font-family="Helvetica,sans-Serif" font-size="10.00" fill="#000000">Lepton::operator&lt;&lt;</text>
</a>
</g>
</g>
<!-- Node2&#45;&gt;Node6 -->
<g id="edge5" class="edge">
<title>Node2&#45;&gt;Node6</title>
<path fill="none" stroke="#191970" d="M329.1934,-152.5C313.2147,-152.5 296.7654,-152.5 282.0676,-152.5"/>
<polygon fill="#191970" stroke="#191970" points="329.6026,-156.0001 339.6026,-152.5 329.6026,-149.0001 329.6026,-156.0001"/>
</g>
<!-- Node7 -->
<g id="node7" class="node">
<title>Node7</title>
<g id="a_node7"><a xlink:href="classLepton_1_1ParsedExpression.html#a7aeb0646ea0b8d046b26e0e614dd7bf5" target="_top" xlink:title=" ">
<polygon fill="#ffffff" stroke="#000000" points="167,-93.5 167,-123.5 298,-123.5 298,-93.5 167,-93.5"/>
<text text-anchor="start" x="175" y="-111.5" font-family="Helvetica,sans-Serif" font-size="10.00" fill="#000000">Lepton::ParsedExpression</text>
<text text-anchor="middle" x="232.5" y="-100.5" font-family="Helvetica,sans-Serif" font-size="10.00" fill="#000000">::optimize</text>
</a>
</g>
</g>
<!-- Node2&#45;&gt;Node7 -->
<g id="edge6" class="edge">
<title>Node2&#45;&gt;Node7</title>
<path fill="none" stroke="#191970" d="M336.7503,-135.0145C321.8023,-131.2127 306.1153,-127.223 291.5803,-123.5262"/>
<polygon fill="#191970" stroke="#191970" points="335.8929,-138.4078 346.4471,-137.4808 337.6184,-131.6238 335.8929,-138.4078"/>
</g>
<!-- Node8 -->
<g id="node8" class="node">
<title>Node8</title>
<g id="a_node8"><a xlink:href="classLepton_1_1ParsedExpression.html#a7c76c71544e4458de39a5e537fb6b1cb" target="_top" xlink:title=" ">
<polygon fill="#ffffff" stroke="#000000" points="167,-44.5 167,-74.5 298,-74.5 298,-44.5 167,-44.5"/>
<text text-anchor="start" x="175" y="-62.5" font-family="Helvetica,sans-Serif" font-size="10.00" fill="#000000">Lepton::ParsedExpression</text>
<text text-anchor="middle" x="232.5" y="-51.5" font-family="Helvetica,sans-Serif" font-size="10.00" fill="#000000">::renameVariables</text>
</a>
</g>
</g>
<!-- Node2&#45;&gt;Node8 -->
<g id="edge7" class="edge">
<title>Node2&#45;&gt;Node8</title>
<path fill="none" stroke="#191970" d="M341.0294,-132.8777C338.5996,-131.5087 336.2457,-130.0511 334,-128.5 313.2101,-114.1404 318.4929,-99.2804 298,-84.5 292.7679,-80.7264 286.8947,-77.4437 280.8702,-74.6105"/>
<polygon fill="#191970" stroke="#191970" points="339.5964,-136.075 350.1008,-137.4565 342.7506,-129.8259 339.5964,-136.075"/>
</g>
<!-- Node5 -->
<g id="node5" class="node">
<title>Node5</title>
<g id="a_node5"><a xlink:href="classLepton_1_1ParsedExpression.html#aa9ed39ef2faf17eb906494095dd2d930" target="_top" xlink:title=" ">
<polygon fill="#ffffff" stroke="#000000" points="0,-181.5 0,-211.5 131,-211.5 131,-181.5 0,-181.5"/>
<text text-anchor="start" x="8" y="-199.5" font-family="Helvetica,sans-Serif" font-size="10.00" fill="#000000">Lepton::ParsedExpression</text>
<text text-anchor="middle" x="65.5" y="-188.5" font-family="Helvetica,sans-Serif" font-size="10.00" fill="#000000">::evaluate</text>
</a>
</g>
</g>
<!-- Node4&#45;&gt;Node5 -->
<g id="edge4" class="edge">
<title>Node4&#45;&gt;Node5</title>
<path fill="none" stroke="#191970" d="M156.9337,-196.5C148.3152,-196.5 139.5829,-196.5 131.1087,-196.5"/>
<polygon fill="#191970" stroke="#191970" points="156.9765,-200.0001 166.9765,-196.5 156.9765,-193.0001 156.9765,-200.0001"/>
</g>
</g>
</svg>
