<?xml version="1.0" encoding="UTF-8" standalone="no"?>
<!DOCTYPE svg PUBLIC "-//W3C//DTD SVG 1.1//EN"
 "http://www.w3.org/Graphics/SVG/1.1/DTD/svg11.dtd">
<!-- Generated by graphviz version 2.40.1 (20161225.0304)
 -->
<!-- Title: bsn::goalmodel::Node::getChildren Pages: 1 -->
<svg width="292pt" height="116pt"
 viewBox="0.00 0.00 292.00 116.00" xmlns="http://www.w3.org/2000/svg" xmlns:xlink="http://www.w3.org/1999/xlink">
<g id="graph0" class="graph" transform="scale(1 1) rotate(0) translate(4 112)">
<title>bsn::goalmodel::Node::getChildren</title>
<polygon fill="#ffffff" stroke="transparent" points="-4,4 -4,-112 288,-112 288,4 -4,4"/>
<!-- Node1 -->
<g id="node1" class="node">
<title>Node1</title>
<g id="a_node1"><a xlink:title=" ">
<polygon fill="#bfbfbf" stroke="#000000" points="172,-39 172,-69 284,-69 284,-39 172,-39"/>
<text text-anchor="start" x="180" y="-57" font-family="Helvetica,sans-Serif" font-size="10.00" fill="#000000">bsn::goalmodel::Node</text>
<text text-anchor="middle" x="228" y="-46" font-family="Helvetica,sans-Serif" font-size="10.00" fill="#000000">::getChildren</text>
</a>
</g>
</g>
<!-- Node2 -->
<g id="node2" class="node">
<title>Node2</title>
<g id="a_node2"><a xlink:href="namespacebsn_1_1goalmodel.html#ae667127e89e6ad5a47bc0c6e86601687" target="_top" xlink:title=" ">
<polygon fill="#ffffff" stroke="#000000" points="0,-88.5 0,-107.5 136,-107.5 136,-88.5 0,-88.5"/>
<text text-anchor="middle" x="68" y="-95.5" font-family="Helvetica,sans-Serif" font-size="10.00" fill="#000000">bsn::goalmodel::operator&lt;&lt;</text>
</a>
</g>
</g>
<!-- Node1&#45;&gt;Node2 -->
<g id="edge1" class="edge">
<title>Node1&#45;&gt;Node2</title>
<path fill="none" stroke="#191970" d="M163.6476,-71.6969C142.8723,-77.4101 120.6319,-83.5262 102.8301,-88.4217"/>
<polygon fill="#191970" stroke="#191970" points="164.6706,-75.0456 173.3846,-69.0192 162.8145,-68.2962 164.6706,-75.0456"/>
</g>
<!-- Node3 -->
<g id="node3" class="node">
<title>Node3</title>
<g id="a_node3"><a xlink:href="classbsn_1_1goalmodel_1_1Node.html#a9a08ece2f46032f7fe474d341c3c22db" target="_top" xlink:title=" ">
<polygon fill="#ffffff" stroke="#000000" points="12,-39 12,-69 124,-69 124,-39 12,-39"/>
<text text-anchor="start" x="20" y="-57" font-family="Helvetica,sans-Serif" font-size="10.00" fill="#000000">bsn::goalmodel::Node</text>
<text text-anchor="middle" x="68" y="-46" font-family="Helvetica,sans-Serif" font-size="10.00" fill="#000000">::operator=</text>
</a>
</g>
</g>
<!-- Node1&#45;&gt;Node3 -->
<g id="edge2" class="edge">
<title>Node1&#45;&gt;Node3</title>
<path fill="none" stroke="#191970" d="M161.337,-54C148.9766,-54 136.1792,-54 124.1701,-54"/>
<polygon fill="#191970" stroke="#191970" points="161.59,-57.5001 171.59,-54 161.59,-50.5001 161.59,-57.5001"/>
</g>
<!-- Node4 -->
<g id="node4" class="node">
<title>Node4</title>
<g id="a_node4"><a xlink:href="GoalTest_8cpp.html#abed759dcd13129d547f84bfe9eaf1ee3" target="_top" xlink:title=" ">
<polygon fill="#ffffff" stroke="#000000" points="41.5,-.5 41.5,-19.5 94.5,-19.5 94.5,-.5 41.5,-.5"/>
<text text-anchor="middle" x="68" y="-7.5" font-family="Helvetica,sans-Serif" font-size="10.00" fill="#000000">TEST_F</text>
</a>
</g>
</g>
<!-- Node1&#45;&gt;Node4 -->
<g id="edge3" class="edge">
<title>Node1&#45;&gt;Node4</title>
<path fill="none" stroke="#191970" d="M163.5558,-36.2779C139.4481,-29.6482 113.3802,-22.4795 94.5709,-17.307"/>
<polygon fill="#191970" stroke="#191970" points="162.8145,-39.7038 173.3846,-38.9808 164.6706,-32.9544 162.8145,-39.7038"/>
</g>
</g>
</svg>
