<?xml version="1.0" encoding="UTF-8" standalone="no"?>
<!DOCTYPE svg PUBLIC "-//W3C//DTD SVG 1.1//EN"
 "http://www.w3.org/Graphics/SVG/1.1/DTD/svg11.dtd">
<!-- Generated by graphviz version 2.40.1 (20161225.0304)
 -->
<!-- Title: Analyzer.Analyzer.run Pages: 1 -->
<svg width="1079pt" height="607pt"
 viewBox="0.00 0.00 1079.00 606.50" xmlns="http://www.w3.org/2000/svg" xmlns:xlink="http://www.w3.org/1999/xlink">
<g id="graph0" class="graph" transform="scale(1 1) rotate(0) translate(4 602.5)">
<title>Analyzer.Analyzer.run</title>
<polygon fill="#ffffff" stroke="transparent" points="-4,4 -4,-602.5 1075,-602.5 1075,4 -4,4"/>
<!-- Node1 -->
<g id="node1" class="node">
<title>Node1</title>
<g id="a_node1"><a xlink:title=" ">
<polygon fill="#bfbfbf" stroke="#000000" points="0,-216.5 0,-235.5 113,-235.5 113,-216.5 0,-216.5"/>
<text text-anchor="middle" x="56.5" y="-223.5" font-family="Helvetica,sans-Serif" font-size="10.00" fill="#000000">Analyzer.Analyzer.run</text>
</a>
</g>
</g>
<!-- Node2 -->
<g id="node2" class="node">
<title>Node2</title>
<g id="a_node2"><a xlink:href="classarch_1_1target__system_1_1Probe.html#a314459b75344ac065eea914ed1646c51" target="_top" xlink:title=" ">
<polygon fill="#ffffff" stroke="#000000" points="162.5,-519 162.5,-549 266.5,-549 266.5,-519 162.5,-519"/>
<text text-anchor="start" x="170.5" y="-537" font-family="Helvetica,sans-Serif" font-size="10.00" fill="#000000">arch::target_system</text>
<text text-anchor="middle" x="214.5" y="-526" font-family="Helvetica,sans-Serif" font-size="10.00" fill="#000000">::Probe::body</text>
</a>
</g>
</g>
<!-- Node1&#45;&gt;Node2 -->
<g id="edge1" class="edge">
<title>Node1&#45;&gt;Node2</title>
<path fill="none" stroke="#191970" d="M59.9012,-235.7103C70.8694,-266.5525 107.0425,-364.6872 149,-440 163.1231,-465.3507 182.4222,-492.3366 196.4107,-510.8603"/>
<polygon fill="#191970" stroke="#191970" points="193.7642,-513.1616 202.6156,-518.9843 199.3273,-508.9127 193.7642,-513.1616"/>
</g>
<!-- Node5 -->
<g id="node5" class="node">
<title>Node5</title>
<g id="a_node5"><a xlink:href="classPatientModule.html#af9680229178013ce1256b3720522a06a" target="_top" xlink:title=" ">
<polygon fill="#ffffff" stroke="#000000" points="161.5,-411.5 161.5,-430.5 267.5,-430.5 267.5,-411.5 161.5,-411.5"/>
<text text-anchor="middle" x="214.5" y="-418.5" font-family="Helvetica,sans-Serif" font-size="10.00" fill="#000000">PatientModule::body</text>
</a>
</g>
</g>
<!-- Node1&#45;&gt;Node5 -->
<g id="edge4" class="edge">
<title>Node1&#45;&gt;Node5</title>
<path fill="none" stroke="#191970" d="M58.7343,-235.7092C66.0774,-265.3931 92.3107,-355.7231 149,-402 151.1612,-403.7642 153.4795,-405.3647 155.9075,-406.8165"/>
<polygon fill="#191970" stroke="#191970" points="154.591,-410.0724 165.0958,-411.4506 157.7432,-403.8223 154.591,-410.0724"/>
</g>
<!-- Node6 -->
<g id="node6" class="node">
<title>Node6</title>
<g id="a_node6"><a xlink:href="classDataAccess.html#a01b996865224272d1bcafe6307442422" target="_top" xlink:title=" ">
<polygon fill="#ffffff" stroke="#000000" points="165.5,-235.5 165.5,-254.5 263.5,-254.5 263.5,-235.5 165.5,-235.5"/>
<text text-anchor="middle" x="214.5" y="-242.5" font-family="Helvetica,sans-Serif" font-size="10.00" fill="#000000">DataAccess::body</text>
</a>
</g>
</g>
<!-- Node1&#45;&gt;Node6 -->
<g id="edge5" class="edge">
<title>Node1&#45;&gt;Node6</title>
<path fill="none" stroke="#191970" d="M113.0954,-232.8058C126.7137,-234.4434 141.3004,-236.1975 155.0449,-237.8503"/>
<polygon fill="#191970" stroke="#191970" points="155.0149,-241.3719 165.3612,-239.0909 155.8507,-234.4219 155.0149,-241.3719"/>
</g>
<!-- Node8 -->
<g id="node8" class="node">
<title>Node8</title>
<g id="a_node8"><a xlink:href="classLogger.html#ab3c76b5d301fa8eb1e20f779aa179883" target="_top" xlink:title=" ">
<polygon fill="#ffffff" stroke="#000000" points="178,-373.5 178,-392.5 251,-392.5 251,-373.5 178,-373.5"/>
<text text-anchor="middle" x="214.5" y="-380.5" font-family="Helvetica,sans-Serif" font-size="10.00" fill="#000000">Logger::body</text>
</a>
</g>
</g>
<!-- Node1&#45;&gt;Node8 -->
<g id="edge7" class="edge">
<title>Node1&#45;&gt;Node8</title>
<path fill="none" stroke="#191970" d="M66.3836,-235.8211C92.6523,-261.9235 164.4463,-333.2631 197.469,-366.0767"/>
<polygon fill="#191970" stroke="#191970" points="195.0596,-368.6168 204.6201,-373.1827 199.9936,-363.6513 195.0596,-368.6168"/>
</g>
<!-- Node13 -->
<g id="node13" class="node">
<title>Node13</title>
<g id="a_node13"><a xlink:href="classEngine.html#ae164dcb3bf318cb307ab7266974c2064" target="_top" xlink:title=" ">
<polygon fill="#ffffff" stroke="#000000" points="177.5,-275.5 177.5,-294.5 251.5,-294.5 251.5,-275.5 177.5,-275.5"/>
<text text-anchor="middle" x="214.5" y="-282.5" font-family="Helvetica,sans-Serif" font-size="10.00" fill="#000000">Engine::body</text>
</a>
</g>
</g>
<!-- Node1&#45;&gt;Node13 -->
<g id="edge12" class="edge">
<title>Node1&#45;&gt;Node13</title>
<path fill="none" stroke="#191970" d="M78.3612,-235.5565C96.9843,-243.5583 124.5371,-255.0697 149,-264 156.8155,-266.8531 165.2284,-269.7087 173.3347,-272.354"/>
<polygon fill="#191970" stroke="#191970" points="172.4185,-275.7358 183.0098,-275.4623 174.5596,-269.0713 172.4185,-275.7358"/>
</g>
<!-- Node20 -->
<g id="node20" class="node">
<title>Node20</title>
<g id="a_node20"><a xlink:href="classEnactor.html#abd25ade60e175a09b8a71f2d0c87c7d1" target="_top" xlink:title=" ">
<polygon fill="#ffffff" stroke="#000000" points="176,-197.5 176,-216.5 253,-216.5 253,-197.5 176,-197.5"/>
<text text-anchor="middle" x="214.5" y="-204.5" font-family="Helvetica,sans-Serif" font-size="10.00" fill="#000000">Enactor::body</text>
</a>
</g>
</g>
<!-- Node1&#45;&gt;Node20 -->
<g id="edge22" class="edge">
<title>Node1&#45;&gt;Node20</title>
<path fill="none" stroke="#191970" d="M113.0954,-219.1942C130.2542,-217.1308 148.9504,-214.8825 165.5623,-212.8849"/>
<polygon fill="#191970" stroke="#191970" points="166.0932,-216.3464 175.6038,-211.6774 165.2574,-209.3964 166.0932,-216.3464"/>
</g>
<!-- Node25 -->
<g id="node25" class="node">
<title>Node25</title>
<g id="a_node25"><a xlink:href="classarch_1_1ROSComponent.html#ad59a3de60bed73bf6d37f0da4775a2d9" target="_top" xlink:title=" ">
<polygon fill="#ffffff" stroke="#000000" points="158,-148 158,-178 271,-178 271,-148 158,-148"/>
<text text-anchor="start" x="166" y="-166" font-family="Helvetica,sans-Serif" font-size="10.00" fill="#000000">arch::ROSComponent</text>
<text text-anchor="middle" x="214.5" y="-155" font-family="Helvetica,sans-Serif" font-size="10.00" fill="#000000">::body</text>
</a>
</g>
</g>
<!-- Node1&#45;&gt;Node25 -->
<g id="edge30" class="edge">
<title>Node1&#45;&gt;Node25</title>
<path fill="none" stroke="#191970" d="M79.2435,-216.47C97.928,-208.6859 125.1116,-197.4639 149,-188 154.1629,-185.9546 159.566,-183.8442 164.9597,-181.7569"/>
<polygon fill="#191970" stroke="#191970" points="166.5296,-184.903 174.6043,-178.0438 164.0145,-178.3704 166.5296,-184.903"/>
</g>
<!-- Node26 -->
<g id="node26" class="node">
<title>Node26</title>
<g id="a_node26"><a xlink:href="classarch_1_1target__system_1_1Component.html#ac473539ffdccdef20318a6c4bfea0b22" target="_top" xlink:title=" ">
<polygon fill="#ffffff" stroke="#000000" points="162.5,-99 162.5,-129 266.5,-129 266.5,-99 162.5,-99"/>
<text text-anchor="start" x="170.5" y="-117" font-family="Helvetica,sans-Serif" font-size="10.00" fill="#000000">arch::target_system</text>
<text text-anchor="middle" x="214.5" y="-106" font-family="Helvetica,sans-Serif" font-size="10.00" fill="#000000">::Component::body</text>
</a>
</g>
</g>
<!-- Node1&#45;&gt;Node26 -->
<g id="edge31" class="edge">
<title>Node1&#45;&gt;Node26</title>
<path fill="none" stroke="#191970" d="M64.1749,-216.4605C78.8934,-198.728 112.8494,-160.456 149,-138 151.5912,-136.3904 154.3066,-134.8652 157.0966,-133.4234"/>
<polygon fill="#191970" stroke="#191970" points="158.6682,-136.5517 166.2007,-129.1011 155.666,-130.2282 158.6682,-136.5517"/>
</g>
<!-- Node27 -->
<g id="node27" class="node">
<title>Node27</title>
<g id="a_node27"><a xlink:href="classAnalyzer_1_1Analyzer.html#a75c130bcdd93d4af5ff6f8ea3728d573" target="_top" xlink:title=" ">
<polygon fill="#ffffff" stroke="#000000" points="154.5,-60.5 154.5,-79.5 274.5,-79.5 274.5,-60.5 154.5,-60.5"/>
<text text-anchor="middle" x="214.5" y="-67.5" font-family="Helvetica,sans-Serif" font-size="10.00" fill="#000000">Analyzer.Analyzer.body</text>
</a>
</g>
</g>
<!-- Node1&#45;&gt;Node27 -->
<g id="edge32" class="edge">
<title>Node1&#45;&gt;Node27</title>
<path fill="none" stroke="#191970" d="M60.2391,-216.3469C70.4391,-191.3088 101.2172,-123.8117 149,-89 151.6796,-87.0478 154.5566,-85.2954 157.5557,-83.7224"/>
<polygon fill="#191970" stroke="#191970" points="159.1754,-86.8312 166.8445,-79.5211 156.2907,-80.4532 159.1754,-86.8312"/>
</g>
<!-- Node30 -->
<g id="node30" class="node">
<title>Node30</title>
<g id="a_node30"><a xlink:href="classAnalyzer_1_1Analyzer.html#a7a0cc258a30399078ec229d206b775cb" target="_top" xlink:title=" ">
<polygon fill="#ffffff" stroke="#000000" points="149,-11 149,-41 280,-41 280,-11 149,-11"/>
<text text-anchor="start" x="157" y="-29" font-family="Helvetica,sans-Serif" font-size="10.00" fill="#000000">Analyzer.Analyzer.receive</text>
<text text-anchor="middle" x="214.5" y="-18" font-family="Helvetica,sans-Serif" font-size="10.00" fill="#000000">_enactor_info</text>
</a>
</g>
</g>
<!-- Node1&#45;&gt;Node30 -->
<g id="edge36" class="edge">
<title>Node1&#45;&gt;Node30</title>
<path fill="none" stroke="#191970" d="M59.0368,-216.1342C67.0737,-186.7805 94.7061,-99.0615 149,-51 150.9139,-49.3058 152.9546,-47.7213 155.0883,-46.2399"/>
<polygon fill="#191970" stroke="#191970" points="156.9651,-49.1952 163.7085,-41.0235 153.341,-43.2064 156.9651,-49.1952"/>
</g>
<!-- Node3 -->
<g id="node3" class="node">
<title>Node3</title>
<g id="a_node3"><a xlink:href="classarch_1_1target__system_1_1Probe.html#a01aead06d320f6f2e583a1dbcf0990cf" target="_top" xlink:title=" ">
<polygon fill="#ffffff" stroke="#000000" points="341,-519 341,-549 449,-549 449,-519 341,-519"/>
<text text-anchor="start" x="349" y="-537" font-family="Helvetica,sans-Serif" font-size="10.00" fill="#000000">arch::target_system</text>
<text text-anchor="middle" x="395" y="-526" font-family="Helvetica,sans-Serif" font-size="10.00" fill="#000000">::Probe::collectEvent</text>
</a>
</g>
</g>
<!-- Node2&#45;&gt;Node3 -->
<g id="edge2" class="edge">
<title>Node2&#45;&gt;Node3</title>
<path fill="none" stroke="#191970" d="M266.7081,-534C286.6614,-534 309.6513,-534 330.6092,-534"/>
<polygon fill="#191970" stroke="#191970" points="330.7122,-537.5001 340.7121,-534 330.7121,-530.5001 330.7122,-537.5001"/>
</g>
<!-- Node4 -->
<g id="node4" class="node">
<title>Node4</title>
<g id="a_node4"><a xlink:href="classarch_1_1target__system_1_1Probe.html#a2e582662575d5bec28730fd3b95296de" target="_top" xlink:title=" ">
<polygon fill="#ffffff" stroke="#000000" points="339.5,-568 339.5,-598 450.5,-598 450.5,-568 339.5,-568"/>
<text text-anchor="start" x="347.5" y="-586" font-family="Helvetica,sans-Serif" font-size="10.00" fill="#000000">arch::target_system</text>
<text text-anchor="middle" x="395" y="-575" font-family="Helvetica,sans-Serif" font-size="10.00" fill="#000000">::Probe::collectStatus</text>
</a>
</g>
</g>
<!-- Node2&#45;&gt;Node4 -->
<g id="edge3" class="edge">
<title>Node2&#45;&gt;Node4</title>
<path fill="none" stroke="#191970" d="M266.7081,-548.1728C286.3925,-553.5165 309.0323,-559.6625 329.7609,-565.2897"/>
<polygon fill="#191970" stroke="#191970" points="328.8786,-568.6767 339.4463,-567.9189 330.7125,-561.9212 328.8786,-568.6767"/>
</g>
<!-- Node7 -->
<g id="node7" class="node">
<title>Node7</title>
<g id="a_node7"><a xlink:href="classarch_1_1ROSComponentDescriptor.html#a4b73f46f37241865a08e75ab202e28eb" target="_top" xlink:title=" ">
<polygon fill="#ffffff" stroke="#000000" points="316,-229 316,-259 474,-259 474,-229 316,-229"/>
<text text-anchor="start" x="324" y="-247" font-family="Helvetica,sans-Serif" font-size="10.00" fill="#000000">arch::ROSComponentDescriptor</text>
<text text-anchor="middle" x="395" y="-236" font-family="Helvetica,sans-Serif" font-size="10.00" fill="#000000">::getFreq</text>
</a>
</g>
</g>
<!-- Node6&#45;&gt;Node7 -->
<g id="edge6" class="edge">
<title>Node6&#45;&gt;Node7</title>
<path fill="none" stroke="#191970" d="M263.8224,-244.7267C276.7574,-244.6551 291.1155,-244.5755 305.45,-244.4961"/>
<polygon fill="#191970" stroke="#191970" points="305.8825,-247.9939 315.8629,-244.4384 305.8436,-240.994 305.8825,-247.9939"/>
</g>
<!-- Node9 -->
<g id="node9" class="node">
<title>Node9</title>
<g id="a_node9"><a xlink:href="classLogger.html#a91dc05b6320e8749822ea4b5d4bc816e" target="_top" xlink:title=" ">
<polygon fill="#ffffff" stroke="#000000" points="330,-431 330,-461 460,-461 460,-431 330,-431"/>
<text text-anchor="start" x="338" y="-449" font-family="Helvetica,sans-Serif" font-size="10.00" fill="#000000">Logger::receiveAdaptation</text>
<text text-anchor="middle" x="395" y="-438" font-family="Helvetica,sans-Serif" font-size="10.00" fill="#000000">Command</text>
</a>
</g>
</g>
<!-- Node8&#45;&gt;Node9 -->
<g id="edge8" class="edge">
<title>Node8&#45;&gt;Node9</title>
<path fill="none" stroke="#191970" d="M251.3254,-392.2596C260.7996,-395.0271 270.8882,-398.3186 280,-402 296.7743,-408.7773 299.3088,-414.0206 316,-421 321.4415,-423.2754 327.1664,-425.4632 332.9444,-427.5331"/>
<polygon fill="#191970" stroke="#191970" points="332.0828,-430.9385 342.6776,-430.8999 334.3712,-424.3231 332.0828,-430.9385"/>
</g>
<!-- Node10 -->
<g id="node10" class="node">
<title>Node10</title>
<g id="a_node10"><a xlink:href="classLogger.html#ac5d3c71ae88d6e66f1a0f082a621f045" target="_top" xlink:title=" ">
<polygon fill="#ffffff" stroke="#000000" points="340.5,-392.5 340.5,-411.5 449.5,-411.5 449.5,-392.5 340.5,-392.5"/>
<text text-anchor="middle" x="395" y="-399.5" font-family="Helvetica,sans-Serif" font-size="10.00" fill="#000000">Logger::receiveEvent</text>
</a>
</g>
</g>
<!-- Node8&#45;&gt;Node10 -->
<g id="edge9" class="edge">
<title>Node8&#45;&gt;Node10</title>
<path fill="none" stroke="#191970" d="M251.0269,-386.8449C273.7714,-389.2391 303.6733,-392.3867 330.3299,-395.1926"/>
<polygon fill="#191970" stroke="#191970" points="330.0542,-398.6829 340.3657,-396.249 330.7871,-391.7213 330.0542,-398.6829"/>
</g>
<!-- Node11 -->
<g id="node11" class="node">
<title>Node11</title>
<g id="a_node11"><a xlink:href="classLogger.html#ae9034d8bf4e3fef539c6eca091cd8c43" target="_top" xlink:title=" ">
<polygon fill="#ffffff" stroke="#000000" points="339,-354.5 339,-373.5 451,-373.5 451,-354.5 339,-354.5"/>
<text text-anchor="middle" x="395" y="-361.5" font-family="Helvetica,sans-Serif" font-size="10.00" fill="#000000">Logger::receiveStatus</text>
</a>
</g>
</g>
<!-- Node8&#45;&gt;Node11 -->
<g id="edge10" class="edge">
<title>Node8&#45;&gt;Node11</title>
<path fill="none" stroke="#191970" d="M251.0269,-379.1551C273.3074,-376.8097 302.4564,-373.7414 328.6947,-370.9795"/>
<polygon fill="#191970" stroke="#191970" points="329.3882,-374.4259 338.9668,-369.8982 328.6553,-367.4644 329.3882,-374.4259"/>
</g>
<!-- Node12 -->
<g id="node12" class="node">
<title>Node12</title>
<g id="a_node12"><a xlink:href="classLogger.html#a5e58080a4857c3ceba7cac7c14e96585" target="_top" xlink:title=" ">
<polygon fill="#ffffff" stroke="#000000" points="328,-480.5 328,-499.5 462,-499.5 462,-480.5 328,-480.5"/>
<text text-anchor="middle" x="395" y="-487.5" font-family="Helvetica,sans-Serif" font-size="10.00" fill="#000000">Logger::receiveUncertainty</text>
</a>
</g>
</g>
<!-- Node8&#45;&gt;Node12 -->
<g id="edge11" class="edge">
<title>Node8&#45;&gt;Node12</title>
<path fill="none" stroke="#191970" d="M251.0053,-388.0902C261.2119,-390.8963 271.7551,-395.2488 280,-402 306.7624,-423.9139 288.7375,-449.7115 316,-471 318.2931,-472.7906 320.7296,-474.4161 323.2713,-475.8913"/>
<polygon fill="#191970" stroke="#191970" points="321.7497,-479.0434 332.2637,-480.3501 324.8594,-472.7721 321.7497,-479.0434"/>
</g>
<!-- Node13&#45;&gt;Node7 -->
<g id="edge13" class="edge">
<title>Node13&#45;&gt;Node7</title>
<path fill="none" stroke="#191970" d="M251.8997,-276.5048C271.3257,-272.0922 295.7956,-266.534 318.9803,-261.2676"/>
<polygon fill="#191970" stroke="#191970" points="319.8431,-264.6609 328.8194,-259.0327 318.2925,-257.8348 319.8431,-264.6609"/>
</g>
<!-- Node14 -->
<g id="node14" class="node">
<title>Node14</title>
<g id="a_node14"><a xlink:href="classEngine.html#a12dad259f34682ecd038340031e31d85" target="_top" xlink:title=" ">
<polygon fill="#ffffff" stroke="#000000" points="352.5,-278.5 352.5,-297.5 437.5,-297.5 437.5,-278.5 352.5,-278.5"/>
<text text-anchor="middle" x="395" y="-285.5" font-family="Helvetica,sans-Serif" font-size="10.00" fill="#000000">Engine::monitor</text>
</a>
</g>
</g>
<!-- Node13&#45;&gt;Node14 -->
<g id="edge14" class="edge">
<title>Node13&#45;&gt;Node14</title>
<path fill="none" stroke="#191970" d="M251.8997,-285.6216C277.9263,-286.0542 313.0069,-286.6372 341.9201,-287.1178"/>
<polygon fill="#191970" stroke="#191970" points="342.2083,-290.623 352.2651,-287.2897 342.3247,-283.6239 342.2083,-290.623"/>
</g>
<!-- Node19 -->
<g id="node19" class="node">
<title>Node19</title>
<g id="a_node19"><a xlink:href="classEngine.html#aea9c523a0feb05871f020d4fd4f417e4" target="_top" xlink:title=" ">
<polygon fill="#ffffff" stroke="#000000" points="666,-312.5 666,-331.5 794,-331.5 794,-312.5 666,-312.5"/>
<text text-anchor="middle" x="730" y="-319.5" font-family="Helvetica,sans-Serif" font-size="10.00" fill="#000000">Engine::receiveException</text>
</a>
</g>
</g>
<!-- Node13&#45;&gt;Node19 -->
<g id="edge20" class="edge">
<title>Node13&#45;&gt;Node19</title>
<path fill="none" stroke="#191970" d="M250.8754,-294.5216C270.0988,-299.1363 294.1737,-304.2611 316,-307 434.1715,-321.8286 572.6879,-323.7497 655.7846,-323.2572"/>
<polygon fill="#191970" stroke="#191970" points="655.9132,-326.7564 665.8875,-323.1837 655.8623,-319.7566 655.9132,-326.7564"/>
</g>
<!-- Node15 -->
<g id="node15" class="node">
<title>Node15</title>
<g id="a_node15"><a xlink:href="classEngine.html#ac885ef7a80556ab1b21a043d7dc2b1c9" target="_top" xlink:title=" ">
<polygon fill="#ffffff" stroke="#000000" points="527,-218.5 527,-237.5 613,-237.5 613,-218.5 527,-218.5"/>
<text text-anchor="middle" x="570" y="-225.5" font-family="Helvetica,sans-Serif" font-size="10.00" fill="#000000">Engine::analyze</text>
</a>
</g>
</g>
<!-- Node14&#45;&gt;Node15 -->
<g id="edge15" class="edge">
<title>Node14&#45;&gt;Node15</title>
<path fill="none" stroke="#191970" d="M437.5607,-278.4428C449.4566,-275.4432 462.3214,-271.888 474,-268 496.6118,-260.4722 521.427,-250.0735 540.1624,-241.7655"/>
<polygon fill="#191970" stroke="#191970" points="541.6709,-244.9249 549.3617,-237.6378 538.8052,-238.5383 541.6709,-244.9249"/>
</g>
<!-- Node18 -->
<g id="node18" class="node">
<title>Node18</title>
<g id="a_node18"><a xlink:href="namespacebsn_1_1utils.html#a4ab7be3d27380abe032f4ceec86b09b2" target="_top" xlink:title=" ">
<polygon fill="#ffffff" stroke="#000000" points="991,-218.5 991,-237.5 1071,-237.5 1071,-218.5 991,-218.5"/>
<text text-anchor="middle" x="1031" y="-225.5" font-family="Helvetica,sans-Serif" font-size="10.00" fill="#000000">bsn::utils::split</text>
</a>
</g>
</g>
<!-- Node14&#45;&gt;Node18 -->
<g id="edge19" class="edge">
<title>Node14&#45;&gt;Node18</title>
<path fill="none" stroke="#191970" d="M437.7913,-287.3691C531.8996,-285.4356 763.6985,-277.682 955,-247 965.7872,-245.2699 977.2876,-242.7548 987.9916,-240.1177"/>
<polygon fill="#191970" stroke="#191970" points="989.1368,-243.4377 997.9608,-237.5737 987.4059,-236.6551 989.1368,-243.4377"/>
</g>
<!-- Node16 -->
<g id="node16" class="node">
<title>Node16</title>
<g id="a_node16"><a xlink:href="classEngine.html#ada990715b8c10f1ad972892efa58d106" target="_top" xlink:title=" ">
<polygon fill="#ffffff" stroke="#000000" points="694.5,-218.5 694.5,-237.5 765.5,-237.5 765.5,-218.5 694.5,-218.5"/>
<text text-anchor="middle" x="730" y="-225.5" font-family="Helvetica,sans-Serif" font-size="10.00" fill="#000000">Engine::plan</text>
</a>
</g>
</g>
<!-- Node15&#45;&gt;Node16 -->
<g id="edge16" class="edge">
<title>Node15&#45;&gt;Node16</title>
<path fill="none" stroke="#191970" d="M613.2983,-228C635.2695,-228 661.956,-228 684.2614,-228"/>
<polygon fill="#191970" stroke="#191970" points="684.4932,-231.5001 694.4931,-228 684.4931,-224.5001 684.4932,-231.5001"/>
</g>
<!-- Node17 -->
<g id="node17" class="node">
<title>Node17</title>
<g id="a_node17"><a xlink:href="classEngine.html#a1ec215a11a8703c09f61e57e23ea41e8" target="_top" xlink:title=" ">
<polygon fill="#ffffff" stroke="#000000" points="849,-218.5 849,-237.5 936,-237.5 936,-218.5 849,-218.5"/>
<text text-anchor="middle" x="892.5" y="-225.5" font-family="Helvetica,sans-Serif" font-size="10.00" fill="#000000">Engine::execute</text>
</a>
</g>
</g>
<!-- Node16&#45;&gt;Node17 -->
<g id="edge17" class="edge">
<title>Node16&#45;&gt;Node17</title>
<path fill="none" stroke="#191970" d="M765.6613,-228C787.0794,-228 814.7465,-228 838.7726,-228"/>
<polygon fill="#191970" stroke="#191970" points="838.8178,-231.5001 848.8177,-228 838.8177,-224.5001 838.8178,-231.5001"/>
</g>
<!-- Node17&#45;&gt;Node18 -->
<g id="edge18" class="edge">
<title>Node17&#45;&gt;Node18</title>
<path fill="none" stroke="#191970" d="M936.3223,-228C950.3521,-228 965.9988,-228 980.4671,-228"/>
<polygon fill="#191970" stroke="#191970" points="980.7541,-231.5001 990.754,-228 980.754,-224.5001 980.7541,-231.5001"/>
</g>
<!-- Node19&#45;&gt;Node18 -->
<g id="edge21" class="edge">
<title>Node19&#45;&gt;Node18</title>
<path fill="none" stroke="#191970" d="M794.16,-322.8946C840.6364,-321.3329 903.9983,-314.5453 955,-292 979.2274,-281.2903 1001.7357,-260.4003 1015.8697,-245.3971"/>
<polygon fill="#191970" stroke="#191970" points="1018.6711,-247.5191 1022.818,-237.7696 1013.4963,-242.8051 1018.6711,-247.5191"/>
</g>
<!-- Node20&#45;&gt;Node7 -->
<g id="edge23" class="edge">
<title>Node20&#45;&gt;Node7</title>
<path fill="none" stroke="#191970" d="M253.2218,-214.9374C270.4027,-218.4593 291.3305,-222.7492 311.7747,-226.94"/>
<polygon fill="#191970" stroke="#191970" points="311.2543,-230.406 321.7535,-228.9855 312.6601,-223.5486 311.2543,-230.406"/>
</g>
<!-- Node21 -->
<g id="node21" class="node">
<title>Node21</title>
<g id="a_node21"><a xlink:href="classEnactor.html#ad79da88b560bc32a380cc9f506fddf5a" target="_top" xlink:title=" ">
<polygon fill="#ffffff" stroke="#000000" points="338.5,-190.5 338.5,-209.5 451.5,-209.5 451.5,-190.5 338.5,-190.5"/>
<text text-anchor="middle" x="395" y="-197.5" font-family="Helvetica,sans-Serif" font-size="10.00" fill="#000000">Enactor::receiveEvent</text>
</a>
</g>
</g>
<!-- Node20&#45;&gt;Node21 -->
<g id="edge24" class="edge">
<title>Node20&#45;&gt;Node21</title>
<path fill="none" stroke="#191970" d="M253.2218,-205.4983C274.9812,-204.6545 302.7506,-203.5775 327.9358,-202.6008"/>
<polygon fill="#191970" stroke="#191970" points="328.3193,-206.0887 338.1761,-202.2037 328.0479,-199.0939 328.3193,-206.0887"/>
</g>
<!-- Node22 -->
<g id="node22" class="node">
<title>Node22</title>
<g id="a_node22"><a xlink:href="classEnactor.html#a9e10c68a47e83737f8b45b9c504cdc97" target="_top" xlink:title=" ">
<polygon fill="#ffffff" stroke="#000000" points="337,-114.5 337,-133.5 453,-133.5 453,-114.5 337,-114.5"/>
<text text-anchor="middle" x="395" y="-121.5" font-family="Helvetica,sans-Serif" font-size="10.00" fill="#000000">Enactor::receiveStatus</text>
</a>
</g>
</g>
<!-- Node20&#45;&gt;Node22 -->
<g id="edge25" class="edge">
<title>Node20&#45;&gt;Node22</title>
<path fill="none" stroke="#191970" d="M250.6657,-197.4031C260.3368,-194.4472 270.6866,-190.9241 280,-187 312.8204,-173.1716 348.4748,-152.7166 371.2422,-138.8987"/>
<polygon fill="#191970" stroke="#191970" points="373.1849,-141.8131 379.8777,-133.5999 369.5239,-135.8467 373.1849,-141.8131"/>
</g>
<!-- Node24 -->
<g id="node24" class="node">
<title>Node24</title>
<g id="a_node24"><a xlink:href="classEnactor.html#aee03d216ab1a7ed1b841cefac05541c5" target="_top" xlink:title=" ">
<polygon fill="#ffffff" stroke="#000000" points="830,-108.5 830,-127.5 955,-127.5 955,-108.5 830,-108.5"/>
<text text-anchor="middle" x="892.5" y="-115.5" font-family="Helvetica,sans-Serif" font-size="10.00" fill="#000000">Enactor::receiveStrategy</text>
</a>
</g>
</g>
<!-- Node20&#45;&gt;Node24 -->
<g id="edge28" class="edge">
<title>Node20&#45;&gt;Node24</title>
<path fill="none" stroke="#191970" d="M253.0221,-201.1388C262.6886,-198.1757 272.447,-193.715 280,-187 309.7461,-160.5544 282.6756,-126.7643 316,-105 397.5891,-51.7139 688.4786,-86.9898 823.1554,-106.9472"/>
<polygon fill="#191970" stroke="#191970" points="822.9488,-110.4551 833.3567,-108.4739 823.985,-103.5322 822.9488,-110.4551"/>
</g>
<!-- Node22&#45;&gt;Node18 -->
<g id="edge27" class="edge">
<title>Node22&#45;&gt;Node18</title>
<path fill="none" stroke="#191970" d="M451.4151,-133.5113C470.0563,-136.6032 490.9078,-140.0072 510,-143 707.5291,-173.9637 758.8912,-170.0404 955,-209 965.1049,-211.0075 975.884,-213.4905 986.0536,-215.9919"/>
<polygon fill="#191970" stroke="#191970" points="985.4211,-219.4416 995.9724,-218.4824 987.1259,-212.6524 985.4211,-219.4416"/>
</g>
<!-- Node23 -->
<g id="node23" class="node">
<title>Node23</title>
<g id="a_node23"><a xlink:href="classEnactor.html#a152ab8591c791f3df8a8e650ad4d776b" target="_top" xlink:title=" ">
<polygon fill="#ffffff" stroke="#000000" points="510,-114.5 510,-133.5 630,-133.5 630,-114.5 510,-114.5"/>
<text text-anchor="middle" x="570" y="-121.5" font-family="Helvetica,sans-Serif" font-size="10.00" fill="#000000">Enactor::apply_strategy</text>
</a>
</g>
</g>
<!-- Node22&#45;&gt;Node23 -->
<g id="edge26" class="edge">
<title>Node22&#45;&gt;Node23</title>
<path fill="none" stroke="#191970" d="M453.2725,-124C468.1985,-124 484.4064,-124 499.8614,-124"/>
<polygon fill="#191970" stroke="#191970" points="499.8878,-127.5001 509.8878,-124 499.8878,-120.5001 499.8878,-127.5001"/>
</g>
<!-- Node24&#45;&gt;Node18 -->
<g id="edge29" class="edge">
<title>Node24&#45;&gt;Node18</title>
<path fill="none" stroke="#191970" d="M904.791,-127.7618C928.7726,-146.8086 981.9955,-189.0795 1011.0787,-212.1781"/>
<polygon fill="#191970" stroke="#191970" points="1008.9268,-214.9386 1018.9343,-218.4172 1013.2804,-209.457 1008.9268,-214.9386"/>
</g>
<!-- Node27&#45;&gt;Node15 -->
<g id="edge33" class="edge">
<title>Node27&#45;&gt;Node15</title>
<path fill="none" stroke="#191970" d="M262.5157,-79.6255C268.7291,-82.0772 274.7478,-85.1499 280,-89 303.2635,-106.0532 292.348,-126.49 316,-143 375.2232,-184.3401 406.7039,-154.7774 474,-181 491.0544,-187.6454 493.6399,-192.7928 510,-201 519.0933,-205.5618 529.1216,-210.2174 538.3336,-214.3494"/>
<polygon fill="#191970" stroke="#191970" points="537.0042,-217.5885 547.5647,-218.44 539.8402,-211.1887 537.0042,-217.5885"/>
</g>
<!-- Node28 -->
<g id="node28" class="node">
<title>Node28</title>
<g id="a_node28"><a xlink:href="classAnalyzer_1_1Analyzer.html#aac2d87c6c1fbafe663d52dee74770d03" target="_top" xlink:title=" ">
<polygon fill="#ffffff" stroke="#000000" points="328.5,-38.5 328.5,-57.5 461.5,-57.5 461.5,-38.5 328.5,-38.5"/>
<text text-anchor="middle" x="395" y="-45.5" font-family="Helvetica,sans-Serif" font-size="10.00" fill="#000000">Analyzer.Analyzer.analyze</text>
</a>
</g>
</g>
<!-- Node27&#45;&gt;Node28 -->
<g id="edge34" class="edge">
<title>Node27&#45;&gt;Node28</title>
<path fill="none" stroke="#191970" d="M274.6039,-62.6743C288.6025,-60.9681 303.6943,-59.1287 318.3015,-57.3483"/>
<polygon fill="#191970" stroke="#191970" points="318.8143,-60.8118 328.3173,-56.1275 317.9673,-53.8632 318.8143,-60.8118"/>
</g>
<!-- Node29 -->
<g id="node29" class="node">
<title>Node29</title>
<g id="a_node29"><a xlink:href="src_2manager__system_2adaptation__engine_2CMakeLists_8txt.html#a9db4ff0309b1e5f217732209a7a9ee2a" target="_top" xlink:title=" ">
<polygon fill="#ffffff" stroke="#000000" points="380.5,-.5 380.5,-19.5 409.5,-19.5 409.5,-.5 380.5,-.5"/>
<text text-anchor="middle" x="395" y="-7.5" font-family="Helvetica,sans-Serif" font-size="10.00" fill="#000000">if</text>
</a>
</g>
</g>
<!-- Node27&#45;&gt;Node29 -->
<g id="edge35" class="edge">
<title>Node27&#45;&gt;Node29</title>
<path fill="none" stroke="#191970" d="M251.079,-60.4657C260.6514,-57.5301 270.8491,-54.0014 280,-50 296.9717,-42.5789 298.8122,-35.9059 316,-29 333.5479,-21.9494 354.3819,-17.0728 370.2479,-14.0267"/>
<polygon fill="#191970" stroke="#191970" points="371.1175,-17.4264 380.3369,-12.2061 369.8743,-10.5377 371.1175,-17.4264"/>
</g>
</g>
</svg>
