<?xml version="1.0" encoding="UTF-8" standalone="no"?>
<!DOCTYPE svg PUBLIC "-//W3C//DTD SVG 1.1//EN"
 "http://www.w3.org/Graphics/SVG/1.1/DTD/svg11.dtd">
<!-- Generated by graphviz version 2.40.1 (20161225.0304)
 -->
<!-- Title: bsn::goalmodel::Node::getDescription Pages: 1 -->
<svg width="292pt" height="214pt"
 viewBox="0.00 0.00 292.00 214.00" xmlns="http://www.w3.org/2000/svg" xmlns:xlink="http://www.w3.org/1999/xlink">
<g id="graph0" class="graph" transform="scale(1 1) rotate(0) translate(4 210)">
<title>bsn::goalmodel::Node::getDescription</title>
<polygon fill="#ffffff" stroke="transparent" points="-4,4 -4,-210 288,-210 288,4 -4,4"/>
<!-- Node1 -->
<g id="node1" class="node">
<title>Node1</title>
<g id="a_node1"><a xlink:title=" ">
<polygon fill="#bfbfbf" stroke="#000000" points="172,-88 172,-118 284,-118 284,-88 172,-88"/>
<text text-anchor="start" x="180" y="-106" font-family="Helvetica,sans-Serif" font-size="10.00" fill="#000000">bsn::goalmodel::Node</text>
<text text-anchor="middle" x="228" y="-95" font-family="Helvetica,sans-Serif" font-size="10.00" fill="#000000">::getDescription</text>
</a>
</g>
</g>
<!-- Node2 -->
<g id="node2" class="node">
<title>Node2</title>
<g id="a_node2"><a xlink:href="namespacebsn_1_1goalmodel.html#ae667127e89e6ad5a47bc0c6e86601687" target="_top" xlink:title=" ">
<polygon fill="#ffffff" stroke="#000000" points="0,-186.5 0,-205.5 136,-205.5 136,-186.5 0,-186.5"/>
<text text-anchor="middle" x="68" y="-193.5" font-family="Helvetica,sans-Serif" font-size="10.00" fill="#000000">bsn::goalmodel::operator&lt;&lt;</text>
</a>
</g>
</g>
<!-- Node1&#45;&gt;Node2 -->
<g id="edge1" class="edge">
<title>Node1&#45;&gt;Node2</title>
<path fill="none" stroke="#191970" d="M205.6363,-125.3643C188.0615,-141.79 162.2417,-163.5071 136,-177 128.5872,-180.8115 120.3146,-183.9387 112.162,-186.4762"/>
<polygon fill="#191970" stroke="#191970" points="208.2852,-127.6744 213.1029,-118.2383 203.4523,-122.6105 208.2852,-127.6744"/>
</g>
<!-- Node3 -->
<g id="node3" class="node">
<title>Node3</title>
<g id="a_node3"><a xlink:href="classbsn_1_1goalmodel_1_1LeafTask.html#a5a0f2631ba7d3681b78f4f7c2fe405f1" target="_top" xlink:title=" ">
<polygon fill="#ffffff" stroke="#000000" points="3.5,-137 3.5,-167 132.5,-167 132.5,-137 3.5,-137"/>
<text text-anchor="start" x="11.5" y="-155" font-family="Helvetica,sans-Serif" font-size="10.00" fill="#000000">bsn::goalmodel::LeafTask</text>
<text text-anchor="middle" x="68" y="-144" font-family="Helvetica,sans-Serif" font-size="10.00" fill="#000000">::operator=</text>
</a>
</g>
</g>
<!-- Node1&#45;&gt;Node3 -->
<g id="edge2" class="edge">
<title>Node1&#45;&gt;Node3</title>
<path fill="none" stroke="#191970" d="M168.8558,-121.1129C151.8458,-126.3222 133.4835,-131.9457 117.148,-136.9484"/>
<polygon fill="#191970" stroke="#191970" points="170.1524,-124.3763 178.6892,-118.1014 168.1026,-117.6832 170.1524,-124.3763"/>
</g>
<!-- Node4 -->
<g id="node4" class="node">
<title>Node4</title>
<g id="a_node4"><a xlink:href="classbsn_1_1goalmodel_1_1Node.html#a9a08ece2f46032f7fe474d341c3c22db" target="_top" xlink:title=" ">
<polygon fill="#ffffff" stroke="#000000" points="12,-88 12,-118 124,-118 124,-88 12,-88"/>
<text text-anchor="start" x="20" y="-106" font-family="Helvetica,sans-Serif" font-size="10.00" fill="#000000">bsn::goalmodel::Node</text>
<text text-anchor="middle" x="68" y="-95" font-family="Helvetica,sans-Serif" font-size="10.00" fill="#000000">::operator=</text>
</a>
</g>
</g>
<!-- Node1&#45;&gt;Node4 -->
<g id="edge3" class="edge">
<title>Node1&#45;&gt;Node4</title>
<path fill="none" stroke="#191970" d="M161.337,-103C148.9766,-103 136.1792,-103 124.1701,-103"/>
<polygon fill="#191970" stroke="#191970" points="161.59,-106.5001 171.59,-103 161.59,-99.5001 161.59,-106.5001"/>
</g>
<!-- Node5 -->
<g id="node5" class="node">
<title>Node5</title>
<g id="a_node5"><a xlink:href="classbsn_1_1goalmodel_1_1Node.html#ac9a8f749fa881fe032db1cf9925f2780" target="_top" xlink:title=" ">
<polygon fill="#ffffff" stroke="#000000" points="12,-39 12,-69 124,-69 124,-39 12,-39"/>
<text text-anchor="start" x="20" y="-57" font-family="Helvetica,sans-Serif" font-size="10.00" fill="#000000">bsn::goalmodel::Node</text>
<text text-anchor="middle" x="68" y="-46" font-family="Helvetica,sans-Serif" font-size="10.00" fill="#000000">::operator==</text>
</a>
</g>
</g>
<!-- Node1&#45;&gt;Node5 -->
<g id="edge4" class="edge">
<title>Node1&#45;&gt;Node5</title>
<path fill="none" stroke="#191970" d="M168.8558,-84.8871C151.8458,-79.6778 133.4835,-74.0543 117.148,-69.0516"/>
<polygon fill="#191970" stroke="#191970" points="168.1026,-88.3168 178.6892,-87.8986 170.1524,-81.6237 168.1026,-88.3168"/>
</g>
<!-- Node6 -->
<g id="node6" class="node">
<title>Node6</title>
<g id="a_node6"><a xlink:href="GoalTest_8cpp.html#a9040e36a6163547098fcaffa11976057" target="_top" xlink:title=" ">
<polygon fill="#ffffff" stroke="#000000" points="41.5,-.5 41.5,-19.5 94.5,-19.5 94.5,-.5 41.5,-.5"/>
<text text-anchor="middle" x="68" y="-7.5" font-family="Helvetica,sans-Serif" font-size="10.00" fill="#000000">TEST_F</text>
</a>
</g>
</g>
<!-- Node1&#45;&gt;Node6 -->
<g id="edge5" class="edge">
<title>Node1&#45;&gt;Node6</title>
<path fill="none" stroke="#191970" d="M205.2101,-80.7615C187.5877,-64.6532 161.8992,-43.4308 136,-30 123.1096,-23.3153 107.655,-18.5438 94.7389,-15.342"/>
<polygon fill="#191970" stroke="#191970" points="203.0106,-83.496 212.7111,-87.7564 207.7846,-78.3766 203.0106,-83.496"/>
</g>
</g>
</svg>
