<?xml version="1.0" encoding="UTF-8" standalone="no"?>
<!DOCTYPE svg PUBLIC "-//W3C//DTD SVG 1.1//EN"
 "http://www.w3.org/Graphics/SVG/1.1/DTD/svg11.dtd">
<!-- Generated by graphviz version 2.40.1 (20161225.0304)
 -->
<!-- Title: arch::ROSComponent Pages: 1 -->
<svg width="1204pt" height="843pt"
 viewBox="0.00 0.00 1203.50 843.00" xmlns="http://www.w3.org/2000/svg" xmlns:xlink="http://www.w3.org/1999/xlink">
<g id="graph0" class="graph" transform="scale(1 1) rotate(0) translate(4 839)">
<title>arch::ROSComponent</title>
<polygon fill="#ffffff" stroke="transparent" points="-4,4 -4,-839 1199.5,-839 1199.5,4 -4,4"/>
<!-- Node1 -->
<g id="node1" class="node">
<title>Node1</title>
<g id="a_node1"><a xlink:title=" ">
<polygon fill="#bfbfbf" stroke="#000000" points="514.5,-711.5 514.5,-834.5 648.5,-834.5 648.5,-711.5 514.5,-711.5"/>
<text text-anchor="middle" x="581.5" y="-822.5" font-family="Helvetica,sans-Serif" font-size="10.00" fill="#000000">arch::ROSComponent</text>
<polyline fill="none" stroke="#000000" points="514.5,-815.5 648.5,-815.5 "/>
<text text-anchor="start" x="522.5" y="-803.5" font-family="Helvetica,sans-Serif" font-size="10.00" fill="#000000"># rosComponentDescriptor</text>
<polyline fill="none" stroke="#000000" points="514.5,-796.5 648.5,-796.5 "/>
<text text-anchor="start" x="522.5" y="-784.5" font-family="Helvetica,sans-Serif" font-size="10.00" fill="#000000">+ ROSComponent()</text>
<text text-anchor="start" x="522.5" y="-773.5" font-family="Helvetica,sans-Serif" font-size="10.00" fill="#000000">+ ~ROSComponent()</text>
<text text-anchor="start" x="522.5" y="-762.5" font-family="Helvetica,sans-Serif" font-size="10.00" fill="#000000">+ setUp()</text>
<text text-anchor="start" x="522.5" y="-751.5" font-family="Helvetica,sans-Serif" font-size="10.00" fill="#000000">+ tearDown()</text>
<text text-anchor="start" x="522.5" y="-740.5" font-family="Helvetica,sans-Serif" font-size="10.00" fill="#000000">+ run()</text>
<text text-anchor="start" x="522.5" y="-729.5" font-family="Helvetica,sans-Serif" font-size="10.00" fill="#000000">+ body()</text>
<text text-anchor="start" x="522.5" y="-718.5" font-family="Helvetica,sans-Serif" font-size="10.00" fill="#000000"># getRosNodeName()</text>
</a>
</g>
</g>
<!-- Node2 -->
<g id="node2" class="node">
<title>Node2</title>
<g id="a_node2"><a xlink:href="classDataAccess.html" target="_top" xlink:title=" ">
<polygon fill="#ffffff" stroke="#000000" points="0,-513 0,-647 149,-647 149,-513 0,-513"/>
<text text-anchor="middle" x="74.5" y="-635" font-family="Helvetica,sans-Serif" font-size="10.00" fill="#000000">DataAccess</text>
<polyline fill="none" stroke="#000000" points="0,-628 149,-628 "/>
<text text-anchor="start" x="8" y="-616" font-family="Helvetica,sans-Serif" font-size="10.00" fill="#000000"># handle</text>
<polyline fill="none" stroke="#000000" points="0,-609 149,-609 "/>
<text text-anchor="start" x="8" y="-597" font-family="Helvetica,sans-Serif" font-size="10.00" fill="#000000">+ DataAccess()</text>
<text text-anchor="start" x="8" y="-586" font-family="Helvetica,sans-Serif" font-size="10.00" fill="#000000">+ ~DataAccess()</text>
<text text-anchor="start" x="8" y="-575" font-family="Helvetica,sans-Serif" font-size="10.00" fill="#000000">+ setUp()</text>
<text text-anchor="start" x="8" y="-564" font-family="Helvetica,sans-Serif" font-size="10.00" fill="#000000">+ tearDown()</text>
<text text-anchor="start" x="8" y="-553" font-family="Helvetica,sans-Serif" font-size="10.00" fill="#000000">+ body()</text>
<text text-anchor="start" x="8" y="-542" font-family="Helvetica,sans-Serif" font-size="10.00" fill="#000000">+ processTargetSystemData()</text>
<text text-anchor="start" x="8" y="-531" font-family="Helvetica,sans-Serif" font-size="10.00" fill="#000000">+ receivePersistMessage()</text>
<text text-anchor="start" x="8" y="-520" font-family="Helvetica,sans-Serif" font-size="10.00" fill="#000000">+ processQuery()</text>
</a>
</g>
</g>
<!-- Node1&#45;&gt;Node2 -->
<g id="edge1" class="edge">
<title>Node1&#45;&gt;Node2</title>
<path fill="none" stroke="#191970" d="M504.1198,-760.8863C398.6391,-743.3964 216.2208,-709.3816 158.5,-675 146.0164,-667.5641 134.3864,-657.6479 123.9996,-647.0246"/>
<polygon fill="none" stroke="#191970" points="503.6448,-764.3551 514.0806,-762.5267 504.7823,-757.4482 503.6448,-764.3551"/>
</g>
<!-- Node3 -->
<g id="node3" class="node">
<title>Node3</title>
<g id="a_node3"><a xlink:href="classEnactor.html" target="_top" xlink:title=" ">
<polygon fill="#ffffff" stroke="#000000" points="167.5,-496.5 167.5,-663.5 267.5,-663.5 267.5,-496.5 167.5,-496.5"/>
<text text-anchor="middle" x="217.5" y="-651.5" font-family="Helvetica,sans-Serif" font-size="10.00" fill="#000000">Enactor</text>
<polyline fill="none" stroke="#000000" points="167.5,-644.5 267.5,-644.5 "/>
<text text-anchor="middle" x="217.5" y="-632.5" font-family="Helvetica,sans-Serif" font-size="10.00" fill="#000000"> </text>
<polyline fill="none" stroke="#000000" points="167.5,-625.5 267.5,-625.5 "/>
<text text-anchor="start" x="175.5" y="-613.5" font-family="Helvetica,sans-Serif" font-size="10.00" fill="#000000">+ Enactor()</text>
<text text-anchor="start" x="175.5" y="-602.5" font-family="Helvetica,sans-Serif" font-size="10.00" fill="#000000">+ ~Enactor()</text>
<text text-anchor="start" x="175.5" y="-591.5" font-family="Helvetica,sans-Serif" font-size="10.00" fill="#000000">+ setUp()</text>
<text text-anchor="start" x="175.5" y="-580.5" font-family="Helvetica,sans-Serif" font-size="10.00" fill="#000000">+ tearDown()</text>
<text text-anchor="start" x="175.5" y="-569.5" font-family="Helvetica,sans-Serif" font-size="10.00" fill="#000000">+ body()</text>
<text text-anchor="start" x="175.5" y="-558.5" font-family="Helvetica,sans-Serif" font-size="10.00" fill="#000000">+ receiveStatus()</text>
<text text-anchor="start" x="175.5" y="-547.5" font-family="Helvetica,sans-Serif" font-size="10.00" fill="#000000">+ receiveEvent()</text>
<text text-anchor="start" x="175.5" y="-536.5" font-family="Helvetica,sans-Serif" font-size="10.00" fill="#000000">+ receiveStrategy()</text>
<text text-anchor="start" x="175.5" y="-525.5" font-family="Helvetica,sans-Serif" font-size="10.00" fill="#000000">+ sendInfo()</text>
<text text-anchor="start" x="175.5" y="-514.5" font-family="Helvetica,sans-Serif" font-size="10.00" fill="#000000">+ apply_strategy()</text>
<text text-anchor="start" x="175.5" y="-503.5" font-family="Helvetica,sans-Serif" font-size="10.00" fill="#000000">+ print()</text>
</a>
</g>
</g>
<!-- Node1&#45;&gt;Node3 -->
<g id="edge2" class="edge">
<title>Node1&#45;&gt;Node3</title>
<path fill="none" stroke="#191970" d="M504.3124,-763.3692C438.0992,-751.8068 343.1089,-727.0128 276.5,-675 272.2154,-671.6543 268.1622,-667.9039 264.3411,-663.8775"/>
<polygon fill="none" stroke="#191970" points="503.8318,-766.8375 514.2743,-765.0472 504.9945,-759.9348 503.8318,-766.8375"/>
</g>
<!-- Node4 -->
<g id="node4" class="node">
<title>Node4</title>
<g id="a_node4"><a xlink:href="classEngine.html" target="_top" xlink:title=" ">
<polygon fill="#ffffff" stroke="#000000" points="286,-502 286,-658 393,-658 393,-502 286,-502"/>
<text text-anchor="middle" x="339.5" y="-646" font-family="Helvetica,sans-Serif" font-size="10.00" fill="#000000">Engine</text>
<polyline fill="none" stroke="#000000" points="286,-639 393,-639 "/>
<text text-anchor="middle" x="339.5" y="-627" font-family="Helvetica,sans-Serif" font-size="10.00" fill="#000000"> </text>
<polyline fill="none" stroke="#000000" points="286,-620 393,-620 "/>
<text text-anchor="start" x="294" y="-608" font-family="Helvetica,sans-Serif" font-size="10.00" fill="#000000">+ Engine()</text>
<text text-anchor="start" x="294" y="-597" font-family="Helvetica,sans-Serif" font-size="10.00" fill="#000000">+ ~Engine()</text>
<text text-anchor="start" x="294" y="-586" font-family="Helvetica,sans-Serif" font-size="10.00" fill="#000000">+ setUp()</text>
<text text-anchor="start" x="294" y="-575" font-family="Helvetica,sans-Serif" font-size="10.00" fill="#000000">+ tearDown()</text>
<text text-anchor="start" x="294" y="-564" font-family="Helvetica,sans-Serif" font-size="10.00" fill="#000000">+ body()</text>
<text text-anchor="start" x="294" y="-553" font-family="Helvetica,sans-Serif" font-size="10.00" fill="#000000">+ receiveException()</text>
<text text-anchor="start" x="294" y="-542" font-family="Helvetica,sans-Serif" font-size="10.00" fill="#000000">+ monitor()</text>
<text text-anchor="start" x="294" y="-531" font-family="Helvetica,sans-Serif" font-size="10.00" fill="#000000">+ analyze()</text>
<text text-anchor="start" x="294" y="-520" font-family="Helvetica,sans-Serif" font-size="10.00" fill="#000000">+ plan()</text>
<text text-anchor="start" x="294" y="-509" font-family="Helvetica,sans-Serif" font-size="10.00" fill="#000000">+ execute()</text>
</a>
</g>
</g>
<!-- Node1&#45;&gt;Node4 -->
<g id="edge3" class="edge">
<title>Node1&#45;&gt;Node4</title>
<path fill="none" stroke="#191970" d="M505.0577,-741.3268C471.167,-724.8491 432.3096,-702.3871 402.5,-675 396.9621,-669.9122 391.6802,-664.2416 386.7002,-658.2734"/>
<polygon fill="none" stroke="#191970" points="503.9402,-744.6714 514.4732,-745.8148 506.9522,-738.3525 503.9402,-744.6714"/>
</g>
<!-- Node5 -->
<g id="node5" class="node">
<title>Node5</title>
<g id="a_node5"><a xlink:href="classInjector.html" target="_top" xlink:title=" ">
<polygon fill="#ffffff" stroke="#000000" points="411.5,-524 411.5,-636 485.5,-636 485.5,-524 411.5,-524"/>
<text text-anchor="middle" x="448.5" y="-624" font-family="Helvetica,sans-Serif" font-size="10.00" fill="#000000">Injector</text>
<polyline fill="none" stroke="#000000" points="411.5,-617 485.5,-617 "/>
<text text-anchor="middle" x="448.5" y="-605" font-family="Helvetica,sans-Serif" font-size="10.00" fill="#000000"> </text>
<polyline fill="none" stroke="#000000" points="411.5,-598 485.5,-598 "/>
<text text-anchor="start" x="419.5" y="-586" font-family="Helvetica,sans-Serif" font-size="10.00" fill="#000000">+ Injector()</text>
<text text-anchor="start" x="419.5" y="-575" font-family="Helvetica,sans-Serif" font-size="10.00" fill="#000000">+ ~Injector()</text>
<text text-anchor="start" x="419.5" y="-564" font-family="Helvetica,sans-Serif" font-size="10.00" fill="#000000">+ setUp()</text>
<text text-anchor="start" x="419.5" y="-553" font-family="Helvetica,sans-Serif" font-size="10.00" fill="#000000">+ tearDown()</text>
<text text-anchor="start" x="419.5" y="-542" font-family="Helvetica,sans-Serif" font-size="10.00" fill="#000000">+ body()</text>
<text text-anchor="start" x="419.5" y="-531" font-family="Helvetica,sans-Serif" font-size="10.00" fill="#000000">+ inject()</text>
</a>
</g>
</g>
<!-- Node1&#45;&gt;Node5 -->
<g id="edge4" class="edge">
<title>Node1&#45;&gt;Node5</title>
<path fill="none" stroke="#191970" d="M515.7754,-703.5651C508.2053,-694.2634 500.9131,-684.6099 494.5,-675 486.4642,-662.9585 479.0074,-649.302 472.5375,-636.174"/>
<polygon fill="none" stroke="#191970" points="513.1058,-705.8288 522.1864,-711.2871 518.4915,-701.3574 513.1058,-705.8288"/>
</g>
<!-- Node6 -->
<g id="node6" class="node">
<title>Node6</title>
<g id="a_node6"><a xlink:href="classLogger.html" target="_top" xlink:title=" ">
<polygon fill="#ffffff" stroke="#000000" points="504,-507.5 504,-652.5 659,-652.5 659,-507.5 504,-507.5"/>
<text text-anchor="middle" x="581.5" y="-640.5" font-family="Helvetica,sans-Serif" font-size="10.00" fill="#000000">Logger</text>
<polyline fill="none" stroke="#000000" points="504,-633.5 659,-633.5 "/>
<text text-anchor="start" x="512" y="-621.5" font-family="Helvetica,sans-Serif" font-size="10.00" fill="#000000"># handle</text>
<polyline fill="none" stroke="#000000" points="504,-614.5 659,-614.5 "/>
<text text-anchor="start" x="512" y="-602.5" font-family="Helvetica,sans-Serif" font-size="10.00" fill="#000000">+ Logger()</text>
<text text-anchor="start" x="512" y="-591.5" font-family="Helvetica,sans-Serif" font-size="10.00" fill="#000000">+ ~Logger()</text>
<text text-anchor="start" x="512" y="-580.5" font-family="Helvetica,sans-Serif" font-size="10.00" fill="#000000">+ setUp()</text>
<text text-anchor="start" x="512" y="-569.5" font-family="Helvetica,sans-Serif" font-size="10.00" fill="#000000">+ tearDown()</text>
<text text-anchor="start" x="512" y="-558.5" font-family="Helvetica,sans-Serif" font-size="10.00" fill="#000000">+ body()</text>
<text text-anchor="start" x="512" y="-547.5" font-family="Helvetica,sans-Serif" font-size="10.00" fill="#000000">+ receiveAdaptationCommand()</text>
<text text-anchor="start" x="512" y="-536.5" font-family="Helvetica,sans-Serif" font-size="10.00" fill="#000000">+ receiveStatus()</text>
<text text-anchor="start" x="512" y="-525.5" font-family="Helvetica,sans-Serif" font-size="10.00" fill="#000000">+ receiveEvent()</text>
<text text-anchor="start" x="512" y="-514.5" font-family="Helvetica,sans-Serif" font-size="10.00" fill="#000000">+ receiveUncertainty()</text>
</a>
</g>
</g>
<!-- Node1&#45;&gt;Node6 -->
<g id="edge5" class="edge">
<title>Node1&#45;&gt;Node6</title>
<path fill="none" stroke="#191970" d="M581.5,-701.1777C581.5,-685.3808 581.5,-668.638 581.5,-652.8028"/>
<polygon fill="none" stroke="#191970" points="578.0001,-701.4029 581.5,-711.403 585.0001,-701.403 578.0001,-701.4029"/>
</g>
<!-- Node7 -->
<g id="node7" class="node">
<title>Node7</title>
<g id="a_node7"><a xlink:href="classPatientModule.html" target="_top" xlink:title=" ">
<polygon fill="#ffffff" stroke="#000000" points="677.5,-529.5 677.5,-630.5 777.5,-630.5 777.5,-529.5 677.5,-529.5"/>
<text text-anchor="middle" x="727.5" y="-618.5" font-family="Helvetica,sans-Serif" font-size="10.00" fill="#000000">PatientModule</text>
<polyline fill="none" stroke="#000000" points="677.5,-611.5 777.5,-611.5 "/>
<text text-anchor="middle" x="727.5" y="-599.5" font-family="Helvetica,sans-Serif" font-size="10.00" fill="#000000"> </text>
<polyline fill="none" stroke="#000000" points="677.5,-592.5 777.5,-592.5 "/>
<text text-anchor="start" x="685.5" y="-580.5" font-family="Helvetica,sans-Serif" font-size="10.00" fill="#000000">+ PatientModule()</text>
<text text-anchor="start" x="685.5" y="-569.5" font-family="Helvetica,sans-Serif" font-size="10.00" fill="#000000">+ ~PatientModule()</text>
<text text-anchor="start" x="685.5" y="-558.5" font-family="Helvetica,sans-Serif" font-size="10.00" fill="#000000">+ setUp()</text>
<text text-anchor="start" x="685.5" y="-547.5" font-family="Helvetica,sans-Serif" font-size="10.00" fill="#000000">+ tearDown()</text>
<text text-anchor="start" x="685.5" y="-536.5" font-family="Helvetica,sans-Serif" font-size="10.00" fill="#000000">+ body()</text>
</a>
</g>
</g>
<!-- Node1&#45;&gt;Node7 -->
<g id="edge6" class="edge">
<title>Node1&#45;&gt;Node7</title>
<path fill="none" stroke="#191970" d="M644.7172,-703.6356C652.6192,-694.1979 660.407,-684.491 667.5,-675 677.8931,-661.0932 688.3116,-645.3738 697.4818,-630.783"/>
<polygon fill="none" stroke="#191970" points="641.8577,-701.5964 638.0655,-711.4893 647.1993,-706.1205 641.8577,-701.5964"/>
</g>
<!-- Node8 -->
<g id="node8" class="node">
<title>Node8</title>
<g id="a_node8"><a xlink:href="classarch_1_1target__system_1_1Component.html" target="_top" xlink:title=" ">
<polygon fill="#ffffff" stroke="#000000" points="795.5,-485.5 795.5,-674.5 899.5,-674.5 899.5,-485.5 795.5,-485.5"/>
<text text-anchor="start" x="803.5" y="-662.5" font-family="Helvetica,sans-Serif" font-size="10.00" fill="#000000">arch::target_system</text>
<text text-anchor="middle" x="847.5" y="-651.5" font-family="Helvetica,sans-Serif" font-size="10.00" fill="#000000">::Component</text>
<polyline fill="none" stroke="#000000" points="795.5,-644.5 899.5,-644.5 "/>
<text text-anchor="start" x="803.5" y="-632.5" font-family="Helvetica,sans-Serif" font-size="10.00" fill="#000000"># handle</text>
<polyline fill="none" stroke="#000000" points="795.5,-625.5 899.5,-625.5 "/>
<text text-anchor="start" x="803.5" y="-613.5" font-family="Helvetica,sans-Serif" font-size="10.00" fill="#000000">+ Component()</text>
<text text-anchor="start" x="803.5" y="-602.5" font-family="Helvetica,sans-Serif" font-size="10.00" fill="#000000">+ ~Component()</text>
<text text-anchor="start" x="803.5" y="-591.5" font-family="Helvetica,sans-Serif" font-size="10.00" fill="#000000">+ setUp()</text>
<text text-anchor="start" x="803.5" y="-580.5" font-family="Helvetica,sans-Serif" font-size="10.00" fill="#000000">+ tearDown()</text>
<text text-anchor="start" x="803.5" y="-569.5" font-family="Helvetica,sans-Serif" font-size="10.00" fill="#000000">+ run()</text>
<text text-anchor="start" x="803.5" y="-558.5" font-family="Helvetica,sans-Serif" font-size="10.00" fill="#000000">+ body()</text>
<text text-anchor="start" x="803.5" y="-547.5" font-family="Helvetica,sans-Serif" font-size="10.00" fill="#000000">+ sendEvent()</text>
<text text-anchor="start" x="803.5" y="-536.5" font-family="Helvetica,sans-Serif" font-size="10.00" fill="#000000">+ sendStatus()</text>
<text text-anchor="start" x="803.5" y="-525.5" font-family="Helvetica,sans-Serif" font-size="10.00" fill="#000000">+ reconfigure()</text>
<text text-anchor="start" x="803.5" y="-514.5" font-family="Helvetica,sans-Serif" font-size="10.00" fill="#000000"># activate()</text>
<text text-anchor="start" x="803.5" y="-503.5" font-family="Helvetica,sans-Serif" font-size="10.00" fill="#000000"># deactivate()</text>
<text text-anchor="start" x="803.5" y="-492.5" font-family="Helvetica,sans-Serif" font-size="10.00" fill="#000000"># sigIntHandler()</text>
</a>
</g>
</g>
<!-- Node1&#45;&gt;Node8 -->
<g id="edge7" class="edge">
<title>Node1&#45;&gt;Node8</title>
<path fill="none" stroke="#191970" d="M658.315,-748.0005C699.5882,-731.8477 749.4528,-707.6876 786.5,-675 789.5864,-672.2768 792.577,-669.361 795.4666,-666.3027"/>
<polygon fill="none" stroke="#191970" points="656.9239,-744.7852 648.8366,-751.6296 659.427,-751.3225 656.9239,-744.7852"/>
</g>
<!-- Node17 -->
<g id="node17" class="node">
<title>Node17</title>
<g id="a_node17"><a xlink:href="classarch_1_1target__system_1_1Effector.html" target="_top" xlink:title=" ">
<polygon fill="#ffffff" stroke="#000000" points="918,-524 918,-636 1073,-636 1073,-524 918,-524"/>
<text text-anchor="start" x="926" y="-624" font-family="Helvetica,sans-Serif" font-size="10.00" fill="#000000">arch::target_system</text>
<text text-anchor="middle" x="995.5" y="-613" font-family="Helvetica,sans-Serif" font-size="10.00" fill="#000000">::Effector</text>
<polyline fill="none" stroke="#000000" points="918,-606 1073,-606 "/>
<text text-anchor="start" x="926" y="-594" font-family="Helvetica,sans-Serif" font-size="10.00" fill="#000000"># handle</text>
<polyline fill="none" stroke="#000000" points="918,-587 1073,-587 "/>
<text text-anchor="start" x="926" y="-575" font-family="Helvetica,sans-Serif" font-size="10.00" fill="#000000">+ Effector()</text>
<text text-anchor="start" x="926" y="-564" font-family="Helvetica,sans-Serif" font-size="10.00" fill="#000000">+ ~Effector()</text>
<text text-anchor="start" x="926" y="-553" font-family="Helvetica,sans-Serif" font-size="10.00" fill="#000000">+ setUp()</text>
<text text-anchor="start" x="926" y="-542" font-family="Helvetica,sans-Serif" font-size="10.00" fill="#000000">+ tearDown()</text>
<text text-anchor="start" x="926" y="-531" font-family="Helvetica,sans-Serif" font-size="10.00" fill="#000000">+ receiveAdaptationCommand()</text>
</a>
</g>
</g>
<!-- Node1&#45;&gt;Node17 -->
<g id="edge16" class="edge">
<title>Node1&#45;&gt;Node17</title>
<path fill="none" stroke="#191970" d="M658.8192,-761.8645C728.3311,-749.1684 831.0998,-723.5531 908.5,-675 924.9823,-664.6607 940.3098,-650.3769 953.3637,-636.0239"/>
<polygon fill="none" stroke="#191970" points="658.0438,-758.4474 648.8116,-763.6451 659.2701,-765.3391 658.0438,-758.4474"/>
</g>
<!-- Node19 -->
<g id="node19" class="node">
<title>Node19</title>
<g id="a_node19"><a xlink:href="classarch_1_1target__system_1_1Probe.html" target="_top" xlink:title=" ">
<polygon fill="#ffffff" stroke="#000000" points="1091.5,-513 1091.5,-647 1195.5,-647 1195.5,-513 1091.5,-513"/>
<text text-anchor="start" x="1099.5" y="-635" font-family="Helvetica,sans-Serif" font-size="10.00" fill="#000000">arch::target_system</text>
<text text-anchor="middle" x="1143.5" y="-624" font-family="Helvetica,sans-Serif" font-size="10.00" fill="#000000">::Probe</text>
<polyline fill="none" stroke="#000000" points="1091.5,-617 1195.5,-617 "/>
<text text-anchor="start" x="1099.5" y="-605" font-family="Helvetica,sans-Serif" font-size="10.00" fill="#000000"># handle</text>
<polyline fill="none" stroke="#000000" points="1091.5,-598 1195.5,-598 "/>
<text text-anchor="start" x="1099.5" y="-586" font-family="Helvetica,sans-Serif" font-size="10.00" fill="#000000">+ Probe()</text>
<text text-anchor="start" x="1099.5" y="-575" font-family="Helvetica,sans-Serif" font-size="10.00" fill="#000000">+ ~Probe()</text>
<text text-anchor="start" x="1099.5" y="-564" font-family="Helvetica,sans-Serif" font-size="10.00" fill="#000000">+ setUp()</text>
<text text-anchor="start" x="1099.5" y="-553" font-family="Helvetica,sans-Serif" font-size="10.00" fill="#000000">+ tearDown()</text>
<text text-anchor="start" x="1099.5" y="-542" font-family="Helvetica,sans-Serif" font-size="10.00" fill="#000000">+ body()</text>
<text text-anchor="start" x="1099.5" y="-531" font-family="Helvetica,sans-Serif" font-size="10.00" fill="#000000">+ collectEvent()</text>
<text text-anchor="start" x="1099.5" y="-520" font-family="Helvetica,sans-Serif" font-size="10.00" fill="#000000">+ collectStatus()</text>
</a>
</g>
</g>
<!-- Node1&#45;&gt;Node19 -->
<g id="edge18" class="edge">
<title>Node1&#45;&gt;Node19</title>
<path fill="none" stroke="#191970" d="M659.0202,-765.3115C781.9053,-751.9035 1014.4848,-721.191 1082.5,-675 1093.2017,-667.7322 1102.4398,-657.8975 1110.2577,-647.3024"/>
<polygon fill="none" stroke="#191970" points="658.4893,-761.8484 648.9226,-766.4012 659.2404,-768.808 658.4893,-761.8484"/>
</g>
<!-- Node9 -->
<g id="node9" class="node">
<title>Node9</title>
<g id="a_node9"><a xlink:href="classCentralHub.html" target="_top" xlink:title=" ">
<polygon fill="#ffffff" stroke="#000000" points="648,-193.5 648,-415.5 745,-415.5 745,-193.5 648,-193.5"/>
<text text-anchor="middle" x="696.5" y="-403.5" font-family="Helvetica,sans-Serif" font-size="10.00" fill="#000000">CentralHub</text>
<polyline fill="none" stroke="#000000" points="648,-396.5 745,-396.5 "/>
<text text-anchor="start" x="656" y="-384.5" font-family="Helvetica,sans-Serif" font-size="10.00" fill="#000000"># active</text>
<text text-anchor="start" x="656" y="-373.5" font-family="Helvetica,sans-Serif" font-size="10.00" fill="#000000"># max_size</text>
<text text-anchor="start" x="656" y="-362.5" font-family="Helvetica,sans-Serif" font-size="10.00" fill="#000000"># total_buffer_size</text>
<text text-anchor="start" x="656" y="-351.5" font-family="Helvetica,sans-Serif" font-size="10.00" fill="#000000"># buffer_size</text>
<text text-anchor="start" x="656" y="-340.5" font-family="Helvetica,sans-Serif" font-size="10.00" fill="#000000"># battery</text>
<text text-anchor="start" x="656" y="-329.5" font-family="Helvetica,sans-Serif" font-size="10.00" fill="#000000"># data_buffer</text>
<polyline fill="none" stroke="#000000" points="648,-322.5 745,-322.5 "/>
<text text-anchor="start" x="656" y="-310.5" font-family="Helvetica,sans-Serif" font-size="10.00" fill="#000000">+ CentralHub()</text>
<text text-anchor="start" x="656" y="-299.5" font-family="Helvetica,sans-Serif" font-size="10.00" fill="#000000">+ ~CentralHub()</text>
<text text-anchor="start" x="656" y="-288.5" font-family="Helvetica,sans-Serif" font-size="10.00" fill="#000000">+ setUp()</text>
<text text-anchor="start" x="656" y="-277.5" font-family="Helvetica,sans-Serif" font-size="10.00" fill="#000000">+ tearDown()</text>
<text text-anchor="start" x="656" y="-266.5" font-family="Helvetica,sans-Serif" font-size="10.00" fill="#000000">+ run()</text>
<text text-anchor="start" x="656" y="-255.5" font-family="Helvetica,sans-Serif" font-size="10.00" fill="#000000">+ body()</text>
<text text-anchor="start" x="656" y="-244.5" font-family="Helvetica,sans-Serif" font-size="10.00" fill="#000000">+ apply_noise()</text>
<text text-anchor="start" x="656" y="-233.5" font-family="Helvetica,sans-Serif" font-size="10.00" fill="#000000">+ reconfigure()</text>
<text text-anchor="start" x="656" y="-222.5" font-family="Helvetica,sans-Serif" font-size="10.00" fill="#000000">+ collect()</text>
<text text-anchor="start" x="656" y="-211.5" font-family="Helvetica,sans-Serif" font-size="10.00" fill="#000000">+ process()</text>
<text text-anchor="start" x="656" y="-200.5" font-family="Helvetica,sans-Serif" font-size="10.00" fill="#000000">+ transfer()</text>
</a>
</g>
</g>
<!-- Node8&#45;&gt;Node9 -->
<g id="edge8" class="edge">
<title>Node8&#45;&gt;Node9</title>
<path fill="none" stroke="#191970" d="M790.692,-476.3536C775.653,-448.9149 759.5581,-419.5497 745.0044,-392.9965"/>
<polygon fill="none" stroke="#191970" points="787.6587,-478.1016 795.5344,-485.1885 793.7972,-474.7371 787.6587,-478.1016"/>
</g>
<!-- Node11 -->
<g id="node11" class="node">
<title>Node11</title>
<g id="a_node11"><a xlink:href="classSensor.html" target="_top" xlink:title=" ">
<polygon fill="#ffffff" stroke="#000000" points="795,-160.5 795,-448.5 900,-448.5 900,-160.5 795,-160.5"/>
<text text-anchor="middle" x="847.5" y="-436.5" font-family="Helvetica,sans-Serif" font-size="10.00" fill="#000000">Sensor</text>
<polyline fill="none" stroke="#000000" points="795,-429.5 900,-429.5 "/>
<text text-anchor="start" x="803" y="-417.5" font-family="Helvetica,sans-Serif" font-size="10.00" fill="#000000"># type</text>
<text text-anchor="start" x="803" y="-406.5" font-family="Helvetica,sans-Serif" font-size="10.00" fill="#000000"># active</text>
<text text-anchor="start" x="803" y="-395.5" font-family="Helvetica,sans-Serif" font-size="10.00" fill="#000000"># buffer_size</text>
<text text-anchor="start" x="803" y="-384.5" font-family="Helvetica,sans-Serif" font-size="10.00" fill="#000000"># replicate_collect</text>
<text text-anchor="start" x="803" y="-373.5" font-family="Helvetica,sans-Serif" font-size="10.00" fill="#000000"># noise_factor</text>
<text text-anchor="start" x="803" y="-362.5" font-family="Helvetica,sans-Serif" font-size="10.00" fill="#000000"># battery</text>
<text text-anchor="start" x="803" y="-351.5" font-family="Helvetica,sans-Serif" font-size="10.00" fill="#000000"># data</text>
<polyline fill="none" stroke="#000000" points="795,-344.5 900,-344.5 "/>
<text text-anchor="start" x="803" y="-332.5" font-family="Helvetica,sans-Serif" font-size="10.00" fill="#000000">+ Sensor()</text>
<text text-anchor="start" x="803" y="-321.5" font-family="Helvetica,sans-Serif" font-size="10.00" fill="#000000">+ ~Sensor()</text>
<text text-anchor="start" x="803" y="-310.5" font-family="Helvetica,sans-Serif" font-size="10.00" fill="#000000">+ setUp()</text>
<text text-anchor="start" x="803" y="-299.5" font-family="Helvetica,sans-Serif" font-size="10.00" fill="#000000">+ tearDown()</text>
<text text-anchor="start" x="803" y="-288.5" font-family="Helvetica,sans-Serif" font-size="10.00" fill="#000000">+ run()</text>
<text text-anchor="start" x="803" y="-277.5" font-family="Helvetica,sans-Serif" font-size="10.00" fill="#000000">+ body()</text>
<text text-anchor="start" x="803" y="-266.5" font-family="Helvetica,sans-Serif" font-size="10.00" fill="#000000">+ apply_noise()</text>
<text text-anchor="start" x="803" y="-255.5" font-family="Helvetica,sans-Serif" font-size="10.00" fill="#000000">+ reconfigure()</text>
<text text-anchor="start" x="803" y="-244.5" font-family="Helvetica,sans-Serif" font-size="10.00" fill="#000000">+ injectUncertainty()</text>
<text text-anchor="start" x="803" y="-233.5" font-family="Helvetica,sans-Serif" font-size="10.00" fill="#000000">+ collect()</text>
<text text-anchor="start" x="803" y="-222.5" font-family="Helvetica,sans-Serif" font-size="10.00" fill="#000000">+ process()</text>
<text text-anchor="start" x="803" y="-211.5" font-family="Helvetica,sans-Serif" font-size="10.00" fill="#000000">+ transfer()</text>
<text text-anchor="start" x="803" y="-200.5" font-family="Helvetica,sans-Serif" font-size="10.00" fill="#000000"># isActive()</text>
<text text-anchor="start" x="803" y="-189.5" font-family="Helvetica,sans-Serif" font-size="10.00" fill="#000000"># turnOn()</text>
<text text-anchor="start" x="803" y="-178.5" font-family="Helvetica,sans-Serif" font-size="10.00" fill="#000000"># turnOff()</text>
<text text-anchor="start" x="803" y="-167.5" font-family="Helvetica,sans-Serif" font-size="10.00" fill="#000000"># recharge()</text>
</a>
</g>
</g>
<!-- Node8&#45;&gt;Node11 -->
<g id="edge10" class="edge">
<title>Node8&#45;&gt;Node11</title>
<path fill="none" stroke="#191970" d="M847.5,-475.105C847.5,-466.4357 847.5,-457.5819 847.5,-448.6923"/>
<polygon fill="none" stroke="#191970" points="844.0001,-475.1885 847.5,-485.1885 851.0001,-475.1886 844.0001,-475.1885"/>
</g>
<!-- Node10 -->
<g id="node10" class="node">
<title>Node10</title>
<g id="a_node10"><a xlink:href="classG4T1.html" target="_top" xlink:title=" ">
<polygon fill="#ffffff" stroke="#000000" points="580.5,-.5 580.5,-123.5 654.5,-123.5 654.5,-.5 580.5,-.5"/>
<text text-anchor="middle" x="617.5" y="-111.5" font-family="Helvetica,sans-Serif" font-size="10.00" fill="#000000">G4T1</text>
<polyline fill="none" stroke="#000000" points="580.5,-104.5 654.5,-104.5 "/>
<text text-anchor="middle" x="617.5" y="-92.5" font-family="Helvetica,sans-Serif" font-size="10.00" fill="#000000"> </text>
<polyline fill="none" stroke="#000000" points="580.5,-85.5 654.5,-85.5 "/>
<text text-anchor="start" x="588.5" y="-73.5" font-family="Helvetica,sans-Serif" font-size="10.00" fill="#000000">+ G4T1()</text>
<text text-anchor="start" x="588.5" y="-62.5" font-family="Helvetica,sans-Serif" font-size="10.00" fill="#000000">+ ~G4T1()</text>
<text text-anchor="start" x="588.5" y="-51.5" font-family="Helvetica,sans-Serif" font-size="10.00" fill="#000000">+ setUp()</text>
<text text-anchor="start" x="588.5" y="-40.5" font-family="Helvetica,sans-Serif" font-size="10.00" fill="#000000">+ tearDown()</text>
<text text-anchor="start" x="588.5" y="-29.5" font-family="Helvetica,sans-Serif" font-size="10.00" fill="#000000">+ collect()</text>
<text text-anchor="start" x="588.5" y="-18.5" font-family="Helvetica,sans-Serif" font-size="10.00" fill="#000000">+ process()</text>
<text text-anchor="start" x="588.5" y="-7.5" font-family="Helvetica,sans-Serif" font-size="10.00" fill="#000000">+ transfer()</text>
</a>
</g>
</g>
<!-- Node9&#45;&gt;Node10 -->
<g id="edge9" class="edge">
<title>Node9&#45;&gt;Node10</title>
<path fill="none" stroke="#191970" d="M657.1279,-183.6427C650.3541,-162.8497 643.5753,-142.0412 637.5883,-123.6634"/>
<polygon fill="none" stroke="#191970" points="653.8116,-184.7623 660.237,-193.1864 660.4673,-182.594 653.8116,-184.7623"/>
</g>
<!-- Node12 -->
<g id="node12" class="node">
<title>Node12</title>
<g id="a_node12"><a xlink:href="classG3T1__1.html" target="_top" xlink:title=" ">
<polygon fill="#ffffff" stroke="#000000" points="672.5,-.5 672.5,-123.5 746.5,-123.5 746.5,-.5 672.5,-.5"/>
<text text-anchor="middle" x="709.5" y="-111.5" font-family="Helvetica,sans-Serif" font-size="10.00" fill="#000000">G3T1_1</text>
<polyline fill="none" stroke="#000000" points="672.5,-104.5 746.5,-104.5 "/>
<text text-anchor="middle" x="709.5" y="-92.5" font-family="Helvetica,sans-Serif" font-size="10.00" fill="#000000"> </text>
<polyline fill="none" stroke="#000000" points="672.5,-85.5 746.5,-85.5 "/>
<text text-anchor="start" x="680.5" y="-73.5" font-family="Helvetica,sans-Serif" font-size="10.00" fill="#000000">+ G3T1_1()</text>
<text text-anchor="start" x="680.5" y="-62.5" font-family="Helvetica,sans-Serif" font-size="10.00" fill="#000000">+ ~G3T1_1()</text>
<text text-anchor="start" x="680.5" y="-51.5" font-family="Helvetica,sans-Serif" font-size="10.00" fill="#000000">+ setUp()</text>
<text text-anchor="start" x="680.5" y="-40.5" font-family="Helvetica,sans-Serif" font-size="10.00" fill="#000000">+ tearDown()</text>
<text text-anchor="start" x="680.5" y="-29.5" font-family="Helvetica,sans-Serif" font-size="10.00" fill="#000000">+ collect()</text>
<text text-anchor="start" x="680.5" y="-18.5" font-family="Helvetica,sans-Serif" font-size="10.00" fill="#000000">+ process()</text>
<text text-anchor="start" x="680.5" y="-7.5" font-family="Helvetica,sans-Serif" font-size="10.00" fill="#000000">+ transfer()</text>
</a>
</g>
</g>
<!-- Node11&#45;&gt;Node12 -->
<g id="edge11" class="edge">
<title>Node11&#45;&gt;Node12</title>
<path fill="none" stroke="#191970" d="M789.9672,-203.4006C774.5707,-176.3453 758.3905,-147.9127 744.6098,-123.6965"/>
<polygon fill="none" stroke="#191970" points="786.9465,-205.1692 794.9344,-212.1294 793.0304,-201.707 786.9465,-205.1692"/>
</g>
<!-- Node13 -->
<g id="node13" class="node">
<title>Node13</title>
<g id="a_node13"><a xlink:href="classG3T1__2.html" target="_top" xlink:title=" ">
<polygon fill="#ffffff" stroke="#000000" points="764.5,-.5 764.5,-123.5 838.5,-123.5 838.5,-.5 764.5,-.5"/>
<text text-anchor="middle" x="801.5" y="-111.5" font-family="Helvetica,sans-Serif" font-size="10.00" fill="#000000">G3T1_2</text>
<polyline fill="none" stroke="#000000" points="764.5,-104.5 838.5,-104.5 "/>
<text text-anchor="middle" x="801.5" y="-92.5" font-family="Helvetica,sans-Serif" font-size="10.00" fill="#000000"> </text>
<polyline fill="none" stroke="#000000" points="764.5,-85.5 838.5,-85.5 "/>
<text text-anchor="start" x="772.5" y="-73.5" font-family="Helvetica,sans-Serif" font-size="10.00" fill="#000000">+ G3T1_2()</text>
<text text-anchor="start" x="772.5" y="-62.5" font-family="Helvetica,sans-Serif" font-size="10.00" fill="#000000">+ ~G3T1_2()</text>
<text text-anchor="start" x="772.5" y="-51.5" font-family="Helvetica,sans-Serif" font-size="10.00" fill="#000000">+ setUp()</text>
<text text-anchor="start" x="772.5" y="-40.5" font-family="Helvetica,sans-Serif" font-size="10.00" fill="#000000">+ tearDown()</text>
<text text-anchor="start" x="772.5" y="-29.5" font-family="Helvetica,sans-Serif" font-size="10.00" fill="#000000">+ collect()</text>
<text text-anchor="start" x="772.5" y="-18.5" font-family="Helvetica,sans-Serif" font-size="10.00" fill="#000000">+ process()</text>
<text text-anchor="start" x="772.5" y="-7.5" font-family="Helvetica,sans-Serif" font-size="10.00" fill="#000000">+ transfer()</text>
</a>
</g>
</g>
<!-- Node11&#45;&gt;Node13 -->
<g id="edge12" class="edge">
<title>Node11&#45;&gt;Node13</title>
<path fill="none" stroke="#191970" d="M818.2788,-150.4537C816.506,-141.1078 814.7865,-132.0431 813.167,-123.5053"/>
<polygon fill="none" stroke="#191970" points="814.8412,-151.112 820.1436,-160.2844 821.7186,-149.8073 814.8412,-151.112"/>
</g>
<!-- Node14 -->
<g id="node14" class="node">
<title>Node14</title>
<g id="a_node14"><a xlink:href="classG3T1__3.html" target="_top" xlink:title=" ">
<polygon fill="#ffffff" stroke="#000000" points="856.5,-.5 856.5,-123.5 930.5,-123.5 930.5,-.5 856.5,-.5"/>
<text text-anchor="middle" x="893.5" y="-111.5" font-family="Helvetica,sans-Serif" font-size="10.00" fill="#000000">G3T1_3</text>
<polyline fill="none" stroke="#000000" points="856.5,-104.5 930.5,-104.5 "/>
<text text-anchor="middle" x="893.5" y="-92.5" font-family="Helvetica,sans-Serif" font-size="10.00" fill="#000000"> </text>
<polyline fill="none" stroke="#000000" points="856.5,-85.5 930.5,-85.5 "/>
<text text-anchor="start" x="864.5" y="-73.5" font-family="Helvetica,sans-Serif" font-size="10.00" fill="#000000">+ G3T1_3()</text>
<text text-anchor="start" x="864.5" y="-62.5" font-family="Helvetica,sans-Serif" font-size="10.00" fill="#000000">+ ~G3T1_3()</text>
<text text-anchor="start" x="864.5" y="-51.5" font-family="Helvetica,sans-Serif" font-size="10.00" fill="#000000">+ setUp()</text>
<text text-anchor="start" x="864.5" y="-40.5" font-family="Helvetica,sans-Serif" font-size="10.00" fill="#000000">+ tearDown()</text>
<text text-anchor="start" x="864.5" y="-29.5" font-family="Helvetica,sans-Serif" font-size="10.00" fill="#000000">+ collect()</text>
<text text-anchor="start" x="864.5" y="-18.5" font-family="Helvetica,sans-Serif" font-size="10.00" fill="#000000">+ process()</text>
<text text-anchor="start" x="864.5" y="-7.5" font-family="Helvetica,sans-Serif" font-size="10.00" fill="#000000">+ transfer()</text>
</a>
</g>
</g>
<!-- Node11&#45;&gt;Node14 -->
<g id="edge13" class="edge">
<title>Node11&#45;&gt;Node14</title>
<path fill="none" stroke="#191970" d="M876.7212,-150.4537C878.494,-141.1078 880.2135,-132.0431 881.833,-123.5053"/>
<polygon fill="none" stroke="#191970" points="873.2814,-149.8073 874.8564,-160.2844 880.1588,-151.112 873.2814,-149.8073"/>
</g>
<!-- Node15 -->
<g id="node15" class="node">
<title>Node15</title>
<g id="a_node15"><a xlink:href="classG3T1__4.html" target="_top" xlink:title=" ">
<polygon fill="#ffffff" stroke="#000000" points="948.5,-.5 948.5,-123.5 1022.5,-123.5 1022.5,-.5 948.5,-.5"/>
<text text-anchor="middle" x="985.5" y="-111.5" font-family="Helvetica,sans-Serif" font-size="10.00" fill="#000000">G3T1_4</text>
<polyline fill="none" stroke="#000000" points="948.5,-104.5 1022.5,-104.5 "/>
<text text-anchor="middle" x="985.5" y="-92.5" font-family="Helvetica,sans-Serif" font-size="10.00" fill="#000000"> </text>
<polyline fill="none" stroke="#000000" points="948.5,-85.5 1022.5,-85.5 "/>
<text text-anchor="start" x="956.5" y="-73.5" font-family="Helvetica,sans-Serif" font-size="10.00" fill="#000000">+ G3T1_4()</text>
<text text-anchor="start" x="956.5" y="-62.5" font-family="Helvetica,sans-Serif" font-size="10.00" fill="#000000">+ ~G3T1_4()</text>
<text text-anchor="start" x="956.5" y="-51.5" font-family="Helvetica,sans-Serif" font-size="10.00" fill="#000000">+ setUp()</text>
<text text-anchor="start" x="956.5" y="-40.5" font-family="Helvetica,sans-Serif" font-size="10.00" fill="#000000">+ tearDown()</text>
<text text-anchor="start" x="956.5" y="-29.5" font-family="Helvetica,sans-Serif" font-size="10.00" fill="#000000">+ collect()</text>
<text text-anchor="start" x="956.5" y="-18.5" font-family="Helvetica,sans-Serif" font-size="10.00" fill="#000000">+ process()</text>
<text text-anchor="start" x="956.5" y="-7.5" font-family="Helvetica,sans-Serif" font-size="10.00" fill="#000000">+ transfer()</text>
</a>
</g>
</g>
<!-- Node11&#45;&gt;Node15 -->
<g id="edge14" class="edge">
<title>Node11&#45;&gt;Node15</title>
<path fill="none" stroke="#191970" d="M905.0425,-167.4849C906.5089,-164.952 907.9951,-162.4545 909.5,-160 920.3866,-142.2444 926.6233,-140.3697 939.5,-124 942.4003,-120.313 945.3674,-116.4752 948.3287,-112.5969"/>
<polygon fill="none" stroke="#191970" points="901.9809,-165.7886 900.1344,-176.2213 908.0838,-169.2172 901.9809,-165.7886"/>
</g>
<!-- Node16 -->
<g id="node16" class="node">
<title>Node16</title>
<g id="a_node16"><a xlink:href="classG3T1__5.html" target="_top" xlink:title=" ">
<polygon fill="#ffffff" stroke="#000000" points="1040.5,-.5 1040.5,-123.5 1114.5,-123.5 1114.5,-.5 1040.5,-.5"/>
<text text-anchor="middle" x="1077.5" y="-111.5" font-family="Helvetica,sans-Serif" font-size="10.00" fill="#000000">G3T1_5</text>
<polyline fill="none" stroke="#000000" points="1040.5,-104.5 1114.5,-104.5 "/>
<text text-anchor="middle" x="1077.5" y="-92.5" font-family="Helvetica,sans-Serif" font-size="10.00" fill="#000000"> </text>
<polyline fill="none" stroke="#000000" points="1040.5,-85.5 1114.5,-85.5 "/>
<text text-anchor="start" x="1048.5" y="-73.5" font-family="Helvetica,sans-Serif" font-size="10.00" fill="#000000">+ G3T1_5()</text>
<text text-anchor="start" x="1048.5" y="-62.5" font-family="Helvetica,sans-Serif" font-size="10.00" fill="#000000">+ ~G3T1_5()</text>
<text text-anchor="start" x="1048.5" y="-51.5" font-family="Helvetica,sans-Serif" font-size="10.00" fill="#000000">+ setUp()</text>
<text text-anchor="start" x="1048.5" y="-40.5" font-family="Helvetica,sans-Serif" font-size="10.00" fill="#000000">+ tearDown()</text>
<text text-anchor="start" x="1048.5" y="-29.5" font-family="Helvetica,sans-Serif" font-size="10.00" fill="#000000">+ collect()</text>
<text text-anchor="start" x="1048.5" y="-18.5" font-family="Helvetica,sans-Serif" font-size="10.00" fill="#000000">+ process()</text>
<text text-anchor="start" x="1048.5" y="-7.5" font-family="Helvetica,sans-Serif" font-size="10.00" fill="#000000">+ transfer()</text>
</a>
</g>
</g>
<!-- Node11&#45;&gt;Node16 -->
<g id="edge15" class="edge">
<title>Node11&#45;&gt;Node16</title>
<path fill="none" stroke="#191970" d="M907.3806,-161.932C908.0792,-161.2786 908.7856,-160.6345 909.5,-160 951.7699,-122.4593 985.1529,-156.3727 1031.5,-124 1034.5766,-121.851 1037.5305,-119.4304 1040.3518,-116.8234"/>
<polygon fill="none" stroke="#191970" points="904.6899,-159.6772 900.1928,-169.2703 909.6907,-164.5754 904.6899,-159.6772"/>
</g>
<!-- Node18 -->
<g id="node18" class="node">
<title>Node18</title>
<g id="a_node18"><a xlink:href="classParamAdapter.html" target="_top" xlink:title=" ">
<polygon fill="#ffffff" stroke="#000000" points="918,-243 918,-366 1073,-366 1073,-243 918,-243"/>
<text text-anchor="middle" x="995.5" y="-354" font-family="Helvetica,sans-Serif" font-size="10.00" fill="#000000">ParamAdapter</text>
<polyline fill="none" stroke="#000000" points="918,-347 1073,-347 "/>
<text text-anchor="middle" x="995.5" y="-335" font-family="Helvetica,sans-Serif" font-size="10.00" fill="#000000"> </text>
<polyline fill="none" stroke="#000000" points="918,-328 1073,-328 "/>
<text text-anchor="start" x="926" y="-316" font-family="Helvetica,sans-Serif" font-size="10.00" fill="#000000">+ ParamAdapter()</text>
<text text-anchor="start" x="926" y="-305" font-family="Helvetica,sans-Serif" font-size="10.00" fill="#000000">+ ~ParamAdapter()</text>
<text text-anchor="start" x="926" y="-294" font-family="Helvetica,sans-Serif" font-size="10.00" fill="#000000">+ setUp()</text>
<text text-anchor="start" x="926" y="-283" font-family="Helvetica,sans-Serif" font-size="10.00" fill="#000000">+ tearDown()</text>
<text text-anchor="start" x="926" y="-272" font-family="Helvetica,sans-Serif" font-size="10.00" fill="#000000">+ body()</text>
<text text-anchor="start" x="926" y="-261" font-family="Helvetica,sans-Serif" font-size="10.00" fill="#000000">+ receiveAdaptationCommand()</text>
<text text-anchor="start" x="926" y="-250" font-family="Helvetica,sans-Serif" font-size="10.00" fill="#000000">+ moduleConnect()</text>
</a>
</g>
</g>
<!-- Node17&#45;&gt;Node18 -->
<g id="edge17" class="edge">
<title>Node17&#45;&gt;Node18</title>
<path fill="none" stroke="#191970" d="M995.5,-513.7094C995.5,-468.885 995.5,-410.0997 995.5,-366.2599"/>
<polygon fill="none" stroke="#191970" points="992.0001,-513.9164 995.5,-523.9164 999.0001,-513.9164 992.0001,-513.9164"/>
</g>
</g>
</svg>
