<?xml version="1.0" encoding="UTF-8" standalone="no"?>
<!DOCTYPE svg PUBLIC "-//W3C//DTD SVG 1.1//EN"
 "http://www.w3.org/Graphics/SVG/1.1/DTD/svg11.dtd">
<!-- Generated by graphviz version 2.40.1 (20161225.0304)
 -->
<!-- Title: Lepton::ExpressionTreeNode::operator= Pages: 1 -->
<svg width="330pt" height="137pt"
 viewBox="0.00 0.00 330.00 137.00" xmlns="http://www.w3.org/2000/svg" xmlns:xlink="http://www.w3.org/1999/xlink">
<g id="graph0" class="graph" transform="scale(1 1) rotate(0) translate(4 133)">
<title>Lepton::ExpressionTreeNode::operator=</title>
<polygon fill="#ffffff" stroke="transparent" points="-4,4 -4,-133 326,-133 326,4 -4,4"/>
<!-- Node1 -->
<g id="node1" class="node">
<title>Node1</title>
<g id="a_node1"><a xlink:title=" ">
<polygon fill="#bfbfbf" stroke="#000000" points="0,-49.5 0,-79.5 143,-79.5 143,-49.5 0,-49.5"/>
<text text-anchor="start" x="8" y="-67.5" font-family="Helvetica,sans-Serif" font-size="10.00" fill="#000000">Lepton::ExpressionTreeNode</text>
<text text-anchor="middle" x="71.5" y="-56.5" font-family="Helvetica,sans-Serif" font-size="10.00" fill="#000000">::operator=</text>
</a>
</g>
</g>
<!-- Node2 -->
<g id="node2" class="node">
<title>Node2</title>
<g id="a_node2"><a xlink:href="classLepton_1_1Operation.html#a720e242c159792dec39224b98592db31" target="_top" xlink:title=" ">
<polygon fill="#ffffff" stroke="#000000" points="200.5,-98.5 200.5,-128.5 300.5,-128.5 300.5,-98.5 200.5,-98.5"/>
<text text-anchor="start" x="208.5" y="-116.5" font-family="Helvetica,sans-Serif" font-size="10.00" fill="#000000">Lepton::Operation::</text>
<text text-anchor="middle" x="250.5" y="-105.5" font-family="Helvetica,sans-Serif" font-size="10.00" fill="#000000">clone</text>
</a>
</g>
</g>
<!-- Node1&#45;&gt;Node2 -->
<g id="edge1" class="edge">
<title>Node1&#45;&gt;Node2</title>
<path fill="none" stroke="#191970" d="M126.6665,-79.6014C146.8822,-85.1353 169.8524,-91.4233 190.473,-97.068"/>
<polygon fill="#191970" stroke="#191970" points="189.8154,-100.5167 200.3847,-99.7813 191.6637,-93.7651 189.8154,-100.5167"/>
</g>
<!-- Node3 -->
<g id="node3" class="node">
<title>Node3</title>
<g id="a_node3"><a xlink:href="classLepton_1_1ExpressionTreeNode.html#ad3a8c112ab1cf0ef6fcdc336cf099368" target="_top" xlink:title=" ">
<polygon fill="#ffffff" stroke="#000000" points="179,-49.5 179,-79.5 322,-79.5 322,-49.5 179,-49.5"/>
<text text-anchor="start" x="187" y="-67.5" font-family="Helvetica,sans-Serif" font-size="10.00" fill="#000000">Lepton::ExpressionTreeNode</text>
<text text-anchor="middle" x="250.5" y="-56.5" font-family="Helvetica,sans-Serif" font-size="10.00" fill="#000000">::getChildren</text>
</a>
</g>
</g>
<!-- Node1&#45;&gt;Node3 -->
<g id="edge2" class="edge">
<title>Node1&#45;&gt;Node3</title>
<path fill="none" stroke="#191970" d="M143.0172,-64.5C151.4862,-64.5 160.1793,-64.5 168.776,-64.5"/>
<polygon fill="#191970" stroke="#191970" points="168.8043,-68.0001 178.8042,-64.5 168.8042,-61.0001 168.8043,-68.0001"/>
</g>
<!-- Node4 -->
<g id="node4" class="node">
<title>Node4</title>
<g id="a_node4"><a xlink:href="classLepton_1_1ExpressionTreeNode.html#a779a783ff48104642ccbce6e01a822c4" target="_top" xlink:title=" ">
<polygon fill="#ffffff" stroke="#000000" points="179,-.5 179,-30.5 322,-30.5 322,-.5 179,-.5"/>
<text text-anchor="start" x="187" y="-18.5" font-family="Helvetica,sans-Serif" font-size="10.00" fill="#000000">Lepton::ExpressionTreeNode</text>
<text text-anchor="middle" x="250.5" y="-7.5" font-family="Helvetica,sans-Serif" font-size="10.00" fill="#000000">::getOperation</text>
</a>
</g>
</g>
<!-- Node1&#45;&gt;Node4 -->
<g id="edge3" class="edge">
<title>Node1&#45;&gt;Node4</title>
<path fill="none" stroke="#191970" d="M126.6665,-49.3986C145.3842,-44.2747 166.4635,-38.5044 185.8526,-33.1968"/>
<polygon fill="#191970" stroke="#191970" points="186.7946,-36.5677 195.5157,-30.5516 184.9464,-29.8161 186.7946,-36.5677"/>
</g>
</g>
</svg>
