<?xml version="1.0" encoding="UTF-8" standalone="no"?>
<!DOCTYPE svg PUBLIC "-//W3C//DTD SVG 1.1//EN"
 "http://www.w3.org/Graphics/SVG/1.1/DTD/svg11.dtd">
<!-- Generated by graphviz version 2.40.1 (20161225.0304)
 -->
<!-- Title: G4T1 Pages: 1 -->
<svg width="768pt" height="905pt"
 viewBox="0.00 0.00 768.00 905.00" xmlns="http://www.w3.org/2000/svg" xmlns:xlink="http://www.w3.org/1999/xlink">
<g id="graph0" class="graph" transform="scale(1 1) rotate(0) translate(4 901)">
<title>G4T1</title>
<polygon fill="#ffffff" stroke="transparent" points="-4,4 -4,-901 764,-901 764,4 -4,4"/>
<!-- Node1 -->
<g id="node1" class="node">
<title>Node1</title>
<g id="a_node1"><a xlink:title=" ">
<polygon fill="#bfbfbf" stroke="#000000" points="411,-.5 411,-123.5 485,-123.5 485,-.5 411,-.5"/>
<text text-anchor="middle" x="448" y="-111.5" font-family="Helvetica,sans-Serif" font-size="10.00" fill="#000000">G4T1</text>
<polyline fill="none" stroke="#000000" points="411,-104.5 485,-104.5 "/>
<text text-anchor="middle" x="448" y="-92.5" font-family="Helvetica,sans-Serif" font-size="10.00" fill="#000000"> </text>
<polyline fill="none" stroke="#000000" points="411,-85.5 485,-85.5 "/>
<text text-anchor="start" x="419" y="-73.5" font-family="Helvetica,sans-Serif" font-size="10.00" fill="#000000">+ G4T1()</text>
<text text-anchor="start" x="419" y="-62.5" font-family="Helvetica,sans-Serif" font-size="10.00" fill="#000000">+ ~G4T1()</text>
<text text-anchor="start" x="419" y="-51.5" font-family="Helvetica,sans-Serif" font-size="10.00" fill="#000000">+ setUp()</text>
<text text-anchor="start" x="419" y="-40.5" font-family="Helvetica,sans-Serif" font-size="10.00" fill="#000000">+ tearDown()</text>
<text text-anchor="start" x="419" y="-29.5" font-family="Helvetica,sans-Serif" font-size="10.00" fill="#000000">+ collect()</text>
<text text-anchor="start" x="419" y="-18.5" font-family="Helvetica,sans-Serif" font-size="10.00" fill="#000000">+ process()</text>
<text text-anchor="start" x="419" y="-7.5" font-family="Helvetica,sans-Serif" font-size="10.00" fill="#000000">+ transfer()</text>
</a>
</g>
</g>
<!-- Node2 -->
<g id="node2" class="node">
<title>Node2</title>
<g id="a_node2"><a xlink:href="classCentralHub.html" target="_top" xlink:title=" ">
<polygon fill="#ffffff" stroke="#000000" points="404.5,-161.5 404.5,-328.5 491.5,-328.5 491.5,-161.5 404.5,-161.5"/>
<text text-anchor="middle" x="448" y="-316.5" font-family="Helvetica,sans-Serif" font-size="10.00" fill="#000000">CentralHub</text>
<polyline fill="none" stroke="#000000" points="404.5,-309.5 491.5,-309.5 "/>
<text text-anchor="middle" x="448" y="-297.5" font-family="Helvetica,sans-Serif" font-size="10.00" fill="#000000"> </text>
<polyline fill="none" stroke="#000000" points="404.5,-290.5 491.5,-290.5 "/>
<text text-anchor="start" x="412.5" y="-278.5" font-family="Helvetica,sans-Serif" font-size="10.00" fill="#000000">+ CentralHub()</text>
<text text-anchor="start" x="412.5" y="-267.5" font-family="Helvetica,sans-Serif" font-size="10.00" fill="#000000">+ ~CentralHub()</text>
<text text-anchor="start" x="412.5" y="-256.5" font-family="Helvetica,sans-Serif" font-size="10.00" fill="#000000">+ setUp()</text>
<text text-anchor="start" x="412.5" y="-245.5" font-family="Helvetica,sans-Serif" font-size="10.00" fill="#000000">+ tearDown()</text>
<text text-anchor="start" x="412.5" y="-234.5" font-family="Helvetica,sans-Serif" font-size="10.00" fill="#000000">+ run()</text>
<text text-anchor="start" x="412.5" y="-223.5" font-family="Helvetica,sans-Serif" font-size="10.00" fill="#000000">+ body()</text>
<text text-anchor="start" x="412.5" y="-212.5" font-family="Helvetica,sans-Serif" font-size="10.00" fill="#000000">+ apply_noise()</text>
<text text-anchor="start" x="412.5" y="-201.5" font-family="Helvetica,sans-Serif" font-size="10.00" fill="#000000">+ reconfigure()</text>
<text text-anchor="start" x="412.5" y="-190.5" font-family="Helvetica,sans-Serif" font-size="10.00" fill="#000000">+ collect()</text>
<text text-anchor="start" x="412.5" y="-179.5" font-family="Helvetica,sans-Serif" font-size="10.00" fill="#000000">+ process()</text>
<text text-anchor="start" x="412.5" y="-168.5" font-family="Helvetica,sans-Serif" font-size="10.00" fill="#000000">+ transfer()</text>
</a>
</g>
</g>
<!-- Node2&#45;&gt;Node1 -->
<g id="edge1" class="edge">
<title>Node2&#45;&gt;Node1</title>
<path fill="none" stroke="#191970" d="M448,-151.117C448,-141.7593 448,-132.4349 448,-123.5355"/>
<polygon fill="none" stroke="#191970" points="444.5001,-151.2656 448,-161.2656 451.5001,-151.2656 444.5001,-151.2656"/>
</g>
<!-- Node3 -->
<g id="node3" class="node">
<title>Node3</title>
<g id="a_node3"><a xlink:href="classarch_1_1target__system_1_1Component.html" target="_top" xlink:title=" ">
<polygon fill="#ffffff" stroke="#000000" points="119,-376.5 119,-565.5 223,-565.5 223,-376.5 119,-376.5"/>
<text text-anchor="start" x="127" y="-553.5" font-family="Helvetica,sans-Serif" font-size="10.00" fill="#000000">arch::target_system</text>
<text text-anchor="middle" x="171" y="-542.5" font-family="Helvetica,sans-Serif" font-size="10.00" fill="#000000">::Component</text>
<polyline fill="none" stroke="#000000" points="119,-535.5 223,-535.5 "/>
<text text-anchor="middle" x="171" y="-523.5" font-family="Helvetica,sans-Serif" font-size="10.00" fill="#000000"> </text>
<polyline fill="none" stroke="#000000" points="119,-516.5 223,-516.5 "/>
<text text-anchor="start" x="127" y="-504.5" font-family="Helvetica,sans-Serif" font-size="10.00" fill="#000000">+ Component()</text>
<text text-anchor="start" x="127" y="-493.5" font-family="Helvetica,sans-Serif" font-size="10.00" fill="#000000">+ ~Component()</text>
<text text-anchor="start" x="127" y="-482.5" font-family="Helvetica,sans-Serif" font-size="10.00" fill="#000000">+ setUp()</text>
<text text-anchor="start" x="127" y="-471.5" font-family="Helvetica,sans-Serif" font-size="10.00" fill="#000000">+ tearDown()</text>
<text text-anchor="start" x="127" y="-460.5" font-family="Helvetica,sans-Serif" font-size="10.00" fill="#000000">+ run()</text>
<text text-anchor="start" x="127" y="-449.5" font-family="Helvetica,sans-Serif" font-size="10.00" fill="#000000">+ body()</text>
<text text-anchor="start" x="127" y="-438.5" font-family="Helvetica,sans-Serif" font-size="10.00" fill="#000000">+ sendEvent()</text>
<text text-anchor="start" x="127" y="-427.5" font-family="Helvetica,sans-Serif" font-size="10.00" fill="#000000">+ sendStatus()</text>
<text text-anchor="start" x="127" y="-416.5" font-family="Helvetica,sans-Serif" font-size="10.00" fill="#000000">+ reconfigure()</text>
<text text-anchor="start" x="127" y="-405.5" font-family="Helvetica,sans-Serif" font-size="10.00" fill="#000000"># activate()</text>
<text text-anchor="start" x="127" y="-394.5" font-family="Helvetica,sans-Serif" font-size="10.00" fill="#000000"># deactivate()</text>
<text text-anchor="start" x="127" y="-383.5" font-family="Helvetica,sans-Serif" font-size="10.00" fill="#000000"># sigIntHandler()</text>
</a>
</g>
</g>
<!-- Node3&#45;&gt;Node2 -->
<g id="edge2" class="edge">
<title>Node3&#45;&gt;Node2</title>
<path fill="none" stroke="#191970" d="M225.856,-367.9436C231.8036,-360.4316 238.192,-353.3319 245,-347 291.4985,-303.7529 359.8018,-274.5592 404.0923,-258.8476"/>
<polygon fill="none" stroke="#191970" points="222.8208,-366.1543 219.5762,-376.2401 228.4022,-370.379 222.8208,-366.1543"/>
</g>
<!-- Node4 -->
<g id="node4" class="node">
<title>Node4</title>
<g id="a_node4"><a xlink:href="classarch_1_1ROSComponent.html" target="_top" xlink:title=" ">
<polygon fill="#ffffff" stroke="#000000" points="22.5,-613.5 22.5,-736.5 135.5,-736.5 135.5,-613.5 22.5,-613.5"/>
<text text-anchor="middle" x="79" y="-724.5" font-family="Helvetica,sans-Serif" font-size="10.00" fill="#000000">arch::ROSComponent</text>
<polyline fill="none" stroke="#000000" points="22.5,-717.5 135.5,-717.5 "/>
<text text-anchor="middle" x="79" y="-705.5" font-family="Helvetica,sans-Serif" font-size="10.00" fill="#000000"> </text>
<polyline fill="none" stroke="#000000" points="22.5,-698.5 135.5,-698.5 "/>
<text text-anchor="start" x="30.5" y="-686.5" font-family="Helvetica,sans-Serif" font-size="10.00" fill="#000000">+ ROSComponent()</text>
<text text-anchor="start" x="30.5" y="-675.5" font-family="Helvetica,sans-Serif" font-size="10.00" fill="#000000">+ ~ROSComponent()</text>
<text text-anchor="start" x="30.5" y="-664.5" font-family="Helvetica,sans-Serif" font-size="10.00" fill="#000000">+ setUp()</text>
<text text-anchor="start" x="30.5" y="-653.5" font-family="Helvetica,sans-Serif" font-size="10.00" fill="#000000">+ tearDown()</text>
<text text-anchor="start" x="30.5" y="-642.5" font-family="Helvetica,sans-Serif" font-size="10.00" fill="#000000">+ run()</text>
<text text-anchor="start" x="30.5" y="-631.5" font-family="Helvetica,sans-Serif" font-size="10.00" fill="#000000">+ body()</text>
<text text-anchor="start" x="30.5" y="-620.5" font-family="Helvetica,sans-Serif" font-size="10.00" fill="#000000"># getRosNodeName()</text>
</a>
</g>
</g>
<!-- Node4&#45;&gt;Node3 -->
<g id="edge3" class="edge">
<title>Node4&#45;&gt;Node3</title>
<path fill="none" stroke="#191970" d="M111.049,-603.9348C116.6214,-591.5786 122.4955,-578.5534 128.2992,-565.6843"/>
<polygon fill="none" stroke="#191970" points="107.7733,-602.6849 106.8527,-613.2397 114.1544,-605.5627 107.7733,-602.6849"/>
</g>
<!-- Node5 -->
<g id="node5" class="node">
<title>Node5</title>
<g id="a_node5"><a xlink:href="classarch_1_1ROSComponentDescriptor.html" target="_top" xlink:title=" ">
<polygon fill="#ffffff" stroke="#000000" points="0,-784.5 0,-896.5 158,-896.5 158,-784.5 0,-784.5"/>
<text text-anchor="middle" x="79" y="-884.5" font-family="Helvetica,sans-Serif" font-size="10.00" fill="#000000">arch::ROSComponentDescriptor</text>
<polyline fill="none" stroke="#000000" points="0,-877.5 158,-877.5 "/>
<text text-anchor="middle" x="79" y="-865.5" font-family="Helvetica,sans-Serif" font-size="10.00" fill="#000000"> </text>
<polyline fill="none" stroke="#000000" points="0,-858.5 158,-858.5 "/>
<text text-anchor="start" x="8" y="-846.5" font-family="Helvetica,sans-Serif" font-size="10.00" fill="#000000">+ ROSComponentDescriptor()</text>
<text text-anchor="start" x="8" y="-835.5" font-family="Helvetica,sans-Serif" font-size="10.00" fill="#000000">+ ~ROSComponentDescriptor()</text>
<text text-anchor="start" x="8" y="-824.5" font-family="Helvetica,sans-Serif" font-size="10.00" fill="#000000">+ setName()</text>
<text text-anchor="start" x="8" y="-813.5" font-family="Helvetica,sans-Serif" font-size="10.00" fill="#000000">+ getName()</text>
<text text-anchor="start" x="8" y="-802.5" font-family="Helvetica,sans-Serif" font-size="10.00" fill="#000000">+ setFreq()</text>
<text text-anchor="start" x="8" y="-791.5" font-family="Helvetica,sans-Serif" font-size="10.00" fill="#000000">+ getFreq()</text>
</a>
</g>
</g>
<!-- Node5&#45;&gt;Node4 -->
<g id="edge4" class="edge">
<title>Node5&#45;&gt;Node4</title>
<path fill="none" stroke="#404040" d="M79,-784.4692C79,-773.0551 79,-760.8811 79,-748.9537"/>
<polygon fill="none" stroke="#404040" points="79.0001,-748.6555 75,-742.6555 79,-736.6555 83,-742.6555 79.0001,-748.6555"/>
<text text-anchor="middle" x="138" y="-758" font-family="Helvetica,sans-Serif" font-size="10.00" fill="#000000"> #rosComponentDescriptor</text>
</g>
<!-- Node6 -->
<g id="node6" class="node">
<title>Node6</title>
<g id="a_node6"><a xlink:title=" ">
<polygon fill="#ffffff" stroke="#bfbfbf" points="153.5,-646.5 153.5,-703.5 224.5,-703.5 224.5,-646.5 153.5,-646.5"/>
<text text-anchor="middle" x="189" y="-691.5" font-family="Helvetica,sans-Serif" font-size="10.00" fill="#000000">NodeHandle</text>
<polyline fill="none" stroke="#bfbfbf" points="153.5,-684.5 224.5,-684.5 "/>
<text text-anchor="middle" x="189" y="-672.5" font-family="Helvetica,sans-Serif" font-size="10.00" fill="#000000"> </text>
<polyline fill="none" stroke="#bfbfbf" points="153.5,-665.5 224.5,-665.5 "/>
<text text-anchor="middle" x="189" y="-653.5" font-family="Helvetica,sans-Serif" font-size="10.00" fill="#000000"> </text>
</a>
</g>
</g>
<!-- Node6&#45;&gt;Node3 -->
<g id="edge5" class="edge">
<title>Node6&#45;&gt;Node3</title>
<path fill="none" stroke="#404040" d="M186.4592,-646.2045C184.8446,-627.9054 182.6438,-602.9625 180.4092,-577.6377"/>
<polygon fill="none" stroke="#404040" points="180.402,-577.5552 175.8901,-571.93 179.3472,-565.6016 183.8591,-571.2268 180.402,-577.5552"/>
<text text-anchor="middle" x="200.5" y="-587" font-family="Helvetica,sans-Serif" font-size="10.00" fill="#000000"> #handle</text>
</g>
<!-- Node7 -->
<g id="node7" class="node">
<title>Node7</title>
<g id="a_node7"><a xlink:title=" ">
<polygon fill="#ffffff" stroke="#bfbfbf" points="355,-442.5 355,-499.5 453,-499.5 453,-442.5 355,-442.5"/>
<text text-anchor="middle" x="404" y="-487.5" font-family="Helvetica,sans-Serif" font-size="10.00" fill="#000000">std::array&lt; int, 5 &gt;</text>
<polyline fill="none" stroke="#bfbfbf" points="355,-480.5 453,-480.5 "/>
<text text-anchor="middle" x="404" y="-468.5" font-family="Helvetica,sans-Serif" font-size="10.00" fill="#000000"> </text>
<polyline fill="none" stroke="#bfbfbf" points="355,-461.5 453,-461.5 "/>
<text text-anchor="middle" x="404" y="-449.5" font-family="Helvetica,sans-Serif" font-size="10.00" fill="#000000"> </text>
</a>
</g>
</g>
<!-- Node7&#45;&gt;Node2 -->
<g id="edge6" class="edge">
<title>Node7&#45;&gt;Node2</title>
<path fill="none" stroke="#404040" d="M401.4495,-442.1027C399.9245,-416.7571 399.3903,-379.0521 406,-347 406.4518,-344.8093 406.9497,-342.6063 407.4887,-340.3964"/>
<polygon fill="none" stroke="#404040" points="407.5641,-340.1208 405.2907,-333.2774 410.7333,-328.5468 413.0067,-335.3902 407.5641,-340.1208"/>
<text text-anchor="middle" x="434.5" y="-350" font-family="Helvetica,sans-Serif" font-size="10.00" fill="#000000"> #buffer_size</text>
</g>
<!-- Node8 -->
<g id="node8" class="node">
<title>Node8</title>
<g id="a_node8"><a xlink:title=" ">
<polygon fill="#ffffff" stroke="#bfbfbf" points="289.5,-646.5 289.5,-703.5 318.5,-703.5 318.5,-646.5 289.5,-646.5"/>
<text text-anchor="middle" x="304" y="-691.5" font-family="Helvetica,sans-Serif" font-size="10.00" fill="#000000">int</text>
<polyline fill="none" stroke="#bfbfbf" points="289.5,-684.5 318.5,-684.5 "/>
<text text-anchor="middle" x="304" y="-672.5" font-family="Helvetica,sans-Serif" font-size="10.00" fill="#000000"> </text>
<polyline fill="none" stroke="#bfbfbf" points="289.5,-665.5 318.5,-665.5 "/>
<text text-anchor="middle" x="304" y="-653.5" font-family="Helvetica,sans-Serif" font-size="10.00" fill="#000000"> </text>
</a>
</g>
</g>
<!-- Node8&#45;&gt;Node2 -->
<g id="edge8" class="edge">
<title>Node8&#45;&gt;Node2</title>
<path fill="none" stroke="#404040" d="M290.4039,-646.359C266.1584,-590.8503 222.1059,-466.1623 268,-376 294.0479,-324.827 350.4858,-288.9293 393.2676,-267.812"/>
<polygon fill="none" stroke="#404040" points="393.2741,-267.809 396.962,-261.6122 404.1005,-262.633 400.4126,-268.8298 393.2741,-267.809"/>
<text text-anchor="middle" x="307" y="-474" font-family="Helvetica,sans-Serif" font-size="10.00" fill="#000000"> #max_size</text>
<text text-anchor="middle" x="307" y="-463" font-family="Helvetica,sans-Serif" font-size="10.00" fill="#000000">#total_buffer_size</text>
</g>
<!-- Node8&#45;&gt;Node7 -->
<g id="edge7" class="edge">
<title>Node8&#45;&gt;Node7</title>
<path fill="none" stroke="#404040" d="M318.1155,-646.2045C335.499,-610.742 365.1138,-550.3279 384.6193,-510.5366"/>
<polygon fill="none" stroke="#404040" points="384.6744,-510.4241 383.7237,-503.2759 389.9563,-499.6491 390.9071,-506.7972 384.6744,-510.4241"/>
<text text-anchor="middle" x="373.5" y="-587" font-family="Helvetica,sans-Serif" font-size="10.00" fill="#000000"> +elements</text>
</g>
<!-- Node9 -->
<g id="node9" class="node">
<title>Node9</title>
<g id="a_node9"><a xlink:title=" ">
<polygon fill="#ffffff" stroke="#bfbfbf" points="471.5,-442.5 471.5,-499.5 506.5,-499.5 506.5,-442.5 471.5,-442.5"/>
<text text-anchor="middle" x="489" y="-487.5" font-family="Helvetica,sans-Serif" font-size="10.00" fill="#000000">bool</text>
<polyline fill="none" stroke="#bfbfbf" points="471.5,-480.5 506.5,-480.5 "/>
<text text-anchor="middle" x="489" y="-468.5" font-family="Helvetica,sans-Serif" font-size="10.00" fill="#000000"> </text>
<polyline fill="none" stroke="#bfbfbf" points="471.5,-461.5 506.5,-461.5 "/>
<text text-anchor="middle" x="489" y="-449.5" font-family="Helvetica,sans-Serif" font-size="10.00" fill="#000000"> </text>
</a>
</g>
</g>
<!-- Node9&#45;&gt;Node2 -->
<g id="edge9" class="edge">
<title>Node9&#45;&gt;Node2</title>
<path fill="none" stroke="#404040" d="M484.0013,-442.422C479.5868,-417.2812 472.9457,-379.697 467,-347 466.6289,-344.9592 466.2527,-342.8955 465.8727,-340.8153"/>
<polygon fill="none" stroke="#404040" points="465.827,-340.5659 460.8104,-335.3858 463.6625,-328.7627 468.6791,-333.9427 465.827,-340.5659"/>
<text text-anchor="middle" x="486.5" y="-350" font-family="Helvetica,sans-Serif" font-size="10.00" fill="#000000"> #active</text>
</g>
<!-- Node10 -->
<g id="node10" class="node">
<title>Node10</title>
<g id="a_node10"><a xlink:href="classbsn_1_1resource_1_1Battery.html" target="_top" xlink:title=" ">
<polygon fill="#ffffff" stroke="#000000" points="524.5,-387.5 524.5,-554.5 637.5,-554.5 637.5,-387.5 524.5,-387.5"/>
<text text-anchor="middle" x="581" y="-542.5" font-family="Helvetica,sans-Serif" font-size="10.00" fill="#000000">bsn::resource::Battery</text>
<polyline fill="none" stroke="#000000" points="524.5,-535.5 637.5,-535.5 "/>
<text text-anchor="middle" x="581" y="-523.5" font-family="Helvetica,sans-Serif" font-size="10.00" fill="#000000"> </text>
<polyline fill="none" stroke="#000000" points="524.5,-516.5 637.5,-516.5 "/>
<text text-anchor="start" x="532.5" y="-504.5" font-family="Helvetica,sans-Serif" font-size="10.00" fill="#000000">+ Battery()</text>
<text text-anchor="start" x="532.5" y="-493.5" font-family="Helvetica,sans-Serif" font-size="10.00" fill="#000000">+ Battery()</text>
<text text-anchor="start" x="532.5" y="-482.5" font-family="Helvetica,sans-Serif" font-size="10.00" fill="#000000">+ ~Battery()</text>
<text text-anchor="start" x="532.5" y="-471.5" font-family="Helvetica,sans-Serif" font-size="10.00" fill="#000000">+ Battery()</text>
<text text-anchor="start" x="532.5" y="-460.5" font-family="Helvetica,sans-Serif" font-size="10.00" fill="#000000">+ operator=()</text>
<text text-anchor="start" x="532.5" y="-449.5" font-family="Helvetica,sans-Serif" font-size="10.00" fill="#000000">+ consume()</text>
<text text-anchor="start" x="532.5" y="-438.5" font-family="Helvetica,sans-Serif" font-size="10.00" fill="#000000">+ generate()</text>
<text text-anchor="start" x="532.5" y="-427.5" font-family="Helvetica,sans-Serif" font-size="10.00" fill="#000000">+ setId()</text>
<text text-anchor="start" x="532.5" y="-416.5" font-family="Helvetica,sans-Serif" font-size="10.00" fill="#000000">+ getId()</text>
<text text-anchor="start" x="532.5" y="-405.5" font-family="Helvetica,sans-Serif" font-size="10.00" fill="#000000">+ setCapacity()</text>
<text text-anchor="start" x="532.5" y="-394.5" font-family="Helvetica,sans-Serif" font-size="10.00" fill="#000000">and 6 more...</text>
</a>
</g>
</g>
<!-- Node10&#45;&gt;Node2 -->
<g id="edge10" class="edge">
<title>Node10&#45;&gt;Node2</title>
<path fill="none" stroke="#404040" d="M531.8536,-387.488C520.7401,-368.6034 508.9313,-348.5374 497.7915,-329.608"/>
<polygon fill="none" stroke="#404040" points="497.7664,-329.5654 491.2759,-326.4231 491.6801,-319.2234 498.1706,-322.3656 497.7664,-329.5654"/>
<text text-anchor="middle" x="534.5" y="-350" font-family="Helvetica,sans-Serif" font-size="10.00" fill="#000000"> #battery</text>
</g>
<!-- Node11 -->
<g id="node11" class="node">
<title>Node11</title>
<g id="a_node11"><a xlink:title=" ">
<polygon fill="#ffffff" stroke="#bfbfbf" points="656,-437 656,-505 760,-505 760,-437 656,-437"/>
<text text-anchor="start" x="664" y="-493" font-family="Helvetica,sans-Serif" font-size="10.00" fill="#000000">std::vector&lt; std::list</text>
<text text-anchor="middle" x="708" y="-482" font-family="Helvetica,sans-Serif" font-size="10.00" fill="#000000">&lt; double &gt; &gt;</text>
<polyline fill="none" stroke="#bfbfbf" points="656,-475 760,-475 "/>
<text text-anchor="middle" x="708" y="-463" font-family="Helvetica,sans-Serif" font-size="10.00" fill="#000000"> </text>
<polyline fill="none" stroke="#bfbfbf" points="656,-456 760,-456 "/>
<text text-anchor="middle" x="708" y="-444" font-family="Helvetica,sans-Serif" font-size="10.00" fill="#000000"> </text>
</a>
</g>
</g>
<!-- Node11&#45;&gt;Node2 -->
<g id="edge11" class="edge">
<title>Node11&#45;&gt;Node2</title>
<path fill="none" stroke="#404040" d="M690.3272,-436.9111C679.2696,-417.6315 663.7696,-393.8815 646,-376 603.504,-333.2365 544.9318,-296.5746 502.5267,-273.002"/>
<polygon fill="none" stroke="#404040" points="502.3658,-272.9139 495.1818,-273.5392 491.8416,-267.1483 499.0255,-266.523 502.3658,-272.9139"/>
<text text-anchor="middle" x="652" y="-350" font-family="Helvetica,sans-Serif" font-size="10.00" fill="#000000"> #data_buffer</text>
</g>
<!-- Node12 -->
<g id="node12" class="node">
<title>Node12</title>
<g id="a_node12"><a xlink:title=" ">
<polygon fill="#ffffff" stroke="#bfbfbf" points="660.5,-646.5 660.5,-703.5 755.5,-703.5 755.5,-646.5 660.5,-646.5"/>
<text text-anchor="middle" x="708" y="-691.5" font-family="Helvetica,sans-Serif" font-size="10.00" fill="#000000">std::list&lt; double &gt;</text>
<polyline fill="none" stroke="#bfbfbf" points="660.5,-684.5 755.5,-684.5 "/>
<text text-anchor="middle" x="708" y="-672.5" font-family="Helvetica,sans-Serif" font-size="10.00" fill="#000000"> </text>
<polyline fill="none" stroke="#bfbfbf" points="660.5,-665.5 755.5,-665.5 "/>
<text text-anchor="middle" x="708" y="-653.5" font-family="Helvetica,sans-Serif" font-size="10.00" fill="#000000"> </text>
</a>
</g>
</g>
<!-- Node12&#45;&gt;Node11 -->
<g id="edge12" class="edge">
<title>Node12&#45;&gt;Node11</title>
<path fill="none" stroke="#404040" d="M708,-646.2045C708,-612.7073 708,-556.9476 708,-517.3347"/>
<polygon fill="none" stroke="#404040" points="708.0001,-517.0894 704,-511.0894 708,-505.0894 712,-511.0893 708.0001,-517.0894"/>
<text text-anchor="middle" x="732.5" y="-587" font-family="Helvetica,sans-Serif" font-size="10.00" fill="#000000"> +elements</text>
</g>
<!-- Node13 -->
<g id="node13" class="node">
<title>Node13</title>
<g id="a_node13"><a xlink:title=" ">
<polygon fill="#ffffff" stroke="#bfbfbf" points="685.5,-812 685.5,-869 730.5,-869 730.5,-812 685.5,-812"/>
<text text-anchor="middle" x="708" y="-857" font-family="Helvetica,sans-Serif" font-size="10.00" fill="#000000">double</text>
<polyline fill="none" stroke="#bfbfbf" points="685.5,-850 730.5,-850 "/>
<text text-anchor="middle" x="708" y="-838" font-family="Helvetica,sans-Serif" font-size="10.00" fill="#000000"> </text>
<polyline fill="none" stroke="#bfbfbf" points="685.5,-831 730.5,-831 "/>
<text text-anchor="middle" x="708" y="-819" font-family="Helvetica,sans-Serif" font-size="10.00" fill="#000000"> </text>
</a>
</g>
</g>
<!-- Node13&#45;&gt;Node12 -->
<g id="edge13" class="edge">
<title>Node13&#45;&gt;Node12</title>
<path fill="none" stroke="#404040" d="M708,-811.6721C708,-785.1738 708,-745.6093 708,-715.8578"/>
<polygon fill="none" stroke="#404040" points="708.0001,-715.7747 704,-709.7747 708,-703.7747 712,-709.7747 708.0001,-715.7747"/>
<text text-anchor="middle" x="732.5" y="-758" font-family="Helvetica,sans-Serif" font-size="10.00" fill="#000000"> +elements</text>
</g>
</g>
</svg>
