<?xml version="1.0" encoding="UTF-8" standalone="no"?>
<!DOCTYPE svg PUBLIC "-//W3C//DTD SVG 1.1//EN"
 "http://www.w3.org/Graphics/SVG/1.1/DTD/svg11.dtd">
<!-- Generated by graphviz version 2.40.1 (20161225.0304)
 -->
<!-- Title: bsn::goalmodel::Property::getValue Pages: 1 -->
<svg width="294pt" height="78pt"
 viewBox="0.00 0.00 294.00 77.50" xmlns="http://www.w3.org/2000/svg" xmlns:xlink="http://www.w3.org/1999/xlink">
<g id="graph0" class="graph" transform="scale(1 1) rotate(0) translate(4 73.5)">
<title>bsn::goalmodel::Property::getValue</title>
<polygon fill="#ffffff" stroke="transparent" points="-4,4 -4,-73.5 290,-73.5 290,4 -4,4"/>
<!-- Node1 -->
<g id="node1" class="node">
<title>Node1</title>
<g id="a_node1"><a xlink:title=" ">
<polygon fill="#bfbfbf" stroke="#000000" points="161,-17 161,-47 286,-47 286,-17 161,-17"/>
<text text-anchor="start" x="169" y="-35" font-family="Helvetica,sans-Serif" font-size="10.00" fill="#000000">bsn::goalmodel::Property</text>
<text text-anchor="middle" x="223.5" y="-24" font-family="Helvetica,sans-Serif" font-size="10.00" fill="#000000">::getValue</text>
</a>
</g>
</g>
<!-- Node2 -->
<g id="node2" class="node">
<title>Node2</title>
<g id="a_node2"><a xlink:href="classbsn_1_1goalmodel_1_1Property.html#a672a0f9fd98584a8a15c5a369749a016" target="_top" xlink:title=" ">
<polygon fill="#ffffff" stroke="#000000" points="0,-39 0,-69 125,-69 125,-39 0,-39"/>
<text text-anchor="start" x="8" y="-57" font-family="Helvetica,sans-Serif" font-size="10.00" fill="#000000">bsn::goalmodel::Property</text>
<text text-anchor="middle" x="62.5" y="-46" font-family="Helvetica,sans-Serif" font-size="10.00" fill="#000000">::operator=</text>
</a>
</g>
</g>
<!-- Node1&#45;&gt;Node2 -->
<g id="edge1" class="edge">
<title>Node1&#45;&gt;Node2</title>
<path fill="none" stroke="#191970" d="M150.7816,-41.9367C142.1871,-43.1111 133.4732,-44.3018 125.0367,-45.4546"/>
<polygon fill="#191970" stroke="#191970" points="151.3581,-45.3905 160.7922,-40.5688 150.4104,-38.455 151.3581,-45.3905"/>
</g>
<!-- Node3 -->
<g id="node3" class="node">
<title>Node3</title>
<g id="a_node3"><a xlink:href="PropertyTest_8cpp.html#a0dacf4182d16158972721b38f323e2a4" target="_top" xlink:title=" ">
<polygon fill="#ffffff" stroke="#000000" points="36,-.5 36,-19.5 89,-19.5 89,-.5 36,-.5"/>
<text text-anchor="middle" x="62.5" y="-7.5" font-family="Helvetica,sans-Serif" font-size="10.00" fill="#000000">TEST_F</text>
</a>
</g>
</g>
<!-- Node1&#45;&gt;Node3 -->
<g id="edge2" class="edge">
<title>Node1&#45;&gt;Node3</title>
<path fill="none" stroke="#191970" d="M150.769,-22.0616C128.7823,-19.0572 106.0154,-15.9462 89.1113,-13.6363"/>
<polygon fill="#191970" stroke="#191970" points="150.4104,-25.545 160.7922,-23.4312 151.3581,-18.6095 150.4104,-25.545"/>
</g>
</g>
</svg>
