<?xml version="1.0" encoding="UTF-8" standalone="no"?>
<!DOCTYPE svg PUBLIC "-//W3C//DTD SVG 1.1//EN"
 "http://www.w3.org/Graphics/SVG/1.1/DTD/svg11.dtd">
<!-- Generated by graphviz version 2.40.1 (20161225.0304)
 -->
<!-- Title: arch::ROSComponent::run Pages: 1 -->
<svg width="335pt" height="186pt"
 viewBox="0.00 0.00 335.00 186.00" xmlns="http://www.w3.org/2000/svg" xmlns:xlink="http://www.w3.org/1999/xlink">
<g id="graph0" class="graph" transform="scale(1 1) rotate(0) translate(4 182)">
<title>arch::ROSComponent::run</title>
<polygon fill="#ffffff" stroke="transparent" points="-4,4 -4,-182 331,-182 331,4 -4,4"/>
<!-- Node1 -->
<g id="node1" class="node">
<title>Node1</title>
<g id="a_node1"><a xlink:title=" ">
<polygon fill="#bfbfbf" stroke="#000000" points="0,-79 0,-98 133,-98 133,-79 0,-79"/>
<text text-anchor="middle" x="66.5" y="-86" font-family="Helvetica,sans-Serif" font-size="10.00" fill="#000000">arch::ROSComponent::run</text>
</a>
</g>
</g>
<!-- Node2 -->
<g id="node2" class="node">
<title>Node2</title>
<g id="a_node2"><a xlink:href="classarch_1_1ROSComponent.html#ad59a3de60bed73bf6d37f0da4775a2d9" target="_top" xlink:title=" ">
<polygon fill="#ffffff" stroke="#000000" points="191.5,-147.5 191.5,-177.5 304.5,-177.5 304.5,-147.5 191.5,-147.5"/>
<text text-anchor="start" x="199.5" y="-165.5" font-family="Helvetica,sans-Serif" font-size="10.00" fill="#000000">arch::ROSComponent</text>
<text text-anchor="middle" x="248" y="-154.5" font-family="Helvetica,sans-Serif" font-size="10.00" fill="#000000">::body</text>
</a>
</g>
</g>
<!-- Node1&#45;&gt;Node2 -->
<g id="edge1" class="edge">
<title>Node1&#45;&gt;Node2</title>
<path fill="none" stroke="#191970" d="M83.8932,-98.0433C103.9828,-108.8146 138.2253,-126.4079 169,-138.5 174.003,-140.4658 179.2354,-142.3706 184.5227,-144.1902"/>
<polygon fill="#191970" stroke="#191970" points="183.4677,-147.5278 194.0614,-147.3682 185.6804,-140.8867 183.4677,-147.5278"/>
</g>
<!-- Node3 -->
<g id="node3" class="node">
<title>Node3</title>
<g id="a_node3"><a xlink:href="classarch_1_1ROSComponentDescriptor.html#a4b73f46f37241865a08e75ab202e28eb" target="_top" xlink:title=" ">
<polygon fill="#ffffff" stroke="#000000" points="169,-98.5 169,-128.5 327,-128.5 327,-98.5 169,-98.5"/>
<text text-anchor="start" x="177" y="-116.5" font-family="Helvetica,sans-Serif" font-size="10.00" fill="#000000">arch::ROSComponentDescriptor</text>
<text text-anchor="middle" x="248" y="-105.5" font-family="Helvetica,sans-Serif" font-size="10.00" fill="#000000">::getFreq</text>
</a>
</g>
</g>
<!-- Node1&#45;&gt;Node3 -->
<g id="edge2" class="edge">
<title>Node1&#45;&gt;Node3</title>
<path fill="none" stroke="#191970" d="M133.0533,-97.6671C141.4158,-98.819 150.074,-100.0116 158.7145,-101.2017"/>
<polygon fill="#191970" stroke="#191970" points="158.4467,-104.6978 168.8308,-102.5951 159.4019,-97.7633 158.4467,-104.6978"/>
</g>
<!-- Node4 -->
<g id="node4" class="node">
<title>Node4</title>
<g id="a_node4"><a xlink:href="classarch_1_1ROSComponent.html#ab134ea71604829a9e520a03bcae4bb8d" target="_top" xlink:title=" ">
<polygon fill="#ffffff" stroke="#000000" points="191.5,-49.5 191.5,-79.5 304.5,-79.5 304.5,-49.5 191.5,-49.5"/>
<text text-anchor="start" x="199.5" y="-67.5" font-family="Helvetica,sans-Serif" font-size="10.00" fill="#000000">arch::ROSComponent</text>
<text text-anchor="middle" x="248" y="-56.5" font-family="Helvetica,sans-Serif" font-size="10.00" fill="#000000">::setUp</text>
</a>
</g>
</g>
<!-- Node1&#45;&gt;Node4 -->
<g id="edge3" class="edge">
<title>Node1&#45;&gt;Node4</title>
<path fill="none" stroke="#191970" d="M133.0533,-79.6996C148.7389,-77.6254 165.4649,-75.4137 181.163,-73.338"/>
<polygon fill="#191970" stroke="#191970" points="181.8543,-76.7771 191.3091,-71.9963 180.9366,-69.8375 181.8543,-76.7771"/>
</g>
<!-- Node5 -->
<g id="node5" class="node">
<title>Node5</title>
<g id="a_node5"><a xlink:href="classarch_1_1ROSComponent.html#a0069d6f5e45a9daf0bdbefd773973bba" target="_top" xlink:title=" ">
<polygon fill="#ffffff" stroke="#000000" points="191.5,-.5 191.5,-30.5 304.5,-30.5 304.5,-.5 191.5,-.5"/>
<text text-anchor="start" x="199.5" y="-18.5" font-family="Helvetica,sans-Serif" font-size="10.00" fill="#000000">arch::ROSComponent</text>
<text text-anchor="middle" x="248" y="-7.5" font-family="Helvetica,sans-Serif" font-size="10.00" fill="#000000">::tearDown</text>
</a>
</g>
</g>
<!-- Node1&#45;&gt;Node5 -->
<g id="edge4" class="edge">
<title>Node1&#45;&gt;Node5</title>
<path fill="none" stroke="#191970" d="M85.0682,-78.899C105.358,-68.623 138.9812,-52.22 169,-40.5 174.892,-38.1996 181.0906,-35.9519 187.3165,-33.8067"/>
<polygon fill="#191970" stroke="#191970" points="188.7169,-37.0286 197.0825,-30.5272 186.4885,-30.3928 188.7169,-37.0286"/>
</g>
</g>
</svg>
