<?xml version="1.0" encoding="UTF-8" standalone="no"?>
<!DOCTYPE svg PUBLIC "-//W3C//DTD SVG 1.1//EN"
 "http://www.w3.org/Graphics/SVG/1.1/DTD/svg11.dtd">
<!-- Generated by graphviz version 2.40.1 (20161225.0304)
 -->
<!-- Title: arch::ROSComponentDescriptor::setFreq Pages: 1 -->
<svg width="536pt" height="518pt"
 viewBox="0.00 0.00 536.00 518.00" xmlns="http://www.w3.org/2000/svg" xmlns:xlink="http://www.w3.org/1999/xlink">
<g id="graph0" class="graph" transform="scale(1 1) rotate(0) translate(4 514)">
<title>arch::ROSComponentDescriptor::setFreq</title>
<polygon fill="#ffffff" stroke="transparent" points="-4,4 -4,-514 532,-514 532,4 -4,4"/>
<!-- Node1 -->
<g id="node1" class="node">
<title>Node1</title>
<g id="a_node1"><a xlink:title=" ">
<polygon fill="#bfbfbf" stroke="#000000" points="370,-223 370,-253 528,-253 528,-223 370,-223"/>
<text text-anchor="start" x="378" y="-241" font-family="Helvetica,sans-Serif" font-size="10.00" fill="#000000">arch::ROSComponentDescriptor</text>
<text text-anchor="middle" x="449" y="-230" font-family="Helvetica,sans-Serif" font-size="10.00" fill="#000000">::setFreq</text>
</a>
</g>
</g>
<!-- Node2 -->
<g id="node2" class="node">
<title>Node2</title>
<g id="a_node2"><a xlink:href="classCentralHub.html#a72336916ee15e722ee0b9f2c7c3747b6" target="_top" xlink:title=" ">
<polygon fill="#ffffff" stroke="#000000" points="214,-490.5 214,-509.5 334,-509.5 334,-490.5 214,-490.5"/>
<text text-anchor="middle" x="274" y="-497.5" font-family="Helvetica,sans-Serif" font-size="10.00" fill="#000000">CentralHub::reconfigure</text>
</a>
</g>
</g>
<!-- Node1&#45;&gt;Node2 -->
<g id="edge1" class="edge">
<title>Node1&#45;&gt;Node2</title>
<path fill="none" stroke="#191970" d="M444.0851,-263.1453C433.1777,-312.2635 402.3159,-421.3566 334,-481 329.5553,-484.8805 324.316,-487.9693 318.8151,-490.4277"/>
<polygon fill="#191970" stroke="#191970" points="447.5695,-263.5865 446.2251,-253.0774 440.7224,-262.1311 447.5695,-263.5865"/>
</g>
<!-- Node3 -->
<g id="node3" class="node">
<title>Node3</title>
<g id="a_node3"><a xlink:href="classSensor.html#a476760a7dd4be51136bf165e183526cf" target="_top" xlink:title=" ">
<polygon fill="#ffffff" stroke="#000000" points="223.5,-452.5 223.5,-471.5 324.5,-471.5 324.5,-452.5 223.5,-452.5"/>
<text text-anchor="middle" x="274" y="-459.5" font-family="Helvetica,sans-Serif" font-size="10.00" fill="#000000">Sensor::reconfigure</text>
</a>
</g>
</g>
<!-- Node1&#45;&gt;Node3 -->
<g id="edge2" class="edge">
<title>Node1&#45;&gt;Node3</title>
<path fill="none" stroke="#191970" d="M441.6566,-262.6118C427.6842,-305.2893 393.2579,-393.1308 334,-442 328.7479,-446.3313 322.5205,-449.7377 316.0983,-452.4132"/>
<polygon fill="#191970" stroke="#191970" points="445.0106,-263.6138 444.6981,-253.0236 438.3382,-261.4972 445.0106,-263.6138"/>
</g>
<!-- Node6 -->
<g id="node6" class="node">
<title>Node6</title>
<g id="a_node6"><a xlink:href="classarch_1_1target__system_1_1Component.html#a6a7bf2a65bcc78fc61167205509091a5" target="_top" xlink:title=" ">
<polygon fill="#ffffff" stroke="#000000" points="221.5,-403 221.5,-433 326.5,-433 326.5,-403 221.5,-403"/>
<text text-anchor="start" x="229.5" y="-421" font-family="Helvetica,sans-Serif" font-size="10.00" fill="#000000">arch::target_system</text>
<text text-anchor="middle" x="274" y="-410" font-family="Helvetica,sans-Serif" font-size="10.00" fill="#000000">::Component::setUp</text>
</a>
</g>
</g>
<!-- Node1&#45;&gt;Node6 -->
<g id="edge5" class="edge">
<title>Node1&#45;&gt;Node6</title>
<path fill="none" stroke="#191970" d="M436.4021,-262.4616C418.0115,-296.0293 380.8473,-356.368 334,-393 329.1996,-396.7536 323.7547,-400.0361 318.1508,-402.8791"/>
<polygon fill="#191970" stroke="#191970" points="439.646,-263.8185 441.2907,-253.3521 433.478,-260.5085 439.646,-263.8185"/>
</g>
<!-- Node8 -->
<g id="node8" class="node">
<title>Node8</title>
<g id="a_node8"><a xlink:href="classarch_1_1target__system_1_1Effector.html#a1af5c14648d7da1d22600914a0dd714e" target="_top" xlink:title=" ">
<polygon fill="#ffffff" stroke="#000000" points="222,-354 222,-384 326,-384 326,-354 222,-354"/>
<text text-anchor="start" x="230" y="-372" font-family="Helvetica,sans-Serif" font-size="10.00" fill="#000000">arch::target_system</text>
<text text-anchor="middle" x="274" y="-361" font-family="Helvetica,sans-Serif" font-size="10.00" fill="#000000">::Effector::setUp</text>
</a>
</g>
</g>
<!-- Node1&#45;&gt;Node8 -->
<g id="edge7" class="edge">
<title>Node1&#45;&gt;Node8</title>
<path fill="none" stroke="#191970" d="M428.817,-260.821C407.2125,-284.1673 371.0187,-320.2856 334,-344 328.2987,-347.6523 321.974,-350.9659 315.6313,-353.8989"/>
<polygon fill="#191970" stroke="#191970" points="431.6732,-262.8833 435.8278,-253.137 426.5021,-258.1653 431.6732,-262.8833"/>
</g>
<!-- Node9 -->
<g id="node9" class="node">
<title>Node9</title>
<g id="a_node9"><a xlink:href="classarch_1_1target__system_1_1Probe.html#a224b34084b08465e77bf6b1f5668bd29" target="_top" xlink:title=" ">
<polygon fill="#ffffff" stroke="#000000" points="222,-305 222,-335 326,-335 326,-305 222,-305"/>
<text text-anchor="start" x="230" y="-323" font-family="Helvetica,sans-Serif" font-size="10.00" fill="#000000">arch::target_system</text>
<text text-anchor="middle" x="274" y="-312" font-family="Helvetica,sans-Serif" font-size="10.00" fill="#000000">::Probe::setUp</text>
</a>
</g>
</g>
<!-- Node1&#45;&gt;Node9 -->
<g id="edge8" class="edge">
<title>Node1&#45;&gt;Node9</title>
<path fill="none" stroke="#191970" d="M410.8364,-257.6977C388.5936,-268.9809 359.9052,-283.1984 334,-295 326.7088,-298.3216 318.8468,-301.7238 311.2914,-304.9063"/>
<polygon fill="#191970" stroke="#191970" points="412.6251,-260.7145 419.9475,-253.0572 409.4482,-254.4769 412.6251,-260.7145"/>
</g>
<!-- Node10 -->
<g id="node10" class="node">
<title>Node10</title>
<g id="a_node10"><a xlink:href="classPatientModule.html#a274d7a866de69b39ac08cbf8720b445c" target="_top" xlink:title=" ">
<polygon fill="#ffffff" stroke="#000000" points="218.5,-266.5 218.5,-285.5 329.5,-285.5 329.5,-266.5 218.5,-266.5"/>
<text text-anchor="middle" x="274" y="-273.5" font-family="Helvetica,sans-Serif" font-size="10.00" fill="#000000">PatientModule::setUp</text>
</a>
</g>
</g>
<!-- Node1&#45;&gt;Node10 -->
<g id="edge9" class="edge">
<title>Node1&#45;&gt;Node10</title>
<path fill="none" stroke="#191970" d="M369.9399,-255.1673C352.0048,-259.0618 333.5923,-263.06 317.7543,-266.4991"/>
<polygon fill="#191970" stroke="#191970" points="370.8058,-258.561 379.8354,-253.0186 369.3204,-251.7204 370.8058,-258.561"/>
</g>
<!-- Node11 -->
<g id="node11" class="node">
<title>Node11</title>
<g id="a_node11"><a xlink:href="classDataAccess.html#a79a37674517514869067d9afbf0417c1" target="_top" xlink:title=" ">
<polygon fill="#ffffff" stroke="#000000" points="222.5,-228.5 222.5,-247.5 325.5,-247.5 325.5,-228.5 222.5,-228.5"/>
<text text-anchor="middle" x="274" y="-235.5" font-family="Helvetica,sans-Serif" font-size="10.00" fill="#000000">DataAccess::setUp</text>
</a>
</g>
</g>
<!-- Node1&#45;&gt;Node11 -->
<g id="edge10" class="edge">
<title>Node1&#45;&gt;Node11</title>
<path fill="none" stroke="#191970" d="M359.6971,-238C348.0213,-238 336.3884,-238 325.6303,-238"/>
<polygon fill="#191970" stroke="#191970" points="359.9478,-241.5001 369.9478,-238 359.9477,-234.5001 359.9478,-241.5001"/>
</g>
<!-- Node12 -->
<g id="node12" class="node">
<title>Node12</title>
<g id="a_node12"><a xlink:href="classLogger.html#aab1efed2f9f6ac7929b2d8774ee9b70c" target="_top" xlink:title=" ">
<polygon fill="#ffffff" stroke="#000000" points="235,-190.5 235,-209.5 313,-209.5 313,-190.5 235,-190.5"/>
<text text-anchor="middle" x="274" y="-197.5" font-family="Helvetica,sans-Serif" font-size="10.00" fill="#000000">Logger::setUp</text>
</a>
</g>
</g>
<!-- Node1&#45;&gt;Node12 -->
<g id="edge11" class="edge">
<title>Node1&#45;&gt;Node12</title>
<path fill="none" stroke="#191970" d="M369.9718,-220.8396C350.3766,-216.5846 330.2094,-212.2055 313.4507,-208.5664"/>
<polygon fill="#191970" stroke="#191970" points="369.3204,-224.2796 379.8354,-222.9814 370.8058,-217.439 369.3204,-224.2796"/>
</g>
<!-- Node13 -->
<g id="node13" class="node">
<title>Node13</title>
<g id="a_node13"><a xlink:href="classEngine.html#ae0233e4936be42094d3dfd401633cccd" target="_top" xlink:title=" ">
<polygon fill="#ffffff" stroke="#000000" points="234.5,-152.5 234.5,-171.5 313.5,-171.5 313.5,-152.5 234.5,-152.5"/>
<text text-anchor="middle" x="274" y="-159.5" font-family="Helvetica,sans-Serif" font-size="10.00" fill="#000000">Engine::setUp</text>
</a>
</g>
</g>
<!-- Node1&#45;&gt;Node13 -->
<g id="edge12" class="edge">
<title>Node1&#45;&gt;Node13</title>
<path fill="none" stroke="#191970" d="M412.564,-218.1445C390.2692,-206.4501 360.9423,-191.8681 334,-181 325.4882,-177.5665 316.1023,-174.3405 307.3324,-171.5557"/>
<polygon fill="#191970" stroke="#191970" points="411.1853,-221.3748 421.6609,-222.9603 414.4605,-215.1883 411.1853,-221.3748"/>
</g>
<!-- Node14 -->
<g id="node14" class="node">
<title>Node14</title>
<g id="a_node14"><a xlink:href="classEnactor.html#a87790dde35327f39bc079f0714b70eab" target="_top" xlink:title=" ">
<polygon fill="#ffffff" stroke="#000000" points="232.5,-114.5 232.5,-133.5 315.5,-133.5 315.5,-114.5 232.5,-114.5"/>
<text text-anchor="middle" x="274" y="-121.5" font-family="Helvetica,sans-Serif" font-size="10.00" fill="#000000">Enactor::setUp</text>
</a>
</g>
</g>
<!-- Node1&#45;&gt;Node14 -->
<g id="edge13" class="edge">
<title>Node1&#45;&gt;Node14</title>
<path fill="none" stroke="#191970" d="M427.2808,-215.6292C405.468,-194.2996 370.0114,-162.6059 334,-143 327.0906,-139.2383 319.3216,-136.0896 311.7232,-133.5067"/>
<polygon fill="#191970" stroke="#191970" points="424.8439,-218.1418 434.4058,-222.7047 429.7764,-213.1748 424.8439,-218.1418"/>
</g>
<!-- Node15 -->
<g id="node15" class="node">
<title>Node15</title>
<g id="a_node15"><a xlink:href="classInjector.html#ac7658d4d7db234ed9237fd186392c2b8" target="_top" xlink:title=" ">
<polygon fill="#ffffff" stroke="#000000" points="233.5,-76.5 233.5,-95.5 314.5,-95.5 314.5,-76.5 233.5,-76.5"/>
<text text-anchor="middle" x="274" y="-83.5" font-family="Helvetica,sans-Serif" font-size="10.00" fill="#000000">Injector::setUp</text>
</a>
</g>
</g>
<!-- Node1&#45;&gt;Node15 -->
<g id="edge14" class="edge">
<title>Node1&#45;&gt;Node15</title>
<path fill="none" stroke="#191970" d="M434.5136,-214.3298C415.1586,-184.6239 378.1303,-134.0558 334,-105 328.1594,-101.1545 321.489,-98.0442 314.7689,-95.5419"/>
<polygon fill="#191970" stroke="#191970" points="431.6103,-216.2864 439.9412,-222.8321 437.5106,-212.5199 431.6103,-216.2864"/>
</g>
<!-- Node16 -->
<g id="node16" class="node">
<title>Node16</title>
<g id="a_node16"><a xlink:href="classG4T1.html#ad02634c3bf56a245b99bb30f520628c5" target="_top" xlink:title=" ">
<polygon fill="#ffffff" stroke="#000000" points="237.5,-38.5 237.5,-57.5 310.5,-57.5 310.5,-38.5 237.5,-38.5"/>
<text text-anchor="middle" x="274" y="-45.5" font-family="Helvetica,sans-Serif" font-size="10.00" fill="#000000">G4T1::setUp</text>
</a>
</g>
</g>
<!-- Node1&#45;&gt;Node16 -->
<g id="edge15" class="edge">
<title>Node1&#45;&gt;Node16</title>
<path fill="none" stroke="#191970" d="M438.89,-213.3961C422.3984,-176.2648 386.2231,-106.1033 334,-67 327.1779,-61.8918 318.9429,-58.1325 310.7894,-55.3744"/>
<polygon fill="#191970" stroke="#191970" points="435.8352,-215.1501 443.0165,-222.9399 442.2603,-212.372 435.8352,-215.1501"/>
</g>
<!-- Node17 -->
<g id="node17" class="node">
<title>Node17</title>
<g id="a_node17"><a xlink:href="classParamAdapter.html#a7c0398f646d90dfe7f017a7e972e0eab" target="_top" xlink:title=" ">
<polygon fill="#ffffff" stroke="#000000" points="218.5,-.5 218.5,-19.5 329.5,-19.5 329.5,-.5 218.5,-.5"/>
<text text-anchor="middle" x="274" y="-7.5" font-family="Helvetica,sans-Serif" font-size="10.00" fill="#000000">ParamAdapter::setUp</text>
</a>
</g>
</g>
<!-- Node1&#45;&gt;Node17 -->
<g id="edge16" class="edge">
<title>Node1&#45;&gt;Node17</title>
<path fill="none" stroke="#191970" d="M442.008,-213.0171C428.491,-169.2771 394.6299,-78.7577 334,-29 329.2701,-25.1183 323.7384,-22.0256 317.9821,-19.5626"/>
<polygon fill="#191970" stroke="#191970" points="438.7244,-214.2535 444.9402,-222.8334 445.4316,-212.2499 438.7244,-214.2535"/>
</g>
<!-- Node4 -->
<g id="node4" class="node">
<title>Node4</title>
<g id="a_node4"><a xlink:href="classSensor.html#a1a664cdb090cb4295bbdedcffb1c8499" target="_top" xlink:title=" ">
<polygon fill="#ffffff" stroke="#000000" points="92.5,-452.5 92.5,-471.5 159.5,-471.5 159.5,-452.5 92.5,-452.5"/>
<text text-anchor="middle" x="126" y="-459.5" font-family="Helvetica,sans-Serif" font-size="10.00" fill="#000000">Sensor::run</text>
</a>
</g>
</g>
<!-- Node3&#45;&gt;Node4 -->
<g id="edge3" class="edge">
<title>Node3&#45;&gt;Node4</title>
<path fill="none" stroke="#191970" d="M213.4111,-462C195.0196,-462 175.4847,-462 159.5575,-462"/>
<polygon fill="#191970" stroke="#191970" points="213.4808,-465.5001 223.4807,-462 213.4807,-458.5001 213.4808,-465.5001"/>
</g>
<!-- Node5 -->
<g id="node5" class="node">
<title>Node5</title>
<g id="a_node5"><a xlink:href="g3t1__1_8cpp.html#a3c04138a5bfe5d72780bb7e82a18e627" target="_top" xlink:title=" ">
<polygon fill="#ffffff" stroke="#000000" points="0,-452.5 0,-471.5 38,-471.5 38,-452.5 0,-452.5"/>
<text text-anchor="middle" x="19" y="-459.5" font-family="Helvetica,sans-Serif" font-size="10.00" fill="#000000">main</text>
</a>
</g>
</g>
<!-- Node4&#45;&gt;Node5 -->
<g id="edge4" class="edge">
<title>Node4&#45;&gt;Node5</title>
<path fill="none" stroke="#191970" d="M82.0697,-462C66.7502,-462 50.3486,-462 38.1121,-462"/>
<polygon fill="#191970" stroke="#191970" points="82.4381,-465.5001 92.4381,-462 82.4381,-458.5001 82.4381,-465.5001"/>
</g>
<!-- Node7 -->
<g id="node7" class="node">
<title>Node7</title>
<g id="a_node7"><a xlink:href="classarch_1_1target__system_1_1Component.html#ac590323763a5ea9e7edf1a5e67f8a94f" target="_top" xlink:title=" ">
<polygon fill="#ffffff" stroke="#000000" points="74,-403 74,-433 178,-433 178,-403 74,-403"/>
<text text-anchor="start" x="82" y="-421" font-family="Helvetica,sans-Serif" font-size="10.00" fill="#000000">arch::target_system</text>
<text text-anchor="middle" x="126" y="-410" font-family="Helvetica,sans-Serif" font-size="10.00" fill="#000000">::Component::run</text>
</a>
</g>
</g>
<!-- Node6&#45;&gt;Node7 -->
<g id="edge6" class="edge">
<title>Node6&#45;&gt;Node7</title>
<path fill="none" stroke="#191970" d="M211.0986,-418C200.212,-418 188.9975,-418 178.4266,-418"/>
<polygon fill="#191970" stroke="#191970" points="211.404,-421.5001 221.404,-418 211.404,-414.5001 211.404,-421.5001"/>
</g>
</g>
</svg>
