<?xml version="1.0" encoding="UTF-8" standalone="no"?>
<!DOCTYPE svg PUBLIC "-//W3C//DTD SVG 1.1//EN"
 "http://www.w3.org/Graphics/SVG/1.1/DTD/svg11.dtd">
<!-- Generated by graphviz version 2.40.1 (20161225.0304)
 -->
<!-- Title: Lepton::ExpressionTreeNode::getChildren Pages: 1 -->
<svg width="330pt" height="127pt"
 viewBox="0.00 0.00 330.00 127.00" xmlns="http://www.w3.org/2000/svg" xmlns:xlink="http://www.w3.org/1999/xlink">
<g id="graph0" class="graph" transform="scale(1 1) rotate(0) translate(4 123)">
<title>Lepton::ExpressionTreeNode::getChildren</title>
<polygon fill="#ffffff" stroke="transparent" points="-4,4 -4,-123 326,-123 326,4 -4,4"/>
<!-- Node1 -->
<g id="node1" class="node">
<title>Node1</title>
<g id="a_node1"><a xlink:title=" ">
<polygon fill="#bfbfbf" stroke="#000000" points="179,-44.5 179,-74.5 322,-74.5 322,-44.5 179,-44.5"/>
<text text-anchor="start" x="187" y="-62.5" font-family="Helvetica,sans-Serif" font-size="10.00" fill="#000000">Lepton::ExpressionTreeNode</text>
<text text-anchor="middle" x="250.5" y="-51.5" font-family="Helvetica,sans-Serif" font-size="10.00" fill="#000000">::getChildren</text>
</a>
</g>
</g>
<!-- Node2 -->
<g id="node2" class="node">
<title>Node2</title>
<g id="a_node2"><a xlink:href="classLepton_1_1ExpressionTreeNode.html#a310d6d3162c2d7ccfbb64623b0899ba6" target="_top" xlink:title=" ">
<polygon fill="#ffffff" stroke="#000000" points="0,-88.5 0,-118.5 143,-118.5 143,-88.5 0,-88.5"/>
<text text-anchor="start" x="8" y="-106.5" font-family="Helvetica,sans-Serif" font-size="10.00" fill="#000000">Lepton::ExpressionTreeNode</text>
<text text-anchor="middle" x="71.5" y="-95.5" font-family="Helvetica,sans-Serif" font-size="10.00" fill="#000000">::operator!=</text>
</a>
</g>
</g>
<!-- Node1&#45;&gt;Node2 -->
<g id="edge1" class="edge">
<title>Node1&#45;&gt;Node2</title>
<path fill="none" stroke="#191970" d="M179.366,-76.9855C163.8995,-80.7873 147.6684,-84.777 132.6293,-88.4738"/>
<polygon fill="#191970" stroke="#191970" points="180.5236,-80.3052 189.399,-74.5192 178.8526,-73.5075 180.5236,-80.3052"/>
</g>
<!-- Node3 -->
<g id="node3" class="node">
<title>Node3</title>
<g id="a_node3"><a xlink:href="namespaceLepton.html#af2c28a626fa44c7a59b719d95067c23f" target="_top" xlink:title=" ">
<polygon fill="#ffffff" stroke="#000000" points="22,-50 22,-69 121,-69 121,-50 22,-50"/>
<text text-anchor="middle" x="71.5" y="-57" font-family="Helvetica,sans-Serif" font-size="10.00" fill="#000000">Lepton::operator&lt;&lt;</text>
</a>
</g>
</g>
<!-- Node1&#45;&gt;Node3 -->
<g id="edge2" class="edge">
<title>Node1&#45;&gt;Node3</title>
<path fill="none" stroke="#191970" d="M168.9062,-59.5C152.6183,-59.5 135.9784,-59.5 121.1669,-59.5"/>
<polygon fill="#191970" stroke="#191970" points="168.9828,-63.0001 178.9828,-59.5 168.9827,-56.0001 168.9828,-63.0001"/>
</g>
<!-- Node4 -->
<g id="node4" class="node">
<title>Node4</title>
<g id="a_node4"><a xlink:href="classLepton_1_1ExpressionTreeNode.html#a9e8086d628a0997e6e30eaf731fd7d9e" target="_top" xlink:title=" ">
<polygon fill="#ffffff" stroke="#000000" points="0,-.5 0,-30.5 143,-30.5 143,-.5 0,-.5"/>
<text text-anchor="start" x="8" y="-18.5" font-family="Helvetica,sans-Serif" font-size="10.00" fill="#000000">Lepton::ExpressionTreeNode</text>
<text text-anchor="middle" x="71.5" y="-7.5" font-family="Helvetica,sans-Serif" font-size="10.00" fill="#000000">::operator=</text>
</a>
</g>
</g>
<!-- Node1&#45;&gt;Node4 -->
<g id="edge3" class="edge">
<title>Node1&#45;&gt;Node4</title>
<path fill="none" stroke="#191970" d="M179.366,-42.0145C163.8995,-38.2127 147.6684,-34.223 132.6293,-30.5262"/>
<polygon fill="#191970" stroke="#191970" points="178.8526,-45.4925 189.399,-44.4808 180.5236,-38.6948 178.8526,-45.4925"/>
</g>
</g>
</svg>
