<?xml version="1.0" encoding="UTF-8" standalone="no"?>
<!DOCTYPE svg PUBLIC "-//W3C//DTD SVG 1.1//EN"
 "http://www.w3.org/Graphics/SVG/1.1/DTD/svg11.dtd">
<!-- Generated by graphviz version 2.40.1 (20161225.0304)
 -->
<!-- Title: arch::ROSComponent::body Pages: 1 -->
<svg width="364pt" height="66pt"
 viewBox="0.00 0.00 364.00 66.00" xmlns="http://www.w3.org/2000/svg" xmlns:xlink="http://www.w3.org/1999/xlink">
<g id="graph0" class="graph" transform="scale(1 1) rotate(0) translate(4 62)">
<title>arch::ROSComponent::body</title>
<polygon fill="#ffffff" stroke="transparent" points="-4,4 -4,-62 360,-62 360,4 -4,4"/>
<!-- Node1 -->
<g id="node1" class="node">
<title>Node1</title>
<g id="a_node1"><a xlink:title=" ">
<polygon fill="#bfbfbf" stroke="#000000" points="243,-14 243,-44 356,-44 356,-14 243,-14"/>
<text text-anchor="start" x="251" y="-32" font-family="Helvetica,sans-Serif" font-size="10.00" fill="#000000">arch::ROSComponent</text>
<text text-anchor="middle" x="299.5" y="-21" font-family="Helvetica,sans-Serif" font-size="10.00" fill="#000000">::body</text>
</a>
</g>
</g>
<!-- Node2 -->
<g id="node2" class="node">
<title>Node2</title>
<g id="a_node2"><a xlink:href="classarch_1_1ROSComponent.html#acb85f671d782a1c628fcbf9b36abf21d" target="_top" xlink:title=" ">
<polygon fill="#ffffff" stroke="#000000" points="74,-38.5 74,-57.5 207,-57.5 207,-38.5 74,-38.5"/>
<text text-anchor="middle" x="140.5" y="-45.5" font-family="Helvetica,sans-Serif" font-size="10.00" fill="#000000">arch::ROSComponent::run</text>
</a>
</g>
</g>
<!-- Node1&#45;&gt;Node2 -->
<g id="edge1" class="edge">
<title>Node1&#45;&gt;Node2</title>
<path fill="none" stroke="#191970" d="M233.0592,-36.9395C224.493,-37.9631 215.7188,-39.0116 207.1493,-40.0356"/>
<polygon fill="#191970" stroke="#191970" points="233.4808,-40.4141 242.9949,-35.7522 232.6502,-33.4635 233.4808,-40.4141"/>
</g>
<!-- Node4 -->
<g id="node4" class="node">
<title>Node4</title>
<g id="a_node4"><a xlink:href="classAnalyzer_1_1Analyzer.html#ace65f914d5702497483b294f0373b2f4" target="_top" xlink:title=" ">
<polygon fill="#ffffff" stroke="#000000" points="84,-.5 84,-19.5 197,-19.5 197,-.5 84,-.5"/>
<text text-anchor="middle" x="140.5" y="-7.5" font-family="Helvetica,sans-Serif" font-size="10.00" fill="#000000">Analyzer.Analyzer.run</text>
</a>
</g>
</g>
<!-- Node1&#45;&gt;Node4 -->
<g id="edge3" class="edge">
<title>Node1&#45;&gt;Node4</title>
<path fill="none" stroke="#191970" d="M232.7088,-21.0187C220.8595,-19.6027 208.6236,-18.1406 197.0909,-16.7624"/>
<polygon fill="#191970" stroke="#191970" points="232.6502,-24.5365 242.9949,-22.2478 233.4808,-17.5859 232.6502,-24.5365"/>
</g>
<!-- Node3 -->
<g id="node3" class="node">
<title>Node3</title>
<g id="a_node3"><a xlink:href="patient_8cpp.html#a3c04138a5bfe5d72780bb7e82a18e627" target="_top" xlink:title=" ">
<polygon fill="#ffffff" stroke="#000000" points="0,-38.5 0,-57.5 38,-57.5 38,-38.5 0,-38.5"/>
<text text-anchor="middle" x="19" y="-45.5" font-family="Helvetica,sans-Serif" font-size="10.00" fill="#000000">main</text>
</a>
</g>
</g>
<!-- Node2&#45;&gt;Node3 -->
<g id="edge2" class="edge">
<title>Node2&#45;&gt;Node3</title>
<path fill="none" stroke="#191970" d="M63.4619,-48C54.1762,-48 45.4387,-48 38.208,-48"/>
<polygon fill="#191970" stroke="#191970" points="63.7077,-51.5001 73.7076,-48 63.7076,-44.5001 63.7077,-51.5001"/>
</g>
</g>
</svg>
