<?xml version="1.0" encoding="UTF-8" standalone="no"?>
<!DOCTYPE svg PUBLIC "-//W3C//DTD SVG 1.1//EN"
 "http://www.w3.org/Graphics/SVG/1.1/DTD/svg11.dtd">
<!-- Generated by graphviz version 2.40.1 (20161225.0304)
 -->
<!-- Title: Engine::body Pages: 1 -->
<svg width="786pt" height="116pt"
 viewBox="0.00 0.00 786.00 115.50" xmlns="http://www.w3.org/2000/svg" xmlns:xlink="http://www.w3.org/1999/xlink">
<g id="graph0" class="graph" transform="scale(1 1) rotate(0) translate(4 111.5)">
<title>Engine::body</title>
<polygon fill="#ffffff" stroke="transparent" points="-4,4 -4,-111.5 782,-111.5 782,4 -4,4"/>
<!-- Node1 -->
<g id="node1" class="node">
<title>Node1</title>
<g id="a_node1"><a xlink:title=" ">
<polygon fill="#bfbfbf" stroke="#000000" points="0,-38.5 0,-57.5 74,-57.5 74,-38.5 0,-38.5"/>
<text text-anchor="middle" x="37" y="-45.5" font-family="Helvetica,sans-Serif" font-size="10.00" fill="#000000">Engine::body</text>
</a>
</g>
</g>
<!-- Node2 -->
<g id="node2" class="node">
<title>Node2</title>
<g id="a_node2"><a xlink:href="classarch_1_1ROSComponentDescriptor.html#a4b73f46f37241865a08e75ab202e28eb" target="_top" xlink:title=" ">
<polygon fill="#ffffff" stroke="#000000" points="110,-77 110,-107 268,-107 268,-77 110,-77"/>
<text text-anchor="start" x="118" y="-95" font-family="Helvetica,sans-Serif" font-size="10.00" fill="#000000">arch::ROSComponentDescriptor</text>
<text text-anchor="middle" x="189" y="-84" font-family="Helvetica,sans-Serif" font-size="10.00" fill="#000000">::getFreq</text>
</a>
</g>
</g>
<!-- Node1&#45;&gt;Node2 -->
<g id="edge1" class="edge">
<title>Node1&#45;&gt;Node2</title>
<path fill="none" stroke="#191970" d="M69.9817,-57.5473C86.7132,-62.3906 107.5921,-68.4346 127.1704,-74.102"/>
<polygon fill="#191970" stroke="#191970" points="126.3771,-77.516 136.956,-76.9346 128.3236,-70.792 126.3771,-77.516"/>
</g>
<!-- Node3 -->
<g id="node3" class="node">
<title>Node3</title>
<g id="a_node3"><a xlink:href="classEngine.html#a12dad259f34682ecd038340031e31d85" target="_top" xlink:title=" ">
<polygon fill="#ffffff" stroke="#000000" points="146.5,-38.5 146.5,-57.5 231.5,-57.5 231.5,-38.5 146.5,-38.5"/>
<text text-anchor="middle" x="189" y="-45.5" font-family="Helvetica,sans-Serif" font-size="10.00" fill="#000000">Engine::monitor</text>
</a>
</g>
</g>
<!-- Node1&#45;&gt;Node3 -->
<g id="edge2" class="edge">
<title>Node1&#45;&gt;Node3</title>
<path fill="none" stroke="#191970" d="M74.1834,-48C92.8297,-48 115.7372,-48 136.173,-48"/>
<polygon fill="#191970" stroke="#191970" points="136.2867,-51.5001 146.2867,-48 136.2866,-44.5001 136.2867,-51.5001"/>
</g>
<!-- Node8 -->
<g id="node8" class="node">
<title>Node8</title>
<g id="a_node8"><a xlink:href="classEngine.html#aea9c523a0feb05871f020d4fd4f417e4" target="_top" xlink:title=" ">
<polygon fill="#ffffff" stroke="#000000" points="304,-.5 304,-19.5 432,-19.5 432,-.5 304,-.5"/>
<text text-anchor="middle" x="368" y="-7.5" font-family="Helvetica,sans-Serif" font-size="10.00" fill="#000000">Engine::receiveException</text>
</a>
</g>
</g>
<!-- Node1&#45;&gt;Node8 -->
<g id="edge8" class="edge">
<title>Node1&#45;&gt;Node8</title>
<path fill="none" stroke="#191970" d="M68.7119,-38.4102C81.4353,-34.9145 96.3048,-31.2673 110,-29 171.376,-18.8388 241.8669,-14.1111 293.6402,-11.9118"/>
<polygon fill="#191970" stroke="#191970" points="293.8862,-15.4048 303.7371,-11.5048 293.6042,-8.4105 293.8862,-15.4048"/>
</g>
<!-- Node4 -->
<g id="node4" class="node">
<title>Node4</title>
<g id="a_node4"><a xlink:href="classEngine.html#ac885ef7a80556ab1b21a043d7dc2b1c9" target="_top" xlink:title=" ">
<polygon fill="#ffffff" stroke="#000000" points="325,-76.5 325,-95.5 411,-95.5 411,-76.5 325,-76.5"/>
<text text-anchor="middle" x="368" y="-83.5" font-family="Helvetica,sans-Serif" font-size="10.00" fill="#000000">Engine::analyze</text>
</a>
</g>
</g>
<!-- Node3&#45;&gt;Node4 -->
<g id="edge3" class="edge">
<title>Node3&#45;&gt;Node4</title>
<path fill="none" stroke="#191970" d="M231.875,-57.1019C256.8207,-62.3977 288.4711,-69.1168 314.9738,-74.743"/>
<polygon fill="#191970" stroke="#191970" points="314.3456,-78.1876 324.8545,-76.8406 315.7993,-71.3402 314.3456,-78.1876"/>
</g>
<!-- Node7 -->
<g id="node7" class="node">
<title>Node7</title>
<g id="a_node7"><a xlink:href="namespacebsn_1_1utils.html#a4ab7be3d27380abe032f4ceec86b09b2" target="_top" xlink:title=" ">
<polygon fill="#ffffff" stroke="#000000" points="698,-38.5 698,-57.5 778,-57.5 778,-38.5 698,-38.5"/>
<text text-anchor="middle" x="738" y="-45.5" font-family="Helvetica,sans-Serif" font-size="10.00" fill="#000000">bsn::utils::split</text>
</a>
</g>
</g>
<!-- Node3&#45;&gt;Node7 -->
<g id="edge7" class="edge">
<title>Node3&#45;&gt;Node7</title>
<path fill="none" stroke="#191970" d="M231.6223,-48C331.4643,-48 580.127,-48 687.4095,-48"/>
<polygon fill="#191970" stroke="#191970" points="687.646,-51.5001 697.6459,-48 687.6459,-44.5001 687.646,-51.5001"/>
</g>
<!-- Node5 -->
<g id="node5" class="node">
<title>Node5</title>
<g id="a_node5"><a xlink:href="classEngine.html#ada990715b8c10f1ad972892efa58d106" target="_top" xlink:title=" ">
<polygon fill="#ffffff" stroke="#000000" points="468,-76.5 468,-95.5 539,-95.5 539,-76.5 468,-76.5"/>
<text text-anchor="middle" x="503.5" y="-83.5" font-family="Helvetica,sans-Serif" font-size="10.00" fill="#000000">Engine::plan</text>
</a>
</g>
</g>
<!-- Node4&#45;&gt;Node5 -->
<g id="edge4" class="edge">
<title>Node4&#45;&gt;Node5</title>
<path fill="none" stroke="#191970" d="M411.2456,-86C426.0969,-86 442.7637,-86 457.8032,-86"/>
<polygon fill="#191970" stroke="#191970" points="457.9128,-89.5001 467.9128,-86 457.9128,-82.5001 457.9128,-89.5001"/>
</g>
<!-- Node6 -->
<g id="node6" class="node">
<title>Node6</title>
<g id="a_node6"><a xlink:href="classEngine.html#a1ec215a11a8703c09f61e57e23ea41e8" target="_top" xlink:title=" ">
<polygon fill="#ffffff" stroke="#000000" points="575,-76.5 575,-95.5 662,-95.5 662,-76.5 575,-76.5"/>
<text text-anchor="middle" x="618.5" y="-83.5" font-family="Helvetica,sans-Serif" font-size="10.00" fill="#000000">Engine::execute</text>
</a>
</g>
</g>
<!-- Node5&#45;&gt;Node6 -->
<g id="edge5" class="edge">
<title>Node5&#45;&gt;Node6</title>
<path fill="none" stroke="#191970" d="M539.2563,-86C547.3127,-86 556.037,-86 564.6515,-86"/>
<polygon fill="#191970" stroke="#191970" points="564.6672,-89.5001 574.6672,-86 564.6671,-82.5001 564.6672,-89.5001"/>
</g>
<!-- Node6&#45;&gt;Node7 -->
<g id="edge6" class="edge">
<title>Node6&#45;&gt;Node7</title>
<path fill="none" stroke="#191970" d="M648.6549,-76.411C663.6566,-71.6406 681.9883,-65.8112 698.1338,-60.6771"/>
<polygon fill="#191970" stroke="#191970" points="699.3856,-63.9518 707.8548,-57.5859 697.2643,-57.281 699.3856,-63.9518"/>
</g>
<!-- Node8&#45;&gt;Node7 -->
<g id="edge9" class="edge">
<title>Node8&#45;&gt;Node7</title>
<path fill="none" stroke="#191970" d="M432.1444,-13.3705C491.837,-16.9486 583.1839,-23.5506 662,-34 670.4123,-35.1153 679.3071,-36.5341 687.9324,-38.0383"/>
<polygon fill="#191970" stroke="#191970" points="687.427,-41.5035 697.8889,-39.8304 688.667,-34.6142 687.427,-41.5035"/>
</g>
</g>
</svg>
