<?xml version="1.0" encoding="UTF-8" standalone="no"?>
<!DOCTYPE svg PUBLIC "-//W3C//DTD SVG 1.1//EN"
 "http://www.w3.org/Graphics/SVG/1.1/DTD/svg11.dtd">
<!-- Generated by graphviz version 2.40.1 (20161225.0304)
 -->
<!-- Title: ResourcesTest Pages: 1 -->
<svg width="176pt" height="292pt"
 viewBox="0.00 0.00 175.50 292.00" xmlns="http://www.w3.org/2000/svg" xmlns:xlink="http://www.w3.org/1999/xlink">
<g id="graph0" class="graph" transform="scale(1 1) rotate(0) translate(4 288)">
<title>ResourcesTest</title>
<polygon fill="#ffffff" stroke="transparent" points="-4,4 -4,-288 171.5,-288 171.5,4 -4,4"/>
<!-- Node1 -->
<g id="node1" class="node">
<title>Node1</title>
<g id="a_node1"><a xlink:title=" ">
<polygon fill="#bfbfbf" stroke="#000000" points="15,-.5 15,-68.5 113,-68.5 113,-.5 15,-.5"/>
<text text-anchor="middle" x="64" y="-56.5" font-family="Helvetica,sans-Serif" font-size="10.00" fill="#000000">ResourcesTest</text>
<polyline fill="none" stroke="#000000" points="15,-49.5 113,-49.5 "/>
<text text-anchor="middle" x="64" y="-37.5" font-family="Helvetica,sans-Serif" font-size="10.00" fill="#000000"> </text>
<polyline fill="none" stroke="#000000" points="15,-30.5 113,-30.5 "/>
<text text-anchor="start" x="23" y="-18.5" font-family="Helvetica,sans-Serif" font-size="10.00" fill="#000000"># ResourcesTest()</text>
<text text-anchor="start" x="23" y="-7.5" font-family="Helvetica,sans-Serif" font-size="10.00" fill="#000000"># SetUp()</text>
</a>
</g>
</g>
<!-- Node2 -->
<g id="node2" class="node">
<title>Node2</title>
<g id="a_node2"><a xlink:title=" ">
<polygon fill="#ffffff" stroke="#bfbfbf" points="0,-171.5 0,-228.5 36,-228.5 36,-171.5 0,-171.5"/>
<text text-anchor="middle" x="18" y="-216.5" font-family="Helvetica,sans-Serif" font-size="10.00" fill="#000000">Test</text>
<polyline fill="none" stroke="#bfbfbf" points="0,-209.5 36,-209.5 "/>
<text text-anchor="middle" x="18" y="-197.5" font-family="Helvetica,sans-Serif" font-size="10.00" fill="#000000"> </text>
<polyline fill="none" stroke="#bfbfbf" points="0,-190.5 36,-190.5 "/>
<text text-anchor="middle" x="18" y="-178.5" font-family="Helvetica,sans-Serif" font-size="10.00" fill="#000000"> </text>
</a>
</g>
</g>
<!-- Node2&#45;&gt;Node1 -->
<g id="edge1" class="edge">
<title>Node2&#45;&gt;Node1</title>
<path fill="none" stroke="#191970" d="M28.7547,-161.3066C36.551,-133.2566 46.9973,-95.6729 54.4897,-68.7164"/>
<polygon fill="none" stroke="#191970" points="25.3184,-160.6 26.0126,-171.1721 32.0628,-162.4746 25.3184,-160.6"/>
</g>
<!-- Node3 -->
<g id="node3" class="node">
<title>Node3</title>
<g id="a_node3"><a xlink:href="classbsn_1_1resource_1_1Battery.html" target="_top" xlink:title=" ">
<polygon fill="#ffffff" stroke="#000000" points="54.5,-116.5 54.5,-283.5 167.5,-283.5 167.5,-116.5 54.5,-116.5"/>
<text text-anchor="middle" x="111" y="-271.5" font-family="Helvetica,sans-Serif" font-size="10.00" fill="#000000">bsn::resource::Battery</text>
<polyline fill="none" stroke="#000000" points="54.5,-264.5 167.5,-264.5 "/>
<text text-anchor="middle" x="111" y="-252.5" font-family="Helvetica,sans-Serif" font-size="10.00" fill="#000000"> </text>
<polyline fill="none" stroke="#000000" points="54.5,-245.5 167.5,-245.5 "/>
<text text-anchor="start" x="62.5" y="-233.5" font-family="Helvetica,sans-Serif" font-size="10.00" fill="#000000">+ Battery()</text>
<text text-anchor="start" x="62.5" y="-222.5" font-family="Helvetica,sans-Serif" font-size="10.00" fill="#000000">+ Battery()</text>
<text text-anchor="start" x="62.5" y="-211.5" font-family="Helvetica,sans-Serif" font-size="10.00" fill="#000000">+ ~Battery()</text>
<text text-anchor="start" x="62.5" y="-200.5" font-family="Helvetica,sans-Serif" font-size="10.00" fill="#000000">+ Battery()</text>
<text text-anchor="start" x="62.5" y="-189.5" font-family="Helvetica,sans-Serif" font-size="10.00" fill="#000000">+ operator=()</text>
<text text-anchor="start" x="62.5" y="-178.5" font-family="Helvetica,sans-Serif" font-size="10.00" fill="#000000">+ consume()</text>
<text text-anchor="start" x="62.5" y="-167.5" font-family="Helvetica,sans-Serif" font-size="10.00" fill="#000000">+ generate()</text>
<text text-anchor="start" x="62.5" y="-156.5" font-family="Helvetica,sans-Serif" font-size="10.00" fill="#000000">+ setId()</text>
<text text-anchor="start" x="62.5" y="-145.5" font-family="Helvetica,sans-Serif" font-size="10.00" fill="#000000">+ getId()</text>
<text text-anchor="start" x="62.5" y="-134.5" font-family="Helvetica,sans-Serif" font-size="10.00" fill="#000000">+ setCapacity()</text>
<text text-anchor="start" x="62.5" y="-123.5" font-family="Helvetica,sans-Serif" font-size="10.00" fill="#000000">and 6 more...</text>
</a>
</g>
</g>
<!-- Node3&#45;&gt;Node1 -->
<g id="edge2" class="edge">
<title>Node3&#45;&gt;Node1</title>
<path fill="none" stroke="#404040" d="M87.2246,-116.2803C83.7133,-103.9159 80.2101,-91.5804 77.0288,-80.3781"/>
<polygon fill="none" stroke="#404040" points="76.9962,-80.2631 71.5092,-75.5841 73.7179,-68.7195 79.2049,-73.3986 76.9962,-80.2631"/>
<text text-anchor="middle" x="104" y="-90" font-family="Helvetica,sans-Serif" font-size="10.00" fill="#000000"> #resource</text>
</g>
</g>
</svg>
