<?xml version="1.0" encoding="UTF-8" standalone="no"?>
<!DOCTYPE svg PUBLIC "-//W3C//DTD SVG 1.1//EN"
 "http://www.w3.org/Graphics/SVG/1.1/DTD/svg11.dtd">
<!-- Generated by graphviz version 2.40.1 (20161225.0304)
 -->
<!-- Title: bsn::goalmodel::LeafTask::getContext Pages: 1 -->
<svg width="302pt" height="78pt"
 viewBox="0.00 0.00 302.00 77.50" xmlns="http://www.w3.org/2000/svg" xmlns:xlink="http://www.w3.org/1999/xlink">
<g id="graph0" class="graph" transform="scale(1 1) rotate(0) translate(4 73.5)">
<title>bsn::goalmodel::LeafTask::getContext</title>
<polygon fill="#ffffff" stroke="transparent" points="-4,4 -4,-73.5 298,-73.5 298,4 -4,4"/>
<!-- Node1 -->
<g id="node1" class="node">
<title>Node1</title>
<g id="a_node1"><a xlink:title=" ">
<polygon fill="#bfbfbf" stroke="#000000" points="165,-17 165,-47 294,-47 294,-17 165,-17"/>
<text text-anchor="start" x="173" y="-35" font-family="Helvetica,sans-Serif" font-size="10.00" fill="#000000">bsn::goalmodel::LeafTask</text>
<text text-anchor="middle" x="229.5" y="-24" font-family="Helvetica,sans-Serif" font-size="10.00" fill="#000000">::getContext</text>
</a>
</g>
</g>
<!-- Node2 -->
<g id="node2" class="node">
<title>Node2</title>
<g id="a_node2"><a xlink:href="classbsn_1_1goalmodel_1_1LeafTask.html#a5a0f2631ba7d3681b78f4f7c2fe405f1" target="_top" xlink:title=" ">
<polygon fill="#ffffff" stroke="#000000" points="0,-39 0,-69 129,-69 129,-39 0,-39"/>
<text text-anchor="start" x="8" y="-57" font-family="Helvetica,sans-Serif" font-size="10.00" fill="#000000">bsn::goalmodel::LeafTask</text>
<text text-anchor="middle" x="64.5" y="-46" font-family="Helvetica,sans-Serif" font-size="10.00" fill="#000000">::operator=</text>
</a>
</g>
</g>
<!-- Node1&#45;&gt;Node2 -->
<g id="edge1" class="edge">
<title>Node1&#45;&gt;Node2</title>
<path fill="none" stroke="#191970" d="M154.7612,-41.9652C146.1792,-43.1094 137.4842,-44.2688 129.0521,-45.3931"/>
<polygon fill="#191970" stroke="#191970" points="155.3115,-45.4229 164.7612,-40.6318 154.3863,-38.4843 155.3115,-45.4229"/>
</g>
<!-- Node3 -->
<g id="node3" class="node">
<title>Node3</title>
<g id="a_node3"><a xlink:href="LeafTaskTest_8cpp.html#a4067e804a819f208e573f8038e93eecd" target="_top" xlink:title=" ">
<polygon fill="#ffffff" stroke="#000000" points="38,-.5 38,-19.5 91,-19.5 91,-.5 38,-.5"/>
<text text-anchor="middle" x="64.5" y="-7.5" font-family="Helvetica,sans-Serif" font-size="10.00" fill="#000000">TEST_F</text>
</a>
</g>
</g>
<!-- Node1&#45;&gt;Node3 -->
<g id="edge2" class="edge">
<title>Node1&#45;&gt;Node3</title>
<path fill="none" stroke="#191970" d="M154.7482,-22.0331C132.0258,-19.0034 108.5125,-15.8683 91.1849,-13.558"/>
<polygon fill="#191970" stroke="#191970" points="154.3863,-25.5157 164.7612,-23.3682 155.3115,-18.5771 154.3863,-25.5157"/>
</g>
</g>
</svg>
