<?xml version="1.0" encoding="UTF-8" standalone="no"?>
<!DOCTYPE svg PUBLIC "-//W3C//DTD SVG 1.1//EN"
 "http://www.w3.org/Graphics/SVG/1.1/DTD/svg11.dtd">
<!-- Generated by graphviz version 2.40.1 (20161225.0304)
 -->
<!-- Title: Lepton::Operation::getName Pages: 1 -->
<svg width="287pt" height="78pt"
 viewBox="0.00 0.00 287.00 77.50" xmlns="http://www.w3.org/2000/svg" xmlns:xlink="http://www.w3.org/1999/xlink">
<g id="graph0" class="graph" transform="scale(1 1) rotate(0) translate(4 73.5)">
<title>Lepton::Operation::getName</title>
<polygon fill="#ffffff" stroke="transparent" points="-4,4 -4,-73.5 283,-73.5 283,4 -4,4"/>
<!-- Node1 -->
<g id="node1" class="node">
<title>Node1</title>
<g id="a_node1"><a xlink:title=" ">
<polygon fill="#bfbfbf" stroke="#000000" points="179,-17 179,-47 279,-47 279,-17 179,-17"/>
<text text-anchor="start" x="187" y="-35" font-family="Helvetica,sans-Serif" font-size="10.00" fill="#000000">Lepton::Operation::</text>
<text text-anchor="middle" x="229" y="-24" font-family="Helvetica,sans-Serif" font-size="10.00" fill="#000000">getName</text>
</a>
</g>
</g>
<!-- Node2 -->
<g id="node2" class="node">
<title>Node2</title>
<g id="a_node2"><a xlink:href="classLepton_1_1ExpressionTreeNode.html#af89ea6bebc7ddafd94b8883b53e1917b" target="_top" xlink:title=" ">
<polygon fill="#ffffff" stroke="#000000" points="0,-39 0,-69 143,-69 143,-39 0,-39"/>
<text text-anchor="start" x="8" y="-57" font-family="Helvetica,sans-Serif" font-size="10.00" fill="#000000">Lepton::ExpressionTreeNode</text>
<text text-anchor="middle" x="71.5" y="-46" font-family="Helvetica,sans-Serif" font-size="10.00" fill="#000000">::ExpressionTreeNode</text>
</a>
</g>
</g>
<!-- Node1&#45;&gt;Node2 -->
<g id="edge1" class="edge">
<title>Node1&#45;&gt;Node2</title>
<path fill="none" stroke="#191970" d="M168.6952,-40.4235C160.3238,-41.5929 151.6576,-42.8034 143.1048,-43.9981"/>
<polygon fill="#191970" stroke="#191970" points="169.3133,-43.8713 178.733,-39.0214 168.3449,-36.9386 169.3133,-43.8713"/>
</g>
<!-- Node3 -->
<g id="node3" class="node">
<title>Node3</title>
<g id="a_node3"><a xlink:href="namespaceLepton.html#af2c28a626fa44c7a59b719d95067c23f" target="_top" xlink:title=" ">
<polygon fill="#ffffff" stroke="#000000" points="22,-.5 22,-19.5 121,-19.5 121,-.5 22,-.5"/>
<text text-anchor="middle" x="71.5" y="-7.5" font-family="Helvetica,sans-Serif" font-size="10.00" fill="#000000">Lepton::operator&lt;&lt;</text>
</a>
</g>
</g>
<!-- Node1&#45;&gt;Node3 -->
<g id="edge2" class="edge">
<title>Node1&#45;&gt;Node3</title>
<path fill="none" stroke="#191970" d="M168.5791,-23.5603C152.8584,-21.3643 136.1058,-19.0243 121.0208,-16.9172"/>
<polygon fill="#191970" stroke="#191970" points="168.3449,-27.0614 178.733,-24.9786 169.3133,-20.1287 168.3449,-27.0614"/>
</g>
</g>
</svg>
