<?xml version="1.0" encoding="UTF-8" standalone="no"?>
<!DOCTYPE svg PUBLIC "-//W3C//DTD SVG 1.1//EN"
 "http://www.w3.org/Graphics/SVG/1.1/DTD/svg11.dtd">
<!-- Generated by graphviz version 2.40.1 (20161225.0304)
 -->
<!-- Title: ParamAdapter::setUp Pages: 1 -->
<svg width="313pt" height="78pt"
 viewBox="0.00 0.00 313.00 77.50" xmlns="http://www.w3.org/2000/svg" xmlns:xlink="http://www.w3.org/1999/xlink">
<g id="graph0" class="graph" transform="scale(1 1) rotate(0) translate(4 73.5)">
<title>ParamAdapter::setUp</title>
<polygon fill="#ffffff" stroke="transparent" points="-4,4 -4,-73.5 309,-73.5 309,4 -4,4"/>
<!-- Node1 -->
<g id="node1" class="node">
<title>Node1</title>
<g id="a_node1"><a xlink:title=" ">
<polygon fill="#bfbfbf" stroke="#000000" points="0,-28 0,-47 111,-47 111,-28 0,-28"/>
<text text-anchor="middle" x="55.5" y="-35" font-family="Helvetica,sans-Serif" font-size="10.00" fill="#000000">ParamAdapter::setUp</text>
</a>
</g>
</g>
<!-- Node2 -->
<g id="node2" class="node">
<title>Node2</title>
<g id="a_node2"><a xlink:href="classParamAdapter.html#aa65562126e45cacc10361914b62a80b3" target="_top" xlink:title=" ">
<polygon fill="#ffffff" stroke="#000000" points="149.5,-50 149.5,-69 302.5,-69 302.5,-50 149.5,-50"/>
<text text-anchor="middle" x="226" y="-57" font-family="Helvetica,sans-Serif" font-size="10.00" fill="#000000">ParamAdapter::moduleConnect</text>
</a>
</g>
</g>
<!-- Node1&#45;&gt;Node2 -->
<g id="edge1" class="edge">
<title>Node1&#45;&gt;Node2</title>
<path fill="none" stroke="#191970" d="M111.3281,-44.7036C121.2638,-45.9857 131.8073,-47.3461 142.319,-48.7024"/>
<polygon fill="#191970" stroke="#191970" points="142.0008,-52.1903 152.3665,-49.9989 142.8967,-45.2479 142.0008,-52.1903"/>
</g>
<!-- Node3 -->
<g id="node3" class="node">
<title>Node3</title>
<g id="a_node3"><a xlink:href="classarch_1_1ROSComponentDescriptor.html#a6ae1f0c4c644bce7bc7e99e408dc7ca0" target="_top" xlink:title=" ">
<polygon fill="#ffffff" stroke="#000000" points="147,-.5 147,-30.5 305,-30.5 305,-.5 147,-.5"/>
<text text-anchor="start" x="155" y="-18.5" font-family="Helvetica,sans-Serif" font-size="10.00" fill="#000000">arch::ROSComponentDescriptor</text>
<text text-anchor="middle" x="226" y="-7.5" font-family="Helvetica,sans-Serif" font-size="10.00" fill="#000000">::setFreq</text>
</a>
</g>
</g>
<!-- Node1&#45;&gt;Node3 -->
<g id="edge2" class="edge">
<title>Node1&#45;&gt;Node3</title>
<path fill="none" stroke="#191970" d="M111.3281,-30.2964C119.4952,-29.2426 128.0729,-28.1358 136.7061,-27.0218"/>
<polygon fill="#191970" stroke="#191970" points="137.375,-30.4646 146.8449,-25.7136 136.4792,-23.5221 137.375,-30.4646"/>
</g>
</g>
</svg>
