<?xml version="1.0" encoding="UTF-8" standalone="no"?>
<!DOCTYPE svg PUBLIC "-//W3C//DTD SVG 1.1//EN"
 "http://www.w3.org/Graphics/SVG/1.1/DTD/svg11.dtd">
<!-- Generated by graphviz version 2.40.1 (20161225.0304)
 -->
<!-- Title: Lepton::ParsedExpression::differentiate Pages: 1 -->
<svg width="485pt" height="39pt"
 viewBox="0.00 0.00 485.00 39.00" xmlns="http://www.w3.org/2000/svg" xmlns:xlink="http://www.w3.org/1999/xlink">
<g id="graph0" class="graph" transform="scale(1 1) rotate(0) translate(4 35)">
<title>Lepton::ParsedExpression::differentiate</title>
<polygon fill="#ffffff" stroke="transparent" points="-4,4 -4,-35 481,-35 481,4 -4,4"/>
<!-- Node1 -->
<g id="node1" class="node">
<title>Node1</title>
<g id="a_node1"><a xlink:title=" ">
<polygon fill="#bfbfbf" stroke="#000000" points="0,-.5 0,-30.5 131,-30.5 131,-.5 0,-.5"/>
<text text-anchor="start" x="8" y="-18.5" font-family="Helvetica,sans-Serif" font-size="10.00" fill="#000000">Lepton::ParsedExpression</text>
<text text-anchor="middle" x="65.5" y="-7.5" font-family="Helvetica,sans-Serif" font-size="10.00" fill="#000000">::differentiate</text>
</a>
</g>
</g>
<!-- Node2 -->
<g id="node2" class="node">
<title>Node2</title>
<g id="a_node2"><a xlink:href="classLepton_1_1ParsedExpression.html#a5f3df57885604220c0e9bd28d3eac21d" target="_top" xlink:title=" ">
<polygon fill="#ffffff" stroke="#000000" points="167,-.5 167,-30.5 298,-30.5 298,-.5 167,-.5"/>
<text text-anchor="start" x="175" y="-18.5" font-family="Helvetica,sans-Serif" font-size="10.00" fill="#000000">Lepton::ParsedExpression</text>
<text text-anchor="middle" x="232.5" y="-7.5" font-family="Helvetica,sans-Serif" font-size="10.00" fill="#000000">::getRootNode</text>
</a>
</g>
</g>
<!-- Node1&#45;&gt;Node2 -->
<g id="edge1" class="edge">
<title>Node1&#45;&gt;Node2</title>
<path fill="none" stroke="#191970" d="M131.0235,-15.5C139.496,-15.5 148.2278,-15.5 156.8471,-15.5"/>
<polygon fill="#191970" stroke="#191970" points="156.8914,-19.0001 166.8913,-15.5 156.8913,-12.0001 156.8914,-19.0001"/>
</g>
<!-- Node3 -->
<g id="node3" class="node">
<title>Node3</title>
<g id="a_node3"><a xlink:href="classLepton_1_1ExpressionTreeNode.html#a779a783ff48104642ccbce6e01a822c4" target="_top" xlink:title=" ">
<polygon fill="#ffffff" stroke="#000000" points="334,-.5 334,-30.5 477,-30.5 477,-.5 334,-.5"/>
<text text-anchor="start" x="342" y="-18.5" font-family="Helvetica,sans-Serif" font-size="10.00" fill="#000000">Lepton::ExpressionTreeNode</text>
<text text-anchor="middle" x="405.5" y="-7.5" font-family="Helvetica,sans-Serif" font-size="10.00" fill="#000000">::getOperation</text>
</a>
</g>
</g>
<!-- Node2&#45;&gt;Node3 -->
<g id="edge2" class="edge">
<title>Node2&#45;&gt;Node3</title>
<path fill="none" stroke="#191970" d="M298.3974,-15.5C306.6116,-15.5 315.0889,-15.5 323.5092,-15.5"/>
<polygon fill="#191970" stroke="#191970" points="323.7302,-19.0001 333.7302,-15.5 323.7301,-12.0001 323.7302,-19.0001"/>
</g>
</g>
</svg>
