<?xml version="1.0" encoding="UTF-8" standalone="no"?>
<!DOCTYPE svg PUBLIC "-//W3C//DTD SVG 1.1//EN"
 "http://www.w3.org/Graphics/SVG/1.1/DTD/svg11.dtd">
<!-- Generated by graphviz version 2.40.1 (20161225.0304)
 -->
<!-- Title: bsn::configuration::SensorConfiguration::convertRealPercentage Pages: 1 -->
<svg width="272pt" height="137pt"
 viewBox="0.00 0.00 272.00 137.00" xmlns="http://www.w3.org/2000/svg" xmlns:xlink="http://www.w3.org/1999/xlink">
<g id="graph0" class="graph" transform="scale(1 1) rotate(0) translate(4 133)">
<title>bsn::configuration::SensorConfiguration::convertRealPercentage</title>
<polygon fill="#ffffff" stroke="transparent" points="-4,4 -4,-133 268,-133 268,4 -4,4"/>
<!-- Node1 -->
<g id="node1" class="node">
<title>Node1</title>
<g id="a_node1"><a xlink:title=" ">
<polygon fill="#bfbfbf" stroke="#000000" points="0,-44 0,-85 125,-85 125,-44 0,-44"/>
<text text-anchor="start" x="8" y="-73" font-family="Helvetica,sans-Serif" font-size="10.00" fill="#000000">bsn::configuration</text>
<text text-anchor="start" x="8" y="-62" font-family="Helvetica,sans-Serif" font-size="10.00" fill="#000000">::SensorConfiguration</text>
<text text-anchor="middle" x="62.5" y="-51" font-family="Helvetica,sans-Serif" font-size="10.00" fill="#000000">::convertRealPercentage</text>
</a>
</g>
</g>
<!-- Node2 -->
<g id="node2" class="node">
<title>Node2</title>
<g id="a_node2"><a xlink:href="classbsn_1_1range_1_1Range.html#ab8b7c15c1b6dc5c0e2c57b968271ac3b" target="_top" xlink:title=" ">
<polygon fill="#ffffff" stroke="#000000" points="161,-98.5 161,-128.5 264,-128.5 264,-98.5 161,-98.5"/>
<text text-anchor="start" x="169" y="-116.5" font-family="Helvetica,sans-Serif" font-size="10.00" fill="#000000">bsn::range::Range::</text>
<text text-anchor="middle" x="212.5" y="-105.5" font-family="Helvetica,sans-Serif" font-size="10.00" fill="#000000">convert</text>
</a>
</g>
</g>
<!-- Node1&#45;&gt;Node2 -->
<g id="edge1" class="edge">
<title>Node1&#45;&gt;Node2</title>
<path fill="none" stroke="#191970" d="M125.2444,-84.9965C135.7085,-88.4148 146.4998,-91.9399 156.7735,-95.296"/>
<polygon fill="#191970" stroke="#191970" points="155.8448,-98.6746 166.4373,-98.4529 158.0185,-92.0206 155.8448,-98.6746"/>
</g>
<!-- Node3 -->
<g id="node3" class="node">
<title>Node3</title>
<g id="a_node3"><a xlink:href="classbsn_1_1range_1_1Range.html#a0785d0aa7d5463bcdd3842089069a2e7" target="_top" xlink:title=" ">
<polygon fill="#ffffff" stroke="#000000" points="161,-49.5 161,-79.5 264,-79.5 264,-49.5 161,-49.5"/>
<text text-anchor="start" x="169" y="-67.5" font-family="Helvetica,sans-Serif" font-size="10.00" fill="#000000">bsn::range::Range::</text>
<text text-anchor="middle" x="212.5" y="-56.5" font-family="Helvetica,sans-Serif" font-size="10.00" fill="#000000">getLowerBound</text>
</a>
</g>
</g>
<!-- Node1&#45;&gt;Node3 -->
<g id="edge2" class="edge">
<title>Node1&#45;&gt;Node3</title>
<path fill="none" stroke="#191970" d="M125.2444,-64.5C133.6914,-64.5 142.3517,-64.5 150.7808,-64.5"/>
<polygon fill="#191970" stroke="#191970" points="150.9179,-68.0001 160.9179,-64.5 150.9178,-61.0001 150.9179,-68.0001"/>
</g>
<!-- Node4 -->
<g id="node4" class="node">
<title>Node4</title>
<g id="a_node4"><a xlink:href="classbsn_1_1range_1_1Range.html#a540c2181ec15a65b189a7fb89659f388" target="_top" xlink:title=" ">
<polygon fill="#ffffff" stroke="#000000" points="161,-.5 161,-30.5 264,-30.5 264,-.5 161,-.5"/>
<text text-anchor="start" x="169" y="-18.5" font-family="Helvetica,sans-Serif" font-size="10.00" fill="#000000">bsn::range::Range::</text>
<text text-anchor="middle" x="212.5" y="-7.5" font-family="Helvetica,sans-Serif" font-size="10.00" fill="#000000">getUpperBound</text>
</a>
</g>
</g>
<!-- Node1&#45;&gt;Node4 -->
<g id="edge3" class="edge">
<title>Node1&#45;&gt;Node4</title>
<path fill="none" stroke="#191970" d="M125.2444,-44.0035C135.7085,-40.5852 146.4998,-37.0601 156.7735,-33.704"/>
<polygon fill="#191970" stroke="#191970" points="158.0185,-36.9794 166.4373,-30.5471 155.8448,-30.3254 158.0185,-36.9794"/>
</g>
</g>
</svg>
