<?xml version="1.0" encoding="UTF-8" standalone="no"?>
<!DOCTYPE svg PUBLIC "-//W3C//DTD SVG 1.1//EN"
 "http://www.w3.org/Graphics/SVG/1.1/DTD/svg11.dtd">
<!-- Generated by graphviz version 2.40.1 (20161225.0304)
 -->
<!-- Title: Enactor::body Pages: 1 -->
<svg width="435pt" height="154pt"
 viewBox="0.00 0.00 435.00 153.50" xmlns="http://www.w3.org/2000/svg" xmlns:xlink="http://www.w3.org/1999/xlink">
<g id="graph0" class="graph" transform="scale(1 1) rotate(0) translate(4 149.5)">
<title>Enactor::body</title>
<polygon fill="#ffffff" stroke="transparent" points="-4,4 -4,-149.5 431,-149.5 431,4 -4,4"/>
<!-- Node1 -->
<g id="node1" class="node">
<title>Node1</title>
<g id="a_node1"><a xlink:title=" ">
<polygon fill="#bfbfbf" stroke="#000000" points="0,-57.5 0,-76.5 77,-76.5 77,-57.5 0,-57.5"/>
<text text-anchor="middle" x="38.5" y="-64.5" font-family="Helvetica,sans-Serif" font-size="10.00" fill="#000000">Enactor::body</text>
</a>
</g>
</g>
<!-- Node2 -->
<g id="node2" class="node">
<title>Node2</title>
<g id="a_node2"><a xlink:href="classarch_1_1ROSComponentDescriptor.html#a4b73f46f37241865a08e75ab202e28eb" target="_top" xlink:title=" ">
<polygon fill="#ffffff" stroke="#000000" points="113,-115 113,-145 271,-145 271,-115 113,-115"/>
<text text-anchor="start" x="121" y="-133" font-family="Helvetica,sans-Serif" font-size="10.00" fill="#000000">arch::ROSComponentDescriptor</text>
<text text-anchor="middle" x="192" y="-122" font-family="Helvetica,sans-Serif" font-size="10.00" fill="#000000">::getFreq</text>
</a>
</g>
</g>
<!-- Node1&#45;&gt;Node2 -->
<g id="edge1" class="edge">
<title>Node1&#45;&gt;Node2</title>
<path fill="none" stroke="#191970" d="M55.2859,-76.5739C70.1446,-84.8015 92.58,-96.6283 113,-105 118.6777,-107.3277 124.6567,-109.5739 130.679,-111.7009"/>
<polygon fill="#191970" stroke="#191970" points="129.5464,-115.0126 140.1409,-114.9401 131.8136,-108.3899 129.5464,-115.0126"/>
</g>
<!-- Node3 -->
<g id="node3" class="node">
<title>Node3</title>
<g id="a_node3"><a xlink:href="classEnactor.html#ad79da88b560bc32a380cc9f506fddf5a" target="_top" xlink:title=" ">
<polygon fill="#ffffff" stroke="#000000" points="135.5,-76.5 135.5,-95.5 248.5,-95.5 248.5,-76.5 135.5,-76.5"/>
<text text-anchor="middle" x="192" y="-83.5" font-family="Helvetica,sans-Serif" font-size="10.00" fill="#000000">Enactor::receiveEvent</text>
</a>
</g>
</g>
<!-- Node1&#45;&gt;Node3 -->
<g id="edge2" class="edge">
<title>Node1&#45;&gt;Node3</title>
<path fill="none" stroke="#191970" d="M77.2345,-71.7945C91.7974,-73.5971 108.8031,-75.702 125.1935,-77.7308"/>
<polygon fill="#191970" stroke="#191970" points="124.9378,-81.2258 135.292,-78.9808 125.7977,-74.2788 124.9378,-81.2258"/>
</g>
<!-- Node4 -->
<g id="node4" class="node">
<title>Node4</title>
<g id="a_node4"><a xlink:href="classEnactor.html#a9e10c68a47e83737f8b45b9c504cdc97" target="_top" xlink:title=" ">
<polygon fill="#ffffff" stroke="#000000" points="134,-38.5 134,-57.5 250,-57.5 250,-38.5 134,-38.5"/>
<text text-anchor="middle" x="192" y="-45.5" font-family="Helvetica,sans-Serif" font-size="10.00" fill="#000000">Enactor::receiveStatus</text>
</a>
</g>
</g>
<!-- Node1&#45;&gt;Node4 -->
<g id="edge3" class="edge">
<title>Node1&#45;&gt;Node4</title>
<path fill="none" stroke="#191970" d="M77.2345,-62.2055C91.2957,-60.465 107.6344,-58.4427 123.4976,-56.4791"/>
<polygon fill="#191970" stroke="#191970" points="124.3303,-59.9028 133.8246,-55.2009 123.4704,-52.9559 124.3303,-59.9028"/>
</g>
<!-- Node7 -->
<g id="node7" class="node">
<title>Node7</title>
<g id="a_node7"><a xlink:href="classEnactor.html#aee03d216ab1a7ed1b841cefac05541c5" target="_top" xlink:title=" ">
<polygon fill="#ffffff" stroke="#000000" points="129.5,-.5 129.5,-19.5 254.5,-19.5 254.5,-.5 129.5,-.5"/>
<text text-anchor="middle" x="192" y="-7.5" font-family="Helvetica,sans-Serif" font-size="10.00" fill="#000000">Enactor::receiveStrategy</text>
</a>
</g>
</g>
<!-- Node1&#45;&gt;Node7 -->
<g id="edge6" class="edge">
<title>Node1&#45;&gt;Node7</title>
<path fill="none" stroke="#191970" d="M54.5672,-57.3994C69.326,-48.9254 92.0254,-36.7479 113,-29 119.823,-26.4796 127.1023,-24.2038 134.3775,-22.1761"/>
<polygon fill="#191970" stroke="#191970" points="135.479,-25.5052 144.2522,-19.5654 133.6897,-18.7378 135.479,-25.5052"/>
</g>
<!-- Node5 -->
<g id="node5" class="node">
<title>Node5</title>
<g id="a_node5"><a xlink:href="classEnactor.html#a152ab8591c791f3df8a8e650ad4d776b" target="_top" xlink:title=" ">
<polygon fill="#ffffff" stroke="#000000" points="307,-38.5 307,-57.5 427,-57.5 427,-38.5 307,-38.5"/>
<text text-anchor="middle" x="367" y="-45.5" font-family="Helvetica,sans-Serif" font-size="10.00" fill="#000000">Enactor::apply_strategy</text>
</a>
</g>
</g>
<!-- Node4&#45;&gt;Node5 -->
<g id="edge4" class="edge">
<title>Node4&#45;&gt;Node5</title>
<path fill="none" stroke="#191970" d="M250.2725,-48C265.1985,-48 281.4064,-48 296.8614,-48"/>
<polygon fill="#191970" stroke="#191970" points="296.8878,-51.5001 306.8878,-48 296.8878,-44.5001 296.8878,-51.5001"/>
</g>
<!-- Node6 -->
<g id="node6" class="node">
<title>Node6</title>
<g id="a_node6"><a xlink:href="namespacebsn_1_1utils.html#a4ab7be3d27380abe032f4ceec86b09b2" target="_top" xlink:title=" ">
<polygon fill="#ffffff" stroke="#000000" points="327,-.5 327,-19.5 407,-19.5 407,-.5 327,-.5"/>
<text text-anchor="middle" x="367" y="-7.5" font-family="Helvetica,sans-Serif" font-size="10.00" fill="#000000">bsn::utils::split</text>
</a>
</g>
</g>
<!-- Node4&#45;&gt;Node6 -->
<g id="edge5" class="edge">
<title>Node4&#45;&gt;Node6</title>
<path fill="none" stroke="#191970" d="M236.1599,-38.411C260.7418,-33.0732 291.4292,-26.4097 316.9052,-20.8777"/>
<polygon fill="#191970" stroke="#191970" points="317.719,-24.2827 326.7485,-18.7403 316.2335,-17.4421 317.719,-24.2827"/>
</g>
<!-- Node7&#45;&gt;Node6 -->
<g id="edge7" class="edge">
<title>Node7&#45;&gt;Node6</title>
<path fill="none" stroke="#191970" d="M254.6847,-10C275.0525,-10 297.3759,-10 316.7175,-10"/>
<polygon fill="#191970" stroke="#191970" points="316.8283,-13.5001 326.8283,-10 316.8283,-6.5001 316.8283,-13.5001"/>
</g>
</g>
</svg>
