<?xml version="1.0" encoding="UTF-8" standalone="no"?>
<!DOCTYPE svg PUBLIC "-//W3C//DTD SVG 1.1//EN"
 "http://www.w3.org/Graphics/SVG/1.1/DTD/svg11.dtd">
<!-- Generated by graphviz version 2.40.1 (20161225.0304)
 -->
<!-- Title: bsn::resource::Battery::getCurrentLevel Pages: 1 -->
<svg width="569pt" height="382pt"
 viewBox="0.00 0.00 569.00 382.00" xmlns="http://www.w3.org/2000/svg" xmlns:xlink="http://www.w3.org/1999/xlink">
<g id="graph0" class="graph" transform="scale(1 1) rotate(0) translate(4 378)">
<title>bsn::resource::Battery::getCurrentLevel</title>
<polygon fill="#ffffff" stroke="transparent" points="-4,4 -4,-378 565,-378 565,4 -4,4"/>
<!-- Node1 -->
<g id="node1" class="node">
<title>Node1</title>
<g id="a_node1"><a xlink:title=" ">
<polygon fill="#bfbfbf" stroke="#000000" points="448,-166 448,-196 561,-196 561,-166 448,-166"/>
<text text-anchor="start" x="456" y="-184" font-family="Helvetica,sans-Serif" font-size="10.00" fill="#000000">bsn::resource::Battery</text>
<text text-anchor="middle" x="504.5" y="-173" font-family="Helvetica,sans-Serif" font-size="10.00" fill="#000000">::getCurrentLevel</text>
</a>
</g>
</g>
<!-- Node2 -->
<g id="node2" class="node">
<title>Node2</title>
<g id="a_node2"><a xlink:href="classCentralHub.html#a48b13d52b79864e84eae5012108d3211" target="_top" xlink:title=" ">
<polygon fill="#ffffff" stroke="#000000" points="309,-354.5 309,-373.5 402,-373.5 402,-354.5 309,-354.5"/>
<text text-anchor="middle" x="355.5" y="-361.5" font-family="Helvetica,sans-Serif" font-size="10.00" fill="#000000">CentralHub::body</text>
</a>
</g>
</g>
<!-- Node1&#45;&gt;Node2 -->
<g id="edge1" class="edge">
<title>Node1&#45;&gt;Node2</title>
<path fill="none" stroke="#191970" d="M495.7611,-206.0328C482.5805,-240.4781 454.5421,-302.4772 412,-340 405.0464,-346.1331 396.2937,-350.8695 387.7678,-354.4501"/>
<polygon fill="#191970" stroke="#191970" points="499.1804,-206.8781 499.3742,-196.285 492.6168,-204.4451 499.1804,-206.8781"/>
</g>
<!-- Node5 -->
<g id="node5" class="node">
<title>Node5</title>
<g id="a_node5"><a xlink:href="classSensor.html#a043dabb8b92f70fc247d585b8d66e133" target="_top" xlink:title=" ">
<polygon fill="#ffffff" stroke="#000000" points="183,-272.5 183,-291.5 257,-291.5 257,-272.5 183,-272.5"/>
<text text-anchor="middle" x="220" y="-279.5" font-family="Helvetica,sans-Serif" font-size="10.00" fill="#000000">Sensor::body</text>
</a>
</g>
</g>
<!-- Node1&#45;&gt;Node5 -->
<g id="edge4" class="edge">
<title>Node1&#45;&gt;Node5</title>
<path fill="none" stroke="#191970" d="M494.7257,-205.7202C481.2419,-235.9943 453.7614,-285.8514 412,-307 354.7218,-336.0065 276.0355,-307.8135 239.7702,-291.6267"/>
<polygon fill="#191970" stroke="#191970" points="498.0512,-206.8448 498.7623,-196.2739 491.6143,-204.0942 498.0512,-206.8448"/>
</g>
<!-- Node8 -->
<g id="node8" class="node">
<title>Node8</title>
<g id="a_node8"><a xlink:href="classbsn_1_1resource_1_1Battery.html#ad226c2dc5464351bbdbc6461120934ad" target="_top" xlink:title=" ">
<polygon fill="#ffffff" stroke="#000000" points="299,-267 299,-297 412,-297 412,-267 299,-267"/>
<text text-anchor="start" x="307" y="-285" font-family="Helvetica,sans-Serif" font-size="10.00" fill="#000000">bsn::resource::Battery</text>
<text text-anchor="middle" x="355.5" y="-274" font-family="Helvetica,sans-Serif" font-size="10.00" fill="#000000">::operator=</text>
</a>
</g>
</g>
<!-- Node1&#45;&gt;Node8 -->
<g id="edge7" class="edge">
<title>Node1&#45;&gt;Node8</title>
<path fill="none" stroke="#191970" d="M481.1658,-203.2087C463.2326,-219.4963 437.3195,-241.4003 412,-257 406.1554,-260.601 399.7018,-263.9639 393.3091,-266.9829"/>
<polygon fill="#191970" stroke="#191970" points="483.8301,-205.5131 488.8131,-196.1632 479.087,-200.3649 483.8301,-205.5131"/>
</g>
<!-- Node9 -->
<g id="node9" class="node">
<title>Node9</title>
<g id="a_node9"><a xlink:href="classSensor.html#aa2c5c0b7c6f69e6e25cf56bab5fc822b" target="_top" xlink:title=" ">
<polygon fill="#ffffff" stroke="#000000" points="310,-228.5 310,-247.5 401,-247.5 401,-228.5 310,-228.5"/>
<text text-anchor="middle" x="355.5" y="-235.5" font-family="Helvetica,sans-Serif" font-size="10.00" fill="#000000">Sensor::recharge</text>
</a>
</g>
</g>
<!-- Node1&#45;&gt;Node9 -->
<g id="edge8" class="edge">
<title>Node1&#45;&gt;Node9</title>
<path fill="none" stroke="#191970" d="M459.5559,-200.1538C444.5189,-206.3771 427.6116,-213.1754 412,-219 403.3706,-222.2196 393.9125,-225.497 385.2448,-228.4028"/>
<polygon fill="#191970" stroke="#191970" points="461.2499,-203.2397 469.1349,-196.1632 458.5579,-196.778 461.2499,-203.2397"/>
</g>
<!-- Node10 -->
<g id="node10" class="node">
<title>Node10</title>
<g id="a_node10"><a xlink:href="ResourcesTest_8cpp.html#a61d11c70cbd2ca54105bd4a9b1ec891a" target="_top" xlink:title=" ">
<polygon fill="#ffffff" stroke="#000000" points="329,-190.5 329,-209.5 382,-209.5 382,-190.5 329,-190.5"/>
<text text-anchor="middle" x="355.5" y="-197.5" font-family="Helvetica,sans-Serif" font-size="10.00" fill="#000000">TEST_F</text>
</a>
</g>
</g>
<!-- Node1&#45;&gt;Node10 -->
<g id="edge10" class="edge">
<title>Node1&#45;&gt;Node10</title>
<path fill="none" stroke="#191970" d="M437.5869,-189.5325C417.9837,-192.0323 397.6725,-194.6223 382.1584,-196.6006"/>
<polygon fill="#191970" stroke="#191970" points="438.2675,-192.9742 447.7444,-188.2373 437.382,-186.0304 438.2675,-192.9742"/>
</g>
<!-- Node11 -->
<g id="node11" class="node">
<title>Node11</title>
<g id="a_node11"><a xlink:href="classG3T1__1.html#a58277c46b8319bd35e3ffabd52805874" target="_top" xlink:title=" ">
<polygon fill="#ffffff" stroke="#000000" points="310.5,-152.5 310.5,-171.5 400.5,-171.5 400.5,-152.5 310.5,-152.5"/>
<text text-anchor="middle" x="355.5" y="-159.5" font-family="Helvetica,sans-Serif" font-size="10.00" fill="#000000">G3T1_1::transfer</text>
</a>
</g>
</g>
<!-- Node1&#45;&gt;Node11 -->
<g id="edge11" class="edge">
<title>Node1&#45;&gt;Node11</title>
<path fill="none" stroke="#191970" d="M437.7366,-172.4865C425.1431,-170.8807 412.2516,-169.2368 400.5223,-167.7411"/>
<polygon fill="#191970" stroke="#191970" points="437.382,-175.9696 447.7444,-173.7627 438.2675,-169.0258 437.382,-175.9696"/>
</g>
<!-- Node12 -->
<g id="node12" class="node">
<title>Node12</title>
<g id="a_node12"><a xlink:href="classG3T1__2.html#ac437972ecabb9e234c8717101d51eac8" target="_top" xlink:title=" ">
<polygon fill="#ffffff" stroke="#000000" points="310.5,-114.5 310.5,-133.5 400.5,-133.5 400.5,-114.5 310.5,-114.5"/>
<text text-anchor="middle" x="355.5" y="-121.5" font-family="Helvetica,sans-Serif" font-size="10.00" fill="#000000">G3T1_2::transfer</text>
</a>
</g>
</g>
<!-- Node1&#45;&gt;Node12 -->
<g id="edge12" class="edge">
<title>Node1&#45;&gt;Node12</title>
<path fill="none" stroke="#191970" d="M459.5559,-161.8462C444.5189,-155.6229 427.6116,-148.8246 412,-143 403.3706,-139.7804 393.9125,-136.503 385.2448,-133.5972"/>
<polygon fill="#191970" stroke="#191970" points="458.5579,-165.222 469.1349,-165.8368 461.2499,-158.7603 458.5579,-165.222"/>
</g>
<!-- Node13 -->
<g id="node13" class="node">
<title>Node13</title>
<g id="a_node13"><a xlink:href="classG3T1__3.html#a4bd1c419743c7c128fd1c3cf4fa5e434" target="_top" xlink:title=" ">
<polygon fill="#ffffff" stroke="#000000" points="310.5,-76.5 310.5,-95.5 400.5,-95.5 400.5,-76.5 310.5,-76.5"/>
<text text-anchor="middle" x="355.5" y="-83.5" font-family="Helvetica,sans-Serif" font-size="10.00" fill="#000000">G3T1_3::transfer</text>
</a>
</g>
</g>
<!-- Node1&#45;&gt;Node13 -->
<g id="edge13" class="edge">
<title>Node1&#45;&gt;Node13</title>
<path fill="none" stroke="#191970" d="M482.2106,-158.7035C464.4691,-141.9956 438.3267,-119.5914 412,-105 405.3019,-101.2876 397.7551,-98.1339 390.41,-95.526"/>
<polygon fill="#191970" stroke="#191970" points="480.103,-161.5319 489.7415,-165.9308 484.9499,-156.4814 480.103,-161.5319"/>
</g>
<!-- Node14 -->
<g id="node14" class="node">
<title>Node14</title>
<g id="a_node14"><a xlink:href="classG3T1__4.html#a20ad5272beba24e4879fb29985b85f69" target="_top" xlink:title=" ">
<polygon fill="#ffffff" stroke="#000000" points="310.5,-38.5 310.5,-57.5 400.5,-57.5 400.5,-38.5 310.5,-38.5"/>
<text text-anchor="middle" x="355.5" y="-45.5" font-family="Helvetica,sans-Serif" font-size="10.00" fill="#000000">G3T1_4::transfer</text>
</a>
</g>
</g>
<!-- Node1&#45;&gt;Node14 -->
<g id="edge14" class="edge">
<title>Node1&#45;&gt;Node14</title>
<path fill="none" stroke="#191970" d="M490.7734,-157.007C474.9064,-131.2914 446.498,-90.9459 412,-67 406.474,-63.1643 400.1118,-60.0515 393.6941,-57.5418"/>
<polygon fill="#191970" stroke="#191970" points="487.8859,-158.9968 496.0398,-165.7618 493.8843,-155.3885 487.8859,-158.9968"/>
</g>
<!-- Node15 -->
<g id="node15" class="node">
<title>Node15</title>
<g id="a_node15"><a xlink:href="classG3T1__5.html#ae9918da7342a4fb88c6f633db43b9fe8" target="_top" xlink:title=" ">
<polygon fill="#ffffff" stroke="#000000" points="310.5,-.5 310.5,-19.5 400.5,-19.5 400.5,-.5 310.5,-.5"/>
<text text-anchor="middle" x="355.5" y="-7.5" font-family="Helvetica,sans-Serif" font-size="10.00" fill="#000000">G3T1_5::transfer</text>
</a>
</g>
</g>
<!-- Node1&#45;&gt;Node15 -->
<g id="edge15" class="edge">
<title>Node1&#45;&gt;Node15</title>
<path fill="none" stroke="#191970" d="M495.6501,-156.1012C482.4919,-122.5415 454.6445,-63.0818 412,-29 407.1495,-25.1234 401.469,-22.0203 395.6141,-19.541"/>
<polygon fill="#191970" stroke="#191970" points="492.4443,-157.5183 499.2622,-165.6279 498.9896,-155.0366 492.4443,-157.5183"/>
</g>
<!-- Node3 -->
<g id="node3" class="node">
<title>Node3</title>
<g id="a_node3"><a xlink:href="classCentralHub.html#a388e947318a28cf7cac762ac8b1cf3d4" target="_top" xlink:title=" ">
<polygon fill="#ffffff" stroke="#000000" points="177,-354.5 177,-373.5 263,-373.5 263,-354.5 177,-354.5"/>
<text text-anchor="middle" x="220" y="-361.5" font-family="Helvetica,sans-Serif" font-size="10.00" fill="#000000">CentralHub::run</text>
</a>
</g>
</g>
<!-- Node2&#45;&gt;Node3 -->
<g id="edge2" class="edge">
<title>Node2&#45;&gt;Node3</title>
<path fill="none" stroke="#191970" d="M298.5807,-364C286.6968,-364 274.3565,-364 263.0738,-364"/>
<polygon fill="#191970" stroke="#191970" points="298.8686,-367.5001 308.8686,-364 298.8686,-360.5001 298.8686,-367.5001"/>
</g>
<!-- Node4 -->
<g id="node4" class="node">
<title>Node4</title>
<g id="a_node4"><a xlink:href="g4t1_8cpp.html#af19ddca125f05a2090dd132045573ee4" target="_top" xlink:title=" ">
<polygon fill="#ffffff" stroke="#000000" points="88.5,-354.5 88.5,-373.5 126.5,-373.5 126.5,-354.5 88.5,-354.5"/>
<text text-anchor="middle" x="107.5" y="-361.5" font-family="Helvetica,sans-Serif" font-size="10.00" fill="#000000">main</text>
</a>
</g>
</g>
<!-- Node3&#45;&gt;Node4 -->
<g id="edge3" class="edge">
<title>Node3&#45;&gt;Node4</title>
<path fill="none" stroke="#191970" d="M166.5122,-364C152.2169,-364 137.6831,-364 126.6159,-364"/>
<polygon fill="#191970" stroke="#191970" points="166.8263,-367.5001 176.8263,-364 166.8263,-360.5001 166.8263,-367.5001"/>
</g>
<!-- Node6 -->
<g id="node6" class="node">
<title>Node6</title>
<g id="a_node6"><a xlink:href="classSensor.html#a1a664cdb090cb4295bbdedcffb1c8499" target="_top" xlink:title=" ">
<polygon fill="#ffffff" stroke="#000000" points="74,-272.5 74,-291.5 141,-291.5 141,-272.5 74,-272.5"/>
<text text-anchor="middle" x="107.5" y="-279.5" font-family="Helvetica,sans-Serif" font-size="10.00" fill="#000000">Sensor::run</text>
</a>
</g>
</g>
<!-- Node5&#45;&gt;Node6 -->
<g id="edge5" class="edge">
<title>Node5&#45;&gt;Node6</title>
<path fill="none" stroke="#191970" d="M172.8471,-282C162.2166,-282 151.1407,-282 141.193,-282"/>
<polygon fill="#191970" stroke="#191970" points="172.8515,-285.5001 182.8515,-282 172.8515,-278.5001 172.8515,-285.5001"/>
</g>
<!-- Node7 -->
<g id="node7" class="node">
<title>Node7</title>
<g id="a_node7"><a xlink:href="g3t1__1_8cpp.html#a3c04138a5bfe5d72780bb7e82a18e627" target="_top" xlink:title=" ">
<polygon fill="#ffffff" stroke="#000000" points="0,-272.5 0,-291.5 38,-291.5 38,-272.5 0,-272.5"/>
<text text-anchor="middle" x="19" y="-279.5" font-family="Helvetica,sans-Serif" font-size="10.00" fill="#000000">main</text>
</a>
</g>
</g>
<!-- Node6&#45;&gt;Node7 -->
<g id="edge6" class="edge">
<title>Node6&#45;&gt;Node7</title>
<path fill="none" stroke="#191970" d="M63.6813,-282C54.6482,-282 45.5912,-282 38.016,-282"/>
<polygon fill="#191970" stroke="#191970" points="63.7895,-285.5001 73.7895,-282 63.7894,-278.5001 63.7895,-285.5001"/>
</g>
<!-- Node9&#45;&gt;Node5 -->
<g id="edge9" class="edge">
<title>Node9&#45;&gt;Node5</title>
<path fill="none" stroke="#191970" d="M316.339,-250.7165C294.9692,-257.6558 268.9522,-266.1041 249.3441,-272.4713"/>
<polygon fill="#191970" stroke="#191970" points="317.6684,-253.9648 326.0985,-247.5473 315.5064,-247.307 317.6684,-253.9648"/>
</g>
</g>
</svg>
