<?xml version="1.0" encoding="UTF-8" standalone="no"?>
<!DOCTYPE svg PUBLIC "-//W3C//DTD SVG 1.1//EN"
 "http://www.w3.org/Graphics/SVG/1.1/DTD/svg11.dtd">
<!-- Generated by graphviz version 2.40.1 (20161225.0304)
 -->
<!-- Title: bsn::goalmodel::GoalTree::getActor Pages: 1 -->
<svg width="300pt" height="78pt"
 viewBox="0.00 0.00 300.00 77.50" xmlns="http://www.w3.org/2000/svg" xmlns:xlink="http://www.w3.org/1999/xlink">
<g id="graph0" class="graph" transform="scale(1 1) rotate(0) translate(4 73.5)">
<title>bsn::goalmodel::GoalTree::getActor</title>
<polygon fill="#ffffff" stroke="transparent" points="-4,4 -4,-73.5 296,-73.5 296,4 -4,4"/>
<!-- Node1 -->
<g id="node1" class="node">
<title>Node1</title>
<g id="a_node1"><a xlink:title=" ">
<polygon fill="#bfbfbf" stroke="#000000" points="164,-17 164,-47 292,-47 292,-17 164,-17"/>
<text text-anchor="start" x="172" y="-35" font-family="Helvetica,sans-Serif" font-size="10.00" fill="#000000">bsn::goalmodel::GoalTree</text>
<text text-anchor="middle" x="228" y="-24" font-family="Helvetica,sans-Serif" font-size="10.00" fill="#000000">::getActor</text>
</a>
</g>
</g>
<!-- Node2 -->
<g id="node2" class="node">
<title>Node2</title>
<g id="a_node2"><a xlink:href="classbsn_1_1goalmodel_1_1GoalTree.html#a7a9dbc9ae2a9601ae3f309b62df29b29" target="_top" xlink:title=" ">
<polygon fill="#ffffff" stroke="#000000" points="0,-39 0,-69 128,-69 128,-39 0,-39"/>
<text text-anchor="start" x="8" y="-57" font-family="Helvetica,sans-Serif" font-size="10.00" fill="#000000">bsn::goalmodel::GoalTree</text>
<text text-anchor="middle" x="64" y="-46" font-family="Helvetica,sans-Serif" font-size="10.00" fill="#000000">::operator=</text>
</a>
</g>
</g>
<!-- Node1&#45;&gt;Node2 -->
<g id="edge1" class="edge">
<title>Node1&#45;&gt;Node2</title>
<path fill="none" stroke="#191970" d="M153.7141,-41.9652C145.1842,-43.1094 136.5419,-44.2688 128.1609,-45.3931"/>
<polygon fill="#191970" stroke="#191970" points="154.2077,-45.4304 163.6536,-40.6318 153.277,-38.4926 154.2077,-45.4304"/>
</g>
<!-- Node3 -->
<g id="node3" class="node">
<title>Node3</title>
<g id="a_node3"><a xlink:href="GoalTreeTest_8cpp.html#a6c370bfcdbb5e1e9829cdbce8c0bac5b" target="_top" xlink:title=" ">
<polygon fill="#ffffff" stroke="#000000" points="37.5,-.5 37.5,-19.5 90.5,-19.5 90.5,-.5 37.5,-.5"/>
<text text-anchor="middle" x="64" y="-7.5" font-family="Helvetica,sans-Serif" font-size="10.00" fill="#000000">TEST_F</text>
</a>
</g>
</g>
<!-- Node1&#45;&gt;Node3 -->
<g id="edge2" class="edge">
<title>Node1&#45;&gt;Node3</title>
<path fill="none" stroke="#191970" d="M153.7013,-22.0331C131.1166,-19.0034 107.7457,-15.8683 90.5232,-13.558"/>
<polygon fill="#191970" stroke="#191970" points="153.277,-25.5074 163.6536,-23.3682 154.2077,-18.5696 153.277,-25.5074"/>
</g>
</g>
</svg>
