<?xml version="1.0" encoding="UTF-8" standalone="no"?>
<!DOCTYPE svg PUBLIC "-//W3C//DTD SVG 1.1//EN"
 "http://www.w3.org/Graphics/SVG/1.1/DTD/svg11.dtd">
<!-- Generated by graphviz version 2.40.1 (20161225.0304)
 -->
<!-- Title: Lepton::ParsedExpression::getRootNode Pages: 1 -->
<svg width="473pt" height="225pt"
 viewBox="0.00 0.00 473.00 225.00" xmlns="http://www.w3.org/2000/svg" xmlns:xlink="http://www.w3.org/1999/xlink">
<g id="graph0" class="graph" transform="scale(1 1) rotate(0) translate(4 221)">
<title>Lepton::ParsedExpression::getRootNode</title>
<polygon fill="#ffffff" stroke="transparent" points="-4,4 -4,-221 469,-221 469,4 -4,4"/>
<!-- Node1 -->
<g id="node1" class="node">
<title>Node1</title>
<g id="a_node1"><a xlink:title=" ">
<polygon fill="#bfbfbf" stroke="#000000" points="334,-93.5 334,-123.5 465,-123.5 465,-93.5 334,-93.5"/>
<text text-anchor="start" x="342" y="-111.5" font-family="Helvetica,sans-Serif" font-size="10.00" fill="#000000">Lepton::ParsedExpression</text>
<text text-anchor="middle" x="399.5" y="-100.5" font-family="Helvetica,sans-Serif" font-size="10.00" fill="#000000">::getRootNode</text>
</a>
</g>
</g>
<!-- Node2 -->
<g id="node2" class="node">
<title>Node2</title>
<g id="a_node2"><a xlink:href="classLepton_1_1ParsedExpression.html#a0ed0e7e8c6ad3d593e90f911160a724a" target="_top" xlink:title=" ">
<polygon fill="#ffffff" stroke="#000000" points="167,-186.5 167,-216.5 298,-216.5 298,-186.5 167,-186.5"/>
<text text-anchor="start" x="175" y="-204.5" font-family="Helvetica,sans-Serif" font-size="10.00" fill="#000000">Lepton::ParsedExpression</text>
<text text-anchor="middle" x="232.5" y="-193.5" font-family="Helvetica,sans-Serif" font-size="10.00" fill="#000000">::differentiate</text>
</a>
</g>
</g>
<!-- Node1&#45;&gt;Node2 -->
<g id="edge1" class="edge">
<title>Node1&#45;&gt;Node2</title>
<path fill="none" stroke="#191970" d="M371.9479,-129.9711C352.1591,-144.6939 324.4217,-163.9411 298,-177.5 291.7506,-180.7071 284.9707,-183.6928 278.2217,-186.393"/>
<polygon fill="#191970" stroke="#191970" points="374.3021,-132.5796 380.1809,-123.7654 370.0886,-126.9897 374.3021,-132.5796"/>
</g>
<!-- Node3 -->
<g id="node3" class="node">
<title>Node3</title>
<g id="a_node3"><a xlink:href="classLepton_1_1ParsedExpression.html#acd9d7fbbbe5fbde7d1206c9089861420" target="_top" xlink:title=" ">
<polygon fill="#ffffff" stroke="#000000" points="167,-137.5 167,-167.5 298,-167.5 298,-137.5 167,-137.5"/>
<text text-anchor="start" x="175" y="-155.5" font-family="Helvetica,sans-Serif" font-size="10.00" fill="#000000">Lepton::ParsedExpression</text>
<text text-anchor="middle" x="232.5" y="-144.5" font-family="Helvetica,sans-Serif" font-size="10.00" fill="#000000">::evaluate</text>
</a>
</g>
</g>
<!-- Node1&#45;&gt;Node3 -->
<g id="edge2" class="edge">
<title>Node1&#45;&gt;Node3</title>
<path fill="none" stroke="#191970" d="M332.7223,-126.0941C318.4168,-129.8632 303.4285,-133.8122 289.5313,-137.4738"/>
<polygon fill="#191970" stroke="#191970" points="333.7169,-129.4516 342.4952,-123.5192 331.9334,-122.6826 333.7169,-129.4516"/>
</g>
<!-- Node5 -->
<g id="node5" class="node">
<title>Node5</title>
<g id="a_node5"><a xlink:href="namespaceLepton.html#a7a609a2c523dac6931d3be280f70e111" target="_top" xlink:title=" ">
<polygon fill="#ffffff" stroke="#000000" points="183,-99 183,-118 282,-118 282,-99 183,-99"/>
<text text-anchor="middle" x="232.5" y="-106" font-family="Helvetica,sans-Serif" font-size="10.00" fill="#000000">Lepton::operator&lt;&lt;</text>
</a>
</g>
</g>
<!-- Node1&#45;&gt;Node5 -->
<g id="edge4" class="edge">
<title>Node1&#45;&gt;Node5</title>
<path fill="none" stroke="#191970" d="M323.7572,-108.5C309.6178,-108.5 295.1792,-108.5 282.0819,-108.5"/>
<polygon fill="#191970" stroke="#191970" points="323.9765,-112.0001 333.9765,-108.5 323.9765,-105.0001 323.9765,-112.0001"/>
</g>
<!-- Node6 -->
<g id="node6" class="node">
<title>Node6</title>
<g id="a_node6"><a xlink:href="classLepton_1_1ParsedExpression.html#a7aeb0646ea0b8d046b26e0e614dd7bf5" target="_top" xlink:title=" ">
<polygon fill="#ffffff" stroke="#000000" points="167,-49.5 167,-79.5 298,-79.5 298,-49.5 167,-49.5"/>
<text text-anchor="start" x="175" y="-67.5" font-family="Helvetica,sans-Serif" font-size="10.00" fill="#000000">Lepton::ParsedExpression</text>
<text text-anchor="middle" x="232.5" y="-56.5" font-family="Helvetica,sans-Serif" font-size="10.00" fill="#000000">::optimize</text>
</a>
</g>
</g>
<!-- Node1&#45;&gt;Node6 -->
<g id="edge5" class="edge">
<title>Node1&#45;&gt;Node6</title>
<path fill="none" stroke="#191970" d="M332.7223,-90.9059C318.4168,-87.1368 303.4285,-83.1878 289.5313,-79.5262"/>
<polygon fill="#191970" stroke="#191970" points="331.9334,-94.3174 342.4952,-93.4808 333.7169,-87.5484 331.9334,-94.3174"/>
</g>
<!-- Node7 -->
<g id="node7" class="node">
<title>Node7</title>
<g id="a_node7"><a xlink:href="classLepton_1_1ParsedExpression.html#a7c76c71544e4458de39a5e537fb6b1cb" target="_top" xlink:title=" ">
<polygon fill="#ffffff" stroke="#000000" points="167,-.5 167,-30.5 298,-30.5 298,-.5 167,-.5"/>
<text text-anchor="start" x="175" y="-18.5" font-family="Helvetica,sans-Serif" font-size="10.00" fill="#000000">Lepton::ParsedExpression</text>
<text text-anchor="middle" x="232.5" y="-7.5" font-family="Helvetica,sans-Serif" font-size="10.00" fill="#000000">::renameVariables</text>
</a>
</g>
</g>
<!-- Node1&#45;&gt;Node7 -->
<g id="edge6" class="edge">
<title>Node1&#45;&gt;Node7</title>
<path fill="none" stroke="#191970" d="M371.4722,-87.2067C351.6616,-72.7961 324.0923,-53.9993 298,-40.5 291.0812,-36.9205 283.5281,-33.5682 276.0902,-30.5533"/>
<polygon fill="#191970" stroke="#191970" points="369.5994,-90.1742 379.7273,-93.2847 373.7497,-84.5372 369.5994,-90.1742"/>
</g>
<!-- Node4 -->
<g id="node4" class="node">
<title>Node4</title>
<g id="a_node4"><a xlink:href="classLepton_1_1ParsedExpression.html#aa9ed39ef2faf17eb906494095dd2d930" target="_top" xlink:title=" ">
<polygon fill="#ffffff" stroke="#000000" points="0,-137.5 0,-167.5 131,-167.5 131,-137.5 0,-137.5"/>
<text text-anchor="start" x="8" y="-155.5" font-family="Helvetica,sans-Serif" font-size="10.00" fill="#000000">Lepton::ParsedExpression</text>
<text text-anchor="middle" x="65.5" y="-144.5" font-family="Helvetica,sans-Serif" font-size="10.00" fill="#000000">::evaluate</text>
</a>
</g>
</g>
<!-- Node3&#45;&gt;Node4 -->
<g id="edge3" class="edge">
<title>Node3&#45;&gt;Node4</title>
<path fill="none" stroke="#191970" d="M156.9337,-152.5C148.3152,-152.5 139.5829,-152.5 131.1087,-152.5"/>
<polygon fill="#191970" stroke="#191970" points="156.9765,-156.0001 166.9765,-152.5 156.9765,-149.0001 156.9765,-156.0001"/>
</g>
</g>
</svg>
