<?xml version="1.0" encoding="UTF-8" standalone="no"?>
<!DOCTYPE svg PUBLIC "-//W3C//DTD SVG 1.1//EN"
 "http://www.w3.org/Graphics/SVG/1.1/DTD/svg11.dtd">
<!-- Generated by graphviz version 2.40.1 (20161225.0304)
 -->
<!-- Title: arch::ROSComponent::ROSComponent Pages: 1 -->
<svg width="315pt" height="88pt"
 viewBox="0.00 0.00 315.00 88.00" xmlns="http://www.w3.org/2000/svg" xmlns:xlink="http://www.w3.org/1999/xlink">
<g id="graph0" class="graph" transform="scale(1 1) rotate(0) translate(4 84)">
<title>arch::ROSComponent::ROSComponent</title>
<polygon fill="#ffffff" stroke="transparent" points="-4,4 -4,-84 311,-84 311,4 -4,4"/>
<!-- Node1 -->
<g id="node1" class="node">
<title>Node1</title>
<g id="a_node1"><a xlink:title=" ">
<polygon fill="#bfbfbf" stroke="#000000" points="0,-24.5 0,-54.5 113,-54.5 113,-24.5 0,-24.5"/>
<text text-anchor="start" x="8" y="-42.5" font-family="Helvetica,sans-Serif" font-size="10.00" fill="#000000">arch::ROSComponent</text>
<text text-anchor="middle" x="56.5" y="-31.5" font-family="Helvetica,sans-Serif" font-size="10.00" fill="#000000">::ROSComponent</text>
</a>
</g>
</g>
<!-- Node2 -->
<g id="node2" class="node">
<title>Node2</title>
<g id="a_node2"><a xlink:href="classarch_1_1ROSComponent.html#aa5fa36ba1bff54a60c9a0e5498e504f7" target="_top" xlink:title=" ">
<polygon fill="#ffffff" stroke="#000000" points="171.5,-49.5 171.5,-79.5 284.5,-79.5 284.5,-49.5 171.5,-49.5"/>
<text text-anchor="start" x="179.5" y="-67.5" font-family="Helvetica,sans-Serif" font-size="10.00" fill="#000000">arch::ROSComponent</text>
<text text-anchor="middle" x="228" y="-56.5" font-family="Helvetica,sans-Serif" font-size="10.00" fill="#000000">::getRosNodeName</text>
</a>
</g>
</g>
<!-- Node1&#45;&gt;Node2 -->
<g id="edge1" class="edge">
<title>Node1&#45;&gt;Node2</title>
<path fill="none" stroke="#191970" d="M113.1308,-47.7552C128.4976,-49.9953 145.28,-52.4417 161.1531,-54.7556"/>
<polygon fill="#191970" stroke="#191970" points="161.0283,-58.2743 171.4286,-56.2534 162.0381,-51.3475 161.0283,-58.2743"/>
</g>
<!-- Node3 -->
<g id="node3" class="node">
<title>Node3</title>
<g id="a_node3"><a xlink:href="classarch_1_1ROSComponentDescriptor.html#a27e0d45f1bb2184d9d47d88f73871e9f" target="_top" xlink:title=" ">
<polygon fill="#ffffff" stroke="#000000" points="149,-.5 149,-30.5 307,-30.5 307,-.5 149,-.5"/>
<text text-anchor="start" x="157" y="-18.5" font-family="Helvetica,sans-Serif" font-size="10.00" fill="#000000">arch::ROSComponentDescriptor</text>
<text text-anchor="middle" x="228" y="-7.5" font-family="Helvetica,sans-Serif" font-size="10.00" fill="#000000">::setName</text>
</a>
</g>
</g>
<!-- Node1&#45;&gt;Node3 -->
<g id="edge2" class="edge">
<title>Node1&#45;&gt;Node3</title>
<path fill="none" stroke="#191970" d="M113.1308,-31.575C121.3356,-30.4268 129.9439,-29.2221 138.6019,-28.0105"/>
<polygon fill="#191970" stroke="#191970" points="139.3489,-31.4402 148.7673,-26.588 138.3787,-24.5077 139.3489,-31.4402"/>
</g>
</g>
</svg>
