<?xml version="1.0" encoding="UTF-8" standalone="no"?>
<!DOCTYPE svg PUBLIC "-//W3C//DTD SVG 1.1//EN"
 "http://www.w3.org/Graphics/SVG/1.1/DTD/svg11.dtd">
<!-- Generated by graphviz version 2.40.1 (20161225.0304)
 -->
<!-- Title: ConfigurationTest Pages: 1 -->
<svg width="116pt" height="248pt"
 viewBox="0.00 0.00 116.00 248.00" xmlns="http://www.w3.org/2000/svg" xmlns:xlink="http://www.w3.org/1999/xlink">
<g id="graph0" class="graph" transform="scale(1 1) rotate(0) translate(4 244)">
<title>ConfigurationTest</title>
<polygon fill="#ffffff" stroke="transparent" points="-4,4 -4,-244 112,-244 112,4 -4,4"/>
<!-- Node1 -->
<g id="node1" class="node">
<title>Node1</title>
<g id="a_node1"><a xlink:title=" ">
<polygon fill="#bfbfbf" stroke="#000000" points="0,-.5 0,-145.5 108,-145.5 108,-.5 0,-.5"/>
<text text-anchor="middle" x="54" y="-133.5" font-family="Helvetica,sans-Serif" font-size="10.00" fill="#000000">ConfigurationTest</text>
<polyline fill="none" stroke="#000000" points="0,-126.5 108,-126.5 "/>
<text text-anchor="start" x="8" y="-114.5" font-family="Helvetica,sans-Serif" font-size="10.00" fill="#000000"># l</text>
<text text-anchor="start" x="8" y="-103.5" font-family="Helvetica,sans-Serif" font-size="10.00" fill="#000000"># m1</text>
<text text-anchor="start" x="8" y="-92.5" font-family="Helvetica,sans-Serif" font-size="10.00" fill="#000000"># m2</text>
<text text-anchor="start" x="8" y="-81.5" font-family="Helvetica,sans-Serif" font-size="10.00" fill="#000000"># h1</text>
<text text-anchor="start" x="8" y="-70.5" font-family="Helvetica,sans-Serif" font-size="10.00" fill="#000000"># h2</text>
<text text-anchor="start" x="8" y="-59.5" font-family="Helvetica,sans-Serif" font-size="10.00" fill="#000000"># a1</text>
<text text-anchor="start" x="8" y="-48.5" font-family="Helvetica,sans-Serif" font-size="10.00" fill="#000000"># a2</text>
<text text-anchor="start" x="8" y="-37.5" font-family="Helvetica,sans-Serif" font-size="10.00" fill="#000000"># s</text>
<polyline fill="none" stroke="#000000" points="0,-30.5 108,-30.5 "/>
<text text-anchor="start" x="8" y="-18.5" font-family="Helvetica,sans-Serif" font-size="10.00" fill="#000000"># ConfigurationTest()</text>
<text text-anchor="start" x="8" y="-7.5" font-family="Helvetica,sans-Serif" font-size="10.00" fill="#000000"># SetUp()</text>
</a>
</g>
</g>
<!-- Node2 -->
<g id="node2" class="node">
<title>Node2</title>
<g id="a_node2"><a xlink:title=" ">
<polygon fill="#ffffff" stroke="#bfbfbf" points="18.5,-182.5 18.5,-239.5 89.5,-239.5 89.5,-182.5 18.5,-182.5"/>
<text text-anchor="middle" x="54" y="-227.5" font-family="Helvetica,sans-Serif" font-size="10.00" fill="#000000">testing::Test</text>
<polyline fill="none" stroke="#bfbfbf" points="18.5,-220.5 89.5,-220.5 "/>
<text text-anchor="middle" x="54" y="-208.5" font-family="Helvetica,sans-Serif" font-size="10.00" fill="#000000"> </text>
<polyline fill="none" stroke="#bfbfbf" points="18.5,-201.5 89.5,-201.5 "/>
<text text-anchor="middle" x="54" y="-189.5" font-family="Helvetica,sans-Serif" font-size="10.00" fill="#000000"> </text>
</a>
</g>
</g>
<!-- Node2&#45;&gt;Node1 -->
<g id="edge1" class="edge">
<title>Node2&#45;&gt;Node1</title>
<path fill="none" stroke="#191970" d="M54,-172.2817C54,-163.9388 54,-154.8592 54,-145.6924"/>
<polygon fill="none" stroke="#191970" points="50.5001,-172.4063 54,-182.4063 57.5001,-172.4063 50.5001,-172.4063"/>
</g>
</g>
</svg>
