<?xml version="1.0" encoding="UTF-8" standalone="no"?>
<!DOCTYPE svg PUBLIC "-//W3C//DTD SVG 1.1//EN"
 "http://www.w3.org/Graphics/SVG/1.1/DTD/svg11.dtd">
<!-- Generated by graphviz version 2.40.1 (20161225.0304)
 -->
<!-- Title: FiltersTest Pages: 1 -->
<svg width="198pt" height="303pt"
 viewBox="0.00 0.00 198.00 303.00" xmlns="http://www.w3.org/2000/svg" xmlns:xlink="http://www.w3.org/1999/xlink">
<g id="graph0" class="graph" transform="scale(1 1) rotate(0) translate(4 299)">
<title>FiltersTest</title>
<polygon fill="#ffffff" stroke="transparent" points="-4,4 -4,-299 194,-299 194,4 -4,4"/>
<!-- Node1 -->
<g id="node1" class="node">
<title>Node1</title>
<g id="a_node1"><a xlink:title=" ">
<polygon fill="#bfbfbf" stroke="#000000" points="31.5,-.5 31.5,-68.5 108.5,-68.5 108.5,-.5 31.5,-.5"/>
<text text-anchor="middle" x="70" y="-56.5" font-family="Helvetica,sans-Serif" font-size="10.00" fill="#000000">FiltersTest</text>
<polyline fill="none" stroke="#000000" points="31.5,-49.5 108.5,-49.5 "/>
<text text-anchor="middle" x="70" y="-37.5" font-family="Helvetica,sans-Serif" font-size="10.00" fill="#000000"> </text>
<polyline fill="none" stroke="#000000" points="31.5,-30.5 108.5,-30.5 "/>
<text text-anchor="start" x="39.5" y="-18.5" font-family="Helvetica,sans-Serif" font-size="10.00" fill="#000000"># FiltersTest()</text>
<text text-anchor="start" x="39.5" y="-7.5" font-family="Helvetica,sans-Serif" font-size="10.00" fill="#000000"># SetUp()</text>
</a>
</g>
</g>
<!-- Node2 -->
<g id="node2" class="node">
<title>Node2</title>
<g id="a_node2"><a xlink:title=" ">
<polygon fill="#ffffff" stroke="#bfbfbf" points="0,-188 0,-245 36,-245 36,-188 0,-188"/>
<text text-anchor="middle" x="18" y="-233" font-family="Helvetica,sans-Serif" font-size="10.00" fill="#000000">Test</text>
<polyline fill="none" stroke="#bfbfbf" points="0,-226 36,-226 "/>
<text text-anchor="middle" x="18" y="-214" font-family="Helvetica,sans-Serif" font-size="10.00" fill="#000000"> </text>
<polyline fill="none" stroke="#bfbfbf" points="0,-207 36,-207 "/>
<text text-anchor="middle" x="18" y="-195" font-family="Helvetica,sans-Serif" font-size="10.00" fill="#000000"> </text>
</a>
</g>
</g>
<!-- Node2&#45;&gt;Node1 -->
<g id="edge1" class="edge">
<title>Node2&#45;&gt;Node1</title>
<path fill="none" stroke="#191970" d="M29.0944,-177.6696C38.3283,-145.3509 51.35,-99.775 60.2034,-68.7879"/>
<polygon fill="none" stroke="#191970" points="25.6215,-177.0848 26.2396,-187.6616 32.3522,-179.0079 25.6215,-177.0848"/>
</g>
<!-- Node3 -->
<g id="node3" class="node">
<title>Node3</title>
<g id="a_node3"><a xlink:href="classbsn_1_1filters_1_1MovingAverage.html" target="_top" xlink:title=" ">
<polygon fill="#ffffff" stroke="#000000" points="54,-138.5 54,-294.5 190,-294.5 190,-138.5 54,-138.5"/>
<text text-anchor="middle" x="122" y="-282.5" font-family="Helvetica,sans-Serif" font-size="10.00" fill="#000000">bsn::filters::MovingAverage</text>
<polyline fill="none" stroke="#000000" points="54,-275.5 190,-275.5 "/>
<text text-anchor="middle" x="122" y="-263.5" font-family="Helvetica,sans-Serif" font-size="10.00" fill="#000000"> </text>
<polyline fill="none" stroke="#000000" points="54,-256.5 190,-256.5 "/>
<text text-anchor="start" x="62" y="-244.5" font-family="Helvetica,sans-Serif" font-size="10.00" fill="#000000">+ MovingAverage()</text>
<text text-anchor="start" x="62" y="-233.5" font-family="Helvetica,sans-Serif" font-size="10.00" fill="#000000">+ MovingAverage()</text>
<text text-anchor="start" x="62" y="-222.5" font-family="Helvetica,sans-Serif" font-size="10.00" fill="#000000">+ MovingAverage()</text>
<text text-anchor="start" x="62" y="-211.5" font-family="Helvetica,sans-Serif" font-size="10.00" fill="#000000">+ operator=()</text>
<text text-anchor="start" x="62" y="-200.5" font-family="Helvetica,sans-Serif" font-size="10.00" fill="#000000">+ getValue()</text>
<text text-anchor="start" x="62" y="-189.5" font-family="Helvetica,sans-Serif" font-size="10.00" fill="#000000">+ insert()</text>
<text text-anchor="start" x="62" y="-178.5" font-family="Helvetica,sans-Serif" font-size="10.00" fill="#000000">+ toString()</text>
<text text-anchor="start" x="62" y="-167.5" font-family="Helvetica,sans-Serif" font-size="10.00" fill="#000000">+ getRange()</text>
<text text-anchor="start" x="62" y="-156.5" font-family="Helvetica,sans-Serif" font-size="10.00" fill="#000000">+ setRange()</text>
<text text-anchor="start" x="62" y="-145.5" font-family="Helvetica,sans-Serif" font-size="10.00" fill="#000000">+ getBuffer()</text>
</a>
</g>
</g>
<!-- Node3&#45;&gt;Node1 -->
<g id="edge2" class="edge">
<title>Node3&#45;&gt;Node1</title>
<path fill="none" stroke="#404040" d="M99.6455,-138.2594C94.0094,-118.5329 88.1401,-97.9904 83.1255,-80.4391"/>
<polygon fill="none" stroke="#404040" points="83.1004,-80.3513 77.606,-75.681 79.8037,-68.813 85.2982,-73.4832 83.1004,-80.3513"/>
<text text-anchor="middle" x="107" y="-112" font-family="Helvetica,sans-Serif" font-size="10.00" fill="#000000"> #avg1</text>
<text text-anchor="middle" x="107" y="-101" font-family="Helvetica,sans-Serif" font-size="10.00" fill="#000000">#avg2</text>
<text text-anchor="middle" x="107" y="-90" font-family="Helvetica,sans-Serif" font-size="10.00" fill="#000000">#avg5</text>
</g>
</g>
</svg>
