<?xml version="1.0" encoding="UTF-8" standalone="no"?>
<!DOCTYPE svg PUBLIC "-//W3C//DTD SVG 1.1//EN"
 "http://www.w3.org/Graphics/SVG/1.1/DTD/svg11.dtd">
<!-- Generated by graphviz version 2.40.1 (20161225.0304)
 -->
<!-- Title: bsn::filters::MovingAverage::insert Pages: 1 -->
<svg width="272pt" height="180pt"
 viewBox="0.00 0.00 272.00 180.00" xmlns="http://www.w3.org/2000/svg" xmlns:xlink="http://www.w3.org/1999/xlink">
<g id="graph0" class="graph" transform="scale(1 1) rotate(0) translate(4 176)">
<title>bsn::filters::MovingAverage::insert</title>
<polygon fill="#ffffff" stroke="transparent" points="-4,4 -4,-176 268,-176 268,4 -4,4"/>
<!-- Node1 -->
<g id="node1" class="node">
<title>Node1</title>
<g id="a_node1"><a xlink:title=" ">
<polygon fill="#bfbfbf" stroke="#000000" points="128,-71 128,-101 264,-101 264,-71 128,-71"/>
<text text-anchor="start" x="136" y="-89" font-family="Helvetica,sans-Serif" font-size="10.00" fill="#000000">bsn::filters::MovingAverage</text>
<text text-anchor="middle" x="196" y="-78" font-family="Helvetica,sans-Serif" font-size="10.00" fill="#000000">::insert</text>
</a>
</g>
</g>
<!-- Node2 -->
<g id="node2" class="node">
<title>Node2</title>
<g id="a_node2"><a xlink:href="classG3T1__1.html#aff514b4de85780777a8326e353148fe1" target="_top" xlink:title=" ">
<polygon fill="#ffffff" stroke="#000000" points="0,-152.5 0,-171.5 92,-171.5 92,-152.5 0,-152.5"/>
<text text-anchor="middle" x="46" y="-159.5" font-family="Helvetica,sans-Serif" font-size="10.00" fill="#000000">G3T1_1::process</text>
</a>
</g>
</g>
<!-- Node1&#45;&gt;Node2 -->
<g id="edge1" class="edge">
<title>Node1&#45;&gt;Node2</title>
<path fill="none" stroke="#191970" d="M161.5816,-106.1043C141.558,-117.4855 115.6734,-131.6655 92,-143 85.1419,-146.2836 77.5632,-149.5548 70.5697,-152.4342"/>
<polygon fill="#191970" stroke="#191970" points="163.3991,-109.0968 170.3402,-101.0923 159.9224,-103.0212 163.3991,-109.0968"/>
</g>
<!-- Node3 -->
<g id="node3" class="node">
<title>Node3</title>
<g id="a_node3"><a xlink:href="classG3T1__2.html#a971571b3baee620f4fc36b31579db6ca" target="_top" xlink:title=" ">
<polygon fill="#ffffff" stroke="#000000" points="0,-114.5 0,-133.5 92,-133.5 92,-114.5 0,-114.5"/>
<text text-anchor="middle" x="46" y="-121.5" font-family="Helvetica,sans-Serif" font-size="10.00" fill="#000000">G3T1_2::process</text>
</a>
</g>
</g>
<!-- Node1&#45;&gt;Node3 -->
<g id="edge2" class="edge">
<title>Node1&#45;&gt;Node3</title>
<path fill="none" stroke="#191970" d="M126.9971,-103.4807C112.1,-107.2547 96.8854,-111.109 83.7242,-114.4432"/>
<polygon fill="#191970" stroke="#191970" points="127.8818,-106.8673 136.716,-101.0186 126.1627,-100.0816 127.8818,-106.8673"/>
</g>
<!-- Node4 -->
<g id="node4" class="node">
<title>Node4</title>
<g id="a_node4"><a xlink:href="classG3T1__3.html#a82334e4d79cb9a4b4a757a96c60fe4ce" target="_top" xlink:title=" ">
<polygon fill="#ffffff" stroke="#000000" points="0,-76.5 0,-95.5 92,-95.5 92,-76.5 0,-76.5"/>
<text text-anchor="middle" x="46" y="-83.5" font-family="Helvetica,sans-Serif" font-size="10.00" fill="#000000">G3T1_3::process</text>
</a>
</g>
</g>
<!-- Node1&#45;&gt;Node4 -->
<g id="edge3" class="edge">
<title>Node1&#45;&gt;Node4</title>
<path fill="none" stroke="#191970" d="M117.5184,-86C108.9446,-86 100.4316,-86 92.4289,-86"/>
<polygon fill="#191970" stroke="#191970" points="117.5843,-89.5001 127.5843,-86 117.5842,-82.5001 117.5843,-89.5001"/>
</g>
<!-- Node5 -->
<g id="node5" class="node">
<title>Node5</title>
<g id="a_node5"><a xlink:href="classG3T1__4.html#ab743af6fc3e6ad0f64ef2520b811bb63" target="_top" xlink:title=" ">
<polygon fill="#ffffff" stroke="#000000" points="0,-38.5 0,-57.5 92,-57.5 92,-38.5 0,-38.5"/>
<text text-anchor="middle" x="46" y="-45.5" font-family="Helvetica,sans-Serif" font-size="10.00" fill="#000000">G3T1_4::process</text>
</a>
</g>
</g>
<!-- Node1&#45;&gt;Node5 -->
<g id="edge4" class="edge">
<title>Node1&#45;&gt;Node5</title>
<path fill="none" stroke="#191970" d="M126.9971,-68.5193C112.1,-64.7453 96.8854,-60.891 83.7242,-57.5568"/>
<polygon fill="#191970" stroke="#191970" points="126.1627,-71.9184 136.716,-70.9814 127.8818,-65.1327 126.1627,-71.9184"/>
</g>
<!-- Node6 -->
<g id="node6" class="node">
<title>Node6</title>
<g id="a_node6"><a xlink:href="classG3T1__5.html#acef5ff056ed22c930ae583f87cf1f03a" target="_top" xlink:title=" ">
<polygon fill="#ffffff" stroke="#000000" points="0,-.5 0,-19.5 92,-19.5 92,-.5 0,-.5"/>
<text text-anchor="middle" x="46" y="-7.5" font-family="Helvetica,sans-Serif" font-size="10.00" fill="#000000">G3T1_5::process</text>
</a>
</g>
</g>
<!-- Node1&#45;&gt;Node6 -->
<g id="edge5" class="edge">
<title>Node1&#45;&gt;Node6</title>
<path fill="none" stroke="#191970" d="M161.5816,-65.8957C141.558,-54.5145 115.6734,-40.3345 92,-29 85.1419,-25.7164 77.5632,-22.4452 70.5697,-19.5658"/>
<polygon fill="#191970" stroke="#191970" points="159.9224,-68.9788 170.3402,-70.9077 163.3991,-62.9032 159.9224,-68.9788"/>
</g>
</g>
</svg>
