<?xml version="1.0" encoding="UTF-8" standalone="no"?>
<!DOCTYPE svg PUBLIC "-//W3C//DTD SVG 1.1//EN"
 "http://www.w3.org/Graphics/SVG/1.1/DTD/svg11.dtd">
<!-- Generated by graphviz version 2.40.1 (20161225.0304)
 -->
<!-- Title: bsn::resource::Battery::consume Pages: 1 -->
<svg width="249pt" height="636pt"
 viewBox="0.00 0.00 249.00 636.00" xmlns="http://www.w3.org/2000/svg" xmlns:xlink="http://www.w3.org/1999/xlink">
<g id="graph0" class="graph" transform="scale(1 1) rotate(0) translate(4 632)">
<title>bsn::resource::Battery::consume</title>
<polygon fill="#ffffff" stroke="transparent" points="-4,4 -4,-632 245,-632 245,4 -4,4"/>
<!-- Node1 -->
<g id="node1" class="node">
<title>Node1</title>
<g id="a_node1"><a xlink:title=" ">
<polygon fill="#bfbfbf" stroke="#000000" points="128,-299 128,-329 241,-329 241,-299 128,-299"/>
<text text-anchor="start" x="136" y="-317" font-family="Helvetica,sans-Serif" font-size="10.00" fill="#000000">bsn::resource::Battery</text>
<text text-anchor="middle" x="184.5" y="-306" font-family="Helvetica,sans-Serif" font-size="10.00" fill="#000000">::consume</text>
</a>
</g>
</g>
<!-- Node2 -->
<g id="node2" class="node">
<title>Node2</title>
<g id="a_node2"><a xlink:href="classG3T1__1.html#a4696c0b3b423e6d0efe2a6f3f6e84cfa" target="_top" xlink:title=" ">
<polygon fill="#ffffff" stroke="#000000" points="3,-608.5 3,-627.5 89,-627.5 89,-608.5 3,-608.5"/>
<text text-anchor="middle" x="46" y="-615.5" font-family="Helvetica,sans-Serif" font-size="10.00" fill="#000000">G3T1_1::collect</text>
</a>
</g>
</g>
<!-- Node1&#45;&gt;Node2 -->
<g id="edge1" class="edge">
<title>Node1&#45;&gt;Node2</title>
<path fill="none" stroke="#191970" d="M183.1987,-339.3378C179.0842,-393.8117 162.0604,-523.2604 92,-599 88.4796,-602.8058 84.0825,-605.8713 79.4131,-608.3345"/>
<polygon fill="#191970" stroke="#191970" points="186.7023,-339.4003 183.8784,-329.1888 179.7179,-338.9325 186.7023,-339.4003"/>
</g>
<!-- Node3 -->
<g id="node3" class="node">
<title>Node3</title>
<g id="a_node3"><a xlink:href="classG3T1__2.html#af0d9cc4619906329eeb799c5a35e142a" target="_top" xlink:title=" ">
<polygon fill="#ffffff" stroke="#000000" points="3,-570.5 3,-589.5 89,-589.5 89,-570.5 3,-570.5"/>
<text text-anchor="middle" x="46" y="-577.5" font-family="Helvetica,sans-Serif" font-size="10.00" fill="#000000">G3T1_2::collect</text>
</a>
</g>
</g>
<!-- Node1&#45;&gt;Node3 -->
<g id="edge2" class="edge">
<title>Node1&#45;&gt;Node3</title>
<path fill="none" stroke="#191970" d="M181.7019,-339.3312C174.9996,-388.4035 153.7067,-497.1988 92,-561 88.2757,-564.8507 83.6572,-567.9507 78.7961,-570.4377"/>
<polygon fill="#191970" stroke="#191970" points="185.1921,-339.6293 182.9834,-329.2673 178.2482,-338.7451 185.1921,-339.6293"/>
</g>
<!-- Node4 -->
<g id="node4" class="node">
<title>Node4</title>
<g id="a_node4"><a xlink:href="classG3T1__3.html#a3519014bd56d810164d86d9756169c44" target="_top" xlink:title=" ">
<polygon fill="#ffffff" stroke="#000000" points="3,-532.5 3,-551.5 89,-551.5 89,-532.5 3,-532.5"/>
<text text-anchor="middle" x="46" y="-539.5" font-family="Helvetica,sans-Serif" font-size="10.00" fill="#000000">G3T1_3::collect</text>
</a>
</g>
</g>
<!-- Node1&#45;&gt;Node4 -->
<g id="edge3" class="edge">
<title>Node1&#45;&gt;Node4</title>
<path fill="none" stroke="#191970" d="M179.77,-339.0199C170.3944,-382.1223 145.5517,-470.7691 92,-523 88.0412,-526.8611 83.1868,-529.9792 78.1321,-532.4844"/>
<polygon fill="#191970" stroke="#191970" points="183.2251,-339.5952 181.8284,-329.0929 176.3709,-338.1739 183.2251,-339.5952"/>
</g>
<!-- Node5 -->
<g id="node5" class="node">
<title>Node5</title>
<g id="a_node5"><a xlink:href="classG3T1__4.html#aac00c133f2199079b671b3094496fb33" target="_top" xlink:title=" ">
<polygon fill="#ffffff" stroke="#000000" points="3,-494.5 3,-513.5 89,-513.5 89,-494.5 3,-494.5"/>
<text text-anchor="middle" x="46" y="-501.5" font-family="Helvetica,sans-Serif" font-size="10.00" fill="#000000">G3T1_4::collect</text>
</a>
</g>
</g>
<!-- Node1&#45;&gt;Node5 -->
<g id="edge4" class="edge">
<title>Node1&#45;&gt;Node5</title>
<path fill="none" stroke="#191970" d="M176.861,-339.3833C164.5955,-376.1556 137.191,-444.2868 92,-485 87.7631,-488.8171 82.6534,-491.9289 77.4024,-494.4453"/>
<polygon fill="#191970" stroke="#191970" points="180.3205,-340.0584 180.0532,-329.4669 173.6572,-337.9133 180.3205,-340.0584"/>
</g>
<!-- Node6 -->
<g id="node6" class="node">
<title>Node6</title>
<g id="a_node6"><a xlink:href="classG3T1__5.html#a1aa8fb64b30b7263df5c2189fb5995dc" target="_top" xlink:title=" ">
<polygon fill="#ffffff" stroke="#000000" points="3,-456.5 3,-475.5 89,-475.5 89,-456.5 3,-456.5"/>
<text text-anchor="middle" x="46" y="-463.5" font-family="Helvetica,sans-Serif" font-size="10.00" fill="#000000">G3T1_5::collect</text>
</a>
</g>
</g>
<!-- Node1&#45;&gt;Node6 -->
<g id="edge5" class="edge">
<title>Node1&#45;&gt;Node6</title>
<path fill="none" stroke="#191970" d="M172.9956,-338.4341C158.0585,-367.8108 129.4107,-416.9079 92,-447 87.2871,-450.7909 81.7122,-453.9293 76.0991,-456.4885"/>
<polygon fill="#191970" stroke="#191970" points="176.2259,-339.798 177.5285,-329.2835 169.9533,-336.6907 176.2259,-339.798"/>
</g>
<!-- Node7 -->
<g id="node7" class="node">
<title>Node7</title>
<g id="a_node7"><a xlink:href="classG4T1.html#a1114e1a7142774484a14d34b69c8535d" target="_top" xlink:title=" ">
<polygon fill="#ffffff" stroke="#000000" points="8.5,-418.5 8.5,-437.5 83.5,-437.5 83.5,-418.5 8.5,-418.5"/>
<text text-anchor="middle" x="46" y="-425.5" font-family="Helvetica,sans-Serif" font-size="10.00" fill="#000000">G4T1::collect</text>
</a>
</g>
</g>
<!-- Node1&#45;&gt;Node7 -->
<g id="edge6" class="edge">
<title>Node1&#45;&gt;Node7</title>
<path fill="none" stroke="#191970" d="M166.8807,-336.8414C149.6715,-357.8905 121.7844,-388.8319 92,-409 86.5625,-412.6819 80.2993,-415.8523 74.1799,-418.4903"/>
<polygon fill="#191970" stroke="#191970" points="169.6199,-339.0201 173.149,-329.0303 164.1605,-334.639 169.6199,-339.0201"/>
</g>
<!-- Node8 -->
<g id="node8" class="node">
<title>Node8</title>
<g id="a_node8"><a xlink:href="classG4T1.html#a7d7a425b2d7fbbc0aa531cbb6ee5ddd9" target="_top" xlink:title=" ">
<polygon fill="#ffffff" stroke="#000000" points="5.5,-380.5 5.5,-399.5 86.5,-399.5 86.5,-380.5 5.5,-380.5"/>
<text text-anchor="middle" x="46" y="-387.5" font-family="Helvetica,sans-Serif" font-size="10.00" fill="#000000">G4T1::process</text>
</a>
</g>
</g>
<!-- Node1&#45;&gt;Node8 -->
<g id="edge7" class="edge">
<title>Node1&#45;&gt;Node8</title>
<path fill="none" stroke="#191970" d="M153.5561,-334.7997C135.9191,-346.2101 113.1744,-360.1914 92,-371 85.3816,-374.3784 78.0186,-377.6312 71.1583,-380.4615"/>
<polygon fill="#191970" stroke="#191970" points="155.8233,-337.4992 162.2781,-329.0976 151.9929,-331.6401 155.8233,-337.4992"/>
</g>
<!-- Node9 -->
<g id="node9" class="node">
<title>Node9</title>
<g id="a_node9"><a xlink:href="classG3T1__1.html#aff514b4de85780777a8326e353148fe1" target="_top" xlink:title=" ">
<polygon fill="#ffffff" stroke="#000000" points="0,-342.5 0,-361.5 92,-361.5 92,-342.5 0,-342.5"/>
<text text-anchor="middle" x="46" y="-349.5" font-family="Helvetica,sans-Serif" font-size="10.00" fill="#000000">G3T1_1::process</text>
</a>
</g>
</g>
<!-- Node1&#45;&gt;Node9 -->
<g id="edge8" class="edge">
<title>Node1&#45;&gt;Node9</title>
<path fill="none" stroke="#191970" d="M120.0011,-331.6965C106.4979,-335.4013 92.7527,-339.1725 80.832,-342.4432"/>
<polygon fill="#191970" stroke="#191970" points="121.0436,-335.0398 129.7611,-329.0186 119.1914,-328.2893 121.0436,-335.0398"/>
</g>
<!-- Node10 -->
<g id="node10" class="node">
<title>Node10</title>
<g id="a_node10"><a xlink:href="classG3T1__2.html#a971571b3baee620f4fc36b31579db6ca" target="_top" xlink:title=" ">
<polygon fill="#ffffff" stroke="#000000" points="0,-304.5 0,-323.5 92,-323.5 92,-304.5 0,-304.5"/>
<text text-anchor="middle" x="46" y="-311.5" font-family="Helvetica,sans-Serif" font-size="10.00" fill="#000000">G3T1_2::process</text>
</a>
</g>
</g>
<!-- Node1&#45;&gt;Node10 -->
<g id="edge9" class="edge">
<title>Node1&#45;&gt;Node10</title>
<path fill="none" stroke="#191970" d="M117.7209,-314C109.1159,-314 100.46,-314 92.2855,-314"/>
<polygon fill="#191970" stroke="#191970" points="117.7672,-317.5001 127.7671,-314 117.7671,-310.5001 117.7672,-317.5001"/>
</g>
<!-- Node11 -->
<g id="node11" class="node">
<title>Node11</title>
<g id="a_node11"><a xlink:href="classG3T1__3.html#a82334e4d79cb9a4b4a757a96c60fe4ce" target="_top" xlink:title=" ">
<polygon fill="#ffffff" stroke="#000000" points="0,-266.5 0,-285.5 92,-285.5 92,-266.5 0,-266.5"/>
<text text-anchor="middle" x="46" y="-273.5" font-family="Helvetica,sans-Serif" font-size="10.00" fill="#000000">G3T1_3::process</text>
</a>
</g>
</g>
<!-- Node1&#45;&gt;Node11 -->
<g id="edge10" class="edge">
<title>Node1&#45;&gt;Node11</title>
<path fill="none" stroke="#191970" d="M120.0011,-296.3035C106.4979,-292.5987 92.7527,-288.8275 80.832,-285.5568"/>
<polygon fill="#191970" stroke="#191970" points="119.1914,-299.7107 129.7611,-298.9814 121.0436,-292.9602 119.1914,-299.7107"/>
</g>
<!-- Node12 -->
<g id="node12" class="node">
<title>Node12</title>
<g id="a_node12"><a xlink:href="classG3T1__4.html#ab743af6fc3e6ad0f64ef2520b811bb63" target="_top" xlink:title=" ">
<polygon fill="#ffffff" stroke="#000000" points="0,-228.5 0,-247.5 92,-247.5 92,-228.5 0,-228.5"/>
<text text-anchor="middle" x="46" y="-235.5" font-family="Helvetica,sans-Serif" font-size="10.00" fill="#000000">G3T1_4::process</text>
</a>
</g>
</g>
<!-- Node1&#45;&gt;Node12 -->
<g id="edge11" class="edge">
<title>Node1&#45;&gt;Node12</title>
<path fill="none" stroke="#191970" d="M153.5561,-293.2003C135.9191,-281.7899 113.1744,-267.8086 92,-257 85.3816,-253.6216 78.0186,-250.3688 71.1583,-247.5385"/>
<polygon fill="#191970" stroke="#191970" points="151.9929,-296.3599 162.2781,-298.9024 155.8233,-290.5008 151.9929,-296.3599"/>
</g>
<!-- Node13 -->
<g id="node13" class="node">
<title>Node13</title>
<g id="a_node13"><a xlink:href="classG3T1__5.html#acef5ff056ed22c930ae583f87cf1f03a" target="_top" xlink:title=" ">
<polygon fill="#ffffff" stroke="#000000" points="0,-190.5 0,-209.5 92,-209.5 92,-190.5 0,-190.5"/>
<text text-anchor="middle" x="46" y="-197.5" font-family="Helvetica,sans-Serif" font-size="10.00" fill="#000000">G3T1_5::process</text>
</a>
</g>
</g>
<!-- Node1&#45;&gt;Node13 -->
<g id="edge12" class="edge">
<title>Node1&#45;&gt;Node13</title>
<path fill="none" stroke="#191970" d="M166.8807,-291.1586C149.6715,-270.1095 121.7844,-239.1681 92,-219 86.5625,-215.3181 80.2993,-212.1477 74.1799,-209.5097"/>
<polygon fill="#191970" stroke="#191970" points="164.1605,-293.361 173.149,-298.9697 169.6199,-288.9799 164.1605,-293.361"/>
</g>
<!-- Node14 -->
<g id="node14" class="node">
<title>Node14</title>
<g id="a_node14"><a xlink:href="classG3T1__1.html#a58277c46b8319bd35e3ffabd52805874" target="_top" xlink:title=" ">
<polygon fill="#ffffff" stroke="#000000" points="1,-152.5 1,-171.5 91,-171.5 91,-152.5 1,-152.5"/>
<text text-anchor="middle" x="46" y="-159.5" font-family="Helvetica,sans-Serif" font-size="10.00" fill="#000000">G3T1_1::transfer</text>
</a>
</g>
</g>
<!-- Node1&#45;&gt;Node14 -->
<g id="edge13" class="edge">
<title>Node1&#45;&gt;Node14</title>
<path fill="none" stroke="#191970" d="M172.9956,-289.5659C158.0585,-260.1892 129.4107,-211.0921 92,-181 87.2871,-177.2091 81.7122,-174.0707 76.0991,-171.5115"/>
<polygon fill="#191970" stroke="#191970" points="169.9533,-291.3093 177.5285,-298.7165 176.2259,-288.202 169.9533,-291.3093"/>
</g>
<!-- Node15 -->
<g id="node15" class="node">
<title>Node15</title>
<g id="a_node15"><a xlink:href="classG3T1__2.html#ac437972ecabb9e234c8717101d51eac8" target="_top" xlink:title=" ">
<polygon fill="#ffffff" stroke="#000000" points="1,-114.5 1,-133.5 91,-133.5 91,-114.5 1,-114.5"/>
<text text-anchor="middle" x="46" y="-121.5" font-family="Helvetica,sans-Serif" font-size="10.00" fill="#000000">G3T1_2::transfer</text>
</a>
</g>
</g>
<!-- Node1&#45;&gt;Node15 -->
<g id="edge14" class="edge">
<title>Node1&#45;&gt;Node15</title>
<path fill="none" stroke="#191970" d="M176.861,-288.6167C164.5955,-251.8444 137.191,-183.7132 92,-143 87.7631,-139.1829 82.6534,-136.0711 77.4024,-133.5547"/>
<polygon fill="#191970" stroke="#191970" points="173.6572,-290.0867 180.0532,-298.5331 180.3205,-287.9416 173.6572,-290.0867"/>
</g>
<!-- Node16 -->
<g id="node16" class="node">
<title>Node16</title>
<g id="a_node16"><a xlink:href="classG3T1__3.html#a4bd1c419743c7c128fd1c3cf4fa5e434" target="_top" xlink:title=" ">
<polygon fill="#ffffff" stroke="#000000" points="1,-76.5 1,-95.5 91,-95.5 91,-76.5 1,-76.5"/>
<text text-anchor="middle" x="46" y="-83.5" font-family="Helvetica,sans-Serif" font-size="10.00" fill="#000000">G3T1_3::transfer</text>
</a>
</g>
</g>
<!-- Node1&#45;&gt;Node16 -->
<g id="edge15" class="edge">
<title>Node1&#45;&gt;Node16</title>
<path fill="none" stroke="#191970" d="M179.77,-288.9801C170.3944,-245.8777 145.5517,-157.2309 92,-105 88.0412,-101.1389 83.1868,-98.0208 78.1321,-95.5156"/>
<polygon fill="#191970" stroke="#191970" points="176.3709,-289.8261 181.8284,-298.9071 183.2251,-288.4048 176.3709,-289.8261"/>
</g>
<!-- Node17 -->
<g id="node17" class="node">
<title>Node17</title>
<g id="a_node17"><a xlink:href="classG3T1__4.html#a20ad5272beba24e4879fb29985b85f69" target="_top" xlink:title=" ">
<polygon fill="#ffffff" stroke="#000000" points="1,-38.5 1,-57.5 91,-57.5 91,-38.5 1,-38.5"/>
<text text-anchor="middle" x="46" y="-45.5" font-family="Helvetica,sans-Serif" font-size="10.00" fill="#000000">G3T1_4::transfer</text>
</a>
</g>
</g>
<!-- Node1&#45;&gt;Node17 -->
<g id="edge16" class="edge">
<title>Node1&#45;&gt;Node17</title>
<path fill="none" stroke="#191970" d="M181.7019,-288.6688C174.9996,-239.5965 153.7067,-130.8012 92,-67 88.2757,-63.1493 83.6572,-60.0493 78.7961,-57.5623"/>
<polygon fill="#191970" stroke="#191970" points="178.2482,-289.2549 182.9834,-298.7327 185.1921,-288.3707 178.2482,-289.2549"/>
</g>
<!-- Node18 -->
<g id="node18" class="node">
<title>Node18</title>
<g id="a_node18"><a xlink:href="classG3T1__5.html#ae9918da7342a4fb88c6f633db43b9fe8" target="_top" xlink:title=" ">
<polygon fill="#ffffff" stroke="#000000" points="1,-.5 1,-19.5 91,-19.5 91,-.5 1,-.5"/>
<text text-anchor="middle" x="46" y="-7.5" font-family="Helvetica,sans-Serif" font-size="10.00" fill="#000000">G3T1_5::transfer</text>
</a>
</g>
</g>
<!-- Node1&#45;&gt;Node18 -->
<g id="edge17" class="edge">
<title>Node1&#45;&gt;Node18</title>
<path fill="none" stroke="#191970" d="M183.1987,-288.6622C179.0842,-234.1883 162.0604,-104.7396 92,-29 88.4796,-25.1942 84.0825,-22.1287 79.4131,-19.6655"/>
<polygon fill="#191970" stroke="#191970" points="179.7179,-289.0675 183.8784,-298.8112 186.7023,-288.5997 179.7179,-289.0675"/>
</g>
</g>
</svg>
