<?xml version="1.0" encoding="UTF-8" standalone="no"?>
<!DOCTYPE svg PUBLIC "-//W3C//DTD SVG 1.1//EN"
 "http://www.w3.org/Graphics/SVG/1.1/DTD/svg11.dtd">
<!-- Generated by graphviz version 2.40.1 (20161225.0304)
 -->
<!-- Title: ResourcesTest::SetUp Pages: 1 -->
<svg width="274pt" height="186pt"
 viewBox="0.00 0.00 274.00 186.00" xmlns="http://www.w3.org/2000/svg" xmlns:xlink="http://www.w3.org/1999/xlink">
<g id="graph0" class="graph" transform="scale(1 1) rotate(0) translate(4 182)">
<title>ResourcesTest::SetUp</title>
<polygon fill="#ffffff" stroke="transparent" points="-4,4 -4,-182 270,-182 270,4 -4,4"/>
<!-- Node1 -->
<g id="node1" class="node">
<title>Node1</title>
<g id="a_node1"><a xlink:title=" ">
<polygon fill="#bfbfbf" stroke="#000000" points="0,-79 0,-98 117,-98 117,-79 0,-79"/>
<text text-anchor="middle" x="58.5" y="-86" font-family="Helvetica,sans-Serif" font-size="10.00" fill="#000000">ResourcesTest::SetUp</text>
</a>
</g>
</g>
<!-- Node2 -->
<g id="node2" class="node">
<title>Node2</title>
<g id="a_node2"><a xlink:href="classbsn_1_1resource_1_1Battery.html#acbac5f9c64777f5f2eadca92df7526be" target="_top" xlink:title=" ">
<polygon fill="#ffffff" stroke="#000000" points="153,-147.5 153,-177.5 266,-177.5 266,-147.5 153,-147.5"/>
<text text-anchor="start" x="161" y="-165.5" font-family="Helvetica,sans-Serif" font-size="10.00" fill="#000000">bsn::resource::Battery</text>
<text text-anchor="middle" x="209.5" y="-154.5" font-family="Helvetica,sans-Serif" font-size="10.00" fill="#000000">::setCapacity</text>
</a>
</g>
</g>
<!-- Node1&#45;&gt;Node2 -->
<g id="edge1" class="edge">
<title>Node1&#45;&gt;Node2</title>
<path fill="none" stroke="#191970" d="M75.6923,-98.1632C94.4611,-108.5784 125.5134,-125.4195 153,-138.5 156.3741,-140.1057 159.8839,-141.7218 163.4288,-143.3152"/>
<polygon fill="#191970" stroke="#191970" points="162.2634,-146.6264 172.8255,-147.4579 165.0872,-140.2213 162.2634,-146.6264"/>
</g>
<!-- Node3 -->
<g id="node3" class="node">
<title>Node3</title>
<g id="a_node3"><a xlink:href="classbsn_1_1resource_1_1Battery.html#a2953c6225bc1ed1be259cc6231ef08fa" target="_top" xlink:title=" ">
<polygon fill="#ffffff" stroke="#000000" points="153,-98.5 153,-128.5 266,-128.5 266,-98.5 153,-98.5"/>
<text text-anchor="start" x="161" y="-116.5" font-family="Helvetica,sans-Serif" font-size="10.00" fill="#000000">bsn::resource::Battery</text>
<text text-anchor="middle" x="209.5" y="-105.5" font-family="Helvetica,sans-Serif" font-size="10.00" fill="#000000">::setCurrentLevel</text>
</a>
</g>
</g>
<!-- Node1&#45;&gt;Node3 -->
<g id="edge2" class="edge">
<title>Node1&#45;&gt;Node3</title>
<path fill="none" stroke="#191970" d="M116.0174,-98.0227C124.7373,-99.4664 133.7971,-100.9664 142.6936,-102.4393"/>
<polygon fill="#191970" stroke="#191970" points="142.2046,-105.9059 152.642,-104.0864 143.348,-98.9999 142.2046,-105.9059"/>
</g>
<!-- Node4 -->
<g id="node4" class="node">
<title>Node4</title>
<g id="a_node4"><a xlink:href="classbsn_1_1resource_1_1Battery.html#a6d210f39d8490f050f4f4efe2a08a504" target="_top" xlink:title=" ">
<polygon fill="#ffffff" stroke="#000000" points="153,-49.5 153,-79.5 266,-79.5 266,-49.5 153,-49.5"/>
<text text-anchor="start" x="161" y="-67.5" font-family="Helvetica,sans-Serif" font-size="10.00" fill="#000000">bsn::resource::Battery</text>
<text text-anchor="middle" x="209.5" y="-56.5" font-family="Helvetica,sans-Serif" font-size="10.00" fill="#000000">::setId</text>
</a>
</g>
</g>
<!-- Node1&#45;&gt;Node4 -->
<g id="edge3" class="edge">
<title>Node1&#45;&gt;Node4</title>
<path fill="none" stroke="#191970" d="M117.3129,-79.1523C125.555,-77.8422 134.0764,-76.4879 142.457,-75.1558"/>
<polygon fill="#191970" stroke="#191970" points="143.2549,-78.573 152.5815,-73.5467 142.156,-71.6598 143.2549,-78.573"/>
</g>
<!-- Node5 -->
<g id="node5" class="node">
<title>Node5</title>
<g id="a_node5"><a xlink:href="classbsn_1_1resource_1_1Battery.html#adc734db0793f80794bd934c524fefca0" target="_top" xlink:title=" ">
<polygon fill="#ffffff" stroke="#000000" points="153,-.5 153,-30.5 266,-30.5 266,-.5 153,-.5"/>
<text text-anchor="start" x="161" y="-18.5" font-family="Helvetica,sans-Serif" font-size="10.00" fill="#000000">bsn::resource::Battery</text>
<text text-anchor="middle" x="209.5" y="-7.5" font-family="Helvetica,sans-Serif" font-size="10.00" fill="#000000">::setUnit</text>
</a>
</g>
</g>
<!-- Node1&#45;&gt;Node5 -->
<g id="edge4" class="edge">
<title>Node1&#45;&gt;Node5</title>
<path fill="none" stroke="#191970" d="M76.8258,-78.8252C95.7601,-68.9159 126.2372,-53.2068 153,-40.5 157.0333,-38.585 161.2488,-36.6318 165.4805,-34.7035"/>
<polygon fill="#191970" stroke="#191970" points="167.027,-37.8456 174.7061,-30.5461 164.151,-31.4637 167.027,-37.8456"/>
</g>
</g>
</svg>
