<?xml version="1.0" encoding="UTF-8" standalone="no"?>
<!DOCTYPE svg PUBLIC "-//W3C//DTD SVG 1.1//EN"
 "http://www.w3.org/Graphics/SVG/1.1/DTD/svg11.dtd">
<!-- Generated by graphviz version 2.40.1 (20161225.0304)
 -->
<!-- Title: Analyzer.Analyzer.body Pages: 1 -->
<svg width="643pt" height="104pt"
 viewBox="0.00 0.00 643.00 104.00" xmlns="http://www.w3.org/2000/svg" xmlns:xlink="http://www.w3.org/1999/xlink">
<g id="graph0" class="graph" transform="scale(1 1) rotate(0) translate(4 100)">
<title>Analyzer.Analyzer.body</title>
<polygon fill="#ffffff" stroke="transparent" points="-4,4 -4,-100 639,-100 639,4 -4,4"/>
<!-- Node1 -->
<g id="node1" class="node">
<title>Node1</title>
<g id="a_node1"><a xlink:title=" ">
<polygon fill="#bfbfbf" stroke="#000000" points="0,-38.5 0,-57.5 120,-57.5 120,-38.5 0,-38.5"/>
<text text-anchor="middle" x="60" y="-45.5" font-family="Helvetica,sans-Serif" font-size="10.00" fill="#000000">Analyzer.Analyzer.body</text>
</a>
</g>
</g>
<!-- Node2 -->
<g id="node2" class="node">
<title>Node2</title>
<g id="a_node2"><a xlink:href="classEngine.html#ac885ef7a80556ab1b21a043d7dc2b1c9" target="_top" xlink:title=" ">
<polygon fill="#ffffff" stroke="#000000" points="179.5,-76.5 179.5,-95.5 265.5,-95.5 265.5,-76.5 179.5,-76.5"/>
<text text-anchor="middle" x="222.5" y="-83.5" font-family="Helvetica,sans-Serif" font-size="10.00" fill="#000000">Engine::analyze</text>
</a>
</g>
</g>
<!-- Node1&#45;&gt;Node2 -->
<g id="edge1" class="edge">
<title>Node1&#45;&gt;Node2</title>
<path fill="none" stroke="#191970" d="M101.0056,-57.589C122.5458,-62.6261 149.1347,-68.8438 171.9414,-74.1771"/>
<polygon fill="#191970" stroke="#191970" points="171.255,-77.6109 181.7893,-76.4799 172.8489,-70.7948 171.255,-77.6109"/>
</g>
<!-- Node6 -->
<g id="node6" class="node">
<title>Node6</title>
<g id="a_node6"><a xlink:href="classAnalyzer_1_1Analyzer.html#aac2d87c6c1fbafe663d52dee74770d03" target="_top" xlink:title=" ">
<polygon fill="#ffffff" stroke="#000000" points="156,-38.5 156,-57.5 289,-57.5 289,-38.5 156,-38.5"/>
<text text-anchor="middle" x="222.5" y="-45.5" font-family="Helvetica,sans-Serif" font-size="10.00" fill="#000000">Analyzer.Analyzer.analyze</text>
</a>
</g>
</g>
<!-- Node1&#45;&gt;Node6 -->
<g id="edge5" class="edge">
<title>Node1&#45;&gt;Node6</title>
<path fill="none" stroke="#191970" d="M120.0473,-48C128.4301,-48 137.1366,-48 145.7747,-48"/>
<polygon fill="#191970" stroke="#191970" points="145.8601,-51.5001 155.8601,-48 145.8601,-44.5001 145.8601,-51.5001"/>
</g>
<!-- Node7 -->
<g id="node7" class="node">
<title>Node7</title>
<g id="a_node7"><a xlink:href="src_2manager__system_2adaptation__engine_2CMakeLists_8txt.html#a9db4ff0309b1e5f217732209a7a9ee2a" target="_top" xlink:title=" ">
<polygon fill="#ffffff" stroke="#000000" points="208,-.5 208,-19.5 237,-19.5 237,-.5 208,-.5"/>
<text text-anchor="middle" x="222.5" y="-7.5" font-family="Helvetica,sans-Serif" font-size="10.00" fill="#000000">if</text>
</a>
</g>
</g>
<!-- Node1&#45;&gt;Node7 -->
<g id="edge6" class="edge">
<title>Node1&#45;&gt;Node7</title>
<path fill="none" stroke="#191970" d="M101.0056,-38.411C131.4452,-31.2928 171.967,-21.8169 197.6498,-15.8111"/>
<polygon fill="#191970" stroke="#191970" points="198.7352,-19.1518 207.6755,-13.4667 197.1412,-12.3357 198.7352,-19.1518"/>
</g>
<!-- Node3 -->
<g id="node3" class="node">
<title>Node3</title>
<g id="a_node3"><a xlink:href="classEngine.html#ada990715b8c10f1ad972892efa58d106" target="_top" xlink:title=" ">
<polygon fill="#ffffff" stroke="#000000" points="325,-76.5 325,-95.5 396,-95.5 396,-76.5 325,-76.5"/>
<text text-anchor="middle" x="360.5" y="-83.5" font-family="Helvetica,sans-Serif" font-size="10.00" fill="#000000">Engine::plan</text>
</a>
</g>
</g>
<!-- Node2&#45;&gt;Node3 -->
<g id="edge2" class="edge">
<title>Node2&#45;&gt;Node3</title>
<path fill="none" stroke="#191970" d="M265.7854,-86C281.3474,-86 298.9457,-86 314.7134,-86"/>
<polygon fill="#191970" stroke="#191970" points="314.7709,-89.5001 324.7709,-86 314.7708,-82.5001 314.7709,-89.5001"/>
</g>
<!-- Node4 -->
<g id="node4" class="node">
<title>Node4</title>
<g id="a_node4"><a xlink:href="classEngine.html#a1ec215a11a8703c09f61e57e23ea41e8" target="_top" xlink:title=" ">
<polygon fill="#ffffff" stroke="#000000" points="432,-76.5 432,-95.5 519,-95.5 519,-76.5 432,-76.5"/>
<text text-anchor="middle" x="475.5" y="-83.5" font-family="Helvetica,sans-Serif" font-size="10.00" fill="#000000">Engine::execute</text>
</a>
</g>
</g>
<!-- Node3&#45;&gt;Node4 -->
<g id="edge3" class="edge">
<title>Node3&#45;&gt;Node4</title>
<path fill="none" stroke="#191970" d="M396.2563,-86C404.3127,-86 413.037,-86 421.6515,-86"/>
<polygon fill="#191970" stroke="#191970" points="421.6672,-89.5001 431.6672,-86 421.6671,-82.5001 421.6672,-89.5001"/>
</g>
<!-- Node5 -->
<g id="node5" class="node">
<title>Node5</title>
<g id="a_node5"><a xlink:href="namespacebsn_1_1utils.html#a4ab7be3d27380abe032f4ceec86b09b2" target="_top" xlink:title=" ">
<polygon fill="#ffffff" stroke="#000000" points="555,-76.5 555,-95.5 635,-95.5 635,-76.5 555,-76.5"/>
<text text-anchor="middle" x="595" y="-83.5" font-family="Helvetica,sans-Serif" font-size="10.00" fill="#000000">bsn::utils::split</text>
</a>
</g>
</g>
<!-- Node4&#45;&gt;Node5 -->
<g id="edge4" class="edge">
<title>Node4&#45;&gt;Node5</title>
<path fill="none" stroke="#191970" d="M519.3188,-86C527.5589,-86 536.2351,-86 544.6556,-86"/>
<polygon fill="#191970" stroke="#191970" points="544.7536,-89.5001 554.7536,-86 544.7535,-82.5001 544.7536,-89.5001"/>
</g>
</g>
</svg>
