<?xml version="1.0" encoding="UTF-8" standalone="no"?>
<!DOCTYPE svg PUBLIC "-//W3C//DTD SVG 1.1//EN"
 "http://www.w3.org/Graphics/SVG/1.1/DTD/svg11.dtd">
<!-- Generated by graphviz version 2.40.1 (20161225.0304)
 -->
<!-- Title: bsn::range::Range::setLowerBound Pages: 1 -->
<svg width="247pt" height="78pt"
 viewBox="0.00 0.00 247.00 77.50" xmlns="http://www.w3.org/2000/svg" xmlns:xlink="http://www.w3.org/1999/xlink">
<g id="graph0" class="graph" transform="scale(1 1) rotate(0) translate(4 73.5)">
<title>bsn::range::Range::setLowerBound</title>
<polygon fill="#ffffff" stroke="transparent" points="-4,4 -4,-73.5 243,-73.5 243,4 -4,4"/>
<!-- Node1 -->
<g id="node1" class="node">
<title>Node1</title>
<g id="a_node1"><a xlink:title=" ">
<polygon fill="#bfbfbf" stroke="#000000" points="136,-17 136,-47 239,-47 239,-17 136,-17"/>
<text text-anchor="start" x="144" y="-35" font-family="Helvetica,sans-Serif" font-size="10.00" fill="#000000">bsn::range::Range::</text>
<text text-anchor="middle" x="187.5" y="-24" font-family="Helvetica,sans-Serif" font-size="10.00" fill="#000000">setLowerBound</text>
</a>
</g>
</g>
<!-- Node2 -->
<g id="node2" class="node">
<title>Node2</title>
<g id="a_node2"><a xlink:href="classConfigurationTest.html#a7b9f2c612f8aebd8e37cbc6429d34aea" target="_top" xlink:title=" ">
<polygon fill="#ffffff" stroke="#000000" points="0,-39 0,-69 100,-69 100,-39 0,-39"/>
<text text-anchor="start" x="8" y="-57" font-family="Helvetica,sans-Serif" font-size="10.00" fill="#000000">ConfigurationTest::</text>
<text text-anchor="middle" x="50" y="-46" font-family="Helvetica,sans-Serif" font-size="10.00" fill="#000000">SetUp</text>
</a>
</g>
</g>
<!-- Node1&#45;&gt;Node2 -->
<g id="edge1" class="edge">
<title>Node1&#45;&gt;Node2</title>
<path fill="none" stroke="#191970" d="M125.8712,-41.8606C117.2331,-43.2427 108.4434,-44.6491 100.0555,-45.9911"/>
<polygon fill="#191970" stroke="#191970" points="126.5875,-45.2906 135.9089,-40.2546 125.4815,-38.3785 126.5875,-45.2906"/>
</g>
<!-- Node3 -->
<g id="node3" class="node">
<title>Node3</title>
<g id="a_node3"><a xlink:href="classRangeTest.html#af82f3adf4d559507c3c8b70a21b40a98" target="_top" xlink:title=" ">
<polygon fill="#ffffff" stroke="#000000" points="1,-.5 1,-19.5 99,-19.5 99,-.5 1,-.5"/>
<text text-anchor="middle" x="50" y="-7.5" font-family="Helvetica,sans-Serif" font-size="10.00" fill="#000000">RangeTest::SetUp</text>
</a>
</g>
</g>
<!-- Node1&#45;&gt;Node3 -->
<g id="edge2" class="edge">
<title>Node1&#45;&gt;Node3</title>
<path fill="none" stroke="#191970" d="M125.8968,-22.1435C116.9383,-20.7101 107.8162,-19.2506 99.1477,-17.8636"/>
<polygon fill="#191970" stroke="#191970" points="125.4815,-25.6215 135.9089,-23.7454 126.5875,-18.7094 125.4815,-25.6215"/>
</g>
</g>
</svg>
