<?xml version="1.0" encoding="UTF-8" standalone="no"?>
<!DOCTYPE svg PUBLIC "-//W3C//DTD SVG 1.1//EN"
 "http://www.w3.org/Graphics/SVG/1.1/DTD/svg11.dtd">
<!-- Generated by graphviz version 2.40.1 (20161225.0304)
 -->
<!-- Title: CentralHub::run Pages: 1 -->
<svg width="646pt" height="302pt"
 viewBox="0.00 0.00 646.00 302.00" xmlns="http://www.w3.org/2000/svg" xmlns:xlink="http://www.w3.org/1999/xlink">
<g id="graph0" class="graph" transform="scale(1 1) rotate(0) translate(4 298)">
<title>CentralHub::run</title>
<polygon fill="#ffffff" stroke="transparent" points="-4,4 -4,-298 642,-298 642,4 -4,4"/>
<!-- Node1 -->
<g id="node1" class="node">
<title>Node1</title>
<g id="a_node1"><a xlink:title=" ">
<polygon fill="#bfbfbf" stroke="#000000" points="0,-88.5 0,-107.5 86,-107.5 86,-88.5 0,-88.5"/>
<text text-anchor="middle" x="43" y="-95.5" font-family="Helvetica,sans-Serif" font-size="10.00" fill="#000000">CentralHub::run</text>
</a>
</g>
</g>
<!-- Node2 -->
<g id="node2" class="node">
<title>Node2</title>
<g id="a_node2"><a xlink:href="classCentralHub.html#a48b13d52b79864e84eae5012108d3211" target="_top" xlink:title=" ">
<polygon fill="#ffffff" stroke="#000000" points="154.5,-167.5 154.5,-186.5 247.5,-186.5 247.5,-167.5 154.5,-167.5"/>
<text text-anchor="middle" x="201" y="-174.5" font-family="Helvetica,sans-Serif" font-size="10.00" fill="#000000">CentralHub::body</text>
</a>
</g>
</g>
<!-- Node1&#45;&gt;Node2 -->
<g id="edge1" class="edge">
<title>Node1&#45;&gt;Node2</title>
<path fill="none" stroke="#191970" d="M55.2703,-107.503C70.3223,-118.8149 96.9352,-137.7147 122,-150 133.083,-155.4323 145.5341,-160.2381 157.2167,-164.2332"/>
<polygon fill="#191970" stroke="#191970" points="156.2093,-167.5863 166.8024,-167.3943 158.4017,-160.9385 156.2093,-167.5863"/>
</g>
<!-- Node6 -->
<g id="node6" class="node">
<title>Node6</title>
<g id="a_node6"><a xlink:href="classarch_1_1target__system_1_1Component.html#adc6ecb4090656eeac2289ec147a20f81" target="_top" xlink:title=" ">
<polygon fill="#ffffff" stroke="#000000" points="316,-99 316,-129 444,-129 444,-99 316,-99"/>
<text text-anchor="start" x="324" y="-117" font-family="Helvetica,sans-Serif" font-size="10.00" fill="#000000">arch::target_system</text>
<text text-anchor="middle" x="380" y="-106" font-family="Helvetica,sans-Serif" font-size="10.00" fill="#000000">::Component::sendStatus</text>
</a>
</g>
</g>
<!-- Node1&#45;&gt;Node6 -->
<g id="edge10" class="edge">
<title>Node1&#45;&gt;Node6</title>
<path fill="none" stroke="#191970" d="M74.9751,-107.5063C89.2285,-111.2706 106.3108,-115.1398 122,-117 183.6161,-124.3054 254.0872,-122.8269 305.7919,-119.9313"/>
<polygon fill="#191970" stroke="#191970" points="306.0984,-123.4194 315.8745,-119.3355 305.6854,-116.4316 306.0984,-123.4194"/>
</g>
<!-- Node9 -->
<g id="node9" class="node">
<title>Node9</title>
<g id="a_node9"><a xlink:href="classCentralHub.html#a4d658629e1d1fc8dc80ee298173e4c22" target="_top" xlink:title=" ">
<polygon fill="#ffffff" stroke="#000000" points="150.5,-88.5 150.5,-107.5 251.5,-107.5 251.5,-88.5 150.5,-88.5"/>
<text text-anchor="middle" x="201" y="-95.5" font-family="Helvetica,sans-Serif" font-size="10.00" fill="#000000">CentralHub::collect</text>
</a>
</g>
</g>
<!-- Node1&#45;&gt;Node9 -->
<g id="edge8" class="edge">
<title>Node1&#45;&gt;Node9</title>
<path fill="none" stroke="#191970" d="M86.1742,-98C102.8258,-98 122.1716,-98 140.1838,-98"/>
<polygon fill="#191970" stroke="#191970" points="140.3151,-101.5001 150.3151,-98 140.315,-94.5001 140.3151,-101.5001"/>
</g>
<!-- Node10 -->
<g id="node10" class="node">
<title>Node10</title>
<g id="a_node10"><a xlink:href="classarch_1_1ROSComponentDescriptor.html#a4b73f46f37241865a08e75ab202e28eb" target="_top" xlink:title=" ">
<polygon fill="#ffffff" stroke="#000000" points="122,-39 122,-69 280,-69 280,-39 122,-39"/>
<text text-anchor="start" x="130" y="-57" font-family="Helvetica,sans-Serif" font-size="10.00" fill="#000000">arch::ROSComponentDescriptor</text>
<text text-anchor="middle" x="201" y="-46" font-family="Helvetica,sans-Serif" font-size="10.00" fill="#000000">::getFreq</text>
</a>
</g>
</g>
<!-- Node1&#45;&gt;Node10 -->
<g id="edge9" class="edge">
<title>Node1&#45;&gt;Node10</title>
<path fill="none" stroke="#191970" d="M77.2836,-88.4527C94.7549,-83.5872 116.577,-77.5102 137.0085,-71.8204"/>
<polygon fill="#191970" stroke="#191970" points="138.2072,-75.1199 146.9016,-69.0654 136.3292,-68.3765 138.2072,-75.1199"/>
</g>
<!-- Node11 -->
<g id="node11" class="node">
<title>Node11</title>
<g id="a_node11"><a xlink:href="classCentralHub.html#a91be8b44d7c4075c20434723c75fc6f9" target="_top" xlink:title=" ">
<polygon fill="#ffffff" stroke="#000000" points="152,-.5 152,-19.5 250,-19.5 250,-.5 152,-.5"/>
<text text-anchor="middle" x="201" y="-7.5" font-family="Helvetica,sans-Serif" font-size="10.00" fill="#000000">CentralHub::setUp</text>
</a>
</g>
</g>
<!-- Node1&#45;&gt;Node11 -->
<g id="edge11" class="edge">
<title>Node1&#45;&gt;Node11</title>
<path fill="none" stroke="#191970" d="M51.1682,-88.3465C64.4446,-73.2983 92.2331,-44.3828 122,-29 128.1465,-25.8236 134.8376,-23.167 141.639,-20.9474"/>
<polygon fill="#191970" stroke="#191970" points="143.0316,-24.1858 151.6322,-17.9987 141.0505,-17.472 143.0316,-24.1858"/>
</g>
<!-- Node3 -->
<g id="node3" class="node">
<title>Node3</title>
<g id="a_node3"><a xlink:href="classCentralHub.html#ad6c1ba1c51d58a420e076fbd27cd2b5c" target="_top" xlink:title=" ">
<polygon fill="#ffffff" stroke="#000000" points="318,-274.5 318,-293.5 442,-293.5 442,-274.5 318,-274.5"/>
<text text-anchor="middle" x="380" y="-281.5" font-family="Helvetica,sans-Serif" font-size="10.00" fill="#000000">CentralHub::apply_noise</text>
</a>
</g>
</g>
<!-- Node2&#45;&gt;Node3 -->
<g id="edge2" class="edge">
<title>Node2&#45;&gt;Node3</title>
<path fill="none" stroke="#191970" d="M210.9033,-186.6441C229.8046,-204.5509 272.9842,-243.1019 316,-265 320.3543,-267.2167 325.0101,-269.2185 329.7499,-271.0162"/>
<polygon fill="#191970" stroke="#191970" points="328.9326,-274.4377 339.5274,-274.4227 331.2357,-267.8274 328.9326,-274.4377"/>
</g>
<!-- Node4 -->
<g id="node4" class="node">
<title>Node4</title>
<g id="a_node4"><a xlink:href="classbsn_1_1resource_1_1Battery.html#a674c7c02100126e91f040bc93f143c7e" target="_top" xlink:title=" ">
<polygon fill="#ffffff" stroke="#000000" points="323.5,-225 323.5,-255 436.5,-255 436.5,-225 323.5,-225"/>
<text text-anchor="start" x="331.5" y="-243" font-family="Helvetica,sans-Serif" font-size="10.00" fill="#000000">bsn::resource::Battery</text>
<text text-anchor="middle" x="380" y="-232" font-family="Helvetica,sans-Serif" font-size="10.00" fill="#000000">::getCurrentLevel</text>
</a>
</g>
</g>
<!-- Node2&#45;&gt;Node4 -->
<g id="edge3" class="edge">
<title>Node2&#45;&gt;Node4</title>
<path fill="none" stroke="#191970" d="M228.1862,-186.5683C254.4217,-195.802 294.8389,-210.0271 327.3759,-221.4787"/>
<polygon fill="#191970" stroke="#191970" points="326.6013,-224.9165 337.1961,-224.935 328.9253,-218.3135 326.6013,-224.9165"/>
</g>
<!-- Node5 -->
<g id="node5" class="node">
<title>Node5</title>
<g id="a_node5"><a xlink:href="classCentralHub.html#a3527f7455ec82af84e32b182221ede80" target="_top" xlink:title=" ">
<polygon fill="#ffffff" stroke="#000000" points="326.5,-186.5 326.5,-205.5 433.5,-205.5 433.5,-186.5 326.5,-186.5"/>
<text text-anchor="middle" x="380" y="-193.5" font-family="Helvetica,sans-Serif" font-size="10.00" fill="#000000">CentralHub::process</text>
</a>
</g>
</g>
<!-- Node2&#45;&gt;Node5 -->
<g id="edge4" class="edge">
<title>Node2&#45;&gt;Node5</title>
<path fill="none" stroke="#191970" d="M247.5629,-181.9424C268.4932,-184.1641 293.5294,-186.8216 316.1711,-189.2249"/>
<polygon fill="#191970" stroke="#191970" points="316.0686,-192.7336 326.3822,-190.3087 316.8075,-185.7727 316.0686,-192.7336"/>
</g>
<!-- Node2&#45;&gt;Node6 -->
<g id="edge5" class="edge">
<title>Node2&#45;&gt;Node6</title>
<path fill="none" stroke="#191970" d="M229.1915,-167.4887C244.2833,-162.3658 263.1775,-155.9023 280,-150 296.0048,-144.3846 313.409,-138.1603 329.1441,-132.4884"/>
<polygon fill="#191970" stroke="#191970" points="330.4814,-135.7268 338.6984,-129.0386 328.1041,-129.1428 330.4814,-135.7268"/>
</g>
<!-- Node8 -->
<g id="node8" class="node">
<title>Node8</title>
<g id="a_node8"><a xlink:href="classCentralHub.html#a31e4df7094f5d176052056464d5886fa" target="_top" xlink:title=" ">
<polygon fill="#ffffff" stroke="#000000" points="327.5,-148.5 327.5,-167.5 432.5,-167.5 432.5,-148.5 327.5,-148.5"/>
<text text-anchor="middle" x="380" y="-155.5" font-family="Helvetica,sans-Serif" font-size="10.00" fill="#000000">CentralHub::transfer</text>
</a>
</g>
</g>
<!-- Node2&#45;&gt;Node8 -->
<g id="edge7" class="edge">
<title>Node2&#45;&gt;Node8</title>
<path fill="none" stroke="#191970" d="M247.5629,-172.0576C268.8582,-169.7972 294.4038,-167.0856 317.3534,-164.6496"/>
<polygon fill="#191970" stroke="#191970" points="317.7743,-168.1247 327.349,-163.5887 317.0354,-161.1638 317.7743,-168.1247"/>
</g>
<!-- Node7 -->
<g id="node7" class="node">
<title>Node7</title>
<g id="a_node7"><a xlink:href="classarch_1_1ROSComponentDescriptor.html#a462b00745d0de3f98d88f3eb1ba11e45" target="_top" xlink:title=" ">
<polygon fill="#ffffff" stroke="#000000" points="480,-99 480,-129 638,-129 638,-99 480,-99"/>
<text text-anchor="start" x="488" y="-117" font-family="Helvetica,sans-Serif" font-size="10.00" fill="#000000">arch::ROSComponentDescriptor</text>
<text text-anchor="middle" x="559" y="-106" font-family="Helvetica,sans-Serif" font-size="10.00" fill="#000000">::getName</text>
</a>
</g>
</g>
<!-- Node6&#45;&gt;Node7 -->
<g id="edge6" class="edge">
<title>Node6&#45;&gt;Node7</title>
<path fill="none" stroke="#191970" d="M444.1175,-114C452.4093,-114 461.018,-114 469.6251,-114"/>
<polygon fill="#191970" stroke="#191970" points="469.7094,-117.5001 479.7094,-114 469.7093,-110.5001 469.7094,-117.5001"/>
</g>
</g>
</svg>
