<?xml version="1.0" encoding="UTF-8" standalone="no"?>
<!DOCTYPE svg PUBLIC "-//W3C//DTD SVG 1.1//EN"
 "http://www.w3.org/Graphics/SVG/1.1/DTD/svg11.dtd">
<!-- Generated by graphviz version 2.40.1 (20161225.0304)
 -->
<!-- Title: NodeTest Pages: 1 -->
<svg width="82pt" height="171pt"
 viewBox="0.00 0.00 82.00 171.00" xmlns="http://www.w3.org/2000/svg" xmlns:xlink="http://www.w3.org/1999/xlink">
<g id="graph0" class="graph" transform="scale(1 1) rotate(0) translate(4 167)">
<title>NodeTest</title>
<polygon fill="#ffffff" stroke="transparent" points="-4,4 -4,-167 78,-167 78,4 -4,4"/>
<!-- Node1 -->
<g id="node1" class="node">
<title>Node1</title>
<g id="a_node1"><a xlink:title=" ">
<polygon fill="#bfbfbf" stroke="#000000" points="0,-.5 0,-68.5 74,-68.5 74,-.5 0,-.5"/>
<text text-anchor="middle" x="37" y="-56.5" font-family="Helvetica,sans-Serif" font-size="10.00" fill="#000000">NodeTest</text>
<polyline fill="none" stroke="#000000" points="0,-49.5 74,-49.5 "/>
<text text-anchor="middle" x="37" y="-37.5" font-family="Helvetica,sans-Serif" font-size="10.00" fill="#000000"> </text>
<polyline fill="none" stroke="#000000" points="0,-30.5 74,-30.5 "/>
<text text-anchor="start" x="8" y="-18.5" font-family="Helvetica,sans-Serif" font-size="10.00" fill="#000000"># NodeTest()</text>
<text text-anchor="start" x="8" y="-7.5" font-family="Helvetica,sans-Serif" font-size="10.00" fill="#000000"># SetUp()</text>
</a>
</g>
</g>
<!-- Node2 -->
<g id="node2" class="node">
<title>Node2</title>
<g id="a_node2"><a xlink:title=" ">
<polygon fill="#ffffff" stroke="#bfbfbf" points="19,-105.5 19,-162.5 55,-162.5 55,-105.5 19,-105.5"/>
<text text-anchor="middle" x="37" y="-150.5" font-family="Helvetica,sans-Serif" font-size="10.00" fill="#000000">Test</text>
<polyline fill="none" stroke="#bfbfbf" points="19,-143.5 55,-143.5 "/>
<text text-anchor="middle" x="37" y="-131.5" font-family="Helvetica,sans-Serif" font-size="10.00" fill="#000000"> </text>
<polyline fill="none" stroke="#bfbfbf" points="19,-124.5 55,-124.5 "/>
<text text-anchor="middle" x="37" y="-112.5" font-family="Helvetica,sans-Serif" font-size="10.00" fill="#000000"> </text>
</a>
</g>
</g>
<!-- Node2&#45;&gt;Node1 -->
<g id="edge1" class="edge">
<title>Node2&#45;&gt;Node1</title>
<path fill="none" stroke="#191970" d="M37,-95.4268C37,-86.6025 37,-77.2834 37,-68.6596"/>
<polygon fill="none" stroke="#191970" points="33.5001,-95.4873 37,-105.4873 40.5001,-95.4873 33.5001,-95.4873"/>
</g>
</g>
</svg>
