<?xml version="1.0" encoding="UTF-8" standalone="no"?>
<!DOCTYPE svg PUBLIC "-//W3C//DTD SVG 1.1//EN"
 "http://www.w3.org/Graphics/SVG/1.1/DTD/svg11.dtd">
<!-- Generated by graphviz version 2.40.1 (20161225.0304)
 -->
<!-- Title: arch::ROSComponentDescriptor::getName Pages: 1 -->
<svg width="846pt" height="211pt"
 viewBox="0.00 0.00 846.00 211.35" xmlns="http://www.w3.org/2000/svg" xmlns:xlink="http://www.w3.org/1999/xlink">
<g id="graph0" class="graph" transform="scale(1 1) rotate(0) translate(4 207.3527)">
<title>arch::ROSComponentDescriptor::getName</title>
<polygon fill="#ffffff" stroke="transparent" points="-4,4 -4,-207.3527 842,-207.3527 842,4 -4,4"/>
<!-- Node1 -->
<g id="node1" class="node">
<title>Node1</title>
<g id="a_node1"><a xlink:title=" ">
<polygon fill="#bfbfbf" stroke="#000000" points="680,-99.8527 680,-129.8527 838,-129.8527 838,-99.8527 680,-99.8527"/>
<text text-anchor="start" x="688" y="-117.8527" font-family="Helvetica,sans-Serif" font-size="10.00" fill="#000000">arch::ROSComponentDescriptor</text>
<text text-anchor="middle" x="759" y="-106.8527" font-family="Helvetica,sans-Serif" font-size="10.00" fill="#000000">::getName</text>
</a>
</g>
</g>
<!-- Node2 -->
<g id="node2" class="node">
<title>Node2</title>
<g id="a_node2"><a xlink:href="classarch_1_1target__system_1_1Component.html#a9d793970d5fbdef5c31e5ab901b98030" target="_top" xlink:title=" ">
<polygon fill="#ffffff" stroke="#000000" points="519,-123.8527 519,-153.8527 644,-153.8527 644,-123.8527 519,-123.8527"/>
<text text-anchor="start" x="527" y="-141.8527" font-family="Helvetica,sans-Serif" font-size="10.00" fill="#000000">arch::target_system</text>
<text text-anchor="middle" x="581.5" y="-130.8527" font-family="Helvetica,sans-Serif" font-size="10.00" fill="#000000">::Component::sendEvent</text>
</a>
</g>
</g>
<!-- Node1&#45;&gt;Node2 -->
<g id="edge1" class="edge">
<title>Node1&#45;&gt;Node2</title>
<path fill="none" stroke="#191970" d="M669.7552,-126.9196C661.1386,-128.0847 652.5283,-129.2489 644.2491,-130.3683"/>
<polygon fill="#191970" stroke="#191970" points="670.4128,-130.3626 679.8536,-125.5542 669.4748,-123.4257 670.4128,-130.3626"/>
</g>
<!-- Node7 -->
<g id="node7" class="node">
<title>Node7</title>
<g id="a_node7"><a xlink:href="classarch_1_1target__system_1_1Component.html#adc6ecb4090656eeac2289ec147a20f81" target="_top" xlink:title=" ">
<polygon fill="#ffffff" stroke="#000000" points="355,-74.8527 355,-104.8527 483,-104.8527 483,-74.8527 355,-74.8527"/>
<text text-anchor="start" x="363" y="-92.8527" font-family="Helvetica,sans-Serif" font-size="10.00" fill="#000000">arch::target_system</text>
<text text-anchor="middle" x="419" y="-81.8527" font-family="Helvetica,sans-Serif" font-size="10.00" fill="#000000">::Component::sendStatus</text>
</a>
</g>
</g>
<!-- Node1&#45;&gt;Node7 -->
<g id="edge6" class="edge">
<title>Node1&#45;&gt;Node7</title>
<path fill="none" stroke="#191970" d="M669.7126,-108.2874C611.075,-103.9759 535.7537,-98.4375 483.0395,-94.5615"/>
<polygon fill="#191970" stroke="#191970" points="669.4844,-111.78 679.7142,-109.0229 669.9978,-104.7989 669.4844,-111.78"/>
</g>
<!-- Node3 -->
<g id="node3" class="node">
<title>Node3</title>
<g id="a_node3"><a xlink:href="classarch_1_1target__system_1_1Component.html#a766a2494155aaa42b3c8162cefb11b77" target="_top" xlink:title=" ">
<polygon fill="#ffffff" stroke="#000000" points="362.5,-172.8527 362.5,-202.8527 475.5,-202.8527 475.5,-172.8527 362.5,-172.8527"/>
<text text-anchor="start" x="370.5" y="-190.8527" font-family="Helvetica,sans-Serif" font-size="10.00" fill="#000000">arch::target_system</text>
<text text-anchor="middle" x="419" y="-179.8527" font-family="Helvetica,sans-Serif" font-size="10.00" fill="#000000">::Component::activate</text>
</a>
</g>
</g>
<!-- Node2&#45;&gt;Node3 -->
<g id="edge2" class="edge">
<title>Node2&#45;&gt;Node3</title>
<path fill="none" stroke="#191970" d="M521.4317,-156.9656C504.1559,-162.1749 485.5067,-167.7984 468.9159,-172.8011"/>
<polygon fill="#191970" stroke="#191970" points="522.855,-160.1922 531.4187,-153.9541 520.834,-153.4902 522.855,-160.1922"/>
</g>
<!-- Node6 -->
<g id="node6" class="node">
<title>Node6</title>
<g id="a_node6"><a xlink:href="classarch_1_1target__system_1_1Component.html#a7e504b0c12531376d3cca170a23b18e3" target="_top" xlink:title=" ">
<polygon fill="#ffffff" stroke="#000000" points="357,-123.8527 357,-153.8527 481,-153.8527 481,-123.8527 357,-123.8527"/>
<text text-anchor="start" x="365" y="-141.8527" font-family="Helvetica,sans-Serif" font-size="10.00" fill="#000000">arch::target_system</text>
<text text-anchor="middle" x="419" y="-130.8527" font-family="Helvetica,sans-Serif" font-size="10.00" fill="#000000">::Component::deactivate</text>
</a>
</g>
</g>
<!-- Node2&#45;&gt;Node6 -->
<g id="edge5" class="edge">
<title>Node2&#45;&gt;Node6</title>
<path fill="none" stroke="#191970" d="M508.4539,-138.8527C499.3279,-138.8527 490.0625,-138.8527 481.1244,-138.8527"/>
<polygon fill="#191970" stroke="#191970" points="508.6733,-142.3528 518.6733,-138.8527 508.6732,-135.3528 508.6733,-142.3528"/>
</g>
<!-- Node4 -->
<g id="node4" class="node">
<title>Node4</title>
<g id="a_node4"><a xlink:href="classarch_1_1target__system_1_1Component.html#a6a7bf2a65bcc78fc61167205509091a5" target="_top" xlink:title=" ">
<polygon fill="#ffffff" stroke="#000000" points="214,-172.8527 214,-202.8527 319,-202.8527 319,-172.8527 214,-172.8527"/>
<text text-anchor="start" x="222" y="-190.8527" font-family="Helvetica,sans-Serif" font-size="10.00" fill="#000000">arch::target_system</text>
<text text-anchor="middle" x="266.5" y="-179.8527" font-family="Helvetica,sans-Serif" font-size="10.00" fill="#000000">::Component::setUp</text>
</a>
</g>
</g>
<!-- Node3&#45;&gt;Node4 -->
<g id="edge3" class="edge">
<title>Node3&#45;&gt;Node4</title>
<path fill="none" stroke="#191970" d="M352.1406,-187.8527C341.059,-187.8527 329.7087,-187.8527 319.0452,-187.8527"/>
<polygon fill="#191970" stroke="#191970" points="352.2147,-191.3528 362.2146,-187.8527 352.2146,-184.3528 352.2147,-191.3528"/>
</g>
<!-- Node5 -->
<g id="node5" class="node">
<title>Node5</title>
<g id="a_node5"><a xlink:href="classarch_1_1target__system_1_1Component.html#ac590323763a5ea9e7edf1a5e67f8a94f" target="_top" xlink:title=" ">
<polygon fill="#ffffff" stroke="#000000" points="74,-150.8527 74,-180.8527 178,-180.8527 178,-150.8527 74,-150.8527"/>
<text text-anchor="start" x="82" y="-168.8527" font-family="Helvetica,sans-Serif" font-size="10.00" fill="#000000">arch::target_system</text>
<text text-anchor="middle" x="126" y="-157.8527" font-family="Helvetica,sans-Serif" font-size="10.00" fill="#000000">::Component::run</text>
</a>
</g>
</g>
<!-- Node4&#45;&gt;Node5 -->
<g id="edge4" class="edge">
<title>Node4&#45;&gt;Node5</title>
<path fill="none" stroke="#191970" d="M203.7957,-178.0342C195.2015,-176.6885 186.4549,-175.3189 178.0784,-174.0073"/>
<polygon fill="#191970" stroke="#191970" points="203.3622,-181.5089 213.7833,-179.5981 204.4451,-174.5932 203.3622,-181.5089"/>
</g>
<!-- Node7&#45;&gt;Node4 -->
<g id="edge16" class="edge">
<title>Node7&#45;&gt;Node4</title>
<path fill="none" stroke="#191970" d="M362.9952,-109.7201C360.2179,-111.3223 357.5338,-113.032 355,-114.8527 334.7592,-129.3973 338.1201,-141.8634 319,-157.8527 312.3965,-163.3749 304.6369,-168.4374 297.1393,-172.7682"/>
<polygon fill="#191970" stroke="#191970" points="364.8652,-112.6922 372.1125,-104.9638 361.6275,-106.486 364.8652,-112.6922"/>
</g>
<!-- Node7&#45;&gt;Node5 -->
<g id="edge13" class="edge">
<title>Node7&#45;&gt;Node5</title>
<path fill="none" stroke="#191970" d="M369.7563,-108.4874C353.7099,-114.1822 335.7218,-120.1708 319,-124.8527 271.8299,-138.0598 217.1364,-149.3052 178.043,-156.6595"/>
<polygon fill="#191970" stroke="#191970" points="371.2429,-111.6722 379.4678,-104.9938 368.8734,-105.0855 371.2429,-111.6722"/>
</g>
<!-- Node8 -->
<g id="node8" class="node">
<title>Node8</title>
<g id="a_node8"><a xlink:href="classCentralHub.html#a48b13d52b79864e84eae5012108d3211" target="_top" xlink:title=" ">
<polygon fill="#ffffff" stroke="#000000" points="220,-96.3527 220,-115.3527 313,-115.3527 313,-96.3527 220,-96.3527"/>
<text text-anchor="middle" x="266.5" y="-103.3527" font-family="Helvetica,sans-Serif" font-size="10.00" fill="#000000">CentralHub::body</text>
</a>
</g>
</g>
<!-- Node7&#45;&gt;Node8 -->
<g id="edge7" class="edge">
<title>Node7&#45;&gt;Node8</title>
<path fill="none" stroke="#191970" d="M344.5259,-97.6664C333.799,-98.7918 323.0253,-99.9222 313.0545,-100.9683"/>
<polygon fill="#191970" stroke="#191970" points="345.1881,-101.1162 354.7683,-96.5918 344.4576,-94.1544 345.1881,-101.1162"/>
</g>
<!-- Node9 -->
<g id="node9" class="node">
<title>Node9</title>
<g id="a_node9"><a xlink:href="classCentralHub.html#a388e947318a28cf7cac762ac8b1cf3d4" target="_top" xlink:title=" ">
<polygon fill="#ffffff" stroke="#000000" points="83,-67.3527 83,-86.3527 169,-86.3527 169,-67.3527 83,-67.3527"/>
<text text-anchor="middle" x="126" y="-74.3527" font-family="Helvetica,sans-Serif" font-size="10.00" fill="#000000">CentralHub::run</text>
</a>
</g>
</g>
<!-- Node7&#45;&gt;Node9 -->
<g id="edge14" class="edge">
<title>Node7&#45;&gt;Node9</title>
<path fill="none" stroke="#191970" d="M344.5745,-86.5505C289.1467,-84.0913 215.3867,-80.8187 169.3046,-78.7741"/>
<polygon fill="#191970" stroke="#191970" points="344.5546,-90.053 354.6999,-86.9998 344.8649,-83.0599 344.5546,-90.053"/>
</g>
<!-- Node11 -->
<g id="node11" class="node">
<title>Node11</title>
<g id="a_node11"><a xlink:href="classSensor.html#a043dabb8b92f70fc247d585b8d66e133" target="_top" xlink:title=" ">
<polygon fill="#ffffff" stroke="#000000" points="229.5,-20.3527 229.5,-39.3527 303.5,-39.3527 303.5,-20.3527 229.5,-20.3527"/>
<text text-anchor="middle" x="266.5" y="-27.3527" font-family="Helvetica,sans-Serif" font-size="10.00" fill="#000000">Sensor::body</text>
</a>
</g>
</g>
<!-- Node7&#45;&gt;Node11 -->
<g id="edge10" class="edge">
<title>Node7&#45;&gt;Node11</title>
<path fill="none" stroke="#191970" d="M370.9508,-70.9481C344.2433,-60.4402 312.1628,-47.8184 290.6641,-39.3599"/>
<polygon fill="#191970" stroke="#191970" points="369.9307,-74.3078 380.5178,-74.7122 372.4936,-67.7939 369.9307,-74.3078"/>
</g>
<!-- Node12 -->
<g id="node12" class="node">
<title>Node12</title>
<g id="a_node12"><a xlink:href="classSensor.html#a1a664cdb090cb4295bbdedcffb1c8499" target="_top" xlink:title=" ">
<polygon fill="#ffffff" stroke="#000000" points="92.5,-10.3527 92.5,-29.3527 159.5,-29.3527 159.5,-10.3527 92.5,-10.3527"/>
<text text-anchor="middle" x="126" y="-17.3527" font-family="Helvetica,sans-Serif" font-size="10.00" fill="#000000">Sensor::run</text>
</a>
</g>
</g>
<!-- Node7&#45;&gt;Node12 -->
<g id="edge15" class="edge">
<title>Node7&#45;&gt;Node12</title>
<path fill="none" stroke="#191970" d="M398.9661,-67.1455C380.4239,-47.9847 350.9625,-21.9547 319,-10.8527 265.6085,7.6925 198.8883,-2.0744 159.5162,-10.9175"/>
<polygon fill="#191970" stroke="#191970" points="396.588,-69.7259 405.9863,-74.617 401.6895,-64.9326 396.588,-69.7259"/>
</g>
<!-- Node8&#45;&gt;Node9 -->
<g id="edge8" class="edge">
<title>Node8&#45;&gt;Node9</title>
<path fill="none" stroke="#191970" d="M210.2625,-94.2449C196.5199,-91.4084 182.0315,-88.4179 169.0182,-85.7319"/>
<polygon fill="#191970" stroke="#191970" points="209.6046,-97.6829 220.1057,-96.2766 211.0196,-90.8274 209.6046,-97.6829"/>
</g>
<!-- Node10 -->
<g id="node10" class="node">
<title>Node10</title>
<g id="a_node10"><a xlink:href="g4t1_8cpp.html#af19ddca125f05a2090dd132045573ee4" target="_top" xlink:title=" ">
<polygon fill="#ffffff" stroke="#000000" points="0,-67.3527 0,-86.3527 38,-86.3527 38,-67.3527 0,-67.3527"/>
<text text-anchor="middle" x="19" y="-74.3527" font-family="Helvetica,sans-Serif" font-size="10.00" fill="#000000">main</text>
</a>
</g>
</g>
<!-- Node9&#45;&gt;Node10 -->
<g id="edge9" class="edge">
<title>Node9&#45;&gt;Node10</title>
<path fill="none" stroke="#191970" d="M72.4715,-76.8527C60.1223,-76.8527 47.7752,-76.8527 38.062,-76.8527"/>
<polygon fill="#191970" stroke="#191970" points="72.7875,-80.3528 82.7874,-76.8527 72.7874,-73.3528 72.7875,-80.3528"/>
</g>
<!-- Node11&#45;&gt;Node12 -->
<g id="edge11" class="edge">
<title>Node11&#45;&gt;Node12</title>
<path fill="none" stroke="#191970" d="M218.9994,-26.4719C199.5018,-25.0841 177.3833,-23.5099 159.61,-22.2449"/>
<polygon fill="#191970" stroke="#191970" points="218.9942,-29.9803 229.2175,-27.1991 219.4912,-22.9979 218.9942,-29.9803"/>
</g>
<!-- Node13 -->
<g id="node13" class="node">
<title>Node13</title>
<g id="a_node13"><a xlink:href="g3t1__1_8cpp.html#a3c04138a5bfe5d72780bb7e82a18e627" target="_top" xlink:title=" ">
<polygon fill="#ffffff" stroke="#000000" points="0,-10.3527 0,-29.3527 38,-29.3527 38,-10.3527 0,-10.3527"/>
<text text-anchor="middle" x="19" y="-17.3527" font-family="Helvetica,sans-Serif" font-size="10.00" fill="#000000">main</text>
</a>
</g>
</g>
<!-- Node12&#45;&gt;Node13 -->
<g id="edge12" class="edge">
<title>Node12&#45;&gt;Node13</title>
<path fill="none" stroke="#191970" d="M82.0697,-19.8527C66.7502,-19.8527 50.3486,-19.8527 38.1121,-19.8527"/>
<polygon fill="#191970" stroke="#191970" points="82.4381,-23.3528 92.4381,-19.8527 82.4381,-16.3528 82.4381,-23.3528"/>
</g>
</g>
</svg>
