<?xml version="1.0" encoding="UTF-8" standalone="no"?>
<!DOCTYPE svg PUBLIC "-//W3C//DTD SVG 1.1//EN"
 "http://www.w3.org/Graphics/SVG/1.1/DTD/svg11.dtd">
<!-- Generated by graphviz version 2.40.1 (20161225.0304)
 -->
<!-- Title: DataGeneratorTest Pages: 1 -->
<svg width="308pt" height="287pt"
 viewBox="0.00 0.00 308.00 287.00" xmlns="http://www.w3.org/2000/svg" xmlns:xlink="http://www.w3.org/1999/xlink">
<g id="graph0" class="graph" transform="scale(1 1) rotate(0) translate(4 283)">
<title>DataGeneratorTest</title>
<polygon fill="#ffffff" stroke="transparent" points="-4,4 -4,-283 304,-283 304,4 -4,4"/>
<!-- Node1 -->
<g id="node1" class="node">
<title>Node1</title>
<g id="a_node1"><a xlink:title=" ">
<polygon fill="#bfbfbf" stroke="#000000" points="53,-.5 53,-68.5 167,-68.5 167,-.5 53,-.5"/>
<text text-anchor="middle" x="110" y="-56.5" font-family="Helvetica,sans-Serif" font-size="10.00" fill="#000000">DataGeneratorTest</text>
<polyline fill="none" stroke="#000000" points="53,-49.5 167,-49.5 "/>
<text text-anchor="middle" x="110" y="-37.5" font-family="Helvetica,sans-Serif" font-size="10.00" fill="#000000"> </text>
<polyline fill="none" stroke="#000000" points="53,-30.5 167,-30.5 "/>
<text text-anchor="start" x="61" y="-18.5" font-family="Helvetica,sans-Serif" font-size="10.00" fill="#000000"># DataGeneratorTest()</text>
<text text-anchor="start" x="61" y="-7.5" font-family="Helvetica,sans-Serif" font-size="10.00" fill="#000000"># SetUp()</text>
</a>
</g>
</g>
<!-- Node2 -->
<g id="node2" class="node">
<title>Node2</title>
<g id="a_node2"><a xlink:title=" ">
<polygon fill="#ffffff" stroke="#bfbfbf" points="0,-116.5 0,-173.5 36,-173.5 36,-116.5 0,-116.5"/>
<text text-anchor="middle" x="18" y="-161.5" font-family="Helvetica,sans-Serif" font-size="10.00" fill="#000000">Test</text>
<polyline fill="none" stroke="#bfbfbf" points="0,-154.5 36,-154.5 "/>
<text text-anchor="middle" x="18" y="-142.5" font-family="Helvetica,sans-Serif" font-size="10.00" fill="#000000"> </text>
<polyline fill="none" stroke="#bfbfbf" points="0,-135.5 36,-135.5 "/>
<text text-anchor="middle" x="18" y="-123.5" font-family="Helvetica,sans-Serif" font-size="10.00" fill="#000000"> </text>
</a>
</g>
</g>
<!-- Node2&#45;&gt;Node1 -->
<g id="edge1" class="edge">
<title>Node2&#45;&gt;Node1</title>
<path fill="none" stroke="#191970" d="M42.8603,-115.1406C54.7403,-100.8717 69.0244,-83.7153 81.3576,-68.902"/>
<polygon fill="none" stroke="#191970" points="39.8849,-113.2442 36.1762,-123.1688 45.2645,-117.7231 39.8849,-113.2442"/>
</g>
<!-- Node3 -->
<g id="node3" class="node">
<title>Node3</title>
<g id="a_node3"><a xlink:title=" ">
<polygon fill="#ffffff" stroke="#bfbfbf" points="54.5,-116.5 54.5,-173.5 165.5,-173.5 165.5,-116.5 54.5,-116.5"/>
<text text-anchor="middle" x="110" y="-161.5" font-family="Helvetica,sans-Serif" font-size="10.00" fill="#000000">std::array&lt; float, 25 &gt;</text>
<polyline fill="none" stroke="#bfbfbf" points="54.5,-154.5 165.5,-154.5 "/>
<text text-anchor="middle" x="110" y="-142.5" font-family="Helvetica,sans-Serif" font-size="10.00" fill="#000000"> </text>
<polyline fill="none" stroke="#bfbfbf" points="54.5,-135.5 165.5,-135.5 "/>
<text text-anchor="middle" x="110" y="-123.5" font-family="Helvetica,sans-Serif" font-size="10.00" fill="#000000"> </text>
</a>
</g>
</g>
<!-- Node3&#45;&gt;Node1 -->
<g id="edge2" class="edge">
<title>Node3&#45;&gt;Node1</title>
<path fill="none" stroke="#404040" d="M110,-116.2559C110,-105.4349 110,-92.8362 110,-80.8169"/>
<polygon fill="none" stroke="#404040" points="110.0001,-80.6001 106,-74.6001 110,-68.6001 114,-74.6 110.0001,-80.6001"/>
<text text-anchor="middle" x="137" y="-90" font-family="Helvetica,sans-Serif" font-size="10.00" fill="#000000"> #transitions</text>
</g>
<!-- Node4 -->
<g id="node4" class="node">
<title>Node4</title>
<g id="a_node4"><a xlink:title=" ">
<polygon fill="#ffffff" stroke="#bfbfbf" points="92.5,-221.5 92.5,-278.5 127.5,-278.5 127.5,-221.5 92.5,-221.5"/>
<text text-anchor="middle" x="110" y="-266.5" font-family="Helvetica,sans-Serif" font-size="10.00" fill="#000000">float</text>
<polyline fill="none" stroke="#bfbfbf" points="92.5,-259.5 127.5,-259.5 "/>
<text text-anchor="middle" x="110" y="-247.5" font-family="Helvetica,sans-Serif" font-size="10.00" fill="#000000"> </text>
<polyline fill="none" stroke="#bfbfbf" points="92.5,-240.5 127.5,-240.5 "/>
<text text-anchor="middle" x="110" y="-228.5" font-family="Helvetica,sans-Serif" font-size="10.00" fill="#000000"> </text>
</a>
</g>
</g>
<!-- Node4&#45;&gt;Node3 -->
<g id="edge3" class="edge">
<title>Node4&#45;&gt;Node3</title>
<path fill="none" stroke="#404040" d="M110,-221.3083C110,-210.4281 110,-197.817 110,-186.0192"/>
<polygon fill="none" stroke="#404040" points="110.0001,-185.657 106,-179.6571 110,-173.657 114,-179.657 110.0001,-185.657"/>
<text text-anchor="middle" x="134.5" y="-195" font-family="Helvetica,sans-Serif" font-size="10.00" fill="#000000"> +elements</text>
</g>
<!-- Node5 -->
<g id="node5" class="node">
<title>Node5</title>
<g id="a_node5"><a xlink:title=" ">
<polygon fill="#ffffff" stroke="#bfbfbf" points="184,-116.5 184,-173.5 300,-173.5 300,-116.5 184,-116.5"/>
<text text-anchor="middle" x="242" y="-161.5" font-family="Helvetica,sans-Serif" font-size="10.00" fill="#000000">std::array&lt; Range, 5 &gt;</text>
<polyline fill="none" stroke="#bfbfbf" points="184,-154.5 300,-154.5 "/>
<text text-anchor="middle" x="242" y="-142.5" font-family="Helvetica,sans-Serif" font-size="10.00" fill="#000000"> </text>
<polyline fill="none" stroke="#bfbfbf" points="184,-135.5 300,-135.5 "/>
<text text-anchor="middle" x="242" y="-123.5" font-family="Helvetica,sans-Serif" font-size="10.00" fill="#000000"> </text>
</a>
</g>
</g>
<!-- Node5&#45;&gt;Node1 -->
<g id="edge4" class="edge">
<title>Node5&#45;&gt;Node1</title>
<path fill="none" stroke="#404040" d="M207.6631,-116.2559C193.24,-104.182 176.173,-89.8948 160.3735,-76.6687"/>
<polygon fill="none" stroke="#404040" points="159.9364,-76.3029 152.7681,-75.5186 150.7349,-68.6001 157.9033,-69.3843 159.9364,-76.3029"/>
<text text-anchor="middle" x="202" y="-90" font-family="Helvetica,sans-Serif" font-size="10.00" fill="#000000"> #states</text>
</g>
<!-- Node6 -->
<g id="node6" class="node">
<title>Node6</title>
<g id="a_node6"><a xlink:title=" ">
<polygon fill="#ffffff" stroke="#bfbfbf" points="219.5,-221.5 219.5,-278.5 264.5,-278.5 264.5,-221.5 219.5,-221.5"/>
<text text-anchor="middle" x="242" y="-266.5" font-family="Helvetica,sans-Serif" font-size="10.00" fill="#000000">Range</text>
<polyline fill="none" stroke="#bfbfbf" points="219.5,-259.5 264.5,-259.5 "/>
<text text-anchor="middle" x="242" y="-247.5" font-family="Helvetica,sans-Serif" font-size="10.00" fill="#000000"> </text>
<polyline fill="none" stroke="#bfbfbf" points="219.5,-240.5 264.5,-240.5 "/>
<text text-anchor="middle" x="242" y="-228.5" font-family="Helvetica,sans-Serif" font-size="10.00" fill="#000000"> </text>
</a>
</g>
</g>
<!-- Node6&#45;&gt;Node5 -->
<g id="edge5" class="edge">
<title>Node6&#45;&gt;Node5</title>
<path fill="none" stroke="#404040" d="M242,-221.3083C242,-210.4281 242,-197.817 242,-186.0192"/>
<polygon fill="none" stroke="#404040" points="242.0001,-185.657 238,-179.6571 242,-173.657 246,-179.657 242.0001,-185.657"/>
<text text-anchor="middle" x="266.5" y="-195" font-family="Helvetica,sans-Serif" font-size="10.00" fill="#000000"> +elements</text>
</g>
</g>
</svg>
