<?xml version="1.0" encoding="UTF-8" standalone="no"?>
<!DOCTYPE svg PUBLIC "-//W3C//DTD SVG 1.1//EN"
 "http://www.w3.org/Graphics/SVG/1.1/DTD/svg11.dtd">
<!-- Generated by graphviz version 2.40.1 (20161225.0304)
 -->
<!-- Title: Sensor::reconfigure Pages: 1 -->
<svg width="286pt" height="28pt"
 viewBox="0.00 0.00 286.00 28.00" xmlns="http://www.w3.org/2000/svg" xmlns:xlink="http://www.w3.org/1999/xlink">
<g id="graph0" class="graph" transform="scale(1 1) rotate(0) translate(4 24)">
<title>Sensor::reconfigure</title>
<polygon fill="#ffffff" stroke="transparent" points="-4,4 -4,-24 282,-24 282,4 -4,4"/>
<!-- Node1 -->
<g id="node1" class="node">
<title>Node1</title>
<g id="a_node1"><a xlink:title=" ">
<polygon fill="#bfbfbf" stroke="#000000" points="177,-.5 177,-19.5 278,-19.5 278,-.5 177,-.5"/>
<text text-anchor="middle" x="227.5" y="-7.5" font-family="Helvetica,sans-Serif" font-size="10.00" fill="#000000">Sensor::reconfigure</text>
</a>
</g>
</g>
<!-- Node2 -->
<g id="node2" class="node">
<title>Node2</title>
<g id="a_node2"><a xlink:href="classSensor.html#a1a664cdb090cb4295bbdedcffb1c8499" target="_top" xlink:title=" ">
<polygon fill="#ffffff" stroke="#000000" points="74,-.5 74,-19.5 141,-19.5 141,-.5 74,-.5"/>
<text text-anchor="middle" x="107.5" y="-7.5" font-family="Helvetica,sans-Serif" font-size="10.00" fill="#000000">Sensor::run</text>
</a>
</g>
</g>
<!-- Node1&#45;&gt;Node2 -->
<g id="edge1" class="edge">
<title>Node1&#45;&gt;Node2</title>
<path fill="none" stroke="#191970" d="M166.7175,-10C157.9656,-10 149.236,-10 141.2735,-10"/>
<polygon fill="#191970" stroke="#191970" points="166.957,-13.5001 176.957,-10 166.957,-6.5001 166.957,-13.5001"/>
</g>
<!-- Node3 -->
<g id="node3" class="node">
<title>Node3</title>
<g id="a_node3"><a xlink:href="g3t1__1_8cpp.html#a3c04138a5bfe5d72780bb7e82a18e627" target="_top" xlink:title=" ">
<polygon fill="#ffffff" stroke="#000000" points="0,-.5 0,-19.5 38,-19.5 38,-.5 0,-.5"/>
<text text-anchor="middle" x="19" y="-7.5" font-family="Helvetica,sans-Serif" font-size="10.00" fill="#000000">main</text>
</a>
</g>
</g>
<!-- Node2&#45;&gt;Node3 -->
<g id="edge2" class="edge">
<title>Node2&#45;&gt;Node3</title>
<path fill="none" stroke="#191970" d="M63.6813,-10C54.6482,-10 45.5912,-10 38.016,-10"/>
<polygon fill="#191970" stroke="#191970" points="63.7895,-13.5001 73.7895,-10 63.7894,-6.5001 63.7895,-13.5001"/>
</g>
</g>
</svg>
