<?xml version="1.0" encoding="UTF-8" standalone="no"?>
<!DOCTYPE svg PUBLIC "-//W3C//DTD SVG 1.1//EN"
 "http://www.w3.org/Graphics/SVG/1.1/DTD/svg11.dtd">
<!-- Generated by graphviz version 2.40.1 (20161225.0304)
 -->
<!-- Title: Engine::setUp Pages: 1 -->
<svg width="281pt" height="78pt"
 viewBox="0.00 0.00 281.00 77.50" xmlns="http://www.w3.org/2000/svg" xmlns:xlink="http://www.w3.org/1999/xlink">
<g id="graph0" class="graph" transform="scale(1 1) rotate(0) translate(4 73.5)">
<title>Engine::setUp</title>
<polygon fill="#ffffff" stroke="transparent" points="-4,4 -4,-73.5 277,-73.5 277,4 -4,4"/>
<!-- Node1 -->
<g id="node1" class="node">
<title>Node1</title>
<g id="a_node1"><a xlink:title=" ">
<polygon fill="#bfbfbf" stroke="#000000" points="0,-22.5 0,-41.5 79,-41.5 79,-22.5 0,-22.5"/>
<text text-anchor="middle" x="39.5" y="-29.5" font-family="Helvetica,sans-Serif" font-size="10.00" fill="#000000">Engine::setUp</text>
</a>
</g>
</g>
<!-- Node2 -->
<g id="node2" class="node">
<title>Node2</title>
<g id="a_node2"><a xlink:href="classarch_1_1ROSComponentDescriptor.html#a6ae1f0c4c644bce7bc7e99e408dc7ca0" target="_top" xlink:title=" ">
<polygon fill="#ffffff" stroke="#000000" points="115,-39 115,-69 273,-69 273,-39 115,-39"/>
<text text-anchor="start" x="123" y="-57" font-family="Helvetica,sans-Serif" font-size="10.00" fill="#000000">arch::ROSComponentDescriptor</text>
<text text-anchor="middle" x="194" y="-46" font-family="Helvetica,sans-Serif" font-size="10.00" fill="#000000">::setFreq</text>
</a>
</g>
</g>
<!-- Node1&#45;&gt;Node2 -->
<g id="edge1" class="edge">
<title>Node1&#45;&gt;Node2</title>
<path fill="none" stroke="#191970" d="M79.2876,-37.6655C87.2128,-38.7941 95.8322,-40.0214 104.6678,-41.2796"/>
<polygon fill="#191970" stroke="#191970" points="104.3162,-44.7647 114.7098,-42.7095 105.3031,-37.8346 104.3162,-44.7647"/>
</g>
<!-- Node3 -->
<g id="node3" class="node">
<title>Node3</title>
<g id="a_node3"><a xlink:href="namespacebsn_1_1utils.html#a4ab7be3d27380abe032f4ceec86b09b2" target="_top" xlink:title=" ">
<polygon fill="#ffffff" stroke="#000000" points="154,-.5 154,-19.5 234,-19.5 234,-.5 154,-.5"/>
<text text-anchor="middle" x="194" y="-7.5" font-family="Helvetica,sans-Serif" font-size="10.00" fill="#000000">bsn::utils::split</text>
</a>
</g>
</g>
<!-- Node1&#45;&gt;Node3 -->
<g id="edge2" class="edge">
<title>Node1&#45;&gt;Node3</title>
<path fill="none" stroke="#191970" d="M79.2876,-26.3345C98.9575,-23.5336 122.9031,-20.1238 143.8183,-17.1456"/>
<polygon fill="#191970" stroke="#191970" points="144.4036,-20.5977 153.8103,-15.7228 143.4167,-13.6676 144.4036,-20.5977"/>
</g>
</g>
</svg>
