<?xml version="1.0" encoding="UTF-8" standalone="no"?>
<!DOCTYPE svg PUBLIC "-//W3C//DTD SVG 1.1//EN"
 "http://www.w3.org/Graphics/SVG/1.1/DTD/svg11.dtd">
<!-- Generated by graphviz version 2.40.1 (20161225.0304)
 -->
<!-- Title: archlib/src/target_system/Component.cpp Pages: 1 -->
<svg width="765pt" height="274pt"
 viewBox="0.00 0.00 765.10 274.00" xmlns="http://www.w3.org/2000/svg" xmlns:xlink="http://www.w3.org/1999/xlink">
<g id="graph0" class="graph" transform="scale(1 1) rotate(0) translate(4 270)">
<title>archlib/src/target_system/Component.cpp</title>
<polygon fill="#ffffff" stroke="transparent" points="-4,4 -4,-270 761.1031,-270 761.1031,4 -4,4"/>
<!-- Node1 -->
<g id="node1" class="node">
<title>Node1</title>
<g id="a_node1"><a xlink:title=" ">
<polygon fill="#bfbfbf" stroke="#000000" points="273.4696,-235.5 273.4696,-265.5 399.4696,-265.5 399.4696,-235.5 273.4696,-235.5"/>
<text text-anchor="start" x="281.4696" y="-253.5" font-family="Helvetica,sans-Serif" font-size="10.00" fill="#000000">archlib/src/target</text>
<text text-anchor="middle" x="336.4696" y="-242.5" font-family="Helvetica,sans-Serif" font-size="10.00" fill="#000000">_system/Component.cpp</text>
</a>
</g>
</g>
<!-- Node2 -->
<g id="node2" class="node">
<title>Node2</title>
<g id="a_node2"><a xlink:href="Component_8hpp.html" target="_top" xlink:title=" ">
<polygon fill="#ffffff" stroke="#000000" points="281.4696,-168.5 281.4696,-198.5 391.4696,-198.5 391.4696,-168.5 281.4696,-168.5"/>
<text text-anchor="start" x="289.4696" y="-186.5" font-family="Helvetica,sans-Serif" font-size="10.00" fill="#000000">archlib/target_system</text>
<text text-anchor="middle" x="336.4696" y="-175.5" font-family="Helvetica,sans-Serif" font-size="10.00" fill="#000000">/Component.hpp</text>
</a>
</g>
</g>
<!-- Node1&#45;&gt;Node2 -->
<g id="edge1" class="edge">
<title>Node1&#45;&gt;Node2</title>
<path fill="none" stroke="#191970" d="M336.4696,-235.2967C336.4696,-227.5013 336.4696,-217.7991 336.4696,-208.9064"/>
<polygon fill="#191970" stroke="#191970" points="339.9697,-208.6431 336.4696,-198.6432 332.9697,-208.6432 339.9697,-208.6431"/>
</g>
<!-- Node3 -->
<g id="node3" class="node">
<title>Node3</title>
<g id="a_node3"><a xlink:title=" ">
<polygon fill="#ffffff" stroke="#bfbfbf" points="42.9696,-.5 42.9696,-19.5 83.9696,-19.5 83.9696,-.5 42.9696,-.5"/>
<text text-anchor="middle" x="63.4696" y="-7.5" font-family="Helvetica,sans-Serif" font-size="10.00" fill="#000000">string</text>
</a>
</g>
</g>
<!-- Node2&#45;&gt;Node3 -->
<g id="edge2" class="edge">
<title>Node2&#45;&gt;Node3</title>
<path fill="none" stroke="#191970" d="M281.4582,-178.7106C192.918,-170.4404 26.9042,-152.3953 9.4696,-132 -17.9459,-99.9288 20.9937,-51.7293 45.7392,-26.5913"/>
<polygon fill="#191970" stroke="#191970" points="48.199,-29.0813 52.874,-19.5737 43.2903,-24.0907 48.199,-29.0813"/>
</g>
<!-- Node4 -->
<g id="node4" class="node">
<title>Node4</title>
<g id="a_node4"><a xlink:title=" ">
<polygon fill="#ffffff" stroke="#bfbfbf" points="18.4696,-112.5 18.4696,-131.5 68.4696,-131.5 68.4696,-112.5 18.4696,-112.5"/>
<text text-anchor="middle" x="43.4696" y="-119.5" font-family="Helvetica,sans-Serif" font-size="10.00" fill="#000000">signal.h</text>
</a>
</g>
</g>
<!-- Node2&#45;&gt;Node4 -->
<g id="edge3" class="edge">
<title>Node2&#45;&gt;Node4</title>
<path fill="none" stroke="#191970" d="M281.3331,-174.019C230.9447,-165.0206 154.1976,-150.4803 78.7975,-132.1692"/>
<polygon fill="#191970" stroke="#191970" points="79.1982,-128.6638 68.6522,-129.6802 77.5302,-135.4622 79.1982,-128.6638"/>
</g>
<!-- Node5 -->
<g id="node5" class="node">
<title>Node5</title>
<g id="a_node5"><a xlink:title=" ">
<polygon fill="#ffffff" stroke="#bfbfbf" points="353.9696,-.5 353.9696,-19.5 408.9696,-19.5 408.9696,-.5 353.9696,-.5"/>
<text text-anchor="middle" x="381.4696" y="-7.5" font-family="Helvetica,sans-Serif" font-size="10.00" fill="#000000">ros/ros.h</text>
</a>
</g>
</g>
<!-- Node2&#45;&gt;Node5 -->
<g id="edge4" class="edge">
<title>Node2&#45;&gt;Node5</title>
<path fill="none" stroke="#191970" d="M391.5241,-180.6626C498.9256,-174.562 728.0045,-158.557 751.4696,-132 798.232,-79.0759 522.4963,-31.3142 419.2916,-15.5096"/>
<polygon fill="#191970" stroke="#191970" points="419.7002,-12.0316 409.289,-13.9954 418.6524,-18.9528 419.7002,-12.0316"/>
</g>
<!-- Node6 -->
<g id="node6" class="node">
<title>Node6</title>
<g id="a_node6"><a xlink:title=" ">
<polygon fill="#ffffff" stroke="#bfbfbf" points="244.4696,-112.5 244.4696,-131.5 326.4696,-131.5 326.4696,-112.5 244.4696,-112.5"/>
<text text-anchor="middle" x="285.4696" y="-119.5" font-family="Helvetica,sans-Serif" font-size="10.00" fill="#000000">archlib/Event.h</text>
</a>
</g>
</g>
<!-- Node2&#45;&gt;Node6 -->
<g id="edge5" class="edge">
<title>Node2&#45;&gt;Node6</title>
<path fill="none" stroke="#191970" d="M323.8629,-168.2977C316.7098,-159.672 307.7199,-148.8312 300.2378,-139.8087"/>
<polygon fill="#191970" stroke="#191970" points="302.7129,-137.3103 293.6354,-131.8469 297.3246,-141.7787 302.7129,-137.3103"/>
</g>
<!-- Node7 -->
<g id="node7" class="node">
<title>Node7</title>
<g id="a_node7"><a xlink:title=" ">
<polygon fill="#ffffff" stroke="#bfbfbf" points="344.9696,-112.5 344.9696,-131.5 429.9696,-131.5 429.9696,-112.5 344.9696,-112.5"/>
<text text-anchor="middle" x="387.4696" y="-119.5" font-family="Helvetica,sans-Serif" font-size="10.00" fill="#000000">archlib/Status.h</text>
</a>
</g>
</g>
<!-- Node2&#45;&gt;Node7 -->
<g id="edge6" class="edge">
<title>Node2&#45;&gt;Node7</title>
<path fill="none" stroke="#191970" d="M349.0764,-168.2977C356.2294,-159.672 365.2193,-148.8312 372.7015,-139.8087"/>
<polygon fill="#191970" stroke="#191970" points="375.6146,-141.7787 379.3039,-131.8469 370.2263,-137.3103 375.6146,-141.7787"/>
</g>
<!-- Node8 -->
<g id="node8" class="node">
<title>Node8</title>
<g id="a_node8"><a xlink:title=" ">
<polygon fill="#ffffff" stroke="#bfbfbf" points="448.4696,-112.5 448.4696,-131.5 596.4696,-131.5 596.4696,-112.5 448.4696,-112.5"/>
<text text-anchor="middle" x="522.4696" y="-119.5" font-family="Helvetica,sans-Serif" font-size="10.00" fill="#000000">archlib/AdaptationCommand.h</text>
</a>
</g>
</g>
<!-- Node2&#45;&gt;Node8 -->
<g id="edge7" class="edge">
<title>Node2&#45;&gt;Node8</title>
<path fill="none" stroke="#191970" d="M381.9703,-168.4554C413.2772,-158.104 454.4005,-144.5067 484.0586,-134.7004"/>
<polygon fill="#191970" stroke="#191970" points="485.2505,-137.9927 493.6462,-131.5303 483.053,-131.3466 485.2505,-137.9927"/>
</g>
<!-- Node9 -->
<g id="node9" class="node">
<title>Node9</title>
<g id="a_node9"><a xlink:title=" ">
<polygon fill="#ffffff" stroke="#bfbfbf" points="614.4696,-112.5 614.4696,-131.5 742.4696,-131.5 742.4696,-112.5 614.4696,-112.5"/>
<text text-anchor="middle" x="678.4696" y="-119.5" font-family="Helvetica,sans-Serif" font-size="10.00" fill="#000000">archlib/EffectorRegister.h</text>
</a>
</g>
</g>
<!-- Node2&#45;&gt;Node9 -->
<g id="edge8" class="edge">
<title>Node2&#45;&gt;Node9</title>
<path fill="none" stroke="#191970" d="M391.7979,-173.5506C452.9902,-162.5467 551.3857,-144.8528 615.4883,-133.3256"/>
<polygon fill="#191970" stroke="#191970" points="616.2484,-136.7451 625.471,-131.5304 615.0094,-129.8556 616.2484,-136.7451"/>
</g>
<!-- Node10 -->
<g id="node10" class="node">
<title>Node10</title>
<g id="a_node10"><a xlink:href="ROSComponent_8hpp.html" target="_top" xlink:title=" ">
<polygon fill="#ffffff" stroke="#000000" points="86.9696,-112.5 86.9696,-131.5 225.9696,-131.5 225.9696,-112.5 86.9696,-112.5"/>
<text text-anchor="middle" x="156.4696" y="-119.5" font-family="Helvetica,sans-Serif" font-size="10.00" fill="#000000">archlib/ROSComponent.hpp</text>
</a>
</g>
</g>
<!-- Node2&#45;&gt;Node10 -->
<g id="edge9" class="edge">
<title>Node2&#45;&gt;Node10</title>
<path fill="none" stroke="#191970" d="M292.4367,-168.4554C262.2715,-158.149 222.6888,-144.6249 194.0166,-134.8286"/>
<polygon fill="#191970" stroke="#191970" points="194.9578,-131.4515 184.3632,-131.5303 192.6945,-138.0756 194.9578,-131.4515"/>
</g>
<!-- Node10&#45;&gt;Node3 -->
<g id="edge10" class="edge">
<title>Node10&#45;&gt;Node3</title>
<path fill="none" stroke="#191970" d="M132.1747,-112.4669C115.8786,-104.8914 95.1522,-92.7712 82.4696,-76 72.3683,-62.6422 67.6318,-44.075 65.414,-30.0355"/>
<polygon fill="#191970" stroke="#191970" points="68.8623,-29.4076 64.121,-19.9328 61.9189,-30.2963 68.8623,-29.4076"/>
</g>
<!-- Node10&#45;&gt;Node5 -->
<g id="edge12" class="edge">
<title>Node10&#45;&gt;Node5</title>
<path fill="none" stroke="#191970" d="M212.6621,-112.4833C269.8149,-102.3282 351.5121,-86.3128 362.4696,-76 375.0625,-64.148 379.4851,-44.542 380.953,-29.7717"/>
<polygon fill="#191970" stroke="#191970" points="384.4563,-29.8264 381.586,-19.6278 377.4699,-29.3904 384.4563,-29.8264"/>
</g>
<!-- Node11 -->
<g id="node11" class="node">
<title>Node11</title>
<g id="a_node11"><a xlink:title=" ">
<polygon fill="#ffffff" stroke="#bfbfbf" points="91.9696,-56.5 91.9696,-75.5 150.9696,-75.5 150.9696,-56.5 91.9696,-56.5"/>
<text text-anchor="middle" x="121.4696" y="-63.5" font-family="Helvetica,sans-Serif" font-size="10.00" fill="#000000">stdexcept</text>
</a>
</g>
</g>
<!-- Node10&#45;&gt;Node11 -->
<g id="edge11" class="edge">
<title>Node10&#45;&gt;Node11</title>
<path fill="none" stroke="#191970" d="M150.3731,-112.2455C145.5551,-104.5367 138.6945,-93.5598 132.8664,-84.2348"/>
<polygon fill="#191970" stroke="#191970" points="135.7643,-82.2677 127.4963,-75.6427 129.8283,-85.9777 135.7643,-82.2677"/>
</g>
<!-- Node12 -->
<g id="node12" class="node">
<title>Node12</title>
<g id="a_node12"><a xlink:href="ROSComponentDescriptor_8hpp.html" target="_top" xlink:title=" ">
<polygon fill="#ffffff" stroke="#000000" points="169.4696,-56.5 169.4696,-75.5 353.4696,-75.5 353.4696,-56.5 169.4696,-56.5"/>
<text text-anchor="middle" x="261.4696" y="-63.5" font-family="Helvetica,sans-Serif" font-size="10.00" fill="#000000">archlib/ROSComponentDescriptor.hpp</text>
</a>
</g>
</g>
<!-- Node10&#45;&gt;Node12 -->
<g id="edge13" class="edge">
<title>Node10&#45;&gt;Node12</title>
<path fill="none" stroke="#191970" d="M174.7592,-112.2455C191.2459,-103.4527 215.7048,-90.4079 234.4462,-80.4125"/>
<polygon fill="#191970" stroke="#191970" points="236.2131,-83.4368 243.3896,-75.6427 232.919,-77.2604 236.2131,-83.4368"/>
</g>
<!-- Node12&#45;&gt;Node3 -->
<g id="edge14" class="edge">
<title>Node12&#45;&gt;Node3</title>
<path fill="none" stroke="#191970" d="M227.4322,-56.3733C189.8955,-45.7568 130.0506,-28.831 93.9841,-18.6304"/>
<polygon fill="#191970" stroke="#191970" points="94.618,-15.1724 84.0429,-15.8187 92.7129,-21.9082 94.618,-15.1724"/>
</g>
<!-- Node12&#45;&gt;Node5 -->
<g id="edge15" class="edge">
<title>Node12&#45;&gt;Node5</title>
<path fill="none" stroke="#191970" d="M282.0984,-56.3733C301.3615,-47.3838 330.3182,-33.8706 352.0115,-23.7471"/>
<polygon fill="#191970" stroke="#191970" points="353.5284,-26.9017 361.1101,-19.5011 350.5681,-20.5584 353.5284,-26.9017"/>
</g>
</g>
</svg>
