<?xml version="1.0" encoding="UTF-8" standalone="no"?>
<!DOCTYPE svg PUBLIC "-//W3C//DTD SVG 1.1//EN"
 "http://www.w3.org/Graphics/SVG/1.1/DTD/svg11.dtd">
<!-- Generated by graphviz version 2.40.1 (20161225.0304)
 -->
<!-- Title: lepton/include/CompiledExpression.h Pages: 1 -->
<svg width="493pt" height="84pt"
 viewBox="0.00 0.00 493.00 84.00" xmlns="http://www.w3.org/2000/svg" xmlns:xlink="http://www.w3.org/1999/xlink">
<g id="graph0" class="graph" transform="scale(1 1) rotate(0) translate(4 80)">
<title>lepton/include/CompiledExpression.h</title>
<polygon fill="#ffffff" stroke="transparent" points="-4,4 -4,-80 489,-80 489,4 -4,4"/>
<!-- Node1 -->
<g id="node1" class="node">
<title>Node1</title>
<g id="a_node1"><a xlink:title=" ">
<polygon fill="#bfbfbf" stroke="#000000" points="131.5,-56.5 131.5,-75.5 309.5,-75.5 309.5,-56.5 131.5,-56.5"/>
<text text-anchor="middle" x="220.5" y="-63.5" font-family="Helvetica,sans-Serif" font-size="10.00" fill="#000000">lepton/include/CompiledExpression.h</text>
</a>
</g>
</g>
<!-- Node2 -->
<g id="node2" class="node">
<title>Node2</title>
<g id="a_node2"><a xlink:href="Lepton_8h.html" target="_top" xlink:title=" ">
<polygon fill="#ffffff" stroke="#000000" points="0,-.5 0,-19.5 117,-19.5 117,-.5 0,-.5"/>
<text text-anchor="middle" x="58.5" y="-7.5" font-family="Helvetica,sans-Serif" font-size="10.00" fill="#000000">lepton/include/Lepton.h</text>
</a>
</g>
</g>
<!-- Node1&#45;&gt;Node2 -->
<g id="edge1" class="edge">
<title>Node1&#45;&gt;Node2</title>
<path fill="none" stroke="#191970" d="M183.0578,-53.057C153.4099,-42.8084 112.6804,-28.729 85.9854,-19.5011"/>
<polygon fill="#191970" stroke="#191970" points="182.0564,-56.414 192.6512,-56.3733 184.3435,-49.7982 182.0564,-56.414"/>
</g>
<!-- Node3 -->
<g id="node3" class="node">
<title>Node3</title>
<g id="a_node3"><a xlink:href="CompiledExpression_8cpp.html" target="_top" xlink:title=" ">
<polygon fill="#ffffff" stroke="#000000" points="135,-.5 135,-19.5 306,-19.5 306,-.5 135,-.5"/>
<text text-anchor="middle" x="220.5" y="-7.5" font-family="Helvetica,sans-Serif" font-size="10.00" fill="#000000">lepton/src/CompiledExpression.cpp</text>
</a>
</g>
</g>
<!-- Node1&#45;&gt;Node3 -->
<g id="edge2" class="edge">
<title>Node1&#45;&gt;Node3</title>
<path fill="none" stroke="#191970" d="M220.5,-46.1575C220.5,-37.155 220.5,-26.9199 220.5,-19.6427"/>
<polygon fill="#191970" stroke="#191970" points="217.0001,-46.2455 220.5,-56.2455 224.0001,-46.2456 217.0001,-46.2455"/>
</g>
<!-- Node4 -->
<g id="node4" class="node">
<title>Node4</title>
<g id="a_node4"><a xlink:href="ParsedExpression_8cpp.html" target="_top" xlink:title=" ">
<polygon fill="#ffffff" stroke="#000000" points="324,-.5 324,-19.5 485,-19.5 485,-.5 324,-.5"/>
<text text-anchor="middle" x="404.5" y="-7.5" font-family="Helvetica,sans-Serif" font-size="10.00" fill="#000000">lepton/src/ParsedExpression.cpp</text>
</a>
</g>
</g>
<!-- Node1&#45;&gt;Node4 -->
<g id="edge3" class="edge">
<title>Node1&#45;&gt;Node4</title>
<path fill="none" stroke="#191970" d="M261.7157,-53.4561C295.4916,-43.1765 342.5663,-28.8494 373.282,-19.5011"/>
<polygon fill="#191970" stroke="#191970" points="260.6784,-50.1132 252.1307,-56.3733 262.7166,-56.8099 260.6784,-50.1132"/>
</g>
</g>
</svg>
