<?xml version="1.0" encoding="UTF-8" standalone="no"?>
<!DOCTYPE svg PUBLIC "-//W3C//DTD SVG 1.1//EN"
 "http://www.w3.org/Graphics/SVG/1.1/DTD/svg11.dtd">
<!-- Generated by graphviz version 2.40.1 (20161225.0304)
 -->
<!-- Title: libbsn/include/goalmodel/Context.hpp Pages: 1 -->
<svg width="876pt" height="240pt"
 viewBox="0.00 0.00 876.00 240.00" xmlns="http://www.w3.org/2000/svg" xmlns:xlink="http://www.w3.org/1999/xlink">
<g id="graph0" class="graph" transform="scale(1 1) rotate(0) translate(4 236)">
<title>libbsn/include/goalmodel/Context.hpp</title>
<polygon fill="#ffffff" stroke="transparent" points="-4,4 -4,-236 872,-236 872,4 -4,4"/>
<!-- Node1 -->
<g id="node1" class="node">
<title>Node1</title>
<g id="a_node1"><a xlink:title=" ">
<polygon fill="#bfbfbf" stroke="#000000" points="420.5,-201.5 420.5,-231.5 543.5,-231.5 543.5,-201.5 420.5,-201.5"/>
<text text-anchor="start" x="428.5" y="-219.5" font-family="Helvetica,sans-Serif" font-size="10.00" fill="#000000">libbsn/include/goalmodel</text>
<text text-anchor="middle" x="482" y="-208.5" font-family="Helvetica,sans-Serif" font-size="10.00" fill="#000000">/Context.hpp</text>
</a>
</g>
</g>
<!-- Node2 -->
<g id="node2" class="node">
<title>Node2</title>
<g id="a_node2"><a xlink:href="LeafTask_8hpp.html" target="_top" xlink:title=" ">
<polygon fill="#ffffff" stroke="#000000" points="230.5,-134.5 230.5,-164.5 353.5,-164.5 353.5,-134.5 230.5,-134.5"/>
<text text-anchor="start" x="238.5" y="-152.5" font-family="Helvetica,sans-Serif" font-size="10.00" fill="#000000">libbsn/include/goalmodel</text>
<text text-anchor="middle" x="292" y="-141.5" font-family="Helvetica,sans-Serif" font-size="10.00" fill="#000000">/LeafTask.hpp</text>
</a>
</g>
</g>
<!-- Node1&#45;&gt;Node2 -->
<g id="edge1" class="edge">
<title>Node1&#45;&gt;Node2</title>
<path fill="none" stroke="#191970" d="M429.5437,-198.0023C399.7336,-187.4903 362.8798,-174.4945 334.8257,-164.6017"/>
<polygon fill="#191970" stroke="#191970" points="428.7655,-201.439 439.3603,-201.4639 431.0935,-194.8374 428.7655,-201.439"/>
</g>
<!-- Node7 -->
<g id="node7" class="node">
<title>Node7</title>
<g id="a_node7"><a xlink:href="LeafTaskTest_8cpp.html" target="_top" xlink:title=" ">
<polygon fill="#ffffff" stroke="#000000" points="340,-67.5 340,-97.5 468,-97.5 468,-67.5 340,-67.5"/>
<text text-anchor="start" x="348" y="-85.5" font-family="Helvetica,sans-Serif" font-size="10.00" fill="#000000">libbsn/test/unit/goalmodel</text>
<text text-anchor="middle" x="404" y="-74.5" font-family="Helvetica,sans-Serif" font-size="10.00" fill="#000000">/LeafTaskTest.cpp</text>
</a>
</g>
</g>
<!-- Node1&#45;&gt;Node7 -->
<g id="edge12" class="edge">
<title>Node1&#45;&gt;Node7</title>
<path fill="none" stroke="#191970" d="M467.3512,-192.4348C462.1435,-183.8085 456.2676,-173.9937 451,-165 437.3371,-141.6727 421.891,-114.3755 412.5536,-97.7683"/>
<polygon fill="#191970" stroke="#191970" points="464.5057,-194.4928 472.6795,-201.2337 470.4934,-190.8668 464.5057,-194.4928"/>
</g>
<!-- Node8 -->
<g id="node8" class="node">
<title>Node8</title>
<g id="a_node8"><a xlink:href="TaskTest_8cpp.html" target="_top" xlink:title=" ">
<polygon fill="#ffffff" stroke="#000000" points="486,-67.5 486,-97.5 614,-97.5 614,-67.5 486,-67.5"/>
<text text-anchor="start" x="494" y="-85.5" font-family="Helvetica,sans-Serif" font-size="10.00" fill="#000000">libbsn/test/unit/goalmodel</text>
<text text-anchor="middle" x="550" y="-74.5" font-family="Helvetica,sans-Serif" font-size="10.00" fill="#000000">/TaskTest.cpp</text>
</a>
</g>
</g>
<!-- Node1&#45;&gt;Node8 -->
<g id="edge13" class="edge">
<title>Node1&#45;&gt;Node8</title>
<path fill="none" stroke="#191970" d="M466.774,-192.4071C458.0072,-175.2154 450.5961,-152.0404 461,-134 470.5426,-117.453 487.6563,-105.7414 504.3451,-97.7137"/>
<polygon fill="#191970" stroke="#191970" points="463.7752,-194.2167 471.6793,-201.2719 469.9,-190.8275 463.7752,-194.2167"/>
</g>
<!-- Node9 -->
<g id="node9" class="node">
<title>Node9</title>
<g id="a_node9"><a xlink:href="Context_8cpp.html" target="_top" xlink:title=" ">
<polygon fill="#ffffff" stroke="#000000" points="470,-134.5 470,-164.5 576,-164.5 576,-134.5 470,-134.5"/>
<text text-anchor="start" x="478" y="-152.5" font-family="Helvetica,sans-Serif" font-size="10.00" fill="#000000">libbsn/src/goalmodel</text>
<text text-anchor="middle" x="523" y="-141.5" font-family="Helvetica,sans-Serif" font-size="10.00" fill="#000000">/Context.cpp</text>
</a>
</g>
</g>
<!-- Node1&#45;&gt;Node9 -->
<g id="edge9" class="edge">
<title>Node1&#45;&gt;Node9</title>
<path fill="none" stroke="#191970" d="M496.6965,-192.4837C502.3778,-183.1996 508.7072,-172.8565 513.7333,-164.6432"/>
<polygon fill="#191970" stroke="#191970" points="493.5378,-190.9401 491.3035,-201.2967 499.5086,-194.5939 493.5378,-190.9401"/>
</g>
<!-- Node10 -->
<g id="node10" class="node">
<title>Node10</title>
<g id="a_node10"><a xlink:href="ContextTest_8cpp.html" target="_top" xlink:title=" ">
<polygon fill="#ffffff" stroke="#000000" points="594,-134.5 594,-164.5 722,-164.5 722,-134.5 594,-134.5"/>
<text text-anchor="start" x="602" y="-152.5" font-family="Helvetica,sans-Serif" font-size="10.00" fill="#000000">libbsn/test/unit/goalmodel</text>
<text text-anchor="middle" x="658" y="-141.5" font-family="Helvetica,sans-Serif" font-size="10.00" fill="#000000">/ContextTest.cpp</text>
</a>
</g>
</g>
<!-- Node1&#45;&gt;Node10 -->
<g id="edge10" class="edge">
<title>Node1&#45;&gt;Node10</title>
<path fill="none" stroke="#191970" d="M530.9516,-197.865C558.5014,-187.3773 592.4559,-174.4515 618.3299,-164.6017"/>
<polygon fill="#191970" stroke="#191970" points="529.5983,-194.6351 521.4978,-201.4639 532.0888,-201.1771 529.5983,-194.6351"/>
</g>
<!-- Node11 -->
<g id="node11" class="node">
<title>Node11</title>
<g id="a_node11"><a xlink:href="GoalTest_8cpp.html" target="_top" xlink:title=" ">
<polygon fill="#ffffff" stroke="#000000" points="740,-134.5 740,-164.5 868,-164.5 868,-134.5 740,-134.5"/>
<text text-anchor="start" x="748" y="-152.5" font-family="Helvetica,sans-Serif" font-size="10.00" fill="#000000">libbsn/test/unit/goalmodel</text>
<text text-anchor="middle" x="804" y="-141.5" font-family="Helvetica,sans-Serif" font-size="10.00" fill="#000000">/GoalTest.cpp</text>
</a>
</g>
</g>
<!-- Node1&#45;&gt;Node11 -->
<g id="edge11" class="edge">
<title>Node1&#45;&gt;Node11</title>
<path fill="none" stroke="#191970" d="M553.691,-201.7766C603.4553,-191.5308 671.2784,-177.5163 731,-165 733.9166,-164.3888 736.8983,-163.7622 739.9099,-163.1281"/>
<polygon fill="#191970" stroke="#191970" points="552.7605,-198.3947 543.6714,-203.8388 554.1717,-205.2509 552.7605,-198.3947"/>
</g>
<!-- Node3 -->
<g id="node3" class="node">
<title>Node3</title>
<g id="a_node3"><a xlink:href="GoalTree_8hpp.html" target="_top" xlink:title=" ">
<polygon fill="#ffffff" stroke="#000000" points="36.5,-67.5 36.5,-97.5 159.5,-97.5 159.5,-67.5 36.5,-67.5"/>
<text text-anchor="start" x="44.5" y="-85.5" font-family="Helvetica,sans-Serif" font-size="10.00" fill="#000000">libbsn/include/goalmodel</text>
<text text-anchor="middle" x="98" y="-74.5" font-family="Helvetica,sans-Serif" font-size="10.00" fill="#000000">/GoalTree.hpp</text>
</a>
</g>
</g>
<!-- Node2&#45;&gt;Node3 -->
<g id="edge2" class="edge">
<title>Node2&#45;&gt;Node3</title>
<path fill="none" stroke="#191970" d="M238.836,-131.1392C208.3291,-120.6033 170.4966,-107.5375 141.7273,-97.6017"/>
<polygon fill="#191970" stroke="#191970" points="237.8679,-134.5077 248.4626,-134.4639 240.153,-127.8912 237.8679,-134.5077"/>
</g>
<!-- Node5 -->
<g id="node5" class="node">
<title>Node5</title>
<g id="a_node5"><a xlink:href="GoalTreeTest_8cpp.html" target="_top" xlink:title=" ">
<polygon fill="#ffffff" stroke="#000000" points="124,-.5 124,-30.5 252,-30.5 252,-.5 124,-.5"/>
<text text-anchor="start" x="132" y="-18.5" font-family="Helvetica,sans-Serif" font-size="10.00" fill="#000000">libbsn/test/unit/goalmodel</text>
<text text-anchor="middle" x="188" y="-7.5" font-family="Helvetica,sans-Serif" font-size="10.00" fill="#000000">/GoalTreeTest.cpp</text>
</a>
</g>
</g>
<!-- Node2&#45;&gt;Node5 -->
<g id="edge6" class="edge">
<title>Node2&#45;&gt;Node5</title>
<path fill="none" stroke="#191970" d="M244.5332,-129.6042C230.5908,-121.6503 216.5396,-111.1885 207,-98 192.4422,-77.8738 188.8249,-48.3664 188.0476,-30.6351"/>
<polygon fill="#191970" stroke="#191970" points="243.1627,-132.8404 253.6311,-134.4723 246.4653,-126.6684 243.1627,-132.8404"/>
</g>
<!-- Node6 -->
<g id="node6" class="node">
<title>Node6</title>
<g id="a_node6"><a xlink:href="LeafTask_8cpp.html" target="_top" xlink:title=" ">
<polygon fill="#ffffff" stroke="#000000" points="216,-67.5 216,-97.5 322,-97.5 322,-67.5 216,-67.5"/>
<text text-anchor="start" x="224" y="-85.5" font-family="Helvetica,sans-Serif" font-size="10.00" fill="#000000">libbsn/src/goalmodel</text>
<text text-anchor="middle" x="269" y="-74.5" font-family="Helvetica,sans-Serif" font-size="10.00" fill="#000000">/LeafTask.cpp</text>
</a>
</g>
</g>
<!-- Node2&#45;&gt;Node6 -->
<g id="edge5" class="edge">
<title>Node2&#45;&gt;Node6</title>
<path fill="none" stroke="#191970" d="M283.4558,-124.6103C280.3473,-115.5553 276.9298,-105.5998 274.1984,-97.6432"/>
<polygon fill="#191970" stroke="#191970" points="280.2236,-125.9749 286.7809,-134.2967 286.8444,-123.702 280.2236,-125.9749"/>
</g>
<!-- Node2&#45;&gt;Node7 -->
<g id="edge7" class="edge">
<title>Node2&#45;&gt;Node7</title>
<path fill="none" stroke="#191970" d="M326.1415,-129.0761C343.0228,-118.9774 363.0475,-106.9983 378.5614,-97.7177"/>
<polygon fill="#191970" stroke="#191970" points="323.9199,-126.3266 317.135,-134.4639 327.5135,-132.3338 323.9199,-126.3266"/>
</g>
<!-- Node2&#45;&gt;Node8 -->
<g id="edge8" class="edge">
<title>Node2&#45;&gt;Node8</title>
<path fill="none" stroke="#191970" d="M359.8216,-131.8874C400.871,-121.2273 452.6761,-107.774 491.8472,-97.6017"/>
<polygon fill="#191970" stroke="#191970" points="358.6994,-128.5627 349.9002,-134.4639 360.459,-135.3379 358.6994,-128.5627"/>
</g>
<!-- Node4 -->
<g id="node4" class="node">
<title>Node4</title>
<g id="a_node4"><a xlink:href="GoalTree_8cpp.html" target="_top" xlink:title=" ">
<polygon fill="#ffffff" stroke="#000000" points="0,-.5 0,-30.5 106,-30.5 106,-.5 0,-.5"/>
<text text-anchor="start" x="8" y="-18.5" font-family="Helvetica,sans-Serif" font-size="10.00" fill="#000000">libbsn/src/goalmodel</text>
<text text-anchor="middle" x="53" y="-7.5" font-family="Helvetica,sans-Serif" font-size="10.00" fill="#000000">/GoalTree.cpp</text>
</a>
</g>
</g>
<!-- Node3&#45;&gt;Node4 -->
<g id="edge3" class="edge">
<title>Node3&#45;&gt;Node4</title>
<path fill="none" stroke="#191970" d="M82.0643,-58.7735C75.779,-49.4154 68.7447,-38.9421 63.1708,-30.6432"/>
<polygon fill="#191970" stroke="#191970" points="79.3077,-60.9467 87.7888,-67.2967 85.1187,-57.0438 79.3077,-60.9467"/>
</g>
<!-- Node3&#45;&gt;Node5 -->
<g id="edge4" class="edge">
<title>Node3&#45;&gt;Node5</title>
<path fill="none" stroke="#191970" d="M126.7942,-61.0643C140.1016,-51.1577 155.5913,-39.6265 167.6584,-30.6432"/>
<polygon fill="#191970" stroke="#191970" points="124.3537,-58.5177 118.4224,-67.2967 128.5338,-64.1327 124.3537,-58.5177"/>
</g>
</g>
</svg>
