<?xml version="1.0" encoding="UTF-8" standalone="no"?>
<!DOCTYPE svg PUBLIC "-//W3C//DTD SVG 1.1//EN"
 "http://www.w3.org/Graphics/SVG/1.1/DTD/svg11.dtd">
<!-- Generated by graphviz version 2.40.1 (20161225.0304)
 -->
<!-- Title: lepton/include/CustomFunction.h Pages: 1 -->
<svg width="1097pt" height="151pt"
 viewBox="0.00 0.00 1096.50 151.00" xmlns="http://www.w3.org/2000/svg" xmlns:xlink="http://www.w3.org/1999/xlink">
<g id="graph0" class="graph" transform="scale(1 1) rotate(0) translate(4 147)">
<title>lepton/include/CustomFunction.h</title>
<polygon fill="#ffffff" stroke="transparent" points="-4,4 -4,-147 1092.5,-147 1092.5,4 -4,4"/>
<!-- Node1 -->
<g id="node1" class="node">
<title>Node1</title>
<g id="a_node1"><a xlink:title=" ">
<polygon fill="#bfbfbf" stroke="#000000" points="494.5,-123.5 494.5,-142.5 654.5,-142.5 654.5,-123.5 494.5,-123.5"/>
<text text-anchor="middle" x="574.5" y="-130.5" font-family="Helvetica,sans-Serif" font-size="10.00" fill="#000000">lepton/include/CustomFunction.h</text>
</a>
</g>
</g>
<!-- Node2 -->
<g id="node2" class="node">
<title>Node2</title>
<g id="a_node2"><a xlink:href="Lepton_8h.html" target="_top" xlink:title=" ">
<polygon fill="#ffffff" stroke="#000000" points="0,-6 0,-25 117,-25 117,-6 0,-6"/>
<text text-anchor="middle" x="58.5" y="-13" font-family="Helvetica,sans-Serif" font-size="10.00" fill="#000000">lepton/include/Lepton.h</text>
</a>
</g>
</g>
<!-- Node1&#45;&gt;Node2 -->
<g id="edge1" class="edge">
<title>Node1&#45;&gt;Node2</title>
<path fill="none" stroke="#191970" d="M522.6313,-121.2871C439.0172,-102.3896 269.2553,-63.9568 125.5,-31 117.1212,-29.0791 108.1556,-27.0126 99.5962,-25.0344"/>
<polygon fill="#191970" stroke="#191970" points="521.868,-124.7027 532.3936,-123.4931 523.411,-117.8749 521.868,-124.7027"/>
</g>
<!-- Node3 -->
<g id="node3" class="node">
<title>Node3</title>
<g id="a_node3"><a xlink:href="Operation_8h.html" target="_top" xlink:title=" ">
<polygon fill="#ffffff" stroke="#000000" points="509.5,-67.5 509.5,-86.5 639.5,-86.5 639.5,-67.5 509.5,-67.5"/>
<text text-anchor="middle" x="574.5" y="-74.5" font-family="Helvetica,sans-Serif" font-size="10.00" fill="#000000">lepton/include/Operation.h</text>
</a>
</g>
</g>
<!-- Node1&#45;&gt;Node3 -->
<g id="edge2" class="edge">
<title>Node1&#45;&gt;Node3</title>
<path fill="none" stroke="#191970" d="M574.5,-113.1575C574.5,-104.155 574.5,-93.9199 574.5,-86.6427"/>
<polygon fill="#191970" stroke="#191970" points="571.0001,-113.2455 574.5,-123.2455 578.0001,-113.2456 571.0001,-113.2455"/>
</g>
<!-- Node9 -->
<g id="node9" class="node">
<title>Node9</title>
<g id="a_node9"><a xlink:href="Parser_8cpp.html" target="_top" xlink:title=" ">
<polygon fill="#ffffff" stroke="#000000" points="978.5,-6 978.5,-25 1088.5,-25 1088.5,-6 978.5,-6"/>
<text text-anchor="middle" x="1033.5" y="-13" font-family="Helvetica,sans-Serif" font-size="10.00" fill="#000000">lepton/src/Parser.cpp</text>
</a>
</g>
</g>
<!-- Node1&#45;&gt;Node9 -->
<g id="edge10" class="edge">
<title>Node1&#45;&gt;Node9</title>
<path fill="none" stroke="#191970" d="M621.4905,-120.9708C712.9712,-97.5526 913.2719,-46.2773 996.3008,-25.0227"/>
<polygon fill="#191970" stroke="#191970" points="620.4927,-117.6133 611.6731,-123.484 622.2287,-124.3947 620.4927,-117.6133"/>
</g>
<!-- Node3&#45;&gt;Node2 -->
<g id="edge3" class="edge">
<title>Node3&#45;&gt;Node2</title>
<path fill="none" stroke="#191970" d="M499.4186,-72.1952C409.9448,-65.8044 256.1251,-52.7131 125.5,-31 115.8424,-29.3947 105.4975,-27.2275 95.8965,-25.023"/>
<polygon fill="#191970" stroke="#191970" points="499.2502,-75.6919 509.4718,-72.9043 499.7428,-68.7092 499.2502,-75.6919"/>
</g>
<!-- Node4 -->
<g id="node4" class="node">
<title>Node4</title>
<g id="a_node4"><a xlink:href="CompiledExpression_8cpp.html" target="_top" xlink:title=" ">
<polygon fill="#ffffff" stroke="#000000" points="135,-6 135,-25 306,-25 306,-6 135,-6"/>
<text text-anchor="middle" x="220.5" y="-13" font-family="Helvetica,sans-Serif" font-size="10.00" fill="#000000">lepton/src/CompiledExpression.cpp</text>
</a>
</g>
</g>
<!-- Node3&#45;&gt;Node4 -->
<g id="edge4" class="edge">
<title>Node3&#45;&gt;Node4</title>
<path fill="none" stroke="#191970" d="M509.5223,-65.7115C442.2936,-54.0319 338.4589,-35.9929 275.2617,-25.0137"/>
<polygon fill="#191970" stroke="#191970" points="509.1244,-69.1947 519.5759,-67.4581 510.3226,-62.298 509.1244,-69.1947"/>
</g>
<!-- Node5 -->
<g id="node5" class="node">
<title>Node5</title>
<g id="a_node5"><a xlink:href="ExpressionProgram_8cpp.html" target="_top" xlink:title=" ">
<polygon fill="#ffffff" stroke="#000000" points="324,-6 324,-25 491,-25 491,-6 324,-6"/>
<text text-anchor="middle" x="407.5" y="-13" font-family="Helvetica,sans-Serif" font-size="10.00" fill="#000000">lepton/src/ExpressionProgram.cpp</text>
</a>
</g>
</g>
<!-- Node3&#45;&gt;Node5 -->
<g id="edge5" class="edge">
<title>Node3&#45;&gt;Node5</title>
<path fill="none" stroke="#191970" d="M538.6543,-63.7993C507.0125,-52.1468 461.6465,-35.4402 433.4105,-25.0419"/>
<polygon fill="#191970" stroke="#191970" points="537.8128,-67.2192 548.4063,-67.3906 540.2319,-60.6504 537.8128,-67.2192"/>
</g>
<!-- Node6 -->
<g id="node6" class="node">
<title>Node6</title>
<g id="a_node6"><a xlink:href="ExpressionTreeNode_8cpp.html" target="_top" xlink:title=" ">
<polygon fill="#ffffff" stroke="#000000" points="509,-.5 509,-30.5 640,-30.5 640,-.5 509,-.5"/>
<text text-anchor="start" x="517" y="-18.5" font-family="Helvetica,sans-Serif" font-size="10.00" fill="#000000">lepton/src/ExpressionTree</text>
<text text-anchor="middle" x="574.5" y="-7.5" font-family="Helvetica,sans-Serif" font-size="10.00" fill="#000000">Node.cpp</text>
</a>
</g>
</g>
<!-- Node3&#45;&gt;Node6 -->
<g id="edge6" class="edge">
<title>Node3&#45;&gt;Node6</title>
<path fill="none" stroke="#191970" d="M574.5,-57.3693C574.5,-48.681 574.5,-38.6241 574.5,-30.5446"/>
<polygon fill="#191970" stroke="#191970" points="571.0001,-57.3906 574.5,-67.3906 578.0001,-57.3907 571.0001,-57.3906"/>
</g>
<!-- Node7 -->
<g id="node7" class="node">
<title>Node7</title>
<g id="a_node7"><a xlink:href="Operation_8cpp.html" target="_top" xlink:title=" ">
<polygon fill="#ffffff" stroke="#000000" points="658,-6 658,-25 781,-25 781,-6 658,-6"/>
<text text-anchor="middle" x="719.5" y="-13" font-family="Helvetica,sans-Serif" font-size="10.00" fill="#000000">lepton/src/Operation.cpp</text>
</a>
</g>
</g>
<!-- Node3&#45;&gt;Node7 -->
<g id="edge7" class="edge">
<title>Node3&#45;&gt;Node7</title>
<path fill="none" stroke="#191970" d="M606.6999,-63.3428C634.1176,-51.7139 672.805,-35.3051 697.0028,-25.0419"/>
<polygon fill="#191970" stroke="#191970" points="604.9958,-60.2637 597.1563,-67.3906 607.7291,-66.708 604.9958,-60.2637"/>
</g>
<!-- Node8 -->
<g id="node8" class="node">
<title>Node8</title>
<g id="a_node8"><a xlink:href="ParsedExpression_8cpp.html" target="_top" xlink:title=" ">
<polygon fill="#ffffff" stroke="#000000" points="799,-6 799,-25 960,-25 960,-6 799,-6"/>
<text text-anchor="middle" x="879.5" y="-13" font-family="Helvetica,sans-Serif" font-size="10.00" fill="#000000">lepton/src/ParsedExpression.cpp</text>
</a>
</g>
</g>
<!-- Node3&#45;&gt;Node8 -->
<g id="edge8" class="edge">
<title>Node3&#45;&gt;Node8</title>
<path fill="none" stroke="#191970" d="M631.9172,-65.4224C689.8739,-53.7361 778.3159,-35.9027 832.3183,-25.0137"/>
<polygon fill="#191970" stroke="#191970" points="630.9325,-62.0505 621.8216,-67.4581 632.3162,-68.9124 630.9325,-62.0505"/>
</g>
<!-- Node3&#45;&gt;Node9 -->
<g id="edge9" class="edge">
<title>Node3&#45;&gt;Node9</title>
<path fill="none" stroke="#191970" d="M649.9523,-70.9633C729.7397,-63.9389 859.0885,-50.7236 969.5,-31 978.6159,-29.3716 988.3703,-27.2219 997.4467,-25.0438"/>
<polygon fill="#191970" stroke="#191970" points="649.1702,-67.518 639.5114,-71.872 649.7772,-74.4916 649.1702,-67.518"/>
</g>
</g>
</svg>
