<?xml version="1.0" encoding="UTF-8" standalone="no"?>
<!DOCTYPE svg PUBLIC "-//W3C//DTD SVG 1.1//EN"
 "http://www.w3.org/Graphics/SVG/1.1/DTD/svg11.dtd">
<!-- Generated by graphviz version 2.40.1 (20161225.0304)
 -->
<!-- Title: src/knowledge_repository/data_access/src/DataAccess.cpp Pages: 1 -->
<svg width="3116pt" height="263pt"
 viewBox="0.00 0.00 3116.00 263.00" xmlns="http://www.w3.org/2000/svg" xmlns:xlink="http://www.w3.org/1999/xlink">
<g id="graph0" class="graph" transform="scale(1 1) rotate(0) translate(4 259)">
<title>src/knowledge_repository/data_access/src/DataAccess.cpp</title>
<polygon fill="#ffffff" stroke="transparent" points="-4,4 -4,-259 3112,-259 3112,4 -4,4"/>
<!-- Node1 -->
<g id="node1" class="node">
<title>Node1</title>
<g id="a_node1"><a xlink:title=" ">
<polygon fill="#bfbfbf" stroke="#000000" points="1471.5,-224.5 1471.5,-254.5 1638.5,-254.5 1638.5,-224.5 1471.5,-224.5"/>
<text text-anchor="start" x="1479.5" y="-242.5" font-family="Helvetica,sans-Serif" font-size="10.00" fill="#000000">src/knowledge_repository</text>
<text text-anchor="middle" x="1555" y="-231.5" font-family="Helvetica,sans-Serif" font-size="10.00" fill="#000000">/data_access/src/DataAccess.cpp</text>
</a>
</g>
</g>
<!-- Node2 -->
<g id="node2" class="node">
<title>Node2</title>
<g id="a_node2"><a xlink:href="DataAccess_8hpp.html" target="_top" xlink:title=" ">
<polygon fill="#ffffff" stroke="#000000" points="1481,-168.5 1481,-187.5 1629,-187.5 1629,-168.5 1481,-168.5"/>
<text text-anchor="middle" x="1555" y="-175.5" font-family="Helvetica,sans-Serif" font-size="10.00" fill="#000000">data_access/DataAccess.hpp</text>
</a>
</g>
</g>
<!-- Node1&#45;&gt;Node2 -->
<g id="edge1" class="edge">
<title>Node1&#45;&gt;Node2</title>
<path fill="none" stroke="#191970" d="M1555,-224.2977C1555,-216.3834 1555,-206.6043 1555,-198.0759"/>
<polygon fill="#191970" stroke="#191970" points="1558.5001,-197.8469 1555,-187.8469 1551.5001,-197.847 1558.5001,-197.8469"/>
</g>
<!-- Node3 -->
<g id="node3" class="node">
<title>Node3</title>
<g id="a_node3"><a xlink:title=" ">
<polygon fill="#ffffff" stroke="#bfbfbf" points="0,-112.5 0,-131.5 50,-131.5 50,-112.5 0,-112.5"/>
<text text-anchor="middle" x="25" y="-119.5" font-family="Helvetica,sans-Serif" font-size="10.00" fill="#000000">fstream</text>
</a>
</g>
</g>
<!-- Node2&#45;&gt;Node3 -->
<g id="edge2" class="edge">
<title>Node2&#45;&gt;Node3</title>
<path fill="none" stroke="#191970" d="M1480.5421,-176.8251C1203.4911,-172.3036 239.4013,-155.1832 60.0812,-131.6074"/>
<polygon fill="#191970" stroke="#191970" points="60.486,-128.1296 50.0865,-130.1546 59.479,-135.0568 60.486,-128.1296"/>
</g>
<!-- Node4 -->
<g id="node4" class="node">
<title>Node4</title>
<g id="a_node4"><a xlink:title=" ">
<polygon fill="#ffffff" stroke="#bfbfbf" points="68,-112.5 68,-131.5 114,-131.5 114,-112.5 68,-112.5"/>
<text text-anchor="middle" x="91" y="-119.5" font-family="Helvetica,sans-Serif" font-size="10.00" fill="#000000">chrono</text>
</a>
</g>
</g>
<!-- Node2&#45;&gt;Node4 -->
<g id="edge3" class="edge">
<title>Node2&#45;&gt;Node4</title>
<path fill="none" stroke="#191970" d="M1480.9155,-176.7942C1212.2923,-172.2641 296.6222,-155.3946 124.2889,-131.6024"/>
<polygon fill="#191970" stroke="#191970" points="124.6554,-128.1177 114.2405,-130.0621 123.5947,-135.0369 124.6554,-128.1177"/>
</g>
<!-- Node5 -->
<g id="node5" class="node">
<title>Node5</title>
<g id="a_node5"><a xlink:title=" ">
<polygon fill="#ffffff" stroke="#bfbfbf" points="132.5,-112.5 132.5,-131.5 175.5,-131.5 175.5,-112.5 132.5,-112.5"/>
<text text-anchor="middle" x="154" y="-119.5" font-family="Helvetica,sans-Serif" font-size="10.00" fill="#000000">deque</text>
</a>
</g>
</g>
<!-- Node2&#45;&gt;Node5 -->
<g id="edge4" class="edge">
<title>Node2&#45;&gt;Node5</title>
<path fill="none" stroke="#191970" d="M1480.774,-176.5284C1214.6675,-171.1109 317.5111,-151.5737 190,-132 188.5173,-131.7724 187.0088,-131.5043 185.4911,-131.2049"/>
<polygon fill="#191970" stroke="#191970" points="186.0552,-127.7425 175.5207,-128.872 184.4603,-134.5584 186.0552,-127.7425"/>
</g>
<!-- Node6 -->
<g id="node6" class="node">
<title>Node6</title>
<g id="a_node6"><a xlink:title=" ">
<polygon fill="#ffffff" stroke="#bfbfbf" points="1899.5,-.5 1899.5,-19.5 1954.5,-19.5 1954.5,-.5 1899.5,-.5"/>
<text text-anchor="middle" x="1927" y="-7.5" font-family="Helvetica,sans-Serif" font-size="10.00" fill="#000000">ros/ros.h</text>
</a>
</g>
</g>
<!-- Node2&#45;&gt;Node6 -->
<g id="edge5" class="edge">
<title>Node2&#45;&gt;Node6</title>
<path fill="none" stroke="#191970" d="M1480.9485,-176.8225C1204.1541,-172.2483 245.0051,-154.7781 223,-132 216.824,-125.6071 216.9053,-118.4705 223,-112 282.1293,-49.2254 1642.7374,-16.2744 1888.9753,-10.8153"/>
<polygon fill="#191970" stroke="#191970" points="1889.2898,-14.3093 1899.2104,-10.5901 1889.1357,-7.311 1889.2898,-14.3093"/>
</g>
<!-- Node7 -->
<g id="node7" class="node">
<title>Node7</title>
<g id="a_node7"><a xlink:title=" ">
<polygon fill="#ffffff" stroke="#bfbfbf" points="232,-112.5 232,-131.5 310,-131.5 310,-112.5 232,-112.5"/>
<text text-anchor="middle" x="271" y="-119.5" font-family="Helvetica,sans-Serif" font-size="10.00" fill="#000000">ros/package.h</text>
</a>
</g>
</g>
<!-- Node2&#45;&gt;Node7 -->
<g id="edge6" class="edge">
<title>Node2&#45;&gt;Node7</title>
<path fill="none" stroke="#191970" d="M1480.9072,-176.8781C1253.3553,-173.1779 565.7245,-160.0348 320.4941,-131.9472"/>
<polygon fill="#191970" stroke="#191970" points="320.5459,-128.4289 310.2035,-130.7276 319.722,-135.3803 320.5459,-128.4289"/>
</g>
<!-- Node8 -->
<g id="node8" class="node">
<title>Node8</title>
<g id="a_node8"><a xlink:title=" ">
<polygon fill="#ffffff" stroke="#bfbfbf" points="328.5,-112.5 328.5,-131.5 433.5,-131.5 433.5,-112.5 328.5,-112.5"/>
<text text-anchor="middle" x="381" y="-119.5" font-family="Helvetica,sans-Serif" font-size="10.00" fill="#000000">cpprest/http_client.h</text>
</a>
</g>
</g>
<!-- Node2&#45;&gt;Node8 -->
<g id="edge7" class="edge">
<title>Node2&#45;&gt;Node8</title>
<path fill="none" stroke="#191970" d="M1480.8967,-176.0831C1269.3898,-170.4321 664.5172,-152.9748 443.9203,-131.9417"/>
<polygon fill="#191970" stroke="#191970" points="444.0038,-128.4331 433.7092,-130.9375 443.3186,-135.3995 444.0038,-128.4331"/>
</g>
<!-- Node9 -->
<g id="node9" class="node">
<title>Node9</title>
<g id="a_node9"><a xlink:title=" ">
<polygon fill="#ffffff" stroke="#bfbfbf" points="452,-112.5 452,-131.5 530,-131.5 530,-112.5 452,-112.5"/>
<text text-anchor="middle" x="491" y="-119.5" font-family="Helvetica,sans-Serif" font-size="10.00" fill="#000000">cpprest/json.h</text>
</a>
</g>
</g>
<!-- Node2&#45;&gt;Node9 -->
<g id="edge8" class="edge">
<title>Node2&#45;&gt;Node9</title>
<path fill="none" stroke="#191970" d="M1480.8184,-176.185C1282.1643,-171.0824 740.25,-155.5111 540.3214,-131.9384"/>
<polygon fill="#191970" stroke="#191970" points="540.5576,-128.4413 530.2067,-130.7016 539.7079,-135.3895 540.5576,-128.4413"/>
</g>
<!-- Node10 -->
<g id="node10" class="node">
<title>Node10</title>
<g id="a_node10"><a xlink:title=" ">
<polygon fill="#ffffff" stroke="#bfbfbf" points="548.5,-112.5 548.5,-131.5 649.5,-131.5 649.5,-112.5 548.5,-112.5"/>
<text text-anchor="middle" x="599" y="-119.5" font-family="Helvetica,sans-Serif" font-size="10.00" fill="#000000">services/Address.h</text>
</a>
</g>
</g>
<!-- Node2&#45;&gt;Node10 -->
<g id="edge9" class="edge">
<title>Node2&#45;&gt;Node10</title>
<path fill="none" stroke="#191970" d="M1480.929,-177.1208C1328.7918,-174.6799 970.0015,-165.6592 659.8811,-132.0983"/>
<polygon fill="#191970" stroke="#191970" points="660.1171,-128.6033 649.796,-130.9963 659.3566,-135.5619 660.1171,-128.6033"/>
</g>
<!-- Node11 -->
<g id="node11" class="node">
<title>Node11</title>
<g id="a_node11"><a xlink:title=" ">
<polygon fill="#ffffff" stroke="#bfbfbf" points="667.5,-112.5 667.5,-131.5 792.5,-131.5 792.5,-112.5 667.5,-112.5"/>
<text text-anchor="middle" x="730" y="-119.5" font-family="Helvetica,sans-Serif" font-size="10.00" fill="#000000">bsn/goalmodel/Node.hpp</text>
</a>
</g>
</g>
<!-- Node2&#45;&gt;Node11 -->
<g id="edge10" class="edge">
<title>Node2&#45;&gt;Node11</title>
<path fill="none" stroke="#191970" d="M1480.8336,-175.3646C1347.4085,-170.2076 1057.8703,-157.1218 802.9909,-132.0238"/>
<polygon fill="#191970" stroke="#191970" points="803.0915,-128.5166 792.7946,-131.0114 802.3998,-135.4824 803.0915,-128.5166"/>
</g>
<!-- Node12 -->
<g id="node12" class="node">
<title>Node12</title>
<g id="a_node12"><a xlink:title=" ">
<polygon fill="#ffffff" stroke="#bfbfbf" points="811,-112.5 811,-131.5 933,-131.5 933,-112.5 811,-112.5"/>
<text text-anchor="middle" x="872" y="-119.5" font-family="Helvetica,sans-Serif" font-size="10.00" fill="#000000">bsn/goalmodel/Goal.hpp</text>
</a>
</g>
</g>
<!-- Node2&#45;&gt;Node12 -->
<g id="edge11" class="edge">
<title>Node2&#45;&gt;Node12</title>
<path fill="none" stroke="#191970" d="M1480.7808,-174.0394C1367.2624,-167.6251 1143.4784,-153.5768 943.1767,-132.0634"/>
<polygon fill="#191970" stroke="#191970" points="943.3717,-128.5641 933.053,-130.9675 942.6182,-135.5235 943.3717,-128.5641"/>
</g>
<!-- Node13 -->
<g id="node13" class="node">
<title>Node13</title>
<g id="a_node13"><a xlink:title=" ">
<polygon fill="#ffffff" stroke="#bfbfbf" points="951.5,-112.5 951.5,-131.5 1074.5,-131.5 1074.5,-112.5 951.5,-112.5"/>
<text text-anchor="middle" x="1013" y="-119.5" font-family="Helvetica,sans-Serif" font-size="10.00" fill="#000000">bsn/goalmodel/Task.hpp</text>
</a>
</g>
</g>
<!-- Node2&#45;&gt;Node13 -->
<g id="edge12" class="edge">
<title>Node2&#45;&gt;Node13</title>
<path fill="none" stroke="#191970" d="M1480.6596,-171.7244C1389.8344,-163.8357 1231.2377,-149.347 1084.638,-132.0308"/>
<polygon fill="#191970" stroke="#191970" points="1084.8958,-128.5369 1074.5527,-130.8328 1084.07,-135.4881 1084.8958,-128.5369"/>
</g>
<!-- Node14 -->
<g id="node14" class="node">
<title>Node14</title>
<g id="a_node14"><a xlink:title=" ">
<polygon fill="#ffffff" stroke="#bfbfbf" points="1093,-112.5 1093,-131.5 1231,-131.5 1231,-112.5 1093,-112.5"/>
<text text-anchor="middle" x="1162" y="-119.5" font-family="Helvetica,sans-Serif" font-size="10.00" fill="#000000">bsn/goalmodel/Property.hpp</text>
</a>
</g>
</g>
<!-- Node2&#45;&gt;Node14 -->
<g id="edge13" class="edge">
<title>Node2&#45;&gt;Node14</title>
<path fill="none" stroke="#191970" d="M1487.8874,-168.4369C1418.7916,-158.5912 1311.273,-143.2705 1238.819,-132.9462"/>
<polygon fill="#191970" stroke="#191970" points="1239.2295,-129.4694 1228.8358,-131.5237 1238.242,-136.3994 1239.2295,-129.4694"/>
</g>
<!-- Node15 -->
<g id="node15" class="node">
<title>Node15</title>
<g id="a_node15"><a xlink:title=" ">
<polygon fill="#ffffff" stroke="#bfbfbf" points="1249,-112.5 1249,-131.5 1391,-131.5 1391,-112.5 1249,-112.5"/>
<text text-anchor="middle" x="1320" y="-119.5" font-family="Helvetica,sans-Serif" font-size="10.00" fill="#000000">bsn/goalmodel/LeafTask.hpp</text>
</a>
</g>
</g>
<!-- Node2&#45;&gt;Node15 -->
<g id="edge14" class="edge">
<title>Node2&#45;&gt;Node15</title>
<path fill="none" stroke="#191970" d="M1514.8691,-168.4369C1474.7351,-158.8731 1412.9225,-144.1432 1369.7067,-133.845"/>
<polygon fill="#191970" stroke="#191970" points="1370.5044,-130.4372 1359.9654,-131.5237 1368.8817,-137.2465 1370.5044,-130.4372"/>
</g>
<!-- Node16 -->
<g id="node16" class="node">
<title>Node16</title>
<g id="a_node16"><a xlink:title=" ">
<polygon fill="#ffffff" stroke="#bfbfbf" points="1409,-112.5 1409,-131.5 1545,-131.5 1545,-112.5 1409,-112.5"/>
<text text-anchor="middle" x="1477" y="-119.5" font-family="Helvetica,sans-Serif" font-size="10.00" fill="#000000">bsn/goalmodel/Context.hpp</text>
</a>
</g>
</g>
<!-- Node2&#45;&gt;Node16 -->
<g id="edge15" class="edge">
<title>Node2&#45;&gt;Node16</title>
<path fill="none" stroke="#191970" d="M1541.4134,-168.2455C1529.6695,-159.814 1512.4801,-147.4729 1498.8118,-137.6598"/>
<polygon fill="#191970" stroke="#191970" points="1500.5954,-134.6316 1490.4309,-131.6427 1496.5129,-140.3179 1500.5954,-134.6316"/>
</g>
<!-- Node17 -->
<g id="node17" class="node">
<title>Node17</title>
<g id="a_node17"><a xlink:title=" ">
<polygon fill="#ffffff" stroke="#bfbfbf" points="1563.5,-112.5 1563.5,-131.5 1704.5,-131.5 1704.5,-112.5 1563.5,-112.5"/>
<text text-anchor="middle" x="1634" y="-119.5" font-family="Helvetica,sans-Serif" font-size="10.00" fill="#000000">bsn/goalmodel/GoalTree.hpp</text>
</a>
</g>
</g>
<!-- Node2&#45;&gt;Node17 -->
<g id="edge16" class="edge">
<title>Node2&#45;&gt;Node17</title>
<path fill="none" stroke="#191970" d="M1568.7607,-168.2455C1580.6552,-159.814 1598.065,-147.4729 1611.9085,-137.6598"/>
<polygon fill="#191970" stroke="#191970" points="1614.2628,-140.2811 1620.3969,-131.6427 1610.2146,-134.5704 1614.2628,-140.2811"/>
</g>
<!-- Node18 -->
<g id="node18" class="node">
<title>Node18</title>
<g id="a_node18"><a xlink:title=" ">
<polygon fill="#ffffff" stroke="#bfbfbf" points="1722.5,-112.5 1722.5,-131.5 1841.5,-131.5 1841.5,-112.5 1722.5,-112.5"/>
<text text-anchor="middle" x="1782" y="-119.5" font-family="Helvetica,sans-Serif" font-size="10.00" fill="#000000">bsn/model/Formula.hpp</text>
</a>
</g>
</g>
<!-- Node2&#45;&gt;Node18 -->
<g id="edge17" class="edge">
<title>Node2&#45;&gt;Node18</title>
<path fill="none" stroke="#191970" d="M1593.7648,-168.4369C1632.3692,-158.9133 1691.7384,-144.2672 1733.4572,-133.9753"/>
<polygon fill="#191970" stroke="#191970" points="1734.5245,-137.317 1743.3951,-131.5237 1732.8479,-130.5208 1734.5245,-137.317"/>
</g>
<!-- Node19 -->
<g id="node19" class="node">
<title>Node19</title>
<g id="a_node19"><a xlink:title=" ">
<polygon fill="#ffffff" stroke="#bfbfbf" points="1859.5,-112.5 1859.5,-131.5 1952.5,-131.5 1952.5,-112.5 1859.5,-112.5"/>
<text text-anchor="middle" x="1906" y="-119.5" font-family="Helvetica,sans-Serif" font-size="10.00" fill="#000000">bsn/utils/utils.hpp</text>
</a>
</g>
</g>
<!-- Node2&#45;&gt;Node19 -->
<g id="edge18" class="edge">
<title>Node2&#45;&gt;Node19</title>
<path fill="none" stroke="#191970" d="M1619.4585,-168.4703C1677.1866,-159.8245 1764.4297,-146.4855 1849.1563,-132.2831"/>
<polygon fill="#191970" stroke="#191970" points="1849.9258,-135.7029 1859.2065,-130.5923 1848.7644,-128.7999 1849.9258,-135.7029"/>
</g>
<!-- Node20 -->
<g id="node20" class="node">
<title>Node20</title>
<g id="a_node20"><a xlink:title=" ">
<polygon fill="#ffffff" stroke="#bfbfbf" points="1970.5,-112.5 1970.5,-131.5 2057.5,-131.5 2057.5,-112.5 1970.5,-112.5"/>
<text text-anchor="middle" x="2014" y="-119.5" font-family="Helvetica,sans-Serif" font-size="10.00" fill="#000000">archlib/Persist.h</text>
</a>
</g>
</g>
<!-- Node2&#45;&gt;Node20 -->
<g id="edge19" class="edge">
<title>Node2&#45;&gt;Node20</title>
<path fill="none" stroke="#191970" d="M1629.1238,-171.362C1708.6369,-163.848 1838.8249,-150.4138 1960.1406,-132.1962"/>
<polygon fill="#191970" stroke="#191970" points="1960.9873,-135.608 1970.3496,-130.6485 1959.938,-128.687 1960.9873,-135.608"/>
</g>
<!-- Node21 -->
<g id="node21" class="node">
<title>Node21</title>
<g id="a_node21"><a xlink:title=" ">
<polygon fill="#ffffff" stroke="#bfbfbf" points="2075.5,-112.5 2075.5,-131.5 2222.5,-131.5 2222.5,-112.5 2075.5,-112.5"/>
<text text-anchor="middle" x="2149" y="-119.5" font-family="Helvetica,sans-Serif" font-size="10.00" fill="#000000">archlib/DataAccessRequest.h</text>
</a>
</g>
</g>
<!-- Node2&#45;&gt;Node21 -->
<g id="edge20" class="edge">
<title>Node2&#45;&gt;Node21</title>
<path fill="none" stroke="#191970" d="M1629.2629,-172.072C1726.8927,-164.1121 1904.0124,-149.0985 2065.1556,-132.171"/>
<polygon fill="#191970" stroke="#191970" points="2065.6779,-135.6354 2075.2554,-131.1053 2064.9433,-128.6741 2065.6779,-135.6354"/>
</g>
<!-- Node22 -->
<g id="node22" class="node">
<title>Node22</title>
<g id="a_node22"><a xlink:href="ROSComponent_8hpp.html" target="_top" xlink:title=" ">
<polygon fill="#ffffff" stroke="#000000" points="2240.5,-112.5 2240.5,-131.5 2379.5,-131.5 2379.5,-112.5 2240.5,-112.5"/>
<text text-anchor="middle" x="2310" y="-119.5" font-family="Helvetica,sans-Serif" font-size="10.00" fill="#000000">archlib/ROSComponent.hpp</text>
</a>
</g>
</g>
<!-- Node2&#45;&gt;Node22 -->
<g id="edge21" class="edge">
<title>Node2&#45;&gt;Node22</title>
<path fill="none" stroke="#191970" d="M1629.0007,-174.4201C1751.7934,-168.1602 2005.6173,-153.8672 2230.2823,-132.1223"/>
<polygon fill="#191970" stroke="#191970" points="2230.669,-135.6013 2240.2822,-131.1475 2229.9898,-128.6343 2230.669,-135.6013"/>
</g>
<!-- Node26 -->
<g id="node26" class="node">
<title>Node26</title>
<g id="a_node26"><a xlink:href="StatusMessage_8hpp.html" target="_top" xlink:title=" ">
<polygon fill="#ffffff" stroke="#000000" points="2273,-56.5 2273,-75.5 2377,-75.5 2377,-56.5 2273,-56.5"/>
<text text-anchor="middle" x="2325" y="-63.5" font-family="Helvetica,sans-Serif" font-size="10.00" fill="#000000">StatusMessage.hpp</text>
</a>
</g>
</g>
<!-- Node2&#45;&gt;Node26 -->
<g id="edge28" class="edge">
<title>Node2&#45;&gt;Node26</title>
<path fill="none" stroke="#191970" d="M1629.2325,-176.6431C1828.7113,-172.6363 2363.0844,-159.3844 2389,-132 2406.0242,-114.011 2378.8946,-93.5802 2354.8842,-80.2775"/>
<polygon fill="#191970" stroke="#191970" points="2356.4101,-77.1252 2345.9333,-75.5481 2353.1399,-83.3144 2356.4101,-77.1252"/>
</g>
<!-- Node27 -->
<g id="node27" class="node">
<title>Node27</title>
<g id="a_node27"><a xlink:href="EventMessage_8hpp.html" target="_top" xlink:title=" ">
<polygon fill="#ffffff" stroke="#000000" points="2395.5,-56.5 2395.5,-75.5 2496.5,-75.5 2496.5,-56.5 2395.5,-56.5"/>
<text text-anchor="middle" x="2446" y="-63.5" font-family="Helvetica,sans-Serif" font-size="10.00" fill="#000000">EventMessage.hpp</text>
</a>
</g>
</g>
<!-- Node2&#45;&gt;Node27 -->
<g id="edge30" class="edge">
<title>Node2&#45;&gt;Node27</title>
<path fill="none" stroke="#191970" d="M1629.2299,-175.8413C1830.1679,-169.7509 2371.8952,-151.5971 2405,-132 2422.3537,-121.7271 2433.4214,-100.9441 2439.6267,-85.43"/>
<polygon fill="#191970" stroke="#191970" points="2443.0278,-86.3191 2443.1632,-75.7251 2436.4508,-83.9223 2443.0278,-86.3191"/>
</g>
<!-- Node28 -->
<g id="node28" class="node">
<title>Node28</title>
<g id="a_node28"><a xlink:href="UncertaintyMessage_8hpp.html" target="_top" xlink:title=" ">
<polygon fill="#ffffff" stroke="#000000" points="2514.5,-56.5 2514.5,-75.5 2639.5,-75.5 2639.5,-56.5 2514.5,-56.5"/>
<text text-anchor="middle" x="2577" y="-63.5" font-family="Helvetica,sans-Serif" font-size="10.00" fill="#000000">UncertaintyMessage.hpp</text>
</a>
</g>
</g>
<!-- Node2&#45;&gt;Node28 -->
<g id="edge32" class="edge">
<title>Node2&#45;&gt;Node28</title>
<path fill="none" stroke="#191970" d="M1629.1197,-177.5416C1811.3314,-175.8617 2277.2555,-168.0616 2428,-132 2473.7343,-121.0593 2522.8911,-96.5037 2551.7473,-80.6244"/>
<polygon fill="#191970" stroke="#191970" points="2553.7027,-83.541 2560.7208,-75.604 2550.2849,-77.4321 2553.7027,-83.541"/>
</g>
<!-- Node29 -->
<g id="node29" class="node">
<title>Node29</title>
<g id="a_node29"><a xlink:href="AdaptationMessage_8hpp.html" target="_top" xlink:title=" ">
<polygon fill="#ffffff" stroke="#000000" points="2658,-56.5 2658,-75.5 2780,-75.5 2780,-56.5 2658,-56.5"/>
<text text-anchor="middle" x="2719" y="-63.5" font-family="Helvetica,sans-Serif" font-size="10.00" fill="#000000">AdaptationMessage.hpp</text>
</a>
</g>
</g>
<!-- Node2&#45;&gt;Node29 -->
<g id="edge34" class="edge">
<title>Node2&#45;&gt;Node29</title>
<path fill="none" stroke="#191970" d="M1629.0023,-176.2921C1816.9753,-171.6314 2309.3643,-157.3206 2471,-132 2505.0825,-126.6609 2512.6635,-120.8769 2546,-112 2589.1872,-100.5001 2638.4446,-87.4048 2673.3248,-78.1353"/>
<polygon fill="#191970" stroke="#191970" points="2674.4485,-81.4582 2683.2142,-75.5073 2672.6507,-74.693 2674.4485,-81.4582"/>
</g>
<!-- Node30 -->
<g id="node30" class="node">
<title>Node30</title>
<g id="a_node30"><a xlink:href="ControlTheoryMetricsMessage_8hpp.html" target="_top" xlink:title=" ">
<polygon fill="#ffffff" stroke="#000000" points="2798.5,-56.5 2798.5,-75.5 2967.5,-75.5 2967.5,-56.5 2798.5,-56.5"/>
<text text-anchor="middle" x="2883" y="-63.5" font-family="Helvetica,sans-Serif" font-size="10.00" fill="#000000">ControlTheoryMetricsMessage.hpp</text>
</a>
</g>
</g>
<!-- Node2&#45;&gt;Node30 -->
<g id="edge36" class="edge">
<title>Node2&#45;&gt;Node30</title>
<path fill="none" stroke="#191970" d="M1629.2633,-177.0027C1824.8697,-173.9708 2350.9529,-163.0879 2522,-132 2550.4871,-126.8225 2555.8242,-118.6669 2584,-112 2651.519,-96.0237 2728.9767,-84.2865 2788.135,-76.6678"/>
<polygon fill="#191970" stroke="#191970" points="2788.7341,-80.1199 2798.2129,-75.3868 2787.8514,-73.1757 2788.7341,-80.1199"/>
</g>
<!-- Node31 -->
<g id="node31" class="node">
<title>Node31</title>
<g id="a_node31"><a xlink:href="EngineInfoMessage_8hpp.html" target="_top" xlink:title=" ">
<polygon fill="#ffffff" stroke="#000000" points="2986,-56.5 2986,-75.5 3108,-75.5 3108,-56.5 2986,-56.5"/>
<text text-anchor="middle" x="3047" y="-63.5" font-family="Helvetica,sans-Serif" font-size="10.00" fill="#000000">EngineInfoMessage.hpp</text>
</a>
</g>
</g>
<!-- Node2&#45;&gt;Node31 -->
<g id="edge38" class="edge">
<title>Node2&#45;&gt;Node31</title>
<path fill="none" stroke="#191970" d="M1629.0171,-176.0354C1846.864,-170.0573 2476.2017,-151.3126 2567,-132 2590.8145,-126.9347 2594.3324,-117.7125 2618,-112 2770.6827,-75.1477 2815.966,-94.5078 2975.7478,-76.0849"/>
<polygon fill="#191970" stroke="#191970" points="2976.4181,-79.53 2985.9366,-74.8772 2975.5941,-72.5787 2976.4181,-79.53"/>
</g>
<!-- Node32 -->
<g id="node32" class="node">
<title>Node32</title>
<g id="a_node32"><a xlink:title=" ">
<polygon fill="#ffffff" stroke="#bfbfbf" points="2626.5,-112.5 2626.5,-131.5 2709.5,-131.5 2709.5,-112.5 2626.5,-112.5"/>
<text text-anchor="middle" x="2668" y="-119.5" font-family="Helvetica,sans-Serif" font-size="10.00" fill="#000000">lepton/Lepton.h</text>
</a>
</g>
</g>
<!-- Node2&#45;&gt;Node32 -->
<g id="edge40" class="edge">
<title>Node2&#45;&gt;Node32</title>
<path fill="none" stroke="#191970" d="M1629.1369,-176.0606C1836.7373,-170.4248 2421.1018,-153.1033 2612,-132 2613.4724,-131.8372 2614.9646,-131.6592 2616.4691,-131.4683"/>
<polygon fill="#191970" stroke="#191970" points="2617.0901,-134.9153 2626.4995,-130.0456 2616.1071,-127.9846 2617.0901,-134.9153"/>
</g>
<!-- Node33 -->
<g id="node33" class="node">
<title>Node33</title>
<g id="a_node33"><a xlink:title=" ">
<polygon fill="#ffffff" stroke="#bfbfbf" points="2727.5,-112.5 2727.5,-131.5 2882.5,-131.5 2882.5,-112.5 2727.5,-112.5"/>
<text text-anchor="middle" x="2805" y="-119.5" font-family="Helvetica,sans-Serif" font-size="10.00" fill="#000000">messages/TargetSystemData.h</text>
</a>
</g>
</g>
<!-- Node2&#45;&gt;Node33 -->
<g id="edge41" class="edge">
<title>Node2&#45;&gt;Node33</title>
<path fill="none" stroke="#191970" d="M1629.3325,-177.0271C1812.4716,-174.2064 2300.2315,-164.1204 2717.0676,-132.0992"/>
<polygon fill="#191970" stroke="#191970" points="2717.5099,-135.5755 2727.2101,-131.3146 2716.9699,-128.5964 2717.5099,-135.5755"/>
</g>
<!-- Node22&#45;&gt;Node6 -->
<g id="edge24" class="edge">
<title>Node22&#45;&gt;Node6</title>
<path fill="none" stroke="#191970" d="M2240.2599,-113.0509C2237.4703,-112.6955 2234.7087,-112.3441 2232,-112 2168.4537,-103.9271 1994.6678,-117.6503 1946,-76 1932.8615,-64.7559 1928.5115,-45.069 1927.209,-30.1144"/>
<polygon fill="#191970" stroke="#191970" points="1930.6902,-29.6386 1926.712,-19.8191 1923.6984,-29.9762 1930.6902,-29.6386"/>
</g>
<!-- Node23 -->
<g id="node23" class="node">
<title>Node23</title>
<g id="a_node23"><a xlink:title=" ">
<polygon fill="#ffffff" stroke="#bfbfbf" points="2490.5,-.5 2490.5,-19.5 2531.5,-19.5 2531.5,-.5 2490.5,-.5"/>
<text text-anchor="middle" x="2511" y="-7.5" font-family="Helvetica,sans-Serif" font-size="10.00" fill="#000000">string</text>
</a>
</g>
</g>
<!-- Node22&#45;&gt;Node23 -->
<g id="edge22" class="edge">
<title>Node22&#45;&gt;Node23</title>
<path fill="none" stroke="#191970" d="M2255.7508,-112.4361C2212.3377,-102.4604 2162.4559,-84.2749 2187,-56 2206.119,-33.9749 2403.0253,-17.6872 2480.2056,-12.1035"/>
<polygon fill="#191970" stroke="#191970" points="2480.5443,-15.5884 2490.2706,-11.3872 2480.0473,-8.606 2480.5443,-15.5884"/>
</g>
<!-- Node24 -->
<g id="node24" class="node">
<title>Node24</title>
<g id="a_node24"><a xlink:title=" ">
<polygon fill="#ffffff" stroke="#bfbfbf" points="2195.5,-56.5 2195.5,-75.5 2254.5,-75.5 2254.5,-56.5 2195.5,-56.5"/>
<text text-anchor="middle" x="2225" y="-63.5" font-family="Helvetica,sans-Serif" font-size="10.00" fill="#000000">stdexcept</text>
</a>
</g>
</g>
<!-- Node22&#45;&gt;Node24 -->
<g id="edge23" class="edge">
<title>Node22&#45;&gt;Node24</title>
<path fill="none" stroke="#191970" d="M2295.1941,-112.2455C2282.2744,-103.7337 2263.3069,-91.2375 2248.3448,-81.3801"/>
<polygon fill="#191970" stroke="#191970" points="2249.9124,-78.2216 2239.6362,-75.6427 2246.0613,-84.067 2249.9124,-78.2216"/>
</g>
<!-- Node25 -->
<g id="node25" class="node">
<title>Node25</title>
<g id="a_node25"><a xlink:href="ROSComponentDescriptor_8hpp.html" target="_top" xlink:title=" ">
<polygon fill="#ffffff" stroke="#000000" points="1955,-56.5 1955,-75.5 2139,-75.5 2139,-56.5 1955,-56.5"/>
<text text-anchor="middle" x="2047" y="-63.5" font-family="Helvetica,sans-Serif" font-size="10.00" fill="#000000">archlib/ROSComponentDescriptor.hpp</text>
</a>
</g>
</g>
<!-- Node22&#45;&gt;Node25 -->
<g id="edge25" class="edge">
<title>Node22&#45;&gt;Node25</title>
<path fill="none" stroke="#191970" d="M2265.0875,-112.4369C2219.888,-102.8127 2150.1193,-87.957 2101.7153,-77.6504"/>
<polygon fill="#191970" stroke="#191970" points="2102.2369,-74.1831 2091.7272,-75.5237 2100.779,-81.0296 2102.2369,-74.1831"/>
</g>
<!-- Node25&#45;&gt;Node6 -->
<g id="edge27" class="edge">
<title>Node25&#45;&gt;Node6</title>
<path fill="none" stroke="#191970" d="M2026.3713,-56.3733C2007.1081,-47.3838 1978.1514,-33.8706 1956.4581,-23.7471"/>
<polygon fill="#191970" stroke="#191970" points="1957.9015,-20.5584 1947.3595,-19.5011 1954.9413,-26.9017 1957.9015,-20.5584"/>
</g>
<!-- Node25&#45;&gt;Node23 -->
<g id="edge26" class="edge">
<title>Node25&#45;&gt;Node23</title>
<path fill="none" stroke="#191970" d="M2125.9741,-56.4686C2230.0597,-43.9066 2408.3233,-22.392 2479.906,-13.7527"/>
<polygon fill="#191970" stroke="#191970" points="2480.5536,-17.2001 2490.0621,-12.527 2479.7148,-10.2505 2480.5536,-17.2001"/>
</g>
<!-- Node26&#45;&gt;Node23 -->
<g id="edge29" class="edge">
<title>Node26&#45;&gt;Node23</title>
<path fill="none" stroke="#191970" d="M2356.9745,-56.3733C2391.6143,-45.9441 2446.4775,-29.4261 2480.5214,-19.1764"/>
<polygon fill="#191970" stroke="#191970" points="2481.8065,-22.4447 2490.3729,-16.2103 2479.7884,-15.7419 2481.8065,-22.4447"/>
</g>
<!-- Node27&#45;&gt;Node23 -->
<g id="edge31" class="edge">
<title>Node27&#45;&gt;Node23</title>
<path fill="none" stroke="#191970" d="M2457.3221,-56.2455C2466.9223,-47.9746 2480.8892,-35.9416 2492.1695,-26.2232"/>
<polygon fill="#191970" stroke="#191970" points="2494.516,-28.8214 2499.8076,-19.6427 2489.947,-23.5182 2494.516,-28.8214"/>
</g>
<!-- Node28&#45;&gt;Node23 -->
<g id="edge33" class="edge">
<title>Node28&#45;&gt;Node23</title>
<path fill="none" stroke="#191970" d="M2565.5037,-56.2455C2555.7558,-47.9746 2541.5741,-35.9416 2530.1202,-26.2232"/>
<polygon fill="#191970" stroke="#191970" points="2532.2541,-23.4437 2522.3646,-19.6427 2527.7253,-28.7813 2532.2541,-23.4437"/>
</g>
<!-- Node29&#45;&gt;Node23 -->
<g id="edge35" class="edge">
<title>Node29&#45;&gt;Node23</title>
<path fill="none" stroke="#191970" d="M2683.2435,-56.3733C2643.3232,-45.6255 2579.3848,-28.4113 2541.6613,-18.255"/>
<polygon fill="#191970" stroke="#191970" points="2542.3243,-14.8089 2531.7582,-15.5887 2540.5044,-21.5682 2542.3243,-14.8089"/>
</g>
<!-- Node30&#45;&gt;Node23 -->
<g id="edge37" class="edge">
<title>Node30&#45;&gt;Node23</title>
<path fill="none" stroke="#191970" d="M2819.4736,-56.4369C2738.6243,-44.266 2602.1988,-23.7289 2541.5945,-14.6056"/>
<polygon fill="#191970" stroke="#191970" points="2541.9362,-11.1177 2531.5266,-13.09 2540.8941,-18.0397 2541.9362,-11.1177"/>
</g>
<!-- Node31&#45;&gt;Node23 -->
<g id="edge39" class="edge">
<title>Node31&#45;&gt;Node23</title>
<path fill="none" stroke="#191970" d="M2985.9373,-57.1173C2982.9169,-56.7279 2979.925,-56.3531 2977,-56 2813.5308,-36.2649 2617.0335,-18.9638 2542.0928,-12.5984"/>
<polygon fill="#191970" stroke="#191970" points="2542.1957,-9.0947 2531.9363,-11.7396 2541.6058,-16.0698 2542.1957,-9.0947"/>
</g>
</g>
</svg>
