<?xml version="1.0" encoding="UTF-8" standalone="no"?>
<!DOCTYPE svg PUBLIC "-//W3C//DTD SVG 1.1//EN"
 "http://www.w3.org/Graphics/SVG/1.1/DTD/svg11.dtd">
<!-- Generated by graphviz version 2.40.1 (20161225.0304)
 -->
<!-- Title: libbsn/src/generator/DataGenerator.cpp Pages: 1 -->
<svg width="460pt" height="263pt"
 viewBox="0.00 0.00 459.85 263.00" xmlns="http://www.w3.org/2000/svg" xmlns:xlink="http://www.w3.org/1999/xlink">
<g id="graph0" class="graph" transform="scale(1 1) rotate(0) translate(4 259)">
<title>libbsn/src/generator/DataGenerator.cpp</title>
<polygon fill="#ffffff" stroke="transparent" points="-4,4 -4,-259 455.8514,-259 455.8514,4 -4,4"/>
<!-- Node1 -->
<g id="node1" class="node">
<title>Node1</title>
<g id="a_node1"><a xlink:title=" ">
<polygon fill="#bfbfbf" stroke="#000000" points="187.5,-224.5 187.5,-254.5 289.5,-254.5 289.5,-224.5 187.5,-224.5"/>
<text text-anchor="start" x="195.5" y="-242.5" font-family="Helvetica,sans-Serif" font-size="10.00" fill="#000000">libbsn/src/generator</text>
<text text-anchor="middle" x="238.5" y="-231.5" font-family="Helvetica,sans-Serif" font-size="10.00" fill="#000000">/DataGenerator.cpp</text>
</a>
</g>
</g>
<!-- Node2 -->
<g id="node2" class="node">
<title>Node2</title>
<g id="a_node2"><a xlink:href="DataGenerator_8hpp.html" target="_top" xlink:title=" ">
<polygon fill="#ffffff" stroke="#000000" points="268,-168.5 268,-187.5 411,-187.5 411,-168.5 268,-168.5"/>
<text text-anchor="middle" x="339.5" y="-175.5" font-family="Helvetica,sans-Serif" font-size="10.00" fill="#000000">generator/DataGenerator.hpp</text>
</a>
</g>
</g>
<!-- Node1&#45;&gt;Node2 -->
<g id="edge1" class="edge">
<title>Node1&#45;&gt;Node2</title>
<path fill="none" stroke="#191970" d="M263.2074,-224.4554C279.0247,-214.8241 299.4567,-202.3828 315.1949,-192.7996"/>
<polygon fill="#191970" stroke="#191970" points="317.1277,-195.7206 323.8486,-187.5303 313.4871,-189.7418 317.1277,-195.7206"/>
</g>
<!-- Node10 -->
<g id="node10" class="node">
<title>Node10</title>
<g id="a_node10"><a xlink:href="Range_8hpp.html" target="_top" xlink:title=" ">
<polygon fill="#ffffff" stroke="#000000" points="49,-56.5 49,-75.5 140,-75.5 140,-56.5 49,-56.5"/>
<text text-anchor="middle" x="94.5" y="-63.5" font-family="Helvetica,sans-Serif" font-size="10.00" fill="#000000">range/Range.hpp</text>
</a>
</g>
</g>
<!-- Node1&#45;&gt;Node10 -->
<g id="edge17" class="edge">
<title>Node1&#45;&gt;Node10</title>
<path fill="none" stroke="#191970" d="M225.9729,-224.4065C199.3528,-192.3331 137.2819,-117.5463 109.0019,-83.4728"/>
<polygon fill="#191970" stroke="#191970" points="111.6621,-81.1976 102.5823,-75.738 106.2756,-85.6683 111.6621,-81.1976"/>
</g>
<!-- Node3 -->
<g id="node3" class="node">
<title>Node3</title>
<g id="a_node3"><a xlink:href="Markov_8hpp.html" target="_top" xlink:title=" ">
<polygon fill="#ffffff" stroke="#000000" points="260.5,-112.5 260.5,-131.5 328.5,-131.5 328.5,-112.5 260.5,-112.5"/>
<text text-anchor="middle" x="294.5" y="-119.5" font-family="Helvetica,sans-Serif" font-size="10.00" fill="#000000">Markov.hpp</text>
</a>
</g>
</g>
<!-- Node2&#45;&gt;Node3 -->
<g id="edge2" class="edge">
<title>Node2&#45;&gt;Node3</title>
<path fill="none" stroke="#191970" d="M331.6616,-168.2455C325.338,-160.3761 316.2776,-149.101 308.6864,-139.6542"/>
<polygon fill="#191970" stroke="#191970" points="311.2408,-137.2454 302.2486,-131.6427 305.7842,-141.6302 311.2408,-137.2454"/>
</g>
<!-- Node6 -->
<g id="node6" class="node">
<title>Node6</title>
<g id="a_node6"><a xlink:title=" ">
<polygon fill="#ffffff" stroke="#bfbfbf" points="391,-56.5 391,-75.5 440,-75.5 440,-56.5 391,-56.5"/>
<text text-anchor="middle" x="415.5" y="-63.5" font-family="Helvetica,sans-Serif" font-size="10.00" fill="#000000">random</text>
</a>
</g>
</g>
<!-- Node2&#45;&gt;Node6 -->
<g id="edge15" class="edge">
<title>Node2&#45;&gt;Node6</title>
<path fill="none" stroke="#191970" d="M345.9797,-168.4509C358.6556,-149.7707 386.916,-108.1238 403.234,-84.0761"/>
<polygon fill="#191970" stroke="#191970" points="406.3178,-85.7649 409.0367,-75.5249 400.5255,-81.8344 406.3178,-85.7649"/>
</g>
<!-- Node8 -->
<g id="node8" class="node">
<title>Node8</title>
<g id="a_node8"><a xlink:title=" ">
<polygon fill="#ffffff" stroke="#bfbfbf" points="338,-.5 338,-19.5 387,-19.5 387,-.5 338,-.5"/>
<text text-anchor="middle" x="362.5" y="-7.5" font-family="Helvetica,sans-Serif" font-size="10.00" fill="#000000">stdint.h</text>
</a>
</g>
</g>
<!-- Node2&#45;&gt;Node8 -->
<g id="edge16" class="edge">
<title>Node2&#45;&gt;Node8</title>
<path fill="none" stroke="#191970" d="M357.1171,-168.2959C383.1941,-152.7783 430.9774,-119.6312 449.5,-76 461.1481,-48.5621 425.6721,-29.9319 396.5623,-19.6401"/>
<polygon fill="#191970" stroke="#191970" points="397.6051,-16.2985 387.0116,-16.4689 395.3992,-22.9419 397.6051,-16.2985"/>
</g>
<!-- Node4 -->
<g id="node4" class="node">
<title>Node4</title>
<g id="a_node4"><a xlink:title=" ">
<polygon fill="#ffffff" stroke="#bfbfbf" points="239.5,-.5 239.5,-19.5 293.5,-19.5 293.5,-.5 239.5,-.5"/>
<text text-anchor="middle" x="266.5" y="-7.5" font-family="Helvetica,sans-Serif" font-size="10.00" fill="#000000">iostream</text>
</a>
</g>
</g>
<!-- Node3&#45;&gt;Node4 -->
<g id="edge3" class="edge">
<title>Node3&#45;&gt;Node4</title>
<path fill="none" stroke="#191970" d="M299.1142,-112.3156C304.7017,-99.1915 312.5415,-75.194 305.5,-56 301.4432,-44.9418 293.4203,-34.7193 285.7006,-26.7335"/>
<polygon fill="#191970" stroke="#191970" points="287.8698,-23.9632 278.24,-19.5451 283.0128,-29.0041 287.8698,-23.9632"/>
</g>
<!-- Node5 -->
<g id="node5" class="node">
<title>Node5</title>
<g id="a_node5"><a xlink:title=" ">
<polygon fill="#ffffff" stroke="#bfbfbf" points="196.5,-56.5 196.5,-75.5 234.5,-75.5 234.5,-56.5 196.5,-56.5"/>
<text text-anchor="middle" x="215.5" y="-63.5" font-family="Helvetica,sans-Serif" font-size="10.00" fill="#000000">array</text>
</a>
</g>
</g>
<!-- Node3&#45;&gt;Node5 -->
<g id="edge4" class="edge">
<title>Node3&#45;&gt;Node5</title>
<path fill="none" stroke="#191970" d="M280.7393,-112.2455C268.8448,-103.814 251.435,-91.4729 237.5915,-81.6598"/>
<polygon fill="#191970" stroke="#191970" points="239.2854,-78.5704 229.1031,-75.6427 235.2372,-84.2811 239.2854,-78.5704"/>
</g>
<!-- Node3&#45;&gt;Node6 -->
<g id="edge5" class="edge">
<title>Node3&#45;&gt;Node6</title>
<path fill="none" stroke="#191970" d="M315.3006,-112.3733C334.7243,-103.3838 363.9224,-89.8706 385.7964,-79.7471"/>
<polygon fill="#191970" stroke="#191970" points="387.3656,-82.8776 394.9708,-75.5011 384.4255,-76.5249 387.3656,-82.8776"/>
</g>
<!-- Node7 -->
<g id="node7" class="node">
<title>Node7</title>
<g id="a_node7"><a xlink:title=" ">
<polygon fill="#ffffff" stroke="#bfbfbf" points="252.5,-56.5 252.5,-75.5 296.5,-75.5 296.5,-56.5 252.5,-56.5"/>
<text text-anchor="middle" x="274.5" y="-63.5" font-family="Helvetica,sans-Serif" font-size="10.00" fill="#000000">vector</text>
</a>
</g>
</g>
<!-- Node3&#45;&gt;Node7 -->
<g id="edge6" class="edge">
<title>Node3&#45;&gt;Node7</title>
<path fill="none" stroke="#191970" d="M291.0163,-112.2455C288.3492,-104.7776 284.5867,-94.2427 281.3263,-85.1137"/>
<polygon fill="#191970" stroke="#191970" points="284.6033,-83.8829 277.9438,-75.6427 278.0111,-86.2373 284.6033,-83.8829"/>
</g>
<!-- Node3&#45;&gt;Node8 -->
<g id="edge7" class="edge">
<title>Node3&#45;&gt;Node8</title>
<path fill="none" stroke="#191970" d="M300.2976,-112.4509C311.6392,-93.7707 336.9249,-52.1238 351.5252,-28.0761"/>
<polygon fill="#191970" stroke="#191970" points="354.519,-29.8892 356.717,-19.5249 348.5354,-26.2563 354.519,-29.8892"/>
</g>
<!-- Node9 -->
<g id="node9" class="node">
<title>Node9</title>
<g id="a_node9"><a xlink:title=" ">
<polygon fill="#ffffff" stroke="#bfbfbf" points="140.5,-.5 140.5,-19.5 192.5,-19.5 192.5,-.5 140.5,-.5"/>
<text text-anchor="middle" x="166.5" y="-7.5" font-family="Helvetica,sans-Serif" font-size="10.00" fill="#000000">sstream</text>
</a>
</g>
</g>
<!-- Node3&#45;&gt;Node9 -->
<g id="edge8" class="edge">
<title>Node3&#45;&gt;Node9</title>
<path fill="none" stroke="#191970" d="M260.4641,-115.2118C236.9472,-108.8484 206.5809,-97.0481 187.5,-76 176.0296,-63.347 170.8228,-44.4183 168.4603,-30.0723"/>
<polygon fill="#191970" stroke="#191970" points="171.8784,-29.2181 167.11,-19.757 164.9376,-30.1268 171.8784,-29.2181"/>
</g>
<!-- Node3&#45;&gt;Node10 -->
<g id="edge9" class="edge">
<title>Node3&#45;&gt;Node10</title>
<path fill="none" stroke="#191970" d="M260.1188,-112.3733C226.4299,-102.9404 174.9518,-88.5265 138.3382,-78.2747"/>
<polygon fill="#191970" stroke="#191970" points="139.006,-74.8271 128.4326,-75.5011 137.1185,-81.5679 139.006,-74.8271"/>
</g>
<!-- Node10&#45;&gt;Node4 -->
<g id="edge12" class="edge">
<title>Node10&#45;&gt;Node4</title>
<path fill="none" stroke="#191970" d="M124.0679,-56.3733C153.2755,-46.8638 198.0314,-32.2921 229.5636,-22.0258"/>
<polygon fill="#191970" stroke="#191970" points="230.8751,-25.2797 239.3002,-18.8557 228.7079,-18.6236 230.8751,-25.2797"/>
</g>
<!-- Node10&#45;&gt;Node8 -->
<g id="edge13" class="edge">
<title>Node10&#45;&gt;Node8</title>
<path fill="none" stroke="#191970" d="M140.2663,-56.4369C193.4714,-45.3194 280.0843,-27.2212 327.956,-17.2182"/>
<polygon fill="#191970" stroke="#191970" points="328.7668,-20.6244 337.8395,-15.1529 327.335,-13.7724 328.7668,-20.6244"/>
</g>
<!-- Node10&#45;&gt;Node9 -->
<g id="edge14" class="edge">
<title>Node10&#45;&gt;Node9</title>
<path fill="none" stroke="#191970" d="M107.0414,-56.2455C117.7787,-47.8943 133.4473,-35.7076 146.0047,-25.9408"/>
<polygon fill="#191970" stroke="#191970" points="148.3575,-28.5449 154.1023,-19.6427 144.0599,-23.0194 148.3575,-28.5449"/>
</g>
<!-- Node11 -->
<g id="node11" class="node">
<title>Node11</title>
<g id="a_node11"><a xlink:title=" ">
<polygon fill="#ffffff" stroke="#bfbfbf" points="77,-.5 77,-19.5 118,-19.5 118,-.5 77,-.5"/>
<text text-anchor="middle" x="97.5" y="-7.5" font-family="Helvetica,sans-Serif" font-size="10.00" fill="#000000">string</text>
</a>
</g>
</g>
<!-- Node10&#45;&gt;Node11 -->
<g id="edge10" class="edge">
<title>Node10&#45;&gt;Node11</title>
<path fill="none" stroke="#191970" d="M95.0226,-56.2455C95.414,-48.9382 95.9628,-38.6944 96.4444,-29.7046"/>
<polygon fill="#191970" stroke="#191970" points="99.9434,-29.8156 96.9834,-19.6427 92.9534,-29.4411 99.9434,-29.8156"/>
</g>
<!-- Node12 -->
<g id="node12" class="node">
<title>Node12</title>
<g id="a_node12"><a xlink:title=" ">
<polygon fill="#ffffff" stroke="#bfbfbf" points="0,-.5 0,-19.5 59,-19.5 59,-.5 0,-.5"/>
<text text-anchor="middle" x="29.5" y="-7.5" font-family="Helvetica,sans-Serif" font-size="10.00" fill="#000000">stdexcept</text>
</a>
</g>
</g>
<!-- Node10&#45;&gt;Node12 -->
<g id="edge11" class="edge">
<title>Node10&#45;&gt;Node12</title>
<path fill="none" stroke="#191970" d="M83.1779,-56.2455C73.5777,-47.9746 59.6108,-35.9416 48.3305,-26.2232"/>
<polygon fill="#191970" stroke="#191970" points="50.553,-23.5182 40.6924,-19.6427 45.984,-28.8214 50.553,-23.5182"/>
</g>
</g>
</svg>
