<?xml version="1.0" encoding="UTF-8" standalone="no"?>
<!DOCTYPE svg PUBLIC "-//W3C//DTD SVG 1.1//EN"
 "http://www.w3.org/Graphics/SVG/1.1/DTD/svg11.dtd">
<!-- Generated by graphviz version 2.40.1 (20161225.0304)
 -->
<!-- Title: libbsn/test/unit/generator/DataGeneratorTest.cpp Pages: 1 -->
<svg width="615pt" height="263pt"
 viewBox="0.00 0.00 615.00 263.00" xmlns="http://www.w3.org/2000/svg" xmlns:xlink="http://www.w3.org/1999/xlink">
<g id="graph0" class="graph" transform="scale(1 1) rotate(0) translate(4 259)">
<title>libbsn/test/unit/generator/DataGeneratorTest.cpp</title>
<polygon fill="#ffffff" stroke="transparent" points="-4,4 -4,-259 611,-259 611,4 -4,4"/>
<!-- Node1 -->
<g id="node1" class="node">
<title>Node1</title>
<g id="a_node1"><a xlink:title=" ">
<polygon fill="#bfbfbf" stroke="#000000" points="137.5,-224.5 137.5,-254.5 261.5,-254.5 261.5,-224.5 137.5,-224.5"/>
<text text-anchor="start" x="145.5" y="-242.5" font-family="Helvetica,sans-Serif" font-size="10.00" fill="#000000">libbsn/test/unit/generator</text>
<text text-anchor="middle" x="199.5" y="-231.5" font-family="Helvetica,sans-Serif" font-size="10.00" fill="#000000">/DataGeneratorTest.cpp</text>
</a>
</g>
</g>
<!-- Node2 -->
<g id="node2" class="node">
<title>Node2</title>
<g id="a_node2"><a xlink:title=" ">
<polygon fill="#ffffff" stroke="#bfbfbf" points="0,-168.5 0,-187.5 71,-187.5 71,-168.5 0,-168.5"/>
<text text-anchor="middle" x="35.5" y="-175.5" font-family="Helvetica,sans-Serif" font-size="10.00" fill="#000000">gtest/gtest.h</text>
</a>
</g>
</g>
<!-- Node1&#45;&gt;Node2 -->
<g id="edge1" class="edge">
<title>Node1&#45;&gt;Node2</title>
<path fill="none" stroke="#191970" d="M159.3811,-224.4554C132.1373,-214.239 96.4623,-200.8609 70.3962,-191.0861"/>
<polygon fill="#191970" stroke="#191970" points="71.5064,-187.7645 60.9142,-187.5303 69.0485,-194.3188 71.5064,-187.7645"/>
</g>
<!-- Node3 -->
<g id="node3" class="node">
<title>Node3</title>
<g id="a_node3"><a xlink:title=" ">
<polygon fill="#ffffff" stroke="#bfbfbf" points="166,-.5 166,-19.5 215,-19.5 215,-.5 166,-.5"/>
<text text-anchor="middle" x="190.5" y="-7.5" font-family="Helvetica,sans-Serif" font-size="10.00" fill="#000000">stdint.h</text>
</a>
</g>
</g>
<!-- Node1&#45;&gt;Node3 -->
<g id="edge2" class="edge">
<title>Node1&#45;&gt;Node3</title>
<path fill="none" stroke="#191970" d="M159.9741,-224.4754C144.1115,-216.2614 127.4845,-204.3591 118.5,-188 87.5819,-131.704 143.9872,-59.3205 173.7858,-26.9538"/>
<polygon fill="#191970" stroke="#191970" points="176.3917,-29.292 180.7191,-19.6212 171.3054,-24.4827 176.3917,-29.292"/>
</g>
<!-- Node4 -->
<g id="node4" class="node">
<title>Node4</title>
<g id="a_node4"><a xlink:href="DataGenerator_8hpp.html" target="_top" xlink:title=" ">
<polygon fill="#ffffff" stroke="#000000" points="128,-168.5 128,-187.5 271,-187.5 271,-168.5 128,-168.5"/>
<text text-anchor="middle" x="199.5" y="-175.5" font-family="Helvetica,sans-Serif" font-size="10.00" fill="#000000">generator/DataGenerator.hpp</text>
</a>
</g>
</g>
<!-- Node1&#45;&gt;Node4 -->
<g id="edge3" class="edge">
<title>Node1&#45;&gt;Node4</title>
<path fill="none" stroke="#191970" d="M199.5,-224.2977C199.5,-216.3834 199.5,-206.6043 199.5,-198.0759"/>
<polygon fill="#191970" stroke="#191970" points="203.0001,-197.8469 199.5,-187.8469 196.0001,-197.847 203.0001,-197.8469"/>
</g>
<!-- Node5 -->
<g id="node5" class="node">
<title>Node5</title>
<g id="a_node5"><a xlink:href="Markov_8hpp.html" target="_top" xlink:title=" ">
<polygon fill="#ffffff" stroke="#000000" points="265.5,-112.5 265.5,-131.5 333.5,-131.5 333.5,-112.5 265.5,-112.5"/>
<text text-anchor="middle" x="299.5" y="-119.5" font-family="Helvetica,sans-Serif" font-size="10.00" fill="#000000">Markov.hpp</text>
</a>
</g>
</g>
<!-- Node1&#45;&gt;Node5 -->
<g id="edge19" class="edge">
<title>Node1&#45;&gt;Node5</title>
<path fill="none" stroke="#191970" d="M234.4665,-224.4638C250.5895,-215.916 268.7194,-203.7442 280.5,-188 290.5333,-174.591 295.2764,-156.0288 297.514,-142.0043"/>
<polygon fill="#191970" stroke="#191970" points="301.0072,-142.2823 298.8246,-131.9148 294.0655,-141.3806 301.0072,-142.2823"/>
</g>
<!-- Node11 -->
<g id="node11" class="node">
<title>Node11</title>
<g id="a_node11"><a xlink:href="Range_8hpp.html" target="_top" xlink:title=" ">
<polygon fill="#ffffff" stroke="#000000" points="466,-56.5 466,-75.5 557,-75.5 557,-56.5 466,-56.5"/>
<text text-anchor="middle" x="511.5" y="-63.5" font-family="Helvetica,sans-Serif" font-size="10.00" fill="#000000">range/Range.hpp</text>
</a>
</g>
</g>
<!-- Node1&#45;&gt;Node11 -->
<g id="edge20" class="edge">
<title>Node1&#45;&gt;Node11</title>
<path fill="none" stroke="#191970" d="M229.8872,-224.3137C249.807,-214.2452 276.3502,-200.6132 299.5,-188 368.0254,-150.6638 447.413,-104.0643 486.7571,-80.74"/>
<polygon fill="#191970" stroke="#191970" points="488.6095,-83.7106 495.4213,-75.5958 485.0358,-77.6916 488.6095,-83.7106"/>
</g>
<!-- Node4&#45;&gt;Node3 -->
<g id="edge18" class="edge">
<title>Node4&#45;&gt;Node3</title>
<path fill="none" stroke="#191970" d="M193.8422,-168.2932C183.917,-150.6398 163.7355,-111.7893 156.5,-76 154.7386,-67.2874 153.7186,-64.4425 156.5,-56 160.0056,-45.3594 167.0241,-35.164 173.7787,-27.0877"/>
<polygon fill="#191970" stroke="#191970" points="176.5014,-29.2937 180.5638,-19.5087 171.286,-24.6247 176.5014,-29.2937"/>
</g>
<!-- Node4&#45;&gt;Node5 -->
<g id="edge4" class="edge">
<title>Node4&#45;&gt;Node5</title>
<path fill="none" stroke="#191970" d="M216.9187,-168.2455C232.5485,-159.4928 255.7019,-146.527 273.5185,-136.5496"/>
<polygon fill="#191970" stroke="#191970" points="275.266,-139.5825 282.2809,-131.6427 271.8457,-133.475 275.266,-139.5825"/>
</g>
<!-- Node8 -->
<g id="node8" class="node">
<title>Node8</title>
<g id="a_node8"><a xlink:title=" ">
<polygon fill="#ffffff" stroke="#bfbfbf" points="166,-56.5 166,-75.5 215,-75.5 215,-56.5 166,-56.5"/>
<text text-anchor="middle" x="190.5" y="-63.5" font-family="Helvetica,sans-Serif" font-size="10.00" fill="#000000">random</text>
</a>
</g>
</g>
<!-- Node4&#45;&gt;Node8 -->
<g id="edge17" class="edge">
<title>Node4&#45;&gt;Node8</title>
<path fill="none" stroke="#191970" d="M198.7327,-168.4509C197.2648,-150.184 194.0321,-109.9553 192.0828,-85.6976"/>
<polygon fill="#191970" stroke="#191970" points="195.5552,-85.2124 191.2654,-75.5249 188.5777,-85.7731 195.5552,-85.2124"/>
</g>
<!-- Node5&#45;&gt;Node3 -->
<g id="edge9" class="edge">
<title>Node5&#45;&gt;Node3</title>
<path fill="none" stroke="#191970" d="M290.2067,-112.4509C271.7051,-93.4401 230.0537,-50.6423 206.8656,-26.816"/>
<polygon fill="#191970" stroke="#191970" points="209.2525,-24.2502 199.7698,-19.5249 204.236,-29.1324 209.2525,-24.2502"/>
</g>
<!-- Node6 -->
<g id="node6" class="node">
<title>Node6</title>
<g id="a_node6"><a xlink:title=" ">
<polygon fill="#ffffff" stroke="#bfbfbf" points="412.5,-.5 412.5,-19.5 466.5,-19.5 466.5,-.5 412.5,-.5"/>
<text text-anchor="middle" x="439.5" y="-7.5" font-family="Helvetica,sans-Serif" font-size="10.00" fill="#000000">iostream</text>
</a>
</g>
</g>
<!-- Node5&#45;&gt;Node6 -->
<g id="edge5" class="edge">
<title>Node5&#45;&gt;Node6</title>
<path fill="none" stroke="#191970" d="M333.7141,-116.98C360.2618,-111.3602 396.1873,-99.7125 418.5,-76 430.3194,-63.4391 435.4866,-44.234 437.7456,-29.7736"/>
<polygon fill="#191970" stroke="#191970" points="441.2217,-30.1815 438.9681,-19.8292 434.274,-29.3274 441.2217,-30.1815"/>
</g>
<!-- Node7 -->
<g id="node7" class="node">
<title>Node7</title>
<g id="a_node7"><a xlink:title=" ">
<polygon fill="#ffffff" stroke="#bfbfbf" points="271.5,-56.5 271.5,-75.5 309.5,-75.5 309.5,-56.5 271.5,-56.5"/>
<text text-anchor="middle" x="290.5" y="-63.5" font-family="Helvetica,sans-Serif" font-size="10.00" fill="#000000">array</text>
</a>
</g>
</g>
<!-- Node5&#45;&gt;Node7 -->
<g id="edge6" class="edge">
<title>Node5&#45;&gt;Node7</title>
<path fill="none" stroke="#191970" d="M297.9323,-112.2455C296.7579,-104.9382 295.1116,-94.6944 293.6668,-85.7046"/>
<polygon fill="#191970" stroke="#191970" points="297.0922,-84.9606 292.0497,-75.6427 290.1809,-86.0714 297.0922,-84.9606"/>
</g>
<!-- Node5&#45;&gt;Node8 -->
<g id="edge7" class="edge">
<title>Node5&#45;&gt;Node8</title>
<path fill="none" stroke="#191970" d="M280.5136,-112.2455C263.3208,-103.4125 237.7762,-90.2887 218.2868,-80.2758"/>
<polygon fill="#191970" stroke="#191970" points="219.763,-77.0993 209.2688,-75.6427 216.5641,-83.3257 219.763,-77.0993"/>
</g>
<!-- Node9 -->
<g id="node9" class="node">
<title>Node9</title>
<g id="a_node9"><a xlink:title=" ">
<polygon fill="#ffffff" stroke="#bfbfbf" points="365.5,-56.5 365.5,-75.5 409.5,-75.5 409.5,-56.5 365.5,-56.5"/>
<text text-anchor="middle" x="387.5" y="-63.5" font-family="Helvetica,sans-Serif" font-size="10.00" fill="#000000">vector</text>
</a>
</g>
</g>
<!-- Node5&#45;&gt;Node9 -->
<g id="edge8" class="edge">
<title>Node5&#45;&gt;Node9</title>
<path fill="none" stroke="#191970" d="M314.8284,-112.2455C328.3303,-103.6534 348.2122,-91.0014 363.7686,-81.1018"/>
<polygon fill="#191970" stroke="#191970" points="365.7897,-83.9643 372.3472,-75.6427 362.0315,-78.0587 365.7897,-83.9643"/>
</g>
<!-- Node10 -->
<g id="node10" class="node">
<title>Node10</title>
<g id="a_node10"><a xlink:title=" ">
<polygon fill="#ffffff" stroke="#bfbfbf" points="326.5,-.5 326.5,-19.5 378.5,-19.5 378.5,-.5 326.5,-.5"/>
<text text-anchor="middle" x="352.5" y="-7.5" font-family="Helvetica,sans-Serif" font-size="10.00" fill="#000000">sstream</text>
</a>
</g>
</g>
<!-- Node5&#45;&gt;Node10 -->
<g id="edge10" class="edge">
<title>Node5&#45;&gt;Node10</title>
<path fill="none" stroke="#191970" d="M304.0188,-112.4509C312.7803,-93.936 332.2185,-52.8591 343.6421,-28.7187"/>
<polygon fill="#191970" stroke="#191970" points="346.8789,-30.061 347.9927,-19.5249 340.5516,-27.0668 346.8789,-30.061"/>
</g>
<!-- Node5&#45;&gt;Node11 -->
<g id="edge11" class="edge">
<title>Node5&#45;&gt;Node11</title>
<path fill="none" stroke="#191970" d="M333.5615,-113.0026C369.3848,-103.5399 425.9637,-88.5945 465.6826,-78.1027"/>
<polygon fill="#191970" stroke="#191970" points="466.62,-81.4752 475.3945,-75.5373 464.8322,-74.7074 466.62,-81.4752"/>
</g>
<!-- Node11&#45;&gt;Node3 -->
<g id="edge15" class="edge">
<title>Node11&#45;&gt;Node3</title>
<path fill="none" stroke="#191970" d="M465.8494,-58.036C400.9959,-46.722 283.6048,-26.2426 225.3005,-16.0711"/>
<polygon fill="#191970" stroke="#191970" points="225.5801,-12.5671 215.1274,-14.2964 224.377,-19.463 225.5801,-12.5671"/>
</g>
<!-- Node11&#45;&gt;Node6 -->
<g id="edge14" class="edge">
<title>Node11&#45;&gt;Node6</title>
<path fill="none" stroke="#191970" d="M498.9586,-56.2455C488.2213,-47.8943 472.5527,-35.7076 459.9953,-25.9408"/>
<polygon fill="#191970" stroke="#191970" points="461.9401,-23.0194 451.8977,-19.6427 457.6425,-28.5449 461.9401,-23.0194"/>
</g>
<!-- Node11&#45;&gt;Node10 -->
<g id="edge16" class="edge">
<title>Node11&#45;&gt;Node10</title>
<path fill="none" stroke="#191970" d="M484.1669,-56.3733C457.7183,-47.058 417.4777,-32.8852 388.4458,-22.6602"/>
<polygon fill="#191970" stroke="#191970" points="389.2801,-19.2433 378.6853,-19.2225 386.9547,-25.8458 389.2801,-19.2433"/>
</g>
<!-- Node12 -->
<g id="node12" class="node">
<title>Node12</title>
<g id="a_node12"><a xlink:title=" ">
<polygon fill="#ffffff" stroke="#bfbfbf" points="489,-.5 489,-19.5 530,-19.5 530,-.5 489,-.5"/>
<text text-anchor="middle" x="509.5" y="-7.5" font-family="Helvetica,sans-Serif" font-size="10.00" fill="#000000">string</text>
</a>
</g>
</g>
<!-- Node11&#45;&gt;Node12 -->
<g id="edge12" class="edge">
<title>Node11&#45;&gt;Node12</title>
<path fill="none" stroke="#191970" d="M511.1516,-56.2455C510.8907,-48.9382 510.5248,-38.6944 510.2037,-29.7046"/>
<polygon fill="#191970" stroke="#191970" points="513.6992,-29.5113 509.8444,-19.6427 506.7036,-29.7613 513.6992,-29.5113"/>
</g>
<!-- Node13 -->
<g id="node13" class="node">
<title>Node13</title>
<g id="a_node13"><a xlink:title=" ">
<polygon fill="#ffffff" stroke="#bfbfbf" points="548,-.5 548,-19.5 607,-19.5 607,-.5 548,-.5"/>
<text text-anchor="middle" x="577.5" y="-7.5" font-family="Helvetica,sans-Serif" font-size="10.00" fill="#000000">stdexcept</text>
</a>
</g>
</g>
<!-- Node11&#45;&gt;Node13 -->
<g id="edge13" class="edge">
<title>Node11&#45;&gt;Node13</title>
<path fill="none" stroke="#191970" d="M522.9963,-56.2455C532.7442,-47.9746 546.9259,-35.9416 558.3798,-26.2232"/>
<polygon fill="#191970" stroke="#191970" points="560.7747,-28.7813 566.1354,-19.6427 556.2459,-23.4437 560.7747,-28.7813"/>
</g>
</g>
</svg>
