<?xml version="1.0" encoding="UTF-8" standalone="no"?>
<!DOCTYPE svg PUBLIC "-//W3C//DTD SVG 1.1//EN"
 "http://www.w3.org/Graphics/SVG/1.1/DTD/svg11.dtd">
<!-- Generated by graphviz version 2.40.1 (20161225.0304)
 -->
<!-- Title: main Pages: 1 -->
<svg width="409pt" height="186pt"
 viewBox="0.00 0.00 409.00 186.00" xmlns="http://www.w3.org/2000/svg" xmlns:xlink="http://www.w3.org/1999/xlink">
<g id="graph0" class="graph" transform="scale(1 1) rotate(0) translate(4 182)">
<title>main</title>
<polygon fill="#ffffff" stroke="transparent" points="-4,4 -4,-182 405,-182 405,4 -4,4"/>
<!-- Node1 -->
<g id="node1" class="node">
<title>Node1</title>
<g id="a_node1"><a xlink:title=" ">
<polygon fill="#bfbfbf" stroke="#000000" points="0,-79 0,-98 38,-98 38,-79 0,-79"/>
<text text-anchor="middle" x="19" y="-86" font-family="Helvetica,sans-Serif" font-size="10.00" fill="#000000">main</text>
</a>
</g>
</g>
<!-- Node2 -->
<g id="node2" class="node">
<title>Node2</title>
<g id="a_node2"><a xlink:href="classarch_1_1ROSComponent.html#acb85f671d782a1c628fcbf9b36abf21d" target="_top" xlink:title=" ">
<polygon fill="#ffffff" stroke="#000000" points="74,-79 74,-98 207,-98 207,-79 74,-79"/>
<text text-anchor="middle" x="140.5" y="-86" font-family="Helvetica,sans-Serif" font-size="10.00" fill="#000000">arch::ROSComponent::run</text>
</a>
</g>
</g>
<!-- Node1&#45;&gt;Node2 -->
<g id="edge1" class="edge">
<title>Node1&#45;&gt;Node2</title>
<path fill="none" stroke="#191970" d="M38.252,-88.5C45.6021,-88.5 54.5045,-88.5 63.955,-88.5"/>
<polygon fill="#191970" stroke="#191970" points="63.9597,-92.0001 73.9596,-88.5 63.9596,-85.0001 63.9597,-92.0001"/>
</g>
<!-- Node3 -->
<g id="node3" class="node">
<title>Node3</title>
<g id="a_node3"><a xlink:href="classarch_1_1ROSComponent.html#ad59a3de60bed73bf6d37f0da4775a2d9" target="_top" xlink:title=" ">
<polygon fill="#ffffff" stroke="#000000" points="265.5,-147.5 265.5,-177.5 378.5,-177.5 378.5,-147.5 265.5,-147.5"/>
<text text-anchor="start" x="273.5" y="-165.5" font-family="Helvetica,sans-Serif" font-size="10.00" fill="#000000">arch::ROSComponent</text>
<text text-anchor="middle" x="322" y="-154.5" font-family="Helvetica,sans-Serif" font-size="10.00" fill="#000000">::body</text>
</a>
</g>
</g>
<!-- Node2&#45;&gt;Node3 -->
<g id="edge2" class="edge">
<title>Node2&#45;&gt;Node3</title>
<path fill="none" stroke="#191970" d="M157.8932,-98.0433C177.9828,-108.8146 212.2253,-126.4079 243,-138.5 248.003,-140.4658 253.2354,-142.3706 258.5227,-144.1902"/>
<polygon fill="#191970" stroke="#191970" points="257.4677,-147.5278 268.0614,-147.3682 259.6804,-140.8867 257.4677,-147.5278"/>
</g>
<!-- Node4 -->
<g id="node4" class="node">
<title>Node4</title>
<g id="a_node4"><a xlink:href="classarch_1_1ROSComponentDescriptor.html#a4b73f46f37241865a08e75ab202e28eb" target="_top" xlink:title=" ">
<polygon fill="#ffffff" stroke="#000000" points="243,-98.5 243,-128.5 401,-128.5 401,-98.5 243,-98.5"/>
<text text-anchor="start" x="251" y="-116.5" font-family="Helvetica,sans-Serif" font-size="10.00" fill="#000000">arch::ROSComponentDescriptor</text>
<text text-anchor="middle" x="322" y="-105.5" font-family="Helvetica,sans-Serif" font-size="10.00" fill="#000000">::getFreq</text>
</a>
</g>
</g>
<!-- Node2&#45;&gt;Node4 -->
<g id="edge3" class="edge">
<title>Node2&#45;&gt;Node4</title>
<path fill="none" stroke="#191970" d="M207.0533,-97.6671C215.4158,-98.819 224.074,-100.0116 232.7145,-101.2017"/>
<polygon fill="#191970" stroke="#191970" points="232.4467,-104.6978 242.8308,-102.5951 233.4019,-97.7633 232.4467,-104.6978"/>
</g>
<!-- Node5 -->
<g id="node5" class="node">
<title>Node5</title>
<g id="a_node5"><a xlink:href="classarch_1_1ROSComponent.html#ab134ea71604829a9e520a03bcae4bb8d" target="_top" xlink:title=" ">
<polygon fill="#ffffff" stroke="#000000" points="265.5,-49.5 265.5,-79.5 378.5,-79.5 378.5,-49.5 265.5,-49.5"/>
<text text-anchor="start" x="273.5" y="-67.5" font-family="Helvetica,sans-Serif" font-size="10.00" fill="#000000">arch::ROSComponent</text>
<text text-anchor="middle" x="322" y="-56.5" font-family="Helvetica,sans-Serif" font-size="10.00" fill="#000000">::setUp</text>
</a>
</g>
</g>
<!-- Node2&#45;&gt;Node5 -->
<g id="edge4" class="edge">
<title>Node2&#45;&gt;Node5</title>
<path fill="none" stroke="#191970" d="M207.0533,-79.6996C222.7389,-77.6254 239.4649,-75.4137 255.163,-73.338"/>
<polygon fill="#191970" stroke="#191970" points="255.8543,-76.7771 265.3091,-71.9963 254.9366,-69.8375 255.8543,-76.7771"/>
</g>
<!-- Node6 -->
<g id="node6" class="node">
<title>Node6</title>
<g id="a_node6"><a xlink:href="classarch_1_1ROSComponent.html#a0069d6f5e45a9daf0bdbefd773973bba" target="_top" xlink:title=" ">
<polygon fill="#ffffff" stroke="#000000" points="265.5,-.5 265.5,-30.5 378.5,-30.5 378.5,-.5 265.5,-.5"/>
<text text-anchor="start" x="273.5" y="-18.5" font-family="Helvetica,sans-Serif" font-size="10.00" fill="#000000">arch::ROSComponent</text>
<text text-anchor="middle" x="322" y="-7.5" font-family="Helvetica,sans-Serif" font-size="10.00" fill="#000000">::tearDown</text>
</a>
</g>
</g>
<!-- Node2&#45;&gt;Node6 -->
<g id="edge5" class="edge">
<title>Node2&#45;&gt;Node6</title>
<path fill="none" stroke="#191970" d="M159.0682,-78.899C179.358,-68.623 212.9812,-52.22 243,-40.5 248.892,-38.1996 255.0906,-35.9519 261.3165,-33.8067"/>
<polygon fill="#191970" stroke="#191970" points="262.7169,-37.0286 271.0825,-30.5272 260.4885,-30.3928 262.7169,-37.0286"/>
</g>
</g>
</svg>
