<?xml version="1.0" encoding="UTF-8" standalone="no"?>
<!DOCTYPE svg PUBLIC "-//W3C//DTD SVG 1.1//EN"
 "http://www.w3.org/Graphics/SVG/1.1/DTD/svg11.dtd">
<!-- Generated by graphviz version 2.40.1 (20161225.0304)
 -->
<!-- Title: libbsn/test/unit/processor Pages: 1 -->
<svg width="100pt" height="151pt"
 viewBox="0.00 0.00 100.00 151.00" xmlns="http://www.w3.org/2000/svg" xmlns:xlink="http://www.w3.org/1999/xlink">
<g id="graph0" class="graph" transform="scale(1 1) rotate(0) translate(4 147)">
<title>libbsn/test/unit/processor</title>
<polygon fill="#ffffff" stroke="transparent" points="-4,4 -4,-147 96,-147 96,4 -4,4"/>
<g id="clust1" class="cluster">
<title>clusterdir_9dc014e2e80ca51c01cf0b0047cf525e</title>
<g id="a_clust1"><a xlink:href="dir_9dc014e2e80ca51c01cf0b0047cf525e.html" target="_top" xlink:title="unit">
<polygon fill="#ddddee" stroke="#000000" points="8,-64 8,-135 84,-135 84,-64 8,-64"/>
<text text-anchor="middle" x="46" y="-123" font-family="Helvetica,sans-Serif" font-size="10.00" fill="#000000">unit</text>
</a>
</g>
</g>
<!-- dir_87722dd0bd6bc34da61bd244edac79b2 -->
<g id="node1" class="node">
<title>dir_87722dd0bd6bc34da61bd244edac79b2</title>
<g id="a_node1"><a xlink:href="dir_87722dd0bd6bc34da61bd244edac79b2.html" target="_top" xlink:title="processor">
<polygon fill="#eeeeff" stroke="#000000" points="75.5,-108 16.5,-108 16.5,-72 75.5,-72 75.5,-108"/>
<text text-anchor="middle" x="46" y="-87.5" font-family="Helvetica,sans-Serif" font-size="10.00" fill="#000000">processor</text>
</a>
</g>
</g>
<!-- dir_2ba61e7b1dcf8b98fd20bf8162f6f392 -->
<g id="node2" class="node">
<title>dir_2ba61e7b1dcf8b98fd20bf8162f6f392</title>
<g id="a_node2"><a xlink:href="dir_2ba61e7b1dcf8b98fd20bf8162f6f392.html" target="_top" xlink:title="include">
<polygon fill="#ffffff" stroke="#ff0000" points="73,-36 19,-36 19,0 73,0 73,-36"/>
<text text-anchor="middle" x="46" y="-15.5" font-family="Helvetica,sans-Serif" font-size="10.00" fill="#000000">include</text>
</a>
</g>
</g>
<!-- dir_87722dd0bd6bc34da61bd244edac79b2&#45;&gt;dir_2ba61e7b1dcf8b98fd20bf8162f6f392 -->
<g id="edge1" class="edge">
<title>dir_87722dd0bd6bc34da61bd244edac79b2&#45;&gt;dir_2ba61e7b1dcf8b98fd20bf8162f6f392</title>
<path fill="none" stroke="#000000" d="M46,-71.8314C46,-64.131 46,-54.9743 46,-46.4166"/>
<polygon fill="#000000" stroke="#000000" points="49.5001,-46.4132 46,-36.4133 42.5001,-46.4133 49.5001,-46.4132"/>
<g id="a_edge1&#45;headlabel"><a xlink:href="dir_000088_000059.html" target="_top" xlink:title="1">
<text text-anchor="middle" x="52.3393" y="-47.5079" font-family="Helvetica,sans-Serif" font-size="10.00" fill="#000000">1</text>
</a>
</g>
</g>
</g>
</svg>
