<?xml version="1.0" encoding="UTF-8" standalone="no"?>
<!DOCTYPE svg PUBLIC "-//W3C//DTD SVG 1.1//EN"
 "http://www.w3.org/Graphics/SVG/1.1/DTD/svg11.dtd">
<!-- Generated by graphviz version 2.40.1 (20161225.0304)
 -->
<!-- Title: src/target_system/effectors/param_adapter/include Pages: 1 -->
<svg width="210pt" height="159pt"
 viewBox="0.00 0.00 210.00 159.00" xmlns="http://www.w3.org/2000/svg" xmlns:xlink="http://www.w3.org/1999/xlink">
<g id="graph0" class="graph" transform="scale(1 1) rotate(0) translate(4 155)">
<title>src/target_system/effectors/param_adapter/include</title>
<polygon fill="#ffffff" stroke="transparent" points="-4,4 -4,-155 206,-155 206,4 -4,4"/>
<g id="clust1" class="cluster">
<title>clusterdir_5812098c7ca2efc687bbbc42a8f27351</title>
<g id="a_clust1"><a xlink:href="dir_5812098c7ca2efc687bbbc42a8f27351.html" target="_top" xlink:title="param_adapter">
<polygon fill="#ddddee" stroke="#000000" points="8,-56 8,-143 194,-143 194,-56 8,-56"/>
<text text-anchor="middle" x="101" y="-131" font-family="Helvetica,sans-Serif" font-size="10.00" fill="#000000">param_adapter</text>
</a>
</g>
</g>
<g id="clust2" class="cluster">
<title>clusterdir_307f04203007b1ac87fdbfc2c2ac35d7</title>
<g id="a_clust2"><a xlink:href="dir_307f04203007b1ac87fdbfc2c2ac35d7.html" target="_top">
<polygon fill="#eeeeff" stroke="#000000" points="16,-64 16,-116 186,-116 186,-64 16,-64"/>
</a>
</g>
</g>
<!-- dir_307f04203007b1ac87fdbfc2c2ac35d7 -->
<g id="node1" class="node">
<title>dir_307f04203007b1ac87fdbfc2c2ac35d7</title>
<text text-anchor="middle" x="151" y="-87.5" font-family="Helvetica,sans-Serif" font-size="10.00" fill="#000000">include</text>
</g>
<!-- dir_d443f4a592fd6d6b0795d7cde3bbf9d4 -->
<g id="node2" class="node">
<title>dir_d443f4a592fd6d6b0795d7cde3bbf9d4</title>
<g id="a_node2"><a xlink:href="dir_d443f4a592fd6d6b0795d7cde3bbf9d4.html" target="_top" xlink:title="param_adapter">
<polygon fill="#ffffff" stroke="#000000" points="105.5,-108 24.5,-108 24.5,-72 105.5,-72 105.5,-108"/>
<text text-anchor="middle" x="65" y="-87.5" font-family="Helvetica,sans-Serif" font-size="10.00" fill="#000000">param_adapter</text>
</a>
</g>
</g>
<!-- dir_19f9a31d1372b311ba831746377a9409 -->
<g id="node3" class="node">
<title>dir_19f9a31d1372b311ba831746377a9409</title>
<g id="a_node3"><a xlink:href="dir_19f9a31d1372b311ba831746377a9409.html" target="_top" xlink:title="archlib">
<polygon fill="#ffffff" stroke="#ff0000" points="92,-36 38,-36 38,0 92,0 92,-36"/>
<text text-anchor="middle" x="65" y="-15.5" font-family="Helvetica,sans-Serif" font-size="10.00" fill="#000000">archlib</text>
</a>
</g>
</g>
<!-- dir_d443f4a592fd6d6b0795d7cde3bbf9d4&#45;&gt;dir_19f9a31d1372b311ba831746377a9409 -->
<g id="edge1" class="edge">
<title>dir_d443f4a592fd6d6b0795d7cde3bbf9d4&#45;&gt;dir_19f9a31d1372b311ba831746377a9409</title>
<path fill="none" stroke="#000000" d="M65,-71.8314C65,-64.131 65,-54.9743 65,-46.4166"/>
<polygon fill="#000000" stroke="#000000" points="68.5001,-46.4132 65,-36.4133 61.5001,-46.4133 68.5001,-46.4132"/>
<g id="a_edge1&#45;headlabel"><a xlink:href="dir_000134_000000.html" target="_top" xlink:title="1">
<text text-anchor="middle" x="71.3393" y="-47.5079" font-family="Helvetica,sans-Serif" font-size="10.00" fill="#000000">1</text>
</a>
</g>
</g>
</g>
</svg>
