<?xml version="1.0" encoding="UTF-8" standalone="no"?>
<!DOCTYPE svg PUBLIC "-//W3C//DTD SVG 1.1//EN"
 "http://www.w3.org/Graphics/SVG/1.1/DTD/svg11.dtd">
<!-- Generated by graphviz version 2.40.1 (20161225.0304)
 -->
<!-- Title: src/knowledge_repository/data_access/include Pages: 1 -->
<svg width="200pt" height="159pt"
 viewBox="0.00 0.00 200.00 159.00" xmlns="http://www.w3.org/2000/svg" xmlns:xlink="http://www.w3.org/1999/xlink">
<g id="graph0" class="graph" transform="scale(1 1) rotate(0) translate(4 155)">
<title>src/knowledge_repository/data_access/include</title>
<polygon fill="#ffffff" stroke="transparent" points="-4,4 -4,-155 196,-155 196,4 -4,4"/>
<g id="clust1" class="cluster">
<title>clusterdir_034e32ed0eddb498e899e919effa4315</title>
<g id="a_clust1"><a xlink:href="dir_034e32ed0eddb498e899e919effa4315.html" target="_top" xlink:title="data_access">
<polygon fill="#ddddee" stroke="#000000" points="8,-56 8,-143 184,-143 184,-56 8,-56"/>
<text text-anchor="middle" x="96" y="-131" font-family="Helvetica,sans-Serif" font-size="10.00" fill="#000000">data_access</text>
</a>
</g>
</g>
<g id="clust2" class="cluster">
<title>clusterdir_63bab970c4a7474e4436190a7b562b5b</title>
<g id="a_clust2"><a xlink:href="dir_63bab970c4a7474e4436190a7b562b5b.html" target="_top">
<polygon fill="#eeeeff" stroke="#000000" points="16,-64 16,-116 176,-116 176,-64 16,-64"/>
</a>
</g>
</g>
<!-- dir_63bab970c4a7474e4436190a7b562b5b -->
<g id="node1" class="node">
<title>dir_63bab970c4a7474e4436190a7b562b5b</title>
<text text-anchor="middle" x="141" y="-87.5" font-family="Helvetica,sans-Serif" font-size="10.00" fill="#000000">include</text>
</g>
<!-- dir_fe1585651b803f2eff109d3f8211bdd0 -->
<g id="node2" class="node">
<title>dir_fe1585651b803f2eff109d3f8211bdd0</title>
<g id="a_node2"><a xlink:href="dir_fe1585651b803f2eff109d3f8211bdd0.html" target="_top" xlink:title="data_access">
<polygon fill="#ffffff" stroke="#000000" points="96,-108 24,-108 24,-72 96,-72 96,-108"/>
<text text-anchor="middle" x="60" y="-87.5" font-family="Helvetica,sans-Serif" font-size="10.00" fill="#000000">data_access</text>
</a>
</g>
</g>
<!-- dir_19f9a31d1372b311ba831746377a9409 -->
<g id="node3" class="node">
<title>dir_19f9a31d1372b311ba831746377a9409</title>
<g id="a_node3"><a xlink:href="dir_19f9a31d1372b311ba831746377a9409.html" target="_top" xlink:title="archlib">
<polygon fill="#ffffff" stroke="#ff0000" points="87,-36 33,-36 33,0 87,0 87,-36"/>
<text text-anchor="middle" x="60" y="-15.5" font-family="Helvetica,sans-Serif" font-size="10.00" fill="#000000">archlib</text>
</a>
</g>
</g>
<!-- dir_fe1585651b803f2eff109d3f8211bdd0&#45;&gt;dir_19f9a31d1372b311ba831746377a9409 -->
<g id="edge1" class="edge">
<title>dir_fe1585651b803f2eff109d3f8211bdd0&#45;&gt;dir_19f9a31d1372b311ba831746377a9409</title>
<path fill="none" stroke="#000000" d="M60,-71.8314C60,-64.131 60,-54.9743 60,-46.4166"/>
<polygon fill="#000000" stroke="#000000" points="63.5001,-46.4132 60,-36.4133 56.5001,-46.4133 63.5001,-46.4132"/>
<g id="a_edge1&#45;headlabel"><a xlink:href="dir_000096_000000.html" target="_top" xlink:title="1">
<text text-anchor="middle" x="66.3393" y="-47.5079" font-family="Helvetica,sans-Serif" font-size="10.00" fill="#000000">1</text>
</a>
</g>
</g>
</g>
</svg>
