<?xml version="1.0" encoding="UTF-8" standalone="no"?>
<!DOCTYPE svg PUBLIC "-//W3C//DTD SVG 1.1//EN"
 "http://www.w3.org/Graphics/SVG/1.1/DTD/svg11.dtd">
<!-- Generated by graphviz version 2.40.1 (20161225.0304)
 -->
<!-- Title: src Pages: 1 -->
<svg width="726pt" height="132pt"
 viewBox="0.00 0.00 726.00 132.00" xmlns="http://www.w3.org/2000/svg" xmlns:xlink="http://www.w3.org/1999/xlink">
<g id="graph0" class="graph" transform="scale(1 1) rotate(0) translate(4 128)">
<title>src</title>
<polygon fill="#ffffff" stroke="transparent" points="-4,4 -4,-128 722,-128 722,4 -4,4"/>
<g id="clust1" class="cluster">
<title>clusterdir_68267d1309a1af8e8297ef4c3efbcdba</title>
<g id="a_clust1"><a xlink:href="dir_68267d1309a1af8e8297ef4c3efbcdba.html" target="_top">
<polygon fill="#eeeeff" stroke="#000000" points="8,-64 8,-116 710,-116 710,-64 8,-64"/>
</a>
</g>
</g>
<!-- dir_68267d1309a1af8e8297ef4c3efbcdba -->
<g id="node1" class="node">
<title>dir_68267d1309a1af8e8297ef4c3efbcdba</title>
<text text-anchor="middle" x="675" y="-87.5" font-family="Helvetica,sans-Serif" font-size="10.00" fill="#000000">src</text>
</g>
<!-- dir_88013743cf0a19a9971b3b941e88bf54 -->
<g id="node2" class="node">
<title>dir_88013743cf0a19a9971b3b941e88bf54</title>
<g id="a_node2"><a xlink:href="dir_88013743cf0a19a9971b3b941e88bf54.html" target="_top" xlink:title="environment">
<polygon fill="#ffffff" stroke="#ff0000" points="630,-108 560,-108 560,-72 630,-72 630,-108"/>
<text text-anchor="middle" x="595" y="-87.5" font-family="Helvetica,sans-Serif" font-size="10.00" fill="#000000">environment</text>
</a>
</g>
</g>
<!-- dir_19f9a31d1372b311ba831746377a9409 -->
<g id="node8" class="node">
<title>dir_19f9a31d1372b311ba831746377a9409</title>
<g id="a_node8"><a xlink:href="dir_19f9a31d1372b311ba831746377a9409.html" target="_top" xlink:title="archlib">
<polygon fill="#ffffff" stroke="#ff0000" points="324,-36 270,-36 270,0 324,0 324,-36"/>
<text text-anchor="middle" x="297" y="-15.5" font-family="Helvetica,sans-Serif" font-size="10.00" fill="#000000">archlib</text>
</a>
</g>
</g>
<!-- dir_88013743cf0a19a9971b3b941e88bf54&#45;&gt;dir_19f9a31d1372b311ba831746377a9409 -->
<g id="edge4" class="edge">
<title>dir_88013743cf0a19a9971b3b941e88bf54&#45;&gt;dir_19f9a31d1372b311ba831746377a9409</title>
<path fill="none" stroke="#000000" d="M567.8125,-71.9351C562.4093,-68.9267 556.6543,-66.1053 551,-64 477.0912,-36.481 384.7662,-25.059 334.2711,-20.6073"/>
<polygon fill="#000000" stroke="#000000" points="334.4099,-17.1067 324.1526,-19.7598 333.8256,-24.0823 334.4099,-17.1067"/>
<g id="a_edge4&#45;headlabel"><a xlink:href="dir_000031_000000.html" target="_top" xlink:title="1">
<text text-anchor="middle" x="338.2289" y="-12.0773" font-family="Helvetica,sans-Serif" font-size="10.00" fill="#000000">1</text>
</a>
</g>
</g>
<!-- dir_b61d02948e9d451515acaa7b8b8aecf8 -->
<g id="node3" class="node">
<title>dir_b61d02948e9d451515acaa7b8b8aecf8</title>
<g id="a_node3"><a xlink:href="dir_b61d02948e9d451515acaa7b8b8aecf8.html" target="_top" xlink:title="knowledge_repository">
<polygon fill="#ffffff" stroke="#ff0000" points="541.5,-108 430.5,-108 430.5,-72 541.5,-72 541.5,-108"/>
<text text-anchor="middle" x="486" y="-87.5" font-family="Helvetica,sans-Serif" font-size="10.00" fill="#000000">knowledge_repository</text>
</a>
</g>
</g>
<!-- dir_b61d02948e9d451515acaa7b8b8aecf8&#45;&gt;dir_19f9a31d1372b311ba831746377a9409 -->
<g id="edge3" class="edge">
<title>dir_b61d02948e9d451515acaa7b8b8aecf8&#45;&gt;dir_19f9a31d1372b311ba831746377a9409</title>
<path fill="none" stroke="#000000" d="M441.3021,-71.9486C434.5114,-69.2561 427.5777,-66.5351 421,-64 391.8124,-52.7507 358.5744,-40.4476 333.8623,-31.3979"/>
<polygon fill="#000000" stroke="#000000" points="334.7602,-27.9996 324.1664,-27.8538 332.357,-34.5742 334.7602,-27.9996"/>
<g id="a_edge3&#45;headlabel"><a xlink:href="dir_000033_000000.html" target="_top" xlink:title="1">
<text text-anchor="middle" x="339.111" y="-24.0669" font-family="Helvetica,sans-Serif" font-size="10.00" fill="#000000">1</text>
</a>
</g>
</g>
<!-- dir_69a7d97eb39c7cf932192141588e4a14 -->
<g id="node4" class="node">
<title>dir_69a7d97eb39c7cf932192141588e4a14</title>
<g id="a_node4"><a xlink:href="dir_69a7d97eb39c7cf932192141588e4a14.html" target="_top" xlink:title="logging_infrastructure">
<polygon fill="#ffffff" stroke="#ff0000" points="412,-108 302,-108 302,-72 412,-72 412,-108"/>
<text text-anchor="middle" x="357" y="-87.5" font-family="Helvetica,sans-Serif" font-size="10.00" fill="#000000">logging_infrastructure</text>
</a>
</g>
</g>
<!-- dir_69a7d97eb39c7cf932192141588e4a14&#45;&gt;dir_19f9a31d1372b311ba831746377a9409 -->
<g id="edge6" class="edge">
<title>dir_69a7d97eb39c7cf932192141588e4a14&#45;&gt;dir_19f9a31d1372b311ba831746377a9409</title>
<path fill="none" stroke="#000000" d="M341.8595,-71.8314C334.8783,-63.454 326.4609,-53.3531 318.8124,-44.1749"/>
<polygon fill="#000000" stroke="#000000" points="321.4351,-41.8548 312.3444,-36.4133 316.0575,-46.3362 321.4351,-41.8548"/>
<g id="a_edge6&#45;headlabel"><a xlink:href="dir_000035_000000.html" target="_top" xlink:title="1">
<text text-anchor="middle" x="325.9174" y="-40.2986" font-family="Helvetica,sans-Serif" font-size="10.00" fill="#000000">1</text>
</a>
</g>
</g>
<!-- dir_a8f884d4a6cca51428659662919a6de4 -->
<g id="node5" class="node">
<title>dir_a8f884d4a6cca51428659662919a6de4</title>
<g id="a_node5"><a xlink:href="dir_a8f884d4a6cca51428659662919a6de4.html" target="_top" xlink:title="manager_system">
<polygon fill="#ffffff" stroke="#ff0000" points="284,-108 192,-108 192,-72 284,-72 284,-108"/>
<text text-anchor="middle" x="238" y="-87.5" font-family="Helvetica,sans-Serif" font-size="10.00" fill="#000000">manager_system</text>
</a>
</g>
</g>
<!-- dir_a8f884d4a6cca51428659662919a6de4&#45;&gt;dir_19f9a31d1372b311ba831746377a9409 -->
<g id="edge1" class="edge">
<title>dir_a8f884d4a6cca51428659662919a6de4&#45;&gt;dir_19f9a31d1372b311ba831746377a9409</title>
<path fill="none" stroke="#000000" d="M252.8882,-71.8314C259.753,-63.454 268.0301,-53.3531 275.5511,-44.1749"/>
<polygon fill="#000000" stroke="#000000" points="278.2803,-46.3665 281.9114,-36.4133 272.8659,-41.9297 278.2803,-46.3665"/>
<g id="a_edge1&#45;headlabel"><a xlink:href="dir_000037_000000.html" target="_top" xlink:title="2">
<text text-anchor="middle" x="278.1981" y="-48.4464" font-family="Helvetica,sans-Serif" font-size="10.00" fill="#000000">2</text>
</a>
</g>
</g>
<!-- dir_d73d1ee04cc237a5854777ea99c55872 -->
<g id="node6" class="node">
<title>dir_d73d1ee04cc237a5854777ea99c55872</title>
<g id="a_node6"><a xlink:href="dir_d73d1ee04cc237a5854777ea99c55872.html" target="_top" xlink:title="simulation">
<polygon fill="#ffffff" stroke="#ff0000" points="173.5,-108 112.5,-108 112.5,-72 173.5,-72 173.5,-108"/>
<text text-anchor="middle" x="143" y="-87.5" font-family="Helvetica,sans-Serif" font-size="10.00" fill="#000000">simulation</text>
</a>
</g>
</g>
<!-- dir_d73d1ee04cc237a5854777ea99c55872&#45;&gt;dir_19f9a31d1372b311ba831746377a9409 -->
<g id="edge2" class="edge">
<title>dir_d73d1ee04cc237a5854777ea99c55872&#45;&gt;dir_19f9a31d1372b311ba831746377a9409</title>
<path fill="none" stroke="#000000" d="M169.2503,-71.9214C173.7502,-69.1187 178.445,-66.3711 183,-64 207.9008,-51.0379 237.309,-39.2519 260.019,-30.8554"/>
<polygon fill="#000000" stroke="#000000" points="261.4258,-34.0681 269.6246,-27.3577 259.0306,-27.4906 261.4258,-34.0681"/>
<g id="a_edge2&#45;headlabel"><a xlink:href="dir_000040_000000.html" target="_top" xlink:title="1">
<text text-anchor="middle" x="259.0196" y="-35.4658" font-family="Helvetica,sans-Serif" font-size="10.00" fill="#000000">1</text>
</a>
</g>
</g>
<!-- dir_46825921fcd359faa1c2aa3b596cbcd6 -->
<g id="node7" class="node">
<title>dir_46825921fcd359faa1c2aa3b596cbcd6</title>
<g id="a_node7"><a xlink:href="dir_46825921fcd359faa1c2aa3b596cbcd6.html" target="_top" xlink:title="target_system">
<polygon fill="#ffffff" stroke="#ff0000" points="94.5,-108 15.5,-108 15.5,-72 94.5,-72 94.5,-108"/>
<text text-anchor="middle" x="55" y="-87.5" font-family="Helvetica,sans-Serif" font-size="10.00" fill="#000000">target_system</text>
</a>
</g>
</g>
<!-- dir_46825921fcd359faa1c2aa3b596cbcd6&#45;&gt;dir_19f9a31d1372b311ba831746377a9409 -->
<g id="edge5" class="edge">
<title>dir_46825921fcd359faa1c2aa3b596cbcd6&#45;&gt;dir_19f9a31d1372b311ba831746377a9409</title>
<path fill="none" stroke="#000000" d="M86.3472,-71.8687C92.1021,-68.9746 98.1436,-66.2104 104,-64 156.5096,-44.1809 220.3625,-30.9558 259.8469,-23.9596"/>
<polygon fill="#000000" stroke="#000000" points="260.5663,-27.3872 269.8229,-22.233 259.3724,-20.4898 260.5663,-27.3872"/>
<g id="a_edge5&#45;headlabel"><a xlink:href="dir_000043_000000.html" target="_top" xlink:title="5">
<text text-anchor="middle" x="257.5085" y="-28.2979" font-family="Helvetica,sans-Serif" font-size="10.00" fill="#000000">5</text>
</a>
</g>
</g>
</g>
</svg>
