<?xml version="1.0" encoding="UTF-8" standalone="no"?>
<!DOCTYPE svg PUBLIC "-//W3C//DTD SVG 1.1//EN"
 "http://www.w3.org/Graphics/SVG/1.1/DTD/svg11.dtd">
<!-- Generated by graphviz version 2.40.1 (20161225.0304)
 -->
<!-- Title: archlib Pages: 1 -->
<svg width="310pt" height="148pt"
 viewBox="0.00 0.00 310.00 148.00" xmlns="http://www.w3.org/2000/svg" xmlns:xlink="http://www.w3.org/1999/xlink">
<g id="graph0" class="graph" transform="scale(1 1) rotate(0) translate(4 144)">
<title>archlib</title>
<polygon fill="#ffffff" stroke="transparent" points="-4,4 -4,-144 306,-144 306,4 -4,4"/>
<g id="clust1" class="cluster">
<title>clusterdir_19f9a31d1372b311ba831746377a9409</title>
<g id="a_clust1"><a xlink:href="dir_19f9a31d1372b311ba831746377a9409.html" target="_top">
<polygon fill="#eeeeff" stroke="#000000" points="8,-8 8,-132 294,-132 294,-8 8,-8"/>
</a>
</g>
</g>
<!-- dir_19f9a31d1372b311ba831746377a9409 -->
<g id="node1" class="node">
<title>dir_19f9a31d1372b311ba831746377a9409</title>
<text text-anchor="middle" x="259" y="-103.5" font-family="Helvetica,sans-Serif" font-size="10.00" fill="#000000">archlib</text>
</g>
<!-- dir_a52110f1e50332ee02e84772ac9a9e59 -->
<g id="node2" class="node">
<title>dir_a52110f1e50332ee02e84772ac9a9e59</title>
<g id="a_node2"><a xlink:href="dir_a52110f1e50332ee02e84772ac9a9e59.html" target="_top" xlink:title="build">
<polygon fill="#ffffff" stroke="#ff0000" points="214,-124 160,-124 160,-88 214,-88 214,-124"/>
<text text-anchor="middle" x="187" y="-103.5" font-family="Helvetica,sans-Serif" font-size="10.00" fill="#000000">build</text>
</a>
</g>
</g>
<!-- dir_a890378539bc256f8a7fa7bd7c11bc4b -->
<g id="node3" class="node">
<title>dir_a890378539bc256f8a7fa7bd7c11bc4b</title>
<g id="a_node3"><a xlink:href="dir_a890378539bc256f8a7fa7bd7c11bc4b.html" target="_top" xlink:title="include">
<polygon fill="#ffffff" stroke="#ff0000" points="142,-52 88,-52 88,-16 142,-16 142,-52"/>
<text text-anchor="middle" x="115" y="-31.5" font-family="Helvetica,sans-Serif" font-size="10.00" fill="#000000">include</text>
</a>
</g>
</g>
<!-- dir_e98342010d4ded01f9988b8df17bb035 -->
<g id="node4" class="node">
<title>dir_e98342010d4ded01f9988b8df17bb035</title>
<g id="a_node4"><a xlink:href="dir_e98342010d4ded01f9988b8df17bb035.html" target="_top" xlink:title="src">
<polygon fill="#ffffff" stroke="#ff0000" points="142,-124 88,-124 88,-88 142,-88 142,-124"/>
<text text-anchor="middle" x="115" y="-103.5" font-family="Helvetica,sans-Serif" font-size="10.00" fill="#000000">src</text>
</a>
</g>
</g>
<!-- dir_e98342010d4ded01f9988b8df17bb035&#45;&gt;dir_a890378539bc256f8a7fa7bd7c11bc4b -->
<g id="edge1" class="edge">
<title>dir_e98342010d4ded01f9988b8df17bb035&#45;&gt;dir_a890378539bc256f8a7fa7bd7c11bc4b</title>
<path fill="none" stroke="#000000" d="M115,-87.8314C115,-80.131 115,-70.9743 115,-62.4166"/>
<polygon fill="#000000" stroke="#000000" points="118.5001,-62.4132 115,-52.4133 111.5001,-62.4133 118.5001,-62.4132"/>
<g id="a_edge1&#45;headlabel"><a xlink:href="dir_000053_000050.html" target="_top" xlink:title="5">
<text text-anchor="middle" x="121.3393" y="-63.5079" font-family="Helvetica,sans-Serif" font-size="10.00" fill="#000000">5</text>
</a>
</g>
</g>
<!-- dir_43118e10934686d5b8cc7793850a71e7 -->
<g id="node5" class="node">
<title>dir_43118e10934686d5b8cc7793850a71e7</title>
<g id="a_node5"><a xlink:href="dir_43118e10934686d5b8cc7793850a71e7.html" target="_top" xlink:title="test">
<polygon fill="#ffffff" stroke="#000000" points="70,-124 16,-124 16,-88 70,-88 70,-124"/>
<text text-anchor="middle" x="43" y="-103.5" font-family="Helvetica,sans-Serif" font-size="10.00" fill="#000000">test</text>
</a>
</g>
</g>
</g>
</svg>
