<?xml version="1.0" encoding="UTF-8" standalone="no"?>
<!DOCTYPE svg PUBLIC "-//W3C//DTD SVG 1.1//EN"
 "http://www.w3.org/Graphics/SVG/1.1/DTD/svg11.dtd">
<!-- Generated by graphviz version 2.40.1 (20161225.0304)
 -->
<!-- Title: src/manager_system/adaptation_engine Pages: 1 -->
<svg width="368pt" height="231pt"
 viewBox="0.00 0.00 368.00 231.00" xmlns="http://www.w3.org/2000/svg" xmlns:xlink="http://www.w3.org/1999/xlink">
<g id="graph0" class="graph" transform="scale(1 1) rotate(0) translate(4 227)">
<title>src/manager_system/adaptation_engine</title>
<polygon fill="#ffffff" stroke="transparent" points="-4,4 -4,-227 364,-227 364,4 -4,4"/>
<g id="clust1" class="cluster">
<title>clusterdir_a8f884d4a6cca51428659662919a6de4</title>
<g id="a_clust1"><a xlink:href="dir_a8f884d4a6cca51428659662919a6de4.html" target="_top" xlink:title="manager_system">
<polygon fill="#ddddee" stroke="#000000" points="8,-56 8,-215 352,-215 352,-56 8,-56"/>
<text text-anchor="middle" x="180" y="-203" font-family="Helvetica,sans-Serif" font-size="10.00" fill="#000000">manager_system</text>
</a>
</g>
</g>
<g id="clust2" class="cluster">
<title>clusterdir_72f6e68b1b56c8f8d9261edd4c05c727</title>
<g id="a_clust2"><a xlink:href="dir_72f6e68b1b56c8f8d9261edd4c05c727.html" target="_top">
<polygon fill="#eeeeff" stroke="#000000" points="16,-64 16,-188 344,-188 344,-64 16,-64"/>
</a>
</g>
</g>
<!-- dir_72f6e68b1b56c8f8d9261edd4c05c727 -->
<g id="node1" class="node">
<title>dir_72f6e68b1b56c8f8d9261edd4c05c727</title>
<text text-anchor="middle" x="288" y="-159.5" font-family="Helvetica,sans-Serif" font-size="10.00" fill="#000000">adaptation_engine</text>
</g>
<!-- dir_fb5d05eef6332f95c71d7c65afd3eebf -->
<g id="node2" class="node">
<title>dir_fb5d05eef6332f95c71d7c65afd3eebf</title>
<g id="a_node2"><a xlink:href="dir_fb5d05eef6332f95c71d7c65afd3eebf.html" target="_top" xlink:title="apps">
<polygon fill="#ffffff" stroke="#000000" points="222,-180 168,-180 168,-144 222,-144 222,-180"/>
<text text-anchor="middle" x="195" y="-159.5" font-family="Helvetica,sans-Serif" font-size="10.00" fill="#000000">apps</text>
</a>
</g>
</g>
<!-- dir_9142d7d9dcd26425bc634a75c3be2448 -->
<g id="node3" class="node">
<title>dir_9142d7d9dcd26425bc634a75c3be2448</title>
<g id="a_node3"><a xlink:href="dir_9142d7d9dcd26425bc634a75c3be2448.html" target="_top" xlink:title="include">
<polygon fill="#ffffff" stroke="#ff0000" points="150,-108 96,-108 96,-72 150,-72 150,-108"/>
<text text-anchor="middle" x="123" y="-87.5" font-family="Helvetica,sans-Serif" font-size="10.00" fill="#000000">include</text>
</a>
</g>
</g>
<!-- dir_fb5d05eef6332f95c71d7c65afd3eebf&#45;&gt;dir_9142d7d9dcd26425bc634a75c3be2448 -->
<g id="edge3" class="edge">
<title>dir_fb5d05eef6332f95c71d7c65afd3eebf&#45;&gt;dir_9142d7d9dcd26425bc634a75c3be2448</title>
<path fill="none" stroke="#000000" d="M176.8314,-143.8314C168.2848,-135.2848 157.9443,-124.9443 148.6198,-115.6198"/>
<polygon fill="#000000" stroke="#000000" points="150.9592,-113.0095 141.4133,-108.4133 146.0095,-117.9592 150.9592,-113.0095"/>
<g id="a_edge3&#45;headlabel"><a xlink:href="dir_000103_000104.html" target="_top" xlink:title="1">
<text text-anchor="middle" x="155.5087" y="-111.0436" font-family="Helvetica,sans-Serif" font-size="10.00" fill="#000000">1</text>
</a>
</g>
</g>
<!-- dir_19f9a31d1372b311ba831746377a9409 -->
<g id="node6" class="node">
<title>dir_19f9a31d1372b311ba831746377a9409</title>
<g id="a_node6"><a xlink:href="dir_19f9a31d1372b311ba831746377a9409.html" target="_top" xlink:title="archlib">
<polygon fill="#ffffff" stroke="#ff0000" points="150,-36 96,-36 96,0 150,0 150,-36"/>
<text text-anchor="middle" x="123" y="-15.5" font-family="Helvetica,sans-Serif" font-size="10.00" fill="#000000">archlib</text>
</a>
</g>
</g>
<!-- dir_9142d7d9dcd26425bc634a75c3be2448&#45;&gt;dir_19f9a31d1372b311ba831746377a9409 -->
<g id="edge2" class="edge">
<title>dir_9142d7d9dcd26425bc634a75c3be2448&#45;&gt;dir_19f9a31d1372b311ba831746377a9409</title>
<path fill="none" stroke="#000000" d="M123,-71.8314C123,-64.131 123,-54.9743 123,-46.4166"/>
<polygon fill="#000000" stroke="#000000" points="126.5001,-46.4132 123,-36.4133 119.5001,-46.4133 126.5001,-46.4132"/>
<g id="a_edge2&#45;headlabel"><a xlink:href="dir_000104_000000.html" target="_top" xlink:title="1">
<text text-anchor="middle" x="129.3393" y="-47.5079" font-family="Helvetica,sans-Serif" font-size="10.00" fill="#000000">1</text>
</a>
</g>
</g>
<!-- dir_b6c8d23b8cd0eb2e23c22b54496ca5d7 -->
<g id="node4" class="node">
<title>dir_b6c8d23b8cd0eb2e23c22b54496ca5d7</title>
<g id="a_node4"><a xlink:href="dir_b6c8d23b8cd0eb2e23c22b54496ca5d7.html" target="_top" xlink:title="src">
<polygon fill="#ffffff" stroke="#000000" points="150,-180 96,-180 96,-144 150,-144 150,-180"/>
<text text-anchor="middle" x="123" y="-159.5" font-family="Helvetica,sans-Serif" font-size="10.00" fill="#000000">src</text>
</a>
</g>
</g>
<!-- dir_b6c8d23b8cd0eb2e23c22b54496ca5d7&#45;&gt;dir_9142d7d9dcd26425bc634a75c3be2448 -->
<g id="edge4" class="edge">
<title>dir_b6c8d23b8cd0eb2e23c22b54496ca5d7&#45;&gt;dir_9142d7d9dcd26425bc634a75c3be2448</title>
<path fill="none" stroke="#000000" d="M123,-143.8314C123,-136.131 123,-126.9743 123,-118.4166"/>
<polygon fill="#000000" stroke="#000000" points="126.5001,-118.4132 123,-108.4133 119.5001,-118.4133 126.5001,-118.4132"/>
<g id="a_edge4&#45;headlabel"><a xlink:href="dir_000106_000104.html" target="_top" xlink:title="1">
<text text-anchor="middle" x="129.3393" y="-119.5079" font-family="Helvetica,sans-Serif" font-size="10.00" fill="#000000">1</text>
</a>
</g>
</g>
<!-- dir_4819d0b943cd091a64e92984be6470d0 -->
<g id="node5" class="node">
<title>dir_4819d0b943cd091a64e92984be6470d0</title>
<g id="a_node5"><a xlink:href="dir_4819d0b943cd091a64e92984be6470d0.html" target="_top" xlink:title="test">
<polygon fill="#ffffff" stroke="#000000" points="78,-180 24,-180 24,-144 78,-144 78,-180"/>
<text text-anchor="middle" x="51" y="-159.5" font-family="Helvetica,sans-Serif" font-size="10.00" fill="#000000">test</text>
</a>
</g>
</g>
<!-- dir_4819d0b943cd091a64e92984be6470d0&#45;&gt;dir_9142d7d9dcd26425bc634a75c3be2448 -->
<g id="edge1" class="edge">
<title>dir_4819d0b943cd091a64e92984be6470d0&#45;&gt;dir_9142d7d9dcd26425bc634a75c3be2448</title>
<path fill="none" stroke="#000000" d="M69.1686,-143.8314C77.7152,-135.2848 88.0557,-124.9443 97.3802,-115.6198"/>
<polygon fill="#000000" stroke="#000000" points="99.9905,-117.9592 104.5867,-108.4133 95.0408,-113.0095 99.9905,-117.9592"/>
<g id="a_edge1&#45;headlabel"><a xlink:href="dir_000107_000104.html" target="_top" xlink:title="1">
<text text-anchor="middle" x="99.4564" y="-120.0087" font-family="Helvetica,sans-Serif" font-size="10.00" fill="#000000">1</text>
</a>
</g>
</g>
</g>
</svg>
