<?xml version="1.0" encoding="UTF-8" standalone="no"?>
<!DOCTYPE svg PUBLIC "-//W3C//DTD SVG 1.1//EN"
 "http://www.w3.org/Graphics/SVG/1.1/DTD/svg11.dtd">
<!-- Generated by graphviz version 2.40.1 (20161225.0304)
 -->
<!-- Title: src/target_system/components Pages: 1 -->
<svg width="210pt" height="159pt"
 viewBox="0.00 0.00 210.00 159.00" xmlns="http://www.w3.org/2000/svg" xmlns:xlink="http://www.w3.org/1999/xlink">
<g id="graph0" class="graph" transform="scale(1 1) rotate(0) translate(4 155)">
<title>src/target_system/components</title>
<polygon fill="#ffffff" stroke="transparent" points="-4,4 -4,-155 206,-155 206,4 -4,4"/>
<g id="clust1" class="cluster">
<title>clusterdir_46825921fcd359faa1c2aa3b596cbcd6</title>
<g id="a_clust1"><a xlink:href="dir_46825921fcd359faa1c2aa3b596cbcd6.html" target="_top" xlink:title="target_system">
<polygon fill="#ddddee" stroke="#000000" points="8,-56 8,-143 194,-143 194,-56 8,-56"/>
<text text-anchor="middle" x="101" y="-131" font-family="Helvetica,sans-Serif" font-size="10.00" fill="#000000">target_system</text>
</a>
</g>
</g>
<g id="clust2" class="cluster">
<title>clusterdir_f33e05cebbc30972cc227df4e2fd5715</title>
<g id="a_clust2"><a xlink:href="dir_f33e05cebbc30972cc227df4e2fd5715.html" target="_top">
<polygon fill="#eeeeff" stroke="#000000" points="16,-64 16,-116 186,-116 186,-64 16,-64"/>
</a>
</g>
</g>
<!-- dir_f33e05cebbc30972cc227df4e2fd5715 -->
<g id="node1" class="node">
<title>dir_f33e05cebbc30972cc227df4e2fd5715</title>
<text text-anchor="middle" x="143" y="-87.5" font-family="Helvetica,sans-Serif" font-size="10.00" fill="#000000">components</text>
</g>
<!-- dir_b1d47c3af51bf8f293b088b7d0eccf6b -->
<g id="node2" class="node">
<title>dir_b1d47c3af51bf8f293b088b7d0eccf6b</title>
<g id="a_node2"><a xlink:href="dir_b1d47c3af51bf8f293b088b7d0eccf6b.html" target="_top" xlink:title="component">
<polygon fill="#ffffff" stroke="#ff0000" points="89.5,-108 24.5,-108 24.5,-72 89.5,-72 89.5,-108"/>
<text text-anchor="middle" x="57" y="-87.5" font-family="Helvetica,sans-Serif" font-size="10.00" fill="#000000">component</text>
</a>
</g>
</g>
<!-- dir_19f9a31d1372b311ba831746377a9409 -->
<g id="node3" class="node">
<title>dir_19f9a31d1372b311ba831746377a9409</title>
<g id="a_node3"><a xlink:href="dir_19f9a31d1372b311ba831746377a9409.html" target="_top" xlink:title="archlib">
<polygon fill="#ffffff" stroke="#ff0000" points="84,-36 30,-36 30,0 84,0 84,-36"/>
<text text-anchor="middle" x="57" y="-15.5" font-family="Helvetica,sans-Serif" font-size="10.00" fill="#000000">archlib</text>
</a>
</g>
</g>
<!-- dir_b1d47c3af51bf8f293b088b7d0eccf6b&#45;&gt;dir_19f9a31d1372b311ba831746377a9409 -->
<g id="edge1" class="edge">
<title>dir_b1d47c3af51bf8f293b088b7d0eccf6b&#45;&gt;dir_19f9a31d1372b311ba831746377a9409</title>
<path fill="none" stroke="#000000" d="M57,-71.8314C57,-64.131 57,-54.9743 57,-46.4166"/>
<polygon fill="#000000" stroke="#000000" points="60.5001,-46.4132 57,-36.4133 53.5001,-46.4133 60.5001,-46.4132"/>
<g id="a_edge1&#45;headlabel"><a xlink:href="dir_000045_000000.html" target="_top" xlink:title="3">
<text text-anchor="middle" x="63.3393" y="-47.5079" font-family="Helvetica,sans-Serif" font-size="10.00" fill="#000000">3</text>
</a>
</g>
</g>
</g>
</svg>
