<?xml version="1.0" encoding="UTF-8" standalone="no"?>
<!DOCTYPE svg PUBLIC "-//W3C//DTD SVG 1.1//EN"
 "http://www.w3.org/Graphics/SVG/1.1/DTD/svg11.dtd">
<!-- Generated by graphviz version 2.40.1 (20161225.0304)
 -->
<!-- Title: src/simulation Pages: 1 -->
<svg width="262pt" height="159pt"
 viewBox="0.00 0.00 262.00 159.00" xmlns="http://www.w3.org/2000/svg" xmlns:xlink="http://www.w3.org/1999/xlink">
<g id="graph0" class="graph" transform="scale(1 1) rotate(0) translate(4 155)">
<title>src/simulation</title>
<polygon fill="#ffffff" stroke="transparent" points="-4,4 -4,-155 258,-155 258,4 -4,4"/>
<g id="clust1" class="cluster">
<title>clusterdir_68267d1309a1af8e8297ef4c3efbcdba</title>
<g id="a_clust1"><a xlink:href="dir_68267d1309a1af8e8297ef4c3efbcdba.html" target="_top" xlink:title="src">
<polygon fill="#ddddee" stroke="#000000" points="8,-56 8,-143 246,-143 246,-56 8,-56"/>
<text text-anchor="middle" x="127" y="-131" font-family="Helvetica,sans-Serif" font-size="10.00" fill="#000000">src</text>
</a>
</g>
</g>
<g id="clust2" class="cluster">
<title>clusterdir_d73d1ee04cc237a5854777ea99c55872</title>
<g id="a_clust2"><a xlink:href="dir_d73d1ee04cc237a5854777ea99c55872.html" target="_top">
<polygon fill="#eeeeff" stroke="#000000" points="16,-64 16,-116 238,-116 238,-64 16,-64"/>
</a>
</g>
</g>
<!-- dir_d73d1ee04cc237a5854777ea99c55872 -->
<g id="node1" class="node">
<title>dir_d73d1ee04cc237a5854777ea99c55872</title>
<text text-anchor="middle" x="199" y="-87.5" font-family="Helvetica,sans-Serif" font-size="10.00" fill="#000000">simulation</text>
</g>
<!-- dir_aa11c1759b8cf004271ad0dd433bfad2 -->
<g id="node2" class="node">
<title>dir_aa11c1759b8cf004271ad0dd433bfad2</title>
<g id="a_node2"><a xlink:href="dir_aa11c1759b8cf004271ad0dd433bfad2.html" target="_top" xlink:title="analyzer">
<polygon fill="#ffffff" stroke="#ff0000" points="150,-108 96,-108 96,-72 150,-72 150,-108"/>
<text text-anchor="middle" x="123" y="-87.5" font-family="Helvetica,sans-Serif" font-size="10.00" fill="#000000">analyzer</text>
</a>
</g>
</g>
<!-- dir_c9cc0bf2b4b47daa97860d91e1a0b1ad -->
<g id="node3" class="node">
<title>dir_c9cc0bf2b4b47daa97860d91e1a0b1ad</title>
<g id="a_node3"><a xlink:href="dir_c9cc0bf2b4b47daa97860d91e1a0b1ad.html" target="_top" xlink:title="injector">
<polygon fill="#ffffff" stroke="#ff0000" points="78,-108 24,-108 24,-72 78,-72 78,-108"/>
<text text-anchor="middle" x="51" y="-87.5" font-family="Helvetica,sans-Serif" font-size="10.00" fill="#000000">injector</text>
</a>
</g>
</g>
<!-- dir_19f9a31d1372b311ba831746377a9409 -->
<g id="node4" class="node">
<title>dir_19f9a31d1372b311ba831746377a9409</title>
<g id="a_node4"><a xlink:href="dir_19f9a31d1372b311ba831746377a9409.html" target="_top" xlink:title="archlib">
<polygon fill="#ffffff" stroke="#ff0000" points="78,-36 24,-36 24,0 78,0 78,-36"/>
<text text-anchor="middle" x="51" y="-15.5" font-family="Helvetica,sans-Serif" font-size="10.00" fill="#000000">archlib</text>
</a>
</g>
</g>
<!-- dir_c9cc0bf2b4b47daa97860d91e1a0b1ad&#45;&gt;dir_19f9a31d1372b311ba831746377a9409 -->
<g id="edge1" class="edge">
<title>dir_c9cc0bf2b4b47daa97860d91e1a0b1ad&#45;&gt;dir_19f9a31d1372b311ba831746377a9409</title>
<path fill="none" stroke="#000000" d="M51,-71.8314C51,-64.131 51,-54.9743 51,-46.4166"/>
<polygon fill="#000000" stroke="#000000" points="54.5001,-46.4132 51,-36.4133 47.5001,-46.4133 54.5001,-46.4132"/>
<g id="a_edge1&#45;headlabel"><a xlink:href="dir_000042_000000.html" target="_top" xlink:title="1">
<text text-anchor="middle" x="57.3393" y="-47.5079" font-family="Helvetica,sans-Serif" font-size="10.00" fill="#000000">1</text>
</a>
</g>
</g>
</g>
</svg>
