<?xml version="1.0" encoding="UTF-8" standalone="no"?>
<!DOCTYPE svg PUBLIC "-//W3C//DTD SVG 1.1//EN"
 "http://www.w3.org/Graphics/SVG/1.1/DTD/svg11.dtd">
<!-- Generated by graphviz version 2.40.1 (20161225.0304)
 -->
<!-- Title: src/logging_infrastructure/logger Pages: 1 -->
<svg width="254pt" height="231pt"
 viewBox="0.00 0.00 254.00 231.00" xmlns="http://www.w3.org/2000/svg" xmlns:xlink="http://www.w3.org/1999/xlink">
<g id="graph0" class="graph" transform="scale(1 1) rotate(0) translate(4 227)">
<title>src/logging_infrastructure/logger</title>
<polygon fill="#ffffff" stroke="transparent" points="-4,4 -4,-227 250,-227 250,4 -4,4"/>
<g id="clust1" class="cluster">
<title>clusterdir_69a7d97eb39c7cf932192141588e4a14</title>
<g id="a_clust1"><a xlink:href="dir_69a7d97eb39c7cf932192141588e4a14.html" target="_top" xlink:title="logging_infrastructure">
<polygon fill="#ddddee" stroke="#000000" points="8,-56 8,-215 238,-215 238,-56 8,-56"/>
<text text-anchor="middle" x="123" y="-203" font-family="Helvetica,sans-Serif" font-size="10.00" fill="#000000">logging_infrastructure</text>
</a>
</g>
</g>
<g id="clust2" class="cluster">
<title>clusterdir_8ffa09fa3b41c27e7eb1407048587abd</title>
<g id="a_clust2"><a xlink:href="dir_8ffa09fa3b41c27e7eb1407048587abd.html" target="_top">
<polygon fill="#eeeeff" stroke="#000000" points="16,-64 16,-188 230,-188 230,-64 16,-64"/>
</a>
</g>
</g>
<!-- dir_8ffa09fa3b41c27e7eb1407048587abd -->
<g id="node1" class="node">
<title>dir_8ffa09fa3b41c27e7eb1407048587abd</title>
<text text-anchor="middle" x="195" y="-159.5" font-family="Helvetica,sans-Serif" font-size="10.00" fill="#000000">logger</text>
</g>
<!-- dir_1940c28e5c36d42eaa390c5d43c4aa4a -->
<g id="node2" class="node">
<title>dir_1940c28e5c36d42eaa390c5d43c4aa4a</title>
<g id="a_node2"><a xlink:href="dir_1940c28e5c36d42eaa390c5d43c4aa4a.html" target="_top" xlink:title="apps">
<polygon fill="#ffffff" stroke="#000000" points="150,-180 96,-180 96,-144 150,-144 150,-180"/>
<text text-anchor="middle" x="123" y="-159.5" font-family="Helvetica,sans-Serif" font-size="10.00" fill="#000000">apps</text>
</a>
</g>
</g>
<!-- dir_8946360cb16835cb2c073f1cce7fef86 -->
<g id="node3" class="node">
<title>dir_8946360cb16835cb2c073f1cce7fef86</title>
<g id="a_node3"><a xlink:href="dir_8946360cb16835cb2c073f1cce7fef86.html" target="_top" xlink:title="include">
<polygon fill="#ffffff" stroke="#000000" points="114,-108 60,-108 60,-72 114,-72 114,-108"/>
<text text-anchor="middle" x="87" y="-87.5" font-family="Helvetica,sans-Serif" font-size="10.00" fill="#000000">include</text>
</a>
</g>
</g>
<!-- dir_1940c28e5c36d42eaa390c5d43c4aa4a&#45;&gt;dir_8946360cb16835cb2c073f1cce7fef86 -->
<g id="edge1" class="edge">
<title>dir_1940c28e5c36d42eaa390c5d43c4aa4a&#45;&gt;dir_8946360cb16835cb2c073f1cce7fef86</title>
<path fill="none" stroke="#000000" d="M113.9157,-143.8314C109.9385,-135.8771 105.1845,-126.369 100.7861,-117.5723"/>
<polygon fill="#000000" stroke="#000000" points="103.8093,-115.7923 96.2066,-108.4133 97.5483,-118.9228 103.8093,-115.7923"/>
<g id="a_edge1&#45;headlabel"><a xlink:href="dir_000100_000101.html" target="_top" xlink:title="1">
<text text-anchor="middle" x="107.9563" y="-115.2377" font-family="Helvetica,sans-Serif" font-size="10.00" fill="#000000">1</text>
</a>
</g>
</g>
<!-- dir_19f9a31d1372b311ba831746377a9409 -->
<g id="node5" class="node">
<title>dir_19f9a31d1372b311ba831746377a9409</title>
<g id="a_node5"><a xlink:href="dir_19f9a31d1372b311ba831746377a9409.html" target="_top" xlink:title="archlib">
<polygon fill="#ffffff" stroke="#ff0000" points="114,-36 60,-36 60,0 114,0 114,-36"/>
<text text-anchor="middle" x="87" y="-15.5" font-family="Helvetica,sans-Serif" font-size="10.00" fill="#000000">archlib</text>
</a>
</g>
</g>
<!-- dir_8946360cb16835cb2c073f1cce7fef86&#45;&gt;dir_19f9a31d1372b311ba831746377a9409 -->
<g id="edge3" class="edge">
<title>dir_8946360cb16835cb2c073f1cce7fef86&#45;&gt;dir_19f9a31d1372b311ba831746377a9409</title>
<path fill="none" stroke="#000000" d="M87,-71.8314C87,-64.131 87,-54.9743 87,-46.4166"/>
<polygon fill="#000000" stroke="#000000" points="90.5001,-46.4132 87,-36.4133 83.5001,-46.4133 90.5001,-46.4132"/>
<g id="a_edge3&#45;headlabel"><a xlink:href="dir_000101_000000.html" target="_top" xlink:title="1">
<text text-anchor="middle" x="93.3393" y="-47.5079" font-family="Helvetica,sans-Serif" font-size="10.00" fill="#000000">1</text>
</a>
</g>
</g>
<!-- dir_d3c9d0b922301cec920c760f3d82ded0 -->
<g id="node4" class="node">
<title>dir_d3c9d0b922301cec920c760f3d82ded0</title>
<g id="a_node4"><a xlink:href="dir_d3c9d0b922301cec920c760f3d82ded0.html" target="_top" xlink:title="src">
<polygon fill="#ffffff" stroke="#000000" points="78,-180 24,-180 24,-144 78,-144 78,-180"/>
<text text-anchor="middle" x="51" y="-159.5" font-family="Helvetica,sans-Serif" font-size="10.00" fill="#000000">src</text>
</a>
</g>
</g>
<!-- dir_d3c9d0b922301cec920c760f3d82ded0&#45;&gt;dir_8946360cb16835cb2c073f1cce7fef86 -->
<g id="edge2" class="edge">
<title>dir_d3c9d0b922301cec920c760f3d82ded0&#45;&gt;dir_8946360cb16835cb2c073f1cce7fef86</title>
<path fill="none" stroke="#000000" d="M60.0843,-143.8314C64.0615,-135.8771 68.8155,-126.369 73.2139,-117.5723"/>
<polygon fill="#000000" stroke="#000000" points="76.4517,-118.9228 77.7934,-108.4133 70.1907,-115.7923 76.4517,-118.9228"/>
<g id="a_edge2&#45;headlabel"><a xlink:href="dir_000102_000101.html" target="_top" xlink:title="1">
<text text-anchor="middle" x="77.3837" y="-120.9077" font-family="Helvetica,sans-Serif" font-size="10.00" fill="#000000">1</text>
</a>
</g>
</g>
</g>
</svg>
