<?xml version="1.0" encoding="UTF-8" standalone="no"?>
<!DOCTYPE svg PUBLIC "-//W3C//DTD SVG 1.1//EN"
 "http://www.w3.org/Graphics/SVG/1.1/DTD/svg11.dtd">
<!-- Generated by graphviz version 2.40.1 (20161225.0304)
 -->
<!-- Title: lepton Pages: 1 -->
<svg width="166pt" height="148pt"
 viewBox="0.00 0.00 166.00 148.00" xmlns="http://www.w3.org/2000/svg" xmlns:xlink="http://www.w3.org/1999/xlink">
<g id="graph0" class="graph" transform="scale(1 1) rotate(0) translate(4 144)">
<title>lepton</title>
<polygon fill="#ffffff" stroke="transparent" points="-4,4 -4,-144 162,-144 162,4 -4,4"/>
<g id="clust1" class="cluster">
<title>clusterdir_1391999065c64e19a5d1dd0048a1da8b</title>
<g id="a_clust1"><a xlink:href="dir_1391999065c64e19a5d1dd0048a1da8b.html" target="_top">
<polygon fill="#eeeeff" stroke="#000000" points="8,-8 8,-132 150,-132 150,-8 8,-8"/>
</a>
</g>
</g>
<!-- dir_1391999065c64e19a5d1dd0048a1da8b -->
<g id="node1" class="node">
<title>dir_1391999065c64e19a5d1dd0048a1da8b</title>
<text text-anchor="middle" x="115" y="-103.5" font-family="Helvetica,sans-Serif" font-size="10.00" fill="#000000">lepton</text>
</g>
<!-- dir_7f1c14f6b3bf253ceb1d85ee2ab42dcb -->
<g id="node2" class="node">
<title>dir_7f1c14f6b3bf253ceb1d85ee2ab42dcb</title>
<g id="a_node2"><a xlink:href="dir_7f1c14f6b3bf253ceb1d85ee2ab42dcb.html" target="_top" xlink:title="include">
<polygon fill="#ffffff" stroke="#000000" points="70,-52 16,-52 16,-16 70,-16 70,-52"/>
<text text-anchor="middle" x="43" y="-31.5" font-family="Helvetica,sans-Serif" font-size="10.00" fill="#000000">include</text>
</a>
</g>
</g>
<!-- dir_5bd1d503a82106fe2a8c6836d5efb41e -->
<g id="node3" class="node">
<title>dir_5bd1d503a82106fe2a8c6836d5efb41e</title>
<g id="a_node3"><a xlink:href="dir_5bd1d503a82106fe2a8c6836d5efb41e.html" target="_top" xlink:title="src">
<polygon fill="#ffffff" stroke="#000000" points="70,-124 16,-124 16,-88 70,-88 70,-124"/>
<text text-anchor="middle" x="43" y="-103.5" font-family="Helvetica,sans-Serif" font-size="10.00" fill="#000000">src</text>
</a>
</g>
</g>
<!-- dir_5bd1d503a82106fe2a8c6836d5efb41e&#45;&gt;dir_7f1c14f6b3bf253ceb1d85ee2ab42dcb -->
<g id="edge1" class="edge">
<title>dir_5bd1d503a82106fe2a8c6836d5efb41e&#45;&gt;dir_7f1c14f6b3bf253ceb1d85ee2ab42dcb</title>
<path fill="none" stroke="#000000" d="M43,-87.8314C43,-80.131 43,-70.9743 43,-62.4166"/>
<polygon fill="#000000" stroke="#000000" points="46.5001,-62.4132 43,-52.4133 39.5001,-62.4133 46.5001,-62.4132"/>
<g id="a_edge1&#45;headlabel"><a xlink:href="dir_000058_000057.html" target="_top" xlink:title="21">
<text text-anchor="middle" x="49.3393" y="-63.5079" font-family="Helvetica,sans-Serif" font-size="10.00" fill="#000000">21</text>
</a>
</g>
</g>
</g>
</svg>
