<?xml version="1.0" encoding="UTF-8" standalone="no"?>
<!DOCTYPE svg PUBLIC "-//W3C//DTD SVG 1.1//EN"
 "http://www.w3.org/Graphics/SVG/1.1/DTD/svg11.dtd">
<!-- Generated by graphviz version 2.40.1 (20161225.0304)
 -->
<!-- Title: src/target_system/components/component/include/component Pages: 1 -->
<svg width="554pt" height="159pt"
 viewBox="0.00 0.00 554.00 159.00" xmlns="http://www.w3.org/2000/svg" xmlns:xlink="http://www.w3.org/1999/xlink">
<g id="graph0" class="graph" transform="scale(1 1) rotate(0) translate(4 155)">
<title>src/target_system/components/component/include/component</title>
<polygon fill="#ffffff" stroke="transparent" points="-4,4 -4,-155 550,-155 550,4 -4,4"/>
<g id="clust1" class="cluster">
<title>clusterdir_5a0c35dd754be41293e2810917849cb6</title>
<g id="a_clust1"><a xlink:href="dir_5a0c35dd754be41293e2810917849cb6.html" target="_top" xlink:title="include">
<polygon fill="#ddddee" stroke="#000000" points="8,-56 8,-143 538,-143 538,-56 8,-56"/>
<text text-anchor="middle" x="273" y="-131" font-family="Helvetica,sans-Serif" font-size="10.00" fill="#000000">include</text>
</a>
</g>
</g>
<g id="clust2" class="cluster">
<title>clusterdir_703bf59703a422df3ec2e273257eb58c</title>
<g id="a_clust2"><a xlink:href="dir_703bf59703a422df3ec2e273257eb58c.html" target="_top">
<polygon fill="#eeeeff" stroke="#000000" points="16,-64 16,-116 530,-116 530,-64 16,-64"/>
</a>
</g>
</g>
<!-- dir_703bf59703a422df3ec2e273257eb58c -->
<g id="node1" class="node">
<title>dir_703bf59703a422df3ec2e273257eb58c</title>
<text text-anchor="middle" x="489" y="-87.5" font-family="Helvetica,sans-Serif" font-size="10.00" fill="#000000">component</text>
</g>
<!-- dir_19f9a31d1372b311ba831746377a9409 -->
<g id="node8" class="node">
<title>dir_19f9a31d1372b311ba831746377a9409</title>
<g id="a_node8"><a xlink:href="dir_19f9a31d1372b311ba831746377a9409.html" target="_top" xlink:title="archlib">
<polygon fill="#ffffff" stroke="#ff0000" points="297,-36 243,-36 243,0 297,0 297,-36"/>
<text text-anchor="middle" x="270" y="-15.5" font-family="Helvetica,sans-Serif" font-size="10.00" fill="#000000">archlib</text>
</a>
</g>
</g>
<!-- dir_703bf59703a422df3ec2e273257eb58c&#45;&gt;dir_19f9a31d1372b311ba831746377a9409 -->
<g id="edge1" class="edge">
<title>dir_703bf59703a422df3ec2e273257eb58c&#45;&gt;dir_19f9a31d1372b311ba831746377a9409</title>
<path fill="none" stroke="#000000" d="M470.231,-71.6649C463.3934,-65.8779 455.2945,-59.9658 447,-56 401.837,-34.4062 344.3553,-24.9727 307.3665,-20.9269"/>
<polygon fill="#000000" stroke="#000000" points="307.3456,-17.4069 297.0434,-19.8798 306.6391,-24.3712 307.3456,-17.4069"/>
<g id="a_edge1&#45;headlabel"><a xlink:href="dir_000118_000000.html" target="_top" xlink:title="3">
<text text-anchor="middle" x="311.2083" y="-12.4448" font-family="Helvetica,sans-Serif" font-size="10.00" fill="#000000">3</text>
</a>
</g>
</g>
<!-- dir_8575de5d44fb6da108a38162e7056bb7 -->
<g id="node2" class="node">
<title>dir_8575de5d44fb6da108a38162e7056bb7</title>
<g id="a_node2"><a xlink:href="dir_8575de5d44fb6da108a38162e7056bb7.html" target="_top" xlink:title="g3t1_1">
<polygon fill="#ffffff" stroke="#000000" points="438,-108 384,-108 384,-72 438,-72 438,-108"/>
<text text-anchor="middle" x="411" y="-87.5" font-family="Helvetica,sans-Serif" font-size="10.00" fill="#000000">g3t1_1</text>
</a>
</g>
</g>
<!-- dir_62b51a67bc028621ac1ed926828e5658 -->
<g id="node3" class="node">
<title>dir_62b51a67bc028621ac1ed926828e5658</title>
<g id="a_node3"><a xlink:href="dir_62b51a67bc028621ac1ed926828e5658.html" target="_top" xlink:title="g3t1_2">
<polygon fill="#ffffff" stroke="#000000" points="366,-108 312,-108 312,-72 366,-72 366,-108"/>
<text text-anchor="middle" x="339" y="-87.5" font-family="Helvetica,sans-Serif" font-size="10.00" fill="#000000">g3t1_2</text>
</a>
</g>
</g>
<!-- dir_e18a75906500b794f0436fa8296ecb63 -->
<g id="node4" class="node">
<title>dir_e18a75906500b794f0436fa8296ecb63</title>
<g id="a_node4"><a xlink:href="dir_e18a75906500b794f0436fa8296ecb63.html" target="_top" xlink:title="g3t1_3">
<polygon fill="#ffffff" stroke="#000000" points="294,-108 240,-108 240,-72 294,-72 294,-108"/>
<text text-anchor="middle" x="267" y="-87.5" font-family="Helvetica,sans-Serif" font-size="10.00" fill="#000000">g3t1_3</text>
</a>
</g>
</g>
<!-- dir_48ee1ce36a5a0e1fe63b4e70c13750dd -->
<g id="node5" class="node">
<title>dir_48ee1ce36a5a0e1fe63b4e70c13750dd</title>
<g id="a_node5"><a xlink:href="dir_48ee1ce36a5a0e1fe63b4e70c13750dd.html" target="_top" xlink:title="g3t1_4">
<polygon fill="#ffffff" stroke="#000000" points="222,-108 168,-108 168,-72 222,-72 222,-108"/>
<text text-anchor="middle" x="195" y="-87.5" font-family="Helvetica,sans-Serif" font-size="10.00" fill="#000000">g3t1_4</text>
</a>
</g>
</g>
<!-- dir_35b9d35f76ff97be29e9e93db854ca7b -->
<g id="node6" class="node">
<title>dir_35b9d35f76ff97be29e9e93db854ca7b</title>
<g id="a_node6"><a xlink:href="dir_35b9d35f76ff97be29e9e93db854ca7b.html" target="_top" xlink:title="g3t1_5">
<polygon fill="#ffffff" stroke="#000000" points="150,-108 96,-108 96,-72 150,-72 150,-108"/>
<text text-anchor="middle" x="123" y="-87.5" font-family="Helvetica,sans-Serif" font-size="10.00" fill="#000000">g3t1_5</text>
</a>
</g>
</g>
<!-- dir_09dcb4ad94647143df61ab5bc429010e -->
<g id="node7" class="node">
<title>dir_09dcb4ad94647143df61ab5bc429010e</title>
<g id="a_node7"><a xlink:href="dir_09dcb4ad94647143df61ab5bc429010e.html" target="_top" xlink:title="g4t1">
<polygon fill="#ffffff" stroke="#000000" points="78,-108 24,-108 24,-72 78,-72 78,-108"/>
<text text-anchor="middle" x="51" y="-87.5" font-family="Helvetica,sans-Serif" font-size="10.00" fill="#000000">g4t1</text>
</a>
</g>
</g>
<!-- dir_09dcb4ad94647143df61ab5bc429010e&#45;&gt;dir_19f9a31d1372b311ba831746377a9409 -->
<g id="edge2" class="edge">
<title>dir_09dcb4ad94647143df61ab5bc429010e&#45;&gt;dir_19f9a31d1372b311ba831746377a9409</title>
<path fill="none" stroke="#000000" d="M66.3208,-71.94C72.2173,-66.0335 79.3778,-59.9758 87,-56 111.8892,-43.0175 186.7289,-30.2256 232.6298,-23.297"/>
<polygon fill="#000000" stroke="#000000" points="233.4149,-26.7189 242.792,-21.7873 232.3863,-19.7949 233.4149,-26.7189"/>
<g id="a_edge2&#45;headlabel"><a xlink:href="dir_000124_000000.html" target="_top" xlink:title="1">
<text text-anchor="middle" x="230.2765" y="-27.5555" font-family="Helvetica,sans-Serif" font-size="10.00" fill="#000000">1</text>
</a>
</g>
</g>
</g>
</svg>
