<?xml version="1.0" encoding="UTF-8" standalone="no"?>
<!DOCTYPE svg PUBLIC "-//W3C//DTD SVG 1.1//EN"
 "http://www.w3.org/Graphics/SVG/1.1/DTD/svg11.dtd">
<!-- Generated by graphviz version 2.40.1 (20161225.0304)
 -->
<!-- Title: libbsn/test Pages: 1 -->
<svg width="262pt" height="159pt"
 viewBox="0.00 0.00 262.00 159.00" xmlns="http://www.w3.org/2000/svg" xmlns:xlink="http://www.w3.org/1999/xlink">
<g id="graph0" class="graph" transform="scale(1 1) rotate(0) translate(4 155)">
<title>libbsn/test</title>
<polygon fill="#ffffff" stroke="transparent" points="-4,4 -4,-155 258,-155 258,4 -4,4"/>
<g id="clust1" class="cluster">
<title>clusterdir_3ae3a3820a5e36969f08aac2a4ed779d</title>
<g id="a_clust1"><a xlink:href="dir_3ae3a3820a5e36969f08aac2a4ed779d.html" target="_top" xlink:title="libbsn">
<polygon fill="#ddddee" stroke="#000000" points="8,-56 8,-143 246,-143 246,-56 8,-56"/>
<text text-anchor="middle" x="127" y="-131" font-family="Helvetica,sans-Serif" font-size="10.00" fill="#000000">libbsn</text>
</a>
</g>
</g>
<g id="clust2" class="cluster">
<title>clusterdir_8a541c2143c06bd38c02eb009265cc2d</title>
<g id="a_clust2"><a xlink:href="dir_8a541c2143c06bd38c02eb009265cc2d.html" target="_top">
<polygon fill="#eeeeff" stroke="#000000" points="16,-64 16,-116 238,-116 238,-64 16,-64"/>
</a>
</g>
</g>
<!-- dir_8a541c2143c06bd38c02eb009265cc2d -->
<g id="node1" class="node">
<title>dir_8a541c2143c06bd38c02eb009265cc2d</title>
<text text-anchor="middle" x="203" y="-87.5" font-family="Helvetica,sans-Serif" font-size="10.00" fill="#000000">test</text>
</g>
<!-- dir_5b337bd941dc6778e6f4d26c3b8e72aa -->
<g id="node2" class="node">
<title>dir_5b337bd941dc6778e6f4d26c3b8e72aa</title>
<g id="a_node2"><a xlink:href="dir_5b337bd941dc6778e6f4d26c3b8e72aa.html" target="_top" xlink:title="integration">
<polygon fill="#ffffff" stroke="#000000" points="158,-108 96,-108 96,-72 158,-72 158,-108"/>
<text text-anchor="middle" x="127" y="-87.5" font-family="Helvetica,sans-Serif" font-size="10.00" fill="#000000">integration</text>
</a>
</g>
</g>
<!-- dir_9dc014e2e80ca51c01cf0b0047cf525e -->
<g id="node3" class="node">
<title>dir_9dc014e2e80ca51c01cf0b0047cf525e</title>
<g id="a_node3"><a xlink:href="dir_9dc014e2e80ca51c01cf0b0047cf525e.html" target="_top" xlink:title="unit">
<polygon fill="#ffffff" stroke="#ff0000" points="78,-108 24,-108 24,-72 78,-72 78,-108"/>
<text text-anchor="middle" x="51" y="-87.5" font-family="Helvetica,sans-Serif" font-size="10.00" fill="#000000">unit</text>
</a>
</g>
</g>
<!-- dir_2ba61e7b1dcf8b98fd20bf8162f6f392 -->
<g id="node4" class="node">
<title>dir_2ba61e7b1dcf8b98fd20bf8162f6f392</title>
<g id="a_node4"><a xlink:href="dir_2ba61e7b1dcf8b98fd20bf8162f6f392.html" target="_top" xlink:title="include">
<polygon fill="#ffffff" stroke="#ff0000" points="78,-36 24,-36 24,0 78,0 78,-36"/>
<text text-anchor="middle" x="51" y="-15.5" font-family="Helvetica,sans-Serif" font-size="10.00" fill="#000000">include</text>
</a>
</g>
</g>
<!-- dir_9dc014e2e80ca51c01cf0b0047cf525e&#45;&gt;dir_2ba61e7b1dcf8b98fd20bf8162f6f392 -->
<g id="edge1" class="edge">
<title>dir_9dc014e2e80ca51c01cf0b0047cf525e&#45;&gt;dir_2ba61e7b1dcf8b98fd20bf8162f6f392</title>
<path fill="none" stroke="#000000" d="M51,-71.8314C51,-64.131 51,-54.9743 51,-46.4166"/>
<polygon fill="#000000" stroke="#000000" points="54.5001,-46.4132 51,-36.4133 47.5001,-46.4133 54.5001,-46.4132"/>
<g id="a_edge1&#45;headlabel"><a xlink:href="dir_000082_000059.html" target="_top" xlink:title="29">
<text text-anchor="middle" x="57.3393" y="-47.5079" font-family="Helvetica,sans-Serif" font-size="10.00" fill="#000000">29</text>
</a>
</g>
</g>
</g>
</svg>
