<?xml version="1.0" encoding="UTF-8" standalone="no"?>
<!DOCTYPE svg PUBLIC "-//W3C//DTD SVG 1.1//EN"
 "http://www.w3.org/Graphics/SVG/1.1/DTD/svg11.dtd">
<!-- Generated by graphviz version 2.40.1 (20161225.0304)
 -->
<!-- Title: libbsn/test/unit Pages: 1 -->
<svg width="721pt" height="159pt"
 viewBox="0.00 0.00 721.00 159.00" xmlns="http://www.w3.org/2000/svg" xmlns:xlink="http://www.w3.org/1999/xlink">
<g id="graph0" class="graph" transform="scale(1 1) rotate(0) translate(4 155)">
<title>libbsn/test/unit</title>
<polygon fill="#ffffff" stroke="transparent" points="-4,4 -4,-155 717,-155 717,4 -4,4"/>
<g id="clust1" class="cluster">
<title>clusterdir_8a541c2143c06bd38c02eb009265cc2d</title>
<g id="a_clust1"><a xlink:href="dir_8a541c2143c06bd38c02eb009265cc2d.html" target="_top" xlink:title="test">
<polygon fill="#ddddee" stroke="#000000" points="8,-56 8,-143 705,-143 705,-56 8,-56"/>
<text text-anchor="middle" x="356.5" y="-131" font-family="Helvetica,sans-Serif" font-size="10.00" fill="#000000">test</text>
</a>
</g>
</g>
<g id="clust2" class="cluster">
<title>clusterdir_9dc014e2e80ca51c01cf0b0047cf525e</title>
<g id="a_clust2"><a xlink:href="dir_9dc014e2e80ca51c01cf0b0047cf525e.html" target="_top">
<polygon fill="#eeeeff" stroke="#000000" points="16,-64 16,-116 697,-116 697,-64 16,-64"/>
</a>
</g>
</g>
<!-- dir_9dc014e2e80ca51c01cf0b0047cf525e -->
<g id="node1" class="node">
<title>dir_9dc014e2e80ca51c01cf0b0047cf525e</title>
<text text-anchor="middle" x="662" y="-87.5" font-family="Helvetica,sans-Serif" font-size="10.00" fill="#000000">unit</text>
</g>
<!-- dir_49b270a363b9ad1471baaa858db26f7e -->
<g id="node2" class="node">
<title>dir_49b270a363b9ad1471baaa858db26f7e</title>
<g id="a_node2"><a xlink:href="dir_49b270a363b9ad1471baaa858db26f7e.html" target="_top" xlink:title="configuration">
<polygon fill="#ffffff" stroke="#000000" points="617,-108 545,-108 545,-72 617,-72 617,-108"/>
<text text-anchor="middle" x="581" y="-87.5" font-family="Helvetica,sans-Serif" font-size="10.00" fill="#000000">configuration</text>
</a>
</g>
</g>
<!-- dir_2ba61e7b1dcf8b98fd20bf8162f6f392 -->
<g id="node10" class="node">
<title>dir_2ba61e7b1dcf8b98fd20bf8162f6f392</title>
<g id="a_node10"><a xlink:href="dir_2ba61e7b1dcf8b98fd20bf8162f6f392.html" target="_top" xlink:title="include">
<polygon fill="#ffffff" stroke="#ff0000" points="338,-36 284,-36 284,0 338,0 338,-36"/>
<text text-anchor="middle" x="311" y="-15.5" font-family="Helvetica,sans-Serif" font-size="10.00" fill="#000000">include</text>
</a>
</g>
</g>
<!-- dir_49b270a363b9ad1471baaa858db26f7e&#45;&gt;dir_2ba61e7b1dcf8b98fd20bf8162f6f392 -->
<g id="edge4" class="edge">
<title>dir_49b270a363b9ad1471baaa858db26f7e&#45;&gt;dir_2ba61e7b1dcf8b98fd20bf8162f6f392</title>
<path fill="none" stroke="#000000" d="M561.2512,-71.8307C553.8244,-65.914 544.9912,-59.8777 536,-56 502.9364,-41.7403 403.3767,-28.5712 348.4297,-22.134"/>
<polygon fill="#000000" stroke="#000000" points="348.727,-18.6452 338.3915,-20.9748 347.9239,-25.599 348.727,-18.6452"/>
<g id="a_edge4&#45;headlabel"><a xlink:href="dir_000083_000059.html" target="_top" xlink:title="1">
<text text-anchor="middle" x="352.6236" y="-13.7369" font-family="Helvetica,sans-Serif" font-size="10.00" fill="#000000">1</text>
</a>
</g>
</g>
<!-- dir_11ff612c0341349e2c191b019a4c429e -->
<g id="node3" class="node">
<title>dir_11ff612c0341349e2c191b019a4c429e</title>
<g id="a_node3"><a xlink:href="dir_11ff612c0341349e2c191b019a4c429e.html" target="_top" xlink:title="filters">
<polygon fill="#ffffff" stroke="#000000" points="527,-108 473,-108 473,-72 527,-72 527,-108"/>
<text text-anchor="middle" x="500" y="-87.5" font-family="Helvetica,sans-Serif" font-size="10.00" fill="#000000">filters</text>
</a>
</g>
</g>
<!-- dir_11ff612c0341349e2c191b019a4c429e&#45;&gt;dir_2ba61e7b1dcf8b98fd20bf8162f6f392 -->
<g id="edge7" class="edge">
<title>dir_11ff612c0341349e2c191b019a4c429e&#45;&gt;dir_2ba61e7b1dcf8b98fd20bf8162f6f392</title>
<path fill="none" stroke="#000000" d="M484.2362,-71.7498C478.4013,-65.9696 471.393,-60.0401 464,-56 427.6412,-36.1306 380.7801,-26.4723 348.5526,-21.8967"/>
<polygon fill="#000000" stroke="#000000" points="348.5928,-18.3717 338.2206,-20.5324 347.6764,-25.3114 348.5928,-18.3717"/>
<g id="a_edge7&#45;headlabel"><a xlink:href="dir_000084_000059.html" target="_top" xlink:title="1">
<text text-anchor="middle" x="352.5281" y="-13.5273" font-family="Helvetica,sans-Serif" font-size="10.00" fill="#000000">1</text>
</a>
</g>
</g>
<!-- dir_6bedfdabed5e8ca0ee76b068c7dbfb08 -->
<g id="node4" class="node">
<title>dir_6bedfdabed5e8ca0ee76b068c7dbfb08</title>
<g id="a_node4"><a xlink:href="dir_6bedfdabed5e8ca0ee76b068c7dbfb08.html" target="_top" xlink:title="generator">
<polygon fill="#ffffff" stroke="#000000" points="454.5,-108 397.5,-108 397.5,-72 454.5,-72 454.5,-108"/>
<text text-anchor="middle" x="426" y="-87.5" font-family="Helvetica,sans-Serif" font-size="10.00" fill="#000000">generator</text>
</a>
</g>
</g>
<!-- dir_6bedfdabed5e8ca0ee76b068c7dbfb08&#45;&gt;dir_2ba61e7b1dcf8b98fd20bf8162f6f392 -->
<g id="edge5" class="edge">
<title>dir_6bedfdabed5e8ca0ee76b068c7dbfb08&#45;&gt;dir_2ba61e7b1dcf8b98fd20bf8162f6f392</title>
<path fill="none" stroke="#000000" d="M408.4429,-71.9343C402.5647,-66.4294 395.7762,-60.6185 389,-56 376.1796,-47.2619 361.0489,-39.4038 347.5424,-33.132"/>
<polygon fill="#000000" stroke="#000000" points="348.606,-29.7724 338.0509,-28.8557 345.7305,-36.1546 348.606,-29.7724"/>
<g id="a_edge5&#45;headlabel"><a xlink:href="dir_000085_000059.html" target="_top" xlink:title="3">
<text text-anchor="middle" x="353.0496" y="-26.1603" font-family="Helvetica,sans-Serif" font-size="10.00" fill="#000000">3</text>
</a>
</g>
</g>
<!-- dir_eab8da8d678e0bf7187a1813dac87385 -->
<g id="node5" class="node">
<title>dir_eab8da8d678e0bf7187a1813dac87385</title>
<g id="a_node5"><a xlink:href="dir_eab8da8d678e0bf7187a1813dac87385.html" target="_top" xlink:title="goalmodel">
<polygon fill="#ffffff" stroke="#000000" points="379.5,-108 318.5,-108 318.5,-72 379.5,-72 379.5,-108"/>
<text text-anchor="middle" x="349" y="-87.5" font-family="Helvetica,sans-Serif" font-size="10.00" fill="#000000">goalmodel</text>
</a>
</g>
</g>
<!-- dir_eab8da8d678e0bf7187a1813dac87385&#45;&gt;dir_2ba61e7b1dcf8b98fd20bf8162f6f392 -->
<g id="edge3" class="edge">
<title>dir_eab8da8d678e0bf7187a1813dac87385&#45;&gt;dir_2ba61e7b1dcf8b98fd20bf8162f6f392</title>
<path fill="none" stroke="#000000" d="M339.411,-71.8314C335.1683,-63.7925 330.0879,-54.1666 325.404,-45.2918"/>
<polygon fill="#000000" stroke="#000000" points="328.4811,-43.6235 320.7181,-36.4133 322.2904,-46.8908 328.4811,-43.6235"/>
<g id="a_edge3&#45;headlabel"><a xlink:href="dir_000086_000059.html" target="_top" xlink:title="20">
<text text-anchor="middle" x="332.6699" y="-42.9772" font-family="Helvetica,sans-Serif" font-size="10.00" fill="#000000">20</text>
</a>
</g>
</g>
<!-- dir_3e9d80b5a16db5de110bdda7770735b2 -->
<g id="node6" class="node">
<title>dir_3e9d80b5a16db5de110bdda7770735b2</title>
<g id="a_node6"><a xlink:href="dir_3e9d80b5a16db5de110bdda7770735b2.html" target="_top" xlink:title="model">
<polygon fill="#ffffff" stroke="#000000" points="300,-108 246,-108 246,-72 300,-72 300,-108"/>
<text text-anchor="middle" x="273" y="-87.5" font-family="Helvetica,sans-Serif" font-size="10.00" fill="#000000">model</text>
</a>
</g>
</g>
<!-- dir_3e9d80b5a16db5de110bdda7770735b2&#45;&gt;dir_2ba61e7b1dcf8b98fd20bf8162f6f392 -->
<g id="edge6" class="edge">
<title>dir_3e9d80b5a16db5de110bdda7770735b2&#45;&gt;dir_2ba61e7b1dcf8b98fd20bf8162f6f392</title>
<path fill="none" stroke="#000000" d="M282.589,-71.8314C286.8317,-63.7925 291.9121,-54.1666 296.596,-45.2918"/>
<polygon fill="#000000" stroke="#000000" points="299.7096,-46.8908 301.2819,-36.4133 293.5189,-43.6235 299.7096,-46.8908"/>
<g id="a_edge6&#45;headlabel"><a xlink:href="dir_000087_000059.html" target="_top" xlink:title="1">
<text text-anchor="middle" x="300.5428" y="-48.895" font-family="Helvetica,sans-Serif" font-size="10.00" fill="#000000">1</text>
</a>
</g>
</g>
<!-- dir_87722dd0bd6bc34da61bd244edac79b2 -->
<g id="node7" class="node">
<title>dir_87722dd0bd6bc34da61bd244edac79b2</title>
<g id="a_node7"><a xlink:href="dir_87722dd0bd6bc34da61bd244edac79b2.html" target="_top" xlink:title="processor">
<polygon fill="#ffffff" stroke="#000000" points="227.5,-108 168.5,-108 168.5,-72 227.5,-72 227.5,-108"/>
<text text-anchor="middle" x="198" y="-87.5" font-family="Helvetica,sans-Serif" font-size="10.00" fill="#000000">processor</text>
</a>
</g>
</g>
<!-- dir_87722dd0bd6bc34da61bd244edac79b2&#45;&gt;dir_2ba61e7b1dcf8b98fd20bf8162f6f392 -->
<g id="edge1" class="edge">
<title>dir_87722dd0bd6bc34da61bd244edac79b2&#45;&gt;dir_2ba61e7b1dcf8b98fd20bf8162f6f392</title>
<path fill="none" stroke="#000000" d="M217.0876,-71.7261C223.1987,-66.3321 230.1595,-60.6369 237,-56 248.7173,-48.0574 262.3099,-40.6264 274.6242,-34.4794"/>
<polygon fill="#000000" stroke="#000000" points="276.2803,-37.566 283.7395,-30.0419 273.2164,-31.2721 276.2803,-37.566"/>
<g id="a_edge1&#45;headlabel"><a xlink:href="dir_000088_000059.html" target="_top" xlink:title="1">
<text text-anchor="middle" x="274.2911" y="-39.1921" font-family="Helvetica,sans-Serif" font-size="10.00" fill="#000000">1</text>
</a>
</g>
</g>
<!-- dir_f5130a0e3e9372f04aec79516505771f -->
<g id="node8" class="node">
<title>dir_f5130a0e3e9372f04aec79516505771f</title>
<g id="a_node8"><a xlink:href="dir_f5130a0e3e9372f04aec79516505771f.html" target="_top" xlink:title="range">
<polygon fill="#ffffff" stroke="#000000" points="150,-108 96,-108 96,-72 150,-72 150,-108"/>
<text text-anchor="middle" x="123" y="-87.5" font-family="Helvetica,sans-Serif" font-size="10.00" fill="#000000">range</text>
</a>
</g>
</g>
<!-- dir_f5130a0e3e9372f04aec79516505771f&#45;&gt;dir_2ba61e7b1dcf8b98fd20bf8162f6f392 -->
<g id="edge8" class="edge">
<title>dir_f5130a0e3e9372f04aec79516505771f&#45;&gt;dir_2ba61e7b1dcf8b98fd20bf8162f6f392</title>
<path fill="none" stroke="#000000" d="M139.2869,-71.7726C145.2907,-65.9943 152.4762,-60.0601 160,-56 195.9077,-36.6228 241.9648,-26.8854 273.7207,-22.1565"/>
<polygon fill="#000000" stroke="#000000" points="274.4848,-25.584 283.9065,-20.7381 273.5193,-18.6508 274.4848,-25.584"/>
<g id="a_edge8&#45;headlabel"><a xlink:href="dir_000089_000059.html" target="_top" xlink:title="1">
<text text-anchor="middle" x="271.3161" y="-26.3918" font-family="Helvetica,sans-Serif" font-size="10.00" fill="#000000">1</text>
</a>
</g>
</g>
<!-- dir_e4ad05582ab4b0bba2a3cec255e7fc9d -->
<g id="node9" class="node">
<title>dir_e4ad05582ab4b0bba2a3cec255e7fc9d</title>
<g id="a_node9"><a xlink:href="dir_e4ad05582ab4b0bba2a3cec255e7fc9d.html" target="_top" xlink:title="resource">
<polygon fill="#ffffff" stroke="#000000" points="78,-108 24,-108 24,-72 78,-72 78,-108"/>
<text text-anchor="middle" x="51" y="-87.5" font-family="Helvetica,sans-Serif" font-size="10.00" fill="#000000">resource</text>
</a>
</g>
</g>
<!-- dir_e4ad05582ab4b0bba2a3cec255e7fc9d&#45;&gt;dir_2ba61e7b1dcf8b98fd20bf8162f6f392 -->
<g id="edge2" class="edge">
<title>dir_e4ad05582ab4b0bba2a3cec255e7fc9d&#45;&gt;dir_2ba61e7b1dcf8b98fd20bf8162f6f392</title>
<path fill="none" stroke="#000000" d="M66.241,-71.7834C72.1299,-65.8623 79.3061,-59.8353 87,-56 119.1692,-39.964 219.0669,-27.5009 273.9526,-21.6512"/>
<polygon fill="#000000" stroke="#000000" points="274.3917,-25.1245 283.9735,-20.6034 273.6637,-18.1624 274.3917,-25.1245"/>
<g id="a_edge2&#45;headlabel"><a xlink:href="dir_000090_000059.html" target="_top" xlink:title="1">
<text text-anchor="middle" x="271.1118" y="-25.8221" font-family="Helvetica,sans-Serif" font-size="10.00" fill="#000000">1</text>
</a>
</g>
</g>
</g>
</svg>
