<?xml version="1.0" encoding="UTF-8" standalone="no"?>
<!DOCTYPE svg PUBLIC "-//W3C//DTD SVG 1.1//EN"
 "http://www.w3.org/Graphics/SVG/1.1/DTD/svg11.dtd">
<!-- Generated by graphviz version 2.40.1 (20161225.0304)
 -->
<!-- Title: src/target_system/components/component/src Pages: 1 -->
<svg width="542pt" height="159pt"
 viewBox="0.00 0.00 542.00 159.00" xmlns="http://www.w3.org/2000/svg" xmlns:xlink="http://www.w3.org/1999/xlink">
<g id="graph0" class="graph" transform="scale(1 1) rotate(0) translate(4 155)">
<title>src/target_system/components/component/src</title>
<polygon fill="#ffffff" stroke="transparent" points="-4,4 -4,-155 538,-155 538,4 -4,4"/>
<g id="clust1" class="cluster">
<title>clusterdir_b1d47c3af51bf8f293b088b7d0eccf6b</title>
<g id="a_clust1"><a xlink:href="dir_b1d47c3af51bf8f293b088b7d0eccf6b.html" target="_top" xlink:title="component">
<polygon fill="#ddddee" stroke="#000000" points="8,-56 8,-143 526,-143 526,-56 8,-56"/>
<text text-anchor="middle" x="267" y="-131" font-family="Helvetica,sans-Serif" font-size="10.00" fill="#000000">component</text>
</a>
</g>
</g>
<g id="clust2" class="cluster">
<title>clusterdir_41ab37a947d575c4bf9ac9a887fccd08</title>
<g id="a_clust2"><a xlink:href="dir_41ab37a947d575c4bf9ac9a887fccd08.html" target="_top">
<polygon fill="#eeeeff" stroke="#000000" points="16,-64 16,-116 518,-116 518,-64 16,-64"/>
</a>
</g>
</g>
<!-- dir_41ab37a947d575c4bf9ac9a887fccd08 -->
<g id="node1" class="node">
<title>dir_41ab37a947d575c4bf9ac9a887fccd08</title>
<text text-anchor="middle" x="483" y="-87.5" font-family="Helvetica,sans-Serif" font-size="10.00" fill="#000000">src</text>
</g>
<!-- dir_f48eba28a0c7f4b010520076610a10f7 -->
<g id="node2" class="node">
<title>dir_f48eba28a0c7f4b010520076610a10f7</title>
<g id="a_node2"><a xlink:href="dir_f48eba28a0c7f4b010520076610a10f7.html" target="_top" xlink:title="g3t1_1">
<polygon fill="#ffffff" stroke="#000000" points="438,-108 384,-108 384,-72 438,-72 438,-108"/>
<text text-anchor="middle" x="411" y="-87.5" font-family="Helvetica,sans-Serif" font-size="10.00" fill="#000000">g3t1_1</text>
</a>
</g>
</g>
<!-- dir_5a0c35dd754be41293e2810917849cb6 -->
<g id="node8" class="node">
<title>dir_5a0c35dd754be41293e2810917849cb6</title>
<g id="a_node8"><a xlink:href="dir_5a0c35dd754be41293e2810917849cb6.html" target="_top" xlink:title="include">
<polygon fill="#ffffff" stroke="#ff0000" points="258,-36 204,-36 204,0 258,0 258,-36"/>
<text text-anchor="middle" x="231" y="-15.5" font-family="Helvetica,sans-Serif" font-size="10.00" fill="#000000">include</text>
</a>
</g>
</g>
<!-- dir_f48eba28a0c7f4b010520076610a10f7&#45;&gt;dir_5a0c35dd754be41293e2810917849cb6 -->
<g id="edge1" class="edge">
<title>dir_f48eba28a0c7f4b010520076610a10f7&#45;&gt;dir_5a0c35dd754be41293e2810917849cb6</title>
<path fill="none" stroke="#000000" d="M395.2023,-71.8112C389.3648,-66.0359 382.3634,-60.0939 375,-56 341.5448,-37.3997 298.6258,-27.6041 268.3773,-22.6502"/>
<polygon fill="#000000" stroke="#000000" points="268.6582,-19.1524 258.2427,-21.0934 267.5953,-26.0713 268.6582,-19.1524"/>
<g id="a_edge1&#45;headlabel"><a xlink:href="dir_000126_000117.html" target="_top" xlink:title="1">
<text text-anchor="middle" x="272.6422" y="-14.3918" font-family="Helvetica,sans-Serif" font-size="10.00" fill="#000000">1</text>
</a>
</g>
</g>
<!-- dir_bcbf2aad92175038b88d490cd5e9dd64 -->
<g id="node3" class="node">
<title>dir_bcbf2aad92175038b88d490cd5e9dd64</title>
<g id="a_node3"><a xlink:href="dir_bcbf2aad92175038b88d490cd5e9dd64.html" target="_top" xlink:title="g3t1_2">
<polygon fill="#ffffff" stroke="#000000" points="366,-108 312,-108 312,-72 366,-72 366,-108"/>
<text text-anchor="middle" x="339" y="-87.5" font-family="Helvetica,sans-Serif" font-size="10.00" fill="#000000">g3t1_2</text>
</a>
</g>
</g>
<!-- dir_bcbf2aad92175038b88d490cd5e9dd64&#45;&gt;dir_5a0c35dd754be41293e2810917849cb6 -->
<g id="edge6" class="edge">
<title>dir_bcbf2aad92175038b88d490cd5e9dd64&#45;&gt;dir_5a0c35dd754be41293e2810917849cb6</title>
<path fill="none" stroke="#000000" d="M321.5248,-71.6849C315.8896,-66.2892 309.4314,-60.6034 303,-56 291.9358,-48.0807 279.0117,-40.7439 267.1908,-34.6714"/>
<polygon fill="#000000" stroke="#000000" points="268.5144,-31.4203 258.0039,-30.0854 265.3879,-37.6833 268.5144,-31.4203"/>
<g id="a_edge6&#45;headlabel"><a xlink:href="dir_000127_000117.html" target="_top" xlink:title="1">
<text text-anchor="middle" x="272.9986" y="-27.9853" font-family="Helvetica,sans-Serif" font-size="10.00" fill="#000000">1</text>
</a>
</g>
</g>
<!-- dir_d2ce33bb11576a3943be47d656c6a9dc -->
<g id="node4" class="node">
<title>dir_d2ce33bb11576a3943be47d656c6a9dc</title>
<g id="a_node4"><a xlink:href="dir_d2ce33bb11576a3943be47d656c6a9dc.html" target="_top" xlink:title="g3t1_3">
<polygon fill="#ffffff" stroke="#000000" points="294,-108 240,-108 240,-72 294,-72 294,-108"/>
<text text-anchor="middle" x="267" y="-87.5" font-family="Helvetica,sans-Serif" font-size="10.00" fill="#000000">g3t1_3</text>
</a>
</g>
</g>
<!-- dir_d2ce33bb11576a3943be47d656c6a9dc&#45;&gt;dir_5a0c35dd754be41293e2810917849cb6 -->
<g id="edge3" class="edge">
<title>dir_d2ce33bb11576a3943be47d656c6a9dc&#45;&gt;dir_5a0c35dd754be41293e2810917849cb6</title>
<path fill="none" stroke="#000000" d="M257.9157,-71.8314C253.9385,-63.8771 249.1845,-54.369 244.7861,-45.5723"/>
<polygon fill="#000000" stroke="#000000" points="247.8093,-43.7923 240.2066,-36.4133 241.5483,-46.9228 247.8093,-43.7923"/>
<g id="a_edge3&#45;headlabel"><a xlink:href="dir_000128_000117.html" target="_top" xlink:title="1">
<text text-anchor="middle" x="251.9563" y="-43.2377" font-family="Helvetica,sans-Serif" font-size="10.00" fill="#000000">1</text>
</a>
</g>
</g>
<!-- dir_429b205b888e6ba5d09ea97bac8351fe -->
<g id="node5" class="node">
<title>dir_429b205b888e6ba5d09ea97bac8351fe</title>
<g id="a_node5"><a xlink:href="dir_429b205b888e6ba5d09ea97bac8351fe.html" target="_top" xlink:title="g3t1_4">
<polygon fill="#ffffff" stroke="#000000" points="222,-108 168,-108 168,-72 222,-72 222,-108"/>
<text text-anchor="middle" x="195" y="-87.5" font-family="Helvetica,sans-Serif" font-size="10.00" fill="#000000">g3t1_4</text>
</a>
</g>
</g>
<!-- dir_429b205b888e6ba5d09ea97bac8351fe&#45;&gt;dir_5a0c35dd754be41293e2810917849cb6 -->
<g id="edge4" class="edge">
<title>dir_429b205b888e6ba5d09ea97bac8351fe&#45;&gt;dir_5a0c35dd754be41293e2810917849cb6</title>
<path fill="none" stroke="#000000" d="M204.0843,-71.8314C208.0615,-63.8771 212.8155,-54.369 217.2139,-45.5723"/>
<polygon fill="#000000" stroke="#000000" points="220.4517,-46.9228 221.7934,-36.4133 214.1907,-43.7923 220.4517,-46.9228"/>
<g id="a_edge4&#45;headlabel"><a xlink:href="dir_000129_000117.html" target="_top" xlink:title="1">
<text text-anchor="middle" x="221.3837" y="-48.9077" font-family="Helvetica,sans-Serif" font-size="10.00" fill="#000000">1</text>
</a>
</g>
</g>
<!-- dir_40cde8dc8651cb91e56d4f85fae8b0c2 -->
<g id="node6" class="node">
<title>dir_40cde8dc8651cb91e56d4f85fae8b0c2</title>
<g id="a_node6"><a xlink:href="dir_40cde8dc8651cb91e56d4f85fae8b0c2.html" target="_top" xlink:title="g3t1_5">
<polygon fill="#ffffff" stroke="#000000" points="150,-108 96,-108 96,-72 150,-72 150,-108"/>
<text text-anchor="middle" x="123" y="-87.5" font-family="Helvetica,sans-Serif" font-size="10.00" fill="#000000">g3t1_5</text>
</a>
</g>
</g>
<!-- dir_40cde8dc8651cb91e56d4f85fae8b0c2&#45;&gt;dir_5a0c35dd754be41293e2810917849cb6 -->
<g id="edge5" class="edge">
<title>dir_40cde8dc8651cb91e56d4f85fae8b0c2&#45;&gt;dir_5a0c35dd754be41293e2810917849cb6</title>
<path fill="none" stroke="#000000" d="M140.4752,-71.6849C146.1104,-66.2892 152.5686,-60.6034 159,-56 170.0642,-48.0807 182.9883,-40.7439 194.8092,-34.6714"/>
<polygon fill="#000000" stroke="#000000" points="196.6121,-37.6833 203.9961,-30.0854 193.4856,-31.4203 196.6121,-37.6833"/>
<g id="a_edge5&#45;headlabel"><a xlink:href="dir_000130_000117.html" target="_top" xlink:title="1">
<text text-anchor="middle" x="194.664" y="-39.3291" font-family="Helvetica,sans-Serif" font-size="10.00" fill="#000000">1</text>
</a>
</g>
</g>
<!-- dir_0fd727b88fb04809fba101fae43335c2 -->
<g id="node7" class="node">
<title>dir_0fd727b88fb04809fba101fae43335c2</title>
<g id="a_node7"><a xlink:href="dir_0fd727b88fb04809fba101fae43335c2.html" target="_top" xlink:title="g4t1">
<polygon fill="#ffffff" stroke="#000000" points="78,-108 24,-108 24,-72 78,-72 78,-108"/>
<text text-anchor="middle" x="51" y="-87.5" font-family="Helvetica,sans-Serif" font-size="10.00" fill="#000000">g4t1</text>
</a>
</g>
</g>
<!-- dir_0fd727b88fb04809fba101fae43335c2&#45;&gt;dir_5a0c35dd754be41293e2810917849cb6 -->
<g id="edge2" class="edge">
<title>dir_0fd727b88fb04809fba101fae43335c2&#45;&gt;dir_5a0c35dd754be41293e2810917849cb6</title>
<path fill="none" stroke="#000000" d="M66.7977,-71.8112C72.6352,-66.0359 79.6366,-60.0939 87,-56 120.4552,-37.3997 163.3742,-27.6041 193.6227,-22.6502"/>
<polygon fill="#000000" stroke="#000000" points="194.4047,-26.0713 203.7573,-21.0934 193.3418,-19.1524 194.4047,-26.0713"/>
<g id="a_edge2&#45;headlabel"><a xlink:href="dir_000131_000117.html" target="_top" xlink:title="1">
<text text-anchor="middle" x="191.2828" y="-26.9233" font-family="Helvetica,sans-Serif" font-size="10.00" fill="#000000">1</text>
</a>
</g>
</g>
</g>
</svg>
