<?xml version="1.0" encoding="UTF-8" standalone="no"?>
<!DOCTYPE svg PUBLIC "-//W3C//DTD SVG 1.1//EN"
 "http://www.w3.org/Graphics/SVG/1.1/DTD/svg11.dtd">
<!-- Generated by graphviz version 2.40.1 (20161225.0304)
 -->
<!-- Title: libbsn/include/configuration Pages: 1 -->
<svg width="112pt" height="151pt"
 viewBox="0.00 0.00 112.00 151.00" xmlns="http://www.w3.org/2000/svg" xmlns:xlink="http://www.w3.org/1999/xlink">
<g id="graph0" class="graph" transform="scale(1 1) rotate(0) translate(4 147)">
<title>libbsn/include/configuration</title>
<polygon fill="#ffffff" stroke="transparent" points="-4,4 -4,-147 108,-147 108,4 -4,4"/>
<g id="clust1" class="cluster">
<title>clusterdir_2ba61e7b1dcf8b98fd20bf8162f6f392</title>
<g id="a_clust1"><a xlink:href="dir_2ba61e7b1dcf8b98fd20bf8162f6f392.html" target="_top" xlink:title="include">
<polygon fill="#ddddee" stroke="#000000" points="8,-64 8,-135 96,-135 96,-64 8,-64"/>
<text text-anchor="middle" x="52" y="-123" font-family="Helvetica,sans-Serif" font-size="10.00" fill="#000000">include</text>
</a>
</g>
</g>
<!-- dir_cc92285e2d8ff298b34bcf5ce8582a7c -->
<g id="node1" class="node">
<title>dir_cc92285e2d8ff298b34bcf5ce8582a7c</title>
<g id="a_node1"><a xlink:href="dir_cc92285e2d8ff298b34bcf5ce8582a7c.html" target="_top" xlink:title="configuration">
<polygon fill="#eeeeff" stroke="#000000" points="88,-108 16,-108 16,-72 88,-72 88,-108"/>
<text text-anchor="middle" x="52" y="-87.5" font-family="Helvetica,sans-Serif" font-size="10.00" fill="#000000">configuration</text>
</a>
</g>
</g>
<!-- dir_28fef16a71fc7845c470fbd893bb8f95 -->
<g id="node2" class="node">
<title>dir_28fef16a71fc7845c470fbd893bb8f95</title>
<g id="a_node2"><a xlink:href="dir_28fef16a71fc7845c470fbd893bb8f95.html" target="_top" xlink:title="range">
<polygon fill="none" stroke="#000000" points="79,-36 25,-36 25,0 79,0 79,-36"/>
<text text-anchor="middle" x="52" y="-15.5" font-family="Helvetica,sans-Serif" font-size="10.00" fill="#000000">range</text>
</a>
</g>
</g>
<!-- dir_cc92285e2d8ff298b34bcf5ce8582a7c&#45;&gt;dir_28fef16a71fc7845c470fbd893bb8f95 -->
<g id="edge1" class="edge">
<title>dir_cc92285e2d8ff298b34bcf5ce8582a7c&#45;&gt;dir_28fef16a71fc7845c470fbd893bb8f95</title>
<path fill="none" stroke="#000000" d="M52,-71.8314C52,-64.131 52,-54.9743 52,-46.4166"/>
<polygon fill="#000000" stroke="#000000" points="55.5001,-46.4132 52,-36.4133 48.5001,-46.4133 55.5001,-46.4132"/>
<g id="a_edge1&#45;headlabel"><a xlink:href="dir_000060_000066.html" target="_top" xlink:title="1">
<text text-anchor="middle" x="58.3393" y="-47.5079" font-family="Helvetica,sans-Serif" font-size="10.00" fill="#000000">1</text>
</a>
</g>
</g>
</g>
</svg>
