<?xml version="1.0" encoding="UTF-8" standalone="no"?>
<!DOCTYPE svg PUBLIC "-//W3C//DTD SVG 1.1//EN"
 "http://www.w3.org/Graphics/SVG/1.1/DTD/svg11.dtd">
<!-- Generated by graphviz version 2.40.1 (20161225.0304)
 -->
<!-- Title: archlib/include/archlib/target_system/Effector.hpp Pages: 1 -->
<svg width="364pt" height="207pt"
 viewBox="0.00 0.00 364.25 207.00" xmlns="http://www.w3.org/2000/svg" xmlns:xlink="http://www.w3.org/1999/xlink">
<g id="graph0" class="graph" transform="scale(1 1) rotate(0) translate(4 203)">
<title>archlib/include/archlib/target_system/Effector.hpp</title>
<polygon fill="#ffffff" stroke="transparent" points="-4,4 -4,-203 360.2507,-203 360.2507,4 -4,4"/>
<!-- Node1 -->
<g id="node1" class="node">
<title>Node1</title>
<g id="a_node1"><a xlink:title=" ">
<polygon fill="#bfbfbf" stroke="#000000" points="197.759,-168.5 197.759,-198.5 335.759,-198.5 335.759,-168.5 197.759,-168.5"/>
<text text-anchor="start" x="205.759" y="-186.5" font-family="Helvetica,sans-Serif" font-size="10.00" fill="#000000">archlib/include/archlib</text>
<text text-anchor="middle" x="266.759" y="-175.5" font-family="Helvetica,sans-Serif" font-size="10.00" fill="#000000">/target_system/Effector.hpp</text>
</a>
</g>
</g>
<!-- Node2 -->
<g id="node2" class="node">
<title>Node2</title>
<g id="a_node2"><a xlink:title=" ">
<polygon fill="#ffffff" stroke="#bfbfbf" points="275.259,-.5 275.259,-19.5 330.259,-19.5 330.259,-.5 275.259,-.5"/>
<text text-anchor="middle" x="302.759" y="-7.5" font-family="Helvetica,sans-Serif" font-size="10.00" fill="#000000">ros/ros.h</text>
</a>
</g>
</g>
<!-- Node1&#45;&gt;Node2 -->
<g id="edge1" class="edge">
<title>Node1&#45;&gt;Node2</title>
<path fill="none" stroke="#191970" d="M307.6697,-168.4816C323.7873,-160.3159 340.6071,-148.4491 349.759,-132 369.4036,-96.692 339.0025,-51.4976 318.6565,-27.2382"/>
<polygon fill="#191970" stroke="#191970" points="321.1886,-24.8165 311.9777,-19.581 315.9133,-29.4178 321.1886,-24.8165"/>
</g>
<!-- Node3 -->
<g id="node3" class="node">
<title>Node3</title>
<g id="a_node3"><a xlink:title=" ">
<polygon fill="#ffffff" stroke="#bfbfbf" points="192.759,-112.5 192.759,-131.5 340.759,-131.5 340.759,-112.5 192.759,-112.5"/>
<text text-anchor="middle" x="266.759" y="-119.5" font-family="Helvetica,sans-Serif" font-size="10.00" fill="#000000">archlib/AdaptationCommand.h</text>
</a>
</g>
</g>
<!-- Node1&#45;&gt;Node3 -->
<g id="edge2" class="edge">
<title>Node1&#45;&gt;Node3</title>
<path fill="none" stroke="#191970" d="M266.759,-168.2977C266.759,-160.3834 266.759,-150.6043 266.759,-142.0759"/>
<polygon fill="#191970" stroke="#191970" points="270.2591,-141.8469 266.759,-131.8469 263.2591,-141.847 270.2591,-141.8469"/>
</g>
<!-- Node4 -->
<g id="node4" class="node">
<title>Node4</title>
<g id="a_node4"><a xlink:href="ROSComponent_8hpp.html" target="_top" xlink:title=" ">
<polygon fill="#ffffff" stroke="#000000" points="35.259,-112.5 35.259,-131.5 174.259,-131.5 174.259,-112.5 35.259,-112.5"/>
<text text-anchor="middle" x="104.759" y="-119.5" font-family="Helvetica,sans-Serif" font-size="10.00" fill="#000000">archlib/ROSComponent.hpp</text>
</a>
</g>
</g>
<!-- Node1&#45;&gt;Node4 -->
<g id="edge3" class="edge">
<title>Node1&#45;&gt;Node4</title>
<path fill="none" stroke="#191970" d="M227.1293,-168.4554C200.2178,-158.239 164.9779,-144.8609 139.2296,-135.0861"/>
<polygon fill="#191970" stroke="#191970" points="140.4545,-131.8074 129.8632,-131.5303 137.97,-138.3517 140.4545,-131.8074"/>
</g>
<!-- Node4&#45;&gt;Node2 -->
<g id="edge6" class="edge">
<title>Node4&#45;&gt;Node2</title>
<path fill="none" stroke="#191970" d="M168.5157,-112.452C213.003,-104.5542 267.2477,-92.0431 283.759,-76 296.1616,-63.949 300.6095,-44.3695 302.1351,-29.6595"/>
<polygon fill="#191970" stroke="#191970" points="305.635,-29.778 302.8155,-19.5652 298.6508,-29.3072 305.635,-29.778"/>
</g>
<!-- Node5 -->
<g id="node5" class="node">
<title>Node5</title>
<g id="a_node5"><a xlink:title=" ">
<polygon fill="#ffffff" stroke="#bfbfbf" points="24.259,-.5 24.259,-19.5 65.259,-19.5 65.259,-.5 24.259,-.5"/>
<text text-anchor="middle" x="44.759" y="-7.5" font-family="Helvetica,sans-Serif" font-size="10.00" fill="#000000">string</text>
</a>
</g>
</g>
<!-- Node4&#45;&gt;Node5 -->
<g id="edge4" class="edge">
<title>Node4&#45;&gt;Node5</title>
<path fill="none" stroke="#191970" d="M57.503,-112.4668C37.3472,-105.8095 15.748,-94.6342 3.759,-76 -7.0179,-59.2497 8.2768,-39.8652 23.1531,-26.4577"/>
<polygon fill="#191970" stroke="#191970" points="25.81,-28.7962 31.2064,-19.6787 21.3021,-23.4409 25.81,-28.7962"/>
</g>
<!-- Node6 -->
<g id="node6" class="node">
<title>Node6</title>
<g id="a_node6"><a xlink:title=" ">
<polygon fill="#ffffff" stroke="#bfbfbf" points="215.259,-56.5 215.259,-75.5 274.259,-75.5 274.259,-56.5 215.259,-56.5"/>
<text text-anchor="middle" x="244.759" y="-63.5" font-family="Helvetica,sans-Serif" font-size="10.00" fill="#000000">stdexcept</text>
</a>
</g>
</g>
<!-- Node4&#45;&gt;Node6 -->
<g id="edge5" class="edge">
<title>Node4&#45;&gt;Node6</title>
<path fill="none" stroke="#191970" d="M128.8258,-112.3733C151.6018,-103.2629 185.9934,-89.5062 211.408,-79.3404"/>
<polygon fill="#191970" stroke="#191970" points="213.0213,-82.4648 221.0062,-75.5011 210.4215,-75.9654 213.0213,-82.4648"/>
</g>
<!-- Node7 -->
<g id="node7" class="node">
<title>Node7</title>
<g id="a_node7"><a xlink:href="ROSComponentDescriptor_8hpp.html" target="_top" xlink:title=" ">
<polygon fill="#ffffff" stroke="#000000" points="12.759,-56.5 12.759,-75.5 196.759,-75.5 196.759,-56.5 12.759,-56.5"/>
<text text-anchor="middle" x="104.759" y="-63.5" font-family="Helvetica,sans-Serif" font-size="10.00" fill="#000000">archlib/ROSComponentDescriptor.hpp</text>
</a>
</g>
</g>
<!-- Node4&#45;&gt;Node7 -->
<g id="edge7" class="edge">
<title>Node4&#45;&gt;Node7</title>
<path fill="none" stroke="#191970" d="M104.759,-112.2455C104.759,-104.9382 104.759,-94.6944 104.759,-85.7046"/>
<polygon fill="#191970" stroke="#191970" points="108.2591,-85.6426 104.759,-75.6427 101.2591,-85.6427 108.2591,-85.6426"/>
</g>
<!-- Node7&#45;&gt;Node2 -->
<g id="edge9" class="edge">
<title>Node7&#45;&gt;Node2</title>
<path fill="none" stroke="#191970" d="M138.7964,-56.3733C174.0686,-46.3973 229.0386,-30.8502 265.4676,-20.5471"/>
<polygon fill="#191970" stroke="#191970" points="266.549,-23.8786 275.219,-17.7891 264.6439,-17.1428 266.549,-23.8786"/>
</g>
<!-- Node7&#45;&gt;Node5 -->
<g id="edge8" class="edge">
<title>Node7&#45;&gt;Node5</title>
<path fill="none" stroke="#191970" d="M94.3078,-56.2455C85.5321,-48.0549 72.8035,-36.1749 62.445,-26.5069"/>
<polygon fill="#191970" stroke="#191970" points="64.7891,-23.9072 55.0904,-19.6427 60.0129,-29.0246 64.7891,-23.9072"/>
</g>
</g>
</svg>
