<?xml version="1.0" encoding="UTF-8" standalone="no"?>
<!DOCTYPE svg PUBLIC "-//W3C//DTD SVG 1.1//EN"
 "http://www.w3.org/Graphics/SVG/1.1/DTD/svg11.dtd">
<!-- Generated by graphviz version 2.40.1 (20161225.0304)
 -->
<!-- Title: archlib/include/archlib/target_system/Effector.hpp Pages: 1 -->
<svg width="393pt" height="195pt"
 viewBox="0.00 0.00 392.50 195.00" xmlns="http://www.w3.org/2000/svg" xmlns:xlink="http://www.w3.org/1999/xlink">
<g id="graph0" class="graph" transform="scale(1 1) rotate(0) translate(4 191)">
<title>archlib/include/archlib/target_system/Effector.hpp</title>
<polygon fill="#ffffff" stroke="transparent" points="-4,4 -4,-191 388.5,-191 388.5,4 -4,4"/>
<!-- Node1 -->
<g id="node1" class="node">
<title>Node1</title>
<g id="a_node1"><a xlink:title=" ">
<polygon fill="#bfbfbf" stroke="#000000" points="59,-156.5 59,-186.5 197,-186.5 197,-156.5 59,-156.5"/>
<text text-anchor="start" x="67" y="-174.5" font-family="Helvetica,sans-Serif" font-size="10.00" fill="#000000">archlib/include/archlib</text>
<text text-anchor="middle" x="128" y="-163.5" font-family="Helvetica,sans-Serif" font-size="10.00" fill="#000000">/target_system/Effector.hpp</text>
</a>
</g>
</g>
<!-- Node2 -->
<g id="node2" class="node">
<title>Node2</title>
<g id="a_node2"><a xlink:href="Effector_8cpp.html" target="_top" xlink:title=" ">
<polygon fill="#ffffff" stroke="#000000" points="0,-84 0,-114 110,-114 110,-84 0,-84"/>
<text text-anchor="start" x="8" y="-102" font-family="Helvetica,sans-Serif" font-size="10.00" fill="#000000">archlib/src/target</text>
<text text-anchor="middle" x="55" y="-91" font-family="Helvetica,sans-Serif" font-size="10.00" fill="#000000">_system/Effector.cpp</text>
</a>
</g>
</g>
<!-- Node1&#45;&gt;Node2 -->
<g id="edge1" class="edge">
<title>Node1&#45;&gt;Node2</title>
<path fill="none" stroke="#191970" d="M105.6784,-149.3313C94.1466,-137.8785 80.3792,-124.2054 70.1063,-114.0028"/>
<polygon fill="#191970" stroke="#191970" points="103.3126,-151.9146 112.8744,-156.478 108.2454,-146.9478 103.3126,-151.9146"/>
</g>
<!-- Node3 -->
<g id="node3" class="node">
<title>Node3</title>
<g id="a_node3"><a xlink:href="ParamAdapter_8hpp.html" target="_top" xlink:title=" ">
<polygon fill="#ffffff" stroke="#000000" points="128,-78.5 128,-119.5 276,-119.5 276,-78.5 128,-78.5"/>
<text text-anchor="start" x="136" y="-107.5" font-family="Helvetica,sans-Serif" font-size="10.00" fill="#000000">src/target_system/effectors</text>
<text text-anchor="start" x="136" y="-96.5" font-family="Helvetica,sans-Serif" font-size="10.00" fill="#000000">/param_adapter/include/param</text>
<text text-anchor="middle" x="202" y="-85.5" font-family="Helvetica,sans-Serif" font-size="10.00" fill="#000000">_adapter/ParamAdapter.hpp</text>
</a>
</g>
</g>
<!-- Node1&#45;&gt;Node3 -->
<g id="edge2" class="edge">
<title>Node1&#45;&gt;Node3</title>
<path fill="none" stroke="#191970" d="M150.7009,-149.2593C160.3789,-139.7774 171.5995,-128.7843 181.0743,-119.5015"/>
<polygon fill="#191970" stroke="#191970" points="148.0266,-146.9795 143.3328,-156.478 152.9254,-151.9797 148.0266,-146.9795"/>
</g>
<!-- Node4 -->
<g id="node4" class="node">
<title>Node4</title>
<g id="a_node4"><a xlink:href="param__adapter_8cpp.html" target="_top" xlink:title=" ">
<polygon fill="#ffffff" stroke="#000000" points="43,-.5 43,-41.5 181,-41.5 181,-.5 43,-.5"/>
<text text-anchor="start" x="51" y="-29.5" font-family="Helvetica,sans-Serif" font-size="10.00" fill="#000000">src/target_system/effectors</text>
<text text-anchor="start" x="51" y="-18.5" font-family="Helvetica,sans-Serif" font-size="10.00" fill="#000000">/param_adapter/apps/param</text>
<text text-anchor="middle" x="112" y="-7.5" font-family="Helvetica,sans-Serif" font-size="10.00" fill="#000000">_adapter.cpp</text>
</a>
</g>
</g>
<!-- Node3&#45;&gt;Node4 -->
<g id="edge3" class="edge">
<title>Node3&#45;&gt;Node4</title>
<path fill="none" stroke="#191970" d="M170.2833,-71.5122C158.9665,-61.7043 146.4184,-50.8293 135.8728,-41.6898"/>
<polygon fill="#191970" stroke="#191970" points="168.0325,-74.193 177.8817,-78.0974 172.617,-68.9032 168.0325,-74.193"/>
</g>
<!-- Node5 -->
<g id="node5" class="node">
<title>Node5</title>
<g id="a_node5"><a xlink:href="ParamAdapter_8cpp.html" target="_top" xlink:title=" ">
<polygon fill="#ffffff" stroke="#000000" points="199.5,-6 199.5,-36 384.5,-36 384.5,-6 199.5,-6"/>
<text text-anchor="start" x="207.5" y="-24" font-family="Helvetica,sans-Serif" font-size="10.00" fill="#000000">src/target_system/effectors</text>
<text text-anchor="middle" x="292" y="-13" font-family="Helvetica,sans-Serif" font-size="10.00" fill="#000000">/param_adapter/src/ParamAdapter.cpp</text>
</a>
</g>
</g>
<!-- Node3&#45;&gt;Node5 -->
<g id="edge4" class="edge">
<title>Node3&#45;&gt;Node5</title>
<path fill="none" stroke="#191970" d="M233.944,-71.3152C247.6563,-59.4312 263.1393,-46.0126 274.6654,-36.0233"/>
<polygon fill="#191970" stroke="#191970" points="231.383,-68.9032 226.1183,-78.0974 235.9675,-74.193 231.383,-68.9032"/>
</g>
</g>
</svg>
