<?xml version="1.0" encoding="UTF-8" standalone="no"?>
<!DOCTYPE svg PUBLIC "-//W3C//DTD SVG 1.1//EN"
 "http://www.w3.org/Graphics/SVG/1.1/DTD/svg11.dtd">
<!-- Generated by graphviz version 2.40.1 (20161225.0304)
 -->
<!-- Title: src/manager_system/enactor/src/Enactor.cpp Pages: 1 -->
<svg width="1446pt" height="263pt"
 viewBox="0.00 0.00 1446.04 263.00" xmlns="http://www.w3.org/2000/svg" xmlns:xlink="http://www.w3.org/1999/xlink">
<g id="graph0" class="graph" transform="scale(1 1) rotate(0) translate(4 259)">
<title>src/manager_system/enactor/src/Enactor.cpp</title>
<polygon fill="#ffffff" stroke="transparent" points="-4,4 -4,-259 1442.0357,-259 1442.0357,4 -4,4"/>
<!-- Node1 -->
<g id="node1" class="node">
<title>Node1</title>
<g id="a_node1"><a xlink:title=" ">
<polygon fill="#bfbfbf" stroke="#000000" points="603.5,-224.5 603.5,-254.5 727.5,-254.5 727.5,-224.5 603.5,-224.5"/>
<text text-anchor="start" x="611.5" y="-242.5" font-family="Helvetica,sans-Serif" font-size="10.00" fill="#000000">src/manager_system</text>
<text text-anchor="middle" x="665.5" y="-231.5" font-family="Helvetica,sans-Serif" font-size="10.00" fill="#000000">/enactor/src/Enactor.cpp</text>
</a>
</g>
</g>
<!-- Node2 -->
<g id="node2" class="node">
<title>Node2</title>
<g id="a_node2"><a xlink:href="Enactor_8hpp.html" target="_top" xlink:title=" ">
<polygon fill="#ffffff" stroke="#000000" points="613.5,-168.5 613.5,-187.5 717.5,-187.5 717.5,-168.5 613.5,-168.5"/>
<text text-anchor="middle" x="665.5" y="-175.5" font-family="Helvetica,sans-Serif" font-size="10.00" fill="#000000">enactor/Enactor.hpp</text>
</a>
</g>
</g>
<!-- Node1&#45;&gt;Node2 -->
<g id="edge1" class="edge">
<title>Node1&#45;&gt;Node2</title>
<path fill="none" stroke="#191970" d="M665.5,-224.2977C665.5,-216.3834 665.5,-206.6043 665.5,-198.0759"/>
<polygon fill="#191970" stroke="#191970" points="669.0001,-197.8469 665.5,-187.8469 662.0001,-197.847 669.0001,-197.8469"/>
</g>
<!-- Node3 -->
<g id="node3" class="node">
<title>Node3</title>
<g id="a_node3"><a xlink:title=" ">
<polygon fill="#ffffff" stroke="#bfbfbf" points="0,-112.5 0,-131.5 35,-131.5 35,-112.5 0,-112.5"/>
<text text-anchor="middle" x="17.5" y="-119.5" font-family="Helvetica,sans-Serif" font-size="10.00" fill="#000000">map</text>
</a>
</g>
</g>
<!-- Node2&#45;&gt;Node3 -->
<g id="edge2" class="edge">
<title>Node2&#45;&gt;Node3</title>
<path fill="none" stroke="#191970" d="M613.2275,-176.1042C487.4193,-171.2337 169.5601,-157.022 45.209,-131.7494"/>
<polygon fill="#191970" stroke="#191970" points="45.7016,-128.2753 35.1889,-129.5917 44.228,-135.1184 45.7016,-128.2753"/>
</g>
<!-- Node4 -->
<g id="node4" class="node">
<title>Node4</title>
<g id="a_node4"><a xlink:title=" ">
<polygon fill="#ffffff" stroke="#bfbfbf" points="53,-112.5 53,-131.5 96,-131.5 96,-112.5 53,-112.5"/>
<text text-anchor="middle" x="74.5" y="-119.5" font-family="Helvetica,sans-Serif" font-size="10.00" fill="#000000">deque</text>
</a>
</g>
</g>
<!-- Node2&#45;&gt;Node4 -->
<g id="edge3" class="edge">
<title>Node2&#45;&gt;Node4</title>
<path fill="none" stroke="#191970" d="M613.1634,-175.3161C496.7664,-169.0946 218.4905,-152.7617 106.3012,-131.9025"/>
<polygon fill="#191970" stroke="#191970" points="106.7767,-128.4291 96.2896,-129.9359 105.4274,-135.2979 106.7767,-128.4291"/>
</g>
<!-- Node5 -->
<g id="node5" class="node">
<title>Node5</title>
<g id="a_node5"><a xlink:title=" ">
<polygon fill="#ffffff" stroke="#bfbfbf" points="114,-112.5 114,-131.5 161,-131.5 161,-112.5 114,-112.5"/>
<text text-anchor="middle" x="137.5" y="-119.5" font-family="Helvetica,sans-Serif" font-size="10.00" fill="#000000">math.h</text>
</a>
</g>
</g>
<!-- Node2&#45;&gt;Node5 -->
<g id="edge4" class="edge">
<title>Node2&#45;&gt;Node5</title>
<path fill="none" stroke="#191970" d="M613.2104,-176.758C523.9768,-173.8553 336.6321,-164.3544 170.9935,-131.9541"/>
<polygon fill="#191970" stroke="#191970" points="171.6122,-128.5087 161.1215,-129.9905 170.2465,-135.3742 171.6122,-128.5087"/>
</g>
<!-- Node6 -->
<g id="node6" class="node">
<title>Node6</title>
<g id="a_node6"><a xlink:title=" ">
<polygon fill="#ffffff" stroke="#bfbfbf" points="419,-.5 419,-19.5 474,-19.5 474,-.5 419,-.5"/>
<text text-anchor="middle" x="446.5" y="-7.5" font-family="Helvetica,sans-Serif" font-size="10.00" fill="#000000">ros/ros.h</text>
</a>
</g>
</g>
<!-- Node2&#45;&gt;Node6 -->
<g id="edge5" class="edge">
<title>Node2&#45;&gt;Node6</title>
<path fill="none" stroke="#191970" d="M717.5683,-176.8207C886.356,-172.7473 1408.9444,-158.0704 1433.5,-132 1439.5946,-125.5294 1439.4536,-118.6005 1433.5,-112 1368.6934,-40.1509 657.432,-15.8521 484.3159,-10.9808"/>
<polygon fill="#191970" stroke="#191970" points="484.2537,-7.4778 474.1608,-10.7001 484.0603,-14.4751 484.2537,-7.4778"/>
</g>
<!-- Node7 -->
<g id="node7" class="node">
<title>Node7</title>
<g id="a_node7"><a xlink:title=" ">
<polygon fill="#ffffff" stroke="#bfbfbf" points="336.5,-112.5 336.5,-131.5 414.5,-131.5 414.5,-112.5 336.5,-112.5"/>
<text text-anchor="middle" x="375.5" y="-119.5" font-family="Helvetica,sans-Serif" font-size="10.00" fill="#000000">ros/package.h</text>
</a>
</g>
</g>
<!-- Node2&#45;&gt;Node7 -->
<g id="edge6" class="edge">
<title>Node2&#45;&gt;Node7</title>
<path fill="none" stroke="#191970" d="M614.6859,-168.4952C565.8873,-159.3215 490.1082,-144.9555 424.5,-132 424.3989,-131.98 424.2976,-131.96 424.1962,-131.94"/>
<polygon fill="#191970" stroke="#191970" points="425.0315,-128.5377 414.5401,-130.0139 423.6622,-135.4025 425.0315,-128.5377"/>
</g>
<!-- Node8 -->
<g id="node8" class="node">
<title>Node8</title>
<g id="a_node8"><a xlink:title=" ">
<polygon fill="#ffffff" stroke="#bfbfbf" points="433,-112.5 433,-131.5 548,-131.5 548,-112.5 433,-112.5"/>
<text text-anchor="middle" x="490.5" y="-119.5" font-family="Helvetica,sans-Serif" font-size="10.00" fill="#000000">services/EnactorInfo.h</text>
</a>
</g>
</g>
<!-- Node2&#45;&gt;Node8 -->
<g id="edge7" class="edge">
<title>Node2&#45;&gt;Node8</title>
<path fill="none" stroke="#191970" d="M635.4164,-168.3733C606.3166,-159.0613 562.0477,-144.8953 530.097,-134.671"/>
<polygon fill="#191970" stroke="#191970" points="530.782,-131.2155 520.191,-131.5011 528.6485,-137.8824 530.782,-131.2155"/>
</g>
<!-- Node9 -->
<g id="node9" class="node">
<title>Node9</title>
<g id="a_node9"><a xlink:title=" ">
<polygon fill="#ffffff" stroke="#bfbfbf" points="566,-112.5 566,-131.5 659,-131.5 659,-112.5 566,-112.5"/>
<text text-anchor="middle" x="612.5" y="-119.5" font-family="Helvetica,sans-Serif" font-size="10.00" fill="#000000">bsn/utils/utils.hpp</text>
</a>
</g>
</g>
<!-- Node2&#45;&gt;Node9 -->
<g id="edge8" class="edge">
<title>Node2&#45;&gt;Node9</title>
<path fill="none" stroke="#191970" d="M656.2681,-168.2455C648.6683,-160.2155 637.7123,-148.6394 628.6632,-139.0781"/>
<polygon fill="#191970" stroke="#191970" points="631.042,-136.4998 621.6261,-131.6427 625.9579,-141.3115 631.042,-136.4998"/>
</g>
<!-- Node10 -->
<g id="node10" class="node">
<title>Node10</title>
<g id="a_node10"><a xlink:title=" ">
<polygon fill="#ffffff" stroke="#bfbfbf" points="677,-112.5 677,-131.5 762,-131.5 762,-112.5 677,-112.5"/>
<text text-anchor="middle" x="719.5" y="-119.5" font-family="Helvetica,sans-Serif" font-size="10.00" fill="#000000">archlib/Status.h</text>
</a>
</g>
</g>
<!-- Node2&#45;&gt;Node10 -->
<g id="edge9" class="edge">
<title>Node2&#45;&gt;Node10</title>
<path fill="none" stroke="#191970" d="M674.9061,-168.2455C682.6493,-160.2155 693.812,-148.6394 703.0318,-139.0781"/>
<polygon fill="#191970" stroke="#191970" points="705.7798,-141.2706 710.2017,-131.6427 700.7409,-136.4117 705.7798,-141.2706"/>
</g>
<!-- Node11 -->
<g id="node11" class="node">
<title>Node11</title>
<g id="a_node11"><a xlink:title=" ">
<polygon fill="#ffffff" stroke="#bfbfbf" points="780.5,-112.5 780.5,-131.5 862.5,-131.5 862.5,-112.5 780.5,-112.5"/>
<text text-anchor="middle" x="821.5" y="-119.5" font-family="Helvetica,sans-Serif" font-size="10.00" fill="#000000">archlib/Event.h</text>
</a>
</g>
</g>
<!-- Node2&#45;&gt;Node11 -->
<g id="edge10" class="edge">
<title>Node2&#45;&gt;Node11</title>
<path fill="none" stroke="#191970" d="M692.3174,-168.3733C718.0332,-159.1419 757.038,-145.1402 785.4599,-134.9375"/>
<polygon fill="#191970" stroke="#191970" points="786.8032,-138.174 795.0326,-131.5011 784.4381,-131.5857 786.8032,-138.174"/>
</g>
<!-- Node12 -->
<g id="node12" class="node">
<title>Node12</title>
<g id="a_node12"><a xlink:title=" ">
<polygon fill="#ffffff" stroke="#bfbfbf" points="881,-112.5 881,-131.5 974,-131.5 974,-112.5 881,-112.5"/>
<text text-anchor="middle" x="927.5" y="-119.5" font-family="Helvetica,sans-Serif" font-size="10.00" fill="#000000">archlib/Strategy.h</text>
</a>
</g>
</g>
<!-- Node2&#45;&gt;Node12 -->
<g id="edge11" class="edge">
<title>Node2&#45;&gt;Node12</title>
<path fill="none" stroke="#191970" d="M710.2417,-168.4369C755.2694,-158.8127 824.7728,-143.957 872.9927,-133.6504"/>
<polygon fill="#191970" stroke="#191970" points="873.8953,-137.0366 882.9428,-131.5237 872.4321,-130.1912 873.8953,-137.0366"/>
</g>
<!-- Node13 -->
<g id="node13" class="node">
<title>Node13</title>
<g id="a_node13"><a xlink:title=" ">
<polygon fill="#ffffff" stroke="#bfbfbf" points="992.5,-112.5 992.5,-131.5 1092.5,-131.5 1092.5,-112.5 992.5,-112.5"/>
<text text-anchor="middle" x="1042.5" y="-119.5" font-family="Helvetica,sans-Serif" font-size="10.00" fill="#000000">archlib/Exception.h</text>
</a>
</g>
</g>
<!-- Node2&#45;&gt;Node13 -->
<g id="edge12" class="edge">
<title>Node2&#45;&gt;Node13</title>
<path fill="none" stroke="#191970" d="M717.6115,-170.8567C778.6161,-162.4061 882.9579,-147.6789 982.3868,-132.1474"/>
<polygon fill="#191970" stroke="#191970" points="982.9641,-135.5997 992.3015,-130.5933 981.8801,-128.6841 982.9641,-135.5997"/>
</g>
<!-- Node14 -->
<g id="node14" class="node">
<title>Node14</title>
<g id="a_node14"><a xlink:title=" ">
<polygon fill="#ffffff" stroke="#bfbfbf" points="1110.5,-112.5 1110.5,-131.5 1258.5,-131.5 1258.5,-112.5 1110.5,-112.5"/>
<text text-anchor="middle" x="1184.5" y="-119.5" font-family="Helvetica,sans-Serif" font-size="10.00" fill="#000000">archlib/AdaptationCommand.h</text>
</a>
</g>
</g>
<!-- Node2&#45;&gt;Node14 -->
<g id="edge13" class="edge">
<title>Node2&#45;&gt;Node14</title>
<path fill="none" stroke="#191970" d="M717.5406,-172.7607C797.4838,-164.6569 955.5948,-148.4107 1100.3395,-132.1185"/>
<polygon fill="#191970" stroke="#191970" points="1100.75,-135.5945 1110.2947,-130.9955 1099.9653,-128.6386 1100.75,-135.5945"/>
</g>
<!-- Node15 -->
<g id="node15" class="node">
<title>Node15</title>
<g id="a_node15"><a xlink:title=" ">
<polygon fill="#ffffff" stroke="#bfbfbf" points="1277,-112.5 1277,-131.5 1424,-131.5 1424,-112.5 1277,-112.5"/>
<text text-anchor="middle" x="1350.5" y="-119.5" font-family="Helvetica,sans-Serif" font-size="10.00" fill="#000000">archlib/DataAccessRequest.h</text>
</a>
</g>
</g>
<!-- Node2&#45;&gt;Node15 -->
<g id="edge14" class="edge">
<title>Node2&#45;&gt;Node15</title>
<path fill="none" stroke="#191970" d="M717.505,-174.7933C820.2624,-168.2904 1056.804,-152.494 1266.7742,-132.0325"/>
<polygon fill="#191970" stroke="#191970" points="1267.1411,-135.5134 1276.752,-131.0546 1266.4583,-128.5468 1267.1411,-135.5134"/>
</g>
<!-- Node16 -->
<g id="node16" class="node">
<title>Node16</title>
<g id="a_node16"><a xlink:href="ROSComponent_8hpp.html" target="_top" xlink:title=" ">
<polygon fill="#ffffff" stroke="#000000" points="179,-112.5 179,-131.5 318,-131.5 318,-112.5 179,-112.5"/>
<text text-anchor="middle" x="248.5" y="-119.5" font-family="Helvetica,sans-Serif" font-size="10.00" fill="#000000">archlib/ROSComponent.hpp</text>
</a>
</g>
</g>
<!-- Node2&#45;&gt;Node16 -->
<g id="edge15" class="edge">
<title>Node2&#45;&gt;Node16</title>
<path fill="none" stroke="#191970" d="M613.1089,-170.9643C541.3254,-161.3243 411.7776,-143.927 328.0009,-132.6764"/>
<polygon fill="#191970" stroke="#191970" points="328.395,-129.198 318.0181,-131.3358 327.4633,-136.1357 328.395,-129.198"/>
</g>
<!-- Node16&#45;&gt;Node6 -->
<g id="edge18" class="edge">
<title>Node16&#45;&gt;Node6</title>
<path fill="none" stroke="#191970" d="M312.2567,-112.452C356.7441,-104.5542 410.9887,-92.0431 427.5,-76 439.9026,-63.949 444.3505,-44.3695 445.8761,-29.6595"/>
<polygon fill="#191970" stroke="#191970" points="449.376,-29.778 446.5565,-19.5652 442.3918,-29.3072 449.376,-29.778"/>
</g>
<!-- Node17 -->
<g id="node17" class="node">
<title>Node17</title>
<g id="a_node17"><a xlink:title=" ">
<polygon fill="#ffffff" stroke="#bfbfbf" points="168,-.5 168,-19.5 209,-19.5 209,-.5 168,-.5"/>
<text text-anchor="middle" x="188.5" y="-7.5" font-family="Helvetica,sans-Serif" font-size="10.00" fill="#000000">string</text>
</a>
</g>
</g>
<!-- Node16&#45;&gt;Node17 -->
<g id="edge16" class="edge">
<title>Node16&#45;&gt;Node17</title>
<path fill="none" stroke="#191970" d="M201.244,-112.4668C181.0882,-105.8095 159.489,-94.6342 147.5,-76 136.7231,-59.2497 152.0178,-39.8652 166.8941,-26.4577"/>
<polygon fill="#191970" stroke="#191970" points="169.551,-28.7962 174.9474,-19.6787 165.0431,-23.4409 169.551,-28.7962"/>
</g>
<!-- Node18 -->
<g id="node18" class="node">
<title>Node18</title>
<g id="a_node18"><a xlink:title=" ">
<polygon fill="#ffffff" stroke="#bfbfbf" points="359,-56.5 359,-75.5 418,-75.5 418,-56.5 359,-56.5"/>
<text text-anchor="middle" x="388.5" y="-63.5" font-family="Helvetica,sans-Serif" font-size="10.00" fill="#000000">stdexcept</text>
</a>
</g>
</g>
<!-- Node16&#45;&gt;Node18 -->
<g id="edge17" class="edge">
<title>Node16&#45;&gt;Node18</title>
<path fill="none" stroke="#191970" d="M272.5669,-112.3733C295.3428,-103.2629 329.7344,-89.5062 355.149,-79.3404"/>
<polygon fill="#191970" stroke="#191970" points="356.7623,-82.4648 364.7472,-75.5011 354.1625,-75.9654 356.7623,-82.4648"/>
</g>
<!-- Node19 -->
<g id="node19" class="node">
<title>Node19</title>
<g id="a_node19"><a xlink:href="ROSComponentDescriptor_8hpp.html" target="_top" xlink:title=" ">
<polygon fill="#ffffff" stroke="#000000" points="156.5,-56.5 156.5,-75.5 340.5,-75.5 340.5,-56.5 156.5,-56.5"/>
<text text-anchor="middle" x="248.5" y="-63.5" font-family="Helvetica,sans-Serif" font-size="10.00" fill="#000000">archlib/ROSComponentDescriptor.hpp</text>
</a>
</g>
</g>
<!-- Node16&#45;&gt;Node19 -->
<g id="edge19" class="edge">
<title>Node16&#45;&gt;Node19</title>
<path fill="none" stroke="#191970" d="M248.5,-112.2455C248.5,-104.9382 248.5,-94.6944 248.5,-85.7046"/>
<polygon fill="#191970" stroke="#191970" points="252.0001,-85.6426 248.5,-75.6427 245.0001,-85.6427 252.0001,-85.6426"/>
</g>
<!-- Node19&#45;&gt;Node6 -->
<g id="edge21" class="edge">
<title>Node19&#45;&gt;Node6</title>
<path fill="none" stroke="#191970" d="M282.5374,-56.3733C317.8097,-46.3973 372.7796,-30.8502 409.2086,-20.5471"/>
<polygon fill="#191970" stroke="#191970" points="410.29,-23.8786 418.96,-17.7891 408.3849,-17.1428 410.29,-23.8786"/>
</g>
<!-- Node19&#45;&gt;Node17 -->
<g id="edge20" class="edge">
<title>Node19&#45;&gt;Node17</title>
<path fill="none" stroke="#191970" d="M238.0488,-56.2455C229.2731,-48.0549 216.5446,-36.1749 206.186,-26.5069"/>
<polygon fill="#191970" stroke="#191970" points="208.5301,-23.9072 198.8314,-19.6427 203.7539,-29.0246 208.5301,-23.9072"/>
</g>
</g>
</svg>
