<?xml version="1.0" encoding="UTF-8" standalone="no"?>
<!DOCTYPE svg PUBLIC "-//W3C//DTD SVG 1.1//EN"
 "http://www.w3.org/Graphics/SVG/1.1/DTD/svg11.dtd">
<!-- Generated by graphviz version 2.40.1 (20161225.0304)
 -->
<!-- Title: src/manager_system/adaptation_engine/apps/engine.cpp Pages: 1 -->
<svg width="2603pt" height="274pt"
 viewBox="0.00 0.00 2602.50 274.00" xmlns="http://www.w3.org/2000/svg" xmlns:xlink="http://www.w3.org/1999/xlink">
<g id="graph0" class="graph" transform="scale(1 1) rotate(0) translate(4 270)">
<title>src/manager_system/adaptation_engine/apps/engine.cpp</title>
<polygon fill="#ffffff" stroke="transparent" points="-4,4 -4,-270 2598.5,-270 2598.5,4 -4,4"/>
<!-- Node1 -->
<g id="node1" class="node">
<title>Node1</title>
<g id="a_node1"><a xlink:title=" ">
<polygon fill="#bfbfbf" stroke="#000000" points="1029,-224.5 1029,-265.5 1151,-265.5 1151,-224.5 1029,-224.5"/>
<text text-anchor="start" x="1037" y="-253.5" font-family="Helvetica,sans-Serif" font-size="10.00" fill="#000000">src/manager_system</text>
<text text-anchor="start" x="1037" y="-242.5" font-family="Helvetica,sans-Serif" font-size="10.00" fill="#000000">/adaptation_engine/apps</text>
<text text-anchor="middle" x="1090" y="-231.5" font-family="Helvetica,sans-Serif" font-size="10.00" fill="#000000">/engine.cpp</text>
</a>
</g>
</g>
<!-- Node2 -->
<g id="node2" class="node">
<title>Node2</title>
<g id="a_node2"><a xlink:href="Engine_8hpp.html" target="_top" xlink:title=" ">
<polygon fill="#ffffff" stroke="#000000" points="1041.5,-168.5 1041.5,-187.5 1138.5,-187.5 1138.5,-168.5 1041.5,-168.5"/>
<text text-anchor="middle" x="1090" y="-175.5" font-family="Helvetica,sans-Serif" font-size="10.00" fill="#000000">engine/Engine.hpp</text>
</a>
</g>
</g>
<!-- Node1&#45;&gt;Node2 -->
<g id="edge1" class="edge">
<title>Node1&#45;&gt;Node2</title>
<path fill="none" stroke="#191970" d="M1090,-224.168C1090,-215.8226 1090,-206.2471 1090,-197.9879"/>
<polygon fill="#191970" stroke="#191970" points="1093.5001,-197.7804 1090,-187.7805 1086.5001,-197.7805 1093.5001,-197.7804"/>
</g>
<!-- Node3 -->
<g id="node3" class="node">
<title>Node3</title>
<g id="a_node3"><a xlink:title=" ">
<polygon fill="#ffffff" stroke="#bfbfbf" points="0,-112.5 0,-131.5 50,-131.5 50,-112.5 0,-112.5"/>
<text text-anchor="middle" x="25" y="-119.5" font-family="Helvetica,sans-Serif" font-size="10.00" fill="#000000">fstream</text>
</a>
</g>
</g>
<!-- Node2&#45;&gt;Node3 -->
<g id="edge2" class="edge">
<title>Node2&#45;&gt;Node3</title>
<path fill="none" stroke="#191970" d="M1041.3271,-177.3847C866.6869,-174.9388 271.2498,-164.484 60.1518,-131.7413"/>
<polygon fill="#191970" stroke="#191970" points="60.5236,-128.256 50.0931,-130.1146 59.406,-135.1662 60.5236,-128.256"/>
</g>
<!-- Node4 -->
<g id="node4" class="node">
<title>Node4</title>
<g id="a_node4"><a xlink:title=" ">
<polygon fill="#ffffff" stroke="#bfbfbf" points="68,-112.5 68,-131.5 120,-131.5 120,-112.5 68,-112.5"/>
<text text-anchor="middle" x="94" y="-119.5" font-family="Helvetica,sans-Serif" font-size="10.00" fill="#000000">sstream</text>
</a>
</g>
</g>
<!-- Node2&#45;&gt;Node4 -->
<g id="edge3" class="edge">
<title>Node2&#45;&gt;Node4</title>
<path fill="none" stroke="#191970" d="M1041.4529,-176.9282C872.6572,-173.0043 311.9452,-158.2624 134,-132 132.7253,-131.8119 131.4322,-131.6008 130.1294,-131.3708"/>
<polygon fill="#191970" stroke="#191970" points="130.6021,-127.8949 120.102,-129.3088 129.192,-134.7514 130.6021,-127.8949"/>
</g>
<!-- Node5 -->
<g id="node5" class="node">
<title>Node5</title>
<g id="a_node5"><a xlink:title=" ">
<polygon fill="#ffffff" stroke="#bfbfbf" points="337.5,-.5 337.5,-19.5 378.5,-19.5 378.5,-.5 337.5,-.5"/>
<text text-anchor="middle" x="358" y="-7.5" font-family="Helvetica,sans-Serif" font-size="10.00" fill="#000000">string</text>
</a>
</g>
</g>
<!-- Node2&#45;&gt;Node5 -->
<g id="edge4" class="edge">
<title>Node2&#45;&gt;Node5</title>
<path fill="none" stroke="#191970" d="M1041.2298,-177.4106C854.9649,-174.925 197.3604,-163.9112 167,-132 112.5515,-74.7703 260.9665,-32.272 327.5524,-16.596"/>
<polygon fill="#191970" stroke="#191970" points="328.5304,-19.9625 337.4928,-14.3122 326.963,-13.1403 328.5304,-19.9625"/>
</g>
<!-- Node6 -->
<g id="node6" class="node">
<title>Node6</title>
<g id="a_node6"><a xlink:title=" ">
<polygon fill="#ffffff" stroke="#bfbfbf" points="176.5,-112.5 176.5,-131.5 211.5,-131.5 211.5,-112.5 176.5,-112.5"/>
<text text-anchor="middle" x="194" y="-119.5" font-family="Helvetica,sans-Serif" font-size="10.00" fill="#000000">map</text>
</a>
</g>
</g>
<!-- Node2&#45;&gt;Node6 -->
<g id="edge5" class="edge">
<title>Node2&#45;&gt;Node6</title>
<path fill="none" stroke="#191970" d="M1041.4036,-177.3507C885.5628,-174.9732 398.7064,-165.1765 221.7384,-131.436"/>
<polygon fill="#191970" stroke="#191970" points="222.2797,-127.975 211.7872,-129.4438 220.9055,-134.8388 222.2797,-127.975"/>
</g>
<!-- Node7 -->
<g id="node7" class="node">
<title>Node7</title>
<g id="a_node7"><a xlink:title=" ">
<polygon fill="#ffffff" stroke="#bfbfbf" points="230,-112.5 230,-131.5 260,-131.5 260,-112.5 230,-112.5"/>
<text text-anchor="middle" x="245" y="-119.5" font-family="Helvetica,sans-Serif" font-size="10.00" fill="#000000">set</text>
</a>
</g>
</g>
<!-- Node2&#45;&gt;Node7 -->
<g id="edge6" class="edge">
<title>Node2&#45;&gt;Node7</title>
<path fill="none" stroke="#191970" d="M1041.3745,-177.4259C891.3859,-175.3246 436.5461,-166.3938 270.2957,-131.4761"/>
<polygon fill="#191970" stroke="#191970" points="270.7585,-127.9938 260.2382,-129.2485 269.2448,-134.8282 270.7585,-127.9938"/>
</g>
<!-- Node8 -->
<g id="node8" class="node">
<title>Node8</title>
<g id="a_node8"><a xlink:title=" ">
<polygon fill="#ffffff" stroke="#bfbfbf" points="278,-112.5 278,-131.5 334,-131.5 334,-112.5 278,-112.5"/>
<text text-anchor="middle" x="306" y="-119.5" font-family="Helvetica,sans-Serif" font-size="10.00" fill="#000000">algorithm</text>
</a>
</g>
</g>
<!-- Node2&#45;&gt;Node8 -->
<g id="edge7" class="edge">
<title>Node2&#45;&gt;Node8</title>
<path fill="none" stroke="#191970" d="M1041.4089,-176.2943C901.2404,-171.175 496.985,-154.96 344.2745,-131.8437"/>
<polygon fill="#191970" stroke="#191970" points="344.5773,-128.3481 334.1527,-130.2394 343.4815,-135.2618 344.5773,-128.3481"/>
</g>
<!-- Node9 -->
<g id="node9" class="node">
<title>Node9</title>
<g id="a_node9"><a xlink:title=" ">
<polygon fill="#ffffff" stroke="#bfbfbf" points="352,-112.5 352,-131.5 398,-131.5 398,-112.5 352,-112.5"/>
<text text-anchor="middle" x="375" y="-119.5" font-family="Helvetica,sans-Serif" font-size="10.00" fill="#000000">chrono</text>
</a>
</g>
</g>
<!-- Node2&#45;&gt;Node9 -->
<g id="edge8" class="edge">
<title>Node2&#45;&gt;Node9</title>
<path fill="none" stroke="#191970" d="M1041.2479,-176.2101C909.4504,-171.1394 547.2012,-155.6095 408.2621,-131.7697"/>
<polygon fill="#191970" stroke="#191970" points="408.7205,-128.2959 398.2579,-129.9643 407.4774,-135.1847 408.7205,-128.2959"/>
</g>
<!-- Node10 -->
<g id="node10" class="node">
<title>Node10</title>
<g id="a_node10"><a xlink:title=" ">
<polygon fill="#ffffff" stroke="#bfbfbf" points="648.5,-.5 648.5,-19.5 703.5,-19.5 703.5,-.5 648.5,-.5"/>
<text text-anchor="middle" x="676" y="-7.5" font-family="Helvetica,sans-Serif" font-size="10.00" fill="#000000">ros/ros.h</text>
</a>
</g>
</g>
<!-- Node2&#45;&gt;Node10 -->
<g id="edge9" class="edge">
<title>Node2&#45;&gt;Node10</title>
<path fill="none" stroke="#191970" d="M1138.6502,-177.2852C1379.8238,-173.6292 2436.5554,-156.245 2460,-132 2466.179,-125.61 2466.1034,-118.4623 2460,-112 2397.8545,-46.1999 966.1407,-15.5971 713.8112,-10.7062"/>
<polygon fill="#191970" stroke="#191970" points="713.7411,-7.2043 703.6756,-10.5113 713.6065,-14.203 713.7411,-7.2043"/>
</g>
<!-- Node11 -->
<g id="node11" class="node">
<title>Node11</title>
<g id="a_node11"><a xlink:title=" ">
<polygon fill="#ffffff" stroke="#bfbfbf" points="574,-112.5 574,-131.5 652,-131.5 652,-112.5 574,-112.5"/>
<text text-anchor="middle" x="613" y="-119.5" font-family="Helvetica,sans-Serif" font-size="10.00" fill="#000000">ros/package.h</text>
</a>
</g>
</g>
<!-- Node2&#45;&gt;Node11 -->
<g id="edge10" class="edge">
<title>Node2&#45;&gt;Node11</title>
<path fill="none" stroke="#191970" d="M1041.3447,-174.2737C963.5227,-167.9846 806.0785,-153.9131 662.1543,-131.8818"/>
<polygon fill="#191970" stroke="#191970" points="662.6735,-128.4205 652.256,-130.3505 661.6033,-135.3383 662.6735,-128.4205"/>
</g>
<!-- Node12 -->
<g id="node12" class="node">
<title>Node12</title>
<g id="a_node12"><a xlink:title=" ">
<polygon fill="#ffffff" stroke="#bfbfbf" points="670.5,-112.5 670.5,-131.5 795.5,-131.5 795.5,-112.5 670.5,-112.5"/>
<text text-anchor="middle" x="733" y="-119.5" font-family="Helvetica,sans-Serif" font-size="10.00" fill="#000000">bsn/goalmodel/Node.hpp</text>
</a>
</g>
</g>
<!-- Node2&#45;&gt;Node12 -->
<g id="edge11" class="edge">
<title>Node2&#45;&gt;Node12</title>
<path fill="none" stroke="#191970" d="M1041.4819,-170.3893C980.1551,-160.7694 874.1201,-144.1365 803.7634,-133.1001"/>
<polygon fill="#191970" stroke="#191970" points="804.073,-129.606 793.6514,-131.5139 802.9882,-136.5214 804.073,-129.606"/>
</g>
<!-- Node13 -->
<g id="node13" class="node">
<title>Node13</title>
<g id="a_node13"><a xlink:title=" ">
<polygon fill="#ffffff" stroke="#bfbfbf" points="814,-112.5 814,-131.5 936,-131.5 936,-112.5 814,-112.5"/>
<text text-anchor="middle" x="875" y="-119.5" font-family="Helvetica,sans-Serif" font-size="10.00" fill="#000000">bsn/goalmodel/Goal.hpp</text>
</a>
</g>
</g>
<!-- Node2&#45;&gt;Node13 -->
<g id="edge12" class="edge">
<title>Node2&#45;&gt;Node13</title>
<path fill="none" stroke="#191970" d="M1053.0402,-168.3733C1016.5925,-158.8799 960.7754,-144.3415 921.3711,-134.0781"/>
<polygon fill="#191970" stroke="#191970" points="922.0369,-130.6348 911.4775,-131.5011 920.2724,-137.4087 922.0369,-130.6348"/>
</g>
<!-- Node14 -->
<g id="node14" class="node">
<title>Node14</title>
<g id="a_node14"><a xlink:title=" ">
<polygon fill="#ffffff" stroke="#bfbfbf" points="954.5,-112.5 954.5,-131.5 1077.5,-131.5 1077.5,-112.5 954.5,-112.5"/>
<text text-anchor="middle" x="1016" y="-119.5" font-family="Helvetica,sans-Serif" font-size="10.00" fill="#000000">bsn/goalmodel/Task.hpp</text>
</a>
</g>
</g>
<!-- Node2&#45;&gt;Node14 -->
<g id="edge13" class="edge">
<title>Node2&#45;&gt;Node14</title>
<path fill="none" stroke="#191970" d="M1077.1102,-168.2455C1066.0746,-159.8943 1049.9708,-147.7076 1037.0647,-137.9408"/>
<polygon fill="#191970" stroke="#191970" points="1038.8283,-134.8862 1028.7421,-131.6427 1034.6041,-140.4681 1038.8283,-134.8862"/>
</g>
<!-- Node15 -->
<g id="node15" class="node">
<title>Node15</title>
<g id="a_node15"><a xlink:title=" ">
<polygon fill="#ffffff" stroke="#bfbfbf" points="1096,-112.5 1096,-131.5 1234,-131.5 1234,-112.5 1096,-112.5"/>
<text text-anchor="middle" x="1165" y="-119.5" font-family="Helvetica,sans-Serif" font-size="10.00" fill="#000000">bsn/goalmodel/Property.hpp</text>
</a>
</g>
</g>
<!-- Node2&#45;&gt;Node15 -->
<g id="edge14" class="edge">
<title>Node2&#45;&gt;Node15</title>
<path fill="none" stroke="#191970" d="M1103.064,-168.2455C1114.3562,-159.814 1130.8845,-147.4729 1144.0271,-137.6598"/>
<polygon fill="#191970" stroke="#191970" points="1146.1669,-140.4301 1152.0857,-131.6427 1141.9789,-134.8211 1146.1669,-140.4301"/>
</g>
<!-- Node16 -->
<g id="node16" class="node">
<title>Node16</title>
<g id="a_node16"><a xlink:title=" ">
<polygon fill="#ffffff" stroke="#bfbfbf" points="1252,-112.5 1252,-131.5 1394,-131.5 1394,-112.5 1252,-112.5"/>
<text text-anchor="middle" x="1323" y="-119.5" font-family="Helvetica,sans-Serif" font-size="10.00" fill="#000000">bsn/goalmodel/LeafTask.hpp</text>
</a>
</g>
</g>
<!-- Node2&#45;&gt;Node16 -->
<g id="edge15" class="edge">
<title>Node2&#45;&gt;Node16</title>
<path fill="none" stroke="#191970" d="M1129.7894,-168.4369C1169.498,-158.8932 1230.6104,-144.2052 1273.4455,-133.9101"/>
<polygon fill="#191970" stroke="#191970" points="1274.4695,-137.2637 1283.3747,-131.5237 1272.8337,-130.4575 1274.4695,-137.2637"/>
</g>
<!-- Node17 -->
<g id="node17" class="node">
<title>Node17</title>
<g id="a_node17"><a xlink:title=" ">
<polygon fill="#ffffff" stroke="#bfbfbf" points="1412,-112.5 1412,-131.5 1548,-131.5 1548,-112.5 1412,-112.5"/>
<text text-anchor="middle" x="1480" y="-119.5" font-family="Helvetica,sans-Serif" font-size="10.00" fill="#000000">bsn/goalmodel/Context.hpp</text>
</a>
</g>
</g>
<!-- Node2&#45;&gt;Node17 -->
<g id="edge16" class="edge">
<title>Node2&#45;&gt;Node17</title>
<path fill="none" stroke="#191970" d="M1138.6052,-171.0208C1205.0474,-161.4804 1324.926,-144.267 1403.4844,-132.9869"/>
<polygon fill="#191970" stroke="#191970" points="1404.4063,-136.3905 1413.8073,-131.5046 1403.4113,-129.4615 1404.4063,-136.3905"/>
</g>
<!-- Node18 -->
<g id="node18" class="node">
<title>Node18</title>
<g id="a_node18"><a xlink:title=" ">
<polygon fill="#ffffff" stroke="#bfbfbf" points="1566.5,-112.5 1566.5,-131.5 1707.5,-131.5 1707.5,-112.5 1566.5,-112.5"/>
<text text-anchor="middle" x="1637" y="-119.5" font-family="Helvetica,sans-Serif" font-size="10.00" fill="#000000">bsn/goalmodel/GoalTree.hpp</text>
</a>
</g>
</g>
<!-- Node2&#45;&gt;Node18 -->
<g id="edge17" class="edge">
<title>Node2&#45;&gt;Node18</title>
<path fill="none" stroke="#191970" d="M1138.7868,-173.6181C1222.0565,-166.0464 1397.2088,-149.7173 1556.3667,-132.0458"/>
<polygon fill="#191970" stroke="#191970" points="1556.7909,-135.5202 1566.3416,-130.9341 1556.0155,-128.5633 1556.7909,-135.5202"/>
</g>
<!-- Node19 -->
<g id="node19" class="node">
<title>Node19</title>
<g id="a_node19"><a xlink:title=" ">
<polygon fill="#ffffff" stroke="#bfbfbf" points="1725.5,-112.5 1725.5,-131.5 1844.5,-131.5 1844.5,-112.5 1725.5,-112.5"/>
<text text-anchor="middle" x="1785" y="-119.5" font-family="Helvetica,sans-Serif" font-size="10.00" fill="#000000">bsn/model/Formula.hpp</text>
</a>
</g>
</g>
<!-- Node2&#45;&gt;Node19 -->
<g id="edge18" class="edge">
<title>Node2&#45;&gt;Node19</title>
<path fill="none" stroke="#191970" d="M1138.8898,-175.6272C1242.9879,-170.3125 1494.4231,-156.0828 1715.1717,-132.1371"/>
<polygon fill="#191970" stroke="#191970" points="1715.7675,-135.5929 1725.3276,-131.0262 1715.0062,-128.6344 1715.7675,-135.5929"/>
</g>
<!-- Node20 -->
<g id="node20" class="node">
<title>Node20</title>
<g id="a_node20"><a xlink:title=" ">
<polygon fill="#ffffff" stroke="#bfbfbf" points="1862.5,-112.5 1862.5,-131.5 1955.5,-131.5 1955.5,-112.5 1862.5,-112.5"/>
<text text-anchor="middle" x="1909" y="-119.5" font-family="Helvetica,sans-Serif" font-size="10.00" fill="#000000">bsn/utils/utils.hpp</text>
</a>
</g>
</g>
<!-- Node2&#45;&gt;Node20 -->
<g id="edge19" class="edge">
<title>Node2&#45;&gt;Node20</title>
<path fill="none" stroke="#191970" d="M1138.8954,-177.0838C1258.836,-174.4018 1577.3042,-164.6518 1852.0834,-132.1101"/>
<polygon fill="#191970" stroke="#191970" points="1852.7369,-135.557 1862.25,-130.8932 1851.9049,-128.6066 1852.7369,-135.557"/>
</g>
<!-- Node21 -->
<g id="node21" class="node">
<title>Node21</title>
<g id="a_node21"><a xlink:title=" ">
<polygon fill="#ffffff" stroke="#bfbfbf" points="1973.5,-112.5 1973.5,-131.5 2056.5,-131.5 2056.5,-112.5 1973.5,-112.5"/>
<text text-anchor="middle" x="2015" y="-119.5" font-family="Helvetica,sans-Serif" font-size="10.00" fill="#000000">lepton/Lepton.h</text>
</a>
</g>
</g>
<!-- Node2&#45;&gt;Node21 -->
<g id="edge20" class="edge">
<title>Node2&#45;&gt;Node21</title>
<path fill="none" stroke="#191970" d="M1138.7663,-176.3685C1295.1773,-170.9918 1784.0192,-153.0358 1963.2488,-132.0297"/>
<polygon fill="#191970" stroke="#191970" points="1963.828,-135.4851 1973.332,-130.803 1962.9825,-128.5364 1963.828,-135.4851"/>
</g>
<!-- Node22 -->
<g id="node22" class="node">
<title>Node22</title>
<g id="a_node22"><a xlink:title=" ">
<polygon fill="#ffffff" stroke="#bfbfbf" points="2074.5,-112.5 2074.5,-131.5 2221.5,-131.5 2221.5,-112.5 2074.5,-112.5"/>
<text text-anchor="middle" x="2148" y="-119.5" font-family="Helvetica,sans-Serif" font-size="10.00" fill="#000000">archlib/DataAccessRequest.h</text>
</a>
</g>
</g>
<!-- Node2&#45;&gt;Node22 -->
<g id="edge21" class="edge">
<title>Node2&#45;&gt;Node22</title>
<path fill="none" stroke="#191970" d="M1138.5755,-176.9866C1279.8376,-173.7677 1702.8756,-162.2027 2064.1372,-132.104"/>
<polygon fill="#191970" stroke="#191970" points="2064.5973,-135.5777 2074.2695,-131.2535 2064.0118,-128.6023 2064.5973,-135.5777"/>
</g>
<!-- Node23 -->
<g id="node23" class="node">
<title>Node23</title>
<g id="a_node23"><a xlink:title=" ">
<polygon fill="#ffffff" stroke="#bfbfbf" points="2239.5,-112.5 2239.5,-131.5 2332.5,-131.5 2332.5,-112.5 2239.5,-112.5"/>
<text text-anchor="middle" x="2286" y="-119.5" font-family="Helvetica,sans-Serif" font-size="10.00" fill="#000000">archlib/Strategy.h</text>
</a>
</g>
</g>
<!-- Node2&#45;&gt;Node23 -->
<g id="edge22" class="edge">
<title>Node2&#45;&gt;Node23</title>
<path fill="none" stroke="#191970" d="M1138.8082,-176.9408C1325.3864,-172.753 1994.3695,-156.4304 2229.0805,-132.0496"/>
<polygon fill="#191970" stroke="#191970" points="2229.6882,-135.5046 2239.2573,-130.9569 2228.9408,-128.5446 2229.6882,-135.5046"/>
</g>
<!-- Node24 -->
<g id="node24" class="node">
<title>Node24</title>
<g id="a_node24"><a xlink:title=" ">
<polygon fill="#ffffff" stroke="#bfbfbf" points="2351,-112.5 2351,-131.5 2451,-131.5 2451,-112.5 2351,-112.5"/>
<text text-anchor="middle" x="2401" y="-119.5" font-family="Helvetica,sans-Serif" font-size="10.00" fill="#000000">archlib/Exception.h</text>
</a>
</g>
</g>
<!-- Node2&#45;&gt;Node24 -->
<g id="edge23" class="edge">
<title>Node2&#45;&gt;Node24</title>
<path fill="none" stroke="#191970" d="M1138.6906,-177.0661C1336.622,-173.1392 2082.215,-157.0485 2340.7505,-131.9702"/>
<polygon fill="#191970" stroke="#191970" points="2341.2471,-135.4381 2350.8491,-130.9603 2340.5504,-128.4729 2341.2471,-135.4381"/>
</g>
<!-- Node25 -->
<g id="node25" class="node">
<title>Node25</title>
<g id="a_node25"><a xlink:href="ROSComponent_8hpp.html" target="_top" xlink:title=" ">
<polygon fill="#ffffff" stroke="#000000" points="416.5,-112.5 416.5,-131.5 555.5,-131.5 555.5,-112.5 416.5,-112.5"/>
<text text-anchor="middle" x="486" y="-119.5" font-family="Helvetica,sans-Serif" font-size="10.00" fill="#000000">archlib/ROSComponent.hpp</text>
</a>
</g>
</g>
<!-- Node2&#45;&gt;Node25 -->
<g id="edge24" class="edge">
<title>Node2&#45;&gt;Node25</title>
<path fill="none" stroke="#191970" d="M1041.4446,-174.3741C950.4071,-167.4389 747.6268,-151.3445 565.7848,-132.0479"/>
<polygon fill="#191970" stroke="#191970" points="566.0847,-128.5601 555.7698,-130.9796 565.3421,-135.5207 566.0847,-128.5601"/>
</g>
<!-- Node28 -->
<g id="node28" class="node">
<title>Node28</title>
<g id="a_node28"><a xlink:title=" ">
<polygon fill="#ffffff" stroke="#bfbfbf" points="2507.5,-112.5 2507.5,-131.5 2594.5,-131.5 2594.5,-112.5 2507.5,-112.5"/>
<text text-anchor="middle" x="2551" y="-119.5" font-family="Helvetica,sans-Serif" font-size="10.00" fill="#000000">archlib/Persist.h</text>
</a>
</g>
</g>
<!-- Node2&#45;&gt;Node28 -->
<g id="edge31" class="edge">
<title>Node2&#45;&gt;Node28</title>
<path fill="none" stroke="#191970" d="M1138.6339,-177.3071C1353.8561,-174.102 2221.9143,-159.68 2493,-132 2494.4612,-131.8508 2495.9413,-131.6868 2497.4333,-131.5102"/>
<polygon fill="#191970" stroke="#191970" points="2497.9348,-134.9744 2507.3846,-130.1836 2497.0098,-128.0358 2497.9348,-134.9744"/>
</g>
<!-- Node25&#45;&gt;Node5 -->
<g id="edge25" class="edge">
<title>Node25&#45;&gt;Node5</title>
<path fill="none" stroke="#191970" d="M440.2497,-112.4546C418.3337,-105.694 393.3609,-94.4344 377,-76 365.7585,-63.3337 361.1423,-44.4065 359.2601,-30.0644"/>
<polygon fill="#191970" stroke="#191970" points="362.7093,-29.3691 358.2625,-19.7526 355.7418,-30.0432 362.7093,-29.3691"/>
</g>
<!-- Node25&#45;&gt;Node10 -->
<g id="edge27" class="edge">
<title>Node25&#45;&gt;Node10</title>
<path fill="none" stroke="#191970" d="M545.1585,-112.4492C587.9898,-104.392 641.0473,-91.6757 657,-76 669.3347,-63.8795 673.7916,-44.3092 675.3378,-29.6203"/>
<polygon fill="#191970" stroke="#191970" points="678.8364,-29.7612 676.0352,-19.5434 671.8531,-29.2779 678.8364,-29.7612"/>
</g>
<!-- Node26 -->
<g id="node26" class="node">
<title>Node26</title>
<g id="a_node26"><a xlink:title=" ">
<polygon fill="#ffffff" stroke="#bfbfbf" points="386.5,-56.5 386.5,-75.5 445.5,-75.5 445.5,-56.5 386.5,-56.5"/>
<text text-anchor="middle" x="416" y="-63.5" font-family="Helvetica,sans-Serif" font-size="10.00" fill="#000000">stdexcept</text>
</a>
</g>
</g>
<!-- Node25&#45;&gt;Node26 -->
<g id="edge26" class="edge">
<title>Node25&#45;&gt;Node26</title>
<path fill="none" stroke="#191970" d="M473.8069,-112.2455C463.3679,-103.8943 448.1345,-91.7076 435.926,-81.9408"/>
<polygon fill="#191970" stroke="#191970" points="438.0485,-79.1566 428.0533,-75.6427 433.6756,-84.6227 438.0485,-79.1566"/>
</g>
<!-- Node27 -->
<g id="node27" class="node">
<title>Node27</title>
<g id="a_node27"><a xlink:href="ROSComponentDescriptor_8hpp.html" target="_top" xlink:title=" ">
<polygon fill="#ffffff" stroke="#000000" points="464,-56.5 464,-75.5 648,-75.5 648,-56.5 464,-56.5"/>
<text text-anchor="middle" x="556" y="-63.5" font-family="Helvetica,sans-Serif" font-size="10.00" fill="#000000">archlib/ROSComponentDescriptor.hpp</text>
</a>
</g>
</g>
<!-- Node25&#45;&gt;Node27 -->
<g id="edge28" class="edge">
<title>Node25&#45;&gt;Node27</title>
<path fill="none" stroke="#191970" d="M498.1931,-112.2455C508.6321,-103.8943 523.8655,-91.7076 536.074,-81.9408"/>
<polygon fill="#191970" stroke="#191970" points="538.3244,-84.6227 543.9467,-75.6427 533.9515,-79.1566 538.3244,-84.6227"/>
</g>
<!-- Node27&#45;&gt;Node5 -->
<g id="edge29" class="edge">
<title>Node27&#45;&gt;Node5</title>
<path fill="none" stroke="#191970" d="M521.9626,-56.3733C484.4258,-45.7568 424.581,-28.831 388.5145,-18.6304"/>
<polygon fill="#191970" stroke="#191970" points="389.1484,-15.1724 378.5733,-15.8187 387.2433,-21.9082 389.1484,-15.1724"/>
</g>
<!-- Node27&#45;&gt;Node10 -->
<g id="edge30" class="edge">
<title>Node27&#45;&gt;Node10</title>
<path fill="none" stroke="#191970" d="M576.6287,-56.3733C595.8919,-47.3838 624.8486,-33.8706 646.5419,-23.7471"/>
<polygon fill="#191970" stroke="#191970" points="648.0587,-26.9017 655.6405,-19.5011 645.0985,-20.5584 648.0587,-26.9017"/>
</g>
</g>
</svg>
