<?xml version="1.0" encoding="UTF-8" standalone="no"?>
<!DOCTYPE svg PUBLIC "-//W3C//DTD SVG 1.1//EN"
 "http://www.w3.org/Graphics/SVG/1.1/DTD/svg11.dtd">
<!-- Generated by graphviz version 2.40.1 (20161225.0304)
 -->
<!-- Title: lepton/include/Exception.h Pages: 1 -->
<svg width="1097pt" height="151pt"
 viewBox="0.00 0.00 1096.50 151.00" xmlns="http://www.w3.org/2000/svg" xmlns:xlink="http://www.w3.org/1999/xlink">
<g id="graph0" class="graph" transform="scale(1 1) rotate(0) translate(4 147)">
<title>lepton/include/Exception.h</title>
<polygon fill="#ffffff" stroke="transparent" points="-4,4 -4,-147 1092.5,-147 1092.5,4 -4,4"/>
<!-- Node1 -->
<g id="node1" class="node">
<title>Node1</title>
<g id="a_node1"><a xlink:title=" ">
<polygon fill="#bfbfbf" stroke="#000000" points="829,-123.5 829,-142.5 960,-142.5 960,-123.5 829,-123.5"/>
<text text-anchor="middle" x="894.5" y="-130.5" font-family="Helvetica,sans-Serif" font-size="10.00" fill="#000000">lepton/include/Exception.h</text>
</a>
</g>
</g>
<!-- Node2 -->
<g id="node2" class="node">
<title>Node2</title>
<g id="a_node2"><a xlink:href="Operation_8h.html" target="_top" xlink:title=" ">
<polygon fill="#ffffff" stroke="#000000" points="609.5,-67.5 609.5,-86.5 739.5,-86.5 739.5,-67.5 609.5,-67.5"/>
<text text-anchor="middle" x="674.5" y="-74.5" font-family="Helvetica,sans-Serif" font-size="10.00" fill="#000000">lepton/include/Operation.h</text>
</a>
</g>
</g>
<!-- Node1&#45;&gt;Node2 -->
<g id="edge1" class="edge">
<title>Node1&#45;&gt;Node2</title>
<path fill="none" stroke="#191970" d="M846.7722,-120.8511C806.2888,-110.5462 749.024,-95.9697 711.8258,-86.5011"/>
<polygon fill="#191970" stroke="#191970" points="846.1263,-124.2982 856.6807,-123.3733 847.8531,-117.5145 846.1263,-124.2982"/>
</g>
<!-- Node6 -->
<g id="node6" class="node">
<title>Node6</title>
<g id="a_node6"><a xlink:href="ExpressionTreeNode_8cpp.html" target="_top" xlink:title=" ">
<polygon fill="#ffffff" stroke="#000000" points="829,-.5 829,-30.5 960,-30.5 960,-.5 829,-.5"/>
<text text-anchor="start" x="837" y="-18.5" font-family="Helvetica,sans-Serif" font-size="10.00" fill="#000000">lepton/src/ExpressionTree</text>
<text text-anchor="middle" x="894.5" y="-7.5" font-family="Helvetica,sans-Serif" font-size="10.00" fill="#000000">Node.cpp</text>
</a>
</g>
</g>
<!-- Node1&#45;&gt;Node6 -->
<g id="edge9" class="edge">
<title>Node1&#45;&gt;Node6</title>
<path fill="none" stroke="#191970" d="M894.5,-113.3022C894.5,-90.0339 894.5,-51.8278 894.5,-30.7143"/>
<polygon fill="#191970" stroke="#191970" points="891.0001,-113.3844 894.5,-123.3845 898.0001,-113.3845 891.0001,-113.3844"/>
</g>
<!-- Node9 -->
<g id="node9" class="node">
<title>Node9</title>
<g id="a_node9"><a xlink:href="Parser_8cpp.html" target="_top" xlink:title=" ">
<polygon fill="#ffffff" stroke="#000000" points="978.5,-6 978.5,-25 1088.5,-25 1088.5,-6 978.5,-6"/>
<text text-anchor="middle" x="1033.5" y="-13" font-family="Helvetica,sans-Serif" font-size="10.00" fill="#000000">lepton/src/Parser.cpp</text>
</a>
</g>
</g>
<!-- Node1&#45;&gt;Node9 -->
<g id="edge10" class="edge">
<title>Node1&#45;&gt;Node9</title>
<path fill="none" stroke="#191970" d="M913.7597,-116.7193C943.1027,-91.915 998.1072,-45.4184 1021.9679,-25.2484"/>
<polygon fill="#191970" stroke="#191970" points="911.2524,-114.2558 905.875,-123.3845 915.7715,-119.6017 911.2524,-114.2558"/>
</g>
<!-- Node3 -->
<g id="node3" class="node">
<title>Node3</title>
<g id="a_node3"><a xlink:href="Lepton_8h.html" target="_top" xlink:title=" ">
<polygon fill="#ffffff" stroke="#000000" points="694,-6 694,-25 811,-25 811,-6 694,-6"/>
<text text-anchor="middle" x="752.5" y="-13" font-family="Helvetica,sans-Serif" font-size="10.00" fill="#000000">lepton/include/Lepton.h</text>
</a>
</g>
</g>
<!-- Node2&#45;&gt;Node3 -->
<g id="edge2" class="edge">
<title>Node2&#45;&gt;Node3</title>
<path fill="none" stroke="#191970" d="M694.6036,-61.1491C709.0965,-49.722 728.1806,-34.6749 740.3981,-25.0419"/>
<polygon fill="#191970" stroke="#191970" points="692.3732,-58.4506 686.6875,-67.3906 696.7073,-63.9475 692.3732,-58.4506"/>
</g>
<!-- Node4 -->
<g id="node4" class="node">
<title>Node4</title>
<g id="a_node4"><a xlink:href="CompiledExpression_8cpp.html" target="_top" xlink:title=" ">
<polygon fill="#ffffff" stroke="#000000" points="0,-6 0,-25 171,-25 171,-6 0,-6"/>
<text text-anchor="middle" x="85.5" y="-13" font-family="Helvetica,sans-Serif" font-size="10.00" fill="#000000">lepton/src/CompiledExpression.cpp</text>
</a>
</g>
</g>
<!-- Node2&#45;&gt;Node4 -->
<g id="edge3" class="edge">
<title>Node2&#45;&gt;Node4</title>
<path fill="none" stroke="#191970" d="M599.4553,-71.6877C502.3177,-64.4308 327.9024,-50.1064 179.5,-31 166.3765,-29.3104 152.2755,-27.1631 139.0895,-25.0092"/>
<polygon fill="#191970" stroke="#191970" points="599.2415,-75.1814 609.4732,-72.4315 599.7599,-68.2006 599.2415,-75.1814"/>
</g>
<!-- Node5 -->
<g id="node5" class="node">
<title>Node5</title>
<g id="a_node5"><a xlink:href="ExpressionProgram_8cpp.html" target="_top" xlink:title=" ">
<polygon fill="#ffffff" stroke="#000000" points="189,-6 189,-25 356,-25 356,-6 189,-6"/>
<text text-anchor="middle" x="272.5" y="-13" font-family="Helvetica,sans-Serif" font-size="10.00" fill="#000000">lepton/src/ExpressionProgram.cpp</text>
</a>
</g>
</g>
<!-- Node2&#45;&gt;Node5 -->
<g id="edge4" class="edge">
<title>Node2&#45;&gt;Node5</title>
<path fill="none" stroke="#191970" d="M599.213,-66.2495C536.3973,-57.1788 444.5477,-43.6809 364.5,-31 352.6616,-29.1246 339.98,-27.0383 327.9319,-25.0197"/>
<polygon fill="#191970" stroke="#191970" points="599.0297,-69.7592 609.4269,-67.7223 600.0288,-62.8309 599.0297,-69.7592"/>
</g>
<!-- Node2&#45;&gt;Node6 -->
<g id="edge5" class="edge">
<title>Node2&#45;&gt;Node6</title>
<path fill="none" stroke="#191970" d="M718.8486,-64.6025C754.0047,-54.7748 803.2695,-41.0031 840.6819,-30.5446"/>
<polygon fill="#191970" stroke="#191970" points="717.5635,-61.3275 708.875,-67.3906 719.4481,-68.0691 717.5635,-61.3275"/>
</g>
<!-- Node7 -->
<g id="node7" class="node">
<title>Node7</title>
<g id="a_node7"><a xlink:href="Operation_8cpp.html" target="_top" xlink:title=" ">
<polygon fill="#ffffff" stroke="#000000" points="374,-6 374,-25 497,-25 497,-6 374,-6"/>
<text text-anchor="middle" x="435.5" y="-13" font-family="Helvetica,sans-Serif" font-size="10.00" fill="#000000">lepton/src/Operation.cpp</text>
</a>
</g>
</g>
<!-- Node2&#45;&gt;Node7 -->
<g id="edge6" class="edge">
<title>Node2&#45;&gt;Node7</title>
<path fill="none" stroke="#191970" d="M627.533,-64.9144C582.1755,-53.2428 514.3931,-35.8009 472.6685,-25.0643"/>
<polygon fill="#191970" stroke="#191970" points="626.8617,-68.3556 637.4185,-67.4581 628.6062,-61.5764 626.8617,-68.3556"/>
</g>
<!-- Node8 -->
<g id="node8" class="node">
<title>Node8</title>
<g id="a_node8"><a xlink:href="ParsedExpression_8cpp.html" target="_top" xlink:title=" ">
<polygon fill="#ffffff" stroke="#000000" points="515,-6 515,-25 676,-25 676,-6 515,-6"/>
<text text-anchor="middle" x="595.5" y="-13" font-family="Helvetica,sans-Serif" font-size="10.00" fill="#000000">lepton/src/ParsedExpression.cpp</text>
</a>
</g>
</g>
<!-- Node2&#45;&gt;Node8 -->
<g id="edge7" class="edge">
<title>Node2&#45;&gt;Node8</title>
<path fill="none" stroke="#191970" d="M654.1387,-61.1491C639.46,-49.722 620.1312,-34.6749 607.7571,-25.0419"/>
<polygon fill="#191970" stroke="#191970" points="652.1154,-64.0095 662.1563,-67.3906 656.4154,-58.4859 652.1154,-64.0095"/>
</g>
<!-- Node2&#45;&gt;Node9 -->
<g id="edge8" class="edge">
<title>Node2&#45;&gt;Node9</title>
<path fill="none" stroke="#191970" d="M749.6257,-67.0383C809.4244,-58.6875 895.1273,-45.7782 969.5,-31 978.2462,-29.2621 987.6041,-27.1443 996.389,-25.0394"/>
<polygon fill="#191970" stroke="#191970" points="748.9387,-63.6 739.5147,-68.4413 749.9009,-70.5336 748.9387,-63.6"/>
</g>
</g>
</svg>
