<?xml version="1.0" encoding="UTF-8" standalone="no"?>
<!DOCTYPE svg PUBLIC "-//W3C//DTD SVG 1.1//EN"
 "http://www.w3.org/Graphics/SVG/1.1/DTD/svg11.dtd">
<!-- Generated by graphviz version 2.40.1 (20161225.0304)
 -->
<!-- Title: lepton/src/ExpressionProgram.cpp Pages: 1 -->
<svg width="861pt" height="196pt"
 viewBox="0.00 0.00 860.64 196.00" xmlns="http://www.w3.org/2000/svg" xmlns:xlink="http://www.w3.org/1999/xlink">
<g id="graph0" class="graph" transform="scale(1 1) rotate(0) translate(4 192)">
<title>lepton/src/ExpressionProgram.cpp</title>
<polygon fill="#ffffff" stroke="transparent" points="-4,4 -4,-192 856.6419,-192 856.6419,4 -4,4"/>
<!-- Node1 -->
<g id="node1" class="node">
<title>Node1</title>
<g id="a_node1"><a xlink:title=" ">
<polygon fill="#bfbfbf" stroke="#000000" points="180.1419,-168.5 180.1419,-187.5 347.1419,-187.5 347.1419,-168.5 180.1419,-168.5"/>
<text text-anchor="middle" x="263.6419" y="-175.5" font-family="Helvetica,sans-Serif" font-size="10.00" fill="#000000">lepton/src/ExpressionProgram.cpp</text>
</a>
</g>
</g>
<!-- Node2 -->
<g id="node2" class="node">
<title>Node2</title>
<g id="a_node2"><a xlink:href="ExpressionProgram_8h.html" target="_top" xlink:title=" ">
<polygon fill="#ffffff" stroke="#000000" points="61.6419,-112.5 61.6419,-131.5 171.6419,-131.5 171.6419,-112.5 61.6419,-112.5"/>
<text text-anchor="middle" x="116.6419" y="-119.5" font-family="Helvetica,sans-Serif" font-size="10.00" fill="#000000">ExpressionProgram.h</text>
</a>
</g>
</g>
<!-- Node1&#45;&gt;Node2 -->
<g id="edge1" class="edge">
<title>Node1&#45;&gt;Node2</title>
<path fill="none" stroke="#191970" d="M238.3717,-168.3733C214.2453,-159.1822 177.7057,-145.2624 150.9542,-135.0713"/>
<polygon fill="#191970" stroke="#191970" points="152.1732,-131.7904 141.5824,-131.5011 149.6812,-138.3318 152.1732,-131.7904"/>
</g>
<!-- Node8 -->
<g id="node8" class="node">
<title>Node8</title>
<g id="a_node8"><a xlink:href="Operation_8h.html" target="_top" xlink:title=" ">
<polygon fill="#ffffff" stroke="#000000" points="459.1419,-112.5 459.1419,-131.5 526.1419,-131.5 526.1419,-112.5 459.1419,-112.5"/>
<text text-anchor="middle" x="492.6419" y="-119.5" font-family="Helvetica,sans-Serif" font-size="10.00" fill="#000000">Operation.h</text>
</a>
</g>
</g>
<!-- Node1&#45;&gt;Node8 -->
<g id="edge10" class="edge">
<title>Node1&#45;&gt;Node8</title>
<path fill="none" stroke="#191970" d="M302.7482,-168.4369C343.4308,-158.4883 406.9725,-142.9497 449.1963,-132.6243"/>
<polygon fill="#191970" stroke="#191970" points="450.0352,-136.0223 458.9176,-130.247 448.3724,-129.2227 450.0352,-136.0223"/>
</g>
<!-- Node15 -->
<g id="node15" class="node">
<title>Node15</title>
<g id="a_node15"><a xlink:href="ParsedExpression_8h.html" target="_top" xlink:title=" ">
<polygon fill="#ffffff" stroke="#000000" points="211.6419,-112.5 211.6419,-131.5 315.6419,-131.5 315.6419,-112.5 211.6419,-112.5"/>
<text text-anchor="middle" x="263.6419" y="-119.5" font-family="Helvetica,sans-Serif" font-size="10.00" fill="#000000">ParsedExpression.h</text>
</a>
</g>
</g>
<!-- Node1&#45;&gt;Node15 -->
<g id="edge23" class="edge">
<title>Node1&#45;&gt;Node15</title>
<path fill="none" stroke="#191970" d="M263.6419,-168.2455C263.6419,-160.9382 263.6419,-150.6944 263.6419,-141.7046"/>
<polygon fill="#191970" stroke="#191970" points="267.142,-141.6426 263.6419,-131.6427 260.142,-141.6427 267.142,-141.6426"/>
</g>
<!-- Node3 -->
<g id="node3" class="node">
<title>Node3</title>
<g id="a_node3"><a xlink:href="ExpressionTreeNode_8h.html" target="_top" xlink:title=" ">
<polygon fill="#ffffff" stroke="#000000" points="46.6419,-56.5 46.6419,-75.5 162.6419,-75.5 162.6419,-56.5 46.6419,-56.5"/>
<text text-anchor="middle" x="104.6419" y="-63.5" font-family="Helvetica,sans-Serif" font-size="10.00" fill="#000000">ExpressionTreeNode.h</text>
</a>
</g>
</g>
<!-- Node2&#45;&gt;Node3 -->
<g id="edge2" class="edge">
<title>Node2&#45;&gt;Node3</title>
<path fill="none" stroke="#191970" d="M114.5517,-112.2455C112.9858,-104.9382 110.7907,-94.6944 108.8643,-85.7046"/>
<polygon fill="#191970" stroke="#191970" points="112.2259,-84.6873 106.7082,-75.6427 105.3813,-86.1541 112.2259,-84.6873"/>
</g>
<!-- Node4 -->
<g id="node4" class="node">
<title>Node4</title>
<g id="a_node4"><a xlink:href="windowsIncludes_8h.html" target="_top" xlink:title=" ">
<polygon fill="#ffffff" stroke="#000000" points="142.6419,-.5 142.6419,-19.5 242.6419,-19.5 242.6419,-.5 142.6419,-.5"/>
<text text-anchor="middle" x="192.6419" y="-7.5" font-family="Helvetica,sans-Serif" font-size="10.00" fill="#000000">windowsIncludes.h</text>
</a>
</g>
</g>
<!-- Node2&#45;&gt;Node4 -->
<g id="edge6" class="edge">
<title>Node2&#45;&gt;Node4</title>
<path fill="none" stroke="#191970" d="M88.6887,-112.495C59.318,-100.9665 19.6836,-80.062 37.6419,-56 49.3163,-40.3576 94.0503,-28.1351 132.4792,-20.2332"/>
<polygon fill="#191970" stroke="#191970" points="133.4776,-23.6032 142.6023,-18.219 132.1115,-16.7378 133.4776,-23.6032"/>
</g>
<!-- Node5 -->
<g id="node5" class="node">
<title>Node5</title>
<g id="a_node5"><a xlink:title=" ">
<polygon fill="#ffffff" stroke="#bfbfbf" points="492.1419,-.5 492.1419,-19.5 533.1419,-19.5 533.1419,-.5 492.1419,-.5"/>
<text text-anchor="middle" x="512.6419" y="-7.5" font-family="Helvetica,sans-Serif" font-size="10.00" fill="#000000">string</text>
</a>
</g>
</g>
<!-- Node2&#45;&gt;Node5 -->
<g id="edge8" class="edge">
<title>Node2&#45;&gt;Node5</title>
<path fill="none" stroke="#191970" d="M132.2513,-112.2996C156.3184,-97.7897 204.3497,-70.5836 248.6419,-56 330.3631,-29.0926 431.7818,-17.0555 481.7942,-12.446"/>
<polygon fill="#191970" stroke="#191970" points="482.2921,-15.9157 491.9449,-11.5483 481.6754,-8.9429 482.2921,-15.9157"/>
</g>
<!-- Node6 -->
<g id="node6" class="node">
<title>Node6</title>
<g id="a_node6"><a xlink:title=" ">
<polygon fill="#ffffff" stroke="#bfbfbf" points="80.6419,-.5 80.6419,-19.5 124.6419,-19.5 124.6419,-.5 80.6419,-.5"/>
<text text-anchor="middle" x="102.6419" y="-7.5" font-family="Helvetica,sans-Serif" font-size="10.00" fill="#000000">vector</text>
</a>
</g>
</g>
<!-- Node2&#45;&gt;Node6 -->
<g id="edge9" class="edge">
<title>Node2&#45;&gt;Node6</title>
<path fill="none" stroke="#191970" d="M61.4703,-112.9216C40.0061,-106.4005 17.5169,-95.2065 4.6419,-76 -14.7977,-47.0006 34.9285,-27.3883 70.4445,-17.4993"/>
<polygon fill="#191970" stroke="#191970" points="71.6902,-20.7905 80.4666,-14.8554 69.9046,-14.0221 71.6902,-20.7905"/>
</g>
<!-- Node7 -->
<g id="node7" class="node">
<title>Node7</title>
<g id="a_node7"><a xlink:title=" ">
<polygon fill="#ffffff" stroke="#bfbfbf" points="257.1419,-56.5 257.1419,-75.5 292.1419,-75.5 292.1419,-56.5 257.1419,-56.5"/>
<text text-anchor="middle" x="274.6419" y="-63.5" font-family="Helvetica,sans-Serif" font-size="10.00" fill="#000000">map</text>
</a>
</g>
</g>
<!-- Node2&#45;&gt;Node7 -->
<g id="edge7" class="edge">
<title>Node2&#45;&gt;Node7</title>
<path fill="none" stroke="#191970" d="M143.8031,-112.3733C172.8478,-102.0789 218.6301,-85.8523 247.6208,-75.5771"/>
<polygon fill="#191970" stroke="#191970" points="248.8637,-78.85 257.12,-72.2103 246.5252,-72.2521 248.8637,-78.85"/>
</g>
<!-- Node3&#45;&gt;Node4 -->
<g id="edge3" class="edge">
<title>Node3&#45;&gt;Node4</title>
<path fill="none" stroke="#191970" d="M119.9703,-56.2455C133.4722,-47.6534 153.3541,-35.0014 168.9105,-25.1018"/>
<polygon fill="#191970" stroke="#191970" points="170.9316,-27.9643 177.4891,-19.6427 167.1734,-22.0587 170.9316,-27.9643"/>
</g>
<!-- Node3&#45;&gt;Node5 -->
<g id="edge4" class="edge">
<title>Node3&#45;&gt;Node5</title>
<path fill="none" stroke="#191970" d="M162.6651,-58.036C250.3741,-45.9975 413.6856,-23.5822 481.6845,-14.2491"/>
<polygon fill="#191970" stroke="#191970" points="482.3222,-17.6944 491.7533,-12.8671 481.3702,-10.7595 482.3222,-17.6944"/>
</g>
<!-- Node3&#45;&gt;Node6 -->
<g id="edge5" class="edge">
<title>Node3&#45;&gt;Node6</title>
<path fill="none" stroke="#191970" d="M104.2935,-56.2455C104.0326,-48.9382 103.6667,-38.6944 103.3456,-29.7046"/>
<polygon fill="#191970" stroke="#191970" points="106.8411,-29.5113 102.9863,-19.6427 99.8455,-29.7613 106.8411,-29.5113"/>
</g>
<!-- Node8&#45;&gt;Node4 -->
<g id="edge11" class="edge">
<title>Node8&#45;&gt;Node4</title>
<path fill="none" stroke="#191970" d="M468.054,-112.4327C444.8802,-103.3321 409.2413,-89.1207 378.6419,-76 358.8994,-67.5346 354.6696,-63.7669 334.6419,-56 301.7907,-43.2601 263.7782,-31.0767 235.3541,-22.4527"/>
<polygon fill="#191970" stroke="#191970" points="236.3086,-19.0849 225.7243,-19.5556 234.292,-25.7882 236.3086,-19.0849"/>
</g>
<!-- Node8&#45;&gt;Node5 -->
<g id="edge19" class="edge">
<title>Node8&#45;&gt;Node5</title>
<path fill="none" stroke="#191970" d="M502.5781,-112.4913C510.8179,-103.8654 521.9186,-90.3368 526.6419,-76 531.7319,-60.55 527.1795,-42.4399 521.9484,-29.1024"/>
<polygon fill="#191970" stroke="#191970" points="524.9934,-27.3302 517.7788,-19.5712 518.5802,-30.1357 524.9934,-27.3302"/>
</g>
<!-- Node8&#45;&gt;Node6 -->
<g id="edge20" class="edge">
<title>Node8&#45;&gt;Node6</title>
<path fill="none" stroke="#191970" d="M459.0746,-114.9226C426.4666,-107.4277 375.9666,-94.1621 334.6419,-76 318.9413,-69.0996 317.5814,-62.3291 301.6419,-56 233.5813,-28.9751 209.3949,-38.8358 134.7719,-20.0535"/>
<polygon fill="#191970" stroke="#191970" points="135.4727,-16.6192 124.9129,-17.4812 133.7054,-23.3924 135.4727,-16.6192"/>
</g>
<!-- Node8&#45;&gt;Node7 -->
<g id="edge18" class="edge">
<title>Node8&#45;&gt;Node7</title>
<path fill="none" stroke="#191970" d="M458.8804,-114.298C421.4894,-105.6177 359.5007,-90.7809 306.6419,-76 305.1705,-75.5885 303.6643,-75.1563 302.1461,-74.7119"/>
<polygon fill="#191970" stroke="#191970" points="302.7757,-71.2455 292.1903,-71.6935 300.7447,-77.9444 302.7757,-71.2455"/>
</g>
<!-- Node9 -->
<g id="node9" class="node">
<title>Node9</title>
<g id="a_node9"><a xlink:href="CustomFunction_8h.html" target="_top" xlink:title=" ">
<polygon fill="#ffffff" stroke="#000000" points="387.1419,-56.5 387.1419,-75.5 484.1419,-75.5 484.1419,-56.5 387.1419,-56.5"/>
<text text-anchor="middle" x="435.6419" y="-63.5" font-family="Helvetica,sans-Serif" font-size="10.00" fill="#000000">CustomFunction.h</text>
</a>
</g>
</g>
<!-- Node8&#45;&gt;Node9 -->
<g id="edge12" class="edge">
<title>Node8&#45;&gt;Node9</title>
<path fill="none" stroke="#191970" d="M482.7133,-112.2455C474.4581,-104.1352 462.521,-92.4075 452.7337,-82.7919"/>
<polygon fill="#191970" stroke="#191970" points="455.0431,-80.1542 445.4568,-75.6427 450.1373,-85.1476 455.0431,-80.1542"/>
</g>
<!-- Node10 -->
<g id="node10" class="node">
<title>Node10</title>
<g id="a_node10"><a xlink:href="Exception_8h.html" target="_top" xlink:title=" ">
<polygon fill="#ffffff" stroke="#000000" points="578.6419,-56.5 578.6419,-75.5 646.6419,-75.5 646.6419,-56.5 578.6419,-56.5"/>
<text text-anchor="middle" x="612.6419" y="-63.5" font-family="Helvetica,sans-Serif" font-size="10.00" fill="#000000">Exception.h</text>
</a>
</g>
</g>
<!-- Node8&#45;&gt;Node10 -->
<g id="edge14" class="edge">
<title>Node8&#45;&gt;Node10</title>
<path fill="none" stroke="#191970" d="M513.2706,-112.3733C532.5338,-103.3838 561.4905,-89.8706 583.1838,-79.7471"/>
<polygon fill="#191970" stroke="#191970" points="584.7006,-82.9017 592.2824,-75.5011 581.7404,-76.5584 584.7006,-82.9017"/>
</g>
<!-- Node12 -->
<g id="node12" class="node">
<title>Node12</title>
<g id="a_node12"><a xlink:title=" ">
<polygon fill="#ffffff" stroke="#bfbfbf" points="664.6419,-56.5 664.6419,-75.5 708.6419,-75.5 708.6419,-56.5 664.6419,-56.5"/>
<text text-anchor="middle" x="686.6419" y="-63.5" font-family="Helvetica,sans-Serif" font-size="10.00" fill="#000000">cmath</text>
</a>
</g>
</g>
<!-- Node8&#45;&gt;Node12 -->
<g id="edge17" class="edge">
<title>Node8&#45;&gt;Node12</title>
<path fill="none" stroke="#191970" d="M526.1501,-112.9334C557.1772,-104.452 604.8202,-91.2117 654.6616,-76.2271"/>
<polygon fill="#191970" stroke="#191970" points="655.7611,-79.5512 664.3218,-73.3089 653.7369,-72.8502 655.7611,-79.5512"/>
</g>
<!-- Node13 -->
<g id="node13" class="node">
<title>Node13</title>
<g id="a_node13"><a xlink:title=" ">
<polygon fill="#ffffff" stroke="#bfbfbf" points="726.6419,-56.5 726.6419,-75.5 778.6419,-75.5 778.6419,-56.5 726.6419,-56.5"/>
<text text-anchor="middle" x="752.6419" y="-63.5" font-family="Helvetica,sans-Serif" font-size="10.00" fill="#000000">sstream</text>
</a>
</g>
</g>
<!-- Node8&#45;&gt;Node13 -->
<g id="edge21" class="edge">
<title>Node8&#45;&gt;Node13</title>
<path fill="none" stroke="#191970" d="M526.3665,-115.9401C568.6304,-108.1635 643.4695,-93.7931 716.5031,-76.1487"/>
<polygon fill="#191970" stroke="#191970" points="717.4405,-79.5227 726.3263,-73.7526 715.7817,-72.7221 717.4405,-79.5227"/>
</g>
<!-- Node14 -->
<g id="node14" class="node">
<title>Node14</title>
<g id="a_node14"><a xlink:title=" ">
<polygon fill="#ffffff" stroke="#bfbfbf" points="796.6419,-56.5 796.6419,-75.5 852.6419,-75.5 852.6419,-56.5 796.6419,-56.5"/>
<text text-anchor="middle" x="824.6419" y="-63.5" font-family="Helvetica,sans-Serif" font-size="10.00" fill="#000000">algorithm</text>
</a>
</g>
</g>
<!-- Node8&#45;&gt;Node14 -->
<g id="edge22" class="edge">
<title>Node8&#45;&gt;Node14</title>
<path fill="none" stroke="#191970" d="M526.484,-117.946C579.779,-111.2971 686.664,-96.8944 786.4905,-76.0657"/>
<polygon fill="#191970" stroke="#191970" points="787.3771,-79.4557 796.4373,-73.9636 785.9297,-72.607 787.3771,-79.4557"/>
</g>
<!-- Node9&#45;&gt;Node4 -->
<g id="edge13" class="edge">
<title>Node9&#45;&gt;Node4</title>
<path fill="none" stroke="#191970" d="M394.1448,-56.4369C352.5573,-46.8529 288.4585,-32.0812 243.7588,-21.78"/>
<polygon fill="#191970" stroke="#191970" points="244.4984,-18.3588 233.9678,-19.5237 242.9264,-25.18 244.4984,-18.3588"/>
</g>
<!-- Node10&#45;&gt;Node5 -->
<g id="edge16" class="edge">
<title>Node10&#45;&gt;Node5</title>
<path fill="none" stroke="#191970" d="M595.2232,-56.2455C579.5934,-47.4928 556.44,-34.527 538.6234,-24.5496"/>
<polygon fill="#191970" stroke="#191970" points="540.2962,-21.475 529.861,-19.6427 536.8759,-27.5825 540.2962,-21.475"/>
</g>
<!-- Node11 -->
<g id="node11" class="node">
<title>Node11</title>
<g id="a_node11"><a xlink:title=" ">
<polygon fill="#ffffff" stroke="#bfbfbf" points="583.1419,-.5 583.1419,-19.5 642.1419,-19.5 642.1419,-.5 583.1419,-.5"/>
<text text-anchor="middle" x="612.6419" y="-7.5" font-family="Helvetica,sans-Serif" font-size="10.00" fill="#000000">exception</text>
</a>
</g>
</g>
<!-- Node10&#45;&gt;Node11 -->
<g id="edge15" class="edge">
<title>Node10&#45;&gt;Node11</title>
<path fill="none" stroke="#191970" d="M612.6419,-56.2455C612.6419,-48.9382 612.6419,-38.6944 612.6419,-29.7046"/>
<polygon fill="#191970" stroke="#191970" points="616.142,-29.6426 612.6419,-19.6427 609.142,-29.6427 616.142,-29.6426"/>
</g>
<!-- Node15&#45;&gt;Node3 -->
<g id="edge24" class="edge">
<title>Node15&#45;&gt;Node3</title>
<path fill="none" stroke="#191970" d="M236.3088,-112.3733C210.0985,-103.1419 170.3435,-89.1402 141.3751,-78.9375"/>
<polygon fill="#191970" stroke="#191970" points="142.2131,-75.5219 131.6183,-75.5011 139.8877,-82.1244 142.2131,-75.5219"/>
</g>
<!-- Node15&#45;&gt;Node4 -->
<g id="edge25" class="edge">
<title>Node15&#45;&gt;Node4</title>
<path fill="none" stroke="#191970" d="M257.5885,-112.4509C245.7465,-93.7707 219.3454,-52.1238 204.1009,-28.0761"/>
<polygon fill="#191970" stroke="#191970" points="206.9902,-26.0969 198.68,-19.5249 201.0781,-29.8448 206.9902,-26.0969"/>
</g>
<!-- Node15&#45;&gt;Node5 -->
<g id="edge27" class="edge">
<title>Node15&#45;&gt;Node5</title>
<path fill="none" stroke="#191970" d="M315.7125,-117.8242C375.3787,-111.9967 468.2109,-99.4054 493.6419,-76 506.3662,-64.2892 510.7713,-44.6644 512.1994,-29.8513"/>
<polygon fill="#191970" stroke="#191970" points="515.7048,-29.861 512.7996,-19.6722 508.7169,-29.4488 515.7048,-29.861"/>
</g>
<!-- Node15&#45;&gt;Node7 -->
<g id="edge26" class="edge">
<title>Node15&#45;&gt;Node7</title>
<path fill="none" stroke="#191970" d="M265.558,-112.2455C266.9933,-104.9382 269.0055,-94.6944 270.7714,-85.7046"/>
<polygon fill="#191970" stroke="#191970" points="274.2546,-86.1298 272.7478,-75.6427 267.3859,-84.7805 274.2546,-86.1298"/>
</g>
</g>
</svg>
