<?xml version="1.0" encoding="UTF-8" standalone="no"?>
<!DOCTYPE svg PUBLIC "-//W3C//DTD SVG 1.1//EN"
 "http://www.w3.org/Graphics/SVG/1.1/DTD/svg11.dtd">
<!-- Generated by graphviz version 2.40.1 (20161225.0304)
 -->
<!-- Title: lepton/include/ExpressionProgram.h Pages: 1 -->
<svg width="489pt" height="95pt"
 viewBox="0.00 0.00 489.00 95.00" xmlns="http://www.w3.org/2000/svg" xmlns:xlink="http://www.w3.org/1999/xlink">
<g id="graph0" class="graph" transform="scale(1 1) rotate(0) translate(4 91)">
<title>lepton/include/ExpressionProgram.h</title>
<polygon fill="#ffffff" stroke="transparent" points="-4,4 -4,-91 485,-91 485,4 -4,4"/>
<!-- Node1 -->
<g id="node1" class="node">
<title>Node1</title>
<g id="a_node1"><a xlink:title=" ">
<polygon fill="#bfbfbf" stroke="#000000" points="154.5,-56.5 154.5,-86.5 282.5,-86.5 282.5,-56.5 154.5,-56.5"/>
<text text-anchor="start" x="162.5" y="-74.5" font-family="Helvetica,sans-Serif" font-size="10.00" fill="#000000">lepton/include/Expression</text>
<text text-anchor="middle" x="218.5" y="-63.5" font-family="Helvetica,sans-Serif" font-size="10.00" fill="#000000">Program.h</text>
</a>
</g>
</g>
<!-- Node2 -->
<g id="node2" class="node">
<title>Node2</title>
<g id="a_node2"><a xlink:href="Lepton_8h.html" target="_top" xlink:title=" ">
<polygon fill="#ffffff" stroke="#000000" points="0,-.5 0,-19.5 117,-19.5 117,-.5 0,-.5"/>
<text text-anchor="middle" x="58.5" y="-7.5" font-family="Helvetica,sans-Serif" font-size="10.00" fill="#000000">lepton/include/Lepton.h</text>
</a>
</g>
</g>
<!-- Node1&#45;&gt;Node2 -->
<g id="edge1" class="edge">
<title>Node1&#45;&gt;Node2</title>
<path fill="none" stroke="#191970" d="M169.9293,-52.8306C141.3235,-41.8353 106.3429,-28.3896 83.2943,-19.5303"/>
<polygon fill="#191970" stroke="#191970" points="168.7696,-56.1345 179.3596,-56.4554 171.2811,-49.6005 168.7696,-56.1345"/>
</g>
<!-- Node3 -->
<g id="node3" class="node">
<title>Node3</title>
<g id="a_node3"><a xlink:href="ExpressionProgram_8cpp.html" target="_top" xlink:title=" ">
<polygon fill="#ffffff" stroke="#000000" points="135,-.5 135,-19.5 302,-19.5 302,-.5 135,-.5"/>
<text text-anchor="middle" x="218.5" y="-7.5" font-family="Helvetica,sans-Serif" font-size="10.00" fill="#000000">lepton/src/ExpressionProgram.cpp</text>
</a>
</g>
</g>
<!-- Node1&#45;&gt;Node3 -->
<g id="edge2" class="edge">
<title>Node1&#45;&gt;Node3</title>
<path fill="none" stroke="#191970" d="M218.5,-46.2849C218.5,-36.9858 218.5,-26.9883 218.5,-19.8469"/>
<polygon fill="#191970" stroke="#191970" points="215.0001,-46.2977 218.5,-56.2977 222.0001,-46.2978 215.0001,-46.2977"/>
</g>
<!-- Node4 -->
<g id="node4" class="node">
<title>Node4</title>
<g id="a_node4"><a xlink:href="ParsedExpression_8cpp.html" target="_top" xlink:title=" ">
<polygon fill="#ffffff" stroke="#000000" points="320,-.5 320,-19.5 481,-19.5 481,-.5 320,-.5"/>
<text text-anchor="middle" x="400.5" y="-7.5" font-family="Helvetica,sans-Serif" font-size="10.00" fill="#000000">lepton/src/ParsedExpression.cpp</text>
</a>
</g>
</g>
<!-- Node1&#45;&gt;Node4 -->
<g id="edge3" class="edge">
<title>Node1&#45;&gt;Node4</title>
<path fill="none" stroke="#191970" d="M272.9019,-53.1169C305.5952,-42.0695 345.8508,-28.4666 372.2965,-19.5303"/>
<polygon fill="#191970" stroke="#191970" points="271.3755,-49.9382 263.0222,-56.4554 273.6164,-56.5699 271.3755,-49.9382"/>
</g>
</g>
</svg>
