<?xml version="1.0" encoding="UTF-8" standalone="no"?>
<!DOCTYPE svg PUBLIC "-//W3C//DTD SVG 1.1//EN"
 "http://www.w3.org/Graphics/SVG/1.1/DTD/svg11.dtd">
<!-- Generated by graphviz version 2.40.1 (20161225.0304)
 -->
<!-- Title: lepton/include/ExpressionProgram.h Pages: 1 -->
<svg width="315pt" height="151pt"
 viewBox="0.00 0.00 314.50 151.00" xmlns="http://www.w3.org/2000/svg" xmlns:xlink="http://www.w3.org/1999/xlink">
<g id="graph0" class="graph" transform="scale(1 1) rotate(0) translate(4 147)">
<title>lepton/include/ExpressionProgram.h</title>
<polygon fill="#ffffff" stroke="transparent" points="-4,4 -4,-147 310.5,-147 310.5,4 -4,4"/>
<!-- Node1 -->
<g id="node1" class="node">
<title>Node1</title>
<g id="a_node1"><a xlink:title=" ">
<polygon fill="#bfbfbf" stroke="#000000" points="93,-112.5 93,-142.5 221,-142.5 221,-112.5 93,-112.5"/>
<text text-anchor="start" x="101" y="-130.5" font-family="Helvetica,sans-Serif" font-size="10.00" fill="#000000">lepton/include/Expression</text>
<text text-anchor="middle" x="157" y="-119.5" font-family="Helvetica,sans-Serif" font-size="10.00" fill="#000000">Program.h</text>
</a>
</g>
</g>
<!-- Node2 -->
<g id="node2" class="node">
<title>Node2</title>
<g id="a_node2"><a xlink:href="ExpressionTreeNode_8h.html" target="_top" xlink:title=" ">
<polygon fill="#ffffff" stroke="#000000" points="99,-56.5 99,-75.5 215,-75.5 215,-56.5 99,-56.5"/>
<text text-anchor="middle" x="157" y="-63.5" font-family="Helvetica,sans-Serif" font-size="10.00" fill="#000000">ExpressionTreeNode.h</text>
</a>
</g>
</g>
<!-- Node1&#45;&gt;Node2 -->
<g id="edge1" class="edge">
<title>Node1&#45;&gt;Node2</title>
<path fill="none" stroke="#191970" d="M157,-112.2977C157,-104.3834 157,-94.6043 157,-86.0759"/>
<polygon fill="#191970" stroke="#191970" points="160.5001,-85.8469 157,-75.8469 153.5001,-85.847 160.5001,-85.8469"/>
</g>
<!-- Node3 -->
<g id="node3" class="node">
<title>Node3</title>
<g id="a_node3"><a xlink:href="windowsIncludes_8h.html" target="_top" xlink:title=" ">
<polygon fill="#ffffff" stroke="#000000" points="0,-.5 0,-19.5 100,-19.5 100,-.5 0,-.5"/>
<text text-anchor="middle" x="50" y="-7.5" font-family="Helvetica,sans-Serif" font-size="10.00" fill="#000000">windowsIncludes.h</text>
</a>
</g>
</g>
<!-- Node1&#45;&gt;Node3 -->
<g id="edge5" class="edge">
<title>Node1&#45;&gt;Node3</title>
<path fill="none" stroke="#191970" d="M129.2143,-112.3347C114.429,-103.2474 96.7262,-90.6261 84,-76 71.999,-62.2074 62.8589,-43.437 57.0937,-29.4394"/>
<polygon fill="#191970" stroke="#191970" points="60.241,-27.8759 53.3514,-19.8271 53.718,-30.4156 60.241,-27.8759"/>
</g>
<!-- Node4 -->
<g id="node4" class="node">
<title>Node4</title>
<g id="a_node4"><a xlink:title=" ">
<polygon fill="#ffffff" stroke="#bfbfbf" points="127.5,-.5 127.5,-19.5 168.5,-19.5 168.5,-.5 127.5,-.5"/>
<text text-anchor="middle" x="148" y="-7.5" font-family="Helvetica,sans-Serif" font-size="10.00" fill="#000000">string</text>
</a>
</g>
</g>
<!-- Node1&#45;&gt;Node4 -->
<g id="edge7" class="edge">
<title>Node1&#45;&gt;Node4</title>
<path fill="none" stroke="#191970" d="M126.6014,-112.4946C112.735,-103.8907 97.7152,-91.6614 90,-76 80.1208,-55.9458 100.5613,-37.2224 119.8445,-24.8786"/>
<polygon fill="#191970" stroke="#191970" points="121.7393,-27.8234 128.5099,-19.6742 118.1351,-21.8226 121.7393,-27.8234"/>
</g>
<!-- Node5 -->
<g id="node5" class="node">
<title>Node5</title>
<g id="a_node5"><a xlink:title=" ">
<polygon fill="#ffffff" stroke="#bfbfbf" points="204,-.5 204,-19.5 248,-19.5 248,-.5 204,-.5"/>
<text text-anchor="middle" x="226" y="-7.5" font-family="Helvetica,sans-Serif" font-size="10.00" fill="#000000">vector</text>
</a>
</g>
</g>
<!-- Node1&#45;&gt;Node5 -->
<g id="edge8" class="edge">
<title>Node1&#45;&gt;Node5</title>
<path fill="none" stroke="#191970" d="M187.1956,-112.3927C201.012,-103.7638 216.0484,-91.5428 224,-76 231.2606,-61.8078 231.2232,-43.5591 229.6742,-29.8488"/>
<polygon fill="#191970" stroke="#191970" points="233.0809,-28.9628 228.1444,-19.5883 226.1574,-29.9951 233.0809,-28.9628"/>
</g>
<!-- Node6 -->
<g id="node6" class="node">
<title>Node6</title>
<g id="a_node6"><a xlink:title=" ">
<polygon fill="#ffffff" stroke="#bfbfbf" points="271.5,-56.5 271.5,-75.5 306.5,-75.5 306.5,-56.5 271.5,-56.5"/>
<text text-anchor="middle" x="289" y="-63.5" font-family="Helvetica,sans-Serif" font-size="10.00" fill="#000000">map</text>
</a>
</g>
</g>
<!-- Node1&#45;&gt;Node6 -->
<g id="edge6" class="edge">
<title>Node1&#45;&gt;Node6</title>
<path fill="none" stroke="#191970" d="M189.2908,-112.4554C211.5616,-102.0792 240.8324,-88.4417 261.8912,-78.6302"/>
<polygon fill="#191970" stroke="#191970" points="263.6319,-81.6805 271.2182,-74.2847 260.6756,-75.3354 263.6319,-81.6805"/>
</g>
<!-- Node2&#45;&gt;Node3 -->
<g id="edge2" class="edge">
<title>Node2&#45;&gt;Node3</title>
<path fill="none" stroke="#191970" d="M138.362,-56.2455C121.5614,-47.4527 96.6366,-34.4079 77.5382,-24.4125"/>
<polygon fill="#191970" stroke="#191970" points="78.9073,-21.1787 68.4244,-19.6427 75.6614,-27.3807 78.9073,-21.1787"/>
</g>
<!-- Node2&#45;&gt;Node4 -->
<g id="edge3" class="edge">
<title>Node2&#45;&gt;Node4</title>
<path fill="none" stroke="#191970" d="M155.4323,-56.2455C154.2579,-48.9382 152.6116,-38.6944 151.1668,-29.7046"/>
<polygon fill="#191970" stroke="#191970" points="154.5922,-28.9606 149.5497,-19.6427 147.6809,-30.0714 154.5922,-28.9606"/>
</g>
<!-- Node2&#45;&gt;Node5 -->
<g id="edge4" class="edge">
<title>Node2&#45;&gt;Node5</title>
<path fill="none" stroke="#191970" d="M169.0189,-56.2455C179.2098,-47.9746 194.0362,-35.9416 206.0107,-26.2232"/>
<polygon fill="#191970" stroke="#191970" points="208.5598,-28.662 214.1188,-19.6427 204.1486,-23.2268 208.5598,-28.662"/>
</g>
</g>
</svg>
