<?xml version="1.0" encoding="UTF-8" standalone="no"?>
<!DOCTYPE svg PUBLIC "-//W3C//DTD SVG 1.1//EN"
 "http://www.w3.org/Graphics/SVG/1.1/DTD/svg11.dtd">
<!-- Generated by graphviz version 2.40.1 (20161225.0304)
 -->
<!-- Title: lepton/src/ExpressionTreeNode.cpp Pages: 1 -->
<svg width="665pt" height="207pt"
 viewBox="0.00 0.00 665.00 207.00" xmlns="http://www.w3.org/2000/svg" xmlns:xlink="http://www.w3.org/1999/xlink">
<g id="graph0" class="graph" transform="scale(1 1) rotate(0) translate(4 203)">
<title>lepton/src/ExpressionTreeNode.cpp</title>
<polygon fill="#ffffff" stroke="transparent" points="-4,4 -4,-203 661,-203 661,4 -4,4"/>
<!-- Node1 -->
<g id="node1" class="node">
<title>Node1</title>
<g id="a_node1"><a xlink:title=" ">
<polygon fill="#bfbfbf" stroke="#000000" points="68.5,-168.5 68.5,-198.5 199.5,-198.5 199.5,-168.5 68.5,-168.5"/>
<text text-anchor="start" x="76.5" y="-186.5" font-family="Helvetica,sans-Serif" font-size="10.00" fill="#000000">lepton/src/ExpressionTree</text>
<text text-anchor="middle" x="134" y="-175.5" font-family="Helvetica,sans-Serif" font-size="10.00" fill="#000000">Node.cpp</text>
</a>
</g>
</g>
<!-- Node2 -->
<g id="node2" class="node">
<title>Node2</title>
<g id="a_node2"><a xlink:href="ExpressionTreeNode_8h.html" target="_top" xlink:title=" ">
<polygon fill="#ffffff" stroke="#000000" points="76,-112.5 76,-131.5 192,-131.5 192,-112.5 76,-112.5"/>
<text text-anchor="middle" x="134" y="-119.5" font-family="Helvetica,sans-Serif" font-size="10.00" fill="#000000">ExpressionTreeNode.h</text>
</a>
</g>
</g>
<!-- Node1&#45;&gt;Node2 -->
<g id="edge1" class="edge">
<title>Node1&#45;&gt;Node2</title>
<path fill="none" stroke="#191970" d="M134,-168.2977C134,-160.3834 134,-150.6043 134,-142.0759"/>
<polygon fill="#191970" stroke="#191970" points="137.5001,-141.8469 134,-131.8469 130.5001,-141.847 137.5001,-141.8469"/>
</g>
<!-- Node6 -->
<g id="node6" class="node">
<title>Node6</title>
<g id="a_node6"><a xlink:href="Exception_8h.html" target="_top" xlink:title=" ">
<polygon fill="#ffffff" stroke="#000000" points="0,-56.5 0,-75.5 68,-75.5 68,-56.5 0,-56.5"/>
<text text-anchor="middle" x="34" y="-63.5" font-family="Helvetica,sans-Serif" font-size="10.00" fill="#000000">Exception.h</text>
</a>
</g>
</g>
<!-- Node1&#45;&gt;Node6 -->
<g id="edge5" class="edge">
<title>Node1&#45;&gt;Node6</title>
<path fill="none" stroke="#191970" d="M109.1372,-168.3989C95.4357,-159.1624 78.8538,-146.3754 67,-132 55.4395,-117.9803 46.5588,-99.2345 40.9373,-85.3039"/>
<polygon fill="#191970" stroke="#191970" points="44.1241,-83.8382 37.2834,-75.7477 37.5857,-86.3383 44.1241,-83.8382"/>
</g>
<!-- Node8 -->
<g id="node8" class="node">
<title>Node8</title>
<g id="a_node8"><a xlink:href="Operation_8h.html" target="_top" xlink:title=" ">
<polygon fill="#ffffff" stroke="#000000" points="263.5,-112.5 263.5,-131.5 330.5,-131.5 330.5,-112.5 263.5,-112.5"/>
<text text-anchor="middle" x="297" y="-119.5" font-family="Helvetica,sans-Serif" font-size="10.00" fill="#000000">Operation.h</text>
</a>
</g>
</g>
<!-- Node1&#45;&gt;Node8 -->
<g id="edge8" class="edge">
<title>Node1&#45;&gt;Node8</title>
<path fill="none" stroke="#191970" d="M173.8743,-168.4554C200.952,-158.239 236.4094,-144.8609 262.3166,-135.0861"/>
<polygon fill="#191970" stroke="#191970" points="263.6201,-138.3352 271.7408,-131.5303 261.149,-131.7858 263.6201,-138.3352"/>
</g>
<!-- Node3 -->
<g id="node3" class="node">
<title>Node3</title>
<g id="a_node3"><a xlink:href="windowsIncludes_8h.html" target="_top" xlink:title=" ">
<polygon fill="#ffffff" stroke="#000000" points="222,-.5 222,-19.5 322,-19.5 322,-.5 222,-.5"/>
<text text-anchor="middle" x="272" y="-7.5" font-family="Helvetica,sans-Serif" font-size="10.00" fill="#000000">windowsIncludes.h</text>
</a>
</g>
</g>
<!-- Node2&#45;&gt;Node3 -->
<g id="edge2" class="edge">
<title>Node2&#45;&gt;Node3</title>
<path fill="none" stroke="#191970" d="M134.1983,-112.1895C135.0034,-98.0304 138.5103,-71.8333 153,-56 168.4961,-39.067 190.9463,-28.3052 212.1813,-21.4932"/>
<polygon fill="#191970" stroke="#191970" points="213.2312,-24.8326 221.823,-18.6333 211.2405,-18.1216 213.2312,-24.8326"/>
</g>
<!-- Node4 -->
<g id="node4" class="node">
<title>Node4</title>
<g id="a_node4"><a xlink:title=" ">
<polygon fill="#ffffff" stroke="#bfbfbf" points="78.5,-.5 78.5,-19.5 119.5,-19.5 119.5,-.5 78.5,-.5"/>
<text text-anchor="middle" x="99" y="-7.5" font-family="Helvetica,sans-Serif" font-size="10.00" fill="#000000">string</text>
</a>
</g>
</g>
<!-- Node2&#45;&gt;Node4 -->
<g id="edge3" class="edge">
<title>Node2&#45;&gt;Node4</title>
<path fill="none" stroke="#191970" d="M131.0159,-112.4509C125.2817,-94.1013 112.6221,-53.5908 105.0529,-29.3693"/>
<polygon fill="#191970" stroke="#191970" points="108.3,-28.0257 101.9765,-19.5249 101.6187,-30.1137 108.3,-28.0257"/>
</g>
<!-- Node5 -->
<g id="node5" class="node">
<title>Node5</title>
<g id="a_node5"><a xlink:title=" ">
<polygon fill="#ffffff" stroke="#bfbfbf" points="162,-56.5 162,-75.5 206,-75.5 206,-56.5 162,-56.5"/>
<text text-anchor="middle" x="184" y="-63.5" font-family="Helvetica,sans-Serif" font-size="10.00" fill="#000000">vector</text>
</a>
</g>
</g>
<!-- Node2&#45;&gt;Node5 -->
<g id="edge4" class="edge">
<title>Node2&#45;&gt;Node5</title>
<path fill="none" stroke="#191970" d="M142.7093,-112.2455C149.8073,-104.2958 160.0084,-92.8706 168.495,-83.3656"/>
<polygon fill="#191970" stroke="#191970" points="171.3411,-85.4331 175.3905,-75.6427 166.1195,-80.771 171.3411,-85.4331"/>
</g>
<!-- Node6&#45;&gt;Node4 -->
<g id="edge7" class="edge">
<title>Node6&#45;&gt;Node4</title>
<path fill="none" stroke="#191970" d="M45.3221,-56.2455C54.9223,-47.9746 68.8892,-35.9416 80.1695,-26.2232"/>
<polygon fill="#191970" stroke="#191970" points="82.516,-28.8214 87.8076,-19.6427 77.947,-23.5182 82.516,-28.8214"/>
</g>
<!-- Node7 -->
<g id="node7" class="node">
<title>Node7</title>
<g id="a_node7"><a xlink:title=" ">
<polygon fill="#ffffff" stroke="#bfbfbf" points="1.5,-.5 1.5,-19.5 60.5,-19.5 60.5,-.5 1.5,-.5"/>
<text text-anchor="middle" x="31" y="-7.5" font-family="Helvetica,sans-Serif" font-size="10.00" fill="#000000">exception</text>
</a>
</g>
</g>
<!-- Node6&#45;&gt;Node7 -->
<g id="edge6" class="edge">
<title>Node6&#45;&gt;Node7</title>
<path fill="none" stroke="#191970" d="M33.4774,-56.2455C33.086,-48.9382 32.5372,-38.6944 32.0556,-29.7046"/>
<polygon fill="#191970" stroke="#191970" points="35.5466,-29.4411 31.5166,-19.6427 28.5566,-29.8156 35.5466,-29.4411"/>
</g>
<!-- Node8&#45;&gt;Node3 -->
<g id="edge9" class="edge">
<title>Node8&#45;&gt;Node3</title>
<path fill="none" stroke="#191970" d="M294.8685,-112.4509C290.7726,-94.1013 281.7301,-53.5908 276.3235,-29.3693"/>
<polygon fill="#191970" stroke="#191970" points="279.7206,-28.5222 274.1261,-19.5249 272.8888,-30.0472 279.7206,-28.5222"/>
</g>
<!-- Node8&#45;&gt;Node4 -->
<g id="edge15" class="edge">
<title>Node8&#45;&gt;Node4</title>
<path fill="none" stroke="#191970" d="M287.1245,-112.382C272.4145,-98.4628 243.4209,-72.5615 215,-56 187.484,-39.9658 153.3201,-27.1784 129.2157,-19.196"/>
<polygon fill="#191970" stroke="#191970" points="130.1416,-15.8171 119.5499,-16.0737 127.9898,-22.4782 130.1416,-15.8171"/>
</g>
<!-- Node8&#45;&gt;Node5 -->
<g id="edge16" class="edge">
<title>Node8&#45;&gt;Node5</title>
<path fill="none" stroke="#191970" d="M277.5746,-112.3733C259.5979,-103.4644 232.6559,-90.1127 212.291,-80.0203"/>
<polygon fill="#191970" stroke="#191970" points="213.6861,-76.8055 203.1719,-75.5011 210.5778,-83.0776 213.6861,-76.8055"/>
</g>
<!-- Node8&#45;&gt;Node6 -->
<g id="edge12" class="edge">
<title>Node8&#45;&gt;Node6</title>
<path fill="none" stroke="#191970" d="M263.4237,-114.8507C216.2974,-104.8162 130.4612,-86.5393 78.1938,-75.4101"/>
<polygon fill="#191970" stroke="#191970" points="78.719,-71.9435 68.2093,-73.2841 77.2611,-78.79 78.719,-71.9435"/>
</g>
<!-- Node9 -->
<g id="node9" class="node">
<title>Node9</title>
<g id="a_node9"><a xlink:href="CustomFunction_8h.html" target="_top" xlink:title=" ">
<polygon fill="#ffffff" stroke="#000000" points="362.5,-56.5 362.5,-75.5 459.5,-75.5 459.5,-56.5 362.5,-56.5"/>
<text text-anchor="middle" x="411" y="-63.5" font-family="Helvetica,sans-Serif" font-size="10.00" fill="#000000">CustomFunction.h</text>
</a>
</g>
</g>
<!-- Node8&#45;&gt;Node9 -->
<g id="edge10" class="edge">
<title>Node8&#45;&gt;Node9</title>
<path fill="none" stroke="#191970" d="M316.5973,-112.3733C334.7331,-103.4644 361.9135,-90.1127 382.4587,-80.0203"/>
<polygon fill="#191970" stroke="#191970" points="384.2261,-83.0517 391.6584,-75.5011 381.1397,-76.7688 384.2261,-83.0517"/>
</g>
<!-- Node10 -->
<g id="node10" class="node">
<title>Node10</title>
<g id="a_node10"><a xlink:title=" ">
<polygon fill="#ffffff" stroke="#bfbfbf" points="300,-56.5 300,-75.5 344,-75.5 344,-56.5 300,-56.5"/>
<text text-anchor="middle" x="322" y="-63.5" font-family="Helvetica,sans-Serif" font-size="10.00" fill="#000000">cmath</text>
</a>
</g>
</g>
<!-- Node8&#45;&gt;Node10 -->
<g id="edge13" class="edge">
<title>Node8&#45;&gt;Node10</title>
<path fill="none" stroke="#191970" d="M301.3547,-112.2455C304.7244,-104.6973 309.493,-94.0158 313.5983,-84.8197"/>
<polygon fill="#191970" stroke="#191970" points="316.8147,-86.2009 317.6952,-75.6427 310.4227,-83.3473 316.8147,-86.2009"/>
</g>
<!-- Node11 -->
<g id="node11" class="node">
<title>Node11</title>
<g id="a_node11"><a xlink:title=" ">
<polygon fill="#ffffff" stroke="#bfbfbf" points="477.5,-56.5 477.5,-75.5 512.5,-75.5 512.5,-56.5 477.5,-56.5"/>
<text text-anchor="middle" x="495" y="-63.5" font-family="Helvetica,sans-Serif" font-size="10.00" fill="#000000">map</text>
</a>
</g>
</g>
<!-- Node8&#45;&gt;Node11 -->
<g id="edge14" class="edge">
<title>Node8&#45;&gt;Node11</title>
<path fill="none" stroke="#191970" d="M330.6013,-114.1311C363.4516,-106.1934 415.0309,-93.0827 467.6376,-76.2234"/>
<polygon fill="#191970" stroke="#191970" points="469.0374,-79.4489 477.4681,-73.0322 466.8761,-72.7909 469.0374,-79.4489"/>
</g>
<!-- Node12 -->
<g id="node12" class="node">
<title>Node12</title>
<g id="a_node12"><a xlink:title=" ">
<polygon fill="#ffffff" stroke="#bfbfbf" points="531,-56.5 531,-75.5 583,-75.5 583,-56.5 531,-56.5"/>
<text text-anchor="middle" x="557" y="-63.5" font-family="Helvetica,sans-Serif" font-size="10.00" fill="#000000">sstream</text>
</a>
</g>
</g>
<!-- Node8&#45;&gt;Node12 -->
<g id="edge17" class="edge">
<title>Node8&#45;&gt;Node12</title>
<path fill="none" stroke="#191970" d="M330.7246,-115.9401C372.9885,-108.1635 447.8276,-93.7931 520.8612,-76.1487"/>
<polygon fill="#191970" stroke="#191970" points="521.7986,-79.5227 530.6844,-73.7526 520.1398,-72.7221 521.7986,-79.5227"/>
</g>
<!-- Node13 -->
<g id="node13" class="node">
<title>Node13</title>
<g id="a_node13"><a xlink:title=" ">
<polygon fill="#ffffff" stroke="#bfbfbf" points="601,-56.5 601,-75.5 657,-75.5 657,-56.5 601,-56.5"/>
<text text-anchor="middle" x="629" y="-63.5" font-family="Helvetica,sans-Serif" font-size="10.00" fill="#000000">algorithm</text>
</a>
</g>
</g>
<!-- Node8&#45;&gt;Node13 -->
<g id="edge18" class="edge">
<title>Node8&#45;&gt;Node13</title>
<path fill="none" stroke="#191970" d="M330.8421,-117.946C384.1371,-111.2971 491.0221,-96.8944 590.8486,-76.0657"/>
<polygon fill="#191970" stroke="#191970" points="591.7352,-79.4557 600.7954,-73.9636 590.2878,-72.607 591.7352,-79.4557"/>
</g>
<!-- Node9&#45;&gt;Node3 -->
<g id="edge11" class="edge">
<title>Node9&#45;&gt;Node3</title>
<path fill="none" stroke="#191970" d="M387.105,-56.3733C364.4918,-47.2629 330.3458,-33.5062 305.1127,-23.3404"/>
<polygon fill="#191970" stroke="#191970" points="306.1666,-19.9917 295.5831,-19.5011 303.5507,-26.4845 306.1666,-19.9917"/>
</g>
</g>
</svg>
