<?xml version="1.0" encoding="UTF-8" standalone="no"?>
<!DOCTYPE svg PUBLIC "-//W3C//DTD SVG 1.1//EN"
 "http://www.w3.org/Graphics/SVG/1.1/DTD/svg11.dtd">
<!-- Generated by graphviz version 2.40.1 (20161225.0304)
 -->
<!-- Title: lepton/include/ExpressionTreeNode.h Pages: 1 -->
<svg width="977pt" height="162pt"
 viewBox="0.00 0.00 977.00 162.00" xmlns="http://www.w3.org/2000/svg" xmlns:xlink="http://www.w3.org/1999/xlink">
<g id="graph0" class="graph" transform="scale(1 1) rotate(0) translate(4 158)">
<title>lepton/include/ExpressionTreeNode.h</title>
<polygon fill="#ffffff" stroke="transparent" points="-4,4 -4,-158 973,-158 973,4 -4,4"/>
<!-- Node1 -->
<g id="node1" class="node">
<title>Node1</title>
<g id="a_node1"><a xlink:title=" ">
<polygon fill="#bfbfbf" stroke="#000000" points="493.5,-123.5 493.5,-153.5 621.5,-153.5 621.5,-123.5 493.5,-123.5"/>
<text text-anchor="start" x="501.5" y="-141.5" font-family="Helvetica,sans-Serif" font-size="10.00" fill="#000000">lepton/include/Expression</text>
<text text-anchor="middle" x="557.5" y="-130.5" font-family="Helvetica,sans-Serif" font-size="10.00" fill="#000000">TreeNode.h</text>
</a>
</g>
</g>
<!-- Node2 -->
<g id="node2" class="node">
<title>Node2</title>
<g id="a_node2"><a xlink:href="CompiledExpression_8h.html" target="_top" xlink:title=" ">
<polygon fill="#ffffff" stroke="#000000" points="131.5,-62 131.5,-81 309.5,-81 309.5,-62 131.5,-62"/>
<text text-anchor="middle" x="220.5" y="-69" font-family="Helvetica,sans-Serif" font-size="10.00" fill="#000000">lepton/include/CompiledExpression.h</text>
</a>
</g>
</g>
<!-- Node1&#45;&gt;Node2 -->
<g id="edge1" class="edge">
<title>Node1&#45;&gt;Node2</title>
<path fill="none" stroke="#191970" d="M483.4706,-123.782C418.0173,-110.769 324.4659,-92.1698 268.382,-81.0196"/>
<polygon fill="#191970" stroke="#191970" points="482.8291,-127.2229 493.3196,-125.7401 484.1941,-120.3572 482.8291,-127.2229"/>
</g>
<!-- Node3 -->
<g id="node3" class="node">
<title>Node3</title>
<g id="a_node3"><a xlink:href="Lepton_8h.html" target="_top" xlink:title=" ">
<polygon fill="#ffffff" stroke="#000000" points="0,-.5 0,-19.5 117,-19.5 117,-.5 0,-.5"/>
<text text-anchor="middle" x="58.5" y="-7.5" font-family="Helvetica,sans-Serif" font-size="10.00" fill="#000000">lepton/include/Lepton.h</text>
</a>
</g>
</g>
<!-- Node1&#45;&gt;Node3 -->
<g id="edge9" class="edge">
<title>Node1&#45;&gt;Node3</title>
<path fill="none" stroke="#191970" d="M483.2186,-136.2989C375.7221,-132.0136 183.03,-119.8785 122.5,-87 93.4777,-71.2358 72.2815,-36.4567 63.2812,-19.5716"/>
<polygon fill="#191970" stroke="#191970" points="483.2208,-139.8015 493.3483,-136.6896 483.4906,-132.8067 483.2208,-139.8015"/>
</g>
<!-- Node6 -->
<g id="node6" class="node">
<title>Node6</title>
<g id="a_node6"><a xlink:href="ExpressionProgram_8h.html" target="_top" xlink:title=" ">
<polygon fill="#ffffff" stroke="#000000" points="327.5,-56.5 327.5,-86.5 455.5,-86.5 455.5,-56.5 327.5,-56.5"/>
<text text-anchor="start" x="335.5" y="-74.5" font-family="Helvetica,sans-Serif" font-size="10.00" fill="#000000">lepton/include/Expression</text>
<text text-anchor="middle" x="391.5" y="-63.5" font-family="Helvetica,sans-Serif" font-size="10.00" fill="#000000">Program.h</text>
</a>
</g>
</g>
<!-- Node1&#45;&gt;Node6 -->
<g id="edge5" class="edge">
<title>Node1&#45;&gt;Node6</title>
<path fill="none" stroke="#191970" d="M510.6475,-119.5897C484.7865,-109.1518 453.1069,-96.3654 428.9161,-86.6017"/>
<polygon fill="#191970" stroke="#191970" points="509.6632,-122.9667 520.2464,-123.4639 512.2832,-116.4754 509.6632,-122.9667"/>
</g>
<!-- Node8 -->
<g id="node8" class="node">
<title>Node8</title>
<g id="a_node8"><a xlink:href="ParsedExpression_8h.html" target="_top" xlink:title=" ">
<polygon fill="#ffffff" stroke="#000000" points="474,-62 474,-81 641,-81 641,-62 474,-62"/>
<text text-anchor="middle" x="557.5" y="-69" font-family="Helvetica,sans-Serif" font-size="10.00" fill="#000000">lepton/include/ParsedExpression.h</text>
</a>
</g>
</g>
<!-- Node1&#45;&gt;Node8 -->
<g id="edge10" class="edge">
<title>Node1&#45;&gt;Node8</title>
<path fill="none" stroke="#191970" d="M557.5,-113.1199C557.5,-101.9072 557.5,-89.4031 557.5,-81.055"/>
<polygon fill="#191970" stroke="#191970" points="554.0001,-113.2966 557.5,-123.2967 561.0001,-113.2967 554.0001,-113.2966"/>
</g>
<!-- Node9 -->
<g id="node9" class="node">
<title>Node9</title>
<g id="a_node9"><a xlink:href="Parser_8cpp.html" target="_top" xlink:title=" ">
<polygon fill="#ffffff" stroke="#000000" points="688.5,-.5 688.5,-19.5 798.5,-19.5 798.5,-.5 688.5,-.5"/>
<text text-anchor="middle" x="743.5" y="-7.5" font-family="Helvetica,sans-Serif" font-size="10.00" fill="#000000">lepton/src/Parser.cpp</text>
</a>
</g>
</g>
<!-- Node1&#45;&gt;Node9 -->
<g id="edge18" class="edge">
<title>Node1&#45;&gt;Node9</title>
<path fill="none" stroke="#191970" d="M596.6643,-118.5503C613.3504,-109.5516 632.7825,-98.3958 649.5,-87 658.0412,-81.1777 708.6048,-39.1348 731.8373,-19.747"/>
<polygon fill="#191970" stroke="#191970" points="594.8945,-115.5273 587.7115,-123.3154 598.1835,-121.7066 594.8945,-115.5273"/>
</g>
<!-- Node10 -->
<g id="node10" class="node">
<title>Node10</title>
<g id="a_node10"><a xlink:href="ExpressionTreeNode_8cpp.html" target="_top" xlink:title=" ">
<polygon fill="#ffffff" stroke="#000000" points="697,-56.5 697,-86.5 828,-86.5 828,-56.5 697,-56.5"/>
<text text-anchor="start" x="705" y="-74.5" font-family="Helvetica,sans-Serif" font-size="10.00" fill="#000000">lepton/src/ExpressionTree</text>
<text text-anchor="middle" x="762.5" y="-63.5" font-family="Helvetica,sans-Serif" font-size="10.00" fill="#000000">Node.cpp</text>
</a>
</g>
</g>
<!-- Node1&#45;&gt;Node10 -->
<g id="edge16" class="edge">
<title>Node1&#45;&gt;Node10</title>
<path fill="none" stroke="#191970" d="M613.2603,-120.2759C645.5689,-109.7165 685.7612,-96.5805 716.2933,-86.6017"/>
<polygon fill="#191970" stroke="#191970" points="611.9239,-117.0304 603.506,-123.4639 614.0986,-123.6841 611.9239,-117.0304"/>
</g>
<!-- Node11 -->
<g id="node11" class="node">
<title>Node11</title>
<g id="a_node11"><a xlink:href="Operation_8cpp.html" target="_top" xlink:title=" ">
<polygon fill="#ffffff" stroke="#000000" points="846,-62 846,-81 969,-81 969,-62 846,-62"/>
<text text-anchor="middle" x="907.5" y="-69" font-family="Helvetica,sans-Serif" font-size="10.00" fill="#000000">lepton/src/Operation.cpp</text>
</a>
</g>
</g>
<!-- Node1&#45;&gt;Node11 -->
<g id="edge17" class="edge">
<title>Node1&#45;&gt;Node11</title>
<path fill="none" stroke="#191970" d="M631.4933,-125.6399C688.0218,-115.6339 767.8099,-101.1199 837.5,-87 846.6494,-85.1462 856.446,-83.0483 865.7253,-81.0083"/>
<polygon fill="#191970" stroke="#191970" points="630.8088,-122.2066 621.5699,-127.3925 632.0263,-129.0999 630.8088,-122.2066"/>
</g>
<!-- Node2&#45;&gt;Node3 -->
<g id="edge2" class="edge">
<title>Node2&#45;&gt;Node3</title>
<path fill="none" stroke="#191970" d="M185.7275,-58.2993C155.0331,-46.6468 111.0253,-29.9402 83.6348,-19.5419"/>
<polygon fill="#191970" stroke="#191970" points="184.5963,-61.6136 195.1875,-61.8906 187.0807,-55.0693 184.5963,-61.6136"/>
</g>
<!-- Node4 -->
<g id="node4" class="node">
<title>Node4</title>
<g id="a_node4"><a xlink:href="CompiledExpression_8cpp.html" target="_top" xlink:title=" ">
<polygon fill="#ffffff" stroke="#000000" points="135,-.5 135,-19.5 306,-19.5 306,-.5 135,-.5"/>
<text text-anchor="middle" x="220.5" y="-7.5" font-family="Helvetica,sans-Serif" font-size="10.00" fill="#000000">lepton/src/CompiledExpression.cpp</text>
</a>
</g>
</g>
<!-- Node2&#45;&gt;Node4 -->
<g id="edge3" class="edge">
<title>Node2&#45;&gt;Node4</title>
<path fill="none" stroke="#191970" d="M220.5,-51.7462C220.5,-41.0519 220.5,-28.314 220.5,-19.7449"/>
<polygon fill="#191970" stroke="#191970" points="217.0001,-51.8906 220.5,-61.8906 224.0001,-51.8907 217.0001,-51.8906"/>
</g>
<!-- Node5 -->
<g id="node5" class="node">
<title>Node5</title>
<g id="a_node5"><a xlink:href="ParsedExpression_8cpp.html" target="_top" xlink:title=" ">
<polygon fill="#ffffff" stroke="#000000" points="324,-.5 324,-19.5 485,-19.5 485,-.5 324,-.5"/>
<text text-anchor="middle" x="404.5" y="-7.5" font-family="Helvetica,sans-Serif" font-size="10.00" fill="#000000">lepton/src/ParsedExpression.cpp</text>
</a>
</g>
</g>
<!-- Node2&#45;&gt;Node5 -->
<g id="edge4" class="edge">
<title>Node2&#45;&gt;Node5</title>
<path fill="none" stroke="#191970" d="M259.0926,-58.6009C293.9906,-46.9366 344.5723,-30.0302 375.9519,-19.5419"/>
<polygon fill="#191970" stroke="#191970" points="257.6247,-55.4011 249.25,-61.8906 259.8438,-62.04 257.6247,-55.4011"/>
</g>
<!-- Node6&#45;&gt;Node3 -->
<g id="edge6" class="edge">
<title>Node6&#45;&gt;Node3</title>
<path fill="none" stroke="#191970" d="M317.2957,-55.8007C242.0056,-41.2601 166.147,-28.0904 115.6647,-19.5372"/>
<polygon fill="#191970" stroke="#191970" points="316.9475,-59.2983 327.4311,-57.7672 318.2809,-52.4265 316.9475,-59.2983"/>
</g>
<!-- Node6&#45;&gt;Node5 -->
<g id="edge8" class="edge">
<title>Node6&#45;&gt;Node5</title>
<path fill="none" stroke="#191970" d="M396.83,-46.2849C398.7957,-36.9858 400.909,-26.9883 402.4185,-19.8469"/>
<polygon fill="#191970" stroke="#191970" points="393.3574,-45.7901 394.7135,-56.2977 400.206,-47.2378 393.3574,-45.7901"/>
</g>
<!-- Node7 -->
<g id="node7" class="node">
<title>Node7</title>
<g id="a_node7"><a xlink:href="ExpressionProgram_8cpp.html" target="_top" xlink:title=" ">
<polygon fill="#ffffff" stroke="#000000" points="503,-.5 503,-19.5 670,-19.5 670,-.5 503,-.5"/>
<text text-anchor="middle" x="586.5" y="-7.5" font-family="Helvetica,sans-Serif" font-size="10.00" fill="#000000">lepton/src/ExpressionProgram.cpp</text>
</a>
</g>
</g>
<!-- Node6&#45;&gt;Node7 -->
<g id="edge7" class="edge">
<title>Node6&#45;&gt;Node7</title>
<path fill="none" stroke="#191970" d="M448.8837,-53.4021C484.0716,-42.3044 527.703,-28.5437 556.2819,-19.5303"/>
<polygon fill="#191970" stroke="#191970" points="447.6866,-50.1096 439.2024,-56.4554 449.7921,-56.7855 447.6866,-50.1096"/>
</g>
<!-- Node8&#45;&gt;Node3 -->
<g id="edge11" class="edge">
<title>Node8&#45;&gt;Node3</title>
<path fill="none" stroke="#191970" d="M493.4847,-60.3187C483.7874,-58.7734 473.889,-57.2798 464.5,-56 314.3744,-35.5366 275.794,-39.1874 125.5,-20 122.8168,-19.6574 120.0749,-19.2957 117.3066,-18.921"/>
<polygon fill="#191970" stroke="#191970" points="493.0563,-63.7949 503.4877,-61.9409 494.177,-56.8851 493.0563,-63.7949"/>
</g>
<!-- Node8&#45;&gt;Node4 -->
<g id="edge12" class="edge">
<title>Node8&#45;&gt;Node4</title>
<path fill="none" stroke="#191970" d="M495.248,-60.1395C431.2367,-48.4579 332.6707,-30.4703 272.6319,-19.5137"/>
<polygon fill="#191970" stroke="#191970" points="494.7476,-63.6059 505.2135,-61.9581 496.0044,-56.7196 494.7476,-63.6059"/>
</g>
<!-- Node8&#45;&gt;Node5 -->
<g id="edge14" class="edge">
<title>Node8&#45;&gt;Node5</title>
<path fill="none" stroke="#191970" d="M524.2821,-58.1477C495.3106,-46.5023 453.9953,-29.8952 428.2384,-19.5419"/>
<polygon fill="#191970" stroke="#191970" points="523.0099,-61.4084 533.5938,-61.8906 525.6206,-54.9135 523.0099,-61.4084"/>
</g>
<!-- Node8&#45;&gt;Node7 -->
<g id="edge13" class="edge">
<title>Node8&#45;&gt;Node7</title>
<path fill="none" stroke="#191970" d="M566.34,-52.753C571.4763,-41.8606 577.7365,-28.5846 581.9049,-19.7449"/>
<polygon fill="#191970" stroke="#191970" points="563.1307,-51.353 562.0313,-61.8906 569.4621,-54.3386 563.1307,-51.353"/>
</g>
<!-- Node8&#45;&gt;Node9 -->
<g id="edge15" class="edge">
<title>Node8&#45;&gt;Node9</title>
<path fill="none" stroke="#191970" d="M596.0587,-58.7507C631.3501,-47.0818 682.7847,-30.0752 714.6416,-19.5419"/>
<polygon fill="#191970" stroke="#191970" points="594.9582,-55.4282 586.5625,-61.8906 597.1557,-62.0743 594.9582,-55.4282"/>
</g>
</g>
</svg>
