<?xml version="1.0" encoding="UTF-8" standalone="no"?>
<!DOCTYPE svg PUBLIC "-//W3C//DTD SVG 1.1//EN"
 "http://www.w3.org/Graphics/SVG/1.1/DTD/svg11.dtd">
<!-- Generated by graphviz version 2.40.1 (20161225.0304)
 -->
<!-- Title: libbsn/test/unit/filters/FiltersTest.cpp Pages: 1 -->
<svg width="289pt" height="151pt"
 viewBox="0.00 0.00 288.50 151.00" xmlns="http://www.w3.org/2000/svg" xmlns:xlink="http://www.w3.org/1999/xlink">
<g id="graph0" class="graph" transform="scale(1 1) rotate(0) translate(4 147)">
<title>libbsn/test/unit/filters/FiltersTest.cpp</title>
<polygon fill="#ffffff" stroke="transparent" points="-4,4 -4,-147 284.5,-147 284.5,4 -4,4"/>
<!-- Node1 -->
<g id="node1" class="node">
<title>Node1</title>
<g id="a_node1"><a xlink:title=" ">
<polygon fill="#bfbfbf" stroke="#000000" points="41,-112.5 41,-142.5 148,-142.5 148,-112.5 41,-112.5"/>
<text text-anchor="start" x="49" y="-130.5" font-family="Helvetica,sans-Serif" font-size="10.00" fill="#000000">libbsn/test/unit/filters</text>
<text text-anchor="middle" x="94.5" y="-119.5" font-family="Helvetica,sans-Serif" font-size="10.00" fill="#000000">/FiltersTest.cpp</text>
</a>
</g>
</g>
<!-- Node2 -->
<g id="node2" class="node">
<title>Node2</title>
<g id="a_node2"><a xlink:title=" ">
<polygon fill="#ffffff" stroke="#bfbfbf" points="0,-56.5 0,-75.5 71,-75.5 71,-56.5 0,-56.5"/>
<text text-anchor="middle" x="35.5" y="-63.5" font-family="Helvetica,sans-Serif" font-size="10.00" fill="#000000">gtest/gtest.h</text>
</a>
</g>
</g>
<!-- Node1&#45;&gt;Node2 -->
<g id="edge1" class="edge">
<title>Node1&#45;&gt;Node2</title>
<path fill="none" stroke="#191970" d="M79.9157,-112.2977C71.47,-103.4941 60.8108,-92.3833 52.0516,-83.2529"/>
<polygon fill="#191970" stroke="#191970" points="54.3952,-80.6402 44.9466,-75.8469 49.3439,-85.4862 54.3952,-80.6402"/>
</g>
<!-- Node3 -->
<g id="node3" class="node">
<title>Node3</title>
<g id="a_node3"><a xlink:href="MovingAverage_8hpp.html" target="_top" xlink:title=" ">
<polygon fill="#ffffff" stroke="#000000" points="89.5,-56.5 89.5,-75.5 219.5,-75.5 219.5,-56.5 89.5,-56.5"/>
<text text-anchor="middle" x="154.5" y="-63.5" font-family="Helvetica,sans-Serif" font-size="10.00" fill="#000000">filters/MovingAverage.hpp</text>
</a>
</g>
</g>
<!-- Node1&#45;&gt;Node3 -->
<g id="edge2" class="edge">
<title>Node1&#45;&gt;Node3</title>
<path fill="none" stroke="#191970" d="M109.3315,-112.2977C117.9204,-103.4941 128.7602,-92.3833 137.6679,-83.2529"/>
<polygon fill="#191970" stroke="#191970" points="140.4152,-85.4489 144.8932,-75.8469 135.4047,-80.5606 140.4152,-85.4489"/>
</g>
<!-- Node4 -->
<g id="node4" class="node">
<title>Node4</title>
<g id="a_node4"><a xlink:title=" ">
<polygon fill="#ffffff" stroke="#bfbfbf" points="55,-.5 55,-19.5 84,-19.5 84,-.5 55,-.5"/>
<text text-anchor="middle" x="69.5" y="-7.5" font-family="Helvetica,sans-Serif" font-size="10.00" fill="#000000">list</text>
</a>
</g>
</g>
<!-- Node3&#45;&gt;Node4 -->
<g id="edge3" class="edge">
<title>Node3&#45;&gt;Node4</title>
<path fill="none" stroke="#191970" d="M139.6941,-56.2455C126.7744,-47.7337 107.8069,-35.2375 92.8448,-25.3801"/>
<polygon fill="#191970" stroke="#191970" points="94.4124,-22.2216 84.1362,-19.6427 90.5613,-28.067 94.4124,-22.2216"/>
</g>
<!-- Node5 -->
<g id="node5" class="node">
<title>Node5</title>
<g id="a_node5"><a xlink:title=" ">
<polygon fill="#ffffff" stroke="#bfbfbf" points="102,-.5 102,-19.5 143,-19.5 143,-.5 102,-.5"/>
<text text-anchor="middle" x="122.5" y="-7.5" font-family="Helvetica,sans-Serif" font-size="10.00" fill="#000000">string</text>
</a>
</g>
</g>
<!-- Node3&#45;&gt;Node5 -->
<g id="edge4" class="edge">
<title>Node3&#45;&gt;Node5</title>
<path fill="none" stroke="#191970" d="M148.926,-56.2455C144.5669,-48.617 138.3789,-37.7881 133.0867,-28.5267"/>
<polygon fill="#191970" stroke="#191970" points="136.0104,-26.5886 128.0101,-19.6427 129.9327,-30.0616 136.0104,-26.5886"/>
</g>
<!-- Node6 -->
<g id="node6" class="node">
<title>Node6</title>
<g id="a_node6"><a xlink:title=" ">
<polygon fill="#ffffff" stroke="#bfbfbf" points="161,-.5 161,-19.5 210,-19.5 210,-.5 161,-.5"/>
<text text-anchor="middle" x="185.5" y="-7.5" font-family="Helvetica,sans-Serif" font-size="10.00" fill="#000000">stdint.h</text>
</a>
</g>
</g>
<!-- Node3&#45;&gt;Node6 -->
<g id="edge5" class="edge">
<title>Node3&#45;&gt;Node6</title>
<path fill="none" stroke="#191970" d="M159.8998,-56.2455C164.1227,-48.617 170.1173,-37.7881 175.2441,-28.5267"/>
<polygon fill="#191970" stroke="#191970" points="178.381,-30.0867 180.1621,-19.6427 172.2568,-26.6965 178.381,-30.0867"/>
</g>
<!-- Node7 -->
<g id="node7" class="node">
<title>Node7</title>
<g id="a_node7"><a xlink:title=" ">
<polygon fill="#ffffff" stroke="#bfbfbf" points="228.5,-.5 228.5,-19.5 280.5,-19.5 280.5,-.5 228.5,-.5"/>
<text text-anchor="middle" x="254.5" y="-7.5" font-family="Helvetica,sans-Serif" font-size="10.00" fill="#000000">sstream</text>
</a>
</g>
</g>
<!-- Node3&#45;&gt;Node7 -->
<g id="edge6" class="edge">
<title>Node3&#45;&gt;Node7</title>
<path fill="none" stroke="#191970" d="M171.9187,-56.2455C187.5485,-47.4928 210.7019,-34.527 228.5185,-24.5496"/>
<polygon fill="#191970" stroke="#191970" points="230.266,-27.5825 237.2809,-19.6427 226.8457,-21.475 230.266,-27.5825"/>
</g>
</g>
</svg>
