<?xml version="1.0" encoding="UTF-8" standalone="no"?>
<!DOCTYPE svg PUBLIC "-//W3C//DTD SVG 1.1//EN"
 "http://www.w3.org/Graphics/SVG/1.1/DTD/svg11.dtd">
<!-- Generated by graphviz version 2.40.1 (20161225.0304)
 -->
<!-- Title: libbsn/src/model/Formula.cpp Pages: 1 -->
<svg width="300pt" height="140pt"
 viewBox="0.00 0.00 299.50 140.00" xmlns="http://www.w3.org/2000/svg" xmlns:xlink="http://www.w3.org/1999/xlink">
<g id="graph0" class="graph" transform="scale(1 1) rotate(0) translate(4 136)">
<title>libbsn/src/model/Formula.cpp</title>
<polygon fill="#ffffff" stroke="transparent" points="-4,4 -4,-136 295.5,-136 295.5,4 -4,4"/>
<!-- Node1 -->
<g id="node1" class="node">
<title>Node1</title>
<g id="a_node1"><a xlink:title=" ">
<polygon fill="#bfbfbf" stroke="#000000" points="63.5,-112.5 63.5,-131.5 208.5,-131.5 208.5,-112.5 63.5,-112.5"/>
<text text-anchor="middle" x="136" y="-119.5" font-family="Helvetica,sans-Serif" font-size="10.00" fill="#000000">libbsn/src/model/Formula.cpp</text>
</a>
</g>
</g>
<!-- Node2 -->
<g id="node2" class="node">
<title>Node2</title>
<g id="a_node2"><a xlink:href="Formula_8hpp.html" target="_top" xlink:title=" ">
<polygon fill="#ffffff" stroke="#000000" points="86,-56.5 86,-75.5 186,-75.5 186,-56.5 86,-56.5"/>
<text text-anchor="middle" x="136" y="-63.5" font-family="Helvetica,sans-Serif" font-size="10.00" fill="#000000">model/Formula.hpp</text>
</a>
</g>
</g>
<!-- Node1&#45;&gt;Node2 -->
<g id="edge1" class="edge">
<title>Node1&#45;&gt;Node2</title>
<path fill="none" stroke="#191970" d="M136,-112.2455C136,-104.9382 136,-94.6944 136,-85.7046"/>
<polygon fill="#191970" stroke="#191970" points="139.5001,-85.6426 136,-75.6427 132.5001,-85.6427 139.5001,-85.6426"/>
</g>
<!-- Node3 -->
<g id="node3" class="node">
<title>Node3</title>
<g id="a_node3"><a xlink:title=" ">
<polygon fill="#ffffff" stroke="#bfbfbf" points="0,-.5 0,-19.5 54,-19.5 54,-.5 0,-.5"/>
<text text-anchor="middle" x="27" y="-7.5" font-family="Helvetica,sans-Serif" font-size="10.00" fill="#000000">iostream</text>
</a>
</g>
</g>
<!-- Node2&#45;&gt;Node3 -->
<g id="edge2" class="edge">
<title>Node2&#45;&gt;Node3</title>
<path fill="none" stroke="#191970" d="M117.0136,-56.2455C99.8208,-47.4125 74.2762,-34.2887 54.7868,-24.2758"/>
<polygon fill="#191970" stroke="#191970" points="56.263,-21.0993 45.7688,-19.6427 53.0641,-27.3257 56.263,-21.0993"/>
</g>
<!-- Node4 -->
<g id="node4" class="node">
<title>Node4</title>
<g id="a_node4"><a xlink:title=" ">
<polygon fill="#ffffff" stroke="#bfbfbf" points="72.5,-.5 72.5,-19.5 131.5,-19.5 131.5,-.5 72.5,-.5"/>
<text text-anchor="middle" x="102" y="-7.5" font-family="Helvetica,sans-Serif" font-size="10.00" fill="#000000">stdexcept</text>
</a>
</g>
</g>
<!-- Node2&#45;&gt;Node4 -->
<g id="edge3" class="edge">
<title>Node2&#45;&gt;Node4</title>
<path fill="none" stroke="#191970" d="M130.0777,-56.2455C125.3973,-48.5367 118.7327,-37.5598 113.0711,-28.2348"/>
<polygon fill="#191970" stroke="#191970" points="116.0361,-26.3741 107.8545,-19.6427 110.0525,-30.007 116.0361,-26.3741"/>
</g>
<!-- Node5 -->
<g id="node5" class="node">
<title>Node5</title>
<g id="a_node5"><a xlink:title=" ">
<polygon fill="#ffffff" stroke="#bfbfbf" points="149.5,-.5 149.5,-19.5 190.5,-19.5 190.5,-.5 149.5,-.5"/>
<text text-anchor="middle" x="170" y="-7.5" font-family="Helvetica,sans-Serif" font-size="10.00" fill="#000000">string</text>
</a>
</g>
</g>
<!-- Node2&#45;&gt;Node5 -->
<g id="edge4" class="edge">
<title>Node2&#45;&gt;Node5</title>
<path fill="none" stroke="#191970" d="M141.9223,-56.2455C146.6027,-48.5367 153.2673,-37.5598 158.9289,-28.2348"/>
<polygon fill="#191970" stroke="#191970" points="161.9475,-30.007 164.1455,-19.6427 155.9639,-26.3741 161.9475,-30.007"/>
</g>
<!-- Node6 -->
<g id="node6" class="node">
<title>Node6</title>
<g id="a_node6"><a xlink:title=" ">
<polygon fill="#ffffff" stroke="#bfbfbf" points="208.5,-.5 208.5,-19.5 291.5,-19.5 291.5,-.5 208.5,-.5"/>
<text text-anchor="middle" x="250" y="-7.5" font-family="Helvetica,sans-Serif" font-size="10.00" fill="#000000">lepton/Lepton.h</text>
</a>
</g>
</g>
<!-- Node2&#45;&gt;Node6 -->
<g id="edge5" class="edge">
<title>Node2&#45;&gt;Node6</title>
<path fill="none" stroke="#191970" d="M155.5973,-56.3733C173.7331,-47.4644 200.9135,-34.1127 221.4587,-24.0203"/>
<polygon fill="#191970" stroke="#191970" points="223.2261,-27.0517 230.6584,-19.5011 220.1397,-20.7688 223.2261,-27.0517"/>
</g>
</g>
</svg>
