<?xml version="1.0" encoding="UTF-8" standalone="no"?>
<!DOCTYPE svg PUBLIC "-//W3C//DTD SVG 1.1//EN"
 "http://www.w3.org/Graphics/SVG/1.1/DTD/svg11.dtd">
<!-- Generated by graphviz version 2.40.1 (20161225.0304)
 -->
<!-- Title: libbsn/test/unit/model/FormulaTest.cpp Pages: 1 -->
<svg width="303pt" height="151pt"
 viewBox="0.00 0.00 303.00 151.00" xmlns="http://www.w3.org/2000/svg" xmlns:xlink="http://www.w3.org/1999/xlink">
<g id="graph0" class="graph" transform="scale(1 1) rotate(0) translate(4 147)">
<title>libbsn/test/unit/model/FormulaTest.cpp</title>
<polygon fill="#ffffff" stroke="transparent" points="-4,4 -4,-147 299,-147 299,4 -4,4"/>
<!-- Node1 -->
<g id="node1" class="node">
<title>Node1</title>
<g id="a_node1"><a xlink:title=" ">
<polygon fill="#bfbfbf" stroke="#000000" points="32.5,-112.5 32.5,-142.5 142.5,-142.5 142.5,-112.5 32.5,-112.5"/>
<text text-anchor="start" x="40.5" y="-130.5" font-family="Helvetica,sans-Serif" font-size="10.00" fill="#000000">libbsn/test/unit/model</text>
<text text-anchor="middle" x="87.5" y="-119.5" font-family="Helvetica,sans-Serif" font-size="10.00" fill="#000000">/FormulaTest.cpp</text>
</a>
</g>
</g>
<!-- Node2 -->
<g id="node2" class="node">
<title>Node2</title>
<g id="a_node2"><a xlink:title=" ">
<polygon fill="#ffffff" stroke="#bfbfbf" points="0,-56.5 0,-75.5 71,-75.5 71,-56.5 0,-56.5"/>
<text text-anchor="middle" x="35.5" y="-63.5" font-family="Helvetica,sans-Serif" font-size="10.00" fill="#000000">gtest/gtest.h</text>
</a>
</g>
</g>
<!-- Node1&#45;&gt;Node2 -->
<g id="edge1" class="edge">
<title>Node1&#45;&gt;Node2</title>
<path fill="none" stroke="#191970" d="M74.6461,-112.2977C67.2776,-103.5831 57.9974,-92.6075 50.3223,-83.5302"/>
<polygon fill="#191970" stroke="#191970" points="52.9552,-81.2233 43.8259,-75.8469 47.6098,-85.743 52.9552,-81.2233"/>
</g>
<!-- Node3 -->
<g id="node3" class="node">
<title>Node3</title>
<g id="a_node3"><a xlink:href="Formula_8hpp.html" target="_top" xlink:title=" ">
<polygon fill="#ffffff" stroke="#000000" points="89.5,-56.5 89.5,-75.5 189.5,-75.5 189.5,-56.5 89.5,-56.5"/>
<text text-anchor="middle" x="139.5" y="-63.5" font-family="Helvetica,sans-Serif" font-size="10.00" fill="#000000">model/Formula.hpp</text>
</a>
</g>
</g>
<!-- Node1&#45;&gt;Node3 -->
<g id="edge2" class="edge">
<title>Node1&#45;&gt;Node3</title>
<path fill="none" stroke="#191970" d="M100.3539,-112.2977C107.7224,-103.5831 117.0026,-92.6075 124.6777,-83.5302"/>
<polygon fill="#191970" stroke="#191970" points="127.3902,-85.743 131.1741,-75.8469 122.0448,-81.2233 127.3902,-85.743"/>
</g>
<!-- Node4 -->
<g id="node4" class="node">
<title>Node4</title>
<g id="a_node4"><a xlink:title=" ">
<polygon fill="#ffffff" stroke="#bfbfbf" points="3.5,-.5 3.5,-19.5 57.5,-19.5 57.5,-.5 3.5,-.5"/>
<text text-anchor="middle" x="30.5" y="-7.5" font-family="Helvetica,sans-Serif" font-size="10.00" fill="#000000">iostream</text>
</a>
</g>
</g>
<!-- Node3&#45;&gt;Node4 -->
<g id="edge3" class="edge">
<title>Node3&#45;&gt;Node4</title>
<path fill="none" stroke="#191970" d="M120.5136,-56.2455C103.3208,-47.4125 77.7762,-34.2887 58.2868,-24.2758"/>
<polygon fill="#191970" stroke="#191970" points="59.763,-21.0993 49.2688,-19.6427 56.5641,-27.3257 59.763,-21.0993"/>
</g>
<!-- Node5 -->
<g id="node5" class="node">
<title>Node5</title>
<g id="a_node5"><a xlink:title=" ">
<polygon fill="#ffffff" stroke="#bfbfbf" points="76,-.5 76,-19.5 135,-19.5 135,-.5 76,-.5"/>
<text text-anchor="middle" x="105.5" y="-7.5" font-family="Helvetica,sans-Serif" font-size="10.00" fill="#000000">stdexcept</text>
</a>
</g>
</g>
<!-- Node3&#45;&gt;Node5 -->
<g id="edge4" class="edge">
<title>Node3&#45;&gt;Node5</title>
<path fill="none" stroke="#191970" d="M133.5777,-56.2455C128.8973,-48.5367 122.2327,-37.5598 116.5711,-28.2348"/>
<polygon fill="#191970" stroke="#191970" points="119.5361,-26.3741 111.3545,-19.6427 113.5525,-30.007 119.5361,-26.3741"/>
</g>
<!-- Node6 -->
<g id="node6" class="node">
<title>Node6</title>
<g id="a_node6"><a xlink:title=" ">
<polygon fill="#ffffff" stroke="#bfbfbf" points="153,-.5 153,-19.5 194,-19.5 194,-.5 153,-.5"/>
<text text-anchor="middle" x="173.5" y="-7.5" font-family="Helvetica,sans-Serif" font-size="10.00" fill="#000000">string</text>
</a>
</g>
</g>
<!-- Node3&#45;&gt;Node6 -->
<g id="edge5" class="edge">
<title>Node3&#45;&gt;Node6</title>
<path fill="none" stroke="#191970" d="M145.4223,-56.2455C150.1027,-48.5367 156.7673,-37.5598 162.4289,-28.2348"/>
<polygon fill="#191970" stroke="#191970" points="165.4475,-30.007 167.6455,-19.6427 159.4639,-26.3741 165.4475,-30.007"/>
</g>
<!-- Node7 -->
<g id="node7" class="node">
<title>Node7</title>
<g id="a_node7"><a xlink:title=" ">
<polygon fill="#ffffff" stroke="#bfbfbf" points="212,-.5 212,-19.5 295,-19.5 295,-.5 212,-.5"/>
<text text-anchor="middle" x="253.5" y="-7.5" font-family="Helvetica,sans-Serif" font-size="10.00" fill="#000000">lepton/Lepton.h</text>
</a>
</g>
</g>
<!-- Node3&#45;&gt;Node7 -->
<g id="edge6" class="edge">
<title>Node3&#45;&gt;Node7</title>
<path fill="none" stroke="#191970" d="M159.0973,-56.3733C177.2331,-47.4644 204.4135,-34.1127 224.9587,-24.0203"/>
<polygon fill="#191970" stroke="#191970" points="226.7261,-27.0517 234.1584,-19.5011 223.6397,-20.7688 226.7261,-27.0517"/>
</g>
</g>
</svg>
