<?xml version="1.0" encoding="UTF-8" standalone="no"?>
<!DOCTYPE svg PUBLIC "-//W3C//DTD SVG 1.1//EN"
 "http://www.w3.org/Graphics/SVG/1.1/DTD/svg11.dtd">
<!-- Generated by graphviz version 2.40.1 (20161225.0304)
 -->
<!-- Title: TEST_F Pages: 1 -->
<svg width="381pt" height="88pt"
 viewBox="0.00 0.00 381.00 88.00" xmlns="http://www.w3.org/2000/svg" xmlns:xlink="http://www.w3.org/1999/xlink">
<g id="graph0" class="graph" transform="scale(1 1) rotate(0) translate(4 84)">
<title>TEST_F</title>
<polygon fill="#ffffff" stroke="transparent" points="-4,4 -4,-84 377,-84 377,4 -4,4"/>
<!-- Node1 -->
<g id="node1" class="node">
<title>Node1</title>
<g id="a_node1"><a xlink:title=" ">
<polygon fill="#bfbfbf" stroke="#000000" points="0,-30 0,-49 53,-49 53,-30 0,-30"/>
<text text-anchor="middle" x="26.5" y="-37" font-family="Helvetica,sans-Serif" font-size="10.00" fill="#000000">TEST_F</text>
</a>
</g>
</g>
<!-- Node2 -->
<g id="node2" class="node">
<title>Node2</title>
<g id="a_node2"><a xlink:href="classbsn_1_1model_1_1Formula.html#a2176bcc27c6b98a6c42291df882a33a2" target="_top" xlink:title=" ">
<polygon fill="#ffffff" stroke="#000000" points="89,-24.5 89,-54.5 195,-54.5 195,-24.5 89,-24.5"/>
<text text-anchor="start" x="97" y="-42.5" font-family="Helvetica,sans-Serif" font-size="10.00" fill="#000000">bsn::model::Formula</text>
<text text-anchor="middle" x="142" y="-31.5" font-family="Helvetica,sans-Serif" font-size="10.00" fill="#000000">::apply</text>
</a>
</g>
</g>
<!-- Node1&#45;&gt;Node2 -->
<g id="edge1" class="edge">
<title>Node1&#45;&gt;Node2</title>
<path fill="none" stroke="#191970" d="M53.2883,-39.5C61.0353,-39.5 69.8376,-39.5 78.8167,-39.5"/>
<polygon fill="#191970" stroke="#191970" points="78.9826,-43.0001 88.9826,-39.5 78.9825,-36.0001 78.9826,-43.0001"/>
</g>
<!-- Node3 -->
<g id="node3" class="node">
<title>Node3</title>
<g id="a_node3"><a xlink:href="classLepton_1_1CompiledExpression.html#a1b6464980813c53547fff1b6c0d5b36c" target="_top" xlink:title=" ">
<polygon fill="#ffffff" stroke="#000000" points="231,-49.5 231,-79.5 373,-79.5 373,-49.5 231,-49.5"/>
<text text-anchor="start" x="239" y="-67.5" font-family="Helvetica,sans-Serif" font-size="10.00" fill="#000000">Lepton::CompiledExpression</text>
<text text-anchor="middle" x="302" y="-56.5" font-family="Helvetica,sans-Serif" font-size="10.00" fill="#000000">::evaluate</text>
</a>
</g>
</g>
<!-- Node2&#45;&gt;Node3 -->
<g id="edge2" class="edge">
<title>Node2&#45;&gt;Node3</title>
<path fill="none" stroke="#191970" d="M195.2777,-47.8246C203.4451,-49.1008 212.0323,-50.4425 220.6404,-51.7876"/>
<polygon fill="#191970" stroke="#191970" points="220.311,-55.2785 230.7315,-53.3643 221.3917,-48.3624 220.311,-55.2785"/>
</g>
<!-- Node4 -->
<g id="node4" class="node">
<title>Node4</title>
<g id="a_node4"><a xlink:href="classLepton_1_1CompiledExpression.html#a57612cc314bf9d914949dea5ef50f2ed" target="_top" xlink:title=" ">
<polygon fill="#ffffff" stroke="#000000" points="231,-.5 231,-30.5 373,-30.5 373,-.5 231,-.5"/>
<text text-anchor="start" x="239" y="-18.5" font-family="Helvetica,sans-Serif" font-size="10.00" fill="#000000">Lepton::CompiledExpression</text>
<text text-anchor="middle" x="302" y="-7.5" font-family="Helvetica,sans-Serif" font-size="10.00" fill="#000000">::getVariableReference</text>
</a>
</g>
</g>
<!-- Node2&#45;&gt;Node4 -->
<g id="edge3" class="edge">
<title>Node2&#45;&gt;Node4</title>
<path fill="none" stroke="#191970" d="M195.2777,-31.5083C203.4451,-30.2832 212.0323,-28.9952 220.6404,-27.7039"/>
<polygon fill="#191970" stroke="#191970" points="221.3613,-31.135 230.7315,-26.1903 220.3229,-24.2125 221.3613,-31.135"/>
</g>
</g>
</svg>
