<?xml version="1.0" encoding="UTF-8" standalone="no"?>
<!DOCTYPE svg PUBLIC "-//W3C//DTD SVG 1.1//EN"
 "http://www.w3.org/Graphics/SVG/1.1/DTD/svg11.dtd">
<!-- Generated by graphviz version 2.40.1 (20161225.0304)
 -->
<!-- Title: src/target_system/components/component/apps/g3t1_1.cpp Pages: 1 -->
<svg width="1511pt" height="408pt"
 viewBox="0.00 0.00 1510.81 408.00" xmlns="http://www.w3.org/2000/svg" xmlns:xlink="http://www.w3.org/1999/xlink">
<g id="graph0" class="graph" transform="scale(1 1) rotate(0) translate(4 404)">
<title>src/target_system/components/component/apps/g3t1_1.cpp</title>
<polygon fill="#ffffff" stroke="transparent" points="-4,4 -4,-404 1506.8122,-404 1506.8122,4 -4,4"/>
<!-- Node1 -->
<g id="node1" class="node">
<title>Node1</title>
<g id="a_node1"><a xlink:title=" ">
<polygon fill="#bfbfbf" stroke="#000000" points="465.3122,-369.5 465.3122,-399.5 617.3122,-399.5 617.3122,-369.5 465.3122,-369.5"/>
<text text-anchor="start" x="473.3122" y="-387.5" font-family="Helvetica,sans-Serif" font-size="10.00" fill="#000000">src/target_system/components</text>
<text text-anchor="middle" x="541.3122" y="-376.5" font-family="Helvetica,sans-Serif" font-size="10.00" fill="#000000">/component/apps/g3t1_1.cpp</text>
</a>
</g>
</g>
<!-- Node2 -->
<g id="node2" class="node">
<title>Node2</title>
<g id="a_node2"><a xlink:href="G3T1__1_8hpp.html" target="_top" xlink:title=" ">
<polygon fill="#ffffff" stroke="#000000" points="479.3122,-302.5 479.3122,-332.5 603.3122,-332.5 603.3122,-302.5 479.3122,-302.5"/>
<text text-anchor="start" x="487.3122" y="-320.5" font-family="Helvetica,sans-Serif" font-size="10.00" fill="#000000">component/g3t1_1/G3T1</text>
<text text-anchor="middle" x="541.3122" y="-309.5" font-family="Helvetica,sans-Serif" font-size="10.00" fill="#000000">_1.hpp</text>
</a>
</g>
</g>
<!-- Node1&#45;&gt;Node2 -->
<g id="edge1" class="edge">
<title>Node1&#45;&gt;Node2</title>
<path fill="none" stroke="#191970" d="M541.3122,-369.2967C541.3122,-361.5013 541.3122,-351.7991 541.3122,-342.9064"/>
<polygon fill="#191970" stroke="#191970" points="544.8123,-342.6431 541.3122,-332.6432 537.8123,-342.6432 544.8123,-342.6431"/>
</g>
<!-- Node3 -->
<g id="node3" class="node">
<title>Node3</title>
<g id="a_node3"><a xlink:title=" ">
<polygon fill="#ffffff" stroke="#bfbfbf" points="542.8122,-.5 542.8122,-19.5 583.8122,-19.5 583.8122,-.5 542.8122,-.5"/>
<text text-anchor="middle" x="563.3122" y="-7.5" font-family="Helvetica,sans-Serif" font-size="10.00" fill="#000000">string</text>
</a>
</g>
</g>
<!-- Node2&#45;&gt;Node3 -->
<g id="edge2" class="edge">
<title>Node2&#45;&gt;Node3</title>
<path fill="none" stroke="#191970" d="M479.0178,-315.3545C348.395,-310.2857 55.0686,-295.7011 21.3122,-266 -6.9365,-241.145 2.3122,-221.1265 2.3122,-183.5 2.3122,-183.5 2.3122,-183.5 2.3122,-122 2.3122,-67.4638 415.2816,-24.063 532.5808,-12.8354"/>
<polygon fill="#191970" stroke="#191970" points="533.0552,-16.3062 542.6805,-11.8786 532.395,-9.3374 533.0552,-16.3062"/>
</g>
<!-- Node4 -->
<g id="node4" class="node">
<title>Node4</title>
<g id="a_node4"><a xlink:title=" ">
<polygon fill="#ffffff" stroke="#bfbfbf" points="30.8122,-241 30.8122,-260 89.8122,-260 89.8122,-241 30.8122,-241"/>
<text text-anchor="middle" x="60.3122" y="-248" font-family="Helvetica,sans-Serif" font-size="10.00" fill="#000000">exception</text>
</a>
</g>
</g>
<!-- Node2&#45;&gt;Node4 -->
<g id="edge3" class="edge">
<title>Node2&#45;&gt;Node4</title>
<path fill="none" stroke="#191970" d="M479.0558,-314.5024C393.6153,-309.4093 235.6564,-296.4768 104.3122,-266 100.8951,-265.2071 97.3747,-264.2388 93.8839,-263.1772"/>
<polygon fill="#191970" stroke="#191970" points="94.8272,-259.8031 84.2344,-260.0062 92.6419,-266.4532 94.8272,-259.8031"/>
</g>
<!-- Node5 -->
<g id="node5" class="node">
<title>Node5</title>
<g id="a_node5"><a xlink:title=" ">
<polygon fill="#ffffff" stroke="#bfbfbf" points="961.8122,-.5 961.8122,-19.5 1016.8122,-19.5 1016.8122,-.5 961.8122,-.5"/>
<text text-anchor="middle" x="989.3122" y="-7.5" font-family="Helvetica,sans-Serif" font-size="10.00" fill="#000000">ros/ros.h</text>
</a>
</g>
</g>
<!-- Node2&#45;&gt;Node5 -->
<g id="edge4" class="edge">
<title>Node2&#45;&gt;Node5</title>
<path fill="none" stroke="#191970" d="M603.7021,-314.9128C725.3637,-309.3083 989.9437,-294.2201 1076.3122,-266 1144.5991,-243.6879 1215.3122,-255.3397 1215.3122,-183.5 1215.3122,-183.5 1215.3122,-183.5 1215.3122,-122 1215.3122,-80.4338 1091.0265,-38.9238 1026.7899,-20.2454"/>
<polygon fill="#191970" stroke="#191970" points="1027.6014,-16.8371 1017.0242,-17.4471 1025.6732,-23.5663 1027.6014,-16.8371"/>
</g>
<!-- Node6 -->
<g id="node6" class="node">
<title>Node6</title>
<g id="a_node6"><a xlink:title=" ">
<polygon fill="#ffffff" stroke="#bfbfbf" points="60.3122,-174 60.3122,-193 186.3122,-193 186.3122,-174 60.3122,-174"/>
<text text-anchor="middle" x="123.3122" y="-181" font-family="Helvetica,sans-Serif" font-size="10.00" fill="#000000">bsn/resource/Battery.hpp</text>
</a>
</g>
</g>
<!-- Node2&#45;&gt;Node6 -->
<g id="edge5" class="edge">
<title>Node2&#45;&gt;Node6</title>
<path fill="none" stroke="#191970" d="M479.0129,-315.8464C385.4715,-312.2383 214.4479,-300.9311 165.3122,-266 144.1895,-250.9837 133.0128,-222.1523 127.633,-202.8674"/>
<polygon fill="#191970" stroke="#191970" points="130.9941,-201.8813 125.1589,-193.0381 124.2058,-203.59 130.9941,-201.8813"/>
</g>
<!-- Node7 -->
<g id="node7" class="node">
<title>Node7</title>
<g id="a_node7"><a xlink:title=" ">
<polygon fill="#ffffff" stroke="#bfbfbf" points="184.3122,-241 184.3122,-260 294.3122,-260 294.3122,-241 184.3122,-241"/>
<text text-anchor="middle" x="239.3122" y="-248" font-family="Helvetica,sans-Serif" font-size="10.00" fill="#000000">bsn/range/Range.hpp</text>
</a>
</g>
</g>
<!-- Node2&#45;&gt;Node7 -->
<g id="edge6" class="edge">
<title>Node2&#45;&gt;Node7</title>
<path fill="none" stroke="#191970" d="M479.081,-304.4699C431.0089,-294.2991 362.8559,-279.6505 303.3122,-266 298.3551,-264.8636 293.1884,-263.6541 288.0345,-262.4313"/>
<polygon fill="#191970" stroke="#191970" points="288.7373,-259.0007 278.1975,-260.0789 287.1092,-265.8088 288.7373,-259.0007"/>
</g>
<!-- Node8 -->
<g id="node8" class="node">
<title>Node8</title>
<g id="a_node8"><a xlink:title=" ">
<polygon fill="#ffffff" stroke="#bfbfbf" points="312.3122,-241 312.3122,-260 442.3122,-260 442.3122,-241 312.3122,-241"/>
<text text-anchor="middle" x="377.3122" y="-248" font-family="Helvetica,sans-Serif" font-size="10.00" fill="#000000">bsn/generator/Markov.hpp</text>
</a>
</g>
</g>
<!-- Node2&#45;&gt;Node8 -->
<g id="edge7" class="edge">
<title>Node2&#45;&gt;Node8</title>
<path fill="none" stroke="#191970" d="M504.5074,-302.4639C476.2465,-290.9183 437.5701,-275.1176 410.3075,-263.9798"/>
<polygon fill="#191970" stroke="#191970" points="411.4012,-260.6459 400.8203,-260.1039 408.7538,-267.126 411.4012,-260.6459"/>
</g>
<!-- Node9 -->
<g id="node9" class="node">
<title>Node9</title>
<g id="a_node9"><a xlink:title=" ">
<polygon fill="#ffffff" stroke="#bfbfbf" points="460.8122,-241 460.8122,-260 621.8122,-260 621.8122,-241 460.8122,-241"/>
<text text-anchor="middle" x="541.3122" y="-248" font-family="Helvetica,sans-Serif" font-size="10.00" fill="#000000">bsn/generator/DataGenerator.hpp</text>
</a>
</g>
</g>
<!-- Node2&#45;&gt;Node9 -->
<g id="edge8" class="edge">
<title>Node2&#45;&gt;Node9</title>
<path fill="none" stroke="#191970" d="M541.3122,-302.2967C541.3122,-292.7699 541.3122,-280.3954 541.3122,-270.1306"/>
<polygon fill="#191970" stroke="#191970" points="544.8123,-270.0549 541.3122,-260.055 537.8123,-270.055 544.8123,-270.0549"/>
</g>
<!-- Node10 -->
<g id="node10" class="node">
<title>Node10</title>
<g id="a_node10"><a xlink:title=" ">
<polygon fill="#ffffff" stroke="#bfbfbf" points="639.8122,-241 639.8122,-260 788.8122,-260 788.8122,-241 639.8122,-241"/>
<text text-anchor="middle" x="714.3122" y="-248" font-family="Helvetica,sans-Serif" font-size="10.00" fill="#000000">bsn/filters/MovingAverage.hpp</text>
</a>
</g>
</g>
<!-- Node2&#45;&gt;Node10 -->
<g id="edge9" class="edge">
<title>Node2&#45;&gt;Node10</title>
<path fill="none" stroke="#191970" d="M580.1367,-302.4639C610.1683,-290.8332 651.3497,-274.8843 680.1404,-263.7342"/>
<polygon fill="#191970" stroke="#191970" points="681.7076,-266.8806 689.7687,-260.0053 679.1795,-260.353 681.7076,-266.8806"/>
</g>
<!-- Node11 -->
<g id="node11" class="node">
<title>Node11</title>
<g id="a_node11"><a xlink:title=" ">
<polygon fill="#ffffff" stroke="#bfbfbf" points="226.8122,-174 226.8122,-193 319.8122,-193 319.8122,-174 226.8122,-174"/>
<text text-anchor="middle" x="273.3122" y="-181" font-family="Helvetica,sans-Serif" font-size="10.00" fill="#000000">bsn/utils/utils.hpp</text>
</a>
</g>
</g>
<!-- Node2&#45;&gt;Node11 -->
<g id="edge10" class="edge">
<title>Node2&#45;&gt;Node11</title>
<path fill="none" stroke="#191970" d="M478.9727,-313.1362C379.7212,-305.5481 194.912,-288.5509 175.3122,-266 151.2055,-238.2638 199.0449,-211.9625 235.9986,-196.7987"/>
<polygon fill="#191970" stroke="#191970" points="237.5734,-199.9397 245.5854,-193.0072 234.999,-193.4303 237.5734,-199.9397"/>
</g>
<!-- Node12 -->
<g id="node12" class="node">
<title>Node12</title>
<g id="a_node12"><a xlink:title=" ">
<polygon fill="#ffffff" stroke="#bfbfbf" points="941.8122,-235.5 941.8122,-265.5 1066.8122,-265.5 1066.8122,-235.5 941.8122,-235.5"/>
<text text-anchor="start" x="949.8122" y="-253.5" font-family="Helvetica,sans-Serif" font-size="10.00" fill="#000000">bsn/configuration/Sensor</text>
<text text-anchor="middle" x="1004.3122" y="-242.5" font-family="Helvetica,sans-Serif" font-size="10.00" fill="#000000">Configuration.hpp</text>
</a>
</g>
</g>
<!-- Node2&#45;&gt;Node12 -->
<g id="edge11" class="edge">
<title>Node2&#45;&gt;Node12</title>
<path fill="none" stroke="#191970" d="M603.3407,-310.9862C678.786,-302.6981 810.1886,-287.0895 931.7922,-266.1897"/>
<polygon fill="#191970" stroke="#191970" points="932.3941,-269.6376 941.6488,-264.4801 931.1978,-262.7406 932.3941,-269.6376"/>
</g>
<!-- Node13 -->
<g id="node13" class="node">
<title>Node13</title>
<g id="a_node13"><a xlink:href="Sensor_8hpp.html" target="_top" xlink:title=" ">
<polygon fill="#ffffff" stroke="#000000" points="806.8122,-241 806.8122,-260 923.8122,-260 923.8122,-241 806.8122,-241"/>
<text text-anchor="middle" x="865.3122" y="-248" font-family="Helvetica,sans-Serif" font-size="10.00" fill="#000000">component/Sensor.hpp</text>
</a>
</g>
</g>
<!-- Node2&#45;&gt;Node13 -->
<g id="edge12" class="edge">
<title>Node2&#45;&gt;Node13</title>
<path fill="none" stroke="#191970" d="M603.4756,-305.5774C655.5919,-295.4538 731.9243,-280.3276 798.3122,-266 803.7097,-264.8351 809.3439,-263.5852 814.9529,-262.3191"/>
<polygon fill="#191970" stroke="#191970" points="815.9933,-265.6718 824.9656,-260.0372 814.4378,-258.8468 815.9933,-265.6718"/>
</g>
<!-- Node26 -->
<g id="node26" class="node">
<title>Node26</title>
<g id="a_node26"><a xlink:title=" ">
<polygon fill="#ffffff" stroke="#bfbfbf" points="1243.3122,-241 1243.3122,-260 1359.3122,-260 1359.3122,-241 1243.3122,-241"/>
<text text-anchor="middle" x="1301.3122" y="-248" font-family="Helvetica,sans-Serif" font-size="10.00" fill="#000000">services/PatientData.h</text>
</a>
</g>
</g>
<!-- Node2&#45;&gt;Node26 -->
<g id="edge35" class="edge">
<title>Node2&#45;&gt;Node26</title>
<path fill="none" stroke="#191970" d="M603.7635,-315.6958C724.9455,-311.5614 1000.2151,-299.0745 1229.3122,-266 1236.7036,-264.9329 1244.47,-263.5459 1252.0557,-262.0406"/>
<polygon fill="#191970" stroke="#191970" points="1252.7925,-265.4623 1261.8769,-260.0103 1251.3754,-258.6073 1252.7925,-265.4623"/>
</g>
<!-- Node27 -->
<g id="node27" class="node">
<title>Node27</title>
<g id="a_node27"><a xlink:title=" ">
<polygon fill="#ffffff" stroke="#bfbfbf" points="1377.8122,-241 1377.8122,-260 1502.8122,-260 1502.8122,-241 1377.8122,-241"/>
<text text-anchor="middle" x="1440.3122" y="-248" font-family="Helvetica,sans-Serif" font-size="10.00" fill="#000000">messages/SensorData.h</text>
</a>
</g>
</g>
<!-- Node2&#45;&gt;Node27 -->
<g id="edge36" class="edge">
<title>Node2&#45;&gt;Node27</title>
<path fill="none" stroke="#191970" d="M603.3549,-316.8056C741.4426,-314.5681 1084.3723,-305.1789 1368.3122,-266 1375.7982,-264.9671 1383.6652,-263.5849 1391.3383,-262.0699"/>
<polygon fill="#191970" stroke="#191970" points="1392.1798,-265.47 1401.2653,-260.0198 1390.764,-258.6147 1392.1798,-265.47"/>
</g>
<!-- Node13&#45;&gt;Node3 -->
<g id="edge14" class="edge">
<title>Node13&#45;&gt;Node3</title>
<path fill="none" stroke="#191970" d="M826.4523,-240.9538C817.256,-238.8492 807.462,-236.7332 798.3122,-235 609.4725,-199.2282 487.5427,-290.1415 378.3122,-132 334.9202,-69.1781 469.9775,-30.441 532.891,-16.1996"/>
<polygon fill="#191970" stroke="#191970" points="533.6677,-19.6126 542.6842,-14.049 532.1662,-12.7755 533.6677,-19.6126"/>
</g>
<!-- Node13&#45;&gt;Node6 -->
<g id="edge33" class="edge">
<title>Node13&#45;&gt;Node6</title>
<path fill="none" stroke="#191970" d="M829.0085,-240.9492C819.1145,-238.6626 808.3545,-236.4625 798.3122,-235 542.2953,-197.7163 474.3897,-228.0837 217.3122,-199 206.9748,-197.8305 196.0427,-196.3 185.4321,-194.6565"/>
<polygon fill="#191970" stroke="#191970" points="185.8139,-191.1733 175.3874,-193.0542 184.7112,-198.0859 185.8139,-191.1733"/>
</g>
<!-- Node13&#45;&gt;Node11 -->
<g id="edge34" class="edge">
<title>Node13&#45;&gt;Node11</title>
<path fill="none" stroke="#191970" d="M828.6414,-240.9855C818.844,-238.727 808.2234,-236.5316 798.3122,-235 598.7134,-204.1547 545.1411,-228.3173 345.3122,-199 338.0932,-197.9409 330.5152,-196.5838 323.0968,-195.1143"/>
<polygon fill="#191970" stroke="#191970" points="323.6295,-191.6505 313.1286,-193.058 322.2152,-198.5062 323.6295,-191.6505"/>
</g>
<!-- Node14 -->
<g id="node14" class="node">
<title>Node14</title>
<g id="a_node14"><a xlink:title=" ">
<polygon fill="#ffffff" stroke="#bfbfbf" points="773.3122,-174 773.3122,-193 819.3122,-193 819.3122,-174 773.3122,-174"/>
<text text-anchor="middle" x="796.3122" y="-181" font-family="Helvetica,sans-Serif" font-size="10.00" fill="#000000">stdio.h</text>
</a>
</g>
</g>
<!-- Node13&#45;&gt;Node14 -->
<g id="edge13" class="edge">
<title>Node13&#45;&gt;Node14</title>
<path fill="none" stroke="#191970" d="M855.4261,-240.9005C844.5637,-230.353 826.9086,-213.2096 813.7165,-200.3998"/>
<polygon fill="#191970" stroke="#191970" points="815.7924,-197.537 806.1798,-193.0817 810.9159,-202.559 815.7924,-197.537"/>
</g>
<!-- Node15 -->
<g id="node15" class="node">
<title>Node15</title>
<g id="a_node15"><a xlink:title=" ">
<polygon fill="#ffffff" stroke="#bfbfbf" points="837.3122,-174 837.3122,-193 881.3122,-193 881.3122,-174 837.3122,-174"/>
<text text-anchor="middle" x="859.3122" y="-181" font-family="Helvetica,sans-Serif" font-size="10.00" fill="#000000">vector</text>
</a>
</g>
</g>
<!-- Node13&#45;&gt;Node15 -->
<g id="edge15" class="edge">
<title>Node13&#45;&gt;Node15</title>
<path fill="none" stroke="#191970" d="M864.4525,-240.9005C863.5792,-231.149 862.2011,-215.7597 861.0915,-203.3695"/>
<polygon fill="#191970" stroke="#191970" points="864.5483,-202.7296 860.1702,-193.0817 857.5762,-203.354 864.5483,-202.7296"/>
</g>
<!-- Node16 -->
<g id="node16" class="node">
<title>Node16</title>
<g id="a_node16"><a xlink:href="Component_8hpp.html" target="_top" xlink:title=" ">
<polygon fill="#ffffff" stroke="#000000" points="899.3122,-168.5 899.3122,-198.5 1009.3122,-198.5 1009.3122,-168.5 899.3122,-168.5"/>
<text text-anchor="start" x="907.3122" y="-186.5" font-family="Helvetica,sans-Serif" font-size="10.00" fill="#000000">archlib/target_system</text>
<text text-anchor="middle" x="954.3122" y="-175.5" font-family="Helvetica,sans-Serif" font-size="10.00" fill="#000000">/Component.hpp</text>
</a>
</g>
</g>
<!-- Node13&#45;&gt;Node16 -->
<g id="edge16" class="edge">
<title>Node13&#45;&gt;Node16</title>
<path fill="none" stroke="#191970" d="M878.0637,-240.9005C890.5884,-231.4718 910.1144,-216.7725 926.271,-204.6096"/>
<polygon fill="#191970" stroke="#191970" points="928.4737,-207.3324 934.3579,-198.5218 924.2636,-201.7399 928.4737,-207.3324"/>
</g>
<!-- Node20 -->
<g id="node20" class="node">
<title>Node20</title>
<g id="a_node20"><a xlink:title=" ">
<polygon fill="#ffffff" stroke="#bfbfbf" points="387.3122,-112.5 387.3122,-131.5 535.3122,-131.5 535.3122,-112.5 387.3122,-112.5"/>
<text text-anchor="middle" x="461.3122" y="-119.5" font-family="Helvetica,sans-Serif" font-size="10.00" fill="#000000">archlib/AdaptationCommand.h</text>
</a>
</g>
</g>
<!-- Node13&#45;&gt;Node20 -->
<g id="edge31" class="edge">
<title>Node13&#45;&gt;Node20</title>
<path fill="none" stroke="#191970" d="M824.217,-240.9609C815.6575,-238.983 806.6917,-236.9179 798.3122,-235 727.6831,-218.8346 708.1919,-221.4802 639.3122,-199 584.5998,-181.1436 523.5946,-152.8047 489.0915,-135.9421"/>
<polygon fill="#191970" stroke="#191970" points="490.6073,-132.7872 480.0898,-131.5085 487.5143,-139.0668 490.6073,-132.7872"/>
</g>
<!-- Node25 -->
<g id="node25" class="node">
<title>Node25</title>
<g id="a_node25"><a xlink:title=" ">
<polygon fill="#ffffff" stroke="#bfbfbf" points="647.8122,-174 647.8122,-193 754.8122,-193 754.8122,-174 647.8122,-174"/>
<text text-anchor="middle" x="701.3122" y="-181" font-family="Helvetica,sans-Serif" font-size="10.00" fill="#000000">archlib/Uncertainty.h</text>
</a>
</g>
</g>
<!-- Node13&#45;&gt;Node25 -->
<g id="edge32" class="edge">
<title>Node13&#45;&gt;Node25</title>
<path fill="none" stroke="#191970" d="M841.815,-240.9005C813.5614,-229.3579 765.973,-209.9163 734.1105,-196.8993"/>
<polygon fill="#191970" stroke="#191970" points="735.3467,-193.6236 724.7658,-193.0817 732.6993,-200.1037 735.3467,-193.6236"/>
</g>
<!-- Node16&#45;&gt;Node3 -->
<g id="edge17" class="edge">
<title>Node16&#45;&gt;Node3</title>
<path fill="none" stroke="#191970" d="M899.2437,-169.7158C896.2297,-169.1012 893.238,-168.5239 890.3122,-168 822.6977,-155.8937 632.9815,-179.4471 583.3122,-132 555.7446,-105.6659 556.804,-57.1417 560.0364,-29.8984"/>
<polygon fill="#191970" stroke="#191970" points="563.5506,-30.0424 561.4777,-19.6523 556.6188,-29.0673 563.5506,-30.0424"/>
</g>
<!-- Node16&#45;&gt;Node5 -->
<g id="edge19" class="edge">
<title>Node16&#45;&gt;Node5</title>
<path fill="none" stroke="#191970" d="M968.795,-168.184C976.8361,-158.596 986.053,-145.5269 990.3122,-132 1001.2348,-97.31 997.0556,-54.2715 993.119,-29.6889"/>
<polygon fill="#191970" stroke="#191970" points="996.5577,-29.0341 991.3825,-19.7893 989.6629,-30.2436 996.5577,-29.0341"/>
</g>
<!-- Node17 -->
<g id="node17" class="node">
<title>Node17</title>
<g id="a_node17"><a xlink:title=" ">
<polygon fill="#ffffff" stroke="#bfbfbf" points="1037.3122,-112.5 1037.3122,-131.5 1087.3122,-131.5 1087.3122,-112.5 1037.3122,-112.5"/>
<text text-anchor="middle" x="1062.3122" y="-119.5" font-family="Helvetica,sans-Serif" font-size="10.00" fill="#000000">signal.h</text>
</a>
</g>
</g>
<!-- Node16&#45;&gt;Node17 -->
<g id="edge18" class="edge">
<title>Node16&#45;&gt;Node17</title>
<path fill="none" stroke="#191970" d="M980.7319,-168.4554C997.8036,-158.734 1019.9024,-146.15 1036.7931,-136.5317"/>
<polygon fill="#191970" stroke="#191970" points="1038.6181,-139.5202 1045.576,-131.5303 1035.1542,-133.4373 1038.6181,-139.5202"/>
</g>
<!-- Node18 -->
<g id="node18" class="node">
<title>Node18</title>
<g id="a_node18"><a xlink:title=" ">
<polygon fill="#ffffff" stroke="#bfbfbf" points="1105.3122,-112.5 1105.3122,-131.5 1187.3122,-131.5 1187.3122,-112.5 1105.3122,-112.5"/>
<text text-anchor="middle" x="1146.3122" y="-119.5" font-family="Helvetica,sans-Serif" font-size="10.00" fill="#000000">archlib/Event.h</text>
</a>
</g>
</g>
<!-- Node16&#45;&gt;Node18 -->
<g id="edge20" class="edge">
<title>Node16&#45;&gt;Node18</title>
<path fill="none" stroke="#191970" d="M1001.2806,-168.4554C1033.5973,-158.104 1076.0473,-144.5067 1106.662,-134.7004"/>
<polygon fill="#191970" stroke="#191970" points="1108.1033,-137.914 1116.559,-131.5303 1105.9679,-131.2477 1108.1033,-137.914"/>
</g>
<!-- Node19 -->
<g id="node19" class="node">
<title>Node19</title>
<g id="a_node19"><a xlink:title=" ">
<polygon fill="#ffffff" stroke="#bfbfbf" points="591.8122,-112.5 591.8122,-131.5 676.8122,-131.5 676.8122,-112.5 591.8122,-112.5"/>
<text text-anchor="middle" x="634.3122" y="-119.5" font-family="Helvetica,sans-Serif" font-size="10.00" fill="#000000">archlib/Status.h</text>
</a>
</g>
</g>
<!-- Node16&#45;&gt;Node19 -->
<g id="edge21" class="edge">
<title>Node16&#45;&gt;Node19</title>
<path fill="none" stroke="#191970" d="M899.204,-169.9205C896.2003,-169.2531 893.2216,-168.6084 890.3122,-168 803.274,-149.7992 778.5272,-148.7469 686.8587,-132.0698"/>
<polygon fill="#191970" stroke="#191970" points="687.3364,-128.5991 676.8693,-130.2391 686.0745,-135.4844 687.3364,-128.5991"/>
</g>
<!-- Node16&#45;&gt;Node20 -->
<g id="edge22" class="edge">
<title>Node16&#45;&gt;Node20</title>
<path fill="none" stroke="#191970" d="M899.2509,-169.6748C896.2351,-169.0708 893.241,-168.507 890.3122,-168 740.1474,-142.0071 700.8028,-148.6037 549.3122,-132 548.204,-131.8785 547.0881,-131.756 545.9656,-131.6324"/>
<polygon fill="#191970" stroke="#191970" points="546.0492,-128.1203 535.7247,-130.4981 545.2786,-135.0778 546.0492,-128.1203"/>
</g>
<!-- Node21 -->
<g id="node21" class="node">
<title>Node21</title>
<g id="a_node21"><a xlink:title=" ">
<polygon fill="#ffffff" stroke="#bfbfbf" points="695.3122,-112.5 695.3122,-131.5 823.3122,-131.5 823.3122,-112.5 695.3122,-112.5"/>
<text text-anchor="middle" x="759.3122" y="-119.5" font-family="Helvetica,sans-Serif" font-size="10.00" fill="#000000">archlib/EffectorRegister.h</text>
</a>
</g>
</g>
<!-- Node16&#45;&gt;Node21 -->
<g id="edge23" class="edge">
<title>Node16&#45;&gt;Node21</title>
<path fill="none" stroke="#191970" d="M906.6098,-168.4554C873.6454,-158.059 830.2998,-144.3884 799.1769,-134.5727"/>
<polygon fill="#191970" stroke="#191970" points="800.1199,-131.2003 789.5302,-131.5303 798.0144,-137.8761 800.1199,-131.2003"/>
</g>
<!-- Node22 -->
<g id="node22" class="node">
<title>Node22</title>
<g id="a_node22"><a xlink:href="ROSComponent_8hpp.html" target="_top" xlink:title=" ">
<polygon fill="#ffffff" stroke="#000000" points="841.8122,-112.5 841.8122,-131.5 980.8122,-131.5 980.8122,-112.5 841.8122,-112.5"/>
<text text-anchor="middle" x="911.3122" y="-119.5" font-family="Helvetica,sans-Serif" font-size="10.00" fill="#000000">archlib/ROSComponent.hpp</text>
</a>
</g>
</g>
<!-- Node16&#45;&gt;Node22 -->
<g id="edge24" class="edge">
<title>Node16&#45;&gt;Node22</title>
<path fill="none" stroke="#191970" d="M943.6829,-168.2977C937.7141,-159.7609 930.2283,-149.0545 923.9593,-140.0883"/>
<polygon fill="#191970" stroke="#191970" points="926.7956,-138.0368 918.197,-131.8469 921.0588,-142.048 926.7956,-138.0368"/>
</g>
<!-- Node22&#45;&gt;Node3 -->
<g id="edge25" class="edge">
<title>Node22&#45;&gt;Node3</title>
<path fill="none" stroke="#191970" d="M847.3266,-112.4752C787.1992,-103.0402 701.8761,-88.2661 670.3122,-76 637.7365,-63.3407 604.05,-40.6964 583.3871,-25.5108"/>
<polygon fill="#191970" stroke="#191970" points="585.4732,-22.7004 575.3701,-19.5102 581.2787,-28.3045 585.4732,-22.7004"/>
</g>
<!-- Node22&#45;&gt;Node5 -->
<g id="edge27" class="edge">
<title>Node22&#45;&gt;Node5</title>
<path fill="none" stroke="#191970" d="M920.5002,-112.1681C928.7494,-103.1151 940.9637,-89.1372 950.3122,-76 961.2408,-60.6422 972.0136,-42.0773 979.4583,-28.5542"/>
<polygon fill="#191970" stroke="#191970" points="982.5602,-30.1761 984.2456,-19.7162 976.4052,-26.8421 982.5602,-30.1761"/>
</g>
<!-- Node23 -->
<g id="node23" class="node">
<title>Node23</title>
<g id="a_node23"><a xlink:title=" ">
<polygon fill="#ffffff" stroke="#bfbfbf" points="881.8122,-56.5 881.8122,-75.5 940.8122,-75.5 940.8122,-56.5 881.8122,-56.5"/>
<text text-anchor="middle" x="911.3122" y="-63.5" font-family="Helvetica,sans-Serif" font-size="10.00" fill="#000000">stdexcept</text>
</a>
</g>
</g>
<!-- Node22&#45;&gt;Node23 -->
<g id="edge26" class="edge">
<title>Node22&#45;&gt;Node23</title>
<path fill="none" stroke="#191970" d="M911.3122,-112.2455C911.3122,-104.9382 911.3122,-94.6944 911.3122,-85.7046"/>
<polygon fill="#191970" stroke="#191970" points="914.8123,-85.6426 911.3122,-75.6427 907.8123,-85.6427 914.8123,-85.6426"/>
</g>
<!-- Node24 -->
<g id="node24" class="node">
<title>Node24</title>
<g id="a_node24"><a xlink:href="ROSComponentDescriptor_8hpp.html" target="_top" xlink:title=" ">
<polygon fill="#ffffff" stroke="#000000" points="679.3122,-56.5 679.3122,-75.5 863.3122,-75.5 863.3122,-56.5 679.3122,-56.5"/>
<text text-anchor="middle" x="771.3122" y="-63.5" font-family="Helvetica,sans-Serif" font-size="10.00" fill="#000000">archlib/ROSComponentDescriptor.hpp</text>
</a>
</g>
</g>
<!-- Node22&#45;&gt;Node24 -->
<g id="edge28" class="edge">
<title>Node22&#45;&gt;Node24</title>
<path fill="none" stroke="#191970" d="M887.2453,-112.3733C864.4693,-103.2629 830.0778,-89.5062 804.6631,-79.3404"/>
<polygon fill="#191970" stroke="#191970" points="805.6496,-75.9654 795.065,-75.5011 803.0498,-82.4648 805.6496,-75.9654"/>
</g>
<!-- Node24&#45;&gt;Node3 -->
<g id="edge29" class="edge">
<title>Node24&#45;&gt;Node3</title>
<path fill="none" stroke="#191970" d="M735.5557,-56.3733C695.6354,-45.6255 631.697,-28.4113 593.9734,-18.255"/>
<polygon fill="#191970" stroke="#191970" points="594.6364,-14.8089 584.0703,-15.5887 592.8166,-21.5682 594.6364,-14.8089"/>
</g>
<!-- Node24&#45;&gt;Node5 -->
<g id="edge30" class="edge">
<title>Node24&#45;&gt;Node5</title>
<path fill="none" stroke="#191970" d="M808.7877,-56.3733C848.7676,-46.1032 911.7325,-29.9287 951.7468,-19.6498"/>
<polygon fill="#191970" stroke="#191970" points="952.8297,-22.9854 961.6444,-17.1073 951.088,-16.2055 952.8297,-22.9854"/>
</g>
</g>
</svg>
