<?xml version="1.0" encoding="UTF-8" standalone="no"?>
<!DOCTYPE svg PUBLIC "-//W3C//DTD SVG 1.1//EN"
 "http://www.w3.org/Graphics/SVG/1.1/DTD/svg11.dtd">
<!-- Generated by graphviz version 2.40.1 (20161225.0304)
 -->
<!-- Title: src/target_system/components/component/include/component/g3t1_1/G3T1_1.hpp Pages: 1 -->
<svg width="1511pt" height="352pt"
 viewBox="0.00 0.00 1510.78 352.00" xmlns="http://www.w3.org/2000/svg" xmlns:xlink="http://www.w3.org/1999/xlink">
<g id="graph0" class="graph" transform="scale(1 1) rotate(0) translate(4 348)">
<title>src/target_system/components/component/include/component/g3t1_1/G3T1_1.hpp</title>
<polygon fill="#ffffff" stroke="transparent" points="-4,4 -4,-348 1506.7796,-348 1506.7796,4 -4,4"/>
<!-- Node1 -->
<g id="node1" class="node">
<title>Node1</title>
<g id="a_node1"><a xlink:title=" ">
<polygon fill="#bfbfbf" stroke="#000000" points="465.2796,-302.5 465.2796,-343.5 617.2796,-343.5 617.2796,-302.5 465.2796,-302.5"/>
<text text-anchor="start" x="473.2796" y="-331.5" font-family="Helvetica,sans-Serif" font-size="10.00" fill="#000000">src/target_system/components</text>
<text text-anchor="start" x="473.2796" y="-320.5" font-family="Helvetica,sans-Serif" font-size="10.00" fill="#000000">/component/include/component</text>
<text text-anchor="middle" x="541.2796" y="-309.5" font-family="Helvetica,sans-Serif" font-size="10.00" fill="#000000">/g3t1_1/G3T1_1.hpp</text>
</a>
</g>
</g>
<!-- Node2 -->
<g id="node2" class="node">
<title>Node2</title>
<g id="a_node2"><a xlink:title=" ">
<polygon fill="#ffffff" stroke="#bfbfbf" points="542.7796,-.5 542.7796,-19.5 583.7796,-19.5 583.7796,-.5 542.7796,-.5"/>
<text text-anchor="middle" x="563.2796" y="-7.5" font-family="Helvetica,sans-Serif" font-size="10.00" fill="#000000">string</text>
</a>
</g>
</g>
<!-- Node1&#45;&gt;Node2 -->
<g id="edge1" class="edge">
<title>Node1&#45;&gt;Node2</title>
<path fill="none" stroke="#191970" d="M465.0718,-319.4703C328.631,-312.4544 53.7716,-294.8916 21.2796,-266 -6.8387,-240.9976 2.2796,-221.1265 2.2796,-183.5 2.2796,-183.5 2.2796,-183.5 2.2796,-122 2.2796,-67.4638 415.249,-24.063 532.5482,-12.8354"/>
<polygon fill="#191970" stroke="#191970" points="533.0226,-16.3062 542.6479,-11.8786 532.3624,-9.3374 533.0226,-16.3062"/>
</g>
<!-- Node3 -->
<g id="node3" class="node">
<title>Node3</title>
<g id="a_node3"><a xlink:title=" ">
<polygon fill="#ffffff" stroke="#bfbfbf" points="30.7796,-241 30.7796,-260 89.7796,-260 89.7796,-241 30.7796,-241"/>
<text text-anchor="middle" x="60.2796" y="-248" font-family="Helvetica,sans-Serif" font-size="10.00" fill="#000000">exception</text>
</a>
</g>
</g>
<!-- Node1&#45;&gt;Node3 -->
<g id="edge2" class="edge">
<title>Node1&#45;&gt;Node3</title>
<path fill="none" stroke="#191970" d="M465.0103,-317.9052C377.1061,-310.9192 228.7503,-295.696 104.2796,-266 101.0496,-265.2294 97.7257,-264.3081 94.4207,-263.304"/>
<polygon fill="#191970" stroke="#191970" points="95.2682,-259.8987 84.6755,-260.1119 93.0891,-266.5509 95.2682,-259.8987"/>
</g>
<!-- Node4 -->
<g id="node4" class="node">
<title>Node4</title>
<g id="a_node4"><a xlink:title=" ">
<polygon fill="#ffffff" stroke="#bfbfbf" points="961.7796,-.5 961.7796,-19.5 1016.7796,-19.5 1016.7796,-.5 961.7796,-.5"/>
<text text-anchor="middle" x="989.2796" y="-7.5" font-family="Helvetica,sans-Serif" font-size="10.00" fill="#000000">ros/ros.h</text>
</a>
</g>
</g>
<!-- Node1&#45;&gt;Node4 -->
<g id="edge3" class="edge">
<title>Node1&#45;&gt;Node4</title>
<path fill="none" stroke="#191970" d="M617.3388,-318.9035C744.1493,-311.4059 993.0692,-293.6576 1076.2796,-266 1144.4521,-243.3407 1215.2796,-255.3397 1215.2796,-183.5 1215.2796,-183.5 1215.2796,-183.5 1215.2796,-122 1215.2796,-80.4338 1090.9939,-38.9238 1026.7573,-20.2454"/>
<polygon fill="#191970" stroke="#191970" points="1027.5688,-16.8371 1016.9916,-17.4471 1025.6406,-23.5663 1027.5688,-16.8371"/>
</g>
<!-- Node5 -->
<g id="node5" class="node">
<title>Node5</title>
<g id="a_node5"><a xlink:title=" ">
<polygon fill="#ffffff" stroke="#bfbfbf" points="60.2796,-174 60.2796,-193 186.2796,-193 186.2796,-174 60.2796,-174"/>
<text text-anchor="middle" x="123.2796" y="-181" font-family="Helvetica,sans-Serif" font-size="10.00" fill="#000000">bsn/resource/Battery.hpp</text>
</a>
</g>
</g>
<!-- Node1&#45;&gt;Node5 -->
<g id="edge4" class="edge">
<title>Node1&#45;&gt;Node5</title>
<path fill="none" stroke="#191970" d="M465.0091,-319.5735C369.2714,-313.9091 211.9227,-299.6648 165.2796,-266 144.265,-250.8327 133.0603,-222.0406 127.6448,-202.8054"/>
<polygon fill="#191970" stroke="#191970" points="131.0088,-201.8322 125.1504,-193.0044 124.2251,-203.5588 131.0088,-201.8322"/>
</g>
<!-- Node6 -->
<g id="node6" class="node">
<title>Node6</title>
<g id="a_node6"><a xlink:title=" ">
<polygon fill="#ffffff" stroke="#bfbfbf" points="184.2796,-241 184.2796,-260 294.2796,-260 294.2796,-241 184.2796,-241"/>
<text text-anchor="middle" x="239.2796" y="-248" font-family="Helvetica,sans-Serif" font-size="10.00" fill="#000000">bsn/range/Range.hpp</text>
</a>
</g>
</g>
<!-- Node1&#45;&gt;Node6 -->
<g id="edge5" class="edge">
<title>Node1&#45;&gt;Node6</title>
<path fill="none" stroke="#191970" d="M465.1663,-304.8233C418.445,-293.6527 357.3915,-279.0324 303.2796,-266 298.5281,-264.8557 293.5788,-263.6613 288.6303,-262.4654"/>
<polygon fill="#191970" stroke="#191970" points="289.08,-258.9734 278.5375,-260.0245 287.4344,-265.7772 289.08,-258.9734"/>
</g>
<!-- Node7 -->
<g id="node7" class="node">
<title>Node7</title>
<g id="a_node7"><a xlink:title=" ">
<polygon fill="#ffffff" stroke="#bfbfbf" points="312.2796,-241 312.2796,-260 442.2796,-260 442.2796,-241 312.2796,-241"/>
<text text-anchor="middle" x="377.2796" y="-248" font-family="Helvetica,sans-Serif" font-size="10.00" fill="#000000">bsn/generator/Markov.hpp</text>
</a>
</g>
</g>
<!-- Node1&#45;&gt;Node7 -->
<g id="edge6" class="edge">
<title>Node1&#45;&gt;Node7</title>
<path fill="none" stroke="#191970" d="M494.7224,-302.4183C467.0897,-290.2027 432.8077,-275.0475 408.4307,-264.2711"/>
<polygon fill="#191970" stroke="#191970" points="409.5236,-260.9275 398.9623,-260.0853 406.6933,-267.3298 409.5236,-260.9275"/>
</g>
<!-- Node8 -->
<g id="node8" class="node">
<title>Node8</title>
<g id="a_node8"><a xlink:title=" ">
<polygon fill="#ffffff" stroke="#bfbfbf" points="460.7796,-241 460.7796,-260 621.7796,-260 621.7796,-241 460.7796,-241"/>
<text text-anchor="middle" x="541.2796" y="-248" font-family="Helvetica,sans-Serif" font-size="10.00" fill="#000000">bsn/generator/DataGenerator.hpp</text>
</a>
</g>
</g>
<!-- Node1&#45;&gt;Node8 -->
<g id="edge7" class="edge">
<title>Node1&#45;&gt;Node8</title>
<path fill="none" stroke="#191970" d="M541.2796,-302.4183C541.2796,-292.32 541.2796,-280.213 541.2796,-270.2314"/>
<polygon fill="#191970" stroke="#191970" points="544.7796,-270.0853 541.2796,-260.0853 537.7796,-270.0854 544.7796,-270.0853"/>
</g>
<!-- Node9 -->
<g id="node9" class="node">
<title>Node9</title>
<g id="a_node9"><a xlink:title=" ">
<polygon fill="#ffffff" stroke="#bfbfbf" points="639.7796,-241 639.7796,-260 788.7796,-260 788.7796,-241 639.7796,-241"/>
<text text-anchor="middle" x="714.2796" y="-248" font-family="Helvetica,sans-Serif" font-size="10.00" fill="#000000">bsn/filters/MovingAverage.hpp</text>
</a>
</g>
</g>
<!-- Node1&#45;&gt;Node9 -->
<g id="edge8" class="edge">
<title>Node1&#45;&gt;Node9</title>
<path fill="none" stroke="#191970" d="M590.3917,-302.4183C619.7999,-290.0941 656.3476,-274.7779 682.1021,-263.9848"/>
<polygon fill="#191970" stroke="#191970" points="683.5368,-267.1785 691.4069,-260.0853 680.8313,-260.7225 683.5368,-267.1785"/>
</g>
<!-- Node10 -->
<g id="node10" class="node">
<title>Node10</title>
<g id="a_node10"><a xlink:title=" ">
<polygon fill="#ffffff" stroke="#bfbfbf" points="226.7796,-174 226.7796,-193 319.7796,-193 319.7796,-174 226.7796,-174"/>
<text text-anchor="middle" x="273.2796" y="-181" font-family="Helvetica,sans-Serif" font-size="10.00" fill="#000000">bsn/utils/utils.hpp</text>
</a>
</g>
</g>
<!-- Node1&#45;&gt;Node10 -->
<g id="edge9" class="edge">
<title>Node1&#45;&gt;Node10</title>
<path fill="none" stroke="#191970" d="M465.2361,-316.4035C363.5682,-306.8028 193.8928,-287.7364 175.2796,-266 151.4439,-238.1649 198.8925,-211.9832 235.7355,-196.8582"/>
<polygon fill="#191970" stroke="#191970" points="237.2884,-200.0079 245.3,-193.0751 234.7136,-193.4986 237.2884,-200.0079"/>
</g>
<!-- Node11 -->
<g id="node11" class="node">
<title>Node11</title>
<g id="a_node11"><a xlink:title=" ">
<polygon fill="#ffffff" stroke="#bfbfbf" points="941.7796,-235.5 941.7796,-265.5 1066.7796,-265.5 1066.7796,-235.5 941.7796,-235.5"/>
<text text-anchor="start" x="949.7796" y="-253.5" font-family="Helvetica,sans-Serif" font-size="10.00" fill="#000000">bsn/configuration/Sensor</text>
<text text-anchor="middle" x="1004.2796" y="-242.5" font-family="Helvetica,sans-Serif" font-size="10.00" fill="#000000">Configuration.hpp</text>
</a>
</g>
</g>
<!-- Node1&#45;&gt;Node11 -->
<g id="edge10" class="edge">
<title>Node1&#45;&gt;Node11</title>
<path fill="none" stroke="#191970" d="M617.4189,-313.5466C694.35,-303.6273 816.8239,-286.8325 931.5936,-266.2429"/>
<polygon fill="#191970" stroke="#191970" points="932.3897,-269.6558 941.6078,-264.433 931.1447,-262.7674 932.3897,-269.6558"/>
</g>
<!-- Node12 -->
<g id="node12" class="node">
<title>Node12</title>
<g id="a_node12"><a xlink:href="Sensor_8hpp.html" target="_top" xlink:title=" ">
<polygon fill="#ffffff" stroke="#000000" points="806.7796,-241 806.7796,-260 923.7796,-260 923.7796,-241 806.7796,-241"/>
<text text-anchor="middle" x="865.2796" y="-248" font-family="Helvetica,sans-Serif" font-size="10.00" fill="#000000">component/Sensor.hpp</text>
</a>
</g>
</g>
<!-- Node1&#45;&gt;Node12 -->
<g id="edge11" class="edge">
<title>Node1&#45;&gt;Node12</title>
<path fill="none" stroke="#191970" d="M617.5079,-306.2835C668.6645,-295.0184 737.5493,-279.7591 798.2796,-266 803.5194,-264.8129 808.9873,-263.5641 814.4413,-262.3122"/>
<polygon fill="#191970" stroke="#191970" points="815.2311,-265.722 824.1909,-260.0677 813.6606,-258.9004 815.2311,-265.722"/>
</g>
<!-- Node25 -->
<g id="node25" class="node">
<title>Node25</title>
<g id="a_node25"><a xlink:title=" ">
<polygon fill="#ffffff" stroke="#bfbfbf" points="1243.2796,-241 1243.2796,-260 1359.2796,-260 1359.2796,-241 1243.2796,-241"/>
<text text-anchor="middle" x="1301.2796" y="-248" font-family="Helvetica,sans-Serif" font-size="10.00" fill="#000000">services/PatientData.h</text>
</a>
</g>
</g>
<!-- Node1&#45;&gt;Node25 -->
<g id="edge34" class="edge">
<title>Node1&#45;&gt;Node25</title>
<path fill="none" stroke="#191970" d="M617.4942,-319.9105C744.7888,-314.03 1008.4711,-298.7739 1229.2796,-266 1236.4967,-264.9288 1244.0737,-263.565 1251.4916,-262.0923"/>
<polygon fill="#191970" stroke="#191970" points="1252.3741,-265.484 1261.4596,-260.0338 1250.9583,-258.6287 1252.3741,-265.484"/>
</g>
<!-- Node26 -->
<g id="node26" class="node">
<title>Node26</title>
<g id="a_node26"><a xlink:title=" ">
<polygon fill="#ffffff" stroke="#bfbfbf" points="1377.7796,-241 1377.7796,-260 1502.7796,-260 1502.7796,-241 1377.7796,-241"/>
<text text-anchor="middle" x="1440.2796" y="-248" font-family="Helvetica,sans-Serif" font-size="10.00" fill="#000000">messages/SensorData.h</text>
</a>
</g>
</g>
<!-- Node1&#45;&gt;Node26 -->
<g id="edge35" class="edge">
<title>Node1&#45;&gt;Node26</title>
<path fill="none" stroke="#191970" d="M617.4827,-321.3913C763.7254,-317.4994 1093.6102,-304.8269 1368.2796,-266 1375.6741,-264.9547 1383.4422,-263.5796 1391.0287,-262.0795"/>
<polygon fill="#191970" stroke="#191970" points="1391.7641,-265.5016 1400.8504,-260.0528 1390.3494,-258.646 1391.7641,-265.5016"/>
</g>
<!-- Node12&#45;&gt;Node2 -->
<g id="edge13" class="edge">
<title>Node12&#45;&gt;Node2</title>
<path fill="none" stroke="#191970" d="M826.4197,-240.9538C817.2234,-238.8492 807.4294,-236.7332 798.2796,-235 609.4399,-199.2282 487.5101,-290.1415 378.2796,-132 334.8876,-69.1781 469.9449,-30.441 532.8584,-16.1996"/>
<polygon fill="#191970" stroke="#191970" points="533.6351,-19.6126 542.6516,-14.049 532.1336,-12.7755 533.6351,-19.6126"/>
</g>
<!-- Node12&#45;&gt;Node5 -->
<g id="edge32" class="edge">
<title>Node12&#45;&gt;Node5</title>
<path fill="none" stroke="#191970" d="M828.9759,-240.9492C819.0819,-238.6626 808.3219,-236.4625 798.2796,-235 542.2627,-197.7163 474.3571,-228.0837 217.2796,-199 206.9422,-197.8305 196.0101,-196.3 185.3995,-194.6565"/>
<polygon fill="#191970" stroke="#191970" points="185.7813,-191.1733 175.3548,-193.0542 184.6786,-198.0859 185.7813,-191.1733"/>
</g>
<!-- Node12&#45;&gt;Node10 -->
<g id="edge33" class="edge">
<title>Node12&#45;&gt;Node10</title>
<path fill="none" stroke="#191970" d="M828.6088,-240.9855C818.8114,-238.727 808.1908,-236.5316 798.2796,-235 598.6808,-204.1547 545.1085,-228.3173 345.2796,-199 338.0606,-197.9409 330.4826,-196.5838 323.0642,-195.1143"/>
<polygon fill="#191970" stroke="#191970" points="323.5969,-191.6505 313.096,-193.058 322.1826,-198.5062 323.5969,-191.6505"/>
</g>
<!-- Node13 -->
<g id="node13" class="node">
<title>Node13</title>
<g id="a_node13"><a xlink:title=" ">
<polygon fill="#ffffff" stroke="#bfbfbf" points="773.2796,-174 773.2796,-193 819.2796,-193 819.2796,-174 773.2796,-174"/>
<text text-anchor="middle" x="796.2796" y="-181" font-family="Helvetica,sans-Serif" font-size="10.00" fill="#000000">stdio.h</text>
</a>
</g>
</g>
<!-- Node12&#45;&gt;Node13 -->
<g id="edge12" class="edge">
<title>Node12&#45;&gt;Node13</title>
<path fill="none" stroke="#191970" d="M855.3935,-240.9005C844.5311,-230.353 826.876,-213.2096 813.6839,-200.3998"/>
<polygon fill="#191970" stroke="#191970" points="815.7598,-197.537 806.1472,-193.0817 810.8833,-202.559 815.7598,-197.537"/>
</g>
<!-- Node14 -->
<g id="node14" class="node">
<title>Node14</title>
<g id="a_node14"><a xlink:title=" ">
<polygon fill="#ffffff" stroke="#bfbfbf" points="837.2796,-174 837.2796,-193 881.2796,-193 881.2796,-174 837.2796,-174"/>
<text text-anchor="middle" x="859.2796" y="-181" font-family="Helvetica,sans-Serif" font-size="10.00" fill="#000000">vector</text>
</a>
</g>
</g>
<!-- Node12&#45;&gt;Node14 -->
<g id="edge14" class="edge">
<title>Node12&#45;&gt;Node14</title>
<path fill="none" stroke="#191970" d="M864.4199,-240.9005C863.5466,-231.149 862.1685,-215.7597 861.0589,-203.3695"/>
<polygon fill="#191970" stroke="#191970" points="864.5157,-202.7296 860.1376,-193.0817 857.5436,-203.354 864.5157,-202.7296"/>
</g>
<!-- Node15 -->
<g id="node15" class="node">
<title>Node15</title>
<g id="a_node15"><a xlink:href="Component_8hpp.html" target="_top" xlink:title=" ">
<polygon fill="#ffffff" stroke="#000000" points="899.2796,-168.5 899.2796,-198.5 1009.2796,-198.5 1009.2796,-168.5 899.2796,-168.5"/>
<text text-anchor="start" x="907.2796" y="-186.5" font-family="Helvetica,sans-Serif" font-size="10.00" fill="#000000">archlib/target_system</text>
<text text-anchor="middle" x="954.2796" y="-175.5" font-family="Helvetica,sans-Serif" font-size="10.00" fill="#000000">/Component.hpp</text>
</a>
</g>
</g>
<!-- Node12&#45;&gt;Node15 -->
<g id="edge15" class="edge">
<title>Node12&#45;&gt;Node15</title>
<path fill="none" stroke="#191970" d="M878.0311,-240.9005C890.5558,-231.4718 910.0818,-216.7725 926.2384,-204.6096"/>
<polygon fill="#191970" stroke="#191970" points="928.4411,-207.3324 934.3253,-198.5218 924.231,-201.7399 928.4411,-207.3324"/>
</g>
<!-- Node19 -->
<g id="node19" class="node">
<title>Node19</title>
<g id="a_node19"><a xlink:title=" ">
<polygon fill="#ffffff" stroke="#bfbfbf" points="387.2796,-112.5 387.2796,-131.5 535.2796,-131.5 535.2796,-112.5 387.2796,-112.5"/>
<text text-anchor="middle" x="461.2796" y="-119.5" font-family="Helvetica,sans-Serif" font-size="10.00" fill="#000000">archlib/AdaptationCommand.h</text>
</a>
</g>
</g>
<!-- Node12&#45;&gt;Node19 -->
<g id="edge30" class="edge">
<title>Node12&#45;&gt;Node19</title>
<path fill="none" stroke="#191970" d="M824.1844,-240.9609C815.6249,-238.983 806.6591,-236.9179 798.2796,-235 727.6505,-218.8346 708.1593,-221.4802 639.2796,-199 584.5672,-181.1436 523.562,-152.8047 489.0589,-135.9421"/>
<polygon fill="#191970" stroke="#191970" points="490.5747,-132.7872 480.0572,-131.5085 487.4817,-139.0668 490.5747,-132.7872"/>
</g>
<!-- Node24 -->
<g id="node24" class="node">
<title>Node24</title>
<g id="a_node24"><a xlink:title=" ">
<polygon fill="#ffffff" stroke="#bfbfbf" points="647.7796,-174 647.7796,-193 754.7796,-193 754.7796,-174 647.7796,-174"/>
<text text-anchor="middle" x="701.2796" y="-181" font-family="Helvetica,sans-Serif" font-size="10.00" fill="#000000">archlib/Uncertainty.h</text>
</a>
</g>
</g>
<!-- Node12&#45;&gt;Node24 -->
<g id="edge31" class="edge">
<title>Node12&#45;&gt;Node24</title>
<path fill="none" stroke="#191970" d="M841.7823,-240.9005C813.5288,-229.3579 765.9404,-209.9163 734.0778,-196.8993"/>
<polygon fill="#191970" stroke="#191970" points="735.3141,-193.6236 724.7332,-193.0817 732.6667,-200.1037 735.3141,-193.6236"/>
</g>
<!-- Node15&#45;&gt;Node2 -->
<g id="edge16" class="edge">
<title>Node15&#45;&gt;Node2</title>
<path fill="none" stroke="#191970" d="M899.2111,-169.7158C896.1971,-169.1012 893.2054,-168.5239 890.2796,-168 822.6651,-155.8937 632.9489,-179.4471 583.2796,-132 555.712,-105.6659 556.7713,-57.1417 560.0038,-29.8984"/>
<polygon fill="#191970" stroke="#191970" points="563.518,-30.0424 561.4451,-19.6523 556.5862,-29.0673 563.518,-30.0424"/>
</g>
<!-- Node15&#45;&gt;Node4 -->
<g id="edge18" class="edge">
<title>Node15&#45;&gt;Node4</title>
<path fill="none" stroke="#191970" d="M968.7624,-168.184C976.8035,-158.596 986.0204,-145.5269 990.2796,-132 1001.2022,-97.31 997.023,-54.2715 993.0864,-29.6889"/>
<polygon fill="#191970" stroke="#191970" points="996.5251,-29.0341 991.3499,-19.7893 989.6303,-30.2436 996.5251,-29.0341"/>
</g>
<!-- Node16 -->
<g id="node16" class="node">
<title>Node16</title>
<g id="a_node16"><a xlink:title=" ">
<polygon fill="#ffffff" stroke="#bfbfbf" points="1037.2796,-112.5 1037.2796,-131.5 1087.2796,-131.5 1087.2796,-112.5 1037.2796,-112.5"/>
<text text-anchor="middle" x="1062.2796" y="-119.5" font-family="Helvetica,sans-Serif" font-size="10.00" fill="#000000">signal.h</text>
</a>
</g>
</g>
<!-- Node15&#45;&gt;Node16 -->
<g id="edge17" class="edge">
<title>Node15&#45;&gt;Node16</title>
<path fill="none" stroke="#191970" d="M980.6993,-168.4554C997.771,-158.734 1019.8698,-146.15 1036.7605,-136.5317"/>
<polygon fill="#191970" stroke="#191970" points="1038.5855,-139.5202 1045.5434,-131.5303 1035.1216,-133.4373 1038.5855,-139.5202"/>
</g>
<!-- Node17 -->
<g id="node17" class="node">
<title>Node17</title>
<g id="a_node17"><a xlink:title=" ">
<polygon fill="#ffffff" stroke="#bfbfbf" points="1105.2796,-112.5 1105.2796,-131.5 1187.2796,-131.5 1187.2796,-112.5 1105.2796,-112.5"/>
<text text-anchor="middle" x="1146.2796" y="-119.5" font-family="Helvetica,sans-Serif" font-size="10.00" fill="#000000">archlib/Event.h</text>
</a>
</g>
</g>
<!-- Node15&#45;&gt;Node17 -->
<g id="edge19" class="edge">
<title>Node15&#45;&gt;Node17</title>
<path fill="none" stroke="#191970" d="M1001.248,-168.4554C1033.5647,-158.104 1076.0147,-144.5067 1106.6294,-134.7004"/>
<polygon fill="#191970" stroke="#191970" points="1108.0707,-137.914 1116.5264,-131.5303 1105.9353,-131.2477 1108.0707,-137.914"/>
</g>
<!-- Node18 -->
<g id="node18" class="node">
<title>Node18</title>
<g id="a_node18"><a xlink:title=" ">
<polygon fill="#ffffff" stroke="#bfbfbf" points="591.7796,-112.5 591.7796,-131.5 676.7796,-131.5 676.7796,-112.5 591.7796,-112.5"/>
<text text-anchor="middle" x="634.2796" y="-119.5" font-family="Helvetica,sans-Serif" font-size="10.00" fill="#000000">archlib/Status.h</text>
</a>
</g>
</g>
<!-- Node15&#45;&gt;Node18 -->
<g id="edge20" class="edge">
<title>Node15&#45;&gt;Node18</title>
<path fill="none" stroke="#191970" d="M899.1714,-169.9205C896.1677,-169.2531 893.189,-168.6084 890.2796,-168 803.2414,-149.7992 778.4946,-148.7469 686.8261,-132.0698"/>
<polygon fill="#191970" stroke="#191970" points="687.3038,-128.5991 676.8367,-130.2391 686.0419,-135.4844 687.3038,-128.5991"/>
</g>
<!-- Node15&#45;&gt;Node19 -->
<g id="edge21" class="edge">
<title>Node15&#45;&gt;Node19</title>
<path fill="none" stroke="#191970" d="M899.2183,-169.6748C896.2025,-169.0708 893.2084,-168.507 890.2796,-168 740.1148,-142.0071 700.7702,-148.6037 549.2796,-132 548.1714,-131.8785 547.0555,-131.756 545.933,-131.6324"/>
<polygon fill="#191970" stroke="#191970" points="546.0166,-128.1203 535.6921,-130.4981 545.246,-135.0778 546.0166,-128.1203"/>
</g>
<!-- Node20 -->
<g id="node20" class="node">
<title>Node20</title>
<g id="a_node20"><a xlink:title=" ">
<polygon fill="#ffffff" stroke="#bfbfbf" points="695.2796,-112.5 695.2796,-131.5 823.2796,-131.5 823.2796,-112.5 695.2796,-112.5"/>
<text text-anchor="middle" x="759.2796" y="-119.5" font-family="Helvetica,sans-Serif" font-size="10.00" fill="#000000">archlib/EffectorRegister.h</text>
</a>
</g>
</g>
<!-- Node15&#45;&gt;Node20 -->
<g id="edge22" class="edge">
<title>Node15&#45;&gt;Node20</title>
<path fill="none" stroke="#191970" d="M906.5772,-168.4554C873.6128,-158.059 830.2672,-144.3884 799.1443,-134.5727"/>
<polygon fill="#191970" stroke="#191970" points="800.0873,-131.2003 789.4976,-131.5303 797.9818,-137.8761 800.0873,-131.2003"/>
</g>
<!-- Node21 -->
<g id="node21" class="node">
<title>Node21</title>
<g id="a_node21"><a xlink:href="ROSComponent_8hpp.html" target="_top" xlink:title=" ">
<polygon fill="#ffffff" stroke="#000000" points="841.7796,-112.5 841.7796,-131.5 980.7796,-131.5 980.7796,-112.5 841.7796,-112.5"/>
<text text-anchor="middle" x="911.2796" y="-119.5" font-family="Helvetica,sans-Serif" font-size="10.00" fill="#000000">archlib/ROSComponent.hpp</text>
</a>
</g>
</g>
<!-- Node15&#45;&gt;Node21 -->
<g id="edge23" class="edge">
<title>Node15&#45;&gt;Node21</title>
<path fill="none" stroke="#191970" d="M943.6503,-168.2977C937.6815,-159.7609 930.1957,-149.0545 923.9267,-140.0883"/>
<polygon fill="#191970" stroke="#191970" points="926.763,-138.0368 918.1644,-131.8469 921.0262,-142.048 926.763,-138.0368"/>
</g>
<!-- Node21&#45;&gt;Node2 -->
<g id="edge24" class="edge">
<title>Node21&#45;&gt;Node2</title>
<path fill="none" stroke="#191970" d="M847.294,-112.4752C787.1666,-103.0402 701.8435,-88.2661 670.2796,-76 637.7039,-63.3407 604.0174,-40.6964 583.3545,-25.5108"/>
<polygon fill="#191970" stroke="#191970" points="585.4406,-22.7004 575.3375,-19.5102 581.2461,-28.3045 585.4406,-22.7004"/>
</g>
<!-- Node21&#45;&gt;Node4 -->
<g id="edge26" class="edge">
<title>Node21&#45;&gt;Node4</title>
<path fill="none" stroke="#191970" d="M920.4676,-112.1681C928.7168,-103.1151 940.9311,-89.1372 950.2796,-76 961.2082,-60.6422 971.981,-42.0773 979.4257,-28.5542"/>
<polygon fill="#191970" stroke="#191970" points="982.5276,-30.1761 984.213,-19.7162 976.3725,-26.8421 982.5276,-30.1761"/>
</g>
<!-- Node22 -->
<g id="node22" class="node">
<title>Node22</title>
<g id="a_node22"><a xlink:title=" ">
<polygon fill="#ffffff" stroke="#bfbfbf" points="881.7796,-56.5 881.7796,-75.5 940.7796,-75.5 940.7796,-56.5 881.7796,-56.5"/>
<text text-anchor="middle" x="911.2796" y="-63.5" font-family="Helvetica,sans-Serif" font-size="10.00" fill="#000000">stdexcept</text>
</a>
</g>
</g>
<!-- Node21&#45;&gt;Node22 -->
<g id="edge25" class="edge">
<title>Node21&#45;&gt;Node22</title>
<path fill="none" stroke="#191970" d="M911.2796,-112.2455C911.2796,-104.9382 911.2796,-94.6944 911.2796,-85.7046"/>
<polygon fill="#191970" stroke="#191970" points="914.7797,-85.6426 911.2796,-75.6427 907.7797,-85.6427 914.7797,-85.6426"/>
</g>
<!-- Node23 -->
<g id="node23" class="node">
<title>Node23</title>
<g id="a_node23"><a xlink:href="ROSComponentDescriptor_8hpp.html" target="_top" xlink:title=" ">
<polygon fill="#ffffff" stroke="#000000" points="679.2796,-56.5 679.2796,-75.5 863.2796,-75.5 863.2796,-56.5 679.2796,-56.5"/>
<text text-anchor="middle" x="771.2796" y="-63.5" font-family="Helvetica,sans-Serif" font-size="10.00" fill="#000000">archlib/ROSComponentDescriptor.hpp</text>
</a>
</g>
</g>
<!-- Node21&#45;&gt;Node23 -->
<g id="edge27" class="edge">
<title>Node21&#45;&gt;Node23</title>
<path fill="none" stroke="#191970" d="M887.2127,-112.3733C864.4367,-103.2629 830.0451,-89.5062 804.6305,-79.3404"/>
<polygon fill="#191970" stroke="#191970" points="805.617,-75.9654 795.0324,-75.5011 803.0172,-82.4648 805.617,-75.9654"/>
</g>
<!-- Node23&#45;&gt;Node2 -->
<g id="edge28" class="edge">
<title>Node23&#45;&gt;Node2</title>
<path fill="none" stroke="#191970" d="M735.5231,-56.3733C695.6028,-45.6255 631.6644,-28.4113 593.9408,-18.255"/>
<polygon fill="#191970" stroke="#191970" points="594.6038,-14.8089 584.0377,-15.5887 592.784,-21.5682 594.6038,-14.8089"/>
</g>
<!-- Node23&#45;&gt;Node4 -->
<g id="edge29" class="edge">
<title>Node23&#45;&gt;Node4</title>
<path fill="none" stroke="#191970" d="M808.7551,-56.3733C848.735,-46.1032 911.6999,-29.9287 951.7142,-19.6498"/>
<polygon fill="#191970" stroke="#191970" points="952.7971,-22.9854 961.6118,-17.1073 951.0554,-16.2055 952.7971,-22.9854"/>
</g>
</g>
</svg>
