<?xml version="1.0" encoding="UTF-8" standalone="no"?>
<!DOCTYPE svg PUBLIC "-//W3C//DTD SVG 1.1//EN"
 "http://www.w3.org/Graphics/SVG/1.1/DTD/svg11.dtd">
<!-- Generated by graphviz version 2.40.1 (20161225.0304)
 -->
<!-- Title: src/target_system/components/component/include/component/g3t1_2/G3T1_2.hpp Pages: 1 -->
<svg width="1621pt" height="352pt"
 viewBox="0.00 0.00 1621.29 352.00" xmlns="http://www.w3.org/2000/svg" xmlns:xlink="http://www.w3.org/1999/xlink">
<g id="graph0" class="graph" transform="scale(1 1) rotate(0) translate(4 348)">
<title>src/target_system/components/component/include/component/g3t1_2/G3T1_2.hpp</title>
<polygon fill="#ffffff" stroke="transparent" points="-4,4 -4,-348 1617.2897,-348 1617.2897,4 -4,4"/>
<!-- Node1 -->
<g id="node1" class="node">
<title>Node1</title>
<g id="a_node1"><a xlink:title=" ">
<polygon fill="#bfbfbf" stroke="#000000" points="481.2897,-302.5 481.2897,-343.5 633.2897,-343.5 633.2897,-302.5 481.2897,-302.5"/>
<text text-anchor="start" x="489.2897" y="-331.5" font-family="Helvetica,sans-Serif" font-size="10.00" fill="#000000">src/target_system/components</text>
<text text-anchor="start" x="489.2897" y="-320.5" font-family="Helvetica,sans-Serif" font-size="10.00" fill="#000000">/component/include/component</text>
<text text-anchor="middle" x="557.2897" y="-309.5" font-family="Helvetica,sans-Serif" font-size="10.00" fill="#000000">/g3t1_2/G3T1_2.hpp</text>
</a>
</g>
</g>
<!-- Node2 -->
<g id="node2" class="node">
<title>Node2</title>
<g id="a_node2"><a xlink:title=" ">
<polygon fill="#ffffff" stroke="#bfbfbf" points="652.7897,-.5 652.7897,-19.5 693.7897,-19.5 693.7897,-.5 652.7897,-.5"/>
<text text-anchor="middle" x="673.2897" y="-7.5" font-family="Helvetica,sans-Serif" font-size="10.00" fill="#000000">string</text>
</a>
</g>
</g>
<!-- Node1&#45;&gt;Node2 -->
<g id="edge1" class="edge">
<title>Node1&#45;&gt;Node2</title>
<path fill="none" stroke="#191970" d="M481.2076,-319.7453C341.4537,-313.0709 55.0148,-295.8905 21.2897,-266 -6.869,-241.0431 2.2897,-221.1265 2.2897,-183.5 2.2897,-183.5 2.2897,-183.5 2.2897,-122 2.2897,-56.2339 510.2529,-20.1235 642.2508,-11.8502"/>
<polygon fill="#191970" stroke="#191970" points="642.7072,-15.3287 652.4722,-11.2184 642.2753,-8.3421 642.7072,-15.3287"/>
</g>
<!-- Node3 -->
<g id="node3" class="node">
<title>Node3</title>
<g id="a_node3"><a xlink:title=" ">
<polygon fill="#ffffff" stroke="#bfbfbf" points="30.7897,-241 30.7897,-260 89.7897,-260 89.7897,-241 30.7897,-241"/>
<text text-anchor="middle" x="60.2897" y="-248" font-family="Helvetica,sans-Serif" font-size="10.00" fill="#000000">exception</text>
</a>
</g>
</g>
<!-- Node1&#45;&gt;Node3 -->
<g id="edge2" class="edge">
<title>Node1&#45;&gt;Node3</title>
<path fill="none" stroke="#191970" d="M481.0656,-318.3939C390.3225,-311.7699 234.6622,-296.792 104.2897,-266 101.058,-265.2367 97.7328,-264.3204 94.4271,-263.3195"/>
<polygon fill="#191970" stroke="#191970" points="95.2733,-259.9139 84.6807,-260.1322 93.0975,-266.5672 95.2733,-259.9139"/>
</g>
<!-- Node4 -->
<g id="node4" class="node">
<title>Node4</title>
<g id="a_node4"><a xlink:title=" ">
<polygon fill="#ffffff" stroke="#bfbfbf" points="1071.7897,-.5 1071.7897,-19.5 1126.7897,-19.5 1126.7897,-.5 1071.7897,-.5"/>
<text text-anchor="middle" x="1099.2897" y="-7.5" font-family="Helvetica,sans-Serif" font-size="10.00" fill="#000000">ros/ros.h</text>
</a>
</g>
</g>
<!-- Node1&#45;&gt;Node4 -->
<g id="edge3" class="edge">
<title>Node1&#45;&gt;Node4</title>
<path fill="none" stroke="#191970" d="M633.3829,-317.1302C827.3891,-301.1491 1325.2897,-253.3326 1325.2897,-183.5 1325.2897,-183.5 1325.2897,-183.5 1325.2897,-122 1325.2897,-80.4338 1201.004,-38.9238 1136.7674,-20.2454"/>
<polygon fill="#191970" stroke="#191970" points="1137.5789,-16.8371 1127.0017,-17.4471 1135.6507,-23.5663 1137.5789,-16.8371"/>
</g>
<!-- Node5 -->
<g id="node5" class="node">
<title>Node5</title>
<g id="a_node5"><a xlink:title=" ">
<polygon fill="#ffffff" stroke="#bfbfbf" points="146.7897,-241 146.7897,-260 307.7897,-260 307.7897,-241 146.7897,-241"/>
<text text-anchor="middle" x="227.2897" y="-248" font-family="Helvetica,sans-Serif" font-size="10.00" fill="#000000">bsn/generator/DataGenerator.hpp</text>
</a>
</g>
</g>
<!-- Node1&#45;&gt;Node5 -->
<g id="edge4" class="edge">
<title>Node1&#45;&gt;Node5</title>
<path fill="none" stroke="#191970" d="M481.1666,-306.276C419.7036,-292.7728 334.7884,-274.1171 280.4486,-262.1789"/>
<polygon fill="#191970" stroke="#191970" points="281.1887,-258.7581 270.6705,-260.0307 279.6866,-265.595 281.1887,-258.7581"/>
</g>
<!-- Node6 -->
<g id="node6" class="node">
<title>Node6</title>
<g id="a_node6"><a xlink:title=" ">
<polygon fill="#ffffff" stroke="#bfbfbf" points="326.2897,-241 326.2897,-260 436.2897,-260 436.2897,-241 326.2897,-241"/>
<text text-anchor="middle" x="381.2897" y="-248" font-family="Helvetica,sans-Serif" font-size="10.00" fill="#000000">bsn/range/Range.hpp</text>
</a>
</g>
</g>
<!-- Node1&#45;&gt;Node6 -->
<g id="edge5" class="edge">
<title>Node1&#45;&gt;Node6</title>
<path fill="none" stroke="#191970" d="M507.3259,-302.4183C477.4077,-290.0941 440.2262,-274.7779 414.0251,-263.9848"/>
<polygon fill="#191970" stroke="#191970" points="415.1383,-260.658 404.5589,-260.0853 412.472,-267.1304 415.1383,-260.658"/>
</g>
<!-- Node7 -->
<g id="node7" class="node">
<title>Node7</title>
<g id="a_node7"><a xlink:title=" ">
<polygon fill="#ffffff" stroke="#bfbfbf" points="114.2897,-174 114.2897,-193 240.2897,-193 240.2897,-174 114.2897,-174"/>
<text text-anchor="middle" x="177.2897" y="-181" font-family="Helvetica,sans-Serif" font-size="10.00" fill="#000000">bsn/resource/Battery.hpp</text>
</a>
</g>
</g>
<!-- Node1&#45;&gt;Node7 -->
<g id="edge6" class="edge">
<title>Node1&#45;&gt;Node7</title>
<path fill="none" stroke="#191970" d="M481.1251,-318.0258C366.225,-309.7367 159.5269,-291.459 137.2897,-266 120.2181,-246.4551 141.1129,-218.345 158.5407,-200.5057"/>
<polygon fill="#191970" stroke="#191970" points="161.4269,-202.581 166.1552,-193.0997 156.5464,-197.563 161.4269,-202.581"/>
</g>
<!-- Node8 -->
<g id="node8" class="node">
<title>Node8</title>
<g id="a_node8"><a xlink:title=" ">
<polygon fill="#ffffff" stroke="#bfbfbf" points="492.2897,-241 492.2897,-260 622.2897,-260 622.2897,-241 492.2897,-241"/>
<text text-anchor="middle" x="557.2897" y="-248" font-family="Helvetica,sans-Serif" font-size="10.00" fill="#000000">bsn/generator/Markov.hpp</text>
</a>
</g>
</g>
<!-- Node1&#45;&gt;Node8 -->
<g id="edge7" class="edge">
<title>Node1&#45;&gt;Node8</title>
<path fill="none" stroke="#191970" d="M557.2897,-302.4183C557.2897,-292.32 557.2897,-280.213 557.2897,-270.2314"/>
<polygon fill="#191970" stroke="#191970" points="560.7897,-270.0853 557.2897,-260.0853 553.7897,-270.0854 560.7897,-270.0853"/>
</g>
<!-- Node9 -->
<g id="node9" class="node">
<title>Node9</title>
<g id="a_node9"><a xlink:title=" ">
<polygon fill="#ffffff" stroke="#bfbfbf" points="640.7897,-241 640.7897,-260 789.7897,-260 789.7897,-241 640.7897,-241"/>
<text text-anchor="middle" x="715.2897" y="-248" font-family="Helvetica,sans-Serif" font-size="10.00" fill="#000000">bsn/filters/MovingAverage.hpp</text>
</a>
</g>
</g>
<!-- Node1&#45;&gt;Node9 -->
<g id="edge8" class="edge">
<title>Node1&#45;&gt;Node9</title>
<path fill="none" stroke="#191970" d="M602.1435,-302.4183C628.7652,-290.2027 661.793,-275.0475 685.2781,-264.2711"/>
<polygon fill="#191970" stroke="#191970" points="686.7711,-267.437 694.4002,-260.0853 683.8517,-261.0748 686.7711,-267.437"/>
</g>
<!-- Node10 -->
<g id="node10" class="node">
<title>Node10</title>
<g id="a_node10"><a xlink:title=" ">
<polygon fill="#ffffff" stroke="#bfbfbf" points="347.7897,-174 347.7897,-193 440.7897,-193 440.7897,-174 347.7897,-174"/>
<text text-anchor="middle" x="394.2897" y="-181" font-family="Helvetica,sans-Serif" font-size="10.00" fill="#000000">bsn/utils/utils.hpp</text>
</a>
</g>
</g>
<!-- Node1&#45;&gt;Node10 -->
<g id="edge9" class="edge">
<title>Node1&#45;&gt;Node10</title>
<path fill="none" stroke="#191970" d="M529.4067,-302.4703C515.3377,-291.8749 498.1492,-278.5652 483.2897,-266 457.4797,-244.1752 429.0662,-217.3048 411.4486,-200.2839"/>
<polygon fill="#191970" stroke="#191970" points="413.7749,-197.6642 404.1618,-193.21 408.8991,-202.6868 413.7749,-197.6642"/>
</g>
<!-- Node11 -->
<g id="node11" class="node">
<title>Node11</title>
<g id="a_node11"><a xlink:title=" ">
<polygon fill="#ffffff" stroke="#bfbfbf" points="942.7897,-235.5 942.7897,-265.5 1067.7897,-265.5 1067.7897,-235.5 942.7897,-235.5"/>
<text text-anchor="start" x="950.7897" y="-253.5" font-family="Helvetica,sans-Serif" font-size="10.00" fill="#000000">bsn/configuration/Sensor</text>
<text text-anchor="middle" x="1005.2897" y="-242.5" font-family="Helvetica,sans-Serif" font-size="10.00" fill="#000000">Configuration.hpp</text>
</a>
</g>
</g>
<!-- Node1&#45;&gt;Node11 -->
<g id="edge10" class="edge">
<title>Node1&#45;&gt;Node11</title>
<path fill="none" stroke="#191970" d="M633.3514,-312.9763C707.4306,-302.8775 823.4219,-286.1757 932.7363,-266.2285"/>
<polygon fill="#191970" stroke="#191970" points="933.4115,-269.6631 942.6144,-264.4136 932.1465,-262.7783 933.4115,-269.6631"/>
</g>
<!-- Node12 -->
<g id="node12" class="node">
<title>Node12</title>
<g id="a_node12"><a xlink:href="Sensor_8hpp.html" target="_top" xlink:title=" ">
<polygon fill="#ffffff" stroke="#000000" points="807.7897,-241 807.7897,-260 924.7897,-260 924.7897,-241 807.7897,-241"/>
<text text-anchor="middle" x="866.2897" y="-248" font-family="Helvetica,sans-Serif" font-size="10.00" fill="#000000">component/Sensor.hpp</text>
</a>
</g>
</g>
<!-- Node1&#45;&gt;Node12 -->
<g id="edge11" class="edge">
<title>Node1&#45;&gt;Node12</title>
<path fill="none" stroke="#191970" d="M633.6717,-305.0786C690.5195,-291.7406 766.5152,-273.9099 815.9258,-262.3168"/>
<polygon fill="#191970" stroke="#191970" points="816.8084,-265.7048 825.7445,-260.013 815.2093,-258.8899 816.8084,-265.7048"/>
</g>
<!-- Node25 -->
<g id="node25" class="node">
<title>Node25</title>
<g id="a_node25"><a xlink:title=" ">
<polygon fill="#ffffff" stroke="#bfbfbf" points="1353.7897,-241 1353.7897,-260 1478.7897,-260 1478.7897,-241 1353.7897,-241"/>
<text text-anchor="middle" x="1416.2897" y="-248" font-family="Helvetica,sans-Serif" font-size="10.00" fill="#000000">messages/SensorData.h</text>
</a>
</g>
</g>
<!-- Node1&#45;&gt;Node25 -->
<g id="edge34" class="edge">
<title>Node1&#45;&gt;Node25</title>
<path fill="none" stroke="#191970" d="M633.3842,-320.6349C773.5726,-315.5724 1081.8516,-301.1511 1339.2897,-266 1347.2621,-264.9114 1355.6503,-263.5012 1363.8389,-261.9754"/>
<polygon fill="#191970" stroke="#191970" points="1364.5335,-265.406 1373.687,-260.0708 1363.2043,-258.5333 1364.5335,-265.406"/>
</g>
<!-- Node26 -->
<g id="node26" class="node">
<title>Node26</title>
<g id="a_node26"><a xlink:title=" ">
<polygon fill="#ffffff" stroke="#bfbfbf" points="1497.2897,-241 1497.2897,-260 1613.2897,-260 1613.2897,-241 1497.2897,-241"/>
<text text-anchor="middle" x="1555.2897" y="-248" font-family="Helvetica,sans-Serif" font-size="10.00" fill="#000000">services/PatientData.h</text>
</a>
</g>
</g>
<!-- Node1&#45;&gt;Node26 -->
<g id="edge35" class="edge">
<title>Node1&#45;&gt;Node26</title>
<path fill="none" stroke="#191970" d="M633.5082,-319.9699C825.2306,-312.0848 1323.9303,-289.874 1488.2897,-266 1495.0372,-265.0199 1502.1086,-263.7057 1509.0235,-262.2552"/>
<polygon fill="#191970" stroke="#191970" points="1509.9763,-265.6292 1518.9867,-260.0557 1508.4673,-258.7938 1509.9763,-265.6292"/>
</g>
<!-- Node12&#45;&gt;Node2 -->
<g id="edge13" class="edge">
<title>Node12&#45;&gt;Node2</title>
<path fill="none" stroke="#191970" d="M825.9358,-240.9962C817.1607,-238.9767 807.921,-236.8859 799.2897,-235 657.04,-203.9192 565.2041,-255.6332 488.2897,-132 448.1374,-67.4589 580.1491,-29.8735 642.5017,-16.0786"/>
<polygon fill="#191970" stroke="#191970" points="643.5308,-19.4377 652.5771,-13.9227 642.066,-12.5927 643.5308,-19.4377"/>
</g>
<!-- Node12&#45;&gt;Node7 -->
<g id="edge32" class="edge">
<title>Node12&#45;&gt;Node7</title>
<path fill="none" stroke="#191970" d="M829.6203,-240.9763C819.8229,-238.7178 809.2019,-236.5249 799.2897,-235 596.1664,-203.7525 543.0258,-216.8479 338.2897,-199 309.513,-196.4914 277.8672,-193.4962 250.3043,-190.8104"/>
<polygon fill="#191970" stroke="#191970" points="250.6404,-187.3267 240.3471,-189.8364 249.9588,-194.2934 250.6404,-187.3267"/>
</g>
<!-- Node12&#45;&gt;Node10 -->
<g id="edge33" class="edge">
<title>Node12&#45;&gt;Node10</title>
<path fill="none" stroke="#191970" d="M828.8908,-240.9916C819.2898,-238.7868 808.9455,-236.6158 799.2897,-235 647.6741,-209.628 606.6239,-225.9995 455.2897,-199 449.7767,-198.0164 444.0263,-196.8055 438.3545,-195.4976"/>
<polygon fill="#191970" stroke="#191970" points="438.8408,-192.0144 428.2984,-193.0669 437.1961,-198.8185 438.8408,-192.0144"/>
</g>
<!-- Node13 -->
<g id="node13" class="node">
<title>Node13</title>
<g id="a_node13"><a xlink:title=" ">
<polygon fill="#ffffff" stroke="#bfbfbf" points="811.2897,-174 811.2897,-193 857.2897,-193 857.2897,-174 811.2897,-174"/>
<text text-anchor="middle" x="834.2897" y="-181" font-family="Helvetica,sans-Serif" font-size="10.00" fill="#000000">stdio.h</text>
</a>
</g>
</g>
<!-- Node12&#45;&gt;Node13 -->
<g id="edge12" class="edge">
<title>Node12&#45;&gt;Node13</title>
<path fill="none" stroke="#191970" d="M861.7048,-240.9005C856.9048,-230.8505 849.2447,-214.8122 843.2402,-202.2403"/>
<polygon fill="#191970" stroke="#191970" points="846.3341,-200.5968 838.866,-193.0817 840.0175,-203.6137 846.3341,-200.5968"/>
</g>
<!-- Node14 -->
<g id="node14" class="node">
<title>Node14</title>
<g id="a_node14"><a xlink:title=" ">
<polygon fill="#ffffff" stroke="#bfbfbf" points="875.2897,-174 875.2897,-193 919.2897,-193 919.2897,-174 875.2897,-174"/>
<text text-anchor="middle" x="897.2897" y="-181" font-family="Helvetica,sans-Serif" font-size="10.00" fill="#000000">vector</text>
</a>
</g>
</g>
<!-- Node12&#45;&gt;Node14 -->
<g id="edge14" class="edge">
<title>Node12&#45;&gt;Node14</title>
<path fill="none" stroke="#191970" d="M870.7312,-240.9005C875.3812,-230.8505 882.8019,-214.8122 888.6188,-202.2403"/>
<polygon fill="#191970" stroke="#191970" points="891.8336,-203.627 892.8563,-193.0817 885.4806,-200.6876 891.8336,-203.627"/>
</g>
<!-- Node15 -->
<g id="node15" class="node">
<title>Node15</title>
<g id="a_node15"><a xlink:href="Component_8hpp.html" target="_top" xlink:title=" ">
<polygon fill="#ffffff" stroke="#000000" points="937.2897,-168.5 937.2897,-198.5 1047.2897,-198.5 1047.2897,-168.5 937.2897,-168.5"/>
<text text-anchor="start" x="945.2897" y="-186.5" font-family="Helvetica,sans-Serif" font-size="10.00" fill="#000000">archlib/target_system</text>
<text text-anchor="middle" x="992.2897" y="-175.5" font-family="Helvetica,sans-Serif" font-size="10.00" fill="#000000">/Component.hpp</text>
</a>
</g>
</g>
<!-- Node12&#45;&gt;Node15 -->
<g id="edge15" class="edge">
<title>Node12&#45;&gt;Node15</title>
<path fill="none" stroke="#191970" d="M884.3424,-240.9005C902.7247,-231.1258 931.7598,-215.6865 955.0892,-203.2812"/>
<polygon fill="#191970" stroke="#191970" points="956.8537,-206.3071 964.0398,-198.5218 953.5672,-200.1265 956.8537,-206.3071"/>
</g>
<!-- Node19 -->
<g id="node19" class="node">
<title>Node19</title>
<g id="a_node19"><a xlink:title=" ">
<polygon fill="#ffffff" stroke="#bfbfbf" points="497.2897,-112.5 497.2897,-131.5 645.2897,-131.5 645.2897,-112.5 497.2897,-112.5"/>
<text text-anchor="middle" x="571.2897" y="-119.5" font-family="Helvetica,sans-Serif" font-size="10.00" fill="#000000">archlib/AdaptationCommand.h</text>
</a>
</g>
</g>
<!-- Node12&#45;&gt;Node19 -->
<g id="edge30" class="edge">
<title>Node12&#45;&gt;Node19</title>
<path fill="none" stroke="#191970" d="M824.1983,-240.9053C776.8315,-229.7803 703.1253,-211.3888 677.2897,-199 643.7308,-182.9078 609.7672,-155.9301 589.6259,-138.5561"/>
<polygon fill="#191970" stroke="#191970" points="591.7058,-135.7248 581.8816,-131.7579 587.0878,-140.9854 591.7058,-135.7248"/>
</g>
<!-- Node24 -->
<g id="node24" class="node">
<title>Node24</title>
<g id="a_node24"><a xlink:title=" ">
<polygon fill="#ffffff" stroke="#bfbfbf" points="685.7897,-174 685.7897,-193 792.7897,-193 792.7897,-174 685.7897,-174"/>
<text text-anchor="middle" x="739.2897" y="-181" font-family="Helvetica,sans-Serif" font-size="10.00" fill="#000000">archlib/Uncertainty.h</text>
</a>
</g>
</g>
<!-- Node12&#45;&gt;Node24 -->
<g id="edge31" class="edge">
<title>Node12&#45;&gt;Node24</title>
<path fill="none" stroke="#191970" d="M848.0936,-240.9005C826.6859,-229.6067 790.9439,-210.7506 766.3003,-197.7497"/>
<polygon fill="#191970" stroke="#191970" points="767.9297,-194.6522 757.4519,-193.0817 764.6634,-200.8434 767.9297,-194.6522"/>
</g>
<!-- Node15&#45;&gt;Node2 -->
<g id="edge16" class="edge">
<title>Node15&#45;&gt;Node2</title>
<path fill="none" stroke="#191970" d="M937.1978,-169.8405C934.1898,-169.1938 931.2058,-168.5754 928.2897,-168 876.4576,-157.7728 730.8423,-169.1612 693.2897,-132 666.1909,-105.1838 667.0685,-56.8465 670.1458,-29.7628"/>
<polygon fill="#191970" stroke="#191970" points="673.6508,-29.9607 671.5241,-19.5815 666.7141,-29.0215 673.6508,-29.9607"/>
</g>
<!-- Node15&#45;&gt;Node4 -->
<g id="edge18" class="edge">
<title>Node15&#45;&gt;Node4</title>
<path fill="none" stroke="#191970" d="M1047.4049,-170.5732C1067.6148,-162.878 1088.4282,-150.7972 1100.2897,-132 1120.0708,-100.6522 1112.3401,-55.1521 1105.4677,-29.4973"/>
<polygon fill="#191970" stroke="#191970" points="1108.8066,-28.4445 1102.6576,-19.8166 1102.0841,-30.3959 1108.8066,-28.4445"/>
</g>
<!-- Node16 -->
<g id="node16" class="node">
<title>Node16</title>
<g id="a_node16"><a xlink:title=" ">
<polygon fill="#ffffff" stroke="#bfbfbf" points="1147.2897,-112.5 1147.2897,-131.5 1197.2897,-131.5 1197.2897,-112.5 1147.2897,-112.5"/>
<text text-anchor="middle" x="1172.2897" y="-119.5" font-family="Helvetica,sans-Serif" font-size="10.00" fill="#000000">signal.h</text>
</a>
</g>
</g>
<!-- Node15&#45;&gt;Node16 -->
<g id="edge17" class="edge">
<title>Node15&#45;&gt;Node16</title>
<path fill="none" stroke="#191970" d="M1036.3226,-168.4554C1067.5119,-157.7991 1108.769,-143.7029 1137.6245,-133.8439"/>
<polygon fill="#191970" stroke="#191970" points="1138.9457,-137.0913 1147.2769,-130.546 1136.6824,-130.4672 1138.9457,-137.0913"/>
</g>
<!-- Node17 -->
<g id="node17" class="node">
<title>Node17</title>
<g id="a_node17"><a xlink:title=" ">
<polygon fill="#ffffff" stroke="#bfbfbf" points="1215.2897,-112.5 1215.2897,-131.5 1297.2897,-131.5 1297.2897,-112.5 1215.2897,-112.5"/>
<text text-anchor="middle" x="1256.2897" y="-119.5" font-family="Helvetica,sans-Serif" font-size="10.00" fill="#000000">archlib/Event.h</text>
</a>
</g>
</g>
<!-- Node15&#45;&gt;Node17 -->
<g id="edge19" class="edge">
<title>Node15&#45;&gt;Node17</title>
<path fill="none" stroke="#191970" d="M1047.3114,-170.6824C1093.8134,-159.8496 1159.9077,-144.4526 1205.245,-133.8911"/>
<polygon fill="#191970" stroke="#191970" points="1206.2129,-137.2594 1215.158,-131.5818 1204.6246,-130.442 1206.2129,-137.2594"/>
</g>
<!-- Node18 -->
<g id="node18" class="node">
<title>Node18</title>
<g id="a_node18"><a xlink:title=" ">
<polygon fill="#ffffff" stroke="#bfbfbf" points="701.7897,-112.5 701.7897,-131.5 786.7897,-131.5 786.7897,-112.5 701.7897,-112.5"/>
<text text-anchor="middle" x="744.2897" y="-119.5" font-family="Helvetica,sans-Serif" font-size="10.00" fill="#000000">archlib/Status.h</text>
</a>
</g>
</g>
<!-- Node15&#45;&gt;Node18 -->
<g id="edge20" class="edge">
<title>Node15&#45;&gt;Node18</title>
<path fill="none" stroke="#191970" d="M937.2504,-169.8512C893.878,-159.0955 834.001,-144.247 792.499,-133.9551"/>
<polygon fill="#191970" stroke="#191970" points="793.176,-130.5171 782.6275,-131.5072 791.4911,-137.3113 793.176,-130.5171"/>
</g>
<!-- Node15&#45;&gt;Node19 -->
<g id="edge21" class="edge">
<title>Node15&#45;&gt;Node19</title>
<path fill="none" stroke="#191970" d="M937.2139,-169.7562C934.2018,-169.1312 931.2125,-168.5406 928.2897,-168 877.6261,-158.63 744.113,-142.2458 655.5006,-131.7709"/>
<polygon fill="#191970" stroke="#191970" points="655.8039,-128.2825 645.4627,-130.5869 654.9838,-135.2343 655.8039,-128.2825"/>
</g>
<!-- Node20 -->
<g id="node20" class="node">
<title>Node20</title>
<g id="a_node20"><a xlink:title=" ">
<polygon fill="#ffffff" stroke="#bfbfbf" points="805.2897,-112.5 805.2897,-131.5 933.2897,-131.5 933.2897,-112.5 805.2897,-112.5"/>
<text text-anchor="middle" x="869.2897" y="-119.5" font-family="Helvetica,sans-Serif" font-size="10.00" fill="#000000">archlib/EffectorRegister.h</text>
</a>
</g>
</g>
<!-- Node15&#45;&gt;Node20 -->
<g id="edge22" class="edge">
<title>Node15&#45;&gt;Node20</title>
<path fill="none" stroke="#191970" d="M962.2005,-168.4554C942.4877,-158.599 916.8894,-145.7999 897.555,-136.1327"/>
<polygon fill="#191970" stroke="#191970" points="898.8598,-132.872 888.3503,-131.5303 895.7293,-139.133 898.8598,-132.872"/>
</g>
<!-- Node21 -->
<g id="node21" class="node">
<title>Node21</title>
<g id="a_node21"><a xlink:href="ROSComponent_8hpp.html" target="_top" xlink:title=" ">
<polygon fill="#ffffff" stroke="#000000" points="951.7897,-112.5 951.7897,-131.5 1090.7897,-131.5 1090.7897,-112.5 951.7897,-112.5"/>
<text text-anchor="middle" x="1021.2897" y="-119.5" font-family="Helvetica,sans-Serif" font-size="10.00" fill="#000000">archlib/ROSComponent.hpp</text>
</a>
</g>
</g>
<!-- Node15&#45;&gt;Node21 -->
<g id="edge23" class="edge">
<title>Node15&#45;&gt;Node21</title>
<path fill="none" stroke="#191970" d="M999.4582,-168.2977C1003.3579,-160.0277 1008.2177,-149.7215 1012.3615,-140.9339"/>
<polygon fill="#191970" stroke="#191970" points="1015.547,-142.3846 1016.6464,-131.8469 1009.2156,-139.399 1015.547,-142.3846"/>
</g>
<!-- Node21&#45;&gt;Node2 -->
<g id="edge24" class="edge">
<title>Node21&#45;&gt;Node2</title>
<path fill="none" stroke="#191970" d="M957.3041,-112.4752C897.1767,-103.0402 811.8536,-88.2661 780.2897,-76 747.714,-63.3407 714.0275,-40.6964 693.3646,-25.5108"/>
<polygon fill="#191970" stroke="#191970" points="695.4507,-22.7004 685.3476,-19.5102 691.2562,-28.3045 695.4507,-22.7004"/>
</g>
<!-- Node21&#45;&gt;Node4 -->
<g id="edge26" class="edge">
<title>Node21&#45;&gt;Node4</title>
<path fill="none" stroke="#191970" d="M1030.4777,-112.1681C1038.7269,-103.1151 1050.9412,-89.1372 1060.2897,-76 1071.2183,-60.6422 1081.9911,-42.0773 1089.4358,-28.5542"/>
<polygon fill="#191970" stroke="#191970" points="1092.5377,-30.1761 1094.2231,-19.7162 1086.3826,-26.8421 1092.5377,-30.1761"/>
</g>
<!-- Node22 -->
<g id="node22" class="node">
<title>Node22</title>
<g id="a_node22"><a xlink:title=" ">
<polygon fill="#ffffff" stroke="#bfbfbf" points="991.7897,-56.5 991.7897,-75.5 1050.7897,-75.5 1050.7897,-56.5 991.7897,-56.5"/>
<text text-anchor="middle" x="1021.2897" y="-63.5" font-family="Helvetica,sans-Serif" font-size="10.00" fill="#000000">stdexcept</text>
</a>
</g>
</g>
<!-- Node21&#45;&gt;Node22 -->
<g id="edge25" class="edge">
<title>Node21&#45;&gt;Node22</title>
<path fill="none" stroke="#191970" d="M1021.2897,-112.2455C1021.2897,-104.9382 1021.2897,-94.6944 1021.2897,-85.7046"/>
<polygon fill="#191970" stroke="#191970" points="1024.7897,-85.6426 1021.2897,-75.6427 1017.7897,-85.6427 1024.7897,-85.6426"/>
</g>
<!-- Node23 -->
<g id="node23" class="node">
<title>Node23</title>
<g id="a_node23"><a xlink:href="ROSComponentDescriptor_8hpp.html" target="_top" xlink:title=" ">
<polygon fill="#ffffff" stroke="#000000" points="789.2897,-56.5 789.2897,-75.5 973.2897,-75.5 973.2897,-56.5 789.2897,-56.5"/>
<text text-anchor="middle" x="881.2897" y="-63.5" font-family="Helvetica,sans-Serif" font-size="10.00" fill="#000000">archlib/ROSComponentDescriptor.hpp</text>
</a>
</g>
</g>
<!-- Node21&#45;&gt;Node23 -->
<g id="edge27" class="edge">
<title>Node21&#45;&gt;Node23</title>
<path fill="none" stroke="#191970" d="M997.2228,-112.3733C974.4468,-103.2629 940.0552,-89.5062 914.6406,-79.3404"/>
<polygon fill="#191970" stroke="#191970" points="915.6271,-75.9654 905.0425,-75.5011 913.0273,-82.4648 915.6271,-75.9654"/>
</g>
<!-- Node23&#45;&gt;Node2 -->
<g id="edge28" class="edge">
<title>Node23&#45;&gt;Node2</title>
<path fill="none" stroke="#191970" d="M845.5332,-56.3733C805.6129,-45.6255 741.6745,-28.4113 703.9509,-18.255"/>
<polygon fill="#191970" stroke="#191970" points="704.6139,-14.8089 694.0478,-15.5887 702.794,-21.5682 704.6139,-14.8089"/>
</g>
<!-- Node23&#45;&gt;Node4 -->
<g id="edge29" class="edge">
<title>Node23&#45;&gt;Node4</title>
<path fill="none" stroke="#191970" d="M918.7652,-56.3733C958.7451,-46.1032 1021.71,-29.9287 1061.7243,-19.6498"/>
<polygon fill="#191970" stroke="#191970" points="1062.8072,-22.9854 1071.6219,-17.1073 1061.0655,-16.2055 1062.8072,-22.9854"/>
</g>
</g>
</svg>
