<?xml version="1.0" encoding="UTF-8" standalone="no"?>
<!DOCTYPE svg PUBLIC "-//W3C//DTD SVG 1.1//EN"
 "http://www.w3.org/Graphics/SVG/1.1/DTD/svg11.dtd">
<!-- Generated by graphviz version 2.40.1 (20161225.0304)
 -->
<!-- Title: src/target_system/components/component/apps/g3t1_2.cpp Pages: 1 -->
<svg width="1621pt" height="408pt"
 viewBox="0.00 0.00 1621.32 408.00" xmlns="http://www.w3.org/2000/svg" xmlns:xlink="http://www.w3.org/1999/xlink">
<g id="graph0" class="graph" transform="scale(1 1) rotate(0) translate(4 404)">
<title>src/target_system/components/component/apps/g3t1_2.cpp</title>
<polygon fill="#ffffff" stroke="transparent" points="-4,4 -4,-404 1617.3212,-404 1617.3212,4 -4,4"/>
<!-- Node1 -->
<g id="node1" class="node">
<title>Node1</title>
<g id="a_node1"><a xlink:title=" ">
<polygon fill="#bfbfbf" stroke="#000000" points="481.3212,-369.5 481.3212,-399.5 633.3212,-399.5 633.3212,-369.5 481.3212,-369.5"/>
<text text-anchor="start" x="489.3212" y="-387.5" font-family="Helvetica,sans-Serif" font-size="10.00" fill="#000000">src/target_system/components</text>
<text text-anchor="middle" x="557.3212" y="-376.5" font-family="Helvetica,sans-Serif" font-size="10.00" fill="#000000">/component/apps/g3t1_2.cpp</text>
</a>
</g>
</g>
<!-- Node2 -->
<g id="node2" class="node">
<title>Node2</title>
<g id="a_node2"><a xlink:href="G3T1__2_8hpp.html" target="_top" xlink:title=" ">
<polygon fill="#ffffff" stroke="#000000" points="495.3212,-302.5 495.3212,-332.5 619.3212,-332.5 619.3212,-302.5 495.3212,-302.5"/>
<text text-anchor="start" x="503.3212" y="-320.5" font-family="Helvetica,sans-Serif" font-size="10.00" fill="#000000">component/g3t1_2/G3T1</text>
<text text-anchor="middle" x="557.3212" y="-309.5" font-family="Helvetica,sans-Serif" font-size="10.00" fill="#000000">_2.hpp</text>
</a>
</g>
</g>
<!-- Node1&#45;&gt;Node2 -->
<g id="edge1" class="edge">
<title>Node1&#45;&gt;Node2</title>
<path fill="none" stroke="#191970" d="M557.3212,-369.2967C557.3212,-361.5013 557.3212,-351.7991 557.3212,-342.9064"/>
<polygon fill="#191970" stroke="#191970" points="560.8213,-342.6431 557.3212,-332.6432 553.8213,-342.6432 560.8213,-342.6431"/>
</g>
<!-- Node3 -->
<g id="node3" class="node">
<title>Node3</title>
<g id="a_node3"><a xlink:title=" ">
<polygon fill="#ffffff" stroke="#bfbfbf" points="652.8212,-.5 652.8212,-19.5 693.8212,-19.5 693.8212,-.5 652.8212,-.5"/>
<text text-anchor="middle" x="673.3212" y="-7.5" font-family="Helvetica,sans-Serif" font-size="10.00" fill="#000000">string</text>
</a>
</g>
</g>
<!-- Node2&#45;&gt;Node3 -->
<g id="edge2" class="edge">
<title>Node2&#45;&gt;Node3</title>
<path fill="none" stroke="#191970" d="M495.1399,-315.557C361.5408,-310.8131 56.3269,-296.7094 21.3212,-266 -6.9637,-241.1864 2.3212,-221.1265 2.3212,-183.5 2.3212,-183.5 2.3212,-183.5 2.3212,-122 2.3212,-56.2339 510.2845,-20.1235 642.2824,-11.8502"/>
<polygon fill="#191970" stroke="#191970" points="642.7388,-15.3287 652.5038,-11.2184 642.3068,-8.3421 642.7388,-15.3287"/>
</g>
<!-- Node4 -->
<g id="node4" class="node">
<title>Node4</title>
<g id="a_node4"><a xlink:title=" ">
<polygon fill="#ffffff" stroke="#bfbfbf" points="30.8212,-241 30.8212,-260 89.8212,-260 89.8212,-241 30.8212,-241"/>
<text text-anchor="middle" x="60.3212" y="-248" font-family="Helvetica,sans-Serif" font-size="10.00" fill="#000000">exception</text>
</a>
</g>
</g>
<!-- Node2&#45;&gt;Node4 -->
<g id="edge3" class="edge">
<title>Node2&#45;&gt;Node4</title>
<path fill="none" stroke="#191970" d="M495.0272,-314.8612C407.0018,-310.1325 241.6314,-297.5641 104.3212,-266 100.9025,-265.2141 97.3811,-264.2505 93.8897,-263.1917"/>
<polygon fill="#191970" stroke="#191970" points="94.832,-259.8174 84.2392,-260.0247 92.6492,-266.4684 94.832,-259.8174"/>
</g>
<!-- Node5 -->
<g id="node5" class="node">
<title>Node5</title>
<g id="a_node5"><a xlink:title=" ">
<polygon fill="#ffffff" stroke="#bfbfbf" points="1071.8212,-.5 1071.8212,-19.5 1126.8212,-19.5 1126.8212,-.5 1071.8212,-.5"/>
<text text-anchor="middle" x="1099.3212" y="-7.5" font-family="Helvetica,sans-Serif" font-size="10.00" fill="#000000">ros/ros.h</text>
</a>
</g>
</g>
<!-- Node2&#45;&gt;Node5 -->
<g id="edge4" class="edge">
<title>Node2&#45;&gt;Node5</title>
<path fill="none" stroke="#191970" d="M619.6416,-315.7951C717.9268,-312.1099 914.5059,-300.6911 1077.3212,-266 1190.932,-241.7929 1325.3212,-299.661 1325.3212,-183.5 1325.3212,-183.5 1325.3212,-183.5 1325.3212,-122 1325.3212,-80.4338 1201.0356,-38.9238 1136.799,-20.2454"/>
<polygon fill="#191970" stroke="#191970" points="1137.6105,-16.8371 1127.0333,-17.4471 1135.6823,-23.5663 1137.6105,-16.8371"/>
</g>
<!-- Node6 -->
<g id="node6" class="node">
<title>Node6</title>
<g id="a_node6"><a xlink:title=" ">
<polygon fill="#ffffff" stroke="#bfbfbf" points="146.8212,-241 146.8212,-260 307.8212,-260 307.8212,-241 146.8212,-241"/>
<text text-anchor="middle" x="227.3212" y="-248" font-family="Helvetica,sans-Serif" font-size="10.00" fill="#000000">bsn/generator/DataGenerator.hpp</text>
</a>
</g>
</g>
<!-- Node2&#45;&gt;Node6 -->
<g id="edge5" class="edge">
<title>Node2&#45;&gt;Node6</title>
<path fill="none" stroke="#191970" d="M495.2508,-304.8978C434.5366,-292.571 342.8647,-273.9588 284.0512,-262.0179"/>
<polygon fill="#191970" stroke="#191970" points="284.6826,-258.5748 274.1861,-260.015 283.2898,-265.4348 284.6826,-258.5748"/>
</g>
<!-- Node7 -->
<g id="node7" class="node">
<title>Node7</title>
<g id="a_node7"><a xlink:title=" ">
<polygon fill="#ffffff" stroke="#bfbfbf" points="326.3212,-241 326.3212,-260 436.3212,-260 436.3212,-241 326.3212,-241"/>
<text text-anchor="middle" x="381.3212" y="-248" font-family="Helvetica,sans-Serif" font-size="10.00" fill="#000000">bsn/range/Range.hpp</text>
</a>
</g>
</g>
<!-- Node2&#45;&gt;Node7 -->
<g id="edge6" class="edge">
<title>Node2&#45;&gt;Node7</title>
<path fill="none" stroke="#191970" d="M517.8234,-302.4639C487.1376,-290.7824 445.0094,-274.7449 415.7026,-263.5884"/>
<polygon fill="#191970" stroke="#191970" points="416.8813,-260.2921 406.2904,-260.0053 414.3908,-266.8341 416.8813,-260.2921"/>
</g>
<!-- Node8 -->
<g id="node8" class="node">
<title>Node8</title>
<g id="a_node8"><a xlink:title=" ">
<polygon fill="#ffffff" stroke="#bfbfbf" points="114.3212,-174 114.3212,-193 240.3212,-193 240.3212,-174 114.3212,-174"/>
<text text-anchor="middle" x="177.3212" y="-181" font-family="Helvetica,sans-Serif" font-size="10.00" fill="#000000">bsn/resource/Battery.hpp</text>
</a>
</g>
</g>
<!-- Node2&#45;&gt;Node8 -->
<g id="edge7" class="edge">
<title>Node2&#45;&gt;Node8</title>
<path fill="none" stroke="#191970" d="M495.2096,-314.3557C384.0868,-308.0905 160.6279,-292.3391 137.3212,-266 120.1242,-246.5655 141.0534,-218.4251 158.5226,-200.5494"/>
<polygon fill="#191970" stroke="#191970" points="161.4268,-202.6074 166.1562,-193.1267 156.5468,-197.5888 161.4268,-202.6074"/>
</g>
<!-- Node9 -->
<g id="node9" class="node">
<title>Node9</title>
<g id="a_node9"><a xlink:title=" ">
<polygon fill="#ffffff" stroke="#bfbfbf" points="492.3212,-241 492.3212,-260 622.3212,-260 622.3212,-241 492.3212,-241"/>
<text text-anchor="middle" x="557.3212" y="-248" font-family="Helvetica,sans-Serif" font-size="10.00" fill="#000000">bsn/generator/Markov.hpp</text>
</a>
</g>
</g>
<!-- Node2&#45;&gt;Node9 -->
<g id="edge8" class="edge">
<title>Node2&#45;&gt;Node9</title>
<path fill="none" stroke="#191970" d="M557.3212,-302.2967C557.3212,-292.7699 557.3212,-280.3954 557.3212,-270.1306"/>
<polygon fill="#191970" stroke="#191970" points="560.8213,-270.0549 557.3212,-260.055 553.8213,-270.055 560.8213,-270.0549"/>
</g>
<!-- Node10 -->
<g id="node10" class="node">
<title>Node10</title>
<g id="a_node10"><a xlink:title=" ">
<polygon fill="#ffffff" stroke="#bfbfbf" points="640.8212,-241 640.8212,-260 789.8212,-260 789.8212,-241 640.8212,-241"/>
<text text-anchor="middle" x="715.3212" y="-248" font-family="Helvetica,sans-Serif" font-size="10.00" fill="#000000">bsn/filters/MovingAverage.hpp</text>
</a>
</g>
</g>
<!-- Node2&#45;&gt;Node10 -->
<g id="edge9" class="edge">
<title>Node2&#45;&gt;Node10</title>
<path fill="none" stroke="#191970" d="M592.7795,-302.4639C619.887,-290.969 656.9412,-275.2561 683.1868,-264.1266"/>
<polygon fill="#191970" stroke="#191970" points="684.8332,-267.2302 692.6732,-260.1039 682.1003,-260.7857 684.8332,-267.2302"/>
</g>
<!-- Node11 -->
<g id="node11" class="node">
<title>Node11</title>
<g id="a_node11"><a xlink:title=" ">
<polygon fill="#ffffff" stroke="#bfbfbf" points="347.8212,-174 347.8212,-193 440.8212,-193 440.8212,-174 347.8212,-174"/>
<text text-anchor="middle" x="394.3212" y="-181" font-family="Helvetica,sans-Serif" font-size="10.00" fill="#000000">bsn/utils/utils.hpp</text>
</a>
</g>
</g>
<!-- Node2&#45;&gt;Node11 -->
<g id="edge10" class="edge">
<title>Node2&#45;&gt;Node11</title>
<path fill="none" stroke="#191970" d="M533.7188,-302.2983C518.8777,-292.4441 499.5376,-279.0535 483.3212,-266 456.849,-244.6909 428.4038,-217.483 410.9808,-200.2689"/>
<polygon fill="#191970" stroke="#191970" points="413.3548,-197.6936 403.798,-193.12 408.4168,-202.6551 413.3548,-197.6936"/>
</g>
<!-- Node12 -->
<g id="node12" class="node">
<title>Node12</title>
<g id="a_node12"><a xlink:title=" ">
<polygon fill="#ffffff" stroke="#bfbfbf" points="942.8212,-235.5 942.8212,-265.5 1067.8212,-265.5 1067.8212,-235.5 942.8212,-235.5"/>
<text text-anchor="start" x="950.8212" y="-253.5" font-family="Helvetica,sans-Serif" font-size="10.00" fill="#000000">bsn/configuration/Sensor</text>
<text text-anchor="middle" x="1005.3212" y="-242.5" font-family="Helvetica,sans-Serif" font-size="10.00" fill="#000000">Configuration.hpp</text>
</a>
</g>
</g>
<!-- Node2&#45;&gt;Node12 -->
<g id="edge11" class="edge">
<title>Node2&#45;&gt;Node12</title>
<path fill="none" stroke="#191970" d="M619.5976,-310.5246C692.419,-302.0252 816.7752,-286.4477 932.5547,-266.2411"/>
<polygon fill="#191970" stroke="#191970" points="933.4133,-269.6438 942.6548,-264.4625 932.1993,-262.7499 933.4133,-269.6438"/>
</g>
<!-- Node13 -->
<g id="node13" class="node">
<title>Node13</title>
<g id="a_node13"><a xlink:href="Sensor_8hpp.html" target="_top" xlink:title=" ">
<polygon fill="#ffffff" stroke="#000000" points="807.8212,-241 807.8212,-260 924.8212,-260 924.8212,-241 807.8212,-241"/>
<text text-anchor="middle" x="866.3212" y="-248" font-family="Helvetica,sans-Serif" font-size="10.00" fill="#000000">component/Sensor.hpp</text>
</a>
</g>
</g>
<!-- Node2&#45;&gt;Node13 -->
<g id="edge12" class="edge">
<title>Node2&#45;&gt;Node13</title>
<path fill="none" stroke="#191970" d="M619.5588,-304.5706C668.4761,-294.3323 738.3083,-279.5484 799.3212,-266 804.639,-264.8192 810.1893,-263.5669 815.7205,-262.3062"/>
<polygon fill="#191970" stroke="#191970" points="816.6364,-265.6871 825.6016,-260.0413 815.0724,-258.864 816.6364,-265.6871"/>
</g>
<!-- Node26 -->
<g id="node26" class="node">
<title>Node26</title>
<g id="a_node26"><a xlink:title=" ">
<polygon fill="#ffffff" stroke="#bfbfbf" points="1353.8212,-241 1353.8212,-260 1478.8212,-260 1478.8212,-241 1353.8212,-241"/>
<text text-anchor="middle" x="1416.3212" y="-248" font-family="Helvetica,sans-Serif" font-size="10.00" fill="#000000">messages/SensorData.h</text>
</a>
</g>
</g>
<!-- Node2&#45;&gt;Node26 -->
<g id="edge35" class="edge">
<title>Node2&#45;&gt;Node26</title>
<path fill="none" stroke="#191970" d="M619.4358,-316.2103C752.1448,-312.8409 1072.9516,-301.4214 1339.3212,-266 1347.3936,-264.9266 1355.8899,-263.5105 1364.1731,-261.97"/>
<polygon fill="#191970" stroke="#191970" points="1364.9753,-265.3798 1374.1284,-260.0439 1363.6456,-258.5072 1364.9753,-265.3798"/>
</g>
<!-- Node27 -->
<g id="node27" class="node">
<title>Node27</title>
<g id="a_node27"><a xlink:title=" ">
<polygon fill="#ffffff" stroke="#bfbfbf" points="1497.3212,-241 1497.3212,-260 1613.3212,-260 1613.3212,-241 1497.3212,-241"/>
<text text-anchor="middle" x="1555.3212" y="-248" font-family="Helvetica,sans-Serif" font-size="10.00" fill="#000000">services/PatientData.h</text>
</a>
</g>
</g>
<!-- Node2&#45;&gt;Node27 -->
<g id="edge36" class="edge">
<title>Node2&#45;&gt;Node27</title>
<path fill="none" stroke="#191970" d="M619.4316,-315.4607C799.5108,-309.3266 1319.7418,-289.9805 1488.3212,-266 1495.1511,-265.0285 1502.3111,-263.7058 1509.3043,-262.2401"/>
<polygon fill="#191970" stroke="#191970" points="1510.364,-265.5905 1519.3728,-260.0146 1508.8531,-258.7555 1510.364,-265.5905"/>
</g>
<!-- Node13&#45;&gt;Node3 -->
<g id="edge14" class="edge">
<title>Node13&#45;&gt;Node3</title>
<path fill="none" stroke="#191970" d="M825.9674,-240.9962C817.1923,-238.9767 807.9526,-236.8859 799.3212,-235 657.0716,-203.9192 565.2357,-255.6332 488.3212,-132 448.169,-67.4589 580.1807,-29.8735 642.5333,-16.0786"/>
<polygon fill="#191970" stroke="#191970" points="643.5624,-19.4377 652.6087,-13.9227 642.0976,-12.5927 643.5624,-19.4377"/>
</g>
<!-- Node13&#45;&gt;Node8 -->
<g id="edge33" class="edge">
<title>Node13&#45;&gt;Node8</title>
<path fill="none" stroke="#191970" d="M829.6519,-240.9763C819.8545,-238.7178 809.2335,-236.5249 799.3212,-235 596.198,-203.7525 543.0574,-216.8479 338.3212,-199 309.5446,-196.4914 277.8988,-193.4962 250.3359,-190.8104"/>
<polygon fill="#191970" stroke="#191970" points="250.672,-187.3267 240.3787,-189.8364 249.9904,-194.2934 250.672,-187.3267"/>
</g>
<!-- Node13&#45;&gt;Node11 -->
<g id="edge34" class="edge">
<title>Node13&#45;&gt;Node11</title>
<path fill="none" stroke="#191970" d="M828.9224,-240.9916C819.3214,-238.7868 808.9771,-236.6158 799.3212,-235 647.7057,-209.628 606.6555,-225.9995 455.3212,-199 449.8083,-198.0164 444.0579,-196.8055 438.3861,-195.4976"/>
<polygon fill="#191970" stroke="#191970" points="438.8724,-192.0144 428.33,-193.0669 437.2277,-198.8185 438.8724,-192.0144"/>
</g>
<!-- Node14 -->
<g id="node14" class="node">
<title>Node14</title>
<g id="a_node14"><a xlink:title=" ">
<polygon fill="#ffffff" stroke="#bfbfbf" points="811.3212,-174 811.3212,-193 857.3212,-193 857.3212,-174 811.3212,-174"/>
<text text-anchor="middle" x="834.3212" y="-181" font-family="Helvetica,sans-Serif" font-size="10.00" fill="#000000">stdio.h</text>
</a>
</g>
</g>
<!-- Node13&#45;&gt;Node14 -->
<g id="edge13" class="edge">
<title>Node13&#45;&gt;Node14</title>
<path fill="none" stroke="#191970" d="M861.7364,-240.9005C856.9364,-230.8505 849.2763,-214.8122 843.2718,-202.2403"/>
<polygon fill="#191970" stroke="#191970" points="846.3657,-200.5968 838.8976,-193.0817 840.0491,-203.6137 846.3657,-200.5968"/>
</g>
<!-- Node15 -->
<g id="node15" class="node">
<title>Node15</title>
<g id="a_node15"><a xlink:title=" ">
<polygon fill="#ffffff" stroke="#bfbfbf" points="875.3212,-174 875.3212,-193 919.3212,-193 919.3212,-174 875.3212,-174"/>
<text text-anchor="middle" x="897.3212" y="-181" font-family="Helvetica,sans-Serif" font-size="10.00" fill="#000000">vector</text>
</a>
</g>
</g>
<!-- Node13&#45;&gt;Node15 -->
<g id="edge15" class="edge">
<title>Node13&#45;&gt;Node15</title>
<path fill="none" stroke="#191970" d="M870.7628,-240.9005C875.4128,-230.8505 882.8335,-214.8122 888.6504,-202.2403"/>
<polygon fill="#191970" stroke="#191970" points="891.8652,-203.627 892.8879,-193.0817 885.5122,-200.6876 891.8652,-203.627"/>
</g>
<!-- Node16 -->
<g id="node16" class="node">
<title>Node16</title>
<g id="a_node16"><a xlink:href="Component_8hpp.html" target="_top" xlink:title=" ">
<polygon fill="#ffffff" stroke="#000000" points="937.3212,-168.5 937.3212,-198.5 1047.3212,-198.5 1047.3212,-168.5 937.3212,-168.5"/>
<text text-anchor="start" x="945.3212" y="-186.5" font-family="Helvetica,sans-Serif" font-size="10.00" fill="#000000">archlib/target_system</text>
<text text-anchor="middle" x="992.3212" y="-175.5" font-family="Helvetica,sans-Serif" font-size="10.00" fill="#000000">/Component.hpp</text>
</a>
</g>
</g>
<!-- Node13&#45;&gt;Node16 -->
<g id="edge16" class="edge">
<title>Node13&#45;&gt;Node16</title>
<path fill="none" stroke="#191970" d="M884.374,-240.9005C902.7563,-231.1258 931.7914,-215.6865 955.1208,-203.2812"/>
<polygon fill="#191970" stroke="#191970" points="956.8853,-206.3071 964.0714,-198.5218 953.5988,-200.1265 956.8853,-206.3071"/>
</g>
<!-- Node20 -->
<g id="node20" class="node">
<title>Node20</title>
<g id="a_node20"><a xlink:title=" ">
<polygon fill="#ffffff" stroke="#bfbfbf" points="497.3212,-112.5 497.3212,-131.5 645.3212,-131.5 645.3212,-112.5 497.3212,-112.5"/>
<text text-anchor="middle" x="571.3212" y="-119.5" font-family="Helvetica,sans-Serif" font-size="10.00" fill="#000000">archlib/AdaptationCommand.h</text>
</a>
</g>
</g>
<!-- Node13&#45;&gt;Node20 -->
<g id="edge31" class="edge">
<title>Node13&#45;&gt;Node20</title>
<path fill="none" stroke="#191970" d="M824.2299,-240.9053C776.8631,-229.7803 703.1569,-211.3888 677.3212,-199 643.7624,-182.9078 609.7988,-155.9301 589.6575,-138.5561"/>
<polygon fill="#191970" stroke="#191970" points="591.7374,-135.7248 581.9132,-131.7579 587.1194,-140.9854 591.7374,-135.7248"/>
</g>
<!-- Node25 -->
<g id="node25" class="node">
<title>Node25</title>
<g id="a_node25"><a xlink:title=" ">
<polygon fill="#ffffff" stroke="#bfbfbf" points="685.8212,-174 685.8212,-193 792.8212,-193 792.8212,-174 685.8212,-174"/>
<text text-anchor="middle" x="739.3212" y="-181" font-family="Helvetica,sans-Serif" font-size="10.00" fill="#000000">archlib/Uncertainty.h</text>
</a>
</g>
</g>
<!-- Node13&#45;&gt;Node25 -->
<g id="edge32" class="edge">
<title>Node13&#45;&gt;Node25</title>
<path fill="none" stroke="#191970" d="M848.1252,-240.9005C826.7175,-229.6067 790.9754,-210.7506 766.3319,-197.7497"/>
<polygon fill="#191970" stroke="#191970" points="767.9613,-194.6522 757.4835,-193.0817 764.695,-200.8434 767.9613,-194.6522"/>
</g>
<!-- Node16&#45;&gt;Node3 -->
<g id="edge17" class="edge">
<title>Node16&#45;&gt;Node3</title>
<path fill="none" stroke="#191970" d="M937.2294,-169.8405C934.2214,-169.1938 931.2374,-168.5754 928.3212,-168 876.4892,-157.7728 730.8739,-169.1612 693.3212,-132 666.2225,-105.1838 667.1001,-56.8465 670.1774,-29.7628"/>
<polygon fill="#191970" stroke="#191970" points="673.6824,-29.9607 671.5557,-19.5815 666.7457,-29.0215 673.6824,-29.9607"/>
</g>
<!-- Node16&#45;&gt;Node5 -->
<g id="edge19" class="edge">
<title>Node16&#45;&gt;Node5</title>
<path fill="none" stroke="#191970" d="M1047.4365,-170.5732C1067.6464,-162.878 1088.4598,-150.7972 1100.3212,-132 1120.1024,-100.6522 1112.3717,-55.1521 1105.4993,-29.4973"/>
<polygon fill="#191970" stroke="#191970" points="1108.8382,-28.4445 1102.6892,-19.8166 1102.1157,-30.3959 1108.8382,-28.4445"/>
</g>
<!-- Node17 -->
<g id="node17" class="node">
<title>Node17</title>
<g id="a_node17"><a xlink:title=" ">
<polygon fill="#ffffff" stroke="#bfbfbf" points="1147.3212,-112.5 1147.3212,-131.5 1197.3212,-131.5 1197.3212,-112.5 1147.3212,-112.5"/>
<text text-anchor="middle" x="1172.3212" y="-119.5" font-family="Helvetica,sans-Serif" font-size="10.00" fill="#000000">signal.h</text>
</a>
</g>
</g>
<!-- Node16&#45;&gt;Node17 -->
<g id="edge18" class="edge">
<title>Node16&#45;&gt;Node17</title>
<path fill="none" stroke="#191970" d="M1036.3542,-168.4554C1067.5435,-157.7991 1108.8006,-143.7029 1137.6561,-133.8439"/>
<polygon fill="#191970" stroke="#191970" points="1138.9773,-137.0913 1147.3085,-130.546 1136.714,-130.4672 1138.9773,-137.0913"/>
</g>
<!-- Node18 -->
<g id="node18" class="node">
<title>Node18</title>
<g id="a_node18"><a xlink:title=" ">
<polygon fill="#ffffff" stroke="#bfbfbf" points="1215.3212,-112.5 1215.3212,-131.5 1297.3212,-131.5 1297.3212,-112.5 1215.3212,-112.5"/>
<text text-anchor="middle" x="1256.3212" y="-119.5" font-family="Helvetica,sans-Serif" font-size="10.00" fill="#000000">archlib/Event.h</text>
</a>
</g>
</g>
<!-- Node16&#45;&gt;Node18 -->
<g id="edge20" class="edge">
<title>Node16&#45;&gt;Node18</title>
<path fill="none" stroke="#191970" d="M1047.3429,-170.6824C1093.845,-159.8496 1159.9393,-144.4526 1205.2766,-133.8911"/>
<polygon fill="#191970" stroke="#191970" points="1206.2445,-137.2594 1215.1896,-131.5818 1204.6562,-130.442 1206.2445,-137.2594"/>
</g>
<!-- Node19 -->
<g id="node19" class="node">
<title>Node19</title>
<g id="a_node19"><a xlink:title=" ">
<polygon fill="#ffffff" stroke="#bfbfbf" points="701.8212,-112.5 701.8212,-131.5 786.8212,-131.5 786.8212,-112.5 701.8212,-112.5"/>
<text text-anchor="middle" x="744.3212" y="-119.5" font-family="Helvetica,sans-Serif" font-size="10.00" fill="#000000">archlib/Status.h</text>
</a>
</g>
</g>
<!-- Node16&#45;&gt;Node19 -->
<g id="edge21" class="edge">
<title>Node16&#45;&gt;Node19</title>
<path fill="none" stroke="#191970" d="M937.282,-169.8512C893.9096,-159.0955 834.0326,-144.247 792.5306,-133.9551"/>
<polygon fill="#191970" stroke="#191970" points="793.2076,-130.5171 782.6591,-131.5072 791.5227,-137.3113 793.2076,-130.5171"/>
</g>
<!-- Node16&#45;&gt;Node20 -->
<g id="edge22" class="edge">
<title>Node16&#45;&gt;Node20</title>
<path fill="none" stroke="#191970" d="M937.2455,-169.7562C934.2334,-169.1312 931.2441,-168.5406 928.3212,-168 877.6577,-158.63 744.1446,-142.2458 655.5322,-131.7709"/>
<polygon fill="#191970" stroke="#191970" points="655.8355,-128.2825 645.4943,-130.5869 655.0154,-135.2343 655.8355,-128.2825"/>
</g>
<!-- Node21 -->
<g id="node21" class="node">
<title>Node21</title>
<g id="a_node21"><a xlink:title=" ">
<polygon fill="#ffffff" stroke="#bfbfbf" points="805.3212,-112.5 805.3212,-131.5 933.3212,-131.5 933.3212,-112.5 805.3212,-112.5"/>
<text text-anchor="middle" x="869.3212" y="-119.5" font-family="Helvetica,sans-Serif" font-size="10.00" fill="#000000">archlib/EffectorRegister.h</text>
</a>
</g>
</g>
<!-- Node16&#45;&gt;Node21 -->
<g id="edge23" class="edge">
<title>Node16&#45;&gt;Node21</title>
<path fill="none" stroke="#191970" d="M962.2321,-168.4554C942.5193,-158.599 916.921,-145.7999 897.5866,-136.1327"/>
<polygon fill="#191970" stroke="#191970" points="898.8914,-132.872 888.3819,-131.5303 895.7609,-139.133 898.8914,-132.872"/>
</g>
<!-- Node22 -->
<g id="node22" class="node">
<title>Node22</title>
<g id="a_node22"><a xlink:href="ROSComponent_8hpp.html" target="_top" xlink:title=" ">
<polygon fill="#ffffff" stroke="#000000" points="951.8212,-112.5 951.8212,-131.5 1090.8212,-131.5 1090.8212,-112.5 951.8212,-112.5"/>
<text text-anchor="middle" x="1021.3212" y="-119.5" font-family="Helvetica,sans-Serif" font-size="10.00" fill="#000000">archlib/ROSComponent.hpp</text>
</a>
</g>
</g>
<!-- Node16&#45;&gt;Node22 -->
<g id="edge24" class="edge">
<title>Node16&#45;&gt;Node22</title>
<path fill="none" stroke="#191970" d="M999.4898,-168.2977C1003.3895,-160.0277 1008.2493,-149.7215 1012.3931,-140.9339"/>
<polygon fill="#191970" stroke="#191970" points="1015.5786,-142.3846 1016.678,-131.8469 1009.2472,-139.399 1015.5786,-142.3846"/>
</g>
<!-- Node22&#45;&gt;Node3 -->
<g id="edge25" class="edge">
<title>Node22&#45;&gt;Node3</title>
<path fill="none" stroke="#191970" d="M957.3356,-112.4752C897.2083,-103.0402 811.8852,-88.2661 780.3212,-76 747.7456,-63.3407 714.0591,-40.6964 693.3962,-25.5108"/>
<polygon fill="#191970" stroke="#191970" points="695.4823,-22.7004 685.3792,-19.5102 691.2877,-28.3045 695.4823,-22.7004"/>
</g>
<!-- Node22&#45;&gt;Node5 -->
<g id="edge27" class="edge">
<title>Node22&#45;&gt;Node5</title>
<path fill="none" stroke="#191970" d="M1030.5093,-112.1681C1038.7585,-103.1151 1050.9728,-89.1372 1060.3212,-76 1071.2499,-60.6422 1082.0227,-42.0773 1089.4674,-28.5542"/>
<polygon fill="#191970" stroke="#191970" points="1092.5693,-30.1761 1094.2547,-19.7162 1086.4142,-26.8421 1092.5693,-30.1761"/>
</g>
<!-- Node23 -->
<g id="node23" class="node">
<title>Node23</title>
<g id="a_node23"><a xlink:title=" ">
<polygon fill="#ffffff" stroke="#bfbfbf" points="991.8212,-56.5 991.8212,-75.5 1050.8212,-75.5 1050.8212,-56.5 991.8212,-56.5"/>
<text text-anchor="middle" x="1021.3212" y="-63.5" font-family="Helvetica,sans-Serif" font-size="10.00" fill="#000000">stdexcept</text>
</a>
</g>
</g>
<!-- Node22&#45;&gt;Node23 -->
<g id="edge26" class="edge">
<title>Node22&#45;&gt;Node23</title>
<path fill="none" stroke="#191970" d="M1021.3212,-112.2455C1021.3212,-104.9382 1021.3212,-94.6944 1021.3212,-85.7046"/>
<polygon fill="#191970" stroke="#191970" points="1024.8213,-85.6426 1021.3212,-75.6427 1017.8213,-85.6427 1024.8213,-85.6426"/>
</g>
<!-- Node24 -->
<g id="node24" class="node">
<title>Node24</title>
<g id="a_node24"><a xlink:href="ROSComponentDescriptor_8hpp.html" target="_top" xlink:title=" ">
<polygon fill="#ffffff" stroke="#000000" points="789.3212,-56.5 789.3212,-75.5 973.3212,-75.5 973.3212,-56.5 789.3212,-56.5"/>
<text text-anchor="middle" x="881.3212" y="-63.5" font-family="Helvetica,sans-Serif" font-size="10.00" fill="#000000">archlib/ROSComponentDescriptor.hpp</text>
</a>
</g>
</g>
<!-- Node22&#45;&gt;Node24 -->
<g id="edge28" class="edge">
<title>Node22&#45;&gt;Node24</title>
<path fill="none" stroke="#191970" d="M997.2544,-112.3733C974.4784,-103.2629 940.0868,-89.5062 914.6722,-79.3404"/>
<polygon fill="#191970" stroke="#191970" points="915.6587,-75.9654 905.0741,-75.5011 913.0589,-82.4648 915.6587,-75.9654"/>
</g>
<!-- Node24&#45;&gt;Node3 -->
<g id="edge29" class="edge">
<title>Node24&#45;&gt;Node3</title>
<path fill="none" stroke="#191970" d="M845.5648,-56.3733C805.6445,-45.6255 741.7061,-28.4113 703.9825,-18.255"/>
<polygon fill="#191970" stroke="#191970" points="704.6455,-14.8089 694.0794,-15.5887 702.8256,-21.5682 704.6455,-14.8089"/>
</g>
<!-- Node24&#45;&gt;Node5 -->
<g id="edge30" class="edge">
<title>Node24&#45;&gt;Node5</title>
<path fill="none" stroke="#191970" d="M918.7968,-56.3733C958.7767,-46.1032 1021.7416,-29.9287 1061.7559,-19.6498"/>
<polygon fill="#191970" stroke="#191970" points="1062.8388,-22.9854 1071.6535,-17.1073 1061.0971,-16.2055 1062.8388,-22.9854"/>
</g>
</g>
</svg>
