<?xml version="1.0" encoding="UTF-8" standalone="no"?>
<!DOCTYPE svg PUBLIC "-//W3C//DTD SVG 1.1//EN"
 "http://www.w3.org/Graphics/SVG/1.1/DTD/svg11.dtd">
<!-- Generated by graphviz version 2.40.1 (20161225.0304)
 -->
<!-- Title: main Pages: 1 -->
<svg width="731pt" height="518pt"
 viewBox="0.00 0.00 731.00 518.00" xmlns="http://www.w3.org/2000/svg" xmlns:xlink="http://www.w3.org/1999/xlink">
<g id="graph0" class="graph" transform="scale(1 1) rotate(0) translate(4 514)">
<title>main</title>
<polygon fill="#ffffff" stroke="transparent" points="-4,4 -4,-514 727,-514 727,4 -4,4"/>
<!-- Node1 -->
<g id="node1" class="node">
<title>Node1</title>
<g id="a_node1"><a xlink:title=" ">
<polygon fill="#bfbfbf" stroke="#000000" points="0,-98.5 0,-117.5 38,-117.5 38,-98.5 0,-98.5"/>
<text text-anchor="middle" x="19" y="-105.5" font-family="Helvetica,sans-Serif" font-size="10.00" fill="#000000">main</text>
</a>
</g>
</g>
<!-- Node2 -->
<g id="node2" class="node">
<title>Node2</title>
<g id="a_node2"><a xlink:href="classSensor.html#a1a664cdb090cb4295bbdedcffb1c8499" target="_top" xlink:title=" ">
<polygon fill="#ffffff" stroke="#000000" points="74,-98.5 74,-117.5 141,-117.5 141,-98.5 74,-98.5"/>
<text text-anchor="middle" x="107.5" y="-105.5" font-family="Helvetica,sans-Serif" font-size="10.00" fill="#000000">Sensor::run</text>
</a>
</g>
</g>
<!-- Node1&#45;&gt;Node2 -->
<g id="edge1" class="edge">
<title>Node1&#45;&gt;Node2</title>
<path fill="none" stroke="#191970" d="M38.2032,-108C45.7382,-108 54.7179,-108 63.6745,-108"/>
<polygon fill="#191970" stroke="#191970" points="63.6987,-111.5001 73.6987,-108 63.6986,-104.5001 63.6987,-111.5001"/>
</g>
<!-- Node3 -->
<g id="node3" class="node">
<title>Node3</title>
<g id="a_node3"><a xlink:href="classSensor.html#a043dabb8b92f70fc247d585b8d66e133" target="_top" xlink:title=" ">
<polygon fill="#ffffff" stroke="#000000" points="219,-300.5 219,-319.5 293,-319.5 293,-300.5 219,-300.5"/>
<text text-anchor="middle" x="256" y="-307.5" font-family="Helvetica,sans-Serif" font-size="10.00" fill="#000000">Sensor::body</text>
</a>
</g>
</g>
<!-- Node2&#45;&gt;Node3 -->
<g id="edge2" class="edge">
<title>Node2&#45;&gt;Node3</title>
<path fill="none" stroke="#191970" d="M114.6625,-117.7429C138.088,-149.6079 212.659,-251.0445 242.986,-292.2974"/>
<polygon fill="#191970" stroke="#191970" points="240.1662,-294.3709 248.9094,-300.3549 245.8062,-290.2247 240.1662,-294.3709"/>
</g>
<!-- Node11 -->
<g id="node11" class="node">
<title>Node11</title>
<g id="a_node11"><a xlink:href="classarch_1_1target__system_1_1Component.html#adc6ecb4090656eeac2289ec147a20f81" target="_top" xlink:title=" ">
<polygon fill="#ffffff" stroke="#000000" points="386,-137 386,-167 514,-167 514,-137 386,-137"/>
<text text-anchor="start" x="394" y="-155" font-family="Helvetica,sans-Serif" font-size="10.00" fill="#000000">arch::target_system</text>
<text text-anchor="middle" x="450" y="-144" font-family="Helvetica,sans-Serif" font-size="10.00" fill="#000000">::Component::sendStatus</text>
</a>
</g>
</g>
<!-- Node2&#45;&gt;Node11 -->
<g id="edge22" class="edge">
<title>Node2&#45;&gt;Node11</title>
<path fill="none" stroke="#191970" d="M117.7446,-117.8928C130.4447,-129.4002 153.3241,-147.746 177,-155 241.9557,-174.9016 319.7526,-171.5779 375.6503,-164.797"/>
<polygon fill="#191970" stroke="#191970" points="376.3497,-168.2362 385.8248,-163.4955 375.4615,-161.2928 376.3497,-168.2362"/>
</g>
<!-- Node16 -->
<g id="node16" class="node">
<title>Node16</title>
<g id="a_node16"><a xlink:href="classarch_1_1ROSComponentDescriptor.html#a4b73f46f37241865a08e75ab202e28eb" target="_top" xlink:title=" ">
<polygon fill="#ffffff" stroke="#000000" points="177,-115 177,-145 335,-145 335,-115 177,-115"/>
<text text-anchor="start" x="185" y="-133" font-family="Helvetica,sans-Serif" font-size="10.00" fill="#000000">arch::ROSComponentDescriptor</text>
<text text-anchor="middle" x="256" y="-122" font-family="Helvetica,sans-Serif" font-size="10.00" fill="#000000">::getFreq</text>
</a>
</g>
</g>
<!-- Node2&#45;&gt;Node16 -->
<g id="edge16" class="edge">
<title>Node2&#45;&gt;Node16</title>
<path fill="none" stroke="#191970" d="M141.1969,-112.9921C149.0523,-114.1559 157.7813,-115.4491 166.8181,-116.7879"/>
<polygon fill="#191970" stroke="#191970" points="166.313,-120.2512 176.718,-118.2545 167.3389,-113.3267 166.313,-120.2512"/>
</g>
<!-- Node17 -->
<g id="node17" class="node">
<title>Node17</title>
<g id="a_node17"><a xlink:href="classSensor.html#a941f539d5f022334095705710338469c" target="_top" xlink:title=" ">
<polygon fill="#ffffff" stroke="#000000" points="192.5,-76.5 192.5,-95.5 319.5,-95.5 319.5,-76.5 192.5,-76.5"/>
<text text-anchor="middle" x="256" y="-83.5" font-family="Helvetica,sans-Serif" font-size="10.00" fill="#000000">Sensor::injectUncertainty</text>
</a>
</g>
</g>
<!-- Node2&#45;&gt;Node17 -->
<g id="edge17" class="edge">
<title>Node2&#45;&gt;Node17</title>
<path fill="none" stroke="#191970" d="M141.1969,-103.0079C153.5035,-101.1847 167.9541,-99.0438 182.3734,-96.9076"/>
<polygon fill="#191970" stroke="#191970" points="182.9451,-100.3612 192.3242,-95.4335 181.9192,-93.4368 182.9451,-100.3612"/>
</g>
<!-- Node19 -->
<g id="node19" class="node">
<title>Node19</title>
<g id="a_node19"><a xlink:href="classSensor.html#a476760a7dd4be51136bf165e183526cf" target="_top" xlink:title=" ">
<polygon fill="#ffffff" stroke="#000000" points="205.5,-38.5 205.5,-57.5 306.5,-57.5 306.5,-38.5 205.5,-38.5"/>
<text text-anchor="middle" x="256" y="-45.5" font-family="Helvetica,sans-Serif" font-size="10.00" fill="#000000">Sensor::reconfigure</text>
</a>
</g>
</g>
<!-- Node2&#45;&gt;Node19 -->
<g id="edge19" class="edge">
<title>Node2&#45;&gt;Node19</title>
<path fill="none" stroke="#191970" d="M120.9795,-98.4003C134.5425,-89.1476 156.3519,-75.3551 177,-67 183.2379,-64.4759 189.8941,-62.2328 196.5961,-60.2535"/>
<polygon fill="#191970" stroke="#191970" points="197.6998,-63.5797 206.4049,-57.5405 195.8337,-56.833 197.6998,-63.5797"/>
</g>
<!-- Node21 -->
<g id="node21" class="node">
<title>Node21</title>
<g id="a_node21"><a xlink:href="classSensor.html#a46b45c4ec9d0675d2424ff2bb5df26ab" target="_top" xlink:title=" ">
<polygon fill="#ffffff" stroke="#000000" points="216,-.5 216,-19.5 296,-19.5 296,-.5 216,-.5"/>
<text text-anchor="middle" x="256" y="-7.5" font-family="Helvetica,sans-Serif" font-size="10.00" fill="#000000">Sensor::setUp</text>
</a>
</g>
</g>
<!-- Node2&#45;&gt;Node21 -->
<g id="edge23" class="edge">
<title>Node2&#45;&gt;Node21</title>
<path fill="none" stroke="#191970" d="M113.2143,-98.2625C123.6427,-81.3922 147.4346,-46.8292 177,-29 185.7881,-23.7004 195.9613,-19.8785 206.0226,-17.1224"/>
<polygon fill="#191970" stroke="#191970" points="207.0971,-20.4634 215.9913,-14.7063 205.4482,-13.6603 207.0971,-20.4634"/>
</g>
<!-- Node4 -->
<g id="node4" class="node">
<title>Node4</title>
<g id="a_node4"><a xlink:href="classSensor.html#a865bbaf085db8217e4d0c02e12e8a2a1" target="_top" xlink:title=" ">
<polygon fill="#ffffff" stroke="#000000" points="397.5,-490.5 397.5,-509.5 502.5,-509.5 502.5,-490.5 397.5,-490.5"/>
<text text-anchor="middle" x="450" y="-497.5" font-family="Helvetica,sans-Serif" font-size="10.00" fill="#000000">Sensor::apply_noise</text>
</a>
</g>
</g>
<!-- Node3&#45;&gt;Node4 -->
<g id="edge3" class="edge">
<title>Node3&#45;&gt;Node4</title>
<path fill="none" stroke="#191970" d="M259.5044,-319.5818C270.7251,-348.8497 308.7196,-437.7126 371,-481 375.9718,-484.4556 381.4972,-487.2865 387.2507,-489.6052"/>
<polygon fill="#191970" stroke="#191970" points="386.4968,-493.0491 397.0916,-493.0434 388.8056,-486.4409 386.4968,-493.0491"/>
</g>
<!-- Node5 -->
<g id="node5" class="node">
<title>Node5</title>
<g id="a_node5"><a xlink:href="classSensor.html#ab89214185c2da031e0f78b0f4dc031e8" target="_top" xlink:title=" ">
<polygon fill="#ffffff" stroke="#000000" points="409,-452.5 409,-471.5 491,-471.5 491,-452.5 409,-452.5"/>
<text text-anchor="middle" x="450" y="-459.5" font-family="Helvetica,sans-Serif" font-size="10.00" fill="#000000">Sensor::collect</text>
</a>
</g>
</g>
<!-- Node3&#45;&gt;Node5 -->
<g id="edge4" class="edge">
<title>Node3&#45;&gt;Node5</title>
<path fill="none" stroke="#191970" d="M261.9436,-319.6473C277.0888,-343.4235 319.5905,-405.2732 371,-438 379.5249,-443.4268 389.3457,-447.6848 399.1023,-451.0062"/>
<polygon fill="#191970" stroke="#191970" points="398.1985,-454.3905 408.787,-454.024 400.281,-447.7074 398.1985,-454.3905"/>
</g>
<!-- Node6 -->
<g id="node6" class="node">
<title>Node6</title>
<g id="a_node6"><a xlink:href="classbsn_1_1resource_1_1Battery.html#a674c7c02100126e91f040bc93f143c7e" target="_top" xlink:title=" ">
<polygon fill="#ffffff" stroke="#000000" points="587.5,-376 587.5,-406 700.5,-406 700.5,-376 587.5,-376"/>
<text text-anchor="start" x="595.5" y="-394" font-family="Helvetica,sans-Serif" font-size="10.00" fill="#000000">bsn::resource::Battery</text>
<text text-anchor="middle" x="644" y="-383" font-family="Helvetica,sans-Serif" font-size="10.00" fill="#000000">::getCurrentLevel</text>
</a>
</g>
</g>
<!-- Node3&#45;&gt;Node6 -->
<g id="edge5" class="edge">
<title>Node3&#45;&gt;Node6</title>
<path fill="none" stroke="#191970" d="M263.6041,-319.7475C280.3431,-340.3079 322.75,-387.6481 371,-405 438.8271,-429.3923 522.265,-419.9136 578.9162,-408.1685"/>
<polygon fill="#191970" stroke="#191970" points="579.7826,-411.5622 588.8215,-406.0352 578.3088,-404.7191 579.7826,-411.5622"/>
</g>
<!-- Node7 -->
<g id="node7" class="node">
<title>Node7</title>
<g id="a_node7"><a xlink:href="classSensor.html#aeb95c3006f7155be956658f0b951b9db" target="_top" xlink:title=" ">
<polygon fill="#ffffff" stroke="#000000" points="405.5,-376.5 405.5,-395.5 494.5,-395.5 494.5,-376.5 405.5,-376.5"/>
<text text-anchor="middle" x="450" y="-383.5" font-family="Helvetica,sans-Serif" font-size="10.00" fill="#000000">Sensor::isActive</text>
</a>
</g>
</g>
<!-- Node3&#45;&gt;Node7 -->
<g id="edge6" class="edge">
<title>Node3&#45;&gt;Node7</title>
<path fill="none" stroke="#191970" d="M272.2439,-319.5132C294.0636,-331.9464 334.3432,-353.6984 371,-367 378.7304,-369.8051 387.0367,-372.3179 395.2558,-374.5261"/>
<polygon fill="#191970" stroke="#191970" points="394.6381,-377.9807 405.1935,-377.0677 396.3726,-371.199 394.6381,-377.9807"/>
</g>
<!-- Node8 -->
<g id="node8" class="node">
<title>Node8</title>
<g id="a_node8"><a xlink:href="classSensor.html#a209530c83c3299a6587e1c87277dcd1e" target="_top" xlink:title=" ">
<polygon fill="#ffffff" stroke="#000000" points="406,-338.5 406,-357.5 494,-357.5 494,-338.5 406,-338.5"/>
<text text-anchor="middle" x="450" y="-345.5" font-family="Helvetica,sans-Serif" font-size="10.00" fill="#000000">Sensor::process</text>
</a>
</g>
</g>
<!-- Node3&#45;&gt;Node8 -->
<g id="edge7" class="edge">
<title>Node3&#45;&gt;Node8</title>
<path fill="none" stroke="#191970" d="M293.4052,-317.3268C322.5419,-323.034 363.3913,-331.0354 396.0629,-337.435"/>
<polygon fill="#191970" stroke="#191970" points="395.4314,-340.8777 405.9178,-339.3653 396.777,-334.0083 395.4314,-340.8777"/>
</g>
<!-- Node9 -->
<g id="node9" class="node">
<title>Node9</title>
<g id="a_node9"><a xlink:href="classSensor.html#aa2c5c0b7c6f69e6e25cf56bab5fc822b" target="_top" xlink:title=" ">
<polygon fill="#ffffff" stroke="#000000" points="404.5,-300.5 404.5,-319.5 495.5,-319.5 495.5,-300.5 404.5,-300.5"/>
<text text-anchor="middle" x="450" y="-307.5" font-family="Helvetica,sans-Serif" font-size="10.00" fill="#000000">Sensor::recharge</text>
</a>
</g>
</g>
<!-- Node3&#45;&gt;Node9 -->
<g id="edge8" class="edge">
<title>Node3&#45;&gt;Node9</title>
<path fill="none" stroke="#191970" d="M293.4052,-310C321.9195,-310 361.6516,-310 393.9583,-310"/>
<polygon fill="#191970" stroke="#191970" points="394.163,-313.5001 404.1629,-310 394.1629,-306.5001 394.163,-313.5001"/>
</g>
<!-- Node3&#45;&gt;Node11 -->
<g id="edge11" class="edge">
<title>Node3&#45;&gt;Node11</title>
<path fill="none" stroke="#191970" d="M261.6506,-300.3642C276.4306,-275.9952 318.7318,-211.4066 371,-177 374.1279,-174.941 377.4365,-173.0422 380.8568,-171.2924"/>
<polygon fill="#191970" stroke="#191970" points="382.5204,-174.3791 390.1236,-167.0007 379.5786,-168.0273 382.5204,-174.3791"/>
</g>
<!-- Node13 -->
<g id="node13" class="node">
<title>Node13</title>
<g id="a_node13"><a xlink:href="classSensor.html#afa34e334fc608034f8aeb8cb3d34abc9" target="_top" xlink:title=" ">
<polygon fill="#ffffff" stroke="#000000" points="407,-262.5 407,-281.5 493,-281.5 493,-262.5 407,-262.5"/>
<text text-anchor="middle" x="450" y="-269.5" font-family="Helvetica,sans-Serif" font-size="10.00" fill="#000000">Sensor::transfer</text>
</a>
</g>
</g>
<!-- Node3&#45;&gt;Node13 -->
<g id="edge13" class="edge">
<title>Node3&#45;&gt;Node13</title>
<path fill="none" stroke="#191970" d="M293.4052,-302.6732C322.8412,-296.9074 364.2319,-288.7999 397.0673,-282.3683"/>
<polygon fill="#191970" stroke="#191970" points="397.8195,-285.7875 406.9602,-280.4305 396.4738,-278.9181 397.8195,-285.7875"/>
</g>
<!-- Node14 -->
<g id="node14" class="node">
<title>Node14</title>
<g id="a_node14"><a xlink:href="classSensor.html#a7e0dadfc3dcde4c6c7b20d0c0ae09082" target="_top" xlink:title=" ">
<polygon fill="#ffffff" stroke="#000000" points="408.5,-224.5 408.5,-243.5 491.5,-243.5 491.5,-224.5 408.5,-224.5"/>
<text text-anchor="middle" x="450" y="-231.5" font-family="Helvetica,sans-Serif" font-size="10.00" fill="#000000">Sensor::turnOff</text>
</a>
</g>
</g>
<!-- Node3&#45;&gt;Node14 -->
<g id="edge14" class="edge">
<title>Node3&#45;&gt;Node14</title>
<path fill="none" stroke="#191970" d="M272.2439,-300.4868C294.0636,-288.0536 334.3432,-266.3016 371,-253 379.7643,-249.8197 389.2689,-247.0151 398.5473,-244.6042"/>
<polygon fill="#191970" stroke="#191970" points="399.616,-247.9454 408.481,-242.1435 397.9328,-241.1507 399.616,-247.9454"/>
</g>
<!-- Node15 -->
<g id="node15" class="node">
<title>Node15</title>
<g id="a_node15"><a xlink:href="classSensor.html#ab687b1dd4e4ecb1d806bf947cedc9b76" target="_top" xlink:title=" ">
<polygon fill="#ffffff" stroke="#000000" points="408.5,-186.5 408.5,-205.5 491.5,-205.5 491.5,-186.5 408.5,-186.5"/>
<text text-anchor="middle" x="450" y="-193.5" font-family="Helvetica,sans-Serif" font-size="10.00" fill="#000000">Sensor::turnOn</text>
</a>
</g>
</g>
<!-- Node3&#45;&gt;Node15 -->
<g id="edge15" class="edge">
<title>Node3&#45;&gt;Node15</title>
<path fill="none" stroke="#191970" d="M264.7816,-300.2324C282.7458,-280.8741 325.8236,-237.5649 371,-215 379.5232,-210.7428 389.0479,-207.4094 398.4523,-204.8087"/>
<polygon fill="#191970" stroke="#191970" points="399.3239,-208.1986 408.1621,-202.3558 397.6094,-201.4118 399.3239,-208.1986"/>
</g>
<!-- Node9&#45;&gt;Node6 -->
<g id="edge10" class="edge">
<title>Node9&#45;&gt;Node6</title>
<path fill="none" stroke="#191970" d="M495.7309,-318.8778C506.7917,-321.6022 518.4593,-324.9692 529,-329 558.0478,-340.1078 588.9683,-357.102 611.4231,-370.491"/>
<polygon fill="#191970" stroke="#191970" points="609.827,-373.6159 620.1953,-375.795 613.4489,-367.6257 609.827,-373.6159"/>
</g>
<!-- Node10 -->
<g id="node10" class="node">
<title>Node10</title>
<g id="a_node10"><a xlink:href="classbsn_1_1resource_1_1Battery.html#aa7265cd180da80242067253f7f42272c" target="_top" xlink:title=" ">
<polygon fill="#ffffff" stroke="#000000" points="587.5,-295 587.5,-325 700.5,-325 700.5,-295 587.5,-295"/>
<text text-anchor="start" x="595.5" y="-313" font-family="Helvetica,sans-Serif" font-size="10.00" fill="#000000">bsn::resource::Battery</text>
<text text-anchor="middle" x="644" y="-302" font-family="Helvetica,sans-Serif" font-size="10.00" fill="#000000">::generate</text>
</a>
</g>
</g>
<!-- Node9&#45;&gt;Node10 -->
<g id="edge9" class="edge">
<title>Node9&#45;&gt;Node10</title>
<path fill="none" stroke="#191970" d="M495.9753,-310C520.2179,-310 550.4047,-310 577.1829,-310"/>
<polygon fill="#191970" stroke="#191970" points="577.2596,-313.5001 587.2596,-310 577.2595,-306.5001 577.2596,-313.5001"/>
</g>
<!-- Node12 -->
<g id="node12" class="node">
<title>Node12</title>
<g id="a_node12"><a xlink:href="classarch_1_1ROSComponentDescriptor.html#a462b00745d0de3f98d88f3eb1ba11e45" target="_top" xlink:title=" ">
<polygon fill="#ffffff" stroke="#000000" points="565,-137 565,-167 723,-167 723,-137 565,-137"/>
<text text-anchor="start" x="573" y="-155" font-family="Helvetica,sans-Serif" font-size="10.00" fill="#000000">arch::ROSComponentDescriptor</text>
<text text-anchor="middle" x="644" y="-144" font-family="Helvetica,sans-Serif" font-size="10.00" fill="#000000">::getName</text>
</a>
</g>
</g>
<!-- Node11&#45;&gt;Node12 -->
<g id="edge12" class="edge">
<title>Node11&#45;&gt;Node12</title>
<path fill="none" stroke="#191970" d="M514.0605,-152C526.989,-152 540.8033,-152 554.4214,-152"/>
<polygon fill="#191970" stroke="#191970" points="554.7791,-155.5001 564.7791,-152 554.779,-148.5001 554.7791,-155.5001"/>
</g>
<!-- Node18 -->
<g id="node18" class="node">
<title>Node18</title>
<g id="a_node18"><a xlink:href="namespacebsn_1_1utils.html#a4ab7be3d27380abe032f4ceec86b09b2" target="_top" xlink:title=" ">
<polygon fill="#ffffff" stroke="#000000" points="410,-76.5 410,-95.5 490,-95.5 490,-76.5 410,-76.5"/>
<text text-anchor="middle" x="450" y="-83.5" font-family="Helvetica,sans-Serif" font-size="10.00" fill="#000000">bsn::utils::split</text>
</a>
</g>
</g>
<!-- Node17&#45;&gt;Node18 -->
<g id="edge18" class="edge">
<title>Node17&#45;&gt;Node18</title>
<path fill="none" stroke="#191970" d="M319.5229,-86C345.533,-86 375.2035,-86 399.672,-86"/>
<polygon fill="#191970" stroke="#191970" points="399.8141,-89.5001 409.8141,-86 399.8141,-82.5001 399.8141,-89.5001"/>
</g>
<!-- Node19&#45;&gt;Node18 -->
<g id="edge21" class="edge">
<title>Node19&#45;&gt;Node18</title>
<path fill="none" stroke="#191970" d="M304.9544,-57.589C333.9727,-63.273 370.6657,-70.4603 399.8852,-76.1837"/>
<polygon fill="#191970" stroke="#191970" points="399.3977,-79.6546 409.884,-78.1422 400.7433,-72.7852 399.3977,-79.6546"/>
</g>
<!-- Node20 -->
<g id="node20" class="node">
<title>Node20</title>
<g id="a_node20"><a xlink:href="classarch_1_1ROSComponentDescriptor.html#a6ae1f0c4c644bce7bc7e99e408dc7ca0" target="_top" xlink:title=" ">
<polygon fill="#ffffff" stroke="#000000" points="371,-27 371,-57 529,-57 529,-27 371,-27"/>
<text text-anchor="start" x="379" y="-45" font-family="Helvetica,sans-Serif" font-size="10.00" fill="#000000">arch::ROSComponentDescriptor</text>
<text text-anchor="middle" x="450" y="-34" font-family="Helvetica,sans-Serif" font-size="10.00" fill="#000000">::setFreq</text>
</a>
</g>
</g>
<!-- Node19&#45;&gt;Node20 -->
<g id="edge20" class="edge">
<title>Node19&#45;&gt;Node20</title>
<path fill="none" stroke="#191970" d="M306.7178,-46.4314C323.1999,-45.9217 342.0107,-45.3399 360.4594,-44.7693"/>
<polygon fill="#191970" stroke="#191970" points="360.7674,-48.2615 370.6544,-44.454 360.551,-41.2649 360.7674,-48.2615"/>
</g>
</g>
</svg>
