<?xml version="1.0" encoding="UTF-8" standalone="no"?>
<!DOCTYPE svg PUBLIC "-//W3C//DTD SVG 1.1//EN"
 "http://www.w3.org/Graphics/SVG/1.1/DTD/svg11.dtd">
<!-- Generated by graphviz version 2.40.1 (20161225.0304)
 -->
<!-- Title: src/target_system/components/component/src/g3t1_5/G3T1_5.cpp Pages: 1 -->
<svg width="1583pt" height="408pt"
 viewBox="0.00 0.00 1583.31 408.00" xmlns="http://www.w3.org/2000/svg" xmlns:xlink="http://www.w3.org/1999/xlink">
<g id="graph0" class="graph" transform="scale(1 1) rotate(0) translate(4 404)">
<title>src/target_system/components/component/src/g3t1_5/G3T1_5.cpp</title>
<polygon fill="#ffffff" stroke="transparent" points="-4,4 -4,-404 1579.3122,-404 1579.3122,4 -4,4"/>
<!-- Node1 -->
<g id="node1" class="node">
<title>Node1</title>
<g id="a_node1"><a xlink:title=" ">
<polygon fill="#bfbfbf" stroke="#000000" points="454.8122,-369.5 454.8122,-399.5 627.8122,-399.5 627.8122,-369.5 454.8122,-369.5"/>
<text text-anchor="start" x="462.8122" y="-387.5" font-family="Helvetica,sans-Serif" font-size="10.00" fill="#000000">src/target_system/components</text>
<text text-anchor="middle" x="541.3122" y="-376.5" font-family="Helvetica,sans-Serif" font-size="10.00" fill="#000000">/component/src/g3t1_5/G3T1_5.cpp</text>
</a>
</g>
</g>
<!-- Node2 -->
<g id="node2" class="node">
<title>Node2</title>
<g id="a_node2"><a xlink:href="G3T1__5_8hpp.html" target="_top" xlink:title=" ">
<polygon fill="#ffffff" stroke="#000000" points="479.3122,-302.5 479.3122,-332.5 603.3122,-332.5 603.3122,-302.5 479.3122,-302.5"/>
<text text-anchor="start" x="487.3122" y="-320.5" font-family="Helvetica,sans-Serif" font-size="10.00" fill="#000000">component/g3t1_5/G3T1</text>
<text text-anchor="middle" x="541.3122" y="-309.5" font-family="Helvetica,sans-Serif" font-size="10.00" fill="#000000">_5.hpp</text>
</a>
</g>
</g>
<!-- Node1&#45;&gt;Node2 -->
<g id="edge1" class="edge">
<title>Node1&#45;&gt;Node2</title>
<path fill="none" stroke="#191970" d="M541.3122,-369.2967C541.3122,-361.5013 541.3122,-351.7991 541.3122,-342.9064"/>
<polygon fill="#191970" stroke="#191970" points="544.8123,-342.6431 541.3122,-332.6432 537.8123,-342.6432 544.8123,-342.6431"/>
</g>
<!-- Node3 -->
<g id="node3" class="node">
<title>Node3</title>
<g id="a_node3"><a xlink:title=" ">
<polygon fill="#ffffff" stroke="#bfbfbf" points="615.8122,-.5 615.8122,-19.5 656.8122,-19.5 656.8122,-.5 615.8122,-.5"/>
<text text-anchor="middle" x="636.3122" y="-7.5" font-family="Helvetica,sans-Serif" font-size="10.00" fill="#000000">string</text>
</a>
</g>
</g>
<!-- Node2&#45;&gt;Node3 -->
<g id="edge2" class="edge">
<title>Node2&#45;&gt;Node3</title>
<path fill="none" stroke="#191970" d="M479.0178,-315.3545C348.395,-310.2857 55.0686,-295.7011 21.3122,-266 -6.9365,-241.145 2.3122,-221.1265 2.3122,-183.5 2.3122,-183.5 2.3122,-183.5 2.3122,-122 2.3122,-60.0254 478.1699,-21.3711 605.3656,-12.1459"/>
<polygon fill="#191970" stroke="#191970" points="605.8539,-15.62 615.5783,-11.4144 605.3538,-8.6379 605.8539,-15.62"/>
</g>
<!-- Node4 -->
<g id="node4" class="node">
<title>Node4</title>
<g id="a_node4"><a xlink:title=" ">
<polygon fill="#ffffff" stroke="#bfbfbf" points="30.8122,-241 30.8122,-260 89.8122,-260 89.8122,-241 30.8122,-241"/>
<text text-anchor="middle" x="60.3122" y="-248" font-family="Helvetica,sans-Serif" font-size="10.00" fill="#000000">exception</text>
</a>
</g>
</g>
<!-- Node2&#45;&gt;Node4 -->
<g id="edge3" class="edge">
<title>Node2&#45;&gt;Node4</title>
<path fill="none" stroke="#191970" d="M479.0558,-314.5024C393.6153,-309.4093 235.6564,-296.4768 104.3122,-266 100.8951,-265.2071 97.3747,-264.2388 93.8839,-263.1772"/>
<polygon fill="#191970" stroke="#191970" points="94.8272,-259.8031 84.2344,-260.0062 92.6419,-266.4532 94.8272,-259.8031"/>
</g>
<!-- Node5 -->
<g id="node5" class="node">
<title>Node5</title>
<g id="a_node5"><a xlink:title=" ">
<polygon fill="#ffffff" stroke="#bfbfbf" points="1157.8122,-.5 1157.8122,-19.5 1212.8122,-19.5 1212.8122,-.5 1157.8122,-.5"/>
<text text-anchor="middle" x="1185.3122" y="-7.5" font-family="Helvetica,sans-Serif" font-size="10.00" fill="#000000">ros/ros.h</text>
</a>
</g>
</g>
<!-- Node2&#45;&gt;Node5 -->
<g id="edge4" class="edge">
<title>Node2&#45;&gt;Node5</title>
<path fill="none" stroke="#191970" d="M603.3569,-313.6898C724.4019,-305.9005 987.9338,-287.0985 1076.3122,-266 1174.2512,-242.6191 1287.3122,-284.1912 1287.3122,-183.5 1287.3122,-183.5 1287.3122,-183.5 1287.3122,-122 1287.3122,-77.6687 1243.0898,-43.1591 1212.8812,-24.7571"/>
<polygon fill="#191970" stroke="#191970" points="1214.4188,-21.6016 1204.0205,-19.5702 1210.8824,-27.6426 1214.4188,-21.6016"/>
</g>
<!-- Node6 -->
<g id="node6" class="node">
<title>Node6</title>
<g id="a_node6"><a xlink:title=" ">
<polygon fill="#ffffff" stroke="#bfbfbf" points="146.3122,-241 146.3122,-260 256.3122,-260 256.3122,-241 146.3122,-241"/>
<text text-anchor="middle" x="201.3122" y="-248" font-family="Helvetica,sans-Serif" font-size="10.00" fill="#000000">bsn/range/Range.hpp</text>
</a>
</g>
</g>
<!-- Node2&#45;&gt;Node6 -->
<g id="edge5" class="edge">
<title>Node2&#45;&gt;Node6</title>
<path fill="none" stroke="#191970" d="M479.3081,-306.3215C424.3049,-296.2613 341.8253,-280.8231 270.3122,-266 264.6129,-264.8187 258.6583,-263.5433 252.7383,-262.2493"/>
<polygon fill="#191970" stroke="#191970" points="253.379,-258.8065 242.8594,-260.0673 251.8691,-265.6418 253.379,-258.8065"/>
</g>
<!-- Node7 -->
<g id="node7" class="node">
<title>Node7</title>
<g id="a_node7"><a xlink:title=" ">
<polygon fill="#ffffff" stroke="#bfbfbf" points="74.3122,-174 74.3122,-193 200.3122,-193 200.3122,-174 74.3122,-174"/>
<text text-anchor="middle" x="137.3122" y="-181" font-family="Helvetica,sans-Serif" font-size="10.00" fill="#000000">bsn/resource/Battery.hpp</text>
</a>
</g>
</g>
<!-- Node2&#45;&gt;Node7 -->
<g id="edge6" class="edge">
<title>Node2&#45;&gt;Node7</title>
<path fill="none" stroke="#191970" d="M479.0258,-314.0218C371.2974,-307.3649 159.5085,-291.2054 137.3122,-266 122.2777,-248.9274 125.8987,-221.283 130.8137,-202.7564"/>
<polygon fill="#191970" stroke="#191970" points="134.2043,-203.6348 133.7259,-193.0507 127.4996,-201.623 134.2043,-203.6348"/>
</g>
<!-- Node8 -->
<g id="node8" class="node">
<title>Node8</title>
<g id="a_node8"><a xlink:title=" ">
<polygon fill="#ffffff" stroke="#bfbfbf" points="312.3122,-241 312.3122,-260 442.3122,-260 442.3122,-241 312.3122,-241"/>
<text text-anchor="middle" x="377.3122" y="-248" font-family="Helvetica,sans-Serif" font-size="10.00" fill="#000000">bsn/generator/Markov.hpp</text>
</a>
</g>
</g>
<!-- Node2&#45;&gt;Node8 -->
<g id="edge7" class="edge">
<title>Node2&#45;&gt;Node8</title>
<path fill="none" stroke="#191970" d="M504.5074,-302.4639C476.2465,-290.9183 437.5701,-275.1176 410.3075,-263.9798"/>
<polygon fill="#191970" stroke="#191970" points="411.4012,-260.6459 400.8203,-260.1039 408.7538,-267.126 411.4012,-260.6459"/>
</g>
<!-- Node9 -->
<g id="node9" class="node">
<title>Node9</title>
<g id="a_node9"><a xlink:title=" ">
<polygon fill="#ffffff" stroke="#bfbfbf" points="460.8122,-241 460.8122,-260 621.8122,-260 621.8122,-241 460.8122,-241"/>
<text text-anchor="middle" x="541.3122" y="-248" font-family="Helvetica,sans-Serif" font-size="10.00" fill="#000000">bsn/generator/DataGenerator.hpp</text>
</a>
</g>
</g>
<!-- Node2&#45;&gt;Node9 -->
<g id="edge8" class="edge">
<title>Node2&#45;&gt;Node9</title>
<path fill="none" stroke="#191970" d="M541.3122,-302.2967C541.3122,-292.7699 541.3122,-280.3954 541.3122,-270.1306"/>
<polygon fill="#191970" stroke="#191970" points="544.8123,-270.0549 541.3122,-260.055 537.8123,-270.055 544.8123,-270.0549"/>
</g>
<!-- Node10 -->
<g id="node10" class="node">
<title>Node10</title>
<g id="a_node10"><a xlink:title=" ">
<polygon fill="#ffffff" stroke="#bfbfbf" points="639.8122,-241 639.8122,-260 788.8122,-260 788.8122,-241 639.8122,-241"/>
<text text-anchor="middle" x="714.3122" y="-248" font-family="Helvetica,sans-Serif" font-size="10.00" fill="#000000">bsn/filters/MovingAverage.hpp</text>
</a>
</g>
</g>
<!-- Node2&#45;&gt;Node10 -->
<g id="edge9" class="edge">
<title>Node2&#45;&gt;Node10</title>
<path fill="none" stroke="#191970" d="M580.1367,-302.4639C610.1683,-290.8332 651.3497,-274.8843 680.1404,-263.7342"/>
<polygon fill="#191970" stroke="#191970" points="681.7076,-266.8806 689.7687,-260.0053 679.1795,-260.353 681.7076,-266.8806"/>
</g>
<!-- Node11 -->
<g id="node11" class="node">
<title>Node11</title>
<g id="a_node11"><a xlink:title=" ">
<polygon fill="#ffffff" stroke="#bfbfbf" points="240.8122,-174 240.8122,-193 333.8122,-193 333.8122,-174 240.8122,-174"/>
<text text-anchor="middle" x="287.3122" y="-181" font-family="Helvetica,sans-Serif" font-size="10.00" fill="#000000">bsn/utils/utils.hpp</text>
</a>
</g>
</g>
<!-- Node2&#45;&gt;Node11 -->
<g id="edge10" class="edge">
<title>Node2&#45;&gt;Node11</title>
<path fill="none" stroke="#191970" d="M479.1596,-311.7651C417.034,-304.7262 327.3746,-290.5864 303.3122,-266 287.1797,-249.5163 284.8703,-221.9306 285.4636,-203.2402"/>
<polygon fill="#191970" stroke="#191970" points="288.9621,-203.3703 286.088,-193.1728 281.9756,-202.9369 288.9621,-203.3703"/>
</g>
<!-- Node12 -->
<g id="node12" class="node">
<title>Node12</title>
<g id="a_node12"><a xlink:title=" ">
<polygon fill="#ffffff" stroke="#bfbfbf" points="941.8122,-235.5 941.8122,-265.5 1066.8122,-265.5 1066.8122,-235.5 941.8122,-235.5"/>
<text text-anchor="start" x="949.8122" y="-253.5" font-family="Helvetica,sans-Serif" font-size="10.00" fill="#000000">bsn/configuration/Sensor</text>
<text text-anchor="middle" x="1004.3122" y="-242.5" font-family="Helvetica,sans-Serif" font-size="10.00" fill="#000000">Configuration.hpp</text>
</a>
</g>
</g>
<!-- Node2&#45;&gt;Node12 -->
<g id="edge11" class="edge">
<title>Node2&#45;&gt;Node12</title>
<path fill="none" stroke="#191970" d="M603.3407,-310.9862C678.786,-302.6981 810.1886,-287.0895 931.7922,-266.1897"/>
<polygon fill="#191970" stroke="#191970" points="932.3941,-269.6376 941.6488,-264.4801 931.1978,-262.7406 932.3941,-269.6376"/>
</g>
<!-- Node13 -->
<g id="node13" class="node">
<title>Node13</title>
<g id="a_node13"><a xlink:href="Sensor_8hpp.html" target="_top" xlink:title=" ">
<polygon fill="#ffffff" stroke="#000000" points="806.8122,-241 806.8122,-260 923.8122,-260 923.8122,-241 806.8122,-241"/>
<text text-anchor="middle" x="865.3122" y="-248" font-family="Helvetica,sans-Serif" font-size="10.00" fill="#000000">component/Sensor.hpp</text>
</a>
</g>
</g>
<!-- Node2&#45;&gt;Node13 -->
<g id="edge12" class="edge">
<title>Node2&#45;&gt;Node13</title>
<path fill="none" stroke="#191970" d="M603.4756,-305.5774C655.5919,-295.4538 731.9243,-280.3276 798.3122,-266 803.7097,-264.8351 809.3439,-263.5852 814.9529,-262.3191"/>
<polygon fill="#191970" stroke="#191970" points="815.9933,-265.6718 824.9656,-260.0372 814.4378,-258.8468 815.9933,-265.6718"/>
</g>
<!-- Node26 -->
<g id="node26" class="node">
<title>Node26</title>
<g id="a_node26"><a xlink:title=" ">
<polygon fill="#ffffff" stroke="#bfbfbf" points="1315.8122,-241 1315.8122,-260 1440.8122,-260 1440.8122,-241 1315.8122,-241"/>
<text text-anchor="middle" x="1378.3122" y="-248" font-family="Helvetica,sans-Serif" font-size="10.00" fill="#000000">messages/SensorData.h</text>
</a>
</g>
</g>
<!-- Node2&#45;&gt;Node26 -->
<g id="edge35" class="edge">
<title>Node2&#45;&gt;Node26</title>
<path fill="none" stroke="#191970" d="M603.6524,-316.0381C733.8107,-312.3794 1043.747,-300.4994 1301.3122,-266 1309.3834,-264.9189 1317.8792,-263.4987 1326.1622,-261.9565"/>
<polygon fill="#191970" stroke="#191970" points="1326.9648,-265.3662 1336.1173,-260.0293 1325.6344,-258.4937 1326.9648,-265.3662"/>
</g>
<!-- Node27 -->
<g id="node27" class="node">
<title>Node27</title>
<g id="a_node27"><a xlink:title=" ">
<polygon fill="#ffffff" stroke="#bfbfbf" points="1459.3122,-241 1459.3122,-260 1575.3122,-260 1575.3122,-241 1459.3122,-241"/>
<text text-anchor="middle" x="1517.3122" y="-248" font-family="Helvetica,sans-Serif" font-size="10.00" fill="#000000">services/PatientData.h</text>
</a>
</g>
</g>
<!-- Node2&#45;&gt;Node27 -->
<g id="edge36" class="edge">
<title>Node2&#45;&gt;Node27</title>
<path fill="none" stroke="#191970" d="M603.531,-315.3613C780.7949,-309.0477 1286.2087,-289.4555 1450.3122,-266 1457.1413,-265.0239 1464.301,-263.6988 1471.294,-262.2319"/>
<polygon fill="#191970" stroke="#191970" points="1472.354,-265.5822 1481.3624,-260.0056 1470.8426,-258.7473 1472.354,-265.5822"/>
</g>
<!-- Node13&#45;&gt;Node3 -->
<g id="edge14" class="edge">
<title>Node13&#45;&gt;Node3</title>
<path fill="none" stroke="#191970" d="M827.2592,-240.9274C727.0901,-215.5554 462.9717,-147.4651 451.3122,-132 405.3486,-71.0344 541.8213,-31.2755 605.5011,-16.4811"/>
<polygon fill="#191970" stroke="#191970" points="606.4317,-19.8591 615.4155,-14.243 604.8902,-13.031 606.4317,-19.8591"/>
</g>
<!-- Node13&#45;&gt;Node7 -->
<g id="edge33" class="edge">
<title>Node13&#45;&gt;Node7</title>
<path fill="none" stroke="#191970" d="M829.007,-240.9595C819.113,-238.6728 808.3534,-236.4701 798.3122,-235 548.4683,-198.4208 482.1973,-227.5768 231.3122,-199 220.9757,-197.8226 210.044,-196.2881 199.4336,-194.6431"/>
<polygon fill="#191970" stroke="#191970" points="199.8157,-191.1598 189.389,-193.04 198.7124,-198.0724 199.8157,-191.1598"/>
</g>
<!-- Node13&#45;&gt;Node11 -->
<g id="edge34" class="edge">
<title>Node13&#45;&gt;Node11</title>
<path fill="none" stroke="#191970" d="M828.6406,-240.9903C818.8433,-238.7317 808.2229,-236.5351 798.3122,-235 600.4755,-204.3558 546.8709,-231.3874 349.3122,-199 343.4202,-198.0341 337.2658,-196.7894 331.2195,-195.4257"/>
<polygon fill="#191970" stroke="#191970" points="331.7501,-191.9544 321.2117,-193.0468 330.1312,-198.7646 331.7501,-191.9544"/>
</g>
<!-- Node14 -->
<g id="node14" class="node">
<title>Node14</title>
<g id="a_node14"><a xlink:title=" ">
<polygon fill="#ffffff" stroke="#bfbfbf" points="358.3122,-174 358.3122,-193 404.3122,-193 404.3122,-174 358.3122,-174"/>
<text text-anchor="middle" x="381.3122" y="-181" font-family="Helvetica,sans-Serif" font-size="10.00" fill="#000000">stdio.h</text>
</a>
</g>
</g>
<!-- Node13&#45;&gt;Node14 -->
<g id="edge13" class="edge">
<title>Node13&#45;&gt;Node14</title>
<path fill="none" stroke="#191970" d="M827.9241,-240.9259C818.3229,-238.7224 807.9758,-236.5684 798.3122,-235 630.8583,-207.8218 582.8672,-240.2442 418.3122,-199 415.6796,-198.3402 412.9912,-197.5221 410.3249,-196.6092"/>
<polygon fill="#191970" stroke="#191970" points="411.4953,-193.3095 400.9049,-193.0011 408.9915,-199.8465 411.4953,-193.3095"/>
</g>
<!-- Node15 -->
<g id="node15" class="node">
<title>Node15</title>
<g id="a_node15"><a xlink:title=" ">
<polygon fill="#ffffff" stroke="#bfbfbf" points="708.3122,-174 708.3122,-193 752.3122,-193 752.3122,-174 708.3122,-174"/>
<text text-anchor="middle" x="730.3122" y="-181" font-family="Helvetica,sans-Serif" font-size="10.00" fill="#000000">vector</text>
</a>
</g>
</g>
<!-- Node13&#45;&gt;Node15 -->
<g id="edge15" class="edge">
<title>Node13&#45;&gt;Node15</title>
<path fill="none" stroke="#191970" d="M845.9699,-240.9005C823.1134,-229.5569 784.8851,-210.5844 758.6788,-197.5783"/>
<polygon fill="#191970" stroke="#191970" points="760.132,-194.3922 749.6185,-193.0817 757.02,-200.6624 760.132,-194.3922"/>
</g>
<!-- Node16 -->
<g id="node16" class="node">
<title>Node16</title>
<g id="a_node16"><a xlink:href="Component_8hpp.html" target="_top" xlink:title=" ">
<polygon fill="#ffffff" stroke="#000000" points="934.3122,-168.5 934.3122,-198.5 1044.3122,-198.5 1044.3122,-168.5 934.3122,-168.5"/>
<text text-anchor="start" x="942.3122" y="-186.5" font-family="Helvetica,sans-Serif" font-size="10.00" fill="#000000">archlib/target_system</text>
<text text-anchor="middle" x="989.3122" y="-175.5" font-family="Helvetica,sans-Serif" font-size="10.00" fill="#000000">/Component.hpp</text>
</a>
</g>
</g>
<!-- Node13&#45;&gt;Node16 -->
<g id="edge16" class="edge">
<title>Node13&#45;&gt;Node16</title>
<path fill="none" stroke="#191970" d="M883.0783,-240.9005C901.1688,-231.1258 929.7431,-215.6865 952.7022,-203.2812"/>
<polygon fill="#191970" stroke="#191970" points="954.3766,-206.3548 961.5107,-198.5218 951.049,-200.1962 954.3766,-206.3548"/>
</g>
<!-- Node20 -->
<g id="node20" class="node">
<title>Node20</title>
<g id="a_node20"><a xlink:title=" ">
<polygon fill="#ffffff" stroke="#bfbfbf" points="460.3122,-112.5 460.3122,-131.5 608.3122,-131.5 608.3122,-112.5 460.3122,-112.5"/>
<text text-anchor="middle" x="534.3122" y="-119.5" font-family="Helvetica,sans-Serif" font-size="10.00" fill="#000000">archlib/AdaptationCommand.h</text>
</a>
</g>
</g>
<!-- Node13&#45;&gt;Node20 -->
<g id="edge31" class="edge">
<title>Node13&#45;&gt;Node20</title>
<path fill="none" stroke="#191970" d="M852.8466,-240.6329C839.7584,-230.2708 818.582,-213.4988 800.3122,-199 782.968,-185.2359 781.3849,-177.3464 761.3122,-168 734.5449,-155.5365 663.7839,-142.2344 608.3138,-133.1576"/>
<polygon fill="#191970" stroke="#191970" points="608.5789,-129.6551 598.1483,-131.5131 607.461,-136.5652 608.5789,-129.6551"/>
</g>
<!-- Node25 -->
<g id="node25" class="node">
<title>Node25</title>
<g id="a_node25"><a xlink:title=" ">
<polygon fill="#ffffff" stroke="#bfbfbf" points="808.8122,-174 808.8122,-193 915.8122,-193 915.8122,-174 808.8122,-174"/>
<text text-anchor="middle" x="862.3122" y="-181" font-family="Helvetica,sans-Serif" font-size="10.00" fill="#000000">archlib/Uncertainty.h</text>
</a>
</g>
</g>
<!-- Node13&#45;&gt;Node25 -->
<g id="edge32" class="edge">
<title>Node13&#45;&gt;Node25</title>
<path fill="none" stroke="#191970" d="M864.8823,-240.9005C864.4457,-231.149 863.7566,-215.7597 863.2018,-203.3695"/>
<polygon fill="#191970" stroke="#191970" points="866.6851,-202.9151 862.7412,-193.0817 859.6921,-203.2282 866.6851,-202.9151"/>
</g>
<!-- Node16&#45;&gt;Node3 -->
<g id="edge17" class="edge">
<title>Node16&#45;&gt;Node3</title>
<path fill="none" stroke="#191970" d="M934.2332,-169.7735C931.2219,-169.1441 928.2337,-168.5477 925.3122,-168 866.0342,-156.8868 699.5816,-174.0135 656.3122,-132 628.9603,-105.442 629.936,-57.0046 633.0971,-29.8354"/>
<polygon fill="#191970" stroke="#191970" points="636.6069,-30.0046 634.5094,-19.6194 629.6729,-29.0459 636.6069,-30.0046"/>
</g>
<!-- Node16&#45;&gt;Node5 -->
<g id="edge19" class="edge">
<title>Node16&#45;&gt;Node5</title>
<path fill="none" stroke="#191970" d="M1044.3269,-179.5931C1108.0879,-173.7866 1207.3736,-160.3582 1230.3122,-132 1255.9511,-100.3033 1223.0255,-52.6169 1201.4017,-27.2721"/>
<polygon fill="#191970" stroke="#191970" points="1203.8508,-24.7582 1194.6026,-19.5888 1198.6085,-29.3971 1203.8508,-24.7582"/>
</g>
<!-- Node17 -->
<g id="node17" class="node">
<title>Node17</title>
<g id="a_node17"><a xlink:title=" ">
<polygon fill="#ffffff" stroke="#bfbfbf" points="1071.3122,-112.5 1071.3122,-131.5 1121.3122,-131.5 1121.3122,-112.5 1071.3122,-112.5"/>
<text text-anchor="middle" x="1096.3122" y="-119.5" font-family="Helvetica,sans-Serif" font-size="10.00" fill="#000000">signal.h</text>
</a>
</g>
</g>
<!-- Node16&#45;&gt;Node17 -->
<g id="edge18" class="edge">
<title>Node16&#45;&gt;Node17</title>
<path fill="none" stroke="#191970" d="M1015.4873,-168.4554C1032.4009,-158.734 1054.2951,-146.15 1071.0294,-136.5317"/>
<polygon fill="#191970" stroke="#191970" points="1072.8051,-139.548 1079.731,-131.5303 1069.3169,-133.4791 1072.8051,-139.548"/>
</g>
<!-- Node18 -->
<g id="node18" class="node">
<title>Node18</title>
<g id="a_node18"><a xlink:title=" ">
<polygon fill="#ffffff" stroke="#bfbfbf" points="1139.3122,-112.5 1139.3122,-131.5 1221.3122,-131.5 1221.3122,-112.5 1139.3122,-112.5"/>
<text text-anchor="middle" x="1180.3122" y="-119.5" font-family="Helvetica,sans-Serif" font-size="10.00" fill="#000000">archlib/Event.h</text>
</a>
</g>
</g>
<!-- Node16&#45;&gt;Node18 -->
<g id="edge20" class="edge">
<title>Node16&#45;&gt;Node18</title>
<path fill="none" stroke="#191970" d="M1036.036,-168.4554C1068.1844,-158.104 1110.4132,-144.5067 1140.8685,-134.7004"/>
<polygon fill="#191970" stroke="#191970" points="1142.2679,-137.9269 1150.7139,-131.5303 1140.1225,-131.2638 1142.2679,-137.9269"/>
</g>
<!-- Node19 -->
<g id="node19" class="node">
<title>Node19</title>
<g id="a_node19"><a xlink:title=" ">
<polygon fill="#ffffff" stroke="#bfbfbf" points="664.8122,-112.5 664.8122,-131.5 749.8122,-131.5 749.8122,-112.5 664.8122,-112.5"/>
<text text-anchor="middle" x="707.3122" y="-119.5" font-family="Helvetica,sans-Serif" font-size="10.00" fill="#000000">archlib/Status.h</text>
</a>
</g>
</g>
<!-- Node16&#45;&gt;Node19 -->
<g id="edge21" class="edge">
<title>Node16&#45;&gt;Node19</title>
<path fill="none" stroke="#191970" d="M934.1785,-170.0375C931.1814,-169.34 928.2111,-168.6567 925.3122,-168 868.9646,-155.2347 804.1577,-141.706 759.9447,-132.6503"/>
<polygon fill="#191970" stroke="#191970" points="760.4998,-129.1914 750.0015,-130.618 759.098,-136.0496 760.4998,-129.1914"/>
</g>
<!-- Node16&#45;&gt;Node20 -->
<g id="edge22" class="edge">
<title>Node16&#45;&gt;Node20</title>
<path fill="none" stroke="#191970" d="M934.2435,-169.7171C931.2296,-169.1022 928.2379,-168.5244 925.3122,-168 910.429,-165.3323 729.2615,-144.3692 618.8302,-131.6812"/>
<polygon fill="#191970" stroke="#191970" points="619.0358,-128.1819 608.7017,-130.5179 618.237,-135.1362 619.0358,-128.1819"/>
</g>
<!-- Node21 -->
<g id="node21" class="node">
<title>Node21</title>
<g id="a_node21"><a xlink:title=" ">
<polygon fill="#ffffff" stroke="#bfbfbf" points="925.3122,-112.5 925.3122,-131.5 1053.3122,-131.5 1053.3122,-112.5 925.3122,-112.5"/>
<text text-anchor="middle" x="989.3122" y="-119.5" font-family="Helvetica,sans-Serif" font-size="10.00" fill="#000000">archlib/EffectorRegister.h</text>
</a>
</g>
</g>
<!-- Node16&#45;&gt;Node21 -->
<g id="edge23" class="edge">
<title>Node16&#45;&gt;Node21</title>
<path fill="none" stroke="#191970" d="M989.3122,-168.2977C989.3122,-160.3834 989.3122,-150.6043 989.3122,-142.0759"/>
<polygon fill="#191970" stroke="#191970" points="992.8123,-141.8469 989.3122,-131.8469 985.8123,-141.847 992.8123,-141.8469"/>
</g>
<!-- Node22 -->
<g id="node22" class="node">
<title>Node22</title>
<g id="a_node22"><a xlink:href="ROSComponent_8hpp.html" target="_top" xlink:title=" ">
<polygon fill="#ffffff" stroke="#000000" points="767.8122,-112.5 767.8122,-131.5 906.8122,-131.5 906.8122,-112.5 767.8122,-112.5"/>
<text text-anchor="middle" x="837.3122" y="-119.5" font-family="Helvetica,sans-Serif" font-size="10.00" fill="#000000">archlib/ROSComponent.hpp</text>
</a>
</g>
</g>
<!-- Node16&#45;&gt;Node22 -->
<g id="edge24" class="edge">
<title>Node16&#45;&gt;Node22</title>
<path fill="none" stroke="#191970" d="M952.1288,-168.4554C927.1009,-158.329 894.3959,-145.0964 870.2956,-135.3453"/>
<polygon fill="#191970" stroke="#191970" points="871.4495,-132.0366 860.8668,-131.5303 868.824,-138.5256 871.4495,-132.0366"/>
</g>
<!-- Node22&#45;&gt;Node3 -->
<g id="edge25" class="edge">
<title>Node22&#45;&gt;Node3</title>
<path fill="none" stroke="#191970" d="M830.4704,-112.0288C820.1267,-97.6696 799.1651,-71.2256 775.3122,-56 741.5358,-34.4402 696.65,-21.99 667.1444,-15.6056"/>
<polygon fill="#191970" stroke="#191970" points="667.519,-12.1094 657.0188,-13.5223 666.1082,-18.9658 667.519,-12.1094"/>
</g>
<!-- Node22&#45;&gt;Node5 -->
<g id="edge27" class="edge">
<title>Node22&#45;&gt;Node5</title>
<path fill="none" stroke="#191970" d="M880.1535,-112.4212C916.4619,-103.9486 969.7408,-90.6786 1015.3122,-76 1064.4082,-60.1861 1119.8654,-37.7699 1153.7033,-23.5594"/>
<polygon fill="#191970" stroke="#191970" points="1155.2149,-26.7204 1163.0651,-19.6053 1152.4912,-20.272 1155.2149,-26.7204"/>
</g>
<!-- Node23 -->
<g id="node23" class="node">
<title>Node23</title>
<g id="a_node23"><a xlink:title=" ">
<polygon fill="#ffffff" stroke="#bfbfbf" points="706.8122,-56.5 706.8122,-75.5 765.8122,-75.5 765.8122,-56.5 706.8122,-56.5"/>
<text text-anchor="middle" x="736.3122" y="-63.5" font-family="Helvetica,sans-Serif" font-size="10.00" fill="#000000">stdexcept</text>
</a>
</g>
</g>
<!-- Node22&#45;&gt;Node23 -->
<g id="edge26" class="edge">
<title>Node22&#45;&gt;Node23</title>
<path fill="none" stroke="#191970" d="M819.7193,-112.2455C803.9331,-103.4928 780.5483,-90.527 762.5534,-80.5496"/>
<polygon fill="#191970" stroke="#191970" points="764.1463,-77.4308 753.7034,-75.6427 760.7519,-83.5528 764.1463,-77.4308"/>
</g>
<!-- Node24 -->
<g id="node24" class="node">
<title>Node24</title>
<g id="a_node24"><a xlink:href="ROSComponentDescriptor_8hpp.html" target="_top" xlink:title=" ">
<polygon fill="#ffffff" stroke="#000000" points="822.3122,-56.5 822.3122,-75.5 1006.3122,-75.5 1006.3122,-56.5 822.3122,-56.5"/>
<text text-anchor="middle" x="914.3122" y="-63.5" font-family="Helvetica,sans-Serif" font-size="10.00" fill="#000000">archlib/ROSComponentDescriptor.hpp</text>
</a>
</g>
</g>
<!-- Node22&#45;&gt;Node24 -->
<g id="edge28" class="edge">
<title>Node22&#45;&gt;Node24</title>
<path fill="none" stroke="#191970" d="M850.7245,-112.2455C862.3179,-103.814 879.2869,-91.4729 892.78,-81.6598"/>
<polygon fill="#191970" stroke="#191970" points="895.0247,-84.355 901.0535,-75.6427 890.9075,-78.6938 895.0247,-84.355"/>
</g>
<!-- Node24&#45;&gt;Node3 -->
<g id="edge29" class="edge">
<title>Node24&#45;&gt;Node3</title>
<path fill="none" stroke="#191970" d="M866.8381,-56.4369C809.6251,-44.912 715.171,-25.8852 666.851,-16.1517"/>
<polygon fill="#191970" stroke="#191970" points="667.4869,-12.7096 656.9926,-14.1658 666.1045,-19.5717 667.4869,-12.7096"/>
</g>
<!-- Node24&#45;&gt;Node5 -->
<g id="edge30" class="edge">
<title>Node24&#45;&gt;Node5</title>
<path fill="none" stroke="#191970" d="M960.5908,-56.4369C1013.3751,-45.5294 1098.6771,-27.9024 1147.5967,-17.7936"/>
<polygon fill="#191970" stroke="#191970" points="1148.3738,-21.207 1157.4586,-15.7557 1146.9572,-14.3519 1148.3738,-21.207"/>
</g>
</g>
</svg>
