<?xml version="1.0" encoding="UTF-8" standalone="no"?>
<!DOCTYPE svg PUBLIC "-//W3C//DTD SVG 1.1//EN"
 "http://www.w3.org/Graphics/SVG/1.1/DTD/svg11.dtd">
<!-- Generated by graphviz version 2.40.1 (20161225.0304)
 -->
<!-- Title: src/target_system/components/component/apps/g4t1.cpp Pages: 1 -->
<svg width="1373pt" height="386pt"
 viewBox="0.00 0.00 1372.50 386.00" xmlns="http://www.w3.org/2000/svg" xmlns:xlink="http://www.w3.org/1999/xlink">
<g id="graph0" class="graph" transform="scale(1 1) rotate(0) translate(4 382)">
<title>src/target_system/components/component/apps/g4t1.cpp</title>
<polygon fill="#ffffff" stroke="transparent" points="-4,4 -4,-382 1368.5,-382 1368.5,4 -4,4"/>
<!-- Node1 -->
<g id="node1" class="node">
<title>Node1</title>
<g id="a_node1"><a xlink:title=" ">
<polygon fill="#bfbfbf" stroke="#000000" points="324,-347.5 324,-377.5 476,-377.5 476,-347.5 324,-347.5"/>
<text text-anchor="start" x="332" y="-365.5" font-family="Helvetica,sans-Serif" font-size="10.00" fill="#000000">src/target_system/components</text>
<text text-anchor="middle" x="400" y="-354.5" font-family="Helvetica,sans-Serif" font-size="10.00" fill="#000000">/component/apps/g4t1.cpp</text>
</a>
</g>
</g>
<!-- Node2 -->
<g id="node2" class="node">
<title>Node2</title>
<g id="a_node2"><a xlink:href="G4T1_8hpp.html" target="_top" xlink:title=" ">
<polygon fill="#ffffff" stroke="#000000" points="334,-291.5 334,-310.5 466,-310.5 466,-291.5 334,-291.5"/>
<text text-anchor="middle" x="400" y="-298.5" font-family="Helvetica,sans-Serif" font-size="10.00" fill="#000000">component/g4t1/G4T1.hpp</text>
</a>
</g>
</g>
<!-- Node1&#45;&gt;Node2 -->
<g id="edge1" class="edge">
<title>Node1&#45;&gt;Node2</title>
<path fill="none" stroke="#191970" d="M400,-347.2977C400,-339.3834 400,-329.6043 400,-321.0759"/>
<polygon fill="#191970" stroke="#191970" points="403.5001,-320.8469 400,-310.8469 396.5001,-320.847 403.5001,-320.8469"/>
</g>
<!-- Node3 -->
<g id="node3" class="node">
<title>Node3</title>
<g id="a_node3"><a xlink:title=" ">
<polygon fill="#ffffff" stroke="#bfbfbf" points="0,-235.5 0,-254.5 50,-254.5 50,-235.5 0,-235.5"/>
<text text-anchor="middle" x="25" y="-242.5" font-family="Helvetica,sans-Serif" font-size="10.00" fill="#000000">fstream</text>
</a>
</g>
</g>
<!-- Node2&#45;&gt;Node3 -->
<g id="edge2" class="edge">
<title>Node2&#45;&gt;Node3</title>
<path fill="none" stroke="#191970" d="M333.7989,-295.0792C266.9432,-288.422 160.6258,-275.9839 60.1575,-254.9839"/>
<polygon fill="#191970" stroke="#191970" points="60.6508,-251.5107 50.1419,-252.8575 59.1969,-258.3581 60.6508,-251.5107"/>
</g>
<!-- Node4 -->
<g id="node4" class="node">
<title>Node4</title>
<g id="a_node4"><a xlink:title=" ">
<polygon fill="#ffffff" stroke="#bfbfbf" points="68,-235.5 68,-254.5 114,-254.5 114,-235.5 68,-235.5"/>
<text text-anchor="middle" x="91" y="-242.5" font-family="Helvetica,sans-Serif" font-size="10.00" fill="#000000">chrono</text>
</a>
</g>
</g>
<!-- Node2&#45;&gt;Node4 -->
<g id="edge3" class="edge">
<title>Node2&#45;&gt;Node4</title>
<path fill="none" stroke="#191970" d="M333.7253,-292.6207C279.6004,-285.1788 201.0202,-273.013 124.1648,-255.0341"/>
<polygon fill="#191970" stroke="#191970" points="124.8532,-251.6003 114.3151,-252.6953 123.2359,-258.411 124.8532,-251.6003"/>
</g>
<!-- Node5 -->
<g id="node5" class="node">
<title>Node5</title>
<g id="a_node5"><a xlink:title=" ">
<polygon fill="#ffffff" stroke="#bfbfbf" points="132,-235.5 132,-254.5 184,-254.5 184,-235.5 132,-235.5"/>
<text text-anchor="middle" x="158" y="-242.5" font-family="Helvetica,sans-Serif" font-size="10.00" fill="#000000">memory</text>
</a>
</g>
</g>
<!-- Node2&#45;&gt;Node5 -->
<g id="edge4" class="edge">
<title>Node2&#45;&gt;Node5</title>
<path fill="none" stroke="#191970" d="M353.3625,-291.4661C313.504,-283.1315 254.4129,-270.3362 194.3625,-255.2454"/>
<polygon fill="#191970" stroke="#191970" points="194.881,-251.7663 184.3277,-252.7041 193.1624,-258.5521 194.881,-251.7663"/>
</g>
<!-- Node6 -->
<g id="node6" class="node">
<title>Node6</title>
<g id="a_node6"><a xlink:title=" ">
<polygon fill="#ffffff" stroke="#bfbfbf" points="202.5,-235.5 202.5,-254.5 237.5,-254.5 237.5,-235.5 202.5,-235.5"/>
<text text-anchor="middle" x="220" y="-242.5" font-family="Helvetica,sans-Serif" font-size="10.00" fill="#000000">map</text>
</a>
</g>
</g>
<!-- Node2&#45;&gt;Node6 -->
<g id="edge5" class="edge">
<title>Node2&#45;&gt;Node6</title>
<path fill="none" stroke="#191970" d="M366.0797,-291.4627C336.9542,-283.1274 293.6645,-270.3933 247.288,-254.9515"/>
<polygon fill="#191970" stroke="#191970" points="248.2565,-251.5847 237.6625,-251.722 246.0298,-258.2212 248.2565,-251.5847"/>
</g>
<!-- Node7 -->
<g id="node7" class="node">
<title>Node7</title>
<g id="a_node7"><a xlink:title=" ">
<polygon fill="#ffffff" stroke="#bfbfbf" points="256,-235.5 256,-254.5 334,-254.5 334,-235.5 256,-235.5"/>
<text text-anchor="middle" x="295" y="-242.5" font-family="Helvetica,sans-Serif" font-size="10.00" fill="#000000">ros/package.h</text>
</a>
</g>
</g>
<!-- Node2&#45;&gt;Node7 -->
<g id="edge6" class="edge">
<title>Node2&#45;&gt;Node7</title>
<path fill="none" stroke="#191970" d="M381.7104,-291.2455C365.2238,-282.4527 340.7648,-269.4079 322.0235,-259.4125"/>
<polygon fill="#191970" stroke="#191970" points="323.5506,-256.2604 313.08,-254.6427 320.2565,-262.4368 323.5506,-256.2604"/>
</g>
<!-- Node8 -->
<g id="node8" class="node">
<title>Node8</title>
<g id="a_node8"><a xlink:title=" ">
<polygon fill="#ffffff" stroke="#bfbfbf" points="139.5,-.5 139.5,-19.5 194.5,-19.5 194.5,-.5 139.5,-.5"/>
<text text-anchor="middle" x="167" y="-7.5" font-family="Helvetica,sans-Serif" font-size="10.00" fill="#000000">ros/ros.h</text>
</a>
</g>
</g>
<!-- Node2&#45;&gt;Node8 -->
<g id="edge7" class="edge">
<title>Node2&#45;&gt;Node8</title>
<path fill="none" stroke="#191970" d="M393.6924,-291.3047C384.1611,-277.2892 364.863,-251.2692 343,-235 253.1445,-168.1347 173.9002,-226.0008 113,-132 105.0333,-119.7032 105.5125,-83.4499 119,-56 124.7477,-44.3021 134.7642,-33.9739 144.1651,-26.0831"/>
<polygon fill="#191970" stroke="#191970" points="146.4514,-28.7378 152.1454,-19.803 142.1224,-23.2369 146.4514,-28.7378"/>
</g>
<!-- Node9 -->
<g id="node9" class="node">
<title>Node9</title>
<g id="a_node9"><a xlink:title=" ">
<polygon fill="#ffffff" stroke="#bfbfbf" points="1047,-235.5 1047,-254.5 1191,-254.5 1191,-235.5 1047,-235.5"/>
<text text-anchor="middle" x="1119" y="-242.5" font-family="Helvetica,sans-Serif" font-size="10.00" fill="#000000">bsn/processor/Processor.hpp</text>
</a>
</g>
</g>
<!-- Node2&#45;&gt;Node9 -->
<g id="edge8" class="edge">
<title>Node2&#45;&gt;Node9</title>
<path fill="none" stroke="#191970" d="M466.1473,-297.1373C581.4075,-290.1956 826.4942,-274.5003 1033,-255 1034.1223,-254.894 1035.2527,-254.7857 1036.3898,-254.6752"/>
<polygon fill="#191970" stroke="#191970" points="1037.1645,-258.1149 1046.7628,-253.629 1036.462,-251.1502 1037.1645,-258.1149"/>
</g>
<!-- Node10 -->
<g id="node10" class="node">
<title>Node10</title>
<g id="a_node10"><a xlink:title=" ">
<polygon fill="#ffffff" stroke="#bfbfbf" points="271.5,-174 271.5,-193 364.5,-193 364.5,-174 271.5,-174"/>
<text text-anchor="middle" x="318" y="-181" font-family="Helvetica,sans-Serif" font-size="10.00" fill="#000000">bsn/utils/utils.hpp</text>
</a>
</g>
</g>
<!-- Node2&#45;&gt;Node10 -->
<g id="edge9" class="edge">
<title>Node2&#45;&gt;Node10</title>
<path fill="none" stroke="#191970" d="M398.0701,-291.3521C395.0347,-277.8477 388.1955,-252.9518 376,-235 366.5618,-221.1069 352.5526,-208.5267 340.6669,-199.278"/>
<polygon fill="#191970" stroke="#191970" points="342.5885,-196.3447 332.4833,-193.1612 338.3976,-201.9516 342.5885,-196.3447"/>
</g>
<!-- Node11 -->
<g id="node11" class="node">
<title>Node11</title>
<g id="a_node11"><a xlink:href="CentralHub_8hpp.html" target="_top" xlink:title=" ">
<polygon fill="#ffffff" stroke="#000000" points="504,-235.5 504,-254.5 640,-254.5 640,-235.5 504,-235.5"/>
<text text-anchor="middle" x="572" y="-242.5" font-family="Helvetica,sans-Serif" font-size="10.00" fill="#000000">component/CentralHub.hpp</text>
</a>
</g>
</g>
<!-- Node2&#45;&gt;Node11 -->
<g id="edge10" class="edge">
<title>Node2&#45;&gt;Node11</title>
<path fill="none" stroke="#191970" d="M429.5679,-291.3733C458.1688,-282.0613 501.6788,-267.8953 533.0819,-257.671"/>
<polygon fill="#191970" stroke="#191970" points="534.3928,-260.9251 542.818,-254.5011 532.2257,-254.269 534.3928,-260.9251"/>
</g>
<!-- Node15 -->
<g id="node15" class="node">
<title>Node15</title>
<g id="a_node15"><a xlink:href="Component_8hpp.html" target="_top" xlink:title=" ">
<polygon fill="#ffffff" stroke="#000000" points="383,-168.5 383,-198.5 493,-198.5 493,-168.5 383,-168.5"/>
<text text-anchor="start" x="391" y="-186.5" font-family="Helvetica,sans-Serif" font-size="10.00" fill="#000000">archlib/target_system</text>
<text text-anchor="middle" x="438" y="-175.5" font-family="Helvetica,sans-Serif" font-size="10.00" fill="#000000">/Component.hpp</text>
</a>
</g>
</g>
<!-- Node2&#45;&gt;Node15 -->
<g id="edge33" class="edge">
<title>Node2&#45;&gt;Node15</title>
<path fill="none" stroke="#191970" d="M403.1097,-291.3845C408.9051,-273.4644 421.5266,-234.4375 429.8929,-208.5681"/>
<polygon fill="#191970" stroke="#191970" points="433.3326,-209.3061 433.0796,-198.7143 426.6723,-207.1521 433.3326,-209.3061"/>
</g>
<!-- Node19 -->
<g id="node19" class="node">
<title>Node19</title>
<g id="a_node19"><a xlink:title=" ">
<polygon fill="#ffffff" stroke="#bfbfbf" points="786,-112.5 786,-131.5 934,-131.5 934,-112.5 786,-112.5"/>
<text text-anchor="middle" x="860" y="-119.5" font-family="Helvetica,sans-Serif" font-size="10.00" fill="#000000">archlib/AdaptationCommand.h</text>
</a>
</g>
</g>
<!-- Node2&#45;&gt;Node19 -->
<g id="edge34" class="edge">
<title>Node2&#45;&gt;Node19</title>
<path fill="none" stroke="#191970" d="M466.2171,-294.5897C615.1315,-279.5012 966.1167,-239.9204 1000,-199 1026.8126,-166.6187 972.8085,-145.5905 924.2811,-133.8221"/>
<polygon fill="#191970" stroke="#191970" points="924.8898,-130.3705 914.3576,-131.521 923.3085,-137.1896 924.8898,-130.3705"/>
</g>
<!-- Node24 -->
<g id="node24" class="node">
<title>Node24</title>
<g id="a_node24"><a xlink:title=" ">
<polygon fill="#ffffff" stroke="#bfbfbf" points="865.5,-174 865.5,-193 990.5,-193 990.5,-174 865.5,-174"/>
<text text-anchor="middle" x="928" y="-181" font-family="Helvetica,sans-Serif" font-size="10.00" fill="#000000">messages/SensorData.h</text>
</a>
</g>
</g>
<!-- Node2&#45;&gt;Node24 -->
<g id="edge35" class="edge">
<title>Node2&#45;&gt;Node24</title>
<path fill="none" stroke="#191970" d="M457.8351,-291.4662C508.4455,-282.8494 583.851,-269.3482 649,-255 732.6676,-236.5733 829.3154,-210.7844 884.0907,-195.742"/>
<polygon fill="#191970" stroke="#191970" points="885.1071,-199.0925 893.8187,-193.0625 883.2482,-192.3438 885.1071,-199.0925"/>
</g>
<!-- Node26 -->
<g id="node26" class="node">
<title>Node26</title>
<g id="a_node26"><a xlink:title=" ">
<polygon fill="#ffffff" stroke="#bfbfbf" points="1209.5,-235.5 1209.5,-254.5 1364.5,-254.5 1364.5,-235.5 1209.5,-235.5"/>
<text text-anchor="middle" x="1287" y="-242.5" font-family="Helvetica,sans-Serif" font-size="10.00" fill="#000000">messages/TargetSystemData.h</text>
</a>
</g>
</g>
<!-- Node2&#45;&gt;Node26 -->
<g id="edge36" class="edge">
<title>Node2&#45;&gt;Node26</title>
<path fill="none" stroke="#191970" d="M466.2051,-298.4713C601.6239,-293.021 920.2579,-278.7726 1198.9216,-255.045"/>
<polygon fill="#191970" stroke="#191970" points="1199.5695,-258.5024 1209.2339,-254.161 1198.9715,-251.528 1199.5695,-258.5024"/>
</g>
<!-- Node11&#45;&gt;Node10 -->
<g id="edge32" class="edge">
<title>Node11&#45;&gt;Node10</title>
<path fill="none" stroke="#191970" d="M528.614,-235.4678C488.4145,-226.5061 427.0112,-212.488 374,-199 369.9306,-197.9646 365.7041,-196.8561 361.479,-195.7257"/>
<polygon fill="#191970" stroke="#191970" points="362.2656,-192.3126 351.698,-193.0723 360.4328,-199.0685 362.2656,-192.3126"/>
</g>
<!-- Node12 -->
<g id="node12" class="node">
<title>Node12</title>
<g id="a_node12"><a xlink:title=" ">
<polygon fill="#ffffff" stroke="#bfbfbf" points="549,-174 549,-193 595,-193 595,-174 549,-174"/>
<text text-anchor="middle" x="572" y="-181" font-family="Helvetica,sans-Serif" font-size="10.00" fill="#000000">stdio.h</text>
</a>
</g>
</g>
<!-- Node11&#45;&gt;Node12 -->
<g id="edge11" class="edge">
<title>Node11&#45;&gt;Node12</title>
<path fill="none" stroke="#191970" d="M572,-235.3906C572,-226.8657 572,-214.1392 572,-203.4235"/>
<polygon fill="#191970" stroke="#191970" points="575.5001,-203.2448 572,-193.2449 568.5001,-203.2449 575.5001,-203.2448"/>
</g>
<!-- Node13 -->
<g id="node13" class="node">
<title>Node13</title>
<g id="a_node13"><a xlink:title=" ">
<polygon fill="#ffffff" stroke="#bfbfbf" points="665.5,-.5 665.5,-19.5 706.5,-19.5 706.5,-.5 665.5,-.5"/>
<text text-anchor="middle" x="686" y="-7.5" font-family="Helvetica,sans-Serif" font-size="10.00" fill="#000000">string</text>
</a>
</g>
</g>
<!-- Node11&#45;&gt;Node13 -->
<g id="edge12" class="edge">
<title>Node11&#45;&gt;Node13</title>
<path fill="none" stroke="#191970" d="M561.8226,-235.0419C547.0321,-219.3654 523.1126,-188.5993 540,-168 591.7235,-104.9074 666.6068,-193.686 720,-132 742.1232,-106.4407 734.2316,-87.8837 723,-56 719.1691,-45.125 711.5598,-34.9246 704.2328,-26.9061"/>
<polygon fill="#191970" stroke="#191970" points="706.6466,-24.3686 697.1502,-19.6707 701.6443,-29.2652 706.6466,-24.3686"/>
</g>
<!-- Node14 -->
<g id="node14" class="node">
<title>Node14</title>
<g id="a_node14"><a xlink:title=" ">
<polygon fill="#ffffff" stroke="#bfbfbf" points="613.5,-174 613.5,-193 664.5,-193 664.5,-174 613.5,-174"/>
<text text-anchor="middle" x="639" y="-181" font-family="Helvetica,sans-Serif" font-size="10.00" fill="#000000">numeric</text>
</a>
</g>
</g>
<!-- Node11&#45;&gt;Node14 -->
<g id="edge13" class="edge">
<title>Node11&#45;&gt;Node14</title>
<path fill="none" stroke="#191970" d="M582.4688,-235.3906C592.7337,-225.9683 608.5903,-211.4134 620.9006,-200.1137"/>
<polygon fill="#191970" stroke="#191970" points="623.3834,-202.5856 628.3837,-193.2449 618.6499,-197.4287 623.3834,-202.5856"/>
</g>
<!-- Node11&#45;&gt;Node15 -->
<g id="edge14" class="edge">
<title>Node11&#45;&gt;Node15</title>
<path fill="none" stroke="#191970" d="M551.0625,-235.3906C532.0876,-226.682 503.5593,-213.5888 479.9074,-202.7336"/>
<polygon fill="#191970" stroke="#191970" points="481.3285,-199.5349 470.7801,-198.5446 478.4087,-205.8968 481.3285,-199.5349"/>
</g>
<!-- Node11&#45;&gt;Node19 -->
<g id="edge29" class="edge">
<title>Node11&#45;&gt;Node19</title>
<path fill="none" stroke="#191970" d="M598.0893,-235.4225C619.2788,-227.1361 649.5498,-214.1249 674,-199 692.536,-187.5337 692.7978,-178.3119 712,-168 740.7327,-152.5701 775.4352,-141.4394 804.0132,-133.9957"/>
<polygon fill="#191970" stroke="#191970" points="805.006,-137.355 813.8464,-131.5156 803.294,-130.5676 805.006,-137.355"/>
</g>
<!-- Node11&#45;&gt;Node24 -->
<g id="edge30" class="edge">
<title>Node11&#45;&gt;Node24</title>
<path fill="none" stroke="#191970" d="M636.7396,-235.4845C694.4102,-226.7771 781.0246,-213.1325 856,-199 862.2668,-197.8187 868.8247,-196.5094 875.3223,-195.1668"/>
<polygon fill="#191970" stroke="#191970" points="876.3657,-198.5241 885.4327,-193.0431 874.9268,-191.6736 876.3657,-198.5241"/>
</g>
<!-- Node25 -->
<g id="node25" class="node">
<title>Node25</title>
<g id="a_node25"><a xlink:title=" ">
<polygon fill="#ffffff" stroke="#bfbfbf" points="721,-174 721,-193 847,-193 847,-174 721,-174"/>
<text text-anchor="middle" x="784" y="-181" font-family="Helvetica,sans-Serif" font-size="10.00" fill="#000000">bsn/resource/Battery.hpp</text>
</a>
</g>
</g>
<!-- Node11&#45;&gt;Node25 -->
<g id="edge31" class="edge">
<title>Node11&#45;&gt;Node25</title>
<path fill="none" stroke="#191970" d="M605.125,-235.3906C641.8411,-224.7395 701.1664,-207.5296 741.3338,-195.8772"/>
<polygon fill="#191970" stroke="#191970" points="742.4787,-199.1895 751.1076,-193.0419 740.5284,-192.4666 742.4787,-199.1895"/>
</g>
<!-- Node15&#45;&gt;Node8 -->
<g id="edge17" class="edge">
<title>Node15&#45;&gt;Node8</title>
<path fill="none" stroke="#191970" d="M382.9135,-169.8128C379.9042,-169.1732 376.9184,-168.5639 374,-168 319.3227,-157.4344 162.4398,-174.1114 126,-132 99.5962,-101.4867 130.8456,-53.3141 151.5482,-27.5802"/>
<polygon fill="#191970" stroke="#191970" points="154.3452,-29.6911 158.0662,-19.7712 148.9712,-25.2055 154.3452,-29.6911"/>
</g>
<!-- Node15&#45;&gt;Node13 -->
<g id="edge15" class="edge">
<title>Node15&#45;&gt;Node13</title>
<path fill="none" stroke="#191970" d="M493.3223,-170.8809C497.9447,-169.8849 502.5498,-168.9124 507,-168 549.9536,-159.1933 672.9662,-165.7146 701,-132 725.3308,-102.7388 708.4856,-55.0443 696.0239,-28.7963"/>
<polygon fill="#191970" stroke="#191970" points="699.0096,-26.942 691.3996,-19.5706 692.7517,-30.0788 699.0096,-26.942"/>
</g>
<!-- Node16 -->
<g id="node16" class="node">
<title>Node16</title>
<g id="a_node16"><a xlink:title=" ">
<polygon fill="#ffffff" stroke="#bfbfbf" points="135,-112.5 135,-131.5 185,-131.5 185,-112.5 135,-112.5"/>
<text text-anchor="middle" x="160" y="-119.5" font-family="Helvetica,sans-Serif" font-size="10.00" fill="#000000">signal.h</text>
</a>
</g>
</g>
<!-- Node15&#45;&gt;Node16 -->
<g id="edge16" class="edge">
<title>Node15&#45;&gt;Node16</title>
<path fill="none" stroke="#191970" d="M382.8747,-170.0004C379.8754,-169.3124 376.9024,-168.6414 374,-168 297.4497,-151.0824 274.9521,-151.4693 195.2005,-132.1351"/>
<polygon fill="#191970" stroke="#191970" points="195.7294,-128.6611 185.1834,-129.677 194.0611,-135.4594 195.7294,-128.6611"/>
</g>
<!-- Node17 -->
<g id="node17" class="node">
<title>Node17</title>
<g id="a_node17"><a xlink:title=" ">
<polygon fill="#ffffff" stroke="#bfbfbf" points="203,-112.5 203,-131.5 285,-131.5 285,-112.5 203,-112.5"/>
<text text-anchor="middle" x="244" y="-119.5" font-family="Helvetica,sans-Serif" font-size="10.00" fill="#000000">archlib/Event.h</text>
</a>
</g>
</g>
<!-- Node15&#45;&gt;Node17 -->
<g id="edge18" class="edge">
<title>Node15&#45;&gt;Node17</title>
<path fill="none" stroke="#191970" d="M390.5423,-168.4554C357.7469,-158.059 314.6236,-144.3884 283.6603,-134.5727"/>
<polygon fill="#191970" stroke="#191970" points="284.6533,-131.2159 274.0631,-131.5303 282.5379,-137.8886 284.6533,-131.2159"/>
</g>
<!-- Node18 -->
<g id="node18" class="node">
<title>Node18</title>
<g id="a_node18"><a xlink:title=" ">
<polygon fill="#ffffff" stroke="#bfbfbf" points="460.5,-112.5 460.5,-131.5 545.5,-131.5 545.5,-112.5 460.5,-112.5"/>
<text text-anchor="middle" x="503" y="-119.5" font-family="Helvetica,sans-Serif" font-size="10.00" fill="#000000">archlib/Status.h</text>
</a>
</g>
</g>
<!-- Node15&#45;&gt;Node18 -->
<g id="edge19" class="edge">
<title>Node15&#45;&gt;Node18</title>
<path fill="none" stroke="#191970" d="M454.0674,-168.2977C463.466,-159.4052 475.3527,-148.1586 485.057,-138.9769"/>
<polygon fill="#191970" stroke="#191970" points="487.7342,-141.2621 492.5927,-131.8469 482.9232,-136.1774 487.7342,-141.2621"/>
</g>
<!-- Node15&#45;&gt;Node19 -->
<g id="edge20" class="edge">
<title>Node15&#45;&gt;Node19</title>
<path fill="none" stroke="#191970" d="M493.0413,-175.0531C508.2505,-172.7415 524.7617,-170.253 540,-168 622.7445,-155.766 717.5947,-142.187 782.4153,-132.975"/>
<polygon fill="#191970" stroke="#191970" points="783.1459,-136.4064 792.5543,-131.5348 782.1615,-129.476 783.1459,-136.4064"/>
</g>
<!-- Node20 -->
<g id="node20" class="node">
<title>Node20</title>
<g id="a_node20"><a xlink:title=" ">
<polygon fill="#ffffff" stroke="#bfbfbf" points="564,-112.5 564,-131.5 692,-131.5 692,-112.5 564,-112.5"/>
<text text-anchor="middle" x="628" y="-119.5" font-family="Helvetica,sans-Serif" font-size="10.00" fill="#000000">archlib/EffectorRegister.h</text>
</a>
</g>
</g>
<!-- Node15&#45;&gt;Node20 -->
<g id="edge21" class="edge">
<title>Node15&#45;&gt;Node20</title>
<path fill="none" stroke="#191970" d="M484.4792,-168.4554C516.4593,-158.104 558.4671,-144.5067 588.7629,-134.7004"/>
<polygon fill="#191970" stroke="#191970" points="590.1206,-137.9398 598.5567,-131.5303 587.9649,-131.28 590.1206,-137.9398"/>
</g>
<!-- Node21 -->
<g id="node21" class="node">
<title>Node21</title>
<g id="a_node21"><a xlink:href="ROSComponent_8hpp.html" target="_top" xlink:title=" ">
<polygon fill="#ffffff" stroke="#000000" points="303.5,-112.5 303.5,-131.5 442.5,-131.5 442.5,-112.5 303.5,-112.5"/>
<text text-anchor="middle" x="373" y="-119.5" font-family="Helvetica,sans-Serif" font-size="10.00" fill="#000000">archlib/ROSComponent.hpp</text>
</a>
</g>
</g>
<!-- Node15&#45;&gt;Node21 -->
<g id="edge22" class="edge">
<title>Node15&#45;&gt;Node21</title>
<path fill="none" stroke="#191970" d="M421.9326,-168.2977C412.534,-159.4052 400.6473,-148.1586 390.943,-138.9769"/>
<polygon fill="#191970" stroke="#191970" points="393.0768,-136.1774 383.4073,-131.8469 388.2658,-141.2621 393.0768,-136.1774"/>
</g>
<!-- Node21&#45;&gt;Node8 -->
<g id="edge25" class="edge">
<title>Node21&#45;&gt;Node8</title>
<path fill="none" stroke="#191970" d="M320.111,-112.4205C291.0165,-105.4697 255.2074,-94.0444 227,-76 207.3391,-63.4229 190.0315,-42.7782 179.121,-27.925"/>
<polygon fill="#191970" stroke="#191970" points="181.8257,-25.6879 173.1906,-19.549 176.1127,-29.7329 181.8257,-25.6879"/>
</g>
<!-- Node21&#45;&gt;Node13 -->
<g id="edge23" class="edge">
<title>Node21&#45;&gt;Node13</title>
<path fill="none" stroke="#191970" d="M401.2978,-112.4925C428.4627,-103.3169 470.6195,-88.9496 507,-76 559.3985,-57.3489 620.0741,-34.7682 655.6224,-21.4382"/>
<polygon fill="#191970" stroke="#191970" points="657.2511,-24.5654 665.3829,-17.7738 654.7907,-18.012 657.2511,-24.5654"/>
</g>
<!-- Node22 -->
<g id="node22" class="node">
<title>Node22</title>
<g id="a_node22"><a xlink:title=" ">
<polygon fill="#ffffff" stroke="#bfbfbf" points="236.5,-56.5 236.5,-75.5 295.5,-75.5 295.5,-56.5 236.5,-56.5"/>
<text text-anchor="middle" x="266" y="-63.5" font-family="Helvetica,sans-Serif" font-size="10.00" fill="#000000">stdexcept</text>
</a>
</g>
</g>
<!-- Node21&#45;&gt;Node22 -->
<g id="edge24" class="edge">
<title>Node21&#45;&gt;Node22</title>
<path fill="none" stroke="#191970" d="M354.362,-112.2455C337.5614,-103.4527 312.6366,-90.4079 293.5382,-80.4125"/>
<polygon fill="#191970" stroke="#191970" points="294.9073,-77.1787 284.4244,-75.6427 291.6614,-83.3807 294.9073,-77.1787"/>
</g>
<!-- Node23 -->
<g id="node23" class="node">
<title>Node23</title>
<g id="a_node23"><a xlink:href="ROSComponentDescriptor_8hpp.html" target="_top" xlink:title=" ">
<polygon fill="#ffffff" stroke="#000000" points="314,-56.5 314,-75.5 498,-75.5 498,-56.5 314,-56.5"/>
<text text-anchor="middle" x="406" y="-63.5" font-family="Helvetica,sans-Serif" font-size="10.00" fill="#000000">archlib/ROSComponentDescriptor.hpp</text>
</a>
</g>
</g>
<!-- Node21&#45;&gt;Node23 -->
<g id="edge26" class="edge">
<title>Node21&#45;&gt;Node23</title>
<path fill="none" stroke="#191970" d="M378.7482,-112.2455C383.2435,-104.617 389.6248,-93.7881 395.0825,-84.5267"/>
<polygon fill="#191970" stroke="#191970" points="398.2561,-86.035 400.3177,-75.6427 392.2253,-82.4811 398.2561,-86.035"/>
</g>
<!-- Node23&#45;&gt;Node8 -->
<g id="edge28" class="edge">
<title>Node23&#45;&gt;Node8</title>
<path fill="none" stroke="#191970" d="M365.186,-56.4369C320.1349,-45.881 248.2247,-29.0317 204.5315,-18.794"/>
<polygon fill="#191970" stroke="#191970" points="205.1303,-15.3396 194.5955,-16.4659 203.5333,-22.155 205.1303,-15.3396"/>
</g>
<!-- Node23&#45;&gt;Node13 -->
<g id="edge27" class="edge">
<title>Node23&#45;&gt;Node13</title>
<path fill="none" stroke="#191970" d="M453.8156,-56.4369C511.4402,-44.912 606.5738,-25.8852 655.2414,-16.1517"/>
<polygon fill="#191970" stroke="#191970" points="656.0514,-19.5591 665.1708,-14.1658 654.6785,-12.6951 656.0514,-19.5591"/>
</g>
</g>
</svg>
