<?xml version="1.0" encoding="UTF-8" standalone="no"?>
<!DOCTYPE svg PUBLIC "-//W3C//DTD SVG 1.1//EN"
 "http://www.w3.org/Graphics/SVG/1.1/DTD/svg11.dtd">
<!-- Generated by graphviz version 2.40.1 (20161225.0304)
 -->
<!-- Title: src/target_system/components/component/include/component/g4t1/G4T1.hpp Pages: 1 -->
<svg width="1373pt" height="341pt"
 viewBox="0.00 0.00 1372.50 341.00" xmlns="http://www.w3.org/2000/svg" xmlns:xlink="http://www.w3.org/1999/xlink">
<g id="graph0" class="graph" transform="scale(1 1) rotate(0) translate(4 337)">
<title>src/target_system/components/component/include/component/g4t1/G4T1.hpp</title>
<polygon fill="#ffffff" stroke="transparent" points="-4,4 -4,-337 1368.5,-337 1368.5,4 -4,4"/>
<!-- Node1 -->
<g id="node1" class="node">
<title>Node1</title>
<g id="a_node1"><a xlink:title=" ">
<polygon fill="#bfbfbf" stroke="#000000" points="324,-291.5 324,-332.5 476,-332.5 476,-291.5 324,-291.5"/>
<text text-anchor="start" x="332" y="-320.5" font-family="Helvetica,sans-Serif" font-size="10.00" fill="#000000">src/target_system/components</text>
<text text-anchor="start" x="332" y="-309.5" font-family="Helvetica,sans-Serif" font-size="10.00" fill="#000000">/component/include/component</text>
<text text-anchor="middle" x="400" y="-298.5" font-family="Helvetica,sans-Serif" font-size="10.00" fill="#000000">/g4t1/G4T1.hpp</text>
</a>
</g>
</g>
<!-- Node2 -->
<g id="node2" class="node">
<title>Node2</title>
<g id="a_node2"><a xlink:title=" ">
<polygon fill="#ffffff" stroke="#bfbfbf" points="0,-235.5 0,-254.5 50,-254.5 50,-235.5 0,-235.5"/>
<text text-anchor="middle" x="25" y="-242.5" font-family="Helvetica,sans-Serif" font-size="10.00" fill="#000000">fstream</text>
</a>
</g>
</g>
<!-- Node1&#45;&gt;Node2 -->
<g id="edge1" class="edge">
<title>Node1&#45;&gt;Node2</title>
<path fill="none" stroke="#191970" d="M323.9777,-301.9696C256.8361,-292.4995 156.1869,-276.8165 60.0494,-255.0333"/>
<polygon fill="#191970" stroke="#191970" points="60.691,-251.5897 50.1618,-252.7674 59.1273,-258.4128 60.691,-251.5897"/>
</g>
<!-- Node3 -->
<g id="node3" class="node">
<title>Node3</title>
<g id="a_node3"><a xlink:title=" ">
<polygon fill="#ffffff" stroke="#bfbfbf" points="68,-235.5 68,-254.5 114,-254.5 114,-235.5 68,-235.5"/>
<text text-anchor="middle" x="91" y="-242.5" font-family="Helvetica,sans-Serif" font-size="10.00" fill="#000000">chrono</text>
</a>
</g>
</g>
<!-- Node1&#45;&gt;Node3 -->
<g id="edge2" class="edge">
<title>Node1&#45;&gt;Node3</title>
<path fill="none" stroke="#191970" d="M323.9934,-298.4804C270.4738,-288.4695 197.0184,-273.7464 124.1506,-255.1221"/>
<polygon fill="#191970" stroke="#191970" points="124.8986,-251.7005 114.3412,-252.59 123.149,-258.4783 124.8986,-251.7005"/>
</g>
<!-- Node4 -->
<g id="node4" class="node">
<title>Node4</title>
<g id="a_node4"><a xlink:title=" ">
<polygon fill="#ffffff" stroke="#bfbfbf" points="132,-235.5 132,-254.5 184,-254.5 184,-235.5 132,-235.5"/>
<text text-anchor="middle" x="158" y="-242.5" font-family="Helvetica,sans-Serif" font-size="10.00" fill="#000000">memory</text>
</a>
</g>
</g>
<!-- Node1&#45;&gt;Node4 -->
<g id="edge3" class="edge">
<title>Node1&#45;&gt;Node4</title>
<path fill="none" stroke="#191970" d="M324.7333,-291.461C287.9032,-281.3665 242.6738,-268.9049 194.1193,-255.2985"/>
<polygon fill="#191970" stroke="#191970" points="194.9393,-251.8935 184.3656,-252.5623 193.0485,-258.6333 194.9393,-251.8935"/>
</g>
<!-- Node5 -->
<g id="node5" class="node">
<title>Node5</title>
<g id="a_node5"><a xlink:title=" ">
<polygon fill="#ffffff" stroke="#bfbfbf" points="202.5,-235.5 202.5,-254.5 237.5,-254.5 237.5,-235.5 202.5,-235.5"/>
<text text-anchor="middle" x="220" y="-242.5" font-family="Helvetica,sans-Serif" font-size="10.00" fill="#000000">map</text>
</a>
</g>
</g>
<!-- Node1&#45;&gt;Node5 -->
<g id="edge4" class="edge">
<title>Node1&#45;&gt;Node5</title>
<path fill="none" stroke="#191970" d="M344.5253,-291.3511C312.2433,-279.335 272.976,-264.7189 247.2781,-255.1535"/>
<polygon fill="#191970" stroke="#191970" points="248.4026,-251.8375 237.8098,-251.6292 245.9607,-258.3978 248.4026,-251.8375"/>
</g>
<!-- Node6 -->
<g id="node6" class="node">
<title>Node6</title>
<g id="a_node6"><a xlink:title=" ">
<polygon fill="#ffffff" stroke="#bfbfbf" points="256,-235.5 256,-254.5 334,-254.5 334,-235.5 256,-235.5"/>
<text text-anchor="middle" x="295" y="-242.5" font-family="Helvetica,sans-Serif" font-size="10.00" fill="#000000">ros/package.h</text>
</a>
</g>
</g>
<!-- Node1&#45;&gt;Node6 -->
<g id="edge5" class="edge">
<title>Node1&#45;&gt;Node6</title>
<path fill="none" stroke="#191970" d="M367.6398,-291.3511C351.9212,-281.3212 333.3637,-269.4797 318.9403,-260.2762"/>
<polygon fill="#191970" stroke="#191970" points="320.4431,-257.0833 310.1304,-254.6546 316.6777,-262.9843 320.4431,-257.0833"/>
</g>
<!-- Node7 -->
<g id="node7" class="node">
<title>Node7</title>
<g id="a_node7"><a xlink:title=" ">
<polygon fill="#ffffff" stroke="#bfbfbf" points="139.5,-.5 139.5,-19.5 194.5,-19.5 194.5,-.5 139.5,-.5"/>
<text text-anchor="middle" x="167" y="-7.5" font-family="Helvetica,sans-Serif" font-size="10.00" fill="#000000">ros/ros.h</text>
</a>
</g>
</g>
<!-- Node1&#45;&gt;Node7 -->
<g id="edge6" class="edge">
<title>Node1&#45;&gt;Node7</title>
<path fill="none" stroke="#191970" d="M388.7749,-291.3698C378.6694,-274.3836 362.4415,-250.635 343,-235 299.3593,-199.9038 143.4501,-179.0004 113,-132 105.0333,-119.7032 105.5125,-83.4499 119,-56 124.7477,-44.3021 134.7642,-33.9739 144.1651,-26.0831"/>
<polygon fill="#191970" stroke="#191970" points="146.4514,-28.7378 152.1454,-19.803 142.1224,-23.2369 146.4514,-28.7378"/>
</g>
<!-- Node8 -->
<g id="node8" class="node">
<title>Node8</title>
<g id="a_node8"><a xlink:title=" ">
<polygon fill="#ffffff" stroke="#bfbfbf" points="1047,-235.5 1047,-254.5 1191,-254.5 1191,-235.5 1047,-235.5"/>
<text text-anchor="middle" x="1119" y="-242.5" font-family="Helvetica,sans-Serif" font-size="10.00" fill="#000000">bsn/processor/Processor.hpp</text>
</a>
</g>
</g>
<!-- Node1&#45;&gt;Node8 -->
<g id="edge7" class="edge">
<title>Node1&#45;&gt;Node8</title>
<path fill="none" stroke="#191970" d="M476.0628,-305.7925C594.9845,-295.9426 832.1426,-275.7176 1033,-255 1034.1214,-254.8843 1035.2509,-254.7669 1036.387,-254.6478"/>
<polygon fill="#191970" stroke="#191970" points="1037.183,-258.0827 1046.7538,-253.5385 1036.4382,-251.1224 1037.183,-258.0827"/>
</g>
<!-- Node9 -->
<g id="node9" class="node">
<title>Node9</title>
<g id="a_node9"><a xlink:title=" ">
<polygon fill="#ffffff" stroke="#bfbfbf" points="271.5,-174 271.5,-193 364.5,-193 364.5,-174 271.5,-174"/>
<text text-anchor="middle" x="318" y="-181" font-family="Helvetica,sans-Serif" font-size="10.00" fill="#000000">bsn/utils/utils.hpp</text>
</a>
</g>
</g>
<!-- Node1&#45;&gt;Node9 -->
<g id="edge8" class="edge">
<title>Node1&#45;&gt;Node9</title>
<path fill="none" stroke="#191970" d="M396.7254,-291.4134C393.4226,-275.1135 387.1667,-252.2912 376,-235 366.8882,-220.8907 352.8873,-208.305 340.9244,-199.1074"/>
<polygon fill="#191970" stroke="#191970" points="342.8015,-196.1433 332.6727,-193.0357 338.6528,-201.7814 342.8015,-196.1433"/>
</g>
<!-- Node10 -->
<g id="node10" class="node">
<title>Node10</title>
<g id="a_node10"><a xlink:href="CentralHub_8hpp.html" target="_top" xlink:title=" ">
<polygon fill="#ffffff" stroke="#000000" points="504,-235.5 504,-254.5 640,-254.5 640,-235.5 504,-235.5"/>
<text text-anchor="middle" x="572" y="-242.5" font-family="Helvetica,sans-Serif" font-size="10.00" fill="#000000">component/CentralHub.hpp</text>
</a>
</g>
</g>
<!-- Node1&#45;&gt;Node10 -->
<g id="edge9" class="edge">
<title>Node1&#45;&gt;Node10</title>
<path fill="none" stroke="#191970" d="M453.0091,-291.3511C480.5968,-280.6047 513.5231,-267.7788 537.7387,-258.346"/>
<polygon fill="#191970" stroke="#191970" points="539.1674,-261.5457 547.215,-254.6546 536.6265,-255.0231 539.1674,-261.5457"/>
</g>
<!-- Node14 -->
<g id="node14" class="node">
<title>Node14</title>
<g id="a_node14"><a xlink:href="Component_8hpp.html" target="_top" xlink:title=" ">
<polygon fill="#ffffff" stroke="#000000" points="383,-168.5 383,-198.5 493,-198.5 493,-168.5 383,-168.5"/>
<text text-anchor="start" x="391" y="-186.5" font-family="Helvetica,sans-Serif" font-size="10.00" fill="#000000">archlib/target_system</text>
<text text-anchor="middle" x="438" y="-175.5" font-family="Helvetica,sans-Serif" font-size="10.00" fill="#000000">/Component.hpp</text>
</a>
</g>
</g>
<!-- Node1&#45;&gt;Node14 -->
<g id="edge32" class="edge">
<title>Node1&#45;&gt;Node14</title>
<path fill="none" stroke="#191970" d="M406.1054,-291.3543C412.7576,-268.8591 423.4029,-232.8614 430.5441,-208.7127"/>
<polygon fill="#191970" stroke="#191970" points="433.9804,-209.4346 433.4599,-198.8526 427.2678,-207.4495 433.9804,-209.4346"/>
</g>
<!-- Node18 -->
<g id="node18" class="node">
<title>Node18</title>
<g id="a_node18"><a xlink:title=" ">
<polygon fill="#ffffff" stroke="#bfbfbf" points="786,-112.5 786,-131.5 934,-131.5 934,-112.5 786,-112.5"/>
<text text-anchor="middle" x="860" y="-119.5" font-family="Helvetica,sans-Serif" font-size="10.00" fill="#000000">archlib/AdaptationCommand.h</text>
</a>
</g>
</g>
<!-- Node1&#45;&gt;Node18 -->
<g id="edge33" class="edge">
<title>Node1&#45;&gt;Node18</title>
<path fill="none" stroke="#191970" d="M476.1347,-309.2938C622.4397,-302.3228 934.2417,-278.2988 1000,-199 1026.836,-166.6381 972.8276,-145.6063 924.2928,-133.8318"/>
<polygon fill="#191970" stroke="#191970" points="924.9,-130.3798 914.3678,-131.5294 923.3181,-137.1987 924.9,-130.3798"/>
</g>
<!-- Node23 -->
<g id="node23" class="node">
<title>Node23</title>
<g id="a_node23"><a xlink:title=" ">
<polygon fill="#ffffff" stroke="#bfbfbf" points="865.5,-174 865.5,-193 990.5,-193 990.5,-174 865.5,-174"/>
<text text-anchor="middle" x="928" y="-181" font-family="Helvetica,sans-Serif" font-size="10.00" fill="#000000">messages/SensorData.h</text>
</a>
</g>
</g>
<!-- Node1&#45;&gt;Node23 -->
<g id="edge34" class="edge">
<title>Node1&#45;&gt;Node23</title>
<path fill="none" stroke="#191970" d="M476.1288,-295.1083C525.4889,-284.024 591.1413,-269.0337 649,-255 731.3437,-235.0274 826.9193,-210.1681 882.1312,-195.6423"/>
<polygon fill="#191970" stroke="#191970" points="883.1798,-198.9856 891.9584,-193.0538 881.3967,-192.2165 883.1798,-198.9856"/>
</g>
<!-- Node25 -->
<g id="node25" class="node">
<title>Node25</title>
<g id="a_node25"><a xlink:title=" ">
<polygon fill="#ffffff" stroke="#bfbfbf" points="1209.5,-235.5 1209.5,-254.5 1364.5,-254.5 1364.5,-235.5 1209.5,-235.5"/>
<text text-anchor="middle" x="1287" y="-242.5" font-family="Helvetica,sans-Serif" font-size="10.00" fill="#000000">messages/TargetSystemData.h</text>
</a>
</g>
</g>
<!-- Node1&#45;&gt;Node25 -->
<g id="edge35" class="edge">
<title>Node1&#45;&gt;Node25</title>
<path fill="none" stroke="#191970" d="M476.2004,-307.6731C616.8161,-299.4466 926.8128,-280.1831 1199.1503,-255.0429"/>
<polygon fill="#191970" stroke="#191970" points="1199.5952,-258.5167 1209.2292,-254.1081 1198.9487,-251.5466 1199.5952,-258.5167"/>
</g>
<!-- Node10&#45;&gt;Node9 -->
<g id="edge31" class="edge">
<title>Node10&#45;&gt;Node9</title>
<path fill="none" stroke="#191970" d="M528.614,-235.4678C488.4145,-226.5061 427.0112,-212.488 374,-199 369.9306,-197.9646 365.7041,-196.8561 361.479,-195.7257"/>
<polygon fill="#191970" stroke="#191970" points="362.2656,-192.3126 351.698,-193.0723 360.4328,-199.0685 362.2656,-192.3126"/>
</g>
<!-- Node11 -->
<g id="node11" class="node">
<title>Node11</title>
<g id="a_node11"><a xlink:title=" ">
<polygon fill="#ffffff" stroke="#bfbfbf" points="549,-174 549,-193 595,-193 595,-174 549,-174"/>
<text text-anchor="middle" x="572" y="-181" font-family="Helvetica,sans-Serif" font-size="10.00" fill="#000000">stdio.h</text>
</a>
</g>
</g>
<!-- Node10&#45;&gt;Node11 -->
<g id="edge10" class="edge">
<title>Node10&#45;&gt;Node11</title>
<path fill="none" stroke="#191970" d="M572,-235.3906C572,-226.8657 572,-214.1392 572,-203.4235"/>
<polygon fill="#191970" stroke="#191970" points="575.5001,-203.2448 572,-193.2449 568.5001,-203.2449 575.5001,-203.2448"/>
</g>
<!-- Node12 -->
<g id="node12" class="node">
<title>Node12</title>
<g id="a_node12"><a xlink:title=" ">
<polygon fill="#ffffff" stroke="#bfbfbf" points="665.5,-.5 665.5,-19.5 706.5,-19.5 706.5,-.5 665.5,-.5"/>
<text text-anchor="middle" x="686" y="-7.5" font-family="Helvetica,sans-Serif" font-size="10.00" fill="#000000">string</text>
</a>
</g>
</g>
<!-- Node10&#45;&gt;Node12 -->
<g id="edge11" class="edge">
<title>Node10&#45;&gt;Node12</title>
<path fill="none" stroke="#191970" d="M561.8226,-235.0419C547.0321,-219.3654 523.1126,-188.5993 540,-168 591.7235,-104.9074 666.6068,-193.686 720,-132 742.1232,-106.4407 734.2316,-87.8837 723,-56 719.1691,-45.125 711.5598,-34.9246 704.2328,-26.9061"/>
<polygon fill="#191970" stroke="#191970" points="706.6466,-24.3686 697.1502,-19.6707 701.6443,-29.2652 706.6466,-24.3686"/>
</g>
<!-- Node13 -->
<g id="node13" class="node">
<title>Node13</title>
<g id="a_node13"><a xlink:title=" ">
<polygon fill="#ffffff" stroke="#bfbfbf" points="613.5,-174 613.5,-193 664.5,-193 664.5,-174 613.5,-174"/>
<text text-anchor="middle" x="639" y="-181" font-family="Helvetica,sans-Serif" font-size="10.00" fill="#000000">numeric</text>
</a>
</g>
</g>
<!-- Node10&#45;&gt;Node13 -->
<g id="edge12" class="edge">
<title>Node10&#45;&gt;Node13</title>
<path fill="none" stroke="#191970" d="M582.4688,-235.3906C592.7337,-225.9683 608.5903,-211.4134 620.9006,-200.1137"/>
<polygon fill="#191970" stroke="#191970" points="623.3834,-202.5856 628.3837,-193.2449 618.6499,-197.4287 623.3834,-202.5856"/>
</g>
<!-- Node10&#45;&gt;Node14 -->
<g id="edge13" class="edge">
<title>Node10&#45;&gt;Node14</title>
<path fill="none" stroke="#191970" d="M551.0625,-235.3906C532.0876,-226.682 503.5593,-213.5888 479.9074,-202.7336"/>
<polygon fill="#191970" stroke="#191970" points="481.3285,-199.5349 470.7801,-198.5446 478.4087,-205.8968 481.3285,-199.5349"/>
</g>
<!-- Node10&#45;&gt;Node18 -->
<g id="edge28" class="edge">
<title>Node10&#45;&gt;Node18</title>
<path fill="none" stroke="#191970" d="M598.0893,-235.4225C619.2788,-227.1361 649.5498,-214.1249 674,-199 692.536,-187.5337 692.7978,-178.3119 712,-168 740.7327,-152.5701 775.4352,-141.4394 804.0132,-133.9957"/>
<polygon fill="#191970" stroke="#191970" points="805.006,-137.355 813.8464,-131.5156 803.294,-130.5676 805.006,-137.355"/>
</g>
<!-- Node10&#45;&gt;Node23 -->
<g id="edge29" class="edge">
<title>Node10&#45;&gt;Node23</title>
<path fill="none" stroke="#191970" d="M636.7396,-235.4845C694.4102,-226.7771 781.0246,-213.1325 856,-199 862.2668,-197.8187 868.8247,-196.5094 875.3223,-195.1668"/>
<polygon fill="#191970" stroke="#191970" points="876.3657,-198.5241 885.4327,-193.0431 874.9268,-191.6736 876.3657,-198.5241"/>
</g>
<!-- Node24 -->
<g id="node24" class="node">
<title>Node24</title>
<g id="a_node24"><a xlink:title=" ">
<polygon fill="#ffffff" stroke="#bfbfbf" points="721,-174 721,-193 847,-193 847,-174 721,-174"/>
<text text-anchor="middle" x="784" y="-181" font-family="Helvetica,sans-Serif" font-size="10.00" fill="#000000">bsn/resource/Battery.hpp</text>
</a>
</g>
</g>
<!-- Node10&#45;&gt;Node24 -->
<g id="edge30" class="edge">
<title>Node10&#45;&gt;Node24</title>
<path fill="none" stroke="#191970" d="M605.125,-235.3906C641.8411,-224.7395 701.1664,-207.5296 741.3338,-195.8772"/>
<polygon fill="#191970" stroke="#191970" points="742.4787,-199.1895 751.1076,-193.0419 740.5284,-192.4666 742.4787,-199.1895"/>
</g>
<!-- Node14&#45;&gt;Node7 -->
<g id="edge16" class="edge">
<title>Node14&#45;&gt;Node7</title>
<path fill="none" stroke="#191970" d="M382.9135,-169.8128C379.9042,-169.1732 376.9184,-168.5639 374,-168 319.3227,-157.4344 162.4398,-174.1114 126,-132 99.5962,-101.4867 130.8456,-53.3141 151.5482,-27.5802"/>
<polygon fill="#191970" stroke="#191970" points="154.3452,-29.6911 158.0662,-19.7712 148.9712,-25.2055 154.3452,-29.6911"/>
</g>
<!-- Node14&#45;&gt;Node12 -->
<g id="edge14" class="edge">
<title>Node14&#45;&gt;Node12</title>
<path fill="none" stroke="#191970" d="M493.3223,-170.8809C497.9447,-169.8849 502.5498,-168.9124 507,-168 549.9536,-159.1933 672.9662,-165.7146 701,-132 725.3308,-102.7388 708.4856,-55.0443 696.0239,-28.7963"/>
<polygon fill="#191970" stroke="#191970" points="699.0096,-26.942 691.3996,-19.5706 692.7517,-30.0788 699.0096,-26.942"/>
</g>
<!-- Node15 -->
<g id="node15" class="node">
<title>Node15</title>
<g id="a_node15"><a xlink:title=" ">
<polygon fill="#ffffff" stroke="#bfbfbf" points="135,-112.5 135,-131.5 185,-131.5 185,-112.5 135,-112.5"/>
<text text-anchor="middle" x="160" y="-119.5" font-family="Helvetica,sans-Serif" font-size="10.00" fill="#000000">signal.h</text>
</a>
</g>
</g>
<!-- Node14&#45;&gt;Node15 -->
<g id="edge15" class="edge">
<title>Node14&#45;&gt;Node15</title>
<path fill="none" stroke="#191970" d="M382.8747,-170.0004C379.8754,-169.3124 376.9024,-168.6414 374,-168 297.4497,-151.0824 274.9521,-151.4693 195.2005,-132.1351"/>
<polygon fill="#191970" stroke="#191970" points="195.7294,-128.6611 185.1834,-129.677 194.0611,-135.4594 195.7294,-128.6611"/>
</g>
<!-- Node16 -->
<g id="node16" class="node">
<title>Node16</title>
<g id="a_node16"><a xlink:title=" ">
<polygon fill="#ffffff" stroke="#bfbfbf" points="203,-112.5 203,-131.5 285,-131.5 285,-112.5 203,-112.5"/>
<text text-anchor="middle" x="244" y="-119.5" font-family="Helvetica,sans-Serif" font-size="10.00" fill="#000000">archlib/Event.h</text>
</a>
</g>
</g>
<!-- Node14&#45;&gt;Node16 -->
<g id="edge17" class="edge">
<title>Node14&#45;&gt;Node16</title>
<path fill="none" stroke="#191970" d="M390.5423,-168.4554C357.7469,-158.059 314.6236,-144.3884 283.6603,-134.5727"/>
<polygon fill="#191970" stroke="#191970" points="284.6533,-131.2159 274.0631,-131.5303 282.5379,-137.8886 284.6533,-131.2159"/>
</g>
<!-- Node17 -->
<g id="node17" class="node">
<title>Node17</title>
<g id="a_node17"><a xlink:title=" ">
<polygon fill="#ffffff" stroke="#bfbfbf" points="460.5,-112.5 460.5,-131.5 545.5,-131.5 545.5,-112.5 460.5,-112.5"/>
<text text-anchor="middle" x="503" y="-119.5" font-family="Helvetica,sans-Serif" font-size="10.00" fill="#000000">archlib/Status.h</text>
</a>
</g>
</g>
<!-- Node14&#45;&gt;Node17 -->
<g id="edge18" class="edge">
<title>Node14&#45;&gt;Node17</title>
<path fill="none" stroke="#191970" d="M454.0674,-168.2977C463.466,-159.4052 475.3527,-148.1586 485.057,-138.9769"/>
<polygon fill="#191970" stroke="#191970" points="487.7342,-141.2621 492.5927,-131.8469 482.9232,-136.1774 487.7342,-141.2621"/>
</g>
<!-- Node14&#45;&gt;Node18 -->
<g id="edge19" class="edge">
<title>Node14&#45;&gt;Node18</title>
<path fill="none" stroke="#191970" d="M493.0413,-175.0531C508.2505,-172.7415 524.7617,-170.253 540,-168 622.7445,-155.766 717.5947,-142.187 782.4153,-132.975"/>
<polygon fill="#191970" stroke="#191970" points="783.1459,-136.4064 792.5543,-131.5348 782.1615,-129.476 783.1459,-136.4064"/>
</g>
<!-- Node19 -->
<g id="node19" class="node">
<title>Node19</title>
<g id="a_node19"><a xlink:title=" ">
<polygon fill="#ffffff" stroke="#bfbfbf" points="564,-112.5 564,-131.5 692,-131.5 692,-112.5 564,-112.5"/>
<text text-anchor="middle" x="628" y="-119.5" font-family="Helvetica,sans-Serif" font-size="10.00" fill="#000000">archlib/EffectorRegister.h</text>
</a>
</g>
</g>
<!-- Node14&#45;&gt;Node19 -->
<g id="edge20" class="edge">
<title>Node14&#45;&gt;Node19</title>
<path fill="none" stroke="#191970" d="M484.4792,-168.4554C516.4593,-158.104 558.4671,-144.5067 588.7629,-134.7004"/>
<polygon fill="#191970" stroke="#191970" points="590.1206,-137.9398 598.5567,-131.5303 587.9649,-131.28 590.1206,-137.9398"/>
</g>
<!-- Node20 -->
<g id="node20" class="node">
<title>Node20</title>
<g id="a_node20"><a xlink:href="ROSComponent_8hpp.html" target="_top" xlink:title=" ">
<polygon fill="#ffffff" stroke="#000000" points="303.5,-112.5 303.5,-131.5 442.5,-131.5 442.5,-112.5 303.5,-112.5"/>
<text text-anchor="middle" x="373" y="-119.5" font-family="Helvetica,sans-Serif" font-size="10.00" fill="#000000">archlib/ROSComponent.hpp</text>
</a>
</g>
</g>
<!-- Node14&#45;&gt;Node20 -->
<g id="edge21" class="edge">
<title>Node14&#45;&gt;Node20</title>
<path fill="none" stroke="#191970" d="M421.9326,-168.2977C412.534,-159.4052 400.6473,-148.1586 390.943,-138.9769"/>
<polygon fill="#191970" stroke="#191970" points="393.0768,-136.1774 383.4073,-131.8469 388.2658,-141.2621 393.0768,-136.1774"/>
</g>
<!-- Node20&#45;&gt;Node7 -->
<g id="edge24" class="edge">
<title>Node20&#45;&gt;Node7</title>
<path fill="none" stroke="#191970" d="M320.111,-112.4205C291.0165,-105.4697 255.2074,-94.0444 227,-76 207.3391,-63.4229 190.0315,-42.7782 179.121,-27.925"/>
<polygon fill="#191970" stroke="#191970" points="181.8257,-25.6879 173.1906,-19.549 176.1127,-29.7329 181.8257,-25.6879"/>
</g>
<!-- Node20&#45;&gt;Node12 -->
<g id="edge22" class="edge">
<title>Node20&#45;&gt;Node12</title>
<path fill="none" stroke="#191970" d="M401.2978,-112.4925C428.4627,-103.3169 470.6195,-88.9496 507,-76 559.3985,-57.3489 620.0741,-34.7682 655.6224,-21.4382"/>
<polygon fill="#191970" stroke="#191970" points="657.2511,-24.5654 665.3829,-17.7738 654.7907,-18.012 657.2511,-24.5654"/>
</g>
<!-- Node21 -->
<g id="node21" class="node">
<title>Node21</title>
<g id="a_node21"><a xlink:title=" ">
<polygon fill="#ffffff" stroke="#bfbfbf" points="236.5,-56.5 236.5,-75.5 295.5,-75.5 295.5,-56.5 236.5,-56.5"/>
<text text-anchor="middle" x="266" y="-63.5" font-family="Helvetica,sans-Serif" font-size="10.00" fill="#000000">stdexcept</text>
</a>
</g>
</g>
<!-- Node20&#45;&gt;Node21 -->
<g id="edge23" class="edge">
<title>Node20&#45;&gt;Node21</title>
<path fill="none" stroke="#191970" d="M354.362,-112.2455C337.5614,-103.4527 312.6366,-90.4079 293.5382,-80.4125"/>
<polygon fill="#191970" stroke="#191970" points="294.9073,-77.1787 284.4244,-75.6427 291.6614,-83.3807 294.9073,-77.1787"/>
</g>
<!-- Node22 -->
<g id="node22" class="node">
<title>Node22</title>
<g id="a_node22"><a xlink:href="ROSComponentDescriptor_8hpp.html" target="_top" xlink:title=" ">
<polygon fill="#ffffff" stroke="#000000" points="314,-56.5 314,-75.5 498,-75.5 498,-56.5 314,-56.5"/>
<text text-anchor="middle" x="406" y="-63.5" font-family="Helvetica,sans-Serif" font-size="10.00" fill="#000000">archlib/ROSComponentDescriptor.hpp</text>
</a>
</g>
</g>
<!-- Node20&#45;&gt;Node22 -->
<g id="edge25" class="edge">
<title>Node20&#45;&gt;Node22</title>
<path fill="none" stroke="#191970" d="M378.7482,-112.2455C383.2435,-104.617 389.6248,-93.7881 395.0825,-84.5267"/>
<polygon fill="#191970" stroke="#191970" points="398.2561,-86.035 400.3177,-75.6427 392.2253,-82.4811 398.2561,-86.035"/>
</g>
<!-- Node22&#45;&gt;Node7 -->
<g id="edge27" class="edge">
<title>Node22&#45;&gt;Node7</title>
<path fill="none" stroke="#191970" d="M365.186,-56.4369C320.1349,-45.881 248.2247,-29.0317 204.5315,-18.794"/>
<polygon fill="#191970" stroke="#191970" points="205.1303,-15.3396 194.5955,-16.4659 203.5333,-22.155 205.1303,-15.3396"/>
</g>
<!-- Node22&#45;&gt;Node12 -->
<g id="edge26" class="edge">
<title>Node22&#45;&gt;Node12</title>
<path fill="none" stroke="#191970" d="M453.8156,-56.4369C511.4402,-44.912 606.5738,-25.8852 655.2414,-16.1517"/>
<polygon fill="#191970" stroke="#191970" points="656.0514,-19.5591 665.1708,-14.1658 654.6785,-12.6951 656.0514,-19.5591"/>
</g>
</g>
</svg>
