<?xml version="1.0" encoding="UTF-8" standalone="no"?>
<!DOCTYPE svg PUBLIC "-//W3C//DTD SVG 1.1//EN"
 "http://www.w3.org/Graphics/SVG/1.1/DTD/svg11.dtd">
<!-- Generated by graphviz version 2.40.1 (20161225.0304)
 -->
<!-- Title: main Pages: 1 -->
<svg width="720pt" height="302pt"
 viewBox="0.00 0.00 720.00 302.00" xmlns="http://www.w3.org/2000/svg" xmlns:xlink="http://www.w3.org/1999/xlink">
<g id="graph0" class="graph" transform="scale(1 1) rotate(0) translate(4 298)">
<title>main</title>
<polygon fill="#ffffff" stroke="transparent" points="-4,4 -4,-298 716,-298 716,4 -4,4"/>
<!-- Node1 -->
<g id="node1" class="node">
<title>Node1</title>
<g id="a_node1"><a xlink:title=" ">
<polygon fill="#bfbfbf" stroke="#000000" points="0,-88.5 0,-107.5 38,-107.5 38,-88.5 0,-88.5"/>
<text text-anchor="middle" x="19" y="-95.5" font-family="Helvetica,sans-Serif" font-size="10.00" fill="#000000">main</text>
</a>
</g>
</g>
<!-- Node2 -->
<g id="node2" class="node">
<title>Node2</title>
<g id="a_node2"><a xlink:href="classCentralHub.html#a388e947318a28cf7cac762ac8b1cf3d4" target="_top" xlink:title=" ">
<polygon fill="#ffffff" stroke="#000000" points="74,-88.5 74,-107.5 160,-107.5 160,-88.5 74,-88.5"/>
<text text-anchor="middle" x="117" y="-95.5" font-family="Helvetica,sans-Serif" font-size="10.00" fill="#000000">CentralHub::run</text>
</a>
</g>
</g>
<!-- Node1&#45;&gt;Node2 -->
<g id="edge1" class="edge">
<title>Node1&#45;&gt;Node2</title>
<path fill="none" stroke="#191970" d="M38.3616,-98C45.7379,-98 54.5495,-98 63.5629,-98"/>
<polygon fill="#191970" stroke="#191970" points="63.7595,-101.5001 73.7595,-98 63.7595,-94.5001 63.7595,-101.5001"/>
</g>
<!-- Node3 -->
<g id="node3" class="node">
<title>Node3</title>
<g id="a_node3"><a xlink:href="classCentralHub.html#a48b13d52b79864e84eae5012108d3211" target="_top" xlink:title=" ">
<polygon fill="#ffffff" stroke="#000000" points="228.5,-167.5 228.5,-186.5 321.5,-186.5 321.5,-167.5 228.5,-167.5"/>
<text text-anchor="middle" x="275" y="-174.5" font-family="Helvetica,sans-Serif" font-size="10.00" fill="#000000">CentralHub::body</text>
</a>
</g>
</g>
<!-- Node2&#45;&gt;Node3 -->
<g id="edge2" class="edge">
<title>Node2&#45;&gt;Node3</title>
<path fill="none" stroke="#191970" d="M129.2703,-107.503C144.3223,-118.8149 170.9352,-137.7147 196,-150 207.083,-155.4323 219.5341,-160.2381 231.2167,-164.2332"/>
<polygon fill="#191970" stroke="#191970" points="230.2093,-167.5863 240.8024,-167.3943 232.4017,-160.9385 230.2093,-167.5863"/>
</g>
<!-- Node7 -->
<g id="node7" class="node">
<title>Node7</title>
<g id="a_node7"><a xlink:href="classarch_1_1target__system_1_1Component.html#adc6ecb4090656eeac2289ec147a20f81" target="_top" xlink:title=" ">
<polygon fill="#ffffff" stroke="#000000" points="390,-99 390,-129 518,-129 518,-99 390,-99"/>
<text text-anchor="start" x="398" y="-117" font-family="Helvetica,sans-Serif" font-size="10.00" fill="#000000">arch::target_system</text>
<text text-anchor="middle" x="454" y="-106" font-family="Helvetica,sans-Serif" font-size="10.00" fill="#000000">::Component::sendStatus</text>
</a>
</g>
</g>
<!-- Node2&#45;&gt;Node7 -->
<g id="edge11" class="edge">
<title>Node2&#45;&gt;Node7</title>
<path fill="none" stroke="#191970" d="M148.9751,-107.5063C163.2285,-111.2706 180.3108,-115.1398 196,-117 257.6161,-124.3054 328.0872,-122.8269 379.7919,-119.9313"/>
<polygon fill="#191970" stroke="#191970" points="380.0984,-123.4194 389.8745,-119.3355 379.6854,-116.4316 380.0984,-123.4194"/>
</g>
<!-- Node10 -->
<g id="node10" class="node">
<title>Node10</title>
<g id="a_node10"><a xlink:href="classCentralHub.html#a4d658629e1d1fc8dc80ee298173e4c22" target="_top" xlink:title=" ">
<polygon fill="#ffffff" stroke="#000000" points="224.5,-88.5 224.5,-107.5 325.5,-107.5 325.5,-88.5 224.5,-88.5"/>
<text text-anchor="middle" x="275" y="-95.5" font-family="Helvetica,sans-Serif" font-size="10.00" fill="#000000">CentralHub::collect</text>
</a>
</g>
</g>
<!-- Node2&#45;&gt;Node10 -->
<g id="edge9" class="edge">
<title>Node2&#45;&gt;Node10</title>
<path fill="none" stroke="#191970" d="M160.1742,-98C176.8258,-98 196.1716,-98 214.1838,-98"/>
<polygon fill="#191970" stroke="#191970" points="214.3151,-101.5001 224.3151,-98 214.315,-94.5001 214.3151,-101.5001"/>
</g>
<!-- Node11 -->
<g id="node11" class="node">
<title>Node11</title>
<g id="a_node11"><a xlink:href="classarch_1_1ROSComponentDescriptor.html#a4b73f46f37241865a08e75ab202e28eb" target="_top" xlink:title=" ">
<polygon fill="#ffffff" stroke="#000000" points="196,-39 196,-69 354,-69 354,-39 196,-39"/>
<text text-anchor="start" x="204" y="-57" font-family="Helvetica,sans-Serif" font-size="10.00" fill="#000000">arch::ROSComponentDescriptor</text>
<text text-anchor="middle" x="275" y="-46" font-family="Helvetica,sans-Serif" font-size="10.00" fill="#000000">::getFreq</text>
</a>
</g>
</g>
<!-- Node2&#45;&gt;Node11 -->
<g id="edge10" class="edge">
<title>Node2&#45;&gt;Node11</title>
<path fill="none" stroke="#191970" d="M151.2836,-88.4527C168.7549,-83.5872 190.577,-77.5102 211.0085,-71.8204"/>
<polygon fill="#191970" stroke="#191970" points="212.2072,-75.1199 220.9016,-69.0654 210.3292,-68.3765 212.2072,-75.1199"/>
</g>
<!-- Node12 -->
<g id="node12" class="node">
<title>Node12</title>
<g id="a_node12"><a xlink:href="classCentralHub.html#a91be8b44d7c4075c20434723c75fc6f9" target="_top" xlink:title=" ">
<polygon fill="#ffffff" stroke="#000000" points="226,-.5 226,-19.5 324,-19.5 324,-.5 226,-.5"/>
<text text-anchor="middle" x="275" y="-7.5" font-family="Helvetica,sans-Serif" font-size="10.00" fill="#000000">CentralHub::setUp</text>
</a>
</g>
</g>
<!-- Node2&#45;&gt;Node12 -->
<g id="edge12" class="edge">
<title>Node2&#45;&gt;Node12</title>
<path fill="none" stroke="#191970" d="M125.1682,-88.3465C138.4446,-73.2983 166.2331,-44.3828 196,-29 202.1465,-25.8236 208.8376,-23.167 215.639,-20.9474"/>
<polygon fill="#191970" stroke="#191970" points="217.0316,-24.1858 225.6322,-17.9987 215.0505,-17.472 217.0316,-24.1858"/>
</g>
<!-- Node4 -->
<g id="node4" class="node">
<title>Node4</title>
<g id="a_node4"><a xlink:href="classCentralHub.html#ad6c1ba1c51d58a420e076fbd27cd2b5c" target="_top" xlink:title=" ">
<polygon fill="#ffffff" stroke="#000000" points="392,-274.5 392,-293.5 516,-293.5 516,-274.5 392,-274.5"/>
<text text-anchor="middle" x="454" y="-281.5" font-family="Helvetica,sans-Serif" font-size="10.00" fill="#000000">CentralHub::apply_noise</text>
</a>
</g>
</g>
<!-- Node3&#45;&gt;Node4 -->
<g id="edge3" class="edge">
<title>Node3&#45;&gt;Node4</title>
<path fill="none" stroke="#191970" d="M284.9033,-186.6441C303.8046,-204.5509 346.9842,-243.1019 390,-265 394.3543,-267.2167 399.0101,-269.2185 403.7499,-271.0162"/>
<polygon fill="#191970" stroke="#191970" points="402.9326,-274.4377 413.5274,-274.4227 405.2357,-267.8274 402.9326,-274.4377"/>
</g>
<!-- Node5 -->
<g id="node5" class="node">
<title>Node5</title>
<g id="a_node5"><a xlink:href="classbsn_1_1resource_1_1Battery.html#a674c7c02100126e91f040bc93f143c7e" target="_top" xlink:title=" ">
<polygon fill="#ffffff" stroke="#000000" points="397.5,-225 397.5,-255 510.5,-255 510.5,-225 397.5,-225"/>
<text text-anchor="start" x="405.5" y="-243" font-family="Helvetica,sans-Serif" font-size="10.00" fill="#000000">bsn::resource::Battery</text>
<text text-anchor="middle" x="454" y="-232" font-family="Helvetica,sans-Serif" font-size="10.00" fill="#000000">::getCurrentLevel</text>
</a>
</g>
</g>
<!-- Node3&#45;&gt;Node5 -->
<g id="edge4" class="edge">
<title>Node3&#45;&gt;Node5</title>
<path fill="none" stroke="#191970" d="M302.1862,-186.5683C328.4217,-195.802 368.8389,-210.0271 401.3759,-221.4787"/>
<polygon fill="#191970" stroke="#191970" points="400.6013,-224.9165 411.1961,-224.935 402.9253,-218.3135 400.6013,-224.9165"/>
</g>
<!-- Node6 -->
<g id="node6" class="node">
<title>Node6</title>
<g id="a_node6"><a xlink:href="classCentralHub.html#a3527f7455ec82af84e32b182221ede80" target="_top" xlink:title=" ">
<polygon fill="#ffffff" stroke="#000000" points="400.5,-186.5 400.5,-205.5 507.5,-205.5 507.5,-186.5 400.5,-186.5"/>
<text text-anchor="middle" x="454" y="-193.5" font-family="Helvetica,sans-Serif" font-size="10.00" fill="#000000">CentralHub::process</text>
</a>
</g>
</g>
<!-- Node3&#45;&gt;Node6 -->
<g id="edge5" class="edge">
<title>Node3&#45;&gt;Node6</title>
<path fill="none" stroke="#191970" d="M321.5629,-181.9424C342.4932,-184.1641 367.5294,-186.8216 390.1711,-189.2249"/>
<polygon fill="#191970" stroke="#191970" points="390.0686,-192.7336 400.3822,-190.3087 390.8075,-185.7727 390.0686,-192.7336"/>
</g>
<!-- Node3&#45;&gt;Node7 -->
<g id="edge6" class="edge">
<title>Node3&#45;&gt;Node7</title>
<path fill="none" stroke="#191970" d="M303.1915,-167.4887C318.2833,-162.3658 337.1775,-155.9023 354,-150 370.0048,-144.3846 387.409,-138.1603 403.1441,-132.4884"/>
<polygon fill="#191970" stroke="#191970" points="404.4814,-135.7268 412.6984,-129.0386 402.1041,-129.1428 404.4814,-135.7268"/>
</g>
<!-- Node9 -->
<g id="node9" class="node">
<title>Node9</title>
<g id="a_node9"><a xlink:href="classCentralHub.html#a31e4df7094f5d176052056464d5886fa" target="_top" xlink:title=" ">
<polygon fill="#ffffff" stroke="#000000" points="401.5,-148.5 401.5,-167.5 506.5,-167.5 506.5,-148.5 401.5,-148.5"/>
<text text-anchor="middle" x="454" y="-155.5" font-family="Helvetica,sans-Serif" font-size="10.00" fill="#000000">CentralHub::transfer</text>
</a>
</g>
</g>
<!-- Node3&#45;&gt;Node9 -->
<g id="edge8" class="edge">
<title>Node3&#45;&gt;Node9</title>
<path fill="none" stroke="#191970" d="M321.5629,-172.0576C342.8582,-169.7972 368.4038,-167.0856 391.3534,-164.6496"/>
<polygon fill="#191970" stroke="#191970" points="391.7743,-168.1247 401.349,-163.5887 391.0354,-161.1638 391.7743,-168.1247"/>
</g>
<!-- Node8 -->
<g id="node8" class="node">
<title>Node8</title>
<g id="a_node8"><a xlink:href="classarch_1_1ROSComponentDescriptor.html#a462b00745d0de3f98d88f3eb1ba11e45" target="_top" xlink:title=" ">
<polygon fill="#ffffff" stroke="#000000" points="554,-99 554,-129 712,-129 712,-99 554,-99"/>
<text text-anchor="start" x="562" y="-117" font-family="Helvetica,sans-Serif" font-size="10.00" fill="#000000">arch::ROSComponentDescriptor</text>
<text text-anchor="middle" x="633" y="-106" font-family="Helvetica,sans-Serif" font-size="10.00" fill="#000000">::getName</text>
</a>
</g>
</g>
<!-- Node7&#45;&gt;Node8 -->
<g id="edge7" class="edge">
<title>Node7&#45;&gt;Node8</title>
<path fill="none" stroke="#191970" d="M518.1175,-114C526.4093,-114 535.018,-114 543.6251,-114"/>
<polygon fill="#191970" stroke="#191970" points="543.7094,-117.5001 553.7094,-114 543.7093,-110.5001 543.7094,-117.5001"/>
</g>
</g>
</svg>
