<?xml version="1.0" encoding="UTF-8" standalone="no"?>
<!DOCTYPE svg PUBLIC "-//W3C//DTD SVG 1.1//EN"
 "http://www.w3.org/Graphics/SVG/1.1/DTD/svg11.dtd">
<!-- Generated by graphviz version 2.40.1 (20161225.0304)
 -->
<!-- Title: TEST_F Pages: 1 -->
<svg width="225pt" height="186pt"
 viewBox="0.00 0.00 225.00 186.00" xmlns="http://www.w3.org/2000/svg" xmlns:xlink="http://www.w3.org/1999/xlink">
<g id="graph0" class="graph" transform="scale(1 1) rotate(0) translate(4 182)">
<title>TEST_F</title>
<polygon fill="#ffffff" stroke="transparent" points="-4,4 -4,-182 221,-182 221,4 -4,4"/>
<!-- Node1 -->
<g id="node1" class="node">
<title>Node1</title>
<g id="a_node1"><a xlink:title=" ">
<polygon fill="#bfbfbf" stroke="#000000" points="0,-79 0,-98 53,-98 53,-79 0,-79"/>
<text text-anchor="middle" x="26.5" y="-86" font-family="Helvetica,sans-Serif" font-size="10.00" fill="#000000">TEST_F</text>
</a>
</g>
</g>
<!-- Node2 -->
<g id="node2" class="node">
<title>Node2</title>
<g id="a_node2"><a xlink:href="classbsn_1_1goalmodel_1_1Node.html#a331301404b90ce9d959957a36fa93f0d" target="_top" xlink:title=" ">
<polygon fill="#ffffff" stroke="#000000" points="97,-147.5 97,-177.5 209,-177.5 209,-147.5 97,-147.5"/>
<text text-anchor="start" x="105" y="-165.5" font-family="Helvetica,sans-Serif" font-size="10.00" fill="#000000">bsn::goalmodel::Node</text>
<text text-anchor="middle" x="153" y="-154.5" font-family="Helvetica,sans-Serif" font-size="10.00" fill="#000000">::addChild</text>
</a>
</g>
</g>
<!-- Node1&#45;&gt;Node2 -->
<g id="edge1" class="edge">
<title>Node1&#45;&gt;Node2</title>
<path fill="none" stroke="#191970" d="M36.3834,-98.0741C48.1296,-109.0373 68.7035,-126.9663 89,-138.5 91.9791,-140.1929 95.1004,-141.8092 98.2938,-143.3448"/>
<polygon fill="#191970" stroke="#191970" points="96.8713,-146.5426 107.4268,-147.4546 99.7439,-140.1592 96.8713,-146.5426"/>
</g>
<!-- Node3 -->
<g id="node3" class="node">
<title>Node3</title>
<g id="a_node3"><a xlink:href="classbsn_1_1goalmodel_1_1Task.html#a8df193e5fcbf36a3b514ca283d763322" target="_top" xlink:title=" ">
<polygon fill="#ffffff" stroke="#000000" points="98,-98.5 98,-128.5 208,-128.5 208,-98.5 98,-98.5"/>
<text text-anchor="start" x="106" y="-116.5" font-family="Helvetica,sans-Serif" font-size="10.00" fill="#000000">bsn::goalmodel::Task</text>
<text text-anchor="middle" x="153" y="-105.5" font-family="Helvetica,sans-Serif" font-size="10.00" fill="#000000">::addChild</text>
</a>
</g>
</g>
<!-- Node1&#45;&gt;Node3 -->
<g id="edge2" class="edge">
<title>Node1&#45;&gt;Node3</title>
<path fill="none" stroke="#191970" d="M53.0185,-93.7408C63.3086,-95.7744 75.5835,-98.2003 87.9502,-100.6443"/>
<polygon fill="#191970" stroke="#191970" points="87.3628,-104.0958 97.8516,-102.6011 88.72,-97.2287 87.3628,-104.0958"/>
</g>
<!-- Node4 -->
<g id="node4" class="node">
<title>Node4</title>
<g id="a_node4"><a xlink:href="classbsn_1_1goalmodel_1_1GoalTree.html#a3a07b0ec72560e4b4a70dc747c867ec7" target="_top" xlink:title=" ">
<polygon fill="#ffffff" stroke="#000000" points="89,-49.5 89,-79.5 217,-79.5 217,-49.5 89,-49.5"/>
<text text-anchor="start" x="97" y="-67.5" font-family="Helvetica,sans-Serif" font-size="10.00" fill="#000000">bsn::goalmodel::GoalTree</text>
<text text-anchor="middle" x="153" y="-56.5" font-family="Helvetica,sans-Serif" font-size="10.00" fill="#000000">::addRootGoal</text>
</a>
</g>
</g>
<!-- Node1&#45;&gt;Node4 -->
<g id="edge3" class="edge">
<title>Node1&#45;&gt;Node4</title>
<path fill="none" stroke="#191970" d="M53.0185,-83.4688C60.7864,-81.9951 69.6855,-80.3067 78.9012,-78.5583"/>
<polygon fill="#191970" stroke="#191970" points="79.8148,-81.9475 88.9871,-76.6447 78.5099,-75.0701 79.8148,-81.9475"/>
</g>
<!-- Node5 -->
<g id="node5" class="node">
<title>Node5</title>
<g id="a_node5"><a xlink:href="classbsn_1_1goalmodel_1_1GoalTree.html#a7a3da90e5130f5badab8f7a535ec9a16" target="_top" xlink:title=" ">
<polygon fill="#ffffff" stroke="#000000" points="89,-.5 89,-30.5 217,-30.5 217,-.5 89,-.5"/>
<text text-anchor="start" x="97" y="-18.5" font-family="Helvetica,sans-Serif" font-size="10.00" fill="#000000">bsn::goalmodel::GoalTree</text>
<text text-anchor="middle" x="153" y="-7.5" font-family="Helvetica,sans-Serif" font-size="10.00" fill="#000000">::getLeafTasks</text>
</a>
</g>
</g>
<!-- Node1&#45;&gt;Node5 -->
<g id="edge4" class="edge">
<title>Node1&#45;&gt;Node5</title>
<path fill="none" stroke="#191970" d="M37.3424,-78.6297C49.3041,-68.1235 69.458,-51.5251 89,-40.5 92.6233,-38.4558 96.4471,-36.5047 100.3496,-34.6591"/>
<polygon fill="#191970" stroke="#191970" points="101.84,-37.8267 109.5409,-30.5502 98.9832,-31.4362 101.84,-37.8267"/>
</g>
</g>
</svg>
