<?xml version="1.0" encoding="UTF-8" standalone="no"?>
<!DOCTYPE svg PUBLIC "-//W3C//DTD SVG 1.1//EN"
 "http://www.w3.org/Graphics/SVG/1.1/DTD/svg11.dtd">
<!-- Generated by graphviz version 2.40.1 (20161225.0304)
 -->
<!-- Title: libbsn/include/goalmodel/GoalTree.hpp Pages: 1 -->
<svg width="260pt" height="106pt"
 viewBox="0.00 0.00 260.00 106.00" xmlns="http://www.w3.org/2000/svg" xmlns:xlink="http://www.w3.org/1999/xlink">
<g id="graph0" class="graph" transform="scale(1 1) rotate(0) translate(4 102)">
<title>libbsn/include/goalmodel/GoalTree.hpp</title>
<polygon fill="#ffffff" stroke="transparent" points="-4,4 -4,-102 256,-102 256,4 -4,4"/>
<!-- Node1 -->
<g id="node1" class="node">
<title>Node1</title>
<g id="a_node1"><a xlink:title=" ">
<polygon fill="#bfbfbf" stroke="#000000" points="58.5,-67.5 58.5,-97.5 181.5,-97.5 181.5,-67.5 58.5,-67.5"/>
<text text-anchor="start" x="66.5" y="-85.5" font-family="Helvetica,sans-Serif" font-size="10.00" fill="#000000">libbsn/include/goalmodel</text>
<text text-anchor="middle" x="120" y="-74.5" font-family="Helvetica,sans-Serif" font-size="10.00" fill="#000000">/GoalTree.hpp</text>
</a>
</g>
</g>
<!-- Node2 -->
<g id="node2" class="node">
<title>Node2</title>
<g id="a_node2"><a xlink:href="GoalTree_8cpp.html" target="_top" xlink:title=" ">
<polygon fill="#ffffff" stroke="#000000" points="0,-.5 0,-30.5 106,-30.5 106,-.5 0,-.5"/>
<text text-anchor="start" x="8" y="-18.5" font-family="Helvetica,sans-Serif" font-size="10.00" fill="#000000">libbsn/src/goalmodel</text>
<text text-anchor="middle" x="53" y="-7.5" font-family="Helvetica,sans-Serif" font-size="10.00" fill="#000000">/GoalTree.cpp</text>
</a>
</g>
</g>
<!-- Node1&#45;&gt;Node2 -->
<g id="edge1" class="edge">
<title>Node1&#45;&gt;Node2</title>
<path fill="none" stroke="#191970" d="M97.7113,-60.2113C88.0009,-50.5009 76.8698,-39.3698 68.1432,-30.6432"/>
<polygon fill="#191970" stroke="#191970" points="95.2507,-62.7004 104.7967,-67.2967 100.2004,-57.7507 95.2507,-62.7004"/>
</g>
<!-- Node3 -->
<g id="node3" class="node">
<title>Node3</title>
<g id="a_node3"><a xlink:href="GoalTreeTest_8cpp.html" target="_top" xlink:title=" ">
<polygon fill="#ffffff" stroke="#000000" points="124,-.5 124,-30.5 252,-30.5 252,-.5 124,-.5"/>
<text text-anchor="start" x="132" y="-18.5" font-family="Helvetica,sans-Serif" font-size="10.00" fill="#000000">libbsn/test/unit/goalmodel</text>
<text text-anchor="middle" x="188" y="-7.5" font-family="Helvetica,sans-Serif" font-size="10.00" fill="#000000">/GoalTreeTest.cpp</text>
</a>
</g>
</g>
<!-- Node1&#45;&gt;Node3 -->
<g id="edge2" class="edge">
<title>Node1&#45;&gt;Node3</title>
<path fill="none" stroke="#191970" d="M142.6214,-60.2113C152.4767,-50.5009 163.7739,-39.3698 172.6308,-30.6432"/>
<polygon fill="#191970" stroke="#191970" points="140.097,-57.785 135.4303,-67.2967 145.01,-62.7713 140.097,-57.785"/>
</g>
</g>
</svg>
