<?xml version="1.0" encoding="UTF-8" standalone="no"?>
<!DOCTYPE svg PUBLIC "-//W3C//DTD SVG 1.1//EN"
 "http://www.w3.org/Graphics/SVG/1.1/DTD/svg11.dtd">
<!-- Generated by graphviz version 2.40.1 (20161225.0304)
 -->
<!-- Title: libbsn/src/goalmodel/GoalTree.cpp Pages: 1 -->
<svg width="928pt" height="375pt"
 viewBox="0.00 0.00 928.00 375.00" xmlns="http://www.w3.org/2000/svg" xmlns:xlink="http://www.w3.org/1999/xlink">
<g id="graph0" class="graph" transform="scale(1 1) rotate(0) translate(4 371)">
<title>libbsn/src/goalmodel/GoalTree.cpp</title>
<polygon fill="#ffffff" stroke="transparent" points="-4,4 -4,-371 924,-371 924,4 -4,4"/>
<!-- Node1 -->
<g id="node1" class="node">
<title>Node1</title>
<g id="a_node1"><a xlink:title=" ">
<polygon fill="#bfbfbf" stroke="#000000" points="785,-336.5 785,-366.5 891,-366.5 891,-336.5 785,-336.5"/>
<text text-anchor="start" x="793" y="-354.5" font-family="Helvetica,sans-Serif" font-size="10.00" fill="#000000">libbsn/src/goalmodel</text>
<text text-anchor="middle" x="838" y="-343.5" font-family="Helvetica,sans-Serif" font-size="10.00" fill="#000000">/GoalTree.cpp</text>
</a>
</g>
</g>
<!-- Node2 -->
<g id="node2" class="node">
<title>Node2</title>
<g id="a_node2"><a xlink:href="GoalTree_8hpp.html" target="_top" xlink:title=" ">
<polygon fill="#ffffff" stroke="#000000" points="306,-280.5 306,-299.5 428,-299.5 428,-280.5 306,-280.5"/>
<text text-anchor="middle" x="367" y="-287.5" font-family="Helvetica,sans-Serif" font-size="10.00" fill="#000000">goalmodel/GoalTree.hpp</text>
</a>
</g>
</g>
<!-- Node1&#45;&gt;Node2 -->
<g id="edge1" class="edge">
<title>Node1&#45;&gt;Node2</title>
<path fill="none" stroke="#191970" d="M784.8859,-344.5647C699.9281,-333.4715 533.3735,-311.7239 438.1935,-299.296"/>
<polygon fill="#191970" stroke="#191970" points="438.4499,-295.7998 428.0809,-297.9755 437.5435,-302.7409 438.4499,-295.7998"/>
</g>
<!-- Node7 -->
<g id="node7" class="node">
<title>Node7</title>
<g id="a_node7"><a xlink:title=" ">
<polygon fill="#ffffff" stroke="#bfbfbf" points="695,-.5 695,-19.5 747,-19.5 747,-.5 695,-.5"/>
<text text-anchor="middle" x="721" y="-7.5" font-family="Helvetica,sans-Serif" font-size="10.00" fill="#000000">memory</text>
</a>
</g>
</g>
<!-- Node1&#45;&gt;Node7 -->
<g id="edge33" class="edge">
<title>Node1&#45;&gt;Node7</title>
<path fill="none" stroke="#191970" d="M838,-336.2899C838,-313.892 838,-270.7188 838,-234 838,-234 838,-234 838,-122 838,-74.9642 788.0472,-41.5778 753.4211,-24.0853"/>
<polygon fill="#191970" stroke="#191970" points="754.6407,-20.787 744.1154,-19.5748 751.5875,-27.0861 754.6407,-20.787"/>
</g>
<!-- Node14 -->
<g id="node14" class="node">
<title>Node14</title>
<g id="a_node14"><a xlink:title=" ">
<polygon fill="#ffffff" stroke="#bfbfbf" points="866,-280.5 866,-299.5 920,-299.5 920,-280.5 866,-280.5"/>
<text text-anchor="middle" x="893" y="-287.5" font-family="Helvetica,sans-Serif" font-size="10.00" fill="#000000">iostream</text>
</a>
</g>
</g>
<!-- Node1&#45;&gt;Node14 -->
<g id="edge32" class="edge">
<title>Node1&#45;&gt;Node14</title>
<path fill="none" stroke="#191970" d="M851.5955,-336.2977C859.3891,-327.5831 869.2047,-316.6075 877.3226,-307.5302"/>
<polygon fill="#191970" stroke="#191970" points="880.1365,-309.6341 884.1938,-299.8469 874.9187,-304.9678 880.1365,-309.6341"/>
</g>
<!-- Node3 -->
<g id="node3" class="node">
<title>Node3</title>
<g id="a_node3"><a xlink:title=" ">
<polygon fill="#ffffff" stroke="#bfbfbf" points="495.5,-.5 495.5,-19.5 536.5,-19.5 536.5,-.5 495.5,-.5"/>
<text text-anchor="middle" x="516" y="-7.5" font-family="Helvetica,sans-Serif" font-size="10.00" fill="#000000">string</text>
</a>
</g>
</g>
<!-- Node2&#45;&gt;Node3 -->
<g id="edge2" class="edge">
<title>Node2&#45;&gt;Node3</title>
<path fill="none" stroke="#191970" d="M428.2854,-285.3698C539.2335,-275.2892 762,-246.5177 762,-178 762,-178 762,-178 762,-122 762,-75.118 612.1378,-33.1898 546.3513,-17.0428"/>
<polygon fill="#191970" stroke="#191970" points="547.0929,-13.6213 536.5507,-14.6758 545.4495,-20.4257 547.0929,-13.6213"/>
</g>
<!-- Node4 -->
<g id="node4" class="node">
<title>Node4</title>
<g id="a_node4"><a xlink:title=" ">
<polygon fill="#ffffff" stroke="#bfbfbf" points="326.5,-224.5 326.5,-243.5 361.5,-243.5 361.5,-224.5 326.5,-224.5"/>
<text text-anchor="middle" x="344" y="-231.5" font-family="Helvetica,sans-Serif" font-size="10.00" fill="#000000">map</text>
</a>
</g>
</g>
<!-- Node2&#45;&gt;Node4 -->
<g id="edge3" class="edge">
<title>Node2&#45;&gt;Node4</title>
<path fill="none" stroke="#191970" d="M362.9937,-280.2455C359.9265,-272.7776 355.5997,-262.2427 351.8503,-253.1137"/>
<polygon fill="#191970" stroke="#191970" points="354.9972,-251.5631 347.9604,-243.6427 348.5221,-254.2226 354.9972,-251.5631"/>
</g>
<!-- Node5 -->
<g id="node5" class="node">
<title>Node5</title>
<g id="a_node5"><a xlink:title=" ">
<polygon fill="#ffffff" stroke="#bfbfbf" points="198.5,-.5 198.5,-19.5 257.5,-19.5 257.5,-.5 198.5,-.5"/>
<text text-anchor="middle" x="228" y="-7.5" font-family="Helvetica,sans-Serif" font-size="10.00" fill="#000000">stdexcept</text>
</a>
</g>
</g>
<!-- Node2&#45;&gt;Node5 -->
<g id="edge4" class="edge">
<title>Node2&#45;&gt;Node5</title>
<path fill="none" stroke="#191970" d="M330.3219,-280.4956C271.7435,-262.8896 160.8244,-218.8252 133,-132 118.5475,-86.9014 169.1278,-46.0236 201.9737,-24.9658"/>
<polygon fill="#191970" stroke="#191970" points="204.0381,-27.8043 210.6988,-19.565 200.3538,-21.8523 204.0381,-27.8043"/>
</g>
<!-- Node6 -->
<g id="node6" class="node">
<title>Node6</title>
<g id="a_node6"><a xlink:title=" ">
<polygon fill="#ffffff" stroke="#bfbfbf" points="92,-.5 92,-19.5 136,-19.5 136,-.5 92,-.5"/>
<text text-anchor="middle" x="114" y="-7.5" font-family="Helvetica,sans-Serif" font-size="10.00" fill="#000000">vector</text>
</a>
</g>
</g>
<!-- Node2&#45;&gt;Node6 -->
<g id="edge5" class="edge">
<title>Node2&#45;&gt;Node6</title>
<path fill="none" stroke="#191970" d="M305.9854,-284.078C201.6275,-272.2441 0,-241.2022 0,-178 0,-178 0,-178 0,-122 0,-75.4628 48.9383,-41.828 82.6864,-24.1659"/>
<polygon fill="#191970" stroke="#191970" points="84.3862,-27.2289 91.749,-19.6105 81.2424,-20.9746 84.3862,-27.2289"/>
</g>
<!-- Node2&#45;&gt;Node7 -->
<g id="edge6" class="edge">
<title>Node2&#45;&gt;Node7</title>
<path fill="none" stroke="#191970" d="M428.12,-286.908C547.4767,-279.1927 800,-253.9006 800,-178 800,-178 800,-178 800,-122 800,-81.9466 765.8445,-46.143 742.4502,-26.3174"/>
<polygon fill="#191970" stroke="#191970" points="744.3642,-23.3622 734.4013,-19.7579 739.942,-28.7885 744.3642,-23.3622"/>
</g>
<!-- Node8 -->
<g id="node8" class="node">
<title>Node8</title>
<g id="a_node8"><a xlink:href="Node_8hpp.html" target="_top" xlink:title=" ">
<polygon fill="#ffffff" stroke="#000000" points="294,-56.5 294,-75.5 400,-75.5 400,-56.5 294,-56.5"/>
<text text-anchor="middle" x="347" y="-63.5" font-family="Helvetica,sans-Serif" font-size="10.00" fill="#000000">goalmodel/Node.hpp</text>
</a>
</g>
</g>
<!-- Node2&#45;&gt;Node8 -->
<g id="edge7" class="edge">
<title>Node2&#45;&gt;Node8</title>
<path fill="none" stroke="#191970" d="M367.8013,-280.4941C368.542,-271.1984 369.5883,-256.6382 370,-244 371.8875,-186.0542 358.8816,-118.3111 351.6345,-85.6219"/>
<polygon fill="#191970" stroke="#191970" points="354.9833,-84.5648 349.3451,-75.5947 348.1589,-86.1229 354.9833,-84.5648"/>
</g>
<!-- Node9 -->
<g id="node9" class="node">
<title>Node9</title>
<g id="a_node9"><a xlink:href="Goal_8hpp.html" target="_top" xlink:title=" ">
<polygon fill="#ffffff" stroke="#000000" points="142.5,-112.5 142.5,-131.5 245.5,-131.5 245.5,-112.5 142.5,-112.5"/>
<text text-anchor="middle" x="194" y="-119.5" font-family="Helvetica,sans-Serif" font-size="10.00" fill="#000000">goalmodel/Goal.hpp</text>
</a>
</g>
</g>
<!-- Node2&#45;&gt;Node9 -->
<g id="edge12" class="edge">
<title>Node2&#45;&gt;Node9</title>
<path fill="none" stroke="#191970" d="M352.8919,-280.4141C328.6751,-263.5424 278.3903,-226.6505 243,-188 229.2184,-172.9489 215.5441,-154.1189 206.1575,-140.4281"/>
<polygon fill="#191970" stroke="#191970" points="208.8873,-138.216 200.3954,-131.8805 203.083,-142.1288 208.8873,-138.216"/>
</g>
<!-- Node10 -->
<g id="node10" class="node">
<title>Node10</title>
<g id="a_node10"><a xlink:href="Task_8hpp.html" target="_top" xlink:title=" ">
<polygon fill="#ffffff" stroke="#000000" points="252,-168.5 252,-187.5 356,-187.5 356,-168.5 252,-168.5"/>
<text text-anchor="middle" x="304" y="-175.5" font-family="Helvetica,sans-Serif" font-size="10.00" fill="#000000">goalmodel/Task.hpp</text>
</a>
</g>
</g>
<!-- Node2&#45;&gt;Node10 -->
<g id="edge17" class="edge">
<title>Node2&#45;&gt;Node10</title>
<path fill="none" stroke="#191970" d="M352.3682,-280.4781C340.9118,-272.2241 325.5337,-259.2291 317,-244 309.061,-229.8323 305.9111,-211.5815 304.6899,-197.8641"/>
<polygon fill="#191970" stroke="#191970" points="308.1657,-197.3618 304.055,-187.597 301.179,-197.794 308.1657,-197.3618"/>
</g>
<!-- Node11 -->
<g id="node11" class="node">
<title>Node11</title>
<g id="a_node11"><a xlink:href="LeafTask_8hpp.html" target="_top" xlink:title=" ">
<polygon fill="#ffffff" stroke="#000000" points="423.5,-224.5 423.5,-243.5 546.5,-243.5 546.5,-224.5 423.5,-224.5"/>
<text text-anchor="middle" x="485" y="-231.5" font-family="Helvetica,sans-Serif" font-size="10.00" fill="#000000">goalmodel/LeafTask.hpp</text>
</a>
</g>
</g>
<!-- Node2&#45;&gt;Node11 -->
<g id="edge24" class="edge">
<title>Node2&#45;&gt;Node11</title>
<path fill="none" stroke="#191970" d="M387.2849,-280.3733C406.1421,-271.4241 434.446,-257.9917 455.7455,-247.8835"/>
<polygon fill="#191970" stroke="#191970" points="457.4461,-250.9506 464.9798,-243.5011 454.4449,-244.6266 457.4461,-250.9506"/>
</g>
<!-- Node8&#45;&gt;Node3 -->
<g id="edge8" class="edge">
<title>Node8&#45;&gt;Node3</title>
<path fill="none" stroke="#191970" d="M376.0521,-56.3733C406.5763,-46.2587 454.3833,-30.4174 485.4565,-20.1209"/>
<polygon fill="#191970" stroke="#191970" points="486.9122,-23.3258 495.3037,-16.8579 484.7104,-16.6811 486.9122,-23.3258"/>
</g>
<!-- Node8&#45;&gt;Node5 -->
<g id="edge10" class="edge">
<title>Node8&#45;&gt;Node5</title>
<path fill="none" stroke="#191970" d="M326.5432,-56.3733C307.5262,-47.4241 278.9825,-33.9917 257.5024,-23.8835"/>
<polygon fill="#191970" stroke="#191970" points="258.7284,-20.5923 248.1899,-19.5011 255.7478,-26.926 258.7284,-20.5923"/>
</g>
<!-- Node8&#45;&gt;Node6 -->
<g id="edge9" class="edge">
<title>Node8&#45;&gt;Node6</title>
<path fill="none" stroke="#191970" d="M307.2106,-56.4369C261.6785,-45.4935 188.0042,-27.7864 146.0129,-17.6941"/>
<polygon fill="#191970" stroke="#191970" points="146.5972,-14.2349 136.0562,-15.3011 144.9614,-21.0411 146.5972,-14.2349"/>
</g>
<!-- Node8&#45;&gt;Node7 -->
<g id="edge11" class="edge">
<title>Node8&#45;&gt;Node7</title>
<path fill="none" stroke="#191970" d="M400.1879,-58.036C477.3335,-46.4848 618.2848,-25.3798 684.6344,-15.4451"/>
<polygon fill="#191970" stroke="#191970" points="685.2499,-18.8921 694.6213,-13.9497 684.2133,-11.9692 685.2499,-18.8921"/>
</g>
<!-- Node9&#45;&gt;Node3 -->
<g id="edge13" class="edge">
<title>Node9&#45;&gt;Node3</title>
<path fill="none" stroke="#191970" d="M203.9954,-112.4495C219.8348,-97.8831 252.2739,-70.3026 285,-56 352.6426,-26.4374 439.7571,-15.6938 485.2433,-11.9286"/>
<polygon fill="#191970" stroke="#191970" points="485.6467,-15.408 495.3488,-11.1515 485.1099,-8.4286 485.6467,-15.408"/>
</g>
<!-- Node9&#45;&gt;Node5 -->
<g id="edge15" class="edge">
<title>Node9&#45;&gt;Node5</title>
<path fill="none" stroke="#191970" d="M196.9781,-112.1589C200.8824,-99.2605 207.9463,-75.9339 214,-56 216.6649,-47.2249 219.6208,-37.5099 222.1272,-29.2778"/>
<polygon fill="#191970" stroke="#191970" points="225.5355,-30.0997 225.1009,-19.5137 218.8392,-28.0602 225.5355,-30.0997"/>
</g>
<!-- Node9&#45;&gt;Node6 -->
<g id="edge14" class="edge">
<title>Node9&#45;&gt;Node6</title>
<path fill="none" stroke="#191970" d="M187.1792,-112.4509C173.7772,-93.688 143.8248,-51.7548 126.6843,-27.758"/>
<polygon fill="#191970" stroke="#191970" points="129.464,-25.6279 120.8035,-19.5249 123.7678,-29.6966 129.464,-25.6279"/>
</g>
<!-- Node9&#45;&gt;Node8 -->
<g id="edge16" class="edge">
<title>Node9&#45;&gt;Node8</title>
<path fill="none" stroke="#191970" d="M220.3016,-112.3733C245.4128,-103.1822 283.4438,-89.2624 311.2872,-79.0713"/>
<polygon fill="#191970" stroke="#191970" points="312.8538,-82.2251 321.0416,-75.5011 310.4478,-75.6516 312.8538,-82.2251"/>
</g>
<!-- Node10&#45;&gt;Node3 -->
<g id="edge18" class="edge">
<title>Node10&#45;&gt;Node3</title>
<path fill="none" stroke="#191970" d="M314.4055,-168.372C337.5187,-147.1562 395.1899,-95.1546 447,-56 461.4652,-45.0681 478.3969,-33.7596 491.8676,-25.0906"/>
<polygon fill="#191970" stroke="#191970" points="494.0145,-27.8728 500.5677,-19.5478 490.2532,-21.9692 494.0145,-27.8728"/>
</g>
<!-- Node10&#45;&gt;Node5 -->
<g id="edge20" class="edge">
<title>Node10&#45;&gt;Node5</title>
<path fill="none" stroke="#191970" d="M299.6962,-168.4862C287.5783,-141.6994 252.997,-65.2565 236.6988,-29.2289"/>
<polygon fill="#191970" stroke="#191970" points="239.7566,-27.4964 232.4459,-19.8279 233.3788,-30.3816 239.7566,-27.4964"/>
</g>
<!-- Node10&#45;&gt;Node6 -->
<g id="edge19" class="edge">
<title>Node10&#45;&gt;Node6</title>
<path fill="none" stroke="#191970" d="M251.7213,-170.3031C207.4783,-162.6873 148.8083,-149.62 133,-132 107.6983,-103.7986 108.2775,-56.3828 111.0609,-29.7284"/>
<polygon fill="#191970" stroke="#191970" points="114.5478,-30.0506 112.3197,-19.6927 107.6023,-29.1794 114.5478,-30.0506"/>
</g>
<!-- Node10&#45;&gt;Node7 -->
<g id="edge22" class="edge">
<title>Node10&#45;&gt;Node7</title>
<path fill="none" stroke="#191970" d="M333.5121,-168.4115C385.1302,-151.3927 494.8927,-114.0974 585,-76 623.4895,-59.7266 666.7123,-38.164 693.8905,-24.1873"/>
<polygon fill="#191970" stroke="#191970" points="695.5247,-27.2825 702.8005,-19.581 692.31,-21.0643 695.5247,-27.2825"/>
</g>
<!-- Node10&#45;&gt;Node8 -->
<g id="edge21" class="edge">
<title>Node10&#45;&gt;Node8</title>
<path fill="none" stroke="#191970" d="M307.6662,-168.4509C314.7428,-150.0186 330.4045,-109.2254 339.6888,-85.043"/>
<polygon fill="#191970" stroke="#191970" points="343.0263,-86.115 343.3431,-75.5249 336.4914,-83.606 343.0263,-86.115"/>
</g>
<!-- Node10&#45;&gt;Node9 -->
<g id="edge23" class="edge">
<title>Node10&#45;&gt;Node9</title>
<path fill="none" stroke="#191970" d="M284.8395,-168.2455C267.4889,-159.4125 241.7099,-146.2887 222.0417,-136.2758"/>
<polygon fill="#191970" stroke="#191970" points="223.4405,-133.0605 212.941,-131.6427 220.2647,-139.2986 223.4405,-133.0605"/>
</g>
<!-- Node11&#45;&gt;Node3 -->
<g id="edge25" class="edge">
<title>Node11&#45;&gt;Node3</title>
<path fill="none" stroke="#191970" d="M494.0343,-224.2825C515.0361,-200.9447 566.7435,-138.9826 585,-76 587.4747,-67.4625 589.1943,-63.8371 585,-56 576.6966,-40.485 560.5931,-29.2992 546.0306,-21.8455"/>
<polygon fill="#191970" stroke="#191970" points="547.3181,-18.5829 536.781,-17.4782 544.3293,-24.9128 547.3181,-18.5829"/>
</g>
<!-- Node11&#45;&gt;Node6 -->
<g id="edge26" class="edge">
<title>Node11&#45;&gt;Node6</title>
<path fill="none" stroke="#191970" d="M423.3498,-227.1763C373.6923,-220.5242 302.5882,-208.3684 243,-188 191.0892,-170.2559 165.196,-176.4184 133,-132 110.9732,-101.6113 110.1888,-55.7218 111.8933,-29.7501"/>
<polygon fill="#191970" stroke="#191970" points="115.3927,-29.904 112.7527,-19.6433 108.4179,-29.3108 115.3927,-29.904"/>
</g>
<!-- Node11&#45;&gt;Node10 -->
<g id="edge31" class="edge">
<title>Node11&#45;&gt;Node10</title>
<path fill="none" stroke="#191970" d="M453.885,-224.3733C423.6571,-215.021 377.604,-200.7725 344.5261,-190.5385"/>
<polygon fill="#191970" stroke="#191970" points="345.2967,-187.1133 334.709,-187.5011 343.2277,-193.8005 345.2967,-187.1133"/>
</g>
<!-- Node12 -->
<g id="node12" class="node">
<title>Node12</title>
<g id="a_node12"><a xlink:href="Context_8hpp.html" target="_top" xlink:title=" ">
<polygon fill="#ffffff" stroke="#000000" points="616.5,-112.5 616.5,-131.5 733.5,-131.5 733.5,-112.5 616.5,-112.5"/>
<text text-anchor="middle" x="675" y="-119.5" font-family="Helvetica,sans-Serif" font-size="10.00" fill="#000000">goalmodel/Context.hpp</text>
</a>
</g>
</g>
<!-- Node11&#45;&gt;Node12 -->
<g id="edge27" class="edge">
<title>Node11&#45;&gt;Node12</title>
<path fill="none" stroke="#191970" d="M501.6708,-224.3521C517.6771,-215.0748 542.5246,-200.6366 564,-188 593.7205,-170.5119 627.7966,-150.2134 650.266,-136.7944"/>
<polygon fill="#191970" stroke="#191970" points="652.0615,-139.7989 658.8506,-131.6651 648.471,-133.7898 652.0615,-139.7989"/>
</g>
<!-- Node13 -->
<g id="node13" class="node">
<title>Node13</title>
<g id="a_node13"><a xlink:href="Property_8hpp.html" target="_top" xlink:title=" ">
<polygon fill="#ffffff" stroke="#000000" points="456.5,-56.5 456.5,-75.5 575.5,-75.5 575.5,-56.5 456.5,-56.5"/>
<text text-anchor="middle" x="516" y="-63.5" font-family="Helvetica,sans-Serif" font-size="10.00" fill="#000000">goalmodel/Property.hpp</text>
</a>
</g>
</g>
<!-- Node11&#45;&gt;Node13 -->
<g id="edge29" class="edge">
<title>Node11&#45;&gt;Node13</title>
<path fill="none" stroke="#191970" d="M486.7555,-224.4862C491.6771,-197.8144 505.683,-121.9117 512.3658,-85.695"/>
<polygon fill="#191970" stroke="#191970" points="515.8137,-86.297 514.1865,-75.8279 508.9299,-85.0267 515.8137,-86.297"/>
</g>
<!-- Node12&#45;&gt;Node3 -->
<g id="edge28" class="edge">
<title>Node12&#45;&gt;Node3</title>
<path fill="none" stroke="#191970" d="M668.6868,-112.3123C659.1484,-98.3062 639.8416,-72.2978 618,-56 596.0919,-39.6525 567.4504,-27.3782 546.097,-19.6385"/>
<polygon fill="#191970" stroke="#191970" points="547.1507,-16.2992 536.5558,-16.3042 544.8414,-22.9073 547.1507,-16.2992"/>
</g>
<!-- Node13&#45;&gt;Node3 -->
<g id="edge30" class="edge">
<title>Node13&#45;&gt;Node3</title>
<path fill="none" stroke="#191970" d="M516,-56.2455C516,-48.9382 516,-38.6944 516,-29.7046"/>
<polygon fill="#191970" stroke="#191970" points="519.5001,-29.6426 516,-19.6427 512.5001,-29.6427 519.5001,-29.6426"/>
</g>
</g>
</svg>
