<?xml version="1.0" encoding="UTF-8" standalone="no"?>
<!DOCTYPE svg PUBLIC "-//W3C//DTD SVG 1.1//EN"
 "http://www.w3.org/Graphics/SVG/1.1/DTD/svg11.dtd">
<!-- Generated by graphviz version 2.40.1 (20161225.0304)
 -->
<!-- Title: TEST_F Pages: 1 -->
<svg width="225pt" height="137pt"
 viewBox="0.00 0.00 225.00 137.00" xmlns="http://www.w3.org/2000/svg" xmlns:xlink="http://www.w3.org/1999/xlink">
<g id="graph0" class="graph" transform="scale(1 1) rotate(0) translate(4 133)">
<title>TEST_F</title>
<polygon fill="#ffffff" stroke="transparent" points="-4,4 -4,-133 221,-133 221,4 -4,4"/>
<!-- Node1 -->
<g id="node1" class="node">
<title>Node1</title>
<g id="a_node1"><a xlink:title=" ">
<polygon fill="#bfbfbf" stroke="#000000" points="0,-55 0,-74 53,-74 53,-55 0,-55"/>
<text text-anchor="middle" x="26.5" y="-62" font-family="Helvetica,sans-Serif" font-size="10.00" fill="#000000">TEST_F</text>
</a>
</g>
</g>
<!-- Node2 -->
<g id="node2" class="node">
<title>Node2</title>
<g id="a_node2"><a xlink:href="classbsn_1_1goalmodel_1_1Node.html#a331301404b90ce9d959957a36fa93f0d" target="_top" xlink:title=" ">
<polygon fill="#ffffff" stroke="#000000" points="97,-98.5 97,-128.5 209,-128.5 209,-98.5 97,-98.5"/>
<text text-anchor="start" x="105" y="-116.5" font-family="Helvetica,sans-Serif" font-size="10.00" fill="#000000">bsn::goalmodel::Node</text>
<text text-anchor="middle" x="153" y="-105.5" font-family="Helvetica,sans-Serif" font-size="10.00" fill="#000000">::addChild</text>
</a>
</g>
</g>
<!-- Node1&#45;&gt;Node2 -->
<g id="edge1" class="edge">
<title>Node1&#45;&gt;Node2</title>
<path fill="none" stroke="#191970" d="M50.1949,-74.1187C61.8577,-78.8171 76.1413,-84.5179 89,-89.5 93.4676,-91.2309 98.1179,-93.0129 102.7821,-94.7867"/>
<polygon fill="#191970" stroke="#191970" points="101.7302,-98.1308 112.3217,-98.3972 104.2081,-91.584 101.7302,-98.1308"/>
</g>
<!-- Node3 -->
<g id="node3" class="node">
<title>Node3</title>
<g id="a_node3"><a xlink:href="classbsn_1_1goalmodel_1_1GoalTree.html#a3a07b0ec72560e4b4a70dc747c867ec7" target="_top" xlink:title=" ">
<polygon fill="#ffffff" stroke="#000000" points="89,-49.5 89,-79.5 217,-79.5 217,-49.5 89,-49.5"/>
<text text-anchor="start" x="97" y="-67.5" font-family="Helvetica,sans-Serif" font-size="10.00" fill="#000000">bsn::goalmodel::GoalTree</text>
<text text-anchor="middle" x="153" y="-56.5" font-family="Helvetica,sans-Serif" font-size="10.00" fill="#000000">::addRootGoal</text>
</a>
</g>
</g>
<!-- Node1&#45;&gt;Node3 -->
<g id="edge2" class="edge">
<title>Node1&#45;&gt;Node3</title>
<path fill="none" stroke="#191970" d="M53.0185,-64.5C60.7864,-64.5 69.6855,-64.5 78.9012,-64.5"/>
<polygon fill="#191970" stroke="#191970" points="78.9871,-68.0001 88.9871,-64.5 78.9871,-61.0001 78.9871,-68.0001"/>
</g>
<!-- Node4 -->
<g id="node4" class="node">
<title>Node4</title>
<g id="a_node4"><a xlink:href="classbsn_1_1goalmodel_1_1GoalTree.html#aa897db3ae8092163bc7c31cc0dff98d8" target="_top" xlink:title=" ">
<polygon fill="#ffffff" stroke="#000000" points="89,-.5 89,-30.5 217,-30.5 217,-.5 89,-.5"/>
<text text-anchor="start" x="97" y="-18.5" font-family="Helvetica,sans-Serif" font-size="10.00" fill="#000000">bsn::goalmodel::GoalTree</text>
<text text-anchor="middle" x="153" y="-7.5" font-family="Helvetica,sans-Serif" font-size="10.00" fill="#000000">::getNode</text>
</a>
</g>
</g>
<!-- Node1&#45;&gt;Node4 -->
<g id="edge3" class="edge">
<title>Node1&#45;&gt;Node4</title>
<path fill="none" stroke="#191970" d="M51.1908,-54.936C66.3756,-49.0541 86.3551,-41.315 104.5904,-34.2515"/>
<polygon fill="#191970" stroke="#191970" points="105.872,-37.5086 113.9327,-30.6328 103.3436,-30.9812 105.872,-37.5086"/>
</g>
</g>
</svg>
