<?xml version="1.0" encoding="UTF-8" standalone="no"?>
<!DOCTYPE svg PUBLIC "-//W3C//DTD SVG 1.1//EN"
 "http://www.w3.org/Graphics/SVG/1.1/DTD/svg11.dtd">
<!-- Generated by graphviz version 2.40.1 (20161225.0304)
 -->
<!-- Title: libbsn/src/goalmodel/Goal.cpp Pages: 1 -->
<svg width="259pt" height="207pt"
 viewBox="0.00 0.00 259.00 207.00" xmlns="http://www.w3.org/2000/svg" xmlns:xlink="http://www.w3.org/1999/xlink">
<g id="graph0" class="graph" transform="scale(1 1) rotate(0) translate(4 203)">
<title>libbsn/src/goalmodel/Goal.cpp</title>
<polygon fill="#ffffff" stroke="transparent" points="-4,4 -4,-203 255,-203 255,4 -4,4"/>
<!-- Node1 -->
<g id="node1" class="node">
<title>Node1</title>
<g id="a_node1"><a xlink:title=" ">
<polygon fill="#bfbfbf" stroke="#000000" points="46.5,-168.5 46.5,-198.5 152.5,-198.5 152.5,-168.5 46.5,-168.5"/>
<text text-anchor="start" x="54.5" y="-186.5" font-family="Helvetica,sans-Serif" font-size="10.00" fill="#000000">libbsn/src/goalmodel</text>
<text text-anchor="middle" x="99.5" y="-175.5" font-family="Helvetica,sans-Serif" font-size="10.00" fill="#000000">/Goal.cpp</text>
</a>
</g>
</g>
<!-- Node2 -->
<g id="node2" class="node">
<title>Node2</title>
<g id="a_node2"><a xlink:href="Goal_8hpp.html" target="_top" xlink:title=" ">
<polygon fill="#ffffff" stroke="#000000" points="48,-112.5 48,-131.5 151,-131.5 151,-112.5 48,-112.5"/>
<text text-anchor="middle" x="99.5" y="-119.5" font-family="Helvetica,sans-Serif" font-size="10.00" fill="#000000">goalmodel/Goal.hpp</text>
</a>
</g>
</g>
<!-- Node1&#45;&gt;Node2 -->
<g id="edge1" class="edge">
<title>Node1&#45;&gt;Node2</title>
<path fill="none" stroke="#191970" d="M99.5,-168.2977C99.5,-160.3834 99.5,-150.6043 99.5,-142.0759"/>
<polygon fill="#191970" stroke="#191970" points="103.0001,-141.8469 99.5,-131.8469 96.0001,-141.847 103.0001,-141.8469"/>
</g>
<!-- Node3 -->
<g id="node3" class="node">
<title>Node3</title>
<g id="a_node3"><a xlink:title=" ">
<polygon fill="#ffffff" stroke="#bfbfbf" points="0,-.5 0,-19.5 41,-19.5 41,-.5 0,-.5"/>
<text text-anchor="middle" x="20.5" y="-7.5" font-family="Helvetica,sans-Serif" font-size="10.00" fill="#000000">string</text>
</a>
</g>
</g>
<!-- Node2&#45;&gt;Node3 -->
<g id="edge2" class="edge">
<title>Node2&#45;&gt;Node3</title>
<path fill="none" stroke="#191970" d="M92.7645,-112.4509C79.5299,-93.688 49.952,-51.7548 33.0257,-27.758"/>
<polygon fill="#191970" stroke="#191970" points="35.8426,-25.6792 27.2184,-19.5249 30.1224,-29.714 35.8426,-25.6792"/>
</g>
<!-- Node4 -->
<g id="node4" class="node">
<title>Node4</title>
<g id="a_node4"><a xlink:title=" ">
<polygon fill="#ffffff" stroke="#bfbfbf" points="59.5,-.5 59.5,-19.5 103.5,-19.5 103.5,-.5 59.5,-.5"/>
<text text-anchor="middle" x="81.5" y="-7.5" font-family="Helvetica,sans-Serif" font-size="10.00" fill="#000000">vector</text>
</a>
</g>
</g>
<!-- Node2&#45;&gt;Node4 -->
<g id="edge3" class="edge">
<title>Node2&#45;&gt;Node4</title>
<path fill="none" stroke="#191970" d="M93.5235,-112.2032C88.3888,-103.1737 81.3729,-89.2108 78.5,-76 75.1486,-60.5887 76.2628,-42.6924 78.0124,-29.4265"/>
<polygon fill="#191970" stroke="#191970" points="81.4735,-29.9467 79.5474,-19.5284 74.5562,-28.8739 81.4735,-29.9467"/>
</g>
<!-- Node5 -->
<g id="node5" class="node">
<title>Node5</title>
<g id="a_node5"><a xlink:title=" ">
<polygon fill="#ffffff" stroke="#bfbfbf" points="192,-.5 192,-19.5 251,-19.5 251,-.5 192,-.5"/>
<text text-anchor="middle" x="221.5" y="-7.5" font-family="Helvetica,sans-Serif" font-size="10.00" fill="#000000">stdexcept</text>
</a>
</g>
</g>
<!-- Node2&#45;&gt;Node5 -->
<g id="edge4" class="edge">
<title>Node2&#45;&gt;Node5</title>
<path fill="none" stroke="#191970" d="M140.9631,-112.4581C162.104,-105.602 186.6331,-94.2546 202.5,-76 213.61,-63.2182 218.2406,-44.3036 220.1616,-29.9957"/>
<polygon fill="#191970" stroke="#191970" points="223.6773,-30.0134 221.1934,-19.7139 216.7123,-29.3144 223.6773,-30.0134"/>
</g>
<!-- Node6 -->
<g id="node6" class="node">
<title>Node6</title>
<g id="a_node6"><a xlink:href="Node_8hpp.html" target="_top" xlink:title=" ">
<polygon fill="#ffffff" stroke="#000000" points="87.5,-56.5 87.5,-75.5 193.5,-75.5 193.5,-56.5 87.5,-56.5"/>
<text text-anchor="middle" x="140.5" y="-63.5" font-family="Helvetica,sans-Serif" font-size="10.00" fill="#000000">goalmodel/Node.hpp</text>
</a>
</g>
</g>
<!-- Node2&#45;&gt;Node6 -->
<g id="edge5" class="edge">
<title>Node2&#45;&gt;Node6</title>
<path fill="none" stroke="#191970" d="M106.6417,-112.2455C112.3444,-104.4564 120.49,-93.3308 127.3625,-83.9439"/>
<polygon fill="#191970" stroke="#191970" points="130.3568,-85.7789 133.4402,-75.6427 124.7087,-81.6437 130.3568,-85.7789"/>
</g>
<!-- Node6&#45;&gt;Node3 -->
<g id="edge6" class="edge">
<title>Node6&#45;&gt;Node3</title>
<path fill="none" stroke="#191970" d="M119.8713,-56.3733C100.6081,-47.3838 71.6514,-33.8706 49.9581,-23.7471"/>
<polygon fill="#191970" stroke="#191970" points="51.4015,-20.5584 40.8595,-19.5011 48.4413,-26.9017 51.4015,-20.5584"/>
</g>
<!-- Node6&#45;&gt;Node4 -->
<g id="edge7" class="edge">
<title>Node6&#45;&gt;Node4</title>
<path fill="none" stroke="#191970" d="M130.223,-56.2455C121.6782,-48.1352 109.3222,-36.4075 99.1915,-26.7919"/>
<polygon fill="#191970" stroke="#191970" points="101.3218,-23.9884 91.6592,-19.6427 96.5028,-29.0655 101.3218,-23.9884"/>
</g>
<!-- Node6&#45;&gt;Node5 -->
<g id="edge8" class="edge">
<title>Node6&#45;&gt;Node5</title>
<path fill="none" stroke="#191970" d="M154.6091,-56.2455C166.9209,-47.7337 184.9958,-35.2375 199.2538,-25.3801"/>
<polygon fill="#191970" stroke="#191970" points="201.3174,-28.2085 207.5526,-19.6427 197.3366,-22.4506 201.3174,-28.2085"/>
</g>
<!-- Node7 -->
<g id="node7" class="node">
<title>Node7</title>
<g id="a_node7"><a xlink:title=" ">
<polygon fill="#ffffff" stroke="#bfbfbf" points="121.5,-.5 121.5,-19.5 173.5,-19.5 173.5,-.5 121.5,-.5"/>
<text text-anchor="middle" x="147.5" y="-7.5" font-family="Helvetica,sans-Serif" font-size="10.00" fill="#000000">memory</text>
</a>
</g>
</g>
<!-- Node6&#45;&gt;Node7 -->
<g id="edge9" class="edge">
<title>Node6&#45;&gt;Node7</title>
<path fill="none" stroke="#191970" d="M141.7193,-56.2455C142.6327,-48.9382 143.9132,-38.6944 145.0369,-29.7046"/>
<polygon fill="#191970" stroke="#191970" points="148.5272,-29.9996 146.2947,-19.6427 141.5813,-29.1313 148.5272,-29.9996"/>
</g>
</g>
</svg>
