<?xml version="1.0" encoding="UTF-8" standalone="no"?>
<!DOCTYPE svg PUBLIC "-//W3C//DTD SVG 1.1//EN"
 "http://www.w3.org/Graphics/SVG/1.1/DTD/svg11.dtd">
<!-- Generated by graphviz version 2.40.1 (20161225.0304)
 -->
<!-- Title: libbsn/include/goalmodel/GoalTree.hpp Pages: 1 -->
<svg width="813pt" height="319pt"
 viewBox="0.00 0.00 812.79 319.00" xmlns="http://www.w3.org/2000/svg" xmlns:xlink="http://www.w3.org/1999/xlink">
<g id="graph0" class="graph" transform="scale(1 1) rotate(0) translate(4 315)">
<title>libbsn/include/goalmodel/GoalTree.hpp</title>
<polygon fill="#ffffff" stroke="transparent" points="-4,4 -4,-315 808.7931,-315 808.7931,4 -4,4"/>
<!-- Node1 -->
<g id="node1" class="node">
<title>Node1</title>
<g id="a_node1"><a xlink:title=" ">
<polygon fill="#bfbfbf" stroke="#000000" points="183.2931,-280.5 183.2931,-310.5 306.2931,-310.5 306.2931,-280.5 183.2931,-280.5"/>
<text text-anchor="start" x="191.2931" y="-298.5" font-family="Helvetica,sans-Serif" font-size="10.00" fill="#000000">libbsn/include/goalmodel</text>
<text text-anchor="middle" x="244.7931" y="-287.5" font-family="Helvetica,sans-Serif" font-size="10.00" fill="#000000">/GoalTree.hpp</text>
</a>
</g>
</g>
<!-- Node2 -->
<g id="node2" class="node">
<title>Node2</title>
<g id="a_node2"><a xlink:title=" ">
<polygon fill="#ffffff" stroke="#bfbfbf" points="570.2931,-.5 570.2931,-19.5 611.2931,-19.5 611.2931,-.5 570.2931,-.5"/>
<text text-anchor="middle" x="590.7931" y="-7.5" font-family="Helvetica,sans-Serif" font-size="10.00" fill="#000000">string</text>
</a>
</g>
</g>
<!-- Node1&#45;&gt;Node2 -->
<g id="edge1" class="edge">
<title>Node1&#45;&gt;Node2</title>
<path fill="none" stroke="#191970" d="M306.4458,-291.2237C410.3726,-283.5254 615.8448,-266.0617 684.7931,-244 742.7655,-225.4503 804.7931,-238.8678 804.7931,-178 804.7931,-178 804.7931,-178 804.7931,-122 804.7931,-40.2838 680.7911,-18.0766 621.5715,-12.1304"/>
<polygon fill="#191970" stroke="#191970" points="621.588,-8.6176 611.3123,-11.1987 620.9548,-15.5889 621.588,-8.6176"/>
</g>
<!-- Node3 -->
<g id="node3" class="node">
<title>Node3</title>
<g id="a_node3"><a xlink:title=" ">
<polygon fill="#ffffff" stroke="#bfbfbf" points="29.2931,-224.5 29.2931,-243.5 64.2931,-243.5 64.2931,-224.5 29.2931,-224.5"/>
<text text-anchor="middle" x="46.7931" y="-231.5" font-family="Helvetica,sans-Serif" font-size="10.00" fill="#000000">map</text>
</a>
</g>
</g>
<!-- Node1&#45;&gt;Node3 -->
<g id="edge2" class="edge">
<title>Node1&#45;&gt;Node3</title>
<path fill="none" stroke="#191970" d="M196.1186,-280.4281C163.029,-270.1749 118.2631,-256.2898 78.7931,-244 77.3343,-243.5458 75.8382,-243.0796 74.3278,-242.6086"/>
<polygon fill="#191970" stroke="#191970" points="74.985,-239.1472 64.3963,-239.5081 72.899,-245.8292 74.985,-239.1472"/>
</g>
<!-- Node4 -->
<g id="node4" class="node">
<title>Node4</title>
<g id="a_node4"><a xlink:title=" ">
<polygon fill="#ffffff" stroke="#bfbfbf" points="173.2931,-.5 173.2931,-19.5 232.2931,-19.5 232.2931,-.5 173.2931,-.5"/>
<text text-anchor="middle" x="202.7931" y="-7.5" font-family="Helvetica,sans-Serif" font-size="10.00" fill="#000000">stdexcept</text>
</a>
</g>
</g>
<!-- Node1&#45;&gt;Node4 -->
<g id="edge3" class="edge">
<title>Node1&#45;&gt;Node4</title>
<path fill="none" stroke="#191970" d="M225.4792,-280.1257C214.7912,-270.7093 202.0412,-257.8343 193.7931,-244 180.4732,-221.6589 180.7271,-213.7112 176.7931,-188 167.9197,-130.0066 160.4054,-112.6144 175.7931,-56 178.5107,-46.0015 184.0106,-35.9556 189.3415,-27.8139"/>
<polygon fill="#191970" stroke="#191970" points="192.2686,-29.7354 195.1312,-19.5346 186.5321,-25.7239 192.2686,-29.7354"/>
</g>
<!-- Node5 -->
<g id="node5" class="node">
<title>Node5</title>
<g id="a_node5"><a xlink:title=" ">
<polygon fill="#ffffff" stroke="#bfbfbf" points="378.7931,-.5 378.7931,-19.5 422.7931,-19.5 422.7931,-.5 378.7931,-.5"/>
<text text-anchor="middle" x="400.7931" y="-7.5" font-family="Helvetica,sans-Serif" font-size="10.00" fill="#000000">vector</text>
</a>
</g>
</g>
<!-- Node1&#45;&gt;Node5 -->
<g id="edge4" class="edge">
<title>Node1&#45;&gt;Node5</title>
<path fill="none" stroke="#191970" d="M306.3982,-281.6793C386.086,-261.9833 514.7931,-223.1785 514.7931,-178 514.7931,-178 514.7931,-178 514.7931,-122 514.7931,-75.4628 465.8548,-41.828 432.1067,-24.1659"/>
<polygon fill="#191970" stroke="#191970" points="433.5508,-20.9746 423.0441,-19.6105 430.4069,-27.2289 433.5508,-20.9746"/>
</g>
<!-- Node6 -->
<g id="node6" class="node">
<title>Node6</title>
<g id="a_node6"><a xlink:title=" ">
<polygon fill="#ffffff" stroke="#bfbfbf" points="60.7931,-.5 60.7931,-19.5 112.7931,-19.5 112.7931,-.5 60.7931,-.5"/>
<text text-anchor="middle" x="86.7931" y="-7.5" font-family="Helvetica,sans-Serif" font-size="10.00" fill="#000000">memory</text>
</a>
</g>
</g>
<!-- Node1&#45;&gt;Node6 -->
<g id="edge5" class="edge">
<title>Node1&#45;&gt;Node6</title>
<path fill="none" stroke="#191970" d="M183.1523,-288.4635C124.8923,-280.5965 43.0432,-265.9989 19.7931,-244 -2.3794,-223.0207 .7931,-208.5246 .7931,-178 .7931,-178 .7931,-178 .7931,-122 .7931,-80.5919 38.2309,-45.0689 63.7043,-25.6911"/>
<polygon fill="#191970" stroke="#191970" points="65.8128,-28.4852 71.8131,-19.7532 61.6771,-22.8375 65.8128,-28.4852"/>
</g>
<!-- Node7 -->
<g id="node7" class="node">
<title>Node7</title>
<g id="a_node7"><a xlink:href="Node_8hpp.html" target="_top" xlink:title=" ">
<polygon fill="#ffffff" stroke="#000000" points="190.7931,-56.5 190.7931,-75.5 296.7931,-75.5 296.7931,-56.5 190.7931,-56.5"/>
<text text-anchor="middle" x="243.7931" y="-63.5" font-family="Helvetica,sans-Serif" font-size="10.00" fill="#000000">goalmodel/Node.hpp</text>
</a>
</g>
</g>
<!-- Node1&#45;&gt;Node7 -->
<g id="edge6" class="edge">
<title>Node1&#45;&gt;Node7</title>
<path fill="none" stroke="#191970" d="M232.7022,-280.2462C217.7941,-260.3681 193.2675,-223.8939 183.7931,-188 173.2315,-147.9869 205.28,-105.5572 226.5273,-82.7893"/>
<polygon fill="#191970" stroke="#191970" points="229.0569,-85.2082 233.5047,-75.5922 224.0311,-80.3358 229.0569,-85.2082"/>
</g>
<!-- Node8 -->
<g id="node8" class="node">
<title>Node8</title>
<g id="a_node8"><a xlink:href="Goal_8hpp.html" target="_top" xlink:title=" ">
<polygon fill="#ffffff" stroke="#000000" points="273.2931,-112.5 273.2931,-131.5 376.2931,-131.5 376.2931,-112.5 273.2931,-112.5"/>
<text text-anchor="middle" x="324.7931" y="-119.5" font-family="Helvetica,sans-Serif" font-size="10.00" fill="#000000">goalmodel/Goal.hpp</text>
</a>
</g>
</g>
<!-- Node1&#45;&gt;Node8 -->
<g id="edge11" class="edge">
<title>Node1&#45;&gt;Node8</title>
<path fill="none" stroke="#191970" d="M254.8758,-280.42C268.0728,-260.139 291.2312,-222.6141 305.7931,-188 312.1507,-172.8878 317.1601,-154.9693 320.4355,-141.6187"/>
<polygon fill="#191970" stroke="#191970" points="323.8998,-142.175 322.7705,-131.6405 317.0839,-140.58 323.8998,-142.175"/>
</g>
<!-- Node9 -->
<g id="node9" class="node">
<title>Node9</title>
<g id="a_node9"><a xlink:href="Task_8hpp.html" target="_top" xlink:title=" ">
<polygon fill="#ffffff" stroke="#000000" points="192.7931,-168.5 192.7931,-187.5 296.7931,-187.5 296.7931,-168.5 192.7931,-168.5"/>
<text text-anchor="middle" x="244.7931" y="-175.5" font-family="Helvetica,sans-Serif" font-size="10.00" fill="#000000">goalmodel/Task.hpp</text>
</a>
</g>
</g>
<!-- Node1&#45;&gt;Node9 -->
<g id="edge16" class="edge">
<title>Node1&#45;&gt;Node9</title>
<path fill="none" stroke="#191970" d="M244.7931,-280.1389C244.7931,-258.9692 244.7931,-220.8174 244.7931,-197.6112"/>
<polygon fill="#191970" stroke="#191970" points="248.2932,-197.5594 244.7931,-187.5595 241.2932,-197.5595 248.2932,-197.5594"/>
</g>
<!-- Node10 -->
<g id="node10" class="node">
<title>Node10</title>
<g id="a_node10"><a xlink:href="LeafTask_8hpp.html" target="_top" xlink:title=" ">
<polygon fill="#ffffff" stroke="#000000" points="552.2931,-224.5 552.2931,-243.5 675.2931,-243.5 675.2931,-224.5 552.2931,-224.5"/>
<text text-anchor="middle" x="613.7931" y="-231.5" font-family="Helvetica,sans-Serif" font-size="10.00" fill="#000000">goalmodel/LeafTask.hpp</text>
</a>
</g>
</g>
<!-- Node1&#45;&gt;Node10 -->
<g id="edge23" class="edge">
<title>Node1&#45;&gt;Node10</title>
<path fill="none" stroke="#191970" d="M306.5554,-285.2063C372.906,-274.1479 478.0149,-256.6297 546.4481,-245.2242"/>
<polygon fill="#191970" stroke="#191970" points="547.3985,-248.6141 556.687,-243.5177 546.2476,-241.7094 547.3985,-248.6141"/>
</g>
<!-- Node7&#45;&gt;Node2 -->
<g id="edge7" class="edge">
<title>Node7&#45;&gt;Node2</title>
<path fill="none" stroke="#191970" d="M296.8727,-57.4338C370.3305,-45.579 500.6167,-24.553 559.8906,-14.9871"/>
<polygon fill="#191970" stroke="#191970" points="560.7877,-18.3878 570.1023,-13.3392 559.6723,-11.4772 560.7877,-18.3878"/>
</g>
<!-- Node7&#45;&gt;Node4 -->
<g id="edge9" class="edge">
<title>Node7&#45;&gt;Node4</title>
<path fill="none" stroke="#191970" d="M236.6515,-56.2455C230.9487,-48.4564 222.8032,-37.3308 215.9307,-27.9439"/>
<polygon fill="#191970" stroke="#191970" points="218.5844,-25.6437 209.8529,-19.6427 212.9363,-29.7789 218.5844,-25.6437"/>
</g>
<!-- Node7&#45;&gt;Node5 -->
<g id="edge8" class="edge">
<title>Node7&#45;&gt;Node5</title>
<path fill="none" stroke="#191970" d="M270.7824,-56.3733C298.0747,-46.6384 340.2401,-31.5985 369.1037,-21.3032"/>
<polygon fill="#191970" stroke="#191970" points="370.4693,-24.5322 378.7122,-17.876 368.1176,-17.939 370.4693,-24.5322"/>
</g>
<!-- Node7&#45;&gt;Node6 -->
<g id="edge10" class="edge">
<title>Node7&#45;&gt;Node6</title>
<path fill="none" stroke="#191970" d="M216.8039,-56.3733C190.7663,-47.086 151.192,-32.9703 122.5454,-22.7524"/>
<polygon fill="#191970" stroke="#191970" points="123.5032,-19.3781 112.9085,-19.315 121.1514,-25.9712 123.5032,-19.3781"/>
</g>
<!-- Node8&#45;&gt;Node2 -->
<g id="edge12" class="edge">
<title>Node8&#45;&gt;Node2</title>
<path fill="none" stroke="#191970" d="M343.2709,-112.4254C369.4936,-99.008 419.1712,-74.2149 462.7931,-56 495.688,-42.2644 534.2974,-28.7325 560.443,-19.9404"/>
<polygon fill="#191970" stroke="#191970" points="561.7755,-23.1855 570.1536,-16.7003 559.5599,-16.5454 561.7755,-23.1855"/>
</g>
<!-- Node8&#45;&gt;Node4 -->
<g id="edge14" class="edge">
<title>Node8&#45;&gt;Node4</title>
<path fill="none" stroke="#191970" d="M324.4865,-112.2861C323.5464,-98.2474 319.8731,-72.1987 305.7931,-56 289.4891,-37.2425 264.039,-25.7781 242.5169,-18.9854"/>
<polygon fill="#191970" stroke="#191970" points="243.2193,-15.5444 232.639,-16.0993 241.256,-22.2634 243.2193,-15.5444"/>
</g>
<!-- Node8&#45;&gt;Node5 -->
<g id="edge13" class="edge">
<title>Node8&#45;&gt;Node5</title>
<path fill="none" stroke="#191970" d="M331.2728,-112.4509C343.9487,-93.7707 372.2091,-52.1238 388.5272,-28.0761"/>
<polygon fill="#191970" stroke="#191970" points="391.6109,-29.7649 394.3298,-19.5249 385.8186,-25.8344 391.6109,-29.7649"/>
</g>
<!-- Node8&#45;&gt;Node7 -->
<g id="edge15" class="edge">
<title>Node8&#45;&gt;Node7</title>
<path fill="none" stroke="#191970" d="M310.684,-112.2455C298.3723,-103.7337 280.2973,-91.2375 266.0393,-81.3801"/>
<polygon fill="#191970" stroke="#191970" points="267.9566,-78.4506 257.7406,-75.6427 263.9758,-84.2085 267.9566,-78.4506"/>
</g>
<!-- Node9&#45;&gt;Node2 -->
<g id="edge17" class="edge">
<title>Node9&#45;&gt;Node2</title>
<path fill="none" stroke="#191970" d="M291.6252,-168.4577C324.2467,-160.8779 368.2792,-148.7565 404.7931,-132 469.8768,-102.1327 538.2627,-51.5246 571.0201,-25.8925"/>
<polygon fill="#191970" stroke="#191970" points="573.2428,-28.597 578.9205,-19.6519 568.9038,-23.1039 573.2428,-28.597"/>
</g>
<!-- Node9&#45;&gt;Node4 -->
<g id="edge19" class="edge">
<title>Node9&#45;&gt;Node4</title>
<path fill="none" stroke="#191970" d="M236.3139,-168.4733C221.7559,-151.4041 192.5376,-113.8423 181.7931,-76 177.2393,-59.9614 183.779,-41.935 190.731,-28.7791"/>
<polygon fill="#191970" stroke="#191970" points="193.96,-30.1879 195.9507,-19.7817 187.9051,-26.6752 193.96,-30.1879"/>
</g>
<!-- Node9&#45;&gt;Node5 -->
<g id="edge18" class="edge">
<title>Node9&#45;&gt;Node5</title>
<path fill="none" stroke="#191970" d="M291.3449,-168.4548C327.5268,-160.0501 373.558,-146.858 385.7931,-132 409.7701,-102.8831 407.7886,-55.816 404.264,-29.4652"/>
<polygon fill="#191970" stroke="#191970" points="407.7183,-28.9002 402.7302,-19.5531 400.8007,-29.9707 407.7183,-28.9002"/>
</g>
<!-- Node9&#45;&gt;Node6 -->
<g id="edge21" class="edge">
<title>Node9&#45;&gt;Node6</title>
<path fill="none" stroke="#191970" d="M232.8291,-168.1902C222.0232,-159.152 205.8597,-145.1836 192.7931,-132 157.7863,-96.6797 120.4446,-51.7897 100.7802,-27.5099"/>
<polygon fill="#191970" stroke="#191970" points="103.3705,-25.1462 94.3722,-19.5532 97.9186,-29.5369 103.3705,-25.1462"/>
</g>
<!-- Node9&#45;&gt;Node7 -->
<g id="edge20" class="edge">
<title>Node9&#45;&gt;Node7</title>
<path fill="none" stroke="#191970" d="M244.7079,-168.4509C244.5448,-150.184 244.1856,-109.9553 243.969,-85.6976"/>
<polygon fill="#191970" stroke="#191970" points="247.4674,-85.4932 243.8782,-75.5249 240.4677,-85.5558 247.4674,-85.4932"/>
</g>
<!-- Node9&#45;&gt;Node8 -->
<g id="edge22" class="edge">
<title>Node9&#45;&gt;Node8</title>
<path fill="none" stroke="#191970" d="M258.7281,-168.2455C270.8878,-159.7337 288.7396,-147.2375 302.8216,-137.3801"/>
<polygon fill="#191970" stroke="#191970" points="304.8327,-140.2447 311.0179,-131.6427 300.8184,-134.51 304.8327,-140.2447"/>
</g>
<!-- Node10&#45;&gt;Node2 -->
<g id="edge24" class="edge">
<title>Node10&#45;&gt;Node2</title>
<path fill="none" stroke="#191970" d="M636.8047,-224.4421C653.6139,-216.577 676.1146,-204.1119 691.7931,-188 736.2371,-142.3276 785.9986,-107.0056 747.7931,-56 732.638,-35.7674 662.6512,-21.4312 621.4125,-14.5736"/>
<polygon fill="#191970" stroke="#191970" points="621.781,-11.088 611.3518,-12.9539 620.6683,-17.999 621.781,-11.088"/>
</g>
<!-- Node10&#45;&gt;Node5 -->
<g id="edge25" class="edge">
<title>Node10&#45;&gt;Node5</title>
<path fill="none" stroke="#191970" d="M609.6456,-224.2258C594.5414,-188.7944 542.6367,-68.5177 528.7931,-56 501.9246,-31.7048 461.2954,-20.0089 433.0448,-14.5364"/>
<polygon fill="#191970" stroke="#191970" points="433.3361,-11.0334 422.8781,-12.7304 432.1117,-17.9255 433.3361,-11.0334"/>
</g>
<!-- Node10&#45;&gt;Node9 -->
<g id="edge30" class="edge">
<title>Node10&#45;&gt;Node9</title>
<path fill="none" stroke="#191970" d="M552.0308,-224.6269C484.0215,-214.3057 375.2917,-197.8047 307.0756,-187.4521"/>
<polygon fill="#191970" stroke="#191970" points="307.3133,-183.9482 296.9013,-185.908 306.2629,-190.8689 307.3133,-183.9482"/>
</g>
<!-- Node11 -->
<g id="node11" class="node">
<title>Node11</title>
<g id="a_node11"><a xlink:href="Context_8hpp.html" target="_top" xlink:title=" ">
<polygon fill="#ffffff" stroke="#000000" points="581.2931,-112.5 581.2931,-131.5 698.2931,-131.5 698.2931,-112.5 581.2931,-112.5"/>
<text text-anchor="middle" x="639.7931" y="-119.5" font-family="Helvetica,sans-Serif" font-size="10.00" fill="#000000">goalmodel/Context.hpp</text>
</a>
</g>
</g>
<!-- Node10&#45;&gt;Node11 -->
<g id="edge26" class="edge">
<title>Node10&#45;&gt;Node11</title>
<path fill="none" stroke="#191970" d="M616.0099,-224.4509C620.2696,-206.1013 629.6738,-165.5908 635.2967,-141.3693"/>
<polygon fill="#191970" stroke="#191970" points="638.73,-142.0573 637.582,-131.5249 631.9113,-140.4744 638.73,-142.0573"/>
</g>
<!-- Node12 -->
<g id="node12" class="node">
<title>Node12</title>
<g id="a_node12"><a xlink:href="Property_8hpp.html" target="_top" xlink:title=" ">
<polygon fill="#ffffff" stroke="#000000" points="619.2931,-56.5 619.2931,-75.5 738.2931,-75.5 738.2931,-56.5 619.2931,-56.5"/>
<text text-anchor="middle" x="678.7931" y="-63.5" font-family="Helvetica,sans-Serif" font-size="10.00" fill="#000000">goalmodel/Property.hpp</text>
</a>
</g>
</g>
<!-- Node10&#45;&gt;Node12 -->
<g id="edge28" class="edge">
<title>Node10&#45;&gt;Node12</title>
<path fill="none" stroke="#191970" d="M627.7342,-224.3907C649.7142,-208.2863 691.5874,-173.4984 707.7931,-132 714.2914,-115.3597 704.5282,-96.7578 694.6167,-83.5548"/>
<polygon fill="#191970" stroke="#191970" points="697.2782,-81.2801 688.2515,-75.7329 691.8487,-85.6984 697.2782,-81.2801"/>
</g>
<!-- Node11&#45;&gt;Node2 -->
<g id="edge27" class="edge">
<title>Node11&#45;&gt;Node2</title>
<path fill="none" stroke="#191970" d="M632.5265,-112.2099C626.1,-103.185 616.8323,-89.225 610.7931,-76 603.9548,-61.0248 598.6926,-43.0961 595.2862,-29.7068"/>
<polygon fill="#191970" stroke="#191970" points="598.6173,-28.5907 592.8674,-19.6919 591.813,-30.2341 598.6173,-28.5907"/>
</g>
<!-- Node12&#45;&gt;Node2 -->
<g id="edge29" class="edge">
<title>Node12&#45;&gt;Node2</title>
<path fill="none" stroke="#191970" d="M663.4647,-56.2455C649.9628,-47.6534 630.081,-35.0014 614.5245,-25.1018"/>
<polygon fill="#191970" stroke="#191970" points="616.2616,-22.0587 605.9459,-19.6427 612.5035,-27.9643 616.2616,-22.0587"/>
</g>
</g>
</svg>
