<?xml version="1.0" encoding="UTF-8" standalone="no"?>
<!DOCTYPE svg PUBLIC "-//W3C//DTD SVG 1.1//EN"
 "http://www.w3.org/Graphics/SVG/1.1/DTD/svg11.dtd">
<!-- Generated by graphviz version 2.40.1 (20161225.0304)
 -->
<!-- Title: TEST_F Pages: 1 -->
<svg width="209pt" height="88pt"
 viewBox="0.00 0.00 209.00 88.00" xmlns="http://www.w3.org/2000/svg" xmlns:xlink="http://www.w3.org/1999/xlink">
<g id="graph0" class="graph" transform="scale(1 1) rotate(0) translate(4 84)">
<title>TEST_F</title>
<polygon fill="#ffffff" stroke="transparent" points="-4,4 -4,-84 205,-84 205,4 -4,4"/>
<!-- Node1 -->
<g id="node1" class="node">
<title>Node1</title>
<g id="a_node1"><a xlink:title=" ">
<polygon fill="#bfbfbf" stroke="#000000" points="0,-30 0,-49 53,-49 53,-30 0,-30"/>
<text text-anchor="middle" x="26.5" y="-37" font-family="Helvetica,sans-Serif" font-size="10.00" fill="#000000">TEST_F</text>
</a>
</g>
</g>
<!-- Node2 -->
<g id="node2" class="node">
<title>Node2</title>
<g id="a_node2"><a xlink:href="classbsn_1_1goalmodel_1_1Node.html#a331301404b90ce9d959957a36fa93f0d" target="_top" xlink:title=" ">
<polygon fill="#ffffff" stroke="#000000" points="89,-49.5 89,-79.5 201,-79.5 201,-49.5 89,-49.5"/>
<text text-anchor="start" x="97" y="-67.5" font-family="Helvetica,sans-Serif" font-size="10.00" fill="#000000">bsn::goalmodel::Node</text>
<text text-anchor="middle" x="145" y="-56.5" font-family="Helvetica,sans-Serif" font-size="10.00" fill="#000000">::addChild</text>
</a>
</g>
</g>
<!-- Node1&#45;&gt;Node2 -->
<g id="edge1" class="edge">
<title>Node1&#45;&gt;Node2</title>
<path fill="none" stroke="#191970" d="M53.0937,-45.1105C60.9112,-46.7597 69.8317,-48.6417 78.9702,-50.5697"/>
<polygon fill="#191970" stroke="#191970" points="78.423,-54.0312 88.9301,-52.6709 79.868,-47.1819 78.423,-54.0312"/>
</g>
<!-- Node3 -->
<g id="node3" class="node">
<title>Node3</title>
<g id="a_node3"><a xlink:href="classbsn_1_1goalmodel_1_1Node.html#a435fcf16a48c8fee6adb729f550558db" target="_top" xlink:title=" ">
<polygon fill="#ffffff" stroke="#000000" points="89,-.5 89,-30.5 201,-30.5 201,-.5 89,-.5"/>
<text text-anchor="start" x="97" y="-18.5" font-family="Helvetica,sans-Serif" font-size="10.00" fill="#000000">bsn::goalmodel::Node</text>
<text text-anchor="middle" x="145" y="-7.5" font-family="Helvetica,sans-Serif" font-size="10.00" fill="#000000">::getChild</text>
</a>
</g>
</g>
<!-- Node1&#45;&gt;Node3 -->
<g id="edge2" class="edge">
<title>Node1&#45;&gt;Node3</title>
<path fill="none" stroke="#191970" d="M53.0937,-34.1139C60.9112,-32.5306 69.8317,-30.724 78.9702,-28.8731"/>
<polygon fill="#191970" stroke="#191970" points="79.8239,-32.2714 88.9301,-26.8559 78.4343,-25.4107 79.8239,-32.2714"/>
</g>
</g>
</svg>
