<?xml version="1.0" encoding="UTF-8" standalone="no"?>
<!DOCTYPE svg PUBLIC "-//W3C//DTD SVG 1.1//EN"
 "http://www.w3.org/Graphics/SVG/1.1/DTD/svg11.dtd">
<!-- Generated by graphviz version 2.40.1 (20161225.0304)
 -->
<!-- Title: Graphical Class Hierarchy Pages: 1 -->
<svg width="180pt" height="522pt"
 viewBox="0.00 0.00 180.00 522.00" xmlns="http://www.w3.org/2000/svg" xmlns:xlink="http://www.w3.org/1999/xlink">
<g id="graph0" class="graph" transform="scale(1 1) rotate(0) translate(4 518)">
<title>Graphical Class Hierarchy</title>
<polygon fill="#ffffff" stroke="transparent" points="-4,4 -4,-518 176,-518 176,4 -4,4"/>
<!-- Node3 -->
<g id="node1" class="node">
<title>Node3</title>
<g id="a_node1"><a xlink:title=" ">
<polygon fill="#ffffff" stroke="#bfbfbf" points="0,-247.5 0,-266.5 36,-266.5 36,-247.5 0,-247.5"/>
<text text-anchor="middle" x="18" y="-254.5" font-family="Helvetica,sans-Serif" font-size="10.00" fill="#000000">Test</text>
</a>
</g>
</g>
<!-- Node0 -->
<g id="node2" class="node">
<title>Node0</title>
<g id="a_node2"><a xlink:href="classConfigurationTest.html" target="_top" xlink:title=" ">
<polygon fill="#ffffff" stroke="#000000" points="75,-494.5 75,-513.5 169,-513.5 169,-494.5 75,-494.5"/>
<text text-anchor="middle" x="122" y="-501.5" font-family="Helvetica,sans-Serif" font-size="10.00" fill="#000000">ConfigurationTest</text>
</a>
</g>
</g>
<!-- Node3&#45;&gt;Node0 -->
<g id="edge1" class="edge">
<title>Node3&#45;&gt;Node0</title>
<path fill="none" stroke="#191970" d="M20.2991,-276.7881C26.4117,-326.2698 44.4996,-453.6516 72,-485 75.4294,-488.9092 79.751,-492.0173 84.4103,-494.4878"/>
<polygon fill="#191970" stroke="#191970" points="23.758,-276.2361 19.0899,-266.7252 16.808,-277.0714 23.758,-276.2361"/>
</g>
<!-- Node5 -->
<g id="node3" class="node">
<title>Node5</title>
<g id="a_node3"><a xlink:href="classContextTest.html" target="_top" xlink:title=" ">
<polygon fill="#ffffff" stroke="#000000" points="86.5,-456.5 86.5,-475.5 157.5,-475.5 157.5,-456.5 86.5,-456.5"/>
<text text-anchor="middle" x="122" y="-463.5" font-family="Helvetica,sans-Serif" font-size="10.00" fill="#000000">ContextTest</text>
</a>
</g>
</g>
<!-- Node3&#45;&gt;Node5 -->
<g id="edge2" class="edge">
<title>Node3&#45;&gt;Node5</title>
<path fill="none" stroke="#191970" d="M21.3369,-276.9154C28.9746,-320.3604 48.863,-421.7765 72,-447 75.9546,-451.3112 80.9909,-454.6512 86.337,-457.2369"/>
<polygon fill="#191970" stroke="#191970" points="24.7719,-276.2379 19.6268,-266.9763 17.8732,-277.425 24.7719,-276.2379"/>
</g>
<!-- Node6 -->
<g id="node4" class="node">
<title>Node6</title>
<g id="a_node4"><a xlink:href="classDataGeneratorTest.html" target="_top" xlink:title=" ">
<polygon fill="#ffffff" stroke="#000000" points="72,-418.5 72,-437.5 172,-437.5 172,-418.5 72,-418.5"/>
<text text-anchor="middle" x="122" y="-425.5" font-family="Helvetica,sans-Serif" font-size="10.00" fill="#000000">DataGeneratorTest</text>
</a>
</g>
</g>
<!-- Node3&#45;&gt;Node6 -->
<g id="edge3" class="edge">
<title>Node3&#45;&gt;Node6</title>
<path fill="none" stroke="#191970" d="M19.7801,-276.915C23.6689,-308.9099 35.7181,-371.9187 72,-409 75.7667,-412.8497 80.3932,-415.9303 85.2965,-418.3927"/>
<polygon fill="#191970" stroke="#191970" points="23.2249,-276.2098 18.6869,-266.6361 16.2642,-276.9503 23.2249,-276.2098"/>
</g>
<!-- Node7 -->
<g id="node5" class="node">
<title>Node7</title>
<g id="a_node5"><a xlink:href="classFiltersTest.html" target="_top" xlink:title=" ">
<polygon fill="#ffffff" stroke="#000000" points="90.5,-380.5 90.5,-399.5 153.5,-399.5 153.5,-380.5 90.5,-380.5"/>
<text text-anchor="middle" x="122" y="-387.5" font-family="Helvetica,sans-Serif" font-size="10.00" fill="#000000">FiltersTest</text>
</a>
</g>
</g>
<!-- Node3&#45;&gt;Node7 -->
<g id="edge4" class="edge">
<title>Node3&#45;&gt;Node7</title>
<path fill="none" stroke="#191970" d="M22.4312,-276.5429C29.0844,-301.6614 43.9741,-345.111 72,-371 77.1841,-375.7888 83.6969,-379.4089 90.2926,-382.132"/>
<polygon fill="#191970" stroke="#191970" points="25.7989,-275.581 20.0028,-266.7122 19.0032,-277.2597 25.7989,-275.581"/>
</g>
<!-- Node8 -->
<g id="node6" class="node">
<title>Node8</title>
<g id="a_node6"><a xlink:href="classFormulaTest.html" target="_top" xlink:title=" ">
<polygon fill="#ffffff" stroke="#000000" points="86.5,-342.5 86.5,-361.5 157.5,-361.5 157.5,-342.5 86.5,-342.5"/>
<text text-anchor="middle" x="122" y="-349.5" font-family="Helvetica,sans-Serif" font-size="10.00" fill="#000000">FormulaTest</text>
</a>
</g>
</g>
<!-- Node3&#45;&gt;Node8 -->
<g id="edge5" class="edge">
<title>Node3&#45;&gt;Node8</title>
<path fill="none" stroke="#191970" d="M27.0807,-275.5559C36.2765,-292.6113 51.9822,-317.5251 72,-333 76.9224,-336.8053 82.693,-339.9202 88.5308,-342.4454"/>
<polygon fill="#191970" stroke="#191970" points="30.131,-273.8346 22.4352,-266.5527 23.9103,-277.0444 30.131,-273.8346"/>
</g>
<!-- Node9 -->
<g id="node7" class="node">
<title>Node9</title>
<g id="a_node7"><a xlink:href="classGoalTest.html" target="_top" xlink:title=" ">
<polygon fill="#ffffff" stroke="#000000" points="94,-304.5 94,-323.5 150,-323.5 150,-304.5 94,-304.5"/>
<text text-anchor="middle" x="122" y="-311.5" font-family="Helvetica,sans-Serif" font-size="10.00" fill="#000000">GoalTest</text>
</a>
</g>
</g>
<!-- Node3&#45;&gt;Node9 -->
<g id="edge6" class="edge">
<title>Node3&#45;&gt;Node9</title>
<path fill="none" stroke="#191970" d="M37.853,-272.7735C47.7387,-280.1498 60.0974,-288.6791 72,-295 78.8892,-298.6585 86.6407,-301.9618 93.9468,-304.749"/>
<polygon fill="#191970" stroke="#191970" points="39.9452,-269.9674 29.8757,-266.6725 35.6927,-275.5277 39.9452,-269.9674"/>
</g>
<!-- Node10 -->
<g id="node8" class="node">
<title>Node10</title>
<g id="a_node8"><a xlink:href="classGoalTreeTest.html" target="_top" xlink:title=" ">
<polygon fill="#ffffff" stroke="#000000" points="84,-266.5 84,-285.5 160,-285.5 160,-266.5 84,-266.5"/>
<text text-anchor="middle" x="122" y="-273.5" font-family="Helvetica,sans-Serif" font-size="10.00" fill="#000000">GoalTreeTest</text>
</a>
</g>
</g>
<!-- Node3&#45;&gt;Node10 -->
<g id="edge7" class="edge">
<title>Node3&#45;&gt;Node10</title>
<path fill="none" stroke="#191970" d="M46.1162,-262.1366C57.7265,-264.2577 71.3662,-266.7496 83.8556,-269.0313"/>
<polygon fill="#191970" stroke="#191970" points="46.5816,-258.6638 36.1154,-260.3095 45.3236,-265.5498 46.5816,-258.6638"/>
</g>
<!-- Node11 -->
<g id="node9" class="node">
<title>Node11</title>
<g id="a_node9"><a xlink:href="classLeafTaskTest.html" target="_top" xlink:title=" ">
<polygon fill="#ffffff" stroke="#000000" points="83.5,-228.5 83.5,-247.5 160.5,-247.5 160.5,-228.5 83.5,-228.5"/>
<text text-anchor="middle" x="122" y="-235.5" font-family="Helvetica,sans-Serif" font-size="10.00" fill="#000000">LeafTaskTest</text>
</a>
</g>
</g>
<!-- Node3&#45;&gt;Node11 -->
<g id="edge8" class="edge">
<title>Node3&#45;&gt;Node11</title>
<path fill="none" stroke="#191970" d="M46.0219,-251.8806C57.5185,-249.7803 71.0172,-247.3142 83.422,-245.0479"/>
<polygon fill="#191970" stroke="#191970" points="45.3236,-248.4502 36.1154,-253.6905 46.5816,-255.3362 45.3236,-248.4502"/>
</g>
<!-- Node12 -->
<g id="node10" class="node">
<title>Node12</title>
<g id="a_node10"><a xlink:href="classNodeTest.html" target="_top" xlink:title=" ">
<polygon fill="#ffffff" stroke="#000000" points="92.5,-190.5 92.5,-209.5 151.5,-209.5 151.5,-190.5 92.5,-190.5"/>
<text text-anchor="middle" x="122" y="-197.5" font-family="Helvetica,sans-Serif" font-size="10.00" fill="#000000">NodeTest</text>
</a>
</g>
</g>
<!-- Node3&#45;&gt;Node12 -->
<g id="edge9" class="edge">
<title>Node3&#45;&gt;Node12</title>
<path fill="none" stroke="#191970" d="M37.853,-241.2265C47.7387,-233.8502 60.0974,-225.3209 72,-219 78.6432,-215.4722 86.0881,-212.2746 93.1624,-209.5516"/>
<polygon fill="#191970" stroke="#191970" points="35.6927,-238.4723 29.8757,-247.3275 39.9452,-244.0326 35.6927,-238.4723"/>
</g>
<!-- Node13 -->
<g id="node11" class="node">
<title>Node13</title>
<g id="a_node11"><a xlink:href="classProcessorTest.html" target="_top" xlink:title=" ">
<polygon fill="#ffffff" stroke="#000000" points="82,-152.5 82,-171.5 162,-171.5 162,-152.5 82,-152.5"/>
<text text-anchor="middle" x="122" y="-159.5" font-family="Helvetica,sans-Serif" font-size="10.00" fill="#000000">ProcessorTest</text>
</a>
</g>
</g>
<!-- Node3&#45;&gt;Node13 -->
<g id="edge10" class="edge">
<title>Node3&#45;&gt;Node13</title>
<path fill="none" stroke="#191970" d="M27.0807,-238.4441C36.2765,-221.3887 51.9822,-196.4749 72,-181 76.9224,-177.1947 82.693,-174.0798 88.5308,-171.5546"/>
<polygon fill="#191970" stroke="#191970" points="23.9103,-236.9556 22.4352,-247.4473 30.131,-240.1654 23.9103,-236.9556"/>
</g>
<!-- Node14 -->
<g id="node12" class="node">
<title>Node14</title>
<g id="a_node12"><a xlink:href="classPropertyTest.html" target="_top" xlink:title=" ">
<polygon fill="#ffffff" stroke="#000000" points="85.5,-114.5 85.5,-133.5 158.5,-133.5 158.5,-114.5 85.5,-114.5"/>
<text text-anchor="middle" x="122" y="-121.5" font-family="Helvetica,sans-Serif" font-size="10.00" fill="#000000">PropertyTest</text>
</a>
</g>
</g>
<!-- Node3&#45;&gt;Node14 -->
<g id="edge11" class="edge">
<title>Node3&#45;&gt;Node14</title>
<path fill="none" stroke="#191970" d="M22.4312,-237.4571C29.0844,-212.3386 43.9741,-168.889 72,-143 76.1609,-139.1563 81.1778,-136.0656 86.4065,-133.5873"/>
<polygon fill="#191970" stroke="#191970" points="19.0032,-236.7403 20.0028,-247.2878 25.7989,-238.419 19.0032,-236.7403"/>
</g>
<!-- Node15 -->
<g id="node13" class="node">
<title>Node15</title>
<g id="a_node13"><a xlink:href="classRangeTest.html" target="_top" xlink:title=" ">
<polygon fill="#ffffff" stroke="#000000" points="89.5,-76.5 89.5,-95.5 154.5,-95.5 154.5,-76.5 89.5,-76.5"/>
<text text-anchor="middle" x="122" y="-83.5" font-family="Helvetica,sans-Serif" font-size="10.00" fill="#000000">RangeTest</text>
</a>
</g>
</g>
<!-- Node3&#45;&gt;Node15 -->
<g id="edge12" class="edge">
<title>Node3&#45;&gt;Node15</title>
<path fill="none" stroke="#191970" d="M19.7801,-237.085C23.6689,-205.0901 35.7181,-142.0813 72,-105 76.8058,-100.0883 83.0112,-96.4286 89.4053,-93.7074"/>
<polygon fill="#191970" stroke="#191970" points="16.2642,-237.0497 18.6869,-247.3639 23.2249,-237.7902 16.2642,-237.0497"/>
</g>
<!-- Node16 -->
<g id="node14" class="node">
<title>Node16</title>
<g id="a_node14"><a xlink:href="classResourcesTest.html" target="_top" xlink:title=" ">
<polygon fill="#ffffff" stroke="#000000" points="80.5,-38.5 80.5,-57.5 163.5,-57.5 163.5,-38.5 80.5,-38.5"/>
<text text-anchor="middle" x="122" y="-45.5" font-family="Helvetica,sans-Serif" font-size="10.00" fill="#000000">ResourcesTest</text>
</a>
</g>
</g>
<!-- Node3&#45;&gt;Node16 -->
<g id="edge13" class="edge">
<title>Node3&#45;&gt;Node16</title>
<path fill="none" stroke="#191970" d="M21.3369,-237.0846C28.9746,-193.6396 48.863,-92.2235 72,-67 75.578,-63.0993 80.0414,-59.9938 84.8187,-57.5226"/>
<polygon fill="#191970" stroke="#191970" points="17.8732,-236.575 19.6268,-247.0237 24.7719,-237.7621 17.8732,-236.575"/>
</g>
<!-- Node17 -->
<g id="node15" class="node">
<title>Node17</title>
<g id="a_node15"><a xlink:href="classTaskTest.html" target="_top" xlink:title=" ">
<polygon fill="#ffffff" stroke="#000000" points="93,-.5 93,-19.5 151,-19.5 151,-.5 93,-.5"/>
<text text-anchor="middle" x="122" y="-7.5" font-family="Helvetica,sans-Serif" font-size="10.00" fill="#000000">TaskTest</text>
</a>
</g>
</g>
<!-- Node3&#45;&gt;Node17 -->
<g id="edge14" class="edge">
<title>Node3&#45;&gt;Node17</title>
<path fill="none" stroke="#191970" d="M20.2991,-237.2119C26.4117,-187.7302 44.4996,-60.3484 72,-29 77.4502,-22.7871 85.1541,-18.5977 92.8859,-15.7757"/>
<polygon fill="#191970" stroke="#191970" points="16.808,-236.9286 19.0899,-247.2748 23.758,-237.7639 16.808,-236.9286"/>
</g>
</g>
</svg>
