<?xml version="1.0" encoding="UTF-8" standalone="no"?>
<!DOCTYPE svg PUBLIC "-//W3C//DTD SVG 1.1//EN"
 "http://www.w3.org/Graphics/SVG/1.1/DTD/svg11.dtd">
<!-- Generated by graphviz version 2.40.1 (20161225.0304)
 -->
<!-- Title: Graphical Class Hierarchy Pages: 1 -->
<svg width="463pt" height="366pt"
 viewBox="0.00 0.00 463.00 365.50" xmlns="http://www.w3.org/2000/svg" xmlns:xlink="http://www.w3.org/1999/xlink">
<g id="graph0" class="graph" transform="scale(1 1) rotate(0) translate(4 361.5)">
<title>Graphical Class Hierarchy</title>
<polygon fill="#ffffff" stroke="transparent" points="-4,4 -4,-361.5 459,-361.5 459,4 -4,4"/>
<!-- Node0 -->
<g id="node1" class="node">
<title>Node0</title>
<g id="a_node1"><a xlink:href="classarch_1_1ROSComponent.html" target="_top" xlink:title=" ">
<polygon fill="#ffffff" stroke="#000000" points="0,-186 0,-205 113,-205 113,-186 0,-186"/>
<text text-anchor="middle" x="56.5" y="-193" font-family="Helvetica,sans-Serif" font-size="10.00" fill="#000000">arch::ROSComponent</text>
</a>
</g>
</g>
<!-- Node1 -->
<g id="node2" class="node">
<title>Node1</title>
<g id="a_node2"><a xlink:href="classDataAccess.html" target="_top" xlink:title=" ">
<polygon fill="#ffffff" stroke="#000000" points="165.5,-338 165.5,-357 236.5,-357 236.5,-338 165.5,-338"/>
<text text-anchor="middle" x="201" y="-345" font-family="Helvetica,sans-Serif" font-size="10.00" fill="#000000">DataAccess</text>
</a>
</g>
</g>
<!-- Node0&#45;&gt;Node1 -->
<g id="edge1" class="edge">
<title>Node0&#45;&gt;Node1</title>
<path fill="none" stroke="#191970" d="M64.9255,-214.3086C78.6211,-242.8668 108.3295,-297.1493 149,-328.5 153.9481,-332.3142 159.7358,-335.4164 165.6178,-337.9222"/>
<polygon fill="#191970" stroke="#191970" points="68.0055,-212.6314 60.6136,-205.0412 61.6588,-215.5844 68.0055,-212.6314"/>
</g>
<!-- Node2 -->
<g id="node3" class="node">
<title>Node2</title>
<g id="a_node3"><a xlink:href="classEnactor.html" target="_top" xlink:title=" ">
<polygon fill="#ffffff" stroke="#000000" points="176,-300 176,-319 226,-319 226,-300 176,-300"/>
<text text-anchor="middle" x="201" y="-307" font-family="Helvetica,sans-Serif" font-size="10.00" fill="#000000">Enactor</text>
</a>
</g>
</g>
<!-- Node0&#45;&gt;Node2 -->
<g id="edge2" class="edge">
<title>Node0&#45;&gt;Node2</title>
<path fill="none" stroke="#191970" d="M69.7539,-213.3531C86.226,-234.4212 116.1974,-269.2647 149,-290.5 157.1491,-295.7755 166.9621,-299.8457 175.8577,-302.8406"/>
<polygon fill="#191970" stroke="#191970" points="72.4083,-211.0624 63.552,-205.2471 66.8488,-215.316 72.4083,-211.0624"/>
</g>
<!-- Node3 -->
<g id="node4" class="node">
<title>Node3</title>
<g id="a_node4"><a xlink:href="classEngine.html" target="_top" xlink:title=" ">
<polygon fill="#ffffff" stroke="#000000" points="177.5,-262 177.5,-281 224.5,-281 224.5,-262 177.5,-262"/>
<text text-anchor="middle" x="201" y="-269" font-family="Helvetica,sans-Serif" font-size="10.00" fill="#000000">Engine</text>
</a>
</g>
</g>
<!-- Node0&#45;&gt;Node3 -->
<g id="edge3" class="edge">
<title>Node0&#45;&gt;Node3</title>
<path fill="none" stroke="#191970" d="M78.586,-210.8747C96.8881,-223.1768 123.8781,-240.3248 149,-252.5 157.9953,-256.8595 168.2639,-260.8126 177.2867,-263.9701"/>
<polygon fill="#191970" stroke="#191970" points="80.3406,-207.8352 70.1044,-205.1017 76.4018,-213.6219 80.3406,-207.8352"/>
</g>
<!-- Node4 -->
<g id="node5" class="node">
<title>Node4</title>
<g id="a_node5"><a xlink:href="classInjector.html" target="_top" xlink:title=" ">
<polygon fill="#ffffff" stroke="#000000" points="176.5,-224 176.5,-243 225.5,-243 225.5,-224 176.5,-224"/>
<text text-anchor="middle" x="201" y="-231" font-family="Helvetica,sans-Serif" font-size="10.00" fill="#000000">Injector</text>
</a>
</g>
</g>
<!-- Node0&#45;&gt;Node4 -->
<g id="edge4" class="edge">
<title>Node0&#45;&gt;Node4</title>
<path fill="none" stroke="#191970" d="M102.7709,-207.6681C127.2143,-214.0961 156.2343,-221.7277 176.3647,-227.0215"/>
<polygon fill="#191970" stroke="#191970" points="103.5248,-204.2475 92.9635,-205.089 101.7445,-211.0173 103.5248,-204.2475"/>
</g>
<!-- Node5 -->
<g id="node6" class="node">
<title>Node5</title>
<g id="a_node6"><a xlink:href="classLogger.html" target="_top" xlink:title=" ">
<polygon fill="#ffffff" stroke="#000000" points="178,-186 178,-205 224,-205 224,-186 178,-186"/>
<text text-anchor="middle" x="201" y="-193" font-family="Helvetica,sans-Serif" font-size="10.00" fill="#000000">Logger</text>
</a>
</g>
</g>
<!-- Node0&#45;&gt;Node5 -->
<g id="edge5" class="edge">
<title>Node0&#45;&gt;Node5</title>
<path fill="none" stroke="#191970" d="M123.3757,-195.5C142.9947,-195.5 163.1451,-195.5 177.9975,-195.5"/>
<polygon fill="#191970" stroke="#191970" points="123.1955,-192.0001 113.1955,-195.5 123.1955,-199.0001 123.1955,-192.0001"/>
</g>
<!-- Node6 -->
<g id="node7" class="node">
<title>Node6</title>
<g id="a_node7"><a xlink:href="classPatientModule.html" target="_top" xlink:title=" ">
<polygon fill="#ffffff" stroke="#000000" points="161.5,-148 161.5,-167 240.5,-167 240.5,-148 161.5,-148"/>
<text text-anchor="middle" x="201" y="-155" font-family="Helvetica,sans-Serif" font-size="10.00" fill="#000000">PatientModule</text>
</a>
</g>
</g>
<!-- Node0&#45;&gt;Node6 -->
<g id="edge6" class="edge">
<title>Node0&#45;&gt;Node6</title>
<path fill="none" stroke="#191970" d="M102.8325,-183.3157C122.8939,-178.04 146.0285,-171.9562 164.7988,-167.0201"/>
<polygon fill="#191970" stroke="#191970" points="101.7445,-179.9827 92.9635,-185.911 103.5248,-186.7526 101.7445,-179.9827"/>
</g>
<!-- Node7 -->
<g id="node8" class="node">
<title>Node7</title>
<g id="a_node8"><a xlink:href="classarch_1_1target__system_1_1Component.html" target="_top" xlink:title=" ">
<polygon fill="#ffffff" stroke="#000000" points="149,-98.5 149,-128.5 253,-128.5 253,-98.5 149,-98.5"/>
<text text-anchor="start" x="157" y="-116.5" font-family="Helvetica,sans-Serif" font-size="10.00" fill="#000000">arch::target_system</text>
<text text-anchor="middle" x="201" y="-105.5" font-family="Helvetica,sans-Serif" font-size="10.00" fill="#000000">::Component</text>
</a>
</g>
</g>
<!-- Node0&#45;&gt;Node7 -->
<g id="edge7" class="edge">
<title>Node0&#45;&gt;Node7</title>
<path fill="none" stroke="#191970" d="M79.5648,-180.3578C98.0417,-168.4557 124.7866,-151.7342 149,-138.5 155.1528,-135.1371 161.8287,-131.7441 168.2817,-128.5889"/>
<polygon fill="#191970" stroke="#191970" points="77.446,-177.5602 70.9599,-185.9376 81.2545,-183.4335 77.446,-177.5602"/>
</g>
<!-- Node16 -->
<g id="node17" class="node">
<title>Node16</title>
<g id="a_node17"><a xlink:href="classarch_1_1target__system_1_1Effector.html" target="_top" xlink:title=" ">
<polygon fill="#ffffff" stroke="#000000" points="149,-49.5 149,-79.5 253,-79.5 253,-49.5 149,-49.5"/>
<text text-anchor="start" x="157" y="-67.5" font-family="Helvetica,sans-Serif" font-size="10.00" fill="#000000">arch::target_system</text>
<text text-anchor="middle" x="201" y="-56.5" font-family="Helvetica,sans-Serif" font-size="10.00" fill="#000000">::Effector</text>
</a>
</g>
</g>
<!-- Node0&#45;&gt;Node16 -->
<g id="edge16" class="edge">
<title>Node0&#45;&gt;Node16</title>
<path fill="none" stroke="#191970" d="M68.7226,-177.4268C84.9061,-154.5714 115.3525,-115.1175 149,-89.5 153.782,-85.8593 159.1788,-82.5518 164.6397,-79.6215"/>
<polygon fill="#191970" stroke="#191970" points="65.7033,-175.6386 62.8746,-185.8489 71.4531,-179.6311 65.7033,-175.6386"/>
</g>
<!-- Node18 -->
<g id="node19" class="node">
<title>Node18</title>
<g id="a_node19"><a xlink:href="classarch_1_1target__system_1_1Probe.html" target="_top" xlink:title=" ">
<polygon fill="#ffffff" stroke="#000000" points="149,-.5 149,-30.5 253,-30.5 253,-.5 149,-.5"/>
<text text-anchor="start" x="157" y="-18.5" font-family="Helvetica,sans-Serif" font-size="10.00" fill="#000000">arch::target_system</text>
<text text-anchor="middle" x="201" y="-7.5" font-family="Helvetica,sans-Serif" font-size="10.00" fill="#000000">::Probe</text>
</a>
</g>
</g>
<!-- Node0&#45;&gt;Node18 -->
<g id="edge18" class="edge">
<title>Node0&#45;&gt;Node18</title>
<path fill="none" stroke="#191970" d="M63.5343,-176.1413C76.1154,-143.9128 105.3107,-78.9136 149,-39.5 152.6913,-36.1699 156.9244,-33.2251 161.3467,-30.6421"/>
<polygon fill="#191970" stroke="#191970" points="60.1715,-175.1388 59.9076,-185.7303 66.7189,-177.6151 60.1715,-175.1388"/>
</g>
<!-- Node8 -->
<g id="node9" class="node">
<title>Node8</title>
<g id="a_node9"><a xlink:href="classCentralHub.html" target="_top" xlink:title=" ">
<polygon fill="#ffffff" stroke="#000000" points="295.5,-174 295.5,-193 361.5,-193 361.5,-174 295.5,-174"/>
<text text-anchor="middle" x="328.5" y="-181" font-family="Helvetica,sans-Serif" font-size="10.00" fill="#000000">CentralHub</text>
</a>
</g>
</g>
<!-- Node7&#45;&gt;Node8 -->
<g id="edge8" class="edge">
<title>Node7&#45;&gt;Node8</title>
<path fill="none" stroke="#191970" d="M242.3763,-132.9764C245.9901,-134.8029 249.5734,-136.6599 253,-138.5 274.3751,-149.9787 298.323,-164.5578 313.4022,-173.958"/>
<polygon fill="#191970" stroke="#191970" points="243.9166,-129.8335 233.4027,-128.5261 240.8065,-136.1047 243.9166,-129.8335"/>
</g>
<!-- Node10 -->
<g id="node11" class="node">
<title>Node10</title>
<g id="a_node11"><a xlink:href="classSensor.html" target="_top" xlink:title=" ">
<polygon fill="#ffffff" stroke="#000000" points="305,-98 305,-117 352,-117 352,-98 305,-98"/>
<text text-anchor="middle" x="328.5" y="-105" font-family="Helvetica,sans-Serif" font-size="10.00" fill="#000000">Sensor</text>
</a>
</g>
</g>
<!-- Node7&#45;&gt;Node10 -->
<g id="edge10" class="edge">
<title>Node7&#45;&gt;Node10</title>
<path fill="none" stroke="#191970" d="M263.378,-110.5646C278.1191,-109.8709 292.958,-109.1726 304.7401,-108.6181"/>
<polygon fill="#191970" stroke="#191970" points="263.0514,-107.076 253.227,-111.0423 263.3805,-114.0682 263.0514,-107.076"/>
</g>
<!-- Node9 -->
<g id="node10" class="node">
<title>Node9</title>
<g id="a_node10"><a xlink:href="classG4T1.html" target="_top" xlink:title=" ">
<polygon fill="#ffffff" stroke="#000000" points="409,-193 409,-212 450,-212 450,-193 409,-193"/>
<text text-anchor="middle" x="429.5" y="-200" font-family="Helvetica,sans-Serif" font-size="10.00" fill="#000000">G4T1</text>
</a>
</g>
</g>
<!-- Node8&#45;&gt;Node9 -->
<g id="edge9" class="edge">
<title>Node8&#45;&gt;Node9</title>
<path fill="none" stroke="#191970" d="M371.6702,-191.6211C384.5173,-194.0379 398.0109,-196.5763 408.7296,-198.5927"/>
<polygon fill="#191970" stroke="#191970" points="372.0459,-188.1305 361.5712,-189.7213 370.7517,-195.0098 372.0459,-188.1305"/>
</g>
<!-- Node11 -->
<g id="node12" class="node">
<title>Node11</title>
<g id="a_node12"><a xlink:href="classG3T1__1.html" target="_top" xlink:title=" ">
<polygon fill="#ffffff" stroke="#000000" points="404,-155 404,-174 455,-174 455,-155 404,-155"/>
<text text-anchor="middle" x="429.5" y="-162" font-family="Helvetica,sans-Serif" font-size="10.00" fill="#000000">G3T1_1</text>
</a>
</g>
</g>
<!-- Node10&#45;&gt;Node11 -->
<g id="edge11" class="edge">
<title>Node10&#45;&gt;Node11</title>
<path fill="none" stroke="#191970" d="M354.3595,-122.0939C372.6758,-132.4309 396.721,-146.0009 412.6198,-154.9735"/>
<polygon fill="#191970" stroke="#191970" points="356.0624,-119.0361 345.6333,-117.1693 352.6219,-125.1323 356.0624,-119.0361"/>
</g>
<!-- Node12 -->
<g id="node13" class="node">
<title>Node12</title>
<g id="a_node13"><a xlink:href="classG3T1__2.html" target="_top" xlink:title=" ">
<polygon fill="#ffffff" stroke="#000000" points="404,-117 404,-136 455,-136 455,-117 404,-117"/>
<text text-anchor="middle" x="429.5" y="-124" font-family="Helvetica,sans-Serif" font-size="10.00" fill="#000000">G3T1_2</text>
</a>
</g>
</g>
<!-- Node10&#45;&gt;Node12 -->
<g id="edge12" class="edge">
<title>Node10&#45;&gt;Node12</title>
<path fill="none" stroke="#191970" d="M362.143,-113.8289C375.7411,-116.3869 391.1812,-119.2915 403.8451,-121.6738"/>
<polygon fill="#191970" stroke="#191970" points="362.6547,-110.3638 352.18,-111.9547 361.3605,-117.2432 362.6547,-110.3638"/>
</g>
<!-- Node13 -->
<g id="node14" class="node">
<title>Node13</title>
<g id="a_node14"><a xlink:href="classG3T1__3.html" target="_top" xlink:title=" ">
<polygon fill="#ffffff" stroke="#000000" points="404,-79 404,-98 455,-98 455,-79 404,-79"/>
<text text-anchor="middle" x="429.5" y="-86" font-family="Helvetica,sans-Serif" font-size="10.00" fill="#000000">G3T1_3</text>
</a>
</g>
</g>
<!-- Node10&#45;&gt;Node13 -->
<g id="edge13" class="edge">
<title>Node10&#45;&gt;Node13</title>
<path fill="none" stroke="#191970" d="M362.143,-101.1711C375.7411,-98.6131 391.1812,-95.7085 403.8451,-93.3262"/>
<polygon fill="#191970" stroke="#191970" points="361.3605,-97.7568 352.18,-103.0453 362.6547,-104.6362 361.3605,-97.7568"/>
</g>
<!-- Node14 -->
<g id="node15" class="node">
<title>Node14</title>
<g id="a_node15"><a xlink:href="classG3T1__4.html" target="_top" xlink:title=" ">
<polygon fill="#ffffff" stroke="#000000" points="404,-41 404,-60 455,-60 455,-41 404,-41"/>
<text text-anchor="middle" x="429.5" y="-48" font-family="Helvetica,sans-Serif" font-size="10.00" fill="#000000">G3T1_4</text>
</a>
</g>
</g>
<!-- Node10&#45;&gt;Node14 -->
<g id="edge14" class="edge">
<title>Node10&#45;&gt;Node14</title>
<path fill="none" stroke="#191970" d="M354.3595,-92.9061C372.6758,-82.5691 396.721,-68.9991 412.6198,-60.0265"/>
<polygon fill="#191970" stroke="#191970" points="352.6219,-89.8677 345.6333,-97.8307 356.0624,-95.9639 352.6219,-89.8677"/>
</g>
<!-- Node15 -->
<g id="node16" class="node">
<title>Node15</title>
<g id="a_node16"><a xlink:href="classG3T1__5.html" target="_top" xlink:title=" ">
<polygon fill="#ffffff" stroke="#000000" points="404,-3 404,-22 455,-22 455,-3 404,-3"/>
<text text-anchor="middle" x="429.5" y="-10" font-family="Helvetica,sans-Serif" font-size="10.00" fill="#000000">G3T1_5</text>
</a>
</g>
</g>
<!-- Node10&#45;&gt;Node15 -->
<g id="edge15" class="edge">
<title>Node10&#45;&gt;Node15</title>
<path fill="none" stroke="#191970" d="M356.2294,-92.7208C360.3887,-89.9314 364.4629,-86.8325 368,-83.5 388.4592,-64.2245 384.4728,-51.7191 404,-31.5 407.2217,-28.1642 411.0746,-24.9719 414.7976,-22.188"/>
<polygon fill="#191970" stroke="#191970" points="354.3799,-89.7493 347.7175,-97.9872 358.0629,-95.7021 354.3799,-89.7493"/>
</g>
<!-- Node17 -->
<g id="node18" class="node">
<title>Node17</title>
<g id="a_node18"><a xlink:href="classParamAdapter.html" target="_top" xlink:title=" ">
<polygon fill="#ffffff" stroke="#000000" points="289,-55 289,-74 368,-74 368,-55 289,-55"/>
<text text-anchor="middle" x="328.5" y="-62" font-family="Helvetica,sans-Serif" font-size="10.00" fill="#000000">ParamAdapter</text>
</a>
</g>
</g>
<!-- Node16&#45;&gt;Node17 -->
<g id="edge17" class="edge">
<title>Node16&#45;&gt;Node17</title>
<path fill="none" stroke="#191970" d="M263.2995,-64.5C271.9258,-64.5 280.5877,-64.5 288.6527,-64.5"/>
<polygon fill="#191970" stroke="#191970" points="263.227,-61.0001 253.227,-64.5 263.227,-68.0001 263.227,-61.0001"/>
</g>
</g>
</svg>
