<?xml version="1.0" encoding="UTF-8" standalone="no"?>
<!DOCTYPE svg PUBLIC "-//W3C//DTD SVG 1.1//EN"
 "http://www.w3.org/Graphics/SVG/1.1/DTD/svg11.dtd">
<!-- Generated by graphviz version 2.40.1 (20161225.0304)
 -->
<!-- Title: src/simulation/injector/src/Injector.cpp Pages: 1 -->
<svg width="732pt" height="263pt"
 viewBox="0.00 0.00 732.26 263.00" xmlns="http://www.w3.org/2000/svg" xmlns:xlink="http://www.w3.org/1999/xlink">
<g id="graph0" class="graph" transform="scale(1 1) rotate(0) translate(4 259)">
<title>src/simulation/injector/src/Injector.cpp</title>
<polygon fill="#ffffff" stroke="transparent" points="-4,4 -4,-259 728.259,-259 728.259,4 -4,4"/>
<!-- Node1 -->
<g id="node1" class="node">
<title>Node1</title>
<g id="a_node1"><a xlink:title=" ">
<polygon fill="#bfbfbf" stroke="#000000" points="341.759,-224.5 341.759,-254.5 453.759,-254.5 453.759,-224.5 341.759,-224.5"/>
<text text-anchor="start" x="349.759" y="-242.5" font-family="Helvetica,sans-Serif" font-size="10.00" fill="#000000">src/simulation/injector</text>
<text text-anchor="middle" x="397.759" y="-231.5" font-family="Helvetica,sans-Serif" font-size="10.00" fill="#000000">/src/Injector.cpp</text>
</a>
</g>
</g>
<!-- Node2 -->
<g id="node2" class="node">
<title>Node2</title>
<g id="a_node2"><a xlink:href="Injector_8hpp.html" target="_top" xlink:title=" ">
<polygon fill="#ffffff" stroke="#000000" points="363.759,-168.5 363.759,-187.5 431.759,-187.5 431.759,-168.5 363.759,-168.5"/>
<text text-anchor="middle" x="397.759" y="-175.5" font-family="Helvetica,sans-Serif" font-size="10.00" fill="#000000">Injector.hpp</text>
</a>
</g>
</g>
<!-- Node1&#45;&gt;Node2 -->
<g id="edge1" class="edge">
<title>Node1&#45;&gt;Node2</title>
<path fill="none" stroke="#191970" d="M397.759,-224.2977C397.759,-216.3834 397.759,-206.6043 397.759,-198.0759"/>
<polygon fill="#191970" stroke="#191970" points="401.2591,-197.8469 397.759,-187.8469 394.2591,-197.847 401.2591,-197.8469"/>
</g>
<!-- Node3 -->
<g id="node3" class="node">
<title>Node3</title>
<g id="a_node3"><a xlink:title=" ">
<polygon fill="#ffffff" stroke="#bfbfbf" points="275.259,-.5 275.259,-19.5 330.259,-19.5 330.259,-.5 275.259,-.5"/>
<text text-anchor="middle" x="302.759" y="-7.5" font-family="Helvetica,sans-Serif" font-size="10.00" fill="#000000">ros/ros.h</text>
</a>
</g>
</g>
<!-- Node2&#45;&gt;Node3 -->
<g id="edge2" class="edge">
<title>Node2&#45;&gt;Node3</title>
<path fill="none" stroke="#191970" d="M431.9219,-174.5253C480.3766,-168.8118 565.2536,-155.6395 583.759,-132 589.2382,-125.0007 588.8606,-119.2791 583.759,-112 555.0726,-71.0694 410.4808,-33.989 340.6353,-18.1356"/>
<polygon fill="#191970" stroke="#191970" points="341.0188,-14.6348 330.4955,-15.8643 339.4886,-21.4655 341.0188,-14.6348"/>
</g>
<!-- Node4 -->
<g id="node4" class="node">
<title>Node4</title>
<g id="a_node4"><a xlink:title=" ">
<polygon fill="#ffffff" stroke="#bfbfbf" points="192.759,-112.5 192.759,-131.5 270.759,-131.5 270.759,-112.5 192.759,-112.5"/>
<text text-anchor="middle" x="231.759" y="-119.5" font-family="Helvetica,sans-Serif" font-size="10.00" fill="#000000">ros/package.h</text>
</a>
</g>
</g>
<!-- Node2&#45;&gt;Node4 -->
<g id="edge3" class="edge">
<title>Node2&#45;&gt;Node4</title>
<path fill="none" stroke="#191970" d="M369.2226,-168.3733C341.7388,-159.1016 299.9904,-145.0178 269.7138,-134.804"/>
<polygon fill="#191970" stroke="#191970" points="270.5172,-131.3813 259.923,-131.5011 268.2796,-138.0141 270.5172,-131.3813"/>
</g>
<!-- Node5 -->
<g id="node5" class="node">
<title>Node5</title>
<g id="a_node5"><a xlink:title=" ">
<polygon fill="#ffffff" stroke="#bfbfbf" points="288.759,-112.5 288.759,-131.5 332.759,-131.5 332.759,-112.5 288.759,-112.5"/>
<text text-anchor="middle" x="310.759" y="-119.5" font-family="Helvetica,sans-Serif" font-size="10.00" fill="#000000">time.h</text>
</a>
</g>
</g>
<!-- Node2&#45;&gt;Node5 -->
<g id="edge4" class="edge">
<title>Node2&#45;&gt;Node5</title>
<path fill="none" stroke="#191970" d="M382.6047,-168.2455C369.2563,-159.6534 349.6004,-147.0014 334.2207,-137.1018"/>
<polygon fill="#191970" stroke="#191970" points="336.0426,-134.1121 325.7396,-131.6427 332.2539,-139.9982 336.0426,-134.1121"/>
</g>
<!-- Node6 -->
<g id="node6" class="node">
<title>Node6</title>
<g id="a_node6"><a xlink:title=" ">
<polygon fill="#ffffff" stroke="#bfbfbf" points="351.259,-112.5 351.259,-131.5 386.259,-131.5 386.259,-112.5 351.259,-112.5"/>
<text text-anchor="middle" x="368.759" y="-119.5" font-family="Helvetica,sans-Serif" font-size="10.00" fill="#000000">map</text>
</a>
</g>
</g>
<!-- Node2&#45;&gt;Node6 -->
<g id="edge5" class="edge">
<title>Node2&#45;&gt;Node6</title>
<path fill="none" stroke="#191970" d="M392.7076,-168.2455C388.7571,-160.617 383.1493,-149.7881 378.3532,-140.5267"/>
<polygon fill="#191970" stroke="#191970" points="381.4591,-138.9131 373.7525,-131.6427 375.2431,-142.1321 381.4591,-138.9131"/>
</g>
<!-- Node7 -->
<g id="node7" class="node">
<title>Node7</title>
<g id="a_node7"><a xlink:title=" ">
<polygon fill="#ffffff" stroke="#bfbfbf" points="404.759,-112.5 404.759,-131.5 448.759,-131.5 448.759,-112.5 404.759,-112.5"/>
<text text-anchor="middle" x="426.759" y="-119.5" font-family="Helvetica,sans-Serif" font-size="10.00" fill="#000000">vector</text>
</a>
</g>
</g>
<!-- Node2&#45;&gt;Node7 -->
<g id="edge6" class="edge">
<title>Node2&#45;&gt;Node7</title>
<path fill="none" stroke="#191970" d="M402.8104,-168.2455C406.7609,-160.617 412.3687,-149.7881 417.1648,-140.5267"/>
<polygon fill="#191970" stroke="#191970" points="420.2748,-142.1321 421.7655,-131.6427 414.0589,-138.9131 420.2748,-142.1321"/>
</g>
<!-- Node8 -->
<g id="node8" class="node">
<title>Node8</title>
<g id="a_node8"><a xlink:title=" ">
<polygon fill="#ffffff" stroke="#bfbfbf" points="467.259,-112.5 467.259,-131.5 574.259,-131.5 574.259,-112.5 467.259,-112.5"/>
<text text-anchor="middle" x="520.759" y="-119.5" font-family="Helvetica,sans-Serif" font-size="10.00" fill="#000000">archlib/Uncertainty.h</text>
</a>
</g>
</g>
<!-- Node2&#45;&gt;Node8 -->
<g id="edge7" class="edge">
<title>Node2&#45;&gt;Node8</title>
<path fill="none" stroke="#191970" d="M418.9034,-168.3733C438.6481,-159.3838 468.3288,-145.8706 490.5645,-135.7471"/>
<polygon fill="#191970" stroke="#191970" points="492.2396,-138.8302 499.8904,-131.5011 489.339,-132.4594 492.2396,-138.8302"/>
</g>
<!-- Node9 -->
<g id="node9" class="node">
<title>Node9</title>
<g id="a_node9"><a xlink:href="ROSComponent_8hpp.html" target="_top" xlink:title=" ">
<polygon fill="#ffffff" stroke="#000000" points="35.259,-112.5 35.259,-131.5 174.259,-131.5 174.259,-112.5 35.259,-112.5"/>
<text text-anchor="middle" x="104.759" y="-119.5" font-family="Helvetica,sans-Serif" font-size="10.00" fill="#000000">archlib/ROSComponent.hpp</text>
</a>
</g>
</g>
<!-- Node2&#45;&gt;Node9 -->
<g id="edge8" class="edge">
<title>Node2&#45;&gt;Node9</title>
<path fill="none" stroke="#191970" d="M363.5747,-171.4665C314.842,-162.1524 224.6705,-144.9182 164.6895,-133.4543"/>
<polygon fill="#191970" stroke="#191970" points="165.0759,-129.9649 154.5966,-131.5253 163.7618,-136.8404 165.0759,-129.9649"/>
</g>
<!-- Node13 -->
<g id="node13" class="node">
<title>Node13</title>
<g id="a_node13"><a xlink:title=" ">
<polygon fill="#ffffff" stroke="#bfbfbf" points="631.259,-112.5 631.259,-131.5 724.259,-131.5 724.259,-112.5 631.259,-112.5"/>
<text text-anchor="middle" x="677.759" y="-119.5" font-family="Helvetica,sans-Serif" font-size="10.00" fill="#000000">bsn/utils/utils.hpp</text>
</a>
</g>
</g>
<!-- Node2&#45;&gt;Node13 -->
<g id="edge15" class="edge">
<title>Node2&#45;&gt;Node13</title>
<path fill="none" stroke="#191970" d="M431.8126,-171.1893C478.8335,-161.7851 564.2532,-144.7011 621.0084,-133.3501"/>
<polygon fill="#191970" stroke="#191970" points="621.7875,-136.7637 630.9068,-131.3704 620.4146,-129.8996 621.7875,-136.7637"/>
</g>
<!-- Node9&#45;&gt;Node3 -->
<g id="edge11" class="edge">
<title>Node9&#45;&gt;Node3</title>
<path fill="none" stroke="#191970" d="M168.5157,-112.452C213.003,-104.5542 267.2477,-92.0431 283.759,-76 296.1616,-63.949 300.6095,-44.3695 302.1351,-29.6595"/>
<polygon fill="#191970" stroke="#191970" points="305.635,-29.778 302.8155,-19.5652 298.6508,-29.3072 305.635,-29.778"/>
</g>
<!-- Node10 -->
<g id="node10" class="node">
<title>Node10</title>
<g id="a_node10"><a xlink:title=" ">
<polygon fill="#ffffff" stroke="#bfbfbf" points="24.259,-.5 24.259,-19.5 65.259,-19.5 65.259,-.5 24.259,-.5"/>
<text text-anchor="middle" x="44.759" y="-7.5" font-family="Helvetica,sans-Serif" font-size="10.00" fill="#000000">string</text>
</a>
</g>
</g>
<!-- Node9&#45;&gt;Node10 -->
<g id="edge9" class="edge">
<title>Node9&#45;&gt;Node10</title>
<path fill="none" stroke="#191970" d="M57.503,-112.4668C37.3472,-105.8095 15.748,-94.6342 3.759,-76 -7.0179,-59.2497 8.2768,-39.8652 23.1531,-26.4577"/>
<polygon fill="#191970" stroke="#191970" points="25.81,-28.7962 31.2064,-19.6787 21.3021,-23.4409 25.81,-28.7962"/>
</g>
<!-- Node11 -->
<g id="node11" class="node">
<title>Node11</title>
<g id="a_node11"><a xlink:title=" ">
<polygon fill="#ffffff" stroke="#bfbfbf" points="215.259,-56.5 215.259,-75.5 274.259,-75.5 274.259,-56.5 215.259,-56.5"/>
<text text-anchor="middle" x="244.759" y="-63.5" font-family="Helvetica,sans-Serif" font-size="10.00" fill="#000000">stdexcept</text>
</a>
</g>
</g>
<!-- Node9&#45;&gt;Node11 -->
<g id="edge10" class="edge">
<title>Node9&#45;&gt;Node11</title>
<path fill="none" stroke="#191970" d="M128.8258,-112.3733C151.6018,-103.2629 185.9934,-89.5062 211.408,-79.3404"/>
<polygon fill="#191970" stroke="#191970" points="213.0213,-82.4648 221.0062,-75.5011 210.4215,-75.9654 213.0213,-82.4648"/>
</g>
<!-- Node12 -->
<g id="node12" class="node">
<title>Node12</title>
<g id="a_node12"><a xlink:href="ROSComponentDescriptor_8hpp.html" target="_top" xlink:title=" ">
<polygon fill="#ffffff" stroke="#000000" points="12.759,-56.5 12.759,-75.5 196.759,-75.5 196.759,-56.5 12.759,-56.5"/>
<text text-anchor="middle" x="104.759" y="-63.5" font-family="Helvetica,sans-Serif" font-size="10.00" fill="#000000">archlib/ROSComponentDescriptor.hpp</text>
</a>
</g>
</g>
<!-- Node9&#45;&gt;Node12 -->
<g id="edge12" class="edge">
<title>Node9&#45;&gt;Node12</title>
<path fill="none" stroke="#191970" d="M104.759,-112.2455C104.759,-104.9382 104.759,-94.6944 104.759,-85.7046"/>
<polygon fill="#191970" stroke="#191970" points="108.2591,-85.6426 104.759,-75.6427 101.2591,-85.6427 108.2591,-85.6426"/>
</g>
<!-- Node12&#45;&gt;Node3 -->
<g id="edge14" class="edge">
<title>Node12&#45;&gt;Node3</title>
<path fill="none" stroke="#191970" d="M138.7964,-56.3733C174.0686,-46.3973 229.0386,-30.8502 265.4676,-20.5471"/>
<polygon fill="#191970" stroke="#191970" points="266.549,-23.8786 275.219,-17.7891 264.6439,-17.1428 266.549,-23.8786"/>
</g>
<!-- Node12&#45;&gt;Node10 -->
<g id="edge13" class="edge">
<title>Node12&#45;&gt;Node10</title>
<path fill="none" stroke="#191970" d="M94.3078,-56.2455C85.5321,-48.0549 72.8035,-36.1749 62.445,-26.5069"/>
<polygon fill="#191970" stroke="#191970" points="64.7891,-23.9072 55.0904,-19.6427 60.0129,-29.0246 64.7891,-23.9072"/>
</g>
</g>
</svg>
