<?xml version="1.0" encoding="UTF-8" standalone="no"?>
<!DOCTYPE svg PUBLIC "-//W3C//DTD SVG 1.1//EN"
 "http://www.w3.org/Graphics/SVG/1.1/DTD/svg11.dtd">
<!-- Generated by graphviz version 2.40.1 (20161225.0304)
 -->
<!-- Title: src/simulation/injector/include/Injector.hpp Pages: 1 -->
<svg width="250pt" height="106pt"
 viewBox="0.00 0.00 250.00 106.00" xmlns="http://www.w3.org/2000/svg" xmlns:xlink="http://www.w3.org/1999/xlink">
<g id="graph0" class="graph" transform="scale(1 1) rotate(0) translate(4 102)">
<title>src/simulation/injector/include/Injector.hpp</title>
<polygon fill="#ffffff" stroke="transparent" points="-4,4 -4,-102 246,-102 246,4 -4,4"/>
<!-- Node1 -->
<g id="node1" class="node">
<title>Node1</title>
<g id="a_node1"><a xlink:title=" ">
<polygon fill="#bfbfbf" stroke="#000000" points="65,-67.5 65,-97.5 177,-97.5 177,-67.5 65,-67.5"/>
<text text-anchor="start" x="73" y="-85.5" font-family="Helvetica,sans-Serif" font-size="10.00" fill="#000000">src/simulation/injector</text>
<text text-anchor="middle" x="121" y="-74.5" font-family="Helvetica,sans-Serif" font-size="10.00" fill="#000000">/include/Injector.hpp</text>
</a>
</g>
</g>
<!-- Node2 -->
<g id="node2" class="node">
<title>Node2</title>
<g id="a_node2"><a xlink:href="injector_8cpp.html" target="_top" xlink:title=" ">
<polygon fill="#ffffff" stroke="#000000" points="0,-.5 0,-30.5 112,-30.5 112,-.5 0,-.5"/>
<text text-anchor="start" x="8" y="-18.5" font-family="Helvetica,sans-Serif" font-size="10.00" fill="#000000">src/simulation/injector</text>
<text text-anchor="middle" x="56" y="-7.5" font-family="Helvetica,sans-Serif" font-size="10.00" fill="#000000">/apps/injector.cpp</text>
</a>
</g>
</g>
<!-- Node1&#45;&gt;Node2 -->
<g id="edge1" class="edge">
<title>Node1&#45;&gt;Node2</title>
<path fill="none" stroke="#191970" d="M99.0992,-59.9253C89.7445,-50.2828 79.0743,-39.2843 70.6911,-30.6432"/>
<polygon fill="#191970" stroke="#191970" points="96.7752,-62.5564 106.2505,-67.2967 101.7994,-57.6821 96.7752,-62.5564"/>
</g>
<!-- Node3 -->
<g id="node3" class="node">
<title>Node3</title>
<g id="a_node3"><a xlink:href="Injector_8cpp.html" target="_top" xlink:title=" ">
<polygon fill="#ffffff" stroke="#000000" points="130,-.5 130,-30.5 242,-30.5 242,-.5 130,-.5"/>
<text text-anchor="start" x="138" y="-18.5" font-family="Helvetica,sans-Serif" font-size="10.00" fill="#000000">src/simulation/injector</text>
<text text-anchor="middle" x="186" y="-7.5" font-family="Helvetica,sans-Serif" font-size="10.00" fill="#000000">/src/Injector.cpp</text>
</a>
</g>
</g>
<!-- Node1&#45;&gt;Node3 -->
<g id="edge2" class="edge">
<title>Node1&#45;&gt;Node3</title>
<path fill="none" stroke="#191970" d="M142.9008,-59.9253C152.2555,-50.2828 162.9257,-39.2843 171.3089,-30.6432"/>
<polygon fill="#191970" stroke="#191970" points="140.2006,-57.6821 135.7495,-67.2967 145.2248,-62.5564 140.2006,-57.6821"/>
</g>
</g>
</svg>
