<?xml version="1.0" encoding="UTF-8" standalone="no"?>
<!DOCTYPE svg PUBLIC "-//W3C//DTD SVG 1.1//EN"
 "http://www.w3.org/Graphics/SVG/1.1/DTD/svg11.dtd">
<!-- Generated by graphviz version 2.40.1 (20161225.0304)
 -->
<!-- Title: TEST_F Pages: 1 -->
<svg width="226pt" height="284pt"
 viewBox="0.00 0.00 226.00 284.00" xmlns="http://www.w3.org/2000/svg" xmlns:xlink="http://www.w3.org/1999/xlink">
<g id="graph0" class="graph" transform="scale(1 1) rotate(0) translate(4 280)">
<title>TEST_F</title>
<polygon fill="#ffffff" stroke="transparent" points="-4,4 -4,-280 222,-280 222,4 -4,4"/>
<!-- Node1 -->
<g id="node1" class="node">
<title>Node1</title>
<g id="a_node1"><a xlink:title=" ">
<polygon fill="#bfbfbf" stroke="#000000" points="0,-128 0,-147 53,-147 53,-128 0,-128"/>
<text text-anchor="middle" x="26.5" y="-135" font-family="Helvetica,sans-Serif" font-size="10.00" fill="#000000">TEST_F</text>
</a>
</g>
</g>
<!-- Node2 -->
<g id="node2" class="node">
<title>Node2</title>
<g id="a_node2"><a xlink:href="classbsn_1_1goalmodel_1_1LeafTask.html#a05a6edfe1d551224522d1864fbac4155" target="_top" xlink:title=" ">
<polygon fill="#ffffff" stroke="#000000" points="89,-245.5 89,-275.5 218,-275.5 218,-245.5 89,-245.5"/>
<text text-anchor="start" x="97" y="-263.5" font-family="Helvetica,sans-Serif" font-size="10.00" fill="#000000">bsn::goalmodel::LeafTask</text>
<text text-anchor="middle" x="153.5" y="-252.5" font-family="Helvetica,sans-Serif" font-size="10.00" fill="#000000">::getContext</text>
</a>
</g>
</g>
<!-- Node1&#45;&gt;Node2 -->
<g id="edge1" class="edge">
<title>Node1&#45;&gt;Node2</title>
<path fill="none" stroke="#191970" d="M30.0934,-147.1274C37.8657,-166.6974 58.071,-211.3893 89,-236.5 90.5653,-237.7708 92.2045,-238.9784 93.901,-240.1255"/>
<polygon fill="#191970" stroke="#191970" points="92.3945,-243.3006 102.7852,-245.3706 95.9533,-237.2727 92.3945,-243.3006"/>
</g>
<!-- Node3 -->
<g id="node3" class="node">
<title>Node3</title>
<g id="a_node3"><a xlink:href="classbsn_1_1goalmodel_1_1LeafTask.html#a165ec6f4b6bb2edc66201376fec30e12" target="_top" xlink:title=" ">
<polygon fill="#ffffff" stroke="#000000" points="89,-196.5 89,-226.5 218,-226.5 218,-196.5 89,-196.5"/>
<text text-anchor="start" x="97" y="-214.5" font-family="Helvetica,sans-Serif" font-size="10.00" fill="#000000">bsn::goalmodel::LeafTask</text>
<text text-anchor="middle" x="153.5" y="-203.5" font-family="Helvetica,sans-Serif" font-size="10.00" fill="#000000">::getCost</text>
</a>
</g>
</g>
<!-- Node1&#45;&gt;Node3 -->
<g id="edge2" class="edge">
<title>Node1&#45;&gt;Node3</title>
<path fill="none" stroke="#191970" d="M36.3782,-147.0833C48.1195,-158.0552 68.6888,-175.9922 89,-187.5 92.0017,-189.2007 95.1468,-190.823 98.3648,-192.3631"/>
<polygon fill="#191970" stroke="#191970" points="97.011,-195.5917 107.5683,-196.4822 99.8706,-189.2024 97.011,-195.5917"/>
</g>
<!-- Node4 -->
<g id="node4" class="node">
<title>Node4</title>
<g id="a_node4"><a xlink:href="classbsn_1_1goalmodel_1_1Node.html#a6e9b650e57a8951f241d88267a4521e7" target="_top" xlink:title=" ">
<polygon fill="#ffffff" stroke="#000000" points="97.5,-147.5 97.5,-177.5 209.5,-177.5 209.5,-147.5 97.5,-147.5"/>
<text text-anchor="start" x="105.5" y="-165.5" font-family="Helvetica,sans-Serif" font-size="10.00" fill="#000000">bsn::goalmodel::Node</text>
<text text-anchor="middle" x="153.5" y="-154.5" font-family="Helvetica,sans-Serif" font-size="10.00" fill="#000000">::getDescription</text>
</a>
</g>
</g>
<!-- Node1&#45;&gt;Node4 -->
<g id="edge3" class="edge">
<title>Node1&#45;&gt;Node4</title>
<path fill="none" stroke="#191970" d="M53.1234,-142.7408C63.1813,-144.7207 75.1281,-147.0725 87.2099,-149.4508"/>
<polygon fill="#191970" stroke="#191970" points="86.8641,-152.9498 97.3519,-151.4472 88.2162,-146.0816 86.8641,-152.9498"/>
</g>
<!-- Node5 -->
<g id="node5" class="node">
<title>Node5</title>
<g id="a_node5"><a xlink:href="classbsn_1_1goalmodel_1_1LeafTask.html#a7449c8d90f8210827cd3ebade39ab3da" target="_top" xlink:title=" ">
<polygon fill="#ffffff" stroke="#000000" points="89,-98.5 89,-128.5 218,-128.5 218,-98.5 89,-98.5"/>
<text text-anchor="start" x="97" y="-116.5" font-family="Helvetica,sans-Serif" font-size="10.00" fill="#000000">bsn::goalmodel::LeafTask</text>
<text text-anchor="middle" x="153.5" y="-105.5" font-family="Helvetica,sans-Serif" font-size="10.00" fill="#000000">::getFrequency</text>
</a>
</g>
</g>
<!-- Node1&#45;&gt;Node5 -->
<g id="edge4" class="edge">
<title>Node1&#45;&gt;Node5</title>
<path fill="none" stroke="#191970" d="M53.1234,-132.4688C60.8685,-131.0052 69.7338,-129.3298 78.9183,-127.5942"/>
<polygon fill="#191970" stroke="#191970" points="79.7956,-130.9904 88.9718,-125.6943 78.4957,-124.1122 79.7956,-130.9904"/>
</g>
<!-- Node6 -->
<g id="node6" class="node">
<title>Node6</title>
<g id="a_node6"><a xlink:href="classbsn_1_1goalmodel_1_1Node.html#ae0ad7ddec09e54734821a25e84677553" target="_top" xlink:title=" ">
<polygon fill="#ffffff" stroke="#000000" points="97.5,-49.5 97.5,-79.5 209.5,-79.5 209.5,-49.5 97.5,-49.5"/>
<text text-anchor="start" x="105.5" y="-67.5" font-family="Helvetica,sans-Serif" font-size="10.00" fill="#000000">bsn::goalmodel::Node</text>
<text text-anchor="middle" x="153.5" y="-56.5" font-family="Helvetica,sans-Serif" font-size="10.00" fill="#000000">::getID</text>
</a>
</g>
</g>
<!-- Node1&#45;&gt;Node6 -->
<g id="edge5" class="edge">
<title>Node1&#45;&gt;Node6</title>
<path fill="none" stroke="#191970" d="M37.3368,-127.6198C49.2937,-117.105 69.4435,-100.4994 89,-89.5 92.6506,-87.4468 96.5035,-85.489 100.436,-83.6388"/>
<polygon fill="#191970" stroke="#191970" points="101.9815,-86.7821 109.6982,-79.5225 99.1386,-80.3853 101.9815,-86.7821"/>
</g>
<!-- Node7 -->
<g id="node7" class="node">
<title>Node7</title>
<g id="a_node7"><a xlink:href="classbsn_1_1goalmodel_1_1LeafTask.html#ae57e36bae78eae6a0deff6f6087cab39" target="_top" xlink:title=" ">
<polygon fill="#ffffff" stroke="#000000" points="89,-.5 89,-30.5 218,-30.5 218,-.5 89,-.5"/>
<text text-anchor="start" x="97" y="-18.5" font-family="Helvetica,sans-Serif" font-size="10.00" fill="#000000">bsn::goalmodel::LeafTask</text>
<text text-anchor="middle" x="153.5" y="-7.5" font-family="Helvetica,sans-Serif" font-size="10.00" fill="#000000">::getReliability</text>
</a>
</g>
</g>
<!-- Node1&#45;&gt;Node7 -->
<g id="edge6" class="edge">
<title>Node1&#45;&gt;Node7</title>
<path fill="none" stroke="#191970" d="M30.2979,-127.8074C38.3086,-108.5462 58.725,-65.1879 89,-40.5 91.036,-38.8397 93.195,-37.2807 95.4411,-35.8177"/>
<polygon fill="#191970" stroke="#191970" points="97.5305,-38.6539 104.4604,-30.6397 94.0453,-32.5832 97.5305,-38.6539"/>
</g>
</g>
</svg>
