<?xml version="1.0" encoding="UTF-8" standalone="no"?>
<!DOCTYPE svg PUBLIC "-//W3C//DTD SVG 1.1//EN"
 "http://www.w3.org/Graphics/SVG/1.1/DTD/svg11.dtd">
<!-- Generated by graphviz version 2.40.1 (20161225.0304)
 -->
<!-- Title: libbsn/test/unit/goalmodel/LeafTaskTest.cpp Pages: 1 -->
<svg width="707pt" height="319pt"
 viewBox="0.00 0.00 706.50 319.00" xmlns="http://www.w3.org/2000/svg" xmlns:xlink="http://www.w3.org/1999/xlink">
<g id="graph0" class="graph" transform="scale(1 1) rotate(0) translate(4 315)">
<title>libbsn/test/unit/goalmodel/LeafTaskTest.cpp</title>
<polygon fill="#ffffff" stroke="transparent" points="-4,4 -4,-315 702.5,-315 702.5,4 -4,4"/>
<!-- Node1 -->
<g id="node1" class="node">
<title>Node1</title>
<g id="a_node1"><a xlink:title=" ">
<polygon fill="#bfbfbf" stroke="#000000" points="129.5,-280.5 129.5,-310.5 257.5,-310.5 257.5,-280.5 129.5,-280.5"/>
<text text-anchor="start" x="137.5" y="-298.5" font-family="Helvetica,sans-Serif" font-size="10.00" fill="#000000">libbsn/test/unit/goalmodel</text>
<text text-anchor="middle" x="193.5" y="-287.5" font-family="Helvetica,sans-Serif" font-size="10.00" fill="#000000">/LeafTaskTest.cpp</text>
</a>
</g>
</g>
<!-- Node2 -->
<g id="node2" class="node">
<title>Node2</title>
<g id="a_node2"><a xlink:title=" ">
<polygon fill="#ffffff" stroke="#bfbfbf" points="56,-224.5 56,-243.5 127,-243.5 127,-224.5 56,-224.5"/>
<text text-anchor="middle" x="91.5" y="-231.5" font-family="Helvetica,sans-Serif" font-size="10.00" fill="#000000">gtest/gtest.h</text>
</a>
</g>
</g>
<!-- Node1&#45;&gt;Node2 -->
<g id="edge1" class="edge">
<title>Node1&#45;&gt;Node2</title>
<path fill="none" stroke="#191970" d="M168.548,-280.4554C152.5741,-270.8241 131.9398,-258.3828 116.0457,-248.7996"/>
<polygon fill="#191970" stroke="#191970" points="117.6774,-245.6965 107.3064,-243.5303 114.063,-251.6912 117.6774,-245.6965"/>
</g>
<!-- Node3 -->
<g id="node3" class="node">
<title>Node3</title>
<g id="a_node3"><a xlink:title=" ">
<polygon fill="#ffffff" stroke="#bfbfbf" points="634.5,-.5 634.5,-19.5 686.5,-19.5 686.5,-.5 634.5,-.5"/>
<text text-anchor="middle" x="660.5" y="-7.5" font-family="Helvetica,sans-Serif" font-size="10.00" fill="#000000">memory</text>
</a>
</g>
</g>
<!-- Node1&#45;&gt;Node3 -->
<g id="edge2" class="edge">
<title>Node1&#45;&gt;Node3</title>
<path fill="none" stroke="#191970" d="M257.7149,-293.9298C393.7303,-288.8587 698.5,-267.5092 698.5,-178 698.5,-178 698.5,-178 698.5,-122 698.5,-87.6118 682.2366,-50.2832 670.989,-28.5791"/>
<polygon fill="#191970" stroke="#191970" points="673.931,-26.6605 666.107,-19.5166 667.7683,-29.9804 673.931,-26.6605"/>
</g>
<!-- Node4 -->
<g id="node4" class="node">
<title>Node4</title>
<g id="a_node4"><a xlink:href="Context_8hpp.html" target="_top" xlink:title=" ">
<polygon fill="#ffffff" stroke="#000000" points="0,-168.5 0,-187.5 117,-187.5 117,-168.5 0,-168.5"/>
<text text-anchor="middle" x="58.5" y="-175.5" font-family="Helvetica,sans-Serif" font-size="10.00" fill="#000000">goalmodel/Context.hpp</text>
</a>
</g>
</g>
<!-- Node1&#45;&gt;Node4 -->
<g id="edge3" class="edge">
<title>Node1&#45;&gt;Node4</title>
<path fill="none" stroke="#191970" d="M183.5019,-280.2301C172.876,-264.7857 154.9502,-240.85 135.5,-224 121.075,-211.5034 102.8129,-200.4288 87.6943,-192.279"/>
<polygon fill="#191970" stroke="#191970" points="89.2321,-189.1335 78.7494,-187.596 85.9853,-195.335 89.2321,-189.1335"/>
</g>
<!-- Node6 -->
<g id="node6" class="node">
<title>Node6</title>
<g id="a_node6"><a xlink:href="Property_8hpp.html" target="_top" xlink:title=" ">
<polygon fill="#ffffff" stroke="#000000" points="135,-168.5 135,-187.5 254,-187.5 254,-168.5 135,-168.5"/>
<text text-anchor="middle" x="194.5" y="-175.5" font-family="Helvetica,sans-Serif" font-size="10.00" fill="#000000">goalmodel/Property.hpp</text>
</a>
</g>
</g>
<!-- Node1&#45;&gt;Node6 -->
<g id="edge5" class="edge">
<title>Node1&#45;&gt;Node6</title>
<path fill="none" stroke="#191970" d="M193.6307,-280.1389C193.8109,-258.9692 194.1356,-220.8174 194.3331,-197.6112"/>
<polygon fill="#191970" stroke="#191970" points="197.8333,-197.5889 194.4186,-187.5595 190.8336,-197.5293 197.8333,-197.5889"/>
</g>
<!-- Node7 -->
<g id="node7" class="node">
<title>Node7</title>
<g id="a_node7"><a xlink:href="LeafTask_8hpp.html" target="_top" xlink:title=" ">
<polygon fill="#ffffff" stroke="#000000" points="222,-224.5 222,-243.5 345,-243.5 345,-224.5 222,-224.5"/>
<text text-anchor="middle" x="283.5" y="-231.5" font-family="Helvetica,sans-Serif" font-size="10.00" fill="#000000">goalmodel/LeafTask.hpp</text>
</a>
</g>
</g>
<!-- Node1&#45;&gt;Node7 -->
<g id="edge7" class="edge">
<title>Node1&#45;&gt;Node7</title>
<path fill="none" stroke="#191970" d="M215.7472,-280.2977C229.4967,-270.9022 247.0921,-258.8787 260.9057,-249.4395"/>
<polygon fill="#191970" stroke="#191970" points="263.0768,-252.195 269.3586,-243.6633 259.1275,-246.4155 263.0768,-252.195"/>
</g>
<!-- Node5 -->
<g id="node5" class="node">
<title>Node5</title>
<g id="a_node5"><a xlink:title=" ">
<polygon fill="#ffffff" stroke="#bfbfbf" points="231,-.5 231,-19.5 272,-19.5 272,-.5 231,-.5"/>
<text text-anchor="middle" x="251.5" y="-7.5" font-family="Helvetica,sans-Serif" font-size="10.00" fill="#000000">string</text>
</a>
</g>
</g>
<!-- Node4&#45;&gt;Node5 -->
<g id="edge4" class="edge">
<title>Node4&#45;&gt;Node5</title>
<path fill="none" stroke="#191970" d="M69.4295,-168.4862C100.9949,-141.0096 192.5815,-61.2866 232.5129,-26.5276"/>
<polygon fill="#191970" stroke="#191970" points="234.9649,-29.0335 240.2096,-19.8279 230.3689,-23.7536 234.9649,-29.0335"/>
</g>
<!-- Node6&#45;&gt;Node5 -->
<g id="edge6" class="edge">
<title>Node6&#45;&gt;Node5</title>
<path fill="none" stroke="#191970" d="M195.0031,-168.4124C196.4029,-147.2772 201.445,-95.4264 218.5,-56 222.8558,-45.9306 229.6872,-35.8966 236.0072,-27.7816"/>
<polygon fill="#191970" stroke="#191970" points="238.8992,-29.7741 242.5229,-19.8182 233.4816,-25.3413 238.8992,-29.7741"/>
</g>
<!-- Node7&#45;&gt;Node4 -->
<g id="edge10" class="edge">
<title>Node7&#45;&gt;Node4</title>
<path fill="none" stroke="#191970" d="M245.0768,-224.4369C206.8125,-214.9133 147.9663,-200.2672 106.6151,-189.9753"/>
<polygon fill="#191970" stroke="#191970" points="107.3141,-186.5426 96.7647,-187.5237 105.6234,-193.3353 107.3141,-186.5426"/>
</g>
<!-- Node7&#45;&gt;Node5 -->
<g id="edge8" class="edge">
<title>Node7&#45;&gt;Node5</title>
<path fill="none" stroke="#191970" d="M282.125,-224.375C277.2733,-190.4133 260.8925,-75.7472 254.2913,-29.5392"/>
<polygon fill="#191970" stroke="#191970" points="257.749,-28.9936 252.8699,-19.5891 250.8194,-29.9836 257.749,-28.9936"/>
</g>
<!-- Node7&#45;&gt;Node6 -->
<g id="edge11" class="edge">
<title>Node7&#45;&gt;Node6</title>
<path fill="none" stroke="#191970" d="M267.9974,-224.2455C254.342,-215.6534 234.2343,-203.0014 218.5011,-193.1018"/>
<polygon fill="#191970" stroke="#191970" points="220.1529,-190.006 209.825,-187.6427 216.4249,-195.9307 220.1529,-190.006"/>
</g>
<!-- Node8 -->
<g id="node8" class="node">
<title>Node8</title>
<g id="a_node8"><a xlink:title=" ">
<polygon fill="#ffffff" stroke="#bfbfbf" points="543.5,-.5 543.5,-19.5 587.5,-19.5 587.5,-.5 543.5,-.5"/>
<text text-anchor="middle" x="565.5" y="-7.5" font-family="Helvetica,sans-Serif" font-size="10.00" fill="#000000">vector</text>
</a>
</g>
</g>
<!-- Node7&#45;&gt;Node8 -->
<g id="edge9" class="edge">
<title>Node7&#45;&gt;Node8</title>
<path fill="none" stroke="#191970" d="M345.0568,-225.1401C396.3114,-216.8609 464.492,-203.4761 487.5,-188 537.8328,-154.1442 547.3328,-133.8754 565.5,-76 570.2186,-60.968 569.8684,-43.0435 568.5331,-29.6703"/>
<polygon fill="#191970" stroke="#191970" points="571.9957,-29.1529 567.2695,-19.6706 565.0509,-30.0305 571.9957,-29.1529"/>
</g>
<!-- Node9 -->
<g id="node9" class="node">
<title>Node9</title>
<g id="a_node9"><a xlink:href="Task_8hpp.html" target="_top" xlink:title=" ">
<polygon fill="#ffffff" stroke="#000000" points="374.5,-168.5 374.5,-187.5 478.5,-187.5 478.5,-168.5 374.5,-168.5"/>
<text text-anchor="middle" x="426.5" y="-175.5" font-family="Helvetica,sans-Serif" font-size="10.00" fill="#000000">goalmodel/Task.hpp</text>
</a>
</g>
</g>
<!-- Node7&#45;&gt;Node9 -->
<g id="edge12" class="edge">
<title>Node7&#45;&gt;Node9</title>
<path fill="none" stroke="#191970" d="M308.0826,-224.3733C331.4496,-215.2226 366.7862,-201.3844 392.7784,-191.2057"/>
<polygon fill="#191970" stroke="#191970" points="394.203,-194.4066 402.2382,-187.5011 391.6505,-187.8886 394.203,-194.4066"/>
</g>
<!-- Node9&#45;&gt;Node3 -->
<g id="edge21" class="edge">
<title>Node9&#45;&gt;Node3</title>
<path fill="none" stroke="#191970" d="M453.1373,-168.3512C473.9825,-160.1988 503.2368,-147.403 526.5,-132 574.0781,-100.4976 621.5005,-52.3956 645.1062,-27.0275"/>
<polygon fill="#191970" stroke="#191970" points="647.7083,-29.3686 651.9036,-19.6397 642.557,-24.6289 647.7083,-29.3686"/>
</g>
<!-- Node9&#45;&gt;Node5 -->
<g id="edge13" class="edge">
<title>Node9&#45;&gt;Node5</title>
<path fill="none" stroke="#191970" d="M408.5822,-168.3421C393.5936,-159.8213 372.0647,-146.525 355.5,-132 318.2249,-99.3149 282.4714,-53.0495 264.1684,-27.9263"/>
<polygon fill="#191970" stroke="#191970" points="266.9253,-25.7651 258.2443,-19.6913 261.2429,-29.8529 266.9253,-25.7651"/>
</g>
<!-- Node9&#45;&gt;Node8 -->
<g id="edge14" class="edge">
<title>Node9&#45;&gt;Node8</title>
<path fill="none" stroke="#191970" d="M446.1279,-168.4937C462.2324,-160.1587 485.1281,-147.0438 502.5,-132 526.8483,-110.9147 533.9162,-104.7184 548.5,-76 555.8665,-61.4938 560.2241,-43.5303 562.6798,-30.0083"/>
<polygon fill="#191970" stroke="#191970" points="566.1783,-30.2983 564.3196,-19.8678 559.268,-29.1808 566.1783,-30.2983"/>
</g>
<!-- Node10 -->
<g id="node10" class="node">
<title>Node10</title>
<g id="a_node10"><a xlink:title=" ">
<polygon fill="#ffffff" stroke="#bfbfbf" points="355,-.5 355,-19.5 414,-19.5 414,-.5 355,-.5"/>
<text text-anchor="middle" x="384.5" y="-7.5" font-family="Helvetica,sans-Serif" font-size="10.00" fill="#000000">stdexcept</text>
</a>
</g>
</g>
<!-- Node9&#45;&gt;Node10 -->
<g id="edge15" class="edge">
<title>Node9&#45;&gt;Node10</title>
<path fill="none" stroke="#191970" d="M405.7148,-168.3756C391.813,-160.6917 374.6309,-148.4793 366.5,-132 349.9309,-98.4189 364.4043,-53.7768 375.237,-28.8627"/>
<polygon fill="#191970" stroke="#191970" points="378.4206,-30.3168 379.4165,-19.7688 372.0602,-27.3935 378.4206,-30.3168"/>
</g>
<!-- Node11 -->
<g id="node11" class="node">
<title>Node11</title>
<g id="a_node11"><a xlink:href="Node_8hpp.html" target="_top" xlink:title=" ">
<polygon fill="#ffffff" stroke="#000000" points="412.5,-56.5 412.5,-75.5 518.5,-75.5 518.5,-56.5 412.5,-56.5"/>
<text text-anchor="middle" x="465.5" y="-63.5" font-family="Helvetica,sans-Serif" font-size="10.00" fill="#000000">goalmodel/Node.hpp</text>
</a>
</g>
</g>
<!-- Node9&#45;&gt;Node11 -->
<g id="edge16" class="edge">
<title>Node9&#45;&gt;Node11</title>
<path fill="none" stroke="#191970" d="M447.6216,-168.4622C461.7503,-160.8191 479.2172,-148.6199 487.5,-132 495.2039,-116.5416 487.4365,-97.7593 479.0783,-84.19"/>
<polygon fill="#191970" stroke="#191970" points="481.8709,-82.071 473.3804,-75.7337 476.0658,-85.9826 481.8709,-82.071"/>
</g>
<!-- Node12 -->
<g id="node12" class="node">
<title>Node12</title>
<g id="a_node12"><a xlink:href="Goal_8hpp.html" target="_top" xlink:title=" ">
<polygon fill="#ffffff" stroke="#000000" points="375,-112.5 375,-131.5 478,-131.5 478,-112.5 375,-112.5"/>
<text text-anchor="middle" x="426.5" y="-119.5" font-family="Helvetica,sans-Serif" font-size="10.00" fill="#000000">goalmodel/Goal.hpp</text>
</a>
</g>
</g>
<!-- Node9&#45;&gt;Node12 -->
<g id="edge22" class="edge">
<title>Node9&#45;&gt;Node12</title>
<path fill="none" stroke="#191970" d="M426.5,-168.2455C426.5,-160.9382 426.5,-150.6944 426.5,-141.7046"/>
<polygon fill="#191970" stroke="#191970" points="430.0001,-141.6426 426.5,-131.6427 423.0001,-141.6427 430.0001,-141.6426"/>
</g>
<!-- Node11&#45;&gt;Node3 -->
<g id="edge20" class="edge">
<title>Node11&#45;&gt;Node3</title>
<path fill="none" stroke="#191970" d="M499.0217,-56.3733C533.9084,-46.3545 588.361,-30.7168 624.2339,-20.4149"/>
<polygon fill="#191970" stroke="#191970" points="625.632,-23.6549 634.2774,-17.5306 623.6998,-16.9269 625.632,-23.6549"/>
</g>
<!-- Node11&#45;&gt;Node5 -->
<g id="edge17" class="edge">
<title>Node11&#45;&gt;Node5</title>
<path fill="none" stroke="#191970" d="M428.7121,-56.3733C387.4218,-45.5683 321.1569,-28.228 282.4287,-18.0935"/>
<polygon fill="#191970" stroke="#191970" points="282.8395,-14.5832 272.2792,-15.4375 281.0673,-21.3552 282.8395,-14.5832"/>
</g>
<!-- Node11&#45;&gt;Node8 -->
<g id="edge18" class="edge">
<title>Node11&#45;&gt;Node8</title>
<path fill="none" stroke="#191970" d="M482.9187,-56.2455C498.5485,-47.4928 521.7019,-34.527 539.5185,-24.5496"/>
<polygon fill="#191970" stroke="#191970" points="541.266,-27.5825 548.2809,-19.6427 537.8457,-21.475 541.266,-27.5825"/>
</g>
<!-- Node11&#45;&gt;Node10 -->
<g id="edge19" class="edge">
<title>Node11&#45;&gt;Node10</title>
<path fill="none" stroke="#191970" d="M451.3909,-56.2455C439.0791,-47.7337 421.0042,-35.2375 406.7462,-25.3801"/>
<polygon fill="#191970" stroke="#191970" points="408.6634,-22.4506 398.4474,-19.6427 404.6826,-28.2085 408.6634,-22.4506"/>
</g>
<!-- Node12&#45;&gt;Node5 -->
<g id="edge23" class="edge">
<title>Node12&#45;&gt;Node5</title>
<path fill="none" stroke="#191970" d="M411.5796,-112.4509C381.1002,-92.9441 311.4894,-48.3932 274.9232,-24.9909"/>
<polygon fill="#191970" stroke="#191970" points="276.6921,-21.9675 266.3826,-19.5249 272.9187,-27.8634 276.6921,-21.9675"/>
</g>
<!-- Node12&#45;&gt;Node8 -->
<g id="edge24" class="edge">
<title>Node12&#45;&gt;Node8</title>
<path fill="none" stroke="#191970" d="M460.4362,-112.45C481.6197,-105.1581 508.3969,-93.3689 527.5,-76 541.6697,-63.1167 551.9698,-43.6838 558.2431,-29.237"/>
<polygon fill="#191970" stroke="#191970" points="561.5707,-30.3455 562.0971,-19.7637 555.0867,-27.7076 561.5707,-30.3455"/>
</g>
<!-- Node12&#45;&gt;Node10 -->
<g id="edge25" class="edge">
<title>Node12&#45;&gt;Node10</title>
<path fill="none" stroke="#191970" d="M421.0307,-112.3666C415.9959,-103.2193 408.5625,-88.9763 403.5,-76 397.5411,-60.7262 392.5022,-42.8197 389.1139,-29.5148"/>
<polygon fill="#191970" stroke="#191970" points="392.4578,-28.4555 386.6722,-19.5799 385.6601,-30.1263 392.4578,-28.4555"/>
</g>
<!-- Node12&#45;&gt;Node11 -->
<g id="edge26" class="edge">
<title>Node12&#45;&gt;Node11</title>
<path fill="none" stroke="#191970" d="M433.2933,-112.2455C438.7178,-104.4564 446.4661,-93.3308 453.0033,-83.9439"/>
<polygon fill="#191970" stroke="#191970" points="455.9417,-85.849 458.7846,-75.6427 450.1975,-81.8485 455.9417,-85.849"/>
</g>
</g>
</svg>
