<?xml version="1.0" encoding="UTF-8" standalone="no"?>
<!DOCTYPE svg PUBLIC "-//W3C//DTD SVG 1.1//EN"
 "http://www.w3.org/Graphics/SVG/1.1/DTD/svg11.dtd">
<!-- Generated by graphviz version 2.40.1 (20161225.0304)
 -->
<!-- Title: libbsn/include/goalmodel/LeafTask.hpp Pages: 1 -->
<svg width="622pt" height="173pt"
 viewBox="0.00 0.00 622.00 173.00" xmlns="http://www.w3.org/2000/svg" xmlns:xlink="http://www.w3.org/1999/xlink">
<g id="graph0" class="graph" transform="scale(1 1) rotate(0) translate(4 169)">
<title>libbsn/include/goalmodel/LeafTask.hpp</title>
<polygon fill="#ffffff" stroke="transparent" points="-4,4 -4,-169 618,-169 618,4 -4,4"/>
<!-- Node1 -->
<g id="node1" class="node">
<title>Node1</title>
<g id="a_node1"><a xlink:title=" ">
<polygon fill="#bfbfbf" stroke="#000000" points="207.5,-134.5 207.5,-164.5 330.5,-164.5 330.5,-134.5 207.5,-134.5"/>
<text text-anchor="start" x="215.5" y="-152.5" font-family="Helvetica,sans-Serif" font-size="10.00" fill="#000000">libbsn/include/goalmodel</text>
<text text-anchor="middle" x="269" y="-141.5" font-family="Helvetica,sans-Serif" font-size="10.00" fill="#000000">/LeafTask.hpp</text>
</a>
</g>
</g>
<!-- Node2 -->
<g id="node2" class="node">
<title>Node2</title>
<g id="a_node2"><a xlink:href="GoalTree_8hpp.html" target="_top" xlink:title=" ">
<polygon fill="#ffffff" stroke="#000000" points="36.5,-67.5 36.5,-97.5 159.5,-97.5 159.5,-67.5 36.5,-67.5"/>
<text text-anchor="start" x="44.5" y="-85.5" font-family="Helvetica,sans-Serif" font-size="10.00" fill="#000000">libbsn/include/goalmodel</text>
<text text-anchor="middle" x="98" y="-74.5" font-family="Helvetica,sans-Serif" font-size="10.00" fill="#000000">/GoalTree.hpp</text>
</a>
</g>
</g>
<!-- Node1&#45;&gt;Node2 -->
<g id="edge1" class="edge">
<title>Node1&#45;&gt;Node2</title>
<path fill="none" stroke="#191970" d="M221.088,-130.7275C194.384,-120.2645 161.5723,-107.4084 136.5431,-97.6017"/>
<polygon fill="#191970" stroke="#191970" points="220.0366,-134.0745 230.6243,-134.4639 222.5903,-127.5569 220.0366,-134.0745"/>
</g>
<!-- Node4 -->
<g id="node4" class="node">
<title>Node4</title>
<g id="a_node4"><a xlink:href="GoalTreeTest_8cpp.html" target="_top" xlink:title=" ">
<polygon fill="#ffffff" stroke="#000000" points="124,-.5 124,-30.5 252,-30.5 252,-.5 124,-.5"/>
<text text-anchor="start" x="132" y="-18.5" font-family="Helvetica,sans-Serif" font-size="10.00" fill="#000000">libbsn/test/unit/goalmodel</text>
<text text-anchor="middle" x="188" y="-7.5" font-family="Helvetica,sans-Serif" font-size="10.00" fill="#000000">/GoalTreeTest.cpp</text>
</a>
</g>
</g>
<!-- Node1&#45;&gt;Node4 -->
<g id="edge5" class="edge">
<title>Node1&#45;&gt;Node4</title>
<path fill="none" stroke="#191970" d="M235.4683,-128.1669C224.9279,-119.9273 214.1796,-109.6578 207,-98 194.0515,-76.975 189.9153,-48.0155 188.6017,-30.5903"/>
<polygon fill="#191970" stroke="#191970" points="233.6822,-131.199 243.8047,-134.3274 237.8425,-125.5693 233.6822,-131.199"/>
</g>
<!-- Node5 -->
<g id="node5" class="node">
<title>Node5</title>
<g id="a_node5"><a xlink:href="LeafTask_8cpp.html" target="_top" xlink:title=" ">
<polygon fill="#ffffff" stroke="#000000" points="216,-67.5 216,-97.5 322,-97.5 322,-67.5 216,-67.5"/>
<text text-anchor="start" x="224" y="-85.5" font-family="Helvetica,sans-Serif" font-size="10.00" fill="#000000">libbsn/src/goalmodel</text>
<text text-anchor="middle" x="269" y="-74.5" font-family="Helvetica,sans-Serif" font-size="10.00" fill="#000000">/LeafTask.cpp</text>
</a>
</g>
</g>
<!-- Node1&#45;&gt;Node5 -->
<g id="edge4" class="edge">
<title>Node1&#45;&gt;Node5</title>
<path fill="none" stroke="#191970" d="M269,-124.0249C269,-115.128 269,-105.4287 269,-97.6432"/>
<polygon fill="#191970" stroke="#191970" points="265.5001,-124.2966 269,-134.2967 272.5001,-124.2967 265.5001,-124.2966"/>
</g>
<!-- Node6 -->
<g id="node6" class="node">
<title>Node6</title>
<g id="a_node6"><a xlink:href="LeafTaskTest_8cpp.html" target="_top" xlink:title=" ">
<polygon fill="#ffffff" stroke="#000000" points="340,-67.5 340,-97.5 468,-97.5 468,-67.5 340,-67.5"/>
<text text-anchor="start" x="348" y="-85.5" font-family="Helvetica,sans-Serif" font-size="10.00" fill="#000000">libbsn/test/unit/goalmodel</text>
<text text-anchor="middle" x="404" y="-74.5" font-family="Helvetica,sans-Serif" font-size="10.00" fill="#000000">/LeafTaskTest.cpp</text>
</a>
</g>
</g>
<!-- Node1&#45;&gt;Node6 -->
<g id="edge6" class="edge">
<title>Node1&#45;&gt;Node6</title>
<path fill="none" stroke="#191970" d="M308.466,-129.9132C329.1555,-119.645 354.1182,-107.2561 373.3374,-97.7177"/>
<polygon fill="#191970" stroke="#191970" points="306.6982,-126.8831 299.2966,-134.4639 309.8101,-133.1534 306.6982,-126.8831"/>
</g>
<!-- Node7 -->
<g id="node7" class="node">
<title>Node7</title>
<g id="a_node7"><a xlink:href="TaskTest_8cpp.html" target="_top" xlink:title=" ">
<polygon fill="#ffffff" stroke="#000000" points="486,-67.5 486,-97.5 614,-97.5 614,-67.5 486,-67.5"/>
<text text-anchor="start" x="494" y="-85.5" font-family="Helvetica,sans-Serif" font-size="10.00" fill="#000000">libbsn/test/unit/goalmodel</text>
<text text-anchor="middle" x="550" y="-74.5" font-family="Helvetica,sans-Serif" font-size="10.00" fill="#000000">/TaskTest.cpp</text>
</a>
</g>
</g>
<!-- Node1&#45;&gt;Node7 -->
<g id="edge7" class="edge">
<title>Node1&#45;&gt;Node7</title>
<path fill="none" stroke="#191970" d="M340.4022,-132.4753C385.6104,-121.6961 443.5272,-107.8868 487.0188,-97.5169"/>
<polygon fill="#191970" stroke="#191970" points="339.5822,-129.0726 330.6666,-134.7966 341.2058,-135.8817 339.5822,-129.0726"/>
</g>
<!-- Node3 -->
<g id="node3" class="node">
<title>Node3</title>
<g id="a_node3"><a xlink:href="GoalTree_8cpp.html" target="_top" xlink:title=" ">
<polygon fill="#ffffff" stroke="#000000" points="0,-.5 0,-30.5 106,-30.5 106,-.5 0,-.5"/>
<text text-anchor="start" x="8" y="-18.5" font-family="Helvetica,sans-Serif" font-size="10.00" fill="#000000">libbsn/src/goalmodel</text>
<text text-anchor="middle" x="53" y="-7.5" font-family="Helvetica,sans-Serif" font-size="10.00" fill="#000000">/GoalTree.cpp</text>
</a>
</g>
</g>
<!-- Node2&#45;&gt;Node3 -->
<g id="edge2" class="edge">
<title>Node2&#45;&gt;Node3</title>
<path fill="none" stroke="#191970" d="M82.0643,-58.7735C75.779,-49.4154 68.7447,-38.9421 63.1708,-30.6432"/>
<polygon fill="#191970" stroke="#191970" points="79.3077,-60.9467 87.7888,-67.2967 85.1187,-57.0438 79.3077,-60.9467"/>
</g>
<!-- Node2&#45;&gt;Node4 -->
<g id="edge3" class="edge">
<title>Node2&#45;&gt;Node4</title>
<path fill="none" stroke="#191970" d="M126.7942,-61.0643C140.1016,-51.1577 155.5913,-39.6265 167.6584,-30.6432"/>
<polygon fill="#191970" stroke="#191970" points="124.3537,-58.5177 118.4224,-67.2967 128.5338,-64.1327 124.3537,-58.5177"/>
</g>
</g>
</svg>
