<?xml version="1.0" encoding="UTF-8" standalone="no"?>
<!DOCTYPE svg PUBLIC "-//W3C//DTD SVG 1.1//EN"
 "http://www.w3.org/Graphics/SVG/1.1/DTD/svg11.dtd">
<!-- Generated by graphviz version 2.40.1 (20161225.0304)
 -->
<!-- Title: libbsn/src/generator/Markov.cpp Pages: 1 -->
<svg width="448pt" height="207pt"
 viewBox="0.00 0.00 448.00 207.00" xmlns="http://www.w3.org/2000/svg" xmlns:xlink="http://www.w3.org/1999/xlink">
<g id="graph0" class="graph" transform="scale(1 1) rotate(0) translate(4 203)">
<title>libbsn/src/generator/Markov.cpp</title>
<polygon fill="#ffffff" stroke="transparent" points="-4,4 -4,-203 444,-203 444,4 -4,4"/>
<!-- Node1 -->
<g id="node1" class="node">
<title>Node1</title>
<g id="a_node1"><a xlink:title=" ">
<polygon fill="#bfbfbf" stroke="#000000" points="193,-168.5 193,-198.5 295,-198.5 295,-168.5 193,-168.5"/>
<text text-anchor="start" x="201" y="-186.5" font-family="Helvetica,sans-Serif" font-size="10.00" fill="#000000">libbsn/src/generator</text>
<text text-anchor="middle" x="244" y="-175.5" font-family="Helvetica,sans-Serif" font-size="10.00" fill="#000000">/Markov.cpp</text>
</a>
</g>
</g>
<!-- Node2 -->
<g id="node2" class="node">
<title>Node2</title>
<g id="a_node2"><a xlink:href="Markov_8hpp.html" target="_top" xlink:title=" ">
<polygon fill="#ffffff" stroke="#000000" points="188.5,-112.5 188.5,-131.5 299.5,-131.5 299.5,-112.5 188.5,-112.5"/>
<text text-anchor="middle" x="244" y="-119.5" font-family="Helvetica,sans-Serif" font-size="10.00" fill="#000000">generator/Markov.hpp</text>
</a>
</g>
</g>
<!-- Node1&#45;&gt;Node2 -->
<g id="edge1" class="edge">
<title>Node1&#45;&gt;Node2</title>
<path fill="none" stroke="#191970" d="M244,-168.2977C244,-160.3834 244,-150.6043 244,-142.0759"/>
<polygon fill="#191970" stroke="#191970" points="247.5001,-141.8469 244,-131.8469 240.5001,-141.847 247.5001,-141.8469"/>
</g>
<!-- Node3 -->
<g id="node3" class="node">
<title>Node3</title>
<g id="a_node3"><a xlink:title=" ">
<polygon fill="#ffffff" stroke="#bfbfbf" points="0,-.5 0,-19.5 54,-19.5 54,-.5 0,-.5"/>
<text text-anchor="middle" x="27" y="-7.5" font-family="Helvetica,sans-Serif" font-size="10.00" fill="#000000">iostream</text>
</a>
</g>
</g>
<!-- Node2&#45;&gt;Node3 -->
<g id="edge2" class="edge">
<title>Node2&#45;&gt;Node3</title>
<path fill="none" stroke="#191970" d="M197.4985,-112.4849C168.2234,-105.2327 130.368,-93.474 100,-76 77.509,-63.0585 56.011,-42.2431 42.2438,-27.4512"/>
<polygon fill="#191970" stroke="#191970" points="44.7439,-24.9979 35.4335,-19.9415 39.5585,-29.7003 44.7439,-24.9979"/>
</g>
<!-- Node4 -->
<g id="node4" class="node">
<title>Node4</title>
<g id="a_node4"><a xlink:title=" ">
<polygon fill="#ffffff" stroke="#bfbfbf" points="272,-56.5 272,-75.5 310,-75.5 310,-56.5 272,-56.5"/>
<text text-anchor="middle" x="291" y="-63.5" font-family="Helvetica,sans-Serif" font-size="10.00" fill="#000000">array</text>
</a>
</g>
</g>
<!-- Node2&#45;&gt;Node4 -->
<g id="edge3" class="edge">
<title>Node2&#45;&gt;Node4</title>
<path fill="none" stroke="#191970" d="M252.1868,-112.2455C258.8589,-104.2958 268.4479,-92.8706 276.4253,-83.3656"/>
<polygon fill="#191970" stroke="#191970" points="279.1592,-85.5525 282.907,-75.6427 273.7974,-81.0524 279.1592,-85.5525"/>
</g>
<!-- Node5 -->
<g id="node5" class="node">
<title>Node5</title>
<g id="a_node5"><a xlink:title=" ">
<polygon fill="#ffffff" stroke="#bfbfbf" points="328.5,-56.5 328.5,-75.5 377.5,-75.5 377.5,-56.5 328.5,-56.5"/>
<text text-anchor="middle" x="353" y="-63.5" font-family="Helvetica,sans-Serif" font-size="10.00" fill="#000000">random</text>
</a>
</g>
</g>
<!-- Node2&#45;&gt;Node5 -->
<g id="edge4" class="edge">
<title>Node2&#45;&gt;Node5</title>
<path fill="none" stroke="#191970" d="M262.9864,-112.2455C280.1792,-103.4125 305.7238,-90.2887 325.2132,-80.2758"/>
<polygon fill="#191970" stroke="#191970" points="326.9359,-83.3257 334.2312,-75.6427 323.737,-77.0993 326.9359,-83.3257"/>
</g>
<!-- Node6 -->
<g id="node6" class="node">
<title>Node6</title>
<g id="a_node6"><a xlink:title=" ">
<polygon fill="#ffffff" stroke="#bfbfbf" points="396,-56.5 396,-75.5 440,-75.5 440,-56.5 396,-56.5"/>
<text text-anchor="middle" x="418" y="-63.5" font-family="Helvetica,sans-Serif" font-size="10.00" fill="#000000">vector</text>
</a>
</g>
</g>
<!-- Node2&#45;&gt;Node6 -->
<g id="edge5" class="edge">
<title>Node2&#45;&gt;Node6</title>
<path fill="none" stroke="#191970" d="M273.5808,-112.4923C300.5797,-103.8127 341.838,-90.5448 386.4244,-76.1838"/>
<polygon fill="#191970" stroke="#191970" points="387.5401,-79.5016 395.9853,-73.104 385.3938,-72.8387 387.5401,-79.5016"/>
</g>
<!-- Node7 -->
<g id="node7" class="node">
<title>Node7</title>
<g id="a_node7"><a xlink:title=" ">
<polygon fill="#ffffff" stroke="#bfbfbf" points="72.5,-.5 72.5,-19.5 121.5,-19.5 121.5,-.5 72.5,-.5"/>
<text text-anchor="middle" x="97" y="-7.5" font-family="Helvetica,sans-Serif" font-size="10.00" fill="#000000">stdint.h</text>
</a>
</g>
</g>
<!-- Node2&#45;&gt;Node7 -->
<g id="edge6" class="edge">
<title>Node2&#45;&gt;Node7</title>
<path fill="none" stroke="#191970" d="M188.4809,-113.8708C163.2538,-107.4983 134.8938,-96.1576 116,-76 104.3038,-63.5215 99.7496,-44.3065 98.0059,-29.8214"/>
<polygon fill="#191970" stroke="#191970" points="101.493,-29.5197 97.1486,-19.8565 94.5187,-30.1197 101.493,-29.5197"/>
</g>
<!-- Node8 -->
<g id="node8" class="node">
<title>Node8</title>
<g id="a_node8"><a xlink:title=" ">
<polygon fill="#ffffff" stroke="#bfbfbf" points="276,-.5 276,-19.5 328,-19.5 328,-.5 276,-.5"/>
<text text-anchor="middle" x="302" y="-7.5" font-family="Helvetica,sans-Serif" font-size="10.00" fill="#000000">sstream</text>
</a>
</g>
</g>
<!-- Node2&#45;&gt;Node8 -->
<g id="edge7" class="edge">
<title>Node2&#45;&gt;Node8</title>
<path fill="none" stroke="#191970" d="M245.5037,-112.112C247.8264,-98.7571 253.0909,-74.4989 263,-56 268.6359,-45.4785 276.9862,-35.2058 284.5157,-27.0467"/>
<polygon fill="#191970" stroke="#191970" points="287.2165,-29.2882 291.6407,-19.6612 282.1787,-24.428 287.2165,-29.2882"/>
</g>
<!-- Node9 -->
<g id="node9" class="node">
<title>Node9</title>
<g id="a_node9"><a xlink:href="Range_8hpp.html" target="_top" xlink:title=" ">
<polygon fill="#ffffff" stroke="#000000" points="124.5,-56.5 124.5,-75.5 215.5,-75.5 215.5,-56.5 124.5,-56.5"/>
<text text-anchor="middle" x="170" y="-63.5" font-family="Helvetica,sans-Serif" font-size="10.00" fill="#000000">range/Range.hpp</text>
</a>
</g>
</g>
<!-- Node2&#45;&gt;Node9 -->
<g id="edge8" class="edge">
<title>Node2&#45;&gt;Node9</title>
<path fill="none" stroke="#191970" d="M231.1102,-112.2455C220.0746,-103.8943 203.9708,-91.7076 191.0647,-81.9408"/>
<polygon fill="#191970" stroke="#191970" points="192.8283,-78.8862 182.7421,-75.6427 188.6041,-84.4681 192.8283,-78.8862"/>
</g>
<!-- Node9&#45;&gt;Node3 -->
<g id="edge11" class="edge">
<title>Node9&#45;&gt;Node3</title>
<path fill="none" stroke="#191970" d="M145.4174,-56.3733C122.0504,-47.2226 86.7138,-33.3844 60.7216,-23.2057"/>
<polygon fill="#191970" stroke="#191970" points="61.8495,-19.8886 51.2618,-19.5011 59.297,-26.4066 61.8495,-19.8886"/>
</g>
<!-- Node9&#45;&gt;Node7 -->
<g id="edge12" class="edge">
<title>Node9&#45;&gt;Node7</title>
<path fill="none" stroke="#191970" d="M157.2844,-56.2455C146.398,-47.8943 130.5117,-35.7076 117.78,-25.9408"/>
<polygon fill="#191970" stroke="#191970" points="119.6346,-22.9523 109.5699,-19.6427 115.3739,-28.5063 119.6346,-22.9523"/>
</g>
<!-- Node9&#45;&gt;Node8 -->
<g id="edge13" class="edge">
<title>Node9&#45;&gt;Node8</title>
<path fill="none" stroke="#191970" d="M192.6916,-56.3733C214.0711,-47.3032 246.3057,-33.6279 270.2362,-23.4755"/>
<polygon fill="#191970" stroke="#191970" points="271.7656,-26.6287 279.6045,-19.5011 269.0317,-20.1846 271.7656,-26.6287"/>
</g>
<!-- Node10 -->
<g id="node10" class="node">
<title>Node10</title>
<g id="a_node10"><a xlink:title=" ">
<polygon fill="#ffffff" stroke="#bfbfbf" points="216.5,-.5 216.5,-19.5 257.5,-19.5 257.5,-.5 216.5,-.5"/>
<text text-anchor="middle" x="237" y="-7.5" font-family="Helvetica,sans-Serif" font-size="10.00" fill="#000000">string</text>
</a>
</g>
</g>
<!-- Node9&#45;&gt;Node10 -->
<g id="edge9" class="edge">
<title>Node9&#45;&gt;Node10</title>
<path fill="none" stroke="#191970" d="M181.6705,-56.2455C191.5661,-47.9746 205.9627,-35.9416 217.5901,-26.2232"/>
<polygon fill="#191970" stroke="#191970" points="220.035,-28.7413 225.4632,-19.6427 215.5458,-23.3703 220.035,-28.7413"/>
</g>
<!-- Node11 -->
<g id="node11" class="node">
<title>Node11</title>
<g id="a_node11"><a xlink:title=" ">
<polygon fill="#ffffff" stroke="#bfbfbf" points="139.5,-.5 139.5,-19.5 198.5,-19.5 198.5,-.5 139.5,-.5"/>
<text text-anchor="middle" x="169" y="-7.5" font-family="Helvetica,sans-Serif" font-size="10.00" fill="#000000">stdexcept</text>
</a>
</g>
</g>
<!-- Node9&#45;&gt;Node11 -->
<g id="edge10" class="edge">
<title>Node9&#45;&gt;Node11</title>
<path fill="none" stroke="#191970" d="M169.8258,-56.2455C169.6953,-48.9382 169.5124,-38.6944 169.3519,-29.7046"/>
<polygon fill="#191970" stroke="#191970" points="172.8503,-29.5786 169.1722,-19.6427 165.8514,-29.7036 172.8503,-29.5786"/>
</g>
</g>
</svg>
