<?xml version="1.0" encoding="UTF-8" standalone="no"?>
<!DOCTYPE svg PUBLIC "-//W3C//DTD SVG 1.1//EN"
 "http://www.w3.org/Graphics/SVG/1.1/DTD/svg11.dtd">
<!-- Generated by graphviz version 2.40.1 (20161225.0304)
 -->
<!-- Title: libbsn/include/generator/Markov.hpp Pages: 1 -->
<svg width="320pt" height="173pt"
 viewBox="0.00 0.00 320.00 173.00" xmlns="http://www.w3.org/2000/svg" xmlns:xlink="http://www.w3.org/1999/xlink">
<g id="graph0" class="graph" transform="scale(1 1) rotate(0) translate(4 169)">
<title>libbsn/include/generator/Markov.hpp</title>
<polygon fill="#ffffff" stroke="transparent" points="-4,4 -4,-169 316,-169 316,4 -4,4"/>
<!-- Node1 -->
<g id="node1" class="node">
<title>Node1</title>
<g id="a_node1"><a xlink:title=" ">
<polygon fill="#bfbfbf" stroke="#000000" points="122.5,-134.5 122.5,-164.5 241.5,-164.5 241.5,-134.5 122.5,-134.5"/>
<text text-anchor="start" x="130.5" y="-152.5" font-family="Helvetica,sans-Serif" font-size="10.00" fill="#000000">libbsn/include/generator</text>
<text text-anchor="middle" x="182" y="-141.5" font-family="Helvetica,sans-Serif" font-size="10.00" fill="#000000">/Markov.hpp</text>
</a>
</g>
</g>
<!-- Node2 -->
<g id="node2" class="node">
<title>Node2</title>
<g id="a_node2"><a xlink:href="DataGenerator_8hpp.html" target="_top" xlink:title=" ">
<polygon fill="#ffffff" stroke="#000000" points="34.5,-67.5 34.5,-97.5 153.5,-97.5 153.5,-67.5 34.5,-67.5"/>
<text text-anchor="start" x="42.5" y="-85.5" font-family="Helvetica,sans-Serif" font-size="10.00" fill="#000000">libbsn/include/generator</text>
<text text-anchor="middle" x="94" y="-74.5" font-family="Helvetica,sans-Serif" font-size="10.00" fill="#000000">/DataGenerator.hpp</text>
</a>
</g>
</g>
<!-- Node1&#45;&gt;Node2 -->
<g id="edge1" class="edge">
<title>Node1&#45;&gt;Node2</title>
<path fill="none" stroke="#191970" d="M153.8457,-128.0643C140.834,-118.1577 125.6886,-106.6265 113.8895,-97.6432"/>
<polygon fill="#191970" stroke="#191970" points="151.9548,-131.0237 162.0314,-134.2967 156.1952,-125.4542 151.9548,-131.0237"/>
</g>
<!-- Node4 -->
<g id="node4" class="node">
<title>Node4</title>
<g id="a_node4"><a xlink:href="DataGeneratorTest_8cpp.html" target="_top" xlink:title=" ">
<polygon fill="#ffffff" stroke="#000000" points="120,-.5 120,-30.5 244,-30.5 244,-.5 120,-.5"/>
<text text-anchor="start" x="128" y="-18.5" font-family="Helvetica,sans-Serif" font-size="10.00" fill="#000000">libbsn/test/unit/generator</text>
<text text-anchor="middle" x="182" y="-7.5" font-family="Helvetica,sans-Serif" font-size="10.00" fill="#000000">/DataGeneratorTest.cpp</text>
</a>
</g>
</g>
<!-- Node1&#45;&gt;Node4 -->
<g id="edge5" class="edge">
<title>Node1&#45;&gt;Node4</title>
<path fill="none" stroke="#191970" d="M182,-124.3415C182,-96.8131 182,-53.5714 182,-30.7614"/>
<polygon fill="#191970" stroke="#191970" points="178.5001,-124.3889 182,-134.389 185.5001,-124.389 178.5001,-124.3889"/>
</g>
<!-- Node5 -->
<g id="node5" class="node">
<title>Node5</title>
<g id="a_node5"><a xlink:href="Markov_8cpp.html" target="_top" xlink:title=" ">
<polygon fill="#ffffff" stroke="#000000" points="210,-67.5 210,-97.5 312,-97.5 312,-67.5 210,-67.5"/>
<text text-anchor="start" x="218" y="-85.5" font-family="Helvetica,sans-Serif" font-size="10.00" fill="#000000">libbsn/src/generator</text>
<text text-anchor="middle" x="261" y="-74.5" font-family="Helvetica,sans-Serif" font-size="10.00" fill="#000000">/Markov.cpp</text>
</a>
</g>
</g>
<!-- Node1&#45;&gt;Node5 -->
<g id="edge4" class="edge">
<title>Node1&#45;&gt;Node5</title>
<path fill="none" stroke="#191970" d="M207.6092,-127.7808C219.2146,-117.9383 232.6532,-106.541 243.1446,-97.6432"/>
<polygon fill="#191970" stroke="#191970" points="205.289,-125.1593 199.9263,-134.2967 209.8167,-130.4978 205.289,-125.1593"/>
</g>
<!-- Node3 -->
<g id="node3" class="node">
<title>Node3</title>
<g id="a_node3"><a xlink:href="DataGenerator_8cpp.html" target="_top" xlink:title=" ">
<polygon fill="#ffffff" stroke="#000000" points="0,-.5 0,-30.5 102,-30.5 102,-.5 0,-.5"/>
<text text-anchor="start" x="8" y="-18.5" font-family="Helvetica,sans-Serif" font-size="10.00" fill="#000000">libbsn/src/generator</text>
<text text-anchor="middle" x="51" y="-7.5" font-family="Helvetica,sans-Serif" font-size="10.00" fill="#000000">/DataGenerator.cpp</text>
</a>
</g>
</g>
<!-- Node2&#45;&gt;Node3 -->
<g id="edge2" class="edge">
<title>Node2&#45;&gt;Node3</title>
<path fill="none" stroke="#191970" d="M78.7725,-58.7735C72.7666,-49.4154 66.0449,-38.9421 60.7188,-30.6432"/>
<polygon fill="#191970" stroke="#191970" points="75.8958,-60.7712 84.2426,-67.2967 81.7869,-56.9903 75.8958,-60.7712"/>
</g>
<!-- Node2&#45;&gt;Node4 -->
<g id="edge3" class="edge">
<title>Node2&#45;&gt;Node4</title>
<path fill="none" stroke="#191970" d="M122.1543,-61.0643C135.166,-51.1577 150.3114,-39.6265 162.1105,-30.6432"/>
<polygon fill="#191970" stroke="#191970" points="119.8048,-58.4542 113.9686,-67.2967 124.0452,-64.0237 119.8048,-58.4542"/>
</g>
</g>
</svg>
