<?xml version="1.0" encoding="UTF-8" standalone="no"?>
<!DOCTYPE svg PUBLIC "-//W3C//DTD SVG 1.1//EN"
 "http://www.w3.org/Graphics/SVG/1.1/DTD/svg11.dtd">
<!-- Generated by graphviz version 2.40.1 (20161225.0304)
 -->
<!-- Title: libbsn/src/filters/MovingAverage.cpp Pages: 1 -->
<svg width="244pt" height="151pt"
 viewBox="0.00 0.00 243.50 151.00" xmlns="http://www.w3.org/2000/svg" xmlns:xlink="http://www.w3.org/1999/xlink">
<g id="graph0" class="graph" transform="scale(1 1) rotate(0) translate(4 147)">
<title>libbsn/src/filters/MovingAverage.cpp</title>
<polygon fill="#ffffff" stroke="transparent" points="-4,4 -4,-147 239.5,-147 239.5,4 -4,4"/>
<!-- Node1 -->
<g id="node1" class="node">
<title>Node1</title>
<g id="a_node1"><a xlink:title=" ">
<polygon fill="#bfbfbf" stroke="#000000" points="100.5,-112.5 100.5,-142.5 206.5,-142.5 206.5,-112.5 100.5,-112.5"/>
<text text-anchor="start" x="108.5" y="-130.5" font-family="Helvetica,sans-Serif" font-size="10.00" fill="#000000">libbsn/src/filters</text>
<text text-anchor="middle" x="153.5" y="-119.5" font-family="Helvetica,sans-Serif" font-size="10.00" fill="#000000">/MovingAverage.cpp</text>
</a>
</g>
</g>
<!-- Node2 -->
<g id="node2" class="node">
<title>Node2</title>
<g id="a_node2"><a xlink:href="MovingAverage_8hpp.html" target="_top" xlink:title=" ">
<polygon fill="#ffffff" stroke="#000000" points="33.5,-56.5 33.5,-75.5 163.5,-75.5 163.5,-56.5 33.5,-56.5"/>
<text text-anchor="middle" x="98.5" y="-63.5" font-family="Helvetica,sans-Serif" font-size="10.00" fill="#000000">filters/MovingAverage.hpp</text>
</a>
</g>
</g>
<!-- Node1&#45;&gt;Node2 -->
<g id="edge1" class="edge">
<title>Node1&#45;&gt;Node2</title>
<path fill="none" stroke="#191970" d="M139.9045,-112.2977C132.1109,-103.5831 122.2953,-92.6075 114.1774,-83.5302"/>
<polygon fill="#191970" stroke="#191970" points="116.5813,-80.9678 107.3062,-75.8469 111.3635,-85.6341 116.5813,-80.9678"/>
</g>
<!-- Node7 -->
<g id="node7" class="node">
<title>Node7</title>
<g id="a_node7"><a xlink:title=" ">
<polygon fill="#ffffff" stroke="#bfbfbf" points="181.5,-56.5 181.5,-75.5 235.5,-75.5 235.5,-56.5 181.5,-56.5"/>
<text text-anchor="middle" x="208.5" y="-63.5" font-family="Helvetica,sans-Serif" font-size="10.00" fill="#000000">iostream</text>
</a>
</g>
</g>
<!-- Node1&#45;&gt;Node7 -->
<g id="edge6" class="edge">
<title>Node1&#45;&gt;Node7</title>
<path fill="none" stroke="#191970" d="M167.0955,-112.2977C174.8891,-103.5831 184.7047,-92.6075 192.8226,-83.5302"/>
<polygon fill="#191970" stroke="#191970" points="195.6365,-85.6341 199.6938,-75.8469 190.4187,-80.9678 195.6365,-85.6341"/>
</g>
<!-- Node3 -->
<g id="node3" class="node">
<title>Node3</title>
<g id="a_node3"><a xlink:title=" ">
<polygon fill="#ffffff" stroke="#bfbfbf" points="0,-.5 0,-19.5 29,-19.5 29,-.5 0,-.5"/>
<text text-anchor="middle" x="14.5" y="-7.5" font-family="Helvetica,sans-Serif" font-size="10.00" fill="#000000">list</text>
</a>
</g>
</g>
<!-- Node2&#45;&gt;Node3 -->
<g id="edge2" class="edge">
<title>Node2&#45;&gt;Node3</title>
<path fill="none" stroke="#191970" d="M83.8683,-56.2455C71.1006,-47.7337 52.3562,-35.2375 37.5701,-25.3801"/>
<polygon fill="#191970" stroke="#191970" points="39.226,-22.2775 28.964,-19.6427 35.3431,-28.1019 39.226,-22.2775"/>
</g>
<!-- Node4 -->
<g id="node4" class="node">
<title>Node4</title>
<g id="a_node4"><a xlink:title=" ">
<polygon fill="#ffffff" stroke="#bfbfbf" points="47,-.5 47,-19.5 88,-19.5 88,-.5 47,-.5"/>
<text text-anchor="middle" x="67.5" y="-7.5" font-family="Helvetica,sans-Serif" font-size="10.00" fill="#000000">string</text>
</a>
</g>
</g>
<!-- Node2&#45;&gt;Node4 -->
<g id="edge3" class="edge">
<title>Node2&#45;&gt;Node4</title>
<path fill="none" stroke="#191970" d="M93.1002,-56.2455C88.8773,-48.617 82.8827,-37.7881 77.7559,-28.5267"/>
<polygon fill="#191970" stroke="#191970" points="80.7432,-26.6965 72.8379,-19.6427 74.619,-30.0867 80.7432,-26.6965"/>
</g>
<!-- Node5 -->
<g id="node5" class="node">
<title>Node5</title>
<g id="a_node5"><a xlink:title=" ">
<polygon fill="#ffffff" stroke="#bfbfbf" points="106,-.5 106,-19.5 155,-19.5 155,-.5 106,-.5"/>
<text text-anchor="middle" x="130.5" y="-7.5" font-family="Helvetica,sans-Serif" font-size="10.00" fill="#000000">stdint.h</text>
</a>
</g>
</g>
<!-- Node2&#45;&gt;Node5 -->
<g id="edge4" class="edge">
<title>Node2&#45;&gt;Node5</title>
<path fill="none" stroke="#191970" d="M104.074,-56.2455C108.4331,-48.617 114.6211,-37.7881 119.9133,-28.5267"/>
<polygon fill="#191970" stroke="#191970" points="123.0673,-30.0616 124.9899,-19.6427 116.9896,-26.5886 123.0673,-30.0616"/>
</g>
<!-- Node6 -->
<g id="node6" class="node">
<title>Node6</title>
<g id="a_node6"><a xlink:title=" ">
<polygon fill="#ffffff" stroke="#bfbfbf" points="173.5,-.5 173.5,-19.5 225.5,-19.5 225.5,-.5 173.5,-.5"/>
<text text-anchor="middle" x="199.5" y="-7.5" font-family="Helvetica,sans-Serif" font-size="10.00" fill="#000000">sstream</text>
</a>
</g>
</g>
<!-- Node2&#45;&gt;Node6 -->
<g id="edge5" class="edge">
<title>Node2&#45;&gt;Node6</title>
<path fill="none" stroke="#191970" d="M116.0929,-56.2455C131.879,-47.4928 155.2639,-34.527 173.2587,-24.5496"/>
<polygon fill="#191970" stroke="#191970" points="175.0603,-27.5528 182.1087,-19.6427 171.6659,-21.4308 175.0603,-27.5528"/>
</g>
</g>
</svg>
