<?xml version="1.0" encoding="UTF-8" standalone="no"?>
<!DOCTYPE svg PUBLIC "-//W3C//DTD SVG 1.1//EN"
 "http://www.w3.org/Graphics/SVG/1.1/DTD/svg11.dtd">
<!-- Generated by graphviz version 2.40.1 (20161225.0304)
 -->
<!-- Title: _setup_util.rollback_env_variables Pages: 1 -->
<svg width="262pt" height="66pt"
 viewBox="0.00 0.00 262.00 66.00" xmlns="http://www.w3.org/2000/svg" xmlns:xlink="http://www.w3.org/1999/xlink">
<g id="graph0" class="graph" transform="scale(1 1) rotate(0) translate(4 62)">
<title>_setup_util.rollback_env_variables</title>
<polygon fill="#ffffff" stroke="transparent" points="-4,4 -4,-62 258,-62 258,4 -4,4"/>
<!-- Node1 -->
<g id="node1" class="node">
<title>Node1</title>
<g id="a_node1"><a xlink:title=" ">
<polygon fill="#bfbfbf" stroke="#000000" points="0,-14 0,-44 101,-44 101,-14 0,-14"/>
<text text-anchor="start" x="8" y="-32" font-family="Helvetica,sans-Serif" font-size="10.00" fill="#000000">_setup_util.rollback</text>
<text text-anchor="middle" x="50.5" y="-21" font-family="Helvetica,sans-Serif" font-size="10.00" fill="#000000">_env_variables</text>
</a>
</g>
</g>
<!-- Node2 -->
<g id="node2" class="node">
<title>Node2</title>
<g id="a_node2"><a xlink:href="namespace__setup__util.html#ad56c24837fa4eddc63c03fbc7035628f" target="_top" xlink:title=" ">
<polygon fill="#ffffff" stroke="#000000" points="137,-38.5 137,-57.5 254,-57.5 254,-38.5 137,-38.5"/>
<text text-anchor="middle" x="195.5" y="-45.5" font-family="Helvetica,sans-Serif" font-size="10.00" fill="#000000">_setup_util.assignment</text>
</a>
</g>
</g>
<!-- Node1&#45;&gt;Node2 -->
<g id="edge1" class="edge">
<title>Node1&#45;&gt;Node2</title>
<path fill="none" stroke="#191970" d="M101.214,-35.6453C109.4905,-36.7298 118.1846,-37.869 126.8066,-38.9988"/>
<polygon fill="#191970" stroke="#191970" points="126.4958,-42.4879 136.8658,-40.3169 127.4054,-35.5472 126.4958,-42.4879"/>
</g>
<!-- Node3 -->
<g id="node3" class="node">
<title>Node3</title>
<g id="a_node3"><a xlink:href="namespace__setup__util.html#abe8c95c4cfe8b1374dacd5f91d984353" target="_top" xlink:title=" ">
<polygon fill="#ffffff" stroke="#000000" points="142,-.5 142,-19.5 249,-19.5 249,-.5 142,-.5"/>
<text text-anchor="middle" x="195.5" y="-7.5" font-family="Helvetica,sans-Serif" font-size="10.00" fill="#000000">_setup_util.comment</text>
</a>
</g>
</g>
<!-- Node1&#45;&gt;Node3 -->
<g id="edge2" class="edge">
<title>Node1&#45;&gt;Node3</title>
<path fill="none" stroke="#191970" d="M101.214,-22.3547C111.0141,-21.0706 121.3997,-19.7097 131.558,-18.3786"/>
<polygon fill="#191970" stroke="#191970" points="132.1499,-21.8311 141.6104,-17.0614 131.2404,-14.8904 132.1499,-21.8311"/>
</g>
</g>
</svg>
