<?xml version="1.0" encoding="UTF-8" standalone="no"?>
<!DOCTYPE svg PUBLIC "-//W3C//DTD SVG 1.1//EN"
 "http://www.w3.org/Graphics/SVG/1.1/DTD/svg11.dtd">
<!-- Generated by graphviz version 2.40.1 (20161225.0304)
 -->
<!-- Title: _setup_util.comment Pages: 1 -->
<svg width="255pt" height="137pt"
 viewBox="0.00 0.00 255.00 137.00" xmlns="http://www.w3.org/2000/svg" xmlns:xlink="http://www.w3.org/1999/xlink">
<g id="graph0" class="graph" transform="scale(1 1) rotate(0) translate(4 133)">
<title>_setup_util.comment</title>
<polygon fill="#ffffff" stroke="transparent" points="-4,4 -4,-133 251,-133 251,4 -4,4"/>
<!-- Node1 -->
<g id="node1" class="node">
<title>Node1</title>
<g id="a_node1"><a xlink:title=" ">
<polygon fill="#bfbfbf" stroke="#000000" points="140,-55 140,-74 247,-74 247,-55 140,-55"/>
<text text-anchor="middle" x="193.5" y="-62" font-family="Helvetica,sans-Serif" font-size="10.00" fill="#000000">_setup_util.comment</text>
</a>
</g>
</g>
<!-- Node2 -->
<g id="node2" class="node">
<title>Node2</title>
<g id="a_node2"><a xlink:href="namespace__setup__util.html#a73de35ca77f260af6691470342ab49ce" target="_top" xlink:title=" ">
<polygon fill="#ffffff" stroke="#000000" points="0,-98.5 0,-128.5 104,-128.5 104,-98.5 0,-98.5"/>
<text text-anchor="start" x="8" y="-116.5" font-family="Helvetica,sans-Serif" font-size="10.00" fill="#000000">_setup_util.find_env</text>
<text text-anchor="middle" x="52" y="-105.5" font-family="Helvetica,sans-Serif" font-size="10.00" fill="#000000">_hooks</text>
</a>
</g>
</g>
<!-- Node1&#45;&gt;Node2 -->
<g id="edge1" class="edge">
<title>Node1&#45;&gt;Node2</title>
<path fill="none" stroke="#191970" d="M156.252,-77.3986C137.5866,-83.8622 114.8764,-91.7265 95.4231,-98.463"/>
<polygon fill="#191970" stroke="#191970" points="157.5773,-80.6436 165.8815,-74.064 155.2867,-74.029 157.5773,-80.6436"/>
</g>
<!-- Node3 -->
<g id="node3" class="node">
<title>Node3</title>
<g id="a_node3"><a xlink:href="namespace__setup__util.html#a832417d18b85bd1d276a87547e86f860" target="_top" xlink:title=" ">
<polygon fill="#ffffff" stroke="#000000" points="1.5,-49.5 1.5,-79.5 102.5,-79.5 102.5,-49.5 1.5,-49.5"/>
<text text-anchor="start" x="9.5" y="-67.5" font-family="Helvetica,sans-Serif" font-size="10.00" fill="#000000">_setup_util.prepend</text>
<text text-anchor="middle" x="52" y="-56.5" font-family="Helvetica,sans-Serif" font-size="10.00" fill="#000000">_env_variables</text>
</a>
</g>
</g>
<!-- Node1&#45;&gt;Node3 -->
<g id="edge2" class="edge">
<title>Node1&#45;&gt;Node3</title>
<path fill="none" stroke="#191970" d="M129.3227,-64.5C120.4844,-64.5 111.5081,-64.5 102.952,-64.5"/>
<polygon fill="#191970" stroke="#191970" points="129.6013,-68.0001 139.6013,-64.5 129.6012,-61.0001 129.6013,-68.0001"/>
</g>
<!-- Node4 -->
<g id="node4" class="node">
<title>Node4</title>
<g id="a_node4"><a xlink:href="namespace__setup__util.html#af3030db6102b5aa35cd354a2fb6cca03" target="_top" xlink:title=" ">
<polygon fill="#ffffff" stroke="#000000" points="1.5,-.5 1.5,-30.5 102.5,-30.5 102.5,-.5 1.5,-.5"/>
<text text-anchor="start" x="9.5" y="-18.5" font-family="Helvetica,sans-Serif" font-size="10.00" fill="#000000">_setup_util.rollback</text>
<text text-anchor="middle" x="52" y="-7.5" font-family="Helvetica,sans-Serif" font-size="10.00" fill="#000000">_env_variables</text>
</a>
</g>
</g>
<!-- Node1&#45;&gt;Node4 -->
<g id="edge3" class="edge">
<title>Node1&#45;&gt;Node4</title>
<path fill="none" stroke="#191970" d="M156.252,-51.6014C137.5866,-45.1378 114.8764,-37.2735 95.4231,-30.537"/>
<polygon fill="#191970" stroke="#191970" points="155.2867,-54.971 165.8815,-54.936 157.5773,-48.3564 155.2867,-54.971"/>
</g>
</g>
</svg>
