<?xml version="1.0" encoding="UTF-8" standalone="no"?>
<!DOCTYPE svg PUBLIC "-//W3C//DTD SVG 1.1//EN"
 "http://www.w3.org/Graphics/SVG/1.1/DTD/svg11.dtd">
<!-- Generated by graphviz version 2.40.1 (20161225.0304)
 -->
<!-- Title: bsn::processor::data_fuse Pages: 1 -->
<svg width="255pt" height="66pt"
 viewBox="0.00 0.00 255.00 66.00" xmlns="http://www.w3.org/2000/svg" xmlns:xlink="http://www.w3.org/1999/xlink">
<g id="graph0" class="graph" transform="scale(1 1) rotate(0) translate(4 62)">
<title>bsn::processor::data_fuse</title>
<polygon fill="#ffffff" stroke="transparent" points="-4,4 -4,-62 251,-62 251,4 -4,4"/>
<!-- Node1 -->
<g id="node1" class="node">
<title>Node1</title>
<g id="a_node1"><a xlink:title=" ">
<polygon fill="#bfbfbf" stroke="#000000" points="117,-19.5 117,-38.5 247,-38.5 247,-19.5 117,-19.5"/>
<text text-anchor="middle" x="182" y="-26.5" font-family="Helvetica,sans-Serif" font-size="10.00" fill="#000000">bsn::processor::data_fuse</text>
</a>
</g>
</g>
<!-- Node2 -->
<g id="node2" class="node">
<title>Node2</title>
<g id="a_node2"><a xlink:href="classG4T1.html#a7d7a425b2d7fbbc0aa531cbb6ee5ddd9" target="_top" xlink:title=" ">
<polygon fill="#ffffff" stroke="#000000" points="0,-38.5 0,-57.5 81,-57.5 81,-38.5 0,-38.5"/>
<text text-anchor="middle" x="40.5" y="-45.5" font-family="Helvetica,sans-Serif" font-size="10.00" fill="#000000">G4T1::process</text>
</a>
</g>
</g>
<!-- Node1&#45;&gt;Node2 -->
<g id="edge1" class="edge">
<title>Node1&#45;&gt;Node2</title>
<path fill="none" stroke="#191970" d="M106.4738,-39.1413C97.8292,-40.3021 89.2802,-41.45 81.3461,-42.5154"/>
<polygon fill="#191970" stroke="#191970" points="107.1893,-42.5768 116.6345,-37.777 106.2577,-35.639 107.1893,-42.5768"/>
</g>
<!-- Node3 -->
<g id="node3" class="node">
<title>Node3</title>
<g id="a_node3"><a xlink:href="ProcessorTest_8cpp.html#afec06e68f5f22d1fb3999d1641889d48" target="_top" xlink:title=" ">
<polygon fill="#ffffff" stroke="#000000" points="14,-.5 14,-19.5 67,-19.5 67,-.5 14,-.5"/>
<text text-anchor="middle" x="40.5" y="-7.5" font-family="Helvetica,sans-Serif" font-size="10.00" fill="#000000">TEST_F</text>
</a>
</g>
</g>
<!-- Node1&#45;&gt;Node3 -->
<g id="edge2" class="edge">
<title>Node1&#45;&gt;Node3</title>
<path fill="none" stroke="#191970" d="M106.3481,-18.8418C92.2406,-16.9475 78.3942,-15.0883 67.067,-13.5673"/>
<polygon fill="#191970" stroke="#191970" points="106.2577,-22.361 116.6345,-20.223 107.1893,-15.4232 106.2577,-22.361"/>
</g>
</g>
</svg>
