<?xml version="1.0" encoding="UTF-8" standalone="no"?>
<!DOCTYPE svg PUBLIC "-//W3C//DTD SVG 1.1//EN"
 "http://www.w3.org/Graphics/SVG/1.1/DTD/svg11.dtd">
<!-- Generated by graphviz version 2.40.1 (20161225.0304)
 -->
<!-- Title: _setup_util.find_env_hooks Pages: 1 -->
<svg width="265pt" height="66pt"
 viewBox="0.00 0.00 265.00 66.00" xmlns="http://www.w3.org/2000/svg" xmlns:xlink="http://www.w3.org/1999/xlink">
<g id="graph0" class="graph" transform="scale(1 1) rotate(0) translate(4 62)">
<title>_setup_util.find_env_hooks</title>
<polygon fill="#ffffff" stroke="transparent" points="-4,4 -4,-62 261,-62 261,4 -4,4"/>
<!-- Node1 -->
<g id="node1" class="node">
<title>Node1</title>
<g id="a_node1"><a xlink:title=" ">
<polygon fill="#bfbfbf" stroke="#000000" points="0,-14 0,-44 104,-44 104,-14 0,-14"/>
<text text-anchor="start" x="8" y="-32" font-family="Helvetica,sans-Serif" font-size="10.00" fill="#000000">_setup_util.find_env</text>
<text text-anchor="middle" x="52" y="-21" font-family="Helvetica,sans-Serif" font-size="10.00" fill="#000000">_hooks</text>
</a>
</g>
</g>
<!-- Node2 -->
<g id="node2" class="node">
<title>Node2</title>
<g id="a_node2"><a xlink:href="namespace__setup__util.html#ad56c24837fa4eddc63c03fbc7035628f" target="_top" xlink:title=" ">
<polygon fill="#ffffff" stroke="#000000" points="140,-38.5 140,-57.5 257,-57.5 257,-38.5 140,-38.5"/>
<text text-anchor="middle" x="198.5" y="-45.5" font-family="Helvetica,sans-Serif" font-size="10.00" fill="#000000">_setup_util.assignment</text>
</a>
</g>
</g>
<!-- Node1&#45;&gt;Node2 -->
<g id="edge1" class="edge">
<title>Node1&#45;&gt;Node2</title>
<path fill="none" stroke="#191970" d="M104.0629,-35.7522C112.3977,-36.8332 121.1329,-37.966 129.7835,-39.088"/>
<polygon fill="#191970" stroke="#191970" points="129.5035,-42.5809 139.8706,-40.3962 130.4038,-35.639 129.5035,-42.5809"/>
</g>
<!-- Node3 -->
<g id="node3" class="node">
<title>Node3</title>
<g id="a_node3"><a xlink:href="namespace__setup__util.html#abe8c95c4cfe8b1374dacd5f91d984353" target="_top" xlink:title=" ">
<polygon fill="#ffffff" stroke="#000000" points="145,-.5 145,-19.5 252,-19.5 252,-.5 145,-.5"/>
<text text-anchor="middle" x="198.5" y="-7.5" font-family="Helvetica,sans-Serif" font-size="10.00" fill="#000000">_setup_util.comment</text>
</a>
</g>
</g>
<!-- Node1&#45;&gt;Node3 -->
<g id="edge2" class="edge">
<title>Node1&#45;&gt;Node3</title>
<path fill="none" stroke="#191970" d="M104.0629,-22.2478C113.9321,-20.9679 124.3626,-19.6151 134.5493,-18.2939"/>
<polygon fill="#191970" stroke="#191970" points="135.1581,-21.7444 144.6249,-16.9872 134.2578,-14.8025 135.1581,-21.7444"/>
</g>
</g>
</svg>
