<?xml version="1.0" encoding="UTF-8" standalone="no"?>
<!DOCTYPE svg PUBLIC "-//W3C//DTD SVG 1.1//EN"
 "http://www.w3.org/Graphics/SVG/1.1/DTD/svg11.dtd">
<!-- Generated by graphviz version 2.40.1 (20161225.0304)
 -->
<!-- Title: _setup_util.assignment Pages: 1 -->
<svg width="402pt" height="127pt"
 viewBox="0.00 0.00 402.00 127.00" xmlns="http://www.w3.org/2000/svg" xmlns:xlink="http://www.w3.org/1999/xlink">
<g id="graph0" class="graph" transform="scale(1 1) rotate(0) translate(4 123)">
<title>_setup_util.assignment</title>
<polygon fill="#ffffff" stroke="transparent" points="-4,4 -4,-123 398,-123 398,4 -4,4"/>
<!-- Node1 -->
<g id="node1" class="node">
<title>Node1</title>
<g id="a_node1"><a xlink:title=" ">
<polygon fill="#bfbfbf" stroke="#000000" points="277,-50 277,-69 394,-69 394,-50 277,-50"/>
<text text-anchor="middle" x="335.5" y="-57" font-family="Helvetica,sans-Serif" font-size="10.00" fill="#000000">_setup_util.assignment</text>
</a>
</g>
</g>
<!-- Node2 -->
<g id="node2" class="node">
<title>Node2</title>
<g id="a_node2"><a xlink:href="namespace__setup__util.html#a73de35ca77f260af6691470342ab49ce" target="_top" xlink:title=" ">
<polygon fill="#ffffff" stroke="#000000" points="137,-88.5 137,-118.5 241,-118.5 241,-88.5 137,-88.5"/>
<text text-anchor="start" x="145" y="-106.5" font-family="Helvetica,sans-Serif" font-size="10.00" fill="#000000">_setup_util.find_env</text>
<text text-anchor="middle" x="189" y="-95.5" font-family="Helvetica,sans-Serif" font-size="10.00" fill="#000000">_hooks</text>
</a>
</g>
</g>
<!-- Node1&#45;&gt;Node2 -->
<g id="edge1" class="edge">
<title>Node1&#45;&gt;Node2</title>
<path fill="none" stroke="#191970" d="M294.0297,-71.9553C276.9623,-77.0813 257.0395,-83.0649 239.1608,-88.4346"/>
<polygon fill="#191970" stroke="#191970" points="295.1411,-75.276 303.7117,-69.0473 293.1275,-68.5718 295.1411,-75.276"/>
</g>
<!-- Node3 -->
<g id="node3" class="node">
<title>Node3</title>
<g id="a_node3"><a xlink:href="namespace__setup__util.html#ae78d86b2c4279f5b8b1acaa146c35802" target="_top" xlink:title=" ">
<polygon fill="#ffffff" stroke="#000000" points="138.5,-50 138.5,-69 239.5,-69 239.5,-50 138.5,-50"/>
<text text-anchor="middle" x="189" y="-57" font-family="Helvetica,sans-Serif" font-size="10.00" fill="#000000">_setup_util.prepend</text>
</a>
</g>
</g>
<!-- Node1&#45;&gt;Node3 -->
<g id="edge2" class="edge">
<title>Node1&#45;&gt;Node3</title>
<path fill="none" stroke="#191970" d="M266.6037,-59.5C257.551,-59.5 248.4093,-59.5 239.7344,-59.5"/>
<polygon fill="#191970" stroke="#191970" points="266.757,-63.0001 276.757,-59.5 266.7569,-56.0001 266.757,-63.0001"/>
</g>
<!-- Node5 -->
<g id="node5" class="node">
<title>Node5</title>
<g id="a_node5"><a xlink:href="namespace__setup__util.html#af3030db6102b5aa35cd354a2fb6cca03" target="_top" xlink:title=" ">
<polygon fill="#ffffff" stroke="#000000" points="138.5,-.5 138.5,-30.5 239.5,-30.5 239.5,-.5 138.5,-.5"/>
<text text-anchor="start" x="146.5" y="-18.5" font-family="Helvetica,sans-Serif" font-size="10.00" fill="#000000">_setup_util.rollback</text>
<text text-anchor="middle" x="189" y="-7.5" font-family="Helvetica,sans-Serif" font-size="10.00" fill="#000000">_env_variables</text>
</a>
</g>
</g>
<!-- Node1&#45;&gt;Node5 -->
<g id="edge4" class="edge">
<title>Node1&#45;&gt;Node5</title>
<path fill="none" stroke="#191970" d="M294.0297,-47.0447C276.9623,-41.9187 257.0395,-35.9351 239.1608,-30.5654"/>
<polygon fill="#191970" stroke="#191970" points="293.1275,-50.4282 303.7117,-49.9527 295.1411,-43.724 293.1275,-50.4282"/>
</g>
<!-- Node4 -->
<g id="node4" class="node">
<title>Node4</title>
<g id="a_node4"><a xlink:href="namespace__setup__util.html#a832417d18b85bd1d276a87547e86f860" target="_top" xlink:title=" ">
<polygon fill="#ffffff" stroke="#000000" points="0,-44.5 0,-74.5 101,-74.5 101,-44.5 0,-44.5"/>
<text text-anchor="start" x="8" y="-62.5" font-family="Helvetica,sans-Serif" font-size="10.00" fill="#000000">_setup_util.prepend</text>
<text text-anchor="middle" x="50.5" y="-51.5" font-family="Helvetica,sans-Serif" font-size="10.00" fill="#000000">_env_variables</text>
</a>
</g>
</g>
<!-- Node3&#45;&gt;Node4 -->
<g id="edge3" class="edge">
<title>Node3&#45;&gt;Node4</title>
<path fill="none" stroke="#191970" d="M128.1872,-59.5C119.2047,-59.5 110.03,-59.5 101.2797,-59.5"/>
<polygon fill="#191970" stroke="#191970" points="128.2142,-63.0001 138.2142,-59.5 128.2141,-56.0001 128.2142,-63.0001"/>
</g>
</g>
</svg>
