<?xml version="1.0" encoding="UTF-8" standalone="no"?>
<!DOCTYPE svg PUBLIC "-//W3C//DTD SVG 1.1//EN"
 "http://www.w3.org/Graphics/SVG/1.1/DTD/svg11.dtd">
<!-- Generated by graphviz version 2.40.1 (20161225.0304)
 -->
<!-- Title: libbsn/include/goalmodel/Node.hpp Pages: 1 -->
<svg width="260pt" height="95pt"
 viewBox="0.00 0.00 259.50 95.00" xmlns="http://www.w3.org/2000/svg" xmlns:xlink="http://www.w3.org/1999/xlink">
<g id="graph0" class="graph" transform="scale(1 1) rotate(0) translate(4 91)">
<title>libbsn/include/goalmodel/Node.hpp</title>
<polygon fill="#ffffff" stroke="transparent" points="-4,4 -4,-91 255.5,-91 255.5,4 -4,4"/>
<!-- Node1 -->
<g id="node1" class="node">
<title>Node1</title>
<g id="a_node1"><a xlink:title=" ">
<polygon fill="#bfbfbf" stroke="#000000" points="55,-56.5 55,-86.5 178,-86.5 178,-56.5 55,-56.5"/>
<text text-anchor="start" x="63" y="-74.5" font-family="Helvetica,sans-Serif" font-size="10.00" fill="#000000">libbsn/include/goalmodel</text>
<text text-anchor="middle" x="116.5" y="-63.5" font-family="Helvetica,sans-Serif" font-size="10.00" fill="#000000">/Node.hpp</text>
</a>
</g>
</g>
<!-- Node2 -->
<g id="node2" class="node">
<title>Node2</title>
<g id="a_node2"><a xlink:title=" ">
<polygon fill="#ffffff" stroke="#bfbfbf" points="0,-.5 0,-19.5 41,-19.5 41,-.5 0,-.5"/>
<text text-anchor="middle" x="20.5" y="-7.5" font-family="Helvetica,sans-Serif" font-size="10.00" fill="#000000">string</text>
</a>
</g>
</g>
<!-- Node1&#45;&gt;Node2 -->
<g id="edge1" class="edge">
<title>Node1&#45;&gt;Node2</title>
<path fill="none" stroke="#191970" d="M92.7697,-56.2977C77.9638,-46.8127 58.9772,-34.6495 44.1807,-25.1705"/>
<polygon fill="#191970" stroke="#191970" points="45.8925,-22.1105 35.5841,-19.6633 42.1165,-28.0047 45.8925,-22.1105"/>
</g>
<!-- Node3 -->
<g id="node3" class="node">
<title>Node3</title>
<g id="a_node3"><a xlink:title=" ">
<polygon fill="#ffffff" stroke="#bfbfbf" points="59.5,-.5 59.5,-19.5 103.5,-19.5 103.5,-.5 59.5,-.5"/>
<text text-anchor="middle" x="81.5" y="-7.5" font-family="Helvetica,sans-Serif" font-size="10.00" fill="#000000">vector</text>
</a>
</g>
</g>
<!-- Node1&#45;&gt;Node3 -->
<g id="edge2" class="edge">
<title>Node1&#45;&gt;Node3</title>
<path fill="none" stroke="#191970" d="M107.8483,-56.2977C103.0912,-47.9388 97.1502,-37.4997 92.1143,-28.6509"/>
<polygon fill="#191970" stroke="#191970" points="95.0921,-26.8069 87.1039,-19.8469 89.0083,-30.2692 95.0921,-26.8069"/>
</g>
<!-- Node4 -->
<g id="node4" class="node">
<title>Node4</title>
<g id="a_node4"><a xlink:title=" ">
<polygon fill="#ffffff" stroke="#bfbfbf" points="122,-.5 122,-19.5 181,-19.5 181,-.5 122,-.5"/>
<text text-anchor="middle" x="151.5" y="-7.5" font-family="Helvetica,sans-Serif" font-size="10.00" fill="#000000">stdexcept</text>
</a>
</g>
</g>
<!-- Node1&#45;&gt;Node4 -->
<g id="edge3" class="edge">
<title>Node1&#45;&gt;Node4</title>
<path fill="none" stroke="#191970" d="M125.1517,-56.2977C129.9088,-47.9388 135.8498,-37.4997 140.8857,-28.6509"/>
<polygon fill="#191970" stroke="#191970" points="143.9917,-30.2692 145.8961,-19.8469 137.9079,-26.8069 143.9917,-30.2692"/>
</g>
<!-- Node5 -->
<g id="node5" class="node">
<title>Node5</title>
<g id="a_node5"><a xlink:title=" ">
<polygon fill="#ffffff" stroke="#bfbfbf" points="199.5,-.5 199.5,-19.5 251.5,-19.5 251.5,-.5 199.5,-.5"/>
<text text-anchor="middle" x="225.5" y="-7.5" font-family="Helvetica,sans-Serif" font-size="10.00" fill="#000000">memory</text>
</a>
</g>
</g>
<!-- Node1&#45;&gt;Node5 -->
<g id="edge4" class="edge">
<title>Node1&#45;&gt;Node5</title>
<path fill="none" stroke="#191970" d="M143.1644,-56.4554C160.3941,-46.734 182.6975,-34.15 199.7446,-24.5317"/>
<polygon fill="#191970" stroke="#191970" points="201.6194,-27.4926 208.6089,-19.5303 198.1796,-21.3961 201.6194,-27.4926"/>
</g>
</g>
</svg>
