<?xml version="1.0" encoding="UTF-8" standalone="no"?>
<!DOCTYPE svg PUBLIC "-//W3C//DTD SVG 1.1//EN"
 "http://www.w3.org/Graphics/SVG/1.1/DTD/svg11.dtd">
<!-- Generated by graphviz version 2.40.1 (20161225.0304)
 -->
<!-- Title: libbsn/src/goalmodel/Node.cpp Pages: 1 -->
<svg width="316pt" height="151pt"
 viewBox="0.00 0.00 315.50 151.00" xmlns="http://www.w3.org/2000/svg" xmlns:xlink="http://www.w3.org/1999/xlink">
<g id="graph0" class="graph" transform="scale(1 1) rotate(0) translate(4 147)">
<title>libbsn/src/goalmodel/Node.cpp</title>
<polygon fill="#ffffff" stroke="transparent" points="-4,4 -4,-147 311.5,-147 311.5,4 -4,4"/>
<!-- Node1 -->
<g id="node1" class="node">
<title>Node1</title>
<g id="a_node1"><a xlink:title=" ">
<polygon fill="#bfbfbf" stroke="#000000" points="172.5,-112.5 172.5,-142.5 278.5,-142.5 278.5,-112.5 172.5,-112.5"/>
<text text-anchor="start" x="180.5" y="-130.5" font-family="Helvetica,sans-Serif" font-size="10.00" fill="#000000">libbsn/src/goalmodel</text>
<text text-anchor="middle" x="225.5" y="-119.5" font-family="Helvetica,sans-Serif" font-size="10.00" fill="#000000">/Node.cpp</text>
</a>
</g>
</g>
<!-- Node2 -->
<g id="node2" class="node">
<title>Node2</title>
<g id="a_node2"><a xlink:href="Node_8hpp.html" target="_top" xlink:title=" ">
<polygon fill="#ffffff" stroke="#000000" points="91.5,-56.5 91.5,-75.5 197.5,-75.5 197.5,-56.5 91.5,-56.5"/>
<text text-anchor="middle" x="144.5" y="-63.5" font-family="Helvetica,sans-Serif" font-size="10.00" fill="#000000">goalmodel/Node.hpp</text>
</a>
</g>
</g>
<!-- Node1&#45;&gt;Node2 -->
<g id="edge1" class="edge">
<title>Node1&#45;&gt;Node2</title>
<path fill="none" stroke="#191970" d="M205.4775,-112.2977C193.414,-103.1384 178.0612,-91.4816 165.7789,-82.1562"/>
<polygon fill="#191970" stroke="#191970" points="167.5501,-79.1065 157.4691,-75.8469 163.3171,-84.6816 167.5501,-79.1065"/>
</g>
<!-- Node6 -->
<g id="node6" class="node">
<title>Node6</title>
<g id="a_node6"><a xlink:title=" ">
<polygon fill="#ffffff" stroke="#bfbfbf" points="199.5,-.5 199.5,-19.5 251.5,-19.5 251.5,-.5 199.5,-.5"/>
<text text-anchor="middle" x="225.5" y="-7.5" font-family="Helvetica,sans-Serif" font-size="10.00" fill="#000000">memory</text>
</a>
</g>
</g>
<!-- Node1&#45;&gt;Node6 -->
<g id="edge7" class="edge">
<title>Node1&#45;&gt;Node6</title>
<path fill="none" stroke="#191970" d="M225.5,-112.1389C225.5,-90.9692 225.5,-52.8174 225.5,-29.6112"/>
<polygon fill="#191970" stroke="#191970" points="229.0001,-29.5594 225.5,-19.5595 222.0001,-29.5595 229.0001,-29.5594"/>
</g>
<!-- Node7 -->
<g id="node7" class="node">
<title>Node7</title>
<g id="a_node7"><a xlink:title=" ">
<polygon fill="#ffffff" stroke="#bfbfbf" points="253.5,-56.5 253.5,-75.5 307.5,-75.5 307.5,-56.5 253.5,-56.5"/>
<text text-anchor="middle" x="280.5" y="-63.5" font-family="Helvetica,sans-Serif" font-size="10.00" fill="#000000">iostream</text>
</a>
</g>
</g>
<!-- Node1&#45;&gt;Node7 -->
<g id="edge6" class="edge">
<title>Node1&#45;&gt;Node7</title>
<path fill="none" stroke="#191970" d="M239.0955,-112.2977C246.8891,-103.5831 256.7047,-92.6075 264.8226,-83.5302"/>
<polygon fill="#191970" stroke="#191970" points="267.6365,-85.6341 271.6938,-75.8469 262.4187,-80.9678 267.6365,-85.6341"/>
</g>
<!-- Node3 -->
<g id="node3" class="node">
<title>Node3</title>
<g id="a_node3"><a xlink:title=" ">
<polygon fill="#ffffff" stroke="#bfbfbf" points="0,-.5 0,-19.5 41,-19.5 41,-.5 0,-.5"/>
<text text-anchor="middle" x="20.5" y="-7.5" font-family="Helvetica,sans-Serif" font-size="10.00" fill="#000000">string</text>
</a>
</g>
</g>
<!-- Node2&#45;&gt;Node3 -->
<g id="edge2" class="edge">
<title>Node2&#45;&gt;Node3</title>
<path fill="none" stroke="#191970" d="M123.1836,-56.3733C103.1578,-47.3293 72.9934,-33.7067 50.5333,-23.5634"/>
<polygon fill="#191970" stroke="#191970" points="51.6805,-20.2412 41.1262,-19.315 48.7993,-26.6208 51.6805,-20.2412"/>
</g>
<!-- Node4 -->
<g id="node4" class="node">
<title>Node4</title>
<g id="a_node4"><a xlink:title=" ">
<polygon fill="#ffffff" stroke="#bfbfbf" points="59.5,-.5 59.5,-19.5 103.5,-19.5 103.5,-.5 59.5,-.5"/>
<text text-anchor="middle" x="81.5" y="-7.5" font-family="Helvetica,sans-Serif" font-size="10.00" fill="#000000">vector</text>
</a>
</g>
</g>
<!-- Node2&#45;&gt;Node4 -->
<g id="edge3" class="edge">
<title>Node2&#45;&gt;Node4</title>
<path fill="none" stroke="#191970" d="M133.5262,-56.2455C124.3118,-48.0549 110.9468,-36.1749 100.0703,-26.5069"/>
<polygon fill="#191970" stroke="#191970" points="102.1474,-23.6704 92.348,-19.6427 97.4968,-28.9023 102.1474,-23.6704"/>
</g>
<!-- Node5 -->
<g id="node5" class="node">
<title>Node5</title>
<g id="a_node5"><a xlink:title=" ">
<polygon fill="#ffffff" stroke="#bfbfbf" points="122,-.5 122,-19.5 181,-19.5 181,-.5 122,-.5"/>
<text text-anchor="middle" x="151.5" y="-7.5" font-family="Helvetica,sans-Serif" font-size="10.00" fill="#000000">stdexcept</text>
</a>
</g>
</g>
<!-- Node2&#45;&gt;Node5 -->
<g id="edge4" class="edge">
<title>Node2&#45;&gt;Node5</title>
<path fill="none" stroke="#191970" d="M145.7193,-56.2455C146.6327,-48.9382 147.9132,-38.6944 149.0369,-29.7046"/>
<polygon fill="#191970" stroke="#191970" points="152.5272,-29.9996 150.2947,-19.6427 145.5813,-29.1313 152.5272,-29.9996"/>
</g>
<!-- Node2&#45;&gt;Node6 -->
<g id="edge5" class="edge">
<title>Node2&#45;&gt;Node6</title>
<path fill="none" stroke="#191970" d="M158.6091,-56.2455C170.9209,-47.7337 188.9958,-35.2375 203.2538,-25.3801"/>
<polygon fill="#191970" stroke="#191970" points="205.3174,-28.2085 211.5526,-19.6427 201.3366,-22.4506 205.3174,-28.2085"/>
</g>
</g>
</svg>
