<?xml version="1.0" encoding="UTF-8" standalone="no"?>
<!DOCTYPE svg PUBLIC "-//W3C//DTD SVG 1.1//EN"
 "http://www.w3.org/Graphics/SVG/1.1/DTD/svg11.dtd">
<!-- Generated by graphviz version 2.40.1 (20161225.0304)
 -->
<!-- Title: libbsn/test/unit/goalmodel/NodeTest.cpp Pages: 1 -->
<svg width="333pt" height="151pt"
 viewBox="0.00 0.00 333.00 151.00" xmlns="http://www.w3.org/2000/svg" xmlns:xlink="http://www.w3.org/1999/xlink">
<g id="graph0" class="graph" transform="scale(1 1) rotate(0) translate(4 147)">
<title>libbsn/test/unit/goalmodel/NodeTest.cpp</title>
<polygon fill="#ffffff" stroke="transparent" points="-4,4 -4,-147 329,-147 329,4 -4,4"/>
<!-- Node1 -->
<g id="node1" class="node">
<title>Node1</title>
<g id="a_node1"><a xlink:title=" ">
<polygon fill="#bfbfbf" stroke="#000000" points="35.5,-112.5 35.5,-142.5 163.5,-142.5 163.5,-112.5 35.5,-112.5"/>
<text text-anchor="start" x="43.5" y="-130.5" font-family="Helvetica,sans-Serif" font-size="10.00" fill="#000000">libbsn/test/unit/goalmodel</text>
<text text-anchor="middle" x="99.5" y="-119.5" font-family="Helvetica,sans-Serif" font-size="10.00" fill="#000000">/NodeTest.cpp</text>
</a>
</g>
</g>
<!-- Node2 -->
<g id="node2" class="node">
<title>Node2</title>
<g id="a_node2"><a xlink:title=" ">
<polygon fill="#ffffff" stroke="#bfbfbf" points="0,-56.5 0,-75.5 71,-75.5 71,-56.5 0,-56.5"/>
<text text-anchor="middle" x="35.5" y="-63.5" font-family="Helvetica,sans-Serif" font-size="10.00" fill="#000000">gtest/gtest.h</text>
</a>
</g>
</g>
<!-- Node1&#45;&gt;Node2 -->
<g id="edge1" class="edge">
<title>Node1&#45;&gt;Node2</title>
<path fill="none" stroke="#191970" d="M83.6798,-112.2977C74.4258,-103.4052 62.7219,-92.1586 53.167,-82.9769"/>
<polygon fill="#191970" stroke="#191970" points="55.3828,-80.2521 45.7472,-75.8469 50.5326,-85.2995 55.3828,-80.2521"/>
</g>
<!-- Node3 -->
<g id="node3" class="node">
<title>Node3</title>
<g id="a_node3"><a xlink:title=" ">
<polygon fill="#ffffff" stroke="#bfbfbf" points="73.5,-.5 73.5,-19.5 125.5,-19.5 125.5,-.5 73.5,-.5"/>
<text text-anchor="middle" x="99.5" y="-7.5" font-family="Helvetica,sans-Serif" font-size="10.00" fill="#000000">memory</text>
</a>
</g>
</g>
<!-- Node1&#45;&gt;Node3 -->
<g id="edge2" class="edge">
<title>Node1&#45;&gt;Node3</title>
<path fill="none" stroke="#191970" d="M99.5,-112.1389C99.5,-90.9692 99.5,-52.8174 99.5,-29.6112"/>
<polygon fill="#191970" stroke="#191970" points="103.0001,-29.5594 99.5,-19.5595 96.0001,-29.5595 103.0001,-29.5594"/>
</g>
<!-- Node4 -->
<g id="node4" class="node">
<title>Node4</title>
<g id="a_node4"><a xlink:href="Node_8hpp.html" target="_top" xlink:title=" ">
<polygon fill="#ffffff" stroke="#000000" points="127.5,-56.5 127.5,-75.5 233.5,-75.5 233.5,-56.5 127.5,-56.5"/>
<text text-anchor="middle" x="180.5" y="-63.5" font-family="Helvetica,sans-Serif" font-size="10.00" fill="#000000">goalmodel/Node.hpp</text>
</a>
</g>
</g>
<!-- Node1&#45;&gt;Node4 -->
<g id="edge3" class="edge">
<title>Node1&#45;&gt;Node4</title>
<path fill="none" stroke="#191970" d="M119.5225,-112.2977C131.586,-103.1384 146.9388,-91.4816 159.2211,-82.1562"/>
<polygon fill="#191970" stroke="#191970" points="161.6829,-84.6816 167.5309,-75.8469 157.4499,-79.1065 161.6829,-84.6816"/>
</g>
<!-- Node4&#45;&gt;Node3 -->
<g id="edge7" class="edge">
<title>Node4&#45;&gt;Node3</title>
<path fill="none" stroke="#191970" d="M166.3909,-56.2455C154.0791,-47.7337 136.0042,-35.2375 121.7462,-25.3801"/>
<polygon fill="#191970" stroke="#191970" points="123.6634,-22.4506 113.4474,-19.6427 119.6826,-28.2085 123.6634,-22.4506"/>
</g>
<!-- Node5 -->
<g id="node5" class="node">
<title>Node5</title>
<g id="a_node5"><a xlink:title=" ">
<polygon fill="#ffffff" stroke="#bfbfbf" points="144,-.5 144,-19.5 185,-19.5 185,-.5 144,-.5"/>
<text text-anchor="middle" x="164.5" y="-7.5" font-family="Helvetica,sans-Serif" font-size="10.00" fill="#000000">string</text>
</a>
</g>
</g>
<!-- Node4&#45;&gt;Node5 -->
<g id="edge4" class="edge">
<title>Node4&#45;&gt;Node5</title>
<path fill="none" stroke="#191970" d="M177.713,-56.2455C175.6023,-48.8579 172.634,-38.4689 170.0453,-29.4087"/>
<polygon fill="#191970" stroke="#191970" points="173.3677,-28.2964 167.255,-19.6427 166.637,-30.2195 173.3677,-28.2964"/>
</g>
<!-- Node6 -->
<g id="node6" class="node">
<title>Node6</title>
<g id="a_node6"><a xlink:title=" ">
<polygon fill="#ffffff" stroke="#bfbfbf" points="203.5,-.5 203.5,-19.5 247.5,-19.5 247.5,-.5 203.5,-.5"/>
<text text-anchor="middle" x="225.5" y="-7.5" font-family="Helvetica,sans-Serif" font-size="10.00" fill="#000000">vector</text>
</a>
</g>
</g>
<!-- Node4&#45;&gt;Node6 -->
<g id="edge5" class="edge">
<title>Node4&#45;&gt;Node6</title>
<path fill="none" stroke="#191970" d="M188.3384,-56.2455C194.662,-48.3761 203.7224,-37.101 211.3136,-27.6542"/>
<polygon fill="#191970" stroke="#191970" points="214.2158,-29.6302 217.7514,-19.6427 208.7592,-25.2454 214.2158,-29.6302"/>
</g>
<!-- Node7 -->
<g id="node7" class="node">
<title>Node7</title>
<g id="a_node7"><a xlink:title=" ">
<polygon fill="#ffffff" stroke="#bfbfbf" points="266,-.5 266,-19.5 325,-19.5 325,-.5 266,-.5"/>
<text text-anchor="middle" x="295.5" y="-7.5" font-family="Helvetica,sans-Serif" font-size="10.00" fill="#000000">stdexcept</text>
</a>
</g>
</g>
<!-- Node4&#45;&gt;Node7 -->
<g id="edge6" class="edge">
<title>Node4&#45;&gt;Node7</title>
<path fill="none" stroke="#191970" d="M200.2692,-56.3733C218.6469,-47.4241 246.2312,-33.9917 266.9893,-23.8835"/>
<polygon fill="#191970" stroke="#191970" points="268.5304,-27.026 275.9888,-19.5011 265.4657,-20.7325 268.5304,-27.026"/>
</g>
</g>
</svg>
