<?xml version="1.0" encoding="UTF-8" standalone="no"?>
<!DOCTYPE svg PUBLIC "-//W3C//DTD SVG 1.1//EN"
 "http://www.w3.org/Graphics/SVG/1.1/DTD/svg11.dtd">
<!-- Generated by graphviz version 2.40.1 (20161225.0304)
 -->
<!-- Title: libbsn/include/goalmodel/Node.hpp Pages: 1 -->
<svg width="1008pt" height="374pt"
 viewBox="0.00 0.00 1007.50 374.00" xmlns="http://www.w3.org/2000/svg" xmlns:xlink="http://www.w3.org/1999/xlink">
<g id="graph0" class="graph" transform="scale(1 1) rotate(0) translate(4 370)">
<title>libbsn/include/goalmodel/Node.hpp</title>
<polygon fill="#ffffff" stroke="transparent" points="-4,4 -4,-370 1003.5,-370 1003.5,4 -4,4"/>
<!-- Node1 -->
<g id="node1" class="node">
<title>Node1</title>
<g id="a_node1"><a xlink:title=" ">
<polygon fill="#bfbfbf" stroke="#000000" points="566,-335.5 566,-365.5 689,-365.5 689,-335.5 566,-335.5"/>
<text text-anchor="start" x="574" y="-353.5" font-family="Helvetica,sans-Serif" font-size="10.00" fill="#000000">libbsn/include/goalmodel</text>
<text text-anchor="middle" x="627.5" y="-342.5" font-family="Helvetica,sans-Serif" font-size="10.00" fill="#000000">/Node.hpp</text>
</a>
</g>
</g>
<!-- Node2 -->
<g id="node2" class="node">
<title>Node2</title>
<g id="a_node2"><a xlink:href="Goal_8hpp.html" target="_top" xlink:title=" ">
<polygon fill="#ffffff" stroke="#000000" points="436,-268.5 436,-298.5 559,-298.5 559,-268.5 436,-268.5"/>
<text text-anchor="start" x="444" y="-286.5" font-family="Helvetica,sans-Serif" font-size="10.00" fill="#000000">libbsn/include/goalmodel</text>
<text text-anchor="middle" x="497.5" y="-275.5" font-family="Helvetica,sans-Serif" font-size="10.00" fill="#000000">/Goal.hpp</text>
</a>
</g>
</g>
<!-- Node1&#45;&gt;Node2 -->
<g id="edge1" class="edge">
<title>Node1&#45;&gt;Node2</title>
<path fill="none" stroke="#191970" d="M589.2262,-330.7743C569.356,-320.5335 545.4509,-308.2132 527.027,-298.7177"/>
<polygon fill="#191970" stroke="#191970" points="587.8331,-333.9938 598.3255,-335.4639 591.04,-327.7715 587.8331,-333.9938"/>
</g>
<!-- Node3 -->
<g id="node3" class="node">
<title>Node3</title>
<g id="a_node3"><a xlink:href="GoalTree_8hpp.html" target="_top" xlink:title=" ">
<polygon fill="#ffffff" stroke="#000000" points="0,-67.5 0,-97.5 123,-97.5 123,-67.5 0,-67.5"/>
<text text-anchor="start" x="8" y="-85.5" font-family="Helvetica,sans-Serif" font-size="10.00" fill="#000000">libbsn/include/goalmodel</text>
<text text-anchor="middle" x="61.5" y="-74.5" font-family="Helvetica,sans-Serif" font-size="10.00" fill="#000000">/GoalTree.hpp</text>
</a>
</g>
</g>
<!-- Node1&#45;&gt;Node3 -->
<g id="edge20" class="edge">
<title>Node1&#45;&gt;Node3</title>
<path fill="none" stroke="#191970" d="M555.8043,-346.7908C457.0474,-338.7238 276.8293,-313.1329 148.5,-232 114.2075,-210.3194 106.6747,-200.1995 86.5,-165 74.0716,-143.3158 67.2196,-114.8146 63.9574,-97.6183"/>
<polygon fill="#191970" stroke="#191970" points="555.7356,-350.296 565.9772,-347.5831 556.2792,-343.3171 555.7356,-350.296"/>
</g>
<!-- Node6 -->
<g id="node6" class="node">
<title>Node6</title>
<g id="a_node6"><a xlink:href="Task_8hpp.html" target="_top" xlink:title=" ">
<polygon fill="#ffffff" stroke="#000000" points="222,-201.5 222,-231.5 345,-231.5 345,-201.5 222,-201.5"/>
<text text-anchor="start" x="230" y="-219.5" font-family="Helvetica,sans-Serif" font-size="10.00" fill="#000000">libbsn/include/goalmodel</text>
<text text-anchor="middle" x="283.5" y="-208.5" font-family="Helvetica,sans-Serif" font-size="10.00" fill="#000000">/Task.hpp</text>
</a>
</g>
</g>
<!-- Node1&#45;&gt;Node6 -->
<g id="edge21" class="edge">
<title>Node1&#45;&gt;Node6</title>
<path fill="none" stroke="#191970" d="M555.595,-336.8836C516.8396,-328.3357 468.6617,-315.7346 427.5,-299 381.8588,-280.4443 332.9412,-249.8678 305.4885,-231.6088"/>
<polygon fill="#191970" stroke="#191970" points="555.2335,-340.3863 565.7472,-339.0782 556.7125,-333.5443 555.2335,-340.3863"/>
</g>
<!-- Node10 -->
<g id="node10" class="node">
<title>Node10</title>
<g id="a_node10"><a xlink:href="TaskTest_8cpp.html" target="_top" xlink:title=" ">
<polygon fill="#ffffff" stroke="#000000" points="525.5,-67.5 525.5,-97.5 653.5,-97.5 653.5,-67.5 525.5,-67.5"/>
<text text-anchor="start" x="533.5" y="-85.5" font-family="Helvetica,sans-Serif" font-size="10.00" fill="#000000">libbsn/test/unit/goalmodel</text>
<text text-anchor="middle" x="589.5" y="-74.5" font-family="Helvetica,sans-Serif" font-size="10.00" fill="#000000">/TaskTest.cpp</text>
</a>
</g>
</g>
<!-- Node1&#45;&gt;Node10 -->
<g id="edge25" class="edge">
<title>Node1&#45;&gt;Node10</title>
<path fill="none" stroke="#191970" d="M651.5398,-327.9888C679.2651,-299.1543 718.8209,-247.3582 700.5,-201 682.6798,-155.9088 638.6983,-117.9161 611.7541,-97.8382"/>
<polygon fill="#191970" stroke="#191970" points="648.9961,-325.5833 644.4402,-335.1486 653.9667,-330.5121 648.9961,-325.5833"/>
</g>
<!-- Node13 -->
<g id="node13" class="node">
<title>Node13</title>
<g id="a_node13"><a xlink:href="GoalTest_8cpp.html" target="_top" xlink:title=" ">
<polygon fill="#ffffff" stroke="#000000" points="563.5,-201.5 563.5,-231.5 691.5,-231.5 691.5,-201.5 563.5,-201.5"/>
<text text-anchor="start" x="571.5" y="-219.5" font-family="Helvetica,sans-Serif" font-size="10.00" fill="#000000">libbsn/test/unit/goalmodel</text>
<text text-anchor="middle" x="627.5" y="-208.5" font-family="Helvetica,sans-Serif" font-size="10.00" fill="#000000">/GoalTest.cpp</text>
</a>
</g>
</g>
<!-- Node1&#45;&gt;Node13 -->
<g id="edge23" class="edge">
<title>Node1&#45;&gt;Node13</title>
<path fill="none" stroke="#191970" d="M627.5,-325.3415C627.5,-297.8131 627.5,-254.5714 627.5,-231.7614"/>
<polygon fill="#191970" stroke="#191970" points="624.0001,-325.3889 627.5,-335.389 631.0001,-325.389 624.0001,-325.3889"/>
</g>
<!-- Node14 -->
<g id="node14" class="node">
<title>Node14</title>
<g id="a_node14"><a xlink:href="Node_8cpp.html" target="_top" xlink:title=" ">
<polygon fill="#ffffff" stroke="#000000" points="747.5,-268.5 747.5,-298.5 853.5,-298.5 853.5,-268.5 747.5,-268.5"/>
<text text-anchor="start" x="755.5" y="-286.5" font-family="Helvetica,sans-Serif" font-size="10.00" fill="#000000">libbsn/src/goalmodel</text>
<text text-anchor="middle" x="800.5" y="-275.5" font-family="Helvetica,sans-Serif" font-size="10.00" fill="#000000">/Node.cpp</text>
</a>
</g>
</g>
<!-- Node1&#45;&gt;Node14 -->
<g id="edge22" class="edge">
<title>Node1&#45;&gt;Node14</title>
<path fill="none" stroke="#191970" d="M675.9724,-331.7275C702.9887,-321.2645 736.1842,-308.4084 761.5061,-298.6017"/>
<polygon fill="#191970" stroke="#191970" points="674.3856,-328.5886 666.3246,-335.4639 676.9137,-335.1162 674.3856,-328.5886"/>
</g>
<!-- Node15 -->
<g id="node15" class="node">
<title>Node15</title>
<g id="a_node15"><a xlink:href="NodeTest_8cpp.html" target="_top" xlink:title=" ">
<polygon fill="#ffffff" stroke="#000000" points="871.5,-268.5 871.5,-298.5 999.5,-298.5 999.5,-268.5 871.5,-268.5"/>
<text text-anchor="start" x="879.5" y="-286.5" font-family="Helvetica,sans-Serif" font-size="10.00" fill="#000000">libbsn/test/unit/goalmodel</text>
<text text-anchor="middle" x="935.5" y="-275.5" font-family="Helvetica,sans-Serif" font-size="10.00" fill="#000000">/NodeTest.cpp</text>
</a>
</g>
</g>
<!-- Node1&#45;&gt;Node15 -->
<g id="edge24" class="edge">
<title>Node1&#45;&gt;Node15</title>
<path fill="none" stroke="#191970" d="M698.9295,-334.9618C751.0353,-323.6271 821.0475,-308.3971 871.368,-297.4508"/>
<polygon fill="#191970" stroke="#191970" points="698.1156,-331.5569 689.0881,-337.1026 699.6036,-338.3969 698.1156,-331.5569"/>
</g>
<!-- Node2&#45;&gt;Node3 -->
<g id="edge2" class="edge">
<title>Node2&#45;&gt;Node3</title>
<path fill="none" stroke="#191970" d="M425.9812,-278.8308C366.9155,-273.0551 281.8284,-260.2443 212.5,-232 163.2973,-211.9549 150.4515,-203.1746 113.5,-165 93.7175,-144.5627 77.505,-115.4196 68.6965,-97.7986"/>
<polygon fill="#191970" stroke="#191970" points="425.6804,-282.3179 435.9629,-279.7642 426.3322,-275.3483 425.6804,-282.3179"/>
</g>
<!-- Node5 -->
<g id="node5" class="node">
<title>Node5</title>
<g id="a_node5"><a xlink:href="GoalTreeTest_8cpp.html" target="_top" xlink:title=" ">
<polygon fill="#ffffff" stroke="#000000" points="376.5,-.5 376.5,-30.5 504.5,-30.5 504.5,-.5 376.5,-.5"/>
<text text-anchor="start" x="384.5" y="-18.5" font-family="Helvetica,sans-Serif" font-size="10.00" fill="#000000">libbsn/test/unit/goalmodel</text>
<text text-anchor="middle" x="440.5" y="-7.5" font-family="Helvetica,sans-Serif" font-size="10.00" fill="#000000">/GoalTreeTest.cpp</text>
</a>
</g>
</g>
<!-- Node2&#45;&gt;Node5 -->
<g id="edge18" class="edge">
<title>Node2&#45;&gt;Node5</title>
<path fill="none" stroke="#191970" d="M494.8483,-258.1878C490.2037,-217.3986 479.2626,-134.8355 460.5,-67 457.0226,-54.4276 451.5954,-40.6787 447.2715,-30.5516"/>
<polygon fill="#191970" stroke="#191970" points="491.3897,-258.7556 495.9682,-268.31 498.3472,-257.9858 491.3897,-258.7556"/>
</g>
<!-- Node2&#45;&gt;Node6 -->
<g id="edge5" class="edge">
<title>Node2&#45;&gt;Node6</title>
<path fill="none" stroke="#191970" d="M439.7274,-265.4123C405.9266,-254.8298 363.7452,-241.6235 331.7352,-231.6017"/>
<polygon fill="#191970" stroke="#191970" points="438.8852,-268.8161 449.4742,-268.4639 440.9768,-262.1359 438.8852,-268.8161"/>
</g>
<!-- Node2&#45;&gt;Node10 -->
<g id="edge19" class="edge">
<title>Node2&#45;&gt;Node10</title>
<path fill="none" stroke="#191970" d="M508.6444,-259.152C527.9006,-217.0812 566.8516,-131.9819 582.6303,-97.5088"/>
<polygon fill="#191970" stroke="#191970" points="505.3944,-257.8429 504.415,-268.3923 511.7594,-260.7562 505.3944,-257.8429"/>
</g>
<!-- Node12 -->
<g id="node12" class="node">
<title>Node12</title>
<g id="a_node12"><a xlink:href="Goal_8cpp.html" target="_top" xlink:title=" ">
<polygon fill="#ffffff" stroke="#000000" points="363.5,-201.5 363.5,-231.5 469.5,-231.5 469.5,-201.5 363.5,-201.5"/>
<text text-anchor="start" x="371.5" y="-219.5" font-family="Helvetica,sans-Serif" font-size="10.00" fill="#000000">libbsn/src/goalmodel</text>
<text text-anchor="middle" x="416.5" y="-208.5" font-family="Helvetica,sans-Serif" font-size="10.00" fill="#000000">/Goal.cpp</text>
</a>
</g>
</g>
<!-- Node2&#45;&gt;Node12 -->
<g id="edge16" class="edge">
<title>Node2&#45;&gt;Node12</title>
<path fill="none" stroke="#191970" d="M471.2425,-261.7808C459.3433,-251.9383 445.5644,-240.541 434.8074,-231.6432"/>
<polygon fill="#191970" stroke="#191970" points="469.1835,-264.6198 479.1198,-268.2967 473.6451,-259.2259 469.1835,-264.6198"/>
</g>
<!-- Node2&#45;&gt;Node13 -->
<g id="edge17" class="edge">
<title>Node2&#45;&gt;Node13</title>
<path fill="none" stroke="#191970" d="M535.7738,-263.7743C555.644,-253.5335 579.5491,-241.2132 597.973,-231.7177"/>
<polygon fill="#191970" stroke="#191970" points="533.96,-260.7715 526.6745,-268.4639 537.1669,-266.9938 533.96,-260.7715"/>
</g>
<!-- Node4 -->
<g id="node4" class="node">
<title>Node4</title>
<g id="a_node4"><a xlink:href="GoalTree_8cpp.html" target="_top" xlink:title=" ">
<polygon fill="#ffffff" stroke="#000000" points="8.5,-.5 8.5,-30.5 114.5,-30.5 114.5,-.5 8.5,-.5"/>
<text text-anchor="start" x="16.5" y="-18.5" font-family="Helvetica,sans-Serif" font-size="10.00" fill="#000000">libbsn/src/goalmodel</text>
<text text-anchor="middle" x="61.5" y="-7.5" font-family="Helvetica,sans-Serif" font-size="10.00" fill="#000000">/GoalTree.cpp</text>
</a>
</g>
</g>
<!-- Node3&#45;&gt;Node4 -->
<g id="edge3" class="edge">
<title>Node3&#45;&gt;Node4</title>
<path fill="none" stroke="#191970" d="M61.5,-57.0249C61.5,-48.128 61.5,-38.4287 61.5,-30.6432"/>
<polygon fill="#191970" stroke="#191970" points="58.0001,-57.2966 61.5,-67.2967 65.0001,-57.2967 58.0001,-57.2966"/>
</g>
<!-- Node3&#45;&gt;Node5 -->
<g id="edge4" class="edge">
<title>Node3&#45;&gt;Node5</title>
<path fill="none" stroke="#191970" d="M132.9039,-66.9768C223.287,-49.7193 316.1077,-34.6846 376.3317,-25.2858"/>
<polygon fill="#191970" stroke="#191970" points="132.1958,-63.5488 123.0354,-68.872 133.5161,-70.4232 132.1958,-63.5488"/>
</g>
<!-- Node6&#45;&gt;Node3 -->
<g id="edge6" class="edge">
<title>Node6&#45;&gt;Node3</title>
<path fill="none" stroke="#191970" d="M226.4092,-197.9372C203.828,-189.4386 178.1506,-178.2791 156.5,-165 124.8448,-145.5846 93.3386,-115.5745 75.7429,-97.6026"/>
<polygon fill="#191970" stroke="#191970" points="225.283,-201.2521 235.8766,-201.415 227.6968,-194.6814 225.283,-201.2521"/>
</g>
<!-- Node6&#45;&gt;Node5 -->
<g id="edge14" class="edge">
<title>Node6&#45;&gt;Node5</title>
<path fill="none" stroke="#191970" d="M351.744,-198.5C382.0249,-189.1083 412.9718,-177.0787 422.5,-165 453.9104,-125.1816 448.0514,-59.8581 443.3711,-30.5526"/>
<polygon fill="#191970" stroke="#191970" points="350.5253,-195.2119 341.964,-201.4533 352.5489,-201.913 350.5253,-195.2119"/>
</g>
<!-- Node7 -->
<g id="node7" class="node">
<title>Node7</title>
<g id="a_node7"><a xlink:href="LeafTask_8hpp.html" target="_top" xlink:title=" ">
<polygon fill="#ffffff" stroke="#000000" points="290,-134.5 290,-164.5 413,-164.5 413,-134.5 290,-134.5"/>
<text text-anchor="start" x="298" y="-152.5" font-family="Helvetica,sans-Serif" font-size="10.00" fill="#000000">libbsn/include/goalmodel</text>
<text text-anchor="middle" x="351.5" y="-141.5" font-family="Helvetica,sans-Serif" font-size="10.00" fill="#000000">/LeafTask.hpp</text>
</a>
</g>
</g>
<!-- Node6&#45;&gt;Node7 -->
<g id="edge7" class="edge">
<title>Node6&#45;&gt;Node7</title>
<path fill="none" stroke="#191970" d="M306.1214,-194.2113C315.9767,-184.5009 327.2739,-173.3698 336.1308,-164.6432"/>
<polygon fill="#191970" stroke="#191970" points="303.597,-191.785 298.9303,-201.2967 308.51,-196.7713 303.597,-191.785"/>
</g>
<!-- Node6&#45;&gt;Node10 -->
<g id="edge15" class="edge">
<title>Node6&#45;&gt;Node10</title>
<path fill="none" stroke="#191970" d="M355.1045,-199.865C399.6666,-188.9794 452.3854,-174.9778 473.5,-165 511.7076,-146.9449 550.6294,-116.2002 572.2637,-97.7743"/>
<polygon fill="#191970" stroke="#191970" points="354.0446,-196.5205 345.1509,-202.2783 355.6941,-203.3234 354.0446,-196.5205"/>
</g>
<!-- Node11 -->
<g id="node11" class="node">
<title>Node11</title>
<g id="a_node11"><a xlink:href="Task_8cpp.html" target="_top" xlink:title=" ">
<polygon fill="#ffffff" stroke="#000000" points="165.5,-134.5 165.5,-164.5 271.5,-164.5 271.5,-134.5 165.5,-134.5"/>
<text text-anchor="start" x="173.5" y="-152.5" font-family="Helvetica,sans-Serif" font-size="10.00" fill="#000000">libbsn/src/goalmodel</text>
<text text-anchor="middle" x="218.5" y="-141.5" font-family="Helvetica,sans-Serif" font-size="10.00" fill="#000000">/Task.cpp</text>
</a>
</g>
</g>
<!-- Node6&#45;&gt;Node11 -->
<g id="edge13" class="edge">
<title>Node6&#45;&gt;Node11</title>
<path fill="none" stroke="#191970" d="M261.5992,-193.9253C252.2445,-184.2828 241.5743,-173.2843 233.1911,-164.6432"/>
<polygon fill="#191970" stroke="#191970" points="259.2752,-196.5564 268.7505,-201.2967 264.2994,-191.6821 259.2752,-196.5564"/>
</g>
<!-- Node7&#45;&gt;Node3 -->
<g id="edge8" class="edge">
<title>Node7&#45;&gt;Node3</title>
<path fill="none" stroke="#191970" d="M279.9654,-132.973C231.8511,-121.857 169.07,-107.3524 123.1623,-96.7461"/>
<polygon fill="#191970" stroke="#191970" points="279.4672,-136.4501 289.9985,-135.291 281.043,-129.6297 279.4672,-136.4501"/>
</g>
<!-- Node7&#45;&gt;Node5 -->
<g id="edge10" class="edge">
<title>Node7&#45;&gt;Node5</title>
<path fill="none" stroke="#191970" d="M377.1052,-127.0959C385.8797,-118.5733 395.2928,-108.3985 402.5,-98 417.5015,-76.3559 429.1017,-47.8425 435.3544,-30.6328"/>
<polygon fill="#191970" stroke="#191970" points="374.5181,-124.7243 369.6303,-134.1243 379.3132,-129.824 374.5181,-124.7243"/>
</g>
<!-- Node8 -->
<g id="node8" class="node">
<title>Node8</title>
<g id="a_node8"><a xlink:href="LeafTask_8cpp.html" target="_top" xlink:title=" ">
<polygon fill="#ffffff" stroke="#000000" points="141.5,-67.5 141.5,-97.5 247.5,-97.5 247.5,-67.5 141.5,-67.5"/>
<text text-anchor="start" x="149.5" y="-85.5" font-family="Helvetica,sans-Serif" font-size="10.00" fill="#000000">libbsn/src/goalmodel</text>
<text text-anchor="middle" x="194.5" y="-74.5" font-family="Helvetica,sans-Serif" font-size="10.00" fill="#000000">/LeafTask.cpp</text>
</a>
</g>
</g>
<!-- Node7&#45;&gt;Node8 -->
<g id="edge9" class="edge">
<title>Node7&#45;&gt;Node8</title>
<path fill="none" stroke="#191970" d="M306.8641,-130.4516C282.465,-120.0392 252.666,-107.3224 229.8875,-97.6017"/>
<polygon fill="#191970" stroke="#191970" points="305.6948,-133.7579 316.2661,-134.4639 308.4424,-127.3197 305.6948,-133.7579"/>
</g>
<!-- Node9 -->
<g id="node9" class="node">
<title>Node9</title>
<g id="a_node9"><a xlink:href="LeafTaskTest_8cpp.html" target="_top" xlink:title=" ">
<polygon fill="#ffffff" stroke="#000000" points="265.5,-67.5 265.5,-97.5 393.5,-97.5 393.5,-67.5 265.5,-67.5"/>
<text text-anchor="start" x="273.5" y="-85.5" font-family="Helvetica,sans-Serif" font-size="10.00" fill="#000000">libbsn/test/unit/goalmodel</text>
<text text-anchor="middle" x="329.5" y="-74.5" font-family="Helvetica,sans-Serif" font-size="10.00" fill="#000000">/LeafTaskTest.cpp</text>
</a>
</g>
</g>
<!-- Node7&#45;&gt;Node9 -->
<g id="edge11" class="edge">
<title>Node7&#45;&gt;Node9</title>
<path fill="none" stroke="#191970" d="M343.3273,-124.6103C340.354,-115.5553 337.085,-105.5998 334.4724,-97.6432"/>
<polygon fill="#191970" stroke="#191970" points="340.0628,-125.8877 346.5079,-134.2967 346.7134,-123.7038 340.0628,-125.8877"/>
</g>
<!-- Node7&#45;&gt;Node10 -->
<g id="edge12" class="edge">
<title>Node7&#45;&gt;Node10</title>
<path fill="none" stroke="#191970" d="M414.7858,-131.6842C452.5371,-121.0568 499.9498,-107.7095 535.8552,-97.6017"/>
<polygon fill="#191970" stroke="#191970" points="413.5892,-128.385 404.9118,-134.4639 415.4862,-135.1231 413.5892,-128.385"/>
</g>
</g>
</svg>
