<?xml version="1.0" encoding="UTF-8" standalone="no"?>
<!DOCTYPE svg PUBLIC "-//W3C//DTD SVG 1.1//EN"
 "http://www.w3.org/Graphics/SVG/1.1/DTD/svg11.dtd">
<!-- Generated by graphviz version 2.40.1 (20161225.0304)
 -->
<!-- Title: lepton/src/Operation.cpp Pages: 1 -->
<svg width="744pt" height="196pt"
 viewBox="0.00 0.00 744.00 196.00" xmlns="http://www.w3.org/2000/svg" xmlns:xlink="http://www.w3.org/1999/xlink">
<g id="graph0" class="graph" transform="scale(1 1) rotate(0) translate(4 192)">
<title>lepton/src/Operation.cpp</title>
<polygon fill="#ffffff" stroke="transparent" points="-4,4 -4,-192 740,-192 740,4 -4,4"/>
<!-- Node1 -->
<g id="node1" class="node">
<title>Node1</title>
<g id="a_node1"><a xlink:title=" ">
<polygon fill="#bfbfbf" stroke="#000000" points="522.5,-168.5 522.5,-187.5 645.5,-187.5 645.5,-168.5 522.5,-168.5"/>
<text text-anchor="middle" x="584" y="-175.5" font-family="Helvetica,sans-Serif" font-size="10.00" fill="#000000">lepton/src/Operation.cpp</text>
</a>
</g>
</g>
<!-- Node2 -->
<g id="node2" class="node">
<title>Node2</title>
<g id="a_node2"><a xlink:href="Operation_8h.html" target="_top" xlink:title=" ">
<polygon fill="#ffffff" stroke="#000000" points="291.5,-112.5 291.5,-131.5 358.5,-131.5 358.5,-112.5 291.5,-112.5"/>
<text text-anchor="middle" x="325" y="-119.5" font-family="Helvetica,sans-Serif" font-size="10.00" fill="#000000">Operation.h</text>
</a>
</g>
</g>
<!-- Node1&#45;&gt;Node2 -->
<g id="edge1" class="edge">
<title>Node1&#45;&gt;Node2</title>
<path fill="none" stroke="#191970" d="M539.7706,-168.4369C491.9866,-158.1052 416.3192,-141.7447 368.7304,-131.4552"/>
<polygon fill="#191970" stroke="#191970" points="369.2443,-127.9855 358.7305,-129.2931 367.7649,-134.8274 369.2443,-127.9855"/>
</g>
<!-- Node13 -->
<g id="node13" class="node">
<title>Node13</title>
<g id="a_node13"><a xlink:href="ExpressionTreeNode_8h.html" target="_top" xlink:title=" ">
<polygon fill="#ffffff" stroke="#000000" points="526,-112.5 526,-131.5 642,-131.5 642,-112.5 526,-112.5"/>
<text text-anchor="middle" x="584" y="-119.5" font-family="Helvetica,sans-Serif" font-size="10.00" fill="#000000">ExpressionTreeNode.h</text>
</a>
</g>
</g>
<!-- Node1&#45;&gt;Node13 -->
<g id="edge14" class="edge">
<title>Node1&#45;&gt;Node13</title>
<path fill="none" stroke="#191970" d="M584,-168.2455C584,-160.9382 584,-150.6944 584,-141.7046"/>
<polygon fill="#191970" stroke="#191970" points="587.5001,-141.6426 584,-131.6427 580.5001,-141.6427 587.5001,-141.6426"/>
</g>
<!-- Node14 -->
<g id="node14" class="node">
<title>Node14</title>
<g id="a_node14"><a xlink:href="MSVC__erfc_8h.html" target="_top" xlink:title=" ">
<polygon fill="#ffffff" stroke="#000000" points="660,-112.5 660,-131.5 736,-131.5 736,-112.5 660,-112.5"/>
<text text-anchor="middle" x="698" y="-119.5" font-family="Helvetica,sans-Serif" font-size="10.00" fill="#000000">MSVC_erfc.h</text>
</a>
</g>
</g>
<!-- Node1&#45;&gt;Node14 -->
<g id="edge18" class="edge">
<title>Node1&#45;&gt;Node14</title>
<path fill="none" stroke="#191970" d="M603.5973,-168.3733C621.7331,-159.4644 648.9135,-146.1127 669.4587,-136.0203"/>
<polygon fill="#191970" stroke="#191970" points="671.2261,-139.0517 678.6584,-131.5011 668.1397,-132.7688 671.2261,-139.0517"/>
</g>
<!-- Node3 -->
<g id="node3" class="node">
<title>Node3</title>
<g id="a_node3"><a xlink:href="windowsIncludes_8h.html" target="_top" xlink:title=" ">
<polygon fill="#ffffff" stroke="#000000" points="459,-.5 459,-19.5 559,-19.5 559,-.5 459,-.5"/>
<text text-anchor="middle" x="509" y="-7.5" font-family="Helvetica,sans-Serif" font-size="10.00" fill="#000000">windowsIncludes.h</text>
</a>
</g>
</g>
<!-- Node2&#45;&gt;Node3 -->
<g id="edge2" class="edge">
<title>Node2&#45;&gt;Node3</title>
<path fill="none" stroke="#191970" d="M358.5534,-116.6014C401.2031,-109.0902 471.5232,-94.322 490,-76 502.2794,-63.8235 506.7437,-44.2607 508.3067,-29.5888"/>
<polygon fill="#191970" stroke="#191970" points="511.8041,-29.7476 509.0178,-19.5258 504.8215,-29.2541 511.8041,-29.7476"/>
</g>
<!-- Node4 -->
<g id="node4" class="node">
<title>Node4</title>
<g id="a_node4"><a xlink:href="CustomFunction_8h.html" target="_top" xlink:title=" ">
<polygon fill="#ffffff" stroke="#000000" points="383.5,-56.5 383.5,-75.5 480.5,-75.5 480.5,-56.5 383.5,-56.5"/>
<text text-anchor="middle" x="432" y="-63.5" font-family="Helvetica,sans-Serif" font-size="10.00" fill="#000000">CustomFunction.h</text>
</a>
</g>
</g>
<!-- Node2&#45;&gt;Node4 -->
<g id="edge3" class="edge">
<title>Node2&#45;&gt;Node4</title>
<path fill="none" stroke="#191970" d="M343.638,-112.2455C360.4386,-103.4527 385.3634,-90.4079 404.4618,-80.4125"/>
<polygon fill="#191970" stroke="#191970" points="406.3386,-83.3807 413.5756,-75.6427 403.0927,-77.1787 406.3386,-83.3807"/>
</g>
<!-- Node5 -->
<g id="node5" class="node">
<title>Node5</title>
<g id="a_node5"><a xlink:href="Exception_8h.html" target="_top" xlink:title=" ">
<polygon fill="#ffffff" stroke="#000000" points="144,-56.5 144,-75.5 212,-75.5 212,-56.5 144,-56.5"/>
<text text-anchor="middle" x="178" y="-63.5" font-family="Helvetica,sans-Serif" font-size="10.00" fill="#000000">Exception.h</text>
</a>
</g>
</g>
<!-- Node2&#45;&gt;Node5 -->
<g id="edge5" class="edge">
<title>Node2&#45;&gt;Node5</title>
<path fill="none" stroke="#191970" d="M299.7298,-112.3733C275.6034,-103.1822 239.0638,-89.2624 212.3123,-79.0713"/>
<polygon fill="#191970" stroke="#191970" points="213.5313,-75.7904 202.9404,-75.5011 211.0393,-82.3318 213.5313,-75.7904"/>
</g>
<!-- Node7 -->
<g id="node7" class="node">
<title>Node7</title>
<g id="a_node7"><a xlink:title=" ">
<polygon fill="#ffffff" stroke="#bfbfbf" points="281.5,-.5 281.5,-19.5 322.5,-19.5 322.5,-.5 281.5,-.5"/>
<text text-anchor="middle" x="302" y="-7.5" font-family="Helvetica,sans-Serif" font-size="10.00" fill="#000000">string</text>
</a>
</g>
</g>
<!-- Node2&#45;&gt;Node7 -->
<g id="edge10" class="edge">
<title>Node2&#45;&gt;Node7</title>
<path fill="none" stroke="#191970" d="M323.039,-112.4509C319.2708,-94.1013 310.9517,-53.5908 305.9776,-29.3693"/>
<polygon fill="#191970" stroke="#191970" points="309.3961,-28.6164 303.956,-19.5249 302.5392,-30.0246 309.3961,-28.6164"/>
</g>
<!-- Node8 -->
<g id="node8" class="node">
<title>Node8</title>
<g id="a_node8"><a xlink:title=" ">
<polygon fill="#ffffff" stroke="#bfbfbf" points="230,-56.5 230,-75.5 274,-75.5 274,-56.5 230,-56.5"/>
<text text-anchor="middle" x="252" y="-63.5" font-family="Helvetica,sans-Serif" font-size="10.00" fill="#000000">cmath</text>
</a>
</g>
</g>
<!-- Node2&#45;&gt;Node8 -->
<g id="edge8" class="edge">
<title>Node2&#45;&gt;Node8</title>
<path fill="none" stroke="#191970" d="M312.2844,-112.2455C301.398,-103.8943 285.5117,-91.7076 272.78,-81.9408"/>
<polygon fill="#191970" stroke="#191970" points="274.6346,-78.9523 264.5699,-75.6427 270.3739,-84.5063 274.6346,-78.9523"/>
</g>
<!-- Node9 -->
<g id="node9" class="node">
<title>Node9</title>
<g id="a_node9"><a xlink:title=" ">
<polygon fill="#ffffff" stroke="#bfbfbf" points="330.5,-56.5 330.5,-75.5 365.5,-75.5 365.5,-56.5 330.5,-56.5"/>
<text text-anchor="middle" x="348" y="-63.5" font-family="Helvetica,sans-Serif" font-size="10.00" fill="#000000">map</text>
</a>
</g>
</g>
<!-- Node2&#45;&gt;Node9 -->
<g id="edge9" class="edge">
<title>Node2&#45;&gt;Node9</title>
<path fill="none" stroke="#191970" d="M329.0063,-112.2455C332.0735,-104.7776 336.4003,-94.2427 340.1497,-85.1137"/>
<polygon fill="#191970" stroke="#191970" points="343.4779,-86.2226 344.0396,-75.6427 337.0028,-83.5631 343.4779,-86.2226"/>
</g>
<!-- Node10 -->
<g id="node10" class="node">
<title>Node10</title>
<g id="a_node10"><a xlink:title=" ">
<polygon fill="#ffffff" stroke="#bfbfbf" points="537,-56.5 537,-75.5 581,-75.5 581,-56.5 537,-56.5"/>
<text text-anchor="middle" x="559" y="-63.5" font-family="Helvetica,sans-Serif" font-size="10.00" fill="#000000">vector</text>
</a>
</g>
</g>
<!-- Node2&#45;&gt;Node10 -->
<g id="edge11" class="edge">
<title>Node2&#45;&gt;Node10</title>
<path fill="none" stroke="#191970" d="M358.7386,-114.6221C398.2312,-105.8795 465.5494,-90.6457 523,-76 524.2728,-75.6755 525.5696,-75.3398 526.8784,-74.9967"/>
<polygon fill="#191970" stroke="#191970" points="528.2087,-78.2632 536.955,-72.2839 526.3889,-71.5039 528.2087,-78.2632"/>
</g>
<!-- Node11 -->
<g id="node11" class="node">
<title>Node11</title>
<g id="a_node11"><a xlink:title=" ">
<polygon fill="#ffffff" stroke="#bfbfbf" points="0,-56.5 0,-75.5 52,-75.5 52,-56.5 0,-56.5"/>
<text text-anchor="middle" x="26" y="-63.5" font-family="Helvetica,sans-Serif" font-size="10.00" fill="#000000">sstream</text>
</a>
</g>
</g>
<!-- Node2&#45;&gt;Node11 -->
<g id="edge12" class="edge">
<title>Node2&#45;&gt;Node11</title>
<path fill="none" stroke="#191970" d="M291.4335,-117.3149C242.8844,-110.2863 150.097,-95.9089 62.1622,-76.0878"/>
<polygon fill="#191970" stroke="#191970" points="62.8241,-72.6489 52.2959,-73.8358 61.2663,-79.4734 62.8241,-72.6489"/>
</g>
<!-- Node12 -->
<g id="node12" class="node">
<title>Node12</title>
<g id="a_node12"><a xlink:title=" ">
<polygon fill="#ffffff" stroke="#bfbfbf" points="70,-56.5 70,-75.5 126,-75.5 126,-56.5 70,-56.5"/>
<text text-anchor="middle" x="98" y="-63.5" font-family="Helvetica,sans-Serif" font-size="10.00" fill="#000000">algorithm</text>
</a>
</g>
</g>
<!-- Node2&#45;&gt;Node12 -->
<g id="edge13" class="edge">
<title>Node2&#45;&gt;Node12</title>
<path fill="none" stroke="#191970" d="M291.2984,-114.1247C255.2697,-105.6431 196.2226,-91.5642 136.2775,-76.2832"/>
<polygon fill="#191970" stroke="#191970" points="136.817,-72.8086 126.2615,-73.7207 135.0819,-79.5901 136.817,-72.8086"/>
</g>
<!-- Node4&#45;&gt;Node3 -->
<g id="edge4" class="edge">
<title>Node4&#45;&gt;Node3</title>
<path fill="none" stroke="#191970" d="M445.4124,-56.2455C457.0057,-47.814 473.9748,-35.4729 487.4678,-25.6598"/>
<polygon fill="#191970" stroke="#191970" points="489.7126,-28.355 495.7413,-19.6427 485.5953,-22.6938 489.7126,-28.355"/>
</g>
<!-- Node6 -->
<g id="node6" class="node">
<title>Node6</title>
<g id="a_node6"><a xlink:title=" ">
<polygon fill="#ffffff" stroke="#bfbfbf" points="148.5,-.5 148.5,-19.5 207.5,-19.5 207.5,-.5 148.5,-.5"/>
<text text-anchor="middle" x="178" y="-7.5" font-family="Helvetica,sans-Serif" font-size="10.00" fill="#000000">exception</text>
</a>
</g>
</g>
<!-- Node5&#45;&gt;Node6 -->
<g id="edge6" class="edge">
<title>Node5&#45;&gt;Node6</title>
<path fill="none" stroke="#191970" d="M178,-56.2455C178,-48.9382 178,-38.6944 178,-29.7046"/>
<polygon fill="#191970" stroke="#191970" points="181.5001,-29.6426 178,-19.6427 174.5001,-29.6427 181.5001,-29.6426"/>
</g>
<!-- Node5&#45;&gt;Node7 -->
<g id="edge7" class="edge">
<title>Node5&#45;&gt;Node7</title>
<path fill="none" stroke="#191970" d="M199.3164,-56.3733C219.3422,-47.3293 249.5066,-33.7067 271.9667,-23.5634"/>
<polygon fill="#191970" stroke="#191970" points="273.7007,-26.6208 281.3738,-19.315 270.8195,-20.2412 273.7007,-26.6208"/>
</g>
<!-- Node13&#45;&gt;Node3 -->
<g id="edge15" class="edge">
<title>Node13&#45;&gt;Node3</title>
<path fill="none" stroke="#191970" d="M596.8842,-112.3809C612.7558,-99.3308 636.1031,-75.4168 623,-56 610.6326,-37.6734 589.6068,-26.6464 568.9551,-20.0123"/>
<polygon fill="#191970" stroke="#191970" points="569.7868,-16.6092 559.2073,-17.1793 567.8332,-23.3311 569.7868,-16.6092"/>
</g>
<!-- Node13&#45;&gt;Node7 -->
<g id="edge16" class="edge">
<title>Node13&#45;&gt;Node7</title>
<path fill="none" stroke="#191970" d="M588.826,-112.1693C595.0136,-97.985 603.4398,-71.7568 590,-56 573.3961,-36.5336 403.4766,-19.1308 332.6919,-12.668"/>
<polygon fill="#191970" stroke="#191970" points="332.8821,-9.1711 322.6086,-11.7604 332.2545,-16.1429 332.8821,-9.1711"/>
</g>
<!-- Node13&#45;&gt;Node10 -->
<g id="edge17" class="edge">
<title>Node13&#45;&gt;Node10</title>
<path fill="none" stroke="#191970" d="M579.6453,-112.2455C576.2756,-104.6973 571.507,-94.0158 567.4017,-84.8197"/>
<polygon fill="#191970" stroke="#191970" points="570.5773,-83.3473 563.3048,-75.6427 564.1853,-86.2009 570.5773,-83.3473"/>
</g>
</g>
</svg>
