<?xml version="1.0" encoding="UTF-8" standalone="no"?>
<!DOCTYPE svg PUBLIC "-//W3C//DTD SVG 1.1//EN"
 "http://www.w3.org/Graphics/SVG/1.1/DTD/svg11.dtd">
<!-- Generated by graphviz version 2.40.1 (20161225.0304)
 -->
<!-- Title: src/target_system/effectors/param_adapter/apps/param_adapter.cpp Pages: 1 -->
<svg width="577pt" height="341pt"
 viewBox="0.00 0.00 576.99 341.00" xmlns="http://www.w3.org/2000/svg" xmlns:xlink="http://www.w3.org/1999/xlink">
<g id="graph0" class="graph" transform="scale(1 1) rotate(0) translate(4 337)">
<title>src/target_system/effectors/param_adapter/apps/param_adapter.cpp</title>
<polygon fill="#ffffff" stroke="transparent" points="-4,4 -4,-337 572.9944,-337 572.9944,4 -4,4"/>
<!-- Node1 -->
<g id="node1" class="node">
<title>Node1</title>
<g id="a_node1"><a xlink:title=" ">
<polygon fill="#bfbfbf" stroke="#000000" points="349.5,-291.5 349.5,-332.5 487.5,-332.5 487.5,-291.5 349.5,-291.5"/>
<text text-anchor="start" x="357.5" y="-320.5" font-family="Helvetica,sans-Serif" font-size="10.00" fill="#000000">src/target_system/effectors</text>
<text text-anchor="start" x="357.5" y="-309.5" font-family="Helvetica,sans-Serif" font-size="10.00" fill="#000000">/param_adapter/apps/param</text>
<text text-anchor="middle" x="418.5" y="-298.5" font-family="Helvetica,sans-Serif" font-size="10.00" fill="#000000">_adapter.cpp</text>
</a>
</g>
</g>
<!-- Node2 -->
<g id="node2" class="node">
<title>Node2</title>
<g id="a_node2"><a xlink:href="ParamAdapter_8hpp.html" target="_top" xlink:title=" ">
<polygon fill="#ffffff" stroke="#000000" points="336,-235.5 336,-254.5 501,-254.5 501,-235.5 336,-235.5"/>
<text text-anchor="middle" x="418.5" y="-242.5" font-family="Helvetica,sans-Serif" font-size="10.00" fill="#000000">param_adapter/ParamAdapter.hpp</text>
</a>
</g>
</g>
<!-- Node1&#45;&gt;Node2 -->
<g id="edge1" class="edge">
<title>Node1&#45;&gt;Node2</title>
<path fill="none" stroke="#191970" d="M418.5,-291.168C418.5,-282.8226 418.5,-273.2471 418.5,-264.9879"/>
<polygon fill="#191970" stroke="#191970" points="422.0001,-264.7804 418.5,-254.7805 415.0001,-264.7805 422.0001,-264.7804"/>
</g>
<!-- Node3 -->
<g id="node3" class="node">
<title>Node3</title>
<g id="a_node3"><a xlink:title=" ">
<polygon fill="#ffffff" stroke="#bfbfbf" points="0,-.5 0,-19.5 41,-19.5 41,-.5 0,-.5"/>
<text text-anchor="middle" x="20.5" y="-7.5" font-family="Helvetica,sans-Serif" font-size="10.00" fill="#000000">string</text>
</a>
</g>
</g>
<!-- Node2&#45;&gt;Node3 -->
<g id="edge2" class="edge">
<title>Node2&#45;&gt;Node3</title>
<path fill="none" stroke="#191970" d="M350.6321,-235.4272C310.8077,-228.3621 260.1023,-216.8209 217.5,-199 123.6626,-159.7469 76.0934,-163.6606 24.5,-76 16.3219,-62.1049 15.9135,-43.59 17.2109,-29.7072"/>
<polygon fill="#191970" stroke="#191970" points="20.6879,-30.1099 18.5012,-19.7432 13.7459,-29.2109 20.6879,-30.1099"/>
</g>
<!-- Node4 -->
<g id="node4" class="node">
<title>Node4</title>
<g id="a_node4"><a xlink:title=" ">
<polygon fill="#ffffff" stroke="#bfbfbf" points="330,-.5 330,-19.5 385,-19.5 385,-.5 330,-.5"/>
<text text-anchor="middle" x="357.5" y="-7.5" font-family="Helvetica,sans-Serif" font-size="10.00" fill="#000000">ros/ros.h</text>
</a>
</g>
</g>
<!-- Node2&#45;&gt;Node4 -->
<g id="edge3" class="edge">
<title>Node2&#45;&gt;Node4</title>
<path fill="none" stroke="#191970" d="M445.2959,-235.3729C495.6114,-215.7255 596.1689,-168.0954 561.5,-112 525.1356,-53.1612 443.4142,-27.1283 395.1663,-16.5265"/>
<polygon fill="#191970" stroke="#191970" points="395.6209,-13.0462 385.1175,-14.4352 394.1946,-19.8994 395.6209,-13.0462"/>
</g>
<!-- Node5 -->
<g id="node5" class="node">
<title>Node5</title>
<g id="a_node5"><a xlink:title=" ">
<polygon fill="#ffffff" stroke="#bfbfbf" points="354.5,-174 354.5,-193 482.5,-193 482.5,-174 354.5,-174"/>
<text text-anchor="middle" x="418.5" y="-181" font-family="Helvetica,sans-Serif" font-size="10.00" fill="#000000">archlib/EffectorRegister.h</text>
</a>
</g>
</g>
<!-- Node2&#45;&gt;Node5 -->
<g id="edge4" class="edge">
<title>Node2&#45;&gt;Node5</title>
<path fill="none" stroke="#191970" d="M418.5,-235.3906C418.5,-226.8657 418.5,-214.1392 418.5,-203.4235"/>
<polygon fill="#191970" stroke="#191970" points="422.0001,-203.2448 418.5,-193.2449 415.0001,-203.2449 422.0001,-203.2448"/>
</g>
<!-- Node6 -->
<g id="node6" class="node">
<title>Node6</title>
<g id="a_node6"><a xlink:href="Effector_8hpp.html" target="_top" xlink:title=" ">
<polygon fill="#ffffff" stroke="#000000" points="226.5,-168.5 226.5,-198.5 336.5,-198.5 336.5,-168.5 226.5,-168.5"/>
<text text-anchor="start" x="234.5" y="-186.5" font-family="Helvetica,sans-Serif" font-size="10.00" fill="#000000">archlib/target_system</text>
<text text-anchor="middle" x="281.5" y="-175.5" font-family="Helvetica,sans-Serif" font-size="10.00" fill="#000000">/Effector.hpp</text>
</a>
</g>
</g>
<!-- Node2&#45;&gt;Node6 -->
<g id="edge5" class="edge">
<title>Node2&#45;&gt;Node6</title>
<path fill="none" stroke="#191970" d="M397.0938,-235.3906C377.6941,-226.682 348.5271,-213.5888 324.3457,-202.7336"/>
<polygon fill="#191970" stroke="#191970" points="325.5703,-199.447 315.014,-198.5446 322.7035,-205.833 325.5703,-199.447"/>
</g>
<!-- Node7 -->
<g id="node7" class="node">
<title>Node7</title>
<g id="a_node7"><a xlink:title=" ">
<polygon fill="#ffffff" stroke="#bfbfbf" points="404.5,-112.5 404.5,-131.5 552.5,-131.5 552.5,-112.5 404.5,-112.5"/>
<text text-anchor="middle" x="478.5" y="-119.5" font-family="Helvetica,sans-Serif" font-size="10.00" fill="#000000">archlib/AdaptationCommand.h</text>
</a>
</g>
</g>
<!-- Node2&#45;&gt;Node7 -->
<g id="edge15" class="edge">
<title>Node2&#45;&gt;Node7</title>
<path fill="none" stroke="#191970" d="M446.1959,-235.4275C462.5463,-228.1781 481.8739,-216.4435 491.5,-199 501.481,-180.9134 494.9746,-157.078 488.0719,-140.7451"/>
<polygon fill="#191970" stroke="#191970" points="491.2447,-139.2672 483.8666,-131.6635 484.8926,-142.2086 491.2447,-139.2672"/>
</g>
<!-- Node6&#45;&gt;Node4 -->
<g id="edge6" class="edge">
<title>Node6&#45;&gt;Node4</title>
<path fill="none" stroke="#191970" d="M291.3627,-168.4276C304.2496,-148.1552 326.7839,-110.6396 340.5,-76 346.4897,-60.8732 350.9494,-42.9558 353.7947,-29.6094"/>
<polygon fill="#191970" stroke="#191970" points="357.2602,-30.1292 355.8033,-19.6351 350.398,-28.7473 357.2602,-30.1292"/>
</g>
<!-- Node6&#45;&gt;Node7 -->
<g id="edge7" class="edge">
<title>Node6&#45;&gt;Node7</title>
<path fill="none" stroke="#191970" d="M329.6916,-168.4554C362.9941,-158.059 406.7843,-144.3884 438.2264,-134.5727"/>
<polygon fill="#191970" stroke="#191970" points="439.4693,-137.8514 447.972,-131.5303 437.3833,-131.1694 439.4693,-137.8514"/>
</g>
<!-- Node8 -->
<g id="node8" class="node">
<title>Node8</title>
<g id="a_node8"><a xlink:href="ROSComponent_8hpp.html" target="_top" xlink:title=" ">
<polygon fill="#ffffff" stroke="#000000" points="149,-112.5 149,-131.5 288,-131.5 288,-112.5 149,-112.5"/>
<text text-anchor="middle" x="218.5" y="-119.5" font-family="Helvetica,sans-Serif" font-size="10.00" fill="#000000">archlib/ROSComponent.hpp</text>
</a>
</g>
</g>
<!-- Node6&#45;&gt;Node8 -->
<g id="edge8" class="edge">
<title>Node6&#45;&gt;Node8</title>
<path fill="none" stroke="#191970" d="M265.927,-168.2977C256.8175,-159.4052 245.2966,-148.1586 235.8909,-138.9769"/>
<polygon fill="#191970" stroke="#191970" points="238.1878,-136.3278 228.5871,-131.8469 233.298,-141.3368 238.1878,-136.3278"/>
</g>
<!-- Node8&#45;&gt;Node3 -->
<g id="edge9" class="edge">
<title>Node8&#45;&gt;Node3</title>
<path fill="none" stroke="#191970" d="M154.7433,-112.452C110.2559,-104.5542 56.0113,-92.0431 39.5,-76 27.0974,-63.949 22.6495,-44.3695 21.1239,-29.6595"/>
<polygon fill="#191970" stroke="#191970" points="24.6082,-29.3072 20.4435,-19.5652 17.624,-29.778 24.6082,-29.3072"/>
</g>
<!-- Node8&#45;&gt;Node4 -->
<g id="edge11" class="edge">
<title>Node8&#45;&gt;Node4</title>
<path fill="none" stroke="#191970" d="M252.4362,-112.45C273.6197,-105.1581 300.3969,-93.3689 319.5,-76 333.6697,-63.1167 343.9698,-43.6838 350.2431,-29.237"/>
<polygon fill="#191970" stroke="#191970" points="353.5707,-30.3455 354.0971,-19.7637 347.0867,-27.7076 353.5707,-30.3455"/>
</g>
<!-- Node9 -->
<g id="node9" class="node">
<title>Node9</title>
<g id="a_node9"><a xlink:title=" ">
<polygon fill="#ffffff" stroke="#bfbfbf" points="49,-56.5 49,-75.5 108,-75.5 108,-56.5 49,-56.5"/>
<text text-anchor="middle" x="78.5" y="-63.5" font-family="Helvetica,sans-Serif" font-size="10.00" fill="#000000">stdexcept</text>
</a>
</g>
</g>
<!-- Node8&#45;&gt;Node9 -->
<g id="edge10" class="edge">
<title>Node8&#45;&gt;Node9</title>
<path fill="none" stroke="#191970" d="M194.4331,-112.3733C171.6572,-103.2629 137.2656,-89.5062 111.851,-79.3404"/>
<polygon fill="#191970" stroke="#191970" points="112.8375,-75.9654 102.2528,-75.5011 110.2377,-82.4648 112.8375,-75.9654"/>
</g>
<!-- Node10 -->
<g id="node10" class="node">
<title>Node10</title>
<g id="a_node10"><a xlink:href="ROSComponentDescriptor_8hpp.html" target="_top" xlink:title=" ">
<polygon fill="#ffffff" stroke="#000000" points="126.5,-56.5 126.5,-75.5 310.5,-75.5 310.5,-56.5 126.5,-56.5"/>
<text text-anchor="middle" x="218.5" y="-63.5" font-family="Helvetica,sans-Serif" font-size="10.00" fill="#000000">archlib/ROSComponentDescriptor.hpp</text>
</a>
</g>
</g>
<!-- Node8&#45;&gt;Node10 -->
<g id="edge12" class="edge">
<title>Node8&#45;&gt;Node10</title>
<path fill="none" stroke="#191970" d="M218.5,-112.2455C218.5,-104.9382 218.5,-94.6944 218.5,-85.7046"/>
<polygon fill="#191970" stroke="#191970" points="222.0001,-85.6426 218.5,-75.6427 215.0001,-85.6427 222.0001,-85.6426"/>
</g>
<!-- Node10&#45;&gt;Node3 -->
<g id="edge13" class="edge">
<title>Node10&#45;&gt;Node3</title>
<path fill="none" stroke="#191970" d="M184.4626,-56.3733C146.9258,-45.7568 87.081,-28.831 51.0145,-18.6304"/>
<polygon fill="#191970" stroke="#191970" points="51.6484,-15.1724 41.0733,-15.8187 49.7433,-21.9082 51.6484,-15.1724"/>
</g>
<!-- Node10&#45;&gt;Node4 -->
<g id="edge14" class="edge">
<title>Node10&#45;&gt;Node4</title>
<path fill="none" stroke="#191970" d="M242.395,-56.3733C265.0082,-47.2629 299.1542,-33.5062 324.3873,-23.3404"/>
<polygon fill="#191970" stroke="#191970" points="325.9493,-26.4845 333.9169,-19.5011 323.3334,-19.9917 325.9493,-26.4845"/>
</g>
</g>
</svg>
