<?xml version="1.0" encoding="UTF-8" standalone="no"?>
<!DOCTYPE svg PUBLIC "-//W3C//DTD SVG 1.1//EN"
 "http://www.w3.org/Graphics/SVG/1.1/DTD/svg11.dtd">
<!-- Generated by graphviz version 2.40.1 (20161225.0304)
 -->
<!-- Title: src/target_system/effectors/param_adapter/include/param_adapter/ParamAdapter.hpp Pages: 1 -->
<svg width="350pt" height="128pt"
 viewBox="0.00 0.00 349.50 128.00" xmlns="http://www.w3.org/2000/svg" xmlns:xlink="http://www.w3.org/1999/xlink">
<g id="graph0" class="graph" transform="scale(1 1) rotate(0) translate(4 124)">
<title>src/target_system/effectors/param_adapter/include/param_adapter/ParamAdapter.hpp</title>
<polygon fill="#ffffff" stroke="transparent" points="-4,4 -4,-124 345.5,-124 345.5,4 -4,4"/>
<!-- Node1 -->
<g id="node1" class="node">
<title>Node1</title>
<g id="a_node1"><a xlink:title=" ">
<polygon fill="#bfbfbf" stroke="#000000" points="85,-78.5 85,-119.5 233,-119.5 233,-78.5 85,-78.5"/>
<text text-anchor="start" x="93" y="-107.5" font-family="Helvetica,sans-Serif" font-size="10.00" fill="#000000">src/target_system/effectors</text>
<text text-anchor="start" x="93" y="-96.5" font-family="Helvetica,sans-Serif" font-size="10.00" fill="#000000">/param_adapter/include/param</text>
<text text-anchor="middle" x="159" y="-85.5" font-family="Helvetica,sans-Serif" font-size="10.00" fill="#000000">_adapter/ParamAdapter.hpp</text>
</a>
</g>
</g>
<!-- Node2 -->
<g id="node2" class="node">
<title>Node2</title>
<g id="a_node2"><a xlink:href="param__adapter_8cpp.html" target="_top" xlink:title=" ">
<polygon fill="#ffffff" stroke="#000000" points="0,-.5 0,-41.5 138,-41.5 138,-.5 0,-.5"/>
<text text-anchor="start" x="8" y="-29.5" font-family="Helvetica,sans-Serif" font-size="10.00" fill="#000000">src/target_system/effectors</text>
<text text-anchor="start" x="8" y="-18.5" font-family="Helvetica,sans-Serif" font-size="10.00" fill="#000000">/param_adapter/apps/param</text>
<text text-anchor="middle" x="69" y="-7.5" font-family="Helvetica,sans-Serif" font-size="10.00" fill="#000000">_adapter.cpp</text>
</a>
</g>
</g>
<!-- Node1&#45;&gt;Node2 -->
<g id="edge1" class="edge">
<title>Node1&#45;&gt;Node2</title>
<path fill="none" stroke="#191970" d="M127.2833,-71.5122C115.9665,-61.7043 103.4184,-50.8293 92.8728,-41.6898"/>
<polygon fill="#191970" stroke="#191970" points="125.0325,-74.193 134.8817,-78.0974 129.617,-68.9032 125.0325,-74.193"/>
</g>
<!-- Node3 -->
<g id="node3" class="node">
<title>Node3</title>
<g id="a_node3"><a xlink:href="ParamAdapter_8cpp.html" target="_top" xlink:title=" ">
<polygon fill="#ffffff" stroke="#000000" points="156.5,-6 156.5,-36 341.5,-36 341.5,-6 156.5,-6"/>
<text text-anchor="start" x="164.5" y="-24" font-family="Helvetica,sans-Serif" font-size="10.00" fill="#000000">src/target_system/effectors</text>
<text text-anchor="middle" x="249" y="-13" font-family="Helvetica,sans-Serif" font-size="10.00" fill="#000000">/param_adapter/src/ParamAdapter.cpp</text>
</a>
</g>
</g>
<!-- Node1&#45;&gt;Node3 -->
<g id="edge2" class="edge">
<title>Node1&#45;&gt;Node3</title>
<path fill="none" stroke="#191970" d="M190.944,-71.3152C204.6563,-59.4312 220.1393,-46.0126 231.6654,-36.0233"/>
<polygon fill="#191970" stroke="#191970" points="188.383,-68.9032 183.1183,-78.0974 192.9675,-74.193 188.383,-68.9032"/>
</g>
</g>
</svg>
