<?xml version="1.0" encoding="UTF-8" standalone="no"?>
<!DOCTYPE svg PUBLIC "-//W3C//DTD SVG 1.1//EN"
 "http://www.w3.org/Graphics/SVG/1.1/DTD/svg11.dtd">
<!-- Generated by graphviz version 2.40.1 (20161225.0304)
 -->
<!-- Title: lepton/include/ParsedExpression.h Pages: 1 -->
<svg width="294pt" height="140pt"
 viewBox="0.00 0.00 293.50 140.00" xmlns="http://www.w3.org/2000/svg" xmlns:xlink="http://www.w3.org/1999/xlink">
<g id="graph0" class="graph" transform="scale(1 1) rotate(0) translate(4 136)">
<title>lepton/include/ParsedExpression.h</title>
<polygon fill="#ffffff" stroke="transparent" points="-4,4 -4,-136 289.5,-136 289.5,4 -4,4"/>
<!-- Node1 -->
<g id="node1" class="node">
<title>Node1</title>
<g id="a_node1"><a xlink:title=" ">
<polygon fill="#bfbfbf" stroke="#000000" points="95.5,-112.5 95.5,-131.5 262.5,-131.5 262.5,-112.5 95.5,-112.5"/>
<text text-anchor="middle" x="179" y="-119.5" font-family="Helvetica,sans-Serif" font-size="10.00" fill="#000000">lepton/include/ParsedExpression.h</text>
</a>
</g>
</g>
<!-- Node2 -->
<g id="node2" class="node">
<title>Node2</title>
<g id="a_node2"><a xlink:href="ExpressionTreeNode_8h.html" target="_top" xlink:title=" ">
<polygon fill="#ffffff" stroke="#000000" points="78,-56.5 78,-75.5 194,-75.5 194,-56.5 78,-56.5"/>
<text text-anchor="middle" x="136" y="-63.5" font-family="Helvetica,sans-Serif" font-size="10.00" fill="#000000">ExpressionTreeNode.h</text>
</a>
</g>
</g>
<!-- Node1&#45;&gt;Node2 -->
<g id="edge1" class="edge">
<title>Node1&#45;&gt;Node2</title>
<path fill="none" stroke="#191970" d="M171.51,-112.2455C165.4674,-104.3761 156.8097,-93.101 149.5559,-83.6542"/>
<polygon fill="#191970" stroke="#191970" points="152.2705,-81.4426 143.4042,-75.6427 146.7185,-85.7058 152.2705,-81.4426"/>
</g>
<!-- Node3 -->
<g id="node3" class="node">
<title>Node3</title>
<g id="a_node3"><a xlink:href="windowsIncludes_8h.html" target="_top" xlink:title=" ">
<polygon fill="#ffffff" stroke="#000000" points="0,-.5 0,-19.5 100,-19.5 100,-.5 0,-.5"/>
<text text-anchor="middle" x="50" y="-7.5" font-family="Helvetica,sans-Serif" font-size="10.00" fill="#000000">windowsIncludes.h</text>
</a>
</g>
</g>
<!-- Node1&#45;&gt;Node3 -->
<g id="edge5" class="edge">
<title>Node1&#45;&gt;Node3</title>
<path fill="none" stroke="#191970" d="M132.5599,-112.469C110.5112,-105.724 85.4499,-94.4739 69,-76 57.7378,-63.3521 53.1239,-44.4228 51.2479,-30.0753"/>
<polygon fill="#191970" stroke="#191970" points="54.697,-29.3777 50.2556,-19.7588 47.7292,-30.0479 54.697,-29.3777"/>
</g>
<!-- Node4 -->
<g id="node4" class="node">
<title>Node4</title>
<g id="a_node4"><a xlink:title=" ">
<polygon fill="#ffffff" stroke="#bfbfbf" points="190.5,-.5 190.5,-19.5 231.5,-19.5 231.5,-.5 190.5,-.5"/>
<text text-anchor="middle" x="211" y="-7.5" font-family="Helvetica,sans-Serif" font-size="10.00" fill="#000000">string</text>
</a>
</g>
</g>
<!-- Node1&#45;&gt;Node4 -->
<g id="edge7" class="edge">
<title>Node1&#45;&gt;Node4</title>
<path fill="none" stroke="#191970" d="M185.4369,-112.2215C191.0402,-103.2043 198.8906,-89.2492 203,-76 207.6545,-60.9934 209.621,-43.2848 210.4421,-29.9907"/>
<polygon fill="#191970" stroke="#191970" points="213.9554,-29.7703 210.9076,-19.6233 206.9625,-29.4562 213.9554,-29.7703"/>
</g>
<!-- Node6 -->
<g id="node6" class="node">
<title>Node6</title>
<g id="a_node6"><a xlink:title=" ">
<polygon fill="#ffffff" stroke="#bfbfbf" points="250.5,-56.5 250.5,-75.5 285.5,-75.5 285.5,-56.5 250.5,-56.5"/>
<text text-anchor="middle" x="268" y="-63.5" font-family="Helvetica,sans-Serif" font-size="10.00" fill="#000000">map</text>
</a>
</g>
</g>
<!-- Node1&#45;&gt;Node6 -->
<g id="edge6" class="edge">
<title>Node1&#45;&gt;Node6</title>
<path fill="none" stroke="#191970" d="M194.5026,-112.2455C208.158,-103.6534 228.2657,-91.0014 243.9989,-81.1018"/>
<polygon fill="#191970" stroke="#191970" points="246.0751,-83.9307 252.675,-75.6427 242.3471,-78.006 246.0751,-83.9307"/>
</g>
<!-- Node2&#45;&gt;Node3 -->
<g id="edge2" class="edge">
<title>Node2&#45;&gt;Node3</title>
<path fill="none" stroke="#191970" d="M121.0199,-56.2455C107.8249,-47.6534 88.3949,-35.0014 73.1921,-25.1018"/>
<polygon fill="#191970" stroke="#191970" points="75.0983,-22.1665 64.8084,-19.6427 71.2785,-28.0325 75.0983,-22.1665"/>
</g>
<!-- Node2&#45;&gt;Node4 -->
<g id="edge3" class="edge">
<title>Node2&#45;&gt;Node4</title>
<path fill="none" stroke="#191970" d="M149.064,-56.2455C160.3562,-47.814 176.8845,-35.4729 190.0271,-25.6598"/>
<polygon fill="#191970" stroke="#191970" points="192.1669,-28.4301 198.0857,-19.6427 187.9789,-22.8211 192.1669,-28.4301"/>
</g>
<!-- Node5 -->
<g id="node5" class="node">
<title>Node5</title>
<g id="a_node5"><a xlink:title=" ">
<polygon fill="#ffffff" stroke="#bfbfbf" points="118,-.5 118,-19.5 162,-19.5 162,-.5 118,-.5"/>
<text text-anchor="middle" x="140" y="-7.5" font-family="Helvetica,sans-Serif" font-size="10.00" fill="#000000">vector</text>
</a>
</g>
</g>
<!-- Node2&#45;&gt;Node5 -->
<g id="edge4" class="edge">
<title>Node2&#45;&gt;Node5</title>
<path fill="none" stroke="#191970" d="M136.6967,-56.2455C137.2187,-48.9382 137.9504,-38.6944 138.5925,-29.7046"/>
<polygon fill="#191970" stroke="#191970" points="142.0898,-29.8667 139.3112,-19.6427 135.1076,-29.3679 142.0898,-29.8667"/>
</g>
</g>
</svg>
