<?xml version="1.0" encoding="UTF-8" standalone="no"?>
<!DOCTYPE svg PUBLIC "-//W3C//DTD SVG 1.1//EN"
 "http://www.w3.org/Graphics/SVG/1.1/DTD/svg11.dtd">
<!-- Generated by graphviz version 2.40.1 (20161225.0304)
 -->
<!-- Title: libbsn/test/unit/processor/ProcessorTest.cpp Pages: 1 -->
<svg width="372pt" height="151pt"
 viewBox="0.00 0.00 372.00 151.00" xmlns="http://www.w3.org/2000/svg" xmlns:xlink="http://www.w3.org/1999/xlink">
<g id="graph0" class="graph" transform="scale(1 1) rotate(0) translate(4 147)">
<title>libbsn/test/unit/processor/ProcessorTest.cpp</title>
<polygon fill="#ffffff" stroke="transparent" points="-4,4 -4,-147 368,-147 368,4 -4,4"/>
<!-- Node1 -->
<g id="node1" class="node">
<title>Node1</title>
<g id="a_node1"><a xlink:title=" ">
<polygon fill="#bfbfbf" stroke="#000000" points="36.5,-112.5 36.5,-142.5 162.5,-142.5 162.5,-112.5 36.5,-112.5"/>
<text text-anchor="start" x="44.5" y="-130.5" font-family="Helvetica,sans-Serif" font-size="10.00" fill="#000000">libbsn/test/unit/processor</text>
<text text-anchor="middle" x="99.5" y="-119.5" font-family="Helvetica,sans-Serif" font-size="10.00" fill="#000000">/ProcessorTest.cpp</text>
</a>
</g>
</g>
<!-- Node2 -->
<g id="node2" class="node">
<title>Node2</title>
<g id="a_node2"><a xlink:title=" ">
<polygon fill="#ffffff" stroke="#bfbfbf" points="0,-56.5 0,-75.5 71,-75.5 71,-56.5 0,-56.5"/>
<text text-anchor="middle" x="35.5" y="-63.5" font-family="Helvetica,sans-Serif" font-size="10.00" fill="#000000">gtest/gtest.h</text>
</a>
</g>
</g>
<!-- Node1&#45;&gt;Node2 -->
<g id="edge1" class="edge">
<title>Node1&#45;&gt;Node2</title>
<path fill="none" stroke="#191970" d="M83.6798,-112.2977C74.4258,-103.4052 62.7219,-92.1586 53.167,-82.9769"/>
<polygon fill="#191970" stroke="#191970" points="55.3828,-80.2521 45.7472,-75.8469 50.5326,-85.2995 55.3828,-80.2521"/>
</g>
<!-- Node3 -->
<g id="node3" class="node">
<title>Node3</title>
<g id="a_node3"><a xlink:title=" ">
<polygon fill="#ffffff" stroke="#bfbfbf" points="73.5,-.5 73.5,-19.5 117.5,-19.5 117.5,-.5 73.5,-.5"/>
<text text-anchor="middle" x="95.5" y="-7.5" font-family="Helvetica,sans-Serif" font-size="10.00" fill="#000000">vector</text>
</a>
</g>
</g>
<!-- Node1&#45;&gt;Node3 -->
<g id="edge2" class="edge">
<title>Node1&#45;&gt;Node3</title>
<path fill="none" stroke="#191970" d="M98.9771,-112.1389C98.2564,-90.9692 96.9576,-52.8174 96.1676,-29.6112"/>
<polygon fill="#191970" stroke="#191970" points="99.6637,-29.4346 95.8254,-19.5595 92.6678,-29.6728 99.6637,-29.4346"/>
</g>
<!-- Node4 -->
<g id="node4" class="node">
<title>Node4</title>
<g id="a_node4"><a xlink:href="Processor_8hpp.html" target="_top" xlink:title=" ">
<polygon fill="#ffffff" stroke="#000000" points="136,-56.5 136,-75.5 261,-75.5 261,-56.5 136,-56.5"/>
<text text-anchor="middle" x="198.5" y="-63.5" font-family="Helvetica,sans-Serif" font-size="10.00" fill="#000000">processor/Processor.hpp</text>
</a>
</g>
</g>
<!-- Node1&#45;&gt;Node4 -->
<g id="edge3" class="edge">
<title>Node1&#45;&gt;Node4</title>
<path fill="none" stroke="#191970" d="M123.7181,-112.4554C139.0773,-102.9141 158.8757,-90.6151 174.2425,-81.0691"/>
<polygon fill="#191970" stroke="#191970" points="176.511,-83.7802 183.1585,-75.5303 172.8172,-77.8341 176.511,-83.7802"/>
</g>
<!-- Node4&#45;&gt;Node3 -->
<g id="edge4" class="edge">
<title>Node4&#45;&gt;Node3</title>
<path fill="none" stroke="#191970" d="M180.5588,-56.2455C164.46,-47.4928 140.6121,-34.527 122.2609,-24.5496"/>
<polygon fill="#191970" stroke="#191970" points="123.6929,-21.3444 113.2356,-19.6427 120.3493,-27.4942 123.6929,-21.3444"/>
</g>
<!-- Node5 -->
<g id="node5" class="node">
<title>Node5</title>
<g id="a_node5"><a xlink:title=" ">
<polygon fill="#ffffff" stroke="#bfbfbf" points="136,-.5 136,-19.5 165,-19.5 165,-.5 136,-.5"/>
<text text-anchor="middle" x="150.5" y="-7.5" font-family="Helvetica,sans-Serif" font-size="10.00" fill="#000000">list</text>
</a>
</g>
</g>
<!-- Node4&#45;&gt;Node5 -->
<g id="edge5" class="edge">
<title>Node4&#45;&gt;Node5</title>
<path fill="none" stroke="#191970" d="M190.139,-56.2455C183.325,-48.2958 173.5319,-36.8706 165.3848,-27.3656"/>
<polygon fill="#191970" stroke="#191970" points="167.9305,-24.9575 158.7651,-19.6427 162.6157,-29.513 167.9305,-24.9575"/>
</g>
<!-- Node6 -->
<g id="node6" class="node">
<title>Node6</title>
<g id="a_node6"><a xlink:title=" ">
<polygon fill="#ffffff" stroke="#bfbfbf" points="183,-.5 183,-19.5 224,-19.5 224,-.5 183,-.5"/>
<text text-anchor="middle" x="203.5" y="-7.5" font-family="Helvetica,sans-Serif" font-size="10.00" fill="#000000">string</text>
</a>
</g>
</g>
<!-- Node4&#45;&gt;Node6 -->
<g id="edge6" class="edge">
<title>Node4&#45;&gt;Node6</title>
<path fill="none" stroke="#191970" d="M199.3709,-56.2455C200.0234,-48.9382 200.938,-38.6944 201.7407,-29.7046"/>
<polygon fill="#191970" stroke="#191970" points="205.2358,-29.9143 202.639,-19.6427 198.2635,-29.2918 205.2358,-29.9143"/>
</g>
<!-- Node7 -->
<g id="node7" class="node">
<title>Node7</title>
<g id="a_node7"><a xlink:title=" ">
<polygon fill="#ffffff" stroke="#bfbfbf" points="242.5,-.5 242.5,-19.5 296.5,-19.5 296.5,-.5 242.5,-.5"/>
<text text-anchor="middle" x="269.5" y="-7.5" font-family="Helvetica,sans-Serif" font-size="10.00" fill="#000000">iostream</text>
</a>
</g>
</g>
<!-- Node4&#45;&gt;Node7 -->
<g id="edge7" class="edge">
<title>Node4&#45;&gt;Node7</title>
<path fill="none" stroke="#191970" d="M210.8673,-56.2455C221.4554,-47.8943 236.9064,-35.7076 249.2893,-25.9408"/>
<polygon fill="#191970" stroke="#191970" points="251.5903,-28.5837 257.2745,-19.6427 247.2553,-23.0875 251.5903,-28.5837"/>
</g>
<!-- Node8 -->
<g id="node8" class="node">
<title>Node8</title>
<g id="a_node8"><a xlink:title=" ">
<polygon fill="#ffffff" stroke="#bfbfbf" points="315,-.5 315,-19.5 364,-19.5 364,-.5 315,-.5"/>
<text text-anchor="middle" x="339.5" y="-7.5" font-family="Helvetica,sans-Serif" font-size="10.00" fill="#000000">stdint.h</text>
</a>
</g>
</g>
<!-- Node4&#45;&gt;Node8 -->
<g id="edge8" class="edge">
<title>Node4&#45;&gt;Node8</title>
<path fill="none" stroke="#191970" d="M222.7388,-56.3733C245.7789,-47.2226 280.6214,-33.3844 306.2501,-23.2057"/>
<polygon fill="#191970" stroke="#191970" points="307.5756,-26.4452 315.5775,-19.5011 304.9918,-19.9395 307.5756,-26.4452"/>
</g>
</g>
</svg>
