<?xml version="1.0" encoding="UTF-8" standalone="no"?>
<!DOCTYPE svg PUBLIC "-//W3C//DTD SVG 1.1//EN"
 "http://www.w3.org/Graphics/SVG/1.1/DTD/svg11.dtd">
<!-- Generated by graphviz version 2.40.1 (20161225.0304)
 -->
<!-- Title: libbsn/include/processor/Processor.hpp Pages: 1 -->
<svg width="299pt" height="95pt"
 viewBox="0.00 0.00 298.50 95.00" xmlns="http://www.w3.org/2000/svg" xmlns:xlink="http://www.w3.org/1999/xlink">
<g id="graph0" class="graph" transform="scale(1 1) rotate(0) translate(4 91)">
<title>libbsn/include/processor/Processor.hpp</title>
<polygon fill="#ffffff" stroke="transparent" points="-4,4 -4,-91 294.5,-91 294.5,4 -4,4"/>
<!-- Node1 -->
<g id="node1" class="node">
<title>Node1</title>
<g id="a_node1"><a xlink:title=" ">
<polygon fill="#bfbfbf" stroke="#000000" points="69,-56.5 69,-86.5 191,-86.5 191,-56.5 69,-56.5"/>
<text text-anchor="start" x="77" y="-74.5" font-family="Helvetica,sans-Serif" font-size="10.00" fill="#000000">libbsn/include/processor</text>
<text text-anchor="middle" x="130" y="-63.5" font-family="Helvetica,sans-Serif" font-size="10.00" fill="#000000">/Processor.hpp</text>
</a>
</g>
</g>
<!-- Node2 -->
<g id="node2" class="node">
<title>Node2</title>
<g id="a_node2"><a xlink:title=" ">
<polygon fill="#ffffff" stroke="#bfbfbf" points="0,-.5 0,-19.5 44,-19.5 44,-.5 0,-.5"/>
<text text-anchor="middle" x="22" y="-7.5" font-family="Helvetica,sans-Serif" font-size="10.00" fill="#000000">vector</text>
</a>
</g>
</g>
<!-- Node1&#45;&gt;Node2 -->
<g id="edge1" class="edge">
<title>Node1&#45;&gt;Node2</title>
<path fill="none" stroke="#191970" d="M103.5802,-56.4554C86.5086,-46.734 64.4098,-34.15 47.5191,-24.5317"/>
<polygon fill="#191970" stroke="#191970" points="49.158,-21.4373 38.7362,-19.5303 45.6941,-27.5202 49.158,-21.4373"/>
</g>
<!-- Node3 -->
<g id="node3" class="node">
<title>Node3</title>
<g id="a_node3"><a xlink:title=" ">
<polygon fill="#ffffff" stroke="#bfbfbf" points="62.5,-.5 62.5,-19.5 91.5,-19.5 91.5,-.5 62.5,-.5"/>
<text text-anchor="middle" x="77" y="-7.5" font-family="Helvetica,sans-Serif" font-size="10.00" fill="#000000">list</text>
</a>
</g>
</g>
<!-- Node1&#45;&gt;Node3 -->
<g id="edge2" class="edge">
<title>Node1&#45;&gt;Node3</title>
<path fill="none" stroke="#191970" d="M116.8989,-56.2977C109.3887,-47.5831 99.93,-36.6075 92.1073,-27.5302"/>
<polygon fill="#191970" stroke="#191970" points="94.6655,-25.1372 85.486,-19.8469 89.3629,-29.707 94.6655,-25.1372"/>
</g>
<!-- Node4 -->
<g id="node4" class="node">
<title>Node4</title>
<g id="a_node4"><a xlink:title=" ">
<polygon fill="#ffffff" stroke="#bfbfbf" points="109.5,-.5 109.5,-19.5 150.5,-19.5 150.5,-.5 109.5,-.5"/>
<text text-anchor="middle" x="130" y="-7.5" font-family="Helvetica,sans-Serif" font-size="10.00" fill="#000000">string</text>
</a>
</g>
</g>
<!-- Node1&#45;&gt;Node4 -->
<g id="edge3" class="edge">
<title>Node1&#45;&gt;Node4</title>
<path fill="none" stroke="#191970" d="M130,-56.2977C130,-48.3834 130,-38.6043 130,-30.0759"/>
<polygon fill="#191970" stroke="#191970" points="133.5001,-29.8469 130,-19.8469 126.5001,-29.847 133.5001,-29.8469"/>
</g>
<!-- Node5 -->
<g id="node5" class="node">
<title>Node5</title>
<g id="a_node5"><a xlink:title=" ">
<polygon fill="#ffffff" stroke="#bfbfbf" points="169,-.5 169,-19.5 223,-19.5 223,-.5 169,-.5"/>
<text text-anchor="middle" x="196" y="-7.5" font-family="Helvetica,sans-Serif" font-size="10.00" fill="#000000">iostream</text>
</a>
</g>
</g>
<!-- Node1&#45;&gt;Node5 -->
<g id="edge4" class="edge">
<title>Node1&#45;&gt;Node5</title>
<path fill="none" stroke="#191970" d="M146.3146,-56.2977C155.9533,-47.3163 168.1691,-35.9334 178.0759,-26.702"/>
<polygon fill="#191970" stroke="#191970" points="180.5025,-29.2249 185.4326,-19.8469 175.7304,-24.1036 180.5025,-29.2249"/>
</g>
<!-- Node6 -->
<g id="node6" class="node">
<title>Node6</title>
<g id="a_node6"><a xlink:title=" ">
<polygon fill="#ffffff" stroke="#bfbfbf" points="241.5,-.5 241.5,-19.5 290.5,-19.5 290.5,-.5 241.5,-.5"/>
<text text-anchor="middle" x="266" y="-7.5" font-family="Helvetica,sans-Serif" font-size="10.00" fill="#000000">stdint.h</text>
</a>
</g>
</g>
<!-- Node1&#45;&gt;Node6 -->
<g id="edge5" class="edge">
<title>Node1&#45;&gt;Node6</title>
<path fill="none" stroke="#191970" d="M163.2693,-56.4554C185.3641,-46.464 214.146,-33.4487 235.6219,-23.7372"/>
<polygon fill="#191970" stroke="#191970" points="237.2553,-26.8398 244.9248,-19.5303 234.371,-20.4616 237.2553,-26.8398"/>
</g>
</g>
</svg>
