<?xml version="1.0" encoding="UTF-8" standalone="no"?>
<!DOCTYPE svg PUBLIC "-//W3C//DTD SVG 1.1//EN"
 "http://www.w3.org/Graphics/SVG/1.1/DTD/svg11.dtd">
<!-- Generated by graphviz version 2.40.1 (20161225.0304)
 -->
<!-- Title: libbsn/include/range/Range.hpp Pages: 1 -->
<svg width="945pt" height="240pt"
 viewBox="0.00 0.00 945.00 240.00" xmlns="http://www.w3.org/2000/svg" xmlns:xlink="http://www.w3.org/1999/xlink">
<g id="graph0" class="graph" transform="scale(1 1) rotate(0) translate(4 236)">
<title>libbsn/include/range/Range.hpp</title>
<polygon fill="#ffffff" stroke="transparent" points="-4,4 -4,-236 941,-236 941,4 -4,4"/>
<!-- Node1 -->
<g id="node1" class="node">
<title>Node1</title>
<g id="a_node1"><a xlink:title=" ">
<polygon fill="#bfbfbf" stroke="#000000" points="552,-201.5 552,-231.5 655,-231.5 655,-201.5 552,-201.5"/>
<text text-anchor="start" x="560" y="-219.5" font-family="Helvetica,sans-Serif" font-size="10.00" fill="#000000">libbsn/include/range</text>
<text text-anchor="middle" x="603.5" y="-208.5" font-family="Helvetica,sans-Serif" font-size="10.00" fill="#000000">/Range.hpp</text>
</a>
</g>
</g>
<!-- Node2 -->
<g id="node2" class="node">
<title>Node2</title>
<g id="a_node2"><a xlink:href="SensorConfiguration_8hpp.html" target="_top" xlink:title=" ">
<polygon fill="#ffffff" stroke="#000000" points="151.5,-134.5 151.5,-164.5 285.5,-164.5 285.5,-134.5 151.5,-134.5"/>
<text text-anchor="start" x="159.5" y="-152.5" font-family="Helvetica,sans-Serif" font-size="10.00" fill="#000000">libbsn/include/configuration</text>
<text text-anchor="middle" x="218.5" y="-141.5" font-family="Helvetica,sans-Serif" font-size="10.00" fill="#000000">/SensorConfiguration.hpp</text>
</a>
</g>
</g>
<!-- Node1&#45;&gt;Node2 -->
<g id="edge1" class="edge">
<title>Node1&#45;&gt;Node2</title>
<path fill="none" stroke="#191970" d="M541.8788,-206.4553C480.4168,-196.3437 383.3349,-180.1206 299.5,-165 294.9911,-164.1868 290.3438,-163.3347 285.6632,-162.4661"/>
<polygon fill="#191970" stroke="#191970" points="541.3688,-209.9183 551.8039,-208.0859 542.5037,-203.0109 541.3688,-209.9183"/>
</g>
<!-- Node5 -->
<g id="node5" class="node">
<title>Node5</title>
<g id="a_node5"><a xlink:href="Markov_8hpp.html" target="_top" xlink:title=" ">
<polygon fill="#ffffff" stroke="#000000" points="456,-134.5 456,-164.5 575,-164.5 575,-134.5 456,-134.5"/>
<text text-anchor="start" x="464" y="-152.5" font-family="Helvetica,sans-Serif" font-size="10.00" fill="#000000">libbsn/include/generator</text>
<text text-anchor="middle" x="515.5" y="-141.5" font-family="Helvetica,sans-Serif" font-size="10.00" fill="#000000">/Markov.hpp</text>
</a>
</g>
</g>
<!-- Node1&#45;&gt;Node5 -->
<g id="edge4" class="edge">
<title>Node1&#45;&gt;Node5</title>
<path fill="none" stroke="#191970" d="M575.3457,-195.0643C562.334,-185.1577 547.1886,-173.6265 535.3895,-164.6432"/>
<polygon fill="#191970" stroke="#191970" points="573.4548,-198.0237 583.5314,-201.2967 577.6952,-192.4542 573.4548,-198.0237"/>
</g>
<!-- Node7 -->
<g id="node7" class="node">
<title>Node7</title>
<g id="a_node7"><a xlink:href="DataGenerator_8cpp.html" target="_top" xlink:title=" ">
<polygon fill="#ffffff" stroke="#000000" points="573.5,-.5 573.5,-30.5 675.5,-30.5 675.5,-.5 573.5,-.5"/>
<text text-anchor="start" x="581.5" y="-18.5" font-family="Helvetica,sans-Serif" font-size="10.00" fill="#000000">libbsn/src/generator</text>
<text text-anchor="middle" x="624.5" y="-7.5" font-family="Helvetica,sans-Serif" font-size="10.00" fill="#000000">/DataGenerator.cpp</text>
</a>
</g>
</g>
<!-- Node1&#45;&gt;Node7 -->
<g id="edge10" class="edge">
<title>Node1&#45;&gt;Node7</title>
<path fill="none" stroke="#191970" d="M610.3946,-191.3579C616.5471,-167.5347 625.0942,-130.6427 628.5,-98 629.9298,-84.2966 629.0339,-80.7674 628.5,-67 628.0274,-54.8128 626.9281,-41.0398 626.0012,-30.8055"/>
<polygon fill="#191970" stroke="#191970" points="606.9327,-190.7597 607.7634,-201.3219 613.7007,-192.547 606.9327,-190.7597"/>
</g>
<!-- Node8 -->
<g id="node8" class="node">
<title>Node8</title>
<g id="a_node8"><a xlink:href="DataGeneratorTest_8cpp.html" target="_top" xlink:title=" ">
<polygon fill="#ffffff" stroke="#000000" points="409.5,-.5 409.5,-30.5 533.5,-30.5 533.5,-.5 409.5,-.5"/>
<text text-anchor="start" x="417.5" y="-18.5" font-family="Helvetica,sans-Serif" font-size="10.00" fill="#000000">libbsn/test/unit/generator</text>
<text text-anchor="middle" x="471.5" y="-7.5" font-family="Helvetica,sans-Serif" font-size="10.00" fill="#000000">/DataGeneratorTest.cpp</text>
</a>
</g>
</g>
<!-- Node1&#45;&gt;Node8 -->
<g id="edge12" class="edge">
<title>Node1&#45;&gt;Node8</title>
<path fill="none" stroke="#191970" d="M541.601,-210.1486C475.5829,-199.5882 374.822,-171.638 332.5,-98 311.4551,-61.3829 363.1949,-39.3062 409.414,-27.3291"/>
<polygon fill="#191970" stroke="#191970" points="541.474,-213.6689 551.8839,-211.6985 542.5173,-206.7471 541.474,-213.6689"/>
</g>
<!-- Node10 -->
<g id="node10" class="node">
<title>Node10</title>
<g id="a_node10"><a xlink:href="Range_8cpp.html" target="_top" xlink:title=" ">
<polygon fill="#ffffff" stroke="#000000" points="675.5,-140 675.5,-159 811.5,-159 811.5,-140 675.5,-140"/>
<text text-anchor="middle" x="743.5" y="-147" font-family="Helvetica,sans-Serif" font-size="10.00" fill="#000000">libbsn/src/range/Range.cpp</text>
</a>
</g>
</g>
<!-- Node1&#45;&gt;Node10 -->
<g id="edge11" class="edge">
<title>Node1&#45;&gt;Node10</title>
<path fill="none" stroke="#191970" d="M644.1747,-197.0343C670.2026,-184.5781 702.8333,-168.9619 723.4321,-159.1039"/>
<polygon fill="#191970" stroke="#191970" points="642.4281,-193.9899 634.9187,-201.4639 645.4499,-200.3041 642.4281,-193.9899"/>
</g>
<!-- Node11 -->
<g id="node11" class="node">
<title>Node11</title>
<g id="a_node11"><a xlink:href="RangeTest_8cpp.html" target="_top" xlink:title=" ">
<polygon fill="#ffffff" stroke="#000000" points="830,-134.5 830,-164.5 937,-164.5 937,-134.5 830,-134.5"/>
<text text-anchor="start" x="838" y="-152.5" font-family="Helvetica,sans-Serif" font-size="10.00" fill="#000000">libbsn/test/unit/range</text>
<text text-anchor="middle" x="883.5" y="-141.5" font-family="Helvetica,sans-Serif" font-size="10.00" fill="#000000">/RangeTest.cpp</text>
</a>
</g>
</g>
<!-- Node1&#45;&gt;Node11 -->
<g id="edge13" class="edge">
<title>Node1&#45;&gt;Node11</title>
<path fill="none" stroke="#191970" d="M665.1159,-202.0192C708.5691,-191.7721 768.125,-177.6577 820.5,-165 823.5656,-164.2591 826.7142,-163.4949 829.8911,-162.7213"/>
<polygon fill="#191970" stroke="#191970" points="664.196,-198.64 655.2656,-204.3409 665.8019,-205.4533 664.196,-198.64"/>
</g>
<!-- Node3 -->
<g id="node3" class="node">
<title>Node3</title>
<g id="a_node3"><a xlink:href="SensorConfiguration_8cpp.html" target="_top" xlink:title=" ">
<polygon fill="#ffffff" stroke="#000000" points="157,-67.5 157,-97.5 284,-97.5 284,-67.5 157,-67.5"/>
<text text-anchor="start" x="165" y="-85.5" font-family="Helvetica,sans-Serif" font-size="10.00" fill="#000000">libbsn/src/configuration</text>
<text text-anchor="middle" x="220.5" y="-74.5" font-family="Helvetica,sans-Serif" font-size="10.00" fill="#000000">/SensorConfiguration.cpp</text>
</a>
</g>
</g>
<!-- Node2&#45;&gt;Node3 -->
<g id="edge2" class="edge">
<title>Node2&#45;&gt;Node3</title>
<path fill="none" stroke="#191970" d="M219.2605,-124.0249C219.526,-115.128 219.8156,-105.4287 220.048,-97.6432"/>
<polygon fill="#191970" stroke="#191970" points="215.7539,-124.1967 218.9538,-134.2967 222.7507,-124.4056 215.7539,-124.1967"/>
</g>
<!-- Node4 -->
<g id="node4" class="node">
<title>Node4</title>
<g id="a_node4"><a xlink:href="ConfigurationTest_8cpp.html" target="_top" xlink:title=" ">
<polygon fill="#ffffff" stroke="#000000" points="0,-67.5 0,-97.5 139,-97.5 139,-67.5 0,-67.5"/>
<text text-anchor="start" x="8" y="-85.5" font-family="Helvetica,sans-Serif" font-size="10.00" fill="#000000">libbsn/test/unit/configuration</text>
<text text-anchor="middle" x="69.5" y="-74.5" font-family="Helvetica,sans-Serif" font-size="10.00" fill="#000000">/ConfigurationTest.cpp</text>
</a>
</g>
</g>
<!-- Node2&#45;&gt;Node4 -->
<g id="edge3" class="edge">
<title>Node2&#45;&gt;Node4</title>
<path fill="none" stroke="#191970" d="M175.8309,-130.3132C152.7325,-119.9267 124.6064,-107.2794 103.0844,-97.6017"/>
<polygon fill="#191970" stroke="#191970" points="174.5057,-133.5549 185.0615,-134.4639 177.3765,-127.1706 174.5057,-133.5549"/>
</g>
<!-- Node6 -->
<g id="node6" class="node">
<title>Node6</title>
<g id="a_node6"><a xlink:href="DataGenerator_8hpp.html" target="_top" xlink:title=" ">
<polygon fill="#ffffff" stroke="#000000" points="500,-67.5 500,-97.5 619,-97.5 619,-67.5 500,-67.5"/>
<text text-anchor="start" x="508" y="-85.5" font-family="Helvetica,sans-Serif" font-size="10.00" fill="#000000">libbsn/include/generator</text>
<text text-anchor="middle" x="559.5" y="-74.5" font-family="Helvetica,sans-Serif" font-size="10.00" fill="#000000">/DataGenerator.hpp</text>
</a>
</g>
</g>
<!-- Node5&#45;&gt;Node6 -->
<g id="edge5" class="edge">
<title>Node5&#45;&gt;Node6</title>
<path fill="none" stroke="#191970" d="M531.0816,-125.7735C537.2272,-116.4154 544.1052,-105.9421 549.5552,-97.6432"/>
<polygon fill="#191970" stroke="#191970" points="528.0481,-124.0167 525.4843,-134.2967 533.8992,-127.8592 528.0481,-124.0167"/>
</g>
<!-- Node5&#45;&gt;Node8 -->
<g id="edge9" class="edge">
<title>Node5&#45;&gt;Node8</title>
<path fill="none" stroke="#191970" d="M502.8016,-124.8496C498.8157,-116.4752 494.6411,-106.9662 491.5,-98 483.4601,-75.0502 477.4757,-47.4119 474.2371,-30.6627"/>
<polygon fill="#191970" stroke="#191970" points="499.7732,-126.6232 507.3207,-134.0586 506.0573,-123.5394 499.7732,-126.6232"/>
</g>
<!-- Node9 -->
<g id="node9" class="node">
<title>Node9</title>
<g id="a_node9"><a xlink:href="Markov_8cpp.html" target="_top" xlink:title=" ">
<polygon fill="#ffffff" stroke="#000000" points="341.5,-67.5 341.5,-97.5 443.5,-97.5 443.5,-67.5 341.5,-67.5"/>
<text text-anchor="start" x="349.5" y="-85.5" font-family="Helvetica,sans-Serif" font-size="10.00" fill="#000000">libbsn/src/generator</text>
<text text-anchor="middle" x="392.5" y="-74.5" font-family="Helvetica,sans-Serif" font-size="10.00" fill="#000000">/Markov.cpp</text>
</a>
</g>
</g>
<!-- Node5&#45;&gt;Node9 -->
<g id="edge8" class="edge">
<title>Node5&#45;&gt;Node9</title>
<path fill="none" stroke="#191970" d="M479.0317,-129.6352C460.2823,-119.422 437.7901,-107.1702 420.437,-97.7177"/>
<polygon fill="#191970" stroke="#191970" points="477.4405,-132.7539 487.8964,-134.4639 480.789,-126.6067 477.4405,-132.7539"/>
</g>
<!-- Node6&#45;&gt;Node7 -->
<g id="edge6" class="edge">
<title>Node6&#45;&gt;Node7</title>
<path fill="none" stroke="#191970" d="M581.4008,-59.9253C590.7555,-50.2828 601.4257,-39.2843 609.8089,-30.6432"/>
<polygon fill="#191970" stroke="#191970" points="578.7006,-57.6821 574.2495,-67.2967 583.7248,-62.5564 578.7006,-57.6821"/>
</g>
<!-- Node6&#45;&gt;Node8 -->
<g id="edge7" class="edge">
<title>Node6&#45;&gt;Node8</title>
<path fill="none" stroke="#191970" d="M531.3457,-61.0643C518.334,-51.1577 503.1886,-39.6265 491.3895,-30.6432"/>
<polygon fill="#191970" stroke="#191970" points="529.4548,-64.0237 539.5314,-67.2967 533.6952,-58.4542 529.4548,-64.0237"/>
</g>
</g>
</svg>
