<?xml version="1.0" encoding="UTF-8" standalone="no"?>
<!DOCTYPE svg PUBLIC "-//W3C//DTD SVG 1.1//EN"
 "http://www.w3.org/Graphics/SVG/1.1/DTD/svg11.dtd">
<!-- Generated by graphviz version 2.40.1 (20161225.0304)
 -->
<!-- Title: libbsn/test/unit/range/RangeTest.cpp Pages: 1 -->
<svg width="371pt" height="151pt"
 viewBox="0.00 0.00 370.50 151.00" xmlns="http://www.w3.org/2000/svg" xmlns:xlink="http://www.w3.org/1999/xlink">
<g id="graph0" class="graph" transform="scale(1 1) rotate(0) translate(4 147)">
<title>libbsn/test/unit/range/RangeTest.cpp</title>
<polygon fill="#ffffff" stroke="transparent" points="-4,4 -4,-147 366.5,-147 366.5,4 -4,4"/>
<!-- Node1 -->
<g id="node1" class="node">
<title>Node1</title>
<g id="a_node1"><a xlink:title=" ">
<polygon fill="#bfbfbf" stroke="#000000" points="58,-112.5 58,-142.5 165,-142.5 165,-112.5 58,-112.5"/>
<text text-anchor="start" x="66" y="-130.5" font-family="Helvetica,sans-Serif" font-size="10.00" fill="#000000">libbsn/test/unit/range</text>
<text text-anchor="middle" x="111.5" y="-119.5" font-family="Helvetica,sans-Serif" font-size="10.00" fill="#000000">/RangeTest.cpp</text>
</a>
</g>
</g>
<!-- Node2 -->
<g id="node2" class="node">
<title>Node2</title>
<g id="a_node2"><a xlink:title=" ">
<polygon fill="#ffffff" stroke="#bfbfbf" points="0,-56.5 0,-75.5 71,-75.5 71,-56.5 0,-56.5"/>
<text text-anchor="middle" x="35.5" y="-63.5" font-family="Helvetica,sans-Serif" font-size="10.00" fill="#000000">gtest/gtest.h</text>
</a>
</g>
</g>
<!-- Node1&#45;&gt;Node2 -->
<g id="edge1" class="edge">
<title>Node1&#45;&gt;Node2</title>
<path fill="none" stroke="#191970" d="M92.7135,-112.2977C81.3947,-103.1384 66.9895,-91.4816 55.4654,-82.1562"/>
<polygon fill="#191970" stroke="#191970" points="57.6439,-79.4167 47.6686,-75.8469 53.2405,-84.8583 57.6439,-79.4167"/>
</g>
<!-- Node3 -->
<g id="node3" class="node">
<title>Node3</title>
<g id="a_node3"><a xlink:title=" ">
<polygon fill="#ffffff" stroke="#bfbfbf" points="89.5,-56.5 89.5,-75.5 133.5,-75.5 133.5,-56.5 89.5,-56.5"/>
<text text-anchor="middle" x="111.5" y="-63.5" font-family="Helvetica,sans-Serif" font-size="10.00" fill="#000000">vector</text>
</a>
</g>
</g>
<!-- Node1&#45;&gt;Node3 -->
<g id="edge2" class="edge">
<title>Node1&#45;&gt;Node3</title>
<path fill="none" stroke="#191970" d="M111.5,-112.2977C111.5,-104.3834 111.5,-94.6043 111.5,-86.0759"/>
<polygon fill="#191970" stroke="#191970" points="115.0001,-85.8469 111.5,-75.8469 108.0001,-85.847 115.0001,-85.8469"/>
</g>
<!-- Node4 -->
<g id="node4" class="node">
<title>Node4</title>
<g id="a_node4"><a xlink:href="Range_8hpp.html" target="_top" xlink:title=" ">
<polygon fill="#ffffff" stroke="#000000" points="152,-56.5 152,-75.5 243,-75.5 243,-56.5 152,-56.5"/>
<text text-anchor="middle" x="197.5" y="-63.5" font-family="Helvetica,sans-Serif" font-size="10.00" fill="#000000">range/Range.hpp</text>
</a>
</g>
</g>
<!-- Node1&#45;&gt;Node4 -->
<g id="edge3" class="edge">
<title>Node1&#45;&gt;Node4</title>
<path fill="none" stroke="#191970" d="M132.7584,-112.2977C145.7718,-102.9917 162.3903,-91.1075 175.5317,-81.7099"/>
<polygon fill="#191970" stroke="#191970" points="177.8889,-84.3271 183.9871,-75.6633 173.8171,-78.6332 177.8889,-84.3271"/>
</g>
<!-- Node5 -->
<g id="node5" class="node">
<title>Node5</title>
<g id="a_node5"><a xlink:title=" ">
<polygon fill="#ffffff" stroke="#bfbfbf" points="34,-.5 34,-19.5 75,-19.5 75,-.5 34,-.5"/>
<text text-anchor="middle" x="54.5" y="-7.5" font-family="Helvetica,sans-Serif" font-size="10.00" fill="#000000">string</text>
</a>
</g>
</g>
<!-- Node4&#45;&gt;Node5 -->
<g id="edge4" class="edge">
<title>Node4&#45;&gt;Node5</title>
<path fill="none" stroke="#191970" d="M172.9174,-56.3733C148.4175,-46.7789 110.759,-32.0315 84.5092,-21.7519"/>
<polygon fill="#191970" stroke="#191970" points="85.6463,-18.4384 75.0586,-18.0509 83.0938,-24.9564 85.6463,-18.4384"/>
</g>
<!-- Node6 -->
<g id="node6" class="node">
<title>Node6</title>
<g id="a_node6"><a xlink:title=" ">
<polygon fill="#ffffff" stroke="#bfbfbf" points="93,-.5 93,-19.5 152,-19.5 152,-.5 93,-.5"/>
<text text-anchor="middle" x="122.5" y="-7.5" font-family="Helvetica,sans-Serif" font-size="10.00" fill="#000000">stdexcept</text>
</a>
</g>
</g>
<!-- Node4&#45;&gt;Node6 -->
<g id="edge5" class="edge">
<title>Node4&#45;&gt;Node6</title>
<path fill="none" stroke="#191970" d="M184.436,-56.2455C173.1438,-47.814 156.6155,-35.4729 143.4729,-25.6598"/>
<polygon fill="#191970" stroke="#191970" points="145.5211,-22.8211 135.4143,-19.6427 141.3331,-28.4301 145.5211,-22.8211"/>
</g>
<!-- Node7 -->
<g id="node7" class="node">
<title>Node7</title>
<g id="a_node7"><a xlink:title=" ">
<polygon fill="#ffffff" stroke="#bfbfbf" points="170.5,-.5 170.5,-19.5 224.5,-19.5 224.5,-.5 170.5,-.5"/>
<text text-anchor="middle" x="197.5" y="-7.5" font-family="Helvetica,sans-Serif" font-size="10.00" fill="#000000">iostream</text>
</a>
</g>
</g>
<!-- Node4&#45;&gt;Node7 -->
<g id="edge6" class="edge">
<title>Node4&#45;&gt;Node7</title>
<path fill="none" stroke="#191970" d="M197.5,-56.2455C197.5,-48.9382 197.5,-38.6944 197.5,-29.7046"/>
<polygon fill="#191970" stroke="#191970" points="201.0001,-29.6426 197.5,-19.6427 194.0001,-29.6427 201.0001,-29.6426"/>
</g>
<!-- Node8 -->
<g id="node8" class="node">
<title>Node8</title>
<g id="a_node8"><a xlink:title=" ">
<polygon fill="#ffffff" stroke="#bfbfbf" points="243,-.5 243,-19.5 292,-19.5 292,-.5 243,-.5"/>
<text text-anchor="middle" x="267.5" y="-7.5" font-family="Helvetica,sans-Serif" font-size="10.00" fill="#000000">stdint.h</text>
</a>
</g>
</g>
<!-- Node4&#45;&gt;Node8 -->
<g id="edge7" class="edge">
<title>Node4&#45;&gt;Node8</title>
<path fill="none" stroke="#191970" d="M209.6931,-56.2455C220.1321,-47.8943 235.3655,-35.7076 247.574,-25.9408"/>
<polygon fill="#191970" stroke="#191970" points="249.8244,-28.6227 255.4467,-19.6427 245.4515,-23.1566 249.8244,-28.6227"/>
</g>
<!-- Node9 -->
<g id="node9" class="node">
<title>Node9</title>
<g id="a_node9"><a xlink:title=" ">
<polygon fill="#ffffff" stroke="#bfbfbf" points="310.5,-.5 310.5,-19.5 362.5,-19.5 362.5,-.5 310.5,-.5"/>
<text text-anchor="middle" x="336.5" y="-7.5" font-family="Helvetica,sans-Serif" font-size="10.00" fill="#000000">sstream</text>
</a>
</g>
</g>
<!-- Node4&#45;&gt;Node9 -->
<g id="edge8" class="edge">
<title>Node4&#45;&gt;Node9</title>
<path fill="none" stroke="#191970" d="M221.395,-56.3733C244.0082,-47.2629 278.1542,-33.5062 303.3873,-23.3404"/>
<polygon fill="#191970" stroke="#191970" points="304.9493,-26.4845 312.9169,-19.5011 302.3334,-19.9917 304.9493,-26.4845"/>
</g>
</g>
</svg>
