<?xml version="1.0" encoding="UTF-8" standalone="no"?>
<!DOCTYPE svg PUBLIC "-//W3C//DTD SVG 1.1//EN"
 "http://www.w3.org/Graphics/SVG/1.1/DTD/svg11.dtd">
<!-- Generated by graphviz version 2.40.1 (20161225.0304)
 -->
<!-- Title: libbsn/include/range/Range.hpp Pages: 1 -->
<svg width="337pt" height="95pt"
 viewBox="0.00 0.00 336.50 95.00" xmlns="http://www.w3.org/2000/svg" xmlns:xlink="http://www.w3.org/1999/xlink">
<g id="graph0" class="graph" transform="scale(1 1) rotate(0) translate(4 91)">
<title>libbsn/include/range/Range.hpp</title>
<polygon fill="#ffffff" stroke="transparent" points="-4,4 -4,-91 332.5,-91 332.5,4 -4,4"/>
<!-- Node1 -->
<g id="node1" class="node">
<title>Node1</title>
<g id="a_node1"><a xlink:title=" ">
<polygon fill="#bfbfbf" stroke="#000000" points="112,-56.5 112,-86.5 215,-86.5 215,-56.5 112,-56.5"/>
<text text-anchor="start" x="120" y="-74.5" font-family="Helvetica,sans-Serif" font-size="10.00" fill="#000000">libbsn/include/range</text>
<text text-anchor="middle" x="163.5" y="-63.5" font-family="Helvetica,sans-Serif" font-size="10.00" fill="#000000">/Range.hpp</text>
</a>
</g>
</g>
<!-- Node2 -->
<g id="node2" class="node">
<title>Node2</title>
<g id="a_node2"><a xlink:title=" ">
<polygon fill="#ffffff" stroke="#bfbfbf" points="0,-.5 0,-19.5 41,-19.5 41,-.5 0,-.5"/>
<text text-anchor="middle" x="20.5" y="-7.5" font-family="Helvetica,sans-Serif" font-size="10.00" fill="#000000">string</text>
</a>
</g>
</g>
<!-- Node1&#45;&gt;Node2 -->
<g id="edge1" class="edge">
<title>Node1&#45;&gt;Node2</title>
<path fill="none" stroke="#191970" d="M128.5183,-56.4554C104.7494,-46.2331 73.6207,-32.8456 50.8889,-23.0693"/>
<polygon fill="#191970" stroke="#191970" points="51.9691,-19.724 41.3999,-18.9884 49.2035,-26.1545 51.9691,-19.724"/>
</g>
<!-- Node3 -->
<g id="node3" class="node">
<title>Node3</title>
<g id="a_node3"><a xlink:title=" ">
<polygon fill="#ffffff" stroke="#bfbfbf" points="59,-.5 59,-19.5 118,-19.5 118,-.5 59,-.5"/>
<text text-anchor="middle" x="88.5" y="-7.5" font-family="Helvetica,sans-Serif" font-size="10.00" fill="#000000">stdexcept</text>
</a>
</g>
</g>
<!-- Node1&#45;&gt;Node3 -->
<g id="edge2" class="edge">
<title>Node1&#45;&gt;Node3</title>
<path fill="none" stroke="#191970" d="M144.9607,-56.2977C133.8992,-47.2274 119.8509,-35.7077 108.5347,-26.4285"/>
<polygon fill="#191970" stroke="#191970" points="110.4604,-23.4813 100.5084,-19.8469 106.0219,-28.8942 110.4604,-23.4813"/>
</g>
<!-- Node4 -->
<g id="node4" class="node">
<title>Node4</title>
<g id="a_node4"><a xlink:title=" ">
<polygon fill="#ffffff" stroke="#bfbfbf" points="136.5,-.5 136.5,-19.5 190.5,-19.5 190.5,-.5 136.5,-.5"/>
<text text-anchor="middle" x="163.5" y="-7.5" font-family="Helvetica,sans-Serif" font-size="10.00" fill="#000000">iostream</text>
</a>
</g>
</g>
<!-- Node1&#45;&gt;Node4 -->
<g id="edge3" class="edge">
<title>Node1&#45;&gt;Node4</title>
<path fill="none" stroke="#191970" d="M163.5,-56.2977C163.5,-48.3834 163.5,-38.6043 163.5,-30.0759"/>
<polygon fill="#191970" stroke="#191970" points="167.0001,-29.8469 163.5,-19.8469 160.0001,-29.847 167.0001,-29.8469"/>
</g>
<!-- Node5 -->
<g id="node5" class="node">
<title>Node5</title>
<g id="a_node5"><a xlink:title=" ">
<polygon fill="#ffffff" stroke="#bfbfbf" points="209,-.5 209,-19.5 258,-19.5 258,-.5 209,-.5"/>
<text text-anchor="middle" x="233.5" y="-7.5" font-family="Helvetica,sans-Serif" font-size="10.00" fill="#000000">stdint.h</text>
</a>
</g>
</g>
<!-- Node1&#45;&gt;Node5 -->
<g id="edge4" class="edge">
<title>Node1&#45;&gt;Node5</title>
<path fill="none" stroke="#191970" d="M180.8034,-56.2977C191.0262,-47.3163 203.9823,-35.9334 214.4896,-26.702"/>
<polygon fill="#191970" stroke="#191970" points="217.0897,-29.0766 222.2921,-19.8469 212.4695,-23.8178 217.0897,-29.0766"/>
</g>
<!-- Node6 -->
<g id="node6" class="node">
<title>Node6</title>
<g id="a_node6"><a xlink:title=" ">
<polygon fill="#ffffff" stroke="#bfbfbf" points="276.5,-.5 276.5,-19.5 328.5,-19.5 328.5,-.5 276.5,-.5"/>
<text text-anchor="middle" x="302.5" y="-7.5" font-family="Helvetica,sans-Serif" font-size="10.00" fill="#000000">sstream</text>
</a>
</g>
</g>
<!-- Node1&#45;&gt;Node6 -->
<g id="edge5" class="edge">
<title>Node1&#45;&gt;Node6</title>
<path fill="none" stroke="#191970" d="M197.5032,-56.4554C220.1871,-46.419 249.7673,-33.3314 271.7479,-23.6061"/>
<polygon fill="#191970" stroke="#191970" points="273.2312,-26.7772 280.9599,-19.5303 270.3989,-20.3758 273.2312,-26.7772"/>
</g>
</g>
</svg>
