<?xml version="1.0" encoding="UTF-8" standalone="no"?>
<!DOCTYPE svg PUBLIC "-//W3C//DTD SVG 1.1//EN"
 "http://www.w3.org/Graphics/SVG/1.1/DTD/svg11.dtd">
<!-- Generated by graphviz version 2.40.1 (20161225.0304)
 -->
<!-- Title: libbsn/src/range/Range.cpp Pages: 1 -->
<svg width="337pt" height="140pt"
 viewBox="0.00 0.00 336.50 140.00" xmlns="http://www.w3.org/2000/svg" xmlns:xlink="http://www.w3.org/1999/xlink">
<g id="graph0" class="graph" transform="scale(1 1) rotate(0) translate(4 136)">
<title>libbsn/src/range/Range.cpp</title>
<polygon fill="#ffffff" stroke="transparent" points="-4,4 -4,-136 332.5,-136 332.5,4 -4,4"/>
<!-- Node1 -->
<g id="node1" class="node">
<title>Node1</title>
<g id="a_node1"><a xlink:title=" ">
<polygon fill="#bfbfbf" stroke="#000000" points="95.5,-112.5 95.5,-131.5 231.5,-131.5 231.5,-112.5 95.5,-112.5"/>
<text text-anchor="middle" x="163.5" y="-119.5" font-family="Helvetica,sans-Serif" font-size="10.00" fill="#000000">libbsn/src/range/Range.cpp</text>
</a>
</g>
</g>
<!-- Node2 -->
<g id="node2" class="node">
<title>Node2</title>
<g id="a_node2"><a xlink:href="Range_8hpp.html" target="_top" xlink:title=" ">
<polygon fill="#ffffff" stroke="#000000" points="118,-56.5 118,-75.5 209,-75.5 209,-56.5 118,-56.5"/>
<text text-anchor="middle" x="163.5" y="-63.5" font-family="Helvetica,sans-Serif" font-size="10.00" fill="#000000">range/Range.hpp</text>
</a>
</g>
</g>
<!-- Node1&#45;&gt;Node2 -->
<g id="edge1" class="edge">
<title>Node1&#45;&gt;Node2</title>
<path fill="none" stroke="#191970" d="M163.5,-112.2455C163.5,-104.9382 163.5,-94.6944 163.5,-85.7046"/>
<polygon fill="#191970" stroke="#191970" points="167.0001,-85.6426 163.5,-75.6427 160.0001,-85.6427 167.0001,-85.6426"/>
</g>
<!-- Node3 -->
<g id="node3" class="node">
<title>Node3</title>
<g id="a_node3"><a xlink:title=" ">
<polygon fill="#ffffff" stroke="#bfbfbf" points="0,-.5 0,-19.5 41,-19.5 41,-.5 0,-.5"/>
<text text-anchor="middle" x="20.5" y="-7.5" font-family="Helvetica,sans-Serif" font-size="10.00" fill="#000000">string</text>
</a>
</g>
</g>
<!-- Node2&#45;&gt;Node3 -->
<g id="edge2" class="edge">
<title>Node2&#45;&gt;Node3</title>
<path fill="none" stroke="#191970" d="M138.9174,-56.3733C114.4175,-46.7789 76.759,-32.0315 50.5092,-21.7519"/>
<polygon fill="#191970" stroke="#191970" points="51.6463,-18.4384 41.0586,-18.0509 49.0938,-24.9564 51.6463,-18.4384"/>
</g>
<!-- Node4 -->
<g id="node4" class="node">
<title>Node4</title>
<g id="a_node4"><a xlink:title=" ">
<polygon fill="#ffffff" stroke="#bfbfbf" points="59,-.5 59,-19.5 118,-19.5 118,-.5 59,-.5"/>
<text text-anchor="middle" x="88.5" y="-7.5" font-family="Helvetica,sans-Serif" font-size="10.00" fill="#000000">stdexcept</text>
</a>
</g>
</g>
<!-- Node2&#45;&gt;Node4 -->
<g id="edge3" class="edge">
<title>Node2&#45;&gt;Node4</title>
<path fill="none" stroke="#191970" d="M150.436,-56.2455C139.1438,-47.814 122.6155,-35.4729 109.4729,-25.6598"/>
<polygon fill="#191970" stroke="#191970" points="111.5211,-22.8211 101.4143,-19.6427 107.3331,-28.4301 111.5211,-22.8211"/>
</g>
<!-- Node5 -->
<g id="node5" class="node">
<title>Node5</title>
<g id="a_node5"><a xlink:title=" ">
<polygon fill="#ffffff" stroke="#bfbfbf" points="136.5,-.5 136.5,-19.5 190.5,-19.5 190.5,-.5 136.5,-.5"/>
<text text-anchor="middle" x="163.5" y="-7.5" font-family="Helvetica,sans-Serif" font-size="10.00" fill="#000000">iostream</text>
</a>
</g>
</g>
<!-- Node2&#45;&gt;Node5 -->
<g id="edge4" class="edge">
<title>Node2&#45;&gt;Node5</title>
<path fill="none" stroke="#191970" d="M163.5,-56.2455C163.5,-48.9382 163.5,-38.6944 163.5,-29.7046"/>
<polygon fill="#191970" stroke="#191970" points="167.0001,-29.6426 163.5,-19.6427 160.0001,-29.6427 167.0001,-29.6426"/>
</g>
<!-- Node6 -->
<g id="node6" class="node">
<title>Node6</title>
<g id="a_node6"><a xlink:title=" ">
<polygon fill="#ffffff" stroke="#bfbfbf" points="209,-.5 209,-19.5 258,-19.5 258,-.5 209,-.5"/>
<text text-anchor="middle" x="233.5" y="-7.5" font-family="Helvetica,sans-Serif" font-size="10.00" fill="#000000">stdint.h</text>
</a>
</g>
</g>
<!-- Node2&#45;&gt;Node6 -->
<g id="edge5" class="edge">
<title>Node2&#45;&gt;Node6</title>
<path fill="none" stroke="#191970" d="M175.6931,-56.2455C186.1321,-47.8943 201.3655,-35.7076 213.574,-25.9408"/>
<polygon fill="#191970" stroke="#191970" points="215.8244,-28.6227 221.4467,-19.6427 211.4515,-23.1566 215.8244,-28.6227"/>
</g>
<!-- Node7 -->
<g id="node7" class="node">
<title>Node7</title>
<g id="a_node7"><a xlink:title=" ">
<polygon fill="#ffffff" stroke="#bfbfbf" points="276.5,-.5 276.5,-19.5 328.5,-19.5 328.5,-.5 276.5,-.5"/>
<text text-anchor="middle" x="302.5" y="-7.5" font-family="Helvetica,sans-Serif" font-size="10.00" fill="#000000">sstream</text>
</a>
</g>
</g>
<!-- Node2&#45;&gt;Node7 -->
<g id="edge6" class="edge">
<title>Node2&#45;&gt;Node7</title>
<path fill="none" stroke="#191970" d="M187.395,-56.3733C210.0082,-47.2629 244.1542,-33.5062 269.3873,-23.3404"/>
<polygon fill="#191970" stroke="#191970" points="270.9493,-26.4845 278.9169,-19.5011 268.3334,-19.9917 270.9493,-26.4845"/>
</g>
</g>
</svg>
