<?xml version="1.0" encoding="UTF-8" standalone="no"?>
<!DOCTYPE svg PUBLIC "-//W3C//DTD SVG 1.1//EN"
 "http://www.w3.org/Graphics/SVG/1.1/DTD/svg11.dtd">
<!-- Generated by graphviz version 2.40.1 (20161225.0304)
 -->
<!-- Title: archlib/src/ROSComponentDescriptor.cpp Pages: 1 -->
<svg width="192pt" height="151pt"
 viewBox="0.00 0.00 192.00 151.00" xmlns="http://www.w3.org/2000/svg" xmlns:xlink="http://www.w3.org/1999/xlink">
<g id="graph0" class="graph" transform="scale(1 1) rotate(0) translate(4 147)">
<title>archlib/src/ROSComponentDescriptor.cpp</title>
<polygon fill="#ffffff" stroke="transparent" points="-4,4 -4,-147 188,-147 188,4 -4,4"/>
<!-- Node1 -->
<g id="node1" class="node">
<title>Node1</title>
<g id="a_node1"><a xlink:title=" ">
<polygon fill="#bfbfbf" stroke="#000000" points="23.5,-112.5 23.5,-142.5 160.5,-142.5 160.5,-112.5 23.5,-112.5"/>
<text text-anchor="start" x="31.5" y="-130.5" font-family="Helvetica,sans-Serif" font-size="10.00" fill="#000000">archlib/src/ROSComponent</text>
<text text-anchor="middle" x="92" y="-119.5" font-family="Helvetica,sans-Serif" font-size="10.00" fill="#000000">Descriptor.cpp</text>
</a>
</g>
</g>
<!-- Node2 -->
<g id="node2" class="node">
<title>Node2</title>
<g id="a_node2"><a xlink:href="ROSComponentDescriptor_8hpp.html" target="_top" xlink:title=" ">
<polygon fill="#ffffff" stroke="#000000" points="0,-56.5 0,-75.5 184,-75.5 184,-56.5 0,-56.5"/>
<text text-anchor="middle" x="92" y="-63.5" font-family="Helvetica,sans-Serif" font-size="10.00" fill="#000000">archlib/ROSComponentDescriptor.hpp</text>
</a>
</g>
</g>
<!-- Node1&#45;&gt;Node2 -->
<g id="edge1" class="edge">
<title>Node1&#45;&gt;Node2</title>
<path fill="none" stroke="#191970" d="M92,-112.2977C92,-104.3834 92,-94.6043 92,-86.0759"/>
<polygon fill="#191970" stroke="#191970" points="95.5001,-85.8469 92,-75.8469 88.5001,-85.847 95.5001,-85.8469"/>
</g>
<!-- Node3 -->
<g id="node3" class="node">
<title>Node3</title>
<g id="a_node3"><a xlink:title=" ">
<polygon fill="#ffffff" stroke="#bfbfbf" points="38.5,-.5 38.5,-19.5 79.5,-19.5 79.5,-.5 38.5,-.5"/>
<text text-anchor="middle" x="59" y="-7.5" font-family="Helvetica,sans-Serif" font-size="10.00" fill="#000000">string</text>
</a>
</g>
</g>
<!-- Node2&#45;&gt;Node3 -->
<g id="edge2" class="edge">
<title>Node2&#45;&gt;Node3</title>
<path fill="none" stroke="#191970" d="M86.2518,-56.2455C81.7565,-48.617 75.3752,-37.7881 69.9175,-28.5267"/>
<polygon fill="#191970" stroke="#191970" points="72.7747,-26.4811 64.6823,-19.6427 66.7439,-30.035 72.7747,-26.4811"/>
</g>
<!-- Node4 -->
<g id="node4" class="node">
<title>Node4</title>
<g id="a_node4"><a xlink:title=" ">
<polygon fill="#ffffff" stroke="#bfbfbf" points="97.5,-.5 97.5,-19.5 152.5,-19.5 152.5,-.5 97.5,-.5"/>
<text text-anchor="middle" x="125" y="-7.5" font-family="Helvetica,sans-Serif" font-size="10.00" fill="#000000">ros/ros.h</text>
</a>
</g>
</g>
<!-- Node2&#45;&gt;Node4 -->
<g id="edge3" class="edge">
<title>Node2&#45;&gt;Node4</title>
<path fill="none" stroke="#191970" d="M97.7482,-56.2455C102.2435,-48.617 108.6248,-37.7881 114.0825,-28.5267"/>
<polygon fill="#191970" stroke="#191970" points="117.2561,-30.035 119.3177,-19.6427 111.2253,-26.4811 117.2561,-30.035"/>
</g>
</g>
</svg>
