<?xml version="1.0" encoding="UTF-8" standalone="no"?>
<!DOCTYPE svg PUBLIC "-//W3C//DTD SVG 1.1//EN"
 "http://www.w3.org/Graphics/SVG/1.1/DTD/svg11.dtd">
<!-- Generated by graphviz version 2.40.1 (20161225.0304)
 -->
<!-- Title: archlib/src/ROSComponent.cpp Pages: 1 -->
<svg width="297pt" height="196pt"
 viewBox="0.00 0.00 297.16 196.00" xmlns="http://www.w3.org/2000/svg" xmlns:xlink="http://www.w3.org/1999/xlink">
<g id="graph0" class="graph" transform="scale(1 1) rotate(0) translate(4 192)">
<title>archlib/src/ROSComponent.cpp</title>
<polygon fill="#ffffff" stroke="transparent" points="-4,4 -4,-192 293.1579,-192 293.1579,4 -4,4"/>
<!-- Node1 -->
<g id="node1" class="node">
<title>Node1</title>
<g id="a_node1"><a xlink:title=" ">
<polygon fill="#bfbfbf" stroke="#000000" points="36.2719,-168.5 36.2719,-187.5 191.2719,-187.5 191.2719,-168.5 36.2719,-168.5"/>
<text text-anchor="middle" x="113.7719" y="-175.5" font-family="Helvetica,sans-Serif" font-size="10.00" fill="#000000">archlib/src/ROSComponent.cpp</text>
</a>
</g>
</g>
<!-- Node2 -->
<g id="node2" class="node">
<title>Node2</title>
<g id="a_node2"><a xlink:href="ROSComponent_8hpp.html" target="_top" xlink:title=" ">
<polygon fill="#ffffff" stroke="#000000" points="44.2719,-112.5 44.2719,-131.5 183.2719,-131.5 183.2719,-112.5 44.2719,-112.5"/>
<text text-anchor="middle" x="113.7719" y="-119.5" font-family="Helvetica,sans-Serif" font-size="10.00" fill="#000000">archlib/ROSComponent.hpp</text>
</a>
</g>
</g>
<!-- Node1&#45;&gt;Node2 -->
<g id="edge1" class="edge">
<title>Node1&#45;&gt;Node2</title>
<path fill="none" stroke="#191970" d="M113.7719,-168.2455C113.7719,-160.9382 113.7719,-150.6944 113.7719,-141.7046"/>
<polygon fill="#191970" stroke="#191970" points="117.272,-141.6426 113.7719,-131.6427 110.272,-141.6427 117.272,-141.6426"/>
</g>
<!-- Node3 -->
<g id="node3" class="node">
<title>Node3</title>
<g id="a_node3"><a xlink:title=" ">
<polygon fill="#ffffff" stroke="#bfbfbf" points="91.2719,-.5 91.2719,-19.5 132.2719,-19.5 132.2719,-.5 91.2719,-.5"/>
<text text-anchor="middle" x="111.7719" y="-7.5" font-family="Helvetica,sans-Serif" font-size="10.00" fill="#000000">string</text>
</a>
</g>
</g>
<!-- Node2&#45;&gt;Node3 -->
<g id="edge2" class="edge">
<title>Node2&#45;&gt;Node3</title>
<path fill="none" stroke="#191970" d="M59.7538,-112.4617C38.9443,-105.8668 17.205,-94.742 4.7719,-76 -16.549,-43.8604 42.5469,-24.6436 81.1999,-15.8228"/>
<polygon fill="#191970" stroke="#191970" points="81.9652,-19.2383 91.0005,-13.7054 80.4868,-12.3962 81.9652,-19.2383"/>
</g>
<!-- Node4 -->
<g id="node4" class="node">
<title>Node4</title>
<g id="a_node4"><a xlink:title=" ">
<polygon fill="#ffffff" stroke="#bfbfbf" points="14.2719,-56.5 14.2719,-75.5 73.2719,-75.5 73.2719,-56.5 14.2719,-56.5"/>
<text text-anchor="middle" x="43.7719" y="-63.5" font-family="Helvetica,sans-Serif" font-size="10.00" fill="#000000">stdexcept</text>
</a>
</g>
</g>
<!-- Node2&#45;&gt;Node4 -->
<g id="edge3" class="edge">
<title>Node2&#45;&gt;Node4</title>
<path fill="none" stroke="#191970" d="M101.5788,-112.2455C91.1398,-103.8943 75.9064,-91.7076 63.6979,-81.9408"/>
<polygon fill="#191970" stroke="#191970" points="65.8204,-79.1566 55.8252,-75.6427 61.4475,-84.6227 65.8204,-79.1566"/>
</g>
<!-- Node5 -->
<g id="node5" class="node">
<title>Node5</title>
<g id="a_node5"><a xlink:title=" ">
<polygon fill="#ffffff" stroke="#bfbfbf" points="216.2719,-.5 216.2719,-19.5 271.2719,-19.5 271.2719,-.5 216.2719,-.5"/>
<text text-anchor="middle" x="243.7719" y="-7.5" font-family="Helvetica,sans-Serif" font-size="10.00" fill="#000000">ros/ros.h</text>
</a>
</g>
</g>
<!-- Node2&#45;&gt;Node5 -->
<g id="edge4" class="edge">
<title>Node2&#45;&gt;Node5</title>
<path fill="none" stroke="#191970" d="M181.0471,-112.4206C223.1844,-104.8872 271.8668,-92.8354 284.7719,-76 297.1412,-59.8635 280.7321,-39.8492 265.1447,-26.1173"/>
<polygon fill="#191970" stroke="#191970" points="267.1605,-23.2424 257.2252,-19.5628 262.6974,-28.6351 267.1605,-23.2424"/>
</g>
<!-- Node6 -->
<g id="node6" class="node">
<title>Node6</title>
<g id="a_node6"><a xlink:href="ROSComponentDescriptor_8hpp.html" target="_top" xlink:title=" ">
<polygon fill="#ffffff" stroke="#000000" points="91.7719,-56.5 91.7719,-75.5 275.7719,-75.5 275.7719,-56.5 91.7719,-56.5"/>
<text text-anchor="middle" x="183.7719" y="-63.5" font-family="Helvetica,sans-Serif" font-size="10.00" fill="#000000">archlib/ROSComponentDescriptor.hpp</text>
</a>
</g>
</g>
<!-- Node2&#45;&gt;Node6 -->
<g id="edge5" class="edge">
<title>Node2&#45;&gt;Node6</title>
<path fill="none" stroke="#191970" d="M125.9649,-112.2455C136.404,-103.8943 151.6373,-91.7076 163.8458,-81.9408"/>
<polygon fill="#191970" stroke="#191970" points="166.0963,-84.6227 171.7185,-75.6427 161.7234,-79.1566 166.0963,-84.6227"/>
</g>
<!-- Node6&#45;&gt;Node3 -->
<g id="edge6" class="edge">
<title>Node6&#45;&gt;Node3</title>
<path fill="none" stroke="#191970" d="M171.2304,-56.2455C160.4931,-47.8943 144.8245,-35.7076 132.2672,-25.9408"/>
<polygon fill="#191970" stroke="#191970" points="134.2119,-23.0194 124.1696,-19.6427 129.9143,-28.5449 134.2119,-23.0194"/>
</g>
<!-- Node6&#45;&gt;Node5 -->
<g id="edge7" class="edge">
<title>Node6&#45;&gt;Node5</title>
<path fill="none" stroke="#191970" d="M194.2231,-56.2455C202.9987,-48.0549 215.7273,-36.1749 226.0859,-26.5069"/>
<polygon fill="#191970" stroke="#191970" points="228.518,-29.0246 233.4404,-19.6427 223.7417,-23.9072 228.518,-29.0246"/>
</g>
</g>
</svg>
