<?xml version="1.0" encoding="UTF-8" standalone="no"?>
<!DOCTYPE svg PUBLIC "-//W3C//DTD SVG 1.1//EN"
 "http://www.w3.org/Graphics/SVG/1.1/DTD/svg11.dtd">
<!-- Generated by graphviz version 2.40.1 (20161225.0304)
 -->
<!-- Title: archlib/include/archlib/ROSComponent.hpp Pages: 1 -->
<svg width="3943pt" height="340pt"
 viewBox="0.00 0.00 3943.00 340.00" xmlns="http://www.w3.org/2000/svg" xmlns:xlink="http://www.w3.org/1999/xlink">
<g id="graph0" class="graph" transform="scale(1 1) rotate(0) translate(4 336)">
<title>archlib/include/archlib/ROSComponent.hpp</title>
<polygon fill="#ffffff" stroke="transparent" points="-4,4 -4,-336 3939,-336 3939,4 -4,4"/>
<!-- Node1 -->
<g id="node1" class="node">
<title>Node1</title>
<g id="a_node1"><a xlink:title=" ">
<polygon fill="#bfbfbf" stroke="#000000" points="2315,-301.5 2315,-331.5 2425,-331.5 2425,-301.5 2315,-301.5"/>
<text text-anchor="start" x="2323" y="-319.5" font-family="Helvetica,sans-Serif" font-size="10.00" fill="#000000">archlib/include/archlib</text>
<text text-anchor="middle" x="2370" y="-308.5" font-family="Helvetica,sans-Serif" font-size="10.00" fill="#000000">/ROSComponent.hpp</text>
</a>
</g>
</g>
<!-- Node2 -->
<g id="node2" class="node">
<title>Node2</title>
<g id="a_node2"><a xlink:href="Component_8hpp.html" target="_top" xlink:title=" ">
<polygon fill="#ffffff" stroke="#000000" points="346,-229 346,-259 500,-259 500,-229 346,-229"/>
<text text-anchor="start" x="354" y="-247" font-family="Helvetica,sans-Serif" font-size="10.00" fill="#000000">archlib/include/archlib</text>
<text text-anchor="middle" x="423" y="-236" font-family="Helvetica,sans-Serif" font-size="10.00" fill="#000000">/target_system/Component.hpp</text>
</a>
</g>
</g>
<!-- Node1&#45;&gt;Node2 -->
<g id="edge1" class="edge">
<title>Node1&#45;&gt;Node2</title>
<path fill="none" stroke="#191970" d="M2304.8256,-314.0731C2011.79,-303.1614 816.7921,-258.6635 500.2491,-246.8765"/>
<polygon fill="#191970" stroke="#191970" points="2304.743,-317.5724 2314.8664,-314.447 2305.0036,-310.5772 2304.743,-317.5724"/>
</g>
<!-- Node26 -->
<g id="node23" class="node">
<title>Node26</title>
<g id="a_node23"><a xlink:href="Effector_8hpp.html" target="_top" xlink:title=" ">
<polygon fill="#ffffff" stroke="#000000" points="1642,-229 1642,-259 1780,-259 1780,-229 1642,-229"/>
<text text-anchor="start" x="1650" y="-247" font-family="Helvetica,sans-Serif" font-size="10.00" fill="#000000">archlib/include/archlib</text>
<text text-anchor="middle" x="1711" y="-236" font-family="Helvetica,sans-Serif" font-size="10.00" fill="#000000">/target_system/Effector.hpp</text>
</a>
</g>
</g>
<!-- Node1&#45;&gt;Node26 -->
<g id="edge23" class="edge">
<title>Node1&#45;&gt;Node26</title>
<path fill="none" stroke="#191970" d="M2304.5911,-309.4291C2213.4689,-299.5634 2043.1574,-281.0696 1898,-265 1859.0348,-260.6864 1815.5106,-255.8025 1780.2632,-251.8308"/>
<polygon fill="#191970" stroke="#191970" points="2304.4491,-312.934 2314.7677,-310.5306 2305.2025,-305.9747 2304.4491,-312.934"/>
</g>
<!-- Node31 -->
<g id="node28" class="node">
<title>Node31</title>
<g id="a_node28"><a xlink:href="Probe_8hpp.html" target="_top" xlink:title=" ">
<polygon fill="#ffffff" stroke="#000000" points="1907.5,-229 1907.5,-259 2036.5,-259 2036.5,-229 1907.5,-229"/>
<text text-anchor="start" x="1915.5" y="-247" font-family="Helvetica,sans-Serif" font-size="10.00" fill="#000000">archlib/include/archlib</text>
<text text-anchor="middle" x="1972" y="-236" font-family="Helvetica,sans-Serif" font-size="10.00" fill="#000000">/target_system/Probe.hpp</text>
</a>
</g>
</g>
<!-- Node1&#45;&gt;Node31 -->
<g id="edge28" class="edge">
<title>Node1&#45;&gt;Node31</title>
<path fill="none" stroke="#191970" d="M2304.7411,-308.5596C2238.8003,-299.9752 2134.1967,-284.818 2045,-265 2037.2758,-263.2838 2029.1623,-261.2185 2021.2663,-259.0621"/>
<polygon fill="#191970" stroke="#191970" points="2304.6184,-312.0727 2314.984,-309.8807 2305.5138,-305.1302 2304.6184,-312.0727"/>
</g>
<!-- Node34 -->
<g id="node31" class="node">
<title>Node34</title>
<g id="a_node31"><a xlink:href="ROSComponent_8cpp.html" target="_top" xlink:title=" ">
<polygon fill="#ffffff" stroke="#000000" points="2054.5,-234.5 2054.5,-253.5 2209.5,-253.5 2209.5,-234.5 2054.5,-234.5"/>
<text text-anchor="middle" x="2132" y="-241.5" font-family="Helvetica,sans-Serif" font-size="10.00" fill="#000000">archlib/src/ROSComponent.cpp</text>
</a>
</g>
</g>
<!-- Node1&#45;&gt;Node34 -->
<g id="edge31" class="edge">
<title>Node1&#45;&gt;Node34</title>
<path fill="none" stroke="#191970" d="M2310.9899,-298.5242C2264.2913,-284.2988 2200.9018,-264.989 2163.4376,-253.5766"/>
<polygon fill="#191970" stroke="#191970" points="2310.1003,-301.912 2320.6862,-301.478 2312.1402,-295.2158 2310.1003,-301.912"/>
</g>
<!-- Node35 -->
<g id="node32" class="node">
<title>Node35</title>
<g id="a_node32"><a xlink:href="PatientModule_8hpp.html" target="_top" xlink:title=" ">
<polygon fill="#ffffff" stroke="#000000" points="2228,-229 2228,-259 2362,-259 2362,-229 2228,-229"/>
<text text-anchor="start" x="2236" y="-247" font-family="Helvetica,sans-Serif" font-size="10.00" fill="#000000">src/environment/patient</text>
<text text-anchor="middle" x="2295" y="-236" font-family="Helvetica,sans-Serif" font-size="10.00" fill="#000000">/include/PatientModule.hpp</text>
</a>
</g>
</g>
<!-- Node1&#45;&gt;Node35 -->
<g id="edge32" class="edge">
<title>Node1&#45;&gt;Node35</title>
<path fill="none" stroke="#191970" d="M2347.0668,-294.3313C2335.2192,-282.8785 2321.0746,-269.2054 2310.5201,-259.0028"/>
<polygon fill="#191970" stroke="#191970" points="2344.8375,-297.0442 2354.46,-301.478 2349.7026,-292.0112 2344.8375,-297.0442"/>
</g>
<!-- Node38 -->
<g id="node35" class="node">
<title>Node38</title>
<g id="a_node35"><a xlink:href="DataAccess_8hpp.html" target="_top" xlink:title=" ">
<polygon fill="#ffffff" stroke="#000000" points="2380.5,-223.5 2380.5,-264.5 2511.5,-264.5 2511.5,-223.5 2380.5,-223.5"/>
<text text-anchor="start" x="2388.5" y="-252.5" font-family="Helvetica,sans-Serif" font-size="10.00" fill="#000000">src/knowledge_repository</text>
<text text-anchor="start" x="2388.5" y="-241.5" font-family="Helvetica,sans-Serif" font-size="10.00" fill="#000000">/data_access/include/data</text>
<text text-anchor="middle" x="2446" y="-230.5" font-family="Helvetica,sans-Serif" font-size="10.00" fill="#000000">_access/DataAccess.hpp</text>
</a>
</g>
</g>
<!-- Node1&#45;&gt;Node38 -->
<g id="edge35" class="edge">
<title>Node1&#45;&gt;Node38</title>
<path fill="none" stroke="#191970" d="M2393.0197,-294.5405C2403.0256,-284.9953 2414.6815,-273.8762 2424.5088,-264.5015"/>
<polygon fill="#191970" stroke="#191970" points="2390.5671,-292.0429 2385.7472,-301.478 2395.3989,-297.1079 2390.5671,-292.0429"/>
</g>
<!-- Node41 -->
<g id="node38" class="node">
<title>Node41</title>
<g id="a_node38"><a xlink:href="Logger_8hpp.html" target="_top" xlink:title=" ">
<polygon fill="#ffffff" stroke="#000000" points="2683.5,-229 2683.5,-259 2814.5,-259 2814.5,-229 2683.5,-229"/>
<text text-anchor="start" x="2691.5" y="-247" font-family="Helvetica,sans-Serif" font-size="10.00" fill="#000000">src/logging_infrastructure</text>
<text text-anchor="middle" x="2749" y="-236" font-family="Helvetica,sans-Serif" font-size="10.00" fill="#000000">/logger/include/Logger.hpp</text>
</a>
</g>
</g>
<!-- Node1&#45;&gt;Node41 -->
<g id="edge38" class="edge">
<title>Node1&#45;&gt;Node41</title>
<path fill="none" stroke="#191970" d="M2435.0466,-304.057C2504.4221,-290.786 2613.6942,-269.883 2683.3138,-256.5653"/>
<polygon fill="#191970" stroke="#191970" points="2434.2741,-300.6413 2425.1099,-305.9579 2435.5894,-307.5166 2434.2741,-300.6413"/>
</g>
<!-- Node44 -->
<g id="node41" class="node">
<title>Node44</title>
<g id="a_node41"><a xlink:href="Engine_8hpp.html" target="_top" xlink:title=" ">
<polygon fill="#ffffff" stroke="#000000" points="3037,-223.5 3037,-264.5 3169,-264.5 3169,-223.5 3037,-223.5"/>
<text text-anchor="start" x="3045" y="-252.5" font-family="Helvetica,sans-Serif" font-size="10.00" fill="#000000">src/manager_system</text>
<text text-anchor="start" x="3045" y="-241.5" font-family="Helvetica,sans-Serif" font-size="10.00" fill="#000000">/adaptation_engine/include</text>
<text text-anchor="middle" x="3103" y="-230.5" font-family="Helvetica,sans-Serif" font-size="10.00" fill="#000000">/engine/Engine.hpp</text>
</a>
</g>
</g>
<!-- Node1&#45;&gt;Node44 -->
<g id="edge41" class="edge">
<title>Node1&#45;&gt;Node44</title>
<path fill="none" stroke="#191970" d="M2435.1579,-310.0553C2573.9036,-296.3322 2897.231,-264.3523 3036.8509,-250.5427"/>
<polygon fill="#191970" stroke="#191970" points="2434.701,-306.5833 2425.0941,-311.0507 2435.3901,-313.5493 2434.701,-306.5833"/>
</g>
<!-- Node48 -->
<g id="node45" class="node">
<title>Node48</title>
<g id="a_node45"><a xlink:href="Enactor_8hpp.html" target="_top" xlink:title=" ">
<polygon fill="#ffffff" stroke="#000000" points="3407.5,-223.5 3407.5,-264.5 3528.5,-264.5 3528.5,-223.5 3407.5,-223.5"/>
<text text-anchor="start" x="3415.5" y="-252.5" font-family="Helvetica,sans-Serif" font-size="10.00" fill="#000000">src/manager_system</text>
<text text-anchor="start" x="3415.5" y="-241.5" font-family="Helvetica,sans-Serif" font-size="10.00" fill="#000000">/enactor/include/enactor</text>
<text text-anchor="middle" x="3468" y="-230.5" font-family="Helvetica,sans-Serif" font-size="10.00" fill="#000000">/Enactor.hpp</text>
</a>
</g>
</g>
<!-- Node1&#45;&gt;Node48 -->
<g id="edge45" class="edge">
<title>Node1&#45;&gt;Node48</title>
<path fill="none" stroke="#191970" d="M2435.7284,-312.5036C2573.4236,-304.089 2902.2539,-283.7713 3178,-265 3257.3209,-259.6003 3348.8088,-252.896 3407.4685,-248.5362"/>
<polygon fill="#191970" stroke="#191970" points="2435.1282,-309.0336 2425.3601,-313.1368 2435.5549,-316.0206 2435.1282,-309.0336"/>
</g>
<!-- Node51 -->
<g id="node48" class="node">
<title>Node51</title>
<g id="a_node48"><a xlink:href="Injector_8hpp.html" target="_top" xlink:title=" ">
<polygon fill="#ffffff" stroke="#000000" points="3693,-229 3693,-259 3805,-259 3805,-229 3693,-229"/>
<text text-anchor="start" x="3701" y="-247" font-family="Helvetica,sans-Serif" font-size="10.00" fill="#000000">src/simulation/injector</text>
<text text-anchor="middle" x="3749" y="-236" font-family="Helvetica,sans-Serif" font-size="10.00" fill="#000000">/include/Injector.hpp</text>
</a>
</g>
</g>
<!-- Node1&#45;&gt;Node51 -->
<g id="edge48" class="edge">
<title>Node1&#45;&gt;Node51</title>
<path fill="none" stroke="#191970" d="M2435.2407,-314.8712C2612.4908,-310.1755 3117.7725,-294.9914 3537,-265 3589.9392,-261.2127 3650.1417,-255.0729 3692.8305,-250.4079"/>
<polygon fill="#191970" stroke="#191970" points="2434.9464,-311.3776 2425.0419,-315.1393 2435.1304,-318.3752 2434.9464,-311.3776"/>
</g>
<!-- Node3 -->
<g id="node3" class="node">
<title>Node3</title>
<g id="a_node3"><a xlink:href="Component_8cpp.html" target="_top" xlink:title=" ">
<polygon fill="#ffffff" stroke="#000000" points="165,-151 165,-181 291,-181 291,-151 165,-151"/>
<text text-anchor="start" x="173" y="-169" font-family="Helvetica,sans-Serif" font-size="10.00" fill="#000000">archlib/src/target</text>
<text text-anchor="middle" x="228" y="-158" font-family="Helvetica,sans-Serif" font-size="10.00" fill="#000000">_system/Component.cpp</text>
</a>
</g>
</g>
<!-- Node2&#45;&gt;Node3 -->
<g id="edge2" class="edge">
<title>Node2&#45;&gt;Node3</title>
<path fill="none" stroke="#191970" d="M375.7547,-225.1019C342.0067,-211.6027 297.2037,-193.6815 265.8147,-181.1259"/>
<polygon fill="#191970" stroke="#191970" points="374.8174,-228.4965 385.402,-228.9608 377.4172,-221.9972 374.8174,-228.4965"/>
</g>
<!-- Node4 -->
<g id="node4" class="node">
<title>Node4</title>
<g id="a_node4"><a xlink:href="CentralHub_8hpp.html" target="_top" xlink:title=" ">
<polygon fill="#ffffff" stroke="#000000" points="347,-145.5 347,-186.5 499,-186.5 499,-145.5 347,-145.5"/>
<text text-anchor="start" x="355" y="-174.5" font-family="Helvetica,sans-Serif" font-size="10.00" fill="#000000">src/target_system/components</text>
<text text-anchor="start" x="355" y="-163.5" font-family="Helvetica,sans-Serif" font-size="10.00" fill="#000000">/component/include/component</text>
<text text-anchor="middle" x="423" y="-152.5" font-family="Helvetica,sans-Serif" font-size="10.00" fill="#000000">/CentralHub.hpp</text>
</a>
</g>
</g>
<!-- Node2&#45;&gt;Node4 -->
<g id="edge3" class="edge">
<title>Node2&#45;&gt;Node4</title>
<path fill="none" stroke="#191970" d="M423,-218.8044C423,-208.3919 423,-196.4721 423,-186.5956"/>
<polygon fill="#191970" stroke="#191970" points="419.5001,-218.9608 423,-228.9608 426.5001,-218.9608 419.5001,-218.9608"/>
</g>
<!-- Node5 -->
<g id="node5" class="node">
<title>Node5</title>
<g id="a_node5"><a xlink:href="G4T1_8hpp.html" target="_top" xlink:title=" ">
<polygon fill="#ffffff" stroke="#000000" points="172,-67.5 172,-108.5 324,-108.5 324,-67.5 172,-67.5"/>
<text text-anchor="start" x="180" y="-96.5" font-family="Helvetica,sans-Serif" font-size="10.00" fill="#000000">src/target_system/components</text>
<text text-anchor="start" x="180" y="-85.5" font-family="Helvetica,sans-Serif" font-size="10.00" fill="#000000">/component/include/component</text>
<text text-anchor="middle" x="248" y="-74.5" font-family="Helvetica,sans-Serif" font-size="10.00" fill="#000000">/g4t1/G4T1.hpp</text>
</a>
</g>
</g>
<!-- Node2&#45;&gt;Node5 -->
<g id="edge8" class="edge">
<title>Node2&#45;&gt;Node5</title>
<path fill="none" stroke="#191970" d="M388.3596,-223.4935C372.371,-213.3586 353.5349,-200.4349 338,-187 318.9597,-170.5335 316.9273,-163.6318 300,-145 289.011,-132.9044 276.6861,-119.3921 266.7943,-108.5604"/>
<polygon fill="#191970" stroke="#191970" points="386.5723,-226.5037 396.9102,-228.8227 390.2748,-220.563 386.5723,-226.5037"/>
</g>
<!-- Node9 -->
<g id="node9" class="node">
<title>Node9</title>
<g id="a_node9"><a xlink:href="Sensor_8hpp.html" target="_top" xlink:title=" ">
<polygon fill="#ffffff" stroke="#000000" points="962,-145.5 962,-186.5 1114,-186.5 1114,-145.5 962,-145.5"/>
<text text-anchor="start" x="970" y="-174.5" font-family="Helvetica,sans-Serif" font-size="10.00" fill="#000000">src/target_system/components</text>
<text text-anchor="start" x="970" y="-163.5" font-family="Helvetica,sans-Serif" font-size="10.00" fill="#000000">/component/include/component</text>
<text text-anchor="middle" x="1038" y="-152.5" font-family="Helvetica,sans-Serif" font-size="10.00" fill="#000000">/Sensor.hpp</text>
</a>
</g>
</g>
<!-- Node2&#45;&gt;Node9 -->
<g id="edge9" class="edge">
<title>Node2&#45;&gt;Node9</title>
<path fill="none" stroke="#191970" d="M510.2144,-232.9387C630.8872,-217.6338 846.8388,-190.2448 961.5312,-175.6985"/>
<polygon fill="#191970" stroke="#191970" points="509.7476,-229.4697 500.2675,-234.2002 510.6284,-236.4141 509.7476,-229.4697"/>
</g>
<!-- Node4&#45;&gt;Node5 -->
<g id="edge4" class="edge">
<title>Node4&#45;&gt;Node5</title>
<path fill="none" stroke="#191970" d="M367.363,-141.2018C343.7361,-130.671 316.5195,-118.5401 294.0471,-108.5239"/>
<polygon fill="#191970" stroke="#191970" points="366.004,-144.4279 376.5627,-145.3022 368.8537,-138.0343 366.004,-144.4279"/>
</g>
<!-- Node8 -->
<g id="node8" class="node">
<title>Node8</title>
<g id="a_node8"><a xlink:href="CentralHub_8cpp.html" target="_top" xlink:title=" ">
<polygon fill="#ffffff" stroke="#000000" points="345.5,-73 345.5,-103 500.5,-103 500.5,-73 345.5,-73"/>
<text text-anchor="start" x="353.5" y="-91" font-family="Helvetica,sans-Serif" font-size="10.00" fill="#000000">src/target_system/components</text>
<text text-anchor="middle" x="423" y="-80" font-family="Helvetica,sans-Serif" font-size="10.00" fill="#000000">/component/src/CentralHub.cpp</text>
</a>
</g>
</g>
<!-- Node4&#45;&gt;Node8 -->
<g id="edge7" class="edge">
<title>Node4&#45;&gt;Node8</title>
<path fill="none" stroke="#191970" d="M423,-135.0187C423,-124.1033 423,-112.3119 423,-103.2679"/>
<polygon fill="#191970" stroke="#191970" points="419.5001,-135.0974 423,-145.0974 426.5001,-135.0975 419.5001,-135.0974"/>
</g>
<!-- Node6 -->
<g id="node6" class="node">
<title>Node6</title>
<g id="a_node6"><a xlink:href="g4t1_8cpp.html" target="_top" xlink:title=" ">
<polygon fill="#ffffff" stroke="#000000" points="0,-.5 0,-30.5 152,-30.5 152,-.5 0,-.5"/>
<text text-anchor="start" x="8" y="-18.5" font-family="Helvetica,sans-Serif" font-size="10.00" fill="#000000">src/target_system/components</text>
<text text-anchor="middle" x="76" y="-7.5" font-family="Helvetica,sans-Serif" font-size="10.00" fill="#000000">/component/apps/g4t1.cpp</text>
</a>
</g>
</g>
<!-- Node5&#45;&gt;Node6 -->
<g id="edge5" class="edge">
<title>Node5&#45;&gt;Node6</title>
<path fill="none" stroke="#191970" d="M189.8366,-63.4834C163.9816,-52.5853 134.3642,-40.1012 111.8213,-30.5991"/>
<polygon fill="#191970" stroke="#191970" points="188.5975,-66.7593 199.1718,-67.4183 191.3164,-60.3089 188.5975,-66.7593"/>
</g>
<!-- Node7 -->
<g id="node7" class="node">
<title>Node7</title>
<g id="a_node7"><a xlink:href="G4T1_8cpp.html" target="_top" xlink:title=" ">
<polygon fill="#ffffff" stroke="#000000" points="170,-.5 170,-30.5 322,-30.5 322,-.5 170,-.5"/>
<text text-anchor="start" x="178" y="-18.5" font-family="Helvetica,sans-Serif" font-size="10.00" fill="#000000">src/target_system/components</text>
<text text-anchor="middle" x="246" y="-7.5" font-family="Helvetica,sans-Serif" font-size="10.00" fill="#000000">/component/src/g4t1/G4T1.cpp</text>
</a>
</g>
</g>
<!-- Node5&#45;&gt;Node7 -->
<g id="edge6" class="edge">
<title>Node5&#45;&gt;Node7</title>
<path fill="none" stroke="#191970" d="M247.1539,-57.3279C246.899,-48.0871 246.6304,-38.3508 246.4165,-30.5991"/>
<polygon fill="#191970" stroke="#191970" points="243.6577,-57.5187 247.4322,-67.4183 250.655,-57.3256 243.6577,-57.5187"/>
</g>
<!-- Node10 -->
<g id="node10" class="node">
<title>Node10</title>
<g id="a_node10"><a xlink:href="G3T1__1_8hpp.html" target="_top" xlink:title=" ">
<polygon fill="#ffffff" stroke="#000000" points="521,-67.5 521,-108.5 673,-108.5 673,-67.5 521,-67.5"/>
<text text-anchor="start" x="529" y="-96.5" font-family="Helvetica,sans-Serif" font-size="10.00" fill="#000000">src/target_system/components</text>
<text text-anchor="start" x="529" y="-85.5" font-family="Helvetica,sans-Serif" font-size="10.00" fill="#000000">/component/include/component</text>
<text text-anchor="middle" x="597" y="-74.5" font-family="Helvetica,sans-Serif" font-size="10.00" fill="#000000">/g3t1_1/G3T1_1.hpp</text>
</a>
</g>
</g>
<!-- Node9&#45;&gt;Node10 -->
<g id="edge10" class="edge">
<title>Node9&#45;&gt;Node10</title>
<path fill="none" stroke="#191970" d="M951.7671,-150.7479C870.7771,-136.4232 750.7628,-115.1961 673.2068,-101.4788"/>
<polygon fill="#191970" stroke="#191970" points="951.4816,-154.2517 961.9384,-152.5469 952.7009,-147.3587 951.4816,-154.2517"/>
</g>
<!-- Node13 -->
<g id="node13" class="node">
<title>Node13</title>
<g id="a_node13"><a xlink:href="G3T1__2_8hpp.html" target="_top" xlink:title=" ">
<polygon fill="#ffffff" stroke="#000000" points="792,-67.5 792,-108.5 944,-108.5 944,-67.5 792,-67.5"/>
<text text-anchor="start" x="800" y="-96.5" font-family="Helvetica,sans-Serif" font-size="10.00" fill="#000000">src/target_system/components</text>
<text text-anchor="start" x="800" y="-85.5" font-family="Helvetica,sans-Serif" font-size="10.00" fill="#000000">/component/include/component</text>
<text text-anchor="middle" x="868" y="-74.5" font-family="Helvetica,sans-Serif" font-size="10.00" fill="#000000">/g3t1_2/G3T1_2.hpp</text>
</a>
</g>
</g>
<!-- Node9&#45;&gt;Node13 -->
<g id="edge13" class="edge">
<title>Node9&#45;&gt;Node13</title>
<path fill="none" stroke="#191970" d="M983.6477,-141.0619C960.7669,-130.5637 934.4652,-118.4958 912.7315,-108.5239"/>
<polygon fill="#191970" stroke="#191970" points="982.3409,-144.3131 992.8894,-145.3022 985.2601,-137.9508 982.3409,-144.3131"/>
</g>
<!-- Node16 -->
<g id="node16" class="node">
<title>Node16</title>
<g id="a_node16"><a xlink:href="G3T1__3_8hpp.html" target="_top" xlink:title=" ">
<polygon fill="#ffffff" stroke="#000000" points="962,-67.5 962,-108.5 1114,-108.5 1114,-67.5 962,-67.5"/>
<text text-anchor="start" x="970" y="-96.5" font-family="Helvetica,sans-Serif" font-size="10.00" fill="#000000">src/target_system/components</text>
<text text-anchor="start" x="970" y="-85.5" font-family="Helvetica,sans-Serif" font-size="10.00" fill="#000000">/component/include/component</text>
<text text-anchor="middle" x="1038" y="-74.5" font-family="Helvetica,sans-Serif" font-size="10.00" fill="#000000">/g3t1_3/G3T1_3.hpp</text>
</a>
</g>
</g>
<!-- Node9&#45;&gt;Node16 -->
<g id="edge16" class="edge">
<title>Node9&#45;&gt;Node16</title>
<path fill="none" stroke="#191970" d="M1038,-135.0789C1038,-126.2178 1038,-116.7747 1038,-108.6898"/>
<polygon fill="#191970" stroke="#191970" points="1034.5001,-135.0974 1038,-145.0974 1041.5001,-135.0975 1034.5001,-135.0974"/>
</g>
<!-- Node19 -->
<g id="node19" class="node">
<title>Node19</title>
<g id="a_node19"><a xlink:href="G3T1__4_8hpp.html" target="_top" xlink:title=" ">
<polygon fill="#ffffff" stroke="#ff0000" points="1132,-67.5 1132,-108.5 1284,-108.5 1284,-67.5 1132,-67.5"/>
<text text-anchor="start" x="1140" y="-96.5" font-family="Helvetica,sans-Serif" font-size="10.00" fill="#000000">src/target_system/components</text>
<text text-anchor="start" x="1140" y="-85.5" font-family="Helvetica,sans-Serif" font-size="10.00" fill="#000000">/component/include/component</text>
<text text-anchor="middle" x="1208" y="-74.5" font-family="Helvetica,sans-Serif" font-size="10.00" fill="#000000">/g3t1_4/G3T1_4.hpp</text>
</a>
</g>
</g>
<!-- Node9&#45;&gt;Node19 -->
<g id="edge19" class="edge">
<title>Node9&#45;&gt;Node19</title>
<path fill="none" stroke="#191970" d="M1092.3523,-141.0619C1115.2331,-130.5637 1141.5348,-118.4958 1163.2685,-108.5239"/>
<polygon fill="#191970" stroke="#191970" points="1090.7399,-137.9508 1083.1106,-145.3022 1093.6591,-144.3131 1090.7399,-137.9508"/>
</g>
<!-- Node22 -->
<g id="node21" class="node">
<title>Node22</title>
<g id="a_node21"><a xlink:href="G3T1__5_8hpp.html" target="_top" xlink:title=" ">
<polygon fill="#ffffff" stroke="#ff0000" points="1302,-67.5 1302,-108.5 1454,-108.5 1454,-67.5 1302,-67.5"/>
<text text-anchor="start" x="1310" y="-96.5" font-family="Helvetica,sans-Serif" font-size="10.00" fill="#000000">src/target_system/components</text>
<text text-anchor="start" x="1310" y="-85.5" font-family="Helvetica,sans-Serif" font-size="10.00" fill="#000000">/component/include/component</text>
<text text-anchor="middle" x="1378" y="-74.5" font-family="Helvetica,sans-Serif" font-size="10.00" fill="#000000">/g3t1_5/G3T1_5.hpp</text>
</a>
</g>
</g>
<!-- Node9&#45;&gt;Node22 -->
<g id="edge21" class="edge">
<title>Node9&#45;&gt;Node22</title>
<path fill="none" stroke="#191970" d="M1124.2735,-147.2166C1173.7232,-136.325 1236.9194,-122.1937 1293,-109 1295.8114,-108.3386 1298.6736,-107.6597 1301.5638,-106.9695"/>
<polygon fill="#191970" stroke="#191970" points="1123.2703,-143.8535 1114.2558,-149.4202 1124.7742,-150.6901 1123.2703,-143.8535"/>
</g>
<!-- Node25 -->
<g id="node22" class="node">
<title>Node25</title>
<g id="a_node22"><a xlink:href="Sensor_8cpp.html" target="_top" xlink:title=" ">
<polygon fill="#ffffff" stroke="#000000" points="1472,-73 1472,-103 1624,-103 1624,-73 1472,-73"/>
<text text-anchor="start" x="1480" y="-91" font-family="Helvetica,sans-Serif" font-size="10.00" fill="#000000">src/target_system/components</text>
<text text-anchor="middle" x="1548" y="-80" font-family="Helvetica,sans-Serif" font-size="10.00" fill="#000000">/component/src/Sensor.cpp</text>
</a>
</g>
</g>
<!-- Node9&#45;&gt;Node25 -->
<g id="edge22" class="edge">
<title>Node9&#45;&gt;Node25</title>
<path fill="none" stroke="#191970" d="M1124.0158,-157.2453C1210.1819,-147.8236 1346.3925,-131.1558 1463,-109 1471.9601,-107.2976 1481.3893,-105.2396 1490.5756,-103.0862"/>
<polygon fill="#191970" stroke="#191970" points="1123.5844,-153.7715 1114.0205,-158.3303 1124.3398,-160.7306 1123.5844,-153.7715"/>
</g>
<!-- Node11 -->
<g id="node11" class="node">
<title>Node11</title>
<g id="a_node11"><a xlink:href="g3t1__1_8cpp.html" target="_top" xlink:title=" ">
<polygon fill="#ffffff" stroke="#000000" points="340,-.5 340,-30.5 492,-30.5 492,-.5 340,-.5"/>
<text text-anchor="start" x="348" y="-18.5" font-family="Helvetica,sans-Serif" font-size="10.00" fill="#000000">src/target_system/components</text>
<text text-anchor="middle" x="416" y="-7.5" font-family="Helvetica,sans-Serif" font-size="10.00" fill="#000000">/component/apps/g3t1_1.cpp</text>
</a>
</g>
</g>
<!-- Node10&#45;&gt;Node11 -->
<g id="edge11" class="edge">
<title>Node10&#45;&gt;Node11</title>
<path fill="none" stroke="#191970" d="M536.1509,-63.6267C508.8589,-52.6948 477.5222,-40.1429 453.6957,-30.5991"/>
<polygon fill="#191970" stroke="#191970" points="535.0324,-66.949 545.6168,-67.4183 537.6352,-60.4509 535.0324,-66.949"/>
</g>
<!-- Node12 -->
<g id="node12" class="node">
<title>Node12</title>
<g id="a_node12"><a xlink:href="G3T1__1_8cpp.html" target="_top" xlink:title=" ">
<polygon fill="#ffffff" stroke="#000000" points="510.5,-.5 510.5,-30.5 683.5,-30.5 683.5,-.5 510.5,-.5"/>
<text text-anchor="start" x="518.5" y="-18.5" font-family="Helvetica,sans-Serif" font-size="10.00" fill="#000000">src/target_system/components</text>
<text text-anchor="middle" x="597" y="-7.5" font-family="Helvetica,sans-Serif" font-size="10.00" fill="#000000">/component/src/g3t1_1/G3T1_1.cpp</text>
</a>
</g>
</g>
<!-- Node10&#45;&gt;Node12 -->
<g id="edge12" class="edge">
<title>Node10&#45;&gt;Node12</title>
<path fill="none" stroke="#191970" d="M597,-57.3279C597,-48.0871 597,-38.3508 597,-30.5991"/>
<polygon fill="#191970" stroke="#191970" points="593.5001,-57.4183 597,-67.4183 600.5001,-57.4184 593.5001,-57.4183"/>
</g>
<!-- Node14 -->
<g id="node14" class="node">
<title>Node14</title>
<g id="a_node14"><a xlink:href="g3t1__2_8cpp.html" target="_top" xlink:title=" ">
<polygon fill="#ffffff" stroke="#000000" points="702,-.5 702,-30.5 854,-30.5 854,-.5 702,-.5"/>
<text text-anchor="start" x="710" y="-18.5" font-family="Helvetica,sans-Serif" font-size="10.00" fill="#000000">src/target_system/components</text>
<text text-anchor="middle" x="778" y="-7.5" font-family="Helvetica,sans-Serif" font-size="10.00" fill="#000000">/component/apps/g3t1_2.cpp</text>
</a>
</g>
</g>
<!-- Node13&#45;&gt;Node14 -->
<g id="edge14" class="edge">
<title>Node13&#45;&gt;Node14</title>
<path fill="none" stroke="#191970" d="M834.3275,-60.8749C821.613,-50.6327 807.6082,-39.351 796.7437,-30.5991"/>
<polygon fill="#191970" stroke="#191970" points="832.4671,-63.8707 842.4503,-67.4183 836.8585,-58.4194 832.4671,-63.8707"/>
</g>
<!-- Node15 -->
<g id="node15" class="node">
<title>Node15</title>
<g id="a_node15"><a xlink:href="G3T1__2_8cpp.html" target="_top" xlink:title=" ">
<polygon fill="#ffffff" stroke="#000000" points="872.5,-.5 872.5,-30.5 1045.5,-30.5 1045.5,-.5 872.5,-.5"/>
<text text-anchor="start" x="880.5" y="-18.5" font-family="Helvetica,sans-Serif" font-size="10.00" fill="#000000">src/target_system/components</text>
<text text-anchor="middle" x="959" y="-7.5" font-family="Helvetica,sans-Serif" font-size="10.00" fill="#000000">/component/src/g3t1_2/G3T1_2.cpp</text>
</a>
</g>
</g>
<!-- Node13&#45;&gt;Node15 -->
<g id="edge15" class="edge">
<title>Node13&#45;&gt;Node15</title>
<path fill="none" stroke="#191970" d="M901.6797,-61.1672C914.6324,-50.8478 928.9582,-39.4344 940.048,-30.5991"/>
<polygon fill="#191970" stroke="#191970" points="899.4739,-58.4496 893.8335,-67.4183 903.8357,-63.9245 899.4739,-58.4496"/>
</g>
<!-- Node17 -->
<g id="node17" class="node">
<title>Node17</title>
<g id="a_node17"><a xlink:href="g3t1__3_8cpp.html" target="_top" xlink:title=" ">
<polygon fill="#ffffff" stroke="#000000" points="1064,-.5 1064,-30.5 1216,-30.5 1216,-.5 1064,-.5"/>
<text text-anchor="start" x="1072" y="-18.5" font-family="Helvetica,sans-Serif" font-size="10.00" fill="#000000">src/target_system/components</text>
<text text-anchor="middle" x="1140" y="-7.5" font-family="Helvetica,sans-Serif" font-size="10.00" fill="#000000">/component/apps/g3t1_3.cpp</text>
</a>
</g>
</g>
<!-- Node16&#45;&gt;Node17 -->
<g id="edge17" class="edge">
<title>Node16&#45;&gt;Node17</title>
<path fill="none" stroke="#191970" d="M1075.3404,-61.459C1089.966,-51.0634 1106.2095,-39.5177 1118.7571,-30.5991"/>
<polygon fill="#191970" stroke="#191970" points="1073.0794,-58.772 1066.9563,-67.4183 1077.1348,-64.4776 1073.0794,-58.772"/>
</g>
<!-- Node18 -->
<g id="node18" class="node">
<title>Node18</title>
<g id="a_node18"><a xlink:href="G3T1__3_8cpp.html" target="_top" xlink:title=" ">
<polygon fill="#ffffff" stroke="#000000" points="1234.5,-.5 1234.5,-30.5 1407.5,-30.5 1407.5,-.5 1234.5,-.5"/>
<text text-anchor="start" x="1242.5" y="-18.5" font-family="Helvetica,sans-Serif" font-size="10.00" fill="#000000">src/target_system/components</text>
<text text-anchor="middle" x="1321" y="-7.5" font-family="Helvetica,sans-Serif" font-size="10.00" fill="#000000">/component/src/g3t1_3/G3T1_3.cpp</text>
</a>
</g>
</g>
<!-- Node16&#45;&gt;Node18 -->
<g id="edge18" class="edge">
<title>Node16&#45;&gt;Node18</title>
<path fill="none" stroke="#191970" d="M1123.906,-65.9923C1168.6356,-54.5333 1222.1781,-40.8166 1262.1608,-30.5736"/>
<polygon fill="#191970" stroke="#191970" points="1123.0296,-62.6037 1114.2111,-68.476 1124.7669,-69.3847 1123.0296,-62.6037"/>
</g>
<!-- Node20 -->
<g id="node20" class="node">
<title>Node20</title>
<g id="a_node20"><a xlink:href="g3t1__4_8cpp.html" target="_top" xlink:title=" ">
<polygon fill="#ffffff" stroke="#000000" points="1426,-.5 1426,-30.5 1578,-30.5 1578,-.5 1426,-.5"/>
<text text-anchor="start" x="1434" y="-18.5" font-family="Helvetica,sans-Serif" font-size="10.00" fill="#000000">src/target_system/components</text>
<text text-anchor="middle" x="1502" y="-7.5" font-family="Helvetica,sans-Serif" font-size="10.00" fill="#000000">/component/apps/g3t1_4.cpp</text>
</a>
</g>
</g>
<!-- Node19&#45;&gt;Node20 -->
<g id="edge20" class="edge">
<title>Node19&#45;&gt;Node20</title>
<path fill="none" stroke="#191970" d="M1294.3327,-66.6717C1349.0438,-53.1742 1401.4268,-40.2677 1440.7249,-30.5885"/>
<polygon fill="#191970" stroke="#191970" points="1293.3255,-63.3152 1284.4551,-69.1088 1295.0024,-70.1114 1293.3255,-63.3152"/>
</g>
<!-- Node27 -->
<g id="node24" class="node">
<title>Node27</title>
<g id="a_node24"><a xlink:href="Effector_8cpp.html" target="_top" xlink:title=" ">
<polygon fill="#ffffff" stroke="#000000" points="1509,-151 1509,-181 1619,-181 1619,-151 1509,-151"/>
<text text-anchor="start" x="1517" y="-169" font-family="Helvetica,sans-Serif" font-size="10.00" fill="#000000">archlib/src/target</text>
<text text-anchor="middle" x="1564" y="-158" font-family="Helvetica,sans-Serif" font-size="10.00" fill="#000000">_system/Effector.cpp</text>
</a>
</g>
</g>
<!-- Node26&#45;&gt;Node27 -->
<g id="edge24" class="edge">
<title>Node26&#45;&gt;Node27</title>
<path fill="none" stroke="#191970" d="M1673.7352,-224.2268C1648.4986,-210.836 1615.6612,-193.412 1592.5065,-181.1259"/>
<polygon fill="#191970" stroke="#191970" points="1672.1829,-227.3653 1682.6569,-228.9608 1675.4639,-221.1819 1672.1829,-227.3653"/>
</g>
<!-- Node28 -->
<g id="node25" class="node">
<title>Node28</title>
<g id="a_node25"><a xlink:href="ParamAdapter_8hpp.html" target="_top" xlink:title=" ">
<polygon fill="#ffffff" stroke="#000000" points="1637,-145.5 1637,-186.5 1785,-186.5 1785,-145.5 1637,-145.5"/>
<text text-anchor="start" x="1645" y="-174.5" font-family="Helvetica,sans-Serif" font-size="10.00" fill="#000000">src/target_system/effectors</text>
<text text-anchor="start" x="1645" y="-163.5" font-family="Helvetica,sans-Serif" font-size="10.00" fill="#000000">/param_adapter/include/param</text>
<text text-anchor="middle" x="1711" y="-152.5" font-family="Helvetica,sans-Serif" font-size="10.00" fill="#000000">_adapter/ParamAdapter.hpp</text>
</a>
</g>
</g>
<!-- Node26&#45;&gt;Node28 -->
<g id="edge25" class="edge">
<title>Node26&#45;&gt;Node28</title>
<path fill="none" stroke="#191970" d="M1711,-218.8044C1711,-208.3919 1711,-196.4721 1711,-186.5956"/>
<polygon fill="#191970" stroke="#191970" points="1707.5001,-218.9608 1711,-228.9608 1714.5001,-218.9608 1707.5001,-218.9608"/>
</g>
<!-- Node29 -->
<g id="node26" class="node">
<title>Node29</title>
<g id="a_node26"><a xlink:href="param__adapter_8cpp.html" target="_top" xlink:title=" ">
<polygon fill="#ffffff" stroke="#000000" points="1642,-67.5 1642,-108.5 1780,-108.5 1780,-67.5 1642,-67.5"/>
<text text-anchor="start" x="1650" y="-96.5" font-family="Helvetica,sans-Serif" font-size="10.00" fill="#000000">src/target_system/effectors</text>
<text text-anchor="start" x="1650" y="-85.5" font-family="Helvetica,sans-Serif" font-size="10.00" fill="#000000">/param_adapter/apps/param</text>
<text text-anchor="middle" x="1711" y="-74.5" font-family="Helvetica,sans-Serif" font-size="10.00" fill="#000000">_adapter.cpp</text>
</a>
</g>
</g>
<!-- Node28&#45;&gt;Node29 -->
<g id="edge26" class="edge">
<title>Node28&#45;&gt;Node29</title>
<path fill="none" stroke="#191970" d="M1711,-135.0789C1711,-126.2178 1711,-116.7747 1711,-108.6898"/>
<polygon fill="#191970" stroke="#191970" points="1707.5001,-135.0974 1711,-145.0974 1714.5001,-135.0975 1707.5001,-135.0974"/>
</g>
<!-- Node30 -->
<g id="node27" class="node">
<title>Node30</title>
<g id="a_node27"><a xlink:href="ParamAdapter_8cpp.html" target="_top" xlink:title=" ">
<polygon fill="#ffffff" stroke="#000000" points="1798.5,-73 1798.5,-103 1983.5,-103 1983.5,-73 1798.5,-73"/>
<text text-anchor="start" x="1806.5" y="-91" font-family="Helvetica,sans-Serif" font-size="10.00" fill="#000000">src/target_system/effectors</text>
<text text-anchor="middle" x="1891" y="-80" font-family="Helvetica,sans-Serif" font-size="10.00" fill="#000000">/param_adapter/src/ParamAdapter.cpp</text>
</a>
</g>
</g>
<!-- Node28&#45;&gt;Node30 -->
<g id="edge27" class="edge">
<title>Node28&#45;&gt;Node30</title>
<path fill="none" stroke="#191970" d="M1767.958,-141.3182C1796.9048,-128.7746 1831.1472,-113.9362 1856.1492,-103.102"/>
<polygon fill="#191970" stroke="#191970" points="1766.548,-138.1146 1758.7641,-145.3022 1769.3313,-144.5375 1766.548,-138.1146"/>
</g>
<!-- Node32 -->
<g id="node29" class="node">
<title>Node32</title>
<g id="a_node29"><a xlink:href="Probe_8cpp.html" target="_top" xlink:title=" ">
<polygon fill="#ffffff" stroke="#000000" points="1803.5,-151 1803.5,-181 1904.5,-181 1904.5,-151 1803.5,-151"/>
<text text-anchor="start" x="1811.5" y="-169" font-family="Helvetica,sans-Serif" font-size="10.00" fill="#000000">archlib/src/target</text>
<text text-anchor="middle" x="1854" y="-158" font-family="Helvetica,sans-Serif" font-size="10.00" fill="#000000">_system/Probe.cpp</text>
</a>
</g>
</g>
<!-- Node31&#45;&gt;Node32 -->
<g id="edge29" class="edge">
<title>Node31&#45;&gt;Node32</title>
<path fill="none" stroke="#191970" d="M1940.774,-223.3591C1920.7749,-210.1393 1895.2596,-193.2733 1877.0844,-181.2592"/>
<polygon fill="#191970" stroke="#191970" points="1938.9762,-226.3662 1949.2484,-228.9608 1942.8362,-220.5267 1938.9762,-226.3662"/>
</g>
<!-- Node33 -->
<g id="node30" class="node">
<title>Node33</title>
<g id="a_node30"><a xlink:href="collector_8cpp.html" target="_top" xlink:title=" ">
<polygon fill="#ffffff" stroke="#000000" points="1922.5,-151 1922.5,-181 2061.5,-181 2061.5,-151 1922.5,-151"/>
<text text-anchor="start" x="1930.5" y="-169" font-family="Helvetica,sans-Serif" font-size="10.00" fill="#000000">src/target_system/probes</text>
<text text-anchor="middle" x="1992" y="-158" font-family="Helvetica,sans-Serif" font-size="10.00" fill="#000000">/collector/apps/collector.cpp</text>
</a>
</g>
</g>
<!-- Node31&#45;&gt;Node33 -->
<g id="edge30" class="edge">
<title>Node31&#45;&gt;Node33</title>
<path fill="none" stroke="#191970" d="M1978.3688,-219.1616C1981.5611,-206.7119 1985.3246,-192.0342 1988.0874,-181.2592"/>
<polygon fill="#191970" stroke="#191970" points="1974.9497,-218.4048 1975.8562,-228.9608 1981.7304,-220.1435 1974.9497,-218.4048"/>
</g>
<!-- Node36 -->
<g id="node33" class="node">
<title>Node36</title>
<g id="a_node33"><a xlink:href="patient_8cpp.html" target="_top" xlink:title=" ">
<polygon fill="#ffffff" stroke="#000000" points="2079.5,-151 2079.5,-181 2198.5,-181 2198.5,-151 2079.5,-151"/>
<text text-anchor="start" x="2087.5" y="-169" font-family="Helvetica,sans-Serif" font-size="10.00" fill="#000000">src/environment/patient</text>
<text text-anchor="middle" x="2139" y="-158" font-family="Helvetica,sans-Serif" font-size="10.00" fill="#000000">/apps/patient.cpp</text>
</a>
</g>
</g>
<!-- Node35&#45;&gt;Node36 -->
<g id="edge33" class="edge">
<title>Node35&#45;&gt;Node36</title>
<path fill="none" stroke="#191970" d="M2255.8056,-224.4028C2228.9779,-210.9889 2193.9319,-193.4659 2169.2518,-181.1259"/>
<polygon fill="#191970" stroke="#191970" points="2254.4121,-227.6191 2264.9216,-228.9608 2257.5426,-221.3581 2254.4121,-227.6191"/>
</g>
<!-- Node37 -->
<g id="node34" class="node">
<title>Node37</title>
<g id="a_node34"><a xlink:href="PatientModule_8cpp.html" target="_top" xlink:title=" ">
<polygon fill="#ffffff" stroke="#000000" points="2216.5,-151 2216.5,-181 2335.5,-181 2335.5,-151 2216.5,-151"/>
<text text-anchor="start" x="2224.5" y="-169" font-family="Helvetica,sans-Serif" font-size="10.00" fill="#000000">src/environment/patient</text>
<text text-anchor="middle" x="2276" y="-158" font-family="Helvetica,sans-Serif" font-size="10.00" fill="#000000">/src/PatientModule.cpp</text>
</a>
</g>
</g>
<!-- Node35&#45;&gt;Node37 -->
<g id="edge34" class="edge">
<title>Node35&#45;&gt;Node37</title>
<path fill="none" stroke="#191970" d="M2288.9496,-219.1616C2285.917,-206.7119 2282.3417,-192.0342 2279.717,-181.2592"/>
<polygon fill="#191970" stroke="#191970" points="2285.5693,-220.0733 2291.3366,-228.9608 2292.3704,-218.4165 2285.5693,-220.0733"/>
</g>
<!-- Node39 -->
<g id="node36" class="node">
<title>Node39</title>
<g id="a_node36"><a xlink:href="data__access_8cpp.html" target="_top" xlink:title=" ">
<polygon fill="#ffffff" stroke="#000000" points="2354,-145.5 2354,-186.5 2482,-186.5 2482,-145.5 2354,-145.5"/>
<text text-anchor="start" x="2362" y="-174.5" font-family="Helvetica,sans-Serif" font-size="10.00" fill="#000000">src/knowledge_repository</text>
<text text-anchor="start" x="2362" y="-163.5" font-family="Helvetica,sans-Serif" font-size="10.00" fill="#000000">/data_access/apps/data</text>
<text text-anchor="middle" x="2418" y="-152.5" font-family="Helvetica,sans-Serif" font-size="10.00" fill="#000000">_access.cpp</text>
</a>
</g>
</g>
<!-- Node38&#45;&gt;Node39 -->
<g id="edge36" class="edge">
<title>Node38&#45;&gt;Node39</title>
<path fill="none" stroke="#191970" d="M2435.1072,-213.6559C2431.8668,-204.629 2428.3925,-194.9505 2425.4271,-186.6898"/>
<polygon fill="#191970" stroke="#191970" points="2431.8236,-214.868 2438.4965,-223.0974 2438.412,-212.5029 2431.8236,-214.868"/>
</g>
<!-- Node40 -->
<g id="node37" class="node">
<title>Node40</title>
<g id="a_node37"><a xlink:href="DataAccess_8cpp.html" target="_top" xlink:title=" ">
<polygon fill="#ffffff" stroke="#000000" points="2500.5,-151 2500.5,-181 2667.5,-181 2667.5,-151 2500.5,-151"/>
<text text-anchor="start" x="2508.5" y="-169" font-family="Helvetica,sans-Serif" font-size="10.00" fill="#000000">src/knowledge_repository</text>
<text text-anchor="middle" x="2584" y="-158" font-family="Helvetica,sans-Serif" font-size="10.00" fill="#000000">/data_access/src/DataAccess.cpp</text>
</a>
</g>
</g>
<!-- Node38&#45;&gt;Node40 -->
<g id="edge37" class="edge">
<title>Node38&#45;&gt;Node40</title>
<path fill="none" stroke="#191970" d="M2491.4051,-218.3363C2513.2194,-206.0064 2538.6107,-191.6548 2557.281,-181.102"/>
<polygon fill="#191970" stroke="#191970" points="2489.6026,-215.3346 2482.6192,-223.3022 2493.047,-221.4286 2489.6026,-215.3346"/>
</g>
<!-- Node42 -->
<g id="node39" class="node">
<title>Node42</title>
<g id="a_node39"><a xlink:href="logger_8cpp.html" target="_top" xlink:title=" ">
<polygon fill="#ffffff" stroke="#000000" points="2686,-151 2686,-181 2812,-181 2812,-151 2686,-151"/>
<text text-anchor="start" x="2694" y="-169" font-family="Helvetica,sans-Serif" font-size="10.00" fill="#000000">src/logging_infrastructure</text>
<text text-anchor="middle" x="2749" y="-158" font-family="Helvetica,sans-Serif" font-size="10.00" fill="#000000">/logger/apps/logger.cpp</text>
</a>
</g>
</g>
<!-- Node41&#45;&gt;Node42 -->
<g id="edge39" class="edge">
<title>Node41&#45;&gt;Node42</title>
<path fill="none" stroke="#191970" d="M2749,-218.7875C2749,-206.4187 2749,-191.9264 2749,-181.2592"/>
<polygon fill="#191970" stroke="#191970" points="2745.5001,-218.9608 2749,-228.9608 2752.5001,-218.9608 2745.5001,-218.9608"/>
</g>
<!-- Node43 -->
<g id="node40" class="node">
<title>Node43</title>
<g id="a_node40"><a xlink:href="Logger_8cpp.html" target="_top" xlink:title=" ">
<polygon fill="#ffffff" stroke="#000000" points="2830,-151 2830,-181 2956,-181 2956,-151 2830,-151"/>
<text text-anchor="start" x="2838" y="-169" font-family="Helvetica,sans-Serif" font-size="10.00" fill="#000000">src/logging_infrastructure</text>
<text text-anchor="middle" x="2893" y="-158" font-family="Helvetica,sans-Serif" font-size="10.00" fill="#000000">/logger/src/Logger.cpp</text>
</a>
</g>
</g>
<!-- Node41&#45;&gt;Node43 -->
<g id="edge40" class="edge">
<title>Node41&#45;&gt;Node43</title>
<path fill="none" stroke="#191970" d="M2785.7996,-224.0669C2810.3921,-210.746 2842.2515,-193.4888 2864.8293,-181.2592"/>
<polygon fill="#191970" stroke="#191970" points="2783.8906,-221.1204 2776.7646,-228.9608 2787.2246,-227.2755 2783.8906,-221.1204"/>
</g>
<!-- Node45 -->
<g id="node42" class="node">
<title>Node45</title>
<g id="a_node42"><a xlink:href="engine_8cpp.html" target="_top" xlink:title=" ">
<polygon fill="#ffffff" stroke="#000000" points="2974,-145.5 2974,-186.5 3096,-186.5 3096,-145.5 2974,-145.5"/>
<text text-anchor="start" x="2982" y="-174.5" font-family="Helvetica,sans-Serif" font-size="10.00" fill="#000000">src/manager_system</text>
<text text-anchor="start" x="2982" y="-163.5" font-family="Helvetica,sans-Serif" font-size="10.00" fill="#000000">/adaptation_engine/apps</text>
<text text-anchor="middle" x="3035" y="-152.5" font-family="Helvetica,sans-Serif" font-size="10.00" fill="#000000">/engine.cpp</text>
</a>
</g>
</g>
<!-- Node44&#45;&gt;Node45 -->
<g id="edge42" class="edge">
<title>Node44&#45;&gt;Node45</title>
<path fill="none" stroke="#191970" d="M3078.0457,-215.376C3069.7587,-205.8703 3060.6986,-195.4778 3053.0373,-186.6898"/>
<polygon fill="#191970" stroke="#191970" points="3075.5676,-217.8597 3084.7772,-223.0974 3080.8441,-213.2597 3075.5676,-217.8597"/>
</g>
<!-- Node46 -->
<g id="node43" class="node">
<title>Node46</title>
<g id="a_node43"><a xlink:href="Engine_8cpp.html" target="_top" xlink:title=" ">
<polygon fill="#ffffff" stroke="#000000" points="3114.5,-145.5 3114.5,-186.5 3229.5,-186.5 3229.5,-145.5 3114.5,-145.5"/>
<text text-anchor="start" x="3122.5" y="-174.5" font-family="Helvetica,sans-Serif" font-size="10.00" fill="#000000">src/manager_system</text>
<text text-anchor="start" x="3122.5" y="-163.5" font-family="Helvetica,sans-Serif" font-size="10.00" fill="#000000">/adaptation_engine/src</text>
<text text-anchor="middle" x="3172" y="-152.5" font-family="Helvetica,sans-Serif" font-size="10.00" fill="#000000">/Engine.cpp</text>
</a>
</g>
</g>
<!-- Node44&#45;&gt;Node46 -->
<g id="edge43" class="edge">
<title>Node44&#45;&gt;Node46</title>
<path fill="none" stroke="#191970" d="M3128.3213,-215.376C3136.7301,-205.8703 3145.9235,-195.4778 3153.6975,-186.6898"/>
<polygon fill="#191970" stroke="#191970" points="3125.495,-213.2884 3121.4907,-223.0974 3130.738,-217.9265 3125.495,-213.2884"/>
</g>
<!-- Node47 -->
<g id="node44" class="node">
<title>Node47</title>
<g id="a_node44"><a xlink:href="adaptation__engine-test_8cpp.html" target="_top" xlink:title=" ">
<polygon fill="#ffffff" stroke="#000000" points="3247.5,-145.5 3247.5,-186.5 3384.5,-186.5 3384.5,-145.5 3247.5,-145.5"/>
<text text-anchor="start" x="3255.5" y="-174.5" font-family="Helvetica,sans-Serif" font-size="10.00" fill="#000000">src/manager_system</text>
<text text-anchor="start" x="3255.5" y="-163.5" font-family="Helvetica,sans-Serif" font-size="10.00" fill="#000000">/adaptation_engine/test</text>
<text text-anchor="middle" x="3316" y="-152.5" font-family="Helvetica,sans-Serif" font-size="10.00" fill="#000000">/adaptation_engine&#45;test.cpp</text>
</a>
</g>
</g>
<!-- Node44&#45;&gt;Node47 -->
<g id="edge44" class="edge">
<title>Node44&#45;&gt;Node47</title>
<path fill="none" stroke="#191970" d="M3168.9189,-219.8607C3198.0374,-209.1976 3231.9151,-196.7917 3259.8126,-186.5757"/>
<polygon fill="#191970" stroke="#191970" points="3167.4285,-216.6791 3159.2419,-223.4044 3169.8356,-223.2522 3167.4285,-216.6791"/>
</g>
<!-- Node49 -->
<g id="node46" class="node">
<title>Node49</title>
<g id="a_node46"><a xlink:href="enactor_8cpp.html" target="_top" xlink:title=" ">
<polygon fill="#ffffff" stroke="#000000" points="3403,-151 3403,-181 3533,-181 3533,-151 3403,-151"/>
<text text-anchor="start" x="3411" y="-169" font-family="Helvetica,sans-Serif" font-size="10.00" fill="#000000">src/manager_system</text>
<text text-anchor="middle" x="3468" y="-158" font-family="Helvetica,sans-Serif" font-size="10.00" fill="#000000">/enactor/apps/enactor.cpp</text>
</a>
</g>
</g>
<!-- Node48&#45;&gt;Node49 -->
<g id="edge46" class="edge">
<title>Node48&#45;&gt;Node49</title>
<path fill="none" stroke="#191970" d="M3468,-213.0187C3468,-202.1033 3468,-190.3119 3468,-181.2679"/>
<polygon fill="#191970" stroke="#191970" points="3464.5001,-213.0974 3468,-223.0974 3471.5001,-213.0975 3464.5001,-213.0974"/>
</g>
<!-- Node50 -->
<g id="node47" class="node">
<title>Node50</title>
<g id="a_node47"><a xlink:href="Enactor_8cpp.html" target="_top" xlink:title=" ">
<polygon fill="#ffffff" stroke="#000000" points="3551,-151 3551,-181 3675,-181 3675,-151 3551,-151"/>
<text text-anchor="start" x="3559" y="-169" font-family="Helvetica,sans-Serif" font-size="10.00" fill="#000000">src/manager_system</text>
<text text-anchor="middle" x="3613" y="-158" font-family="Helvetica,sans-Serif" font-size="10.00" fill="#000000">/enactor/src/Enactor.cpp</text>
</a>
</g>
</g>
<!-- Node48&#45;&gt;Node50 -->
<g id="edge47" class="edge">
<title>Node48&#45;&gt;Node50</title>
<path fill="none" stroke="#191970" d="M3515.4029,-218.5005C3538.3918,-206.1341 3565.2212,-191.7017 3584.9257,-181.102"/>
<polygon fill="#191970" stroke="#191970" points="3513.6252,-215.4825 3506.4767,-223.3022 3516.9414,-221.6471 3513.6252,-215.4825"/>
</g>
<!-- Node52 -->
<g id="node49" class="node">
<title>Node52</title>
<g id="a_node49"><a xlink:href="injector_8cpp.html" target="_top" xlink:title=" ">
<polygon fill="#ffffff" stroke="#000000" points="3693,-151 3693,-181 3805,-181 3805,-151 3693,-151"/>
<text text-anchor="start" x="3701" y="-169" font-family="Helvetica,sans-Serif" font-size="10.00" fill="#000000">src/simulation/injector</text>
<text text-anchor="middle" x="3749" y="-158" font-family="Helvetica,sans-Serif" font-size="10.00" fill="#000000">/apps/injector.cpp</text>
</a>
</g>
</g>
<!-- Node51&#45;&gt;Node52 -->
<g id="edge49" class="edge">
<title>Node51&#45;&gt;Node52</title>
<path fill="none" stroke="#191970" d="M3749,-218.7875C3749,-206.4187 3749,-191.9264 3749,-181.2592"/>
<polygon fill="#191970" stroke="#191970" points="3745.5001,-218.9608 3749,-228.9608 3752.5001,-218.9608 3745.5001,-218.9608"/>
</g>
<!-- Node53 -->
<g id="node50" class="node">
<title>Node53</title>
<g id="a_node50"><a xlink:href="Injector_8cpp.html" target="_top" xlink:title=" ">
<polygon fill="#ffffff" stroke="#000000" points="3823,-151 3823,-181 3935,-181 3935,-151 3823,-151"/>
<text text-anchor="start" x="3831" y="-169" font-family="Helvetica,sans-Serif" font-size="10.00" fill="#000000">src/simulation/injector</text>
<text text-anchor="middle" x="3879" y="-158" font-family="Helvetica,sans-Serif" font-size="10.00" fill="#000000">/src/Injector.cpp</text>
</a>
</g>
</g>
<!-- Node51&#45;&gt;Node53 -->
<g id="edge50" class="edge">
<title>Node51&#45;&gt;Node53</title>
<path fill="none" stroke="#191970" d="M3782.8102,-223.7139C3804.9296,-210.4423 3833.3649,-193.381 3853.5681,-181.2592"/>
<polygon fill="#191970" stroke="#191970" points="3780.8395,-220.8146 3774.0653,-228.9608 3784.441,-226.817 3780.8395,-220.8146"/>
</g>
</g>
</svg>
