<?xml version="1.0" encoding="UTF-8" standalone="no"?>
<!DOCTYPE svg PUBLIC "-//W3C//DTD SVG 1.1//EN"
 "http://www.w3.org/Graphics/SVG/1.1/DTD/svg11.dtd">
<!-- Generated by graphviz version 2.40.1 (20161225.0304)
 -->
<!-- Title: archlib/include/archlib/ROSComponent.hpp Pages: 1 -->
<svg width="297pt" height="151pt"
 viewBox="0.00 0.00 296.79 151.00" xmlns="http://www.w3.org/2000/svg" xmlns:xlink="http://www.w3.org/1999/xlink">
<g id="graph0" class="graph" transform="scale(1 1) rotate(0) translate(4 147)">
<title>archlib/include/archlib/ROSComponent.hpp</title>
<polygon fill="#ffffff" stroke="transparent" points="-4,4 -4,-147 292.7882,-147 292.7882,4 -4,4"/>
<!-- Node1 -->
<g id="node1" class="node">
<title>Node1</title>
<g id="a_node1"><a xlink:title=" ">
<polygon fill="#bfbfbf" stroke="#000000" points="58.5051,-112.5 58.5051,-142.5 168.5051,-142.5 168.5051,-112.5 58.5051,-112.5"/>
<text text-anchor="start" x="66.5051" y="-130.5" font-family="Helvetica,sans-Serif" font-size="10.00" fill="#000000">archlib/include/archlib</text>
<text text-anchor="middle" x="113.5051" y="-119.5" font-family="Helvetica,sans-Serif" font-size="10.00" fill="#000000">/ROSComponent.hpp</text>
</a>
</g>
</g>
<!-- Node2 -->
<g id="node2" class="node">
<title>Node2</title>
<g id="a_node2"><a xlink:title=" ">
<polygon fill="#ffffff" stroke="#bfbfbf" points="91.0051,-.5 91.0051,-19.5 132.0051,-19.5 132.0051,-.5 91.0051,-.5"/>
<text text-anchor="middle" x="111.5051" y="-7.5" font-family="Helvetica,sans-Serif" font-size="10.00" fill="#000000">string</text>
</a>
</g>
</g>
<!-- Node1&#45;&gt;Node2 -->
<g id="edge1" class="edge">
<title>Node1&#45;&gt;Node2</title>
<path fill="none" stroke="#191970" d="M58.465,-114.9098C37.8917,-107.244 16.602,-95.0945 4.5051,-76 -16.0476,-43.558 42.2023,-24.5328 80.6373,-15.8072"/>
<polygon fill="#191970" stroke="#191970" points="81.8247,-19.1324 90.8706,-13.6167 80.3594,-12.2874 81.8247,-19.1324"/>
</g>
<!-- Node3 -->
<g id="node3" class="node">
<title>Node3</title>
<g id="a_node3"><a xlink:title=" ">
<polygon fill="#ffffff" stroke="#bfbfbf" points="14.0051,-56.5 14.0051,-75.5 73.0051,-75.5 73.0051,-56.5 14.0051,-56.5"/>
<text text-anchor="middle" x="43.5051" y="-63.5" font-family="Helvetica,sans-Serif" font-size="10.00" fill="#000000">stdexcept</text>
</a>
</g>
</g>
<!-- Node1&#45;&gt;Node3 -->
<g id="edge2" class="edge">
<title>Node1&#45;&gt;Node3</title>
<path fill="none" stroke="#191970" d="M96.2018,-112.2977C85.979,-103.3163 73.0228,-91.9334 62.5156,-82.702"/>
<polygon fill="#191970" stroke="#191970" points="64.5356,-79.8178 54.713,-75.8469 59.9154,-85.0766 64.5356,-79.8178"/>
</g>
<!-- Node4 -->
<g id="node4" class="node">
<title>Node4</title>
<g id="a_node4"><a xlink:title=" ">
<polygon fill="#ffffff" stroke="#bfbfbf" points="216.0051,-.5 216.0051,-19.5 271.0051,-19.5 271.0051,-.5 216.0051,-.5"/>
<text text-anchor="middle" x="243.5051" y="-7.5" font-family="Helvetica,sans-Serif" font-size="10.00" fill="#000000">ros/ros.h</text>
</a>
</g>
</g>
<!-- Node1&#45;&gt;Node4 -->
<g id="edge3" class="edge">
<title>Node1&#45;&gt;Node4</title>
<path fill="none" stroke="#191970" d="M168.7206,-118.1846C213.1795,-109.4259 270.4957,-94.8502 284.5051,-76 296.6331,-59.6814 280.2669,-39.6994 264.7555,-26.0248"/>
<polygon fill="#191970" stroke="#191970" points="266.812,-23.1836 256.8775,-19.5017 262.3476,-28.5752 266.812,-23.1836"/>
</g>
<!-- Node5 -->
<g id="node5" class="node">
<title>Node5</title>
<g id="a_node5"><a xlink:href="ROSComponentDescriptor_8hpp.html" target="_top" xlink:title=" ">
<polygon fill="#ffffff" stroke="#000000" points="91.5051,-56.5 91.5051,-75.5 275.5051,-75.5 275.5051,-56.5 91.5051,-56.5"/>
<text text-anchor="middle" x="183.5051" y="-63.5" font-family="Helvetica,sans-Serif" font-size="10.00" fill="#000000">archlib/ROSComponentDescriptor.hpp</text>
</a>
</g>
</g>
<!-- Node1&#45;&gt;Node5 -->
<g id="edge4" class="edge">
<title>Node1&#45;&gt;Node5</title>
<path fill="none" stroke="#191970" d="M130.8085,-112.2977C141.0313,-103.3163 153.9875,-91.9334 164.4947,-82.702"/>
<polygon fill="#191970" stroke="#191970" points="167.0949,-85.0766 172.2973,-75.8469 162.4747,-79.8178 167.0949,-85.0766"/>
</g>
<!-- Node5&#45;&gt;Node2 -->
<g id="edge5" class="edge">
<title>Node5&#45;&gt;Node2</title>
<path fill="none" stroke="#191970" d="M170.9637,-56.2455C160.2264,-47.8943 144.5578,-35.7076 132.0005,-25.9408"/>
<polygon fill="#191970" stroke="#191970" points="133.9452,-23.0194 123.9029,-19.6427 129.6476,-28.5449 133.9452,-23.0194"/>
</g>
<!-- Node5&#45;&gt;Node4 -->
<g id="edge6" class="edge">
<title>Node5&#45;&gt;Node4</title>
<path fill="none" stroke="#191970" d="M193.9563,-56.2455C202.732,-48.0549 215.4606,-36.1749 225.8191,-26.5069"/>
<polygon fill="#191970" stroke="#191970" points="228.2513,-29.0246 233.1737,-19.6427 223.475,-23.9072 228.2513,-29.0246"/>
</g>
</g>
</svg>
