<?xml version="1.0" encoding="UTF-8" standalone="no"?>
<!DOCTYPE svg PUBLIC "-//W3C//DTD SVG 1.1//EN"
 "http://www.w3.org/Graphics/SVG/1.1/DTD/svg11.dtd">
<!-- Generated by graphviz version 2.40.1 (20161225.0304)
 -->
<!-- Title: src/target_system/components/component/include/component/Sensor.hpp Pages: 1 -->
<svg width="1212pt" height="285pt"
 viewBox="0.00 0.00 1211.58 285.00" xmlns="http://www.w3.org/2000/svg" xmlns:xlink="http://www.w3.org/1999/xlink">
<g id="graph0" class="graph" transform="scale(1 1) rotate(0) translate(4 281)">
<title>src/target_system/components/component/include/component/Sensor.hpp</title>
<polygon fill="#ffffff" stroke="transparent" points="-4,4 -4,-281 1207.5825,-281 1207.5825,4 -4,4"/>
<!-- Node1 -->
<g id="node1" class="node">
<title>Node1</title>
<g id="a_node1"><a xlink:title=" ">
<polygon fill="#bfbfbf" stroke="#000000" points="717.0825,-235.5 717.0825,-276.5 869.0825,-276.5 869.0825,-235.5 717.0825,-235.5"/>
<text text-anchor="start" x="725.0825" y="-264.5" font-family="Helvetica,sans-Serif" font-size="10.00" fill="#000000">src/target_system/components</text>
<text text-anchor="start" x="725.0825" y="-253.5" font-family="Helvetica,sans-Serif" font-size="10.00" fill="#000000">/component/include/component</text>
<text text-anchor="middle" x="793.0825" y="-242.5" font-family="Helvetica,sans-Serif" font-size="10.00" fill="#000000">/Sensor.hpp</text>
</a>
</g>
</g>
<!-- Node2 -->
<g id="node2" class="node">
<title>Node2</title>
<g id="a_node2"><a xlink:title=" ">
<polygon fill="#ffffff" stroke="#bfbfbf" points="375.0825,-174 375.0825,-193 421.0825,-193 421.0825,-174 375.0825,-174"/>
<text text-anchor="middle" x="398.0825" y="-181" font-family="Helvetica,sans-Serif" font-size="10.00" fill="#000000">stdio.h</text>
</a>
</g>
</g>
<!-- Node1&#45;&gt;Node2 -->
<g id="edge1" class="edge">
<title>Node1&#45;&gt;Node2</title>
<path fill="none" stroke="#191970" d="M716.8643,-250.6078C642.3677,-243.8154 526.4238,-229.1623 430.0825,-199 428.422,-198.4801 426.7392,-197.8868 425.0591,-197.2426"/>
<polygon fill="#191970" stroke="#191970" points="426.2079,-193.9257 415.6413,-193.1519 423.4191,-200.3461 426.2079,-193.9257"/>
</g>
<!-- Node3 -->
<g id="node3" class="node">
<title>Node3</title>
<g id="a_node3"><a xlink:title=" ">
<polygon fill="#ffffff" stroke="#bfbfbf" points="462.5825,-.5 462.5825,-19.5 503.5825,-19.5 503.5825,-.5 462.5825,-.5"/>
<text text-anchor="middle" x="483.0825" y="-7.5" font-family="Helvetica,sans-Serif" font-size="10.00" fill="#000000">string</text>
</a>
</g>
</g>
<!-- Node1&#45;&gt;Node3 -->
<g id="edge2" class="edge">
<title>Node1&#45;&gt;Node3</title>
<path fill="none" stroke="#191970" d="M800.0582,-235.1001C808.7472,-204.8365 819.4652,-148.4548 793.0825,-112 759.5123,-65.6136 585.7034,-28.8905 514.0331,-15.488"/>
<polygon fill="#191970" stroke="#191970" points="514.3044,-11.9791 503.8358,-13.6101 513.0366,-18.8634 514.3044,-11.9791"/>
</g>
<!-- Node4 -->
<g id="node4" class="node">
<title>Node4</title>
<g id="a_node4"><a xlink:title=" ">
<polygon fill="#ffffff" stroke="#bfbfbf" points="702.0825,-174 702.0825,-193 746.0825,-193 746.0825,-174 702.0825,-174"/>
<text text-anchor="middle" x="724.0825" y="-181" font-family="Helvetica,sans-Serif" font-size="10.00" fill="#000000">vector</text>
</a>
</g>
</g>
<!-- Node1&#45;&gt;Node4 -->
<g id="edge3" class="edge">
<title>Node1&#45;&gt;Node4</title>
<path fill="none" stroke="#191970" d="M773.4945,-235.4183C762.9536,-224.3428 750.113,-210.8509 740.1638,-200.397"/>
<polygon fill="#191970" stroke="#191970" points="742.6345,-197.9162 733.2051,-193.0853 737.5639,-202.7421 742.6345,-197.9162"/>
</g>
<!-- Node5 -->
<g id="node5" class="node">
<title>Node5</title>
<g id="a_node5"><a xlink:href="Component_8hpp.html" target="_top" xlink:title=" ">
<polygon fill="#ffffff" stroke="#000000" points="439.0825,-168.5 439.0825,-198.5 549.0825,-198.5 549.0825,-168.5 439.0825,-168.5"/>
<text text-anchor="start" x="447.0825" y="-186.5" font-family="Helvetica,sans-Serif" font-size="10.00" fill="#000000">archlib/target_system</text>
<text text-anchor="middle" x="494.0825" y="-175.5" font-family="Helvetica,sans-Serif" font-size="10.00" fill="#000000">/Component.hpp</text>
</a>
</g>
</g>
<!-- Node1&#45;&gt;Node5 -->
<g id="edge4" class="edge">
<title>Node1&#45;&gt;Node5</title>
<path fill="none" stroke="#191970" d="M716.8586,-237.5176C668.1784,-225.7139 605.7272,-210.571 559.3401,-199.3233"/>
<polygon fill="#191970" stroke="#191970" points="559.9435,-195.8683 549.4003,-196.9132 558.2939,-202.6712 559.9435,-195.8683"/>
</g>
<!-- Node10 -->
<g id="node10" class="node">
<title>Node10</title>
<g id="a_node10"><a xlink:title=" ">
<polygon fill="#ffffff" stroke="#bfbfbf" points="636.0825,-112.5 636.0825,-131.5 784.0825,-131.5 784.0825,-112.5 636.0825,-112.5"/>
<text text-anchor="middle" x="710.0825" y="-119.5" font-family="Helvetica,sans-Serif" font-size="10.00" fill="#000000">archlib/AdaptationCommand.h</text>
</a>
</g>
</g>
<!-- Node1&#45;&gt;Node10 -->
<g id="edge19" class="edge">
<title>Node1&#45;&gt;Node10</title>
<path fill="none" stroke="#191970" d="M786.5929,-235.3569C780.2132,-216.8031 769.3625,-189.2805 755.0825,-168 747.838,-157.204 737.8808,-146.7175 729.1742,-138.4902"/>
<polygon fill="#191970" stroke="#191970" points="731.3918,-135.7757 721.6437,-131.6255 726.676,-140.9489 731.3918,-135.7757"/>
</g>
<!-- Node15 -->
<g id="node15" class="node">
<title>Node15</title>
<g id="a_node15"><a xlink:title=" ">
<polygon fill="#ffffff" stroke="#bfbfbf" points="840.5825,-174 840.5825,-193 947.5825,-193 947.5825,-174 840.5825,-174"/>
<text text-anchor="middle" x="894.0825" y="-181" font-family="Helvetica,sans-Serif" font-size="10.00" fill="#000000">archlib/Uncertainty.h</text>
</a>
</g>
</g>
<!-- Node1&#45;&gt;Node15 -->
<g id="edge20" class="edge">
<title>Node1&#45;&gt;Node15</title>
<path fill="none" stroke="#191970" d="M821.7549,-235.4183C837.7894,-223.9085 857.4593,-209.789 872.2366,-199.1815"/>
<polygon fill="#191970" stroke="#191970" points="874.6464,-201.7601 880.7291,-193.0853 870.5644,-196.0735 874.6464,-201.7601"/>
</g>
<!-- Node16 -->
<g id="node16" class="node">
<title>Node16</title>
<g id="a_node16"><a xlink:title=" ">
<polygon fill="#ffffff" stroke="#bfbfbf" points="966.0825,-174 966.0825,-193 1092.0825,-193 1092.0825,-174 966.0825,-174"/>
<text text-anchor="middle" x="1029.0825" y="-181" font-family="Helvetica,sans-Serif" font-size="10.00" fill="#000000">bsn/resource/Battery.hpp</text>
</a>
</g>
</g>
<!-- Node1&#45;&gt;Node16 -->
<g id="edge21" class="edge">
<title>Node1&#45;&gt;Node16</title>
<path fill="none" stroke="#191970" d="M860.0794,-235.4183C901.2573,-222.7683 952.6963,-206.9661 987.9419,-196.1386"/>
<polygon fill="#191970" stroke="#191970" points="989.3493,-199.3677 997.8806,-193.0853 987.2936,-192.6763 989.3493,-199.3677"/>
</g>
<!-- Node17 -->
<g id="node17" class="node">
<title>Node17</title>
<g id="a_node17"><a xlink:title=" ">
<polygon fill="#ffffff" stroke="#bfbfbf" points="1110.5825,-174 1110.5825,-193 1203.5825,-193 1203.5825,-174 1110.5825,-174"/>
<text text-anchor="middle" x="1157.0825" y="-181" font-family="Helvetica,sans-Serif" font-size="10.00" fill="#000000">bsn/utils/utils.hpp</text>
</a>
</g>
</g>
<!-- Node1&#45;&gt;Node17 -->
<g id="edge22" class="edge">
<title>Node1&#45;&gt;Node17</title>
<path fill="none" stroke="#191970" d="M869.0908,-243.8291C931.6611,-233.3563 1022.5232,-217.1052 1101.0825,-199 1105.4584,-197.9915 1110.0058,-196.8651 1114.5327,-195.6922"/>
<polygon fill="#191970" stroke="#191970" points="1115.575,-199.0366 1124.3355,-193.0781 1113.7713,-192.273 1115.575,-199.0366"/>
</g>
<!-- Node5&#45;&gt;Node3 -->
<g id="edge5" class="edge">
<title>Node5&#45;&gt;Node3</title>
<path fill="none" stroke="#191970" d="M504.7073,-168.064C510.8175,-158.2271 517.8964,-144.9392 521.0825,-132 530.2665,-94.7033 509.6445,-52.0494 495.3337,-28.3461"/>
<polygon fill="#191970" stroke="#191970" points="498.169,-26.2807 489.8724,-19.6915 492.2491,-30.0163 498.169,-26.2807"/>
</g>
<!-- Node6 -->
<g id="node6" class="node">
<title>Node6</title>
<g id="a_node6"><a xlink:title=" ">
<polygon fill="#ffffff" stroke="#bfbfbf" points="568.0825,-112.5 568.0825,-131.5 618.0825,-131.5 618.0825,-112.5 568.0825,-112.5"/>
<text text-anchor="middle" x="593.0825" y="-119.5" font-family="Helvetica,sans-Serif" font-size="10.00" fill="#000000">signal.h</text>
</a>
</g>
</g>
<!-- Node5&#45;&gt;Node6 -->
<g id="edge6" class="edge">
<title>Node5&#45;&gt;Node6</title>
<path fill="none" stroke="#191970" d="M518.3006,-168.4554C533.6599,-158.9141 553.4582,-146.6151 568.825,-137.0691"/>
<polygon fill="#191970" stroke="#191970" points="571.0935,-139.7802 577.741,-131.5303 567.3997,-133.8341 571.0935,-139.7802"/>
</g>
<!-- Node7 -->
<g id="node7" class="node">
<title>Node7</title>
<g id="a_node7"><a xlink:title=" ">
<polygon fill="#ffffff" stroke="#bfbfbf" points="6.5825,-.5 6.5825,-19.5 61.5825,-19.5 61.5825,-.5 6.5825,-.5"/>
<text text-anchor="middle" x="34.0825" y="-7.5" font-family="Helvetica,sans-Serif" font-size="10.00" fill="#000000">ros/ros.h</text>
</a>
</g>
</g>
<!-- Node5&#45;&gt;Node7 -->
<g id="edge7" class="edge">
<title>Node5&#45;&gt;Node7</title>
<path fill="none" stroke="#191970" d="M439.0327,-169.6072C436.0139,-169.0206 433.0161,-168.479 430.0825,-168 384.1848,-160.5052 44.521,-166.2695 13.0825,-132 -13.0559,-103.5078 7.915,-54.8098 22.6912,-28.377"/>
<polygon fill="#191970" stroke="#191970" points="25.7247,-30.1229 27.756,-19.7246 19.6836,-26.5866 25.7247,-30.1229"/>
</g>
<!-- Node8 -->
<g id="node8" class="node">
<title>Node8</title>
<g id="a_node8"><a xlink:title=" ">
<polygon fill="#ffffff" stroke="#bfbfbf" points="180.0825,-112.5 180.0825,-131.5 262.0825,-131.5 262.0825,-112.5 180.0825,-112.5"/>
<text text-anchor="middle" x="221.0825" y="-119.5" font-family="Helvetica,sans-Serif" font-size="10.00" fill="#000000">archlib/Event.h</text>
</a>
</g>
</g>
<!-- Node5&#45;&gt;Node8 -->
<g id="edge8" class="edge">
<title>Node5&#45;&gt;Node8</title>
<path fill="none" stroke="#191970" d="M438.9419,-170.068C435.9465,-169.3626 432.9786,-168.6693 430.0825,-168 376.2952,-155.569 314.5367,-142.0715 272.1807,-132.9335"/>
<polygon fill="#191970" stroke="#191970" points="272.8948,-129.5071 262.382,-130.8226 271.4206,-136.3501 272.8948,-129.5071"/>
</g>
<!-- Node9 -->
<g id="node9" class="node">
<title>Node9</title>
<g id="a_node9"><a xlink:title=" ">
<polygon fill="#ffffff" stroke="#bfbfbf" points="280.5825,-112.5 280.5825,-131.5 365.5825,-131.5 365.5825,-112.5 280.5825,-112.5"/>
<text text-anchor="middle" x="323.0825" y="-119.5" font-family="Helvetica,sans-Serif" font-size="10.00" fill="#000000">archlib/Status.h</text>
</a>
</g>
</g>
<!-- Node5&#45;&gt;Node9 -->
<g id="edge9" class="edge">
<title>Node5&#45;&gt;Node9</title>
<path fill="none" stroke="#191970" d="M452.2512,-168.4554C423.7194,-158.194 386.319,-144.7429 359.1096,-134.9571"/>
<polygon fill="#191970" stroke="#191970" points="360.1759,-131.6212 349.5815,-131.5303 357.8069,-138.2081 360.1759,-131.6212"/>
</g>
<!-- Node5&#45;&gt;Node10 -->
<g id="edge10" class="edge">
<title>Node5&#45;&gt;Node10</title>
<path fill="none" stroke="#191970" d="M546.9221,-168.4554C583.7526,-157.9689 632.2823,-144.1515 666.817,-134.3187"/>
<polygon fill="#191970" stroke="#191970" points="667.9509,-137.635 676.6102,-131.5303 666.034,-130.9026 667.9509,-137.635"/>
</g>
<!-- Node11 -->
<g id="node11" class="node">
<title>Node11</title>
<g id="a_node11"><a xlink:title=" ">
<polygon fill="#ffffff" stroke="#bfbfbf" points="384.0825,-112.5 384.0825,-131.5 512.0825,-131.5 512.0825,-112.5 384.0825,-112.5"/>
<text text-anchor="middle" x="448.0825" y="-119.5" font-family="Helvetica,sans-Serif" font-size="10.00" fill="#000000">archlib/EffectorRegister.h</text>
</a>
</g>
</g>
<!-- Node5&#45;&gt;Node11 -->
<g id="edge11" class="edge">
<title>Node5&#45;&gt;Node11</title>
<path fill="none" stroke="#191970" d="M482.7117,-168.2977C476.3265,-159.7609 468.3184,-149.0545 461.612,-140.0883"/>
<polygon fill="#191970" stroke="#191970" points="464.2401,-137.7584 455.4477,-131.8469 458.6346,-141.9511 464.2401,-137.7584"/>
</g>
<!-- Node12 -->
<g id="node12" class="node">
<title>Node12</title>
<g id="a_node12"><a xlink:href="ROSComponent_8hpp.html" target="_top" xlink:title=" ">
<polygon fill="#ffffff" stroke="#000000" points="22.5825,-112.5 22.5825,-131.5 161.5825,-131.5 161.5825,-112.5 22.5825,-112.5"/>
<text text-anchor="middle" x="92.0825" y="-119.5" font-family="Helvetica,sans-Serif" font-size="10.00" fill="#000000">archlib/ROSComponent.hpp</text>
</a>
</g>
</g>
<!-- Node5&#45;&gt;Node12 -->
<g id="edge12" class="edge">
<title>Node5&#45;&gt;Node12</title>
<path fill="none" stroke="#191970" d="M439.0021,-169.7814C435.9912,-169.1499 433.0034,-168.551 430.0825,-168 405.2967,-163.3247 263.8109,-144.5002 171.9255,-132.4291"/>
<polygon fill="#191970" stroke="#191970" points="172.1803,-128.9326 161.8098,-131.1011 171.2691,-135.873 172.1803,-128.9326"/>
</g>
<!-- Node12&#45;&gt;Node3 -->
<g id="edge13" class="edge">
<title>Node12&#45;&gt;Node3</title>
<path fill="none" stroke="#191970" d="M161.6601,-112.9769C210.3545,-105.6353 276.5463,-93.5851 333.0825,-76 377.5052,-62.1828 426.3764,-39.0899 455.8897,-24.2079"/>
<polygon fill="#191970" stroke="#191970" points="457.8028,-27.1612 465.1221,-19.501 454.6233,-20.9249 457.8028,-27.1612"/>
</g>
<!-- Node12&#45;&gt;Node7 -->
<g id="edge15" class="edge">
<title>Node12&#45;&gt;Node7</title>
<path fill="none" stroke="#191970" d="M81.7232,-112.3388C72.9371,-103.6151 60.5971,-90.0286 53.0825,-76 45.3411,-61.5477 40.4344,-43.5803 37.5506,-30.043"/>
<polygon fill="#191970" stroke="#191970" points="40.9218,-29.0413 35.5862,-19.888 34.0492,-30.3708 40.9218,-29.0413"/>
</g>
<!-- Node13 -->
<g id="node13" class="node">
<title>Node13</title>
<g id="a_node13"><a xlink:title=" ">
<polygon fill="#ffffff" stroke="#bfbfbf" points="62.5825,-56.5 62.5825,-75.5 121.5825,-75.5 121.5825,-56.5 62.5825,-56.5"/>
<text text-anchor="middle" x="92.0825" y="-63.5" font-family="Helvetica,sans-Serif" font-size="10.00" fill="#000000">stdexcept</text>
</a>
</g>
</g>
<!-- Node12&#45;&gt;Node13 -->
<g id="edge14" class="edge">
<title>Node12&#45;&gt;Node13</title>
<path fill="none" stroke="#191970" d="M92.0825,-112.2455C92.0825,-104.9382 92.0825,-94.6944 92.0825,-85.7046"/>
<polygon fill="#191970" stroke="#191970" points="95.5826,-85.6426 92.0825,-75.6427 88.5826,-85.6427 95.5826,-85.6426"/>
</g>
<!-- Node14 -->
<g id="node14" class="node">
<title>Node14</title>
<g id="a_node14"><a xlink:href="ROSComponentDescriptor_8hpp.html" target="_top" xlink:title=" ">
<polygon fill="#ffffff" stroke="#000000" points="140.0825,-56.5 140.0825,-75.5 324.0825,-75.5 324.0825,-56.5 140.0825,-56.5"/>
<text text-anchor="middle" x="232.0825" y="-63.5" font-family="Helvetica,sans-Serif" font-size="10.00" fill="#000000">archlib/ROSComponentDescriptor.hpp</text>
</a>
</g>
</g>
<!-- Node12&#45;&gt;Node14 -->
<g id="edge16" class="edge">
<title>Node12&#45;&gt;Node14</title>
<path fill="none" stroke="#191970" d="M116.1494,-112.3733C138.9254,-103.2629 173.3169,-89.5062 198.7316,-79.3404"/>
<polygon fill="#191970" stroke="#191970" points="200.3448,-82.4648 208.3297,-75.5011 197.7451,-75.9654 200.3448,-82.4648"/>
</g>
<!-- Node14&#45;&gt;Node3 -->
<g id="edge17" class="edge">
<title>Node14&#45;&gt;Node3</title>
<path fill="none" stroke="#191970" d="M274.9458,-56.4369C325.4995,-45.158 408.2572,-26.6941 452.6597,-16.7876"/>
<polygon fill="#191970" stroke="#191970" points="453.5651,-20.1717 462.5629,-14.5781 452.0407,-13.3397 453.5651,-20.1717"/>
</g>
<!-- Node14&#45;&gt;Node7 -->
<g id="edge18" class="edge">
<title>Node14&#45;&gt;Node7</title>
<path fill="none" stroke="#191970" d="M198.0451,-56.3733C162.7729,-46.3973 107.8029,-30.8502 71.3739,-20.5471"/>
<polygon fill="#191970" stroke="#191970" points="72.1976,-17.1428 61.6225,-17.7891 70.2925,-23.8786 72.1976,-17.1428"/>
</g>
</g>
</svg>
