<?xml version="1.0" encoding="UTF-8" standalone="no"?>
<!DOCTYPE svg PUBLIC "-//W3C//DTD SVG 1.1//EN"
 "http://www.w3.org/Graphics/SVG/1.1/DTD/svg11.dtd">
<!-- Generated by graphviz version 2.40.1 (20161225.0304)
 -->
<!-- Title: libbsn/src/configuration/SensorConfiguration.cpp Pages: 1 -->
<svg width="373pt" height="207pt"
 viewBox="0.00 0.00 372.50 207.00" xmlns="http://www.w3.org/2000/svg" xmlns:xlink="http://www.w3.org/1999/xlink">
<g id="graph0" class="graph" transform="scale(1 1) rotate(0) translate(4 203)">
<title>libbsn/src/configuration/SensorConfiguration.cpp</title>
<polygon fill="#ffffff" stroke="transparent" points="-4,4 -4,-203 368.5,-203 368.5,4 -4,4"/>
<!-- Node1 -->
<g id="node1" class="node">
<title>Node1</title>
<g id="a_node1"><a xlink:title=" ">
<polygon fill="#bfbfbf" stroke="#000000" points="132,-168.5 132,-198.5 259,-198.5 259,-168.5 132,-168.5"/>
<text text-anchor="start" x="140" y="-186.5" font-family="Helvetica,sans-Serif" font-size="10.00" fill="#000000">libbsn/src/configuration</text>
<text text-anchor="middle" x="195.5" y="-175.5" font-family="Helvetica,sans-Serif" font-size="10.00" fill="#000000">/SensorConfiguration.cpp</text>
</a>
</g>
</g>
<!-- Node2 -->
<g id="node2" class="node">
<title>Node2</title>
<g id="a_node2"><a xlink:href="SensorConfiguration_8hpp.html" target="_top" xlink:title=" ">
<polygon fill="#ffffff" stroke="#000000" points="104.5,-112.5 104.5,-131.5 286.5,-131.5 286.5,-112.5 104.5,-112.5"/>
<text text-anchor="middle" x="195.5" y="-119.5" font-family="Helvetica,sans-Serif" font-size="10.00" fill="#000000">configuration/SensorConfiguration.hpp</text>
</a>
</g>
</g>
<!-- Node1&#45;&gt;Node2 -->
<g id="edge1" class="edge">
<title>Node1&#45;&gt;Node2</title>
<path fill="none" stroke="#191970" d="M195.5,-168.2977C195.5,-160.3834 195.5,-150.6043 195.5,-142.0759"/>
<polygon fill="#191970" stroke="#191970" points="199.0001,-141.8469 195.5,-131.8469 192.0001,-141.847 199.0001,-141.8469"/>
</g>
<!-- Node3 -->
<g id="node3" class="node">
<title>Node3</title>
<g id="a_node3"><a xlink:title=" ">
<polygon fill="#ffffff" stroke="#bfbfbf" points="0,-.5 0,-19.5 41,-19.5 41,-.5 0,-.5"/>
<text text-anchor="middle" x="20.5" y="-7.5" font-family="Helvetica,sans-Serif" font-size="10.00" fill="#000000">string</text>
</a>
</g>
</g>
<!-- Node2&#45;&gt;Node3 -->
<g id="edge2" class="edge">
<title>Node2&#45;&gt;Node3</title>
<path fill="none" stroke="#191970" d="M166.2033,-112.4679C144.0943,-104.5401 113.5631,-91.9833 89.5,-76 68.7227,-62.1993 48.5323,-41.8207 35.4169,-27.3645"/>
<polygon fill="#191970" stroke="#191970" points="37.8143,-24.7926 28.5613,-19.6318 32.5763,-29.4364 37.8143,-24.7926"/>
</g>
<!-- Node4 -->
<g id="node4" class="node">
<title>Node4</title>
<g id="a_node4"><a xlink:title=" ">
<polygon fill="#ffffff" stroke="#bfbfbf" points="261,-56.5 261,-75.5 308,-75.5 308,-56.5 261,-56.5"/>
<text text-anchor="middle" x="284.5" y="-63.5" font-family="Helvetica,sans-Serif" font-size="10.00" fill="#000000">math.h</text>
</a>
</g>
</g>
<!-- Node2&#45;&gt;Node4 -->
<g id="edge3" class="edge">
<title>Node2&#45;&gt;Node4</title>
<path fill="none" stroke="#191970" d="M211.0026,-112.2455C224.658,-103.6534 244.7657,-91.0014 260.4989,-81.1018"/>
<polygon fill="#191970" stroke="#191970" points="262.5751,-83.9307 269.175,-75.6427 258.8471,-78.006 262.5751,-83.9307"/>
</g>
<!-- Node5 -->
<g id="node5" class="node">
<title>Node5</title>
<g id="a_node5"><a xlink:title=" ">
<polygon fill="#ffffff" stroke="#bfbfbf" points="59.5,-.5 59.5,-19.5 113.5,-19.5 113.5,-.5 59.5,-.5"/>
<text text-anchor="middle" x="86.5" y="-7.5" font-family="Helvetica,sans-Serif" font-size="10.00" fill="#000000">iostream</text>
</a>
</g>
</g>
<!-- Node2&#45;&gt;Node5 -->
<g id="edge4" class="edge">
<title>Node2&#45;&gt;Node5</title>
<path fill="none" stroke="#191970" d="M161.6412,-112.4961C142.2901,-105.4125 119.051,-93.8289 104.5,-76 93.834,-62.9312 89.4625,-44.0481 87.6842,-29.8251"/>
<polygon fill="#191970" stroke="#191970" points="91.1465,-29.2542 86.7433,-19.6177 84.1761,-29.8968 91.1465,-29.2542"/>
</g>
<!-- Node6 -->
<g id="node6" class="node">
<title>Node6</title>
<g id="a_node6"><a xlink:title=" ">
<polygon fill="#ffffff" stroke="#bfbfbf" points="326.5,-56.5 326.5,-75.5 364.5,-75.5 364.5,-56.5 326.5,-56.5"/>
<text text-anchor="middle" x="345.5" y="-63.5" font-family="Helvetica,sans-Serif" font-size="10.00" fill="#000000">array</text>
</a>
</g>
</g>
<!-- Node2&#45;&gt;Node6 -->
<g id="edge5" class="edge">
<title>Node2&#45;&gt;Node6</title>
<path fill="none" stroke="#191970" d="M221.2859,-112.3733C247.8444,-102.4581 289.1439,-87.0396 316.7425,-76.7361"/>
<polygon fill="#191970" stroke="#191970" points="318.0936,-79.9678 326.2378,-73.1912 315.6453,-73.4099 318.0936,-79.9678"/>
</g>
<!-- Node7 -->
<g id="node7" class="node">
<title>Node7</title>
<g id="a_node7"><a xlink:title=" ">
<polygon fill="#ffffff" stroke="#bfbfbf" points="276.5,-.5 276.5,-19.5 328.5,-19.5 328.5,-.5 276.5,-.5"/>
<text text-anchor="middle" x="302.5" y="-7.5" font-family="Helvetica,sans-Serif" font-size="10.00" fill="#000000">sstream</text>
</a>
</g>
</g>
<!-- Node2&#45;&gt;Node7 -->
<g id="edge6" class="edge">
<title>Node2&#45;&gt;Node7</title>
<path fill="none" stroke="#191970" d="M203.2875,-112.2984C213.9687,-99.1549 233.9562,-75.1354 252.5,-56 262.4042,-45.7798 274.0792,-34.9752 283.6558,-26.4073"/>
<polygon fill="#191970" stroke="#191970" points="286.2644,-28.7726 291.4341,-19.5246 281.6257,-23.5302 286.2644,-28.7726"/>
</g>
<!-- Node8 -->
<g id="node8" class="node">
<title>Node8</title>
<g id="a_node8"><a xlink:href="Range_8hpp.html" target="_top" xlink:title=" ">
<polygon fill="#ffffff" stroke="#000000" points="113,-56.5 113,-75.5 204,-75.5 204,-56.5 113,-56.5"/>
<text text-anchor="middle" x="158.5" y="-63.5" font-family="Helvetica,sans-Serif" font-size="10.00" fill="#000000">range/Range.hpp</text>
</a>
</g>
</g>
<!-- Node2&#45;&gt;Node8 -->
<g id="edge7" class="edge">
<title>Node2&#45;&gt;Node8</title>
<path fill="none" stroke="#191970" d="M189.0551,-112.2455C183.9618,-104.5367 176.7092,-93.5598 170.548,-84.2348"/>
<polygon fill="#191970" stroke="#191970" points="173.3038,-82.0566 164.8711,-75.6427 167.4635,-85.9155 173.3038,-82.0566"/>
</g>
<!-- Node8&#45;&gt;Node3 -->
<g id="edge8" class="edge">
<title>Node8&#45;&gt;Node3</title>
<path fill="none" stroke="#191970" d="M134.777,-56.3733C111.51,-46.9316 75.9455,-32.4996 50.6777,-22.246"/>
<polygon fill="#191970" stroke="#191970" points="51.7947,-18.9221 41.2125,-18.4051 49.1625,-25.4084 51.7947,-18.9221"/>
</g>
<!-- Node8&#45;&gt;Node5 -->
<g id="edge10" class="edge">
<title>Node8&#45;&gt;Node5</title>
<path fill="none" stroke="#191970" d="M145.9586,-56.2455C135.2213,-47.8943 119.5527,-35.7076 106.9953,-25.9408"/>
<polygon fill="#191970" stroke="#191970" points="108.9401,-23.0194 98.8977,-19.6427 104.6425,-28.5449 108.9401,-23.0194"/>
</g>
<!-- Node8&#45;&gt;Node7 -->
<g id="edge12" class="edge">
<title>Node8&#45;&gt;Node7</title>
<path fill="none" stroke="#191970" d="M183.2545,-56.3733C206.7849,-47.2226 242.3687,-33.3844 268.5426,-23.2057"/>
<polygon fill="#191970" stroke="#191970" points="270.0171,-26.3877 278.0685,-19.5011 267.4799,-19.8636 270.0171,-26.3877"/>
</g>
<!-- Node9 -->
<g id="node9" class="node">
<title>Node9</title>
<g id="a_node9"><a xlink:title=" ">
<polygon fill="#ffffff" stroke="#bfbfbf" points="199,-.5 199,-19.5 258,-19.5 258,-.5 199,-.5"/>
<text text-anchor="middle" x="228.5" y="-7.5" font-family="Helvetica,sans-Serif" font-size="10.00" fill="#000000">stdexcept</text>
</a>
</g>
</g>
<!-- Node8&#45;&gt;Node9 -->
<g id="edge9" class="edge">
<title>Node8&#45;&gt;Node9</title>
<path fill="none" stroke="#191970" d="M170.6931,-56.2455C181.1321,-47.8943 196.3655,-35.7076 208.574,-25.9408"/>
<polygon fill="#191970" stroke="#191970" points="210.8244,-28.6227 216.4467,-19.6427 206.4515,-23.1566 210.8244,-28.6227"/>
</g>
<!-- Node10 -->
<g id="node10" class="node">
<title>Node10</title>
<g id="a_node10"><a xlink:title=" ">
<polygon fill="#ffffff" stroke="#bfbfbf" points="132,-.5 132,-19.5 181,-19.5 181,-.5 132,-.5"/>
<text text-anchor="middle" x="156.5" y="-7.5" font-family="Helvetica,sans-Serif" font-size="10.00" fill="#000000">stdint.h</text>
</a>
</g>
</g>
<!-- Node8&#45;&gt;Node10 -->
<g id="edge11" class="edge">
<title>Node8&#45;&gt;Node10</title>
<path fill="none" stroke="#191970" d="M158.1516,-56.2455C157.8907,-48.9382 157.5248,-38.6944 157.2037,-29.7046"/>
<polygon fill="#191970" stroke="#191970" points="160.6992,-29.5113 156.8444,-19.6427 153.7036,-29.7613 160.6992,-29.5113"/>
</g>
</g>
</svg>
