<?xml version="1.0" encoding="UTF-8" standalone="no"?>
<!DOCTYPE svg PUBLIC "-//W3C//DTD SVG 1.1//EN"
 "http://www.w3.org/Graphics/SVG/1.1/DTD/svg11.dtd">
<!-- Generated by graphviz version 2.40.1 (20161225.0304)
 -->
<!-- Title: libbsn/include/configuration/SensorConfiguration.hpp Pages: 1 -->
<svg width="292pt" height="106pt"
 viewBox="0.00 0.00 292.00 106.00" xmlns="http://www.w3.org/2000/svg" xmlns:xlink="http://www.w3.org/1999/xlink">
<g id="graph0" class="graph" transform="scale(1 1) rotate(0) translate(4 102)">
<title>libbsn/include/configuration/SensorConfiguration.hpp</title>
<polygon fill="#ffffff" stroke="transparent" points="-4,4 -4,-102 288,-102 288,4 -4,4"/>
<!-- Node1 -->
<g id="node1" class="node">
<title>Node1</title>
<g id="a_node1"><a xlink:title=" ">
<polygon fill="#bfbfbf" stroke="#000000" points="71.5,-67.5 71.5,-97.5 205.5,-97.5 205.5,-67.5 71.5,-67.5"/>
<text text-anchor="start" x="79.5" y="-85.5" font-family="Helvetica,sans-Serif" font-size="10.00" fill="#000000">libbsn/include/configuration</text>
<text text-anchor="middle" x="138.5" y="-74.5" font-family="Helvetica,sans-Serif" font-size="10.00" fill="#000000">/SensorConfiguration.hpp</text>
</a>
</g>
</g>
<!-- Node2 -->
<g id="node2" class="node">
<title>Node2</title>
<g id="a_node2"><a xlink:href="SensorConfiguration_8cpp.html" target="_top" xlink:title=" ">
<polygon fill="#ffffff" stroke="#000000" points="0,-.5 0,-30.5 127,-30.5 127,-.5 0,-.5"/>
<text text-anchor="start" x="8" y="-18.5" font-family="Helvetica,sans-Serif" font-size="10.00" fill="#000000">libbsn/src/configuration</text>
<text text-anchor="middle" x="63.5" y="-7.5" font-family="Helvetica,sans-Serif" font-size="10.00" fill="#000000">/SensorConfiguration.cpp</text>
</a>
</g>
</g>
<!-- Node1&#45;&gt;Node2 -->
<g id="edge1" class="edge">
<title>Node1&#45;&gt;Node2</title>
<path fill="none" stroke="#191970" d="M113.8692,-60.4965C102.9246,-50.7193 90.3157,-39.4554 80.4513,-30.6432"/>
<polygon fill="#191970" stroke="#191970" points="111.6919,-63.2447 121.4813,-67.2967 116.3555,-58.0243 111.6919,-63.2447"/>
</g>
<!-- Node3 -->
<g id="node3" class="node">
<title>Node3</title>
<g id="a_node3"><a xlink:href="ConfigurationTest_8cpp.html" target="_top" xlink:title=" ">
<polygon fill="#ffffff" stroke="#000000" points="145,-.5 145,-30.5 284,-30.5 284,-.5 145,-.5"/>
<text text-anchor="start" x="153" y="-18.5" font-family="Helvetica,sans-Serif" font-size="10.00" fill="#000000">libbsn/test/unit/configuration</text>
<text text-anchor="middle" x="214.5" y="-7.5" font-family="Helvetica,sans-Serif" font-size="10.00" fill="#000000">/ConfigurationTest.cpp</text>
</a>
</g>
</g>
<!-- Node1&#45;&gt;Node3 -->
<g id="edge2" class="edge">
<title>Node1&#45;&gt;Node3</title>
<path fill="none" stroke="#191970" d="M163.4592,-60.4965C174.5497,-50.7193 187.3267,-39.4554 197.3227,-30.6432"/>
<polygon fill="#191970" stroke="#191970" points="160.9323,-58.0582 155.7456,-67.2967 165.5614,-63.3091 160.9323,-58.0582"/>
</g>
</g>
</svg>
