<?xml version="1.0" encoding="UTF-8" standalone="no"?>
<!DOCTYPE svg PUBLIC "-//W3C//DTD SVG 1.1//EN"
 "http://www.w3.org/Graphics/SVG/1.1/DTD/svg11.dtd">
<!-- Generated by graphviz version 2.40.1 (20161225.0304)
 -->
<!-- Title: libbsn/include/goalmodel/Task.hpp Pages: 1 -->
<svg width="319pt" height="207pt"
 viewBox="0.00 0.00 318.50 207.00" xmlns="http://www.w3.org/2000/svg" xmlns:xlink="http://www.w3.org/1999/xlink">
<g id="graph0" class="graph" transform="scale(1 1) rotate(0) translate(4 203)">
<title>libbsn/include/goalmodel/Task.hpp</title>
<polygon fill="#ffffff" stroke="transparent" points="-4,4 -4,-203 314.5,-203 314.5,4 -4,4"/>
<!-- Node1 -->
<g id="node1" class="node">
<title>Node1</title>
<g id="a_node1"><a xlink:title=" ">
<polygon fill="#bfbfbf" stroke="#000000" points="90,-168.5 90,-198.5 213,-198.5 213,-168.5 90,-168.5"/>
<text text-anchor="start" x="98" y="-186.5" font-family="Helvetica,sans-Serif" font-size="10.00" fill="#000000">libbsn/include/goalmodel</text>
<text text-anchor="middle" x="151.5" y="-175.5" font-family="Helvetica,sans-Serif" font-size="10.00" fill="#000000">/Task.hpp</text>
</a>
</g>
</g>
<!-- Node2 -->
<g id="node2" class="node">
<title>Node2</title>
<g id="a_node2"><a xlink:title=" ">
<polygon fill="#ffffff" stroke="#bfbfbf" points="0,-.5 0,-19.5 41,-19.5 41,-.5 0,-.5"/>
<text text-anchor="middle" x="20.5" y="-7.5" font-family="Helvetica,sans-Serif" font-size="10.00" fill="#000000">string</text>
</a>
</g>
</g>
<!-- Node1&#45;&gt;Node2 -->
<g id="edge1" class="edge">
<title>Node1&#45;&gt;Node2</title>
<path fill="none" stroke="#191970" d="M92.6808,-168.4005C73.2923,-160.594 53.4113,-149.0038 40.5,-132 17.7738,-102.0704 16.7789,-56.012 18.4202,-29.8877"/>
<polygon fill="#191970" stroke="#191970" points="21.9252,-29.9705 19.2601,-19.7163 14.9489,-29.3943 21.9252,-29.9705"/>
</g>
<!-- Node3 -->
<g id="node3" class="node">
<title>Node3</title>
<g id="a_node3"><a xlink:title=" ">
<polygon fill="#ffffff" stroke="#bfbfbf" points="170.5,-.5 170.5,-19.5 214.5,-19.5 214.5,-.5 170.5,-.5"/>
<text text-anchor="middle" x="192.5" y="-7.5" font-family="Helvetica,sans-Serif" font-size="10.00" fill="#000000">vector</text>
</a>
</g>
</g>
<!-- Node1&#45;&gt;Node3 -->
<g id="edge2" class="edge">
<title>Node1&#45;&gt;Node3</title>
<path fill="none" stroke="#191970" d="M173.9068,-168.4088C199.0126,-149.998 238.3123,-116.2932 254.5,-76 257.8137,-67.7519 258.4958,-63.9401 254.5,-56 247.8263,-42.7387 235.3207,-32.3415 223.2793,-24.8125"/>
<polygon fill="#191970" stroke="#191970" points="224.677,-21.5783 214.2658,-19.6143 221.1799,-27.6422 224.677,-21.5783"/>
</g>
<!-- Node4 -->
<g id="node4" class="node">
<title>Node4</title>
<g id="a_node4"><a xlink:title=" ">
<polygon fill="#ffffff" stroke="#bfbfbf" points="59,-.5 59,-19.5 118,-19.5 118,-.5 59,-.5"/>
<text text-anchor="middle" x="88.5" y="-7.5" font-family="Helvetica,sans-Serif" font-size="10.00" fill="#000000">stdexcept</text>
</a>
</g>
</g>
<!-- Node1&#45;&gt;Node4 -->
<g id="edge3" class="edge">
<title>Node1&#45;&gt;Node4</title>
<path fill="none" stroke="#191970" d="M96.9447,-168.4823C78.9736,-160.6582 60.9359,-149.0355 50.5,-132 29.8582,-98.3043 56.3388,-52.4347 74.3597,-27.6458"/>
<polygon fill="#191970" stroke="#191970" points="77.2613,-29.6118 80.5133,-19.5284 71.683,-25.383 77.2613,-29.6118"/>
</g>
<!-- Node5 -->
<g id="node5" class="node">
<title>Node5</title>
<g id="a_node5"><a xlink:href="Node_8hpp.html" target="_top" xlink:title=" ">
<polygon fill="#ffffff" stroke="#000000" points="139.5,-56.5 139.5,-75.5 245.5,-75.5 245.5,-56.5 139.5,-56.5"/>
<text text-anchor="middle" x="192.5" y="-63.5" font-family="Helvetica,sans-Serif" font-size="10.00" fill="#000000">goalmodel/Node.hpp</text>
</a>
</g>
</g>
<!-- Node1&#45;&gt;Node5 -->
<g id="edge4" class="edge">
<title>Node1&#45;&gt;Node5</title>
<path fill="none" stroke="#191970" d="M157.7024,-168.2695C161.786,-158.0669 167.1592,-144.301 171.5,-132 176.9393,-116.5859 182.5233,-98.9319 186.5647,-85.7631"/>
<polygon fill="#191970" stroke="#191970" points="190.0019,-86.4895 189.5595,-75.9039 183.3041,-84.4549 190.0019,-86.4895"/>
</g>
<!-- Node6 -->
<g id="node6" class="node">
<title>Node6</title>
<g id="a_node6"><a xlink:title=" ">
<polygon fill="#ffffff" stroke="#bfbfbf" points="258.5,-.5 258.5,-19.5 310.5,-19.5 310.5,-.5 258.5,-.5"/>
<text text-anchor="middle" x="284.5" y="-7.5" font-family="Helvetica,sans-Serif" font-size="10.00" fill="#000000">memory</text>
</a>
</g>
</g>
<!-- Node1&#45;&gt;Node6 -->
<g id="edge9" class="edge">
<title>Node1&#45;&gt;Node6</title>
<path fill="none" stroke="#191970" d="M186.6221,-168.4255C204.0587,-159.669 224.5365,-147.3255 239.5,-132 267.3758,-103.4497 278.2102,-56.1668 282.2468,-29.6281"/>
<polygon fill="#191970" stroke="#191970" points="285.726,-30.0169 283.5905,-19.6395 278.7885,-29.0836 285.726,-30.0169"/>
</g>
<!-- Node7 -->
<g id="node7" class="node">
<title>Node7</title>
<g id="a_node7"><a xlink:href="Goal_8hpp.html" target="_top" xlink:title=" ">
<polygon fill="#ffffff" stroke="#000000" points="60,-112.5 60,-131.5 163,-131.5 163,-112.5 60,-112.5"/>
<text text-anchor="middle" x="111.5" y="-119.5" font-family="Helvetica,sans-Serif" font-size="10.00" fill="#000000">goalmodel/Goal.hpp</text>
</a>
</g>
</g>
<!-- Node1&#45;&gt;Node7 -->
<g id="edge10" class="edge">
<title>Node1&#45;&gt;Node7</title>
<path fill="none" stroke="#191970" d="M141.6124,-168.2977C136.1178,-159.8498 129.2414,-149.2773 123.4473,-140.369"/>
<polygon fill="#191970" stroke="#191970" points="126.2908,-138.3215 117.9045,-131.8469 120.4228,-142.1381 126.2908,-138.3215"/>
</g>
<!-- Node5&#45;&gt;Node2 -->
<g id="edge5" class="edge">
<title>Node5&#45;&gt;Node2</title>
<path fill="none" stroke="#191970" d="M162.3109,-56.4898C135.3095,-47.9396 94.42,-34.8838 50.7343,-20.3716"/>
<polygon fill="#191970" stroke="#191970" points="51.6707,-16.9945 41.0771,-17.1548 49.4585,-23.6358 51.6707,-16.9945"/>
</g>
<!-- Node5&#45;&gt;Node3 -->
<g id="edge6" class="edge">
<title>Node5&#45;&gt;Node3</title>
<path fill="none" stroke="#191970" d="M192.5,-56.2455C192.5,-48.9382 192.5,-38.6944 192.5,-29.7046"/>
<polygon fill="#191970" stroke="#191970" points="196.0001,-29.6426 192.5,-19.6427 189.0001,-29.6427 196.0001,-29.6426"/>
</g>
<!-- Node5&#45;&gt;Node4 -->
<g id="edge7" class="edge">
<title>Node5&#45;&gt;Node4</title>
<path fill="none" stroke="#191970" d="M174.3846,-56.2455C158.055,-47.4527 133.829,-34.4079 115.2661,-24.4125"/>
<polygon fill="#191970" stroke="#191970" points="116.8719,-21.3021 106.4078,-19.6427 113.5532,-27.4654 116.8719,-21.3021"/>
</g>
<!-- Node5&#45;&gt;Node6 -->
<g id="edge8" class="edge">
<title>Node5&#45;&gt;Node6</title>
<path fill="none" stroke="#191970" d="M208.5252,-56.2455C222.6408,-47.6534 243.4263,-35.0014 259.6899,-25.1018"/>
<polygon fill="#191970" stroke="#191970" points="261.9363,-27.8319 268.6585,-19.6427 258.2966,-21.8525 261.9363,-27.8319"/>
</g>
<!-- Node7&#45;&gt;Node2 -->
<g id="edge11" class="edge">
<title>Node7&#45;&gt;Node2</title>
<path fill="none" stroke="#191970" d="M103.7414,-112.4509C88.4294,-93.6054 54.1252,-51.3849 34.6715,-27.4419"/>
<polygon fill="#191970" stroke="#191970" points="37.2613,-25.079 28.239,-19.5249 31.8285,-29.4931 37.2613,-25.079"/>
</g>
<!-- Node7&#45;&gt;Node3 -->
<g id="edge12" class="edge">
<title>Node7&#45;&gt;Node3</title>
<path fill="none" stroke="#191970" d="M112.348,-112.2096C113.9434,-98.5359 118.4043,-73.4401 130.5,-56 139.2651,-43.3622 152.6295,-32.8116 164.7089,-25.0163"/>
<polygon fill="#191970" stroke="#191970" points="166.8775,-27.7937 173.5982,-19.6033 163.2368,-21.8149 166.8775,-27.7937"/>
</g>
<!-- Node7&#45;&gt;Node4 -->
<g id="edge13" class="edge">
<title>Node7&#45;&gt;Node4</title>
<path fill="none" stroke="#191970" d="M108.0349,-112.2499C104.8741,-103.0201 100.2845,-88.7214 97.5,-76 94.1723,-60.7968 91.8561,-43.3386 90.4076,-30.1978"/>
<polygon fill="#191970" stroke="#191970" points="93.8562,-29.5172 89.3543,-19.9264 86.8927,-30.2313 93.8562,-29.5172"/>
</g>
<!-- Node7&#45;&gt;Node5 -->
<g id="edge14" class="edge">
<title>Node7&#45;&gt;Node5</title>
<path fill="none" stroke="#191970" d="M125.6091,-112.2455C137.9209,-103.7337 155.9958,-91.2375 170.2538,-81.3801"/>
<polygon fill="#191970" stroke="#191970" points="172.3174,-84.2085 178.5526,-75.6427 168.3366,-78.4506 172.3174,-84.2085"/>
</g>
</g>
</svg>
