<?xml version="1.0" encoding="UTF-8" standalone="no"?>
<!DOCTYPE svg PUBLIC "-//W3C//DTD SVG 1.1//EN"
 "http://www.w3.org/Graphics/SVG/1.1/DTD/svg11.dtd">
<!-- Generated by graphviz version 2.40.1 (20161225.0304)
 -->
<!-- Title: libbsn/src/goalmodel/Task.cpp Pages: 1 -->
<svg width="348pt" height="263pt"
 viewBox="0.00 0.00 348.00 263.00" xmlns="http://www.w3.org/2000/svg" xmlns:xlink="http://www.w3.org/1999/xlink">
<g id="graph0" class="graph" transform="scale(1 1) rotate(0) translate(4 259)">
<title>libbsn/src/goalmodel/Task.cpp</title>
<polygon fill="#ffffff" stroke="transparent" points="-4,4 -4,-259 344,-259 344,4 -4,4"/>
<!-- Node1 -->
<g id="node1" class="node">
<title>Node1</title>
<g id="a_node1"><a xlink:title=" ">
<polygon fill="#bfbfbf" stroke="#000000" points="13,-224.5 13,-254.5 119,-254.5 119,-224.5 13,-224.5"/>
<text text-anchor="start" x="21" y="-242.5" font-family="Helvetica,sans-Serif" font-size="10.00" fill="#000000">libbsn/src/goalmodel</text>
<text text-anchor="middle" x="66" y="-231.5" font-family="Helvetica,sans-Serif" font-size="10.00" fill="#000000">/Task.cpp</text>
</a>
</g>
</g>
<!-- Node2 -->
<g id="node2" class="node">
<title>Node2</title>
<g id="a_node2"><a xlink:title=" ">
<polygon fill="#ffffff" stroke="#bfbfbf" points="0,-.5 0,-19.5 52,-19.5 52,-.5 0,-.5"/>
<text text-anchor="middle" x="26" y="-7.5" font-family="Helvetica,sans-Serif" font-size="10.00" fill="#000000">memory</text>
</a>
</g>
</g>
<!-- Node1&#45;&gt;Node2 -->
<g id="edge1" class="edge">
<title>Node1&#45;&gt;Node2</title>
<path fill="none" stroke="#191970" d="M63.3755,-224.4419C56.3895,-184.3599 37.3383,-75.0534 29.4704,-29.9113"/>
<polygon fill="#191970" stroke="#191970" points="32.8903,-29.1486 27.7252,-19.8981 25.9943,-30.3506 32.8903,-29.1486"/>
</g>
<!-- Node3 -->
<g id="node3" class="node">
<title>Node3</title>
<g id="a_node3"><a xlink:href="Task_8hpp.html" target="_top" xlink:title=" ">
<polygon fill="#ffffff" stroke="#000000" points="93,-168.5 93,-187.5 197,-187.5 197,-168.5 93,-168.5"/>
<text text-anchor="middle" x="145" y="-175.5" font-family="Helvetica,sans-Serif" font-size="10.00" fill="#000000">goalmodel/Task.hpp</text>
</a>
</g>
</g>
<!-- Node1&#45;&gt;Node3 -->
<g id="edge2" class="edge">
<title>Node1&#45;&gt;Node3</title>
<path fill="none" stroke="#191970" d="M85.5281,-224.2977C97.2937,-215.1384 112.2675,-203.4816 124.2465,-194.1562"/>
<polygon fill="#191970" stroke="#191970" points="126.6103,-196.7516 132.3511,-187.8469 122.3102,-191.228 126.6103,-196.7516"/>
</g>
<!-- Node3&#45;&gt;Node2 -->
<g id="edge11" class="edge">
<title>Node3&#45;&gt;Node2</title>
<path fill="none" stroke="#191970" d="M132.4674,-168.346C121.6831,-159.6269 106.146,-146.0433 95,-132 68.5416,-98.664 46.0289,-53.9321 34.4206,-28.9365"/>
<polygon fill="#191970" stroke="#191970" points="37.5934,-27.4586 30.2616,-19.8103 31.2236,-30.3614 37.5934,-27.4586"/>
</g>
<!-- Node4 -->
<g id="node4" class="node">
<title>Node4</title>
<g id="a_node4"><a xlink:title=" ">
<polygon fill="#ffffff" stroke="#bfbfbf" points="124.5,-.5 124.5,-19.5 165.5,-19.5 165.5,-.5 124.5,-.5"/>
<text text-anchor="middle" x="145" y="-7.5" font-family="Helvetica,sans-Serif" font-size="10.00" fill="#000000">string</text>
</a>
</g>
</g>
<!-- Node3&#45;&gt;Node4 -->
<g id="edge3" class="edge">
<title>Node3&#45;&gt;Node4</title>
<path fill="none" stroke="#191970" d="M136.6532,-168.4472C122.3229,-151.3376 93.5633,-113.7153 83,-76 80.6027,-67.4405 79.0042,-63.9401 83,-56 89.933,-42.2233 103.1601,-31.5377 115.6222,-23.9477"/>
<polygon fill="#191970" stroke="#191970" points="117.466,-26.9262 124.4604,-18.9683 114.0299,-20.8276 117.466,-26.9262"/>
</g>
<!-- Node5 -->
<g id="node5" class="node">
<title>Node5</title>
<g id="a_node5"><a xlink:title=" ">
<polygon fill="#ffffff" stroke="#bfbfbf" points="296,-.5 296,-19.5 340,-19.5 340,-.5 296,-.5"/>
<text text-anchor="middle" x="318" y="-7.5" font-family="Helvetica,sans-Serif" font-size="10.00" fill="#000000">vector</text>
</a>
</g>
</g>
<!-- Node3&#45;&gt;Node5 -->
<g id="edge4" class="edge">
<title>Node3&#45;&gt;Node5</title>
<path fill="none" stroke="#191970" d="M197.4081,-169.4097C238.5243,-161.5402 291.06,-148.6006 305,-132 329.2107,-103.1685 326.1868,-55.9927 321.9944,-29.5472"/>
<polygon fill="#191970" stroke="#191970" points="325.4195,-28.8178 320.2022,-19.5966 318.5303,-30.0587 325.4195,-28.8178"/>
</g>
<!-- Node6 -->
<g id="node6" class="node">
<title>Node6</title>
<g id="a_node6"><a xlink:title=" ">
<polygon fill="#ffffff" stroke="#bfbfbf" points="218.5,-.5 218.5,-19.5 277.5,-19.5 277.5,-.5 218.5,-.5"/>
<text text-anchor="middle" x="248" y="-7.5" font-family="Helvetica,sans-Serif" font-size="10.00" fill="#000000">stdexcept</text>
</a>
</g>
</g>
<!-- Node3&#45;&gt;Node6 -->
<g id="edge5" class="edge">
<title>Node3&#45;&gt;Node6</title>
<path fill="none" stroke="#191970" d="M193.5042,-168.4978C229.7379,-160.2991 274.8472,-147.3698 286,-132 309.3094,-99.877 281.4801,-53.0683 262.6048,-27.7889"/>
<polygon fill="#191970" stroke="#191970" points="265.2999,-25.5531 256.4002,-19.8045 259.7726,-29.8483 265.2999,-25.5531"/>
</g>
<!-- Node7 -->
<g id="node7" class="node">
<title>Node7</title>
<g id="a_node7"><a xlink:href="Node_8hpp.html" target="_top" xlink:title=" ">
<polygon fill="#ffffff" stroke="#000000" points="92,-56.5 92,-75.5 198,-75.5 198,-56.5 92,-56.5"/>
<text text-anchor="middle" x="145" y="-63.5" font-family="Helvetica,sans-Serif" font-size="10.00" fill="#000000">goalmodel/Node.hpp</text>
</a>
</g>
</g>
<!-- Node3&#45;&gt;Node7 -->
<g id="edge6" class="edge">
<title>Node3&#45;&gt;Node7</title>
<path fill="none" stroke="#191970" d="M145,-168.4509C145,-150.184 145,-109.9553 145,-85.6976"/>
<polygon fill="#191970" stroke="#191970" points="148.5001,-85.5249 145,-75.5249 141.5001,-85.5249 148.5001,-85.5249"/>
</g>
<!-- Node8 -->
<g id="node8" class="node">
<title>Node8</title>
<g id="a_node8"><a xlink:href="Goal_8hpp.html" target="_top" xlink:title=" ">
<polygon fill="#ffffff" stroke="#000000" points="174.5,-112.5 174.5,-131.5 277.5,-131.5 277.5,-112.5 174.5,-112.5"/>
<text text-anchor="middle" x="226" y="-119.5" font-family="Helvetica,sans-Serif" font-size="10.00" fill="#000000">goalmodel/Goal.hpp</text>
</a>
</g>
</g>
<!-- Node3&#45;&gt;Node8 -->
<g id="edge12" class="edge">
<title>Node3&#45;&gt;Node8</title>
<path fill="none" stroke="#191970" d="M159.1091,-168.2455C171.4209,-159.7337 189.4958,-147.2375 203.7538,-137.3801"/>
<polygon fill="#191970" stroke="#191970" points="205.8174,-140.2085 212.0526,-131.6427 201.8366,-134.4506 205.8174,-140.2085"/>
</g>
<!-- Node7&#45;&gt;Node2 -->
<g id="edge10" class="edge">
<title>Node7&#45;&gt;Node2</title>
<path fill="none" stroke="#191970" d="M124.5432,-56.3733C105.5262,-47.4241 76.9825,-33.9917 55.5024,-23.8835"/>
<polygon fill="#191970" stroke="#191970" points="56.7284,-20.5923 46.1899,-19.5011 53.7478,-26.926 56.7284,-20.5923"/>
</g>
<!-- Node7&#45;&gt;Node4 -->
<g id="edge7" class="edge">
<title>Node7&#45;&gt;Node4</title>
<path fill="none" stroke="#191970" d="M145,-56.2455C145,-48.9382 145,-38.6944 145,-29.7046"/>
<polygon fill="#191970" stroke="#191970" points="148.5001,-29.6426 145,-19.6427 141.5001,-29.6427 148.5001,-29.6426"/>
</g>
<!-- Node7&#45;&gt;Node5 -->
<g id="edge8" class="edge">
<title>Node7&#45;&gt;Node5</title>
<path fill="none" stroke="#191970" d="M174.7398,-56.3733C205.7735,-46.3276 254.2591,-30.6329 286.0812,-20.3321"/>
<polygon fill="#191970" stroke="#191970" points="287.3482,-23.6008 295.7843,-17.1912 285.1924,-16.941 287.3482,-23.6008"/>
</g>
<!-- Node7&#45;&gt;Node6 -->
<g id="edge9" class="edge">
<title>Node7&#45;&gt;Node6</title>
<path fill="none" stroke="#191970" d="M162.9412,-56.2455C179.04,-47.4928 202.8879,-34.527 221.2391,-24.5496"/>
<polygon fill="#191970" stroke="#191970" points="223.1507,-27.4942 230.2644,-19.6427 219.8071,-21.3444 223.1507,-27.4942"/>
</g>
<!-- Node8&#45;&gt;Node4 -->
<g id="edge13" class="edge">
<title>Node8&#45;&gt;Node4</title>
<path fill="none" stroke="#191970" d="M225.152,-112.2096C223.5566,-98.5359 219.0957,-73.4401 207,-56 198.2349,-43.3622 184.8705,-32.8116 172.7911,-25.0163"/>
<polygon fill="#191970" stroke="#191970" points="174.2632,-21.8149 163.9018,-19.6033 170.6225,-27.7937 174.2632,-21.8149"/>
</g>
<!-- Node8&#45;&gt;Node5 -->
<g id="edge14" class="edge">
<title>Node8&#45;&gt;Node5</title>
<path fill="none" stroke="#191970" d="M233.8439,-112.4509C249.3242,-93.6054 284.0053,-51.3849 303.6727,-27.4419"/>
<polygon fill="#191970" stroke="#191970" points="306.5331,-29.4738 310.176,-19.5249 301.124,-25.0306 306.5331,-29.4738"/>
</g>
<!-- Node8&#45;&gt;Node6 -->
<g id="edge15" class="edge">
<title>Node8&#45;&gt;Node6</title>
<path fill="none" stroke="#191970" d="M229.5086,-112.2592C232.7,-103.0361 237.3104,-88.7418 240,-76 243.2082,-60.8016 245.2541,-43.3432 246.4732,-30.2011"/>
<polygon fill="#191970" stroke="#191970" points="249.9868,-30.1873 247.3402,-19.9284 243.0116,-29.5986 249.9868,-30.1873"/>
</g>
<!-- Node8&#45;&gt;Node7 -->
<g id="edge16" class="edge">
<title>Node8&#45;&gt;Node7</title>
<path fill="none" stroke="#191970" d="M211.8909,-112.2455C199.5791,-103.7337 181.5042,-91.2375 167.2462,-81.3801"/>
<polygon fill="#191970" stroke="#191970" points="169.1634,-78.4506 158.9474,-75.6427 165.1826,-84.2085 169.1634,-78.4506"/>
</g>
</g>
</svg>
