<?xml version="1.0" encoding="UTF-8" standalone="no"?>
<!DOCTYPE svg PUBLIC "-//W3C//DTD SVG 1.1//EN"
 "http://www.w3.org/Graphics/SVG/1.1/DTD/svg11.dtd">
<!-- Generated by graphviz version 2.40.1 (20161225.0304)
 -->
<!-- Title: libbsn/test/unit/goalmodel/TaskTest.cpp Pages: 1 -->
<svg width="806pt" height="319pt"
 viewBox="0.00 0.00 806.00 319.00" xmlns="http://www.w3.org/2000/svg" xmlns:xlink="http://www.w3.org/1999/xlink">
<g id="graph0" class="graph" transform="scale(1 1) rotate(0) translate(4 315)">
<title>libbsn/test/unit/goalmodel/TaskTest.cpp</title>
<polygon fill="#ffffff" stroke="transparent" points="-4,4 -4,-315 802,-315 802,4 -4,4"/>
<!-- Node1 -->
<g id="node1" class="node">
<title>Node1</title>
<g id="a_node1"><a xlink:title=" ">
<polygon fill="#bfbfbf" stroke="#000000" points="314.5,-280.5 314.5,-310.5 442.5,-310.5 442.5,-280.5 314.5,-280.5"/>
<text text-anchor="start" x="322.5" y="-298.5" font-family="Helvetica,sans-Serif" font-size="10.00" fill="#000000">libbsn/test/unit/goalmodel</text>
<text text-anchor="middle" x="378.5" y="-287.5" font-family="Helvetica,sans-Serif" font-size="10.00" fill="#000000">/TaskTest.cpp</text>
</a>
</g>
</g>
<!-- Node2 -->
<g id="node2" class="node">
<title>Node2</title>
<g id="a_node2"><a xlink:title=" ">
<polygon fill="#ffffff" stroke="#bfbfbf" points="0,-224.5 0,-243.5 71,-243.5 71,-224.5 0,-224.5"/>
<text text-anchor="middle" x="35.5" y="-231.5" font-family="Helvetica,sans-Serif" font-size="10.00" fill="#000000">gtest/gtest.h</text>
</a>
</g>
</g>
<!-- Node1&#45;&gt;Node2 -->
<g id="edge1" class="edge">
<title>Node1&#45;&gt;Node2</title>
<path fill="none" stroke="#191970" d="M314.4058,-284.6785C254.9934,-274.542 164.1779,-258.7802 85.5,-244 84.059,-243.7293 82.5952,-243.4518 81.1175,-243.1694"/>
<polygon fill="#191970" stroke="#191970" points="81.7431,-239.7256 71.2596,-241.2575 80.4103,-246.5976 81.7431,-239.7256"/>
</g>
<!-- Node3 -->
<g id="node3" class="node">
<title>Node3</title>
<g id="a_node3"><a xlink:title=" ">
<polygon fill="#ffffff" stroke="#bfbfbf" points="111.5,-.5 111.5,-19.5 163.5,-19.5 163.5,-.5 111.5,-.5"/>
<text text-anchor="middle" x="137.5" y="-7.5" font-family="Helvetica,sans-Serif" font-size="10.00" fill="#000000">memory</text>
</a>
</g>
</g>
<!-- Node1&#45;&gt;Node3 -->
<g id="edge2" class="edge">
<title>Node1&#45;&gt;Node3</title>
<path fill="none" stroke="#191970" d="M314.4918,-281.9624C232.1214,-262.6608 99.5,-224.3823 99.5,-178 99.5,-178 99.5,-178 99.5,-122 99.5,-87.6118 115.7634,-50.2832 127.011,-28.5791"/>
<polygon fill="#191970" stroke="#191970" points="130.2317,-29.9804 131.893,-19.5166 124.069,-26.6605 130.2317,-29.9804"/>
</g>
<!-- Node4 -->
<g id="node4" class="node">
<title>Node4</title>
<g id="a_node4"><a xlink:href="Context_8hpp.html" target="_top" xlink:title=" ">
<polygon fill="#ffffff" stroke="#000000" points="681,-168.5 681,-187.5 798,-187.5 798,-168.5 681,-168.5"/>
<text text-anchor="middle" x="739.5" y="-175.5" font-family="Helvetica,sans-Serif" font-size="10.00" fill="#000000">goalmodel/Context.hpp</text>
</a>
</g>
</g>
<!-- Node1&#45;&gt;Node4 -->
<g id="edge3" class="edge">
<title>Node1&#45;&gt;Node4</title>
<path fill="none" stroke="#191970" d="M442.9054,-283.4037C486.0982,-274.4838 543.9323,-260.9689 593.5,-244 636.0601,-229.43 683.1117,-206.93 711.996,-192.3334"/>
<polygon fill="#191970" stroke="#191970" points="713.7445,-195.3706 721.0623,-187.7091 710.5639,-189.1349 713.7445,-195.3706"/>
</g>
<!-- Node6 -->
<g id="node6" class="node">
<title>Node6</title>
<g id="a_node6"><a xlink:href="Property_8hpp.html" target="_top" xlink:title=" ">
<polygon fill="#ffffff" stroke="#000000" points="544,-168.5 544,-187.5 663,-187.5 663,-168.5 544,-168.5"/>
<text text-anchor="middle" x="603.5" y="-175.5" font-family="Helvetica,sans-Serif" font-size="10.00" fill="#000000">goalmodel/Property.hpp</text>
</a>
</g>
</g>
<!-- Node1&#45;&gt;Node6 -->
<g id="edge5" class="edge">
<title>Node1&#45;&gt;Node6</title>
<path fill="none" stroke="#191970" d="M442.8736,-284.4639C491.3735,-275.0569 552.7708,-260.4692 572.5,-244 586.7328,-232.119 594.8266,-212.2314 599.1473,-197.3865"/>
<polygon fill="#191970" stroke="#191970" points="602.5487,-198.2125 601.6604,-187.655 595.7711,-196.4622 602.5487,-198.2125"/>
</g>
<!-- Node7 -->
<g id="node7" class="node">
<title>Node7</title>
<g id="a_node7"><a xlink:href="Task_8hpp.html" target="_top" xlink:title=" ">
<polygon fill="#ffffff" stroke="#000000" points="266.5,-168.5 266.5,-187.5 370.5,-187.5 370.5,-168.5 266.5,-168.5"/>
<text text-anchor="middle" x="318.5" y="-175.5" font-family="Helvetica,sans-Serif" font-size="10.00" fill="#000000">goalmodel/Task.hpp</text>
</a>
</g>
</g>
<!-- Node1&#45;&gt;Node7 -->
<g id="edge7" class="edge">
<title>Node1&#45;&gt;Node7</title>
<path fill="none" stroke="#191970" d="M370.656,-280.1389C359.6986,-258.6806 339.8313,-219.7738 328.0337,-196.6702"/>
<polygon fill="#191970" stroke="#191970" points="331.0464,-194.8738 323.3814,-187.5595 324.8121,-198.0573 331.0464,-194.8738"/>
</g>
<!-- Node10 -->
<g id="node10" class="node">
<title>Node10</title>
<g id="a_node10"><a xlink:href="Node_8hpp.html" target="_top" xlink:title=" ">
<polygon fill="#ffffff" stroke="#000000" points="203.5,-56.5 203.5,-75.5 309.5,-75.5 309.5,-56.5 203.5,-56.5"/>
<text text-anchor="middle" x="256.5" y="-63.5" font-family="Helvetica,sans-Serif" font-size="10.00" fill="#000000">goalmodel/Node.hpp</text>
</a>
</g>
</g>
<!-- Node1&#45;&gt;Node10 -->
<g id="edge28" class="edge">
<title>Node1&#45;&gt;Node10</title>
<path fill="none" stroke="#191970" d="M350.7695,-280.4093C321.3962,-262.6701 276.6723,-230.2153 257.5,-188 242.3852,-154.7189 247.1939,-110.869 251.9334,-85.8226"/>
<polygon fill="#191970" stroke="#191970" points="255.4201,-86.2473 254.0344,-75.7435 248.5673,-84.8188 255.4201,-86.2473"/>
</g>
<!-- Node11 -->
<g id="node11" class="node">
<title>Node11</title>
<g id="a_node11"><a xlink:href="Goal_8hpp.html" target="_top" xlink:title=" ">
<polygon fill="#ffffff" stroke="#000000" points="346,-112.5 346,-131.5 449,-131.5 449,-112.5 346,-112.5"/>
<text text-anchor="middle" x="397.5" y="-119.5" font-family="Helvetica,sans-Serif" font-size="10.00" fill="#000000">goalmodel/Goal.hpp</text>
</a>
</g>
</g>
<!-- Node1&#45;&gt;Node11 -->
<g id="edge29" class="edge">
<title>Node1&#45;&gt;Node11</title>
<path fill="none" stroke="#191970" d="M380.1529,-280.4065C383.5908,-249.0126 391.5102,-176.6961 395.3435,-141.6925"/>
<polygon fill="#191970" stroke="#191970" points="398.8241,-142.0596 396.4336,-131.738 391.8657,-141.2975 398.8241,-142.0596"/>
</g>
<!-- Node12 -->
<g id="node12" class="node">
<title>Node12</title>
<g id="a_node12"><a xlink:href="LeafTask_8hpp.html" target="_top" xlink:title=" ">
<polygon fill="#ffffff" stroke="#000000" points="440,-224.5 440,-243.5 563,-243.5 563,-224.5 440,-224.5"/>
<text text-anchor="middle" x="501.5" y="-231.5" font-family="Helvetica,sans-Serif" font-size="10.00" fill="#000000">goalmodel/LeafTask.hpp</text>
</a>
</g>
</g>
<!-- Node1&#45;&gt;Node12 -->
<g id="edge22" class="edge">
<title>Node1&#45;&gt;Node12</title>
<path fill="none" stroke="#191970" d="M408.5892,-280.4554C428.3019,-270.599 453.9002,-257.7999 473.2347,-248.1327"/>
<polygon fill="#191970" stroke="#191970" points="475.0603,-251.133 482.4394,-243.5303 471.9298,-244.872 475.0603,-251.133"/>
</g>
<!-- Node5 -->
<g id="node5" class="node">
<title>Node5</title>
<g id="a_node5"><a xlink:title=" ">
<polygon fill="#ffffff" stroke="#bfbfbf" points="526,-.5 526,-19.5 567,-19.5 567,-.5 526,-.5"/>
<text text-anchor="middle" x="546.5" y="-7.5" font-family="Helvetica,sans-Serif" font-size="10.00" fill="#000000">string</text>
</a>
</g>
</g>
<!-- Node4&#45;&gt;Node5 -->
<g id="edge4" class="edge">
<title>Node4&#45;&gt;Node5</title>
<path fill="none" stroke="#191970" d="M728.5705,-168.4862C697.0051,-141.0096 605.4185,-61.2866 565.4871,-26.5276"/>
<polygon fill="#191970" stroke="#191970" points="567.6311,-23.7536 557.7904,-19.8279 563.0351,-29.0335 567.6311,-23.7536"/>
</g>
<!-- Node6&#45;&gt;Node5 -->
<g id="edge6" class="edge">
<title>Node6&#45;&gt;Node5</title>
<path fill="none" stroke="#191970" d="M602.9969,-168.4124C601.5971,-147.2772 596.555,-95.4264 579.5,-56 575.1442,-45.9306 568.3128,-35.8966 561.9928,-27.7816"/>
<polygon fill="#191970" stroke="#191970" points="564.5184,-25.3413 555.4771,-19.8182 559.1008,-29.7741 564.5184,-25.3413"/>
</g>
<!-- Node7&#45;&gt;Node3 -->
<g id="edge16" class="edge">
<title>Node7&#45;&gt;Node3</title>
<path fill="none" stroke="#191970" d="M285.8401,-168.3981C264.6529,-160.9748 237.3912,-149.0585 217.5,-132 183.2141,-102.5966 157.8754,-54.958 145.6558,-28.757"/>
<polygon fill="#191970" stroke="#191970" points="148.8017,-27.2192 141.4929,-19.5491 142.4233,-30.103 148.8017,-27.2192"/>
</g>
<!-- Node7&#45;&gt;Node5 -->
<g id="edge8" class="edge">
<title>Node7&#45;&gt;Node5</title>
<path fill="none" stroke="#191970" d="M370.6858,-169.0265C398.7076,-162.2942 432.6911,-150.8843 458.5,-132 496.2511,-104.3776 524.2552,-55.6839 537.6709,-28.9276"/>
<polygon fill="#191970" stroke="#191970" points="540.8658,-30.3608 542.0882,-19.8368 534.5697,-27.3015 540.8658,-30.3608"/>
</g>
<!-- Node8 -->
<g id="node8" class="node">
<title>Node8</title>
<g id="a_node8"><a xlink:title=" ">
<polygon fill="#ffffff" stroke="#bfbfbf" points="353.5,-.5 353.5,-19.5 397.5,-19.5 397.5,-.5 353.5,-.5"/>
<text text-anchor="middle" x="375.5" y="-7.5" font-family="Helvetica,sans-Serif" font-size="10.00" fill="#000000">vector</text>
</a>
</g>
</g>
<!-- Node7&#45;&gt;Node8 -->
<g id="edge9" class="edge">
<title>Node7&#45;&gt;Node8</title>
<path fill="none" stroke="#191970" d="M320.8822,-168.0697C324.0737,-155.0749 330.0832,-131.6442 336.5,-112 346.0748,-82.6883 359.2259,-49.449 367.5439,-29.1049"/>
<polygon fill="#191970" stroke="#191970" points="370.8328,-30.31 371.4086,-19.7308 364.3612,-27.6419 370.8328,-30.31"/>
</g>
<!-- Node9 -->
<g id="node9" class="node">
<title>Node9</title>
<g id="a_node9"><a xlink:title=" ">
<polygon fill="#ffffff" stroke="#bfbfbf" points="227,-.5 227,-19.5 286,-19.5 286,-.5 227,-.5"/>
<text text-anchor="middle" x="256.5" y="-7.5" font-family="Helvetica,sans-Serif" font-size="10.00" fill="#000000">stdexcept</text>
</a>
</g>
</g>
<!-- Node7&#45;&gt;Node9 -->
<g id="edge10" class="edge">
<title>Node7&#45;&gt;Node9</title>
<path fill="none" stroke="#191970" d="M297.8682,-168.3645C268.526,-153.3658 215.927,-121.3703 194.5,-76 184.6751,-55.1964 206.3441,-36.6097 226.7103,-24.5036"/>
<polygon fill="#191970" stroke="#191970" points="228.5307,-27.4959 235.56,-19.5688 225.1215,-21.3822 228.5307,-27.4959"/>
</g>
<!-- Node7&#45;&gt;Node10 -->
<g id="edge11" class="edge">
<title>Node7&#45;&gt;Node10</title>
<path fill="none" stroke="#191970" d="M313.2139,-168.4509C302.9188,-149.8533 280.0223,-108.4919 266.6837,-84.3964"/>
<polygon fill="#191970" stroke="#191970" points="269.678,-82.5787 261.7727,-75.5249 263.5538,-85.969 269.678,-82.5787"/>
</g>
<!-- Node7&#45;&gt;Node11 -->
<g id="edge17" class="edge">
<title>Node7&#45;&gt;Node11</title>
<path fill="none" stroke="#191970" d="M332.2607,-168.2455C344.1552,-159.814 361.565,-147.4729 375.4085,-137.6598"/>
<polygon fill="#191970" stroke="#191970" points="377.7628,-140.2811 383.8969,-131.6427 373.7146,-134.5704 377.7628,-140.2811"/>
</g>
<!-- Node10&#45;&gt;Node3 -->
<g id="edge15" class="edge">
<title>Node10&#45;&gt;Node3</title>
<path fill="none" stroke="#191970" d="M236.0432,-56.3733C217.0262,-47.4241 188.4825,-33.9917 167.0024,-23.8835"/>
<polygon fill="#191970" stroke="#191970" points="168.2284,-20.5923 157.6899,-19.5011 165.2478,-26.926 168.2284,-20.5923"/>
</g>
<!-- Node10&#45;&gt;Node5 -->
<g id="edge12" class="edge">
<title>Node10&#45;&gt;Node5</title>
<path fill="none" stroke="#191970" d="M306.0233,-56.4369C366.2841,-44.8003 466.1499,-25.5159 516.0943,-15.8714"/>
<polygon fill="#191970" stroke="#191970" points="516.807,-19.2986 525.9619,-13.966 515.4797,-12.4255 516.807,-19.2986"/>
</g>
<!-- Node10&#45;&gt;Node8 -->
<g id="edge13" class="edge">
<title>Node10&#45;&gt;Node8</title>
<path fill="none" stroke="#191970" d="M276.9568,-56.3733C295.9738,-47.4241 324.5175,-33.9917 345.9976,-23.8835"/>
<polygon fill="#191970" stroke="#191970" points="347.7522,-26.926 355.3101,-19.5011 344.7716,-20.5923 347.7522,-26.926"/>
</g>
<!-- Node10&#45;&gt;Node9 -->
<g id="edge14" class="edge">
<title>Node10&#45;&gt;Node9</title>
<path fill="none" stroke="#191970" d="M256.5,-56.2455C256.5,-48.9382 256.5,-38.6944 256.5,-29.7046"/>
<polygon fill="#191970" stroke="#191970" points="260.0001,-29.6426 256.5,-19.6427 253.0001,-29.6427 260.0001,-29.6426"/>
</g>
<!-- Node11&#45;&gt;Node5 -->
<g id="edge18" class="edge">
<title>Node11&#45;&gt;Node5</title>
<path fill="none" stroke="#191970" d="M410.2037,-112.4509C435.9348,-93.1094 494.4211,-49.1465 525.7592,-25.5904"/>
<polygon fill="#191970" stroke="#191970" points="527.9379,-28.3313 533.8285,-19.5249 523.7319,-22.7358 527.9379,-28.3313"/>
</g>
<!-- Node11&#45;&gt;Node8 -->
<g id="edge19" class="edge">
<title>Node11&#45;&gt;Node8</title>
<path fill="none" stroke="#191970" d="M396.8402,-112.0716C395.8531,-99.0789 393.6479,-75.6504 389.5,-56 387.6299,-47.1405 384.8311,-37.5304 382.2265,-29.3963"/>
<polygon fill="#191970" stroke="#191970" points="385.4908,-28.1212 379.0086,-19.7408 378.8499,-30.3344 385.4908,-28.1212"/>
</g>
<!-- Node11&#45;&gt;Node9 -->
<g id="edge20" class="edge">
<title>Node11&#45;&gt;Node9</title>
<path fill="none" stroke="#191970" d="M386.4166,-112.3943C371.2837,-99.3593 343.2102,-75.4624 318.5,-56 305.2826,-45.5896 290.1198,-34.3281 278.0976,-25.5534"/>
<polygon fill="#191970" stroke="#191970" points="280.1193,-22.6961 269.9714,-19.6513 276.0056,-28.3598 280.1193,-22.6961"/>
</g>
<!-- Node11&#45;&gt;Node10 -->
<g id="edge21" class="edge">
<title>Node11&#45;&gt;Node10</title>
<path fill="none" stroke="#191970" d="M373.2612,-112.3733C350.2211,-103.2226 315.3786,-89.3844 289.7499,-79.2057"/>
<polygon fill="#191970" stroke="#191970" points="291.0082,-75.9395 280.4225,-75.5011 288.4244,-82.4452 291.0082,-75.9395"/>
</g>
<!-- Node12&#45;&gt;Node4 -->
<g id="edge25" class="edge">
<title>Node12&#45;&gt;Node4</title>
<path fill="none" stroke="#191970" d="M542.1432,-224.4369C582.7895,-214.8731 645.3913,-200.1432 689.1587,-189.845"/>
<polygon fill="#191970" stroke="#191970" points="690.0919,-193.2211 699.0244,-187.5237 688.4886,-186.4072 690.0919,-193.2211"/>
</g>
<!-- Node12&#45;&gt;Node5 -->
<g id="edge23" class="edge">
<title>Node12&#45;&gt;Node5</title>
<path fill="none" stroke="#191970" d="M503.4336,-224.375C510.2563,-190.4133 533.2919,-75.7472 542.5747,-29.5392"/>
<polygon fill="#191970" stroke="#191970" points="546.0354,-30.0826 544.5736,-19.5891 539.1725,-28.7039 546.0354,-30.0826"/>
</g>
<!-- Node12&#45;&gt;Node6 -->
<g id="edge26" class="edge">
<title>Node12&#45;&gt;Node6</title>
<path fill="none" stroke="#191970" d="M519.267,-224.2455C535.2095,-215.4928 558.8259,-202.527 576.9989,-192.5496"/>
<polygon fill="#191970" stroke="#191970" points="578.8552,-195.5233 585.9366,-187.6427 575.4863,-189.3873 578.8552,-195.5233"/>
</g>
<!-- Node12&#45;&gt;Node7 -->
<g id="edge27" class="edge">
<title>Node12&#45;&gt;Node7</title>
<path fill="none" stroke="#191970" d="M470.0412,-224.3733C439.4793,-215.021 392.9174,-200.7725 359.4739,-190.5385"/>
<polygon fill="#191970" stroke="#191970" points="360.1348,-187.0806 349.5483,-187.5011 358.0864,-193.7742 360.1348,-187.0806"/>
</g>
<!-- Node12&#45;&gt;Node8 -->
<g id="edge24" class="edge">
<title>Node12&#45;&gt;Node8</title>
<path fill="none" stroke="#191970" d="M499.3044,-224.3464C494.2154,-203.0796 480.3544,-150.9827 458.5,-112 440.0369,-79.0666 410.7912,-46.1172 392.3988,-26.9159"/>
<polygon fill="#191970" stroke="#191970" points="394.728,-24.2911 385.2438,-19.5686 389.713,-29.1747 394.728,-24.2911"/>
</g>
</g>
</svg>
