<?xml version="1.0" encoding="UTF-8" standalone="no"?>
<!DOCTYPE svg PUBLIC "-//W3C//DTD SVG 1.1//EN"
 "http://www.w3.org/Graphics/SVG/1.1/DTD/svg11.dtd">
<!-- Generated by graphviz version 2.40.1 (20161225.0304)
 -->
<!-- Title: TEST_F Pages: 1 -->
<svg width="209pt" height="137pt"
 viewBox="0.00 0.00 209.00 137.00" xmlns="http://www.w3.org/2000/svg" xmlns:xlink="http://www.w3.org/1999/xlink">
<g id="graph0" class="graph" transform="scale(1 1) rotate(0) translate(4 133)">
<title>TEST_F</title>
<polygon fill="#ffffff" stroke="transparent" points="-4,4 -4,-133 205,-133 205,4 -4,4"/>
<!-- Node1 -->
<g id="node1" class="node">
<title>Node1</title>
<g id="a_node1"><a xlink:title=" ">
<polygon fill="#bfbfbf" stroke="#000000" points="0,-55 0,-74 53,-74 53,-55 0,-55"/>
<text text-anchor="middle" x="26.5" y="-62" font-family="Helvetica,sans-Serif" font-size="10.00" fill="#000000">TEST_F</text>
</a>
</g>
</g>
<!-- Node2 -->
<g id="node2" class="node">
<title>Node2</title>
<g id="a_node2"><a xlink:href="classbsn_1_1goalmodel_1_1Task.html#a8df193e5fcbf36a3b514ca283d763322" target="_top" xlink:title=" ">
<polygon fill="#ffffff" stroke="#000000" points="90,-98.5 90,-128.5 200,-128.5 200,-98.5 90,-98.5"/>
<text text-anchor="start" x="98" y="-116.5" font-family="Helvetica,sans-Serif" font-size="10.00" fill="#000000">bsn::goalmodel::Task</text>
<text text-anchor="middle" x="145" y="-105.5" font-family="Helvetica,sans-Serif" font-size="10.00" fill="#000000">::addChild</text>
</a>
</g>
</g>
<!-- Node1&#45;&gt;Node2 -->
<g id="edge1" class="edge">
<title>Node1&#45;&gt;Node2</title>
<path fill="none" stroke="#191970" d="M49.6293,-74.064C63.5928,-79.8379 81.8845,-87.4016 98.71,-94.359"/>
<polygon fill="#191970" stroke="#191970" points="97.8248,-97.7803 108.4034,-98.3672 100.4997,-91.3115 97.8248,-97.7803"/>
</g>
<!-- Node3 -->
<g id="node3" class="node">
<title>Node3</title>
<g id="a_node3"><a xlink:href="classbsn_1_1goalmodel_1_1Node.html#ac7e1c2bc59a420499d0dac0a1593282e" target="_top" xlink:title=" ">
<polygon fill="#ffffff" stroke="#000000" points="89,-49.5 89,-79.5 201,-79.5 201,-49.5 89,-49.5"/>
<text text-anchor="start" x="97" y="-67.5" font-family="Helvetica,sans-Serif" font-size="10.00" fill="#000000">bsn::goalmodel::Node</text>
<text text-anchor="middle" x="145" y="-56.5" font-family="Helvetica,sans-Serif" font-size="10.00" fill="#000000">::getChildren</text>
</a>
</g>
</g>
<!-- Node1&#45;&gt;Node3 -->
<g id="edge2" class="edge">
<title>Node1&#45;&gt;Node3</title>
<path fill="none" stroke="#191970" d="M53.0937,-64.5C60.828,-64.5 69.642,-64.5 78.6786,-64.5"/>
<polygon fill="#191970" stroke="#191970" points="78.9301,-68.0001 88.9301,-64.5 78.9301,-61.0001 78.9301,-68.0001"/>
</g>
<!-- Node4 -->
<g id="node4" class="node">
<title>Node4</title>
<g id="a_node4"><a xlink:href="classbsn_1_1goalmodel_1_1Node.html#a54918fd1c3cf913da72d0ac6cd7a4efc" target="_top" xlink:title=" ">
<polygon fill="#ffffff" stroke="#000000" points="89,-.5 89,-30.5 201,-30.5 201,-.5 89,-.5"/>
<text text-anchor="start" x="97" y="-18.5" font-family="Helvetica,sans-Serif" font-size="10.00" fill="#000000">bsn::goalmodel::Node</text>
<text text-anchor="middle" x="145" y="-7.5" font-family="Helvetica,sans-Serif" font-size="10.00" fill="#000000">::removeChild</text>
</a>
</g>
</g>
<!-- Node1&#45;&gt;Node4 -->
<g id="edge3" class="edge">
<title>Node1&#45;&gt;Node4</title>
<path fill="none" stroke="#191970" d="M49.6293,-54.936C63.5928,-49.1621 81.8845,-41.5984 98.71,-34.641"/>
<polygon fill="#191970" stroke="#191970" points="100.4997,-37.6885 108.4034,-30.6328 97.8248,-31.2197 100.4997,-37.6885"/>
</g>
</g>
</svg>
