<?xml version="1.0" encoding="UTF-8" standalone="no"?>
<!DOCTYPE svg PUBLIC "-//W3C//DTD SVG 1.1//EN"
 "http://www.w3.org/Graphics/SVG/1.1/DTD/svg11.dtd">
<!-- Generated by graphviz version 2.40.1 (20161225.0304)
 -->
<!-- Title: libbsn/include/goalmodel/Task.hpp Pages: 1 -->
<svg width="641pt" height="240pt"
 viewBox="0.00 0.00 641.00 240.00" xmlns="http://www.w3.org/2000/svg" xmlns:xlink="http://www.w3.org/1999/xlink">
<g id="graph0" class="graph" transform="scale(1 1) rotate(0) translate(4 236)">
<title>libbsn/include/goalmodel/Task.hpp</title>
<polygon fill="#ffffff" stroke="transparent" points="-4,4 -4,-236 637,-236 637,4 -4,4"/>
<!-- Node1 -->
<g id="node1" class="node">
<title>Node1</title>
<g id="a_node1"><a xlink:title=" ">
<polygon fill="#bfbfbf" stroke="#000000" points="211.5,-201.5 211.5,-231.5 334.5,-231.5 334.5,-201.5 211.5,-201.5"/>
<text text-anchor="start" x="219.5" y="-219.5" font-family="Helvetica,sans-Serif" font-size="10.00" fill="#000000">libbsn/include/goalmodel</text>
<text text-anchor="middle" x="273" y="-208.5" font-family="Helvetica,sans-Serif" font-size="10.00" fill="#000000">/Task.hpp</text>
</a>
</g>
</g>
<!-- Node2 -->
<g id="node2" class="node">
<title>Node2</title>
<g id="a_node2"><a xlink:href="GoalTree_8hpp.html" target="_top" xlink:title=" ">
<polygon fill="#ffffff" stroke="#000000" points="17.5,-67.5 17.5,-97.5 140.5,-97.5 140.5,-67.5 17.5,-67.5"/>
<text text-anchor="start" x="25.5" y="-85.5" font-family="Helvetica,sans-Serif" font-size="10.00" fill="#000000">libbsn/include/goalmodel</text>
<text text-anchor="middle" x="79" y="-74.5" font-family="Helvetica,sans-Serif" font-size="10.00" fill="#000000">/GoalTree.hpp</text>
</a>
</g>
</g>
<!-- Node1&#45;&gt;Node2 -->
<g id="edge1" class="edge">
<title>Node1&#45;&gt;Node2</title>
<path fill="none" stroke="#191970" d="M217.1255,-197.6547C196.5878,-189.3376 173.7813,-178.3784 155,-165 128.0357,-145.7925 103.3689,-115.7142 89.839,-97.673"/>
<polygon fill="#191970" stroke="#191970" points="216.1,-201.0121 226.6875,-201.4066 218.6569,-194.4958 216.1,-201.0121"/>
</g>
<!-- Node4 -->
<g id="node4" class="node">
<title>Node4</title>
<g id="a_node4"><a xlink:href="GoalTreeTest_8cpp.html" target="_top" xlink:title=" ">
<polygon fill="#ffffff" stroke="#000000" points="124,-.5 124,-30.5 252,-30.5 252,-.5 124,-.5"/>
<text text-anchor="start" x="132" y="-18.5" font-family="Helvetica,sans-Serif" font-size="10.00" fill="#000000">libbsn/test/unit/goalmodel</text>
<text text-anchor="middle" x="188" y="-7.5" font-family="Helvetica,sans-Serif" font-size="10.00" fill="#000000">/GoalTreeTest.cpp</text>
</a>
</g>
</g>
<!-- Node1&#45;&gt;Node4 -->
<g id="edge11" class="edge">
<title>Node1&#45;&gt;Node4</title>
<path fill="none" stroke="#191970" d="M232.5621,-195.9114C220.7805,-187.8878 209.1633,-177.56 202,-165 177.2037,-121.5226 181.7268,-59.1676 185.5382,-30.7074"/>
<polygon fill="#191970" stroke="#191970" points="230.7921,-198.9335 241.1087,-201.3455 234.548,-193.0264 230.7921,-198.9335"/>
</g>
<!-- Node5 -->
<g id="node5" class="node">
<title>Node5</title>
<g id="a_node5"><a xlink:href="LeafTask_8hpp.html" target="_top" xlink:title=" ">
<polygon fill="#ffffff" stroke="#000000" points="211.5,-134.5 211.5,-164.5 334.5,-164.5 334.5,-134.5 211.5,-134.5"/>
<text text-anchor="start" x="219.5" y="-152.5" font-family="Helvetica,sans-Serif" font-size="10.00" fill="#000000">libbsn/include/goalmodel</text>
<text text-anchor="middle" x="273" y="-141.5" font-family="Helvetica,sans-Serif" font-size="10.00" fill="#000000">/LeafTask.hpp</text>
</a>
</g>
</g>
<!-- Node1&#45;&gt;Node5 -->
<g id="edge4" class="edge">
<title>Node1&#45;&gt;Node5</title>
<path fill="none" stroke="#191970" d="M273,-191.0249C273,-182.128 273,-172.4287 273,-164.6432"/>
<polygon fill="#191970" stroke="#191970" points="269.5001,-191.2966 273,-201.2967 276.5001,-191.2967 269.5001,-191.2966"/>
</g>
<!-- Node8 -->
<g id="node8" class="node">
<title>Node8</title>
<g id="a_node8"><a xlink:href="TaskTest_8cpp.html" target="_top" xlink:title=" ">
<polygon fill="#ffffff" stroke="#000000" points="505,-67.5 505,-97.5 633,-97.5 633,-67.5 505,-67.5"/>
<text text-anchor="start" x="513" y="-85.5" font-family="Helvetica,sans-Serif" font-size="10.00" fill="#000000">libbsn/test/unit/goalmodel</text>
<text text-anchor="middle" x="569" y="-74.5" font-family="Helvetica,sans-Serif" font-size="10.00" fill="#000000">/TaskTest.cpp</text>
</a>
</g>
</g>
<!-- Node1&#45;&gt;Node8 -->
<g id="edge12" class="edge">
<title>Node1&#45;&gt;Node8</title>
<path fill="none" stroke="#191970" d="M302.8122,-195.4473C315.6138,-186.2605 330.6652,-175.2623 344,-165 361.273,-151.707 362.6322,-143.9975 382,-134 403.4695,-122.9176 459.6274,-108.0777 504.8389,-97.175"/>
<polygon fill="#191970" stroke="#191970" points="300.4603,-192.826 294.3577,-201.4867 304.5293,-198.5219 300.4603,-192.826"/>
</g>
<!-- Node9 -->
<g id="node9" class="node">
<title>Node9</title>
<g id="a_node9"><a xlink:href="Task_8cpp.html" target="_top" xlink:title=" ">
<polygon fill="#ffffff" stroke="#000000" points="391,-134.5 391,-164.5 497,-164.5 497,-134.5 391,-134.5"/>
<text text-anchor="start" x="399" y="-152.5" font-family="Helvetica,sans-Serif" font-size="10.00" fill="#000000">libbsn/src/goalmodel</text>
<text text-anchor="middle" x="444" y="-141.5" font-family="Helvetica,sans-Serif" font-size="10.00" fill="#000000">/Task.cpp</text>
</a>
</g>
</g>
<!-- Node1&#45;&gt;Node9 -->
<g id="edge10" class="edge">
<title>Node1&#45;&gt;Node9</title>
<path fill="none" stroke="#191970" d="M320.912,-197.7275C347.616,-187.2645 380.4277,-174.4084 405.4569,-164.6017"/>
<polygon fill="#191970" stroke="#191970" points="319.4097,-194.5569 311.3757,-201.4639 321.9634,-201.0745 319.4097,-194.5569"/>
</g>
<!-- Node3 -->
<g id="node3" class="node">
<title>Node3</title>
<g id="a_node3"><a xlink:href="GoalTree_8cpp.html" target="_top" xlink:title=" ">
<polygon fill="#ffffff" stroke="#000000" points="0,-.5 0,-30.5 106,-30.5 106,-.5 0,-.5"/>
<text text-anchor="start" x="8" y="-18.5" font-family="Helvetica,sans-Serif" font-size="10.00" fill="#000000">libbsn/src/goalmodel</text>
<text text-anchor="middle" x="53" y="-7.5" font-family="Helvetica,sans-Serif" font-size="10.00" fill="#000000">/GoalTree.cpp</text>
</a>
</g>
</g>
<!-- Node2&#45;&gt;Node3 -->
<g id="edge2" class="edge">
<title>Node2&#45;&gt;Node3</title>
<path fill="none" stroke="#191970" d="M69.4546,-57.9021C65.9106,-48.7696 61.9973,-38.6854 58.8765,-30.6432"/>
<polygon fill="#191970" stroke="#191970" points="66.2195,-59.2402 73.1002,-67.2967 72.7453,-56.7078 66.2195,-59.2402"/>
</g>
<!-- Node2&#45;&gt;Node4 -->
<g id="edge3" class="edge">
<title>Node2&#45;&gt;Node4</title>
<path fill="none" stroke="#191970" d="M112.227,-62.0761C128.6561,-51.9774 148.1445,-39.9983 163.2428,-30.7177"/>
<polygon fill="#191970" stroke="#191970" points="110.1482,-59.2455 103.4617,-67.4639 113.8138,-65.209 110.1482,-59.2455"/>
</g>
<!-- Node5&#45;&gt;Node2 -->
<g id="edge5" class="edge">
<title>Node5&#45;&gt;Node2</title>
<path fill="none" stroke="#191970" d="M219.836,-131.1392C189.3291,-120.6033 151.4966,-107.5375 122.7273,-97.6017"/>
<polygon fill="#191970" stroke="#191970" points="218.8679,-134.5077 229.4626,-134.4639 221.153,-127.8912 218.8679,-134.5077"/>
</g>
<!-- Node5&#45;&gt;Node4 -->
<g id="edge7" class="edge">
<title>Node5&#45;&gt;Node4</title>
<path fill="none" stroke="#191970" d="M249.6221,-126.9438C241.5102,-118.3659 232.7622,-108.1943 226,-98 211.4428,-76.0545 199.7072,-47.633 193.3068,-30.5235"/>
<polygon fill="#191970" stroke="#191970" points="247.3323,-129.609 256.8179,-134.3285 252.3457,-124.7238 247.3323,-129.609"/>
</g>
<!-- Node6 -->
<g id="node6" class="node">
<title>Node6</title>
<g id="a_node6"><a xlink:href="LeafTask_8cpp.html" target="_top" xlink:title=" ">
<polygon fill="#ffffff" stroke="#000000" points="235,-67.5 235,-97.5 341,-97.5 341,-67.5 235,-67.5"/>
<text text-anchor="start" x="243" y="-85.5" font-family="Helvetica,sans-Serif" font-size="10.00" fill="#000000">libbsn/src/goalmodel</text>
<text text-anchor="middle" x="288" y="-74.5" font-family="Helvetica,sans-Serif" font-size="10.00" fill="#000000">/LeafTask.cpp</text>
</a>
</g>
</g>
<!-- Node5&#45;&gt;Node6 -->
<g id="edge6" class="edge">
<title>Node5&#45;&gt;Node6</title>
<path fill="none" stroke="#191970" d="M278.6378,-124.3179C280.6474,-115.3414 282.8475,-105.5143 284.6097,-97.6432"/>
<polygon fill="#191970" stroke="#191970" points="275.1731,-123.7735 276.4037,-134.2967 282.004,-125.3029 275.1731,-123.7735"/>
</g>
<!-- Node7 -->
<g id="node7" class="node">
<title>Node7</title>
<g id="a_node7"><a xlink:href="LeafTaskTest_8cpp.html" target="_top" xlink:title=" ">
<polygon fill="#ffffff" stroke="#000000" points="359,-67.5 359,-97.5 487,-97.5 487,-67.5 359,-67.5"/>
<text text-anchor="start" x="367" y="-85.5" font-family="Helvetica,sans-Serif" font-size="10.00" fill="#000000">libbsn/test/unit/goalmodel</text>
<text text-anchor="middle" x="423" y="-74.5" font-family="Helvetica,sans-Serif" font-size="10.00" fill="#000000">/LeafTaskTest.cpp</text>
</a>
</g>
</g>
<!-- Node5&#45;&gt;Node7 -->
<g id="edge8" class="edge">
<title>Node5&#45;&gt;Node7</title>
<path fill="none" stroke="#191970" d="M315.9555,-130.3132C339.2089,-119.9267 367.5237,-107.2794 389.1903,-97.6017"/>
<polygon fill="#191970" stroke="#191970" points="314.3661,-127.1898 306.6629,-134.4639 317.2209,-133.5812 314.3661,-127.1898"/>
</g>
<!-- Node5&#45;&gt;Node8 -->
<g id="edge9" class="edge">
<title>Node5&#45;&gt;Node8</title>
<path fill="none" stroke="#191970" d="M344.5621,-133.3018C393.4293,-122.2407 457.6204,-107.7109 504.8308,-97.0248"/>
<polygon fill="#191970" stroke="#191970" points="343.6716,-129.9148 334.691,-135.5362 345.217,-136.7421 343.6716,-129.9148"/>
</g>
</g>
</svg>
