<?xml version="1.0" encoding="UTF-8" standalone="no"?>
<!DOCTYPE svg PUBLIC "-//W3C//DTD SVG 1.1//EN"
 "http://www.w3.org/Graphics/SVG/1.1/DTD/svg11.dtd">
<!-- Generated by graphviz version 2.40.1 (20161225.0304)
 -->
<!-- Title: libbsn/include/time/TimeData.hpp Pages: 1 -->
<svg width="463pt" height="95pt"
 viewBox="0.00 0.00 462.50 95.00" xmlns="http://www.w3.org/2000/svg" xmlns:xlink="http://www.w3.org/1999/xlink">
<g id="graph0" class="graph" transform="scale(1 1) rotate(0) translate(4 91)">
<title>libbsn/include/time/TimeData.hpp</title>
<polygon fill="#ffffff" stroke="transparent" points="-4,4 -4,-91 458.5,-91 458.5,4 -4,4"/>
<!-- Node1 -->
<g id="node1" class="node">
<title>Node1</title>
<g id="a_node1"><a xlink:title=" ">
<polygon fill="#bfbfbf" stroke="#000000" points="181,-56.5 181,-86.5 279,-86.5 279,-56.5 181,-56.5"/>
<text text-anchor="start" x="189" y="-74.5" font-family="Helvetica,sans-Serif" font-size="10.00" fill="#000000">libbsn/include/time</text>
<text text-anchor="middle" x="230" y="-63.5" font-family="Helvetica,sans-Serif" font-size="10.00" fill="#000000">/TimeData.hpp</text>
</a>
</g>
</g>
<!-- Node2 -->
<g id="node2" class="node">
<title>Node2</title>
<g id="a_node2"><a xlink:title=" ">
<polygon fill="#ffffff" stroke="#bfbfbf" points="0,-.5 0,-19.5 46,-19.5 46,-.5 0,-.5"/>
<text text-anchor="middle" x="23" y="-7.5" font-family="Helvetica,sans-Serif" font-size="10.00" fill="#000000">stdio.h</text>
</a>
</g>
</g>
<!-- Node1&#45;&gt;Node2 -->
<g id="edge1" class="edge">
<title>Node1&#45;&gt;Node2</title>
<path fill="none" stroke="#191970" d="M180.9034,-57.289C147.9835,-47.706 103.4221,-34.6306 55.6521,-20.1666"/>
<polygon fill="#191970" stroke="#191970" points="56.6433,-16.8099 46.0579,-17.256 54.6111,-23.5084 56.6433,-16.8099"/>
</g>
<!-- Node3 -->
<g id="node3" class="node">
<title>Node3</title>
<g id="a_node3"><a xlink:title=" ">
<polygon fill="#ffffff" stroke="#bfbfbf" points="64,-.5 64,-19.5 126,-19.5 126,-.5 64,-.5"/>
<text text-anchor="middle" x="95" y="-7.5" font-family="Helvetica,sans-Serif" font-size="10.00" fill="#000000">sys/time.h</text>
</a>
</g>
</g>
<!-- Node1&#45;&gt;Node3 -->
<g id="edge2" class="edge">
<title>Node1&#45;&gt;Node3</title>
<path fill="none" stroke="#191970" d="M196.9753,-56.4554C175.043,-46.464 146.4727,-33.4487 125.1547,-23.7372"/>
<polygon fill="#191970" stroke="#191970" points="126.4714,-20.4909 115.9202,-19.5303 123.5694,-26.8611 126.4714,-20.4909"/>
</g>
<!-- Node4 -->
<g id="node4" class="node">
<title>Node4</title>
<g id="a_node4"><a xlink:title=" ">
<polygon fill="#ffffff" stroke="#bfbfbf" points="144,-.5 144,-19.5 188,-19.5 188,-.5 144,-.5"/>
<text text-anchor="middle" x="166" y="-7.5" font-family="Helvetica,sans-Serif" font-size="10.00" fill="#000000">time.h</text>
</a>
</g>
</g>
<!-- Node1&#45;&gt;Node4 -->
<g id="edge3" class="edge">
<title>Node1&#45;&gt;Node4</title>
<path fill="none" stroke="#191970" d="M214.1798,-56.2977C204.9258,-47.4052 193.2219,-36.1586 183.667,-26.9769"/>
<polygon fill="#191970" stroke="#191970" points="185.8828,-24.2521 176.2472,-19.8469 181.0326,-29.2995 185.8828,-24.2521"/>
</g>
<!-- Node5 -->
<g id="node5" class="node">
<title>Node5</title>
<g id="a_node5"><a xlink:title=" ">
<polygon fill="#ffffff" stroke="#bfbfbf" points="206.5,-.5 206.5,-19.5 253.5,-19.5 253.5,-.5 206.5,-.5"/>
<text text-anchor="middle" x="230" y="-7.5" font-family="Helvetica,sans-Serif" font-size="10.00" fill="#000000">math.h</text>
</a>
</g>
</g>
<!-- Node1&#45;&gt;Node5 -->
<g id="edge4" class="edge">
<title>Node1&#45;&gt;Node5</title>
<path fill="none" stroke="#191970" d="M230,-56.2977C230,-48.3834 230,-38.6043 230,-30.0759"/>
<polygon fill="#191970" stroke="#191970" points="233.5001,-29.8469 230,-19.8469 226.5001,-29.847 233.5001,-29.8469"/>
</g>
<!-- Node6 -->
<g id="node6" class="node">
<title>Node6</title>
<g id="a_node6"><a xlink:title=" ">
<polygon fill="#ffffff" stroke="#bfbfbf" points="271.5,-.5 271.5,-19.5 312.5,-19.5 312.5,-.5 271.5,-.5"/>
<text text-anchor="middle" x="292" y="-7.5" font-family="Helvetica,sans-Serif" font-size="10.00" fill="#000000">string</text>
</a>
</g>
</g>
<!-- Node1&#45;&gt;Node6 -->
<g id="edge5" class="edge">
<title>Node1&#45;&gt;Node6</title>
<path fill="none" stroke="#191970" d="M245.3258,-56.2977C254.2907,-47.4052 265.6288,-36.1586 274.8851,-26.9769"/>
<polygon fill="#191970" stroke="#191970" points="277.4382,-29.3742 282.073,-19.8469 272.5085,-24.4045 277.4382,-29.3742"/>
</g>
<!-- Node7 -->
<g id="node7" class="node">
<title>Node7</title>
<g id="a_node7"><a xlink:title=" ">
<polygon fill="#ffffff" stroke="#bfbfbf" points="331,-.5 331,-19.5 385,-19.5 385,-.5 331,-.5"/>
<text text-anchor="middle" x="358" y="-7.5" font-family="Helvetica,sans-Serif" font-size="10.00" fill="#000000">iostream</text>
</a>
</g>
</g>
<!-- Node1&#45;&gt;Node7 -->
<g id="edge6" class="edge">
<title>Node1&#45;&gt;Node7</title>
<path fill="none" stroke="#191970" d="M261.3123,-56.4554C282.0138,-46.509 308.9523,-33.5659 329.1353,-23.8686"/>
<polygon fill="#191970" stroke="#191970" points="330.6667,-27.0159 338.1645,-19.5303 327.6352,-20.7064 330.6667,-27.0159"/>
</g>
<!-- Node8 -->
<g id="node8" class="node">
<title>Node8</title>
<g id="a_node8"><a xlink:title=" ">
<polygon fill="#ffffff" stroke="#bfbfbf" points="403.5,-.5 403.5,-19.5 454.5,-19.5 454.5,-.5 403.5,-.5"/>
<text text-anchor="middle" x="429" y="-7.5" font-family="Helvetica,sans-Serif" font-size="10.00" fill="#000000">unistd.h</text>
</a>
</g>
</g>
<!-- Node1&#45;&gt;Node8 -->
<g id="edge7" class="edge">
<title>Node1&#45;&gt;Node8</title>
<path fill="none" stroke="#191970" d="M278.6809,-56.4554C314.1904,-45.4814 361.5038,-30.8594 393.4916,-20.9737"/>
<polygon fill="#191970" stroke="#191970" points="394.7836,-24.2378 403.3043,-17.9411 392.7167,-17.5499 394.7836,-24.2378"/>
</g>
</g>
</svg>
