<?xml version="1.0" encoding="UTF-8" standalone="no"?>
<!DOCTYPE svg PUBLIC "-//W3C//DTD SVG 1.1//EN"
 "http://www.w3.org/Graphics/SVG/1.1/DTD/svg11.dtd">
<!-- Generated by graphviz version 2.40.1 (20161225.0304)
 -->
<!-- Title: libbsn/src/time/TimeData.cpp Pages: 1 -->
<svg width="463pt" height="140pt"
 viewBox="0.00 0.00 462.50 140.00" xmlns="http://www.w3.org/2000/svg" xmlns:xlink="http://www.w3.org/1999/xlink">
<g id="graph0" class="graph" transform="scale(1 1) rotate(0) translate(4 136)">
<title>libbsn/src/time/TimeData.cpp</title>
<polygon fill="#ffffff" stroke="transparent" points="-4,4 -4,-136 458.5,-136 458.5,4 -4,4"/>
<!-- Node1 -->
<g id="node1" class="node">
<title>Node1</title>
<g id="a_node1"><a xlink:title=" ">
<polygon fill="#bfbfbf" stroke="#000000" points="157.5,-112.5 157.5,-131.5 302.5,-131.5 302.5,-112.5 157.5,-112.5"/>
<text text-anchor="middle" x="230" y="-119.5" font-family="Helvetica,sans-Serif" font-size="10.00" fill="#000000">libbsn/src/time/TimeData.cpp</text>
</a>
</g>
</g>
<!-- Node2 -->
<g id="node2" class="node">
<title>Node2</title>
<g id="a_node2"><a xlink:href="TimeData_8hpp.html" target="_top" xlink:title=" ">
<polygon fill="#ffffff" stroke="#000000" points="180,-56.5 180,-75.5 280,-75.5 280,-56.5 180,-56.5"/>
<text text-anchor="middle" x="230" y="-63.5" font-family="Helvetica,sans-Serif" font-size="10.00" fill="#000000">time/TimeData.hpp</text>
</a>
</g>
</g>
<!-- Node1&#45;&gt;Node2 -->
<g id="edge1" class="edge">
<title>Node1&#45;&gt;Node2</title>
<path fill="none" stroke="#191970" d="M230,-112.2455C230,-104.9382 230,-94.6944 230,-85.7046"/>
<polygon fill="#191970" stroke="#191970" points="233.5001,-85.6426 230,-75.6427 226.5001,-85.6427 233.5001,-85.6426"/>
</g>
<!-- Node3 -->
<g id="node3" class="node">
<title>Node3</title>
<g id="a_node3"><a xlink:title=" ">
<polygon fill="#ffffff" stroke="#bfbfbf" points="0,-.5 0,-19.5 46,-19.5 46,-.5 0,-.5"/>
<text text-anchor="middle" x="23" y="-7.5" font-family="Helvetica,sans-Serif" font-size="10.00" fill="#000000">stdio.h</text>
</a>
</g>
</g>
<!-- Node2&#45;&gt;Node3 -->
<g id="edge2" class="edge">
<title>Node2&#45;&gt;Node3</title>
<path fill="none" stroke="#191970" d="M191.627,-56.4522C158.1615,-48.0054 108.0929,-35.0808 55.8172,-20.1477"/>
<polygon fill="#191970" stroke="#191970" points="56.6118,-16.7344 46.0341,-17.3366 54.6786,-23.4622 56.6118,-16.7344"/>
</g>
<!-- Node4 -->
<g id="node4" class="node">
<title>Node4</title>
<g id="a_node4"><a xlink:title=" ">
<polygon fill="#ffffff" stroke="#bfbfbf" points="64,-.5 64,-19.5 126,-19.5 126,-.5 64,-.5"/>
<text text-anchor="middle" x="95" y="-7.5" font-family="Helvetica,sans-Serif" font-size="10.00" fill="#000000">sys/time.h</text>
</a>
</g>
</g>
<!-- Node2&#45;&gt;Node4 -->
<g id="edge3" class="edge">
<title>Node2&#45;&gt;Node4</title>
<path fill="none" stroke="#191970" d="M206.7927,-56.3733C184.8301,-47.2629 151.6668,-33.5062 127.1599,-23.3404"/>
<polygon fill="#191970" stroke="#191970" points="128.4824,-20.0999 117.9045,-19.5011 125.8003,-26.5657 128.4824,-20.0999"/>
</g>
<!-- Node5 -->
<g id="node5" class="node">
<title>Node5</title>
<g id="a_node5"><a xlink:title=" ">
<polygon fill="#ffffff" stroke="#bfbfbf" points="144,-.5 144,-19.5 188,-19.5 188,-.5 144,-.5"/>
<text text-anchor="middle" x="166" y="-7.5" font-family="Helvetica,sans-Serif" font-size="10.00" fill="#000000">time.h</text>
</a>
</g>
</g>
<!-- Node2&#45;&gt;Node5 -->
<g id="edge4" class="edge">
<title>Node2&#45;&gt;Node5</title>
<path fill="none" stroke="#191970" d="M218.8521,-56.2455C209.4913,-48.0549 195.9142,-36.1749 184.8651,-26.5069"/>
<polygon fill="#191970" stroke="#191970" points="186.8508,-23.5937 177.0202,-19.6427 182.2412,-28.8618 186.8508,-23.5937"/>
</g>
<!-- Node6 -->
<g id="node6" class="node">
<title>Node6</title>
<g id="a_node6"><a xlink:title=" ">
<polygon fill="#ffffff" stroke="#bfbfbf" points="206.5,-.5 206.5,-19.5 253.5,-19.5 253.5,-.5 206.5,-.5"/>
<text text-anchor="middle" x="230" y="-7.5" font-family="Helvetica,sans-Serif" font-size="10.00" fill="#000000">math.h</text>
</a>
</g>
</g>
<!-- Node2&#45;&gt;Node6 -->
<g id="edge5" class="edge">
<title>Node2&#45;&gt;Node6</title>
<path fill="none" stroke="#191970" d="M230,-56.2455C230,-48.9382 230,-38.6944 230,-29.7046"/>
<polygon fill="#191970" stroke="#191970" points="233.5001,-29.6426 230,-19.6427 226.5001,-29.6427 233.5001,-29.6426"/>
</g>
<!-- Node7 -->
<g id="node7" class="node">
<title>Node7</title>
<g id="a_node7"><a xlink:title=" ">
<polygon fill="#ffffff" stroke="#bfbfbf" points="271.5,-.5 271.5,-19.5 312.5,-19.5 312.5,-.5 271.5,-.5"/>
<text text-anchor="middle" x="292" y="-7.5" font-family="Helvetica,sans-Serif" font-size="10.00" fill="#000000">string</text>
</a>
</g>
</g>
<!-- Node2&#45;&gt;Node7 -->
<g id="edge6" class="edge">
<title>Node2&#45;&gt;Node7</title>
<path fill="none" stroke="#191970" d="M240.7996,-56.2455C249.8678,-48.0549 263.0206,-36.1749 273.7245,-26.5069"/>
<polygon fill="#191970" stroke="#191970" points="276.2491,-28.9429 281.3242,-19.6427 271.5571,-23.7482 276.2491,-28.9429"/>
</g>
<!-- Node8 -->
<g id="node8" class="node">
<title>Node8</title>
<g id="a_node8"><a xlink:title=" ">
<polygon fill="#ffffff" stroke="#bfbfbf" points="331,-.5 331,-19.5 385,-19.5 385,-.5 331,-.5"/>
<text text-anchor="middle" x="358" y="-7.5" font-family="Helvetica,sans-Serif" font-size="10.00" fill="#000000">iostream</text>
</a>
</g>
</g>
<!-- Node2&#45;&gt;Node8 -->
<g id="edge7" class="edge">
<title>Node2&#45;&gt;Node8</title>
<path fill="none" stroke="#191970" d="M252.004,-56.3733C272.6435,-47.3435 303.7158,-33.7494 326.8889,-23.6111"/>
<polygon fill="#191970" stroke="#191970" points="328.5245,-26.7159 336.2831,-19.5011 325.7187,-20.3028 328.5245,-26.7159"/>
</g>
<!-- Node9 -->
<g id="node9" class="node">
<title>Node9</title>
<g id="a_node9"><a xlink:title=" ">
<polygon fill="#ffffff" stroke="#bfbfbf" points="403.5,-.5 403.5,-19.5 454.5,-19.5 454.5,-.5 403.5,-.5"/>
<text text-anchor="middle" x="429" y="-7.5" font-family="Helvetica,sans-Serif" font-size="10.00" fill="#000000">unistd.h</text>
</a>
</g>
</g>
<!-- Node2&#45;&gt;Node9 -->
<g id="edge8" class="edge">
<title>Node2&#45;&gt;Node9</title>
<path fill="none" stroke="#191970" d="M264.2512,-56.4449C295.4293,-47.7356 342.9885,-34.4218 393.5749,-20.111"/>
<polygon fill="#191970" stroke="#191970" points="394.7213,-23.4241 403.3898,-17.3326 392.8146,-16.6888 394.7213,-23.4241"/>
</g>
</g>
</svg>
